<svg xmlns="http://www.w3.org/2000/svg" xmlns:xlink="http://www.w3.org/1999/xlink" width="363.137" height="94.34" viewBox="0 0 363.137 94.34">
  <defs>
    <style>
      .cls-1 {
        fill: #161515;
      }
    </style>
    <symbol id="Appalachia_Interactive_2" data-name="Appalachia Interactive 2" viewBox="0 0 363.138 94.34">
      <g>
        <path class="cls-1" d="M27.6,33.75H9L5.15,42.5H0l15.85-35H20.8l15.9,35H31.45Zm-1.75-4L18.3,12.6,10.75,29.75Z"/>
        <path class="cls-1" d="M68.25,10.75a11.02,11.02,0,0,1,3.9,8.949,11.019,11.019,0,0,1-3.9,8.95q-3.9,3.252-10.7,3.25H48.9V42.5h-5V7.5h13.65Q64.349,7.5,68.25,10.75Zm-3.6,14.774a7.059,7.059,0,0,0,2.5-5.825,7.061,7.061,0,0,0-2.5-5.824q-2.5-2.027-7.25-2.025H48.9v15.7h8.5Q62.15,27.55,64.649,25.524Z"/>
        <path class="cls-1" d="M105.849,10.75a11.021,11.021,0,0,1,3.9,8.949,11.02,11.02,0,0,1-3.9,8.95q-3.9,3.252-10.7,3.25H86.5V42.5h-5V7.5h13.65Q101.949,7.5,105.849,10.75Zm-3.6,14.774a7.059,7.059,0,0,0,2.5-5.825,7.061,7.061,0,0,0-2.5-5.824q-2.5-2.027-7.25-2.025H86.5v15.7H95Q99.75,27.55,102.249,25.524Z"/>
        <path class="cls-1" d="M139.648,33.75h-18.6L117.2,42.5h-5.15L127.9,7.5h4.951l15.9,35H143.5Zm-1.75-4L130.349,12.6,122.8,29.75Z"/>
        <path class="cls-1" d="M155.948,7.5h5V38.149H179.9V42.5h-23.95Z"/>
        <path class="cls-1" d="M210.1,33.75H191.5l-3.851,8.75H182.5l15.849-35h4.95l15.9,35h-5.25Zm-1.75-4L200.8,12.6l-7.549,17.15Z"/>
        <path class="cls-1" d="M232.572,40.574a17.1,17.1,0,0,1-6.625-6.4,17.741,17.741,0,0,1-2.4-9.175,17.745,17.745,0,0,1,2.4-9.176,17.058,17.058,0,0,1,6.65-6.4A19.464,19.464,0,0,1,242.1,7.1a19.824,19.824,0,0,1,7.5,1.375,15.359,15.359,0,0,1,5.8,4.075l-3.25,3.149a13.043,13.043,0,0,0-9.85-4.149,14.265,14.265,0,0,0-7.05,1.75,12.684,12.684,0,0,0-4.925,4.825A13.5,13.5,0,0,0,228.547,25a13.5,13.5,0,0,0,1.775,6.875,12.681,12.681,0,0,0,4.925,4.824,14.254,14.254,0,0,0,7.05,1.75,13.066,13.066,0,0,0,9.85-4.2L255.4,37.4a15.555,15.555,0,0,1-5.825,4.1,19.711,19.711,0,0,1-7.525,1.4A19.31,19.31,0,0,1,232.572,40.574Z"/>
        <path class="cls-1" d="M294.647,7.5v35h-5V26.9h-20.1V42.5h-5V7.5h5V22.55h20.1V7.5Z"/>
        <path class="cls-1" d="M307.146,7.5h5v35h-5Z"/>
        <path class="cls-1" d="M346.946,33.75h-18.6L324.5,42.5h-5.15L335.2,7.5h4.95l15.9,35H350.8Zm-1.75-4-7.55-17.15L330.1,29.75Z"/>
        <path class="cls-1" d="M3.677,85.643V57.953H5.666v27.69Z"/>
        <path class="cls-1" d="M25.439,61.658V85.643H23.45V57.953h1.638L44.393,82.328V57.953h1.989v27.69h-1.95Z"/>
        <path class="cls-1" d="M83.471,59.747H73.331v25.9h-1.99v-25.9H61.2V57.953H83.471Z"/>
        <path class="cls-1" d="M116.737,83.849v1.794H98.29V57.953h18.1v1.794H100.279V70.628h14.079v1.716H100.279V83.849Z"/>
        <path class="cls-1" d="M132.688,85.643V57.953h11.505a7.1,7.1,0,0,1,3.257.741,8.326,8.326,0,0,1,2.534,1.97,9.489,9.489,0,0,1,1.678,2.749,8.4,8.4,0,0,1,.6,3.12,9.186,9.186,0,0,1-.819,3.861,8.307,8.307,0,0,1-2.281,3,6.7,6.7,0,0,1-3.413,1.482l6.9,10.764h-2.3l-6.708-10.452h-8.97V85.643Zm1.989-12.285h9.711a5.125,5.125,0,0,0,3.12-.975,6.451,6.451,0,0,0,2.048-2.535,7.814,7.814,0,0,0,.721-3.315,6.859,6.859,0,0,0-.839-3.335,7.114,7.114,0,0,0-2.223-2.495,5.332,5.332,0,0,0-3.1-.956h-9.438Z"/>
        <path class="cls-1" d="M176.992,57.953h1.716l11.7,27.69H188.3l-3.774-9.126h-13.38l-3.789,9.126h-2.145Zm6.858,16.926-6-14.508-6.022,14.508Z"/>
        <path class="cls-1" d="M202.225,71.564a14.466,14.466,0,0,1,.877-4.933,14.63,14.63,0,0,1,2.555-4.446,12.545,12.545,0,0,1,4.114-3.218,12.346,12.346,0,0,1,5.558-1.209,11.344,11.344,0,0,1,6.318,1.7,10.7,10.7,0,0,1,3.9,4.348l-1.638.936a8.866,8.866,0,0,0-5.46-4.66,11.435,11.435,0,0,0-3.276-.488,10.046,10.046,0,0,0-4.661,1.053,10.529,10.529,0,0,0-3.451,2.808,12.65,12.65,0,0,0-2.126,3.9,13.5,13.5,0,0,0-.721,4.329,12.733,12.733,0,0,0,.858,4.661,13.132,13.132,0,0,0,2.359,3.919,11.517,11.517,0,0,0,3.51,2.73,9.514,9.514,0,0,0,4.349,1.014,10.947,10.947,0,0,0,3.412-.566,10.567,10.567,0,0,0,3.257-1.754,8.741,8.741,0,0,0,2.457-3.1l1.716.819a9.116,9.116,0,0,1-2.691,3.51,12.914,12.914,0,0,1-3.978,2.184,13.42,13.42,0,0,1-4.329.741,11.146,11.146,0,0,1-5.187-1.228,13.387,13.387,0,0,1-4.114-3.277,15.318,15.318,0,0,1-3.608-9.769Z"/>
        <path class="cls-1" d="M260.764,59.747h-10.14v25.9h-1.99v-25.9H238.5V57.953h22.269Z"/>
        <path class="cls-1" d="M275.583,85.643V57.953h1.989v27.69Z"/>
        <path class="cls-1" d="M294.42,57.953l10.53,25.194,10.53-25.194h2.106l-11.661,27.69h-1.911l-11.7-27.69Z"/>
        <path class="cls-1" d="M350.813,83.849v1.794H332.366V57.953h18.1v1.794H334.355V70.628h14.079v1.716H334.355V83.849Z"/>
      </g>
    </symbol>
  </defs>
  <g id="Layer_2" data-name="Layer 2">
    <g id="Text">
      <use id="appalachia_interactive_black" width="363.138" height="94.34" transform="translate(0 0)" xlink:href="#Appalachia_Interactive_2"/>
    </g>
  </g>
</svg>
