<svg xmlns="http://www.w3.org/2000/svg" xmlns:xlink="http://www.w3.org/1999/xlink" width="386.246" height="96.341" viewBox="0 0 386.246 96.341">
  <defs>
    <style>
      .cls-1 {
        fill: #fff;
        stroke: #161515;
        stroke-miterlimit: 3;
        stroke-width: 2px;
      }
    </style>
    <symbol id="Appalachia_Interactive_3" data-name="Appalachia Interactive 3" viewBox="0 0 386.247 96.34">
      <g>
        <path class="cls-1" d="M28.649,36H12.4L9.3,43.5H1l15.6-35h8l15.65,35h-8.5ZM26.1,29.85l-5.55-13.4L15,29.85Z"/>
        <path class="cls-1" d="M70.124,10.05a12,12,0,0,1,5.275,4.4,12.129,12.129,0,0,1,1.85,6.75,12.157,12.157,0,0,1-1.85,6.726,11.774,11.774,0,0,1-5.275,4.4,19.7,19.7,0,0,1-8.075,1.526H55V43.5H46.9V8.5h15.15A19.451,19.451,0,0,1,70.124,10.05ZM67.149,25.675a5.486,5.486,0,0,0,1.9-4.476,5.542,5.542,0,0,0-1.9-4.524A8.508,8.508,0,0,0,61.6,15.1H55V27.25h6.6A8.508,8.508,0,0,0,67.149,25.675Z"/>
        <path class="cls-1" d="M109.224,10.05a12.01,12.01,0,0,1,5.275,4.4,12.137,12.137,0,0,1,1.85,6.75,12.165,12.165,0,0,1-1.85,6.726,11.785,11.785,0,0,1-5.275,4.4,19.7,19.7,0,0,1-8.076,1.526H94.1V43.5H86V8.5h15.149A19.452,19.452,0,0,1,109.224,10.05Zm-2.975,15.625a5.488,5.488,0,0,0,1.9-4.476,5.544,5.544,0,0,0-1.9-4.524A8.512,8.512,0,0,0,100.7,15.1H94.1V27.25h6.6A8.512,8.512,0,0,0,106.249,25.675Z"/>
        <path class="cls-1" d="M146.4,36h-16.25l-3.1,7.5h-8.3l15.6-35h8L158,43.5h-8.5Zm-2.55-6.15-5.55-13.4-5.55,13.4Z"/>
        <path class="cls-1" d="M164.648,8.5h8.1V36.9H190.3v6.6h-25.65Z"/>
        <path class="cls-1" d="M221.2,36h-16.25l-3.1,7.5h-8.3l15.6-35h8l15.65,35h-8.5Zm-2.551-6.15-5.549-13.4-5.551,13.4Z"/>
        <path class="cls-1" d="M246.522,41.774a17.34,17.34,0,0,1-6.8-6.45A17.766,17.766,0,0,1,237.247,26a17.77,17.77,0,0,1,2.475-9.325,17.34,17.34,0,0,1,6.8-6.45,21.688,21.688,0,0,1,17.95-.725,16.488,16.488,0,0,1,6.175,4.6l-5.2,4.8a11.184,11.184,0,0,0-8.8-4.1,11.671,11.671,0,0,0-5.8,1.425,10.134,10.134,0,0,0-3.975,3.974,11.688,11.688,0,0,0-1.425,5.8,11.684,11.684,0,0,0,1.425,5.8,10.128,10.128,0,0,0,3.975,3.974,11.671,11.671,0,0,0,5.8,1.425,11.125,11.125,0,0,0,8.8-4.149l5.2,4.8a16.23,16.23,0,0,1-6.2,4.65,20.6,20.6,0,0,1-8.25,1.6A20.1,20.1,0,0,1,246.522,41.774Z"/>
        <path class="cls-1" d="M311.2,8.5v35h-8.1V29.149H287.2V43.5h-8.1V8.5h8.1V22.3h15.9V8.5Z"/>
        <path class="cls-1" d="M322.5,8.5h8.1v35h-8.1Z"/>
        <path class="cls-1" d="M364.946,36H348.7l-3.1,7.5h-8.3l15.6-35h8l15.649,35h-8.5Zm-2.55-6.15-5.55-13.4L351.3,29.85Z"/>
        <path class="cls-1" d="M4.569,86.643V58.953H8.976v27.69Z"/>
        <path class="cls-1" d="M31.712,67.065V86.643H27.306V58.953h3.588L46.572,78.96V58.992h4.367V86.643H47.157Z"/>
        <path class="cls-1" d="M89.667,62.814h-9.2V86.643H76.056V62.814H66.812V58.953H89.667Z"/>
        <path class="cls-1" d="M124.493,82.782v3.861H105.5V58.953h18.643v3.861H109.907v7.917h12.364v3.588H109.907v8.463Z"/>
        <path class="cls-1" d="M141.146,86.643V58.953H153.2a7.566,7.566,0,0,1,3.432.78A9,9,0,0,1,159.34,61.8a9.726,9.726,0,0,1,1.794,2.906,8.749,8.749,0,0,1,.643,3.256,9.408,9.408,0,0,1-.663,3.529,8.283,8.283,0,0,1-1.891,2.867,7.348,7.348,0,0,1-2.867,1.755l6.513,10.53h-4.913l-6.007-9.633h-6.4v9.633Zm4.407-13.494h7.6a3.413,3.413,0,0,0,2.145-.722,5.008,5.008,0,0,0,1.482-1.891,6.012,6.012,0,0,0,.547-2.574,5.454,5.454,0,0,0-2.263-4.465,3.658,3.658,0,0,0-2.145-.683h-7.371Z"/>
        <path class="cls-1" d="M187.049,58.953h4.134l10.764,27.69h-4.6l-2.705-7.527H183.566l-2.718,7.527h-4.6Zm6.427,16.926-4.36-12.129-4.381,12.129Z"/>
        <path class="cls-1" d="M214.7,72.564a14.428,14.428,0,0,1,3.529-9.418,12.621,12.621,0,0,1,9.848-4.388,11.982,11.982,0,0,1,6.493,1.7,10.771,10.771,0,0,1,4.037,4.348l-3.432,2.3a6.851,6.851,0,0,0-4.524-4.017,10.18,10.18,0,0,0-2.73-.39,7.9,7.9,0,0,0-3.783.877,8.5,8.5,0,0,0-2.749,2.321,10.043,10.043,0,0,0-1.658,3.237,12.267,12.267,0,0,0-.546,3.588,11.546,11.546,0,0,0,.644,3.861,10.365,10.365,0,0,0,1.833,3.257,8.8,8.8,0,0,0,2.807,2.242,7.791,7.791,0,0,0,3.569.819,9.078,9.078,0,0,0,2.808-.468,8.109,8.109,0,0,0,2.672-1.482,7.014,7.014,0,0,0,1.93-2.574l3.627,2.028a8.373,8.373,0,0,1-2.633,3.51,12.95,12.95,0,0,1-4.075,2.184,14.343,14.343,0,0,1-4.485.741,11.468,11.468,0,0,1-5.265-1.228,13.713,13.713,0,0,1-4.193-3.277,15.276,15.276,0,0,1-2.749-4.6A14.383,14.383,0,0,1,214.7,72.564Z"/>
        <path class="cls-1" d="M275.579,62.814h-9.2V86.643h-4.407V62.814h-9.243V58.953h22.854Z"/>
        <path class="cls-1" d="M291.413,86.643V58.953h4.406v27.69Z"/>
        <path class="cls-1" d="M315.9,58.953,324.289,81.3,332.6,58.953h4.6l-10.881,27.69h-4.134l-10.92-27.69Z"/>
        <path class="cls-1" d="M371.712,82.782v3.861H352.72V58.953h18.642v3.861H357.126v7.917H369.49v3.588H357.126v8.463Z"/>
      </g>
    </symbol>
  </defs>
  <g id="Layer_2" data-name="Layer 2">
    <g id="Text">
      <use id="appalachia_interactive_white_outline_thick" width="386.247" height="96.34" transform="translate(0 0)" xlink:href="#Appalachia_Interactive_3"/>
    </g>
  </g>
</svg>
