<svg xmlns="http://www.w3.org/2000/svg" width="378.629" height="80.939" viewBox="0 0 378.629 80.939">
  <defs>
    <style>
      .cls-1 {
        fill: none;
        stroke: #fff;
        stroke-miterlimit: 3;
        stroke-width: 2px;
      }
    </style>
  </defs>
  <g id="Layer_2" data-name="Layer 2">
    <g id="Text">
      <g id="appalachia_interactive_hollow_white">
        <path class="cls-1" d="M28.649,36H12.4L9.3,43.5H1l15.6-35h8l15.649,35h-8.5ZM26.1,29.85l-5.551-13.4L15,29.85Z" transform="translate(0.542 -6.899)"/>
        <path class="cls-1" d="M70.124,10.05a11.992,11.992,0,0,1,5.274,4.4,12.116,12.116,0,0,1,1.851,6.75A12.146,12.146,0,0,1,75.4,27.925a11.773,11.773,0,0,1-5.274,4.4,19.72,19.72,0,0,1-8.075,1.525H55V43.5H46.9V8.5H62.049A19.454,19.454,0,0,1,70.124,10.05ZM67.148,25.675a5.482,5.482,0,0,0,1.9-4.475,5.54,5.54,0,0,0-1.9-4.525A8.5,8.5,0,0,0,61.6,15.1H55V27.25h6.6A8.5,8.5,0,0,0,67.148,25.675Z" transform="translate(0.542 -6.899)"/>
        <path class="cls-1" d="M109.224,10.05a11.992,11.992,0,0,1,5.274,4.4,12.125,12.125,0,0,1,1.851,6.75,12.154,12.154,0,0,1-1.851,6.725,11.773,11.773,0,0,1-5.274,4.4,19.725,19.725,0,0,1-8.076,1.525H94.1V43.5H86V8.5h15.15A19.459,19.459,0,0,1,109.224,10.05Zm-2.976,15.625a5.481,5.481,0,0,0,1.9-4.475,5.54,5.54,0,0,0-1.9-4.525A8.507,8.507,0,0,0,100.7,15.1H94.1V27.25h6.6A8.507,8.507,0,0,0,106.248,25.675Z" transform="translate(0.542 -6.899)"/>
        <path class="cls-1" d="M146.4,36h-16.25l-3.1,7.5h-8.3l15.6-35h8L158,43.5h-8.5Zm-2.549-6.15-5.55-13.4-5.551,13.4Z" transform="translate(0.542 -6.899)"/>
        <path class="cls-1" d="M164.648,8.5h8.1V36.9H190.3v6.6h-25.65Z" transform="translate(0.542 -6.899)"/>
        <path class="cls-1" d="M221.2,36h-16.25l-3.1,7.5h-8.3l15.6-35h8l15.65,35h-8.5Zm-2.55-6.15L213.1,16.45l-5.551,13.4Z" transform="translate(0.542 -6.899)"/>
        <path class="cls-1" d="M246.521,41.774a17.348,17.348,0,0,1-6.8-6.449A17.77,17.77,0,0,1,237.247,26a17.77,17.77,0,0,1,2.475-9.325,17.351,17.351,0,0,1,6.8-6.45A20.209,20.209,0,0,1,256.247,7.9a20.418,20.418,0,0,1,8.225,1.6,16.477,16.477,0,0,1,6.174,4.6l-5.2,4.8a11.186,11.186,0,0,0-8.8-4.1,11.67,11.67,0,0,0-5.8,1.425,10.124,10.124,0,0,0-3.975,3.975,11.682,11.682,0,0,0-1.425,5.8,11.684,11.684,0,0,0,1.425,5.8,10.115,10.115,0,0,0,3.975,3.974,11.67,11.67,0,0,0,5.8,1.426,11.128,11.128,0,0,0,8.8-4.15l5.2,4.8a16.2,16.2,0,0,1-6.2,4.65,20.6,20.6,0,0,1-8.25,1.6A20.1,20.1,0,0,1,246.521,41.774Z" transform="translate(0.542 -6.899)"/>
        <path class="cls-1" d="M311.2,8.5v35h-8.1V29.149H287.2V43.5h-8.1V8.5h8.1V22.3h15.9V8.5Z" transform="translate(0.542 -6.899)"/>
        <path class="cls-1" d="M322.5,8.5h8.1v35h-8.1Z" transform="translate(0.542 -6.899)"/>
        <path class="cls-1" d="M364.945,36H348.7l-3.1,7.5h-8.3l15.6-35h8l15.649,35h-8.5ZM362.4,29.85l-5.55-13.4L351.3,29.85Z" transform="translate(0.542 -6.899)"/>
        <path class="cls-1" d="M4.569,86.644V58.953H8.977V86.644Z" transform="translate(0.542 -6.899)"/>
        <path class="cls-1" d="M31.713,67.065V86.644H27.306V58.953h3.588L46.572,78.96V58.992h4.367V86.644H47.156Z" transform="translate(0.542 -6.899)"/>
        <path class="cls-1" d="M89.666,62.814h-9.2v23.83H76.056V62.814H66.812V58.953H89.666Z" transform="translate(0.542 -6.899)"/>
        <path class="cls-1" d="M124.493,82.782v3.862H105.5V58.953h18.643v3.861H109.907v7.917h12.364v3.588H109.907v8.463Z" transform="translate(0.542 -6.899)"/>
        <path class="cls-1" d="M141.146,86.644V58.953H153.2a7.575,7.575,0,0,1,3.432.78A9.03,9.03,0,0,1,159.34,61.8a9.726,9.726,0,0,1,1.794,2.906,8.769,8.769,0,0,1,.643,3.256,9.388,9.388,0,0,1-.663,3.529,8.273,8.273,0,0,1-1.891,2.867,7.336,7.336,0,0,1-2.867,1.755l6.513,10.531h-4.914l-6.006-9.633h-6.4v9.633Zm4.407-13.5h7.6a3.416,3.416,0,0,0,2.145-.721,5.009,5.009,0,0,0,1.482-1.892,6.023,6.023,0,0,0,.547-2.574,5.458,5.458,0,0,0-2.263-4.465,3.658,3.658,0,0,0-2.145-.683h-7.371Z" transform="translate(0.542 -6.899)"/>
        <path class="cls-1" d="M187.049,58.953h4.135l10.763,27.691h-4.6l-2.706-7.528H183.566l-2.718,7.528h-4.6Zm6.428,16.927-4.361-12.13-4.381,12.13Z" transform="translate(0.542 -6.899)"/>
        <path class="cls-1" d="M214.7,72.564a14.442,14.442,0,0,1,3.529-9.418,12.616,12.616,0,0,1,9.848-4.387,11.979,11.979,0,0,1,6.493,1.7,10.773,10.773,0,0,1,4.037,4.349l-3.432,2.3a6.856,6.856,0,0,0-4.525-4.017,10.167,10.167,0,0,0-2.729-.39,7.868,7.868,0,0,0-3.782.878,8.465,8.465,0,0,0-2.75,2.321,10.05,10.05,0,0,0-1.659,3.236,12.3,12.3,0,0,0-.544,3.588,11.57,11.57,0,0,0,.642,3.861,10.4,10.4,0,0,0,1.834,3.257,8.812,8.812,0,0,0,2.807,2.242,7.791,7.791,0,0,0,3.569.819,9.11,9.11,0,0,0,2.808-.467,8.111,8.111,0,0,0,2.672-1.483,7,7,0,0,0,1.929-2.574l3.628,2.028a8.361,8.361,0,0,1-2.633,3.51,12.953,12.953,0,0,1-4.075,2.185,14.347,14.347,0,0,1-4.485.741,11.456,11.456,0,0,1-5.265-1.229,13.725,13.725,0,0,1-4.193-3.276,15.272,15.272,0,0,1-2.749-4.6A14.379,14.379,0,0,1,214.7,72.564Z" transform="translate(0.542 -6.899)"/>
        <path class="cls-1" d="M275.578,62.814h-9.2v23.83h-4.407V62.814h-9.243V58.953h22.853Z" transform="translate(0.542 -6.899)"/>
        <path class="cls-1" d="M291.412,86.644V58.953h4.407V86.644Z" transform="translate(0.542 -6.899)"/>
        <path class="cls-1" d="M315.9,58.953,324.289,81.3,332.6,58.953h4.6L326.317,86.644h-4.133l-10.92-27.691Z" transform="translate(0.542 -6.899)"/>
        <path class="cls-1" d="M371.713,82.782v3.862H352.72V58.953h18.641v3.861H357.127v7.917H369.49v3.588H357.127v8.463Z" transform="translate(0.542 -6.899)"/>
      </g>
    </g>
  </g>
</svg>
