<svg xmlns="http://www.w3.org/2000/svg" width="377.088" height="79.939" viewBox="0 0 377.088 79.939">
  <defs>
    <style>
      .cls-1 {
        fill: #d9b776;
        stroke: #161515;
        stroke-miterlimit: 3;
      }
    </style>
  </defs>
  <g id="Layer_2" data-name="Layer 2">
    <g id="Text">
      <g id="appalachia_interactive_gold_outline_thin">
        <path class="cls-1" d="M28.149,35.5H11.9L8.8,43H.5L16.1,8h8L39.749,43h-8.5ZM25.6,29.35l-5.55-13.4L14.5,29.35Z" transform="translate(0.271 -6.899)"/>
        <path class="cls-1" d="M69.624,9.55a12,12,0,0,1,5.275,4.4,12.124,12.124,0,0,1,1.85,6.75,12.154,12.154,0,0,1-1.85,6.725,11.776,11.776,0,0,1-5.275,4.4,19.714,19.714,0,0,1-8.075,1.525H54.5V43H46.4V8h15.15A19.448,19.448,0,0,1,69.624,9.55ZM66.649,25.175a5.484,5.484,0,0,0,1.9-4.475,5.542,5.542,0,0,0-1.9-4.525A8.507,8.507,0,0,0,61.1,14.6H54.5V26.75h6.6A8.507,8.507,0,0,0,66.649,25.175Z" transform="translate(0.271 -6.899)"/>
        <path class="cls-1" d="M108.724,9.55A12,12,0,0,1,114,13.95a12.132,12.132,0,0,1,1.85,6.75A12.162,12.162,0,0,1,114,27.425a11.776,11.776,0,0,1-5.275,4.4,19.719,19.719,0,0,1-8.076,1.525H93.6V43H85.5V8h15.149A19.452,19.452,0,0,1,108.724,9.55Zm-2.975,15.625a5.483,5.483,0,0,0,1.9-4.475,5.542,5.542,0,0,0-1.9-4.525A8.51,8.51,0,0,0,100.2,14.6H93.6V26.75h6.6A8.51,8.51,0,0,0,105.749,25.175Z" transform="translate(0.271 -6.899)"/>
        <path class="cls-1" d="M145.9,35.5h-16.25l-3.1,7.5h-8.3l15.6-35h8L157.5,43H149Zm-2.55-6.15-5.55-13.4-5.55,13.4Z" transform="translate(0.271 -6.899)"/>
        <path class="cls-1" d="M164.148,8h8.1V36.4H189.8V43h-25.65Z" transform="translate(0.271 -6.899)"/>
        <path class="cls-1" d="M220.7,35.5h-16.25l-3.1,7.5h-8.3l15.6-35h8L232.3,43h-8.5Zm-2.551-6.15L212.6,15.95l-5.55,13.4Z" transform="translate(0.271 -6.899)"/>
        <path class="cls-1" d="M246.022,41.274a17.344,17.344,0,0,1-6.8-6.449,17.77,17.77,0,0,1-2.475-9.325,17.77,17.77,0,0,1,2.475-9.325,17.347,17.347,0,0,1,6.8-6.45A21.688,21.688,0,0,1,263.972,9a16.488,16.488,0,0,1,6.175,4.6l-5.2,4.8a11.184,11.184,0,0,0-8.8-4.1,11.671,11.671,0,0,0-5.8,1.425,10.13,10.13,0,0,0-3.975,3.975,11.682,11.682,0,0,0-1.425,5.8,11.684,11.684,0,0,0,1.425,5.8,10.121,10.121,0,0,0,3.975,3.974,11.672,11.672,0,0,0,5.8,1.426,11.126,11.126,0,0,0,8.8-4.15l5.2,4.8a16.21,16.21,0,0,1-6.2,4.65,20.6,20.6,0,0,1-8.25,1.6A20.091,20.091,0,0,1,246.022,41.274Z" transform="translate(0.271 -6.899)"/>
        <path class="cls-1" d="M310.7,8V43h-8.1V28.649H286.7V43h-8.1V8h8.1V21.8h15.9V8Z" transform="translate(0.271 -6.899)"/>
        <path class="cls-1" d="M322,8h8.1V43H322Z" transform="translate(0.271 -6.899)"/>
        <path class="cls-1" d="M364.446,35.5H348.2L345.1,43h-8.3L352.4,8h8l15.65,35h-8.5Zm-2.55-6.15-5.55-13.4-5.55,13.4Z" transform="translate(0.271 -6.899)"/>
        <path class="cls-1" d="M4.069,86.144V58.453H8.477V86.144Z" transform="translate(0.271 -6.899)"/>
        <path class="cls-1" d="M31.213,66.565V86.144H26.806V58.453h3.588L46.072,78.46V58.492h4.367V86.144H46.657Z" transform="translate(0.271 -6.899)"/>
        <path class="cls-1" d="M89.167,62.314h-9.2v23.83H75.556V62.314H66.312V58.453H89.167Z" transform="translate(0.271 -6.899)"/>
        <path class="cls-1" d="M123.993,82.282v3.862H105V58.453h18.642v3.861H109.407v7.917h12.364v3.588H109.407v8.463Z" transform="translate(0.271 -6.899)"/>
        <path class="cls-1" d="M140.646,86.144V58.453H152.7a7.583,7.583,0,0,1,3.433.78,9.026,9.026,0,0,1,2.71,2.067,9.726,9.726,0,0,1,1.794,2.906,8.749,8.749,0,0,1,.643,3.256,9.388,9.388,0,0,1-.663,3.529,8.273,8.273,0,0,1-1.891,2.867,7.336,7.336,0,0,1-2.867,1.755l6.513,10.531h-4.913l-6.007-9.633h-6.4v9.633Zm4.408-13.5h7.6a3.42,3.42,0,0,0,2.146-.721,5.017,5.017,0,0,0,1.481-1.892,6.009,6.009,0,0,0,.547-2.574A5.458,5.458,0,0,0,154.569,63a3.657,3.657,0,0,0-2.144-.683h-7.371Z" transform="translate(0.271 -6.899)"/>
        <path class="cls-1" d="M186.55,58.453h4.134l10.763,27.691h-4.6l-2.706-7.528H183.066l-2.717,7.528h-4.6Zm6.427,16.927-4.361-12.13-4.381,12.13Z" transform="translate(0.271 -6.899)"/>
        <path class="cls-1" d="M214.2,72.064a14.442,14.442,0,0,1,3.529-9.418,12.616,12.616,0,0,1,9.848-4.387,11.979,11.979,0,0,1,6.493,1.7,10.766,10.766,0,0,1,4.037,4.349l-3.432,2.3a6.851,6.851,0,0,0-4.524-4.017,10.18,10.18,0,0,0-2.73-.39,7.871,7.871,0,0,0-3.782.878,8.476,8.476,0,0,0-2.75,2.321,10.028,10.028,0,0,0-1.658,3.236,12.27,12.27,0,0,0-.545,3.588,11.545,11.545,0,0,0,.643,3.861,10.374,10.374,0,0,0,1.833,3.257,8.8,8.8,0,0,0,2.808,2.242,7.784,7.784,0,0,0,3.568.819,9.116,9.116,0,0,0,2.809-.467,8.117,8.117,0,0,0,2.671-1.483,7,7,0,0,0,1.93-2.574l3.627,2.028a8.361,8.361,0,0,1-2.633,3.51,12.953,12.953,0,0,1-4.075,2.185,14.343,14.343,0,0,1-4.485.741,11.456,11.456,0,0,1-5.265-1.229,13.721,13.721,0,0,1-4.192-3.276,15.275,15.275,0,0,1-2.75-4.6A14.379,14.379,0,0,1,214.2,72.064Z" transform="translate(0.271 -6.899)"/>
        <path class="cls-1" d="M275.079,62.314h-9.2v23.83h-4.407V62.314h-9.243V58.453h22.854Z" transform="translate(0.271 -6.899)"/>
        <path class="cls-1" d="M290.913,86.144V58.453h4.406V86.144Z" transform="translate(0.271 -6.899)"/>
        <path class="cls-1" d="M315.4,58.453,323.789,80.8,332.1,58.453h4.6L325.817,86.144h-4.133l-10.92-27.691Z" transform="translate(0.271 -6.899)"/>
        <path class="cls-1" d="M371.213,82.282v3.862H352.22V58.453h18.642v3.861H356.627v7.917H368.99v3.588H356.627v8.463Z" transform="translate(0.271 -6.899)"/>
      </g>
    </g>
  </g>
</svg>
