<svg xmlns="http://www.w3.org/2000/svg" width="378.63" height="80.939" viewBox="0 0 378.63 80.939">
  <defs>
    <style>
      .cls-1 {
        fill: none;
        stroke: #161515;
        stroke-miterlimit: 3;
        stroke-width: 2px;
      }
    </style>
  </defs>
  <g id="Layer_2" data-name="Layer 2">
    <g id="Text">
      <g id="appalachia_interactive_hollow_black">
        <path class="cls-1" d="M28.649,36H12.4L9.3,43.5H1l15.6-35h8l15.65,35h-8.5ZM26.1,29.85,20.55,16.45,15,29.85Z" transform="translate(0.542 -6.899)"/>
        <path class="cls-1" d="M70.124,10.05a12,12,0,0,1,5.275,4.4,12.124,12.124,0,0,1,1.85,6.75,12.154,12.154,0,0,1-1.85,6.725,11.782,11.782,0,0,1-5.275,4.4,19.714,19.714,0,0,1-8.075,1.525H55V43.5H46.9V8.5h15.15A19.448,19.448,0,0,1,70.124,10.05ZM67.149,25.675a5.487,5.487,0,0,0,1.9-4.475,5.545,5.545,0,0,0-1.9-4.525A8.508,8.508,0,0,0,61.6,15.1H55V27.25h6.6A8.508,8.508,0,0,0,67.149,25.675Z" transform="translate(0.542 -6.899)"/>
        <path class="cls-1" d="M109.224,10.05a12,12,0,0,1,5.275,4.4,12.132,12.132,0,0,1,1.85,6.75,12.162,12.162,0,0,1-1.85,6.725,11.782,11.782,0,0,1-5.275,4.4,19.719,19.719,0,0,1-8.076,1.525H94.1V43.5H86V8.5h15.149A19.452,19.452,0,0,1,109.224,10.05Zm-2.975,15.625a5.486,5.486,0,0,0,1.9-4.475,5.545,5.545,0,0,0-1.9-4.525A8.511,8.511,0,0,0,100.7,15.1H94.1V27.25h6.6A8.511,8.511,0,0,0,106.249,25.675Z" transform="translate(0.542 -6.899)"/>
        <path class="cls-1" d="M146.4,36h-16.25l-3.1,7.5h-8.3l15.6-35h8L158,43.5h-8.5Zm-2.55-6.15-5.55-13.4-5.55,13.4Z" transform="translate(0.542 -6.899)"/>
        <path class="cls-1" d="M164.647,8.5h8.1V36.9H190.3v6.6H164.647Z" transform="translate(0.542 -6.899)"/>
        <path class="cls-1" d="M221.2,36h-16.25l-3.1,7.5h-8.3l15.6-35h8l15.651,35h-8.5Zm-2.551-6.15L213.1,16.45l-5.55,13.4Z" transform="translate(0.542 -6.899)"/>
        <path class="cls-1" d="M246.522,41.774a17.338,17.338,0,0,1-6.8-6.449A17.76,17.76,0,0,1,237.247,26a17.76,17.76,0,0,1,2.475-9.325,17.34,17.34,0,0,1,6.8-6.45,21.688,21.688,0,0,1,17.95-.725,16.488,16.488,0,0,1,6.175,4.6l-5.2,4.8a11.182,11.182,0,0,0-8.8-4.1,11.671,11.671,0,0,0-5.8,1.425,10.124,10.124,0,0,0-3.975,3.975,11.682,11.682,0,0,0-1.426,5.8,11.685,11.685,0,0,0,1.426,5.8,10.115,10.115,0,0,0,3.975,3.974,11.672,11.672,0,0,0,5.8,1.426,11.124,11.124,0,0,0,8.8-4.15l5.2,4.8a16.206,16.206,0,0,1-6.2,4.65,20.591,20.591,0,0,1-8.25,1.6A20.09,20.09,0,0,1,246.522,41.774Z" transform="translate(0.542 -6.899)"/>
        <path class="cls-1" d="M311.2,8.5v35h-8.1V29.149H287.2V43.5h-8.1V8.5h8.1V22.3h15.9V8.5Z" transform="translate(0.542 -6.899)"/>
        <path class="cls-1" d="M322.5,8.5h8.1v35h-8.1Z" transform="translate(0.542 -6.899)"/>
        <path class="cls-1" d="M364.946,36H348.7l-3.1,7.5h-8.3l15.6-35h8l15.65,35h-8.5Zm-2.55-6.15-5.55-13.4-5.55,13.4Z" transform="translate(0.542 -6.899)"/>
        <path class="cls-1" d="M4.569,86.644V58.953H8.976V86.644Z" transform="translate(0.542 -6.899)"/>
        <path class="cls-1" d="M31.712,67.065V86.644H27.306V58.953h3.588L46.571,78.96V58.992h4.368V86.644H47.157Z" transform="translate(0.542 -6.899)"/>
        <path class="cls-1" d="M89.667,62.814h-9.2v23.83H76.056V62.814H66.812V58.953H89.667Z" transform="translate(0.542 -6.899)"/>
        <path class="cls-1" d="M124.493,82.782v3.862H105.5V58.953h18.642v3.861H109.907v7.917h12.364v3.588H109.907v8.463Z" transform="translate(0.542 -6.899)"/>
        <path class="cls-1" d="M141.146,86.644V58.953H153.2a7.586,7.586,0,0,1,3.433.78,9.026,9.026,0,0,1,2.71,2.067,9.726,9.726,0,0,1,1.794,2.906,8.749,8.749,0,0,1,.643,3.256,9.408,9.408,0,0,1-.663,3.529,8.273,8.273,0,0,1-1.891,2.867,7.343,7.343,0,0,1-2.867,1.755l6.513,10.531h-4.913l-6.007-9.633h-6.4v9.633Zm4.408-13.5h7.6a3.422,3.422,0,0,0,2.146-.721,5.027,5.027,0,0,0,1.481-1.892,6.008,6.008,0,0,0,.546-2.574,5.454,5.454,0,0,0-2.262-4.465,3.659,3.659,0,0,0-2.144-.683h-7.371Z" transform="translate(0.542 -6.899)"/>
        <path class="cls-1" d="M187.05,58.953h4.133l10.764,27.691h-4.6l-2.705-7.528H183.566l-2.717,7.528h-4.6Zm6.426,16.927-4.36-12.13-4.381,12.13Z" transform="translate(0.542 -6.899)"/>
        <path class="cls-1" d="M214.7,72.564a14.428,14.428,0,0,1,3.529-9.418,12.616,12.616,0,0,1,9.848-4.387,11.981,11.981,0,0,1,6.493,1.7,10.757,10.757,0,0,1,4.036,4.349l-3.431,2.3a6.851,6.851,0,0,0-4.524-4.017,10.18,10.18,0,0,0-2.73-.39,7.875,7.875,0,0,0-3.783.878,8.482,8.482,0,0,0-2.749,2.321,10.028,10.028,0,0,0-1.658,3.236,12.239,12.239,0,0,0-.546,3.588,11.546,11.546,0,0,0,.644,3.861,10.371,10.371,0,0,0,1.832,3.257,8.808,8.808,0,0,0,2.809,2.242,7.781,7.781,0,0,0,3.568.819,9.116,9.116,0,0,0,2.809-.467,8.117,8.117,0,0,0,2.671-1.483,7.014,7.014,0,0,0,1.93-2.574l3.627,2.028a8.369,8.369,0,0,1-2.633,3.51,12.964,12.964,0,0,1-4.075,2.185,14.347,14.347,0,0,1-4.485.741,11.453,11.453,0,0,1-5.265-1.229,13.721,13.721,0,0,1-4.192-3.276,15.275,15.275,0,0,1-2.75-4.6A14.357,14.357,0,0,1,214.7,72.564Z" transform="translate(0.542 -6.899)"/>
        <path class="cls-1" d="M275.579,62.814h-9.2v23.83h-4.406V62.814h-9.243V58.953h22.854Z" transform="translate(0.542 -6.899)"/>
        <path class="cls-1" d="M291.413,86.644V58.953h4.406V86.644Z" transform="translate(0.542 -6.899)"/>
        <path class="cls-1" d="M315.9,58.953,324.289,81.3,332.6,58.953h4.6L326.317,86.644h-4.134l-10.92-27.691Z" transform="translate(0.542 -6.899)"/>
        <path class="cls-1" d="M371.712,82.782v3.862H352.72V58.953h18.642v3.861H357.126v7.917h12.363v3.588H357.126v8.463Z" transform="translate(0.542 -6.899)"/>
      </g>
    </g>
  </g>
</svg>
