<svg xmlns="http://www.w3.org/2000/svg" xmlns:xlink="http://www.w3.org/1999/xlink" width="512" height="512" viewBox="0 0 512 512">
  <defs>
    <style>
      .cls-1 {
        fill: #fff;
        stroke: #161515;
        stroke-miterlimit: 7.565;
        stroke-width: 10px;
      }

      .cls-2 {
        fill: none;
      }
    </style>
    <symbol id="Squirrel_Filled_-_White" data-name="Squirrel Filled - White" viewBox="0 0 376.845 312.167">
      <path id="Squirrel_Filled" data-name="Squirrel Filled" class="cls-1" d="M350.915,215.391s-6.69,1-11.422-3.64a.166.166,0,0,0-.275.171,11.554,11.554,0,0,1-.539,9.191c-4.141,8.749-14.995,11.968-23.5,7.353L305.4,223.5a.17.17,0,0,0-.18.017c-.536.412-3.6,2.74-8.248,5.677-12.858,7.607-25.776,13.926-40.9,15.614a.168.168,0,0,0-.144.206c5.722,23.731-11.668,41.292-14.191,43.688a.169.169,0,0,0,.116.289c25.937.665,25.968,16.269,25.89,18.017a.167.167,0,0,1-.169.159H117.749a.171.171,0,0,1-.169-.188l.968-8.962a.167.167,0,0,0-.213-.179c-21.616,6.107-48.215.26-63.215-14.947l-.014-.014c-32-39.472-11.746-82.538-1.93-122.178,7.114-29,13.73-64.168,5.936-80.169C48.429,58.6,24.345,55.555,5.3,76.476A.169.169,0,0,1,5,76.348C15.946-49.677,183.168,10.357,160.647,109.213a.166.166,0,0,0,.165.205c9.789-.186,22.5,1.715,37.151,7.184,0,0,35.926,11.875,50.427-6.9a.2.2,0,0,0,.026-.047c.282-.8,7.674-21.4,19.176-26.236a.165.165,0,0,0,.1-.2c-.6-2.158-7.148-28.539,23.255-51.619a.171.171,0,0,1,.269.177c-.88,3.365-5.38,23.626,10.316,35.191l.023.015c.754.393,38.126,19.884,41.313,24.806,3.217,4.969,26.8,35.528,28.98,76.8a.171.171,0,0,1-.078.153c-9.86,6.318-19.643,11.592-31.77,13.649a.167.167,0,0,0-.089.288c2.809,2.582,27.826,26.08,11.091,32.671ZM232.736,306.68"/>
    </symbol>
  </defs>
  <g id="Layer_2" data-name="Layer 2">
    <g id="Squirrel_Icon_Filled" data-name="Squirrel Icon Filled">
      <rect class="cls-2" width="512" height="512"/>
      <use width="376.845" height="312.167" transform="translate(21.782 64.157) scale(1.243 1.229)" xlink:href="#Squirrel_Filled_-_White"/>
    </g>
  </g>
</svg>
