<svg xmlns="http://www.w3.org/2000/svg" xmlns:xlink="http://www.w3.org/1999/xlink" width="1466.84" height="96" viewBox="0 0 1466.84 96">
  <defs>
    <style>
      .cls-1, .cls-2 {
        fill: #d9b776;
      }

      .cls-1 {
        stroke: #161515;
        stroke-miterlimit: 7.565;
        stroke-width: 10px;
      }
    </style>
    <symbol id="Squirrel_Filled_-_Gold" data-name="Squirrel Filled - Gold" viewBox="0 0 376.845 312.167">
      <path id="Squirrel_Filled" data-name="Squirrel Filled" class="cls-1" d="M350.915,215.391s-6.69,1-11.422-3.64a.166.166,0,0,0-.275.171,11.554,11.554,0,0,1-.539,9.191c-4.141,8.749-14.995,11.968-23.5,7.353L305.4,223.5a.17.17,0,0,0-.18.017c-.536.412-3.6,2.74-8.248,5.677-12.858,7.607-25.776,13.926-40.9,15.614a.168.168,0,0,0-.144.206c5.722,23.731-11.668,41.292-14.191,43.688a.169.169,0,0,0,.116.289c25.937.665,25.968,16.269,25.89,18.017a.167.167,0,0,1-.169.159H117.749a.171.171,0,0,1-.169-.188l.968-8.962a.167.167,0,0,0-.213-.179c-21.616,6.107-48.215.26-63.215-14.947l-.014-.014c-32-39.472-11.746-82.538-1.93-122.178,7.114-29,13.73-64.168,5.936-80.169C48.429,58.6,24.345,55.555,5.3,76.476A.169.169,0,0,1,5,76.348C15.946-49.677,183.168,10.357,160.647,109.213a.166.166,0,0,0,.165.205c9.789-.186,22.5,1.715,37.151,7.184,0,0,35.926,11.875,50.427-6.9a.2.2,0,0,0,.026-.047c.282-.8,7.674-21.4,19.176-26.236a.165.165,0,0,0,.1-.2c-.6-2.158-7.148-28.539,23.255-51.619a.171.171,0,0,1,.269.177c-.88,3.365-5.38,23.626,10.316,35.191l.023.015c.754.393,38.126,19.884,41.313,24.806,3.217,4.969,26.8,35.528,28.98,76.8a.171.171,0,0,1-.078.153c-9.86,6.318-19.643,11.592-31.77,13.649a.167.167,0,0,0-.089.288c2.809,2.582,27.826,26.08,11.091,32.671ZM232.736,306.68"/>
    </symbol>
  </defs>
  <g id="Layer_2" data-name="Layer 2">
    <g id="Squirrel_Stripe_Logo" data-name="Squirrel Stripe Logo">
      <g>
        <use width="376.845" height="312.167" transform="scale(0.308)" xlink:href="#Squirrel_Filled_-_Gold"/>
        <g>
          <path class="cls-2" d="M207.74,65.291H173.516l-7.084,16.1h-9.475l29.163-64.4h9.109l29.255,64.4h-9.66Zm-3.219-7.359L190.628,26.375,176.736,57.932Z"/>
          <path class="cls-2" d="M280.7,22.972q7.176,5.98,7.176,16.468T280.7,55.908q-7.176,5.982-19.688,5.98H245.092v19.5h-9.2v-64.4h25.116Q273.518,16.992,280.7,22.972Zm-6.624,27.186q4.6-3.727,4.6-10.718t-4.6-10.718Q269.47,25,260.732,25h-15.64V53.884h15.64Q269.471,53.884,274.072,50.158Z"/>
          <path class="cls-2" d="M348.039,22.972q7.176,5.98,7.176,16.468t-7.176,16.468q-7.176,5.982-19.688,5.98H312.435v19.5h-9.2v-64.4h25.116Q340.861,16.992,348.039,22.972Zm-6.624,27.186q4.6-3.727,4.6-10.718t-4.6-10.718Q336.813,25,328.075,25h-15.64V53.884h15.64Q336.814,53.884,341.415,50.158Z"/>
          <path class="cls-2" d="M408.39,65.291H374.166l-7.084,16.1h-9.476l29.164-64.4h9.108l29.256,64.4h-9.66Zm-3.22-7.359L391.278,26.375,377.386,57.932Z"/>
          <path class="cls-2" d="M436.542,16.992h9.2v56.4h34.868v8H436.542Z"/>
          <path class="cls-2" d="M534.335,65.291H500.112l-7.084,16.1h-9.476l29.164-64.4h9.108l29.256,64.4h-9.661Zm-3.218-7.359L517.224,26.375,503.332,57.932Z"/>
          <path class="cls-2" d="M573.849,77.85A31.455,31.455,0,0,1,561.66,66.074a32.626,32.626,0,0,1-4.416-16.882A32.631,32.631,0,0,1,561.66,32.31,31.382,31.382,0,0,1,573.9,20.534a35.812,35.812,0,0,1,17.48-4.279,36.484,36.484,0,0,1,13.8,2.531,28.245,28.245,0,0,1,10.672,7.5l-5.98,5.8a24,24,0,0,0-18.123-7.636,26.252,26.252,0,0,0-12.973,3.22,23.369,23.369,0,0,0-9.062,8.877,24.846,24.846,0,0,0-3.266,12.651,24.828,24.828,0,0,0,3.266,12.649,23.347,23.347,0,0,0,9.062,8.879,26.241,26.241,0,0,0,12.973,3.22,24.044,24.044,0,0,0,18.123-7.728l5.98,5.8a28.6,28.6,0,0,1-10.719,7.545,36.238,36.238,0,0,1-13.845,2.576A35.551,35.551,0,0,1,573.849,77.85Z"/>
          <path class="cls-2" d="M686.226,16.992v64.4h-9.2v-28.7H640.042v28.7h-9.2v-64.4h9.2V44.684h36.985V16.992Z"/>
          <path class="cls-2" d="M707.386,16.992h9.2v64.4h-9.2Z"/>
          <path class="cls-2" d="M778.778,65.291H744.554l-7.084,16.1h-9.476l29.164-64.4h9.108l29.256,64.4h-9.66Zm-3.22-7.359L761.666,26.375,747.774,57.932Z"/>
          <path class="cls-2" d="M835.082,16.992h4.691v64.4h-4.691Z"/>
          <path class="cls-2" d="M918.341,16.992v64.4h-3.864L870.593,25.456V81.392H865.9v-64.4h3.955L913.65,72.927V16.992Z"/>
          <path class="cls-2" d="M956.8,21.224H933.613V16.992h51.06v4.232H961.489V81.392H956.8Z"/>
          <path class="cls-2" d="M1044.38,77.16v4.232H999.944v-64.4H1043v4.232h-38.364V46.616h34.316v4.139h-34.316v26.4Z"/>
          <path class="cls-2" d="M1109.882,81.392l-15.363-21.528a46.931,46.931,0,0,1-6.256.46h-18.4V81.392h-4.692v-64.4h23.092q12.144,0,19.043,5.75t6.9,15.962a20.735,20.735,0,0,1-3.911,12.834,20.717,20.717,0,0,1-11.177,7.314l16.1,22.54Zm-21.619-25.208q10.3,0,15.732-4.554t5.428-12.926q0-8.372-5.428-12.926t-15.732-4.554h-18.4v34.96Z"/>
          <path class="cls-2" d="M1174.925,63.268h-37.351l-8.188,18.124h-5.06l29.624-64.4h4.692l29.623,64.4h-5.059Zm-1.748-3.956L1156.25,22.144l-16.836,37.168Z"/>
          <path class="cls-2" d="M1212.875,77.62a31.252,31.252,0,0,1-11.959-11.684,32.464,32.464,0,0,1-4.372-16.744,32.464,32.464,0,0,1,4.372-16.744,31.252,31.252,0,0,1,11.959-11.684,34.442,34.442,0,0,1,17.066-4.232,35.762,35.762,0,0,1,12.88,2.254,26.549,26.549,0,0,1,10.028,6.67l-2.944,3.036q-7.728-7.635-19.78-7.636a29.8,29.8,0,0,0-14.72,3.68,26.927,26.927,0,0,0-10.4,10.166,28.289,28.289,0,0,0-3.772,14.49,28.289,28.289,0,0,0,3.772,14.49,26.92,26.92,0,0,0,10.4,10.166,29.785,29.785,0,0,0,14.72,3.68q11.958,0,19.78-7.728l2.944,3.035a26.924,26.924,0,0,1-10.074,6.717,35.214,35.214,0,0,1-12.834,2.3A34.431,34.431,0,0,1,1212.875,77.62Z"/>
          <path class="cls-2" d="M1283.761,21.224h-23.183V16.992h51.059v4.232h-23.184V81.392h-4.692Z"/>
          <path class="cls-2" d="M1326.908,16.992h4.692v64.4h-4.692Z"/>
          <path class="cls-2" d="M1408.329,16.992l-28.7,64.4h-4.692l-28.7-64.4h5.152l26.037,58.328,26.036-58.328Z"/>
          <path class="cls-2" d="M1466.84,77.16v4.232H1422.4v-64.4h43.056v4.232H1427.1V46.616h34.316v4.139H1427.1v26.4Z"/>
        </g>
      </g>
    </g>
  </g>
</svg>
