<svg xmlns="http://www.w3.org/2000/svg" xmlns:xlink="http://www.w3.org/1999/xlink" width="1536" height="128" viewBox="0 0 1536 128">
  <defs>
    <style>
      .cls-1, .cls-3 {
        fill: #d9b776;
      }

      .cls-1 {
        stroke: #161515;
        stroke-miterlimit: 7.565;
        stroke-width: 10px;
      }

      .cls-2 {
        fill: #161515;
      }
    </style>
    <symbol id="Squirrel_Filled_-_Gold" data-name="Squirrel Filled - Gold" viewBox="0 0 376.845 312.167">
      <path id="Squirrel_Filled" data-name="Squirrel Filled" class="cls-1" d="M350.915,215.391s-6.69,1-11.422-3.64a.166.166,0,0,0-.275.171,11.554,11.554,0,0,1-.539,9.191c-4.141,8.749-14.995,11.968-23.5,7.353L305.4,223.5a.17.17,0,0,0-.18.017c-.536.412-3.6,2.74-8.248,5.677-12.858,7.607-25.776,13.926-40.9,15.614a.168.168,0,0,0-.144.206c5.722,23.731-11.668,41.292-14.191,43.688a.169.169,0,0,0,.116.289c25.937.665,25.968,16.269,25.89,18.017a.167.167,0,0,1-.169.159H117.749a.171.171,0,0,1-.169-.188l.968-8.962a.167.167,0,0,0-.213-.179c-21.616,6.107-48.215.26-63.215-14.947l-.014-.014c-32-39.472-11.746-82.538-1.93-122.178,7.114-29,13.73-64.168,5.936-80.169C48.429,58.6,24.345,55.555,5.3,76.476A.169.169,0,0,1,5,76.348C15.946-49.677,183.168,10.357,160.647,109.213a.166.166,0,0,0,.165.205c9.789-.186,22.5,1.715,37.151,7.184,0,0,35.926,11.875,50.427-6.9a.2.2,0,0,0,.026-.047c.282-.8,7.674-21.4,19.176-26.236a.165.165,0,0,0,.1-.2c-.6-2.158-7.148-28.539,23.255-51.619a.171.171,0,0,1,.269.177c-.88,3.365-5.38,23.626,10.316,35.191l.023.015c.754.393,38.126,19.884,41.313,24.806,3.217,4.969,26.8,35.528,28.98,76.8a.171.171,0,0,1-.078.153c-9.86,6.318-19.643,11.592-31.77,13.649a.167.167,0,0,0-.089.288c2.809,2.582,27.826,26.08,11.091,32.671ZM232.736,306.68"/>
    </symbol>
  </defs>
  <g id="Layer_2" data-name="Layer 2">
    <g id="Squirrel_Stripe_Logo" data-name="Squirrel Stripe Logo">
      <rect id="Background" class="cls-2" width="1536" height="128"/>
      <g>
        <use width="376.845" height="312.167" transform="translate(13.614 12.251) scale(0.308)" xlink:href="#Squirrel_Filled_-_Gold"/>
        <g>
          <path class="cls-3" d="M221.354,77.542H187.13l-7.084,16.1H170.57l29.164-64.4h9.108l29.256,64.4h-9.66Zm-3.22-7.359L204.242,38.626,190.35,70.183Z"/>
          <path class="cls-3" d="M294.31,35.223q7.176,5.981,7.176,16.467T294.31,68.158q-7.176,5.982-19.688,5.981H258.706v19.5h-9.2v-64.4h25.116Q287.132,29.242,294.31,35.223Zm-6.624,27.185q4.6-3.726,4.6-10.718t-4.6-10.717q-4.6-3.727-13.34-3.727h-15.64V66.135h15.64Q283.085,66.135,287.686,62.408Z"/>
          <path class="cls-3" d="M361.652,35.223q7.178,5.981,7.177,16.467t-7.177,16.468q-7.174,5.982-19.688,5.981H326.048v19.5h-9.2v-64.4h25.115Q354.476,29.242,361.652,35.223Zm-6.624,27.185q4.6-3.726,4.6-10.718t-4.6-10.717q-4.6-3.727-13.34-3.727h-15.64V66.135h15.64Q350.429,66.135,355.028,62.408Z"/>
          <path class="cls-3" d="M422,77.542H387.779l-7.084,16.1H371.22l29.163-64.4h9.109l29.256,64.4h-9.661Zm-3.219-7.359L404.892,38.626,391,70.183Z"/>
          <path class="cls-3" d="M450.155,29.242h9.2v56.4h34.868v8H450.155Z"/>
          <path class="cls-3" d="M547.949,77.542H513.726l-7.084,16.1h-9.476l29.164-64.4h9.108l29.255,64.4h-9.66Zm-3.219-7.359L530.838,38.626,516.945,70.183Z"/>
          <path class="cls-3" d="M587.463,90.1a31.468,31.468,0,0,1-12.19-11.777,32.635,32.635,0,0,1-4.416-16.882,32.639,32.639,0,0,1,4.416-16.881,31.394,31.394,0,0,1,12.236-11.777,35.821,35.821,0,0,1,17.479-4.278,36.5,36.5,0,0,1,13.8,2.53,28.267,28.267,0,0,1,10.672,7.5l-5.981,5.8a23.993,23.993,0,0,0-18.123-7.636,26.258,26.258,0,0,0-12.972,3.22,23.374,23.374,0,0,0-9.063,8.878,24.849,24.849,0,0,0-3.265,12.65,24.844,24.844,0,0,0,3.265,12.65,23.363,23.363,0,0,0,9.063,8.879,26.247,26.247,0,0,0,12.972,3.219,24.044,24.044,0,0,0,18.123-7.727l5.981,5.8A28.616,28.616,0,0,1,618.742,91.8,36.24,36.24,0,0,1,604.9,94.379,35.561,35.561,0,0,1,587.463,90.1Z"/>
          <path class="cls-3" d="M699.84,29.242v64.4h-9.2v-28.7H653.656V93.643h-9.2v-64.4h9.2V56.935h36.985V29.242Z"/>
          <path class="cls-3" d="M721,29.242h9.2v64.4H721Z"/>
          <path class="cls-3" d="M792.392,77.542H758.168l-7.084,16.1h-9.477l29.164-64.4h9.109l29.256,64.4h-9.66Zm-3.22-7.359L775.279,38.626,761.388,70.183Z"/>
          <path class="cls-3" d="M848.7,29.242h4.692v64.4H848.7Z"/>
          <path class="cls-3" d="M931.955,29.242v64.4h-3.864L884.207,37.706V93.643h-4.691v-64.4h3.955l43.793,55.936V29.242Z"/>
          <path class="cls-3" d="M970.41,33.475H947.227V29.242h51.06v4.233H975.1V93.643H970.41Z"/>
          <path class="cls-3" d="M1057.994,89.41v4.233h-44.436v-64.4h43.055v4.233H1018.25V58.866h34.315v4.14H1018.25v26.4Z"/>
          <path class="cls-3" d="M1123.5,93.643l-15.363-21.529a46.788,46.788,0,0,1-6.256.46h-18.4V93.643h-4.692v-64.4h23.092q12.144,0,19.043,5.75t6.9,15.962a20.732,20.732,0,0,1-3.91,12.834,20.717,20.717,0,0,1-11.178,7.315l16.1,22.54Zm-21.619-25.208q10.3,0,15.731-4.554t5.429-12.927q0-8.37-5.429-12.926t-15.731-4.553h-18.4v34.96Z"/>
          <path class="cls-3" d="M1188.539,75.519h-37.351L1143,93.643h-5.061l29.624-64.4h4.693l29.623,64.4h-5.06Zm-1.748-3.957L1169.863,34.4l-16.836,37.167Z"/>
          <path class="cls-3" d="M1226.488,89.87a31.257,31.257,0,0,1-11.959-11.683,32.474,32.474,0,0,1-4.371-16.745,32.475,32.475,0,0,1,4.371-16.744,31.257,31.257,0,0,1,11.959-11.683,34.436,34.436,0,0,1,17.067-4.233,35.762,35.762,0,0,1,12.88,2.254,26.58,26.58,0,0,1,10.028,6.67l-2.944,3.036q-7.728-7.635-19.781-7.636a29.8,29.8,0,0,0-14.719,3.68,26.934,26.934,0,0,0-10.4,10.166,28.279,28.279,0,0,0-3.772,14.49,28.285,28.285,0,0,0,3.772,14.491,26.927,26.927,0,0,0,10.4,10.166,29.783,29.783,0,0,0,14.719,3.679q11.959,0,19.781-7.727l2.944,3.035a26.935,26.935,0,0,1-10.074,6.717,35.218,35.218,0,0,1-12.834,2.3A34.436,34.436,0,0,1,1226.488,89.87Z"/>
          <path class="cls-3" d="M1297.375,33.475h-23.184V29.242h51.06v4.233h-23.185V93.643h-4.691Z"/>
          <path class="cls-3" d="M1340.521,29.242h4.693v64.4h-4.693Z"/>
          <path class="cls-3" d="M1421.942,29.242l-28.7,64.4h-4.691l-28.7-64.4h5.152l26.037,58.328,26.035-58.328Z"/>
          <path class="cls-3" d="M1480.454,89.41v4.233h-44.436v-64.4h43.056v4.233H1440.71V58.866h34.315v4.14H1440.71v26.4Z"/>
        </g>
      </g>
    </g>
  </g>
</svg>
