<svg xmlns="http://www.w3.org/2000/svg" xmlns:xlink="http://www.w3.org/1999/xlink" width="1536" height="128"><defs><symbol id="a" viewBox="0 0 376.85 312.17"><path d="M350.92 215.39s-6.69 1-11.43-3.64a.16.16 0 0 0-.27.17 11.54 11.54 0 0 1-.54 9.19c-4.14 8.75-15 12-23.5 7.36l-9.78-5a.17.17 0 0 0-.18 0c-.54.41-3.6 2.74-8.25 5.67-12.86 7.61-25.77 13.93-40.9 15.62a.17.17 0 0 0-.15.2c5.72 23.73-11.66 41.3-14.19 43.69a.17.17 0 0 0 .12.29c25.93.67 26 16.27 25.89 18a.17.17 0 0 1-.17.16H117.75a.17.17 0 0 1-.17-.19l1-9a.17.17 0 0 0-.21-.18c-21.62 6.11-48.22.26-63.22-14.95-32-39.47-11.75-82.54-1.93-122.18 7.11-29 13.73-64.17 5.93-80.17-10.68-21.93-34.77-25-53.81-4a.17.17 0 0 1-.3-.13c11-126 178.17-66 155.65 32.86a.16.16 0 0 0 .16.21c9.79-.19 22.5 1.71 37.15 7.18 0 0 35.93 11.88 50.43-6.89.28-.8 7.67-21.4 19.17-26.24a.17.17 0 0 0 .1-.2c-.6-2.15-7.15-28.53 23.25-51.61a.17.17 0 0 1 .27.17c-.88 3.37-5.38 23.63 10.32 35.19.76.39 38.13 19.88 41.31 24.81s26.8 35.52 29 76.8a.15.15 0 0 1-.07.15c-9.86 6.32-19.65 11.59-31.77 13.65a.17.17 0 0 0-.09.29c2.81 2.58 27.82 26.08 11.09 32.67zm-118.18 91.29" style="stroke:#161515;stroke-miterlimit:7.57;stroke-width:10px;fill:#d9b776"/></symbol></defs><path style="fill:#161515" d="M0 0h1536v128H0z"/><use width="376.84" height="312.17" transform="matrix(.31 0 0 .31 13.61 12.25)" xlink:href="#a"/><path d="M221.35 77.54h-34.22l-7.08 16.1h-9.48l29.16-64.4h9.11l29.26 64.4h-9.66zm-3.22-7.36-13.89-31.55-13.89 31.55zm76.18-34.96q7.17 6 7.18 16.47t-7.18 16.47q-7.17 6-19.69 6h-15.91v19.5h-9.2V29.24h25.11q12.51 0 19.69 5.98zm-6.62 27.19q4.59-3.73 4.6-10.72T287.69 41q-4.6-3.72-13.34-3.72h-15.64v28.85h15.64q8.73 0 13.34-3.72zm73.96-27.19q7.19 6 7.18 16.47t-7.18 16.47q-7.17 6-19.69 6h-15.91v19.5h-9.2V29.24H342q12.47 0 19.65 5.98zM355 62.41q4.59-3.73 4.6-10.72T355 41q-4.61-3.72-13.34-3.72h-15.61v28.85h15.64q8.73 0 13.31-3.72zm67 15.13h-34.22l-7.08 16.1h-9.48l29.16-64.4h9.11l29.26 64.4h-9.66zm-3.22-7.36-13.89-31.55L391 70.18zm31.38-40.94h9.19v56.4h34.87v8h-44.06zM548 77.54h-34.27l-7.09 16.1h-9.47l29.16-64.4h9.11l29.25 64.4H555zm-3.22-7.36-13.94-31.55L517 70.18zm42.68 19.92a31.52 31.52 0 0 1-12.19-11.78 32.63 32.63 0 0 1-4.41-16.88 32.68 32.68 0 0 1 4.41-16.88 31.45 31.45 0 0 1 12.24-11.78A35.82 35.82 0 0 1 605 28.51 36.41 36.41 0 0 1 618.79 31a28.14 28.14 0 0 1 10.67 7.49l-6 5.8a24 24 0 0 0-18.12-7.64 26.36 26.36 0 0 0-13 3.22 23.43 23.43 0 0 0-9.06 8.88 24.91 24.91 0 0 0-3.26 12.65 24.91 24.91 0 0 0 3.26 12.65 23.43 23.43 0 0 0 9.1 8.95 26.25 26.25 0 0 0 13 3.22 24.06 24.06 0 0 0 18.12-7.73l6 5.8a28.54 28.54 0 0 1-10.72 7.54 36.17 36.17 0 0 1-13.84 2.58 35.62 35.62 0 0 1-17.48-4.31zm112.38-60.86v64.4h-9.2v-28.7h-37v28.7h-9.2v-64.4h9.2v27.69h37V29.24zm21.16 0h9.2v64.4H721zm71.39 48.3h-34.22l-7.09 16.1h-9.47l29.16-64.4h9.11l29.26 64.4h-9.66zm-3.22-7.36-13.89-31.55-13.89 31.55zm59.53-40.94h4.69v64.4h-4.69zm83.3 0v64.4h-3.87l-43.92-55.93v55.93h-4.69v-64.4h4l43.79 55.94V29.24zm38.41 4.23h-23.18v-4.23h51.06v4.23H975.1v60.17h-4.69zM1058 89.41v4.23h-44.43v-64.4h43v4.23h-38.36v25.4h34.32V63h-34.32v26.4zm65.5 4.23-15.37-21.53a46.37 46.37 0 0 1-6.25.46h-18.4v21.07h-4.7v-64.4h23.1q12.13 0 19 5.75t6.9 16a20.73 20.73 0 0 1-3.91 12.84 20.74 20.74 0 0 1-11.18 7.31l16.1 22.54zm-21.62-25.21q10.3 0 15.73-4.55T1123 51q0-8.37-5.43-12.92t-15.73-4.56h-18.4v35zm86.66 7.09h-37.35L1143 93.64h-5.06l29.62-64.4h4.7l29.62 64.4h-5.06zm-1.75-4-16.93-37.17L1153 71.56zm39.7 18.35a31.28 31.28 0 0 1-12-11.68 32.43 32.43 0 0 1-4.37-16.75 32.42 32.42 0 0 1 4.37-16.74 31.31 31.31 0 0 1 12-11.69 34.45 34.45 0 0 1 17.06-4.23 35.57 35.57 0 0 1 12.88 2.22 26.41 26.41 0 0 1 10 6.67l-2.94 3q-7.73-7.64-19.78-7.63a29.7 29.7 0 0 0-14.71 3.75A26.94 26.94 0 0 0 1218.62 47a28.37 28.37 0 0 0-3.77 14.49 28.32 28.32 0 0 0 3.77 14.49A26.89 26.89 0 0 0 1229 86.1a29.81 29.81 0 0 0 14.72 3.68q12 0 19.78-7.73l2.94 3a27 27 0 0 1-10.07 6.71 35.11 35.11 0 0 1-12.84 2.3 34.45 34.45 0 0 1-17.04-4.19zm70.88-56.4h-23.18v-4.23h51.06v4.23h-23.18v60.17h-4.7zm43.15-4.23h4.69v64.4h-4.69zm81.42 0-28.7 64.4h-4.69l-28.71-64.4h5.16l26 58.33 26-58.33zm58.51 60.17v4.23H1436v-64.4h43v4.23h-38.36v25.4H1475V63h-34.32v26.4z" style="fill:#d9b776"/></svg>