<svg xmlns="http://www.w3.org/2000/svg" width="1536" height="128" viewBox="0 0 1536 128">
  <defs>
    <style>
      .cls-1 {
        fill: #161515;
      }

      .cls-2, .cls-3 {
        fill: #803e28;
      }

      .cls-2 {
        stroke: #161515;
        stroke-miterlimit: 7.565;
        stroke-width: 3.075px;
      }
    </style>
  </defs>
  <g id="Layer_2" data-name="Layer 2">
    <g id="Squirrel_Stripe_Logo_Red" data-name="Squirrel Stripe Logo Red">
      <rect id="Background" class="cls-1" width="1536" height="128"/>
      <g>
        <path id="Squirrel_Filled" data-name="Squirrel Filled" class="cls-2" d="M121.53,78.489a4.489,4.489,0,0,1-3.513-1.119.051.051,0,0,0-.084.053,3.554,3.554,0,0,1-.166,2.826,5.232,5.232,0,0,1-7.227,2.261l-3.007-1.527a.052.052,0,0,0-.055,0c-.165.127-1.108.843-2.537,1.746-3.954,2.339-7.927,4.283-12.579,4.8a.052.052,0,0,0-.045.063c1.76,7.3-3.588,12.7-4.364,13.435a.052.052,0,0,0,.036.089c7.976.2,7.986,5,7.962,5.541a.051.051,0,0,1-.052.049H49.825a.053.053,0,0,1-.052-.058l.3-2.756a.052.052,0,0,0-.066-.055c-6.647,1.878-14.827.08-19.44-4.6l0-.005C20.72,87.1,26.948,73.86,29.967,61.67c2.188-8.918,4.222-19.734,1.825-24.654-3.285-6.745-10.692-7.681-16.55-1.247a.052.052,0,0,1-.09-.039C18.518-3.027,69.943,15.436,63.017,45.837a.052.052,0,0,0,.051.063,31.537,31.537,0,0,1,11.425,2.209S85.541,51.761,90,45.988l.008-.014c.086-.245,2.36-6.58,5.9-8.068a.052.052,0,0,0,.029-.062c-.184-.663-2.2-8.776,7.152-15.874a.053.053,0,0,1,.083.055c-.271,1.035-1.655,7.265,3.172,10.822l.007,0c.232.121,11.725,6.115,12.7,7.629S127.3,51.406,127.966,64.1a.052.052,0,0,1-.024.047,25.764,25.764,0,0,1-9.77,4.2.051.051,0,0,0-.027.088c.863.794,8.557,8.021,3.41,10.047Z"/>
        <g>
          <path class="cls-3" d="M221.354,77.542H187.13l-7.084,16.1H170.57l29.164-64.4h9.108l29.256,64.4h-9.66Zm-3.22-7.36L204.242,38.626,190.35,70.182Z"/>
          <path class="cls-3" d="M294.31,35.222q7.176,5.982,7.176,16.469T294.31,68.159q-7.176,5.98-19.688,5.979H258.706v19.5h-9.2v-64.4h25.116Q287.132,29.243,294.31,35.222Zm-6.624,27.187q4.6-3.727,4.6-10.718t-4.6-10.719q-4.6-3.726-13.34-3.725h-15.64V66.134h15.64Q283.085,66.134,287.686,62.409Z"/>
          <path class="cls-3" d="M361.652,35.222q7.178,5.982,7.177,16.469t-7.177,16.468q-7.174,5.98-19.688,5.979H326.048v19.5h-9.2v-64.4h25.115Q354.476,29.243,361.652,35.222Zm-6.624,27.187q4.6-3.727,4.6-10.718t-4.6-10.719q-4.6-3.726-13.34-3.725h-15.64V66.134h15.64Q350.429,66.134,355.028,62.409Z"/>
          <path class="cls-3" d="M422,77.542H387.779l-7.084,16.1H371.22l29.163-64.4h9.109l29.256,64.4h-9.661Zm-3.219-7.36L404.892,38.626,391,70.182Z"/>
          <path class="cls-3" d="M450.155,29.243h9.2v56.4h34.868v8H450.155Z"/>
          <path class="cls-3" d="M547.949,77.542H513.726l-7.084,16.1h-9.476l29.164-64.4h9.108l29.255,64.4h-9.66Zm-3.219-7.36L530.838,38.626,516.945,70.182Z"/>
          <path class="cls-3" d="M587.463,90.1a31.458,31.458,0,0,1-12.19-11.776,32.632,32.632,0,0,1-4.416-16.881,32.642,32.642,0,0,1,4.416-16.883,31.382,31.382,0,0,1,12.236-11.775,35.8,35.8,0,0,1,17.479-4.279,36.485,36.485,0,0,1,13.8,2.531,28.234,28.234,0,0,1,10.672,7.5l-5.981,5.8A23.99,23.99,0,0,0,605.357,36.7a26.258,26.258,0,0,0-12.972,3.219,23.367,23.367,0,0,0-9.063,8.878,24.85,24.85,0,0,0-3.265,12.651,24.843,24.843,0,0,0,3.265,12.649,23.347,23.347,0,0,0,9.063,8.878,26.238,26.238,0,0,0,12.972,3.221,24.038,24.038,0,0,0,18.123-7.729l5.981,5.8A28.613,28.613,0,0,1,618.742,91.8,36.24,36.24,0,0,1,604.9,94.378,35.539,35.539,0,0,1,587.463,90.1Z"/>
          <path class="cls-3" d="M699.84,29.243v64.4h-9.2v-28.7H653.656v28.7h-9.2v-64.4h9.2V56.934h36.985V29.243Z"/>
          <path class="cls-3" d="M721,29.243h9.2v64.4H721Z"/>
          <path class="cls-3" d="M792.392,77.542H758.168l-7.084,16.1h-9.477l29.164-64.4h9.109l29.256,64.4h-9.66Zm-3.22-7.36L775.279,38.626,761.388,70.182Z"/>
          <path class="cls-3" d="M848.7,29.243h4.692v64.4H848.7Z"/>
          <path class="cls-3" d="M931.955,29.243v64.4h-3.864L884.207,37.706V93.642h-4.691v-64.4h3.955l43.793,55.935V29.243Z"/>
          <path class="cls-3" d="M970.41,33.474H947.227V29.243h51.06v4.231H975.1V93.642H970.41Z"/>
          <path class="cls-3" d="M1057.994,89.411v4.231h-44.436v-64.4h43.055v4.231H1018.25V58.867h34.315v4.139H1018.25V89.411Z"/>
          <path class="cls-3" d="M1123.5,93.642l-15.363-21.527a47.111,47.111,0,0,1-6.256.459h-18.4V93.642h-4.692v-64.4h23.092q12.144,0,19.043,5.75t6.9,15.962a20.736,20.736,0,0,1-3.91,12.834,20.715,20.715,0,0,1-11.178,7.313l16.1,22.54Zm-21.619-25.208q10.3,0,15.731-4.554t5.429-12.925q0-8.371-5.429-12.926t-15.731-4.555h-18.4v34.96Z"/>
          <path class="cls-3" d="M1188.539,75.518h-37.351L1143,93.642h-5.061l29.624-64.4h4.693l29.623,64.4h-5.06Zm-1.748-3.956-16.928-37.168-16.836,37.168Z"/>
          <path class="cls-3" d="M1226.488,89.871a31.262,31.262,0,0,1-11.959-11.685,32.469,32.469,0,0,1-4.371-16.743,32.47,32.47,0,0,1,4.371-16.744,31.262,31.262,0,0,1,11.959-11.685,34.456,34.456,0,0,1,17.067-4.231,35.762,35.762,0,0,1,12.88,2.254,26.554,26.554,0,0,1,10.028,6.669l-2.944,3.037q-7.728-7.637-19.781-7.636a29.784,29.784,0,0,0-14.719,3.68,26.913,26.913,0,0,0-10.4,10.166,28.279,28.279,0,0,0-3.772,14.49,28.273,28.273,0,0,0,3.772,14.489,26.913,26.913,0,0,0,10.4,10.166,29.784,29.784,0,0,0,14.719,3.681q11.959,0,19.781-7.729l2.944,3.036a26.909,26.909,0,0,1-10.074,6.716,35.2,35.2,0,0,1-12.834,2.3A34.445,34.445,0,0,1,1226.488,89.871Z"/>
          <path class="cls-3" d="M1297.375,33.474h-23.184V29.243h51.06v4.231h-23.185V93.642h-4.691Z"/>
          <path class="cls-3" d="M1340.521,29.243h4.693v64.4h-4.693Z"/>
          <path class="cls-3" d="M1421.942,29.243l-28.7,64.4h-4.691l-28.7-64.4h5.152l26.037,58.327,26.035-58.327Z"/>
          <path class="cls-3" d="M1480.454,89.411v4.231h-44.436v-64.4h43.056v4.231H1440.71V58.867h34.315v4.139H1440.71V89.411Z"/>
        </g>
      </g>
    </g>
  </g>
</svg>
