<svg xmlns="http://www.w3.org/2000/svg" xmlns:xlink="http://www.w3.org/1999/xlink" width="1466.84" height="96">
  <defs>
    <symbol id="a" data-name="Squirrel Filled - Gold" viewBox="0 0 376.85 312.17">
      <path d="M350.92 215.39s-6.69 1-11.43-3.64a.16.16 0 0 0-.27.17 11.54 11.54 0 0 1-.54 9.19c-4.14 8.75-15 12-23.5 7.36l-9.78-5a.17.17 0 0 0-.18 0c-.54.41-3.6 2.74-8.25 5.67-12.86 7.61-25.77 13.93-40.9 15.62a.17.17 0 0 0-.15.2c5.72 23.73-11.66 41.3-14.19 43.69a.17.17 0 0 0 .12.29c25.93.67 26 16.27 25.89 18a.17.17 0 0 1-.17.16H117.75a.17.17 0 0 1-.17-.19l1-9a.17.17 0 0 0-.21-.18c-21.62 6.11-48.22.26-63.22-14.95-32-39.47-11.75-82.54-1.93-122.18 7.11-29 13.73-64.17 5.93-80.17-10.68-21.93-34.77-25-53.81-4a.17.17 0 0 1-.3-.13c11-126 178.17-66 155.65 32.86a.16.16 0 0 0 .16.21c9.79-.19 22.5 1.71 37.15 7.18 0 0 35.93 11.88 50.43-6.89.28-.8 7.67-21.4 19.17-26.24a.17.17 0 0 0 .1-.2c-.6-2.15-7.15-28.53 23.25-51.61a.17.17 0 0 1 .27.17c-.88 3.37-5.38 23.63 10.32 35.19.76.39 38.13 19.88 41.31 24.81s26.8 35.52 29 76.8a.15.15 0 0 1-.07.15c-9.86 6.32-19.65 11.59-31.77 13.65a.17.17 0 0 0-.09.29c2.81 2.58 27.82 26.08 11.09 32.67zm-118.18 91.29" stroke="#161515" stroke-miterlimit="7.57" stroke-width="10" fill="#d9b776"/>
    </symbol>
    <style>
      .b{fill:#d9b776}
    </style>
  </defs>
  <use width="376.84" height="312.17" transform="scale(.31)" xlink:href="#a"/>
  <path class="b" d="M207.74 65.29h-34.22l-7.09 16.1H157L186.12 17h9.11l29.25 64.4h-9.66zm-3.22-7.36-13.89-31.55-13.89 31.55zM280.7 23q7.17 6 7.17 16.47t-7.17 16.44q-7.18 6-19.69 6h-15.92v19.5h-9.2V17H261q12.52 0 19.7 6zm-6.63 27.19q4.6-3.73 4.6-10.72t-4.6-10.72Q269.47 25 260.73 25h-15.64v28.88h15.64q8.75 0 13.34-3.72zM348 23q7.17 6 7.17 16.47T348 55.91q-7.19 6-19.69 6h-15.88v19.5h-9.2V17h25.12q12.51 0 19.65 6zm-6.63 27.19q4.6-3.73 4.6-10.72t-4.6-10.72Q336.82 25 328.07 25h-15.64v28.88h15.64q8.74 0 13.34-3.72zM408.39 65.29h-34.22l-7.09 16.1h-9.47L386.77 17h9.11l29.25 64.4h-9.66zm-3.22-7.36-13.89-31.55-13.89 31.55zM436.54 17h9.2v56.4h34.87v8h-44.07zM534.34 65.29h-34.23L493 81.39h-9.48L512.72 17h9.1l29.26 64.4h-9.66zm-3.22-7.36-13.9-31.55-13.89 31.55zM573.85 77.85a31.45 31.45 0 0 1-12.19-11.78 32.64 32.64 0 0 1-4.42-16.88 32.69 32.69 0 0 1 4.42-16.88 31.39 31.39 0 0 1 12.24-11.78 35.82 35.82 0 0 1 17.48-4.27 36.49 36.49 0 0 1 13.8 2.53 28.22 28.22 0 0 1 10.67 7.49l-6 5.8a24 24 0 0 0-18.13-7.64 26.35 26.35 0 0 0-13 3.22 23.43 23.43 0 0 0-9.06 8.88 24.82 24.82 0 0 0-3.27 12.65 24.82 24.82 0 0 0 3.27 12.65 23.43 23.43 0 0 0 9.06 8.88 26.24 26.24 0 0 0 13 3.22 24.06 24.06 0 0 0 18.13-7.73l6 5.8a28.61 28.61 0 0 1-10.72 7.54 36.22 36.22 0 0 1-13.85 2.58 35.55 35.55 0 0 1-17.43-4.28zM686.23 17v64.4H677V52.69h-37v28.7h-9.2V17h9.2v27.68h37V17zM707.39 17h9.2v64.4h-9.2zM778.78 65.29h-34.23l-7.08 16.1H728L757.16 17h9.11l29.25 64.4h-9.66zm-3.22-7.36-13.89-31.55-13.9 31.55zM835.08 17h4.69v64.4h-4.69zM918.34 17v64.4h-3.86l-43.89-55.94v55.93h-4.69V17h4l43.79 55.94V17zM956.8 21.22h-23.19V17h51.06v4.23h-23.18v60.16h-4.69zM1044.38 77.16v4.23h-44.44V17H1043v4.23h-38.36v25.4H1039v4.14h-34.31v26.4zM1109.88 81.39l-15.36-21.53a46.51 46.51 0 0 1-6.26.46h-18.4v21.07h-4.69V17h23.09q12.15 0 19 5.75t6.9 16a20.79 20.79 0 0 1-3.91 12.84 20.77 20.77 0 0 1-11.18 7.31l16.1 22.54zm-21.62-25.21q10.31 0 15.73-4.55t5.43-12.93q0-8.37-5.43-12.92t-15.73-4.56h-18.4v35zM1174.93 63.27h-37.36l-8.18 18.12h-5.06L1154 17h4.69l29.63 64.4h-5.06zm-1.75-4-16.93-37.17-16.84 37.17zM1212.88 77.62a31.21 31.21 0 0 1-12-11.68 32.44 32.44 0 0 1-4.38-16.75 32.42 32.42 0 0 1 4.38-16.74 31.24 31.24 0 0 1 12-11.69 34.42 34.42 0 0 1 17.06-4.23 35.57 35.57 0 0 1 12.88 2.26 26.41 26.41 0 0 1 10 6.67l-2.95 3q-7.73-7.64-19.77-7.63a29.76 29.76 0 0 0-14.73 3.68A26.91 26.91 0 0 0 1205 34.7a28.27 28.27 0 0 0-3.77 14.49 28.22 28.22 0 0 0 3.77 14.49 26.87 26.87 0 0 0 10.39 10.17 29.87 29.87 0 0 0 14.73 3.68q12 0 19.77-7.73l2.95 3a26.92 26.92 0 0 1-10.08 6.71 35 35 0 0 1-12.83 2.3 34.42 34.42 0 0 1-17.05-4.19zM1283.76 21.22h-23.18V17h51.06v4.23h-23.19v60.16h-4.69zM1326.91 17h4.69v64.4h-4.69zM1408.33 17l-28.7 64.4h-4.7l-28.7-64.4h5.15l26 58.33 26-58.33zM1466.84 77.16v4.23h-44.44V17h43.06v4.23h-38.36v25.4h34.31v4.14h-34.31v26.4z"/>
</svg>
