<svg xmlns="http://www.w3.org/2000/svg" width="1445.98" height="94.92" viewBox="0 0 1445.98 94.92">
  <defs>
    <style>
      .cls-1, .cls-2 {
        fill: #2d362a;
        stroke: #fbf5f3;
      }

      .cls-1 {
        stroke-miterlimit: 7.57;
        stroke-width: 2px;
      }

      .cls-2 {
        stroke-miterlimit: 7.57;
      }
    </style>
  </defs>
  <g id="Layer_2" data-name="Layer 2">
    <g id="Squirrel_Stripe_Logo_KOC" data-name="Squirrel Stripe Logo KOC">
      <path id="Squirrel_Filled" data-name="Squirrel Filled" class="cls-1" d="M107.38,72.28a4.46,4.46,0,0,1-3.51-1.12.06.06,0,0,0-.09.06,3.56,3.56,0,0,1-.16,2.82,5.24,5.24,0,0,1-7.23,2.26l-3-1.52a0,0,0,0,0,0,0c-.17.13-1.11.84-2.54,1.75-4,2.34-7.93,4.28-12.58,4.8a0,0,0,0,0,0,.06c1.76,7.3-3.59,12.7-4.37,13.44a.05.05,0,0,0,0,.09c8,.2,8,5,8,5.54a.05.05,0,0,1,0,.05H35.67a.06.06,0,0,1-.05-.06l.3-2.76a.05.05,0,0,0-.07,0C29.21,99.52,21,97.72,16.41,93h0C6.57,80.9,12.8,67.65,15.82,55.46,18,46.55,20,35.73,17.64,30.81,14.36,24.06,7,23.13,1.09,29.56c0,0-.09,0-.09,0C4.37-9.23,55.79,9.23,48.87,39.63a0,0,0,0,0,.05.06A31.71,31.71,0,0,1,60.34,41.9s11,3.65,15.51-2.12h0c.08-.25,2.36-6.58,5.89-8.07a0,0,0,0,0,0-.06c-.18-.67-2.19-8.78,7.16-15.88,0,0,.09,0,.08.06-.27,1-1.66,7.26,3.17,10.82h0c.23.13,11.72,6.12,12.7,7.63s8.24,10.93,8.91,23.62a0,0,0,0,1,0,0,25.9,25.9,0,0,1-9.77,4.2.05.05,0,0,0,0,.09c.87.79,8.56,8,3.41,10Z" transform="translate(0 -6.58)"/>
      <g>
        <path class="cls-2" d="M208.2,98.36l16.22-80.5h10.46l16,80.5h-10.7l-3.1-15.06h-15.3L218.9,98.36Zm15.64-25.64h11.39l-5.52-28.64Z" transform="translate(0 -6.58)"/>
        <path class="cls-2" d="M271.91,98.25V17.75h34.5a8.05,8.05,0,0,1,5.81,2.41A7.89,7.89,0,0,1,314.69,26V50.75a7.89,7.89,0,0,1-2.47,5.87A8.05,8.05,0,0,1,306.41,59h-23.8V98.25Zm10.7-49.91h17.25A4.13,4.13,0,0,0,304,44.2V32.47a3.9,3.9,0,0,0-1.21-2.82,4,4,0,0,0-2.93-1.21H282.61Z" transform="translate(0 -6.58)"/>
        <path class="cls-2" d="M335.74,98.25V17.75h34.5a8,8,0,0,1,5.8,2.41A7.9,7.9,0,0,1,378.52,26V50.75A7.9,7.9,0,0,1,376,56.62a8,8,0,0,1-5.8,2.41H346.43V98.25Zm10.69-49.91h17.25a4.13,4.13,0,0,0,4.14-4.14V32.47a3.86,3.86,0,0,0-1.21-2.82,4,4,0,0,0-2.93-1.21H346.43Z" transform="translate(0 -6.58)"/>
        <path class="cls-2" d="M390.36,98.36l16.21-80.5H417l16,80.5H422.33L419.22,83.3H403.93l-2.88,15.06ZM406,72.72h11.38l-5.52-28.64Z" transform="translate(0 -6.58)"/>
        <path class="cls-2" d="M454.07,98.25V17.75h10.7v69.8h27.48v10.7Z" transform="translate(0 -6.58)"/>
        <path class="cls-2" d="M510.54,98.36l16.21-80.5h10.46l16,80.5H542.5L539.4,83.3H524.1l-2.87,15.06Zm15.63-25.64h11.39L532,44.08Z" transform="translate(0 -6.58)"/>
        <path class="cls-2" d="M586,98.25a8.09,8.09,0,0,1-5.75-2.42A7.78,7.78,0,0,1,577.7,90V26a7.86,7.86,0,0,1,2.53-5.81A8,8,0,0,1,586,17.75h26.1A7.82,7.82,0,0,1,618,20.22,8.17,8.17,0,0,1,620.36,26V41l-10.69,2.41V32.58a4.26,4.26,0,0,0-1.1-2.87,3.69,3.69,0,0,0-2.93-1.27H592.53a4.35,4.35,0,0,0-4.14,4.14V83.41a3.82,3.82,0,0,0,1.27,3,4.13,4.13,0,0,0,2.87,1.15h13.11a3.83,3.83,0,0,0,2.93-1.15,4.14,4.14,0,0,0,1.1-3V75l10.69-2.53V90A8.08,8.08,0,0,1,618,95.83a7.92,7.92,0,0,1-5.92,2.42Z" transform="translate(0 -6.58)"/>
        <path class="cls-2" d="M643.71,98.25V17.75H654.4V48.34h21.39V17.75h10.58v80.5H675.79V59H654.4V98.25Z" transform="translate(0 -6.58)"/>
        <path class="cls-2" d="M709.72,98.25V17.75h10.69v80.5Z" transform="translate(0 -6.58)"/>
        <path class="cls-2" d="M738,98.36l16.21-80.5h10.47l16,80.5H770L766.87,83.3H751.58L748.7,98.36Zm15.64-25.64H765l-5.52-28.64Z" transform="translate(0 -6.58)"/>
        <path class="cls-2" d="M830.35,98.25V17.75h10.7v80.5Z" transform="translate(0 -6.58)"/>
        <path class="cls-2" d="M863.24,98.25V17.75h10.7l21.39,53.7V17.75H906v80.5H895.33L873.94,44.54V98.25Z" transform="translate(0 -6.58)"/>
        <path class="cls-2" d="M942.59,98.25V28.44h-16V17.75h42.67V28.44h-16V98.25Z" transform="translate(0 -6.58)"/>
        <path class="cls-2" d="M989.85,98.25V17.75h42.78V28.33h-32.08v20h21.39L1019.52,59h-19V87.55h32.08v10.7Z" transform="translate(0 -6.58)"/>
        <path class="cls-2" d="M1053.45,98.25V17.75H1088a7.85,7.85,0,0,1,5.75,2.41,8,8,0,0,1,2.41,5.87V50.75a8,8,0,0,1-2.41,5.87A7.85,7.85,0,0,1,1088,59h-2.42l10.58,39.22h-10.58L1074.84,59h-10.7V98.25Zm10.69-49.91h17.25a4,4,0,0,0,2.88-1.21,3.9,3.9,0,0,0,1.26-2.93V32.58a3.91,3.91,0,0,0-1.26-2.93,4.09,4.09,0,0,0-2.88-1.21h-17.25Z" transform="translate(0 -6.58)"/>
        <path class="cls-2" d="M1115.78,98.36,1132,17.86h10.47l16,80.5h-10.69l-3.11-15.06h-15.29l-2.88,15.06Zm15.64-25.64h11.38l-5.52-28.64Z" transform="translate(0 -6.58)"/>
        <path class="cls-2" d="M1191.22,98.25a8.09,8.09,0,0,1-5.75-2.42,7.78,7.78,0,0,1-2.53-5.86V26a7.86,7.86,0,0,1,2.53-5.81,8,8,0,0,1,5.75-2.47h26.1a7.82,7.82,0,0,1,5.92,2.47A8.17,8.17,0,0,1,1225.6,26V41l-10.69,2.41V32.58a4.26,4.26,0,0,0-1.1-2.87,3.69,3.69,0,0,0-2.93-1.27h-13.11a4.35,4.35,0,0,0-4.14,4.14V83.41a3.82,3.82,0,0,0,1.27,3,4.13,4.13,0,0,0,2.87,1.15h13.11a3.83,3.83,0,0,0,2.93-1.15,4.14,4.14,0,0,0,1.1-3V75l10.69-2.53V90a8.08,8.08,0,0,1-2.36,5.86,7.92,7.92,0,0,1-5.92,2.42Z" transform="translate(0 -6.58)"/>
        <path class="cls-2" d="M1262.17,98.25V28.44h-16V17.75h42.66V28.44h-16V98.25Z" transform="translate(0 -6.58)"/>
        <path class="cls-2" d="M1309.44,98.25V17.75h10.69v80.5Z" transform="translate(0 -6.58)"/>
        <path class="cls-2" d="M1355.78,98.25,1340,17.75h10.69l10.7,54.39,10.69-54.39h10.7l-15.87,80.5Z" transform="translate(0 -6.58)"/>
        <path class="cls-2" d="M1402.7,98.25V17.75h42.78V28.33H1413.4v20h21.39L1432.37,59h-19V87.55h32.08v10.7Z" transform="translate(0 -6.58)"/>
      </g>
    </g>
  </g>
</svg>
