<svg xmlns="http://www.w3.org/2000/svg" width="1466.84" height="96" viewBox="0 0 1466.84 96">
  <defs>
    <style>
      .cls-1, .cls-2 {
        fill: #803e28;
      }

      .cls-1 {
        stroke: #161515;
        stroke-miterlimit: 7.57;
        stroke-width: 3.08px;
      }
    </style>
  </defs>
  <g id="Layer_2" data-name="Layer 2">
    <g id="Squirrel_Stripe_Logo_Red" data-name="Squirrel Stripe Logo Red">
      <g>
        <path id="Squirrel_Filled" data-name="Squirrel Filled" class="cls-1" d="M107.92,66.24a4.49,4.49,0,0,1-3.52-1.12,0,0,0,0,0-.08,0,3.55,3.55,0,0,1-.17,2.83,5.22,5.22,0,0,1-7.22,2.26l-3-1.53a.07.07,0,0,0-.06,0c-.16.12-1.1.84-2.53,1.74-4,2.34-7.93,4.29-12.58,4.81a.06.06,0,0,0,0,.06c1.76,7.3-3.58,12.7-4.36,13.43a.05.05,0,0,0,0,.09c8,.21,8,5,8,5.54a.05.05,0,0,1,0,0H36.21s-.05,0-.05-.06l.3-2.75a.06.06,0,0,0-.07-.06C29.74,93.47,21.56,91.67,17,87h0c-9.84-12.14-3.62-25.38-.6-37.57,2.19-8.92,4.23-19.73,1.83-24.65C14.89,18,7.49,17.08,1.63,23.52a.05.05,0,0,1-.09,0C4.9-15.28,56.33,3.19,49.4,33.59a.06.06,0,0,0,.05.06,31.58,31.58,0,0,1,11.43,2.21s11.05,3.65,15.51-2.12v0c.09-.24,2.36-6.58,5.9-8.06,0,0,0,0,0-.07-.18-.66-2.2-8.77,7.15-15.87,0,0,.1,0,.09,0-.27,1-1.66,7.27,3.17,10.83h0c.23.12,11.72,6.12,12.7,7.63s8.24,10.93,8.91,23.62a.08.08,0,0,1,0,0,25.73,25.73,0,0,1-9.77,4.19.05.05,0,0,0,0,.09c.86.8,8.56,8,3.41,10.05Z"/>
        <g>
          <path class="cls-2" d="M207.74,65.29H173.52l-7.09,16.1H157L186.12,17h9.11l29.25,64.4h-9.66Zm-3.22-7.36L190.63,26.38,176.74,57.93Z"/>
          <path class="cls-2" d="M280.7,23q7.17,6,7.17,16.47T280.7,55.91q-7.18,6-19.69,6H245.09v19.5h-9.2V17H261Q273.52,17,280.7,23Zm-6.63,27.19q4.6-3.73,4.6-10.72t-4.6-10.72Q269.47,25,260.73,25H245.09V53.88h15.64Q269.48,53.88,274.07,50.16Z"/>
          <path class="cls-2" d="M348,23q7.17,6,7.17,16.47T348,55.91q-7.19,6-19.69,6H312.43v19.5h-9.2V17h25.12Q340.86,17,348,23Zm-6.63,27.19q4.6-3.73,4.6-10.72t-4.6-10.72Q336.82,25,328.07,25H312.43V53.88h15.64Q336.81,53.88,341.41,50.16Z"/>
          <path class="cls-2" d="M408.39,65.29H374.17l-7.09,16.1h-9.47L386.77,17h9.11l29.25,64.4h-9.66Zm-3.22-7.36L391.28,26.38,377.39,57.93Z"/>
          <path class="cls-2" d="M436.54,17h9.2v56.4h34.87v8H436.54Z"/>
          <path class="cls-2" d="M534.34,65.29H500.11L493,81.39h-9.48L512.72,17h9.1l29.26,64.4h-9.66Zm-3.22-7.36-13.9-31.55L503.33,57.93Z"/>
          <path class="cls-2" d="M573.85,77.85a31.45,31.45,0,0,1-12.19-11.78,32.64,32.64,0,0,1-4.42-16.88,32.69,32.69,0,0,1,4.42-16.88A31.39,31.39,0,0,1,573.9,20.53a35.81,35.81,0,0,1,17.47-4.27,36.5,36.5,0,0,1,13.81,2.53,28.22,28.22,0,0,1,10.67,7.49l-6,5.8a24,24,0,0,0-18.13-7.64,26.35,26.35,0,0,0-13,3.22,23.43,23.43,0,0,0-9.06,8.88,24.82,24.82,0,0,0-3.27,12.65,24.82,24.82,0,0,0,3.27,12.65,23.43,23.43,0,0,0,9.06,8.88,26.24,26.24,0,0,0,13,3.22,24.06,24.06,0,0,0,18.13-7.73l6,5.8a28.73,28.73,0,0,1-10.72,7.54,36.22,36.22,0,0,1-13.85,2.58A35.55,35.55,0,0,1,573.85,77.85Z"/>
          <path class="cls-2" d="M686.23,17v64.4H677V52.69H640v28.7h-9.2V17H640V44.68h37V17Z"/>
          <path class="cls-2" d="M707.39,17h9.2v64.4h-9.2Z"/>
          <path class="cls-2" d="M778.78,65.29H744.55l-7.08,16.1H728L757.16,17h9.11l29.25,64.4h-9.66Zm-3.22-7.36L761.67,26.38l-13.9,31.55Z"/>
          <path class="cls-2" d="M835.08,17h4.69v64.4h-4.69Z"/>
          <path class="cls-2" d="M918.34,17v64.4h-3.86L870.59,25.46V81.39H865.9V17h4l43.79,55.94V17Z"/>
          <path class="cls-2" d="M956.8,21.22H933.61V17h51.06v4.23H961.49V81.39H956.8Z"/>
          <path class="cls-2" d="M1044.38,77.16v4.23H999.94V17H1043v4.23h-38.36v25.4H1039v4.14h-34.31v26.4Z"/>
          <path class="cls-2" d="M1109.88,81.39l-15.36-21.53a46.51,46.51,0,0,1-6.26.46h-18.4V81.39h-4.69V17h23.09q12.15,0,19,5.75t6.9,16a20.79,20.79,0,0,1-3.91,12.84,20.77,20.77,0,0,1-11.18,7.31l16.1,22.54Zm-21.62-25.21q10.31,0,15.73-4.55t5.43-12.93q0-8.37-5.43-12.92t-15.73-4.56h-18.4v35Z"/>
          <path class="cls-2" d="M1174.93,63.27h-37.36l-8.18,18.12h-5.06L1154,17h4.69l29.63,64.4h-5.06Zm-1.75-4-16.93-37.17-16.84,37.17Z"/>
          <path class="cls-2" d="M1212.87,77.62a31.25,31.25,0,0,1-11.95-11.68,32.44,32.44,0,0,1-4.38-16.75,32.42,32.42,0,0,1,4.38-16.74,31.28,31.28,0,0,1,11.95-11.69,34.49,34.49,0,0,1,17.07-4.23,35.57,35.57,0,0,1,12.88,2.26,26.41,26.41,0,0,1,10,6.67l-2.95,3q-7.73-7.64-19.78-7.63a29.75,29.75,0,0,0-14.72,3.68A26.91,26.91,0,0,0,1205,34.7a28.27,28.27,0,0,0-3.77,14.49A28.22,28.22,0,0,0,1205,63.68a26.87,26.87,0,0,0,10.39,10.17,29.86,29.86,0,0,0,14.72,3.68q12,0,19.78-7.73l2.95,3a26.92,26.92,0,0,1-10.08,6.71,35,35,0,0,1-12.83,2.3A34.49,34.49,0,0,1,1212.87,77.62Z"/>
          <path class="cls-2" d="M1283.76,21.22h-23.18V17h51.06v4.23h-23.19V81.39h-4.69Z"/>
          <path class="cls-2" d="M1326.91,17h4.69v64.4h-4.69Z"/>
          <path class="cls-2" d="M1408.33,17l-28.71,64.4h-4.69L1346.23,17h5.15l26,58.33,26-58.33Z"/>
          <path class="cls-2" d="M1466.84,77.16v4.23H1422.4V17h43.06v4.23H1427.1v25.4h34.31v4.14H1427.1v26.4Z"/>
        </g>
      </g>
    </g>
  </g>
</svg>
