<svg xmlns="http://www.w3.org/2000/svg" xmlns:xlink="http://www.w3.org/1999/xlink" width="1536" height="128" viewBox="0 0 1536 128">
  <defs>
    <style>
      .cls-1 {
        fill: none;
      }

      .cls-2 {
        clip-path: url(#clip-path);
      }

      .cls-3, .cls-4 {
        fill: #2d362a;
        stroke: #fbf5f3;
      }

      .cls-3 {
        stroke-miterlimit: 7.57;
        stroke-width: 2px;
      }

      .cls-4 {
        stroke-miterlimit: 7.57;
      }
    </style>
    <clipPath id="clip-path">
      <rect id="Background" class="cls-1" width="1536" height="128"/>
    </clipPath>
  </defs>
  <g id="Layer_2" data-name="Layer 2">
    <g id="Squirrel_Stripe_Logo_KOC_copy" data-name="Squirrel Stripe Logo KOC copy">
      <g class="cls-2">
        <g>
          <g id="Logo_and_Background" data-name="Logo and Background">
            <g>
              <rect id="Background-2" data-name="Background" class="cls-1" width="1536" height="128"/>
              <path id="Squirrel_Filled" data-name="Squirrel Filled" class="cls-3" d="M121.53,78.49A4.46,4.46,0,0,1,118,77.37a.05.05,0,0,0-.09,0,3.55,3.55,0,0,1-.16,2.83,5.24,5.24,0,0,1-7.23,2.26l-3-1.53a0,0,0,0,0,0,0c-.17.12-1.11.84-2.54,1.74C101,85.07,97,87,92.36,87.54a0,0,0,0,0,0,.06C94.08,94.9,88.73,100.3,88,101a.05.05,0,0,0,0,.09c8,.21,8,5,8,5.54a0,0,0,0,1,0,0H49.82a0,0,0,0,1,0,0l.3-2.76s0-.07-.06-.06c-6.65,1.88-14.83.08-19.45-4.59h0C20.72,87.1,27,73.86,30,61.67c2.18-8.92,4.22-19.73,1.82-24.65-3.28-6.75-10.69-7.68-16.55-1.25,0,0-.09,0-.09,0C18.52-3,69.94,15.44,63,45.84a0,0,0,0,0,0,.06,31.5,31.5,0,0,1,11.42,2.21S85.54,51.76,90,46v0c.09-.24,2.36-6.58,5.9-8.06a.08.08,0,0,0,0-.07c-.19-.66-2.2-8.77,7.15-15.87a.05.05,0,0,1,.08.05c-.27,1-1.65,7.27,3.17,10.83h0c.23.12,11.72,6.12,12.7,7.63S127.29,51.41,128,64.1a.05.05,0,0,1,0,.05,25.73,25.73,0,0,1-9.77,4.19.05.05,0,0,0,0,.09c.87.8,8.56,8,3.42,10Z"/>
            </g>
          </g>
          <g>
            <path class="cls-4" d="M171,111.39l18.33-91h11.83l18.07,91H207.12l-3.51-17H186.32l-3.25,17Zm17.68-29h12.87L195.29,50Z"/>
            <path class="cls-4" d="M238.58,111.27v-91h39A9.08,9.08,0,0,1,284.14,23a8.92,8.92,0,0,1,2.8,6.62v28a9,9,0,0,1-2.8,6.63,9.08,9.08,0,0,1-6.56,2.73H250.67v44.33Zm12.09-56.42h19.5a4.68,4.68,0,0,0,4.68-4.68V36.91a4.37,4.37,0,0,0-1.37-3.19,4.5,4.5,0,0,0-3.31-1.36h-19.5Z"/>
            <path class="cls-4" d="M306.31,111.27v-91h39A9.08,9.08,0,0,1,351.87,23a8.92,8.92,0,0,1,2.8,6.62v28a9,9,0,0,1-2.8,6.63,9.08,9.08,0,0,1-6.56,2.73H318.4v44.33ZM318.4,54.85h19.5a4.68,4.68,0,0,0,4.68-4.68V36.91a4.37,4.37,0,0,0-1.37-3.19,4.5,4.5,0,0,0-3.31-1.36H318.4Z"/>
            <path class="cls-4" d="M363.64,111.39l18.33-91H393.8l18.07,91H399.78l-3.51-17H379l-3.25,17Zm17.68-29h12.87L388,50Z"/>
            <path class="cls-4" d="M431.24,111.27v-91h12.09V99.18H474.4v12.09Z"/>
            <path class="cls-4" d="M490.65,111.39l18.33-91h11.83l18.07,91H526.79l-3.51-17H506l-3.25,17Zm17.68-29H521.2L515,50Z"/>
            <path class="cls-4" d="M571.51,111.27a9.15,9.15,0,0,1-6.5-2.73,8.83,8.83,0,0,1-2.86-6.63V29.62A8.87,8.87,0,0,1,565,23.06a9,9,0,0,1,6.5-2.79H601a8.86,8.86,0,0,1,6.69,2.79,9.18,9.18,0,0,1,2.67,6.56V46.53l-12.09,2.73V37a4.79,4.79,0,0,0-1.24-3.25,4.13,4.13,0,0,0-3.31-1.43H578.92A4.9,4.9,0,0,0,574.24,37V94.5a4.35,4.35,0,0,0,1.43,3.38,4.71,4.71,0,0,0,3.25,1.3h14.82a4.37,4.37,0,0,0,3.31-1.3,4.7,4.7,0,0,0,1.24-3.38V85l12.09-2.87v19.77a9.15,9.15,0,0,1-2.67,6.63,9,9,0,0,1-6.69,2.73Z"/>
            <path class="cls-4" d="M632.35,111.27v-91h12.09V54.85h24.18V20.27h12v91h-12V66.94H644.44v44.33Z"/>
            <path class="cls-4" d="M702.55,111.27v-91h12.09v91Z"/>
            <path class="cls-4" d="M730.11,111.39l18.33-91h11.83l18.07,91H766.25l-3.51-17H745.45l-3.25,17Zm17.68-29h12.87L754.42,50Z"/>
            <path class="cls-4" d="M825.66,111.27v-91h12.09v91Z"/>
            <path class="cls-4" d="M858.42,111.27v-91h12.09L894.69,81V20.27h12.09v91H894.69L870.51,50.55v60.72Z"/>
            <path class="cls-4" d="M943.7,111.27V32.36H925.63V20.27h48.23V32.36H955.79v78.91Z"/>
            <path class="cls-4" d="M992.71,111.27v-91h48.36v12H1004.8V54.85H1029l-2.73,12.09H1004.8V99.18h36.27v12.09Z"/>
            <path class="cls-4" d="M1060.18,111.27v-91h39a8.88,8.88,0,0,1,6.5,2.73,9,9,0,0,1,2.73,6.62v28a9,9,0,0,1-2.73,6.63,8.88,8.88,0,0,1-6.5,2.73h-2.73l12,44.33h-12l-12.09-44.33h-12.09v44.33Zm12.09-56.42h19.5a4.6,4.6,0,0,0,3.25-1.37,4.43,4.43,0,0,0,1.43-3.31V37a4.43,4.43,0,0,0-1.43-3.32,4.59,4.59,0,0,0-3.25-1.36h-19.5Z"/>
            <path class="cls-4" d="M1126.22,111.39l18.33-91h11.83l18.07,91h-12.09l-3.51-17h-17.29l-3.25,17Zm17.68-29h12.87L1150.53,50Z"/>
            <path class="cls-4" d="M1207.08,111.27a9.15,9.15,0,0,1-6.5-2.73,8.83,8.83,0,0,1-2.86-6.63V29.62a8.87,8.87,0,0,1,2.86-6.56,9,9,0,0,1,6.5-2.79h29.51a8.87,8.87,0,0,1,6.69,2.79,9.18,9.18,0,0,1,2.67,6.56V46.53l-12.09,2.73V37a4.79,4.79,0,0,0-1.24-3.25,4.13,4.13,0,0,0-3.31-1.43h-14.82a4.9,4.9,0,0,0-4.68,4.68V94.5a4.35,4.35,0,0,0,1.43,3.38,4.71,4.71,0,0,0,3.25,1.3h14.82a4.37,4.37,0,0,0,3.31-1.3,4.7,4.7,0,0,0,1.24-3.38V85L1246,82.14v19.77a9.15,9.15,0,0,1-2.67,6.63,9,9,0,0,1-6.69,2.73Z"/>
            <path class="cls-4" d="M1282.87,111.27V32.36H1264.8V20.27H1313V32.36H1295v78.91Z"/>
            <path class="cls-4" d="M1331.88,111.27v-91H1344v91Z"/>
            <path class="cls-4" d="M1379.85,111.27l-17.81-91h12.09l12.09,61.49,12.09-61.49h12.09l-17.94,91Z"/>
            <path class="cls-4" d="M1428.46,111.27v-91h48.36v12h-36.27V54.85h24.18L1462,66.94h-21.45V99.18h36.27v12.09Z"/>
          </g>
        </g>
      </g>
    </g>
  </g>
</svg>
