<svg xmlns="http://www.w3.org/2000/svg" xmlns:xlink="http://www.w3.org/1999/xlink" width="1536" height="283.07" viewBox="0 0 1536 283.07">
  <defs>
    <style>
      .cls-1, .cls-3 {
        fill: #d9b776;
      }

      .cls-1 {
        stroke: #161515;
        stroke-miterlimit: 7.57;
        stroke-width: 10px;
      }

      .cls-2 {
        fill: none;
      }

      .cls-4 {
        fill: #2d362a;
        stroke: #fbf5f3;
        stroke-miterlimit: 7.57;
      }
    </style>
    <symbol id="Squirrel_Filled_-_Gold" data-name="Squirrel Filled - Gold" viewBox="0 0 376.85 312.17">
      <path id="Squirrel_Filled" data-name="Squirrel Filled" class="cls-1" d="M350.92,215.39s-6.69,1-11.43-3.64a.16.16,0,0,0-.27.17,11.54,11.54,0,0,1-.54,9.19c-4.14,8.75-15,12-23.5,7.36l-9.78-5a.17.17,0,0,0-.18,0c-.54.41-3.6,2.74-8.25,5.67-12.86,7.61-25.77,13.93-40.9,15.62a.17.17,0,0,0-.15.2c5.72,23.73-11.66,41.3-14.19,43.69a.17.17,0,0,0,.12.29c25.93.67,26,16.27,25.89,18a.17.17,0,0,1-.17.16H117.75a.17.17,0,0,1-.17-.19l1-9a.17.17,0,0,0-.21-.18c-21.62,6.11-48.22.26-63.22-14.95h0c-32-39.47-11.75-82.54-1.93-122.18,7.11-29,13.73-64.17,5.93-80.17-10.68-21.93-34.77-25-53.81-4a.17.17,0,0,1-.3-.13c11-126,178.17-66,155.65,32.86a.16.16,0,0,0,.16.21c9.79-.19,22.5,1.71,37.15,7.18,0,0,35.93,11.88,50.43-6.89l0,0c.28-.8,7.67-21.4,19.17-26.24a.17.17,0,0,0,.1-.2c-.6-2.15-7.15-28.53,23.25-51.61a.17.17,0,0,1,.27.17c-.88,3.37-5.38,23.63,10.32,35.19l0,0c.76.39,38.13,19.88,41.31,24.81s26.8,35.52,29,76.8a.15.15,0,0,1-.07.15c-9.86,6.32-19.65,11.59-31.77,13.65a.17.17,0,0,0-.09.29c2.81,2.58,27.82,26.08,11.09,32.67ZM232.74,306.68"/>
    </symbol>
  </defs>
  <g id="Layer_2" data-name="Layer 2">
    <g id="Squirrel_Stripe_Logo" data-name="Squirrel Stripe Logo">
      <g>
        <rect id="Background" class="cls-2" width="1536" height="128"/>
        <use width="376.84" height="312.17" transform="translate(13.61 12.25) scale(0.31)" xlink:href="#Squirrel_Filled_-_Gold"/>
        <g>
          <path class="cls-3" d="M221.35,77.54H187.13l-7.08,16.1h-9.48l29.16-64.4h9.11l29.26,64.4h-9.66Zm-3.22-7.36L204.24,38.63,190.35,70.18Z"/>
          <path class="cls-3" d="M294.31,35.22q7.17,6,7.18,16.47t-7.18,16.47q-7.17,6-19.69,6H258.71v19.5h-9.2V29.24h25.11Q287.13,29.24,294.31,35.22Zm-6.62,27.19q4.59-3.73,4.6-10.72T287.69,41q-4.6-3.72-13.34-3.72H258.71V66.13h15.64Q283.08,66.13,287.69,62.41Z"/>
          <path class="cls-3" d="M361.65,35.22q7.19,6,7.18,16.47t-7.18,16.47q-7.17,6-19.69,6H326.05v19.5h-9.2V29.24H342Q354.47,29.24,361.65,35.22ZM355,62.41q4.59-3.73,4.6-10.72T355,41q-4.61-3.72-13.34-3.72H326.05V66.13h15.64Q350.42,66.13,355,62.41Z"/>
          <path class="cls-3" d="M422,77.54H387.78l-7.08,16.1h-9.48l29.16-64.4h9.11l29.26,64.4h-9.66Zm-3.22-7.36L404.89,38.63,391,70.18Z"/>
          <path class="cls-3" d="M450.16,29.24h9.19v56.4h34.87v8H450.16Z"/>
          <path class="cls-3" d="M548,77.54H513.73l-7.09,16.1h-9.47l29.16-64.4h9.11l29.25,64.4H555Zm-3.22-7.36L530.84,38.63,517,70.18Z"/>
          <path class="cls-3" d="M587.46,90.1a31.52,31.52,0,0,1-12.19-11.78,32.63,32.63,0,0,1-4.41-16.88,32.68,32.68,0,0,1,4.41-16.88,31.45,31.45,0,0,1,12.24-11.78A35.82,35.82,0,0,1,605,28.51,36.41,36.41,0,0,1,618.79,31a28.14,28.14,0,0,1,10.67,7.49l-6,5.8a24,24,0,0,0-18.12-7.64,26.36,26.36,0,0,0-13,3.22,23.43,23.43,0,0,0-9.06,8.88,24.81,24.81,0,0,0-3.26,12.65,24.81,24.81,0,0,0,3.26,12.65A23.43,23.43,0,0,0,592.38,83a26.25,26.25,0,0,0,13,3.22,24.06,24.06,0,0,0,18.12-7.73l6,5.8a28.54,28.54,0,0,1-10.72,7.54,36.17,36.17,0,0,1-13.84,2.58A35.59,35.59,0,0,1,587.46,90.1Z"/>
          <path class="cls-3" d="M699.84,29.24v64.4h-9.2V64.94h-37v28.7h-9.2V29.24h9.2V56.93h37V29.24Z"/>
          <path class="cls-3" d="M721,29.24h9.2v64.4H721Z"/>
          <path class="cls-3" d="M792.39,77.54H758.17l-7.09,16.1h-9.47l29.16-64.4h9.11l29.26,64.4h-9.66Zm-3.22-7.36L775.28,38.63,761.39,70.18Z"/>
          <path class="cls-3" d="M848.7,29.24h4.69v64.4H848.7Z"/>
          <path class="cls-3" d="M932,29.24v64.4h-3.87L884.21,37.71V93.64h-4.69V29.24h4l43.79,55.94V29.24Z"/>
          <path class="cls-3" d="M970.41,33.47H947.23V29.24h51.06v4.23H975.1V93.64h-4.69Z"/>
          <path class="cls-3" d="M1058,89.41v4.23h-44.43V29.24h43v4.23h-38.36v25.4h34.32V63h-34.32v26.4Z"/>
          <path class="cls-3" d="M1123.5,93.64l-15.37-21.53a46.37,46.37,0,0,1-6.25.46h-18.4V93.64h-4.69V29.24h23.09q12.13,0,19,5.75t6.9,16a20.73,20.73,0,0,1-3.91,12.84,20.74,20.74,0,0,1-11.18,7.31l16.1,22.54Zm-21.62-25.21q10.3,0,15.73-4.55T1123,51q0-8.37-5.43-12.92t-15.73-4.56h-18.4v35Z"/>
          <path class="cls-3" d="M1188.54,75.52h-37.35L1143,93.64h-5.06l29.62-64.4h4.7l29.62,64.4h-5.06Zm-1.75-4-16.93-37.17L1153,71.56Z"/>
          <path class="cls-3" d="M1226.49,89.87a31.28,31.28,0,0,1-12-11.68,32.53,32.53,0,0,1-4.37-16.75,32.51,32.51,0,0,1,4.37-16.74,31.31,31.31,0,0,1,12-11.69,34.45,34.45,0,0,1,17.06-4.23A35.57,35.57,0,0,1,1256.43,31a26.41,26.41,0,0,1,10,6.67l-2.94,3q-7.73-7.64-19.78-7.63A29.7,29.7,0,0,0,1229,36.79,26.94,26.94,0,0,0,1218.62,47a28.37,28.37,0,0,0-3.77,14.49,28.32,28.32,0,0,0,3.77,14.49A26.89,26.89,0,0,0,1229,86.1a29.81,29.81,0,0,0,14.72,3.68q12,0,19.78-7.73l2.94,3a27,27,0,0,1-10.07,6.71,35.11,35.11,0,0,1-12.84,2.3A34.45,34.45,0,0,1,1226.49,89.87Z"/>
          <path class="cls-3" d="M1297.38,33.47h-23.19V29.24h51.06v4.23h-23.18V93.64h-4.69Z"/>
          <path class="cls-3" d="M1340.52,29.24h4.69v64.4h-4.69Z"/>
          <path class="cls-3" d="M1421.94,29.24l-28.7,64.4h-4.69l-28.71-64.4H1365l26,58.33,26-58.33Z"/>
          <path class="cls-3" d="M1480.45,89.41v4.23H1436V29.24h43v4.23h-38.36v25.4H1475V63h-34.32v26.4Z"/>
        </g>
      </g>
    </g>
    <g id="Squirrel_Stripe_Logo_KOC" data-name="Squirrel Stripe Logo KOC">
      <g>
        <path class="cls-4" d="M222.35,282.57l16.22-80.5H249l16,80.5h-10.7l-3.1-15.06h-15.3l-2.87,15.06ZM238,256.93h11.39l-5.52-28.64Z"/>
        <path class="cls-4" d="M286.06,282.46V202h34.5a8,8,0,0,1,5.81,2.41,7.89,7.89,0,0,1,2.47,5.87V235a7.89,7.89,0,0,1-2.47,5.87,8,8,0,0,1-5.81,2.41h-23.8v39.22Zm10.7-49.91H314a4.13,4.13,0,0,0,4.14-4.14V216.68a3.83,3.83,0,0,0-1.21-2.82,4,4,0,0,0-2.93-1.21H296.76Z"/>
        <path class="cls-4" d="M349.89,282.46V202h34.5a8,8,0,0,1,5.8,2.41,7.9,7.9,0,0,1,2.48,5.87V235a7.9,7.9,0,0,1-2.48,5.87,8,8,0,0,1-5.8,2.41H360.58v39.22Zm10.69-49.91h17.25a4.13,4.13,0,0,0,4.14-4.14V216.68a3.83,3.83,0,0,0-1.21-2.82,4,4,0,0,0-2.93-1.21H360.58Z"/>
        <path class="cls-4" d="M404.51,282.57l16.22-80.5h10.46l16,80.5h-10.7l-3.1-15.06h-15.3l-2.87,15.06Zm15.64-25.64h11.39L426,228.29Z"/>
        <path class="cls-4" d="M468.22,282.46V202h10.7v69.8H506.4v10.7Z"/>
        <path class="cls-4" d="M524.69,282.57l16.21-80.5h10.47l16,80.5H556.66l-3.11-15.06H538.26l-2.88,15.06Zm15.64-25.64h11.38l-5.52-28.64Z"/>
        <path class="cls-4" d="M600.13,282.46a8.09,8.09,0,0,1-5.75-2.42,7.78,7.78,0,0,1-2.53-5.86V210.24a7.85,7.85,0,0,1,2.53-5.81,8,8,0,0,1,5.75-2.47h26.1a7.82,7.82,0,0,1,5.92,2.47,8.15,8.15,0,0,1,2.36,5.81v14.95l-10.69,2.41V216.79a4.26,4.26,0,0,0-1.1-2.87,3.64,3.64,0,0,0-2.93-1.27H606.68a4.35,4.35,0,0,0-4.14,4.14v50.83a3.82,3.82,0,0,0,1.27,3,4.13,4.13,0,0,0,2.87,1.15h13.11a3.82,3.82,0,0,0,2.93-1.15,4.14,4.14,0,0,0,1.1-3v-8.39l10.69-2.53v17.48a8.08,8.08,0,0,1-2.36,5.86,7.92,7.92,0,0,1-5.92,2.42Z"/>
        <path class="cls-4" d="M657.86,282.46V202h10.69v30.59h21.39V202h10.58v80.5H689.94V243.24H668.55v39.22Z"/>
        <path class="cls-4" d="M723.87,282.46V202h10.69v80.5Z"/>
        <path class="cls-4" d="M752.16,282.57l16.21-80.5h10.47l16,80.5H784.13L781,267.51H765.73l-2.88,15.06Zm15.64-25.64h11.38l-5.52-28.64Z"/>
        <path class="cls-4" d="M844.5,282.46V202h10.7v80.5Z"/>
        <path class="cls-4" d="M877.39,282.46V202h10.7l21.39,53.7V202h10.69v80.5H909.48l-21.39-53.71v53.71Z"/>
        <path class="cls-4" d="M956.74,282.46V212.65h-16V202h42.66v10.69h-16v69.81Z"/>
        <path class="cls-4" d="M1004,282.46V202h42.79v10.58H1014.7v20h21.39l-2.42,10.69h-19v28.52h32.09v10.7Z"/>
        <path class="cls-4" d="M1067.6,282.46V202h34.5a7.85,7.85,0,0,1,5.75,2.41,8,8,0,0,1,2.41,5.87V235a8,8,0,0,1-2.41,5.87,7.85,7.85,0,0,1-5.75,2.41h-2.42l10.58,39.22h-10.58L1089,243.24h-10.7v39.22Zm10.69-49.91h17.25a4.09,4.09,0,0,0,2.88-1.21,3.91,3.91,0,0,0,1.26-2.93V216.79a3.9,3.9,0,0,0-1.26-2.93,4,4,0,0,0-2.88-1.21h-17.25Z"/>
        <path class="cls-4" d="M1129.93,282.57l16.21-80.5h10.47l16,80.5H1161.9l-3.11-15.06H1143.5l-2.88,15.06Zm15.64-25.64H1157l-5.52-28.64Z"/>
        <path class="cls-4" d="M1205.37,282.46a8.09,8.09,0,0,1-5.75-2.42,7.78,7.78,0,0,1-2.53-5.86V210.24a7.85,7.85,0,0,1,2.53-5.81,8,8,0,0,1,5.75-2.47h26.1a7.86,7.86,0,0,1,5.93,2.47,8.14,8.14,0,0,1,2.35,5.81v14.95l-10.69,2.41V216.79a4.3,4.3,0,0,0-1.09-2.87,3.67,3.67,0,0,0-2.94-1.27h-13.11a4.35,4.35,0,0,0-4.14,4.14v50.83a3.82,3.82,0,0,0,1.27,3,4.13,4.13,0,0,0,2.87,1.15H1225a3.86,3.86,0,0,0,2.94-1.15,4.18,4.18,0,0,0,1.09-3v-8.39l10.69-2.53v17.48a8.07,8.07,0,0,1-2.35,5.86,8,8,0,0,1-5.93,2.42Z"/>
        <path class="cls-4" d="M1276.32,282.46V212.65h-16V202H1303v10.69h-16v69.81Z"/>
        <path class="cls-4" d="M1323.59,282.46V202h10.69v80.5Z"/>
        <path class="cls-4" d="M1369.93,282.46,1354.18,202h10.69l10.7,54.39L1386.26,202H1397l-15.87,80.5Z"/>
        <path class="cls-4" d="M1416.85,282.46V202h42.78v10.58h-32.08v20h21.39l-2.42,10.69h-19v28.52h32.08v10.7Z"/>
      </g>
    </g>
  </g>
</svg>
