<svg xmlns="http://www.w3.org/2000/svg" width="1466.84" height="96" viewBox="0 0 1466.84 96">
  <defs>
    <style>
      .cls-1, .cls-2 {
        fill: #803e28;
      }

      .cls-1 {
        stroke: #161515;
        stroke-miterlimit: 7.565;
        stroke-width: 3.075px;
      }
    </style>
  </defs>
  <g id="Layer_2" data-name="Layer 2">
    <g id="Squirrel_Stripe_Logo_Red" data-name="Squirrel Stripe Logo Red">
      <g>
        <path id="Squirrel_Filled" data-name="Squirrel Filled" class="cls-1" d="M107.916,66.239a4.484,4.484,0,0,1-3.512-1.12.051.051,0,0,0-.085.053A3.549,3.549,0,0,1,104.153,68a5.232,5.232,0,0,1-7.227,2.262l-3.007-1.527a.048.048,0,0,0-.055,0c-.165.126-1.108.842-2.537,1.746-3.954,2.339-7.927,4.282-12.579,4.8a.051.051,0,0,0-.044.064c1.759,7.3-3.589,12.7-4.365,13.435a.052.052,0,0,0,.036.089c7.976.2,7.986,5,7.962,5.541a.051.051,0,0,1-.052.048H36.211a.052.052,0,0,1-.052-.057l.3-2.756a.052.052,0,0,0-.066-.056c-6.647,1.879-14.827.08-19.44-4.6l0,0c-9.841-12.139-3.613-25.383-.594-37.574,2.188-8.917,4.222-19.733,1.825-24.654-3.285-6.744-10.691-7.68-16.55-1.246a.052.052,0,0,1-.09-.04C4.9-15.277,56.329,3.185,49.4,33.586a.05.05,0,0,0,.05.063,31.555,31.555,0,0,1,11.425,2.209s11.048,3.652,15.508-2.12l.008-.015c.087-.244,2.36-6.58,5.9-8.068a.051.051,0,0,0,.03-.061c-.184-.664-2.2-8.776,7.151-15.874a.053.053,0,0,1,.083.054C89.285,10.809,87.9,17.04,92.728,20.6l.007,0c.232.121,11.725,6.115,12.7,7.629s8.241,10.926,8.913,23.618a.056.056,0,0,1-.025.048,25.74,25.74,0,0,1-9.77,4.2.052.052,0,0,0-.027.089c.864.794,8.557,8.02,3.411,10.047Z"/>
        <g>
          <path class="cls-2" d="M207.74,65.292H173.516l-7.084,16.1h-9.475l29.163-64.4h9.109l29.255,64.4h-9.66Zm-3.219-7.36L190.628,26.376,176.736,57.932Z"/>
          <path class="cls-2" d="M280.7,22.972q7.176,5.982,7.176,16.468T280.7,55.908q-7.176,5.981-19.688,5.98H245.092v19.5h-9.2v-64.4h25.116Q273.518,16.992,280.7,22.972Zm-6.624,27.186q4.6-3.726,4.6-10.718t-4.6-10.718q-4.6-3.728-13.34-3.726h-15.64V53.884h15.64Q269.471,53.884,274.072,50.158Z"/>
          <path class="cls-2" d="M348.039,22.972q7.176,5.982,7.176,16.468t-7.176,16.468q-7.176,5.981-19.688,5.98H312.435v19.5h-9.2v-64.4h25.116Q340.861,16.992,348.039,22.972Zm-6.624,27.186q4.6-3.726,4.6-10.718t-4.6-10.718q-4.6-3.728-13.34-3.726h-15.64V53.884h15.64Q336.814,53.884,341.415,50.158Z"/>
          <path class="cls-2" d="M408.39,65.292H374.166l-7.084,16.1h-9.476l29.164-64.4h9.108l29.256,64.4h-9.66Zm-3.22-7.36L391.278,26.376,377.386,57.932Z"/>
          <path class="cls-2" d="M436.542,16.992h9.2v56.4h34.868v8H436.542Z"/>
          <path class="cls-2" d="M534.335,65.292H500.112l-7.084,16.1h-9.476l29.164-64.4h9.108l29.256,64.4h-9.661Zm-3.218-7.36L517.224,26.376,503.332,57.932Z"/>
          <path class="cls-2" d="M573.849,77.849A31.448,31.448,0,0,1,561.66,66.073a32.622,32.622,0,0,1-4.416-16.881,32.632,32.632,0,0,1,4.416-16.883A31.38,31.38,0,0,1,573.9,20.534a35.811,35.811,0,0,1,17.48-4.278,36.484,36.484,0,0,1,13.8,2.53,28.256,28.256,0,0,1,10.672,7.5l-5.98,5.8a23.993,23.993,0,0,0-18.123-7.636,26.252,26.252,0,0,0-12.973,3.22,23.351,23.351,0,0,0-9.062,8.878,24.834,24.834,0,0,0-3.266,12.65,24.84,24.84,0,0,0,3.266,12.65,23.358,23.358,0,0,0,9.062,8.878,26.252,26.252,0,0,0,12.973,3.22,24.044,24.044,0,0,0,18.123-7.728l5.98,5.8a28.617,28.617,0,0,1-10.719,7.544,36.257,36.257,0,0,1-13.845,2.576A35.541,35.541,0,0,1,573.849,77.849Z"/>
          <path class="cls-2" d="M686.226,16.992v64.4h-9.2v-28.7H640.042v28.7h-9.2v-64.4h9.2V44.683h36.985V16.992Z"/>
          <path class="cls-2" d="M707.386,16.992h9.2v64.4h-9.2Z"/>
          <path class="cls-2" d="M778.778,65.292H744.554l-7.084,16.1h-9.476l29.164-64.4h9.108l29.256,64.4h-9.66Zm-3.22-7.36L761.666,26.376,747.774,57.932Z"/>
          <path class="cls-2" d="M835.082,16.992h4.691v64.4h-4.691Z"/>
          <path class="cls-2" d="M918.341,16.992v64.4h-3.864L870.593,25.456V81.391H865.9v-64.4h3.955L913.65,72.928V16.992Z"/>
          <path class="cls-2" d="M956.8,21.224H933.613V16.992h51.06v4.232H961.489V81.391H956.8Z"/>
          <path class="cls-2" d="M1044.38,77.16v4.231H999.944v-64.4H1043v4.232h-38.364V46.616h34.316v4.14h-34.316v26.4Z"/>
          <path class="cls-2" d="M1109.882,81.391l-15.363-21.527a46.92,46.92,0,0,1-6.256.459h-18.4V81.391h-4.692v-64.4h23.092q12.144,0,19.043,5.75t6.9,15.962a20.735,20.735,0,0,1-3.911,12.834,20.71,20.71,0,0,1-11.177,7.313l16.1,22.54Zm-21.619-25.208q10.3,0,15.732-4.553t5.428-12.926q0-8.37-5.428-12.926t-15.732-4.554h-18.4V56.183Z"/>
          <path class="cls-2" d="M1174.925,63.267h-37.351l-8.188,18.124h-5.06l29.624-64.4h4.692l29.623,64.4h-5.059Zm-1.748-3.956L1156.25,22.143l-16.836,37.168Z"/>
          <path class="cls-2" d="M1212.875,77.62a31.248,31.248,0,0,1-11.959-11.685,32.455,32.455,0,0,1-4.372-16.743,32.464,32.464,0,0,1,4.372-16.744,31.252,31.252,0,0,1,11.959-11.684,34.442,34.442,0,0,1,17.066-4.232,35.762,35.762,0,0,1,12.88,2.254,26.56,26.56,0,0,1,10.028,6.67l-2.944,3.036q-7.728-7.637-19.78-7.636a29.8,29.8,0,0,0-14.72,3.68,26.92,26.92,0,0,0-10.4,10.166,28.289,28.289,0,0,0-3.772,14.49,28.289,28.289,0,0,0,3.772,14.49,26.92,26.92,0,0,0,10.4,10.166,29.785,29.785,0,0,0,14.72,3.68q11.958,0,19.78-7.728l2.944,3.036a26.933,26.933,0,0,1-10.074,6.716,35.192,35.192,0,0,1-12.834,2.3A34.441,34.441,0,0,1,1212.875,77.62Z"/>
          <path class="cls-2" d="M1283.761,21.224h-23.183V16.992h51.059v4.232h-23.184V81.391h-4.692Z"/>
          <path class="cls-2" d="M1326.908,16.992h4.692v64.4h-4.692Z"/>
          <path class="cls-2" d="M1408.329,16.992l-28.7,64.4h-4.692l-28.7-64.4h5.152l26.037,58.327,26.036-58.327Z"/>
          <path class="cls-2" d="M1466.84,77.16v4.231H1422.4v-64.4h43.056v4.232H1427.1V46.616h34.316v4.14H1427.1v26.4Z"/>
        </g>
      </g>
    </g>
  </g>
</svg>
