<svg xmlns="http://www.w3.org/2000/svg" xmlns:xlink="http://www.w3.org/1999/xlink" viewBox="0 0 642.92 440"><defs><style>.cls-1,.cls-4{fill:#161515;}.cls-1{stroke:#161515;stroke-width:56.69px;}.cls-1,.cls-2,.cls-3{stroke-miterlimit:7.57;}.cls-2,.cls-3{fill:none;stroke:#d9b776;}.cls-2{stroke-width:7.37px;}.cls-3{stroke-width:13.89px;}.cls-5{fill:#d9b776;}</style><symbol id="Squirrel_Background_Thick" data-name="Squirrel Background Thick" viewBox="0 0 1140.83 949.65"><path id="Background_Thick" data-name="Background Thick" class="cls-1" d="M1050.63,650.09c-.46,1-20.27,3-34.28-11.29a.32.32,0,0,0-.53.34c3.36,9.57,3.22,18.22-1.35,27.86-12.24,25.85-44.31,35.37-69.45,21.73L916,674a.32.32,0,0,0-.34,0c-1.28,1-10.43,8-24.47,16.85-38.05,22.51-76.29,41.21-121.08,46.16a.31.31,0,0,0-.27.39c17.31,71.33-36,123.83-42.21,129.6a.32.32,0,0,0,.22.55c78,1.82,77.17,49.22,76.94,53.43a.32.32,0,0,1-.32.29H361.38a.31.31,0,0,1-.31-.35l2.9-27a.32.32,0,0,0-.4-.34c-63.93,18.17-142.69.9-187.07-44.1l0,0c-94.57-116.65-34.72-243.92-5.71-361.07,21-85.69,40.57-189.62,17.54-236.91-31.63-65-103-73.84-159.39-11.58a.32.32,0,0,1-.56-.25c31.93-373.22,526.84-195.59,460,96.82a.31.31,0,0,0,.31.39c29-.59,66.59,5,110,21.22,0,0,106.2,35.1,149-20.4a.41.41,0,0,0,.05-.09c.68-1.93,22.62-63.38,56.82-77.62a.3.3,0,0,0,.18-.37c-1.45-5.14-22-84.12,69.1-153a.32.32,0,0,1,.51.33c-2.21,8.19-16.9,69.69,30.37,104.51l0,0c1.77.92,112.66,58.73,122.1,73.31s79.23,105.05,85.65,227.07a.33.33,0,0,1-.15.29C1083.07,531,1054,546.61,1018,552.66a.32.32,0,0,0-.17.54c6.81,6.22,82.84,77.18,32.8,96.89ZM701.39,919.87"/></symbol><symbol id="Squirrel_Outline" data-name="Squirrel Outline" viewBox="0 0 1098.89 907.72"><g id="Lines"><path id="Lines_Inner" data-name="Lines Inner" class="cls-2" d="M463.88,315.51c32-153.91-274.1-388.62-450.42-104.3M342.75,350.34c59.68-159.45-153-423.45-329.29-139.13M751,717.58c-35.37-431.84-464.81-353.8-503.09-238M337,904.24c174.3-60.51,240.47-35.16,342-226.74,60.06-161.88,209.63-120.18,219.26-112.14M487.52,850c-74.41-30-252.48-208.59-172-348.85,110-191.87,437.37,2.3,663.45-9,37.6-4.79,81.45-29.3,102.42-30.71M784.26,239.92c22.32,86.52,154.17,12.6,195.29,69.64,43.67,60.58,76.67,197.85,76.67,197.85M145.55,17.11C477.08,68.15,337,362.2,337,362.2M201.32,865.26C452.63,759,594.75,664,598.89,346.92M781.12,241.3s-25.37-82.48,69.79-153.86c0,0-20.62,68.08,30.12,105.44,0,0,112.61,58.63,122.13,73.32s79.3,105.14,85.65,227.26c0,0-56.24,39.51-117.52,38.85,0,0-18,.11-42-9C881.6,502,839.17,477.87,801.73,449.15,786.24,437,780,407.08,774,380.29,761.88,326.71,781.12,241.3,781.12,241.3ZM133.42,20.42C438.47,156.18,107.34,515,100.31,654.32c-3.93,73.55,6,128.41,52.49,176.59C176,855,206.27,872.2,244.31,878.81a206.44,206.44,0,0,0,30,2.91,251.34,251.34,0,0,0,33-1.4c11.51-1.23,30.55-7.77,42.81-11.63,37.09-11.69,163-79,222.08-153.49,87.21-110.12,144.76-333,151.78-392.47M100,654.42c-.51-13.61,26.14-99.25,47.07-184.59,21-85.7,40.58-189.63,17.55-236.92C132.86,167.72,61,159,4.58,222,35.77-152.61,532,25.4,467.66,318.15m525.89,216s85.75,76.7,33.4,97.31c0,0-21.33,3.18-36.41-14.71M868.62,492.67s-59.08,51.94,82.32,91.93c0,0,59,23.25,39.85,63.76-12.24,25.85-44.32,35.37-69.45,21.73l-29.18-14.82s-151.4,118.21-213.32,22.2c-95.64-330.62-484-254.36-428,27.7m428,197.49a29.18,29.18,0,0,0-2.26-2.87c-3.66-19.91-10.76-48.16-75.93-50.87s-152.38-.19-224.24,9.5m-39.07,17.12v27.12H781.12s4.76-52.15-77.72-53.74c0,0,61.34-54.65,50.5-126.54m-377.49,136s-310-227.57-57.07-478c0,0,88-99.38,255.61-40.95,0,0,106.25,35.12,149.07-20.45,0,0,22.2-63.5,57.1-77.77"/><path id="Lines_Outer" data-name="Lines Outer" class="cls-3" d="M1030.09,628.69s-19.77,2.95-33.75-10.76a.49.49,0,0,0-.81.51c3.1,9.29,2.86,17.76-1.6,27.16-12.23,25.85-44.31,35.36-69.45,21.73l-28.89-14.68a.49.49,0,0,0-.53.05c-1.59,1.22-10.64,8.1-24.38,16.78-38,22.48-76.17,41.15-120.88,46.14a.49.49,0,0,0-.42.61c16.9,70.13-34.49,122-41.94,129.1a.5.5,0,0,0,.34.86c76.65,2,76.74,48.08,76.51,53.24a.49.49,0,0,1-.5.47H341.05a.5.5,0,0,1-.5-.55l2.86-26.49a.5.5,0,0,0-.63-.53c-63.88,18-142.48.77-186.81-44.17l0,0c-94.57-116.65-34.72-243.91-5.71-361.06,21-85.69,40.58-189.63,17.54-236.91-31.57-64.81-102.74-73.81-159-12a.5.5,0,0,1-.87-.38c32.34-372.43,526.51-195,460,97.12a.49.49,0,0,0,.49.61c28.93-.55,66.48,5.07,109.78,21.23,0,0,106.17,35.09,149-20.38a.39.39,0,0,0,.08-.14c.83-2.35,22.68-63.23,56.67-77.53a.49.49,0,0,0,.28-.59c-1.77-6.37-21.12-84.33,68.72-152.54a.51.51,0,0,1,.8.52c-2.6,10-15.9,69.82,30.49,104l.06,0c2.23,1.16,112.67,58.76,122.09,73.31s79.19,105,85.64,227a.52.52,0,0,1-.23.46c-29.14,18.67-58,34.25-93.89,40.33a.5.5,0,0,0-.26.85c8.3,7.64,82.23,77.08,32.78,96.55ZM680.85,898.46"/></g></symbol><symbol id="Squirrel_Background" data-name="Squirrel Background" viewBox="0 0 1140.83 949.65"><g id="Background-2" data-name="Background"><use width="1140.83" height="949.65" xlink:href="#Squirrel_Background_Thick"/></g><use width="1098.89" height="907.72" transform="translate(20.54 21.4)" xlink:href="#Squirrel_Outline"/></symbol></defs><g id="Layer_2" data-name="Layer 2"><g id="Logos"><g id="Squirrel_Banner_Logo" data-name="Squirrel Banner Logo"><rect id="Background" class="cls-4" width="642.92" height="440"/><use width="1140.83" height="949.65" transform="translate(217.51 77.34) scale(0.18)" xlink:href="#Squirrel_Background"/><path class="cls-5" d="M177.53,304.86H160l-3.45,8.1h-6.7l15.75-35H172l15.8,35H181Zm-2.15-5.1-6.6-15.3-6.55,15.3Z"/><path class="cls-5" d="M214.61,279.46a11.55,11.55,0,0,1,5.17,4.3,13.15,13.15,0,0,1,0,13.28,11.46,11.46,0,0,1-5.17,4.32,19.38,19.38,0,0,1-7.93,1.5h-7.9V313h-6.5V278h14.4A19.38,19.38,0,0,1,214.61,279.46Zm-1.78,16.1a7.13,7.13,0,0,0,0-10.3q-2.19-1.8-6.45-1.8h-7.6v13.9h7.6Q210.64,297.36,212.83,295.56Z"/><path class="cls-5" d="M250.41,279.46a11.55,11.55,0,0,1,5.17,4.3,13.15,13.15,0,0,1,0,13.28,11.46,11.46,0,0,1-5.17,4.32,19.38,19.38,0,0,1-7.93,1.5h-7.9V313h-6.5V278h14.4A19.38,19.38,0,0,1,250.41,279.46Zm-1.78,16.1a7.13,7.13,0,0,0,0-10.3q-2.19-1.8-6.45-1.8h-7.6v13.9h7.6Q246.44,297.36,248.63,295.56Z"/><path class="cls-5" d="M284.83,304.86h-17.5l-3.45,8.1h-6.7l15.75-35h6.4l15.8,35h-6.8Zm-2.15-5.1-6.6-15.3-6.55,15.3Z"/><path class="cls-5" d="M299.58,278h6.5v29.5h18.3V313h-24.8Z"/><path class="cls-5" d="M352.48,304.86H335l-3.45,8.1h-6.7l15.75-35H347l15.8,35H356Zm-2.15-5.1-6.6-15.3-6.55,15.3Z"/><path class="cls-5" d="M373.86,311.14a17.06,17.06,0,0,1-6.7-6.43,18.75,18.75,0,0,1,0-18.5,17.39,17.39,0,0,1,6.73-6.42,19.7,19.7,0,0,1,9.57-2.33,19.94,19.94,0,0,1,7.85,1.5,16,16,0,0,1,6,4.35l-4.2,3.95a12.26,12.26,0,0,0-9.35-4.1,13.11,13.11,0,0,0-6.45,1.58,11.4,11.4,0,0,0-4.45,4.37,13.4,13.4,0,0,0,0,12.7,11.36,11.36,0,0,0,4.45,4.38,13.11,13.11,0,0,0,6.45,1.57,12.17,12.17,0,0,0,9.35-4.15l4.2,4a16,16,0,0,1-6,4.35,20.19,20.19,0,0,1-7.88,1.5A19.7,19.7,0,0,1,373.86,311.14Z"/><path class="cls-5" d="M434.68,278v35h-6.5V298h-18.1v15h-6.5V278h6.5v14.45h18.1V278Z"/><path class="cls-5" d="M444.08,278h6.5v35h-6.5Z"/><path class="cls-5" d="M482.73,304.86h-17.5l-3.45,8.1h-6.7l15.75-35h6.4L493,313h-6.8Zm-2.15-5.1-6.6-15.3-6.55,15.3Z"/><path class="cls-5" d="M201.46,354V326.27h2V354Z"/><path class="cls-5" d="M212.69,330v24h-2V326.27h1.64l19.3,24.38V326.27h2V354h-1.95Z"/><path class="cls-5" d="M260.19,328.07H250.05V354h-2V328.07H237.92v-1.8h22.27Z"/><path class="cls-5" d="M282.93,352.17V354H264.48V326.27h18.1v1.8H266.47V339h14.08v1.71H266.47v11.51Z"/><path class="cls-5" d="M288.35,354V326.27h11.5a7.17,7.17,0,0,1,3.26.74,8.39,8.39,0,0,1,2.53,2,9.37,9.37,0,0,1,1.68,2.75,8.49,8.49,0,0,1,.61,3.12,9.25,9.25,0,0,1-.82,3.86,8.35,8.35,0,0,1-2.29,3,6.71,6.71,0,0,1-3.41,1.48L308.32,354H306l-6.7-10.45h-9V354Zm2-12.28h9.71a5.15,5.15,0,0,0,3.12-1,6.43,6.43,0,0,0,2-2.53,7.7,7.7,0,0,0,.73-3.32,6.83,6.83,0,0,0-.84-3.33,7.08,7.08,0,0,0-2.23-2.5,5.29,5.29,0,0,0-3.1-.95h-9.43Z"/><path class="cls-5" d="M322.12,326.27h1.72L335.54,354h-2.11l-3.77-9.12H316.28L312.49,354h-2.15ZM329,343.2l-6-14.51-6,14.51Z"/><path class="cls-5" d="M336.82,339.88a14.75,14.75,0,0,1,3.44-9.38,12.25,12.25,0,0,1,9.67-4.42,11.38,11.38,0,0,1,6.32,1.69,10.71,10.71,0,0,1,3.9,4.35l-1.64.94a8.89,8.89,0,0,0-5.46-4.66,11.29,11.29,0,0,0-3.28-.49,10.09,10.09,0,0,0-4.66,1,10.6,10.6,0,0,0-3.45,2.81,12.56,12.56,0,0,0-2.13,3.9,13.51,13.51,0,0,0-.72,4.33,12.77,12.77,0,0,0,.86,4.66,13.06,13.06,0,0,0,2.36,3.92,11.63,11.63,0,0,0,3.51,2.73,9.47,9.47,0,0,0,4.35,1,10.87,10.87,0,0,0,3.41-.56,10.57,10.57,0,0,0,3.26-1.76,8.64,8.64,0,0,0,2.45-3.1l1.72.82a9,9,0,0,1-2.69,3.51,13.12,13.12,0,0,1-4,2.19,13.5,13.5,0,0,1-4.33.74,11.09,11.09,0,0,1-5.18-1.23,13.37,13.37,0,0,1-4.12-3.28,15.35,15.35,0,0,1-3.61-9.77Z"/><path class="cls-5" d="M384.83,328.07H374.69V354h-2V328.07H362.56v-1.8h22.27Z"/><path class="cls-5" d="M389.12,354V326.27h2V354Z"/><path class="cls-5" d="M397.43,326.27,408,351.47l10.53-25.2h2.11L408.93,354H407l-11.7-27.69Z"/><path class="cls-5" d="M443.29,352.17V354H424.85V326.27h18.09v1.8H426.83V339h14.08v1.71H426.83v11.51Z"/></g></g></g></svg>