<svg xmlns="http://www.w3.org/2000/svg" xmlns:xlink="http://www.w3.org/1999/xlink" width="1000" height="1000">
  <defs>
    <symbol id="a" data-name="Squirrel Strong Outline" viewBox="0 0 848.33 701.91">
      <path class="a" d="M782.63 479.41s-14.61 2.18-24.94-8a.36.36 0 0 0-.6.37 25.24 25.24 0 0 1-1.18 20.07C746.87 511 723.17 518 704.59 508l-21.35-10.85a.37.37 0 0 0-.39 0c-1.17.9-7.86 6-18 12.4-28.08 16.61-56.28 30.41-89.32 34.09a.36.36 0 0 0-.31.45c12.49 51.82-25.48 90.17-31 95.4a.37.37 0 0 0 .25.63c56.64 1.45 56.71 35.52 56.54 39.34a.37.37 0 0 1-.37.35H273.49a.37.37 0 0 1-.37-.41l2.11-19.57a.36.36 0 0 0-.46-.39c-47.2 13.33-105.28.56-138-32.64-69.94-86.22-25.71-180.26-4.28-266.8 15.53-63.32 30-140.11 13-175-23.37-48-75.96-54.61-117.55-8.93a.37.37 0 0 1-.65-.27c23.91-275.19 389-144.1 339.87 71.76a.37.37 0 0 0 .36.45c21.38-.41 49.13 3.74 81.12 15.68 0 0 78.45 25.93 110.12-15.06a.31.31 0 0 0 0-.1c.62-1.74 16.76-46.72 41.88-57.29a.36.36 0 0 0 .21-.43c-1.31-4.71-15.61-62.32 50.77-112.71a.37.37 0 0 1 .59.38c-1.92 7.35-11.75 51.59 22.53 76.85h.05c1.65.86 83.25 43.42 90.21 54.17s58.51 77.57 63.28 167.7a.37.37 0 0 1-.17.33c-21.53 13.8-42.89 25.32-69.37 29.81a.37.37 0 0 0-.2.63c6.14 5.64 60.76 56.95 24.22 71.34zm-258 199.34"/>
      <path class="a" d="M364.25 248c23.63-113.73-202.53-287.16-332.81-77.07m243.31 102.81c44.1-117.82-113-312.9-243.31-102.81m545 374.16C550.27 226 233 283.67 204.66 369.26M270.52 683c128.8-44.71 177.69-26 252.69-167.53 44.37-119.62 154.89-88.8 162-82.87M381.72 643c-55-22.16-186.56-154.13-127.13-257.77 81.29-141.77 323.18 1.7 490.23-6.66 27.78-3.57 60.18-21.69 75.67-22.73M601 192.15c16.5 63.92 113.92 9.31 144.3 51.45 32.27 44.77 56.65 146.19 56.65 146.19M129 27.51c245 37.71 141.43 255 141.43 255m-100.18 371.7C355.94 575.67 461 505.5 464 271.21m134.65-78s-18.74-60.94 51.57-113.68c0 0-15.24 50.31 22.26 77.91 0 0 83.21 43.32 90.23 54.18s58.6 77.68 63.3 167.92c0 0-41.56 29.19-86.84 28.7 0 0-13.34.08-31-6.64-35.22-15.72-66.57-33.58-94.24-54.81-11.44-9-16.06-31.08-20.53-50.87-8.96-39.64 5.26-102.76 5.26-102.76zM120.08 30c225.4 100.31-19.28 365.47-24.47 468.39-2.9 54.34 4.47 94.88 38.78 130.48 17.16 17.79 39.52 30.51 67.62 35.39a152.43 152.43 0 0 0 22.17 2.16 186 186 0 0 0 24.37-1c8.5-.91 22.57-5.74 31.63-8.6 27.41-8.63 120.48-58.33 164.1-113.41 64.44-81.36 107-246.08 112.14-290m-461 245.09c-.42-10.13 19.27-73.42 34.74-136.5 15.54-63.32 30-140.11 13-175-23.47-48.17-76.54-54.61-118.25-8 23-276.82 389.72-145.29 342.17 71m388.58 159.6s63.36 56.67 24.68 71.9c0 0-15.76 2.35-26.91-10.87m-90.12-91.73s-43.65 38.39 60.83 67.93c0 0 43.63 17.18 29.45 47.11-9.05 19.11-32.75 26.14-51.32 16.06l-21.56-10.95s-111.87 87.34-157.63 16.4c-70.66-244.29-357.62-187.94-316.24 20.47m316.24 145.93a19.75 19.75 0 0 0-1.66-2.13c-2.71-14.71-7.95-35.58-56.11-37.58s-112.59-.14-165.69 7m-28.87 12.65v20h327.91s3.52-38.54-57.42-39.71c0 0 45.32-40.38 37.31-93.5M299.62 649.16S70.54 481 257.45 296c0 0 65-73.43 188.87-30.26 0 0 78.51 25.95 110.15-15.1 0 0 16.41-46.93 42.19-57.47"/>
      <path class="b" d="M782.63 479.41s-14.61 2.18-24.94-8a.36.36 0 0 0-.6.37 25.24 25.24 0 0 1-1.18 20.07C746.87 511 723.17 518 704.59 508l-21.35-10.85a.37.37 0 0 0-.39 0c-1.17.9-7.86 6-18 12.4-28.08 16.61-56.28 30.41-89.32 34.09a.36.36 0 0 0-.31.45c12.49 51.82-25.48 90.17-31 95.4a.37.37 0 0 0 .25.63c56.64 1.45 56.71 35.52 56.54 39.34a.37.37 0 0 1-.37.35H273.49a.37.37 0 0 1-.37-.41l2.11-19.57a.36.36 0 0 0-.46-.39c-47.2 13.33-105.28.56-138-32.64-69.94-86.22-25.71-180.26-4.28-266.8 15.53-63.32 30-140.11 13-175-23.37-48-75.96-54.61-117.55-8.93a.37.37 0 0 1-.65-.27c23.91-275.19 389-144.1 339.87 71.76a.37.37 0 0 0 .36.45c21.38-.41 49.13 3.74 81.12 15.68 0 0 78.45 25.93 110.12-15.06a.31.31 0 0 0 0-.1c.62-1.74 16.76-46.72 41.88-57.29a.36.36 0 0 0 .21-.43c-1.31-4.71-15.61-62.32 50.77-112.71a.37.37 0 0 1 .59.38c-1.92 7.35-11.75 51.59 22.53 76.85h.05c1.65.86 83.25 43.42 90.21 54.17s58.51 77.57 63.28 167.7a.37.37 0 0 1-.17.33c-21.53 13.8-42.89 25.32-69.37 29.81a.37.37 0 0 0-.2.63c6.14 5.64 60.76 56.95 24.22 71.34zm-258 199.34"/>
      <path class="b" d="M364.25 248c23.63-113.73-202.53-287.16-332.81-77.07m243.31 102.81c44.1-117.82-113-312.9-243.31-102.81m545 374.16C550.27 226 233 283.67 204.66 369.26M270.52 683c128.8-44.71 177.69-26 252.69-167.53 44.37-119.62 154.89-88.8 162-82.87M381.72 643c-55-22.16-186.56-154.13-127.13-257.77 81.29-141.77 323.18 1.7 490.23-6.66 27.78-3.57 60.18-21.69 75.67-22.73M601 192.15c16.5 63.92 113.92 9.31 144.3 51.45 32.27 44.77 56.65 146.19 56.65 146.19M129 27.51c245 37.71 141.43 255 141.43 255m-100.18 371.7C355.94 575.67 461 505.5 464 271.21m134.65-78s-18.74-60.94 51.57-113.68c0 0-15.24 50.31 22.26 77.91 0 0 83.21 43.32 90.23 54.18s58.6 77.68 63.3 167.92c0 0-41.56 29.19-86.84 28.7 0 0-13.34.08-31-6.64-35.22-15.72-66.57-33.58-94.24-54.81-11.44-9-16.06-31.08-20.53-50.87-8.96-39.64 5.26-102.76 5.26-102.76zM120.08 30c225.4 100.31-19.28 365.47-24.47 468.39-2.9 54.34 4.47 94.88 38.78 130.48 17.16 17.79 39.52 30.51 67.62 35.39a152.43 152.43 0 0 0 22.17 2.16 186 186 0 0 0 24.37-1c8.5-.91 22.57-5.74 31.63-8.6 27.41-8.63 120.48-58.33 164.1-113.41 64.44-81.36 107-246.08 112.14-290m-461 245.09c-.42-10.13 19.27-73.42 34.74-136.5 15.54-63.32 30-140.11 13-175-23.47-48.17-76.54-54.61-118.25-8 23-276.82 389.72-145.29 342.17 71m388.58 159.6s63.36 56.67 24.68 71.9c0 0-15.76 2.35-26.91-10.87m-90.12-91.73s-43.65 38.39 60.83 67.93c0 0 43.63 17.18 29.45 47.11-9.05 19.11-32.75 26.14-51.32 16.06l-21.56-10.95s-111.87 87.34-157.63 16.4c-70.66-244.29-357.62-187.94-316.24 20.47m316.24 145.93a19.75 19.75 0 0 0-1.66-2.13c-2.71-14.71-7.95-35.58-56.11-37.58s-112.59-.14-165.69 7m-28.87 12.65v20h327.91s3.52-38.54-57.42-39.71c0 0 45.32-40.38 37.31-93.5M299.62 649.16S70.54 481 257.45 296c0 0 65-73.43 188.87-30.26 0 0 78.51 25.95 110.15-15.1 0 0 16.41-46.93 42.19-57.47"/>
    </symbol>
    <style>
      .a,.b{fill:none;stroke-miterlimit:7.57}.a{stroke:#161515;stroke-width:40px}.b{stroke:#fff;stroke-width:20px}
    </style>
  </defs>
  <use width="848.33" height="701.91" transform="translate(101.25 168.13)" xlink:href="#a"/>
</svg>
