<svg xmlns="http://www.w3.org/2000/svg" width="256" height="256" viewBox="0 0 256 256">
  <defs>
    <style>
      .cls-1 {
        opacity: 0.1;
      }

      .cls-2, .cls-3 {
        fill: none;
      }

      .cls-3 {
        stroke: #d9b776;
        stroke-miterlimit: 11.34;
        stroke-width: 2.36px;
      }
    </style>
  </defs>
  <g id="Layer_1" data-name="Layer 1" class="cls-1">
    <g>
      <rect class="cls-2" width="255.7" height="256"/>
      <path class="cls-3" d="M59.53,17.74h28.7m105.94,0H152m102.76,0H219.92m-25.75,0h25.74m-160.38,0H28m226.77,0h.94m-125.9,0H152m-22.2,0H88.23M0,17.74H28M255.7,37.48H0M189.74,57.29h62.6m-196.06,0H0m189.74,0H126.56m0,0H56.28m199.42,0h-3.36M159.49,197.35h70.27m-197.24,0h62.6m0,0h64.37m70.27,0H255.7m0,0h.3m-223.48,0H0m253.85,17.86h1.85m-130.93,0h65.54M56,215.21h68.75m65.54,0h63.54M56,215.21H0M219.92,76.3H255.7m-167.47,0H28m122.83,0H88.23m62.59,0h69.1M28,76.3H0M58.94,91.82H129.8m65,0h-65m125.2,0h.7m-196.76,0H0m194.76,0H255M229.9,108h25.8M95.26,108H31.48m128.15,0H95.26m134.64,0H159.63M31.48,108H0m0,19.16H255.7M0,145.15H255.7m0,19.86h.3m-.3,0H0m0,15.25H255.7M0,252H28m153.23,0H152m29.22,0h38.69m-103.06,0H152m92.4,0H219.91M48.64,252H88.23m-39.59,0H28m88.86,0H88.22m156.18,0h11.3M28,0V17.74M88.23,0V17.74M152,0V17.74M219.92,0V17.74M28,256v-4m0-.06V252M88.23,252V252m0,4v-4M152,252V252m0,4v-4m67.92-.06V252m0,4v-4M59.53,17.74v-.3m0,.3V37.42M129.8,17.74V37.42m0-19.68v-.3m64.37.3V37.42m0-19.68v-.3m60.59.3v-.3m0,.3V37.42M33.25,57.23V38.07m62.6,19.16V38.07m64.07,19.16V38.07m70.57,19.16V38.07M189.74,57.29V76.15m0-18.86v-.06m-63.18.06v-.06m0,.06V76.15M56.28,57.29v-.06m0,.06V76.15M252.34,57.23v.06m0,18.86V57.29m-32.42,19v-.15m0,.15V91.76M150.82,76.3v-.15m0,.15V91.76M88.23,76.3v-.15m0,.15V91.76M28,76.3v-.15m0,.15V91.76m31,.06v-.07m0,.07V108M129.8,91.82V108m0-16.14v-.07m65,.07v-.07m0,.07V108M255,91.82v-.07m0,.07V108M31.48,108V108m0,0v19.1M95.26,108V108m0,0v19.1M159.63,108v19.1m0-19.15V108m70.27,0v19.1m0-19.1V108m-40.75,19.45v17.67M126.2,127.41v17.67M55.34,127.41v17.67m196.31,0V127.41m-225.54,18V165m61.41-19.57V165m64.37-19.57V165m67.32-19.57V165m-19.84.3V180.2m-66.85-14.95V180.2M61.06,165.25V180.2M2.41,165.25V180.2m30.11,17.15V180.5m62.6,16.85V180.5m64.37,16.85V180.5m70.27,16.85V180.5m-39.45,34.71v.17m0-.17V197.59m-65.54,17.62V197.59m0,17.62v.17M56,215.21V197.59m0,17.62v.17m197.83-.17v.17m0-.17V197.59M0,236.07H48.64m195.76,0h11.3m-74.48,0H244.4m-63.18,0H116.85m-68.21,0h68.21m-68.21,0V236m0,.11v16m0,0v.29m68.21-16.26v16m0-16V236m0,16.08v.29m64.37-.29v-16m0,16v.29m0-16.26V236M244.4,252v.29m0-16.26V236m0,.11v16M21.6,215.38V236M83,215.38V236m66.14-20.58V236M218,215.38V236M103.6,223.05c5.32,11.7,18.07,10.64,22.33-1.07C116.35,226.77,113.17,226.77,103.6,223.05Zm129.6-20.38c-9.56,4.79-12.75,4.79-22.32,1.06C216.19,215.44,229,214.38,233.2,202.67Zm-28.14-18.13c-9.57,4.79-12.76,4.79-22.33,1.06C188.05,197.31,200.8,196.25,205.06,184.54Zm-46.83-15.49c5.31,11.7,18.06,10.64,22.32-1.07C171,172.78,167.79,172.78,158.23,169.05ZM108,151.7c5.32,11.72,18.07,10.65,22.32-1.06C120.78,155.43,117.59,155.43,108,151.7ZM80,133.06C85.3,144.77,98.05,143.7,102.3,132,92.73,136.78,89.54,136.78,80,133.06Zm-29.33-19C56,125.77,68.72,124.71,73,113,63.4,117.79,60.22,117.79,50.65,114.06ZM39.9,95.27c-9.56,4.79-12.75,4.79-22.32,1.06C22.89,108,35.65,107,39.9,95.27ZM0,88.34c3.58-1,6.83-4.06,8.6-8.94A37.22,37.22,0,0,1,0,82.79m208.52,49.6c5.31,11.71,18.07,10.64,22.32-1.06C221.28,136.12,218.09,136.12,208.52,132.39Zm-25.79-17.64c5.32,11.71,18.07,10.64,22.33-1.06C195.49,118.48,192.3,118.48,182.73,114.75ZM174,96.15c-9.57,4.79-12.76,4.79-22.33,1.07C156.94,108.92,169.7,107.86,174,96.15ZM109.8,80.64c5.32,11.71,18.07,10.64,22.33-1.07C122.55,84.36,119.37,84.36,109.8,80.64ZM105.45,62C95.89,66.75,92.7,66.75,83.13,63,88.44,74.73,101.2,73.66,105.45,62Zm-32.87-18C63,48.72,59.83,48.72,50.26,45,55.57,56.7,68.33,55.63,72.58,43.93ZM18.33,24.2c5.32,11.7,18.07,10.64,22.32-1.07C31.08,27.92,27.89,27.92,18.33,24.2ZM233.79,62.45c-9.56,4.79-12.75,4.79-22.32,1.07C216.79,75.22,229.55,74.16,233.79,62.45Zm-27.06-19c-9.57,4.79-12.76,4.79-22.33,1.07C189.72,56.2,202.48,55.14,206.73,43.43ZM149.47,25c5.31,11.7,18.07,10.64,22.32-1.07C162.22,28.71,159,28.71,149.47,25ZM0,11.93c3.3-1.21,6.26-4.15,7.92-8.72A40.35,40.35,0,0,1,0,6.44M131.73,3.6C122.17,8.39,119,8.39,109.41,4.67,114.72,16.37,127.48,15.31,131.73,3.6ZM0,227.62a16.86,16.86,0,0,0,2.92-5.14c-1,.52-2,1-2.92,1.39m78.6-21.1c5.32,11.71,18.07,10.64,22.32-1.07C91.36,206.49,88.17,206.49,78.6,202.77Zm-4.25-18.53C64.79,189,61.6,189,52,185.31,57.34,197,70.1,196,74.35,184.24ZM21.52,168.89c5.31,11.71,18.07,10.64,22.32-1.07C34.27,172.61,31.08,172.61,21.52,168.89ZM0,158.5c3-1.33,5.72-4.19,7.27-8.45a43.67,43.67,0,0,1-7.27,3m161.1,86.82c-9.56,4.79-12.75,4.79-22.32,1.06C144.09,252.69,156.85,251.62,161.1,239.92Zm-130,0c-9.56,4.79-12.75,4.79-22.32,1.06C14.06,252.69,26.81,251.62,31.06,239.92Zm192.8,9c-4.26-11.71-17-12.77-22.33-1.07C211.1,244.13,214.29,244.13,223.86,248.92ZM0,49.23c4.44-.71,8,.36,14.31,3.53C11.61,45.32,5.48,42.18,0,43.88m37.05,27.3C32.8,59.47,20,58.41,14.73,70.11,24.29,66.39,27.48,66.39,37.05,71.18Zm7.8,16.18c9.56-3.72,12.75-3.72,22.32,1.07C62.91,76.72,50.16,75.65,44.85,87.36Zm60.8,17.91c-4.25-11.7-17-12.77-22.32-1.06C92.9,100.48,96.09,100.48,105.65,105.27Zm10.65,15.89c9.56-3.72,12.76-3.72,22.32,1.07C134.37,110.52,121.61,109.45,116.3,121.16Zm29.13,19c9.57-3.73,12.76-3.73,22.33,1.06C163.5,129.53,150.74,128.47,145.43,140.18ZM173.18,159c9.57-3.72,12.76-3.72,22.33,1.06C191.25,148.36,178.5,147.29,173.18,159Zm44.61,17.22c9.56-3.72,12.75-3.72,22.33,1.07C235.86,165.58,223.11,164.52,217.79,176.22ZM83.33,31.39c9.56-3.72,12.75-3.72,22.32,1.07C101.4,20.75,88.64,19.68,83.33,31.39ZM70.51,13.48C66.26,1.77,53.5.71,48.19,12.41,57.76,8.69,61,8.69,70.51,13.48Zm125.78-.56c-4.24-11.7-17-12.76-22.32-1.06C183.54,8.14,186.73,8.14,196.29,12.92ZM139.8,52.16c-4.25-11.7-17-12.76-22.32-1.06C127.05,47.38,130.23,47.38,139.8,52.16Zm27.93,19.51c-4.25-11.7-17-12.76-22.32-1.06C155,66.89,158.17,66.89,167.73,71.67Zm27,17.54c-4.25-11.71-17-12.77-22.32-1.06C182,84.42,185.15,84.42,194.72,89.21Zm39,15.67c-4.26-11.71-17-12.77-22.33-1.07C220.94,100.09,224.13,100.09,233.7,104.88ZM212.16,30.5c9.57-3.72,12.76-3.72,22.33,1.07C230.23,19.86,217.47,18.8,212.16,30.5ZM93.54,248.85c-4.25-11.72-17-12.78-22.32-1.07C80.79,244.05,84,244.05,93.54,248.85Zm-53.09-19.7c9.57-3.72,12.76-3.72,22.33,1.07C58.52,218.51,45.77,217.45,40.45,229.15Zm133.23-.59c9.57-3.72,12.75-3.72,22.32,1.07C191.75,217.92,179,216.86,173.68,228.56Zm-30.12-18.92c9.57-3.72,12.76-3.72,22.32,1.07C161.63,199,148.88,197.94,143.56,209.64Zm-5.73-16.07c-4.25-11.72-17-12.77-22.32-1.07C125.08,188.77,128.27,188.77,137.83,193.57ZM84,176.36c9.57-3.72,12.76-3.72,22.33,1.06C102.08,165.72,89.33,164.65,84,176.36ZM45.33,159.09c9.57-3.72,12.76-3.72,22.33,1.07C63.4,148.45,50.65,147.39,45.33,159.09Zm-29.11-19.6c9.57-3.73,12.76-3.73,22.33,1.06C34.29,128.85,21.54,127.78,16.22,139.49ZM0,119c5-1.07,8.54-.09,15.36,3.32-2.88-7.91-9.64-11-15.36-8.49m15.61,95.81c9.57-3.72,12.76-3.72,22.33,1.07C33.68,199,20.93,197.94,15.61,209.64ZM0,190.16c5.24-1.25,8.83-.32,15.88,3.21-3-8.16-10-11.15-15.88-8.25M255.7,82.84c-4.08.82-7.57-.06-13.52-2.38,3.06,6.74,8.58,9.24,13.52,7.93m0-81.9c-4.4,1.07-7.92.23-14.21-2.22,3.2,7.05,9.1,9.47,14.21,7.72m0,212c-7.28,3.25-10.75,2.87-19.21-.42,4.34,9.56,13.63,10.6,19.21,4.3m0-74.68c-4.7,1.32-8.27.52-14.86-2,3.34,7.35,9.61,9.66,14.86,7.47m0-114.64c-3.06,1-5.91,3.57-7.81,7.75a41.69,41.69,0,0,1,7.81-2.42m0,64.65a14.11,14.11,0,0,0-6.77,7.34A48.59,48.59,0,0,1,255.7,119m0,66.18a14.45,14.45,0,0,0-6.23,7.08,52.28,52.28,0,0,1,6.23-2.09M235.92,241,230,248.67M42.88,240.39,34,248.07m153.18-7.68,5.32,8.28m19-25.13-10.33,6.21m45.07-26.31-8.85,7.68m-56.7-8-6.2,8.28M159.74,223l5.32,8.27M131.69,249l-5.31-8.28m11.22-19.8-5,9.16m-35.43,0-5.31-8.28m14.73,18.63L100.94,249m73.27-8.57-8.86,7.68m-101.87.3-5.31-8.28m56.69-36.65L106,211.12M76.83,222.6,68,230.28m-50-6.45-8.85,7.69m60.23-20.4L66.14,202M33.55,230.34l-5.32-8.28m203.26,10.05-5.31-8.28m23,16,5.31,8.27m-58.46-44.34,8.56,7.69m-59.94-18,8.86-7.69m-49.5-.59,5.31,8.28m82.77-24.24-8.85,7.68m-16.15,16.26L176,185.4m-25-9.46-7.67-7.39m.49-16.85-8.86,7.69m-36.32,1.18-4.72-10m24.8,26.61-5.32-8.28M81.3,152.3,72.44,160M78,170l-9.15,6.21M38.68,193.39l8.86-7.69M11.81,203.14l-7.14,7.39M32.48,151.7,37.8,160m17.71,15.37-7.08-7.09M20.08,184.81l5.31,8.28m23.82,17-7.67-7.69m94.28,9.26-5.31-8.27m-49.9-18.33,5.31,8.28m1.88-79.52-8.86,7.68m-6.89,11.24-8.86,7.68M20.08,152.89l-8.86,7.68M16,169.74,8.86,176m4.67-44-8.86,7.68m38.44-18-5.31-8.28m12.28,26.61-5.31-8.28m109-17.14-8.86,7.68m-3.74,10.94-8.86,7.69m-22.44-18-8.27-8.86m76.77,26.6L173,132.19m-7.68,29.27L160,153.18m-45.47-13.3-5.32-8.28m-65-35.66L52,103.82M26.52,123.43l-5.31-8.28m91.88-10.74L122,96.72m-47,8.57L69.59,97M187.2,97l-8.86,7.68m-2.65,9.76-8.86,7.68m36,10.65L194,140.47m17.42,11.83L202.55,160m9.87,8.57-5.61,8m38,9.16-8.86,7.69M145,104.7l-5.32-8.28m109.88.2-8.85,7.69m4.5,9.26-8.86,7.69m-9.86-32.82,8.86-7.68M205.8,104.41l-5.31-8.28m17.42,25.42-5.32-8.28m23,18.92,5.32,8.28M228.83,151.7l5.32,8.28m16.24,16.85-5.32-8.28m-32.48,16.56,5.32,8.28m-10-105.24-5.32-8.28m45.77-55.38-8.86,7.69m-3.25,20.49,6.5-8m-42.52-21,6.5,6.81m8.86,13.59,5.31,8.28M245.66,71l-5.31-8.27M228,3l5.31,8.28m-86.51-8L137.89,11m75.29-8.27-8.85,7.68M187.79,24l-8.86,7.69m-10.33,21,10.34-9.16m15.35,25.42,11.22-6.5M97.05,3.31l6.79,9.34m54.42-9.34,3.55,8.75m-24,13.12,5.32,8.28m1.57,19.21L153.54,45m-51.38-1.48,9.45,7.09m-1,21.88,6.79-8.87M68.21,63l5.31,8.28M184.15,63l-11.22,7.1M158.86,87.85l8.85-7.68M135.23,62.43l3,10.05m-.89,8,5.32,8.28M76.77,52.38l8.86-7.69M42.82,71.3l8.85-7.69m31,17.44-8.86,7.69M5.31,103.82l7-7.69m92.93-15.67-8.86,7.69m-84,.29,8.86-7.68M41.34,42.92l3.84,10.35M8.86,71.59,3.55,63.32m36,25.12-5.32-8.27M19.49,44.4l5.31,8.27M12.93,33.16,7.62,24.89m115.21.59-10,6.21m-67.91-29L36,10.4M21.79,3,12.93,10.7M53.8,24.89l-8.86,7.68m29.37.59L69,24.89M76.77,3l3.54,9.64"/>
    </g>
  </g>
</svg>
