<svg xmlns="http://www.w3.org/2000/svg" width="256" height="256" viewBox="0 0 256 256">
  <defs>
    <style>
      .cls-1 {
        opacity: 0.1;
      }

      .cls-2, .cls-3, .cls-4 {
        fill: none;
      }

      .cls-3, .cls-4 {
        stroke: #d9b776;
        stroke-miterlimit: 11.34;
      }

      .cls-3 {
        stroke-linecap: round;
        stroke-width: 2.11px;
      }

      .cls-4 {
        stroke-width: 1.51px;
      }
    </style>
  </defs>
  <g id="Layer_1" data-name="Layer 1" class="cls-1">
    <g>
      <rect class="cls-2" width="256" height="256"/>
      <path class="cls-3" d="M5.39,7.88h0m9.53-1h0M25.14,5.18h0m9-1.5h0M4.88,14.53h0m8.47-.38h0M23,12.83h0m9.53-2.38h0M4.88,20.73h0M12.79,20h0m7.9-1.13h0M52.86,8.5h0M4.13,27.13h0m6.78-.75h0m6.64-1h0m6.78-1.51h0m6.77-1.25h0m6.52-2h0m6.27-2h0m6.53-2.26h0m6.52-2.76h0m5.77-2.5h0m5.77-3.27h0M81,6.87h0m-5.08,3.2h0m-5.27,2.64h0m-5.26,3h0M60,18h0M54.3,20.61h0m-5.64,2.07h0M43,24.94h0m-5.65,1.69h0m-5.45,1.5h0m-6,1.7h0m-5.83.75h0m-6,1.13h0m-6,.38H8m-5.83.18h0M6,36H6M2.06,40.11h0m21.07,8.47h0m-6.2.19h0m-6.4.19h0m-6.77-.57h0M10.91,58h0m-8.66-.38h0m17.31.57h0M28,57.8h0m7.52-.75h0m7.15-1.13h0m16.18,5.83h0m6-1.88h0M51.73,63.26h0m-7,1.31h0m-7.9.94h0m-7.53.76h0m-16.18.37h0m7.72,0h0M5.07,66.45h0M6.2,77h0m17.5,8.47h0M5.07,86h0m9.79-.19h0m38-3.2h0M43.27,84h0m-9.6.94h0m27.85-3.76h0M9.78,96.56h0m6.58-.38h0m6-.37h0m-19.19.75h0m24.65-1.32h0m6-.75h0m6-.75h0m30.86-6.4h0m6.39-1.51h0M83,84h0m5.64-1.69h0m14,2.7h0m10.16.75h0m9,.19h0m8.09-.38h0m-18.06,9h0m-11.1-.75h0M89.11,91.92h0m32.55,2.63h0m10.16-.75h0m7.34-1.13h0m7.53-.94h0m7.15-.94h0m-84-11.17h0m8.46-2.07h0m7.53-2.25h0m7.15-2.45h0M43.08,75.11h0m-8.88,1h0m-10,.56h0M14.64,77h0m36.15-2.86h0m7.53-1.32h0m7-1.5h0m6.59-1.7h0m6.77-2.07h0m6.77-2.44h0m14.3,5.08h0m12.36,3.45h0m5.33-3.08h0m5.08-3.2h0m-5.15,8.72h0M123,78.56h0m5.64,2.07h0m5.84,1.69h0m5.83,2.07h0m6,1.13h0M107.05,67.39h0M11,38.67h0m5.27,2.82h0m5.46,2.45h0M27.4,46h0M33,47.89h0m6,1.88h0m5.84,1.51h0m5.83,1.31h0m5.83,1.51h0m5.65,1.5h0M68,56.73h0m5.64,1.32h0m6,1.13h0m12.22,2.38h0m6.53.75h0m6.52.51h0m6.77,0h0m8,.25h0M85.91,60.56h0M70.55,52.34h0m13,2.45h0m11.29,1.13h0m11.85.75h0m11.29.38h0m9,6.46h0m6.89,0h0m5.65-.19h0M253.37,96.43h0m-3.2,3.39h0m.94,6.21h0m-.19,7.52h0m1.51,22.58h0m-9-.19h0m-8.84-.56h0m-9-1.13h0m-9.41-.94h0m-8.46-1.51h0m39.95,16.31h0m5.26,11.67h0m-6.39-.38h0m-6.59-.38h0m-5.64-.37h0m-6.46-.51h0m-6-.94h0m-39.51-8.84h0m6.27,2h0m6.27,2h0M176,145.73h0m-5.46-2.45h0m-5.27-2.82h0m-5.27-3h0m9.6-9h0M164,130.49h0m-6,2.07h0m-29,7.9h0m-5.64,1.32h0m-5.84,1.5h0m-6,1.32h0m-5.83.94h0m-5.46,1.5h0M94,148.17h0m-5.83.94h0m-5.83.94h0m-5.83.95h0m-6,.94h0m-6,.75h0m-5.83.94h0m-5.83.75h0M47,155h0m-6,.94h0m-5.65.75h0m-6.9.88h0m-6.39.56h0m-6.21.19h0m-6,.75h0m-6.59.76h0m7.65,6.08h0M6,163.41H6M2.38,223.24h0m6.39,5.46h0M6,236.23H6m-2.45,9.4h0m.38,8.85h0m9-.76h0m9-.94h0m8.66-1.5h0m8.84-1.88h0m7.9-1.89h0m-34.62-2.06h0m9-.95h0m8.65-1.69h0m-16-11.66h0m5.45,2.44h0m5.84,2.26h0m5.64,1.69h0M37,239.61h0m5.64,1.88h0m5.83,1.7h0m5.83,1.5h0M60.51,246h0m5.27,1.13h0m5.83,1.13h0m6.4,1.31h0m5.83,1.13h0m5.84.94h0m6,1.13h0m6,.76h0m23.52,1.5h0m6.77-.19h0m5.83,0h0m6.21-.37h0m5.83-.76h0m6-.94h0m6-.56h0m6-.94h0m5.45-.94h0m5.65-1.13h0m6.21-1.76h0m6.52-1.75h0m7.27-1.39h0m7.53-2.13h0m7.27-2.25h0m6.28-1.51h0M199.37,255h0m-7.53-3.2h0m-58.07-2.69h0m23.51-1.7h0m-11.85,1.32h0M176.29,245h0m-9.41,1.5h0m19-3.39h0m-63.4,5.65h0M119,243.38h0m8.65.56h0m9,0h0m9.22-.38h0m8.66-1.13h0m9.22-.94h0m8.84-1.88h0m8.84-2.26h0m8.28-2.25h0m9-3h0m27.72-4.21h0m-7,3.58h0m6.52,5.52h0m5.46-1.88h0m5.65-2.26h0m5.45-2.63h0m5.46-2.64h0m3.57,7.15h0m-16.55,7h0m8.46,2.07h0m9.41,1.7h0m-.75,9.21h0m-7.53-.43h0m-7.27-.76h0M229,251.72h0m-8.63-2.26h0m-7.78-3.26h0m-5.71-17.31h0m-82.59,7.52h0m9,.19h0m9,.19h0m8.84-.94h0m9.22-.94h0m8.28-1.69h0m7.34-1.7h0m6.77-1.88h0m6-1.88h0m-73.56,7.34h0M119,227h0m25,1.31h0M127.68,228h0m8.66.56h0m15.61-.75h0m6.78-.75h0m5.83-.94h0m5.64-1.32h0m-21.63-5.65h0m-7.72,1h0m-8.46.18h0m7.52-8.65h0m5.46,2.44h0m5.64,1.89h0m5.84,1.5h0m5.64,1.51h0m23.71,3.2h0m6,.18h0m5.83.57h0m6.21,0h0m5.83,0h0m6,0h0m6.4,0h0m6,.19h0m5.83,0h0m6.21.18h0m6.4-.37h0m5.27.37h0M103,217h0m7,8.27h0m-8.66-2.07h0m-10.16-2.82h0m15.24,13.36h0m3.58,8.47h0m-8.85-1.32h0m10,7.27h0M97.77,231.9h0m-5.65,7.52h0m7,7.47h0m-15.68-9.35h0M89.11,230h0m-8.84-2.82h0m-8.47-2.83h0M85.41,245h0M49.22,226.44h0m23.21,15.93h0m-13.17-3.2h0m-12.61-3.76h0m-10.53-3.76h0m-10.73-3.77h0m.69-5.95h0m6-.38h0m5.65-.75h0m6.21-.38h0m6-.75h0m6-.38h0m6-.94h0m5.64-.75h0m5.84-.75h0m6-.94h0m5.64-.94h0m6.21-1.13h0m6-.76h0m5.46-1.31h0m6.21-.94h0m5.83-1.51h0m6-.94h0m5.64-1.13h0m5.84-1.13h0m5.64-1.69h0m5.83-1.32h0m6-1.31h0m5.65-1.51h0m5.83-1.88h0m5.83-1.51h0m5.65-1.88h0m5.83-2.07h0m5.65-2.07h0m5.26-2.26h0m5.84-2.25h0M16.3,168.68h0m5.46,2.26h0M27.59,173h0m6,1.88h0m5.64,1.88h0m5.27,1.51h0m6.21,1.5h0m5.64,1.51h0m5.84,1.5h0M68,183.92h0m6,.94h0m5.65.94h0m5.83.94h0m6.14.51h0m6,.5h0m6.78.5h0m7.52,1h0m7,.75h0m7.52.51h0m-24.77-9.85h0m-12.23-1.32h0m-12.42-1.88h0m-13.54-2.63h0m-12.23-3.2h0m-11.48-3.76h0m-10.91-4h0m84.48,17.5h0M51,160.9h0m73.88,20.7h0m11.1-.19h0m-73.44-17.5h0m16.94-7.46h0M88,158.33h0m9,2.26h0m8.85,1.69h0m8.84,1.32h0m9,1.13h0m8.66.56h0m9.22.57h0m8.65.38h0m34.24-4h0m6.78-2.63h0m6-2.63h0m-94.45-4.9h0m9.4,2.26h0m8.47,1.51h0m8.84,1.13h0m8.85.94h0m8.65,0h0m8.47.56h0m7.34-.19h0m6-.75h0m5.64-.75h0m5.83-.94h0m5.65-1.51h0m-12.42-4.33h0m-6.21,1.51h0m-9.59-6.21h0m6.77-.38h0m-11.1,7h0m7.53,0h0m-11.48-7.34h0m-5.65,6.58h0m-2.25-7.71h0m-7.91,5.64h0m-9.22-2.44h0M71.61,166.42h0m32.62,5.52h0m9.91.32h0m9,.56h0m8.65,0h0m9.22-.19h0m10.16-.37h0m10-.57h0m9-1.13h0m8.28-1.13h0m9-1.69h0m8.85-1.69h0m8.28-1.7h0m7.9-1.69h0m8.28-1.88h0m-72.57,20.07h0m12.05-1.13h0m10.53-1.51h0m-37.5,12.55h0m7.15-.25h0m23.7-2.64h0m6.21-.56h0m5.84-1.13h0m6-1.13h0m5.83-1.32h0m-7.09-7h0m9.6-1.69h0m9.4-1.89h0m9-2.63h0m7.33-2.07h0m7.65-2.57h0m7.28-2.76h0m19.07.31h0m-5.27,3.2h0m-5.46,2.07h0m-5.46,2.45h0m-5.83,2.07h0m-5.64,1.88h0m-5.83,1.69h0m-5.65,1.69h0m-6,1.7h0m-5.64,1.32h0m-6.21,1.5h0m-60.15-50.3h0m-11.29,2.82h0m-12.23,2.83h0M98.21,141h0m-13,2.26h0M73.56,145.1h0m-10.73,1.32h0M3.88,148.36h0m39.39-.06h0m9.59-.75h0m58.83-16.31h0m-7.65.88h0M67.1,135.57h0m7.53-.76h0m-16.56,1.13h0m-8.85.38h0m-9,.19h0m-9.22,0h0m-8.84.19h0m-8.84-.38h0m-9.22-.19h0M66.53,129h0m-9-.19h0m-9,0h0m-9.22-.56h0m-8.84-.57h0m-9-.18h0m-9-.76h0m-8.66-.94h0m71.5,3h0M236.5,147.17h0m-11.67-1.32h0M213.35,144h0m-12-2.63h0m-10.72-3h0m-10.92-4.14h0m42.84-14.43h0m19.94-8.65h0m2.83-8.66h0m-5.46,2.64h0m-5.65,2.44h0m-5.64,2.07h0m-5.64,2.07h0M212,101.45h0m5,12.1h0m-5.83,1.51h0m-6,1.32h0m-5.64,1.88h0m-5.65,1.31h0m-6,1h0m-6,1.12h0m-5.64,1.13h0m-6,1.13h0m-5.83.75h0m-6.21.95h0m-5.64.75h0m-5.83.37h0m-6.21.76h0m-6.59.37h0m-8.28,0h0m-6.21-.37h0m-6-.38h0m-5.83-.75h0m-5.83-.38h0M95.51,125h0m-5.83-.94h0m-5.84-.94h0m-6-.94h0m-5.64-.75h0m-5.46-1.32h0M60.51,119h0m-6.21-1.69h0m2.45,5.08h0m-9-.94h0m-8.84-.76h0m-9-1.31h0M21,117.88h0m-8.84-1.69h0m-8.84-1.51h0m35.18,1.7h0m-9-1.32h0M21,113.18h0m-8.84-2.82h0M3.5,107.72h0m22,.75h0m-5.27-1.88h0M15,104.33h0m-4.45-2.5h0M6.39,99.38h0m197,6h0M194,109.54h0m-9.4,3.2h0m-10.92,3.2h0m-10.91,2.25h0m-46.47,3.39h0m11.1.38h0m11.48-.57h0m11.47-1.31h0m-45.9.94h0M93.13,119.7h0m-10-1.69h0m2.76-8.6h0m-10.16-2.63h0m-2.76,9h0m-21.07-6.21h0m10.54,3.2h0m-20.32-7h0m-9.22-4h0M65.69,104h0M54.18,99.38h0m51.87,12.67h0m19.38-10.35h0M94.19,100h0M84,98.31h0m-9.78-3.19h0m22.2,16.18h0m18.44,1.31h0M133,101h0m7-.57h0M123.36,112.8h0M146.5,99.63h0m19.38,8.09h0m7.9-2.07h0m7.15-2.07h0m7.15-2.26h0m7.34-2.63h0m-38.2,11.1h0m15.05-15.05h0m-6.77,1.5h0m-6.21,1.13h0m-6.4,1.32h0m-4.32,12.61h0m-7.9.75h0m-8.29.41h0m115-16.4h0m-6,0h0m-6-.19h0m-6-.38h0M205.2,94.17h0m-5.83-.56h0m-6.4-.75h0m-5.83-.57h0m-6-.75h0m-5.65-.75h0m-5.83-1.13h0m-6.21-.94h0m-5.83-1.13h0M152,86.46h0m-5.83-23.52h0m5.65-.75h0m6-.57h0m6-.94h0m6-.94h0m5.83-.75h0m6-1.13h0m6-1.32h0m5.83-1.12h0m5.65-1.32h0m5.64-1.32h0m29-8.65h0m5.45-2.45h0m5.46-2.44h0m5.65-2.64h0M167.82,52.91h0M179.49,51h0M155.78,55h0m-13.17,1.31h0m-11.85.57h0m60.77-8.47h0m10.35-3h0m9.78-3h0m9.41-3.57h0M37.25,42.94h0m-8.66-3.58h0m-8-3.89h0m15.61-1.88h0M44,38.11h0m8.46,3h0m8.47,3h0m9,1.69h0m8.66,1.51h0m8.84,1.12h0m9.22.95h0m9.59.75h0m9,.19h0m8.27-.38h0m8.66-.19h0m9-1.13h0m29.35-6.58h0m7.34-2.45h0m7.15-2.44h0m-136.6-9h0m8.09,4.14h0m8.09,2.83h0m8.47,2.07h0m10.16,1.88h0m9.6.94h0m10.34.56h0M114.14,40h0m9.78-1.13h0m9.6-1.32h0m7.9-1.32h0m7.34-1.31h0m6.77-1.51h0M68.79,25.69h0m-7.52-2.07h0m16.18,4.14h0m19-6.59h0m-7.9-1.69h0m-9-2.45h0m25,5.65h0m7.71.94h0m7.91.56h0M90.81,8.38h0m5.64,2.82h0m5.08,1.88h0M107,15.72h0M112.82,18h0m5.83,1.89h0m5.65,1.88h0m5.64,1.69h0m6,1.51h0m5.65,1.31h0m6,1.32h0m5.64.94h0m5.83,1.13h0m6,.94h0m6,.38h0m6,.56h0m5.83.75h0m5.83.38h0m6,.56h0m6.21.19h0m6,.19h0m5.83-.19h0m6,.19h0m6.4,0h0m6.59-.38h0m6.39,0h0m6.78-.75h0m6.77,0h0m-142.8-1.69h0m7.52,0h0m7.34-.38h0m7.15-.75h0m42-4.77h0m-11.79-2h0m-57.2-19h0m33.12-.31h0m7,2.76h0m7.53,3h0m6.77,2h0m7.27,2h0m87.05,8h0m-7-.25h0m-8,.25h0m-8,0h0m-8-.5h0m-8.28-.25h0m-8.28-.75h0m-9.53-1.26h0M224,29.39h0M215.74,29h0m-9.6-.56h0m-21-2.32h0m-72-18.32h0m9,4h0m9.54,3.26h0m9.34,3h0m10,2.76h0m45.35,6.84h0m35.18,1.69h0m7.15-.19h0m7-.56h0m7-.57h0m-61.4-18h0M182,8h0m-8.65-3h0M164.5,1.22h0m35.56,10.53h0m8.46,1.13h0m8.85.75h0m.18-9.39h0m-9.21-2.07h0M253,7.88h0m0,6.82h0m-8.72.06h0M236,14.57h0m-9.78-.37h0M19.75,174.83h0M3.76,173h0m7.9.94h0M42.14,184.8h0m9.41-.38h0m25.21,5.27h0m-9,1.13h0m-8.28.75h0M50,192.7h0m-10.91.75h0m-11.67.38h0m-12,.38h0M4.32,204.74h0M2.25,216h0m11.29-.56h0m11.1-.76h0m12.23-1.12h0M47,212.27h0M56.81,211h0m10-1.5h0m8.84-1.51h0m8.65-1.69h0m8.47-1.51h0m8.47-2.07h0m8.28-1.88h0m7.52-1.88h0m6.4-1.69h0m6.21-1.88h0m-117.41,9h0m9-.57h0m9.22-.56h0m9.6-.57h0m9.22-1.13h0m10.16-.94h0m33.49-4.89h0m6.58-1.13h0m7-1.13h0m-102,1.13h0m3.57-10.16h0m177.68,27.47h0m-13.17-2.63h0m-12-3.51h0M198.74,214h0m12.79,1.13h0m11.48.75h0m11.48.38h0m12.79,0h0M179,199.29h0m11.86,1.88h0m32.74,3h0m9.21.56h0m9.41,0h0m9,0h0M201.75,191.2h0m15.05,1.13h0m15.43,1.5h0m15.8.75h0m3.39-10.91h0m-.94-12.23h0m-25.84-96.9h0m-10.16-.94h0m-10.91-1.5h0m-10.35-1.69h0m-11.85-2.26h0m-13.55-3h0m80.9,20.69h0m-12.22-.37h0m-13-.76h0m-13.17-1.31h0M195.1,81.32h0m-41-8.09h0m-13.36-4h0M253.05,47.83h0m-10-1.7h0M232,54.6h0m-8.84-1.5h0m17.31,3h0m9.22.94h0m2.82,9.4h0m-8.28-.94h0m-8.09-.75h0m-8.66-.94h0m-7.9-1.13h0m-17.87-3.2h0m9.41,1.88h0M59.82,5.88h0m6.59-4.14h0m11.66-.37h0m-4.7,3h0m12-.38h0m3.2-3h0M72.24,253.66h0m-9.41,0h0M48.54,254h0m6.2-3.58h0M41.39,1.54h0m-.19,7h0m7.15-3.19h0m7.9-3.58h0M48.54,254h0m6.2-3.58h0"/>
      <path class="cls-4" d="M45.68,12.31A125.49,125.49,0,0,1,28.75,17.2M85.26,29.36a124,124,0,0,0,17.51,1.95m.67,70.37a99.27,99.27,0,0,0,15.62.75m26,87.68a71.34,71.34,0,0,0,13.17-1.32M109.9,218.67a99.4,99.4,0,0,0,15.52,1.87M107,253.89c4.08.89,8,.47,12.57.59m82.19-100.7A97.87,97.87,0,0,0,217.07,157M78.61,167.9A96.74,96.74,0,0,0,94,170.44M7.86,223.22c4.17.34,8.57-.45,13.17-.94m182.41-19.61a56,56,0,0,0,11.72.81m10.49-22.82A97.83,97.83,0,0,0,239,182.35m-43.72,58.14a120.91,120.91,0,0,0,16.43-5.72M57.5,229.45a132.72,132.72,0,0,0,17.13,5.84M168,220c4.11.75,8.09,1.32,12.61,1.7m4.7-96A123,123,0,0,0,202,131.21M46.81,93a123.7,123.7,0,0,0,17.16-4M14.45,148.3a124,124,0,0,0,17.62-.17m48.29-14a125,125,0,0,0,17.49-2.23m-81,53a125.18,125.18,0,0,0,17.62.29m-3.29-74.74A125,125,0,0,0,47.94,116M171.18,14.61a123.32,123.32,0,0,0,17.36,3m-41.2,29.72a124,124,0,0,0,17.24-3.63M227.35,5.77a124.45,124.45,0,0,0,17.53,1.89M210.45,51.27a124.25,124.25,0,0,0,16.9-5m-61.1,30a126.56,126.56,0,0,0,17.26,3.58m47.46,42a126.87,126.87,0,0,0,17.26,3.58m-15.15-50c7.15.94,13.92,1.31,19.29,1.5m-43,17.87a108.23,108.23,0,0,0,16.36.54M45.17,45.66A126.39,126.39,0,0,0,62,50.81M91.42,81.22a124.87,124.87,0,0,0,16.65-5.77m27.33,63.44a124.1,124.1,0,0,0,17.07-4.36m7.72,31.1a123.44,123.44,0,0,0,17.5-2.13M67.81,199.31a123.13,123.13,0,0,0,17.49-2.13"/>
    </g>
  </g>
</svg>
