<svg xmlns="http://www.w3.org/2000/svg" width="256" height="256" viewBox="0 0 256 256">
  <defs>
    <style>
      .cls-1 {
        opacity: 0.1;
      }

      .cls-2, .cls-3 {
        fill: none;
      }

      .cls-3 {
        stroke: #d9b776;
        stroke-linecap: round;
        stroke-miterlimit: 11.34;
        stroke-width: 2.84px;
      }
    </style>
  </defs>
  <g id="Layer_1" data-name="Layer 1" class="cls-1">
    <g>
      <rect class="cls-2" width="256" height="256"/>
      <path class="cls-3" d="M28.84,52.15h0m-8.3-24.5h0M8.1,16h0m12.44-.2h0m-.75-9.6h0M33.58,19.6h0m3.83-12h0M49.78,15h0m9.87-7.58h0M72.1,5.65h0M4,3.56H4M15.51,47.41h0M14,62.22h0M5.53,55.31h0M8.87,29.17h0m-2.55,47h0M20.84,80h0M30,93h0M18.17,99h0M35.36,79.7h0M10.47,89.19h0M25.28,65.78h0m8.3-27.26h0M48.2,34h0M74.47,21.33h0m-3,13h0M84,29h0M81,42.67h0M66.77,46.81h0m8.88,6.52h0m-16,5.34h0m-10.07,7.7h0m20.15-.59h0M84,63.41h0m3.56-11.85h0m8.29,7.11h0m3.56-11.26h0m11.26-5.93h0M110,53.33h0m13-5.33h0m-1.78,11.85h0m-10.07,6.52h0m7.7,10.37h0m16-21h0m-2.37,10.67h0m11.85.59h0m-9.48,8.89h0m-11.55,24h0M128.69,88h0m9.78,9.48h0m7.41-10.37h0m9.18-11.26h0m6.82-13.92h0m8.59,13.33h0m13-1.48h0m9.18-14.22h0m-15.41.29h0M165.43,47.11h0m37-31.11h0m37.92,45h0m4.75,20.74h0m-7.71-8.89h0m-8.29,8.89h0m4.74,9.08h0m17.18,1h0m-8.29,5.93h0m-15.21,3.36h0m-7.91-14.62h0m-15.4-10.67h0m.39,14.22h0m-11.85,4h0m21.53,3.17h0m2.17,12.64h0m19.16-2.57h0m-6.51,9.68h0M249.28,13h0m-12.44,4.74h0m2.37-13h0m-15.41,0h0M222,15.41h0M210.17,8.89h0M197.73,3.56h0m52.74,101.33h0m.59-46.22h0M249.28,72.3h0m-32-32h0m6.52-10.08h0M229.14,45h0m-16,6.52h0m11.25,17.77h0m-10.07-6.52h0m10.07-3.55h0m13.44-8.69h0m2-17.38h0m9.48,8.29h0m2.37-11.26h0m-67,15.71h0M177.88,32h0m-16,.59h0m-27,6.82h0m-5.92-13h0m-13,3h0m-13.33-8h0M89.88,16.59h0M95.21,4.44h0m13,3.56h0m11.85,8h0m18.67-.59h0m26.66-8.89h0m15.71-2.08h0M151.51,44.15h0m-6.82-13.34h0m9.78-7.7h0m59.85-.59h0m-27.26-7.71h0M172,90.67h0m-13.63-1.19h0m.59,14.22h0m-3.26,12.45h0m13.63-3.56h0m-3,10.67h0m16-10.07h0m6.52-6.52h0m1.18,15.4h0m9.09-7.5h0m4.74-11.85h0m9.48,19.75h0m-13.43,6.32h0m-9.48,12.64h0m-2.17,11.46h0m16.59,5.92h0m11.85-12.44h0m1.78,12.44h0m10.07-8.29h0m2.37-13.63h0M241,131.16h0m11.06-6.32h0M241,142.22h0M239.21,157h0m11.26-7.71h0M228.54,167.7h0m21.34,12.45h0m-7.71,9.48h0m-10.07,5.93h0m8.89,5.92h0m4.15,12.45h0m6.51-13.83h0m-30.22,3.16h0m-3.55,11.85h0m-13,0h0m-35,38.52h0m59.26-32h0m-5.93,11.26h0m16.59-6.52h0M235.06,237h0m-12.44,9.48h0m-14.23-7.11h0M196,229.33h0m-1.78,12.45h0M190,252.44h0m-7.11-16.59h0m-3.55,10.08h0m28.44,4.14h0m29.63-.59h0m10.67-11.85h0m3.55-14.82h0m-.59,25.49h0M212,225.78h0M45.43,174.22h0M232.1,211h0m-17.78-39.7h0M196,173.63h0M190,163h0m-14.81,20.15h0m36.74,0h0m-13,3.56h0m-1.77,13h0m-9.49-7.7h0m-4.74,12.44h0m-13.63-8.88h0m.6,13h0m-8.3-24.29h0m7.7-12.45h0m-13-.59h0m5.92-11.85h0m8.3-9.48h0m-14.22-5.34h0m10.66-6.52h0m-11.26-8.29h0M143.8,136.3h0M129,127.41h0m-17.78-1.19h0m-17.19,0h0m-7.11,10.67h0m16.6-.59h0m-7.71,9.48h0m24.89-8.89h0m-8.3,9.48h0m17.78-1.78h0m13,7.11h0m-12.44,3.56h0m13.62,7.7h0M132,167.11h0m11.26,8.3h0m3.56-69h0m-14.52,3.56h0m-16.89-1.19h0m-10.08-32.3h0m-7.11,11h0m14.22,3.26h0m-7.7,10.66h0M89.58,96.59h0m-12.44,9.78h0M60,90.67h0m1.19,12.44h0M49.58,111.7h0m14.52,4.45h0m14.52,5.63h0m-7.41,13.33h0m-10.67-6.52h0m-5,8.89h0m7.11,8.89h0m16,1.19h0M71.51,157h0m16-.6h0M81.58,168.3h0m20.74-13.63h0m15.41,4.74h0m-11.85,6.52h0m-13,6.51h0m19,3h0m-11.26,6.52h0m-16.59,0h0M94,191.41h0M79.8,196.15h0m-11.26-5.93h0m61.63-6.52h0m17.19,3h0m-10.08,5.92h0m18.37,5.34h0m-1.18,11.26h0M164,221h0m15.41-3.56h0m-22.13,14h0m-9.28-8.7h0M140.84,205h0m-13.63-5.93h0m5.33,14.82h0m3,13h0m8.88,10.37h0m19.26,4.15h0m-24,6.22h0m-11.26-6.51h0m-13.62-9.49h0m-1.19-16h0m-10.07,10.08h0m1.18,11.85h0m12.25,12.84h0m-14-1.58h0m-11.85-6.52h0m-10.67,9.48h0m11.86-46.22h0m-4.74,11.26h0m-11.86-8.3h0M63.21,200.3h0m-7.7-14.23h0m1.18-17.77h0M45.43,160h0m-11.85,5.33h0m1.19-17.18h0m-11.26,5.92h0m-8.3-13.63h0m11.85-4.14h0m-5.92-13h0m-10.67,4.15h0m-7.7,12.44h0m13.62,24.89h0M6.75,173.2h0m19.72,1.61h0M17,181.93h0m20.74,2.37h0m9.48,11.85h0m-36.15,4.54h0m15-10.27h0m-19-.36H7m14.42,12.33h0M3.52,213h0m12.28.31h0M8.69,227.6h0M6,238.11H6M51.36,205h0M39.51,211h0m11.85,5.93h0m12.44-2.37h0m11.26,7.7h0m4,10.08h0m-35.95-7.71h0m-13.63,1.19h0m30.82,2.05h0m-12,6.84h0m22.12,4h0M59.1,244.15h0m8.06,5.21h0m-18.88,1.9h0M36.35,240.2h0m-12.65-.32h0m7,12.17h0m-22-2.37h0m6.84-138.27h0M3.1,114.57h0m1.44-13.83h0M68,179h0m-21-54.22h0M36.25,111.41h0m48.89-32h0m5.33-40.89h0M43.65,48.89h0M39.21,62.52h0m5.63,27h0m-2.37,10.67h0M129,2.37h0m-32.6,30h0m6.2.8h0M109.14,35h0M115.36,37h0m6.38,3h0m5.86,3.68h0m7.25,4.62h0m7.3,4.9h0m7.13,5.55h0m56.13-32.67h0m-6.24.2h0m-6.74-.7h0M186,24.51h0m-6.77-1.91h0m-6.37-2.7h0m-7.89-3.4h0m-8-3.68h0M149,8.48h0M101.14,64.59h0m-5.4,3.15h0m-6.27,2.58h0m-6.2,2.15h0M76.41,74h0m-6.89.65h0M61,75.43h0m4.62,5.36h0m3.56,5.14h0m3.55,5.13h0m2.77,4.35h0M52.18,76h0m-9,0h0M187.06,181.33h0M82.17,243h0m102.21-67.27h0M86.21,236.94h0m96.12-67.71h0M90.27,230.51h0m90.45-67.64h0m-86,61.65h0m85.05-68.62h0m-81,61.8h0m80.57-69.55h0M14,242.37h0m1.59-6h0m2.6-6.26h0m2.86-5.91h0m3.75-5.95h0m4.7-6.18h0m3.81-6.14h0m4-6.83h0m65.62,11.43h0m76.72-70.1h0m-72.23,63.32h0m3.21-5.78h0m4.49-6.79h0m97.64-52.95h0m-6.92,5.22h0m-6.72,5.13h0m20.23-14.8h0m6.78-4.79h0M239,119.31h0m-6.71,4.74h0M246.12,115h0m-119.18,3.57h0m8.53,1.52h0m8.33,1.43h0m-24.61-4.75h0m-8.12-1.7h0m-15.84-2.9h0m8,1.7h0m-16.06-4h0M183,88.28h0m-5.26,6.89h0m-5.08,6.76h0m15.48-19.72h0m5.23-6.45h0M203.16,63h0m-1.68-7.93h0m-1.18-8.45h0m-.79-9.09h0M198,69.38h0m9.82-2.22h0m4.35,5.14h0M217.28,77h0M118.52,185.28h0m3.21-5.78h0m4.49-6.78h0m.2,57.21h0m-2-6.49h0m-2.06-6.28h0m-1.92-7.91h0m-1.55-7.37h0M4.74,43.46h0m6.72-2.74h0m7-3h0m7-2.49h0m7.21-3.36h0m7.45-3.66h0m7.52-3.11h0m5.9-3h0M61,18.94h0M67.14,16h0M73,13h0m7.51-3.11h0M54.63,51.29h0m2-6.48h0m1.81-6.36h0m2.83-7.63h0m2.85-7h0M179.82,131.59h0m.81-9h0M169,236.44h0m5.33-5h0m-21.93,20.44h0m5.63-5.33h0m22-19.72h0m7.27-5.35h0m6.41-5.73h0m6.71-5.69h0m7.27-5.36h0m5.94-5.35h0m5.59-4.43h0m5.66-5.62h0m5.81-4.61h0m5.66-5.62h0m5.94-5.35h0m5.59-4.43h0m5.66-5.62h0M4,159H4m5.66-5.61h0M74.17,167.7h0m-5.52-2.91h0m-5.51-4h0M58,156.71h0m-4.95-5h0m-4.19-5.5h0m-5.17-6.86h0m-5.13-7.16h0m-4.73-7.69h0m-4.74-7.69h0m-4.73-7.69h0"/>
    </g>
  </g>
</svg>
