<svg xmlns="http://www.w3.org/2000/svg" width="256" height="256" viewBox="0 0 256 256">
  <defs>
    <style>
      .cls-1 {
        opacity: 0.1;
      }

      .cls-2, .cls-3 {
        fill: none;
      }

      .cls-3 {
        stroke: #d9b776;
        stroke-linecap: round;
        stroke-miterlimit: 11.34;
        stroke-width: 3.32px;
      }
    </style>
  </defs>
  <g id="Layer_1" data-name="Layer 1" class="cls-1">
    <g>
      <rect class="cls-2" width="256" height="256"/>
      <path class="cls-3" d="M74.67,9.78h0m0,14.22h0M72,36.44h0m-20.44.89h0M85.33,73.78h0M48.54,96.13h0m36.79-1h0m20.45,0h0M104,64h0m10.51,7h0m6.38-18.59h0m-8-11.55h0M114.67,24h0M108.19,9.38h0m12.7-5.82h0M147.56,24h0m14.22-.89h0m8.06,46.34h0M133.48,71h0m61.19-32.81h0m6.22-36.44h0M240,5.33h0M240,31.38h0m-6.87,8h0M232,55.11h0m-5.1,10.66h0m-202,119.12h0M28.38,196h0M8,192.89H8m26.67,33.78h0m4.44,24.89h0M65.78,232h0m-8-11.56h0m-14.22-.88h0m16.82-22.65h0m8.06-16.47h0m-10,3.63h0m-.61-17h0m57.52,17.75h0M89.21,197.51h0m24.57-.18h0M92.44,225.78h0M128,199.11h0m17.09-16.56h0m11.27-27.86h0m22.31,27.53h0m-.92-15.54h0m17.81-.46h0m0,25.78h0m-13.34,7.11h0m-11.78,16h0m36.67,2.69h0M138.67,87.11h0M168.89,96h0m32.57,5.07h0M182.22,88.89h0M184.89,104h0m37.33,21.33h0m-20.44,12.45h0m-38.31-9.17h0m7.2,27.83h0m39.11,7.12h0m33.78-8.89h0m-24-16.89h0m-104,28.44h0M90,131h0m15.82-5.65h0M38.63,102.65h0M8.89,124.44h0m36.46,28.11h0M49.78,120h0M94,101.86h0m39.52,19h0M22,69.45h0m12.64-3.67h0m8.54,20.57h0M8,86.71H8M228.44,104h0m18.67.89h0M5.33,31.11h0m57.78-8h0m-49,1.29h0M65.78,67.56h0m9.78,63.11h0M2.67,156.44h0m244.44,76.45h0m-42.67,11.55h0M16.66,214.2h0m78.22-1.77h0m90.9-78.21h0m44.44,27.56h0m-55.64,70.51h0m-32.36-99h0m-72-40h0m-28.44-88h0M170.67,244.44h0M68,53.32h0M45.74,56h0M21.33,40.89h0m3.56-32h0M46.53,23.61h0m45,.39h0m40,1.78h0M154.67,4.44h0m27.55,26.67h0m-55.11,7.11h0m12.45,14.22h0M90.8,56h0m-65,41.76h0m11.55,20.44h0M18.86,135.06h0M11.56,72h0m50.66,53.33h0m-5.33,12.45h0M45.33,164.44h0M41.71,196h0M21.33,224.89h0M8,219.56H8m40,26.66h0m29.33,4.45h0m38.76-19.17h0M79.77,214.2h0m13.56-45.31h0m-1.77-15.11h0m30.22-58.67h0M155.56,88h0m-2.67-15.11h0m8.26-15.29h0m18.41,5.51h0m32-2.67h0m0-23.11h0m-2.67-11.55h0M240,20.44h0M225.78,32h0M210.15,87.63h0m-14.22.79h0m1.4-22.64h0m35.75,21.06h0M185.65,120h0m-16.76-.93h0m-11.56,19.56h0m-38.87,13h0m24.85,7.77h0m19.36,25.46h0m2.66,16h0M150,212.43h0m-7.78,9.79h0m-11.11,6.11h0m-1.33-41.66h0m-22.22,33.77h0M133.33,248h0M224,201.78h0m-11.48-16.92h0m-19-2.37h0m3.17-30h0m25.5-3.12h0M247.11,192h0m-21.33,26.67h0M230.22,232h0m-8,16.89h0m-34.66-1.78h0m-36.09-13.93h0m-50.14,19.26h0M7.11,103.11h0m242.67,18.67h0M10.67,180.44h0M245.33,93.33h0M240,218.67h0M9.78,252.44h0M4.44,58.67h0m99.56-24h0m39.11.89h0m21.33,0h0m30.23-12.45h0m32.89-.89h0m-4.45-16h0m24,56.89h0M28.44,166.22h0M17.78,200.89h0m-6.22,32h0m51.55,14.22h0m11.56-24h0m0-63.11h0m21.66,24.86h0m34.11,29.34h0m18-19.53h0m38,18.65h0M176,224h0m19.56,7.11h0M89.78,86.22h0m61.33,13.34h0M184.89,152h0m53.33,31.11h0m-75.59-16.43h0m-31.07-9.35h0M60.44,100.44h0M40,129.78h0m194.66-11.32h0M25.78,55.11h0M12.44,8h0m224,123.56h0m-80,91.55h0M91.56,248h0M63.13,151.66h0m84.43-29.88h0m41.77-69.34h0m-54.22,9.78h0m-88.89,8h0m163.56,2.67h0M240,202.67h0M18.67,247.11h0M60.44,8.89h0M5,15.14H5m9.51,0h0m9.49,0h0m9.49,0h0m9.48,0h0m9.46,0h0m9.48,0h0m9.49,0h0m9.51,0h0m9.49,0h0m9.48,0h0m9.49,0h0m9.51,0h0m9.49,0h0m9.48,0h0m9.49,0h0m9.46,0h0m9.48,0h0m9.49,0h0m9.51,0h0m9.48,0h0m9.49,0h0m9.51,0h0m9.52,0h0m9.48,0h0m9.49,0h0m9.4,0h0M4.76,47.15h0m9.52,0h0m9.48,0h0m9.49,0h0m9.48,0h0m9.46,0h0m9.49,0h0m9.48,0h0m9.51,0h0m9.49,0h0m9.48,0h0m9.49,0h0m9.51,0h0m9.49,0h0m9.48,0h0m9.49,0h0m9.46,0h0m9.48,0h0m9.49,0h0m9.51,0h0m9.49,0h0m9.48,0h0m9.51,0h0m9.52,0h0m9.48,0h0m9.49,0h0m9.4,0h0M4.76,79.41h0m9.52,0h0m9.48,0h0m9.49,0h0m9.48,0h0m9.46,0h0m9.49,0h0m9.48,0h0m9.51,0h0m9.49,0h0m9.48,0h0m9.49,0h0m9.51,0h0m9.49,0h0m9.48,0h0m9.49,0h0m9.46,0h0m9.48,0h0m9.49,0h0m9.51,0h0m9.49,0h0m9.48,0h0m9.51,0h0m9.52,0h0m9.48,0h0m9.49,0h0m9.4,0h0M4.49,111.21h0m9.52,0h0m9.48,0h0m9.49,0h0m9.48,0h0m9.46,0h0m9.49,0h0m9.48,0h0m9.51,0h0m9.49,0h0m9.49,0h0m9.48,0h0m9.51,0h0m9.49,0h0m9.48,0h0m9.49,0h0m9.46,0h0m9.48,0h0m9.49,0h0m9.51,0h0m9.49,0h0m9.48,0h0m9.52,0h0m9.51,0h0m9.48,0h0m9.49,0h0m9.4,0h0m-246.92,32h0m9.52,0h0m9.48,0h0m9.49,0h0m9.48,0h0m9.46,0h0m9.49,0h0m9.48,0h0m9.52,0h0m9.48,0h0m9.49,0h0m9.48,0h0m9.51,0h0m9.49,0h0m9.49,0h0m9.48,0h0m9.46,0h0m9.48,0h0m9.49,0h0m9.51,0h0m9.49,0h0m9.48,0h0m9.52,0h0m9.51,0h0m9.48,0h0m9.49,0h0m9.4,0h0M4,175.23H4m9.51,0h0m9.48,0h0m9.49,0h0m9.49,0h0m9.45,0h0m9.49,0h0m9.48,0h0m9.52,0h0m9.48,0h0m9.49,0h0m9.48,0h0m9.52,0h0m9.48,0h0m9.49,0h0m9.48,0h0m9.46,0h0m9.49,0h0m9.48,0h0m9.51,0h0m9.49,0h0m9.48,0h0m9.52,0h0m9.51,0h0m9.49,0h0m9.48,0h0m9.4,0h0m-246.91,32h0m9.51,0h0m9.49,0h0m9.48,0h0m9.49,0h0m9.45,0h0m9.49,0h0m9.48,0h0m9.52,0h0m9.48,0h0m9.49,0h0m9.48,0h0m9.52,0h0m9.48,0h0m9.49,0h0m9.48,0h0m9.46,0h0m9.49,0h0m9.48,0h0m9.51,0h0m9.49,0h0m9.49,0h0m9.51,0h0m9.51,0h0m9.49,0h0m9.48,0h0m9.41,0h0m-246.65,32h0m9.51,0h0m9.49,0h0m9.48,0h0m9.49,0h0m9.45,0h0m9.49,0h0m9.48,0h0m9.52,0h0m9.48,0h0m9.49,0h0m9.48,0h0m9.52,0h0m9.48,0h0m9.49,0h0m9.48,0h0m9.46,0h0m9.49,0h0m9.48,0h0m9.51,0h0m9.49,0h0m9.49,0h0m9.51,0h0m9.51,0h0m9.49,0h0m9.48,0h0m9.41,0h0M26.67,88h0M11.56,167.11h0m24.66,46.21h0M48,232.89h0m30.22-44.45h0M120.89,120h0m-28.45,0h0m40-19.56h0m85.34-5.33h0m-8.89,106.67h0m0-51.56h0m-10.67-24.89h0m48,124.45h0M216,232.89h0m-57.78,19.55h0M87.11,2.67h0m36.45,128.89h0m86.22-13.34h0M25.78,152h0M36.44,32h0m49.78,4.44h0M24,29.33h0M23.11,120h0m55.11-1.78h0m27.56,38.22h0m119.11,33.78h0m-48-186.66h0m76.44,219.55h0m-.49-40.62h0M250.67,38.22h0m1.77,96.89h0M141.33,5.33h0M74.67,9.78h0m38.22,31.11h0M238.61,71h0M148,168.49h0M195.56,192h0M81.31,63.92h0m40.47,31.19h0m57.78-32h0M173,134.53h0M44.31,183.74h0M48,232.89h0m110.22,19.55h0m51.56-134.22h0m43.55,104.89h0"/>
    </g>
  </g>
</svg>
