<svg xmlns="http://www.w3.org/2000/svg" width="256" height="256" viewBox="0 0 256 256">
  <defs>
    <style>
      .cls-1 {
        opacity: 0.1;
      }

      .cls-2, .cls-3 {
        fill: none;
      }

      .cls-3 {
        stroke: #d9b776;
        stroke-linecap: round;
        stroke-miterlimit: 11.34;
        stroke-width: 3.32px;
      }
    </style>
  </defs>
  <g id="Layer_1" data-name="Layer 1" class="cls-1">
    <g>
      <rect class="cls-2" width="256" height="256"/>
      <path class="cls-3" d="M40.84,71h0m9,3.7h0m0,0h0m-18.1-7.4h0M22.21,64h0M40.84,71h0m17.81,6.85h0m9,2.82h0m8.88,2.65h0m9.07,3.13h0m9.1,2.68h0m8.67,2.65h0M113,94.7h0m8.75,2.44h0m18.65,5.21h0m-9.54-2.62h0m18.53,5h0m9.27,2.5h0m9.11,2.1h0m9.54,2.62h0m9,1.72h0m9.11,2.11h0m8.73,1.51h0m19.56,3.26h0m-9.78-1.48h0m18.67,2.67h0m9.49.93h0m9.19.59h0M3,59.56H3M12.71,59h0m0,0h0M3,59.56H3m18.91-2h0m9.46-.88h0m9.15-1.46h0m9.75-.88h0m9.14-1.75h0m9.43-1.77h0m9.45-1.17h0m9.43-2.06h0m18.58-2.92h0M96.53,46.4h0m18.86-3.53h0m9.44-1.76h0m9.12-2h0m9.73-1.77h0M152.51,35h0m9.12-2.05h0m9.44-1.76h0m18.53-4.71h0m-9.42,2.06h0m18.53-4.7h0m9.12-2.35h0m9.11-2.64h0m9.1-2.94h0M244,10.29h0m-9.11,2.64h0M253,6.76h0M5.15,36.43h0m9.5-.22h0m9.23-.83h0m9.79-.21h0m9.24-1.12h0m9.53-1.11h0M62,32.43h0M71.49,31h0m18.75-1.63h0m-9.83,1.09h0m19.06-2.21h0M109,27.16h0m9.25-1.42h0m9.83-1.1h0m9-1.72h0m9.25-1.42h0m9.53-1.11h0M174.64,17h0m-9.55,1.4h0M183.91,15h0m9.26-1.71h0m9.27-2h0M211.72,9h0M230,4.62h0m-9.27,2h0m18.7-4.56h0M3.66,18.85h0M13,18.33h0m9.58-.49h0m9.52.1h0m9.62-.78h0m18.81-.42h0m-9.88.46h0m19.17-1h0m9.58-.49h0m9.32-.82h0m9.88-.46h0m9.06-1.14h0m9.32-.81h0m9.58-.49h0m19-2.19h0m-9.62.79h0m19-2.19h0m9.35-1.11h0m9.38-1.41h0m9.18-2.39h0m8.89-1.77h0m57.53,57.75h0m-6.86-22.73h0m9.77.49h0m0,0h0m-19.54-1h0m6.24,23.33h0m-32.94-5h0m36.47-17.87h0m-1.55-18.11h0m9.26-.22h0M200.58,254.48h0m8-3h0M3.84,251.22h0m8.59.59h0m9.48.59h0m9.78.3h0m10.37,0h0m19.44.51h0M51.62,253h0m19.19.26h0m9.59.13h0m9.36-.13h0m9.78-.29h0m8.44-.6h0m9.64-.59h0m9.48-.3h0M146.36,250h0m-10.08.89h0m19.56-1.78h0m8.89-1.18h0m8.89-.89h0m8.29-.89h0M3.54,187.76h0m9.77-.59h0m0,0h0m-9.77.59h0m19.56-1.43h0m8.81-1.49h0m9.15-1.46h0m9.75-.88h0M60,180.74h0M69.38,179h0m9.46-1.17h0m9.42-2.06h0m18.59-2.93h0m-9.73,1.78h0M116,171.07h0m9.44-1.76h0m9.13-2.05h0m9.72-1.77h0m8.83-2.34h0m9.13-2.05h0m9.43-1.77h0m18.53-4.7h0m-9.42,2.06h0M199.3,152h0m9.12-2.35h0m9.12-2.64h0m9.1-2.94h0m17.91-5.57h0m-9.11,2.64h0m16.41-5.43h0M4.74,131.85h0M5,167.07H5m9.78,0h0m9.78-.59h0m10.07-.6h0m9.19-.88h0m9.48-1.19h0m10.07-.89h0m8.89-1.48h0m19-3h0m-9.49,1.77h0M100.13,157h0m9.47-1.65h0m9.24-1.41h0m9.83-1.1h0m9-1.72h0m9.24-1.42h0m9.54-1.11h0m18.81-3.41h0m-9.54,1.4h0m18.81-3.41h0m9.26-1.71h0m9.27-2h0m9.29-2.31h0m18.25-4.32h0m-9.27,2h0m18.7-4.56h0M4.25,147.05h0m9.29-.52h0m9.58-.49h0m9.53.1h0m9.61-.79h0m18.81-.42h0m-9.88.46h0m19.17-1h0m9.59-.49h0m9.32-.81h0m9.87-.46h0m9.06-1.14h0m9.32-.81h0m9.58-.49h0m19-2.19h0m-9.61.78h0m19-2.19h0m9.35-1.1h0m9.39-1.41h0m9.41-1.7h0m18.15-4.2h0m-9,2.47h0m18.5-4.76h0M4.86,123.66h0m9.3.08h0m9.6.13h0m9.5.71h0m9.64-.16h0m18.8.79h0M51.81,125h0m19.19.26h0m9.6.13h0m9.35-.21h0m9.89.18h0m9.11-.56h0m9.36-.21h0m9.59.13h0m19.1-1h0m-9.65.16h0m19.1-1h0m9.4-.5h0m9.46-.8h0m9.5-1.09h0m57.55-83.84h0m9.77.49h0m-19.54-1h0M223.06,35h0m-11.78-2h0m27.55,26.54h0m-9.57-.91h0M217.43,57.1h0m-11.54-2.47h0m0,0h0m-42-15.4h0m32.7,13.16h0m-11.5-3.23h0M174,45.1h0m66.35,101.45h0m9.26-.22h0M147,86.91h0m9.37,2.81h0m0,0h0m-18.74-5.63h0M147,86.91h0m18.46,4.59h0m9.18,2.44h0m9.09,1.79h0m9.46,2.53h0m9.18,1.5h0m9.47,1.6h0m9.27,2.16h0M66.15,58.4h0m8.94,4h0m0,0h0m-8.94-4h0m17.74,6.86h0m8.8,3.56h0m8.8,2.9h0m9.07,3.69h0M119.49,78h0m9.19,2.76h0m8.93,3.29h0m93.07,20.46h0m18.56,3.13h0m-9.79-1.41h0m-51.32-25.6h0m9.45,2.53h0m0,0h0m-18.9-5h0m9.45,2.52h0m18.59,4h0M216,86.85h0m9.14,1.5h0m9.54,2.24h0m9.22,1.22h0m9,1.42h0M106.45,54.69h0m9.06,3.68h0m0,0h0m-9.06-3.68h0M124.39,61h0m8.92,3.28h0m8.88,2.63h0m9.18,3.4h0m9,2.36h0m9.28,2.47h0m9,3h0m18.4-10h0m9.31,3h0m0,0h0m-18.61-6h0m9.3,3h0m18.36,5h0m9.13,2.63h0m9,2h0M243,80.47h0m9.15,1.69h0m-117.7-37h0m8.72,3.75h0M151.93,52h0m9,3.88h0m8.87,2.82h0m9.13,3h0m8.86,3.49h0M147,214.91h0m9.37,2.81h0m0,0h0m-18.74-5.63h0m9.37,2.82h0m18.46,4.59h0m9.18,2.44h0m9.09,1.79h0m9.46,2.53h0m9.18,1.5h0m9.47,1.6h0m9.27,2.16h0M66.15,186.4h0m8.94,4h0m0,0h0m-8.94-4h0m17.74,6.86h0m8.8,3.56h0m8.8,2.9h0m9.07,3.69h0m8.93,2.63h0m9.19,2.76h0m8.93,3.29h0m93.07,20.46h0m18.56,3.13h0m-9.79-1.41h0m-51.32-25.6h0m9.45,2.53h0m0,0h0m-18.9-5h0m9.45,2.52h0m18.59,4h0m9.25,2.15h0m9.14,1.5h0m9.54,2.24h0m9.22,1.22h0m9,1.42h0M106.45,182.69h0m9.06,3.68h0m0,0h0m-9.06-3.68h0M124.39,189h0m8.92,3.28h0m8.88,2.63h0m9.18,3.4h0m9,2.36h0m9.28,2.47h0m9,3h0m18.4-10h0m9.31,3h0m0,0h0m-18.61-6h0m9.3,3h0m18.36,5h0m9.13,2.63h0m9,2h0m9.41,2.74h0m9.15,1.69h0m-117.7-37h0m8.72,3.75h0m8.74,3.09h0m9,3.88h0m8.87,2.82h0m9.13,2.95h0m8.86,3.49h0M6.72,223h0m9.62.74h0m18,2h0m-9.19-.89h0M5.59,212h0m9.21,1.33h0m39.11,14.22h0m-9.48-.89h0m19.26,1.78h0m9.48.3h0m10.37.59h0m12.74.59h0m11.85.6h0m11.86.29h0m-55.1-10.62h0m10.65,1.14h0m19.26.59h0m-9.18-.29h0m-31.41-2.37h0m-29.93-4.15h0m19.56,2.67h0m-9.78-1.19h0m-31.3-20.2h0M11.84,200h0M21,202.62h0m8.6,2.38h0m8.88,2.37h0m19.12,4h0m-9.93-1.93h0M4.15,236.15h0m10.35.55h0m9.5.63h0m9.78.3h0m8.87,1.14h0m9.48.6h0m9.19.59h0m19,.59h0m-9.78-.3h0m19.26.89h0m9.7,0h0m9.48.39h0m9.56.1h0m19-.47h0m-9.69.48h0m18.87-1.07h0m9.48-.89h0M6.72,95h0m9.62.74h0M35,98.26h0m-9.83-1.1h0M5.59,84h0m9.23,2.36h0M54.12,100h0m-9.48-.39h0m19.36.88h0m10.37.6h0m10.67.29h0m11.55-.59h0m10.08-.59h0m-41.78-8h0M75,92.44h0m11,.3h0m-32.3-.3h0M24.39,87.56h0M43.26,91h0m-10.15-1.5h0m-29,18.69h0m10.07.29h0m9.78.89h0m9.78.3h0m10.07.3h0m9.19.29h0m8.48.43h0m19.07,1.42h0M71,111h0m19.07,1.42h0m9.39.67h0m9.48.39h0m9.56.1h0m18.76.4h0m-9.48-.39h0m19.21-.08h0m9.45-.55h0M11.25,71.37h0m9.48,3.25h0m9.48,2.08h0m9.48,2.07h0m9.48,1.48h0m-47-13h0M239.39,187.51h0m10.08.3h0m-9.19-21.33h0m10.37.59h0m-19.85-1.78h0m-10.07-1.78h0m-10.08-2.07h0M200,158.77h0m28.74,27.85h0m-11.85-1.48h0m-10.38-2.07h0M163,168.25h0m32.3,11.56h0m-11.26-3h0m-10.67-4.15h0m77.41,77.63h0m-25.19-3h0m8.6,1.18h0m8.89.89h0M51.32,199.37h0m9.19,3.85h0m8.89,3.85h0m8.29,3.26h0m8.3,3h0m9.48,3.56h0m9.78,3.26h0m9.18,3h0m8.6,2.67h0m18.66,5.33h0m-9.18-2.67h0m18.37,4.74h0m8.59,2.08h0m8.39,2.31h0m9.68,1.84h0m8.89,1.77h0m9.49,1.48h0M206,244.7h0m9.78,1.48h0M42.14,195.51h0m-9.48-4.44h0"/>
    </g>
  </g>
</svg>
