<svg viewBox="0 0 256 256"><path fill="none" d="M0 0h256v256H0z"/><path fill="none" stroke="#d9b776" stroke-miterlimit="11.34" stroke-width="2.36" d="M4.53 20c5.91-1.18 14.19-6.3 29.17-4.33m9.46 2c8.67 3.15 19.38 6.44 32.32 1.18m43.75 2c-7.1-.79-18.52-8.28-35.47-5.12m84.35.39a34.49 34.49 0 0 0-20.9-.39c-5.91 1.57-11 5.12-18.12 5.12M176 19.21c5.52 1.19 24.43 1.58 34.68-3.54m8.67 0c9.46-.4 8.28 0 16.84 2.36 6.42 4.33 15.09 2 17.06 2.37M0 42.21a44.61 44.61 0 0 0 14-3.68m8.68 0c9.45-.39 8.27 0 16.83 2.36 6.42 4.34 15.09 2 17.06 2.37m153.31 18.92c-15-2-23.25 3.15-29.16 4.33m38.62-2.36c8.67 3.15 19.39 6.44 32.32 1.18M101.1 202.49c-15-2-23.26 3.16-29.17 4.34m38.63-2.37c8.67 3.16 19.38 6.45 32.32 1.19m43.75 2c-7.1-.79-18.52-8.28-35.48-5.12m84.36.39a34.49 34.49 0 0 0-20.9-.39c-5.91 1.57-11 5.12-18.12 5.12M0 206c7.83 0 17.77-1.06 24.24-4.29m8.67 0c9.46-.4 8.28 0 16.84 2.36 6.42 4.34 15.09 2 17.06 2.37M0 253a38.89 38.89 0 0 0 4.93-1.63m43.75 2c-7.1-.79-18.53-8.28-35.47-5.12m84.34.39a34.45 34.45 0 0 0-20.89-.39c-5.91 1.57-11 5.12-18.13 5.12m46.91-1.58c5.51 1.19 24.43 1.58 34.68-3.54m8.67 0c9.46-.4 8.28 0 16.84 2.36 6.42 4.33 15.09 2 17.06 2.37m36.65-5.52c-15-2-23.25 3.15-29.16 4.33M23.26 86A48.43 48.43 0 0 0 0 88.58M32.72 88c8.67 3.16 19.37 6.45 32.31 1.19m43.76 2c-7.1-.79-18.53-8.28-35.48-5.12m84.35.39a34.45 34.45 0 0 0-20.89-.46c-5.91 1.57-11 5.12-18.13 5.12m46.9-1.58c5.52 1.18 24.44 1.58 34.69-3.55m8.67 0c9.46-.39 8.28 0 16.83 2.37 6.42 4.34 15.1 2 17.06 2.36M33.9 155.2c-15-2-23.26 3.15-29.17 4.33m38.63-2.36c8.67 3.15 19.38 6.44 32.32 1.18m43.75 2c-7.1-.79-18.53-8.28-35.48-5.12m84.35.39a34.45 34.45 0 0 0-20.89-.39c-5.91 1.57-11 5.12-18.13 5.12m46.9-1.58c5.52 1.19 24.44 1.58 34.69-3.54m8.67 0c9.46-.4 8.28 0 16.84 2.36 6.41 4.34 15.09 2 17.06 2.37M34.49 225.55c-15-2-23.26 3.16-29.17 4.34M44 227.52c8.67 3.16 19.38 6.44 32.32 1.18m43.75 2c-7.1-.78-18.53-8.27-35.47-5.12m84.34.4a34.46 34.46 0 0 0-20.89-.4c-5.91 1.58-11 5.13-18.13 5.13m46.91-1.58c5.52 1.18 24.43 1.57 34.68-3.55m8.67 0c9.46-.39 8.28 0 16.84 2.37 6.42 4.33 15.09 2 17.06 2.36M90.06 38.73c-15-2-23.25 3.15-29.16 4.33m38.62-2.36c8.67 3.15 19.38 6.44 32.32 1.18m43.75 2c-7.09-.79-18.52-8.28-35.47-5.12m84.35.39a34.45 34.45 0 0 0-20.89-.39c-5.91 1.57-11 5.12-18.13 5.12M37.25 67.1c-7.1-.79-18.53-8.27-35.48-5.12m84.35.39A34.45 34.45 0 0 0 65.23 62c-5.91 1.58-11 5.12-18.13 5.12M94 65.53c5.52 1.18 24.44 1.58 34.69-3.55m8.67 0c9.46-.39 8.28 0 16.84 2.36 6.41 4.34 15.09 2 17.06 2.37M32.91 108.49c-15-2-23.25 3.15-29.16 4.34m38.62-2.37c8.67 3.15 19.38 6.44 32.32 1.18m43.75 2c-7.09-.78-18.52-8.28-35.47-5.12m84.35.39a34.56 34.56 0 0 0-20.9-.39c-5.91 1.58-11 5.12-18.12 5.12m46.9-1.64c5.52 1.18 24.44 1.57 34.68-3.55m8.67 0c9.46-.39 8.28 0 16.84 2.36 6.42 4.34 15.09 2 17.06 2.37M97.94 131.55c-15-2-23.25 3.15-29.16 4.33m38.62-2.36c8.68 3.15 19.39 6.44 32.33 1.18m43.75 2c-7.1-.79-18.53-8.28-35.48-5.12m84.35.39a34.45 34.45 0 0 0-20.89-.39c-5.91 1.57-11 5.12-18.13 5.12m-89.47 42.76c-15-2-23.25 3.16-29.17 4.34m38.63-2.36c8.67 3.15 19.38 6.44 32.32 1.18m43.75 2c-7.09-.79-18.53-8.28-35.47-5.12m84.34.39a34.45 34.45 0 0 0-20.89-.39c-5.91 1.57-11 5.12-18.13 5.12M0 183.13c8.05.13 19-.8 26-4.28m8.67 0c9.46-.4 8.28 0 16.84 2.36 6.42 4.34 15.09 2 17.06 2.37M0 136.3c6.81-.37 14.28-1.55 19.51-4.16m8.67 0c9.46-.39 8.28 0 16.84 2.36 6.42 4.34 15.09 2 17.06 2.37m173.23-94.79c3.45.73 12.15 1.17 20.69.13m-10.44 163A55.36 55.36 0 0 0 256 206m-27.39 44.18c7.54 2.75 16.63 5.6 27.39 2.82m-5.91-162.64a54.23 54.23 0 0 0 5.91-1.78m-8.67 93.81a50 50 0 0 0 8.67.74m-15.17-47.44a68 68 0 0 0 15.17.61"/><path fill="none" stroke="#d9b776" stroke-linecap="round" stroke-miterlimit="11.34" stroke-width="3.31" d="M2.17 8.87h0m9.46-1.51h0m8.6-2.93h0m9.1-.59h0m9.22.59h0m9.17 2.1h0m8.73 1.75h0m9.6.59h0m9.72-1.51h0m8.6-2.93h0m9.11-.59h0m9.22.59h0m9.17 2.1h0m8.19 1.75h0m9.49.32h0m9.73-1.51h0m8.6-2.92h0m9.12-.59h0m9.21.59h0m9.17 2.09h0m9 1.75h0m9.35.59h0m9.73-1.51h0m8.6-2.92h0m9.11-.59h0m9.22.59h0m9.16 2.09h0M247.74 8h0M3.9 30.49h0m8.6-2.93h0m9.11-.56h0m9.22.59h0M40 29.66h0m8.73 1.75h0m9.6.59h0m9.73-1.51h0m8.6-2.93h0m9.1-.59h0m9.22.59h0m9.17 2.1h0m8.19 1.75h0m9.49.32h0m9.73-1.51h0m8.6-2.92h0m9.11-.6h0m9.22.6h0m9.16 2.09h0m9 1.75h0m9.36.59h0m9.72-1.51h0m8.6-2.92h0m9.11-.6h0m9.22.6h0m9.17 2.09h0m8.17 1.75h0m9.4.32h0M2.25 51.21h0m9.11-.59h0m9.22.59h0m9.16 2.1h0m8.74 1.75h0m9.59.59h0m9.73-1.51h0m8.6-2.93h0m9.11-.59h0m9.22.59h0m9.16 2.1h0m8.19 1.75h0m9.49.32h0m9.73-1.51h0m8.6-2.93h0m9.11-.59h0m9.22.59h0m9.16 2.1h0m9 1.75h0m9.36.59h0m9.72-1.51h0m8.6-2.93h0m9.11-.59h0m9.22.59h0m9.17 2.1h0m8.19 1.75h0m9.41.32h0m9.73-1.5h0M3 74.07h0m9.11-.59h0m9.22.59h0m9.16 2.1h0m8.73 1.75h0m9.6.59h0M58.59 77h0m8.6-2.93h0m9.11-.59h0m9.22.59h0m9.16 2.1h0m8.19 1.75h0m9.49.32h0m9.73-1.51h0m8.6-2.93h0m9.11-.59h0m9.22.59h0m9.16 2.1h0m9 1.75h0m9.36.59h0m9.72-1.51h0m8.6-2.93h0m9.11-.59h0m9.22.59h0m9.17 2.1h0m8.19 1.75h0M240 78h0m9.73-1.51h0m-244.21 25h0m8.6-2.93h0m9.11-.59h0m9.22.59h0m9.17 2.1h0m8.73 1.74h0m9.59.59h0m9.73-1.5h0m8.6-2.93h0m9.11-.59h0m9.22.59h0m9.16 2.1h0m8.2 1.74h0m9.48.33h0m9.73-1.51h0m8.6-2.93h0m9.11-.59h0m9.22.59h0m9.16 2.1h0m9 1.75h0m9.35.59h0m9.73-1.51h0m8.6-2.93h0m9.11-.59h0m9.22.59h0m9.16 2.1h0m8.19 1.75h0m9.41.32h0M4.69 123.51h0m8.6-2.93h0m9.11-.58h0m9.22.59h0m9.16 2.1h0m8.73 1.74h0m9.6.6h0m9.73-1.51h0m8.6-2.93h0m9.1-.59h0m9.22.59h0m9.17 2.1h0m8.19 1.74h0m9.49.33h0m9.73-1.51h0m8.6-2.93h0m9.11-.59h0m9.22.59h0m9.16 2.1h0m9 1.75h0m9.36.59h0m9.72-1.51h0m8.6-2.93h0m9.11-.59h0m9.22.59h0m9.17 2.1h0m8.19 1.75h0m9.4.32h0m-248 24.18h0m8.75-1.5h0m8.6-2.93h0m9.11-.59h0m9.22.59h0m9.17 2.1h0m8.73 1.74h0m9.59.59h0m9.73-1.5h0m8.6-2.93h0m9.11-.59h0m9.22.59h0m9.16 2.1h0m8.2 1.74h0m9.48.33h0m9.73-1.51h0m8.6-2.93h0m9.11-.59h0m9.22.59h0m9.16 2.1h0m9 1.75h0m9.36.59h0m9.73-1.51h0m8.6-2.93h0m9.11-.59h0m9.22.59h0m9.16 2.1h0m8.19 1.75h0M6.26 172.31h0m9.46-1.5h0m8.6-2.93h0m9.11-.59h0m9.22.59h0m9.17 2.1h0m8.73 1.74h0m9.59.59h0m9.73-1.5h0m8.6-2.93h0m9.11-.59h0m9.22.59h0M116 170h0m8.2 1.74h0m9.48.33h0m9.73-1.51h0m8.6-2.93h0m9.11-.59h0m9.22.59h0m9.16 2.1h0m9 1.74h0m9.36.6h0m9.73-1.51h0m8.6-2.93h0m9.11-.59h0m9.22.59h0m9.16 2.1h0m8.19 1.74h0M5.47 195.18h0m9.46-1.51h0m8.6-2.93h0m9.11-.59h0m9.22.59h0m9.17 2.1h0m8.73 1.74h0m9.59.6h0m9.73-1.51h0m8.6-2.93h0m9.11-.59h0m9.22.59h0m9.16 2.1h0m8.2 1.74h0m9.48.33h0m9.73-1.51h0m8.6-2.93h0m9.11-.59h0m9.22.59h0m9.16 2.1h0m9 1.75h0m9.35.59h0m9.73-1.51h0m8.6-2.93h0m9.11-.59h0m9.22.59h0m9.16 2.1h0m8.19 1.75h0M8.87 217.52h0m8.6-2.93h0m9.11-.59h0m9.22.59h0m9.2 2.09h0m8.73 1.75h0m9.6.59h0m9.73-1.5h0m8.6-2.93h0m9.1-.59h0m9.22.59h0m9.17 2.09h0m8.19 1.75h0m9.49.32h0m9.73-1.5h0m8.6-2.93h0m9.11-.59h0m9.22.59h0m9.16 2.1h0m9 1.74h0m9.36.59h0m9.72-1.5h0m8.6-2.93h0m9.11-.59h0m9.22.59h0m9.17 2.1h0m8.19 1.74h0m9.4.33h0M2.86 240.65h0m8.6-2.94h0m9.11-.59h0m9.22.59h0m9.16 2.1h0m8.73 1.75h0m9.6.59h0m9.73-1.5h0m8.6-2.94h0m9.11-.59h0m9.22.59h0m9.16 2.1h0m8.19 1.75h0m9.49.32h0m9.73-1.51h0m8.6-2.92h0m9.11-.6h0m9.22.6h0m9.16 2.09h0m9 1.75h0m9.36.59h0m9.72-1.51h0m8.6-2.92h0m9.11-.6h0m9.22.6h0m9.17 2.09h0m8.19 1.75h0m9.4.32h0"/></svg>