<svg xmlns="http://www.w3.org/2000/svg" width="256" height="256">
  <defs>
    <clipPath id="a">
      <path class="a" d="M0 0h256v256H0z"/>
    </clipPath>
    <style>
      .a{fill:none}
    </style>
  </defs>
  <path class="a" d="M0 0h256v256H0z"/>
  <g clip-path="url(#a)">
    <path d="M25.82 10.4v15.26m0-15.26v-.33m44.27.43v-.28m0 .28v14.78m41.31 0V10.76m43.08-.28v-.31m0 .31v14.21m43.08-14.16V10m0 .57v14.71m44.26-14.46v14.51M219.4 6.52v-.24m0 0V0m-41.91 5.93V0m-43.08 5.34V0M90.15 5.93V0M48.84 5.34V0M4 6.52V0m214.22 44.74V30.61M176.31 30v14.74m-43.08-14.5v-.82m0 14.73V30.24M89 44.54V30m0 14.52v.2M47.66 29.94v14.8m0-14.8v-.52M2.81 30.61v14.45m0 .27v-.27m237.24 5.06v13m-41.9.14V49.52m0 13.69v.45m-43.08-14.72v13.53m-44.26.43V49.52m0 13.38v.17m-41.31-.59V48.93m-44.86 14.5v.23m0-.23V48.77M6.94 82.83v.34m0-.34v-15m213.64 14.75V67.85m-43.09-.58v15.31m-44.26-14.73V82m-41.31.38V67.26m0 15.32v-.22M47.07 67.09v-.52m0 16V67.09m196.52 20.07v-.45m0 13.6V87.17m-41.9 13.22V86.84m0 0v-.45m0 14v.51m-43.08-14.12v12.94m0-12.94v-1M114.35 87v13.09m0 0v.22m0-13.31v-.61M73 86.8v-1m0 1v13.5M28.19 86.67v13.65m0-13.65v-.49m194.75 18.43v12.69m0 .16v-.16m-41.9-13v.2m0 0v12.16M138 117v.46m0-12.78v-.17m0 12.49v-12.32m-44.31 12.47V105.1m0 12.05v.31m-41.31-.16v-12.79m0 12.95v-.16M7.53 104.79v-.18m0 .18v12.72M243 122.24v13m-41.9.09v.51m0-.51v-13.68m-43.1-.22v13.37m0-13.37v-.37m0 14.14v-.4m-44.26-13.14V135m0 .01v.23m-41.31 0v-13.77m0 0v-.4m-44.83.29v-.46m0 14.58v.31m0-14.43v14.12m195.93 4v12.88m0-12.88v-.07m-41.9-.59v.55m0 0v13m-43.09-.11v-12.7m0 12.7v.7m0-13.4v-.79m-44.26 13.62v.54m0-.54v-13m0-.61v.61M53 139.27v-1.06m0 14.38v.34m0-13.66v13.32m-44.85.26v.08m0-13.19v13.11m0-13.11v-.35m238.42 18.33v13.54m-41.9.23v.36m0-.36v-14.36m-43.08 14v-14.42m0 0v-.17m0 14.58v.14m-44.26 0v-14.13M76 156.77v14.49m0-14.72v.23m-44.85-.13v.08m0 0v14.54M221.77 176v12.31m-41.9.08v-13m0 13v.61m-43.09-13.38V188m0 0v.43m0-12.79v-.76m-44.26.59v12.69m0 0v.27M51.2 175.34v-.48m0 .55v13m-44.85.27v.32m0-.37v-12.58m238.42 16.55v.27m0 13.86v-13.86m-41.9-.86v.59m0 14.31V192.6m0 14.31v.42m-43.08-.8v-14m0-1.1v1.1m0 14v.2m-44.26-.06v.07m0-14.73v.75m0 13.91v-13.91m-41.31-.2v14.17m0-15.31v1.14m-44.85 0v14.13m191.8 4.57v14.35m-41.9-14.73v15.32m0-15.32v-.21m-43.09.4v14.54m0-14.54v-.18M91.92 226v-14.5m0 14.5v.23m-41.31-15.3v14.72m-44.85 1.19v-.32m0-15.49v.16m0 15.33v-15.33m236.65 19.65v-.4m0 .4v12m-41.9.1V230.5m0 12.4v.49m0-12.89v-.65m-43.08-.33v.93m0 0v11.76m-44.26.42v.76m0-.76v-12m0-.28v.28m-41.31-.21v-.12m0 .12v12.38m-44.86.25v.34m0-.34v-12.61M229.29 8.27c-2-1.24-5.85-2-9.9-2m9.9 2-.45-.17.59.26-.14-.09m-31.73 2.26c3.86.13 7.85-.36 10.62-1.92s7.18-2.34 11.22-2.33M25.82 10.4a30.86 30.86 0 0 1-10-2.05A34.17 34.17 0 0 0 .2 6.82m69.89 3.68a29.22 29.22 0 0 1-11.41-2.4c-3.55-2.3-15.74-2.56-21.25 0a25.6 25.6 0 0 1-11.61 2.29m171.74.14c-4.35-.15-8.54-1.09-10.62-2.17-3.94-2-11.81-3.32-21.25.25a29.28 29.28 0 0 1-11.21 1.86m0 0a24.28 24.28 0 0 1-10.43-2.37c-3.14-1.79-13.11-4-21.24.26-6.3 3.31-16.79 2.78-21.25.5-5.51-2.8-14.56-4.34-21.64-.5a20.18 20.18 0 0 1-9.83 2.14m159.2-2.23c12.19 4.62 14.58 2.1 20.79.09a19.13 19.13 0 0 1 5.66-1.54m-4.81 21c-4.06-2.47-15.28-2.94-21.11.35s-17.31 1.78-21.25-.26-11.8-3.32-21.24.26a29.63 29.63 0 0 1-11 1.87m-43.08.22c-4 0-7.78-.7-10-1.84-5.51-2.81-14.56-4.34-21.64-.51s-16.92 1.79-21.24-.26c-3.54-2.3-15.74-2.55-21.25 0a25.73 25.73 0 0 1-11.41 2.31m203.22-2.16c1.8.69 3.39 1.21 4.81 1.61m-4.81-1.61-.46-.17.59.26-.13-.09M176.31 30a24.37 24.37 0 0 1-10.62-2.39c-3.15-1.79-13.11-4-21.24.26a24.88 24.88 0 0 1-11.22 2.35m-85.57-.3a31.16 31.16 0 0 1-10.23-2.05c-6.69-2.56-16.52-2.3-21.25 0-5.29 1.72-7.81 3.8-16 1.52m2.63 15.67a33.46 33.46 0 0 1 13.37 1.75c6.69 2.55 14.59 3 21.65-.26 5.5-2.55 17.7-2.3 21.24 0 4.33 2 14.17 4.09 21.25.26A19.79 19.79 0 0 1 89 44.54m140.71 2.18c12.2 4.62 14.58 2.11 20.79.09a18.26 18.26 0 0 1 5.27-1.48m-100.7 3.61a24.29 24.29 0 0 1-10.62-2.39c-3.15-1.79-13.11-4-21.25.26-6.29 3.32-16.78 2.79-21.25.51a27 27 0 0 0-13-2.78m140.71 2.18-.45-.17.59.26-.14-.09M2.81 45.06c-.9.06-1.77.15-2.61.28m229.48 1.38c-4.06-2.47-15.27-2.94-21.11.34s-17.3 1.79-21.24-.25-11.8-3.32-21.25.25a29.4 29.4 0 0 1-11 1.88m97 16.11-.46-.17.59.26-.13-.09m-54-1.84a22.56 22.56 0 0 1 11.6 1.92c3.94 2.05 15.35 3.58 21.25.26s17.05-2.82 21.11-.34m0 0c1.32.5 2.52.92 3.63 1.26M.2 66.31c9.13 2.82 11.62.62 17.16-1.18a21.67 21.67 0 0 1 7.28-1.7m22.43 3.66a26 26 0 0 0 13.18-2.21c5.51-2.56 17.71-2.3 21.25 0 4.32 2.05 14.16 4.08 21.24.26a19.65 19.65 0 0 1 8.07-2.24m66.68 4.37a24.37 24.37 0 0 1-10.62-2.39c-3.15-1.79-13.11-4-21.24.26-6.3 3.32-16.79 2.78-21.25.5a27 27 0 0 0-13.57-2.74m66.68 4.37a29.65 29.65 0 0 0 11-1.88 33.82 33.82 0 0 1 9.64-2.17M47.07 67.08a30.57 30.57 0 0 1-8.46-2 33.67 33.67 0 0 0-14-1.7M6.94 82.83a30 30 0 0 0-6.74.81m243.39 3.52c3.48-.1 5.76-1.38 9.25-2.51a14.86 14.86 0 0 1 2.9-1m-23.7.92-.45-.17.59.26-.14-.09m0 0c5.36 2 8.83 2.68 11.55 2.6M73 86.8a20.16 20.16 0 0 0 9.64-2.15 20 20 0 0 1 9.24-2.29M114.35 87c-4 0-7.78-.7-10-1.85a27.2 27.2 0 0 0-12.4-2.79m66.69 4.42a25.09 25.09 0 0 1-11.8-2.39c-3.15-1.79-13.11-4-21.25.26A25 25 0 0 1 114.35 87M73 86.8a29.63 29.63 0 0 1-11.61-2.41c-3.54-2.3-15.74-2.56-21.24 0a25.91 25.91 0 0 1-12 2.29m0 0a31.05 31.05 0 0 1-9.65-2 32.2 32.2 0 0 0-11.6-1.82m194.75 4c-4.82 0-9.7-1-12-2.19-3.93-2.05-11.8-3.32-21.25.25a29.69 29.69 0 0 1-9.83 1.88M232 84.56c-4.06-2.48-15.27-3-21.1.34-2.45 1.38-5.84 1.92-9.25 1.94M73 100.31c4.3 0 8.41.64 10.23 1.82 4.32 2 14.16 4.08 21.24.25a20.42 20.42 0 0 1 9.84-2.29M.2 103a33.43 33.43 0 0 0 7.33 1.82m173.51-.3c-5.65.22-10.32-1.18-12.4-2.37-3.15-1.78-13.11-4-21.24.26a23.29 23.29 0 0 1-9.45 2.3m63.74-4.29a21.35 21.35 0 0 1 9.84 2c3.93 2.05 15.34 3.58 21.24.26 2.82-1.59 6.9-2.3 10.82-2.33M73 100.3c-4.08 0-8.34.58-11 1.83-7.05 3.26-15 2.81-21.64.25s-16.52-2.3-21.25 0c-4.21 1.37-6.66 3-11.6 2.41m246.35-2.49 1.86.68m-1.86-.68-.45-.17.59.26-.14-.09m0 0c-2.1-1.29-6.1-2-10.29-2m-129.24-.22a27.33 27.33 0 0 1 11.8 2.8c2.58 1.32 7.17 2 11.8 1.79m63.74-4.29a33.19 33.19 0 0 0-11.41 2.25 29.23 29.23 0 0 1-9.24 1.85m41.9 12.81c-4.57-.29-9.79.36-13.19 2.27-5.9 3.32-17.3 1.79-21.24-.25s-11.8-3.32-21.25.25a29.25 29.25 0 0 1-9.24 1.86M138 117a21.24 21.24 0 0 1 7.68 2.06c2.08 1.18 6.74 2.58 12.39 2.37M52.38 117.3c-4.71-.26-10.17.27-13.37 1.76a25.61 25.61 0 0 1-11.41 2.3m-20.07-3.85A33.6 33.6 0 0 0 .2 118m230.66 1.19c12.2 4.62 14.58 2.1 20.79.09a16.85 16.85 0 0 1 4.09-1.28m-203.36-.7c3.39.19 6.39.8 7.87 1.76a29.46 29.46 0 0 0 12.2 2.4m-44.85-.1a30.71 30.71 0 0 1-10.24-2 31.08 31.08 0 0 0-9.83-1.79m86.16-.37a21.14 21.14 0 0 0-12.19 2.17 19.76 19.76 0 0 1-9 2.14m158.41-2.23c-1.69-1-4.64-1.72-7.92-1.93m-129.25-.15a27.16 27.16 0 0 1 9.45 2.67c2.36 1.21 6.4 1.93 10.62 1.84M138 117a24.07 24.07 0 0 0-13.57 2.32 24.51 24.51 0 0 1-10.62 2.34m117.1-2.43-.45-.17.59.26-.14-.09m23 18c-4.06-2.48-15.27-3-21.1.34-2.44 1.38-5.83 1.92-9.24 1.94m30.34-2.28-.45-.17.6.26-.15-.09m-159.63 2.18a20.38 20.38 0 0 0 10.23-2.15 20.28 20.28 0 0 1 9.25-2.29m-41.31.22c-3.9.06-7.88.63-10.43 1.81a25 25 0 0 1-9.02 2.27m41.31.14a29.39 29.39 0 0 1-11-2.4c-1.9-1.24-6.3-1.88-10.82-1.82m41.31-.22a27.16 27.16 0 0 1 12.39 2.8c2.69 1.38 7.57 2.11 12.39 1.76m115.33-2.35 1.87.68m-54.64-2.58a21.77 21.77 0 0 1 10.43 2c2.3 1.19 7.18 2.21 12 2.19M.2 137.86a32.77 32.77 0 0 0 7.92 1.88m0 0c4.55.37 7-1.15 11-2.46a22.84 22.84 0 0 1 8.47-1.79M53 139.27a30.36 30.36 0 0 1-12.59-2 33.06 33.06 0 0 0-12.78-1.79M158 134.8a23 23 0 0 0-10.62 2.46 23 23 0 0 1-8.86 2.27m62.56-4.25a33.57 33.57 0 0 0-10.82 2.24 29.23 29.23 0 0 1-8.65 1.83M158 134.8a23.69 23.69 0 0 1 10.64 2.2c2.16 1.22 7.07 2.68 13 2.34m-43.09 12.88a23.08 23.08 0 0 1 9.45 2.18c2.23 1.26 7.4 2.78 13.57 2.3m-130.42 0a30.35 30.35 0 0 1-11.42-2.06 32.42 32.42 0 0 0-11.6-1.81m225.12 1.74c-4-2.49-15.28-3-21.12.33s-17.31 1.79-21.25-.26-11.8-3.32-21.25.26a29.08 29.08 0 0 1-8.06 1.79m-67.28-4.32a20.63 20.63 0 0 0-10.42 2.27 19.11 19.11 0 0 1-7.87 2.13m-23-4.18c-4.25-.06-8.79.52-11.6 1.82a25.43 25.43 0 0 1-10.23 2.31m202.1-2.13c12.18 4.61 14.56 2.09 20.77.08a13.27 13.27 0 0 1 1.73-.68M53 152.59c4.09.06 7.91.7 9.64 1.82A29.77 29.77 0 0 0 76 156.77m-67.88-3.92A27.65 27.65 0 0 0 .2 154m233 .6-.47-.18.59.26-.12-.08m-139-2.2a27.23 27.23 0 0 1 11.22 2.79c4.46 2.27 15 2.81 21.24-.52a23.46 23.46 0 0 1 11.8-2.43m-21.24 19a21.78 21.78 0 0 0-13.38 2c-7.08 3.83-16.92 1.79-21.24-.26-3.54-2.29-15.74-2.55-21.25 0a25.23 25.23 0 0 1-10.23 2.31m110.36-4.22a20 20 0 0 1 6.49 1.91c3.15 1.79 12.2 4.09 21.64.51a31.59 31.59 0 0 1 14.95-2m-43.08-.37a24.53 24.53 0 0 0-14.75 2.17 24.23 24.23 0 0 1-10 2.33m116.53-2.41c.87.33 1.67.62 2.44.88m-204.5 1.25a30.45 30.45 0 0 1-11.41-2.05c-6.69-2.56-16.52-2.3-21.25 0-5.77 1.87-8.23 4.18-18.34.79m204.44-2.59a18.65 18.65 0 0 1 6.3 1.8c3.93 2 15.34 3.57 21.24.25s17.08-2.81 21.12-.33m-136-2a26.81 26.81 0 0 1 8.26 2.54c2.47 1.26 6.79 2 11.21 1.82m116.53-2.41-.47-.17.59.25-.12-.08m-8.53 19.66c2.85-.32 5-1.44 8.07-2.44a15.55 15.55 0 0 1 2.9-1m-23.68.94c6.15 2.32 9.8 2.84 12.71 2.51M51.2 188.36c4.31 0 8.41.64 10.23 1.82a29.53 29.53 0 0 0 12.79 2.38m18.29-4.42a20.5 20.5 0 0 0-9.83 2.29 19.45 19.45 0 0 1-8.46 2.14m-67.87-3.94a32.87 32.87 0 0 1 12.19 1.8c6.69 2.56 14.59 3 21.65-.25 2.67-1.24 6.94-1.82 11-1.82m41.31-.22a27.06 27.06 0 0 1 11.82 2.86c2.46 1.25 6.78 2 11.21 1.81m106.23-4.4c-3.92 0-8 .74-10.82 2.33a18.5 18.5 0 0 1-8.07 1.9m29.19-2.23-.47-.18.59.26a.5.5 0 0 0-.12-.08m-52.2-1.92a21.53 21.53 0 0 1 9.83 2c2.49 1.3 8 2.39 13.18 2.17m-196.52-4a29.89 29.89 0 0 0-6.15.79m231.86.94c-2.09-1.29-6.1-2-10.31-2m-85-.38a23 23 0 0 0-11.21 2.46 24 24 0 0 1-10 2.32m21.23-4.79a23.5 23.5 0 0 1 10 2.2c2.15 1.23 7.06 2.68 13 2.34m20.07-4.08a33.48 33.48 0 0 0-11.42 2.25 29.17 29.17 0 0 1-8.65 1.83m92.51 16.2c1.25.46 2.39.87 3.44 1.19m-140.21-3.23a26.94 26.94 0 0 1 9 2.63c2.54 1.3 7 2 11.6 1.8m66.69-4.2a32 32 0 0 0-14.16 2.15 29.4 29.4 0 0 1-9.44 1.86m-19.48-4.4a21.06 21.06 0 0 1 7.28 2c2.06 1.17 6.63 2.56 12.2 2.38m-19.48-4.39a24.16 24.16 0 0 0-14 2.28 23.67 23.67 0 0 1-9.64 2.3m66.69-4.2a19.61 19.61 0 0 1 7.23 1.89c3.94 2 15.35 3.58 21.25.26s17-2.82 21.1-.34m-136.77-2.05a21.54 21.54 0 0 0-12.59 2.13c-7.09 3.83-16.92 1.79-21.25-.26-3.54-2.29-15.73-2.55-21.24 0-7.05 3.28-15 2.82-21.64.26s-16.53-2.3-21.25 0c-4.27 1.39-6.73 3-11.8 2.39m246.54-2.47c-.15-.07-.3-.11-.45-.17l.59.26a.42.42 0 0 0-.14-.09M.2 209.92a31.91 31.91 0 0 0 5.56 1.27m236.65 19.65c3.94.08 6.29-1.31 10-2.52a15.92 15.92 0 0 1 3.3-1.12m-98.31 3.25a24.58 24.58 0 0 1-11-2.4c-3.14-1.78-13.11-4-21.24.26-3.33 1.76-7.84 2.44-12 2.35m-41.31-.21a29.07 29.07 0 0 1-10.85-2.4c-3.55-2.29-15.74-2.55-21.25 0-7 3.28-14.95 2.82-21.64.26a32.91 32.91 0 0 0-12.39-1.79m194.75 4c-4.56-.08-9-1.06-11.21-2.19-3.94-2-11.81-3.32-21.25.26a29.59 29.59 0 0 1-10.62 1.88M5.76 226.52a29.34 29.34 0 0 0-5.56.69m231.45 1c-4.06-2.48-15.28-2.95-21.11.34-2.63 1.48-6.36 2-10 1.93m-128.65-.05a20.57 20.57 0 0 0 10.42-2.14 20.37 20.37 0 0 1 9.61-2.29m139.73 2.21c4.86 1.84 8.16 2.54 10.76 2.61m-10.76-2.61-.45-.17.59.26-.14-.09m-118.48 2.43a23 23 0 0 1-9.25-1.84 27.16 27.16 0 0 0-12-2.79M27 243.05a31.65 31.65 0 0 1 10.62 1.82 30.66 30.66 0 0 0 11.21 2m202.28-2.14c-4.05-2.47-15.27-2.94-21.1.34-2.78 1.56-6.76 2-10.63 1.92M.2 246.33c8.34 2.37 10.84.27 16.18-1.46 2.51-1.22 6.47-1.87 10.63-1.82m173.5-.15a20.37 20.37 0 0 1 8.26 2c2.08 1.08 6.27 2 10.63 2.17m31.72-2.26-.45-.17.59.26-.14-.09m0 0c1.72.65 3.25 1.16 4.62 1.55M90.15 247a21.35 21.35 0 0 0 11.61-2.08 20.92 20.92 0 0 1 11.41-2.24m-23 4.32a28.94 28.94 0 0 1-9.64-2.34c-3.54-2.3-15.74-2.55-21.24 0a25.33 25.33 0 0 1-10.43 2.31m64.33-4.29a27 27 0 0 1 10.23 2.75c4.46 2.28 14.95 2.81 21.24-.51 8.13-4.29 18.1-2.05 21.25-.26s12.19 4.09 21.64.51a32.63 32.63 0 0 1 13-2.22M219.4 247v-.11m0 .11v9m-41.91-8.85V256m-43.08-8.64V256m-44.26-9v9m0-9.39v.39m-41.31 0v9m0-9.08v-.1M4 247.2v8.8" stroke="#d9b776" stroke-miterlimit="11.34" stroke-width="2.36" fill="none"/>
  </g>
</svg>
