<svg xmlns="http://www.w3.org/2000/svg" width="256" height="256"><path style="fill:none" d="M.04.04H256V256H.04z"/><path d="M238.92 240.1c-10 .6-22.36 1.77-29.42 1.19-5.64-.48-22.92-1.7-33.25-1.87m0 0c-2.6 0-4.76 0-6.18.1m35.6-229.77c-7.27.08-14.22.23-19.53.53m0 0a57 57 0 0 0-8.42.89c-1.44.34-3.24.64-5.28.91m-37.09 2c4.53 0 25-.44 37.09-2m55.4-2.33c-6.77 0-14.64-.07-22.16 0m37.66.19-7.65-.11m0 0-7.85-.09m15.5.2h2.71c2.41 0 5.83 0 9.94.07m-41.26 26.28c-4.51-.1-8.7-.07-12.23 0m-8.89.2c1.83 0 4.95-.12 8.89-.2m39.8 1.36c-1.51-.08-10.64-.58-20.91-1.1m0 0-1.3-.06c-1.82-.1-3.61-.15-5.35-.2M256 38.15c-4.81-.21-9.37-.38-13.47-.49h-.22M186 66.5c6.47-.59 23.54.59 34.72 0 5.78-.3 11.41-.3 15.51-.21m0 0c3.84.07 6.32.21 6.32.21 3.85-.25 8.43-.48 13.48-.68m-87.51 20.75c7.1.13 14.27.33 20.38.53 18.25.59 52.44-.59 52.44-.59 4.54.35 10.13.7 14.65.8m-87.47-.74c-14.08-.26-27.89-.25-32.58.53m64.45 30.41c-2.95-.18-5.83-.32-8.54-.4-20.6-.59-49.75-2.64-62.7-1.46s-32.82 1.24-36.93 1.83m111.71.27-3.53-.24m37.86 3.75c-6.87-.87-21-2.56-34.33-3.51M246.1 122c2.17.07 4.79.07 7.65 0m-12.36-.4-3.14-.41m3.14.41 1.13.15c1 .1 2.17.16 3.58.2m7.65 0h2.24m0 17.38a104.9 104.9 0 0 0-11.12 0s-20.07-.6-30.07-1.18-27.66-1.77-34.14-1.18-20 .59-24.13 1.18m-17.06 54.14c3.53-.59 11.18.58 24.13 0s34.13-1.77 47.67-2.94 34.78-1.18 34.78-1.18c2.41 0 5.83 0 9.94.07m-4.41 27.89c-2.67-.1-5.23-.19-7.65-.26m12.06.44-4.41-.18m-59.74-2.07c2.95-.59 25.31 1.77 31.78 1.18a113.69 113.69 0 0 1 15.6.32m0 0c2 .14 3.3.27 3.3.27h1.41M256 238.76c-5.91.22-11.24.47-15.63.76m15.63-75c-5.64-.33-10.83-.51-14.65-.32 0 0-13 1.77-17.13 1.77h-10M87.21 12.05l9.6.23m-9.6-.23c-3-.08-5.82-.17-8.35-.28-7.42-.32-28.59-.77-48.86-1.2m91.81 3a122.75 122.75 0 0 0-12.66-.9m0 0c-3.83-.14-8.09-.25-12.36-.35M30 10.57l-13-.24m-2.94-.05L0 10.08m14.12.2 3 .05M152.54 35c8.56 1.29 15.7.27 22.83.27M0 38.15c9 .38 18.92.85 28.48 1.14M152.53 35c-.62-.09-1.24-.2-1.88-.32a46.3 46.3 0 0 0-7.53-.56m0 0c-11.46-.12-28.94 1.66-40.12 1.19-14.13-.59-20.6 0-37.67 2.94-8.5 1.47-22.26 1.47-36.84 1m63.34 27c-1-.11-2-.23-3-.37C78.27 64.4 30.48 64.61 0 65.82m91.82.46c12.76 1.39 32.83 1.31 38.82.22 6.48-1.18 25.31-1.18 28.84-.59M0 87.31a46.28 46.28 0 0 0 7.06-.21c3.53-.59 14.42 1.18 25.6.59 3.84-.21 6.82-.52 9.34-.84m0 0c6.67-.84 10.07-1.68 17.43-.34 12.95 2.35 32.37 1.77 57.09.59m-65.6 35.33a156.91 156.91 0 0 0 18.93-1.56m-41.68 1.21L25 122m0 0c-1.21 0-2.35-.08-3.43-.1m48.25-1c.78-.11 1.55-.23 2.33-.36m-33.32 1.93c3.8.08 7.86.1 12.06 0m-22.75-.35c3.25.13 6.84.27 10.69.36m-17.26-.58H18.8c-5.8 0-12.7.16-18.83.23m80.15 15c17.37.14 42 1.23 55.2 1.23M18.26 140c2.75.05 5.68.08 8.81.08 19.42 0 25.9-.58 35.31-2.35 3-.57 9.59-.71 17.77-.64M0 139.44c3.94.12 8.58.31 14 .45m0 0c1.36 0 2.76.07 4.22.09M6.89 188.49l-5.69-.08m120.62 3.44c-5.59-.93-20.74-1.13-33.53-1.46m-81.4-1.9h3.23m73.17 1.71 5 .14m-5-.14-4.43-.16c-10-.44-44.71-1.19-68.74-1.55m83.45 24.88c-8.59.06-15.44.94-28.25 3.15-1.09.18-2.27.35-3.53.49M0 216.46c21 .88 46.86 2.29 61.79.6m113.58-3.44c-7.65 0-15.3 1.18-24.72-.58s-33.54 1.18-47.67.58c-3.52-.14-6.56-.22-9.41-.2m53.55 25.12c-2 0-4.1 0-6.18.08M0 238.76c30.53-1.14 76.36-1.31 86.71.17 12.35 1.77 35.31 1.77 41.78.59a95.69 95.69 0 0 1 12.45-.9m16.39.31a92.85 92.85 0 0 0-10.21-.39m-42.06-74.81h-3.23m14.22.36a87.24 87.24 0 0 1 8.71.73c11.18 1.76 35.9 1.76 54.14-.59 12.76-1.64 15.44-1.56 19.73-.76m-96.81.26c-15.84-.14-34.22.36-40 1.09A216.23 216.23 0 0 1 33 166.54c-1.32 0-2.83 0-4.48-.11m170.15-3c1.84.34 4 .82 7.34 1.35M0 164.52c9.68.56 20.69 1.58 28.48 1.91m83.35-2.55c-2.14-.07-4.41-.12-6.77-.15m11 .32c-1.33-.07-2.74-.12-4.22-.17M10.89 241.05V256m-6.48-14.65V256m9.71-14.95V256m3-15.24V256m3.82-15.24V256M103 242.52V256m3.23-12.89V256m3-13.18V256m3.77-13.18V256m-83-15.24V256m7.16-15.54V256m9.61-15.54V256M168 242.23V256m11.09-14.07V256m3.91-14.75V256m-21-14.07V256m-8.92-14.65V256m49-13.95V256m-8.55-14.24V256m-4.06-14.54V256m-3.39-15.42V256M211 242.64V256m7-13.36V256m-12.26-13.66V256M96.81 242.52V256m42.07-14.65V256m3.24-14.95V256m2.94-14.95V256m3.83-14.65V256m-71.33-42.67v-20.61m2.59 20.9V193.3m3.35-.58v20.9m-13.5-.29V193m23.54 20.41V193.6m0 19.82v.2m-7.06-21.1v20m33.83 30.28V256m12.36-14.36V256m103-13.18V256m7.65-13.77V256m-236-63.82v24.39m7.16-24.39v24.1m15.41-26.75V216m-2.58-25.27v23.21m-3.22-21.74v24.1m37.66.78v.09m1.11-26.5v26.41M55.61 191v25.91M47 192.57v23.21M36.69 191.4v23.2M33.05 192v23.2m207.06-.27v-24.1m2.76 23.5v-24.25M238 214.92v-24.09m13.73 22.42V190m-3.05 24.39v-23.17m-2.68 23.6v-23.21m-186.56-1.25v26.8M231 243.4V256m-98.3-60.45v16m11.09-18.67v18.37M126.72 195v16.31m-8.92-15.42v14.83m49-15.9v18m-3.13-17.86v17.57m-6.77-17.37v17.07m-4.22-17.37v17.08m-3.24-17.67v17.08m26.19-19.2v21.26m7-21.16v21.16m-12.26-17.66V213m-66.8-20.62v18.26m3.24-18v17.67m2.94-17.31v17.38m3.83-18v18.26m-16.18-18V211m103 1.18v-20.39m7.6 19.78v-19.68m-12.36 20.85V191.6m-3.11 21.4v-21.3m29 20.45v-20.36m7.65 19.78v-19.68m-12.36 20.85V191.6m-3.1 21.4v-21.3m14.12 52V256M10.89 10.06V0M4.41 10.06V0m9.71 0v10.28m0 .07v-.07m3 .37v-.32m0 0V0m3.82 10.06V0M103 12.12V0m3.23 12.41V0m3 12.63v.08m0-.08V0M113 12.12V0M30 10.57v.08m0-.08V0m7.16 10.65V0m19.92 10.65V0m18.43 10.94V0M64.14 11.24V0M72 10.94V0M46.78 10.65V0m37.67 11.82V0M168 12.12V0m11.1 9.47V0m3.9 8.78V0m-21 11.53V0m-8.92 12.41V0m49 8.88V0m-8.55 9V0m-4.06 9.17V0m-3.39 10.29v.36m0-.36V0M211 8.88V0m7 9V0m-12.33 9.75V0M96.81 12.28V0m0 12.28v.13m42.07.88V0m3.24 13.59V0m2.94 13.88V0m3.83 13.29V0m-28.55 13V0m12.36 13.59V0m103 9.84V0m0 10v-.15m7.65.21V10m0 0V0M79.92 9.76V0M57.08 240.52V256m18.43-16.37V256m-11.37-15.78V256M72 239.93V256m12.46-14.6V256m-4.53-17.25V256M231 9.76V0m-3.14 9.76V0m0 9.76v.1M9.14 120.18V88.45m-6.47.3v31.43m9.71.29v-32m2.94 32.32V88.16m3.83 32v-32m82.09 3.12v24.18m3.24-23.59v23.89m2.94-24.18v24.47m3.82-24.47v23.88m-80.26 4v-31.3m7.16 31.25V87.86M58 119.41V89.22m16.31 29.72v-30M65.11 120V88.92m5.13 29.43V88.63m-22.49 30.78v-32.9m35 31.37V90.1m83.57.89v21.76m11.08 1.42V90.69m3.92 22.79V90m-21 .68v21.47m-8.96-22.05v23m49 4.46v.14m0-26.84v26.7m-7.36-2.71V91.69m-3.26 22.08V90.51m-2.86 24.54V91.4m-2.51 23.95v-26m24.83 28.31V91.4m7 26.34V91.39m-12.26-.29v26.65m0 0v.78M95.06 91.28v24.47m42.07-25.65v23.83m3.24-24.12v24.41m2.94-24.41v24.71m3.83-24.42v23.83M75.82 63.44V38.76m3.47 25V39.35m2.47 24.39v-25M68.28 62.09V41.77m23.54 24.68v-.17m0 0v-28m-7.06 24.38V38.57m33.84 53v22M131 90.4v23.82m103 4.5V88.86m7.65 32.67V88.28M77.88 118.17V89.81M5.61 65.32V40.94M12.77 65V40.93M25.9 65V40.93m2.58-1.64v-1m0 1v25.45m-6.1.29v-24.1m38.78 23.63V42.12m-7.3 22.14V42.41m-8.63 22.13V41.33m-9.12 22V40.15m-3 24.39V41.33m209.19-3.68v28.44m0-28.44v-.72m-3.18 2.65V65.5m-2.93.79v.09m0-.09V39.58m13.74 25.14V38.8m-3 1.17v25.92M57.69 64.56V41.82m171.54 76.71V89.45M131 65.74V37.53m11 26.56V36.24m-17 29.21V36.94m-8.92 27.92v-27m49 27.74V36.76m-3.14.1v28.41m-3.43 0V37M151 64.68V36.77m-3.23.76v26.56m26.18-26V64.8m7-26.58V64.8m-12.33-27.15v28.2m-66.8-1V37.11m3.24 27.45V37.41M108 64.56V37.7m3.83 27.16V37.11M95.65 63.8V37.41m103 .43V65m7.65-27v26.38m-12.38-26.73v27.91m-3.13.3V37.75m29 .09V65m7.65-.59V38m-12.36-.3v27.86M212 37.75v28.11M75.82 139.33v23.32m2.29-23.32v23m3.65-23v23.61m-13.48-23.32V164m23.54-23.79v22.73m-7.06-23.81v22.74M5.61 141.5v23m7.16-.29V141.5m15.71 24.93v.22m0-.22v-24.87m-3.17.82v21.86m-2.93-22.74v22.74m38.78-22.92v22.44m-7.3-22.14v21.85m-8.63-22.93v23.21m-9.12-23v24.56m-3-23.39v24.57m209.19-26.28v23.73m-3.47-22.56v20.51m-2.64-19v21.39m13.74-1.67v-20.5m-3 1.18v20.5M57.69 141v22.73m73.27-23V165M142 139.51v23.79m-17-23.08v24.44m-8.92-.61v-24.31M165.08 164.75V140M162 164.47v-24.33m-6.77.19v23.85M151 140v23.85m-3.23-23.09v22.5m26.18-2V141.4m7 19.89v-19.8m-12.26 23.57v-24.14m-66.8 22.77v.38m0-.38V139m3.24.3v24.39m2.94 0v-24.07m3.83 24.26v.19m0-25v24.85m-16.25-24.59V163m103-21.88v22.31m0 0v.75m7.65-23v22.38m-12.36-1.53v-21.11m-3.13 21.44V141m29 .1v24.42m7.65-24.33V165m-12.36-24v23.85M212 141v24m14.13-46.44V89.75m27.55 29V88.86m-4.71 29.67V89.45m-3.13 29.18V89.75M25.68 120.29V89m94.07 125v24.68m3.15-24.88v25m3-24.19V239m3.83-25v25m-16.18-24.68v24.39m23.54-23.8v22.73M52 218.92v17.61m6-17.61v17.32m19.91-20v20M90 213.57v25.09m-5-23.21v23.2m-48.31-18.84v17.31m12.06-18.61v18.32m-5-16.44v16.43m23.93-20.61v20m37.66-21.56v25.15M99.16 215v24.56m3.84-25.17v25.44m73.26-.41v.24m0-.24v-23.9m11.08 1.41v22.44m-17.06 0v-24.44m-8.93.88v23m47.57-22.38v23.38m-2.39-23.48v22.89m-3.33-22.79v22.49m-2.86-22.78V240M193 215.52v23.85m26.19-23.26v24m7-23.87v23.87M212.56 217v22.79M2.94 218.39v18.36m23-17.84v18M22.85 219v17.57m-3.43-17.47v17.47m-3.33-16v17.08m-4.22-17.37v17.08m-3.24-17.68v17.08m20.89-17v17.36m117.6 1.38v-24.8m0 24.8v.24m3.24-23.39v23.1m2.94-22.8v22.8m3.82-23.39v23.68m-16.18-.16v.45m0-.45V214m103 1.79v.21m0 0v22.9m7.65-22.62v-.35m0 .35v22m-12.36-22.59v23.77m0-23.85v.08m-3.14 0v24.05M118 68.21v17.91m3.32-17.81v17.9m2.86-17.41v17.61m3.82-18.2v18.2m-16.18-.29V68.51m23.54-.77v17.32M50.27 66.32v19m6-17.61V85m19.96-18.68V87.7m12.06-21.32v21m-5-19.14v19.17m-48.36-.18V65.85m12.07.06v19.67m-5 1.27V66.44m0 20.41v.09M65.93 65v20m37.66 2.23V68.85m-6.18 18.09V69.15m3.83 18.08V68.56M174.5 67v17.35m11.09-15.95v15.66m-17.07 2.51v.2m0-.2V66.4m-8.92 2.23v17.55M208 68.26v16.21m-3.26-16.7v16.11m-3.33-16v15.71m-2.86-16v17.06M191.28 67v17.06m26.18-16.49v17.19m7-17.09v17.09m-13.65-16.31v16M24.25 87V66.31M21.1 86.69V66.41m-3.43 20.28V66.51m-3.33 17.17V68m-4.22 18.1V66.32M6.89 85.51V65.72m20.89 21.56V67.2m117.59-.64v19.62m3.24-18v17.71m2.94-17.38v17.38m3.83-18v18.29m-16.19-19.32v19.61m103-19.18v16.3m7.65-16.2v19.67m-12.36-20v17.11m-3.14-17v17.3M121.93 14.68v19.26m3.32-19.16V34m2.86-18.77v19m3.83 0V14.68m-16.19.32v19m23.54-1.06V15.56m-85.1-4.13v25.74m6.05-25.74v25.45m19.91-24.09v22.73M92.22 14.2v19.68M87.21 12v23.23M38.86 12.32v25.44M50.92 11v26.46m-5-24.55v24.56m23.93-24.68v24.09m37.66-21.56v19.73m-6.17-19.44v19.15M105.16 15v20m73.27-23v22.88m11.08 1.06V12.16m-17.07-.07v-.58m0 .58v22.5m-8.92.76v-18.9m47.86 19.31V11m-2.68 24.76V11.52m-3.34 24v-23.9m-2.86 24.67v-25m0 25.21v-.24m-7.3-.35V10.74m26.19 25.81V11.32m0 25.23v.09m7 0V11.42m-13.65 24.93v-.06m0 0V12.21M5.12 10.9v26.5m23.05.11V11.42M25 37.22v-25.7m-3.4 25.7v-25.6m-3.34 26.66V13.07M14 12.78V38m-3.2-25.81V37.4m20.9-25.1v25.51M149.3 34V14.38m3.24 20.68V16m2.94 19V16.33m3.82 19V15.74m-16.18 18.42V14.68m0 19.48v.13m103-23.24v24.42m7.65-24.32v23.73m-12.36 1.18V10.85m-3.13 25.5V11M118 167.42v22m2.84-21.87v22.26m3.35-21.81v21.68m3.81-22.26v22.27m-16.18-23.33v23M135.37 171v17.31m-86.21-20.07v20.32m7.16-21.67v21.38m19.91-22.74v22.74m12.06-22.68v24.8m0 .29v-.29m-5-.14v.43m0-.43v-22.78m-48.36 1.66v17.31M47 167.83v19.67m-5-19.14v19.14m23.93-19.26v20m37.66-22.91v25.17m-6.18-24.85v24.56m3.83.29v-25.44m73.26 5.2v17.36m11.09-21.37v21.08m-17.07-17.66V190m-8.92-20.8v20.25m47.86-20.08V186m-2.69-19v20.17m-3.33-20.08v19.79m-2.86-20.08v21.14m-7.3-21.73v21.14m26.18-19.2V188m7-19.8V188m-13.61-19v18.73m-186.6-20.85v19.31M21.1 167v18.9m-3.43-18.83v18.83m-3.33-17.37V187m-4.22 1.58v.83m0-.83v-21.7m-3.23 21.61v.3m0-22.5v22.2m20.89-20.73v18.72m117.59-16.64v19.61m3.24-18v17.67m2.94-20.09v20.09m3.83-20.68v21m-16.19-19.32v19.62m103-23.24v20.35m7.65-20.26v19.67m-12.36-18.61v19.79m-3.14-19.69v20m-112.4-51.89V116.6m3.31 19.4v-19.31m2.65 19.85V117m4 19.16V116.6m-16.19 19.25v-19m23.54.59v17.31m-85.1-11.95v13.54m6.05-13.54v13.24m19.91 1v.37m0-17.31v16.94m12.07-19.59v18.31m-5 1.36v-17.76m-48.32 20.32v-17.24m0 0v-.07m12.06 14.3v-14.24m-5 .52v16.44m23.93-3.31v-15.21m0 0v-.74M107.51 137v-19.76m-6.17 19.43v-19.14m3.82 19.47v-20m73.27 2.49v17.31m11.08-17.31v15.66m-17.07-16.31v17.67m-8.92-18.14v18.9M212 120.41v16.21m-3.25-16.41v16.12m-3-16.72v15.72m-3.45-16.61v17.08m-7-17.72v17.07m26.19-13.78v17.2m7-17.1v17.1m-13.75-17.67v16M5.12 139.31v-15.65m23.05 15.77v-17.35m0 0v-.61M25 122v-.39m0 17.57V122m-3.43-.1v17.28m0-17.28v-.19m-3.31 18.49v-.2m0 0v-16.88M14 139.89v-17.06m-3.2 16.48v-17.07m20.9.12v17.37m117.6-23.43v19.62m6.18 1.06v-18.73m3.82-.59v19.61m-16.18-20.67v19.61M246.1 122v15.37m0-16.29v.92m7.65 0v-.88m0 .88v14.8m-12.36-15.13V138m0-17.08v.77m-3.13-.67v.26m0 0v17M1.18 165.34v22.2" style="stroke:#d9b776;stroke-miterlimit:11.34;stroke-width:2.35px;fill:none"/></svg>