<svg viewBox="0 0 256 256"><path fill="none" d="M0 0h256v256H0z"/><path fill="none" stroke="#d9b776" stroke-miterlimit="11.34" stroke-width="2.36" d="M250.68 69.24c1 4.68 1.56 13.52.52 21.85m.82 13c-1.56 7.8-1 22.37.51 26.54m-11.94-50.29c1 8.84 1 12-1.05 21.33s-2.08 13.52 0 20.29m-13.3-29.43c2.08-9.89 3.06-18.29 1-25.57M226 103.45c-.26 5.47-1 3.39-1.56 9.36s4.47 19.31 8.12 25.55m-21.93-62.74c2.08 8.32 1.56 14.57-1 24.71s-1.83 14.49 2.59 21.51M197.1 89.41c.27-5.2-1-14-3.89-21.33m3.38 30.43c-1.56 10.67-5.79 31.26 2 39.85M190.81 59a80.39 80.39 0 0 0-1.55-12.29m-6.46 40.81a83.73 83.73 0 0 1-1.56 23c-1.56 6.76 3 25.34 5.85 30.54m-17.56-39.13c2.08-11.18 1.56-21.59 0-31.73m-2.08 41.36c-1.56 6.24-1.56 18.47.78 22.11M157.82 85a50.75 50.75 0 0 1-2.6 24.19c-2.86 8.59-3.38 19.51-.78 25.5m-11.18-34.6c2.34-9.36 1.3-23.21 0-30.75m-1.9 41.85c-3.51 16.36-4.28 31.44-1.93 35.25m-11.26-19.81c-.78-4.43-.52-11.45 1.82-20.82s1.82-13.52 1-25m-11.7 12c1-5.73 3.46-19.24 1.37-27.31M118 103.19a72.57 72.57 0 0 1-1.3 8.85c-1 6-1.56 16.9 1.3 22.38m-12.64-56.55a150.93 150.93 0 0 1 .25 32.35c-1 8.84-1 19.25.78 23.41m-10.62-41.1c.26-6.76-1-12.75-3.9-21.59m1 34.6c-1.56 7.28-2.6 21.33 1.82 28.61M80.24 112c0-2.61.26-1.82 2.08-10.93s-.95-19.3-3.81-32.07m6.06 71.88c-.4-4.37-.95-15.2-2.37-20.5M69.14 78c2.08 10.67 2.6 17.17.52 26.53s-1.82 20.56 1.56 28.88M58.43 89.67c.26-5.21-2.27-14.68-4.61-22.48m2.79 38.6c-2.34 9.11-3.13 23 2.85 32.67m-16.09-29.8c0-2.86-.26-2.61 1.56-10.41s1-13-.52-23.67m125.07-17.4s-1.2-40.1-5.66-45.82M35.13 81.42c-1.3 8.32-3 23.59-4.58 29.32s-3.9 16.9 0 23.41m-8.89-31.47c.26-1.56-.26-3.64 1.3-11.19s.26-13-1-21.58m-3.16 46.55c-1.3 5-1.82 10.67-.52 14.31a82.14 82.14 0 0 0 4.8 9.73m-13.69-4.79c-3.38-6.77-1.82-17.69.53-26s.78-21.07-1.3-28.36m32.93 39.28c.26 5.2 7.47 22.62 9.81 26M5.64 197.1c-2.34-7-1.3-13.52 1.3-22.63s1.82-12.22-.26-22.63m11.71 18.73c-.26-.78 1-3.64 1.56-8.85S18.39 149.5 16.31 144m.52 33.56c-2.08 6.24.72 20.9 3.58 26.62m8.91-53.67c1.3 6.5 2.6 9.89-.52 19.51s-2.61 17.17-.78 22.36m12.84-30.47c1.3-6.51 0-13.79-1.56-20.29m2.5 31.52c-2.34 6.5-1.71 22 .11 27.16m12.38-41c.26 5.46.52 6.25-1.56 14.83s-4.59 23.53-1.73 29m15.52-54.49c1.56 7.28 2.85 13.26.26 21.59s-4.69 15.87.25 25m10.41-23.94c.52-2.85 1.82-5.45 3.38-11.18s-2-11-3.79-18.55m.52 37c0 5.47-.21 12.25 1.61 15.89m10 7c-1-6-1.53-22.62 1.85-30.94s.78-12.75-1.56-22.63M103.2 163c.52-3.9-1-13.78-3.91-20m2.08 31.47c-1.82 6.24-1.47 22.36-.17 26m7.2-8.06c-1.3-4.95.78-14 2.86-22.63s.52-12.23-2.34-21.85m12.48 10.93c0-3.13 2.27-12.62 1.23-17.83m-2.43 29c-.52 5.46-.26 4.68-1.56 9.62s3.2 29.58 4.51 33.22m9.44-19.69c-.78-3.64-.26-11.45 1.56-18.21s-.26-12.75-3.12-24.71m14 46.17c-.53-3.12-3.07-9.23-1-16.78s1-11.18 0-15.6-1.82-7.29-1.56-12.49M155.3 144a109.81 109.81 0 0 0 1.82 17.17m.52 7.81a77.14 77.14 0 0 1-1.29 13c-1 6.5-.73 18.06.06 20.67M180.05 162c.79-7.8-1.67-15.17-4-23.23m2.45 32.6c-1 8.06-2.6 15.35-1.55 20.29s.71 13.7.71 13.7M191 149c.78 10.66 1 10.92-1 18.73s-1.38 22.71 1.22 28.69m23.73-1.64c-2.6-6.76-3.64-14.82-1.56-25s.29-31.72-4.43-39.4m16.78 35.35c.52-6.25-3.42-23.61-5-30.11m3.82 40.66c-1 6.51 1.3 21.48 2.6 25.91m9.9-11.08c-.78-3.65-.26-11.18 1-20s0-12.22-2.34-22.37m14.06 8.06c0-4.42.31-12-3.71-18.32m4 31.07c-1 6.24-4.6 22.24.35 32.38M6.76 31.25c-.26-.78 1-3.64 1.56-8.85s2.33-11.29.24-16.75M5.2 41.32c-2.08 6.24 1.31 22.07 4.18 27.79m7-13c-1.82-5.2-2.35-12.74.78-22.37s1.82-17 .52-23.53m11.19 12.94c1.3-6.51 0-11.18-1.57-17.69m2.62 29.43c-2.34 6.51-1 30.11.78 35.31m12-47.09c.26 5.46.52 6.24-1.56 14.83s-.79 22.21 2.08 27.67m11.71-58c1.56 7.28 2.86 18.09.26 26.42s-4.69 15.86.26 25M63 29.75c.52-2.86 1.82-5.47 3.38-11.19s.52-8.23-1.3-15.77m-.54 34.57c0 5.46 4.2 26.84 6 30.48M74.92 51c-1-6 1-12.22 4.42-20.54s.78-13.75-1.56-23.64m14.49 29.31c.52-3.9 1.77-15-1.09-21.23m-4.81 28.23c-1.82 6.24-3.12 18.73-1.82 22.37M98 63.71c-1.3-5-.43-24.66 1.65-33.24s.52-18.06-2.34-27.68m13 28.36c0 3.35 2.36-9.8-.18-22.52m2.43 30.48c-.52 5.47-2.28 9.74-3.58 14.68s-.78 13 .52 16.64M121 53.09c-.78-3.65-.26-11.44 1.57-18.21s-.27-20-3.13-31.95m12.46 63.86c-.52-3.12-1.53-15.85.55-23.39s1-11.19 0-15.61-1.83-5.2-1.56-10.41m11.64-12.67c0 4.68-2.64 13.79-1.86 17.17m2.66 10.85a76.94 76.94 0 0 1-1.29 13 37.68 37.68 0 0 0 .51 15.08m9.63-15.6c1-8.85 3.26-34 .39-43.67m8.32 42.79c-1 8.06-5.58 18.29-4.54 23.23a54.84 54.84 0 0 0 1.82 7m19.33-72c.78 10.67 1.05 17.22-1 25s-3.38 14.31-.78 20.28m13.11-7.69c.26-2.08 1.57-5.2 2.6-10.67s.27-6.11-.51-11.83m11.74-11.53c1.82 8.06 2.6 13.27.52 23.41s-3.05 26.23-.44 33M216.3 28.3c.53-6.25 1-20-.58-26.51M212.92 40c-1 6.5 1.2 25.9 2.5 30.32m11.08-15.5c-.78-3.64-.26-11.18 1-20s0-9.14-2.34-19.29m14.32 5a98 98 0 0 0-1.3-18.11m1.56 30.85c-1 6.24-5.26 21-.31 31.18m9.44-59.9c1.56 8.58 1 21.7 0 29s-2.09 15.61.78 22.63M12.43 225.2c.78-5.21.26-10.41-1.56-18.47m-1.62 25.49c-2.08 6.51-5.64 17.78-3.82 22.16M22 212.71c1 7.55-.78 12.22-2.08 18.73s-2.09 16.57-.26 21.78m9.69-7.72c2.61-8.07 5.85-42.14 4.81-47.6m9.73 19.17c.26 7.28-.44 5.73-1.82 12a119.9 119.9 0 0 0-2.83 26.84m25.16-9.37C63.09 241 63.87 240 67 232s2.08-10.14 1.56-19.25m13.67 8.84c.52-4.42-3.14-14.28-4.7-19m.11 26.25c-1.82 4.68-5 16.07-4.45 23.62m14.27 3.47c0-6.79-.33-17.82 2.08-23.45 3-6.88 2.34-10.93 0-20.55m20 41.75c-1.3-5.72.1-17.56 2.44-23.54s1.37-16.64-1-26.27m12.48 17.69c-.52 4.43-5.32 21.42-4.28 24.8m9.7 9.51c0-9.14.71-24.29 2.73-30.1 2.21-6.39 2.66-16.53.32-24.85m18.19 44.75c-1.56-5.19-.26-7.2 1.82-15s2.08-12.23-.26-19.77m12.34 9c.26-3.38 2.5-10.72 1.46-15.66m-.48 22.13c-1.82 5.21-5.88 20.28-5.1 23.92m9.9 4.3c-1.82-5.2-.78-13.79 2.34-20.55s2.86-11.44.78-22.63m18.22 44.46c0-7.69.94-18.55 3.9-23.91 4.8-8.72 6.3-12.94 2.66-22.56m11.14 10.6c.52-2.59-1.55-18.33-5-21.73m-3.4 55.39c1.56-5.2 5-17.41 5-23.91m10.77 19.64c-.26-3.12-1.72-7.8.36-13.26s3.64-8.84 1.56-16.64.41-6.38-.37-11.32M39.23.07c.2 6 .9 9.14 2.59 11.09M87 5.41c.36-.76.45-2.58.47-5.28m41.41 0c0 4.05.11 9 .32 9.31M191.13.08c0 4.22.37 9.67.86 10.48M228.54.08c0 2.23 0 7 .19 7.66m-.19 248.13c.1-7.51 1.18-21.37 2.38-26 1.56-6 0-13.27-1.3-18.47m23.68-1.56c.51 6 .78 7.55-.78 13.79s-3.11 21.94-1.29 27.92m-85-57.86c-1.57-4.73 0-10.25 1.58-22.08s-.79-13.4-1.58-22.86m14.21-94c-.26 7 1 17.73 2.35 21.11m-1.19 172.48c-2.57-7.33.63-16.7 3-24 3.12-9.62 1.81-13 .52-19.51M202.19 147c1.3 6.5 2.6 9.89-.52 19.51s-2.6 17.17-.78 22.37m-61.69 63.05c-1.82-5.21-.53-14.51 2.6-24.14s3-15.91 1.74-22.42M97.73 248.8c-1.81-5.2-1.58-9.94 1.54-19.57s1.12-13.64-.18-20.14m-39.42-10c1.3 6.5-1.82 18.81-4.94 28.43s-2.94 21.24-1.12 26.44M241.67 248c-1.82-5.21-2.34-10.34.78-20s-.45-18.68-1.74-25.18"/></svg>