<svg xmlns="http://www.w3.org/2000/svg" width="256" height="256"><path style="fill:none" d="M0 0h256v256H0z"/><path d="M0 26.08c9-4.28 8-6.91 9-14.71C9.69 5.56 14.82 2.62 21.67 0m20.09 0c-7.06 3.62-14.45 6.8-16 10.77-2.39 6-3 19.14-10.77 20.93S6 35.89 6 41.87c0 5.49 2 9-6 17.36M51 0c-1.2 4.27-1.49 4.63-7.34 6.58C36.49 9 31.1 8.38 27.51 17.35S22.13 33.5 16.75 35.89M0 68.54c4.18-2.89 6.15-5.44 6.58-12.31M58.34 0c-3.7 5.7-7.86 10.16-12.28 11.37-6.58 1.79-16.75 8.37-18 15s-.6 7.18-6 11.36-12 12.57-11.36 18.55 1.19 6-2.4 12-9.5 23.24 1.27 21.44S32.3 74.17 40.67 76s6 7.78 12.56 7.18 11.37 6 5.39 10.17-19.74 7.78-25.13 12.56-10.76 6-16.74 7.18-15.55 6-3.59 9 13.76 6 18.54 9.57 5.38 5.38.6 8.37a34.11 34.11 0 0 0-8.38 6.58c-3 3-4.18 4.79-10.76 4.19-5.16-.54-8.89-1.8-13.16.69m0-12.05a25.07 25.07 0 0 1 4.19-.08c4.78 0 5.38.6 8.37-3s0-4.78-4.19-5.38c-2.49-.36-5.41-3.05-8.37-6.3m0-17.58c6.22-4 14.91-6.38 19.14-7.22 6-1.2 9-4.19 13.16-9s-6.58-1.2-14.36 3C12.74 96.71 6.45 97.37 0 96.77m5.38 15.68c2.4-4.19 8.38-4.79 13.16-5.38s10.17-4.19 13.16-7.78 9-5.38 14.36-7.18 4.18-4.18-1.2-5.38-3.59.6-3.59-3.59-5.38-3-12 1.2M0 144.73c3.6-1.86 5.87-1 9.57-.58 4.78.6 6.58 0 10.77-3s3.58-2.39 4.78-7.78S16.75 126.8 9 125m-9 36.1c6.81-3.33 16.06-3.46 20.93-2 6 1.8 15-7.18 18-12s3-7.18 9.57-9-3.59-12-14.36-14.95-.6-7.78 4.79-9 7.18-2.39 12-4.78 8.37-4.19 13.76-4.19 5.38-1.19 8.37-6 3-9.57 0-12.56-4.19-4.19-4.19-9-4.87-5.25-8.46-5.25-6.58.6-11.36-1.79-9-2.39-22.73 3-13.16.6-11.37-2.39 1.8-5.38.6-10.17 9.57-15.56 16.15-22.74 13.16-18.54 20.93-19.14C59.06 18.65 64.26 10.81 74 0M0 172a22.75 22.75 0 0 1 15-2.72c7.18 1.2 11.37-1.79 17.35-7.18M0 180.35c8-3.78 14.75-1.51 21.53-1.51 7.78 0 16.15-10.17 18.54-16.75S53.83 148.34 61 142.35s-1.8-10.76-7.18-15.55 1.2-7.17 6-11.36 12.56-4.79 22.73-6 9.57-8.38 7.78-12-2.4-4.79-1.2-10.77 0-5.38-6.58-9.57-4.2-6.52-6.55-10.71S65.2 64 61.61 64a16.26 16.26 0 0 1-10.17-3.59c-3-2.39-9.57-1.19-16.75 1.8s-8.37-.6-7.77-4.19 3.58-6 9.57-9 3.58-5.39 5.38-9.57 11.36-12 15.55-13.16 7.18-3.59 12-9S76 9.57 82.54 7.18c4.22-1.53 7.21-3.56 11-7.18M0 191c6-3.47 13-2.76 22.73-3.78 11.36-1.19 16.75-6 19.74-12s6-6.58 10.16-10.76 1.8-4.19 5.39-8.38M0 203.25c10.2-5 9-5.94 17.35-6.47 9.57-.59 15.55-1.79 20.93-6.58s1.2-1.19 9.57-4.18 8.37-4.79 10.17-10.77a35.84 35.84 0 0 1 .2-6.18c.4-2 1.59-4.38 4.38-7.18s1.6-5.58 2.39-10.36 2.8-6.78 5.19-9.17 3.39-1.2 3.39-1.2c4.19-2.39 2.39-2.39 4.19-6.58s3-4.79 6.58-7.78 16.74-6 24.52-8.37 5.38-9.57 3-15.55 0-5.38 3.59-12.56-4.8-14.32-10.18-17.94-8.37-7.18-12-12.57-11.37-7.17-20.94-8.37S61 44.26 61 38.88s9-12 14.95-14.35 6-1.8 9-6.58 4.19-4.79 12-6.58c6-1.39 11.62-4.9 16.91-11.37m13.68 0c-3.14 6.07-6 6.44-10.86 8.38-6 2.39-9 4.18-12.56 7.17s-3 3.59-8.37 5.39-10.77 3-12 6.58-2.4 2.39-5.39 5.38-4.78 9.57 0 11.36 12.57 0 15 4.19a81.78 81.78 0 0 0 10.17 13.76M58.34 256a95 95 0 0 0 5.06-9s.6-2.1 2.09-6.58 4.79-13.16 7.78-17.65 22.43-8.67 26.62-10.47 10.17-12.26 14.35-19.13.3-10.77-1.79-14.06-4.49-6.58-3.29-11.66S123.81 157.31 128 157s11.66-4.79 17-6.88 24.23-.9 29.31-.6 7.48.9 11.07-.3 9-.89 16.45-1.49 15.25-6.58 18.84-9.57.6-4.79-1.79-5.69-10.17 1.5-14.66 2.4-12.26.3-16.15-3-6.88-2.4-13.76-2.69-7.17-7.48-7.17-10.77a11.28 11.28 0 0 0-3.59-9c-3-3-2.4-8.08-2.69-13.16s6-7.78 10.46-10.17 2.1-1.19 2.1-1.19c6-4.19 1.79-4.19-1.8-5.39s-6-1.19-9-5.38-14.95-8.37-22.73-12-7.17-10.77-9.57-15.55-6-5.39-4.78-9.57S143 24.53 150.13 19.74C155.25 16.32 158.55 9 160.45 0m5.48 0c-1.94 11.47-6.25 20.81-14.6 25.72C141.16 31.7 140 33.5 137 35.89s-4.19 2.39-.6 7.18 3 3 3 7.77 1.2 11.37 11.37 12.56 9.57 3.59 16.75 7.78 10.16 3.59 13.75 4.19 4.79 0 6.58 3.58 3.59 5.39-2.39 7.78-10.77 2.39-11.37 7.18-4.18 25.12 1.2 28.71M178.08 0c.88 12.41 1.63 19.61-9.41 25.12-13.16 6.58-19.74 12-17.94 15.55s1.79 2.4 0 6.58 2.39 9 7.77 9.57 10.17 1.2 11.37 5.39 7.18 5.38 12 5.38 14.36 1.2 17.35 5.38 13.15 8.38 3.58 13.16-19.14 10.77-20.33 15M139.21 256a50.94 50.94 0 0 0 1.35-8.38s0-1.79-.3-5.08.9-3.59-2.09-12.26-3-15.42-1.5-21.53c1.5-6.29 10.22-12.72 11.37-16.15 3-9-3-9.87-5.68-14.36s.59-6.58 8.07-9.57 12-1.79 21.53-.9a37.18 37.18 0 0 0 20.93-4.18c3.89-2.1 6.29-1.5 12.87-1.5a46.63 46.63 0 0 0 18.84-4.18c6.28-2.7 7.17-5.09 9-7.48a30.29 30.29 0 0 1 9-7.78c4.49-2.69 6.58-7.18 8.37-11.36s-3-9-7.47-11.37-14.36-2.09-18.54-.89-4.19.29-8.68-1.5-10.76-1.2-15.55 1.2-6.28-.9-6.88-2.09-1.49-1.5-5.38-.9-.9-5.39.3-6.88.6-2.39.9-4.19c1.15-6.9 12-7.17 18.54-10.76s4.19-11.37 4.19-16.75S207.55 65.8 199.78 64s-7.18.6-9.57-1.2-5.39-4.8-8.38-4.8-6-1.79-10.17-5.38-8.37-6-9-10.17 9-9.57 18.54-14.95c8.19-4.61 5.43-16.65 4.47-27.52m12.85 0c2.16 16.42.9 25.14-5.36 29.31-7.17 4.79-12.56 4.79-12 10.17s.6 12.56 9.57 15 9.57 3 16.75 4.19 9 1.79 11.36 6.58 2.4 9.57 4.19 11.36c0 0 6 7.48.6 13.16s-11.37 10.47-12.86 13.16-1.5 6.58 4.18 6.28 8.38-2.4 11.37-.6 5.68 3.59 8.67 2.39 4.49 1.2 6 2.7M212 0c4.08 8.92 7.63 16.74 2.72 22.13-6 6.58-15.55 12.56-15 17.35s0 9 9.57 10.76 19.74 3 22.13 8.38 3.89 17.64.31 21.23c0 0-2.4 2.69-1.8 5.38s-.6 7.48-3.29 10.47M219.47 0c4.87 12.06 9.47 16.38 1.24 25.12-9.57 10.17-18.55 16.75-6.58 18.54s16.15 3 20.33 7.78 6 6.58 6.58 10.76-1.79 3.59 1.2 8.38-1.2 6.58-4.19 10.76a9.32 9.32 0 0 0-4.48 6.29c-.9 4.48-1.5 13.16 4.18 13.75s15 0 12.57 3-7.48 3-6.58 5.39M0 217c6.3-5.53 10.48-9.94 17.94-11.8 9.57-2.4 10.77-1.8 18.55-5.39s6-5.38 13.75-6c0 0 7.18.8 10.37-3.19s5.18-6.77 4-13.16-.8-8 0-11.16M0 243.53c8.07-4.82 15.69-4.31 24.52-12.65 0 0 3.73-3.13 3.13-7.32s-6.28-9.57-3-12.56m-10.16 17.35c4.19-2.7 4.19-7.48 2.69-9.57s-5.22-.47-5.22-.47c-6.33 3-8.49 5.27-12 7m0 22.54c1.45-1.68 3.42-2.39 9.57-3.23 13.16-1.79 15.55-2.39 23.33-11.36s9-13.76 4.78-18.54c0 0-6.18-1.8-2.59-5s9.17-4.38 13.16-6.77 10-3.59 15.15-4 17.15-4.39 14-10.77a46.68 46.68 0 0 1-4.79-14.75c-.4-3.19-.8-4-2-8.38s3.19-15.94 7.57-21.53S94.11 130 102.48 128s16.35-2.79 19.14-6.38 3.19-6.38 1.59-11.56a48.52 48.52 0 0 1-1.59-12c-.73-5.64 6.52-6.46 8.17-12 1.8-6-.59-7.17-9-12s-9.57-6.58-10.76-15-.6-3.59-4.19-7.18-8.35-6.42-10.14-14.19 6.58-9.57 10.77-13.76S122.62 13.76 131 8.38c5.21-3.38 7.18-5.09 8.21-8.38M21.67 256c4.45-1.7 9.63-3.27 14.82-5.39l3-2.59c2-.79 3.59-3.19 6.77-7.18s2-8 2.8-15.55 3.59-8.77 11.56-15.55 18.74-5.18 23.13-6 6.38-2.39 8.77-6-2.39-8.77-7.57-12.36-6.79-17.15-6.39-22.33 11.57-18.74 17.55-23.52 22.73-7.18 30.3-9.57 10.37-9.57 6.78-15.16-2.79-8.37-2.39-12.76 6.2-9.33 6.2-9.33c4.19-4.19 4.19-7.77 1.8-13.16s-9.6-8.37-16.8-13.75-6-7.18-6.58-12.56-.6-4.79-7.18-10.77-1.79-8.37 1.8-12.56 9-6.58 19.73-11.37c9.46-4.2 13.38-7.95 16.63-18.54M41.76 256a52.2 52.2 0 0 0 9.68-6s5.68-3.3 5.68-9.57 3.88-20.92 11.36-24.21 23.33-5.08 27.22-10.77 7.78-13.75.89-20.93-16.44-18.24-6.87-30.2 23.92-16.75 30.2-16.75 20.64-1.2 24.52-7.18 3.9-11.66.31-14.95l-4.75-5.38c-4.19-6.58 2.39-15.55 5.38-21.54s3.59-8.37 1.8-13.75-8.37-7.78-13.76-9-7.22-7.77-7.81-13.13-6-8.38-10.77-12.56.6-8.38 7.18-10.77 9.57-5.38 19.14-10.77c7.56-4.25 11.39-11.12 13-18.54m-10.31 157.31c-4.19 2.69-14.36 3-22.13 5.38s-4.79 10.77.3 19.74-6 23.63-9.87 29.31S95.7 223.4 90.91 224.9s-5.68 6.88-6.28 14.65-3.89 9.27-3.89 9.27c-2.49 2.5-4.73 4.9-6.78 7.18m19.59 0c2.14-2 4.53-4.56 7.53-7.78 0 0 6.58-5.08 8.38-10.47s0-10.76 3.28-16.14 15.86-17.05 18.26-24.53-.6-14.65-3.89-19.43-4.48-11.37 2.69-12 9.27 1.2 14.06-2.09 10.16-3.89 18.54-3.89 20.34 1.8 23.93 0 12.86-3.29 19.44-4.18 17-2.7 20.63-6.58a133.9 133.9 0 0 1 13.76-12.27c4.19-3.28 6.88-6.58 3.29-9.57s-12.56-4.48-17.35-2.39-8.67 3.29-13.45 1.79-9-2.09-13.46-.29-6.28.89-9-1.5-3.58-3-6-2.69-6 0-4.78-5.68 1.79-9.27 2.39-12.26a25 25 0 0 0 .6-3.89M113.81 256a59.93 59.93 0 0 0 4.62-6.58s4.19-2.39 3.59-10.17-2.1-11.66-1.2-15.85m6.66 32.6a47.67 47.67 0 0 0 2.31-5.38s3-8.08 1.8-13.16-4.19-11.07-3.29-18.84a37.83 37.83 0 0 1 5.08-15.85s7.78-5.69 6.88-12.86-11.67-15-7.18-17.95m13.34 84c.45-1.46.88-3.05 1.32-4.79M256 161.13a18.17 18.17 0 0 0-4.25 2.82s-5 2.33-7.72 5.62-10.17 8.67-15.25 10.16-18.24 2.7-20.93 2.7-4.19.6-8.68 2.69-9 .6-17 .9-16.75.29-17.65 5.08-.6 7.18-2.69 9-2.69 3.89-.9 9.57 3.3 6.88-.89 14.36a37.43 37.43 0 0 0-5.09 18.24c0 4.19.6-1.79 0 7.78a40.32 40.32 0 0 1-.8 6M256 172a29.17 29.17 0 0 0-5.45 3.89s.36 1.14-5.62 1.73-6 2.69-11.36 6-12.56 3.88-19.74 3.88-11.36 1.5-14.35 3-7.48 1.2-16.15.3-15 5.39-15 5.39c.3 3.28 1.2 5.68-.59 7.77s-3.3 4.19-1.2 8.37 3.59 8.38.3 14.66a46.57 46.57 0 0 0-3.76 8.24 26.23 26.23 0 0 0-1 9.4 94.52 94.52 0 0 1-1.63 11.37M256 180.38a25.26 25.26 0 0 0-3.65 2.11s-.24.24-3.83-.36-11.07 2.69-14.06 6.28-6.58 6.88-15.84 5.68-16.15-.89-18.85 1.5-6.28 2.39-10.46.89-9.57-2.39-12.86 1.5-.6 4.48-2.1 6.88-2.39 4.48-.89 9.87 6.88 12.56 2.09 17.94c0 0-5.54 6.45-6.74 8.24s-1.93 7.31-1.93 7.31c-.22 2.68-.53 5.28-.95 7.78M256 191a17.39 17.39 0 0 0-3.05 2.24s-.54 2.33-8 2.93-10.17 2.09-15.25 3.88-6.88 2.69-12.86.6-11.36-3.29-13.76-.3-.29 3-6.58 3.29-14.65.9-14.65.9c-3 2.69-4.19 4.78-2.39 9.27s4.19 12 2.69 18.54a79.76 79.76 0 0 1-3.75 7.64c-1.5 2.39-.74 8.21-.74 8.21.1 2.8.27 5.39.44 7.78m7.62 0c-.17-1.84-.28-3.65-.28-5.38a41 41 0 0 1 2.37-11.6c2.1-5.08 3.59-13.45 1.2-18.54M256 217c-1.8 1.59-3.77 3.26-6.05 5 0 0-2.93 2.62-7.71-1.26s-10.77-7.48-15.25-6.58-13.76 3.29-13.76 3.29c-7.18-2.4-8.07.9-7.48 4.48s2.1 12 2.1 16.45-3.29.3 1.49 11.67c.86 2 1.78 4 2.67 6m21.55 0c-1-1.82-2.05-3.8-3.28-6m25.72-6.49a31.33 31.33 0 0 0-5.45 4.13s-1.43 1.13-6.22-3.65-7.47-7.78-10.76-7.18-8.38.3-7.18 3.89m29.61-15.4a29.63 29.63 0 0 1-9 2.6c-11.36 1.79-5.62.83-9.2-.66s-6.89-1.8-12.27-1.5-8.37 2.1-7.47 4.79-.9 8.07-2.1 10.16 1.2 8.68 1.2 8.68a84.45 84.45 0 0 0 2.35 6.58M70.58 138c1.59-2 0-4-1.6-10s5.59-8.37 10.37-10.37 18-5.18 22.73-6.38 2-11.56.4-15.55 0-7.18 1.59-10.37-1.19-6.38-7.18-10-5.18-4.79-8.77-9.57S71.77 56.62 68.18 57s-3.58 1.2-8-.4-1.6-.79-6.38-.79-5.18-1.6-6.38-6.78 4.39-9.17 8.37-13.16m44.67 169.87c4.18-4.19 5.38-9 6.57-15.55s-5.38-10.47-5.38-10.47c0-1.8.9-2.69-2.39-7.78s-2.39-7.77-1.8-11.66 6.28-6.88 11.67-9.27 10.47-3 16.45-4.19 12.26-1.79 17-3.88 13.16-3 20.64-3.3 9.27 2.1 11.07-.59-.9-3.59-9-6.28-8.67-9-8.37-12 0-3-2.1-5.68-1.19-2.69-1.79-6-2.1-7.18-3-12.86 7.48-10.76 9.87-13.75-1.2-4.49-6.28-8.68m0 80.75c6-2.09-1.5-1.5 10.76-.6s24.83-1.2 30.21-1.2 18.54-1.19 27.51-9.27 14.36-15.25 7.18-14.65M74.17 217.12c-4.79 2.39-7.78 3-10.17 12s-2.39 14.36-4.78 16.75-7.22 6.54-7.22 6.54a53.39 53.39 0 0 0-1 3.59M233.56 0c5.06 9.67 6 14.71 1.5 19.74-5.38 6-15.55 15-8.37 16.75s16.75-.6 17.94 6-2.69 11.36 1.2 16.75l4.17 3.27 3.52-.84c.91-.86 1.73-1.67 2.46-2.44M214.43 175c3.89-.9 11.66-1.19 17-2.69s11.36-7.18 14.65-11.06 6.21-6.82 6.21-6.82a17.32 17.32 0 0 1 3.66-2.87m0-44.38a17.32 17.32 0 0 0-6.05 6s-4.78-.6 0 4.79c2 2.2 4 4.69 6.05 6.92m0-56.26c-1.66 1.15-3.65 2.34-6.05 3.88 0 0-5 4.72-3.52 8.31s2 4.1-1.5 6.88c-3 2.39-3.59 4.78-1.49 6s2.93 1.56 2.93 1.56a62.83 62.83 0 0 0 9.34 1.65h.29m0 42.64c-1.19.23-2.19.93-4.85 2.93m4.85 2.34a21.79 21.79 0 0 0-3.66 2.44 7.35 7.35 0 0 1-2.92 3.23 24.25 24.25 0 0 0-9.57 9.27c-3 5.38-9.57 7.18-13.46 7.18a28.4 28.4 0 0 0-13.46 3.58c-3.89 2.4-13.46 2.7-18.84 2.4s-6-1.5-9.87 1.19-7.17 2.7-14.05 2.1-7.78-.9-12 1.19-6 .9-5.08 7.18.9 11.07-2.09 14.65-7.18 1.8-7.48 12.87 1.79 17 3 22.42.9 15.86.9 15.86m108.56-47c-1.54.75-3.33 1.59-5.45 2.53 0 0-1.13 2.33-7.41 2.93s-18.54-4.49-23-1.5-7.18 1.79-10.17 1.19-6.88.6-9.57 1.5-13.16-.6-10.77 3.29 9 9.87 8.08 15.25 0 11.07-.3 12.86v6.88c.46 2.77.86 5.36 1.17 7.78m51.72 0c3.46-4.18 4.34-6.6 5.73-8.15M250.27 0c-.76.93-1.66 2-2.71 3.06 0 0-4.72 2-3.53 5s4.16 6.86 1.5 11.06c-9.27 14.66 2.63 10.23 2.63 10.23 3.23-1.22 5.79-2.28 7.84-3.25" style="stroke:#d9b776;stroke-miterlimit:11.34;stroke-width:2.39px;fill:none"/></svg>