<svg xmlns="http://www.w3.org/2000/svg" width="256" height="256">
  <defs>
    <clipPath id="a">
      <path class="a" d="M0 0h256v256H0z"/>
    </clipPath>
    <style>
      .a{fill:none}
    </style>
  </defs>
  <path class="a" d="M0 0h256v256H0z"/>
  <g clip-path="url(#a)">
    <path d="M0 17.74h256M0 37.48h256M0 57.29h256M0 197.35h256.3M0 215.21h256M0 76.3h256M0 91.82h256M0 108h256M0 127.17h256m-256 18h256M0 165h256.3M0 180.27h256M0 252h256M28 0v17.74M88.33 0v17.74M152.18 0v17.74M220.17 0v17.74M28 252v4m60.31-4v4m63.85-4v4m68-4v4M59.6 17.44v20m70.35-20v20m64.44-20v20m60.66-20v20m-221.76.65v19.14M96 38.07v19.16m64.1-19.16v19.16m70.65-19.16v19.16m-40.79 0v18.92M126.7 57.23v18.92M56.34 57.23v18.92m196.29-18.92v18.92m-32.46 0v15.61M151 76.15v15.61M88.33 76.15v15.61M28 76.15v15.61m31 0V108m71-16.24V108m65-16.2V108m60.3-16.2V108m-223.79 0v19.15M95.36 108v19.15M159.81 108v19.15M230.16 108v19.15m-40.79.3v17.68m-63-17.68v17.68M55.4 127.41v17.68m196.54-17.68v17.68m-225.81.29V165m61.49-19.57V165m64.44-19.57V165m67.4-19.57V165m-19.86.3v15m-66.93-15v15m-71.54-15v15m-58.73-15v15m30.16.29v16.85m62.67-16.94v16.85m64.44-16.85v16.85M230 180.5v16.85m-39.5.24v17.8m-65.62-17.8v17.8m-68.82-17.8v17.8m198.06-17.8v17.8M0 236.08h256M48.7 236v16.38M117 236v16.38M181.43 236v16.38M244.69 236v16.38m-223.07-37V236m61.49-20.58V236m66.21-20.58V236m68.88-20.58V236M52.32 43.93l-8.87 7.68m24.54.3-5.32-8.28m26.9.89-11.23 7.09m102.57-7.68-8.86 7.68m24.53.3-5.32-8.28m18 8 11.24-7.09m-21.88 26.6 8.87-7.68m15.67 8-5.32-8.28m26.9.89-11.24 7.09M78 62.85l-8.87 7.68m24.54.3-5.32-8.28m15.67 8 11.23-7.09M105.83 80 97 87.68m24.5.32-5.32-8.27m15.66 8 11.24-7.1M38.73 222.18l-8.87 7.69m19.21-8 5.32 8.27m10.35-.29L76 222.77m-6.8 18-8.87 7.68m19.22-8 5.32 8.28m21.58-7.39-11.23 7.09m94-.88 8.87-7.69m15.67 8-5.32-8.28m26.9.89-11.24 7.1m-53.8-24.84-8.87 7.69m24.54.3-5.32-8.28m15.67 8 11.23-7.1m-62.67-20.69-8.88 7.71m24.54.29-5.32-8.27m26.9.88-11.24 7.1M13.6 202.08l-8.87 7.69m22.17.29-5.32-8.27m26.9.88-11.23 7.1m13.3-24-8.87 7.69m24.54.29-5.32-8.27m15.66 8 11.24-7.1m92.2-1.44-8.87 7.68m24.54.3-5.33-8.28m26.9.89L206 192.62m11-23.94-8.87 7.68m22.88.3-5.32-8.28m24.06.89-11.23 7.09M75.09 177l8.91-7.73m15.67 8L94.3 169m26.9.89L110 177m-3.55-25.42-8.87 7.69m24.54.29-5.32-8.27m15.66 8 11.24-7.1m.59-20.1-8.87 7.69m24.54.29-5.32-8.27m26.9.88-11.24 7.1m-159-7.1-8.94 7.62m24.54.29-5.32-8.27m26.9.88-11.23 7.1m-12.42-26-7.09 8.1M5.91 158.63l11.24-7.1m62.67-55-8.82 7.7m24.53.3-5.32-8.28m26.9.89-11.23 7.09m6.5 9.46-8.87 7.69m24.54.29-5.32-8.27m15.67 8 11.23-7.1M210.48 96l-8.87 7.68m24.53.3-5.32-8.28m26.9.89-11.23 7.09M5.91 88.27l11.24-7.09m54.39-49.67 8.87-7.68m15.66 8-5.32-8.28m26.9.89-11.23 7.09m104.06-7.09-8.87 7.68m24.53.3-5.32-8.28m26.9.89-11.23 7.07m-138-20.31 8.87-7.69m15.66 8-5.32-8.27m26.9.88-11.23 7.1M238 4.4l-8.87 7.68m19.21-8 5.33 8.28M19.81 4.69l-11.24 7.1m238 40.42-8.87-7.69m-230.89-.3L1.48 52.5m23.36-.89L13.6 44.52m99 7.69-8.87-7.69m26.6 0L125 52.8m26.61-.89-11.23-7.09m-126.9 26-8.83-7.68m22.17-.29-5.32 8.27m26.9-.88-11.23-7.1m107.38 7.69-8.86-7.69m24.53-.29-5.32 8.27m26.9-.88-11.23-7.1m.29 25.13L162 80.58m24.53-.29-5.32 8.28m26.9-.89-11.23-7.1M149 104.23l-8.87-7.68m19.21 8 5.33-8.28m21.58 7.39L175 96.55M34.88 80.88l8.87 7.69m15.67-8-5.32 8.29M81 88l-11.24-7.12m-53.38 23.06-8.87-7.69m16.14 8L29 96m10.35.29 11.23 7.1m-2.07 19.21-8.87-7.68m19.22 8 5.32-8.28m10.34.3L85.73 122m-10 18-8.87-7.68m24.53-.3L86 140.3m15.67-8 11.23 7.09M42 158.92l-8.87-7.68m24.53-.3-5.32 8.28m26.9-.89L68 151.24M11 169l8.87 7.69m15-8L29.58 177m24.22-.88L42.57 169m128.88-9.46-8.86-7.68m24.53-.3-5.32 8.28m26.9-.89-11.23-7.09m8-11.24-8.87-7.68m24.54-.3-5.32 8.28m26.9-.89-11.24-7.09m-49.68-10.38-8.87-7.68m24.54-.3-5.32 8.28m15.67-8 11.23 7.14m-66.81 55-8.87-7.68m24.54-.3-5.32 8.28m26.9-.89-11.24-7.09m-65.92 24.24-8.87-7.69m24.54-.29-5.32 8.27m26.9-.88-11.23-7.1m-134.21-.93-5.32 8.27m26.9-.88-11.24-7.1m60.31 25.42L65.92 203m19.22 8 5.32-8.28m10.34.3 11.2 7.04m96.37.59-8.83-7.65m19.21 8 5.32-8.28m21.58 7.39L234.42 203M101.1 230.16l-8.87-7.68m19.22 8 5.32-8.28m21.58 7.39-11.24-7.09m7.69 26.31-8.87-7.69m24.54-.29-5.32 8.27m26.9-.88-11.24-7.1M6 248.49l-8.87-7.68m24.54-.3-5.32 8.28m25.72-.89-11.24-7.09m-18.12-11.53-11.23-7.1M171.45 13l-8.86-7.68M187.12 5l-5.32 8.28m26.9-.89-11.23-7.1m-153.42 6.5L35.18 4.1m24.53-.29-5.32 8.27m15.67-8 11.23 7.1M15.9 32.4 7 24.71m16.61 8L29 24.42m10.35.29 11.23 7.1m96.37.29-8.87-7.68m19.22 8 5.32-8.28m10.34.3 11.24 7.09m65.92 82.77-8.9 7.7m-232.65.3L3.25 114m232.65 37-8.9 7.63m24.54.29-5.33-8.28M235.9 80.58l-8.9 7.69m24.54.3-5.33-8.28m-1.77 112.63-8.87-7.69m19.22 8 5.32-8.27m1.89 63.53-8.87-7.68m-21.7-10.94-8.86-7.69m19.21 8 5.32-8.27" stroke="#d9b776" stroke-miterlimit="11.34" stroke-width="2.36" fill="none"/>
  </g>
</svg>
