<svg viewBox="0 0 256 256"><path fill="none" d="M0 0h256v256H0z"/><path fill="none" stroke="#d9b776" stroke-miterlimit="11.34" stroke-width="2.17" d="M256 243.47c-5-5.66-11-10.77-16.73-13.34-10.77-4.78-22.73-18.54-25.73-25.72s-13.75-19.14-25.71-25.72-22.73-19.14-25.72-25.69-17.35-20.37-25.11-24.55-23.33-19.14-25.72-26.32S95.71 81.2 85.55 76.41s-24.38-16.3-28.26-23.78c-3.49-6.71-10.47-18.84-23.93-25.71C21.27 20.74 12.21 9.25 8.5 0M256 222.68c-6.84-6-12.68-13.55-14.64-18.27-3-7.18-13.76-19.14-25.73-25.72s-22.72-19.14-25.71-25.69-17.35-20.34-25.13-24.52-23.32-19.14-25.71-26.32-15.56-20.96-25.73-25.75S89 60.11 85.09 52.63c-3.49-6.71-10.46-18.84-23.92-25.71C49.08 20.74 40 9.25 36.31 0m28.5 0c3.71 9.25 12.78 20.74 24.87 26.92 13.46 6.87 20.43 19 23.92 25.71 3.89 7.48 18.09 19 28.26 23.78s23.33 18.59 25.72 25.72 17.95 22.13 25.72 26.32 22.13 17.94 25.12 24.52 13.76 19.14 25.72 25.72a67.27 67.27 0 0 1 11.86 8.47m0-21.78c-4.35-4.63-7.63-9.23-9.07-12.41-3-6.58-17.35-20.34-25.13-24.52s-23.32-19.14-25.71-26.32-15.56-20.93-25.72-25.72S146 60.11 142.1 52.63c-3.48-6.71-10.46-18.84-23.92-25.71C106.09 20.74 97 9.25 93.32 0m28.5 0c3.72 9.25 12.78 20.74 24.86 26.92 13.46 6.87 20.44 19 23.93 25.71 3.89 7.48 18.1 19 28.26 23.78S222.2 95 224.59 102.13s17.95 22.13 25.72 26.32a43.65 43.65 0 0 1 5.69 3.81M150.33 0c3.67 9.25 12.77 20.74 24.86 26.92 13.46 6.87 20.44 19 23.93 25.71 3.89 7.48 18.09 19 28.26 23.78S250.71 95 253.1 102.13a20.61 20.61 0 0 0 2.9 5.16M178.84 0c3.71 9.25 12.77 20.74 24.86 26.92 13.46 6.87 20.44 19 23.93 25.71 3.88 7.48 18.09 19 28.26 23.78h.11M207.34 0c3.72 9.25 12.78 20.74 24.87 26.92 13.28 6.79 20.25 18.7 23.79 25.46M235.85 0c3.21 8 10.43 17.68 20.15 24.15M8.73 256A64.61 64.61 0 0 0 0 243.47M36.54 256c-4.81-9.37-15.46-21.43-25.46-25.87A45.85 45.85 0 0 1 0 222.68m0-35.53c6.7 5.92 11.92 12.6 13.86 17.26 3 7.18 15 20.93 25.72 25.72 10 4.44 20.65 16.51 25.47 25.87m28.5 0c-4.82-9.37-15.46-21.43-25.46-25.87-10.77-4.78-22.73-18.54-25.72-25.72s-13.76-19.14-25.72-25.72A70.38 70.38 0 0 1 0 165.38m0-33.12c7.69 5.9 17.08 15.53 19.44 20.71 3 6.58 13.75 19.14 25.72 25.72s22.72 18.54 25.71 25.72 14.95 20.93 25.73 25.72c10 4.45 20.64 16.51 25.46 25.87m28.51 0c-4.82-9.37-15.46-21.43-25.47-25.87-10.77-4.78-22.73-18.54-25.72-25.72s-13.76-19.14-25.72-25.72S50.93 159.55 47.94 153s-17.34-20.36-25.12-24.55c-6.2-3.34-17.35-13.53-22.82-21.16M179.07 256c-4.81-9.37-15.46-21.43-25.46-25.87-10.77-4.78-22.73-18.54-25.72-25.72s-13.76-19.14-25.72-25.72S79.44 159.55 76.45 153s-17.35-20.36-25.12-24.55S28 109.31 25.61 102.13 10.16 81.3 0 76.46M207.58 256c-4.82-9.37-15.46-21.43-25.47-25.87-10.77-4.78-22.73-18.54-25.72-25.72s-13.75-19.14-25.72-25.72S107.94 159.55 105 153s-17.34-20.34-25.12-24.52-23.32-19.14-25.72-26.32-15.6-20.96-25.77-25.75S4 60.11.13 52.63c0-.08-.09-.16-.13-.25M236.09 256c-4.82-9.36-15.47-21.43-25.47-25.87-10.77-4.79-22.73-18.54-25.72-25.72s-13.76-19.14-25.72-25.72-22.73-19.14-25.72-25.69-17.35-20.34-25.12-24.52S85 109.31 82.62 102.13 67.07 81.2 56.9 76.41s-24.38-16.3-28.26-23.77C25.15 45.92 18.17 33.8 4.72 26.91A48.1 48.1 0 0 1 0 24.15m43.31 2.1 11.3 4.85m-4.22 25.52-11.31-4.84m34.52 8.89.54-11.84m43.12 41-12.65-5.63m41.61 37.08-13.07-4.06m-37.3 14.42 10.47 3.08m68.6 11.28-3.23 12.38m28.79 20.94 11 8.69m26.11 24L227.21 208M55.46 11.92l-3.71-10M89.4 32l-9.18 4.78M113.11 60l-13.29.81M44.7 80.25l10.3.93m90.92 8.16-1.62 12.92m29.92 25.2L168.59 116m36.72 33.39L199 160m-52.33-15.81-4.42 6.84M93.82 12.1l-7 5.38M178 91.61l-11.67-6.1M112.85 117l-13.19-8.1m31.58-60-1.61 10.77m77.29 62.93-13.46-1.6m45.72 38.48-10.56-2m11.58 34.25L237 181M16.17 45.14l-7 5.38m62.5 47.88-1.62 10.77m58.41 54.37-3.29-8.62m47.29 44.74 3.23 10.77M22 26.05 9.11 18.52M181.9 182.11l-9.47-2.78m34 37.29-7.28-9.5m13.41 32.08-4.35 8m28-4.66-2.81-8.84m-78.5-51.95-7.15 4.51M81.89 90.33l-4.3-11.85M205.3 9.91 194 5.06m45.72 35.32-1.45 15.22m-28.2-17-14.55-2.12m43.55-19.79-13.29.81M173 41.82l-5.8-12.32M246 79.71l-10.82-5.84M143.5 5.72l-7 5.38M206.86 67l-1.61 10.77m34.47 59.62L238.1 125m-94.35-93.69-12.32-2.9M210 97.65h-9.33M105.08 222l-12.39-3.23M22.22 229.6l8.83-.79m-12.73-69.44L5.4 156.14m94.4 1.68-6.61 4.76m-70.34 43-3.24-14.54m91.33 55-11.5 5.61m-39-17.05 10.69 6.4m1.25-54.76 6.12 10.64m-28.82-55.55-5.07-9.43M40.35 102l-5.5 7.53M12.74 70l-1.39 8.8m28.27 76.12-4.13 9.79m34.12-33.86 4.09 7.4m.92 22-7.45 7m57.18 55.16 3.9-8.13m-28.39-29 3.56 10.27m-35.52 15.2-1.81 12.75m97.42-1.24-8.79 3.74M17.19 241.35 13.51 251m-.8-122.49L3.26 125m3.49-20.13 9-2.15M52.85 194l-11.61-3.49m93.36 0-3.54 8m41.58-134.36-12.38-3.23m-2.55 178.92-3.55 8"/></svg>