<svg xmlns="http://www.w3.org/2000/svg" width="256" height="256">
  <g fill="none">
    <path d="M0 0h256v256H0z"/>
    <path d="M31 3.43 27.43 8C22.15 14 9.72 27.88.91 36.23m0 12.87c1.71-1.91 3.25-3.58 4.35-4.67 3.56-3.56 10.3-13.06 15.05-18.6M42.08 9.61c-8.31 9.5-19.8 20.57-23 28.49C16.56 44.48 8.35 56 .9 64.54m0 31.55c9.69-7 16.48-13.35 20.58-18.83 4.75-6.33 11.88-17 22.18-26.5M.91 136c7.36-6.11 15.45-13.14 21-19.54 7.53-8.7 35.24-42.33 40-47.47m-21.78 38c-6.73 6.33-19 19.79-23.75 26.51a343.43 343.43 0 0 1-15.44 20M33 124.34c-7.52 9.1-19.4 23.74-23 30.86A54.86 54.86 0 0 1 .91 169m71.66-76.7c-9.9 13.84-26.13 28.09-34.84 40.74S22.29 156.39 14 168.25c-6.07 8.67-9.4 14.16-13.06 18.5m0 12.95c7-7.06 14.57-16.64 20.59-22.35 7.92-7.51 32.07-30.46 40.38-41.93M40.5 167.07c-4.36 3.16-15.44 15.82-27.71 28.88A650.2 650.2 0 0 1 .91 208.3m0 11.83c5.66-3.88 10.5-6.41 15-10.73 7.92-7.52 24.16-30.46 30.88-41.94s21.38-29.67 29.3-38.37M.9 240.4c10.5-11.24 18.87-22.35 26.1-31.79 7.92-10.29 27.31-34 40-43.92s43.55-52.61 53.45-63.29M16.35 9.22c-3.17 4.35-8.71 6.32-11.09 10.68a20.3 20.3 0 0 1-4.35 5.31m254.18 11a85.06 85.06 0 0 1-4.73 4.22s-8 7.61-14 13-14 14.84-17.53 18.7m36.23-23c-3.85 4.3-8.7 10-12.25 14.68 0 0-3.49 4.15-12.4 11S207 97.63 195.7 111.58s-24.64 30.56-33 38m92.35-85c-1.78 2-3.53 4-5.13 5.58 0 0-16.84 16.22-23.67 25.42s-25.54 46.8-29.4 53.31c-4.45 7.52-17.42 21.46-21 24.13m74.45-73.58c1.65-1.12 3.22-2.22 4.73-3.31m-37.38 57.35c5.94-6.53 16.93-17.21 21.09-23.45s9.12-12.85 9.12-12.85a56.48 56.48 0 0 1 7.17-8.41m0 17.77c-3.66 4-7.64 7.92-11.92 12 0 0-2.59 1.58-9.42 8.7s-16.27 15.76-20.13 21.35M255.09 136c-2.65 2.19-5.2 4.27-7.5 6.15 0 0-5 4.45-10.91 13.65s-17.82 20.77-25.24 29.67-13.66 23.44-21.09 35-13.95 21.36-16.62 24.92l-5.73 7.13m65.13-80.41a84.23 84.23 0 0 1 16.44-12.56c1.6-1.59 3.51-3.73 5.53-6.12M247.59 177a173.1 173.1 0 0 0 7.5-7.92m0 17.73a39.37 39.37 0 0 1-4.33 4.43s-13.19 14.74-17.64 19.19-22.27 22.84-31.78 34.71m53.75-36.78c-6.36 6.4-11.5 11.09-15.82 14.14A64.49 64.49 0 0 0 229 235.9a200.14 200.14 0 0 1-11.09 16.42c-.8.85-1.61 1.75-2.43 2.67m39.65-34.85a84.08 84.08 0 0 0-14.23 12.2 58.72 58.72 0 0 0-4.77 9.2 75 75 0 0 1-5.15 10c-1.09 1.24-2.08 2.33-3.1 3.46m13.22 0c1.27-1.2 2.54-2.38 3.74-3.46l7.53-8.11c1-1 1.82-2 2.76-3m0-215.19a39.35 39.35 0 0 0-3.55 3.37s-8.92 6.72-14 12.07S204 81 198.37 89.92s-19 29.08-22 34.12M48 110.89c3.17-3.56 12.67-14.63 21-23.74S90 56.69 95.93 47.2s26.53-34.82 33.25-41.94m30.49 4C149 21.08 119.29 48 108.6 61.44s-26.13 31.25-32.47 38-19.79 23.73-26.92 32.83M180.66 14.36c-13.07 15-59.39 62.9-67.31 73.58m-83.14 71.21c6.33-5.14 21.38-19.77 30.09-30.06s36.82-41.94 48.69-57M174.32 33a169.42 169.42 0 0 1-15 15.43c-6.34 5.54-18.61 18.6-26.53 27.3s-23.79 26.06-32.11 36.74-31.28 36.79-43.15 49.46M160.86 59.46c-5.94 7.52-18.61 21-25.74 31.25s-24.94 34-31.67 43.52A142.32 142.32 0 0 1 88 152.83m35.63-35.61c11.09-11.08 36.43-36.79 47.12-45.49s23-23 28.9-30.86m52 214.12c1.11-.69 2.25-1.42 3.42-2.21m-19.16-238.4a65.77 65.77 0 0 0-5.17 5.82c-2.67 3.56-9.8 14.53-15.44 21.06M79.6 176.86c-5.35 4.15-22 21.66-25.54 26.41s-9.8 17.8-15.44 24-14.55 13.95-16.93 16.32l-5 5.54a794.56 794.56 0 0 1-4.28 5.83m129.84-104.81c-11.88 12.47-42.46 44.51-53.75 56.68s-26.72 28.18-33 36.49c0 0 0 2.08-6.33 7.62A19.56 19.56 0 0 0 45.7 255m101-73.38c-8 6.82-33.56 35.31-41.28 47.47s-12.27 20.08-12.27 20.08c-1.47 2-2.91 3.94-4.33 5.83m30.86-15.13c-3.43 3.42-7 9.9-9.49 15.13m-50.83 0 2.51-3.46a105.15 105.15 0 0 1 13.56-18.29c7.72-8 22.27-22.85 29.1-31.16s41.27-45.1 49.29-57.56 21.08-29.67 25.84-38.28m7.42 38.87c-4.46 6.53-19 23.44-33 38.57s-34.08 40.05-38.56 46.87-14.44 21.37-14.44 21.37c-.93.92-1.82 2-2.72 3.06m41.69 0c.81-1 1.65-2 2.6-3.06a154.7 154.7 0 0 0 15.64-21.07c7.72-12.46 17.81-24.62 24.05-32.34s20.49-29.08 24.35-37.38 8.31-19.59 17.52-30.86 18.11-23.45 22.57-27.6M182.62 255a215 215 0 0 0 6.35-7s16.83-18.29 24.55-29.87 28.21-43 36.82-52.51m4.75 34.13a60.61 60.61 0 0 1-6.32 5.72s-17.44 12.66-27.23 25.42-16.34 20.27-16.34 20.27a45.18 45.18 0 0 0-3.6 3.86M39.8 206.53c5.65-6.82 30.59-32 38.91-38a184.8 184.8 0 0 0 27-24c7.42-8.31 20.19-22.55 24.64-27.3M32.68 252.52c4.75-5 12.77-22.85 19.3-29.37s21.38-20.47 31.48-27.6 19.89-17.21 28.2-27.29 43.36-60.83 50.19-66.17m19-28.49c-5 6.24-23.75 23.74-30 28.79s-21.08 22-28.51 32.93-24.94 30.86-31.17 35m39.19-15.43c5.35-5.64 48.41-63.49 55.24-72.4m67.1-67.35c-8.31 7.71-12.47 12.17-20.48 20.47s-31.48 36.8-40.69 50.44m40.69-6.52c-6.54 7.12-20.2 21.66-25.54 33.82a104.64 104.64 0 0 1-14.25 24m1.78-12.17C188 133 167.49 157 153.83 167.66s-38.6 36.79-45.73 44.81a190.34 190.34 0 0 0-16.92 21.65c-4.75 7.13-8.71 12.27-8.71 12.27l-8.3 8.6m97.66-69.83c-.66.62-1.31 1.22-2 1.79-16.63 14.53-27.32 23.73-40.68 39.76M125.07 255c1.47-1.34 3.05-2.73 4.91-4.25a122.45 122.45 0 0 0 9-10.38c3-4.16 3.57-7.42 8.91-16.92s7.72-10.38 17.22-20.77 27-28.78 34.75-42.72m52.26-75.37c-5.34 9.2-7.12 12.76-14.84 19.58s-23.76 29.08-30 42.14M152.54 255c1.61-2 3.1-3.89 4.36-5.43 0 0 2-3 5.84-8s10.39-11.57 15.44-20.47 22.87-34.45 31.82-47.8m-22 62.6c5.64-5.93 4.45-5.34 12.17-14.24s15.74-31.15 22.28-38.57m-102.77 67.65c6.54-8.31 13.66-16 22.57-30.86m-63.54-12.46a255.6 255.6 0 0 0-25.54 26.11m14.84-35c8-8.31 27.62-23.14 33.56-30M.91 252.77A74.37 74.37 0 0 0 9 246.58c10.3-9.1 20.59-22.94 28.51-34.42m157-186.53C202.24 17.56 209 8.26 215.44 1m12.4 0c-12.39 13.76-20.38 20.66-31.35 30.15-11.87 10.3-28.9 31.66-41.57 47.85m86.13-78c-11 10.34-24.36 25-31.1 34.9-7.52 11.1-13.85 27.31-18.21 32.45M251.66 1c-5.1 3.2-9.48 5.73-13 10.18M4.47 10.2a61.41 61.41 0 0 0 8-9.19M45.73 1a20.91 20.91 0 0 0-2.57 5.4M.91 108.65c5-5 10.81-9.83 15.44-15 7.13-7.92 17-21 25.73-34.42 0 0 8.32-14.24 16.63-22.55 7.44-7.4 18.05-19.6 30.11-35.68M.91 126.42a93.23 93.23 0 0 0 10.29-13.36c5.94-9.5 12.69-17 21.78-25.32C37.73 83.38 57.92 66 67.42 57.27A128.66 128.66 0 0 0 89.2 31.16 199.42 199.42 0 0 1 106.62 9s1.43-3.55 3.58-8M27.83 39.08a309.51 309.51 0 0 1 21.38-25.32A108.47 108.47 0 0 0 59.37 1M38.52 75.48C46.83 68 69.8 41.06 80.09 27.21 88.78 15.53 93.52 7 98.36 1m-15.5 80c8.32-9.49 32.87-43.51 40.39-54.59C130 16.45 132.66 10 140 1m42.57 0c-10.06 10.69-20.3 19.61-26.5 25.81-7.52 7.51-39.2 43.51-47.91 56.57S90 111.48 84.45 117.81M201.59 1c-9.76 11.58-22.86 35.09-31.59 45.59M74.16 1c-7.28 7.54-14 14.47-18.62 19.08C49.21 26.42 33 43.83 25.85 53.32S12.39 71.92 8.43 76.66M125.06 1c-5.42 5-8.79 9-14.09 14.33C104.24 22.07 87.22 47 79.7 57.27S63.07 81 54 90.9m68.89-53C128.61 31.8 143 13 152.54 1" stroke="#d9b776" stroke-miterlimit="11.34" stroke-width="2.37"/>
  </g>
</svg>
