<svg xmlns="http://www.w3.org/2000/svg" width="256" height="256">
  <g fill="none">
    <path d="M0 0h256v256H0z"/>
    <path d="M256 17.74h-.94m-125.06 0H88.33m166.73 0h-34.89m-155.73 0h23.89m-67.4 0H0m145.09 0h75.08m-155.73 0H20.93m109 0h15.13M256 37.48H0m256 19.81h-3.37m-58 0h58m-125.93 0h68m-68 0H0m95.23 140.06h57.35m-92.68 0h35.33m57.35 0h41.83m0 0H230m-204.55 0H59.9m-34.43 0H0m230 0h26m-72.45 17.86h-58.64m-75.81 0h75.81m58.64 0h70.6m0 0H256m-206.9 0H0M28 76.3h123m71.28 0H151m71.28 0H256m-228 0H0m59 15.52H0m195 0h-62.38m123.38 0h-.74m-60.27 0h60.26m-122.63 0H59M230.16 108H256m-25.84 0H95.37m0 0H0m256 19.16H0m256 18H0M256 165H0m256 15.25H0M220.17 252h17.6m18.23 0h-18.23m-203.18 0H48.7m0 0h39.63m93.1 0h38.74m-131.84 0h21.74m48.1 0h-48.11m71.37 0h-23.26m-123.58 0H0M20.93 17.74 32 0m56.3 0v17.74m56.76 0L155.82 0m64.35 0v17.74m-155.73 0L52.51 37.42M130 17.74v-.3m0 .3v19.68M199.54 18 187.3 37.42m67.76-19.68v19.68m0-20v.3M26.2 57.23l12.23-19.69M96 57.23V38.07m57 19.16 12-19.69m65.81 19.69V38.07m-47.94 38.08 11.79-18.86m0 0 .15-.24m-68.11.24v-.06m0 .06v18.86m-77.45 0 11.65-18.8m191.73 18.8V57.29m0-.06v.06m-39.55 34.46 9.2-15.45M151 91.75V76.3m0 0v-.15m-69.76 15.6 9.52-15.19M28 76.3v-.15m0 .15v15.45m31 .07V108m0-16.14v-.07m73.61.07L122.86 108m9.76-16.14.11-.18m62.26.18v-.07m0 .07V108m50.07-.06 10.19-16.08m0-.07v.07M24.42 127.11l11.94-18.92m59-.18v19.1m0-19.1V108m57.35 19.15 11.94-18.92m65.5-.18V108m0 .05v19.1m-47.88 18L193 127.41m-66.68 17.68v-17.68m-78 17.68 10.81-17.68m192.82 17.68v-17.68M19 165l12-19.22M87.62 165v-19.62M145 165l12.3-19.51M219.46 165v-19.62m-27 34.82 9.11-14.95m-68.9 14.95v-14.95M54 180.2l9-14.66M2.41 180.2v-14.95m23.06 32.1 10.89-17m58.87 17V180.5m57.35 16.85 10.6-17m66.85 17V180.5m-46.48 34.71 10.86-17.86m0 0 .1-.18m-11 18-.11.17m-58.53-.17v.17m0-.17v-17.58M49.1 215.21l-.11.17m.11-.17 10.8-17.86m.11-.18-.11.18m194.25 17.86v.17m0-.17v-17.62m-72.72 38.48h66.18m-66.18 0h-61.81m-70.92 0h70.92m136.38 0h-8.39m-198.91 0H0m48.7 0V236m0 16.37V252m0-16v16m71-16.14-.11.17m0 0-9.55 16m-.18.29.17-.3m71.37 0v.29m0-16.26V236m0 .11v16m66.18-16 .11-.17m-.11.17-9.84 16m-.18.29.18-.3M21.62 236v-20.62m67.06.42L76 236m73.32-20.57V236m61.78 0 12.37-20.45M88.33 252v4m131.84-4v4M32.1 256l2.49-4m0 0 .3-.48M155.77 256l2.4-4m.28-.47-.29.47" stroke="#d9b776" stroke-miterlimit="11.34" stroke-width="2.36"/>
  </g>
</svg>
