<svg xmlns="http://www.w3.org/2000/svg" width="256" height="256"><path style="fill:none" d="M0 0h256v256H0z"/><path d="M145.56 17.74h-11.47m64.64 0h-53.17m53.17 0h14.82M82 17.74h52.09m121.91 0h-42.46m-191.84 0H82m-60.3 0H0m164.51 19.75H37.69m218.31 0h-91.49m-126.82 0H0m130.22 19.8H60.16m70.06 0h63.56m0 0h60.6m0 0H256m-195.84 0H0m59.6 140.06h68.58m66.22 0h59.51m0 0H256m-196.4 0H0m128.18 0h66.22M25.84 215.21h22.82m0 0h38.67m66.21 0h-36.3m-29.91 0h29.91m125.05 0H256m-230.16 0H0m242.29 0h-19.7m0 0h-39.13m-29.92 0h29.92M31.32 76.3H0m31.32 0h60m132.13 0H256m-101.71 0h-63m132.14 0h-69.14m-21.67 15.52H61.68m70.94 0H198m57 0h1m-1 0h-57m-136.27 0H0M244.58 108H256m-220.6 0H0m163.69 0h70.66m-70.66 0H99m145.63 0h-10.29M35.4 108H99m31 19.17H59.09m134.2 0H130m-70.94 0H0m255.67 0h.33m-.33 0h-62.38m62.71 18H0M256 165H0m245.1 15.26H0m245.1 0H256M42.64 252H0m238.33 0H256m-213.36 0h67.69m0 0h64.74m0 0h63.26M256 236H0m25.84-20.87.17-.3m-.17.3L13.58 236m61.49 0 12.26-20.75m0 0 .17-.3m66 .3.18-.3m-.18.3L141.28 236m81.31-20.75L210.16 236m28.17 16 9.67-15.8m-9.67 15.8-.07.12m-63.19-.12 9.69-15.84M175.07 252l-.07.12m-64.67-.12-.07.12m.07-.12 9.67-15.8M42.64 252l-.07.12m.07-.12 9.68-15.84m201.59-38.85.06-.09m-11.68 18-.19.29m.19-.29 11.61-17.86m-30.12-.18 10.05-16.85M212 164.66l12.12-19.22m21 34.88 9.66-15.14m-9.7-20.28 10.61-17.68m0-.06v.06M234.34 108l.08-.12m-.08.12-11.45 19.09M255 91.82l.07-.1M244.58 108 255 91.82M244.58 108l-.11.17m-21-31.89L214 91.64M242.88 76.3l11.46-19m0 0 .14-.24m-36.06 0L231 37.63m24-19.81-12.4 19.42m-29-19.5L224.35 0m-10.8 17.74v.06m-19 179.37-.11.18m0 0-10.94 17.86m-.18.29.18-.29m-55.28-17.86.11-.18m-11.27 18.33.18-.29m0 0 10.94-17.86m-68.47-.18-.11.18m-10.94 17.86 10.94-17.86M48.48 215.5l.18-.29m114.81-34.89-10.05 16.85m-54.69-16.85-10 16.85m-62.66 0 10.05-16.85m153.07-.32 9.17-14.78M121.79 180l9.21-14.75M50.55 180l9.17-14.78m84.54-.59 12.12-19.22m-76.56 19.25 12.12-19.22m-73.61 19.22 12.12-19.22m162.84-18.27-10.6 17.68m10.64-17.74v.06m-63.22-.06v.06m0 0-10.6 17.68m-60.42-17.68-10.61 17.68m10.61-17.68v-.06M163.69 108l.08-.12m-.08.12-11.45 19.09m-64.74 0L99 108m.07-.12L99 108m-63.6 0L24 127.11M35.4 108l.08-.12m162.58-16.24-.11.18m-9.35 16.08 9.4-16.08m-74.73 16.08 9.35-16.08m0 0 .11-.18m-71 .18-9.4 16.08m9.35-16.08.11-.18m92.5-15.34-9.44 15.34m-63 0 9.48-15.34m-60 0-9.45 15.34M193.76 57.3l.14-.24m-11.51 19.21 11.39-19m-63.56 0 .14-.24m-.14.24-11.38 19m-58.68-19-11.38 19m11.38-19 .14-.24m104.21-19.54.14-.24m-.14.24-12 19.56m-64.45 0 11.86-19.51m-62.23 0 .15-.24m-.15.24-12 19.56m173-39.31-11.87 19.46m11.91-19.51.12-.2m-76.76 19.71 12-19.51m.12-.2-.12.2m-70.43.19L51.74 37.25m93.82-19.52v.07m0-.06L156.36 0M82 17.74 92.8 0M82 17.73v.07m-60.3-.06v.06m0-.06L32.5 0m193.94 252.45L224.3 256m-65.85-3.55-2.14 3.55m-61.42-3.55L92.75 256m-58.16-3.55L32.45 256" style="stroke:#d9b776;stroke-miterlimit:11.34;stroke-width:2.36px;fill:none"/></svg>