<svg xmlns="http://www.w3.org/2000/svg" width="256" height="256">
  <g fill="none">
    <path d="M0 0h256v256H0z"/>
    <path d="M28.6 29.3c-4.51 9.6-17.34 29-28.6 44.38m37.78-54.53C41.63 15.31 47.4 8.17 53.41 0m9.49 78.71c9.77-9.78 32-40.89 39.11-56M82.67 144.89c9.78-9.78 39.4-45.56 46.51-60.67m9.34-19.81c8.73-8.72 35.41-45.78 46.13-64.41M11.4 143.25c10.81-8.64 36.33-37.1 45.07-51.33M0 163.75c3-3.91 5.56-7.5 7.39-10.48M113.57 9.18A120.83 120.83 0 0 0 121.73 0M23.49 224.48c14-11.18 47.39-52.28 55.2-65M105 202.16a113.92 113.92 0 0 0 7.77-8.9c10.87-13.52 29-29.51 34.57-41.36m7.36-17.59a115.82 115.82 0 0 0 7.77-8.9C173.35 111.88 191.46 95.9 197 84m-19.63 99a117.78 117.78 0 0 0 7.77-8.9c10.87-13.53 29-29.51 34.57-41.37m-12.12-71.38a117.78 117.78 0 0 0 7.77-8.9c10.88-13.53 29-29.51 34.57-41.37M239.34 93.6C243 89.91 249.27 82 256 72.77m-37.22 141.52c8.69-6.95 25.8-36.43 37.14-51.31l.08-.1M53.6 256c9.35-12.64 35.5-35.45 39.81-44.63M183.08 256a.35.35 0 0 0 0-.08c2.68-4.35 18.7-25.73 20-28.47M121.91 256c13.34-16.18 34.54-45.56 40.43-57.55M220.5 256c11-12.38 26.7-31.21 32.5-39.22M79.43 6.21c1.84-2 3.67-4.12 5.47-6.21M70.76 15.53c1-1 1.94-2 2.92-3.07m0 0c1.88-2 3.8-4.1 5.74-6.25M213.06 7.9l1.22-1.29m0 0c1.66-1.76 3.59-3.88 5.73-6.28M6.85 104.31c1.37-1.77 2.69-3.49 3.86-5.11M0 112.78l1.51-1.81m0 0c1.88-2.28 3.66-4.51 5.33-6.66m62.27 13.37c1.76-2.08 3.6-4.27 5.47-6.53m-11.25 13.2c1.76-2 3.72-4.25 5.77-6.67m16.43-20c1.83-2.3 3.57-4.51 5.19-6.59m-16.13 20.06c1.83-2.21 3.67-4.46 5.5-6.72m0 0a907.9 907.9 0 0 0 5.45-6.77M96.23 83.9l1.88-2.56m-7.38 9.73c2.1-2.69 4-5.13 5.5-7.17m-37.11 45c1.22-1.27 2.65-2.82 4.22-4.58m81.07-102c1.87-2.28 3.67-4.56 5.42-6.81M133 35.37c1.94-2.08 3.88-4.22 5.79-6.43m0 0c1.89-2.19 3.76-4.41 5.58-6.64m-13.62 15.52c.76-.79 1.53-1.62 2.29-2.45M155.1 8.54c.8-1.08 1.6-2.16 2.35-3.2m-7.62 10.15a251.6 251.6 0 0 0 5.27-7m96.46 108.68a294 294 0 0 0 4.44-5.23m-18.42 20.58 2.38-2.5m5.87-6.36q2.88-3.19 5.72-6.49M240 130.07q2.88-3.06 5.87-6.36M49 49.29c2-2.41 3.88-4.77 5.63-7m-11 13.42c1.85-2.13 3.65-4.27 5.4-6.38m5.63-7c1.23-1.59 2.4-3.14 3.46-4.61M32 68.52q2.88-3.06 5.86-6.35m0 0a402.5 402.5 0 0 0 5.73-6.5M29.58 71l2.37-2.5m147.7-11 5.16-7.06m-20.93 28a453.2 453.2 0 0 0 5.32-6.9M195 36.42l-5 7m-15.55 21.14 5.2-7m5.16-7.06c1.83-2.53 3.56-4.9 5.13-7.09m6.58-9.13L195 36.42m-25.8 35.11q2.6-3.41 5.25-7m-16 20.63c1.66-2 3.5-4.25 5.46-6.76m-9.66 11.5a86.49 86.49 0 0 0 4.17-4.71m18.49 59.6c.75-.76 1.51-1.58 2.27-2.39m0 0c1.89-2 3.82-4.08 5.77-6.24m5.84-6.61c1.88-2.17 3.72-4.35 5.5-6.5m0 0c1.91-2.32 3.73-4.6 5.43-6.79M185 136.17c2-2.16 3.91-4.38 5.84-6.61m10.93-13.29a214.3 214.3 0 0 0 3.66-4.85m-24.52 114.26c1.3-1.34 2.64-2.76 4-4.21m16.87-19.35c2-2.45 3.86-4.83 5.57-7.1m0 0c.69-.92 1.4-1.84 2-2.71m-24.45 29.16c1.92-2.06 3.88-4.21 5.83-6.4m0 0c1.92-2.15 3.83-4.33 5.7-6.52m0 0q2.77-3.26 5.35-6.43m-182-17.77c1-1 2-2.1 3-3.18m5.68-6.17c2-2.17 3.91-4.39 5.83-6.62m-11.47 12.79c1.86-2 3.74-4 5.64-6.14m5.83-6.62q2.88-3.34 5.58-6.64m5.51-6.93c1-1.33 2-2.62 2.89-3.87m-8.4 10.8c1.94-2.37 3.81-4.71 5.51-6.93m50.68 87.78c1.18-1.54 2.32-3 3.35-4.46m-14.16 17.65q2.88-3.33 5.58-6.64m0 0c1.84-2.24 3.6-4.43 5.23-6.55M83 186.87c.91-.94 2-2.08 3.08-3.32m5.59-6.4c1.79-2.09 3.66-4.32 5.59-6.64m0 0a910.9 910.9 0 0 0 5.51-6.71M119 143.32c1.49-2 2.79-3.69 3.78-5.06m-36.69 45.29c1.69-1.88 3.58-4 5.6-6.4m11.1-13.35c1.88-2.31 3.74-4.62 5.55-6.9m0 0c1.85-2.32 3.63-4.57 5.3-6.71m0 0c2-2.49 3.77-4.82 5.33-6.89M0 .34l49 48.95m0 0 41.73 41.78m111.05 111.05-111-111m111 111L255.66 256m-11.78 0-47.45-47.45M43.55 55.67l42 42m110.88 110.88L85.54 97.66M0 12.12l43.55 43.55m147.18 159.4L231.65 256M37.82 62.17 0 24.34m80.09 80.09L37.82 62.16m42.27 42.27L119 143.32m71.76 71.75L119 143.31M32 68.52l42.64 42.63m39.05 39-39-39M219.43 256l-34.53-34.53m-71.26-71.27 71.27 71.27M0 36.57l32 31.95m76.39 88.38-39.27-39.22m0 0L0 48.56M207.43 256l-99.09-99.09m-5.55 6.89-39.45-39.45M195 256l-92.2-92.2M0 61l63.34 63.34M0 73.23l97.28 97.28M182.77 256l-85.49-85.49M170.54 256l-78.85-78.85M0 85.45l91.69 91.7M0 97.45l6.85 6.86m79.25 79.24L6.85 104.31M158.54 256 86.1 183.55M1.52 111l43.86 43.87M0 109.45 1.51 111m43.87 43.87L146.54 256m-12.44 0-94.23-94.23M0 121.9l39.87 39.87m82 94.23-87.58-87.59M0 134.12l34.29 34.29M28.46 175l67.6 67.6m13.37 13.4-13.37-13.38M28.46 175 0 146.57m22.82 34.6 68 68M0 158.34l22.82 22.83M97.66 256l-6.83-6.83M0 170.57l85.25 85.24M0 183l73 73M0 195l61 61M0 207.23 48.77 256M0 219.45 36.54 256M0 231.68 24.32 256M0 243.9 12.1 256M243.67 0 256 12.33m0 11.56L232.11 0M256 36.33l-36-36M207.67 0l6.61 6.61M256 48.33 214.28 6.62M256 60.77 195.22 0M256 73 183 0m-12.22 0L256 85.22m-61-48.8L158.56 0M195 36.42l61 61m-66.06-54L256 109.44m-66.06-66L155.1 8.54M146.56 0l8.54 8.55m-5.27 6.94L134.34 0m50.47 50.48-35-35m35 35 66.75 66.74m4.44 4.44-4.44-4.44M144.41 22.3l35.24 35.24M256 133.88l-10.17-10.16M122.11 0l22.3 22.3m35.24 35.24 66.18 66.17M109.89 0l28.94 28.94m35.62 35.62-35.62-35.62M256 146.11l-16-16m0 0-65.55-65.55M133 35.37 97.67 0M256 158.33l-86.8-86.8M133 35.37l36.2 36.16m-5.32 6.9L85.45 0m116.27 116.27-37.84-37.84M256 170.55l-54.28-54.28M79.43 6.21l79 79m-79-79L73.23 0M256 182.77l-59.71-59.71M158.42 85.2l37.87 37.86M73.69 12.46l117.1 117.1M61.23 0l12.45 12.46M256 194.77l-65.21-65.21M256 207.22l-71-71.05M48.78 0 185 136.17m71 83.05-76.82-76.82M36.78 0l142.4 142.4m76.82 89L24.56 0M12.34 0l42.24 42.24M207.35 195 256 243.66M96.23 83.9 207.35 195M96.23 83.9 54.58 42.25" stroke="#d9b776" stroke-linecap="square" stroke-miterlimit="11.34" stroke-width="1.78"/>
  </g>
</svg>
