<svg id="Layer_1" data-name="Layer 1" xmlns="http://www.w3.org/2000/svg" width="256" height="256" viewBox="0 0 256 256">
  <defs>
    <style>
      .cls-1, .cls-2 {
        fill: none;
      }

      .cls-2 {
        stroke: #803e28;
        stroke-miterlimit: 11.34;
        stroke-width: 2.36px;
      }
    </style>
  </defs>
  <g>
    <rect class="cls-1" width="256" height="256"/>
    <path class="cls-2" d="M93.44,211.79c4.13-4.14,29.84-31,33.38-34.56a10.35,10.35,0,0,0,3-10c-.59-2.66,2.07-8,5-10.64s41.65-44,44-46.07-.39-6.11-.39-6.11c-3.15-7.88,19.69-28.75,31.51-40.56S230,45.29,226.46,41.75,236.65,27.31,256,10m0,9.05C245.12,28.65,234.76,35,235.12,38.6c.39,3.94,3.55,4.72-2.36,11-.61.64-1.42,1.5-2.41,2.51M196.66,85.8c6.65-6.37,25.7-25.4,33.69-33.66M196.66,85.8,195.34,87c-5.51,5.12-9.84,11.81-8.66,15.76s1.58,5.9-2.36,9.84c0,0-33,34.17-36.83,37.71s-8,9.75-7.68,13,1.48,6.2-1.18,9.16c-.53.59-2.43,2.6-5.15,5.47m-25.32,26.69C102.19,211,97.37,216,96.1,217.4c-3.84,4.14-5.62,5.91-5,8.86s2.36,5.61.59,7.68-13.29,14.18-13.29,14.18M232,3.94c-5.51,5.91-25.2,19.69-24.41,24.42s2.36,6.3-.4,9M150.45,60.65s13-13.78,16.94-17.72,5.11-2.76,4.33-6.7,0-5.51,1.57-7.09,7.48-8.27,14.57-15.75M172.5,9.06c-6.69,7.09-16.14,16.15-18.9,18.51s-3.94,2.76-3.94,6.3-2.76,8.27-7.88,13.79M167.47,0c-12,12.29-23.54,23.88-26.08,26.79-2.76,3.14-2.76,3.93-2.76,7.08s-.39,5.51-4.72,9.85c0,0-36.33,36.92-39.88,40.46s-6.5,7.39-6.5,10.64.3,5.31-2.07,8-13.29,14.48-15.36,16M155.11,0c-7.46,8-19.67,19.29-22.78,22.06a10.7,10.7,0,0,0-3.54,11.42c1.18,4.33.39,5.51-3.94,9.84M131.66,0c-7.65,8.07-17.3,18.44-19.81,21.66-2.76,3.55-5.51,3.55-3.94,7.88s1.18,6.3-2.75,10.63-7.09,7.49-7.09,7.49m9-47.66C96.82,9.31,82.29,23.21,79.56,25.6c-3.15,2.76-3.55,3.15-2.76,7.49S76,40.57,72.47,43.32s-27.57,24.42-29.14,26c0,0-1.58,1.87-3.06,3.35s-.59,2.65.3,5.61.59,2.36-1.19,5a34.05,34.05,0,0,1-4.72,5.32c-3,3.52-25,27.28-34.66,37.83M96.7,0C88.54,8.29,76.57,19.2,73.26,22.84c-3.94,4.34-4.34,4.34-4.34,7.48s.4,5.91-4.72,10.25S41.75,62.23,37,66.17s-7.87,7.09-7.87,12.6S26,87.83,21.27,92.55m52-79.16c2.57-2.25,7-6.85,13.21-13.39m-27,30.33C52,38.21,36.23,54,29.54,60.26S19.69,69,19.3,73l-1.18,6.2c-.59,4.14-.59,5.91-5.32,11.23-2.67,3-8.36,7.33-12.8,10.52M10.49,0l-8,7.88M15,5.91,2.85,16.54C1.9,17.43,1,18.29,0,19.13M32.61,0,3.25,25.6c-1,1-2.12,2-3.25,3.06M42.29,0l-15,13.1c-5.91,5.91-15,12.21-14.18,16.14s.8,4.73-5.9,11.43L0,47.86M54.53,0,34.66,17.33c-5.91,5.91-15,12.21-14.18,16.15s.79,4.72-5.91,11.42C11.87,47.6,6.15,53.32,0,59.49M256,47.56c-10.1,10.12-26,26.07-29.34,29.73-4.34,4.73-7.09,9.06-5.91,12.21s-.39,6.69-3.94,10.24c0,0-41.55,40.86-45.88,45.59s-8.27,7.88-8.27,11.81,3.15,6.31-.79,11-14.18,15.36-14.18,15.36-6.69,9.06-21.66,24-12.6,18.51-11.42,23.23,0,5.91-3.94,9.85-9.84,10.83-9.84,10.83c-1.24,1.36-2.71,2.9-4.32,4.53M256,208.51c-2.2,2-3.83,3.46-4.53,4.17a5,5,0,0,0-1.78,3.24c0,1.78,2.37,3.85.59,6.21s-15.36,15.06-17.72,17.13-4.43,4.73-3.54,6.79,2.36,2.37,1.48,4.14a21.13,21.13,0,0,1-2.07,3.25L225.34,256m-12.83,0c1.35-1.33,2.6-2.59,3.71-3.74M167.28,256l3.25-3.35c13-13.39,13-11.62,16.84-16.34s1.18-6.8.88-10.63,0-3,3.85-7.09,13-12.71,16.83-16.55c0,0,18.61-19.49,20.38-22.15s-.59-5-.59-8.27,3.25-6.2,6.2-9.45,13.59-15.07,18-19.5M154.93,256c1.12-1.2,2.13-2.33,3-3.35M141.76,256c1.4-1.59,2.62-3,3.57-4.14M131.47,256l2.44-2.56c7.87-8.27,0,0,4.72-5.32s20.68-18,23.34-21.26.29-5.62.29-8.57,2.66-5.91,7.09-10,28.65-28.65,31.9-31.31,1.48-7.38,1.18-10.63,2.07-6.2,5.62-9.15,25.1-23.93,29.83-29c0,0,6.2-8,6.2-10.34s-.59-5,.3-7.09,5.31-5.61,5.31-5.61,2.79-1.86,6.31-4.39M152.42,189.44s-16.94,17.72-22.06,23.24S126,224.49,126.42,230s-3.54,9.06-6.69,12.61-8.27,9.25-8.27,9.25c-1.38,1.22-2.94,2.62-4.61,4.14M256,28.57c-5.5,5-11.69,9.9-11,13.18.79,3.94.79,4.73-5.91,11.42s-31.9,31.9-36.23,36.63-7.09,9-5.91,12.21-.4,6.69-3.94,10.24c0,0-31.6,31.9-35.45,36.33s-6.79,9.45-5.9,11.81,2.36,6.5-.59,9.46-38.11,42.53-40.17,44.6-8.27,8.56-8.57,10.93S105,231,105,234s-8.57,10.92-11.22,13.88L91,251.08q-2.51,2.61-4.7,4.92M212.71,0c-9.26,9.07-23.36,21.3-26.82,24.42C182,28,182,29.54,182.74,34.66s-3.54,10.24-9.05,15c0,0-41,41.35-44.12,44.5s-2,4.73-1.57,8.66-3.54,6.7-5.91,9.85S89,146.51,83.49,151.24s-4.32,5.9-3.93,9.84-2.37,7.49-7.48,12.61S41.36,206,36.23,211.1s-2.36,5.91,0,9.85,2,7.88-1.57,11-16.54,16.35-16.54,16.35L10.29,256m29.09-6.11-7,6.11m9.68,0,21.34-18.61s4.33-4.33,6.11-6.4a8.76,8.76,0,0,0,1.18-8c-.89-2.07,8-10.63,18.31-21s21.86-21.56,24.22-23.63,4.67-3.36,3-6.79c-1.19-2.36,1.9-6.5,8.56-14.18m-54,84.18L54.31,256M225.58,0C216.53,7.49,198,22.84,197.32,26c-.79,3.54,2.75,8.27-.79,12.2s-16.94,17.33-21.66,21.27c0,0-26.79,26.49-30.63,30.33s-4.72,6.5-3.84,10.34,1.48,4.13-5.9,12.4-38.7,39.59-41.95,42.83-3.24,5-2.36,9.16-1.47,6.2-6.5,11.23S56.52,204.7,50.61,210.9s-4.14,8.87-3,11.82,3,5.32,0,8.57S28.45,249,24.32,252.85m171-198.5c-2.36,2.37-33.67,33.38-36.92,36s-3.25,5-2.36,8.56-2.36,6.8-5.61,10c0,0-36.33,38.1-40.47,42.24m146-92c-9.15,9.19-19.35,19.48-22,22.33-4.33,4.72-7.09,9.06-5.91,12.2s-.39,6.7-3.93,10.25c0,0-11.13,10.63-14.67,14.47l-6.8,7.09c-6.2,6.2-18.31,20.08-20.68,22.74s-5.31,5.32-4.43,9.46.3,5.61-2.66,9.15-20.08,20.38-20.08,20.38M99.25,121.7s9.84-9.06,12.21-11.42,3.93-3.94,3.15-6.7,0-4.72,2-7.09,6.3-8.66,15-18.51M64.3,1.58c-8.67,9.84-30.72,27.66-32.69,30s-2.76,4.33-2,7.08-.78,4.34-3.14,6.7S7.19,64.2,7.19,64.2m83,67.74s-18.9,21.27-20.87,23.24-3.55,3.93-3.15,7.48.39,4.33-1.58,6.3S51.2,182,51.2,182m77.09,65.88c3-3.25,23.34-22.75,26.29-26.59s2.36-5.61,1.77-9.45,4.73-9.45,7.68-12.7,22.16-21,25.11-24.22,2.37-7.39,1.77-10.63,2.66-6.21,6.5-10.94M0,246.84c8.39-7.49,22.38-20,24-22,2.37-2.76,3.84-3.32,2.37-5.52C22.45,213.46,28,206,29.93,204.8s18.12-16.15,18.12-16.15m-48,20c8.86-8,27.52-24.31,32.3-29.09,5.9-5.9,8.86-10.63,8.27-14.17s2.36-5.91,5.9-9.46l16-16M0,195.47c8.2-7,24.1-20.68,27.57-24.15,4.73-4.72,5.32-4.13,5.91-10.63s4.13-7.68,7.68-12.41,11.81-11.22,23.63-23m55.83-77.68c-3.85,3.54-34.57,32.49-39,37.22s-3.55,5.91-3.85,9.74-.29,5.32-2.06,7.09-8,9.45-8,9.45c-7.68,7.68-27.76,26-33.67,31.31S25.8,148.87,25.8,153s.59,8.86-3.55,11.81C19.34,166.91,7,177.81,0,184.05m0-9.57c3.49-3.22,8.27-7.73,11-10.84,4.72-5.31,5.32-2.95,5.32-9.45s4.72-8.86,8.86-13.59,15.2-13.72,21.85-21.26c4.44-5,7.39-6.8,10.94-10.64s7.38-6.5,10-9.45,2.06-7.09,2.06-10.63,2.07-4.73,4.44-7.39c0,0,5.9-5.9,11.22-10.93s28.46-28.16,28.46-28.16c4.33-4.33,5.51-6.3,3.93-9.84s0-5.12,2.37-8.27c2-2.67,14.14-15.77,21.42-24M34.07,119.93C25.8,128.79,19.3,135.88,15.16,140s-6.49,5.91-7.09,10.05-.59,5.9-2.95,7.68c-1.2.9-3.33,2.26-5.12,3.38M0,114A171.51,171.51,0,0,0,18.71,94.52m69.12-37.8C79,65.58,70.7,73.26,67.15,76.8s-5.32,7.09-5.91,10-.59,5.91-4.13,9.46l-10,10M256,246.67,251,251.16M256,195.31l-5.12,4.37s-7.09,7.38-9.46,9.45-1.47,4.43-.59,6.8,2.07,1.77.89,4.72-10.93,10.93-13.88,14.18-5.61,5-5.32,7.09.89,3.84-.29,5.32a16.18,16.18,0,0,1-3.84,2.95M256,183.88c-3,2.7-5.13,4.58-5.13,4.58s-4.13,1.47-4.42,3.83a12.52,12.52,0,0,1-3,7.39c-2.36,2.95-5.61,5.61-13,12.41S211.88,228,211.59,232.17s1.77,5.32-.89,7.68-11.22,11.82-11.22,11.82m52-73.26s1.94-1.72,4.53-4.11m0-13.3c-1.82,1.13-3.35,2.05-3.35,2.05s-5.61,5-7.09,7.68-1.18,5.91-1.18,8.57-1.48,5-5,8.56-29.84,25.7-34,30.72a73.28,73.28,0,0,1-5.32,5.62c-1.48,1.18-3.55,4.13-2.95,6.79s1.47,6.5-.3,8.57-13.29,12.7-15.66,15.06M256,113.86c-.95.87-1.87,1.72-2.76,2.52,0,0-3.84,9.45-7.09,12.41-4.08,3.71-11.54,10.64-16.54,15.36-5.31,5-8,7.68-10.63,10.63s-6.5,7.09-5.32,8.86,2.66,3.84-.3,8-23.63,25.1-31,33.08-10.63,9.75-10.93,13.29,3,5.62.89,8.57S157,240.15,152.52,244.87M256,126.24c-1.76,1.91-3.13,3.42-3.94,4.32M126.52,62c-10,10.34-17.72,18-21.86,22.74s-6.2,5.32-6.79,9.46-1.77,7.38-4.43,10.34-10.63,10-10.63,10m126.42,27.47s15.36-15.06,18.9-18.61,3.25-4.72,3.25-7.68.29-4.13,3-6.79S247,94.52,252.65,88"/>
  </g>
</svg>
