<svg id="Layer_1" data-name="Layer 1" xmlns="http://www.w3.org/2000/svg" width="256" height="256" viewBox="0 0 256 256">
  <defs>
    <style>
      .cls-1, .cls-2 {
        fill: none;
      }

      .cls-2 {
        stroke: #803e28;
        stroke-miterlimit: 11.34;
        stroke-width: 1.5px;
      }
    </style>
  </defs>
  <g>
    <rect class="cls-1" x="0.13" width="255.74" height="256"/>
    <path class="cls-2" d="M11.65,6.74,11,0M39.28,1.85,39,0M24.26,4.9v0m0,0,1.68,7.48M56.55,0l1.72,4.67M10.9,31.57,9,15.39m28.2-4.89,3.94,14.3M67.85,1.85l5.08,9M232.71,0l-1,8.24M188.9,13,194,0m46,17.43V8.81m0,8.62v0M.13,95.92c7.82,6,20,11.35,34.05,15.8m66.92,13.84c8.53,1,16.3,1.62,22.72,1.81m-49.4-5.86c9.24,1.71,18.33,3.07,26.68,4M34.18,111.72a341.84,341.84,0,0,0,40.24,9.79m49.4,5.86c1.47,0,2.86.07,4.18.07m0,0a255.51,255.51,0,0,0,30.19-2.28m0,0c7.63-1,15.77-2.22,24-3.77m0,0c8.77-1.63,17.69-3.59,26.25-5.83m36.38-12.9a67.92,67.92,0,0,0,11-6.74m-47.39,19.64c13.66-3.58,26.44-7.91,36.38-12.9M53.43,180.55c11.45,2.78,23.31,5,34.48,6.73m0,0c15.76,2.39,30.15,3.66,40.09,3.66M.13,159.43l-.13-.1m.13.1c11.24,8.68,31.53,15.84,53.3,21.12M128,190.93c5,0,11.16-.32,18-.94m76.63-15c5.8-1.87,11.28-3.88,16.25-6m0,0a80.24,80.24,0,0,0,17-9.5M193,182.73c7.41-1.59,14.78-3.4,21.82-5.41m41-17.9.13-.09m-41.16,18c2.66-.76,5.28-1.56,7.83-2.37M146,190a407.42,407.42,0,0,0,47-7.26M.13,32.14l.23.18m0,0C5.2,36,11.67,39.42,19.18,42.53m0,0A219.35,219.35,0,0,0,45.6,51.27m0,0c9.08,2.44,18.59,4.55,28,6.3m0,0c6.32,1.18,12.59,2.2,18.6,3m0,0a273.78,273.78,0,0,0,35.84,3M255.63,32.33a2.23,2.23,0,0,0,.24-.19M128,63.65c9.89,0,24.19-1.25,39.84-3.61m0,0c32.33-4.89,70.48-14.52,87.79-27.71M173.25,143.79c17.68,8,39.16,12.38,58.7,14.31m0,0c8.5.84,16.63,1.22,23.92,1.23m-100.8-26.25.2.15m0,0a89.17,89.17,0,0,0,18,10.56m82.62,15.54H256M131.38,207.59a40.54,40.54,0,0,0,3.36,2.32M170,220.57c5.47.77,11.15,1.33,16.91,1.74m-52.14-12.4c8.79,5.43,21.31,8.71,35.23,10.66m16.91,1.74c25.61,1.8,52.72.52,69,.52M112.4,75.37a121.49,121.49,0,0,0,12.3,4.7M91.91,60.27l.25.35M235.33,95.18c8.49.28,15.58.36,20.54.36m-63.63-3.07c6.69.64,13.23,1.16,19.49,1.57M92.16,60.62c3.64,5.14,9.58,9.53,17.11,13.27M211.73,94c8.56.55,16.56.91,23.6,1.14M109.27,73.89c1,.51,2.06,1,3.13,1.48m12.3,4.7c19.56,6.38,44.34,10.17,67.54,12.4m-58.49,162.4c5.77-.24,12.51-.79,19.85-1.63m93.93-24.56a63.38,63.38,0,0,0,8.19-5.29M127.86,255h-.14m.14,0c1.82,0,3.79-.05,5.89-.13m82.46-14c2.6-.76,5.16-1.55,7.65-2.37m-70.27,14.71c11.29-1.29,24-3.28,36.62-5.91m0,0c8.84-1.84,17.67-4,26-6.43m7.65-2.37a144.21,144.21,0,0,0,23.67-9.85m-189.48,17c4.05.93,8.13,1.79,12.2,2.58M5.05,226.85A102.36,102.36,0,0,0,20,234.2M.13,223.49a52.73,52.73,0,0,0,4.92,3.36M127.86,255H128M49.18,243.55q4.4,1.13,8.87,2.15m62.48,9.1c2.64.13,5.1.2,7.33.2m-90-14.59c3.68,1.11,7.47,2.16,11.32,3.14M20,234.2c1.34.55,2.72,1.08,4.12,1.61m70.36,16.48,3.34.43m0,0c8.39,1.06,16.15,1.77,22.73,2.08m-50.28-6.52c4.48.88,9,1.68,13.33,2.39M24.1,235.81c4.34,1.63,9,3.16,13.76,4.6m45.72,10.26c3.69.6,7.33,1.14,10.88,1.62M82.84,5.23,82.33,5m18.82,9a230.75,230.75,0,0,0,35.57,11.49m118.91,6.89h.24M136.72,25.44a273.75,273.75,0,0,0,27.15,5m0,0c39.06,5.22,73.39,1.94,91.76,1.9M82.84,5.23q9.07,4.88,18.31,8.72M88.29,148.51c9-1.58,18-3.3,26.66-5.13m40.32-10.15c12.13-3.78,21.69-7.78,27-11.84M.13,159.32c5.74-.07,14.44-.7,25-1.8m157.18-36.2-.09.07m-38.79,15.26c4.15-1.12,8.11-2.26,11.83-3.42M25.14,157.52c17.57-1.84,40.31-5,63.15-9M115,143.38c10-2.11,19.7-4.37,28.49-6.73m-45.57,77.7,5.21-.94m84.6-22.52c10.74-4.22,20-8.76,27.16-13.57m-40.2,18.29q6.81-2.28,13-4.72M.13,222.91c17.73,1.44,49.12-.89,83.13-6.15m0,0c4.83-.74,9.71-1.55,14.61-2.41m5.21-.94q7.41-1.35,14.79-2.88m0,0c14.5-3,28.8-6.46,42.09-10.33m0,0c5.06-1.47,10-3,14.68-4.59m40.2-18.29,1.12-.78m-117-96.42q5.06-2.81,10.36-6.23M84.64,87.09a149.92,149.92,0,0,0,14.27-7m10.36-6.23.12-.08M.13,95.55c24.59.15,50.19,6,84.51-8.46M69,13.27c4.82-2.51,9.47-5.2,13.88-8m-68.36,26a141.46,141.46,0,0,0,15.91-3.15M.13,32.32H.36m0,0a109.82,109.82,0,0,0,14.12-1.05m15.91-3.15a175.91,175.91,0,0,0,23.4-7.8M82.84,5.23Q86.77,2.7,90.44,0M53.79,20.32c5.18-2.13,10.26-4.49,15.17-7m-68.83,3C27.24,13.85,53.51,7.28,72.12,0m-59,87.16C48,88.91,81.74,85.46,103.75,71M.13,86.28c4.34.37,8.7.67,13,.88M82,72a137.37,137.37,0,0,0,15.56-5.51M41.36,79.09A205.06,205.06,0,0,0,82,72M4.89,79.43a270.42,270.42,0,0,0,36.47-.34m-41.23,0c1.58.11,3.17.22,4.76.31m14.29-36.9.27,0M7.17,43.69a86.56,86.56,0,0,0,12-1.16m-19,.68a42.32,42.32,0,0,0,7,.48m-7,15.85a98.71,98.71,0,0,0,36.16-4.6m0,0a86.81,86.81,0,0,0,9.31-3.67m.07,0-.07,0m28,6.3.31-.12M.13,69.92A137.55,137.55,0,0,0,22.75,70m35.19-6.84q7.71-2.39,15.62-5.6M22.75,70a160.44,160.44,0,0,0,35.18-6.84m.12,182.53h0M10.9,255.58a206.57,206.57,0,0,0,45-9l2.2-.91M.13,256c3.5,0,7.1-.13,10.77-.4m27-15.17.2-.09M.13,245.54a95.21,95.21,0,0,0,35.4-4.09l2.33-1m178.35.49-.06-.11m.06.11.57,1.12c3.6,5.16,9.3,8.7,16.38,10.92m0,0a78,78,0,0,0,22.71,3m-14-12.51a90.65,90.65,0,0,0,14,2.08m-29-8,1.47.75c1.86,1.44,6.69,3.53,13.55,5.12M221.16,17.25c6.33.31,12.66.35,18.86.18m0,0c5.38-.15,10.66-.46,15.75-.9h.1M177.52,10c13.15,4.29,28.37,6.51,43.64,7.23M156.6,0a79.56,79.56,0,0,0,20.92,10M.13,51.55a61.51,61.51,0,0,0,19.62-.7m0,0a98.74,98.74,0,0,0,12.67-3.28M204.63,79.1c6.4,1.2,13,2.34,19.78,3.37m-84.57-19.1c8.24,2.56,22.74,6.64,40.72,10.73m0,0c7.49,1.7,15.58,3.41,24.07,5m19.78,3.37c10.21,1.56,20.73,2.87,31.28,3.77l.18,0M244,78.05c4,.4,7.95.74,11.75,1h.16M167.75,60l.09,0m1.65.89c17.39,9.12,47.69,14.43,74.47,17.12M167.84,60c.54.3,1.09.6,1.65.89m72.13-20.42c5.24,1.87,10.12,2,14.09,2.63l.16,0M212,51c.57.27,1.17.53,1.78.78m0,0c11.16,4.64,27.52,7,42.07,7.8m-62.74-4.06c.6.35,1.22.69,1.86,1m0,0c9,4.74,21.14,7.85,33.42,10m21.08,2.82q3.19.33,6.2.59l.18,0m-27.46-3.43c7.19,1.24,14.41,2.13,21.08,2.82m-19.43-24c3.5,2.86,15.12,4.6,25.62,6.18l.19,0M134.48.15A134.76,134.76,0,0,0,157.72,14m0,0c22.9,10.61,49.67,14.72,92.65,18.07m-129-32c2.68,2.67,6,6,10,9.44m0,0c9.6,8.28,23,17.52,40,21.48m-34.7-5.48.87.4M100.66,0c10.48,9.17,26.26,20.81,36.06,25.44M252.57,0c1.09,0,2.19.06,3.3.07M109.58,62.71c1.71,1.37,3.45,2.72,5.24,4m0,0c13,9.53,28.42,17.54,51.71,22.5m-39.1-25.59c17.49,11.29,77.63,30.58,118.23,31.71M101.5,14l-.35,0M85.69,11.5A153.37,153.37,0,0,0,101.15,14M77,8.9a50.26,50.26,0,0,0,8.72,2.6M69,13.27l-.45-.13m.45.13c18.85,5.6,26.79,11.12,48,6.64M83.62,29.28a168.52,168.52,0,0,0,42.5,1m0,0A76.58,76.58,0,0,0,141.82,27m-88-6.65c7.43,4.21,18.15,7.2,29.83,9m-29.83-9-.22-.13M43.7,24.14a36,36,0,0,0,7.22,5m113.17,1.19-.22.08M50.92,29.16c19.59,10.74,63.93,19.51,113,1.27M30.17,27.81l.22.31m2.47,2.75c7.08,6.73,20.41,11.69,36.65,14.84M30.39,28.12a22.45,22.45,0,0,0,2.47,2.76M122,49.7c19.62-.46,38.85-3,53.84-7.62M69.51,45.71a253.19,253.19,0,0,0,52.48,4m53.84-7.62c7.73-2.4,14.33-5.36,19.27-8.91M144.55,55.61a277.57,277.57,0,0,0,56.4-10m0,0c11.66-3.48,21.8-7.68,29.68-12.42M14.48,31.27c.55.38,1.09.75,1.65,1.12m0,0c19.26,12.76,45.72,20,73.9,22.78m-75.65-24,.1.07M90,55.17a308.35,308.35,0,0,0,54.52.44M98.91,80.12c8.61,3.47,21.15,1.09,25.79-.05m0,0,.2,0M98.68,80l.23.1m-14.27,7,.87.2m-.87-.2h-.06m.93.21c21.26,4.9,37.79,5.9,63.64-.78M69.36,92.44c9.36,7.53,33.07,10.52,60.15,7.71m0,0a206.74,206.74,0,0,0,44.73-9.7m-33.45,20.8c13.27-1.25,26-4.2,37-9.49m14.47-9.33,0,0m-102,16.8c16,2.46,33.7,3.59,50.57,2m37-9.49a66.77,66.77,0,0,0,14.42-9.3M43.7,96.67c9.72,4.51,26.82,9.57,46.52,12.6m112.41-1.08A144.64,144.64,0,0,0,229.5,95M21.43,96.67c4.6,3.22,15.06,7.66,29.34,11.81m119.15,8.35a178.2,178.2,0,0,0,32.71-8.64m-151.86.29A295.09,295.09,0,0,0,94,117.42m0,0c23.43,3.08,50,3.8,75.94-.58m-26.48,19.81-.22-.18m.22.18a23.84,23.84,0,0,0,10.69,5.53m19.12,1.61h.42m-19.54-1.62c4.41,1,10.14,1.33,19.12,1.61m2.54,5.37c2.16-.42,4.46-.88,6.91-1.41M115,143.38l-.48-.14m.48.14c6,1.78,11,3.34,15.47,4.6m0,0c14.91,4.27,23.67,5.34,45.37,1.18m-87.5-.65c23.34,5,40.79,8.37,57.75,9m0,0c15.4.61,30.41-1,49.06-5.84M87.4,148.32l.89.19M119,164a222.6,222.6,0,0,0,55.47-.24M66.54,152.27C84,157.5,100.88,161.82,119,164m55.47-.24a318.63,318.63,0,0,0,39.26-7.57M82.66,167a202.87,202.87,0,0,0,39.51,5.5m0,0a251.69,251.69,0,0,0,41.94-2.12M45.67,155.09a266.68,266.68,0,0,0,37,11.93m81.45,3.38c20.45-2.58,42.28-7.1,67.84-12.3m0,0,.93-.19m-207.74-.39-.33-.17m167.14,19a285.08,285.08,0,0,0,38.21-11.49m-205-7.3C72.3,181.68,131.12,190,192,176.31m38.21-11.49q6.45-2.43,12.87-5.21m-125.46,50.8.3.12m10.32,3.75c3.49.76,7.83.91,18.42,1.21m-28.74-5c5,2,7.36,3.11,10.32,3.75m-17.49,2.28c8,3.3,16.15,6.06,31.24,6.12m25.76-1.81,2.27-.3m0,0h0m-66.93-7.16-.45-.18m8.07,3.33c-2.48-1-5-2.09-7.62-3.15m38.86,9.27a204.49,204.49,0,0,0,25.76-1.81m19.51,1.39-.33.05m-9,1.18c2.89-.37,5.89-.76,9-1.18m-104-5.69.37.14m0,0c13.48,5.33,23.31,8.7,35.9,10m0,0c8.12.83,17.39.8,29.53-.13m0,0c8.23-.63,17.77-1.67,29.17-3.13M139.1,236.77c17-.45,36.32-3.62,58.84-11M118.61,236a158,158,0,0,0,20.49.77m58.84-11q3.47-1.14,7-2.4m-132.8,1.25c14,5,29,9.56,46.44,11.36M59.77,220c4.07,1.55,8.19,3.12,12.4,4.64m-11.1,6.42a275.52,275.52,0,0,0,26.52,7.68m88.56.12a206,206,0,0,0,29.2-9.49m-59.87,14.3a184.65,184.65,0,0,0,30.67-4.81m-88.56-.12a192.86,192.86,0,0,0,57.89,4.93M37.21,222.26c7.33,2.82,15.29,5.88,23.86,8.8m144.28-1.69q6.63-2.7,13.43-6M88.33,247.52a226,226,0,0,0,23.88,2.38m108.86-18.62c6.85-2.62,12.89-5.23,18-7.61M130.82,250c35.82-1.14,67.47-10,90.25-18.74M112.21,249.9q4.74.21,9.4.25m0,0q4.65,0,9.21-.13M46.43,236.66a213.72,213.72,0,0,0,21,6.59m0,0Q78,246,88.33,247.52M17.48,223.39a214.53,214.53,0,0,0,29,13.27M.13,173.16a64.69,64.69,0,0,0,14.94-1.29m0,0c1.48-.28,3-.6,4.67-1m16.35,5.64c-11.07,1.65-20.55,3.38-28.93,4.81m-7,1.17q3.39-.54,7-1.17m46.41-.86-.14.06M.13,191.21c16.93-1.26,33.58-4.29,45.38-7.87m0,0c3-.9,5.64-1.84,7.92-2.79M.13,197.69c6.83-.55,13.67-1.32,20.35-2.26m12.83-2c10.52-1.85,20.34-4.05,28.75-6.32m-41.58,8.35c4.36-.61,8.65-1.29,12.83-2m28.75-6.32c3.21-.87,6.22-1.76,9-2.64m-9.56,10.34c8.59-2.32,17.39-4.84,26.42-7.5m0,0H88M38.18,200.62c7.6-1.73,15.37-3.7,23.31-5.84M.13,207.15a321.36,321.36,0,0,0,38.05-6.53m25.34,1.77c19.13-3.78,36.23-8.12,49-12M37.17,207c9-1.36,17.9-2.92,26.35-4.59m-54.41,8c9.42-.88,18.84-2.06,28.06-3.45m-37,4.2q4.49-.31,9-.75m126.78-19.5c6.21,1.19,10.4,1.91,13.73,2.31m0,0c9.36,1.14,11.85-.19,33.08-.61M78,199.4c41.16,3.95,38.16,4.24,77.07,2m-92.48,8.4c-5.54-1-12-2.19-19.92-3.6m55.2,8.17h.24m-35.52-4.58c15.62,2.83,23.73,4.14,35.28,4.57m-50.32,3.44c6.34.4,13.32.52,21.81.52M9,210.41l.09,0m0,0C24.24,215,34.55,217,47.55,217.79m-33.45,5c-5.08-.8-9.7-1.42-14-2m245.63-49.45a40.19,40.19,0,0,0,10.11,1.73m-17-4.24-.16-.06m.16.06c2.3.94,4.51,1.81,6.84,2.51m-19.33,12.83c8.76,1,18.08.06,29.44-1.74m-45-2.53a53,53,0,0,0,15.57,4.27m-25.94,1.26A55.42,55.42,0,0,0,210.85,189m28.36,2.85c5.48,0,11.09-.21,16.66-.63m-45-2.21c8.26,2,18.08,2.82,28.36,2.84m-51.78-1.07.25.12m7.66,2.91a115.19,115.19,0,0,0,26.57,4.42m0,0a241.1,241.1,0,0,0,34-.53m-68.19-6.8a61,61,0,0,0,7.66,2.91m32.14,14.32a194.32,194.32,0,0,0,28.39-1m-81.23-11.54a137.21,137.21,0,0,0,47,12.15m-47-12.15-.16-.07m47.19,12.22q2.9.23,5.81.36m-67.69-8,.17.08m22.14,7.46c21.52,4.89,47.52,5.44,73.77,3.52M160,200.2a105.21,105.21,0,0,0,22.14,7.46m52.1,10.63c6.38.9,13.35,1.57,21.67,2.59m-47-9.34c8.65,3.79,16.4,5.5,25.28,6.75m-139.74,34,0-.06m-4,3.77c1.12-.82,2.21-1.64,3.28-2.48l.73-1.23m-10.88-1.62.19-.13M72,256c3.53-1.37,6.79-2.77,9.72-4.18l1.84-1.15M46.4,256c7.67-2,14.93-4.18,21.47-6.51l2.38-1.21m0,0,.36-.18m119.6-.77L190,247m.18.33.6,1.11a27.67,27.67,0,0,0,8.24,7.56M198.86,0c12.81,8,34.16,9.84,57,8M24.26,4.9C32,3.54,39.61,1.88,46.86,0M.13,8c8-.64,16.1-1.71,24.13-3.12M153.59,253.24l0,0m0,0,1.1,1.16c.71.55,1.43,1.08,2.18,1.6m-23.12-1.13-.11-.15m.11.15.85,1.13m-14.06-1.2.88,1,.19.19m-1.32-1.47.24.27M97.8,252.72l1.63,2c.48.44,1,.87,1.49,1.32m-3.12-3.28-.06-.07M20.11,234.21H20m-19.85-3a111,111,0,0,0,19.85,3m227.55-5.52c2.71.82,6.32,1.93,8.21,2.43l.13,0m-8.34-2.46-.36-.12m-228.26-116a156.73,156.73,0,0,0,35.22,4.71m-54-10.38a188.87,188.87,0,0,0,18.78,5.67M.13,114c9.26,2,19.68,3.89,29.82,5.3m30.57,2.87a65.1,65.1,0,0,0,13.9-.68m0,0h0M30,119.32a294.52,294.52,0,0,0,30.57,2.87M30,127.69c5.4.32,10.78.56,16,.73M.13,125.11c5.55.64,11.27,1.2,17.05,1.67m83.92-1.22.4-.1m-55.51,3c23.35.73,44.42-.13,55.11-2.86m-83.92,1.22c4.24.35,8.51.65,12.77.91m5.53,8.79c37.63-.41,73.66-3.59,87.52-8.79M.13,136c11.51.44,23.51.59,35.35.46m88.34-9.11c.18-.07.35-.14.51-.22m-1.33.54.82-.32m-13.28,11.54c26.33-5,44.46-10.87,47.65-13.75m0,0a3.18,3.18,0,0,0,.26-.26M49.79,146.84c10.47-.74,20.58-1.79,30.16-3m0,0c11-1.43,21.31-3.11,30.59-4.89M.13,147.78c6.21.23,12.41.32,18.55.28m0,0c10.59-.06,21-.5,31.11-1.22m195.07-44.18c2.24,1,4.76,2,7.51,3.07m-7.51-3.07-.09,0m7.6,3.11c1.13.43,2.3.87,3.5,1.3m-20.4,1.49a175,175,0,0,0,20.4,5.58m-22.55-6.38c.68.26,1.4.54,2.15.8m-20.09,9.35c10.41,3,24.78,5.48,40.49,7.28m-47.39-9.59c2,.8,4.35,1.57,6.9,2.31m-6.9-2.31-.34-.14m-27,6.89c2.61,3,8.75,5.53,17.33,7.55m0,0c14.12,3.32,34.85,5.31,57.4,6.17m-17.16,10.75q8.58.71,17.16,1m-48.75-5.13a318.27,318.27,0,0,0,31.59,4.12m-74.82-16.2a231.2,231.2,0,0,0,43.23,12.08M10.9,255.56v0m0,0,0,.42m28,0-.8-4.58m17.48,2.07.92,2.51m176.6-3.06-.35,3.06m.35-3.06h0m-39,3.07,1.06-2.7m44.46,1,2.24-10.87m0,0v0M23.49,254l-1.87-9.23m27.56-1.19-.12-.31m1.88,4.7-1.76-4.39M9.59,233.27l.94,12.23M5.05,226.85l0-.17m0,.17L4.13,232m58.46-22.17-.19,8.44m.19-8.44v0M37.17,207l-1.65,9.54M37.17,207l0-.24m10.33,11v-.33m0,.33v3.44M22,214.08l-.75,8.65m5.83,5.65-3,7.43m0,0,0,.09m22.37.76-1,5.64m1-5.64h0m-8.65-3.57,3.38-9.22m25.57,23.52.74-4.13m0,0h0m-6.41-12.18,0-.05m0,.05-2.61,9.55m29.69,10.53.18-3.62m0,0v-.14m23.87,2.52L112,254m.19-4.07v-.07m18.61.18v0m0,0,.19,4.51m31.2-7.34.75,4.71m30.64-11.48,1.13,5.83m26.34-15,0-.08m2.82,7.34h0m-2.79-7.25,2.79,7.25m25.56-11.09-2.25-4.33m-41.92,6,.09.24m0,0,2.53,6.53m-31.76,2.82,0,.14m0,0,1.28,5.13m-32-.32v-.06m0,.06.38,5.21m-24.63-5.08.38,6.34m0,.06v0m-34-11.41v0m0,0L86.09,247M69.17,233.46l3-8.82m0,0v0M105.07,234l-1.13,7.72m35.16-5,.55,7m-.56-7.15v.12m33.07,2.71-1.5-6.4m27.27-7.29L200,231m-2.05-5.22,0,0m-20.06-2.25-.05-.19m.05.19,2,7.33m-31.19-4.2.93,9.47m-.94-9.6v.13m-29.53.13-.55,9.25m0,0v.09m.56-9.34v-.07m-27.82-6.77-3.76,9.78M109,225l1.68-8.43m0,0v0m31.57,10.35-.34-4.19m0,0,0-.32m25.75-1.7,0,.2m0,0,.71,3.74m-41.54-3.2,1.32-7.13m0,0v0M156,222l-.19-3.95m-21.08-8.12-.72,4.92m.72-4.92,0-.16M77.06,212.2,80.26,200m33.46-9.59-1.32,12m37.22-9.17.18,8.42m-.18-8.47v.05m-86.1,9.15-2-7.61m0,0,0-.08m2.06,7.69v0M87,187.55l3.2,8.65m-52,4.42,0-.09m1.31,5.83-1.29-5.74m-22,4.43.57,4.51m151.06-5.77-6,15.05m33.08-8.78-1.25,12.55m27.82.5-.5-7.28m14-3.51-.75,6m0,0v.05m-52.1-10.68,1.72-8.13m-1.72,8.13,0,.15m23.31-2.26-.25,5.52m22.3-3.27,0,.32m.7,3.95-.7-3.95m21.75,3.2-.25-3.26m-27.31-.3.24-9.54m0,0V198m-.25,9.74v.05m-26.32-14.05v0m-2.49,8.49,2.49-8.49m14.3,2.72,1.21-7.53m0,0,0-.25m28.32,3.1v6.68m0-6.68v-.09m-12.78-7.49v0m-.5,7,.5-7m19.33-12.83,0-.25m1.5,12.29-1.47-12M222.67,175h0m0,0-.25,8.52m30.32-21.57-1.25,10.53M7.89,206l-1.12-8.85m26.54-3.74,0-.21m0,.21L35,201.28M62,187l0,.1m0,0,2,6.87M45.51,183.34l1.67,7m-1.69-7.15,0,.12m-25.77,5.71.74,6.38m0,0v0M7.16,181.35l.92,8.83m-.92-8.83,0-.2m24.44-3.76,1.88,8.84M15.07,171.87l2.22,7.59M15,171.74l0,.13M32.89,161.4l-5.64,11.47M65.79,183l2.06-8.84m38,15.24.19-7.9M146,190l-.94-7.33M146,190h0M192,176.31l1.06,6.42m0,0v.11M192,176.31l0-.24m38.15-11.48.1.23m2.91,6.36-2.91-6.36m-20.77,6.74-2.64-8.28m-42.64,7.12,1.48,10.37m-1.5-10.53,0,.16m-41.94,1.91v.21m0,0v9.95M80.45,177.2,82.66,167m0,0,0-.17m-12-13.36-3.38,9.22M119,164h0m0,0-.38,8.28m55.85-8.52.92,4.94m-.92-4.94,0-.14M146,157.55v8m0-8v-.29m-47.93,3.2,2.26-9.41m96,9-2.63-7.9m-18-3,1.45,6m-1.45-6,0-.18m-46.8,6.77,1.48-7.77m0-.13,0,.13m23.71,3.63v-9.43m0,0V142m8.08-4-.75,4.89M6.89,100.44l-1.75,8m29,3.25,0-.24m-.5,4,.47-3.77m-15.27.84v-.08m-.5,4.76.49-4.68m31.34,4.68.25,4.27M30,119.32v8.36m0,0v.09m0-8.46v-.07m30.57,2.94v-.43m0,.43v6.09m24.06-.5-.75-4.52M8.15,125.77,8.4,116m8.78,10.79.49,9.28m-.5-9.53v.25M46,128.28v.14m0,7.64v-7.64m31.33,6.13-.76-6M107.64,131l-1.26-4.77M6.89,147.6l-.25-11.29m28.84.17,1,11.12m-1-11.12,0-.17m27.32-.5L64,145.59M94.86,133.3l1.25,8M123,127.69l3.44,7.61M123,127.69l-.07-.16M18.68,148.06l.49,9.82m-.5-10v.21m31.11-1.22,1.21,7m-1.25-7.28,0,.25m30.16-3,1.25,5.55m-1.32-5.84.07.29m30.59-4.89,0-.1m1.13,5.08-1.11-5M138,132.8l1.88,4.7m28.57-9.22-2.44-4m13.72,11.85-2.63,9m30.06-2.56-1.68,11.21m1.68-11.21v-.08M238,158.39l.74-11.61m0-.06v.06m-9.2-12.1-.57,10.91m-30.46-15.73v-.07m-1.87,10.53,1.86-10.46m16.91-12,0-.12m0,.12L213,132.23m30.82,3,.94-11.48m-12.21-2.26,3-13m0,0,0-.18m15,4.33,1.82-6.94m0,0,.06-.21m-17.1-10.34h0m4.7,9.59-4.69-9.58m-30.45,20.87-2.25-7.86m0,0v0m-32.7,8.68v0m0,0L171,123.2M132,120l.37,7.15M94,117.42l-.57,6.91m.57-6.91v0m-36.09.38,1.5-6.78M27.82,100.25l-3.2,8.09m26.13.19,0,0m0,0,2.61-7.85M102.81,111l-.56,7.34m39.28,1.32-.74-8.37m0,0v-.1M182.51,114l-4.7-12.22m0,0v0M211.73,94l-.09-.19m4.14,8.47L211.73,94m-49.9,13.18L159,95m-29.5,5.17.93,11.58m-.94-11.67v.09m-39.29,9.12,1.32-9.21m-1.32,9.21h0M82,98l3.56-10.7m0,0v0m33.84,13.33.19-9.4M162,93.85,160,88.39m-37.59-7.71,1.88,10m-21.61-9.4-1.7,8.65M112.4,75.37v6.25m0-6.25v-.15M13.16,86.89v.27m0,0,.19,8.76M58.46,86l1.87,8.47M82,71.84,82,72m0,0,2.4,7.75m-43-.65.93,8M41.35,79v.1m-36.47.28v.06m0,0,.19,7.09M22.75,70l.37,9.54M22.74,70V70m35.14-7,0,.17m0,0,3.33,13m-25-21.23v0m0,0L39.47,67.7M7.71,70l-1-10.16m13-8.95,1.3,7.44m-1.3-7.44v-.08M7.14,43.43l0,.26m0,0,.91,8M3,34.21v9.22M85.69,11.5l0-.06M84.21,18l1.48-6.53m15.62,19.32.19-9.22M67.1,25.55l4.14-11.28m12.38,15,0-.15m0,.15-1.48,9.63M50.93,29.16v0M47,38.91l3.94-9.75M98.11,49.07V40.79m-28.6,4.92L68.42,51.9m1.13-6.4,0,.21M32.89,30.82l0,.06m0,0L28.19,39.1M48.31,51.52l.94-4.14m-37-8.28,3.91-6.71m0,0,0-.06M90,55.17l-.37,5m.37-5v-.08m36.09-24.83,1.5,9m-1.5-9h0m19,6,2.26,11.29M122,49.7l.18,6.71M122,49.7v-.06m22.56,6v-.14m0,.14.56,6.82m30.72-20.35L178,50.77m-2.17-8.69-.09-.34M201,45.59l0-.09m0,.09,1.86,7.25m37.59-20,4.32,5.46M248,42.24l-1.25,7.52m-16.54,6.52L233,47m16.54,22.29v0m0,0,.5-10M213.9,51.52l-.1.21m0,0-4.66,10.08m17.54,14,1.73-9.38m0-.15,0,.15M195,56.5l.11-.22m-.11.22-6.15,11.58m15.79,11h0m1.5-6.52-1.5,6.51m39.33-1v-.19m-.5,6.77.49-6.58m-19.55,4.42v-.09m0,.09-1.24,10.44M180.56,74.1h0m0,0-2.5,9m-12-12.8,3.46-9.4m0-.13,0,.13M147.24,73.09l-3.51,9m42.1,9.54,1.25-5.77M114.82,66.74l.09-.17m-4,7.78,3.92-7.61M104.13,14.89l3.51-8.53M131.4,9.44l0-.06m0,.06-6.47,8.71M157.72,14l0-.09m0,.09-5,9.94m45.61,8.78.5-6.52m-24.06-6L177.52,10m0,0,0-.14m42.85,19.06.75-11.69m0,0v-.1M.13,159.32v.11m0-127.11v-.18m0,63.79v-.38M255.87,32.14v.19m0,63.21v.38"/>
  </g>
</svg>
