<svg id="Layer_1" data-name="Layer 1" xmlns="http://www.w3.org/2000/svg" width="256" height="256" viewBox="0 0 256 256">
  <defs>
    <style>
      .cls-1, .cls-2 {
        fill: none;
      }

      .cls-2 {
        stroke: #803e28;
        stroke-miterlimit: 11.34;
        stroke-width: 2.36px;
      }
    </style>
  </defs>
  <g>
    <rect class="cls-1" width="256" height="256"/>
    <path class="cls-2" d="M145.56,17.74H134.09m64.64,0H145.56m53.17,0h14.82M82,17.74h52.09m121.91,0H213.54m-191.84,0H82m-60.3,0H0M164.51,37.49H37.69m218.31,0H164.51m-126.82,0H0m130.22,19.8H60.16m70.06,0h63.56m0,0h60.6m0,0H256m-195.84,0H0M59.6,197.35h68.58m66.22,0h59.51m0,0H256m-196.4,0H0m128.18,0H194.4M25.84,215.21H48.66m0,0H87.33m66.21,0h-36.3m-29.91,0h29.91m125.05,0H256m-230.16,0H0m242.29,0h-19.7m0,0H183.46m-29.92,0h29.92M31.32,76.3H0m31.32,0h60m132.13,0H256m-101.71,0h-63m132.14,0H154.29M132.62,91.82H61.68m70.94,0H198m57,0h1m-1,0H198m-136.27,0H0M244.58,108H256M35.4,108H0m163.69,0h70.66m-70.66,0H99m145.63,0H234.34M35.4,108H99M130,127.17H59.09m134.2,0H130m-70.94,0H0m255.67,0H256m-.33,0H193.29m62.71,18H0M256,165H0m245.1,15.26H0m245.1,0H256M42.64,252H0m238.33,0H256M42.64,252h67.69m0,0h64.74m0,0h63.26m17.67-16H0m25.84-20.87.17-.3m-.17.3L13.58,236m61.49,0,12.26-20.75m0,0,.17-.3m66,.3.18-.3m-.18.3L141.28,236m81.31-20.75h0m0,0L210.16,236M238.33,252,248,236.2M238.33,252l-.07.12M175.07,252l9.69-15.84M175.07,252l-.07.12M110.33,252l-.07.12m.07-.12L120,236.2M42.64,252l-.07.12m.07-.12,9.68-15.84m201.59-38.85.06-.09m-11.68,18-.19.29m.19-.29,11.61-17.86m-30.12-.18,10.05-16.85M212,164.66l12.12-19.22m21,34.88,0,0m0,0,9.66-15.14m-9.7-20.28,10.61-17.68m0-.06,0,.06M234.34,108l.08-.12m-.08.12-11.45,19.09M255,91.82l.07-.1M244.58,108,255,91.82M244.58,108l-.11.17m-21-31.89L214,91.64m9.44-15.34,0,0m19.44,0,11.46-19m0,0,.14-.24m-36.06,0L231,37.63M255,17.82,242.6,37.24m-29-19.5L224.35,0m-10.8,17.74,0,.06m-19,179.37-.11.18m0,0-10.94,17.86m-.18.29.18-.29m-55.28-17.86.11-.18M117.06,215.5l.18-.29m0,0,10.94-17.86m-68.47-.18-.11.18M48.66,215.21,59.6,197.35M48.48,215.5l.18-.29m114.81-34.89-10.05,16.85M98.73,180.32l-10,16.85m-62.66,0,10.05-16.85M189.19,180l9.17-14.78M121.79,180,131,165.25M50.55,180l9.17-14.78m84.54-.59,12.12-19.22M79.82,164.66l12.12-19.22M18.33,164.66l12.12-19.22m162.84-18.27-10.6,17.68m10.64-17.74,0,.06m-63.22-.06,0,.06m0,0-10.6,17.68M59.09,127.17,48.48,144.85m10.61-17.68,0-.06M163.69,108l.08-.12m-.08.12-11.45,19.09m-64.74,0L99,108m.07-.12L99,108M35.4,108,24,127.11M35.4,108l.08-.12M198.06,91.64l-.11.18M188.6,107.9,198,91.82M123.27,107.9l9.35-16.08m0,0,.11-.18m-71,.18L52.33,107.9m9.35-16.08.11-.18m92.5-15.34,0,0m0,0-9.44,15.34m-63,0L91.33,76.3m0,0v0m-60,0L21.88,91.64M31.32,76.3l0,0m162.44-19,.14-.24M182.39,76.27l11.39-19m-63.56,0,.14-.24m-.14.24-11.38,19m-58.68-19-11.38,19m11.38-19,.14-.24M164.51,37.49l.14-.24m-.14.24-12,19.56m-64.45,0L99.92,37.54m-62.23,0,.15-.24m-.15.24-12,19.56m173-39.31L186.82,37.25m11.91-19.51.12-.2M122.09,37.25l12-19.51m.12-.2-.12.2m-70.43.19L51.74,37.25m93.82-19.52,0,.07m0-.06L156.36,0M82,17.74,92.8,0M82,17.73l0,.07M21.7,17.74l0,.06m0-.06L32.5,0M226.44,252.45,224.3,256m-65.85-3.55L156.31,256m-61.42-3.55L92.75,256m-58.16-3.55L32.45,256"/>
  </g>
</svg>
