<svg xmlns="http://www.w3.org/2000/svg" width="500" height="500"><defs><pattern id="a" data-name="New Pattern Swatch 3" width="184.94" height="184.93" patternTransform="rotate(160 73.396 166.554)" patternUnits="userSpaceOnUse"><path style="fill:none" d="M0 0h184.94v184.93H0z"/><path d="M127.32 173c7.46.12 19.94 1 24 1.34 5.1.43 14-.42 21.26-.85m-49.73-.49c1-.09 2.59-.1 4.47-.07M134.46 7.4c3.84-.22 8.86-.33 14.12-.38m-24 1.69c1.47-.2 2.77-.41 3.81-.66a42.21 42.21 0 0 1 6.08-.65m-9.89 1.31c-8.74 1.15-23.53 1.47-26.8 1.47M148.58 7h16m5.67 0 5.53.08M164.59 7c2.06 0 4 0 5.67.06m14.67.16h-9.18m-29.51 19c2.56-.05 5.58-.07 8.84 0m-8.84 0c-2.84.06-5.1.14-6.42.14m20.07.05c7.42.37 14 .74 15.11.8m-19.92-1c1.27 0 2.56.08 3.87.14l.94.05m15.11.8h.16c3 .08 6.26.21 9.73.35m-14.3 20.33c-3-.06-7-.06-11.21.16-8.08.42-20.41-.43-25.09 0m50.6-.49c-3.65.14-7 .31-9.74.49 0 0-1.79-.1-4.56-.16m14.3 15.19c-3.27-.07-7.3-.32-10.59-.57 0 0-24.7.85-37.88.42-4.42-.14-9.6-.29-14.73-.38m-23.54.38c3.39-.57 13.37-.57 23.54-.38M66.6 84.85c3-.42 17.33-.47 26.69-1.32s30.41.63 45.29 1c2 .06 4 .16 6.18.29m0 0 2.55.17m0 0c9.65.7 19.84 1.92 24.81 2.54m11.2.59h-5.53m-5.67-.55 2.26.3m3.41.25c-1 0-1.9-.07-2.59-.14l-.81-.11m10.54.27h-1.61m-70.25 11.75c3-.42 12.76-.42 17.43-.85s17.44.43 24.67.85 21.73.85 21.73.85a77.21 77.21 0 0 1 8 0m0 35.38c-3 0-5.44-.06-7.18-.06 0 0-15.35 0-25.13.86s-25.09 1.7-34.44 2.12-14.89-.42-17.44 0m75.48 17 5.52.18m0 0 3.19.14m-12.12-.55a84.23 84.23 0 0 0-11.27-.23c-4.67.43-20.83-1.27-23-.85m37.63 1.31h-1s-.95-.09-2.39-.2m.83 17.21c3.17-.21 7-.39 11.29-.55m-30.19-52.6H162c3 0 12.38-1.28 12.38-1.28a105.41 105.41 0 0 1 10.58.23m-115-110L63 8.68M21.65 7.61c14.64.27 29.94.63 35.3.87 1.82.07 3.87.14 6 .2m15.86.42a85.61 85.61 0 0 1 9.19.65m-18.07-.9c3.09.07 6.16.15 8.93.25M12.3 7.43l9.35.17M0 7.26c3 0 6.46.08 10.21.14m2.12 0H10.2m116.48 18.08c-5.15 0-10.31.74-16.5-.19m-89.63 3.07c-6.91-.21-14.07-.55-20.58-.83m103.41-2.88a33.27 33.27 0 0 1 5.44.41l1.36.23m-89.63 3.07c10.53.31 20.47.31 26.62-.75 12.33-2.13 17-2.55 27.21-2.13 8.09.34 20.72-.93 29-.83M0 47.53c22-.87 56.55-1 64.2.06.68.1 1.39.19 2.14.27m48.89-.27c-2.55-.42-16.16-.42-20.84.43-4.32.79-18.82.84-28-.16m-36 14.86c-1.81.23-4 .46-6.74.61-8.08.42-15.95-.85-18.5-.43a33.07 33.07 0 0 1-5.1.15m84.19-.15c-17.86.85-31.89 1.27-41.25-.42-5.32-1-7.77-.37-12.6.24M50.44 87.3a115.13 115.13 0 0 1-13.68 1.13m-18.7-.34 2.26.09M15.58 88l2.48.08m34.06-1-1.68.26m-13.68 1.09c-3 .08-6 .06-8.71 0m0 0c-2.78-.06-5.38-.16-7.73-.25M0 88.15C4.4 88.1 9.39 88 13.58 88h2m82.19 11.89c-9.54 0-27.34-.78-39.89-.89m0 0a89.6 89.6 0 0 0-12.88.47c-6.8 1.27-11.48 1.7-25.51 1.7-2.26 0-4.38 0-6.37-.06m-3-.07c-3.95-.1-7.31-.23-10.15-.33m13.19.4-3-.07M.84 136.1l4.11.06m58.81 1.37c9.25.24 20.19.38 24.23 1.05m-80.71-2.39H4.95m58.81 1.37-3.61-.1m-52.87-1.27c17.36.26 42.48.81 49.67 1.12l3.2.12M44.62 156.8q1.37-.15 2.55-.36c9.25-1.59 14.2-2.23 20.41-2.27m-23 2.63c-10.75 1.2-29.44.2-44.58-.43m67.61-2.2c2.06 0 4.26 0 6.8.15 10.2.42 27.64-1.7 34.44-.43s12.33.43 17.86.43m-24.87 18.06c1.5 0 3-.06 4.46-.06m-4.46.06a68.58 68.58 0 0 0-9 .65c-4.68.85-21.26.85-30.19-.43-7.48-1.07-40.59-.94-62.65-.13m106.3-.15a68.71 68.71 0 0 1 7.37.28m-40.1-54.36h2.34m67.61-.21c-3.1-.58-5-.64-14.26.55-13.18 1.7-31 1.7-39.12.43a61.92 61.92 0 0 0-6.29-.53m-63.27 1.72c1.19 0 2.28.08 3.23.08A156.85 156.85 0 0 0 44.62 119c4.2-.53 17.47-.89 28.92-.79m75.25.79c-2.43-.39-4-.73-5.3-1m-122.94 2.22C14.92 120 7 119.25 0 118.84m75.91-.58c1.7 0 3.35.07 4.89.12m0 0c1.07 0 2.09.07 3 .12m-76 66.43v-10.8m-4.68 10.8v-10.58m7 10.58v-10.8m2.13 10.8v-11m2.77 11v-11m59.31 11v-9.73m2.34 9.73v-9.31m2.13 9.31v-9.52m2.76 9.52v-9.52m-60 9.52v-11m5.18 11v-11.22m6.94 11.22v-11.22m87.6 11.22V175m8 10v-10.23m2.84 10.16v-10.65M117 184.93v-10.16m-6.45 10.16v-10.58M146 184.93v-10.08m-6.18 10.08v-10.29m-2.93 10.29v-10.5m-2.45 10.5v-11.14m17.94 11.14v-9.65m5 9.65v-9.65m-8.86 9.65v-9.86m-78.66 9.86v-9.73m30.4 9.73v-10.58m2.33 10.58v-10.8m2.13 10.8v-10.8m2.77 10.8v-10.58M56 139.21v14.9m1.87-14.47v14.68m2.42 0v-15.11m-9.73.21v14.69m17-14.26v14.32m0 .15v-.15m-5.11-.63v-14.47m24.45 45.86v-9.52m8.93 9.52v-10.37m74.41 10.37v-9.52m5.53 9.52V175M5.29 156.44v-17.61m5.17 17.4v-17.4M21.6 156v-19.09m-1.87 17.62v-16.77m-2.33 18.47v-17.4m27.22 18v-.07m.8 0v-19.04m-5.27 18.93v-18.72m-6.23 17.94v-16.76M26.48 155v-16.74m-2.63 17.19v-16.77m149.61-.84v17.41m2-17.94v17.52m-3.56-17v17.41m9.92-18v16.77m-2.19-15.92v16.81m-1.92-16.49v16.77m-134.8 1.69v-19.36m124 47.42v-9.1m-71-23v-11.57m8 11.36v-13.27m-12.38 13.27v-11.78m-6.45 11.35v-10.72m35.43 12.21v-13m-2.26 12.76v-12.66m-4.89 12.47v-12.33m-3 12.12v-12.33M108 152.62v-12.34m18.92 13.83v-15.36m5 15.36v-15.29m-8.85 15.07v-12.55M74.8 152.19V139m2.34 13v-12.79M79.27 152v-12.58M82 152.19V139m-11.66 13.4v-13.19m74.41-.67v14.71m5.53-14.63v14.21m-8.93-14.43v15.28m-2.27-15.2v15.41m21-15.35v14.71m5.52-14.63v14.21m-8.93-14.43v15.28m-2.26-15.2v15.41m10.2 31v-8.88M7.84 0v7.24M3.16 0v7.24m7 .16V0m2.13 7.43v.22M12.3 0v7.44M15.07 0v7.24M74.38 0v8.73M76.72 0v9m2.13.21V9.1m0-9.13V9.1M81.61 0v8.73m-60-1.07V7.6m0-7.63V7.6M26.83 0v7.66M41.21 0v7.66M54.53 0v7.88M46.32 0v8.09M52 0v7.88M33.77 0v7.66M61 0v8.51M121.37 0v8.73m8-8.76v6.84M132.21 0v6.32M117 0v8.3M110.59 0v9M146 0v6.39M139.84 0v6.46M136.91 0v6.6m-2.45 1.06V7.4m0-7.43V7.4M152.4 0v6.39m5-6.42v6.49M148.58 0v7M69.92 0v8.85m0 .09v-.09M100.32 0v9.58M102.65 0v9.79M104.78 0v10m2.77-10v9.58M86.92 0v9.36M95.85 0v9.79M170.26 0v7.08m0 0v.09m5.53 0v.07m0-7.27v7.19M57.71 0v7m-16.5 177.9v-11.15m13.32 11.18v-11.82m-8.21 11.82v-11.4m5.68 11.4v-11.61m9 11.61v-10.54m-3.28 10.54v-12.46M166.86 0v7m-2.27-7v7m0 .07V7M6.57 63.88V86.8m-4.67 0V64.09m7-.21V87M11 63.66v23.57m2.8-23.56V86.8m59.32-3.41V65.92m2.34 17.69V66.35m2.12 17.47V66.14m2.77 17.25V66.14m-58-2.47v22.58m5.18-22.8v22.8m14.38-21.82v21.82m11.78-22v21.66M47 64.22v22.45M50.72 64v21.48m-16.25-23v23.77m25.25-21.18v20.07m60.38-3.7V65.71m8-.21v17m2.84-17.5v17m-15.16-1V65.5m-6.45 16.15V65.07M144.76 85v-.1m0 0V65.58m-5.33.64V83m-2.35-17.59v16.76M135 66v17.1m-1.8-18.58v18.79M151.14 66v19m5-19v19m-8.86 0V65.79m0 19.82V85m-78.63-1.4V65.92m30.4 16.36V65.07m2.34 17.43V64.86m2.13 17.85V64.86m2.76 17.42V65.07M54.75 28v17.81m2.51-17.41V46M59 28v18m-9.69-15.85v14.68m17 3V48m0-20.34v20.2m-5.1-20v17.4m24.45 36.81V66.14m8.93 16.36V65.28m74.41-1.1v21.57m5.53-22v24M56.24 64.86v20.49M4 29.55v17.62m5.2-17.62V47m9.49-17.4V47m1.86-19.32v.73m0 18.38V28.36m-4.41 1.19V47m28-16.55v16.16m-5.27-16V46.4m-6.22-16.57V46.6M26.06 29v16.75m-2.19-15.92V46.6M175 47.72V27.18m0-.52v.52m-2.3 20.11V28.57m-2.11 19.36v-.07m0-19.29v19.29M180.55 28v18.73m-2.2.85V28.85m-136.7 1.34v16.42m124 18v21m-71-58.52v20.38m8-21.32v20.13M90.27 26.66v20.6m-6.45-20v19.57m35.43-20.3v20.81m-2.25-.21V26.61m-2.48.06v20.46m-5.45-20.6V46.7m-2.34-.42V27.09m18.92 19.7V27.51m5 19.28v-19.2m-8.86 20V27.17m-48.26-.38v20M75.88 27v19.62M78 27.21v19.41m2.76-19.83v20M69.08 27v19.07m74.41.85V27.31M149 46.49v-19.1m-8.92 20V27.17m-2.27.07v20.31m21-.63V27.31m5.53.08v19.1m-8.93.85V27.17m-2.26 20.38V27.24m-98.4 90.24v-16.84m1.66 16.63v-16.63M59 117.7v-17.06m-9.73 17.83v-17.62m17 16.85v-16.43m-5.1 15.65v-16.43M4 118.85v-16.64m5.18 0v16.42m11.35 1.75v-.16m0-18v18m-2.29-1.59v-15.79m-2.12 15.79v-16.42m28 16.08v-16.21m-5.27 16v-15.79m-6.24 16v-16.78m-6.59 17.88v-17.75m-2.19 18.6v-17.75M175 118.42v-17.15m-2.51 15.67v-14.82m-1.9 16.51v-15.45m9.92-.56v14.81m-2.2.85v-14.81M41.65 118.29v-16.43m52.94 17.29V101.7m8 16.26v-17.19m-12.32 18.17v-17.66m-6.45-.34v17.56m35.43-17.35V119M117 101.22v17.59m-4.89-.21v-17.24m-3 17v-17.21m-2.4 16.85v-16.3m18.92.43v14.38m5-14.31v14.31m-8.86-14.72v17.44m-48.26-.72v-.27m0-17.82v17.82m2.34 0v-17.6m2.15.21v17.45m2.76.21v-.13m0 0v-18m-11.68 17.36v-17.1m74.41 17.41v-16.12m0 16.66v-.54m5.52.12V102m-8.92-.21v15.27m-2.27-15.2v15.41m21 2.31v-17.65m5.53 17.22V102m-8.93 17v-17.21m-2.26 17.44v-17.37m10.2-37v20.82m19.91-21.5v21.57m-3.4-21.15v21m-2.27-20.79v20.87M18.52 64.3v22.58m68 85.57v-17.83m2.27 17.9v-18.05M91 172.66V155m2.77 17.62v-18M82 172.45v-17.62m17 16.85v-16.43m-61.45 15.62v-12.73m4.37 12.52v-12.52m14.39 12.52v-14.47M65 172.4v-18.12m-3.59 18.12v-16.77m-34.93 15.66v-12.51m8.71 12.3v-13.23m-3.61 13.23v-11.87m17.29 11.45v-14.47m27.21 17.06v-18.17m-4.46 18v-17.79m2.76 18v-18.42m52.94 18.26V173m0-17.28V173m8 0v-16.29M123 155.26v17.66m-6.45-.43V155.9m34.37 17.31v-16.89m-1.73 16.47v-16.54m-2.41 16.32v-16.25m-2.07 17v-17.21m-5.27 16.81v-17.24m18.92 17.74v-17.31m5 17.32v-17.25m-9.84 17v-16.43M2.1 171v-13.24m16.65 13.35v-13m-2.27 12.79v-12.69M14 170.9v-12.62m-2.41 13.39v-12.34m-3 12.13v-12.34M6.21 171v-12.31m15.09 12.64v-12.55m85-4.38v17.92m0 .17v-.17m2.34 0V155.6m2.13 16.68v-16.47m2.76 16.68v-17.11m-11.72 17.32v-.32m0-17.76v17.76m74.4-16.33v-.14m0 16.67v-16.53m5.53-.07v.25m0 15.92v-15.92M172.81 173v-17.18m-2.26 17.44v-17.42M85.23 62.19V49.25m2.4 13V49.33M89.7 62.4V49.68m2.77 12.72V49.25m-11.7.22v12.72m17-.76V48.91M36.29 61.59v-13.7m4.37 13.49V48.87m14.39 14.47V47.89m8.71 15.23V47.93m-3.61 15.2V49.3m-34.94-1.75V63m8.72-1.19V47.59m-3.62.41v14.72m0 .06v-.06m17.3-1.34V46.91m27.21 2.81V63m-4.47-13.07v12.85m2.77-13.27V63m52.93-2.08V48.37m8 12.33V49.39m-12.32 13.27v-.14m0-14.58v14.58m-6.45-.28V49.56m35 11.44V49.29m-2.35 11.28V48.93m-2.41 11.43V49m-2.07 12.12V48.79m-5.28 11.92V48.37m18.92 12.84V48.79m5 12.42V48.86M152.29 61V49.43m-134.8-1.55v14.94M15.22 48v14.6M12.74 48v14.6m-2.41-13.53v11.36m-3-12.55v14.3M5 47.46v14.29m15-13.23V63m85-.8V48.06m2.34 14V49.25M109.47 62V49.47m2.77 12.76V49m-11.7 13.41V48.28M175 60.36V48.59m5.53 14.29V48.66m-8.93 12.13V48.45M169.28 61V48.52m-81.21-24V10.58m2.4 14V10.65m2.06 14.05V11m2.77-.42V24.7m-11.69-.21v-13.7m17 .42v12.51m-61.48 3.11V8.23m4.37 18.39V8.23m14.38 17.41V9.21m8.72 15.24V10.23M63 25.45V8.68M28.05 27.25V8.87M36.76 27V7.94M33.15 27V9.3m17.29 17.32V9.21m27.21 16.08V11m-4.46 14V11.25m2.76 14V10.83m52.94 14.34V8.71m8 0v17.23M124.57 8.28v.43m0 16.25V8.71m-6.45 3.15v13.65M152.7 7.94v17.87M150.76 8.3v17.51m-2.41-17.44V25.6m-2.07-17.45v18m0 0v.17M141 7.73v18.21m18.93-17.79v18.23m0 .07v-.07m5-18.16v18.23m-9.84-17.7v17.4M3.67 27V7.84m16.65.39v18.84M18.06 8.3v18.56M15.58 8.37v18.49M13.16 9.42v18.21m-3-.22V9.2M7.78 27V8.78m15.09 18.51V8.86m85 1.5v14.17m2.34-12.99v13.75m2.13-13.52V25.3m2.76-14v14.21m-11.72-14.93v14.07m0 .1v-.1m74.41 1V8m5.53 17.22V8m-8.94-.21V26m-2.26-18.12v18.35M85.23 136.81v-15.88m2.06 16.16V121m2.41 16v-15.64M92.47 137v-16.07m-11.7 15.88v-16.64m17 15.87v-12.51m-62.28 12.68v-14.68M40.66 136v-15.45M55.05 136v-16.43m8.71 18v-17.96m0 17.92v.21m-3.61 0v-.31m0-16.46v16.46m-34.94-2.75v-12.51m8.72 13.27v-14.21m-3.62 14.21v-13.83M47.61 136v-14.47m27.21 16.08v-18.17m-4.47 18v-17.79m2.77-.42v18.38m52.93-2.08V123m8 12.34v-15.25m-12.33 17.19v-14.72m-6.45 14.29v-14.63m34.59 12.12v-12m-1.94 12.85v-14.58m-2.4 14.39v-14.3m-2.07 15.07v-15.3m-5.28 14.85v-15.27m18.92 15.78v-14.38m5 14.38v-14.31m-9.83 14.09v-13.52m-134.8 12.4v-14m-2.27 13.74v-13.62m-2.48 13.67v-13.6m-2.41 14.37v-13.32m-3 15.06v-.6m0-15.65v15.65m-2.3.18v-.21m0 0v-16m15 14.55v-13.53m85 15.67v-14.17m2.34 14v-12.81m2.12 12.77v-14.51m2.77 14.72V121.7m-11.7 15.37v-14.18M175 135v-14.73m5.53 14.28v-14.21m-8.93 15.06v-14.29m-2.27 14.51v-14.44m-81.21-37v13.95m2.4-13.85V98.2m1.91-13.7v14.12m2.92-14.4v14.12M83.61 84.42v13.71m17-.77V84.85M39.13 98.51v-9.79m4.37 9.57v-9.57m14.38 10.55V99m0 0V86.76m8.72 11.32V84.85M63 86.21v12.85M28.05 88.43v12.46m0-12.51v.05m8.71 0v10.29m-3.61 1.96V88.81m17.29-1.51v11m0-11.52v.53m27.21-2.62v14.24m-4.46-14v13.79M76 84.46v14.47m52.94-.12V86.26m8 11.36V86.31M124.57 98.6V85.84m-6.45 13.31V85.49m35 13.19V87m-2.35 11.5V86.83m-2.2 10.92V86.39m-2.49 11.7V85.75M141 97.62V85.28m18.92 14.81V87.66m5 12.43V87.74m-9.84 11.15V87.32m-151.45 2v11.32m16.69-12.46v12.53m0-13v.45m-2.26-.37v.28m0 0v12.43m-2.48 0V88m0-.13V88m-2.42 13.1v.15m0-12.33v12.18m-3-12.38V101M7.78 88.29v12.34m15.09.29V88.37m85 9.8V84m4.47 1.41v13.53m2.76.21V85m-11.69 13.4V84.21m74.41 15V88.13m0 0v-.67m5.53.08v.63m0 10.64V88.17m-8.94 11.49V87.88m0 0v-.56m-2.26.26v-.19m0 12.48V87.58M.83 135.47v-16" style="stroke-miterlimit:11.34;stroke-width:1.7px;stroke:#d9b776;fill:none"/></pattern></defs><path d="M310.42 156.32a49.42 49.42 0 0 0-43.28 25.82 57.86 57.86 0 0 0-41.75-18c-23.46 0-43.7 14.32-53.43 35.11a44.06 44.06 0 0 0-34.47-16.94 43 43 0 0 0-23.84 7.25c-9.66-11.36-26.82-18.93-46.44-18.93-30.22 0-54.71 17.91-54.71 40 0 21.68 23.61 39.28 53.05 39.92a43.22 43.22 0 0 0-.44 5.82c0 22.23 17.08 40.26 38.16 40.26a35.74 35.74 0 0 0 6.74-.67 13.53 13.53 0 0 0-.76 4.43c0 23.92 66.15 43.32 147.75 43.32 57.48 0 107.26-9.64 131.68-23.67a55.83 55.83 0 0 0 14.24 1.84c24.62 0 44.58-15.67 44.58-35a27.28 27.28 0 0 0-.59-5.43c14.34-3.83 25-17.49 25-33.81l-.13-2.7c9-2.15 15.76-10.61 15.76-20.78 0-11.78-9.06-21.34-20.23-21.34a20.08 20.08 0 0 0-18 11.73 31.89 31.89 0 0 0-10.54-1.83 32.43 32.43 0 0 0-26 13.38c-7.95-8.52-24-14.35-42.48-14.35a81.31 81.31 0 0 0-10.61.68 51.34 51.34 0 0 0 .34-5.71c0-27.81-22.21-50.37-49.59-50.37" style="fill:#161515;stroke-miterlimit:10;stroke-width:12.4px;stroke:#d9b776"/><path d="M310.42 156.32a49.42 49.42 0 0 0-43.28 25.82 57.86 57.86 0 0 0-41.75-18c-23.46 0-43.7 14.32-53.43 35.11a44.06 44.06 0 0 0-34.47-16.94 43 43 0 0 0-23.84 7.25c-9.66-11.36-26.82-18.93-46.44-18.93-30.22 0-54.71 17.91-54.71 40 0 21.68 23.61 39.28 53.05 39.92a43.22 43.22 0 0 0-.44 5.82c0 22.23 17.08 40.26 38.16 40.26a35.74 35.74 0 0 0 6.74-.67 13.53 13.53 0 0 0-.76 4.43c0 23.92 66.15 43.32 147.75 43.32 57.48 0 107.26-9.64 131.68-23.67a55.83 55.83 0 0 0 14.24 1.84c24.62 0 44.58-15.67 44.58-35a27.28 27.28 0 0 0-.59-5.43c14.34-3.83 25-17.49 25-33.81l-.13-2.7c9-2.15 15.76-10.61 15.76-20.78 0-11.78-9.06-21.34-20.23-21.34a20.08 20.08 0 0 0-18 11.73 31.89 31.89 0 0 0-10.54-1.83 32.43 32.43 0 0 0-26 13.38c-7.95-8.52-24-14.35-42.48-14.35a81.31 81.31 0 0 0-10.61.68 51.34 51.34 0 0 0 .34-5.71c0-27.81-22.21-50.37-49.59-50.37" style="opacity:.1;fill:url(#a)"/></svg>