<svg xmlns="http://www.w3.org/2000/svg" width="500" height="500"><defs><pattern id="a" data-name="New Pattern Swatch 13" width="153.43" height="153.43" patternTransform="translate(-34 133.72)" patternUnits="userSpaceOnUse"><path style="fill:none" d="M0 0h153.43v153.43H0z"/><path d="M20.2 9.39c-9-1.18-13.94 1.89-17.48 2.6m42.52-.71c-7.76 3.15-14.18 1.18-19.37-.71M50.2 9.39c10.16-1.89 17 2.6 21.26 3.07m5.9 0c4.26 0 7.33-2.12 10.87-3.07a20.59 20.59 0 0 1 12.52.24m25.51-.24c-6.14 3.07-17.48 2.83-20.79 2.13m46.3.7c-1.18-.23-6.38 1.18-10.22-1.41-5.13-1.42-4.42-1.66-10.09-1.42M8.38 23.09A26.46 26.46 0 0 1 0 25.3m33.9.63c-1.18-.24-6.38 1.18-10.23-1.42-5.13-1.42-4.42-1.65-10.09-1.42m94.73 16.77c3.54-.71 8.5-3.78 17.48-2.6m25 1.89c-7.76 3.16-14.18 1.18-19.37-.71M43.11 124c3.54-.71 8.5-3.78 17.48-2.6m25 1.89c-7.75 3.15-14.17 1.18-19.37-.71m24.33-1.18c10.16-1.89 17 2.6 21.26 3.07m5.91 0c4.25 0 7.32-2.13 10.86-3.07a20.65 20.65 0 0 1 12.52.23m-126.61-.7c-3.88 1.94-9.84 2.56-14.53 2.57m40 .26c-1.18-.23-6.38 1.18-10.23-1.42-5.13-1.41-4.42-1.65-10.09-1.41M3 150.65a23.68 23.68 0 0 1-2.95 1m7.91-2.87c10.16-1.89 17 2.6 21.26 3.07m5.91 0c4.25 0 7.32-2.13 10.86-3.07a20.59 20.59 0 0 1 12.52.24m25.49-.26c-6.15 3.07-17.48 2.84-20.79 2.13m46.3.71c-1.18-.24-6.38 1.17-10.23-1.42-5.13-1.42-4.42-1.66-10.09-1.42m24.81 2.13c3.54-.71 8.5-3.78 17.48-2.6M0 53.09a28.93 28.93 0 0 1 13.94-1.53m25 1.88c-7.76 3.16-14.18 1.19-19.37-.7m24.33-1.18c10.15-1.89 17 2.59 21.26 3.07m5.9 0c4.25 0 7.33-2.13 10.87-3.07a20.65 20.65 0 0 1 12.52.23m25.55-.23c-6.14 3.07-17.48 2.83-20.79 2.12m46.3.71c-1.18-.24-6.38 1.18-10.22-1.42-5.13-1.41-4.42-1.65-10.09-1.41M2.83 95.61c3.55-.71 8.51-3.78 17.49-2.6m25 1.89c-7.72 3.15-14.14 1.18-19.32-.71M50.31 93c10.16-1.89 17 2.6 21.26 3.07m5.91 0c4.25 0 7.32-2.12 10.87-3.07a20.74 20.74 0 0 1 12.52.24m25.51-.24c-6.14 3.07-17.48 2.84-20.79 2.13m46.3.71c-1.18-.24-6.38 1.18-10.23-1.42-5.12-1.42-4.41-1.65-10.08-1.42M3.19 137.78c3.54-.71 8.5-3.78 17.48-2.6m25 1.89c-7.76 3.15-14.17 1.18-19.37-.71m24.33-1.18c10.16-1.89 17 2.6 21.26 3.07m5.9 0c4.26 0 7.33-2.13 10.87-3.07a20.65 20.65 0 0 1 12.52.23m25.51-.23c-6.14 3.07-17.48 2.83-20.79 2.12m46.3.71c-1.18-.23-6.37 1.18-10.22-1.42-5.13-1.41-4.42-1.65-10.09-1.41M36.5 25.81C40 25.1 45 22 54 23.21m25 1.89c-7.76 3.15-14.18 1.18-19.37-.71M84 23.21c10.15-1.89 17 2.6 21.26 3.07m5.9 0c4.25 0 7.33-2.13 10.87-3.07a20.59 20.59 0 0 1 12.52.24M1.06 37.14c10.16-1.88 17 2.6 21.26 3.08m5.91 0c4.25 0 7.32-2.13 10.87-3.08a20.71 20.71 0 0 1 12.51.24m25.52-.23C71 40.22 59.65 40 56.34 39.27m46.3.71c-1.18-.24-6.38 1.18-10.23-1.42-5.13-1.41-4.42-1.65-10.09-1.41M2.25 67.62c3.54-.71 8.5-3.78 17.47-2.6m25 1.89c-7.72 3.15-14.13 1.18-19.33-.71M49.73 65c10.15-1.89 17 2.6 21.26 3.07m5.9 0c4.25 0 7.32-2.12 10.86-3.07a20.62 20.62 0 0 1 12.53.24m25.51-.24c-6.15 3.07-17.48 2.83-20.79 2.13m46.3.7c-1.18-.23-6.38 1.19-10.23-1.41C135.94 65 136.65 64.78 131 65M41.22 81.44c3.54-.71 8.51-3.78 17.48-2.6m25 1.89C76 83.88 69.57 81.91 64.37 80m24.33-1.16c10.16-1.89 17 2.6 21.26 3.07m5.91 0c4.25 0 7.32-2.13 10.86-3.07a20.59 20.59 0 0 1 12.52.24m-94.49 31.06c3.55-.71 8.51-3.78 17.48-2.6m25 1.89c-7.75 3.15-14.17 1.18-19.37-.71m24.34-1.18c10.15-1.89 17 2.6 21.25 3.07m5.91 0c4.25 0 7.32-2.13 10.86-3.07a20.62 20.62 0 0 1 12.53.24m-127.21-.59c-4.18 2.08-10.77 2.64-15.59 2.56m41.1.27c-1.18-.24-6.38 1.18-10.22-1.42-5.13-1.41-4.42-1.65-10.09-1.41m-9.1-28C8.56 80.76 4.08 81.46 0 81.69m37.2.31c-1.2-.21-6.37 1.21-10.2-1.39-5.13-1.42-4.42-1.65-10.09-1.42M153.43 25.3a46.16 46.16 0 0 1-12.43-.08m12.41 98.24a33.67 33.67 0 0 1-6.26-.45m6.26 28.62c-6.45 1.66-11.9 0-16.42-1.69m16.42-96.85a30.19 30.19 0 0 1-3.55 1.06m3.55 55.6a29.21 29.21 0 0 1-5.2-.44m5.2-27.62a41 41 0 0 1-9.1-.37" style="stroke-width:1.42px;stroke-miterlimit:11.34;stroke:#d9b776;fill:none"/><path d="M1.3 5.31h0m5.7-.9h0m5.15-1.75h0m5.46-.36h0m5.53.36h0m5.46 1.25h0m5.23 1h0m5.75.35h0m5.83-.9h0m5.16-1.75h0M56 2.3h0m5.52.36h0M67 3.91h0M72 5h0m5.68.19h0m5.83-.9h0m5.11-1.79h0m5.47-.36h0m5.52.36h0m5.49 1.25h0m5.4 1h0m5.6.35h0m5.83-.9h0m5.16-1.75h0m5.46-.36h0m5.52.36h0m5.49 1.25h0m4.92 1h0M2.34 18.27h0m5.15-1.75h0m5.51-.36h0m5.53.36h0M24 17.78h0m5.23 1h0m5.75.36h0m5.83-.91h0m5.16-1.75h0m5.45-.36h0m5.53.36h0m5.49 1.26h0m4.91 1h0M73 19h0m5.83-.91h0M84 16.36h0m5.45-.36h0m5.53.36h0m5.49 1.26h0m5.39 1h0m5.61.36h0m5.83-.91h0m5.15-1.75h0m5.46-.36h0m5.53.36h0m5.49 1.26h0m4.91 1h0m5.64.2h0M1.35 30.69h0m5.46-.35h0m5.52.35h0M17.82 32h0m5.24 1h0m5.75.35h0m5.83-.9h0m5.15-1.76h0m5.46-.35h0m5.53.35h0M56.27 32h0m4.91 1h0m5.69.19h0m5.83-.9h0m5.15-1.76h0m5.46-.35h0m5.52.35h0m5.5 1.26h0m5.39 1.05h0m5.61.35h0m5.83-.9h0m5.15-1.76h0m5.46-.35h0m5.53.35h0m5.49 1.26h0m4.91 1.05h0m5.64.19h0m5.83-.9h0M1.82 44.39h0M7.28 44h0m5.53.35h0m5.49 1.26h0m5.23 1.05h0m5.75.35h0m5.83-.9h0m5.16-1.76h0m5.46-.35h0m5.52.35h0m5.49 1.26h0m4.91 1.05h0m5.69.19h0m5.83-.9h0m5.15-1.76h0m5.46-.35h0m5.53.35h0m5.49 1.26h0m5.39 1h0m5.61.36h0m5.83-.9h0m5.16-1.76h0m5.45-.35h0m5.53.35h0m5.49 1.26h0m4.91 1h0m5.64.2h0m5.83-.9h0M3.28 60.79h0M8.43 59h0m5.46-.36h0m5.53.36h0m5.49 1.26h0m5.24 1h0m5.75.36h0m5.83-.91h0M46.88 59h0m5.46-.36h0m5.52.36h0m5.5 1.26h0m4.91 1h0m5.68.2h0m5.83-.91h0m5.16-1.75h0m5.46-.36h0m5.52.36h0m5.49 1.26h0m5.4 1h0m5.6.36h0m5.83-.91h0m5.16-1.75h0m5.46-.36h0m5.52.36h0m5.49 1.26h0m4.92 1h0m5.63.2h0M2.81 74h0M8 72.27h0m5.46-.36h0m5.53.36h0m5.49 1.25h0m5.23 1h0m5.75.35h0m5.83-.9h0m5.16-1.75h0m5.46-.36h0m5.52.36h0m5.5 1.25h0m4.91 1h0m5.68.19h0m5.83-.9h0m5.16-1.75h0m5.46-.36h0m5.52.36h0m5.49 1.25h0m5.4 1h0m5.6.35h0m5.83-.9h0m5.16-1.75h0m5.46-.36h0m5.52.36h0m5.49 1.25h0m4.91 1h0m5.64.19h0M1.35 89.1h0m5.24-.9h0m5.15-1.76h0m5.46-.35h0m5.53.35h0m5.49 1.26h0m5.23 1h0m5.75.36h0m5.8-.86h0m5.16-1.76h0m5.46-.35h0m5.52.35h0m5.49 1.26h0m4.91 1h0m5.69.2h0m5.86-.9h0m5.15-1.75h0m5.46-.35h0m5.53.35h0m5.49 1.26h0m5.39 1h0m5.61.36h0m5.83-.91h0m5.16-1.75h0m5.46-.35h0m5.52.35h0m5.49 1.26h0m4.91 1h0M3.75 103.27h0m5.67-.9h0m5.16-1.76h0m5.46-.35h0m5.52.35h0m5.49 1.26h0m5.24 1h0m5.75.35h0m5.83-.9h0m5.13-1.71h0m5.46-.35h0m5.53.35h0m5.49 1.26h0m4.91 1h0m5.69.19h0m5.83-.9h0m5.15-1.76h0m5.46-.35h0m5.52.35h0m5.5 1.26h0m5.39 1.05h0m5.61.35h0m5.83-.9h0m5.15-1.76h0m5.46-.35h0m5.53.35h0m5.49 1.26h0m4.91 1.05h0M3.28 117h0m5.67-.9H9m5.15-1.76h0m5.46-.35h0m5.53.35h0m5.49 1.26h0m5.23 1.05h0m5.75.35h0m5.83-.9h0m5.16-1.76h0M58 114h0m5.52.35h0m5.5 1.26h0m4.91 1.05h0m5.68.19h0m5.83-.9h0m5.16-1.76h0m5.46-.35h0m5.52.35h0m5.49 1.26h0m5.4 1h0m5.6.35h0m5.83-.9h0m5.16-1.76h0m5.46-.35h0m5.52.35h0m5.49 1.26h0m4.91 1h0M5.31 130.36h0m5.16-1.75h0m5.46-.36h0m5.52.36h0m5.5 1.25h0m5.23 1h0m5.75.35h0m5.83-.9h0m5.15-1.75h0m5.46-.36h0m5.53.36h0m5.49 1.25h0m4.91 1h0m5.69.19h0m5.83-.9h0m5.18-1.66h0m5.46-.35h0m5.53.35h0m5.49 1.26h0m5.39 1.05h0m5.61.35h0m5.83-.9h0m5.15-1.76h0m5.46-.35h0m5.53.35h0m5.49 1.26h0m4.91 1.05h0m5.64.19h0M1.71 144.22h0m5.16-1.75h0m5.46-.36h0m5.52.36h0m5.49 1.25h0m5.24 1.05h0m5.75.35h0m5.83-.9h0m5.15-1.75h0m5.46-.36h0m5.53.36h0m5.49 1.25h0m4.91 1.05h0m5.69.19h0m5.83-.9h0m5.15-1.75h0m5.46-.36h0m5.52.36h0m5.5 1.25h0m5.39 1.05h0m5.61.35h0m5.83-.9h0m5.15-1.75h0m5.46-.36h0m5.53.36h0m5.49 1.25h0m4.91 1.05h0m5.63.19h0" style="stroke-linecap:round;stroke-width:1.98px;stroke-miterlimit:11.34;stroke:#d9b776;fill:none"/></pattern></defs><path d="M388.27 138a79.38 79.38 0 0 0-67.16 37.06 34.3 34.3 0 0 0-3.94-.24 36 36 0 0 0-35.25 28.73A276.49 276.49 0 0 0 253.2 202a268.82 268.82 0 0 0-42.76 3.35 61 61 0 0 0-104.07 17.48c-1.58-.14-3.17-.26-4.78-.26a55.39 55.39 0 0 0-50.72 33.18 33.47 33.47 0 0 0-6.06-.6 32.33 32.33 0 0 0 0 64.66A32 32 0 0 0 61 315.5a55.2 55.2 0 0 0 62.88 13.16c12.81 17.12 65.9 30 129.47 30a404.31 404.31 0 0 0 70.7-5.87 39 39 0 0 0 62-16.87 34 34 0 0 0 41.55-21.34 24.93 24.93 0 0 0 32.83-32.22 32 32 0 0 0 7.2-61.36c0-1.18.17-2.32.17-3.52A79.53 79.53 0 0 0 388.27 138" style="fill:#161515;stroke-miterlimit:10;stroke-width:12.71px;stroke:#d9b776"/><path d="M388.27 138a79.38 79.38 0 0 0-67.16 37.06 34.3 34.3 0 0 0-3.94-.24 36 36 0 0 0-35.25 28.73A276.49 276.49 0 0 0 253.2 202a268.82 268.82 0 0 0-42.76 3.35 61 61 0 0 0-104.07 17.48c-1.58-.14-3.17-.26-4.78-.26a55.39 55.39 0 0 0-50.72 33.18 33.47 33.47 0 0 0-6.06-.6 32.33 32.33 0 0 0 0 64.66A32 32 0 0 0 61 315.5a55.2 55.2 0 0 0 62.88 13.16c12.81 17.12 65.9 30 129.47 30a404.31 404.31 0 0 0 70.7-5.87 39 39 0 0 0 62-16.87 34 34 0 0 0 41.55-21.34 24.93 24.93 0 0 0 32.83-32.22 32 32 0 0 0 7.2-61.36c0-1.18.17-2.32.17-3.52A79.53 79.53 0 0 0 388.27 138" style="opacity:.1;fill:url(#a)"/></svg>