<svg xmlns="http://www.w3.org/2000/svg" width="500" height="500"><defs><pattern id="a" data-name="New Pattern Swatch 5" width="153.01" height="153.01" patternTransform="rotate(-141 28.207 81.928)" patternUnits="userSpaceOnUse"><path style="fill:none" d="M0 0h153.01v153.01H0z"/><path d="M44.63 5.84h0m0 8.5h0M43 21.78h0m-12.22.53h0M51 44.1h0M29 57.46h0m22-.61h0m12.22 0h0m-1.06-18.6h0m6.28 4.21h0m3.81-11.12h0m-4.78-6.9h0m1.06-10.1h0m-3.87-8.73h0m7.59-3.48h0m15.94 12.21h0m8.5-.53h0m4.82 27.7h0m-21.73 1h0m36.57-19.62h0m3.72-21.78h0m23.37 2.13h0m0 15.57h0m-4.1 4.8h0m-.65 9.38h0m-3 6.37h0M14.88 110.51h0m2.12 6.65h0m-12.22-1.87h0m15.94 20.19h0m2.66 14.87h0m15.93-11.69h0m-4.78-6.9h0m-8.5-.54h0m10.06-13.53h0m4.82-9.84h0m-6 2.17h0m-.37-10.14h0m34.38 10.61h0m-15.59 7.56h0m14.67-.11h0m-12.75 17h0M76.5 119h0m10.22-9.9h0m6.73-16.65h0m13.34 16.45h0m-.55-9.29h0m10.64-.27h0m0 15.41h0m-8 4.25h0m-7 9.55h0m21.92 1.6h0M82.88 52.06h0m18.06 5.32h0m19.47 3h0m-11.5-7.28h0m1.6 9h0m22.31 12.75h0m-12.22 7.5h0m-22.9-5.48h0M102 93.5h0m23.37 4.25h0m20.19-5.31h0m-14.33-10.09h0m-62.16 17h0m-15.3-21.07h0m9.45-3.37h0M23.09 61.35h0m-17.78 13h0m21.8 16.8h0m2.64-19.46h0m26.41-10.81h0m23.62 11.34h0M13.16 41.51h0m7.56-2.2h0m5.1 12.3h0m-21.07.22h0m131.79 10.33h0m11.15.53h0M3.19 18.59h0m34.53-4.78h0m-29.28.77h0m30.87 25.8h0m5.85 37.72h0M1.59 93.5h0m146.1 45.69h0m-25.5 6.91h0M10 128h0m46.71-1h0M111 80.22h0m26.6 16.47h0m-33.25 42.14h0M85 79.69h0M42 55.78h0M25 3.19h0m77 142.91h0M40.66 31.87h0m-13.32 1.61h0m-14.59-9h0m2.13-19.17h0m12.93 8.8h0m26.91.23h0m23.91 1.07h0M92.44 2.66h0m16.47 15.93h0M76 22.84h0m7.44 8.5h0m-29.17 2.14h0m-38.86 25h0m6.9 12.22h0m-11 10.06h0M6.91 43h0m30.28 31.91h0M34 82.35h0m-6.91 15.94h0m-2.16 18.87h0m-12.18 17.25h0m-8-3.19h0m23.91 15.94h0m17.53 2.66h0m23.17-11.46h0M47.68 128h0m8.1-27.09h0m-1.06-9h0m18.06-35.06h0M93 52.6h0m-1.59-9h0m4.93-9.14h0m11 3.3h0m19.12-1.59h0m0-13.82h0m-1.59-6.9h0m18.59-3.19h0m-8.5 6.91h0m-9.33 33.25h0m-8.51.47h0m.84-13.54h0m21.37 12.6h0M111 71.75h0m-10-.56h0m-7 11.69h0m-23.2 7.77h0m14.86 4.64h0m11.56 15.22h0m1.6 9.56h0M89.65 127h0M85 132.82h0m-6.64 3.65h0m-.79-24.9h0m-13.29 20.19h0m15.41 16.47h0m54.19-27.63h0M127 110.49h0m-11.34-1.42h0m1.89-17.95h0m15.25-1.87h0m14.87 25.51h0m-12.75 15.93h0m2.66 8h0m-4.78 10.1h0m-20.72-1.07h0m-21.57-8.32h0m-30 11.51h0M4.25 61.63h0m145 11.15h0M6.38 107.85h0m140.25-52.07h0m-3.19 74.91h0M5.84 150.88h0M2.66 35.06h0m59.5-14.34h0m23.38.53h0m12.75 0h0m18.06-7.44h0m19.65-.53h0m-2.66-9.56h0m14.34 34h0M17 99.35h0m-6.37 20.72h0m-3.72 19.12h0m30.81 8.5h0m6.91-14.34h0m0-37.72h0m12.94 14.86h0M78 128h0m10.76-11.68h0m22.71 11.15h0m-6.24 6.38h0m11.69 4.25h0M53.66 51.53h0m36.66 8h0m20.19 31.35h0m31.87 18.59h0M97.2 99.62h0M78.63 94h0m-42.5-34h0M23.91 77.57h0m116.34-6.77h0M15.41 32.94h0m-8-28.16h0m133.91 73.85h0M93.5 133.35h0m-38.78 14.88h0m-17-57.58h0m50.47-17.87h0m25-41.44h0m-32.44 5.85h0M27.63 42h0m97.75 1.59h0m18.06 77.57h0M11.16 147.69h0m25-142.38h0M3 9.05h0m5.68 0h0m5.67 0h0m5.67 0h0m5.67 0h0m5.65 0h0m5.67 0h0m5.67 0h0m5.69 0h0m5.67 0h0m5.67 0h0m5.67 0h0m5.68 0h0m5.67 0h0m5.67 0h0m5.67 0h0m5.65 0h0m5.67 0h0m5.67 0h0m5.69 0h0m5.67 0h0m5.67 0h0m5.68 0h0m5.69 0h0m5.67 0h0m5.67 0h0m5.62 0h0M2.85 28.18h0m5.68 0h0m5.67 0h0m5.67 0h0m5.67 0h0m5.65 0h0m5.67 0h0m5.67 0h0m5.69 0h0m5.67 0h0m5.67 0h0m5.67 0h0m5.68 0h0m5.67 0h0m5.67 0h0m5.67 0h0m5.65 0h0m5.67 0h0m5.67 0h0m5.69 0h0m5.67 0h0m5.66 0h0m5.69 0h0m5.69 0h0m5.67 0h0m5.66 0h0m5.62 0h0M2.85 47.46h0m5.68 0h0m5.67 0h0m5.67 0h0m5.67 0h0m5.65 0h0m5.67 0h0m5.67 0h0m5.69 0h0m5.67 0h0m5.67 0h0m5.67 0h0m5.68 0h0m5.67 0h0m5.67 0h0m5.67 0h0m5.65 0h0m5.67 0h0m5.67 0h0m5.69 0h0m5.67 0h0m5.66 0h0m5.69 0h0m5.69 0h0m5.67 0h0m5.66 0h0m5.62 0h0M2.69 66.47h0m5.68 0h0m5.67 0h0m5.67 0h0m5.67 0h0m5.65 0h0m5.67 0h0m5.67 0h0m5.69 0h0m5.67 0h0m5.67 0h0m5.66 0h0m5.69 0h0m5.67 0h0m5.67 0h0m5.67 0h0m5.65 0h0m5.67 0h0m5.67 0h0m5.69 0h0m5.66 0h0m5.67 0h0m5.69 0h0m5.69 0h0m5.66 0h0m5.67 0h0m5.62 0h0M2.53 85.6h0m5.68 0h0m5.67 0h0m5.67 0h0m5.67 0h0m5.65 0h0m5.67 0h0m5.67 0h0m5.69 0h0m5.67 0h0m5.66 0h0m5.67 0h0m5.69 0h0m5.67 0h0m5.67 0h0m5.67 0h0m5.65 0h0m5.67 0h0m5.67 0h0m5.68 0h0m5.67 0h0m5.67 0h0m5.69 0h0m5.68 0h0m5.67 0h0m5.67 0h0m5.62 0h0M2.36 104.73h0m5.69 0h0m5.67 0h0m5.67 0h0m5.67 0h0m5.65 0h0m5.67 0h0m5.67 0h0m5.69 0h0m5.66 0h0m5.67 0h0m5.67 0h0m5.69 0h0m5.67 0h0m5.67 0h0m5.67 0h0m5.65 0h0m5.67 0h0m5.67 0h0m5.68 0h0m5.67 0h0m5.67 0h0m5.69 0h0m5.68 0h0m5.67 0h0m5.67 0h0m5.62 0h0M2.2 123.85h0m5.69 0h0m5.67 0h0m5.67 0h0m5.67 0h0m5.65 0h0m5.67 0h0m5.67 0h0m5.68 0h0m5.67 0h0m5.67 0h0m5.67 0h0m5.69 0h0m5.67 0h0m5.67 0h0m5.67 0h0m5.65 0h0m5.67 0h0m5.67 0h0m5.68 0h0m5.67 0h0m5.67 0h0m5.69 0h0m5.68 0h0m5.67 0h0m5.67 0h0m5.62 0h0M2.2 143h0m5.69 0h0m5.67 0h0m5.67 0h0m5.67 0h0m5.65 0h0m5.67 0h0m5.67 0h0m5.68 0h0m5.67 0h0m5.67 0h0m5.67 0h0m5.69 0h0m5.67 0h0m5.67 0h0m5.67 0h0m5.65 0h0m5.67 0h0m5.67 0h0m5.68 0h0m5.67 0h0m5.67 0h0m5.69 0h0m5.68 0h0m5.67 0h0m5.67 0h0m5.62 0h0M15.94 52.6h0m-9 47.28h0m14.71 27.62h0m7 11.69h0m18.06-26.56h0m25.5-40.91h0m-17 0h0M79.16 60h0m51-3.18h0m-5.31 63.75h0m0-30.81h0m-6.38-14.88h0m28.69 74.38h0m-18.06-10.1h0m-34.53 11.72h0M52.07 1.59h0m21.78 77h0m51.53-8h0m-110 20.19h0m6.37-71.72h0m29.75 2.65h0m-37.16-4.18h0m-.53 54.19h0m32.94-1.06h0M63.22 93.5h0m71.19 20.19h0M105.72 2.13h0m45.69 131.22h0m-.29-24.28h0m-1.3-86.23h0m1.06 57.91h0M84.47 3.19h0M44.63 5.84h0m22.84 18.6h0m75.14 18h0M88.47 100.7h0m28.41 14.06h0M48.6 38.2h0m24.18 18.65h0m34.54-19.13h0m-3.95 42.69h0m-76.89 29.41h0m2.21 29.37h0m65.88 11.69h0m30.81-80.22h0m26 62.69h0" style="stroke-linecap:round;stroke-miterlimit:11.34;stroke-width:1.98px;stroke:#d9b776;fill:none"/></pattern></defs><path d="M235.43 118.93c-36.74 0-67.83 27.11-78.54 64.58-31 2-57.32 24.29-69.14 55.73-8-9.33-19-15.11-31-15.11-24.4 0-44.2 23.43-44.2 52.31s19.8 52.31 44.2 52.31c12.1 0 23.07-5.76 31.05-15.09 12.37 32.92 40.64 56 73.56 56 22.76 0 43.25-11 57.86-28.68 7.06 23.12 30.41 40.12 58.19 40.12 22.81 0 42.65-11.45 52.94-28.34A51.7 51.7 0 0 0 364.66 366c26.33 0 48.28-20.3 53.64-47.39a38.53 38.53 0 0 0 25.61 10.11c24.08 0 43.59-23.55 43.59-52.61s-19.5-52.58-43.59-52.58a37.67 37.67 0 0 0-20.76 6.35 85.46 85.46 0 0 0 1.21-14.17c0-40.82-29.07-73.94-64.93-73.94-20.51 0-38.76 10.85-50.65 27.76-13.72-30-41.38-50.6-73.35-50.6" style="fill:#161515;stroke-miterlimit:10;stroke-width:12.85px;stroke:#d9b776"/><path d="M235.43 118.93c-36.74 0-67.83 27.11-78.54 64.58-31 2-57.32 24.29-69.14 55.73-8-9.33-19-15.11-31-15.11-24.4 0-44.2 23.43-44.2 52.31s19.8 52.31 44.2 52.31c12.1 0 23.07-5.76 31.05-15.09 12.37 32.92 40.64 56 73.56 56 22.76 0 43.25-11 57.86-28.68 7.06 23.12 30.41 40.12 58.19 40.12 22.81 0 42.65-11.45 52.94-28.34A51.7 51.7 0 0 0 364.66 366c26.33 0 48.28-20.3 53.64-47.39a38.53 38.53 0 0 0 25.61 10.11c24.08 0 43.59-23.55 43.59-52.61s-19.5-52.58-43.59-52.58a37.67 37.67 0 0 0-20.76 6.35 85.46 85.46 0 0 0 1.21-14.17c0-40.82-29.07-73.94-64.93-73.94-20.51 0-38.76 10.85-50.65 27.76-13.72-30-41.38-50.6-73.35-50.6" style="opacity:.1;fill:url(#a)"/></svg>