<svg xmlns="http://www.w3.org/2000/svg" width="500" height="500"><defs><pattern id="a" data-name="New Pattern Swatch 6" width="153.54" height="153.54" patternTransform="translate(-34 133.37)" patternUnits="userSpaceOnUse"><path style="fill:none" d="M0 0h153.54v153.54H0z"/><path d="M153.54 6c-11.6 10.38-19.77 17-17.71 19s-2.84 6.14-9.92 13.23S105.12 57.87 107 62.6c0 0 1.65 2.42.23 3.66S82.62 92.3 80.85 93.9s-3.37 4.78-3 6.38a6.21 6.21 0 0 1-1.78 6c-2.12 2.13-17.54 18.25-20 20.73m82.12-95.76c.59-.61 1.08-1.12 1.44-1.51 3.55-3.78 1.66-4.25 1.42-6.61-.22-2.18 6-6 12.52-11.73m-15.41 19.87c-4.8 4.95-16.22 16.37-20.21 20.19m-37.89 55.29c1.63-1.72 2.77-2.93 3.09-3.28 1.59-1.78.89-3.55.71-5.5s2.3-5.67 4.6-7.79 22.09-22.62 22.09-22.62c2.36-2.36 2.13-3.54 1.42-5.91s1.89-6.37 5.19-9.45c.22-.19.48-.44.79-.74M47 148.82s6.91-7.27 8-8.5 0-2.84-.36-4.61.71-2.84 3-5.32c.76-.82 3.65-3.87 7.23-7.64m59.38-100.31c1.66-1.65.71-2.6.24-5.43S135.83 5.9 139.13 2.36M112.68 8c-4.25 4.49-7.8 8.5-8.74 9.45s-1.42 1.89-1 4.25-.23 1.66-2.6 4-10.1 10.68-10.1 10.68M85 28.58c3.07-3.3 4.72-6.14 4.72-8.27s.71-2.36 2.37-3.77 7.32-6.86 11.33-11.11M42.05 71.22c1.24-.89 7.79-8 9.21-9.57s1.24-2.83 1.24-4.78 1.77-4.25 3.9-6.38 23.91-24.27 23.91-24.27c2.6-2.6 2.84-4 2.84-5.9s0-2.37 1.65-4.26c1.53-1.74 8.47-8.69 15.64-16.06M74.88 26c2.6-2.6 3.07-3.3 2.36-5.9a6.42 6.42 0 0 1 2.13-6.85C81.24 11.57 88.56 4.82 93 0M58.82 28.58s1.89-1.89 4.25-4.49 2.6-3.78 1.65-6.37.71-2.6 2.37-4.73C68.59 11.06 74.38 4.84 79 0M0 75.84c5.8-6.33 19-20.57 20.79-22.69A20.61 20.61 0 0 0 23.62 50c1.06-1.59 1.24-1.24.71-3s-1.06-2.48-.18-3.37 1.84-2 1.84-2c.94-.94 15.35-13.93 17.47-15.59s3.08-3.54 2.6-6.14-.23-2.83 1.66-4.49C49.35 13.92 58.07 5.59 64.22 0M12.76 55.51c2.83-2.83 4.72-5 4.72-8.27s1.89-5.19 4.72-7.55 13.23-12.76 16.3-15.36 2.84-4.25 2.84-6.14.24-1.89 2.6-4.49C45.92 11.51 53.1 5 58 0m-6.14 0c-3.74 3.92-6.38 6.68-7.92 8M0 60.52a56.49 56.49 0 0 0 7.68-6.31c2.83-3.21 2.83-4.21 3.19-6.73l.7-3.72c.24-2.36 2.13-3.84 6.15-7.62s13.46-13.23 18-17.95M6.29 0 1.48 4.72M0 11.47c.57-.5 1.14-1 1.71-1.55L9 3.54M0 17.19c.68-.61 1.34-1.23 2-1.84L19.56 0M0 28.7l4.31-4.31c4-4 4-4.49 3.54-6.85s5-6.14 8.51-9.69l9-7.85M0 35.68l8.74-8.75c4-4 4-4.49 3.54-6.85s5-6.14 8.51-9.69L32.71 0m25.17 153.54c1-1 1.85-1.9 2.59-2.71 0 0 3.55-4.14 5.91-6.5s3.07-3.07 2.36-5.9-2.12-5 6.85-13.94a145.2 145.2 0 0 0 13-14.41s6.14-6.38 8.51-9.21.47-4.26.47-6.62 2.36-4.25 5-7.09S130 59.82 130 59.82c2.13-2.13 3.07-4.25 2.36-6.14s.95-4.49 3.55-7.32c2-2.2 11.53-11.77 17.59-17.83m-18.39 125L137 152a13.44 13.44 0 0 0 1.24-1.95c.53-1.06-.36-1.24-.89-2.48s.71-2.84 2.13-4.08 9.56-8.85 10.63-10.27-.36-2.66-.36-3.72a3 3 0 0 1 1.06-1.95c.43-.42 1.4-1.32 2.72-2.5m-23.84 26.25c-.67.69-1.42 1.45-2.23 2.24m24.25-68c-2.66 2.66-9 9.75-10.81 11.69s-3.72 3.73-3.72 5.67 1.42 3.37.36 5-12.23 13.29-12.23 13.29c-2.3 2.3-7.79 7.44-10.09 9.92s-2.48 2-2.31 4.26 1.77 3.54-.53 6.37-2.3 1.78-10.1 9.81l-2 2m-5.61-2c-.52.61-1.13 1.29-1.8 2m-5.75-2.48c-.57.69-1.31 1.53-2.14 2.48m68.51-93.1c-2.11 1.52-3.78 2.63-3.78 2.63s-2.65 2.13-3.19 3.37-.17 2.83-.17 4.25-3.73 6.2-3.73 6.2c-2.83 3-15.76 15.59-17.89 17.36s-3.54 3.55-3.37 5.49 1.25 4.79-.7 6.38-16.48 16.3-19.14 18.78-4.25 4.25-4.25 6 1.42 3.19-.18 5.14-11.16 9.57-14 12.76 1.91-1.76-2.77 3.19l-1.46 1.53m-14.77 0c1-.91 1.93-1.75 2.76-2.48 0 0 3.07-3.42 5-5.55s4.25-4.25 4-7.56-.71-7.09 2.36-10.39 13.23-13.94 13.23-13.94m-39.69 39.93 2.82-2.95 1.65-2c1.59-1.77 6.73-6.55 6.73-8.32s-1.77-3.73-1.59-5.14 3.89-5.32 5.14-6.56 22.32-25 24.09-26.75.89-4.25.35-5.67 1.24-4.43 3.55-7.09 21.26-21.79 21.26-21.79c2.12-2.12 3.07-4.25 2.36-6.14s.94-4.49 3.54-7.32 17.72-18 21.73-22 4-4.49 3.55-6.85c-.39-2 3.31-4.92 6.61-7.91M6.17 153.54l4.7-4.6s7.79-7.92 9.92-9.81a4.83 4.83 0 0 0 .94-6.61c-1.42-2.36-3.07-2.83 0-5.9s18.43-19.38 21.5-22.45S48 99 47.72 96.61s-.95-3.07 2.36-5.9 21.73-21.26 23.15-23.15S77 64 76.77 61.65s-.94-3.3 1-5.19 26.45-26.7 26.45-26.7c3.31-2.83 5.91-5.9 5.44-9s-.48-4 1.89-6.14C113.57 12.78 122 5.44 127.58 0M19.42 153.54l4.2-3.66m51.2-55.45c-4 4.61-5.84 7.09-5.13 8.5 1 2.06-.36 2.84-1.78 4.08s-8.32 8-14.52 14.17-11.52 11.34-11 12.58a5.21 5.21 0 0 1-.71 4.78c-1.06 1.24-3.66 3.84-3.66 3.84l-12.8 11.16m7.34 0 9.89-8.62m-27.88 6.73c2.48-2.3 12.23-11 14-12.93s.71-3.37 0-5.14-1.77-3.36 1.77-7.08 16.84-18.07 19.85-21.09 4.43-4.25 3.89-6.73-.53-3.54 1.42-5.49S76.24 72.46 80.67 67.5s4.07-5.14 3.54-7.44 0-3.9 2.3-6.2 18.37-18.19 18.37-18.19c2.84-2.36 10.87-10.39 13-12.76s0-5.19.48-7.32c.42-1.89 11.52-11.1 17-15.59M66 90.71c2.48-2.48 24.27-25.34 24.27-25.34 2-1.94 3.9-3.9 3.37-6s-.53-3.54 1.42-5.14S115.75 34 117.16 32.6m-24.27 79.72s10.28-10.1 12-12.22 2.13-3 1.6-5.49 1.23-4.08 2.65-5.67 8.68-9.92 12.4-13.65l4.13-4.29c2.13-2.3 8.8-8.68 8.8-8.68 2.12-2.12 3.07-4.25 2.36-6.14s.95-4.49 3.54-7.32c1.57-1.71 7.68-7.88 13.17-13.39M78.9 46.77c-5.2 5.91-7.8 9.69-9 11.1s-1.65 2.6-1.18 4.26-.47 2.59-1.89 4-7.3 6.87-7.3 6.87M4.31 38.5s10.16-9.86 11.58-11.28 2.36-2.36 1.88-4 0-2.84 1.19-4.25S33.37 6.85 38.56.94m-7.85 108.19s6.85-6.61 8-7.79 1.18-1.66.95-3.78.7-3.31 1.88-4.49 12.55-13.94 12.55-13.94M118.4 92c-2.3 2.83-4.25 4.61-3.89 6.56s.71 4.42-1.07 6.37-13.28 12.58-15.06 14.53-5 5.32-4.6 7.62.71 3.37-1.07 5.67-14 14-15.76 15.94m-48.13-35.54s-9.69 9-10.87 9.69-4.49 5.19-2.13 8.73c.89 1.32 0 1.66-1.41 3.31C13.42 136 5 143.56 0 148.05M37.44 84l-9.57 9.56c-2.12 2.13-3.89 3.55-3.54 5.67s-1.42 5-5 8.51C16.51 110.58 5.31 120.38 0 125.16m38.86-50c-7.09 7.08-12 11-14.18 13.82s-4.25 3.54-4.6 7.44-.71 3.54-3.55 6.38C14.45 104.84 4.92 113 0 117.24m0-6.85c4.2-3.74 11.6-10.28 13.35-11.53 2.48-1.77 2.12-4.61 2.12-7.09s1.42-3.19 5-6.38S36 71.22 40.63 66.61c0 0 3.72-4.6 4.78-5.67s1.07-1.94 1.24-4.25-.35-3 2.31-5.84S70 30.65 72.34 28.52M85.13 0c-4.36 5-11.65 12.81-12.85 14.41-1.41 1.89-2.36 2.83-1.41 5s.23 3.31-2.37 5.91c0 0-13.87 13.87-17.06 16.89s-6.73 6.55-6.73 6.55c-1.42 1.59-2.66 2.3-2.66 4.43s.35 4.61-1.24 6.38-3.9 3.37-6 5.67-3.89 3.36-6.55 6.37c-4 4.53-10.63 9.93-13.11 12.76S9.8 88.58 9.8 92.48 9.45 95 6.61 98.15C5 100 2.09 102.72 0 104.65m0-8c1.07-.68 2.35-1.49 3.07-2 1.42-1.11 1.42-2.17 1.77-4.65s1.77-3.54 4.25-6 6.38-6.74 11.34-12m-9.21-15.31A103.18 103.18 0 0 1 0 68.4m28.23-4.62 6-6c2.13-2.13 2.13-3.9 2.48-5.67a12.22 12.22 0 0 1 3.54-6c2.13-2.12 7.09-6.73 12.41-12m97.84 116.62 3-2.69m-22.5 2.02a9.8 9.8 0 0 0 2.31-1.77c.71-.89.35-1.95.17-3.19s1.42-2.31 3.19-4.25 7.62-6.74 8.33-8.51 0-1.41-.53-2.83-1.07-2.84.35-4.08 5.67-5.67 5.67-5.67l3.07-2.62M119.64 151s5.14-5.67 6.74-7.09.35-2.13.53-4.61 6.91-8 11.34-12 6.38-5.67 7.79-7.45a7.44 7.44 0 0 0 1.77-4.43c.18-1.41 2.66-2.3 2.66-2.3l3.07-2.74m0-5.75C152 106 150.83 107 150.83 107m-42.17 45.71c1.42-1.42 8.33-7.8 9.39-9s.53-3.54.18-5.14.88-3.36 1.77-4.07a46 46 0 0 0 3.19-3.37c2.48-3 18.25-16.3 20.37-18.42s3-3.55 3-5.14-.17-3.54.71-5.14 4.25-4.61 4.25-4.61.92-.55 2-1.23m-62.04 50.28c2.65-2.83 10.63-9.21 11.87-11s-.71-3-.54-5.14 2.13-3.19 6.56-8 16.83-17.37 18.6-19.85.89-3.72.18-4.78 1.59-3.55 3.19-5.32 3.19-3.36 6.38-6.37c3-2.83 7.47-7 9.92-9.22 2-1.77 4.25-7.44 4.25-7.44l1.65-1.51m-2.36 10c.48-.54 1.31-1.45 2.36-2.59m-103.88-7s4.79-4.25 6.38-6a10.94 10.94 0 0 0 2.66-6.21c.36-2.48 1.59-2.83 4.07-5.66s7.09-7.38 13.11-13.58m75.65 15.6c-3.36 3.89-9.39 11-11 12.58s-1.77 2.3-1.77 4.07.17 2.48-1.95 4.61-11.34 11.16-11.34 11.16" style="stroke-miterlimit:11.34;stroke-width:1.42px;stroke:#d9b776;fill:none"/></pattern></defs><path d="M272.13 146.46a49.31 49.31 0 0 0-26.72 7.87 50.86 50.86 0 0 0-65.35 9.55 45.06 45.06 0 0 0-56.94 5.76 60.17 60.17 0 0 0-92.8 50.6 61.2 61.2 0 0 0 1.07 11 55.87 55.87 0 0 0 58.18 93.56 50.85 50.85 0 0 0 80.16 15.37c14.13 5.22 34.56 8.51 57.36 8.51 24.41 0 46.14-3.78 60.26-9.61a53.85 53.85 0 0 0 83.08-17.4 44.26 44.26 0 0 0 50.11-24.45 43.91 43.91 0 1 0-4.22-71.8c-7-10.1-19.25-16.86-33.28-16.86a43.75 43.75 0 0 0-8.16.79 49.46 49.46 0 0 0-48.32-38.94 48.63 48.63 0 0 0-11.31 1.36 49.36 49.36 0 0 0-43.12-25.31" style="fill:#161515;stroke-miterlimit:10;stroke-width:14.17px;stroke:#d9b776"/><path d="M272.13 146.46a49.31 49.31 0 0 0-26.72 7.87 50.86 50.86 0 0 0-65.35 9.55 45.06 45.06 0 0 0-56.94 5.76 60.17 60.17 0 0 0-92.8 50.6 61.2 61.2 0 0 0 1.07 11 55.87 55.87 0 0 0 58.18 93.56 50.85 50.85 0 0 0 80.16 15.37c14.13 5.22 34.56 8.51 57.36 8.51 24.41 0 46.14-3.78 60.26-9.61a53.85 53.85 0 0 0 83.08-17.4 44.26 44.26 0 0 0 50.11-24.45 43.91 43.91 0 1 0-4.22-71.8c-7-10.1-19.25-16.86-33.28-16.86a43.75 43.75 0 0 0-8.16.79 49.46 49.46 0 0 0-48.32-38.94 48.63 48.63 0 0 0-11.31 1.36 49.36 49.36 0 0 0-43.12-25.31" style="opacity:.1;fill:url(#a)"/></svg>