<svg viewBox="0 0 500 500"><defs><pattern id="a" width="153.43" height="153.43" data-name="New Pattern Swatch 12" patternTransform="translate(-34 133.72)" patternUnits="userSpaceOnUse"><path fill="none" d="M0 0h153.43v153.43H0z"/><path fill="none" stroke="#d9b776" stroke-miterlimit="11.34" stroke-width="1.42" d="M150.55 54.59a43.82 43.82 0 0 0-.31-13.09m1.11 36.78c-.93-2.5-1.25-11.23-.31-15.91m-7.48 10.73c-1.24-4.06-1.24-6.56 0-12.17a29.79 29.79 0 0 0 .63-12.78m-8-8c1.25 4.36.66 9.4-.59 15.33m3.77 27.47c-2.18-3.75-5.17-11.73-4.86-15.32s.78-2.33.93-5.61m-8.27 11c-2.65-4.21-3.11-6.81-1.55-12.89s1.87-9.82.63-14.81m-10.46-4.52a34.89 34.89 0 0 1 2.34 12.79m.9 29.34c-4.68-5.15-2.15-17.5-1.21-23.89m-4.4-31a47.6 47.6 0 0 1 .94 7.36m-2.23 49.15c-1.72-3.12-4.45-14.25-3.51-18.31a50.18 50.18 0 0 0 .93-13.76m-8-10.4a55.44 55.44 0 0 1 0 19m-.78 19c-1.4-2.19-1.4-9.51-.46-13.25m-7.8 13.87c-1.51-3.58-1.2-10.12.49-15.27a30.6 30.6 0 0 0 1.56-14.5m-8.73-9.38c.78 4.52 1.4 12.81 0 18.43m-2.3 27.77c-1.4-2.28-.94-11.32 1.16-21.12m-6.16-18.19c.47 6.86.78 9.35-.63 15s-1.55 9.82-1.09 12.47m-4.47-36.67c1.25 4.84-.2 12.94-.83 16.37m-.78 25c-1.73-3.33-1.4-9.88-.73-13.46a42.21 42.21 0 0 0 .78-5.3m-7 18.24c-1.09-2.5-1.09-8.73-.47-14a89.6 89.6 0 0 0-.15-19.39m-8.08-4.16c1.71 5.31 2.49 8.89 2.34 12.94m-.63 25c-2.65-4.36-2-12.79-1.09-17.15m-8.65-21.96c1.71 7.63 3.38 13.77 2.28 19.23s-1.24 5-1.24 6.55m1.17 5c.85 3.17 1.19 9.67 1.42 12.28m-8-4.51c-2-5-2.18-11.69-.93-17.31s.93-9.5-.32-15.9m-9.17-6.45C33.66 45 35.18 50.62 35 53.74M35.64 83c-3.59-5.77-3.12-14.11-1.71-19.57M26.62 44.7c.93 6.39 1.4 9.51.31 14.18S26 63.41 26 65.12M98.18 6.81c2.67 3.43 3.39 27.46 3.39 27.46M18.31 80.4c-2.34-3.9-.94-10.6 0-14s2-12.59 2.74-17.57m-7.91-6.9c.78 5.14 1.56 8.42.62 12.93a36.44 36.44 0 0 0-.76 6.68m.85 22.67A49.38 49.38 0 0 1 11 78.37c-.78-2.18-.47-5.61.31-8.57m-6.1-21c1.24 4.37 2.18 12 .77 17S3.6 77.28 5.63 81.34m25.15 6.54c-1.4-2-5.72-12.47-5.88-15.59M4 91c1.24 6.24 1.71 8.11.15 13.56s-2.15 9.36-.77 13.57m6.39-31.81C11 89.6 12.27 93.81 12 96.93s-1.09 4.83-.94 5.3m1.21 20.16c-1.71-3.43-3.39-12.21-2.15-16m6.71 8.89c-1.09-3.12-1.4-7.64.47-13.41s1.09-7.79.31-11.69m6-5.33c.94 3.9 1.72 8.27.94 12.16m.63 23c-1.09-3.12-1.47-12.38-.07-16.27m5.52 18c-1.72-3.28-.22-12.24 1-17.38s1.09-5.62.93-8.89M40.17 117c-3-5.46-1.71-10-.15-15s.78-8.57-.15-12.94m6.3-4.26c1.09 4.52 3.2 7.69 2.27 11.12s-1.72 5-2 6.7m1 13.9c-1.09-2.18-1-6.24-1-9.52m7.1-18.41c1.41 5.93 3 8.58.94 13.57s-1.73 15-1.11 18.54m6.1-35.07c1.71 3.74 2.65 9.67 2.34 12m-1.2 22.45c-.78-2.18-1-11.84.1-15.59m4.53-15.9c1.71 5.77 2.65 8 1.4 13.1s-2.49 10.6-1.71 13.56m8.57-30.72c.62 3.12-.74 8.81-.74 10.68m1 32.38c-.79-2.18-3.49-16.94-2.71-19.91a22.18 22.18 0 0 0 .94-5.77m6.49-11.84c1.71 7.17 3 10.75 1.87 14.81s-1.4 8.73-.94 10.91m5.93-25a23 23 0 0 0 .93 7.49 15.52 15.52 0 0 1 0 9.35c-1.24 4.52.28 8.19.6 10.06m7.25-21.13a64.74 64.74 0 0 1-1.09-10.29m.66 35.16c-.47-1.56-.66-8.5 0-12.39a46.43 46.43 0 0 0 .78-7.8m11-18.14c1.41 4.84 2.88 9.26 2.41 13.93m-1.44 26a44.07 44.07 0 0 0-.43-8.21c-.62-3 .31-7.33.93-12.17m7.61 15c-1.55-3.59-2-12.52-.73-17.2s1.09-4.83.62-11.22m10.75-11.14c2.82 4.6 3.9 17.53 2.65 23.61a25.93 25.93 0 0 0 .94 15m3.48-35.44c.93 3.89 3.29 14.3 3 18m.87 21.86c-.78-2.66-2.19-11.64-1.56-15.53m6.71-16.53c1.4 6.08 2.19 8.11 1.4 13.41s-1.09 9.82-.62 12M147.49 83c2.41 3.79 2.22 8.33 2.22 11m.36 27.05c-3-6.08-.83-15.67-.2-19.41M5.13 3.39c1.25 3.27.17 6.91-.14 10s-1.09 4.83-.94 5.3m1.57 22.73C3.9 38 1.87 28.5 3.12 24.76M10.6 6.14c.78 3.9 1.56 8.34-.31 14.1s-1.56 10.29-.47 13.41m6.54-30.38c.94 3.9 1.72 6.7.94 10.6m1.1 28.2c-1.09-3.11-1.87-17.26-.47-21.16m8 18.41c-1.72-3.27-2.5-11.44-1.25-16.58s1.09-5.62.94-8.89m7.64 21.51c-3-5.45-1.72-10-.16-15s.78-11.47-.16-15.83M39 1.67c1.1 4.52 1.72 6 .78 9.45s-1.71 5-2 6.71m4.53 22.83c-1.09-2.18-3.61-15-3.61-18.27m8-18.3c1.41 5.92 3 9.18.94 14.16S44.28 27 44.9 30.57m9.74-21.64c1.72 3.74 1 10.38.66 12.72m-4.63 17.6c-.78-2.18 0-9.66 1.09-13.4m6.55-24.18C60 7.44 61 13.11 59.71 18.26s-1.77 17-1 19.92M66 5.17c1.53 7.62.11 15.51.11 13.5m-.48 23.54a21.17 21.17 0 0 1-.32-10c.79-3 1.84-5.52 2.15-8.8m4.1-21.65c1.71 7.17 3 15.09 1.87 19.14S72 29.63 72.5 31.82m5.92-21.4c-.16 3.12.31 3.58.94 6.24a15.68 15.68 0 0 1 0 9.35c-1.25 4.52-.64 12.15-.33 14m5.28-26.92c-.47-2 1.11-7.48 1.11-10.29m0 33.63a22.5 22.5 0 0 1-.31-9 45.16 45.16 0 0 0 .77-7.79M91.44.93c1.72 5.77.39 20.87-.23 26.17m3.59 17.6a32.57 32.57 0 0 1-1.1-4.2c-.62-3 2.1-9.09 2.73-13.93m8.86 2.13c-1.56-3.59-.78-7.48.47-12.16s1.09-8.61.62-15m8 9.06c.47 3.43.94 3.82.31 7.09s-1.4 5.15-1.56 6.4m8.36 13.38c-1.56-4-1-13.69.27-19.77s.78-9.2-.31-14m7.82-2.6c.94 3.9.67 12.15.36 15.89m-.53 25.2c-.78-2.65-2.13-14.28-1.5-18.18M135 9.3c1.41 6.08 2.19 6.27 1.41 11.56s-1.09 9.83-.63 12m7-31.43a58.61 58.61 0 0 1 .78 10.85m0 26.32c-3-6.08-.44-14.94.18-18.68m5.94 13.72c-1.71-4.21-1.09-9.2-.46-13.56s.93-12.24 0-17.38M6.51 123.9c1.1 4.83 1.41 7.95.94 11.07m-4.2 17.48c-1.09-2.65 1-9.38 2.3-13.27m6.23 12.58c-1.1-3.12-.63-9.16.15-13s1.87-6.7 1.25-11.23m7.29-8.87c.62 3.27-1.32 23.69-2.88 28.52m5.92 6.22a71.47 71.47 0 0 1 1.7-16.08c.82-3.74 1.24-2.81 1.09-7.18m14.79-2.61c.3 5.46.93 6.71-.94 11.54s-2.34 5.44-1.56 8.71m7.87-26.31c.93 2.8 3.13 8.71 2.82 11.36m-5.42 18.47c-.32-4.52 1.57-11.34 2.66-14.15M53.66 127c1.4 5.77 1.76 8.2 0 12.32-1.45 3.37-1.22 10-1.25 14.06m14.09-31.2c1.41 5.76 2 12.15.58 15.74s-2.24 10.69-1.46 14.08m5.79-4.39c-.62-2 2.26-12.21 2.57-14.86m5.08-12.37a27.36 27.36 0 0 1-.2 14.89c-1.2 3.48-1.62 12.56-1.63 18m13.66-27c1.41 4.52 1.41 7.17.16 11.85s-2 5.88-1.09 9m9.2-24.86c.63 3-.72 7.36-.87 9.38M95.82 150c-.46-2.18 2-11.21 3.06-14.33m4.75-9c1.25 6.71 1.4 9.51-.47 13.57s-2.49 9.2-1.4 12.31m16.72-27.08c2.18 5.77 1.28 8.3-1.6 13.52-1.77 3.21-2.36 9.72-2.33 14.33m7.64-34.53c2 2 3.29 11.47 3 13m-2 5.84c0 3.89-2.06 11.21-3 14.33m10.39-27.26c.46 3-1 2.1.22 6.78s.31 6.7-.94 10-.37 6.08-.21 8M25.07 6.69c-1-1.17-1.44-3.05-1.56-6.65m28.9 0a10.34 10.34 0 0 1-.28 3.16m25.29 2.43a43.79 43.79 0 0 1-.19-5.58m37.84 6.28c-.3-.49-.51-3.75-.52-6.28m22.53 4.59C137 4.23 137 1.38 137 .05m.65 126.65c.78 3.12 1.71 7.49.78 11.07-.72 2.77-1.37 11.08-1.43 15.58m13.6-2.59c-1.09-3.58-.17-13 .77-16.73s.77-4.67.47-8.26M99.6 89.16c.48 5.67 1.89 6.61 1 13.7s-1.89 10.39-1 13.23m9.92-70.63c-.78-2-1.56-8.44-1.4-12.65m2.88 89.94c.78 3.9 1.56 5.93-.31 11.69-1.43 4.39-3.34 10-1.8 14.4m11.56-35.66c-1.09-3.12-1.41-7.64.47-13.41s1.08-7.8.31-11.69M86 123.09c.78 3.89.83 7.67-1 13.43s-2.66 11.35-1.57 14.48m-24-25.68c.78 3.9 2 6.31.11 12.08s-2 8.61-.93 11.72m-26.44 3.08c-1.09-3.11-1.2-10.07.67-15.84s3.74-13.15 3-17m108.5 2.29c.78 3.9 2.92 9.33 1.05 15.09s-1.56 8.85-.47 12"/></pattern></defs><path fill="#161515" stroke="#d9b776" stroke-miterlimit="10" stroke-width="12.66" d="M337.38 129.3c-17.94 0-37.3 4-57.59 13.51-15-9.42-28.6-13-40.59-13-38.58 0-60.64 37.24-60.64 37.24a31.24 31.24 0 0 0-3.36-.15c-9.89 0-38.75 3.37-46.94 41.76a56.07 56.07 0 0 0-9-.74c-31.7 0-43.2 29.31-43.2 29.31a44.19 44.19 0 0 0-15.94-3.08c-11.83 0-26.84 5.47-32.52 31-26.7 14.29-14.28 52.18 8.08 52.18 13 29.43 67.33 49.52 118.4 49.52 22.21 0 43.79-3.8 61.1-12.26 0 0 21.17 16.11 44.57 16.11a43.2 43.2 0 0 0 28.09-9.9c11.48 5.74 28.29 9.12 46.37 9.12 32.79 0 69.72-11.13 86.54-39.55 69.56-3.1 94.39-90.67 27.31-123.59-12.23-37.67-54.47-77.48-110.71-77.48"/><path fill="url(#a)" d="M337.38 129.3c-17.94 0-37.3 4-57.59 13.51-15-9.42-28.6-13-40.59-13-38.58 0-60.64 37.24-60.64 37.24a31.24 31.24 0 0 0-3.36-.15c-9.89 0-38.75 3.37-46.94 41.76a56.07 56.07 0 0 0-9-.74c-31.7 0-43.2 29.31-43.2 29.31a44.19 44.19 0 0 0-15.94-3.08c-11.83 0-26.84 5.47-32.52 31-26.7 14.29-14.28 52.18 8.08 52.18 13 29.43 67.33 49.52 118.4 49.52 22.21 0 43.79-3.8 61.1-12.26 0 0 21.17 16.11 44.57 16.11a43.2 43.2 0 0 0 28.09-9.9c11.48 5.74 28.29 9.12 46.37 9.12 32.79 0 69.72-11.13 86.54-39.55 69.56-3.1 94.39-90.67 27.31-123.59-12.23-37.67-54.47-77.48-110.71-77.48" opacity=".1"/></svg>