<svg xmlns="http://www.w3.org/2000/svg" width="500" height="500"><defs><pattern id="a" data-name="New Pattern Swatch 11" width="140.91" height="140.91" patternTransform="translate(-34 30.38)" patternUnits="userSpaceOnUse"><path style="fill:none" d="M0 0h140.91v140.91H0z"/><path d="M7.22 4.8c-1.59.7-2.66 1.59-1.42 3.89s1.07 3.19-.17 4.61m-2.49-2.83c-1.59-4.79.18-7.09 2.49-8.86m2.48 6.2c1.06 1.59 1.41 7.26-1.24 9.92m12.75 9.92c1.24-1.42 1.42-2.3.18-4.61s-.18-3.19 1.42-3.89m-4.08 5.67c-1.6-4.79.18-7.09 2.48-8.86m2.48 6.2c1.07 1.59 1.42 7.26-1.24 9.92M5.63 41.47c1.24-1.42 1.41-2.31.17-4.61S5.63 33.67 7.22 33m-4.08 5.63c-1.59-4.78.18-7.08 2.49-8.85M8.11 36c1.06 1.59 1.41 7.26-1.24 9.92m12.93 9.55c1.24-1.42 1.42-2.31.18-4.61s-.18-3.19 1.41-3.9m-4.07 5.67c-1.6-4.78.17-7.09 2.48-8.86M22.28 50c1.06 1.6 1.42 7.27-1.24 9.92M5.62 69.64C6.87 68.22 7 67.34 5.8 65s-.18-3.19 1.42-3.9m-4.08 5.7c-1.59-4.8.18-7.08 2.49-8.8m2.48 6.2c1.06 1.59 1.41 7.26-1.24 9.92m12.75 9.74c1.24-1.42 1.42-2.3.18-4.6s-.18-3.19 1.42-3.9M17.14 81c-1.6-4.79.18-7.09 2.48-8.86m2.48 6.2c1.07 1.59 1.42 7.26-1.24 9.92M5.62 97.81c1.25-1.42 1.42-2.3.18-4.61s-.18-3.2 1.42-3.9M3.14 95c-1.59-4.78.18-7.08 2.49-8.86m2.48 6.21c1.06 1.59 1.41 7.26-1.24 9.92m12.75 9.56c1.24-1.41 1.42-2.3.18-4.6s-.18-3.19 1.42-3.9M17.14 109c-1.6-4.78.18-7.09 2.48-8.86m2.48 6.2c1.07 1.59 1.42 7.26-1.24 9.92m-15.24 9.89c1.25-1.41 1.42-2.3.18-4.6s-.18-3.19 1.42-3.9m-4.08 5.67c-1.59-4.78.18-7.09 2.49-8.86m2.48 6.2c1.06 1.6 1.41 7.27-1.25 9.92M19.62 140c1.24-1.41 1.42-2.3.18-4.6s-.18-3.19 1.42-3.9m-4.08 5.67c-1.6-4.78.18-7.09 2.48-8.86m2.48 6.2c.7 1.05 1.09 3.87.52 6.43M33.79 13.3C35 11.88 35.21 11 34 8.69s-.21-3.19 1.39-3.89m-4.08 5.67c-1.59-4.79.18-7.09 2.48-8.86m2.49 6.2c1.06 1.59 1.41 7.26-1.25 9.92m12.76 9.92c1.21-1.42 1.42-2.3.21-4.65s-.18-3.19 1.41-3.89m-4.07 5.67c-1.6-4.79.18-7.09 2.48-8.86m2.48 6.2c1.07 1.59 1.42 7.26-1.24 9.92m-15.27 9.43c1.25-1.42 1.42-2.31.18-4.61s-.18-3.19 1.42-3.89m-4.08 5.66c-1.59-4.78.18-7.08 2.48-8.85M36.28 36c1.06 1.59 1.41 7.26-1.25 9.92M48 55.47c1.24-1.42 1.41-2.31.18-4.61S48 47.67 49.56 47m-4.07 5.67c-1.6-4.78.17-7.09 2.48-8.86M50.45 50c1.06 1.6 1.42 7.27-1.24 9.92m-15.42 9.72c1.21-1.42 1.42-2.3.21-4.64s-.18-3.19 1.42-3.9m-4.11 5.7c-1.59-4.78.18-7.08 2.48-8.85m2.49 6.2c1.06 1.59 1.41 7.26-1.25 9.92m12.76 9.74c1.24-1.42 1.42-2.3.18-4.6s-.18-3.19 1.42-3.9M45.31 81c-1.6-4.79.18-7.09 2.48-8.86m2.48 6.2c1.07 1.59 1.42 7.26-1.24 9.92m-15.24 9.55c1.24-1.42 1.42-2.3.18-4.61s-.18-3.19 1.42-3.9M31.31 95c-1.59-4.78.18-7.08 2.48-8.86m2.49 6.21c1.06 1.59 1.41 7.26-1.25 9.92m12.76 9.56c1.24-1.41 1.42-2.3.18-4.6s-.18-3.19 1.42-3.9M45.31 109c-1.6-4.78.18-7.09 2.48-8.86m2.48 6.2c1.07 1.59 1.42 7.26-1.24 9.92m-15.24 9.92c1.24-1.41 1.42-2.3.18-4.6s-.18-3.19 1.42-3.9m-4.08 5.67c-1.59-4.78.18-7.09 2.48-8.86m2.48 6.2c1.07 1.6 1.42 7.27-1.24 9.92M47.79 140c1.24-1.41 1.42-2.3.18-4.6s-.18-3.19 1.41-3.9m-4.07 5.67c-1.6-4.78.18-7.09 2.48-8.86m2.3 6.2c.7 1.05 1.09 3.87.53 6.43M61.79 13.3C63 11.88 63.2 11 62 8.69s-.21-3.19 1.38-3.89m-4.07 5.67c-1.6-4.79.17-7.09 2.48-8.86m2.48 6.2c1.06 1.59 1.42 7.26-1.24 9.92m12.75 9.92C77 26.23 77.2 25.35 76 23s-.18-3.19 1.42-3.89m-4.12 5.71c-1.59-4.79.18-7.09 2.48-8.86m2.48 6.2c1.07 1.59 1.42 7.26-1.24 9.92m-15.23 9.39c1.24-1.42 1.41-2.31.18-4.61s-.18-3.19 1.41-3.89m-4.07 5.66c-1.6-4.78.17-7.08 2.48-8.85M64.27 36c1.06 1.59 1.42 7.26-1.24 9.92M76 55.47c1.24-1.42 1.42-2.31.18-4.61S76 47.67 77.56 47m-4.08 5.67c-1.6-4.78.18-7.09 2.48-8.86M78.44 50c1.06 1.6 1.42 7.27-1.24 9.92m-15.41 9.72C63 68.22 63.2 67.34 62 65s-.17-3.19 1.42-3.9m-4.11 5.7c-1.6-4.78.17-7.08 2.48-8.85m2.48 6.2c1.06 1.59 1.42 7.26-1.24 9.92m12.75 9.74c1.24-1.42 1.42-2.3.18-4.6s-.18-3.19 1.42-3.9M73.3 81c-1.59-4.79.18-7.09 2.48-8.86m2.48 6.2c1.07 1.59 1.42 7.26-1.24 9.92m-15.23 9.55c1.24-1.42 1.41-2.3.17-4.61s-.17-3.19 1.42-3.9M59.31 95c-1.6-4.78.17-7.08 2.48-8.86m2.48 6.21c1.06 1.59 1.42 7.26-1.24 9.92m12.75 9.56c1.24-1.41 1.42-2.3.18-4.6s-.18-3.19 1.42-3.9M73.3 109c-1.59-4.78.18-7.09 2.48-8.86m2.48 6.2c1.07 1.59 1.42 7.26-1.24 9.92m-15.23 9.92c1.24-1.41 1.41-2.3.17-4.6s-.17-3.19 1.42-3.9m-4.07 5.67c-1.6-4.78.17-7.09 2.48-8.86m2.48 6.2c1.06 1.6 1.41 7.27-1.24 9.92M75.78 140c1.24-1.41 1.42-2.3.18-4.6s-.18-3.19 1.42-3.9m-4.08 5.67c-1.59-4.78.18-7.09 2.48-8.86m2.48 6.2c.7 1.05 1.09 3.87.52 6.43M90.07 13.3c1.24-1.42 1.42-2.3.18-4.61s-.18-3.19 1.42-3.89m-4.08 5.67c-1.59-4.79.18-7.09 2.48-8.86m2.49 6.2c1.06 1.59 1.41 7.26-1.25 9.92m12.76 9.92c1.24-1.42 1.42-2.3.18-4.61s-.18-3.19 1.41-3.89m-4.07 5.67c-1.6-4.79.18-7.09 2.48-8.86m2.48 6.2c1.06 1.59 1.42 7.26-1.24 9.92m-15.24 9.39c1.24-1.42 1.42-2.31.18-4.61s-.18-3.19 1.42-3.89m-4.08 5.66c-1.59-4.78.18-7.08 2.48-8.85M92.56 36c1.06 1.59 1.41 7.26-1.25 9.92m12.94 9.57c1.24-1.42 1.41-2.31.18-4.61s-.18-3.19 1.41-3.9m-4.07 5.67c-1.6-4.78.17-7.09 2.48-8.86m2.48 6.2c1.06 1.6 1.42 7.27-1.24 9.92m-15.42 9.73c1.24-1.42 1.42-2.3.18-4.61s-.18-3.19 1.42-3.9m-4.08 5.67c-1.59-4.8.18-7.08 2.48-8.8m2.49 6.2c1.06 1.59 1.41 7.26-1.25 9.92m12.76 9.74c1.24-1.42 1.42-2.3.18-4.6s-.18-3.19 1.42-3.9M101.59 81c-1.6-4.79.17-7.09 2.48-8.86m2.48 6.2c1.06 1.59 1.42 7.26-1.24 9.92m-15.24 9.55c1.24-1.42 1.42-2.3.18-4.61s-.18-3.19 1.42-3.9M87.59 95c-1.59-4.78.18-7.08 2.48-8.86m2.49 6.21c1.06 1.59 1.41 7.26-1.25 9.92m12.76 9.56c1.24-1.41 1.42-2.3.18-4.6s-.18-3.19 1.42-3.9m-4.08 5.67c-1.6-4.78.17-7.09 2.48-8.86m2.48 6.2c1.06 1.59 1.42 7.26-1.24 9.92m-15.24 9.92c1.24-1.41 1.42-2.3.18-4.6s-.18-3.19 1.42-3.9m-4.08 5.67c-1.59-4.78.18-7.09 2.48-8.86m2.48 6.2c1.07 1.6 1.42 7.27-1.24 9.92m12.76 9.39c1.24-1.41 1.42-2.3.18-4.6s-.18-3.19 1.41-3.9m-4.07 5.67c-1.6-4.78.17-7.09 2.48-8.86m2.48 6.2c.7 1.05 1.09 3.87.52 6.43M118.24 13.3c1.24-1.42 1.42-2.3.18-4.61s-.18-3.19 1.42-3.89m-4.08 5.67c-1.59-4.79.18-7.09 2.48-8.86m2.48 6.2c1.07 1.59 1.42 7.26-1.24 9.92m12.76 9.92c1.24-1.42 1.41-2.3.18-4.61s-.18-3.19 1.41-3.89m-4.07 5.67c-1.6-4.79.18-7.09 2.48-8.86m2.48 6.2c1.06 1.59 1.42 7.26-1.24 9.92m-15.24 9.39c1.24-1.42 1.42-2.31.18-4.61s-.18-3.19 1.42-3.89m-4.08 5.66c-1.59-4.78.18-7.08 2.48-8.85m2.48 6.2c1.07 1.59 1.42 7.26-1.24 9.92m12.94 9.57c1.24-1.42 1.41-2.31.17-4.61s-.17-3.19 1.42-3.9m-4.07 5.67c-1.6-4.78.17-7.09 2.48-8.86M134.9 50c1.06 1.6 1.42 7.27-1.24 9.92m-15.42 9.75c1.24-1.42 1.42-2.3.18-4.61s-.18-3.19 1.42-3.9m-4.08 5.67c-1.59-4.78.18-7.08 2.48-8.85m2.48 6.2c1.07 1.59 1.42 7.26-1.24 9.92m12.76 9.74c1.24-1.42 1.42-2.3.18-4.6s-.18-3.19 1.41-3.9M129.76 81c-1.6-4.79.17-7.09 2.48-8.86m2.48 6.2c1.06 1.59 1.42 7.26-1.24 9.92m-15.24 9.57c1.24-1.42 1.42-2.3.18-4.61s-.18-3.19 1.42-3.9M115.76 95c-1.59-4.78.18-7.08 2.48-8.86m2.48 6.21c1.07 1.59 1.42 7.26-1.24 9.92m12.76 9.56c1.24-1.41 1.42-2.3.18-4.6s-.18-3.19 1.41-3.9m-4.07 5.67c-1.6-4.78.17-7.09 2.48-8.86m2.48 6.2c1.06 1.59 1.42 7.26-1.24 9.92m-15.24 9.92c1.24-1.41 1.42-2.3.18-4.6s-.18-3.19 1.42-3.9m-4.08 5.67c-1.59-4.78.18-7.09 2.48-8.86m2.48 6.2c1.07 1.6 1.42 7.27-1.24 9.92m12.76 9.39c1.24-1.41 1.41-2.3.18-4.6s-.18-3.19 1.41-3.9m-4.07 5.67c-1.6-4.78.17-7.09 2.48-8.86m2.48 6.2c.7 1.05 1.09 3.87.52 6.43M22.64 0a7.25 7.25 0 0 1-1.78 3.56M50.81 0A7.25 7.25 0 0 1 49 3.56M78.8 0A7.25 7.25 0 0 1 77 3.56M107.08 0a7.15 7.15 0 0 1-1.77 3.56M135.25 0a7.15 7.15 0 0 1-1.77 3.56" style="stroke-miterlimit:11.34;stroke-width:1.42px;stroke:#d9b776;fill:none"/></pattern></defs><path d="M235.5 120.75c-31.07 0-57.74 18.07-69.4 43.9-10.87-14.22-26.48-23.2-43.88-23.2-32.83 0-59.44 31.79-59.44 71a86.13 86.13 0 0 0 1 13.07 37.77 37.77 0 0 0-6.66-.65c-24.67 0-44.66 23-44.66 51.47s20 51.46 44.66 51.46c11.43 0 21.83-5 29.73-13.14 7.16 30.14 37.33 52.77 73.49 52.77 24.35 0 45.94-10.31 59.67-26.22 7 21.94 29.8 38.05 56.86 38.05 21.06 0 39.51-9.77 50-24.44a53.46 53.46 0 0 0 34.59 12.61c28.59 0 51.84-22.15 53.13-49.94a42.12 42.12 0 0 0 27.41 10.3c25.15 0 45.55-22.91 45.55-51.17S467.1 225.45 442 225.45a41.76 41.76 0 0 0-24.72 8.23 79.43 79.43 0 0 0 3.43-23c0-38.23-26.49-69.22-59.15-69.22-22.56 0-42.15 14.77-52.14 36.5-7.5-32.72-37.7-57.2-73.87-57.2" style="fill:#161515;stroke-miterlimit:10;stroke-width:13.62px;stroke:#d9b776"/><path d="M235.5 120.75c-31.07 0-57.74 18.07-69.4 43.9-10.87-14.22-26.48-23.2-43.88-23.2-32.83 0-59.44 31.79-59.44 71a86.13 86.13 0 0 0 1 13.07 37.77 37.77 0 0 0-6.66-.65c-24.67 0-44.66 23-44.66 51.47s20 51.46 44.66 51.46c11.43 0 21.83-5 29.73-13.14 7.16 30.14 37.33 52.77 73.49 52.77 24.35 0 45.94-10.31 59.67-26.22 7 21.94 29.8 38.05 56.86 38.05 21.06 0 39.51-9.77 50-24.44a53.46 53.46 0 0 0 34.59 12.61c28.59 0 51.84-22.15 53.13-49.94a42.12 42.12 0 0 0 27.41 10.3c25.15 0 45.55-22.91 45.55-51.17S467.1 225.45 442 225.45a41.76 41.76 0 0 0-24.72 8.23 79.43 79.43 0 0 0 3.43-23c0-38.23-26.49-69.22-59.15-69.22-22.56 0-42.15 14.77-52.14 36.5-7.5-32.72-37.7-57.2-73.87-57.2" style="opacity:.1;fill:url(#a)"/></svg>