<svg viewBox="0 0 500 500"><defs><pattern id="a" width="166.82" height="166.82" data-name="New Pattern Swatch 4" patternTransform="translate(-34 93.54)" patternUnits="userSpaceOnUse"><path fill="none" d="M0 0h166.82v166.82H0z"/><path fill="none" stroke="#d9b776" stroke-miterlimit="11.34" stroke-width="1.42" d="M5.54 0a36.2 36.2 0 0 0 16.2 17.54C30.51 22 35.06 29.93 37.33 34.3c2.53 4.87 11.79 12.38 18.42 15.49S71 61.87 72.51 66.55 84.2 81 89.27 83.7s14.42 11.69 16.37 16 9 12.48 16.76 16.76 14.81 12.09 16.76 16.76 9.74 13.65 16.76 16.76c3.76 1.68 7.67 5 10.9 8.7M23.66 0a36.25 36.25 0 0 0 16.2 17.54C48.63 22 53.18 29.93 55.45 34.3 58 39.17 67.24 46.68 73.87 49.79s15.2 12.08 16.76 16.76S102.32 81 107.39 83.7s14.42 11.69 16.37 16 9 12.48 16.76 16.76 14.81 12.09 16.76 16.76c1.28 3.08 5.09 8 9.54 11.91m0-23.15a44.05 44.05 0 0 0-7.73-5.52c-7.79-4.28-14.81-12.47-16.75-16.76S131 86.43 126 83.7s-15.24-12.47-16.8-17.15-10.13-13.64-16.76-16.76S76.56 39.17 74 34.3c-2.25-4.37-6.79-12.3-15.56-16.76A36.15 36.15 0 0 1 42.24 0m18.57 0A36.2 36.2 0 0 0 77 17.54C85.78 22 90.33 29.93 92.6 34.3c2.54 4.87 11.79 12.38 18.42 15.49s15.2 12.08 16.76 16.76S139.47 81 144.54 83.7s14.42 11.69 16.37 16a33.67 33.67 0 0 0 5.91 8.09m0-21.58a29.27 29.27 0 0 0-3.7-2.49c-5.07-2.73-15.21-12.47-16.76-17.15s-10.14-13.64-16.77-16.76-15.88-10.64-18.41-15.51c-2.28-4.37-6.82-12.3-15.59-16.76A36.15 36.15 0 0 1 79.39 0m87.43 69.92a14 14 0 0 1-1.89-3.37c-1.56-4.68-10.13-13.64-16.76-16.76s-15.88-10.62-18.42-15.49c-2.27-4.37-6.82-12.28-15.59-16.76A36.25 36.25 0 0 1 98 0m68.86 49.83h-.07c-6.63-3.11-15.88-10.62-18.42-15.49-2.27-4.37-6.82-12.28-15.59-16.76A36.2 36.2 0 0 1 116.54 0m50.28 34.13c-2.3-4.4-6.84-12.16-15.5-16.59A36.22 36.22 0 0 1 135.11 0m31.71 15.74A36.55 36.55 0 0 1 153.69 0M0 158.66a42.08 42.08 0 0 1 5.69 8.16M0 145.11A29.59 29.59 0 0 0 7.22 150c6.52 2.9 13.46 10.76 16.59 16.86m18.58 0c-3.14-6.1-10.08-14-16.59-16.86-7.02-3.16-14.8-12.12-16.8-16.8-1.26-3-4.66-7.39-9-11.24m0-14.19a45.76 45.76 0 0 0 10.85 8.67c7.79 4.29 14.81 12.09 16.76 16.76s9.74 13.65 16.76 16.8c6.52 2.9 13.45 10.76 16.59 16.86m18.58 0c-3.14-6.1-10.08-14-16.59-16.86-7-3.11-14.82-12.08-16.77-16.76s-9-12.47-16.75-16.76S14.62 104 12.67 99.68C11.13 96.31 5 90 0 86.19m0-16.27c3.57 5 10.83 11.61 14.87 13.78 5.07 2.73 14.42 11.69 16.37 16s9 12.48 16.76 16.76 14.81 12.09 16.76 16.76 9.75 13.63 16.76 16.78c6.52 2.9 13.46 10.76 16.6 16.86M0 49.83C6.62 53 15.13 61.89 16.69 66.55S28.38 81 33.45 83.7s14.42 11.69 16.37 16 9 12.48 16.76 16.76 14.81 12.09 16.76 16.76 9.74 13.63 16.76 16.78c6.52 2.9 13.46 10.76 16.59 16.86M0 34.13l.09.17c2.53 4.87 11.79 12.38 18.41 15.49s15.2 12.08 16.76 16.76S47 81 52 83.7s14.42 11.69 16.37 16 9 12.48 16.76 16.76 14.87 12.07 16.78 16.74 9.75 13.65 16.76 16.76c6.52 2.9 13.46 10.76 16.6 16.86M0 15.74a32.42 32.42 0 0 0 3.07 1.8C11.84 22 16.39 29.93 18.66 34.3c2.53 4.87 11.79 12.38 18.42 15.49s15.2 12.09 16.76 16.76S65.53 81 70.6 83.7 85 95.4 87 99.68s9 12.48 16.76 16.76 14.81 12.09 16.76 16.76 9.74 13.64 16.76 16.76c6.52 2.9 13.46 10.76 16.59 16.86M35.59 20.26l-7.37-3.15m-2.75 16.63 7.37 3.16m15.47-5.08L48 39.54m20.17 15.33 8.24 3.68m10.36 17.84L95.28 79m-26 8.76-6.82-2m49.42 17.42 2.12-8.05m23.83 27.38-7.18-5.67m17.42 18.72 6.78 2.58M33.72 1.26l2.42 6.51M52.28 24l6-3.12m6.8 18.76 8.66-.53M35.83 52.9l-6.7-.61M94 66.64l1-8.42m14.79 17.34 3.65 7.5m16.15 21.23 4.13-7m-41.04 1.15L95.56 94m-39-82.6 4.55-3.51m47.28 47.84 7.6 4M64.94 71l8.6 5.27m10.93-37.39 1.06-7m40.54 47 8.77 1.06m14.16 22.7 6.88 1.27m-1.44 14 2.1 7M6 32.92l4.56-3.5m35.09 41.72 1.05-7M81.57 101l2.14 5.61m30.78 30.56-2.11-7M5.94 12.07 14.35 17m98 99.88 6.17 1.81M129.76 135l4.74 6.19m1.16 19.91 2.84-5.19m13.58-3.61 1.83 5.77m-57.63-36.69 4.66-2.94m-50.38-67.3 2.81 7.72M126.42 3.3l7.37 3.16m21.48 29.77.94-9.92m-28.8-2.5 9.48 1.38m10.24-13.75 8.66-.53M109 19.22l3.78 8m40.49 20.89 7 3.8M89 7.23l4.56-3.5m40.24 47 1.05-7m20.36 37.81 1.05 8.06m-70.57-71 8 1.89m37.09 43.23h6.08M60.4 142.55l8.07 2.11m-48.24 4.44-5.75.52m-11-47.87 8.42 2.1m48.79 2.09 4.3-3.09m-52.21 21.66 2.11 9.49m49.91 30 7.49-3.66M46.35 157l-7-4.13m11.81-24.57-4-6.94M29.07 86l3.31 6.15m-9.67-20.77 3.58-4.91M7.39 51.35l.91-5.75m14.82 61.74 2.7-6.38M48 90.09l-2.66-4.82M43.77 109l4.85-4.58m35 35.23L81 144.93m-13.61-17.52-2.31-6.69m-22 24.92 1.18-8.31m56.58 9.95 5.72-2.45M8.8 163.59l2.4-6.31M2.12 81.46l6.16 2.31m2-16.83-5.88 1.4m22.48 55.79 7.56 2.28m51 2.89 2.31-5.19m16.68-84.41 8.07 2.1m-12 119.69 2.31-5.2"/></pattern></defs><path fill="#161515" stroke="#d9b776" stroke-miterlimit="10" stroke-width="12.79" d="M241.25 142.75a71 71 0 0 0-56.2 27.61 64.3 64.3 0 0 0-96.84 55.54l.1 2h-.42a46.27 46.27 0 0 0-46.26 46.2l.13 2.65c-17.84 8.3-29.26 21-29.26 35.21 0 25 35.27 45.29 78.79 45.29h336l-.05-.08c33.47-1 60.22-20.67 60.22-44.88 0-24.84-28.1-45-62.76-45a87.79 87.79 0 0 0-14.5 1.25 53.83 53.83 0 0 0-71.83-41.2 35.28 35.28 0 0 0-28.12-30.53 71.13 71.13 0 0 0-69-54.07"/><path fill="url(#a)" d="M241.25 142.75a71 71 0 0 0-56.2 27.61 64.3 64.3 0 0 0-96.84 55.54l.1 2h-.42a46.27 46.27 0 0 0-46.26 46.2l.13 2.65c-17.84 8.3-29.26 21-29.26 35.21 0 25 35.27 45.29 78.79 45.29h336l-.05-.08c33.47-1 60.22-20.67 60.22-44.88 0-24.84-28.1-45-62.76-45a87.79 87.79 0 0 0-14.5 1.25 53.83 53.83 0 0 0-71.83-41.2 35.28 35.28 0 0 0-28.12-30.53 71.13 71.13 0 0 0-69-54.07" opacity=".1"/></svg>