<svg viewBox="0 0 500 500"><defs><pattern id="a" width="153.07" height="153.07" data-name="New Pattern Swatch 7" patternTransform="translate(-34 134.79)" patternUnits="userSpaceOnUse"><path fill="none" d="M0 0h153.07v153.07H0z"/><path fill="none" stroke="#d9b776" stroke-linecap="round" stroke-miterlimit="11.34" stroke-width="1.7" d="M17.24 31.18h0m-5-14.64h0m-7.44-7h0m7.44-.12h0m-.45-5.74h0m8.25 8h0m2.29-7.18h0M29.76 9h0m5.91-4.54h0m7.44-1.06h0M2.36 2.13h0m6.91 26.22h0m-.88 8.85h0m-5.08-4.13h0m2-15.63h0M3.78 45.53h0m8.68 2.3h0m5.54 7.8h0m-7.08 3.54h0m10.22-11.51h0M6.26 53.33h0m8.86-14h0m5-16.3h0m8.74-2.71h0m15.71-7.56h0m-1.77 7.79h0m7.44-3.19h0m-1.77 8.15h0M39.92 28h0m5.32 3.9h0m-9.57 3.19h0m-6 4.6h0m12-.35h0m8.51-1.42h0m2.12-7.08h0m5 4.25h0m2.13-6.73h0m6.73-3.55h0m-.35 7.09h0m7.79-3.19h0m-1.06 7.09h0m-6 3.89h0m4.6 6.21h0m9.57-12.58h0m-1.42 6.37h0m7.09.36h0m-5.67 5.31h0M73.76 59.7h0M77 52.62h0m5.85 5.67h0m4.42-6.2h0m5.5-6.74h0M96.79 37h0m5.14 8h0m7.79-.89h0m5.5-8.5h0m-9.22.18h0m-7.08-7.62h0m22.14-18.6h0m22.68 26.93h0m2.83 12.4h0M142 43.58h0m-5 5.32h0m2.83 5.43h0m10.28.59h0m-5 3.54h0m-9.1 2h0m-4.72-8.74h0m-9.21-6.38h0m.23 8.51h0m-7.08 2.36h0m12.87 1.89h0m1.3 7.56h0m11.46-1.54h0m-3.86 5.8h0M149 7.8h0m-7.44 2.83h0m1.44-7.8h0m-9.21 0h0m-1.06 6.38h0m-7.09-3.9h0m-7.44-3.18h0m31.53 60.59h0m.36-27.64h0m-1.07 8.15h0m-19.1-19.14h0m3.9-6h0m3.18 8.84h0m-9.57 3.9h0m6.73 10.63h0m-6-3.9h0m6-2.13h0m8-5.19h0m1.19-10.4h0m5.66 5h0m1.42-6.73h0m-40 9.39h0m-4.07-8.33h0m-9.57.36h0m-16.12 4.03h0m-3.54-7.79h0m-7.8 1.77h0m-8-4.78h0m-7.59-2.84h0m3.19-7.26h0m7.79 2.12h0m7.09 4.79h0M83 9.21h0M99 3.9h0m9.39-1.24h0M90.59 26.4h0m-4.07-8h0m5.84-4.61h0m35.79-.36h0m-16.3-4.6h0m-9 45.35h0m-8.14-.71h0M95 62h0m-2 7.44h0m8.15-2.13h0m-1.7 6.39h0m9.57-6h0m3.89-3.9h0m.71 9.21h0m5.44-4.49h0m2.83-7.08h0m5.67 11.81h0m-8 3.78h0m-5.67 7.56h0m-1.3 6.85h0m9.89 3.56h0m7.09-7.44h0m1.06 7.44h0m6-5h0m1.42-8.15h0m6-3.42h0m6.62-3.78h0M144.09 85h0M143 93.9h0m6.73-4.61h0m-13.11 11h0m12.76 7.44h0m-4.61 5.67h0m-6 3.54h0m5.31 3.54h0m2.48 7.44h0m3.9-8.27h0m-18.07 1.9h0m-2.12 7.08h0m-7.8 0h0m-20.91 23h0M137 132.52h0m-3.55 6.73h0m9.93-3.9h0m-2.84 6.38h0m-7.44 5.67h0m-8.5-4.25h0m-7.44-6h0m-1.07 7.44h0m-2.48 6.37h0m-4.24-9.96h0m-2.13 6h0m17 2.48h0m17.72-.36h0m6.38-7.08h0m2.12-8.86h0m-.35 15.23h0M126.73 135h0m-99.56-30.83h0m111.61 22h0m-10.63-23.77h0m-11 1.42h0m-3.55-6.38h0m-8.86 12h0m22 0h0m-7.79 2.12h0m-1.07 7.8h0m-5.67-4.61h0m-2.83 7.44h0m-8.15-5.31h0m.35 7.79h0m-5-14.52h0m4.61-7.44h0m-7.79-.36h0m3.6-7.04h0m5-5.66h0m-8.5-3.19h0m6.37-3.9h0m-6.73-5h0M86 81.5h0m-8.85-5.32h0m-10.65-.71h0m-10.28 0h0M52 81.85h0m9.92-.35h0m-4.61 5.67h0m14.89-5.32h0m-5 5.67h0m10.63-1.06h0m7.8 4.25h0m-7.44 2.12h0m8.15 4.61h0m-7.44 2.48h0m6.73 5h0m2.13-41.32h0m-8.69 2.13h0M69 65h0m-6-19.29h0m-4.3 6.55h0m8.5 2h0m-4.6 6.38h0m-9-2.83h0m-7.48 5.79h0m-10.27-9.39h0m.7 7.44h0m-6.9 5.14h0m8.68 2.66h0M47 72.81h0m-4.43 8h0m-6.38-3.9h0m-3 5.31h0m4.25 5.32h0m9.57.71h0m-4.25 5.65h0m9.56-.36h0m-3.54 7.09h0m12.4-8.15h0m9.21 2.83h0m-7.08 3.9h0m-7.8 3.9h0m11.34 1.77h0m-6.73 3.9h0m-9.92 0h0m6 5.67h0m-8.5 2.83h0m-6.7-3.54h0m36.85-3.9h0m10.28 1.77h0m-6 3.55h0m11 3.19h0m-.71 6.73h0m5.58 7.09h0m9.21-2.13h0M94 138.43h0m-5.56-5.2h0m-4.23-10.63h0m-8.15-3.54h0m3.19 8.85h0m1.77 7.8h0m5.32 6.2h0m11.51 2.48h0m-14.35 3.72h0m-6.73-3.9h0m-8.15-5.67h0m-.71-9.54h0m-6 6h0m.71 7.09h0m7.32 7.67h0m-8.38-.94h0m-7.09-3.9h0m-6.38 5.67h0M55.16 123h0m-2.84 6.73h0m-7.08-5h0m-7.44-5h0m-4.61-8.5h0m.71-10.63h0m-6.73-5h0m-7.09 3.19h0m.71-10.28h0m-6.74 3.55h0M9.09 84h0m7.09-2.48h0m-3.54-7.8h0m-6.38 2.46h0m-4.61 7.44h0M9.8 98.5h0M4 103.56h0m11.79 1h0m-5.67 4.25h0m12.4 1.42h0m5.67 7.08h0M6.61 120h0m8.94-6.14h0m-11.35-.21h0m8.63 7.35h0M2.1 127.37h0m7.35.19h0m-4.25 8.53h0m-1.61 6.28h0m27.12-19.77h0m-7.09 3.54h0m7.09 3.54h0m7.44-1.41h0m6.73 4.6h0m2.36 6h0m-21.49-4.61h0m-8.15.74h0m18.4 1.23h0m-7.2 4.08h0m13.23 2.37h0M35.34 146h0m4.82 3.12h0m-11.29 1.14h0m-7.14-6.62h0m-7.56-.19h0m4.16 7.28h0M5.2 149.29h0m4.08-82.68h0M1.85 68.5h0m.87-8.26h0M40.63 107h0M28.05 74.59h0m-6.38-8h0m29.24-19.11h0M54.09 23h0m-28 6.2h0m-2.66 8.15h0m3.38 16.15h0m-1.42 6.38h0M77.13 1.42h0m-19.49 18h0m3.7.48h0m3.92 1.06h0M69 22.15h0m3.81 1.76h0m3.51 2.2h0m4.33 2.76h0M85 31.81h0m4.26 3.31h0m33.56-19.53h0m-3.73.12h0m-4-.42h0m-3.87-.64h0m-4-1.13h0m-3.81-1.62h0m-4.72-2h0m-4.86-2.24h0M89.1 5.07h0M60.47 38.62h0m-3.22 1.88h0m-3.75 1.55h0m-3.71 1.28h0m-4.1.93h0m-4.12.39h0m-5.12.45h0m2.76 3.21h0m2.13 3.07h0m2.12 3.07h0m1.66 2.6h0M31.2 45.44h0m-5.4 0h0m86.05 63h0m-62.72 36.84h0m61.12-40.23h0m-58.7 36.62h0M109 101.19h0m-55 36.64h0m54.08-40.44h0m-51.46 36.86h0m50.86-41h0m-48.41 36.92h0m48.17-41.59h0M8.39 144.92h0m.94-3.61h0m1.56-3.75h0M12.6 134h0m2.24-3.55h0m2.81-3.7h0m2.28-3.67h0m2.38-4.08h0m39.23 6.84h0m45.87-41.92h0M64.22 121.8h0m1.92-3.45h0m2.69-4.06h0m58.38-31.66h0m-4.14 3.12h0m-4 3.07h0M131.15 80h0m4-2.87h0m7.71-5.76h0m-4 2.83h0m8.27-5.43h0m-71.23 2.1h0m5.1.91h0m5 .86h0M71.27 69.8h0m-4.86-1h0m-9.47-1.73h0m4.81 1h0m-9.61-2.37h0m57.27-12.92h0m-3.14 4.12h0m-3 4h0m9.25-11.78h0m3.13-3.86h0m5.87-7.63h0m-1-4.74h0m-.71-5.06h0m-.47-5.43h0m-.91 19h0m5.87-1.32h0m2.6 3.07h0m3.07 2.83h0m-59 64.73h0m1.92-3.46h0m2.68-4.06h0m.12 34.21h0m-1.18-3.88h0m-1.23-3.76h0M72 125.12h0m-.92-4.41h0M2.83 26h0m4-1.63h0M11 22.53h0M15.21 21h0m4.31-2h0M24 16.84h0M28.47 15h0M32 13.19h0m4.49-1.86h0m3.66-1.77h0m3.52-1.79h0m4.5-1.86h0m-15.5 24.76h0m1.19-3.88h0M34.94 23h0m1.69-4.56h0m1.7-4.17h0m69.19 64.42h0m.49-5.37h0m-7 68.07h0m3.19-3h0m-13.08 12.2h0m3.37-3.19h0m13.16-11.79h0m4.34-3.2h0m3.84-3.42h0m4-3.41h0m4.34-3.2h0m3.56-3.2h0m3.34-2.65h0m3.39-3.36h0m3.46-2.76h0m3.39-3.36h0m3.55-3.2h0m3.35-2.65h0m3.38-3.35h0M2.36 95.09h0m3.39-3.36h0m38.6 8.55h0m-3.3-1.75h0m-3.3-2.36h0m-3-2.47h0m-3-3h0m-2.51-3.29h0m-3.1-4.1h0M23.08 79h0m-2.83-4.6h0m-2.83-4.59h0m-2.83-4.6h0"/></pattern></defs><path fill="#161515" stroke="#d9b776" stroke-miterlimit="10" stroke-width="12.89" d="M247.6 176.72c-26.9 0-51.17 6.72-68.54 17.47a41.81 41.81 0 0 0-16.7-3.48c-18.72 0-34.33 12-37.89 28-1.25 0-2.47-.05-3.72-.05C61 218.7 12.5 230.24 12.5 244.48c0 11.09 29.5 20.52 70.74 24.15a12.84 12.84 0 0 0-2.62 7.51c0 11.39 16.9 20.62 37.74 20.62a67 67 0 0 0 13-1.27c1.4 9.77 14.5 17.48 30.65 17.48 9.08 0 17.14-2.46 22.81-6.3 12 9.66 44.71 16.61 83.34 16.61 40.38 0 74.36-7.59 84.87-17.94l3 .26c13.85 0 25.06-9.37 25.38-21a24.64 24.64 0 0 0 11.21 2.61c8.91 0 16.35-4.4 18.82-10.41 42.51-.92 76.07-11.39 76.07-24.21 0-11.52-27.13-21.14-63.49-23.64l.15-2.86c0-19.12-16.48-34.61-36.82-34.61a39.15 39.15 0 0 0-9.13 1.11 37 37 0 0 0-59.22 3.46c-17.51-11.83-42.95-19.33-71.35-19.33"/><path fill="url(#a)" d="M247.6 176.72c-26.9 0-51.17 6.72-68.54 17.47a41.81 41.81 0 0 0-16.7-3.48c-18.72 0-34.33 12-37.89 28-1.25 0-2.47-.05-3.72-.05C61 218.7 12.5 230.24 12.5 244.48c0 11.09 29.5 20.52 70.74 24.15a12.84 12.84 0 0 0-2.62 7.51c0 11.39 16.9 20.62 37.74 20.62a67 67 0 0 0 13-1.27c1.4 9.77 14.5 17.48 30.65 17.48 9.08 0 17.14-2.46 22.81-6.3 12 9.66 44.71 16.61 83.34 16.61 40.38 0 74.36-7.59 84.87-17.94l3 .26c13.85 0 25.06-9.37 25.38-21a24.64 24.64 0 0 0 11.21 2.61c8.91 0 16.35-4.4 18.82-10.41 42.51-.92 76.07-11.39 76.07-24.21 0-11.52-27.13-21.14-63.49-23.64l.15-2.86c0-19.12-16.48-34.61-36.82-34.61a39.15 39.15 0 0 0-9.13 1.11 37 37 0 0 0-59.22 3.46c-17.51-11.83-42.95-19.33-71.35-19.33" opacity=".1"/></svg>