<svg viewBox="0 0 500 500"><defs><clipPath id="a"><path d="M720 700h3000v1536H720z" class="a"/></clipPath><pattern id="b" width="241.06" height="241.06" data-name="New Pattern Swatch 14" patternTransform="translate(-34 111.89)" patternUnits="userSpaceOnUse"><path d="M0 0h241.06v241.06H0z" class="a"/><path fill="none" stroke="#d9b776" stroke-linecap="round" stroke-miterlimit="11.34" stroke-width="1.98" d="M5.07 7.42h0m9-1h0m9.62-1.59h0m8.51-1.42h0M4.6 13.68h0m8-.36h0m9-1.24h0m9-2.24h0m-26 9.68h0m7.44-.7h0m7.44-1.07h0M49.78 8h0M3.89 25.55h0m6.38-.71h0m6.26-.95h0m6.38-1.41h0m6.37-1.18h0m6.15-1.89h0m5.9-1.89h0m6.14-2.13h0m6.15-2.6h0m5.43-2.36h0m5.43-3.07h0m11.81-.89h0m-4.78 3h0m-5 2.48h0m-5 2.84h0m-5.14 2.13h0m-5.31 2.48h0m-5.32 1.94h0m-5.31 2.13h0m-5.32 1.59h0m-5.14 1.42h0m-5.67 1.6h0m-5.49.71h0m-5.67 1.06h0m-5.67.35h0m-5.49.18h0m3.62 3.55h0m-3.66 3.84h0m19.84 8h0m-5.84.18h0m-6 .18h0m-6.37-.53h0m6.73 9h0m-8.15-.35h0m16.3.53h0m8-.35h0m7.09-.71h0m6.73-1.07h0m15.24 5.5h0m5.67-1.78h0m-12.47 3.19h0m-6.55 1.24h0m-7.44.89h0m-7.09.71h0m-15.24.35h0m7.27 0h0m-14.88-.17h0m1.06 9.92h0m16.48 8h0M4.78 81h0m9.22-.18h0m35.79-3h0m-9 1.24h0m-9 .89h0m26.22-3.55h0M9.21 90.92h0m6.2-.35h0m5.67-.36h0M3 90.92h0m23.2-1.24h0m5.68-.68h0m5.67-.71h0m29.06-6h0m6-1.42h0m5.49-1.77h0m5.32-1.59h0M96.67 80h0m9.56.7h0m8.51.18h0m7.62-.35h0m-17 8.5h0m-10.46-.71h0m-11-1.77h0M114.56 89h0m9.57-.71h0m6.87-1.03h0m7.08-.89h0m6.74-.88h0M65.72 75h0m8-2h0m7.09-2.13h0m6.73-2.3h0m-46.98 2.15h0m-8.35.93h0m-9.39.53h0m-9 .35h0m34.05-2.69h0m7.08-1.24h0m6.56-1.42h0m6.2-1.59h0m6.38-2h0m6.38-2.31h0m13.46 4.79h0m11.63 3.25h0m5-2.9h0m4.79-3h0m-4.84 8.21h0M115.8 74h0m5.32 2h0m5.49 1.6h0m5.49 1.94h0m5.67 1.07h0m-37-17.07h0M10.39 36.41h0m5 2.66h0m5.14 2.3h0m5.31 2h0m5.32 1.77h0m5.66 1.78h0m5.5 1.41h0m5.49 1.24h0m5.49 1.42h0m5.32 1.42h0m5.49 1.06h0m5.31 1.24h0m5.67 1.06h0M86.57 58h0m6.14.71h0m6.14.47h0m6.38 0h0m7.56.24h0M80.9 57h0m-14.47-7.71h0m12.22 2.3h0m10.63 1.06h0m11.17.71h0m10.63.36h0m8.51 6.08h0m6.49 0h0m5.31-.18h0M238.58 90.8h0m-3 3.19h0m.89 5.85h0m-.18 7.09h0m1.42 21.26h0m-8.5-.18h0m-8.33-.53h0m-8.5-1.07h0m-8.86-.88h0m-8-1.42h0m37.62 15.35h0m5 11h0m-6-.36h0m-6.2-.35h0m-5.32-.35h0m-6.08-.48h0m-5.67-.88h0m-37.2-8.33h0m5.9 1.89h0m5.91 1.89h0m-17.66-6.26h0m-5.14-2.3h0m-5-2.66h0m-5-2.83h0m9-8.51h0m-5.32 2h0m-5.67 1.95h0m-27.28 7.44h0m-5.32 1.24h0m-5.49 1.42h0m-5.6 1.18h0m-5.5.84h0m-5.14 1.42h0m-5.84 1.06h0m-5.5.89h0m-5.49.89h0m-5.49.88h0m-5.67.89h0m-5.67.71h0m-5.49.88h0m-5.49.71h0m-5.49.53h0m-5.67.89h0m-5.32.71h0m-6.49.82h0m-6 .53h0m-5.84.18h0m-5.67.71h0m-6.2.71H3m7.2 5.73h0m-4.6-2.27h0m-3.36 56.34h0m6 5.14h0m-2.64 7.09h0m-2.3 8.86h0m.35 8.32h0m8.51-.71h0m8.5-.88h0m8.15-1.42h0m8.33-1.77h0m7.44-1.77h0M12 231.12h0m8.51-.89h0m8.15-1.59h0m-15.06-11h0m5.11 2.36h0m5.5 2.12h0m5.31 1.6h0m5.32 1.95h0m5.31 1.77h0m5.49 1.56h0m5.5 1.42h0m5.86 1.23h0m5 1.06h0m5.49 1.07h0m6 1.24h0m5.51 1.06h0m5.49.88h0m5.62 1.04h0m5.67.71h0m22.15 1.41h0m6.37-.17h0m5.5 0h0m5.84-.36h0m5.5-.71h0m5.66-.88h0m5.67-.53h0m5.67-.89h0m5.14-.89h0m5.32-1.06h0m5.84-1.65h0m6.14-1.66h0m6.85-1.31h0m7.09-2h0m6.85-2.13h0m5.91-1.42h0m-19.55 15.65h0m-7.09-3h0M126 234.6h0m22.1-1.6h0m-11.16 1.24h0m29.06-3.53h0m-8.86 1.41h0m17.86-3.19h0m-59.7 5.32h0m-3.25-5.08h0m8.15.53h0m8.5 0h0m8.68-.35h0m8.15-1.07h0m8.69-.88h0m8.32-1.77h0m8.33-2.13h0m7.79-2.13h0m8.51-2.83h0m26.1-4h0m-6.52 3.46h0m6.14 5.2h0m5.13-1.78h0m5.32-2.12h0m5.14-2.48h0m5.14-2.48h0M237 221h0m-15.59 6.55h0m8 2h0m8.86 1.6h0m-.71 8.68h0m-7.08-.41h0m-6.85-.71h0m-7.99-1.71h0m-8.13-2.12h0m-7.32-3.07h0m-5.37-16.3h0m-77.82 7.1h0m8.5.18h0m8.51.18h0m8.33-.89h0m8.68-.88h0m7.79-1.6h0m6.91-1.59h0m6.38-1.77h0m5.67-1.78h0m-69.27 6.91h0m3.54-7.61h0m23.6 1.24h0m-15.41-.36h0m8.15.53h0m14.7-.71h0m6.38-.7h0m5.49-.89h0m5.32-1.24h0m-20.38-5.31h0m-7.26.88h0m-8 .18h0m7.09-8.15h0m5.13 2.3h0m5.32 1.77h0m5.49 1.42h0m5.32 1.42h0m22.32 3h0m5.67.18h0m5.49.53h0m5.85 0h0m5.49 0h0m5.67 0h0m6 0h0m5.67.18h0m5.49 0h0m5.85.17h0m6-.35h0m5 .35h0M97 204.37h0m6.56 7.79h0m-8.15-1.95h0m-9.57-2.65h0m14.35 12.57h0m3.37 8h0m-8.33-1.24h0m9.45 6.85h0m-12.62-15.38h0m-5.31 7.09h0m6.61 7h0m-14.76-8.8h0m5.31-7.09h0m-8.33-2.66h0m-8-2.65h0m12.82 19.43h0m-34.05-17.46h0m21.85 15h0m-12.4-3h0m-11.87-3.54h0M34 218.13h0m-10.1-3.55h0m.65-5.61h0m5.67-.35h0m5.31-.71h0m5.85-.35h0m5.67-.71h0m5.67-.36h0m5.67-.88h0m5.31-.71h0m5.5-.71h0m5.67-.89h0m5.31-.88h0m5.82-1.07h0m5.67-.7h0m5.13-1.24h0m5.85-.89h0m5.49-1.42h0m5.67-.88h0m5.32-1.07h0m5.49-1.06h0m5.38-1.59h0m5.5-1.24h0m5.67-1.24h0m5.31-1.42h0m5.49-1.77h0m5.49-1.42h0m5.32-1.77h0m5.49-1.95h0m5.32-1.95h0m5-2.13h0m5.49-2.12h0M15.35 158.83h0m5.14 2.17h0m5.51 1.91h0m5.67 1.77h0m5.33 1.77h0m5 1.42h0m5.85 1.42h0m5.31 1.41h0m5.5 1.42h0m5.49 1.07h0m5.67.88h0m5.31.89h0m5.49.88h0m5.79.48h0m5.67.47h0m6.38.47h0m7.09 1h0m6.61.7h0m7.09.48h0m-23.33-9.28h0m-11.52-1.24h0m-11.77-1.82h0m-12.75-2.48h0m-11.52-3h0m-10.81-3.54h0m-10.27-3.72h0m79.54 16.47h0m-58.76-19.32h0M117.63 171h0m10.45-.18h0m-69.15-16.47h0m15.95-7h0m8 1.77h0m8.5 2.13h0m8.33 1.59h0m8.33 1.24h0m8.5 1.06h0m8.15.54h0m8.68.53h0m8.15.35h0m32.24-3.72h0m6.38-2.48h0m5.67-2.48h0m-88.94-4.61h0m8.86 2.13h0m8 1.42h0m8.33 1.06h0m8.33.89h0m8.15 0h0m8 .53h0m6.91-.18h0m5.67-.71h0m5.31-.71h0m5.5-.88h0m5.31-1.42h0m-11.69-4.07h0m-5.85 1.41h0m-9-5.84h0m6.37-.36h0m-10.45 6.56h0m7.09 0h0m-10.81-6.91h0m-5.31 6.2h0m-2.13-7.27h0m-7.44 5.32h0m-8.68-2.3h0m-49.79 18.6h0m30.71 5.2h0m9.33.29h0m8.51.53h0m8.15 0h0m8.68-.17h0m9.57-.36h0m9.38-.53h0m8.51-1.06h0m7.79-1.07h0m8.51-1.59h0m8.32-1.6h0m7.8-1.59h0m7.44-1.59h0m7.8-1.78h0m-68.33 18.9h0m11.34-1.06h0m9.92-1.42h0m-35.32 11.81h0m6.74-.23h0m22.32-2.48h0m5.85-.54h0m5.49-1.06h0m5.67-1.06h0m5.37-1.28h0m-6.67-6.62h0m9-1.59h0m8.86-1.77h0m8.5-2.48h0m6.91-2h0m7.21-2.42h0m6.85-2.6h0m18 .29h0m-5 3h0m-5.14 1.94h0m-5.13 2.31h0m-5.5 2h0m-5.31 1.77h0m-5.49 1.59h0m-5.32 1.6h0m-5.67 1.59h0m-5.31 1.24h0m-5.85 1.42h0m-56.63-47.36h0m-10.63 2.65h0m-11.52 2.66h0m-10.81 2.48h0m-12.22 2.13h0m-11 1.77h0m-10.09 1.24h0M3.65 139.7h0m37.09-.06h0m9-.71h0m55.39-15.35h0m-7.2.83h0m-34.79 3.24h0m7.09-.7h0M54.68 128h0m-8.33.35h0m-8.5.18h0m-8.68 0h0m-8.33.18h0m-8.33-.36h0m-8.68-.17h0m58.82-6.74h0m-8.5-.17h0m-8.51 0h0m-8.64-.53h0m-8.32-.53h0m-8.55-.21h0m-8.5-.71h0m-8.15-.89h0m67.32 2.84h0m151.89 17.3h0m-11-1.24h0m-10.81-1.77h0m-11.34-2.48h0m-10.1-2.84h0m-10.27-3.9h0m40.33-13.58h0m18.78-8.15h0m2.72-8.11h0M225.82 99h0m-5.31 2.31h0m-5.32 1.94h0m-5.31 2h0m-10.22-9.62h0m4.72 11.4h0m-5.49 1.41h0m-5.67 1.24h0m-5.31 1.77h0m-5.32 1.24h0m-5.67.89h0m-5.67 1.06h0m-5.31 1.07h0m-5.67 1.06h0m-5.49.71h0m-5.85.88h0m-5.31.71h0m-5.5.36h0m-5.84.71h0m-6.2.35h0m-7.8 0h0m-5.85-.35h0m-5.67-.36h0m-5.49-.71h0m-5.49-.35h0m-5.85-.89h0m-5.49-.88h0M79 116h0m-5.67-.89h0m-5.31-.7h0m-5.14-1.24h0M57 112.06h0m-5.84-1.59h0m2.3 4.78h0m-8.51-.88h0m-8.32-.71h0m-8.51-1.24h0M19.78 111h0m-8.33-1.59h0M3.12 108h0m33.13 1.59h0m-8.5-1.24h0m-8-1.77h0m-8.33-2.66h0m-8.12-2.49h0m20.73.71h0m-5-1.77h0m-5-2.13h0m-4.2-2.36h0M6 93.58h0m185.49 5.67h0m-8.86 3.9h0m-8.86 3h0m-10.27 3h0m-10.28 2.13h0m-43.76 3.18h0m10.45.36h0m10.81-.53h0m10.81-1.24h0m-43.21.95h0m-10.63-1.24h0m-9.39-1.59h0m2.6-8.17h0m-9.57-2.48h0m-2.6 8.48h0m-19.84-5.84h0m9.92 3h0M39.68 99.6h0M31 95.88h0m30.86 2h0M51 93.58h0m48.84 11.93h0m18.24-9.75h0m-29.39-1.59h0m-9.56-1.6h0m-9.22-3h0m20.91 15.23h0m17.36 1.2h0m17-11h0m6.56-.54h0m-15.6 11.7h0M138 93.82h0m18.24 7.61h0m7.45-2h0m6.73-1.94h0m6.73-2.13h0m6.85-2.43h0m-36 10.45h0m14.18-14.17h0m-6.38 1.42h0m-5.8 1.06h0m-6 1.24h0m-4.08 11.87h0m-7.44.71h0m-7.8.38h0m108.23-15.44h0m-5.67 0h0m-5.67-.18h0m-5.67-.35h0m-22.68-1.24h0m-5.49-.53h0m-6-.71h0m-5.5-.53h0m-5.67-.71h0m-5.31-.71h0m-5.49-1.06h0m-5.85-.89h0m-5.49-1.06h0m-5.32-1.07h0m-5.49-22.14h0m5.32-.71h0m5.67-.53h0m5.67-.89h0m5.66-.88h0m5.5-.71h0m5.67-1.07h0m5.67-1.24h0m5.49-1.06h0m5.31-1.24h0m5.32-1.24h0m27.28-8.15h0m5.14-2.3h0m5.14-2.3h0m5.31-2.49h0M158 49.82h0m11-1.77h0m-22.32 3.72h0M134.28 53h0m-11.16.53h0m57.23-8h0m9.74-2.84h0m9.21-2.83h0m8.86-3.37h0M35.07 40.43h0m-8.15-3.37h0m-7.5-3.66h0m14.71-1.77h0m7.26 4.25h0m8 2.84h0m8 2.83h0m8.5 1.6h0M74 44.56h0m8.33 1.07h0m8.68.88h0m9 .71h0m8.51.18h0m7.79-.36h0m8.15-.17h0M133 45.8h0m27.63-6.2h0m6.91-2.3h0m6.73-2.3h0M45.64 26.49h0m7.62 3.9h0m7.62 2.66h0m8 2h0m9.57 1.77h0m9 .88h0m9.75.54h0m10.27-.54h0m9.22-1.06h0m9-1.24h0m7.44-1.24h0m6.91-1.24h0m6.38-1.42h0m-81.64-7.31h0m-7.09-2h0m15.24 3.9h0m17.89-6.2h0m-7.44-1.6h0M74.88 16h0m23.56 5.31h0m7.26.89h0m7.44.53h0M85.51 7.89h0m5.31 2.66h0m4.78 1.77h0m5.14 2.48h0m5.49 2.13h0m5.5 1.77h0m5.27 1.77h0m5.32 1.59h0m5.68 1.42h0m5.32 1.24h0M139 26h0m5.31.89h0m5.5 1.06h0m5.67.89h0m5.66.35h0m5.67.53h0m5.5.71h0m5.49.35h0m5.67.54h0m5.84.17h0m5.67.18h0m5.5-.18h0m5.66.18h0m6 0h0m6.2-.35h0m6 0h0m6.38-.71h0m6.38 0h0M102.69 29h0m7.09 0h0m6.91-.35h0m6.73-.71h0M163 23.42h0m-11.11-1.89h0M98 3.64h0m31.19-.3h0m6.61 2.6h0m7.09 2.84h0m6.37 1.89h0m6.85 1.89h0m82 7.55h0m-6.61-.23h0m-7.56.23h0m-7.56 0h0m-7.56-.47h0m-7.82-.23h0m-7.8-.71h0m-9-1.18h0m26.69 10.15h0m-7.8-.35h0m-9-.53h0m-19.77-2.19h0M106.53 7.36h0m8.5 3.78h0m9 3.07h0m8.8 2.83h0m9.39 2.6h0m42.69 6.44h0M218 27.67h0m6.74-.17h0m6.55-.54h0m6.56-.53h0m-57.82-17h0m-8.68-2h0M163.2 4.6h0m-8.33-3.54h0m33.49 9.92h0m8 1.06h0m8.33.71h0m.17-8.75h0m-8.69-2h0m42.05 5.38h0m0 6.42h0m-8.22.1h0m-7.79-.18h0m-9.21-.35h0M18.6 164.62h0m-15.06-1.77h0m7.44.89h0M39.68 174h0m8.86-.35h0m23.74 5h0m-8.51 1.06h0m-7.79.71h0m-8.86 1.06h0m-10.28.71h0m-11 .36h0m-11.34.35h0m-10.43 9.89h0m-1.95 10.63h0m10.63-.53h0m10.45-.71h0m11.52-1.06h0m9.56-1.24h0m9.22-1.24h0m9.39-1.42h0m8.32-1.42h0m8.15-1.59h0m8-1.42h0m8-1.95h0m7.79-1.77h0m7.09-1.77h0m6-1.59h0m5.85-1.78h0m-110.58 8.51h0m8.5-.53h0m8.68-.54h0m9-.53h0m8.68-1.06h0m9.57-.89h0m31.53-4.6h0m6.2-1.07h0m6.56-1.06h0m-96 1.06h0m3.36-9.56h0m167.3 25.86h0M162.51 197h0m-11.34-3.3h0m36 7.73h0m12.05 1.07h0m10.8.7h0m10.81.36h0m12 0h0m-64.31-15.95h0m11.16 1.78h0m30.82 2.83h0m8.69.53h0m8.85 0h0m8.51 0h0M190 180h0m14.18 1.06h0m14.52 1.42h0m14.89.7h0m3.16-10.18h0m-.89-11.52h0m-24.33-91.29h0m-9.53-.88h0m-10.27-1.42h0m-9.75-1.59h0m-11.16-2.13h0M158 61.33h0m76.19 19.49h0m-11.52-.35h0m-12.22-.71h0m-12.41-1.24h0m-14.35-2h0M145.09 69h0m-12.58-3.72h0M238.28 45h0m-9.39-1.6h0m-10.45 8h0m-8.33-1.4h0m16.3 2.83h0m8.68.89h0m2.66 8.86h0m-7.8-.89h0m-7.61-.69h0m-8.15-.89h0M206.75 59h0m-16.84-3h0m8.86 1.77h0M56.33 5.54h0m6.2-3.9h0m11-.35h0m-4.44 2.83h0m11.34-.35h0m3-2.84h0M68 238.85h0m-8.85 0h0m-13.47.36h0m5.85-3.37h0M39 1.45h0M38.79 8h0m6.73-3h0M53 1.63h0m-7.3 237.58h0m5.85-3.37h0"/><path fill="none" stroke="#d9b776" stroke-miterlimit="11.34" stroke-width="1.42" d="M27.07 16.19A116.84 116.84 0 0 0 43 11.59m53.77 17.89a116.16 116.16 0 0 1-16.49-1.83m31.83 68.8a92.7 92.7 0 0 1-14.71-.71m51.56 82a66.29 66.29 0 0 1-12.4 1.24m-18.46 28.69a92.08 92.08 0 0 1-14.62-1.77m9.13 33.72c-4.36-.11-8 .28-11.84-.55m103.63-91.21a93.21 93.21 0 0 1-14.4-3.05M88.54 160.49A91.67 91.67 0 0 1 74 158.1m-54.19 51.2c-4.34.47-8.49 1.21-12.41.89m195.2-18.59a52.26 52.26 0 0 1-11-.76m33.48-19.13a91.85 91.85 0 0 1-12.58-1.6m-13.11 51a115.86 115.86 0 0 1-15.47 5.38m-113.62-4.9a124.48 124.48 0 0 1-16.12-5.49M170 208.77c-4.25-.35-8-.89-11.87-1.59m32.07-83.63a116.08 116.08 0 0 1-15.77-5.17M60.23 83.75a119 119 0 0 1-16.15 3.81M30.2 139.48a117 117 0 0 1-16.6.16m78.54-15.44a117.67 117.67 0 0 1-16.47 2.1m-43.2 48.1a116.84 116.84 0 0 1-16.6-.27m29.27-64.93a117 117 0 0 1-15.77-5.2m148.16-87.4a117.48 117.48 0 0 1-16.35-2.84M155 41.17a118.22 118.22 0 0 1-16.25 3.42m91.83-37.38a117.75 117.75 0 0 1-16.5-1.77m0 38.11a117.79 117.79 0 0 1-15.91 4.72M172.8 75.19a116.12 116.12 0 0 1-16.25-3.37m77.19 46.25a119.05 119.05 0 0 1-16.25-3.37m20.15-42.34c-5.06-.18-11.44-.53-18.17-1.42m-6.92 18.75a103.61 103.61 0 0 1-15.4-.5M58.41 47.84A116.94 116.94 0 0 1 42.53 43m59.23 28.06a118.83 118.83 0 0 1-15.68 5.43m57.49 50.2a117.57 117.57 0 0 1-16.08 4.1M167.31 154a116.93 116.93 0 0 1-16.47 2m-70.51 29.67a117.3 117.3 0 0 1-16.48 2"/></pattern></defs><path fill="#161515" stroke="#d9b776" stroke-miterlimit="10" stroke-width="11.78" d="M139.59 157.29a92.68 92.68 0 0 0-86.65 60 51 51 0 1 0 22.45 99.52A92.5 92.5 0 0 0 197.93 322a67.78 67.78 0 0 0 99.59-8 45.46 45.46 0 0 0 68.17-15.11 24.85 24.85 0 0 0 35.66-8.45c4.47.14 9 .23 13.76.23 40 0 72.39-5.54 72.39-12.36s-32.42-12.37-72.39-12.37q-7 0-13.62.22a24.8 24.8 0 0 0-35.6-8.8 45.48 45.48 0 0 0-63-19.11 67.73 67.73 0 0 0-80.77-30.35 92.61 92.61 0 0 0-82.49-50.56"/><path fill="url(#b)" d="M139.59 157.29a92.68 92.68 0 0 0-86.65 60 51 51 0 1 0 22.45 99.52A92.5 92.5 0 0 0 197.93 322a67.78 67.78 0 0 0 99.59-8 45.46 45.46 0 0 0 68.17-15.11 24.85 24.85 0 0 0 35.66-8.45c4.47.14 9 .23 13.76.23 40 0 72.39-5.54 72.39-12.36s-32.42-12.37-72.39-12.37q-7 0-13.62.22a24.8 24.8 0 0 0-35.6-8.8 45.48 45.48 0 0 0-63-19.11 67.73 67.73 0 0 0-80.77-30.35 92.61 92.61 0 0 0-82.49-50.56" opacity=".1"/></svg>