<svg viewBox="0 0 500 500"><defs><pattern id="a" width="206.1" height="206.1" data-name="New Pattern Swatch 9" patternTransform="translate(-34 181.8)" patternUnits="userSpaceOnUse"><path fill="none" d="M0 0h206.1v206.1H0z"/><path fill="none" stroke="#d9b776" stroke-linecap="square" stroke-miterlimit="11.34" stroke-width="1.42" d="M1 59.74C10 47.48 20.2 32 23.8 24.36M43.58 1a151.17 151.17 0 0 1-12.45 15.27m51.2 2.84C76.66 31.15 58.94 56 51.15 63.75m52.85 4.4c-5.66 12-29.29 40.57-37.08 48.36M148.21 1c-8.54 14.86-29.82 44.4-36.77 51.35M46 74.28c-7 11.35-27.31 34-35.93 40.93m-3.19 8A101.62 101.62 0 0 1 1 131.55M98.05 1a95 95 0 0 1-6.5 7.32M63.74 128.14c-6.23 10.15-32.85 42.91-44 51.83m98.74-57.87c-4.45 9.45-18.89 22.2-27.57 33-2.37 2.95-4.51 5.42-6.18 7.1M158.1 68c-4.46 9.46-18.9 22.2-27.57 33a91 91 0 0 1-6.19 7.1m51.83-1.28c-4.45 9.46-18.9 22.2-27.57 33a91 91 0 0 1-6.19 7.1m57.85-137c-4.45 9.46-18.89 22.2-27.56 33-2.38 3-4.52 5.41-6.19 7.09M205.1 59c-5.37 7.35-10.34 13.66-13.29 16.6m13.29 55.24-.06.07c-9 11.87-22.69 35.37-29.62 40.91m-99.94-2.32C72 176.83 51.19 195 43.73 205.1m119.21-22.76c-1 2.18-13.8 19.22-15.93 22.69v.07m-16.54-45.89c-4.7 9.56-21.6 33-32.23 45.88m104.51-31.26c-4.63 6.38-17.13 21.4-25.91 31.27M68.69 1c-1.44 1.67-2.9 3.33-4.36 5m-4.58 5-2.33 2.45M64.33 6a409.38 409.38 0 0 1-4.58 5m112.09-4.72-1 1m5.54-6c-1.71 1.91-3.25 3.59-4.57 5M9.54 80.09c-.93 1.29-2 2.67-3.07 4.07m-4.26 5.31L1 90.92m5.47-6.76q-2 2.58-4.26 5.31m58.26.15c-1.49 1.8-3 3.54-4.37 5.2m0 0c-1.63 1.93-3.19 3.74-4.6 5.32m21.84-26.53a675.83 675.83 0 0 1-4.14 5.25m-4.34 5.4c-1.46 1.8-2.94 3.6-4.39 5.36m8.73-10.76-4.34 5.4m14.36-18.41c-.43.6-1 1.29-1.5 2m0 0a418.38 418.38 0 0 1-4.38 5.72M51.5 100.14c-1.25 1.4-2.39 2.64-3.37 3.65m72.32-90.44q-2.08 2.7-4.32 5.43m-4.45 5.29a165.46 165.46 0 0 1-4.61 5.13m9.06-10.42c-1.45 1.78-2.94 3.55-4.45 5.29m-4.61 5.13c-.61.66-1.22 1.32-1.83 1.95m21.29-25.89c-.6.83-1.24 1.69-1.87 2.55m0 0a316.59 316.59 0 0 1-4.21 5.54m84.65 76.94q-1.74 2.07-3.55 4.17m-9.24 10.24-1.9 2m11.14-12.23c-1.5 1.74-3 3.47-4.56 5.17m0 0a355.33 355.33 0 0 1-4.68 5.07m-147.79-70c-1.4 1.81-2.91 3.7-4.49 5.62m0 0c-1.39 1.68-2.83 3.38-4.3 5.09M47.28 31c-.85 1.17-1.79 2.41-2.76 3.67M31.16 50.56C29.57 52.32 28 54 26.48 55.63m9.25-10.24c-1.52 1.74-3 3.48-4.57 5.17m-4.68 5.07-1.9 2m123.76-16.39c-1.32 1.82-2.7 3.7-4.11 5.63M135.9 58a459.16 459.16 0 0 1-4.24 5.5m20.77-27.94 4-5.56m-12.2 16.87c-1.37 1.86-2.76 3.73-4.15 5.6m12.35-16.88c-1.25 1.75-2.63 3.64-4.09 5.65m8.1-11.24 1.24-1.71m-17.6 24.15c-1.4 1.89-2.81 3.75-4.18 5.56m-4.24 5.5c-1.57 2-3 3.82-4.36 5.39m0 0c-1.26 1.5-2.38 2.79-3.32 3.76m19.88 41.85c-.61.64-1.22 1.3-1.81 1.91m6.4-6.87c-1.55 1.72-3.09 3.37-4.59 5m13.63-15.42c-1.41 1.72-2.89 3.45-4.38 5.18m8.71-10.59c-1.35 1.75-2.8 3.56-4.33 5.41m-4.38 5.18c-1.54 1.78-3.1 3.55-4.66 5.27m16.29-19.73c-.89 1.23-1.88 2.54-2.92 3.87m-13.4 83.87a274.38 274.38 0 0 1-3.19 3.36m21.08-24.45c-1.36 1.81-2.85 3.71-4.44 5.66m6.06-7.82c-.5.69-1.07 1.43-1.62 2.16m-13.25 16a351.29 351.29 0 0 1-4.64 5.1m9.18-10.3c-1.49 1.74-3 3.48-4.54 5.2m8.81-10.33q-2.06 2.54-4.27 5.13M19.2 145.44c-.81.86-1.62 1.72-2.41 2.53m11.55-12.7c-1.53 1.78-3.09 3.54-4.65 5.27m0 0c-1.51 1.69-3 3.33-4.49 4.9M32.79 130q-2.16 2.63-4.45 5.3m11.14-13.9c-.72 1-1.48 2-2.3 3.07m0 0c-1.35 1.77-2.84 3.63-4.39 5.52m47.47 60.9c-.83 1.14-1.73 2.34-2.68 3.56m-4.16 5.22C72 201.4 70.5 203.17 69 205m8.62-10.52c-1.29 1.69-2.7 3.44-4.16 5.22m-3.78-52.32c-.89 1-1.72 1.9-2.45 2.65m11.37-13c-1.54 1.85-3 3.63-4.45 5.29M83 131.59a551.58 551.58 0 0 1-4.39 5.35m20.3-25.71c-.79 1.09-1.82 2.47-3 4m-21.74 27c-1.62 1.9-3.12 3.61-4.47 5.11m17.74-21.25c-1.45 1.81-2.93 3.66-4.43 5.5m8.65-10.84a527.9 527.9 0 0 1-4.22 5.34m8.47-10.83c-1.25 1.64-2.69 3.5-4.25 5.49M40 40.3 1 1.27m39 39 33.34 33.34m0 0 88.53 88.53m42.95 43-42.95-43m-4.27 5.13 37.83 37.83M69.2 78.86 35.73 45.39M69.2 78.86l88.4 88.41M1 10.66l34.72 34.73m150 159.71-32.63-32.63M1 20.41l30.16 30.15m33.7 33.7-33.7-33.7m64.69 64.7-31-31m88.2 88.21-57.2-57.21M26.48 55.63l34 34m31.12 31.12L60.47 89.62m87.95 87.95 27.52 27.53m-27.52-27.53L91.6 120.75M26.48 55.63 1 30.15m86.38 95.94L56.1 94.82M1 39.72l55.1 55.1m31.28 31.27 79 79M83 131.59l-31.5-31.45M83 131.59l73.51 73.51m-105-105L1 49.64m77.56 87.3L1 59.39m77.56 77.55 68.15 68.16M74.1 142.23 137 205.1m-62.9-62.87L1 69.13m5.46 15L1 78.7m5.47 5.46 63.17 63.17m57.76 57.77-57.76-57.77m-32.46-22.89-35-35m0 0L1 88.26m36.18 36.18 80.65 80.66M32.79 130l75.12 75.13M32.79 130 1 98.19M98.17 205.1l-69.83-69.83m0 0L1 107.93m22.69 32.61 53.89 53.89m10.67 10.67-10.67-10.67m-53.89-53.89L1 117.85m72.42 81.8L19.2 145.44m0 0L1 127.24m72.42 72.41 5.44 5.45M1 137l68 68m-9.78.15L1 146.91m0 9.56 48.62 48.63m-9.74 0L1 166.22m29.14 38.88L1 176m19.39 29.1L1 185.7m9.65 19.4L1 195.45M195.27 1l9.83 9.83M186.05 1l19 19.05M176.4 1.28 205.1 30M171.84 6.28 166.57 1m38.53 38.53L171.84 6.28m33.26 43.17L156.64 1m-9.74 0 58.2 58.2m0 9.74L137.16 1m-9.75 0 29 29m48.69 48.69L156.44 30m48.66 58.25-52.67-52.66m0 0L124.66 7.81m0 0L117.85 1m-9.75 0 12.35 12.35m27.89 27.89-27.89-27.89m81.1 81.11-53.21-53.22M205.1 98l-3.54-3.54m-85.42-75.68 28.09 28.09M197 99.63l8.11 8.11m-89-89L98.36 1m45.87 45.87L197 99.63m-85.32-75.56L88.61 1m23.07 23.07 28.4 28.4m65 65-12.77-12.77m0 0-52.23-52.23M78.87 1l28.2 28.2M135.9 58l69.2 69.2M135.9 58l-28.83-28.8M69.12 1l62.54 62.53m30.16 30.17-30.16-30.17m30.16 30.17L205.1 137m-77.8-68-63-63m0 0-4.92-5m98.11 98.11 47.61 47.61m-47.61-47.61L127.3 68.92m25.81 35.38L59.75 10.94m0 0L49.81 1m103.3 103.29 52 52m-56.65-46.72 56.65 56.65M39.89 1l108.56 108.56m-4.59 5 61.24 61.24m-61.24-61.24L30.33 1M205.1 185.52 20.58 1m23.94 33.68L10.84 1M205.1 195.26l-38.79-38.78M77.72 67.89l88.6 88.59m-88.6-88.59-33.2-33.21"/></pattern></defs><path fill="#161515" stroke="#d9b776" stroke-miterlimit="10" stroke-width="11.98" d="M252.34 140.06c-78.19 0-104.66 52.33-108.77 75.26a49.35 49.35 0 0 0-6.88-.41c-14.07 0-45.86 4.5-59 43.32a55.75 55.75 0 0 0-8.71-.71c-26.63 0-35 22-31.27 34.22-.44 0-.9-.05-1.34-.05-21.28 0-41.22 40.16.5 46.49 14.37 18.23 92.1 21.76 207.55 21.76s143.09-1.18 156-11.76a59.65 59.65 0 0 0 12.21 1.24c9.48 0 22-2.36 27.77-13.59a39.77 39.77 0 0 0 16.67 3.8c16.61 0 30.36-11.6 30.36-30.26 0-19.07-15.09-30.78-27.38-30.78a15.23 15.23 0 0 0-9.66 3.15s-6.32-21.86-33.1-21.86a56.54 56.54 0 0 0-8.64.7c-10.34-37.74-39.32-40-46.17-40-.93 0-1.46.05-1.46.05s-22.34-80.55-108.75-80.55"/><path fill="url(#a)" d="M252.34 140.06c-78.19 0-104.66 52.33-108.77 75.26a49.35 49.35 0 0 0-6.88-.41c-14.07 0-45.86 4.5-59 43.32a55.75 55.75 0 0 0-8.71-.71c-26.63 0-35 22-31.27 34.22-.44 0-.9-.05-1.34-.05-21.28 0-41.22 40.16.5 46.49 14.37 18.23 92.1 21.76 207.55 21.76s143.09-1.18 156-11.76a59.65 59.65 0 0 0 12.21 1.24c9.48 0 22-2.36 27.77-13.59a39.77 39.77 0 0 0 16.67 3.8c16.61 0 30.36-11.6 30.36-30.26 0-19.07-15.09-30.78-27.38-30.78a15.23 15.23 0 0 0-9.66 3.15s-6.32-21.86-33.1-21.86a56.54 56.54 0 0 0-8.64.7c-10.34-37.74-39.32-40-46.17-40-.93 0-1.46.05-1.46.05s-22.34-80.55-108.75-80.55" opacity=".1"/></svg>