<svg xmlns="http://www.w3.org/2000/svg" width="500" height="500"><defs><pattern id="a" data-name="New Pattern Swatch 10" width="153.43" height="153.43" patternTransform="rotate(38 -97.92 189.273)" patternUnits="userSpaceOnUse"><path style="fill:none" d="M0 0h153.43v153.43H0z"/><path d="M152.86 10.63h.57m-100.49 0h24.94m54.08 0h20.9m-99.92 0H38.62M0 10.63h12.54m119.42 0H87m-74.41 0h26.03m48.33 0h-9.07M0 22.46h153.43m-2 11.87h2m-2 0h-34.77m0 0H75.93M0 34.33h75.93m15.51 83.94H57.07m0 0H35.9m80.61 0H91.44m46.42 0h-21.35m-80.61 0H15.26m-15.26 0h15.26m138.16 0h-15.56m-63 10.73H110m-35.14 0H29.43m122.89 0H110m43.43 0h-1.11M0 129h29.43M90.5 45.73H16.8m73.7 0h42.72m20.21 0h-20.21M0 45.73h16.8M0 55h35.36m44.12 0h37.38M153 55h.45m-.45 0h-36.14m-81.49 0h44.11m74 9.7h-15.54m-80.78 0h80.78M0 64.73h57.16M0 76.22h153.43M0 87h153.43M0 98.89h153.43M0 108h153.43m-10.93 43H132m10.54 0h10.93m-124.25 0h-8.49m32.21 0H29.19m102.76 0h-23.22m-42.77 0h-13m13 0h28.83m0 0h13.94M0 151.05h20.73M12.54 10.63 19.2 0m33.74 10.63V0m40.44 0L87 10.63m45 0V0M31.47 22.43l7.15-11.8m39.26-.18v.18m0 11.8v-11.8m41.71.18-7.34 11.62m40.61 0v-11.8m0 0v-.18M23 22.5l-7.3 11.8m41.81-11.48V34.3m41.35-11.8L91.7 34.3m46.6-11.48V34.3m-21.64 0-7.06 11.34m7.06-11.31.09-.14M75.93 45.61V34.33m-39.43 0-7 11.27m121.91-11.27v11.31M127.7 55l5.52-9.26m-42.72 0V55m0-9.35v.09m-36.11.16-5.7 9.1M16.8 45.64v.09m0 9.26v-9.26m18.56 19V55m38.27 9.7 5.85-9.7m.07-.11-.07.11m37.38 9.67V55M153 55l-6.11 9.64m-125.1.2-7.15 11.34m42.52 0V64.73m34.37 11.45 7.15-11.34m39.26 11.31V64.73M109.24 87l6.45-10.59m-40 0V87M35.43 76.36 29 87m122-10.64V87m-132.4.34-7.19 11.52m41.1-11.73v11.73m34.37 0 7.37-11.69m37.28 0v11.69m-10.7.18-5.46 9M79.51 99v9m-41.77-8.79L32.39 108M1.44 99v9m20.35.07-6.53 10.2m41.81-10.1v10.1m34.37 0 6.35-10.2m40.07.1v10.1m-21.35 0L110 129m6.58-10.81-.07.1m-6.57 10.81.06-.1m-35.14.1v-.1m0-10.56V129m-45.5.1.07-.1m6.47-10.7L29.43 129M36 118.17l-.06.1m116.42 10.81V129m0-10.56V129m-3.92 12.5h-39.71m-37 0h37m-37 0H29.19m119.21 0h5M0 141.48h29.19m0-.07v.07m0 9.57v.18m0-.18v-9.57m42.5 0 .06-.1M66 151.05l5.72-9.57M66 151.05l-.1.18m42.87 0v-.18m0-9.64v.07m0 9.57v-9.57m39.67 0 .06-.1m-6 9.67 5.9-9.57m-5.9 9.57-.11.18M13 129.08v12.33m32.6 0 7.59-12.08m36.34 12.08v-12.33m37 12.33 7.42-12.26m-81 24.28v-2.38m79 2.38v-2.38m-112.72 2.38 1.5-2.38m.18-.28-.18.28m74.06 0-1.43 2.38m1.43-2.38.17-.28" style="stroke-miterlimit:11.34;stroke-width:1.42px;stroke:#d9b776;fill:none"/></pattern></defs><path d="M146.65 134.87a68.07 68.07 0 0 0-68 65.28 47.76 47.76 0 0 0-17.92-3.5 48.67 48.67 0 0 0 0 97.33 47.85 47.85 0 0 0 7-.57A39.5 39.5 0 0 0 122 325.67a57.66 57.66 0 0 0 91.23 22.6 67.66 67.66 0 0 0 97.43-8.42 49.42 49.42 0 0 0 85.19-12.08 66.15 66.15 0 1 0 10-125.15 70.13 70.13 0 0 0-124.94-30.81 41 41 0 0 0-68.55 13.4 68.11 68.11 0 0 0-65.71-50.34" style="fill:#161515;stroke-miterlimit:10;stroke-width:14.81px;stroke:#d9b776"/><path d="M146.65 134.87a68.07 68.07 0 0 0-68 65.28 47.76 47.76 0 0 0-17.92-3.5 48.67 48.67 0 0 0 0 97.33 47.85 47.85 0 0 0 7-.57A39.5 39.5 0 0 0 122 325.67a57.66 57.66 0 0 0 91.23 22.6 67.66 67.66 0 0 0 97.43-8.42 49.42 49.42 0 0 0 85.19-12.08 66.15 66.15 0 1 0 10-125.15 70.13 70.13 0 0 0-124.94-30.81 41 41 0 0 0-68.55 13.4 68.11 68.11 0 0 0-65.71-50.34" style="opacity:.1;fill:url(#a)"/></svg>