<svg viewBox="0 0 500 500"><defs><path id="reuse-0" d="M0 0h153.43v153.43H0z" class="a"/></defs><defs><clipPath id="a"><use class="a" xlink:href="#reuse-0"/></clipPath><pattern id="b" width="153.43" height="153.43" data-name="New Pattern Swatch 8" patternTransform="rotate(-24 464.365 529.941)" patternUnits="userSpaceOnUse"><use class="a" xlink:href="#reuse-0"/><g clip-path="url(#a)"><path fill="none" stroke="#d9b776" stroke-miterlimit="11.34" stroke-width="1.42" d="M153.43 10.63H0m153.43 11.83H0m153.43 11.87H0m153.6 84H0M153.43 129H0m153.43-83.27H0M153.43 55H0m153.43 9.71H0m153.43 11.51H0M153.43 87H0m153.6 11.9H0m153.43 9.1H0m153.43 43H0M16.8 10.63V0m36.14 10.63V0M91.2 10.63V0M132 10.63V0M16.8 153.43V151m36.14 2.41V151m38.26 2.41V151m40.8 2.43V151M35.72 22.43v-12m42.16 12v-12m38.62 12v-12m36.36 12v-12M20 34.3V22.82M57.51 34.3V22.82M96 34.3V22.82m42.3 11.48V22.82m-24.45 22.82V34.3M75.93 45.64V34.3M33.77 45.64V34.3m117.64 11.34V34.3M132 55v-9.36M90.5 55v-9.36M52.94 55v-9.36M16.8 55v-9.36M35.36 64.7V55m42.52 9.7V55m39 9.71V55M153 64.7V55M18.89 76.18V64.7m38.26 11.48V64.7m38.63 11.48V64.7m42.16 11.48V64.7M113.49 87V76.36M75.72 87V76.36M33.2 87V76.36M151 87V76.36M15.66 98.86V87.13m36.85 11.73V87.13m38.62 11.73V87.13m40.4 11.73V87.13M119.62 108v-9m-40.11 9v-9m-42.87 9v-9m-35.2 9v-9m18.07 19.24v-10.1m37.56 10.1v-10.1m38.62 10.1v-10.1m42.17 10.1v-10.1m-23.67 20.9v-10.62m-39.33 10.66v-10.66m-41.25 10.66v-10.66m118.7 10.66v-10.66m1.12 23.07H0m29.18 9.74v-9.82m40.93 9.82v-9.82m38.62 9.82v-9.82m37.92 9.82v-9.82m-133.65 0v-12.33m36.85 12.33v-12.33m39.68 12.33v-12.33m41.28 12.33v-12.33M26 30.93l5.32-4.6m6.2-.18 3.19 5m6.2-.18 6.73-4.25m49.43 4.25 5.32-4.6m6.2-.18 3.18 5m7.62-.18 6.74-4.25m-13.11 16 5.35-4.76m6.2-.18 3.19 5m6.2-.17 6.73-4.26M41.46 42.27l5.31-4.6m6.2-.18 3.19 5m6.2-.18L69.09 38m-11 14.53 5.32-4.61m6.2-.18 3.18 5m6.21-.19 6.73-4.25m-67.84 89.46 5.32-4.6m6.2-.18 3.19 5m6.2-.18 6.73-4.25m-9.39 15.42 5.32-4.61m6.2-.18 3.19 5m6.2-.17 6.73-4.26m49.61 3.72 5.31-4.6m6.2-.18 3.19 5m6.2-.18 6.73-4.25m-39-10.63-5.32 4.61m11.52-4.79 3.19 5m6.2-.18 6.73-4.25m-42.87-7.8 5.31-4.61m6.2-.17 3.19 5m6.2-.18 6.73-4.25m-106.3 3.9 5.32-4.61m8 4.78-3.19-5m9.39 4.79 6.74-4.26M25 116l5.32-4.6m6.2-.18 3.19 5m6.2-.18 6.73-4.25m50 3.72 5.31-4.61m6.2-.17 3.19 5m6.2-.18 6.74-4.25m-5.5-5.49 5.32-4.61m8.4 4.78-3.19-5m7.69 4.79 6.73-4.25m-99.36 0L45 106.05m14.7.18-3.18-5m9.39 4.78 6.73-4.25m-14.18-6.34 5.32-4.6m6.2-.18 3.19 5m6.2-.18 6.73-4.25m-5-7.44 5.32-4.61m9.39 4.79-3.19-5m9.39 4.78 6.73-4.25M1.42 84.08l5.31-4.6m9.39 4.78-3.19-5m16.13.53-6.74 4.25M10.63 73.35l4.25-4.86M3.54 95.07l6.74-4.25m32.24-28.35 5.31-4.61m6.17-.17 3.18 5m6.21-.18 6.73-4.25M62 72.74l5.31-4.6m6.2-.18 3.19 5m6.2-.18 6.74-4.25m31.18-6.38 5.31-4.6m6.2-.18 3.19 5m6.2-.18 6.73-4.25M3.54 52.9l6.74-4.25m32.59-29.76 5.32-4.61m6.2-.18 3.19 5m6.2-.17 6.73-4.26m50.32 4.61 5.31-4.61m6.2-.17 3.19 5m6.2-.18 6.73-4.32M59 7.07l5.31-4.61m6.2-.18 3.19 5m6.2-.17 6.73-4.26m56-.17-5.32 4.6m11.52-4.78 3.19 5M5.14 7.07l6.73-4.26m135.89 28.48-5.32-4.61M.89 31.46l3.19-5m4.07.18 6.74 4.25m47.3-4.25 5.31 4.61m7.44.35 3.19-5m6 .18 6.74 4.25M8.1 42.45l-5.31-4.61m10.1 4.79 3.19-5m6.2.17L29 42.09m52.31-4.25 5.31 4.61m6.2.18 3.19-5m6.2.17 6.79 4.29M97.09 48.3l5.31 4.6m6.2.18 3.19-5m6.2.18 6.73 4.25m-35.43 9.96L84 57.86m11.51 4.79 3.19-5m6.2.17 6.73 4.25m-90.72-13.6 5.31 4.61m6.2.18 3.19-5m6.2.17 6.73 4.25m-44 5 5.31 4.6m4.36.18 3.19-5m12.9 4.48-6.74-4.25m.18 11.16 5.32 4.6m6.2.18 3.18-5m12.94 4.47-6.73-4.25M40 79.3l5.31 4.61m6.21.17 3.18-5m12.94 4.43-6.7-4.21m-41.1 11.34 5.32 4.6m6.2.18 3.19-5m12.93 4.43-6.73-4.25M6.59 101.27l5.32 4.6m5.82.18 3.19-5m4.59.18 6.73 4.25M97.44 91l5.32 4.61m6.2.18 3.19-5m6.2.17 6.73 4.25m-2-11-5.32-4.61m11.52 4.79 3.19-5m6.2.17 6.73 4.26M109 73.45l-5.32-4.6m11.52 4.78 3.19-5m12.93 4.43-6.73-4.25m-38.62 32.6 5.31 4.6m6.2.18 3.19-5m6.2.18 6.73 4.25M62 111.37l5.31 4.6m6.2.18 3.19-5m12.94 4.43-6.74-4.25M-.71 115.8l3.19-5m6.2.18 6.73 4.25m24.1 6.38 5.31 4.61m6.2.18 3.19-5m6.2.18 6.74 4.25m52.44-4.25 5.31 4.61m6.2.18 3.19-5m6.2.18 6.73 4.25m-91.94 7.44 5.31 4.61m6.2.18 3.19-5m6.2.17 6.73 4.26m-7.44 6.91 5.32 4.6m6.2.18 3.19-5m6.2.18 6.73 4.25M-1.7 144.32l5.31 4.61m6.2.17 3.19-5m5.5.18 6.73 4.25M.89 133.16l6.73 4.25M102.76 7.77l-5.32-4.6M109 8l3.19-5m6.2.18 6.73 4.25m-104-5 5.28 4.64m6.2.17 3.19-5m6.2.18 6.73 4.25m-44.5 8.1 5.31 4.61m4.64.17 3.19-5m12.94 4.51-6.74-4.25m64.49 4.43-5.31-4.61m11.51 4.79 3.19-5m12.93 4.43-6.73-4.26m40.93 58.51 5.31-4.61M2 68.32l3.19 5m130.87 21.75 5.32-4.61m6.2-.18 3.19 5M136.06 52.9l5.32-4.6m6.2-.18 3.19 5M141.2 111l5.32 4.61m9.39-4.79-3.19 5m-1 28.52 5.32 4.61m-23.63-15.77 5.31 4.6m6.2.18 3.19-5"/></g></pattern></defs><path fill="#161515" stroke="#d9b776" stroke-miterlimit="10" stroke-width="12.64" d="M178.63 126.85c-53.32 0-105.25 42.19-115.91 92.73-83.43 30.24-48.22 90.41 0 104.31 0 0 3.53 37.09 67 37.09 1.58 0 3.19 0 4.85-.07 19.14 9.17 36.76 12.24 51.78 12.24 30.46 0 50.22-12.62 50.22-12.62s9.55.39 24.27.39c38.1 0 110.86-2.65 142.63-21.72 10 2.74 18.31 3.9 25.17 3.9 35.92 0 32.32-31.73 32.32-31.73s28.54-7.54 26.42-32.91c-1.59-19.17-19.5-30-36.38-30-7.62 0-15 2.19-20.63 6.8-23.2-26.17-62.25-36.23-93.59-36.23a123.33 123.33 0 0 0-22.31 1.97c-4.64-6.49-15.77-7.42-15.77-7.42-13.07-40.75-57.41-86.7-120.07-86.7"/><path fill="url(#b)" d="M178.63 126.85c-53.32 0-105.25 42.19-115.91 92.73-83.43 30.24-48.22 90.41 0 104.31 0 0 3.53 37.09 67 37.09 1.58 0 3.19 0 4.85-.07 19.14 9.17 36.76 12.24 51.78 12.24 30.46 0 50.22-12.62 50.22-12.62s9.55.39 24.27.39c38.1 0 110.86-2.65 142.63-21.72 10 2.74 18.31 3.9 25.17 3.9 35.92 0 32.32-31.73 32.32-31.73s28.54-7.54 26.42-32.91c-1.59-19.17-19.5-30-36.38-30-7.62 0-15 2.19-20.63 6.8-23.2-26.17-62.25-36.23-93.59-36.23a123.33 123.33 0 0 0-22.31 1.97c-4.64-6.49-15.77-7.42-15.77-7.42-13.07-40.75-57.41-86.7-120.07-86.7" opacity=".1"/></svg>