<svg id="hey" xmlns="http://www.w3.org/2000/svg" width="405.54" height="423.53" viewBox="0 0 405.54 423.53">
  <defs>
    <style>
      .cls-1 {
        fill: #161515;
        stroke: #d9b776;
        stroke-miterlimit: 7.57;
        stroke-width: 4.37px;
      }

      .cls-2 {
        fill: #d9b776;
      }
    </style>
  </defs>
  <g>
    <path class="cls-1" d="M173.56,404.33c-4.45-6.59,65-40.68,59.47-81.36-2.95-21.72-26.89-42.3-49.77-47.11-24.79-5.22-39.08,10-71.87,3.34a130.35,130.35,0,0,1-29.72-10.34,124.62,124.62,0,0,1-33.48-25.41c-8.49-9-15.68-19-19.47-32.54C22.79,189.82,21,168,22.57,145.65,24.33,120.9,31.1,99.19,46.14,83,52,76.7,58.25,71,66.58,76.23c.65.41,2.54-.6,2.87-1.54A50.23,50.23,0,0,1,89.12,49.17C100.74,41.16,113,35,125.8,31.34c10.92-3.09,22-4.93,33-8.13a130.68,130.68,0,0,1,49-4.37c20,1.85,39.84,6.63,59.62,11.18A171.6,171.6,0,0,1,316,49.65c14.07,8.28,28,17,39.72,30.25,16.73,18.93,27.75,41.86,26.29,72.33-.19,4.12-.12,4.76,0,9.49.35,13.6,2,17.5,1.35,27.84a57,57,0,0,1-1.59,11.12,52.59,52.59,0,0,1-5.29,12.71c-6.22,11.31-9.33,17-14.29,23.82-8.27,11.41-19.6,27-36.46,37.11a145.19,145.19,0,0,1-22.18,10.23c-9.89,3.64-10.75,2.15-14.73,4.6-9.26,5.71-9.6,15.31-16.63,30.12a124.06,124.06,0,0,1-11.65,25.41C232.08,391.79,177.35,409.93,173.56,404.33Z"/>
    <g>
      <path class="cls-2" d="M161,108.76q4.76,4.68,4.76,13.72v24.4h-7.68V123.36q0-6.15-3-9.28T146.65,111q-6.24,0-9.84,3.64T133.21,125v21.84h-7.68V87.52h7.68v23a15.89,15.89,0,0,1,6.28-4.72,21.64,21.64,0,0,1,8.68-1.68Q156.26,104.08,161,108.76Z"/>
      <path class="cls-2" d="M218.41,128.24H184a13.29,13.29,0,0,0,4.92,9,16,16,0,0,0,10.44,3.4,15.7,15.7,0,0,0,12.24-5.12l4.24,5a18.56,18.56,0,0,1-7.16,5.12,24.78,24.78,0,0,1-9.56,1.76,25,25,0,0,1-11.92-2.76,19.62,19.62,0,0,1-8-7.72,22.15,22.15,0,0,1-2.84-11.2,22.5,22.5,0,0,1,2.76-11.12,19.79,19.79,0,0,1,7.6-7.72,21.67,21.67,0,0,1,10.92-2.76,21.21,21.21,0,0,1,10.84,2.76,19.47,19.47,0,0,1,7.44,7.72,23.51,23.51,0,0,1,2.68,11.36A21.09,21.09,0,0,1,218.41,128.24Zm-30-14.32a13.58,13.58,0,0,0-4.36,8.8h27.2a13.67,13.67,0,0,0-4.36-8.76,14.32,14.32,0,0,0-18.48,0Z"/>
      <path class="cls-2" d="M265.93,104.48l-20.56,46.64q-2.72,6.48-6.36,9.12a14.53,14.53,0,0,1-8.76,2.64,18.44,18.44,0,0,1-6-1,12.3,12.3,0,0,1-4.84-2.92l3.28-5.76a10.7,10.7,0,0,0,7.6,3.12,7.3,7.3,0,0,0,4.68-1.48,12.57,12.57,0,0,0,3.4-5.08l1.36-3L221,104.48h8l14.8,33.92,14.64-33.92Z"/>
      <path class="cls-2" d="M272.89,145.88a5.12,5.12,0,0,1,0-7.28,5.21,5.21,0,0,1,3.76-1.48,4.94,4.94,0,0,1,3.68,1.48,5,5,0,0,1,1.44,3.64,5.05,5.05,0,0,1-5.12,5.12A5.17,5.17,0,0,1,272.89,145.88Zm-.8-55h9l-1.52,38.32h-6.08Z"/>
      <path class="cls-2" d="M67,202.42a10.89,10.89,0,0,1-3.76-1.78l1.6-3a11.52,11.52,0,0,0,3.4,1.6,14,14,0,0,0,4,.6q5,0,5-2.88a1.85,1.85,0,0,0-.68-1.52,4.42,4.42,0,0,0-1.7-.82c-.68-.17-1.64-.36-2.9-.58a27.36,27.36,0,0,1-4.18-.92,6.39,6.39,0,0,1-2.78-1.76A4.89,4.89,0,0,1,64,187.84a5.44,5.44,0,0,1,2.4-4.62,10.76,10.76,0,0,1,6.44-1.74A18,18,0,0,1,77,182a11.52,11.52,0,0,1,3.48,1.4l-1.64,3a11,11,0,0,0-6.12-1.68,7.14,7.14,0,0,0-3.72.8,2.43,2.43,0,0,0-1.28,2.12,2,2,0,0,0,.72,1.64,4.51,4.51,0,0,0,1.78.88c.71.19,1.7.4,3,.64a33.85,33.85,0,0,1,4.14.94,6.17,6.17,0,0,1,2.7,1.7,4.72,4.72,0,0,1,1.12,3.36,5.29,5.29,0,0,1-2.46,4.58,11.56,11.56,0,0,1-6.7,1.7A17.66,17.66,0,0,1,67,202.42Z"/>
      <path class="cls-2" d="M106,181.68v29h-3.84v-11a8.6,8.6,0,0,1-3.22,2.56,9.75,9.75,0,0,1-4.18.88,11.13,11.13,0,0,1-5.52-1.36,9.74,9.74,0,0,1-3.82-3.82,12.26,12.26,0,0,1,0-11.3,9.89,9.89,0,0,1,3.82-3.8,11.23,11.23,0,0,1,5.52-1.36,10.19,10.19,0,0,1,4.32.9,8.13,8.13,0,0,1,3.24,2.66v-3.36Zm-7.28,17.14a6.45,6.45,0,0,0,2.56-2.64,8,8,0,0,0,.92-3.9,7.79,7.79,0,0,0-.94-3.88,6.79,6.79,0,0,0-2.56-2.62,7.13,7.13,0,0,0-3.62-.94,7.31,7.31,0,0,0-3.66.92,6.72,6.72,0,0,0-2.56,2.62,8.56,8.56,0,0,0,0,7.8,6.71,6.71,0,0,0,2.56,2.64,7.56,7.56,0,0,0,7.3,0Z"/>
      <path class="cls-2" d="M133,181.68v21.2h-3.64v-3.2a7.62,7.62,0,0,1-3.06,2.54,9.5,9.5,0,0,1-4.14.9,9.27,9.27,0,0,1-6.68-2.34c-1.62-1.56-2.44-3.86-2.44-6.9v-12.2h3.84v11.76a6.6,6.6,0,0,0,1.48,4.66,5.51,5.51,0,0,0,4.24,1.58,6.31,6.31,0,0,0,4.8-1.84,7.18,7.18,0,0,0,1.76-5.2v-11Z"/>
      <path class="cls-2" d="M140.41,176.88a2.36,2.36,0,0,1-.74-1.76,2.46,2.46,0,0,1,.74-1.78,2.56,2.56,0,0,1,1.86-.74,2.62,2.62,0,0,1,1.86.7,2.32,2.32,0,0,1,.74,1.74,2.53,2.53,0,0,1-2.6,2.56A2.58,2.58,0,0,1,140.41,176.88Zm-.06,4.8h3.84v21.2h-3.84Z"/>
      <path class="cls-2" d="M158.15,182.44a10.74,10.74,0,0,1,4.76-1v3.72c-.21,0-.5,0-.88,0a6.47,6.47,0,0,0-4.9,1.86,7.4,7.4,0,0,0-1.78,5.3v10.56h-3.84v-21.2h3.68v3.56A6.59,6.59,0,0,1,158.15,182.44Z"/>
      <path class="cls-2" d="M174.27,182.44a10.74,10.74,0,0,1,4.76-1v3.72c-.21,0-.5,0-.88,0a6.47,6.47,0,0,0-4.9,1.86,7.4,7.4,0,0,0-1.78,5.3v10.56h-3.84v-21.2h3.68v3.56A6.59,6.59,0,0,1,174.27,182.44Z"/>
      <path class="cls-2" d="M202.63,193.56h-17.2a6.64,6.64,0,0,0,2.46,4.5,8,8,0,0,0,5.22,1.7,7.83,7.83,0,0,0,6.12-2.56l2.12,2.48a9.19,9.19,0,0,1-3.58,2.56,12.37,12.37,0,0,1-4.78.88,12.54,12.54,0,0,1-6-1.38,9.84,9.84,0,0,1-4-3.86,11.13,11.13,0,0,1-1.42-5.6,11.27,11.27,0,0,1,1.38-5.56,9.93,9.93,0,0,1,3.8-3.86,10.81,10.81,0,0,1,5.46-1.38,10.58,10.58,0,0,1,5.42,1.38,9.67,9.67,0,0,1,3.72,3.86,11.71,11.71,0,0,1,1.34,5.68A9.37,9.37,0,0,1,202.63,193.56Zm-15-7.16a6.81,6.81,0,0,0-2.18,4.4H199a6.83,6.83,0,0,0-2.18-4.38,7.16,7.16,0,0,0-9.24,0Z"/>
      <path class="cls-2" d="M208,173.2h3.84v29.68H208Z"/>
      <path class="cls-2" d="M220.27,202.42a10.89,10.89,0,0,1-3.76-1.78l1.6-3a11.4,11.4,0,0,0,3.4,1.6,14,14,0,0,0,4,.6q5,0,5-2.88a1.85,1.85,0,0,0-.68-1.52,4.42,4.42,0,0,0-1.7-.82c-.68-.17-1.65-.36-2.9-.58a27.09,27.09,0,0,1-4.18-.92,6.33,6.33,0,0,1-2.78-1.76,4.89,4.89,0,0,1-1.16-3.48,5.44,5.44,0,0,1,2.4-4.62,10.76,10.76,0,0,1,6.44-1.74,18,18,0,0,1,4.24.52,11.73,11.73,0,0,1,3.48,1.4l-1.64,3a11,11,0,0,0-6.12-1.68,7.11,7.11,0,0,0-3.72.8,2.43,2.43,0,0,0-1.28,2.12,2,2,0,0,0,.72,1.64,4.44,4.44,0,0,0,1.78.88c.71.19,1.7.4,3,.64a33.85,33.85,0,0,1,4.14.94,6.28,6.28,0,0,1,2.7,1.7,4.72,4.72,0,0,1,1.12,3.36,5.29,5.29,0,0,1-2.46,4.58,11.56,11.56,0,0,1-6.7,1.7A17.66,17.66,0,0,1,220.27,202.42Z"/>
      <path class="cls-2" d="M253.39,201.72a10.15,10.15,0,0,1-3.94-3.86,11.67,11.67,0,0,1,0-11.16,10,10,0,0,1,3.94-3.84,12.34,12.34,0,0,1,11.34,0,10,10,0,0,1,3.92,3.84,11.67,11.67,0,0,1,0,11.16,10.17,10.17,0,0,1-3.92,3.86,12.18,12.18,0,0,1-11.34,0Zm9.34-2.9a6.53,6.53,0,0,0,2.54-2.64,8.73,8.73,0,0,0,0-7.8,6.54,6.54,0,0,0-2.54-2.62,7.74,7.74,0,0,0-7.32,0,6.72,6.72,0,0,0-2.56,2.62,8.56,8.56,0,0,0,0,7.8,6.71,6.71,0,0,0,2.56,2.64,7.6,7.6,0,0,0,7.32,0Z"/>
      <path class="cls-2" d="M293.13,183.82q2.39,2.34,2.38,6.86v12.2h-3.84V191.12a6.5,6.5,0,0,0-1.48-4.64,5.57,5.57,0,0,0-4.24-1.56,6.62,6.62,0,0,0-4.92,1.82,7.13,7.13,0,0,0-1.8,5.22v10.92h-3.84v-21.2h3.68v3.2a7.49,7.49,0,0,1,3.14-2.52,11.08,11.08,0,0,1,4.5-.88A8.77,8.77,0,0,1,293.13,183.82Z"/>
      <path class="cls-2" d="M302.63,173.2h3.84v29.68h-3.84Z"/>
      <path class="cls-2" d="M332.55,181.68,322.27,205a10.57,10.57,0,0,1-3.18,4.56,7.24,7.24,0,0,1-4.38,1.32,9.07,9.07,0,0,1-3-.5,6.18,6.18,0,0,1-2.42-1.46l1.64-2.88a5.34,5.34,0,0,0,3.8,1.56,3.64,3.64,0,0,0,2.34-.74,6.29,6.29,0,0,0,1.7-2.54l.68-1.48-9.36-21.16h4l7.4,17,7.32-17Z"/>
      <path class="cls-2" d="M336,202.38a2.56,2.56,0,0,1,0-3.64,2.6,2.6,0,0,1,1.88-.74,2.46,2.46,0,0,1,1.84.74,2.52,2.52,0,0,1,.72,1.82,2.48,2.48,0,0,1-.74,1.82,2.44,2.44,0,0,1-1.82.74A2.56,2.56,0,0,1,336,202.38Zm-.4-27.5h4.52L339.39,194h-3Z"/>
    </g>
  </g>
</svg>
