<svg viewBox="0 0 600 600"><defs><pattern id="a" width="153.43" height="153.43" data-name="New Pattern" patternTransform="matrix(2.5 0 0 2.5 368.06 -493.62)" patternUnits="userSpaceOnUse"><path fill="none" d="M0 0h153.43v153.43H0z"/><path d="M173.62 9.39c-9-1.18-13.94 1.89-17.48 2.6m42.52-.71c-7.75 3.15-14.17 1.18-19.37-.71m24.33-1.18c10.16-1.89 17 2.6 21.26 3.07m5.91 0c4.25 0 7.32-2.12 10.86-3.07a20.59 20.59 0 0 1 12.52.24m25.52-.24c-6.15 3.07-17.49 2.83-20.79 2.13m46.3.7c-1.2-.22-6.38 1.18-10.2-1.41-5.13-1.42-4.42-1.66-10.09-1.42m-123.1 13.7a26.53 26.53 0 0 1-8.38 2.21m33.89.63c-1.18-.24-6.38 1.18-10.22-1.42-5.13-1.42-4.42-1.65-10.09-1.42m94.72 16.77c3.54-.71 8.51-3.78 17.48-2.6m25 1.89c-7.75 3.16-14.17 1.18-19.37-.71M196.53 124c3.55-.71 8.51-3.78 17.49-2.6m25 1.89c-7.75 3.15-14.17 1.18-19.36-.71m24.34-1.22c10.16-1.89 17 2.6 21.26 3.07m5.91 0c4.25 0 7.32-2.13 10.87-3.07a20.65 20.65 0 0 1 12.52.23m-126.56-.7c-3.88 1.94-9.83 2.56-14.52 2.57m40 .26c-1.18-.23-6.37 1.18-10.22-1.42-5.13-1.41-4.42-1.65-10.09-1.41m-16.77 29.76a23.68 23.68 0 0 1-2.95 1m7.91-2.87c10.16-1.89 17 2.6 21.26 3.07m5.9 0c4.26 0 7.33-2.13 10.87-3.07a20.59 20.59 0 0 1 12.52.24m25.51-.24c-6.14 3.07-17.48 2.84-20.78 2.13m46.29.71c-1.18-.24-6.37 1.17-10.22-1.42-5.13-1.42-4.42-1.66-10.09-1.42m24.8 2.13c3.54-.71 8.5-3.78 17.48-2.6M153.43 53.09a28.89 28.89 0 0 1 13.93-1.53m25 1.88c-7.75 3.16-14.17 1.19-19.37-.7m24.33-1.18c10.16-1.89 17 2.59 21.26 3.07m5.91 0c4.25 0 7.32-2.13 10.86-3.07a20.65 20.65 0 0 1 12.52.23m25.51-.23c-6.14 3.07-17.47 2.83-20.78 2.12m46.3.71c-1.18-.24-6.38 1.18-10.23-1.42-5.13-1.41-4.42-1.65-10.09-1.41M156.26 95.61c3.54-.71 8.5-3.78 17.48-2.6m25 1.89c-7.76 3.15-14.17 1.18-19.37-.71M203.74 93c10.16-1.89 17 2.6 21.26 3.07m5.9 0c4.26 0 7.33-2.12 10.87-3.07a20.74 20.74 0 0 1 12.52.24M279.8 93c-6.14 3.07-17.48 2.84-20.78 2.13m46.29.71c-1.18-.24-6.37 1.18-10.22-1.42C290 93 290.67 92.78 285 93m-128.39 44.78c3.55-.71 8.51-3.78 17.49-2.6m25 1.89c-7.75 3.15-14.17 1.18-19.37-.71m24.33-1.18c10.16-1.89 17 2.6 21.26 3.07m5.91 0c4.25 0 7.32-2.13 10.87-3.07a20.62 20.62 0 0 1 12.51.23m25.52-.23c-6.14 3.07-17.48 2.83-20.79 2.12m46.3.71c-1.18-.23-6.38 1.18-10.23-1.42-5.12-1.41-4.42-1.65-10.08-1.41M189.92 25.81c3.54-.71 8.51-3.78 17.48-2.6m25 1.89c-7.75 3.15-14.17 1.18-19.37-.71m24.33-1.18c10.16-1.89 17 2.6 21.26 3.07m5.91 0c4.25 0 7.32-2.13 10.86-3.07a20.59 20.59 0 0 1 12.52.24M154.49 37.14c10.15-1.88 17 2.6 21.26 3.08m5.9 0c4.25 0 7.33-2.13 10.87-3.08a20.74 20.74 0 0 1 12.52.24m25.51-.23c-6.14 3.07-17.48 2.83-20.79 2.12m46.3.71c-1.18-.24-6.38 1.18-10.22-1.42-5.13-1.41-4.42-1.65-10.09-1.41m-80.08 30.47c3.54-.71 8.5-3.78 17.48-2.6m25 1.89c-7.76 3.15-14.17 1.18-19.37-.71m24.37-1.2c10.16-1.89 17 2.6 21.26 3.07m5.9 0c4.26 0 7.33-2.12 10.87-3.07a20.59 20.59 0 0 1 12.52.24m25.51-.24c-6.14 3.07-17.48 2.83-20.78 2.13m46.29.7c-1.18-.23-6.37 1.19-10.22-1.41-5.13-1.42-4.42-1.66-10.09-1.42m-89.76 16.44c3.54-.71 8.5-3.78 17.48-2.6m25 1.89c-7.76 3.15-14.18 1.18-19.38-.71m24.34-1.18c10.15-1.89 17 2.6 21.26 3.07m5.9 0c4.25 0 7.32-2.13 10.87-3.07a20.59 20.59 0 0 1 12.52.24m-94.49 31.06c3.54-.71 8.5-3.78 17.48-2.6m25 1.89c-7.76 3.15-14.17 1.18-19.37-.71m24.33-1.18c10.16-1.89 17 2.6 21.26 3.07m5.9 0c4.26 0 7.33-2.13 10.87-3.07a20.59 20.59 0 0 1 12.52.24M169 107.19c-4.19 2.08-10.77 2.64-15.59 2.56m41.1.27c-1.18-.24-6.38 1.18-10.23-1.42-5.13-1.41-4.42-1.65-10.09-1.41m-9.09-28c-3.13 1.57-7.62 2.27-11.69 2.5m37.2.34c-1.18-.24-6.38 1.18-10.22-1.42-5.14-1.42-4.43-1.65-10.1-1.42M306.85 25.3a46.08 46.08 0 0 1-12.4-.08m12.4 98.24a33.67 33.67 0 0 1-6.26-.45m6.26 28.62c-6.45 1.66-11.89 0-16.42-1.69m16.42-96.85a30.66 30.66 0 0 1-3.54 1.06m3.54 55.6a29.41 29.41 0 0 1-5.2-.44m5.2-27.62a40.89 40.89 0 0 1-9.09-.37" class="b"/><path d="M20.2 9.39c-9-1.18-13.94 1.89-17.48 2.6m42.52-.71c-7.76 3.15-14.18 1.18-19.37-.71M50.2 9.39c10.16-1.89 17 2.6 21.26 3.07m5.9 0c4.26 0 7.33-2.12 10.87-3.07a20.59 20.59 0 0 1 12.52.24m25.51-.24c-6.14 3.07-17.48 2.83-20.79 2.13m46.3.7c-1.18-.23-6.38 1.18-10.22-1.41-5.13-1.42-4.42-1.66-10.09-1.42M8.38 23.09A26.46 26.46 0 0 1 0 25.3m33.9.63c-1.18-.24-6.38 1.18-10.23-1.42-5.13-1.42-4.42-1.65-10.09-1.42m94.73 16.77c3.54-.71 8.5-3.78 17.48-2.6m25 1.89c-7.76 3.16-14.18 1.18-19.37-.71M43.11 124c3.54-.71 8.5-3.78 17.48-2.6m25 1.89c-7.75 3.15-14.17 1.18-19.37-.71m24.33-1.18c10.16-1.89 17 2.6 21.26 3.07m5.91 0c4.25 0 7.32-2.13 10.86-3.07a20.65 20.65 0 0 1 12.52.23m-126.61-.7c-3.88 1.94-9.84 2.56-14.53 2.57m40 .26c-1.18-.23-6.38 1.18-10.23-1.42-5.13-1.41-4.42-1.65-10.09-1.41M3 150.65a23.68 23.68 0 0 1-2.95 1m7.91-2.87c10.16-1.89 17 2.6 21.26 3.07m5.91 0c4.25 0 7.32-2.13 10.86-3.07a20.59 20.59 0 0 1 12.52.24m25.49-.26c-6.15 3.07-17.48 2.84-20.79 2.13m46.3.71c-1.18-.24-6.38 1.17-10.23-1.42-5.13-1.42-4.42-1.66-10.09-1.42m24.81 2.13c3.54-.71 8.5-3.78 17.48-2.6M0 53.09a28.93 28.93 0 0 1 13.94-1.53m25 1.88c-7.76 3.16-14.18 1.19-19.37-.7m24.33-1.18c10.15-1.89 17 2.59 21.26 3.07m5.9 0c4.25 0 7.33-2.13 10.87-3.07a20.65 20.65 0 0 1 12.52.23m25.55-.23c-6.14 3.07-17.48 2.83-20.79 2.12m46.3.71c-1.18-.24-6.38 1.18-10.22-1.42-5.13-1.41-4.42-1.65-10.09-1.41M2.83 95.61c3.55-.71 8.51-3.78 17.49-2.6m25 1.89c-7.72 3.15-14.14 1.18-19.32-.71M50.31 93c10.16-1.89 17 2.6 21.26 3.07m5.91 0c4.25 0 7.32-2.12 10.87-3.07a20.74 20.74 0 0 1 12.52.24m25.51-.24c-6.14 3.07-17.48 2.84-20.79 2.13m46.3.71c-1.18-.24-6.38 1.18-10.23-1.42-5.12-1.42-4.41-1.65-10.08-1.42M3.19 137.78c3.54-.71 8.5-3.78 17.48-2.6m25 1.89c-7.76 3.15-14.17 1.18-19.37-.71m24.33-1.18c10.16-1.89 17 2.6 21.26 3.07m5.9 0c4.26 0 7.33-2.13 10.87-3.07a20.65 20.65 0 0 1 12.52.23m25.51-.23c-6.14 3.07-17.48 2.83-20.79 2.12m46.3.71c-1.18-.23-6.37 1.18-10.22-1.42-5.13-1.41-4.42-1.65-10.09-1.41M36.5 25.81C40 25.1 45 22 54 23.21m25 1.89c-7.76 3.15-14.18 1.18-19.37-.71M84 23.21c10.15-1.89 17 2.6 21.26 3.07m5.9 0c4.25 0 7.33-2.13 10.87-3.07a20.59 20.59 0 0 1 12.52.24M1.06 37.14c10.16-1.88 17 2.6 21.26 3.08m5.91 0c4.25 0 7.32-2.13 10.87-3.08a20.71 20.71 0 0 1 12.51.24m25.52-.23C71 40.22 59.65 40 56.34 39.27m46.3.71c-1.18-.24-6.38 1.18-10.23-1.42-5.13-1.41-4.42-1.65-10.09-1.41M2.25 67.62c3.54-.71 8.5-3.78 17.47-2.6m25 1.89c-7.72 3.15-14.13 1.18-19.33-.71M49.73 65c10.15-1.89 17 2.6 21.26 3.07m5.9 0c4.25 0 7.32-2.12 10.86-3.07a20.62 20.62 0 0 1 12.53.24m25.51-.24c-6.15 3.07-17.48 2.83-20.79 2.13m46.3.7c-1.18-.23-6.38 1.19-10.23-1.41C135.94 65 136.65 64.78 131 65M41.22 81.44c3.54-.71 8.51-3.78 17.48-2.6m25 1.89C76 83.88 69.57 81.91 64.37 80m24.33-1.16c10.16-1.89 17 2.6 21.26 3.07m5.91 0c4.25 0 7.32-2.13 10.86-3.07a20.59 20.59 0 0 1 12.52.24m-94.49 31.06c3.55-.71 8.51-3.78 17.48-2.6m25 1.89c-7.75 3.15-14.17 1.18-19.37-.71m24.34-1.18c10.15-1.89 17 2.6 21.25 3.07m5.91 0c4.25 0 7.32-2.13 10.86-3.07a20.62 20.62 0 0 1 12.53.24m-127.21-.59c-4.18 2.08-10.77 2.64-15.59 2.56m41.1.27c-1.18-.24-6.38 1.18-10.22-1.42-5.13-1.41-4.42-1.65-10.09-1.41m-9.1-28C8.56 80.76 4.08 81.46 0 81.69m37.2.31c-1.2-.21-6.37 1.21-10.2-1.39-5.13-1.42-4.42-1.65-10.09-1.42M153.43 25.3a46.16 46.16 0 0 1-12.43-.08m12.41 98.24a33.67 33.67 0 0 1-6.26-.45m6.26 28.62c-6.45 1.66-11.9 0-16.42-1.69m16.42-96.85a30.19 30.19 0 0 1-3.55 1.06m3.55 55.6a29.21 29.21 0 0 1-5.2-.44m5.2-27.62a41 41 0 0 1-9.1-.37" class="b"/><path d="M1.3 5.31h0m5.7-.9h0m5.15-1.75h0m5.46-.36h0m5.53.36h0m5.46 1.25h0m5.23 1h0m5.75.35h0m5.83-.9h0m5.16-1.75h0M56 2.3h0m5.52.36h0M67 3.91h0M72 5h0m5.68.19h0m5.83-.9h0m5.11-1.79h0m5.47-.36h0m5.52.36h0m5.49 1.25h0m5.4 1h0m5.6.35h0m5.83-.9h0m5.16-1.75h0m5.46-.36h0m5.52.36h0m5.49 1.25h0m4.92 1h0M2.34 18.27h0m5.15-1.75h0m5.51-.36h0m5.53.36h0M24 17.78h0m5.23 1h0m5.75.36h0m5.83-.91h0m5.16-1.75h0m5.45-.36h0m5.53.36h0m5.49 1.26h0m4.91 1h0M73 19h0m5.83-.91h0M84 16.36h0m5.45-.36h0m5.53.36h0m5.49 1.26h0m5.39 1h0m5.61.36h0m5.83-.91h0m5.15-1.75h0m5.46-.36h0m5.53.36h0m5.49 1.26h0m4.91 1h0m5.64.2h0M1.35 30.69h0m5.46-.35h0m5.52.35h0M17.82 32h0m5.24 1h0m5.75.35h0m5.83-.9h0m5.15-1.76h0m5.46-.35h0m5.53.35h0M56.27 32h0m4.91 1h0m5.69.19h0m5.83-.9h0m5.15-1.76h0m5.46-.35h0m5.52.35h0m5.5 1.26h0m5.39 1.05h0m5.61.35h0m5.83-.9h0m5.15-1.76h0m5.46-.35h0m5.53.35h0m5.49 1.26h0m4.91 1.05h0m5.64.19h0m5.83-.9h0M1.82 44.39h0M7.28 44h0m5.53.35h0m5.49 1.26h0m5.23 1.05h0m5.75.35h0m5.83-.9h0m5.16-1.76h0m5.46-.35h0m5.52.35h0m5.49 1.26h0m4.91 1.05h0m5.69.19h0m5.83-.9h0m5.15-1.76h0m5.46-.35h0m5.53.35h0m5.49 1.26h0m5.39 1h0m5.61.36h0m5.83-.9h0m5.16-1.76h0m5.45-.35h0m5.53.35h0m5.49 1.26h0m4.91 1h0m5.64.2h0m5.83-.9h0M3.28 60.79h0M8.43 59h0m5.46-.36h0m5.53.36h0m5.49 1.26h0m5.24 1h0m5.75.36h0m5.83-.91h0M46.88 59h0m5.46-.36h0m5.52.36h0m5.5 1.26h0m4.91 1h0m5.68.2h0m5.83-.91h0m5.16-1.75h0m5.46-.36h0m5.52.36h0m5.49 1.26h0m5.4 1h0m5.6.36h0m5.83-.91h0m5.16-1.75h0m5.46-.36h0m5.52.36h0m5.49 1.26h0m4.92 1h0m5.63.2h0M2.81 74h0M8 72.27h0m5.46-.36h0m5.53.36h0m5.49 1.25h0m5.23 1h0m5.75.35h0m5.83-.9h0m5.16-1.75h0m5.46-.36h0m5.52.36h0m5.5 1.25h0m4.91 1h0m5.68.19h0m5.83-.9h0m5.16-1.75h0m5.46-.36h0m5.52.36h0m5.49 1.25h0m5.4 1h0m5.6.35h0m5.83-.9h0m5.16-1.75h0m5.46-.36h0m5.52.36h0m5.49 1.25h0m4.91 1h0m5.64.19h0M1.35 89.1h0m5.24-.9h0m5.15-1.76h0m5.46-.35h0m5.53.35h0m5.49 1.26h0m5.23 1h0m5.75.36h0m5.8-.86h0m5.16-1.76h0m5.46-.35h0m5.52.35h0m5.49 1.26h0m4.91 1h0m5.69.2h0m5.86-.9h0m5.15-1.75h0m5.46-.35h0m5.53.35h0m5.49 1.26h0m5.39 1h0m5.61.36h0m5.83-.91h0m5.16-1.75h0m5.46-.35h0m5.52.35h0m5.49 1.26h0m4.91 1h0M3.75 103.27h0m5.67-.9h0m5.16-1.76h0m5.46-.35h0m5.52.35h0m5.49 1.26h0m5.24 1h0m5.75.35h0m5.83-.9h0m5.13-1.71h0m5.46-.35h0m5.53.35h0m5.49 1.26h0m4.91 1h0m5.69.19h0m5.83-.9h0m5.15-1.76h0m5.46-.35h0m5.52.35h0m5.5 1.26h0m5.39 1.05h0m5.61.35h0m5.83-.9h0m5.15-1.76h0m5.46-.35h0m5.53.35h0m5.49 1.26h0m4.91 1.05h0M3.28 117h0m5.67-.9H9m5.15-1.76h0m5.46-.35h0m5.53.35h0m5.49 1.26h0m5.23 1.05h0m5.75.35h0m5.83-.9h0m5.16-1.76h0M58 114h0m5.52.35h0m5.5 1.26h0m4.91 1.05h0m5.68.19h0m5.83-.9h0m5.16-1.76h0m5.46-.35h0m5.52.35h0m5.49 1.26h0m5.4 1h0m5.6.35h0m5.83-.9h0m5.16-1.76h0m5.46-.35h0m5.52.35h0m5.49 1.26h0m4.91 1h0M5.31 130.36h0m5.16-1.75h0m5.46-.36h0m5.52.36h0m5.5 1.25h0m5.23 1h0m5.75.35h0m5.83-.9h0m5.15-1.75h0m5.46-.36h0m5.53.36h0m5.49 1.25h0m4.91 1h0m5.69.19h0m5.83-.9h0m5.18-1.66h0m5.46-.35h0m5.53.35h0m5.49 1.26h0m5.39 1.05h0m5.61.35h0m5.83-.9h0m5.15-1.76h0m5.46-.35h0m5.53.35h0m5.49 1.26h0m4.91 1.05h0m5.64.19h0M1.71 144.22h0m5.16-1.75h0m5.46-.36h0m5.52.36h0m5.49 1.25h0m5.24 1.05h0m5.75.35h0m5.83-.9h0m5.15-1.75h0m5.46-.36h0m5.53.36h0m5.49 1.25h0m4.91 1.05h0m5.69.19h0m5.83-.9h0m5.15-1.75h0m5.46-.36h0m5.52.36h0m5.5 1.25h0m5.39 1.05h0m5.61.35h0m5.83-.9h0m5.15-1.75h0m5.46-.36h0m5.53.36h0m5.49 1.25h0m4.91 1.05h0m5.63.19h0" class="c"/><path d="M-133.23 9.39c-9-1.18-13.94 1.89-17.48 2.6m42.52-.71c-7.75 3.15-14.17 1.18-19.37-.71m24.33-1.18C-93.07 7.5-86.22 12-82 12.46m5.91 0c4.25 0 7.32-2.12 10.86-3.07a20.59 20.59 0 0 1 12.52.24m25.52-.24c-6.15 3.07-17.49 2.83-20.79 2.13m46.3.7C-2.83 12-8 13.4-11.88 10.81-17 9.39-16.3 9.15-22 9.39m-123 13.7a26.52 26.52 0 0 1-8.39 2.21m33.9.63c-1.18-.24-6.38 1.18-10.22-1.42-5.13-1.42-4.42-1.65-10.09-1.42m94.72 16.77c3.54-.71 8.5-3.78 17.48-2.6m25 1.89c-7.75 3.16-14.17 1.18-19.37-.71M-110.32 124c3.55-.71 8.51-3.78 17.49-2.6m25 1.89c-7.75 3.15-14.17 1.18-19.37-.71m24.33-1.18c10.16-1.89 17 2.6 21.26 3.07m5.91 0c4.25 0 7.32-2.13 10.87-3.07a20.65 20.65 0 0 1 12.52.23m-126.62-.7c-3.88 1.94-9.83 2.56-14.53 2.57m40 .26c-1.18-.23-6.37 1.18-10.22-1.42-5.13-1.41-4.42-1.65-10.09-1.41m-16.77 29.76a23.28 23.28 0 0 1-3 1m7.92-2.87c10.16-1.89 17 2.6 21.26 3.07m5.9 0c4.26 0 7.33-2.13 10.87-3.07A20.59 20.59 0 0 1-95 149m25.51-.24c-6.14 3.07-17.48 2.84-20.79 2.13m46.3.71c-1.18-.24-6.37 1.17-10.22-1.42-5.13-1.42-4.42-1.66-10.09-1.42m24.8 2.13c3.54-.71 8.5-3.78 17.48-2.6m-131.46-95.2a29 29 0 0 1 13.94-1.53m25 1.88c-7.75 3.16-14.17 1.19-19.37-.7m24.33-1.18c10.16-1.89 17 2.59 21.26 3.07m5.91 0c4.25 0 7.32-2.13 10.86-3.07a20.65 20.65 0 0 1 12.52.23m25.51-.23c-6.14 3.07-17.47 2.83-20.78 2.12m46.3.71c-1.18-.24-6.38 1.18-10.23-1.42-5.13-1.41-4.42-1.65-10.09-1.41m-122.28 44.05c3.54-.71 8.5-3.78 17.48-2.6m25 1.89c-7.76 3.15-14.17 1.18-19.37-.71m24.37-1.19c10.16-1.89 17 2.6 21.26 3.07m5.9 0c4.26 0 7.33-2.12 10.87-3.07a20.74 20.74 0 0 1 12.52.24M-27 93c-6.14 3.07-17.48 2.84-20.78 2.13m46.29.71c-1.18-.24-6.37 1.18-10.22-1.42-5.18-1.42-4.47-1.64-10.14-1.42m-128.39 44.77c3.55-.71 8.51-3.78 17.49-2.6m25 1.89c-7.75 3.15-14.17 1.18-19.37-.71m24.33-1.18c10.16-1.89 17 2.6 21.26 3.07m5.91 0c4.25 0 7.32-2.13 10.87-3.07a20.62 20.62 0 0 1 12.51.23m25.52-.23c-6.14 3.07-17.48 2.83-20.79 2.12m46.3.71c-1.18-.23-6.38 1.18-10.23-1.42-5.12-1.41-4.42-1.65-10.09-1.41m-95.4-109.36c3.54-.71 8.5-3.78 17.48-2.6m25 1.89c-7.76 3.15-14.17 1.18-19.37-.71m24.33-1.18c10.16-1.89 17 2.6 21.26 3.07m5.91 0c4.25 0 7.32-2.13 10.86-3.07a20.59 20.59 0 0 1 12.52.24m-133.42 13.69c10.15-1.88 17 2.6 21.26 3.08m5.9 0c4.25 0 7.33-2.13 10.87-3.08a20.74 20.74 0 0 1 12.52.24m25.51-.23c-6.14 3.07-17.48 2.83-20.79 2.12m46.3.71c-1.21-.24-6.38 1.18-10.21-1.42-5.13-1.41-4.42-1.65-10.09-1.41m-80.08 30.47c3.54-.71 8.5-3.78 17.48-2.6m25 1.89c-7.76 3.15-14.17 1.18-19.37-.71m24.36-1.2c10.16-1.89 17 2.6 21.26 3.07m5.9 0c4.26 0 7.33-2.12 10.87-3.07a20.59 20.59 0 0 1 12.52.24m25.51-.24c-6.14 3.07-17.48 2.83-20.78 2.13m46.29.7c-1.18-.21-6.37 1.17-10.22-1.39-5.13-1.44-4.42-1.66-10.09-1.44m-89.76 16.44c3.54-.71 8.5-3.78 17.47-2.6m25 1.89c-7.76 3.15-14.18 1.18-19.38-.71m24.34-1.18c10.15-1.89 17 2.6 21.26 3.07m5.9 0c4.25 0 7.32-2.13 10.87-3.07a20.59 20.59 0 0 1 12.52.24m-94.49 31.06c3.54-.71 8.5-3.78 17.48-2.6m25 1.89c-7.76 3.15-14.17 1.18-19.37-.71m24.33-1.18c10.16-1.89 17 2.6 21.26 3.07m5.9 0c4.26 0 7.33-2.13 10.87-3.07a20.59 20.59 0 0 1 12.52.24m-127.2-.59c-4.19 2.08-10.77 2.64-15.6 2.56m41.11.27c-1.18-.24-6.38 1.18-10.23-1.42-5.13-1.41-4.42-1.65-10.09-1.41m-9.09-28c-3.13 1.57-7.62 2.27-11.7 2.5m37.21.34c-1.18-.24-6.38 1.18-10.23-1.42-5.13-1.42-4.42-1.65-10.09-1.42M0 25.3a46.08 46.08 0 0 1-12.4-.08M0 123.46a33.67 33.67 0 0 1-6.26-.46M0 151.63c-6.45 1.66-11.89 0-16.42-1.69M0 53.09a30.66 30.66 0 0 1-3.54 1.06M0 109.75a29.41 29.41 0 0 1-5.2-.44M0 81.69a40.89 40.89 0 0 1-9.09-.37" class="b"/><path d="M-152.13 5.31h0m5.67-.9h0m5.16-1.75h0m5.46-.36h0m5.52.36h0m5.49 1.25h0m5.24 1h0m5.75.35h0m5.83-.9h0m5.15-1.75h0m5.46-.36h0m5.53.36h0m5.49 1.25h0m4.91 1h0m5.68.19h0m5.84-.9h0m5.15-1.65h0m5.46-.36h0m5.52.36h0m5.5 1.25h0m5.39 1h0m5.61.35h0m5.83-.9h0m5.15-1.75h0m5.46-.36h0m5.52.36h0m5.5 1.25h0m4.91 1h0m-146.14 13.57h0m5.16-1.75h0m5.45-.36h0m5.53.36h0m5.49 1.26h0m5.23 1h0m5.76.36h0m5.83-.91h0m5.15-1.75h0m5.46-.36h0m5.52.36h0m5.5 1.26h0m4.91 1h0m5.68.2h0m5.83-.91h0m5.16-1.75h0M-64 16h0m5.52.36h0m5.48 1.26h0m5.4 1h0m5.6.38h0m5.83-.91h0m5.17-1.73h0m5.46-.36h0m5.52.36h0m5.5 1.26h0m4.91 1h0m5.63.2h0m-148.1 11.87h0m5.46-.35h0m5.53.35h0m5.49 1.31h0m5.23 1.05h0m5.75.35h0m5.83-.9h0m5.16-1.76h0m5.46-.35h0m5.52.35h0m5.49 1.26h0m4.91 1h0m5.69.19h0m5.83-.9h0m5.15-1.76h0m5.46-.35h0m5.53.35h0m5.49 1.26h0m5.4 1.05h0m5.6.35h0m5.83-.9h0m5.16-1.76h0m5.46-.35h0m5.52.35h0m5.49 1.26h0m4.91 1.05h0m5.64.19h0m5.83-.9h0M-151.6 44.39h0m5.46-.35h0m5.52.35h0m5.49 1.26h0m5.23 1.05h0m5.76.35h0m5.83-.9h0m5.15-1.76h0m5.46-.35h0m5.53.35h0m5.49 1.26h0m4.91 1.05h0m5.68.19h0m5.83-.9h0m5.16-1.76h0m5.46-.35h0m5.52.35h0m5.49 1.26h0m5.4 1h0m5.61.36h0m5.83-.9h0m5.15-1.76h0m5.46-.35h0m5.52.35h0m5.5 1.26h0m4.91 1h0m5.63.2h0m5.83-.9h0m-146.35 15h0M-145 59h0m5.46-.36h0m5.54.36h0m5.5 1.26h0m5.23 1h0m5.75.36h0m5.83-.91h0m5.15-1.75h0m5.46-.36h0m5.53.36h0m5.49 1.26h0m4.91 1h0m5.69.2h0m5.83-.91h0m5.15-1.75h0m5.46-.36h0m5.53.36h0m5.49 1.38h0m5.39 1h0m5.61.36h0m5.83-.91h0m5.17-1.71h0m5.46-.36h0m5.53.36h0m5.49 1.26h0m4.91 1h0m5.64.2h0M-150.62 74h0m5.16-1.75h0m5.46-.36h0m5.52.36h0m5.5 1.25h0m5.23 1h0m5.75.35h0m5.83-.9h0m5.15-1.75h0m5.46-.36h0m5.53.36h0m5.49 1.25h0m4.91 1h0m5.69.19h0m5.83-.9h0m5.11-1.63h0m5.46-.36h0m5.53.36h0m5.49 1.25h0m5.39 1h0m5.61.35h0m5.83-.9h0m5.15-1.75h0m5.46-.36h0m5.53.36h0m5.55 1.3h0m4.91 1h0m5.64.19h0M-152.08 89.1h0m5.24-.9h0m5.16-1.76h0m5.46-.35h0m5.52.35h0m5.49 1.26h0m5.24 1h0m5.75.36h0m5.83-.9h0m5.15-1.76h0m5.46-.35h0m5.53.35h0m5.49 1.26h0m4.91 1h0m5.69.2h0m5.83-.91h0m5.15-1.75h0m5.46-.35h0m5.52.35h0m5.5 1.26h0m5.39 1h0m5.61.36h0m5.83-.91h0m5.15-1.75h0m5.46-.35h0m5.53.35h0m5.49 1.26h0m4.91 1h0m-144.34 14.69h0m5.67-.9h0m5.15-1.76h0m5.46-.35h0m5.53.35h0m5.49 1.26h0m5.23 1h0m5.75.35h0m5.83-.9h0m5.16-1.76h0m5.46-.35h0m5.52.35h0m5.49 1.26h0m4.91 1h0m5.69.19h0m5.83-.9h0m5.15-1.76h0m5.46-.35h0m5.53.35h0m5.49 1.26h0m5.39 1.05h0m5.61.35h0m5.83-.9h0m5.16-1.76h0m5.45-.35h0m5.53.35h0m5.49 1.26h0m4.91 1.05h0M-150.14 117h0m5.66-.9h0m5.16-1.76h0m5.46-.35h0m5.52.35h0m5.5 1.26h0m5.23 1.05h0m5.75.35h0m5.83-.9h0m5.15-1.76h0m5.46-.35h0m5.53.35h0m5.49 1.26h0m4.91 1.05h0m5.69.19h0m5.83-.9h0m5.15-1.76h0m5.46-.35h0m5.53.35h0m5.49 1.26h0m5.39 1h0m5.61.35h0m5.83-.9h0m5.15-1.76h0m5.46-.35h0m5.53.35h0m5.49 1.26h0m4.91 1h0m-145.14 13.9h0m5.15-1.75h0m5.46-.36h0m5.53.36h0m5.49 1.25h0m5.23 1h0m5.75.35h0m5.83-.9h0m5.16-1.75h0m5.46-.36h0m5.52.36h0m5.5 1.25h0m4.91 1h0m5.68.19h0m5.83-.9h0m5.16-1.76h0m5.46-.35h0m5.52.35h0m5.47 1.43h0m5.4 1.05h0m5.6.35h0m5.83-.9h0m5.16-1.76h0m5.46-.35h0m5.52.35h0m5.49 1.26h0m4.91 1.05h0m5.64.19h0m-150.74 13.28h0m5.15-1.75h0m5.46-.36h0m5.53.36h0m5.49 1.25h0m5.23 1.05h0m5.75.35h0m5.83-.9h0m5.16-1.75h0m5.46-.36h0m5.52.36h0m5.49 1.25h0m4.91 1.05h0m5.75.23h0m5.83-.9h0m5.15-1.75h0m5.46-.36h0m5.53.36h0m5.49 1.25h0m5.39 1.05h0m5.61.35h0m5.83-.9h0m5.16-1.75h0m5.46-.36h0m5.52.36h0m5.49 1.25h0m4.91 1.05h0m5.64.19h0" class="c"/></pattern></defs><path fill="#d9b776" d="M241 458.07c5.58-7.89 19.72.18 59.37.71 39.32.52 53.68-7 58.85.88 6.15 9.4-11.92 23.44-34.15 68.65-15.31 31.14-17.8 47-25.95 47.06s-11.17-15.28-27.34-48.83c-22.33-46.32-36.95-59.77-30.78-68.47zm118-316.14c-5.58 7.89-19.72-.18-59.37-.71-39.32-.52-53.68 7-58.85-.88-6.15-9.4 11.92-23.44 34.15-68.65 15.31-31.14 17.8-47 25.95-47.06s11.17 15.28 27.34 48.83c22.33 46.32 36.95 59.77 30.78 68.47zm49.36 287.39c-4.11-8.75 9.89-17.07 29.91-51.29 19.86-33.94 20.37-50.16 29.8-50.75 11.22-.71 14.51 21.93 42.87 63.57 19.53 28.69 32.08 38.67 28.13 45.8s-18.81 2.18-56-.31c-51.26-3.45-70.17 2.66-74.7-7.02zM191.63 170.68c4.11 8.75-9.89 17.07-29.91 51.29-19.86 33.94-20.37 50.16-29.8 50.75-11.22.71-14.51-21.93-42.87-63.57-19.53-28.69-32.05-38.67-28.13-45.8s18.81-2.18 56 .31c51.27 3.45 70.18-2.66 74.71 7.02zm274.45 99.58c-9.63-.78-9.89-17.07-29.63-51.45-19.58-34.11-33.4-42.61-29.22-51.09 5-10.08 26.24-1.69 76.47-5.59 34.6-2.69 49.5-8.62 53.72-1.64s-7.46 17.39-28.09 48.4c-28.49 42.8-32.62 62.23-43.25 61.37zm-332.16 59.48c9.63.78 9.89 17.07 29.63 51.45 19.58 34.11 33.4 42.61 29.22 51.09-5 10.08-26.24 1.69-76.47 5.59-34.6 2.69-49.5 8.62-53.72 1.64s7.46-17.39 28.09-48.4c28.49-42.8 32.62-62.23 43.25-61.37zm167.49-149.39A119.65 119.65 0 1 0 421.05 300a119.65 119.65 0 0 0-119.64-119.65z" opacity=".56"/><path fill="none" stroke="#161515" stroke-miterlimit="10" stroke-width="27" d="M241 458.07c5.58-7.89 19.72.18 59.37.71 39.32.52 53.68-7 58.85.88 6.15 9.4-11.92 23.44-34.15 68.65-15.31 31.14-17.8 47-25.95 47.06s-11.17-15.28-27.34-48.83c-22.33-46.32-36.95-59.77-30.78-68.47zm118-316.14c-5.58 7.89-19.72-.18-59.37-.71-39.32-.52-53.68 7-58.85-.88-6.15-9.4 11.92-23.44 34.15-68.65 15.31-31.14 17.8-47 25.95-47.06s11.17 15.28 27.34 48.83c22.33 46.32 36.95 59.77 30.78 68.47zm49.36 287.39c-4.11-8.75 9.89-17.07 29.91-51.29 19.86-33.94 20.37-50.16 29.8-50.75 11.22-.71 14.51 21.93 42.87 63.57 19.53 28.69 32.08 38.67 28.13 45.8s-18.81 2.18-56-.31c-51.26-3.45-70.17 2.66-74.7-7.02zM191.63 170.68c4.11 8.75-9.89 17.07-29.91 51.29-19.86 33.94-20.37 50.16-29.8 50.75-11.22.71-14.51-21.93-42.87-63.57-19.53-28.69-32.05-38.67-28.13-45.8s18.81-2.18 56 .31c51.27 3.45 70.18-2.66 74.71 7.02zm274.45 99.58c-9.63-.78-9.89-17.07-29.63-51.45-19.58-34.11-33.4-42.61-29.22-51.09 5-10.08 26.24-1.69 76.47-5.59 34.6-2.69 49.5-8.62 53.72-1.64s-7.46 17.39-28.09 48.4c-28.49 42.8-32.62 62.23-43.25 61.37zm-332.16 59.48c9.63.78 9.89 17.07 29.63 51.45 19.58 34.11 33.4 42.61 29.22 51.09-5 10.08-26.24 1.69-76.47 5.59-34.6 2.69-49.5 8.62-53.72 1.64s7.46-17.39 28.09-48.4c28.49-42.8 32.62-62.23 43.25-61.37zm167.49-149.39A119.65 119.65 0 1 0 421.05 300a119.65 119.65 0 0 0-119.64-119.65z"/><path fill="url(#a)" d="M239.58 458.07c5.58-7.89 19.73.18 59.37.71 39.32.52 53.68-7 58.86.88 6.14 9.4-11.92 23.44-34.15 68.65-15.31 31.14-17.8 47-26 47.06s-11.17-15.28-27.34-48.83c-22.27-46.32-36.89-59.77-30.74-68.47zm118-316.14c-5.59 7.89-19.73-.18-59.37-.71-39.33-.52-53.68 7-58.86-.88-6.14-9.4 11.92-23.44 34.15-68.65 15.31-31.14 17.8-47 26-47.06s11.18 15.28 27.34 48.83c22.3 46.32 36.92 59.77 30.77 68.47zM407 429.32c-4.11-8.75 9.89-17.07 29.91-51.29 19.86-33.94 20.37-50.16 29.81-50.75 11.21-.71 14.51 21.93 42.86 63.57 19.54 28.69 32.09 38.67 28.13 45.8s-18.8 2.18-56-.31c-51.3-3.45-70.21 2.66-74.71-7.02zM190.23 170.68c4.11 8.75-9.89 17.07-29.92 51.29-19.86 33.94-20.36 50.16-29.8 50.75-11.21.71-14.51-21.93-42.86-63.57-19.54-28.69-32.09-38.67-28.13-45.8s18.8-2.18 56 .31c51.26 3.45 70.17-2.66 74.71 7.02zm274.45 99.58c-9.64-.78-9.9-17.07-29.64-51.45-19.57-34.11-33.4-42.61-29.22-51.09 5-10.08 26.24-1.69 76.47-5.59 34.6-2.69 49.5-8.62 53.72-1.64s-7.45 17.39-28.09 48.4c-28.49 42.8-32.62 62.23-43.24 61.37zm-332.17 59.48c9.64.78 9.9 17.07 29.63 51.45 19.58 34.11 33.41 42.61 29.23 51.09-5 10.08-26.25 1.69-76.47 5.59-34.6 2.69-49.5 8.62-53.72 1.64s7.45-17.39 28.09-48.4c28.49-42.8 32.62-62.23 43.24-61.37zM300 180.35A119.65 119.65 0 1 0 419.65 300 119.65 119.65 0 0 0 300 180.35z" opacity=".5"/></svg>