<svg xmlns="http://www.w3.org/2000/svg" xmlns:xlink="http://www.w3.org/1999/xlink" width="3000" height="1536"><defs><pattern id="c" width="153.43" height="153.43" patternTransform="matrix(2.46 2.38 -1.23 1.28 654.46 -509.11)" patternUnits="userSpaceOnUse"><path class="a" d="M0 0h153.43v153.43H0z"/><path class="b" d="M153.43 10.63H0m153.43 11.83H0m153.43 11.87H0m153.6 84H0M153.43 129H0m153.43-83.27H0M153.43 55H0m153.43 9.71H0m153.43 11.51H0M153.43 87H0m153.6 11.9H0m153.43 9.1H0m153.43 43H0M16.8 10.63V0m36.14 10.63V0M91.2 10.63V0M132 10.63V0M16.8 153.43V151m36.14 2.41V151m38.26 2.41V151m40.8 2.43V151M35.72 22.43v-12m42.16 12v-12m38.62 12v-12m36.36 12v-12M20 34.3V22.82M57.51 34.3V22.82M96 34.3V22.82m42.3 11.48V22.82m-24.45 22.82V34.3M75.93 45.64V34.3M33.77 45.64V34.3m117.64 11.34V34.3M132 55v-9.36M90.5 55v-9.36M52.94 55v-9.36M16.8 55v-9.36M35.36 64.7V55m42.52 9.7V55m39 9.71V55M153 64.7V55M18.89 76.18V64.7m38.26 11.48V64.7m38.63 11.48V64.7m42.16 11.48V64.7M113.49 87V76.36M75.72 87V76.36M33.2 87V76.36M151 87V76.36M15.66 98.86V87.13m36.85 11.73V87.13m38.62 11.73V87.13m40.4 11.73V87.13M119.62 108v-9m-40.11 9v-9m-42.87 9v-9m-35.2 9v-9m18.07 19.24v-10.1m37.56 10.1v-10.1m38.62 10.1v-10.1m42.17 10.1v-10.1m-23.67 20.9v-10.62m-39.33 10.66v-10.66m-41.25 10.66v-10.66m118.7 10.66v-10.66m1.12 23.07H0m29.18 9.74v-9.82m40.93 9.82v-9.82m38.62 9.82v-9.82m37.92 9.82v-9.82m-133.65 0v-12.33m36.85 12.33v-12.33m39.68 12.33v-12.33m41.28 12.33v-12.33M26 30.93l5.32-4.6m6.2-.18 3.19 5m6.2-.18 6.73-4.25m49.43 4.25 5.32-4.6m6.2-.18 3.18 5m7.62-.18 6.74-4.25m-13.11 16 5.35-4.76m6.2-.18 3.19 5m6.2-.17 6.73-4.26M41.46 42.27l5.31-4.6m6.2-.18 3.19 5m6.2-.18L69.09 38m-11 14.53 5.32-4.61m6.2-.18 3.18 5m6.21-.19 6.73-4.25m-67.84 89.46 5.32-4.6m6.2-.18 3.19 5m6.2-.18 6.73-4.25m-9.39 15.42 5.32-4.61m6.2-.18 3.19 5m6.2-.17 6.73-4.26m49.61 3.72 5.31-4.6m6.2-.18 3.19 5m6.2-.18 6.73-4.25m-39-10.63-5.32 4.61m11.52-4.79 3.19 5m6.2-.18 6.73-4.25m-42.87-7.8 5.31-4.61m6.2-.17 3.19 5m6.2-.18 6.73-4.25m-106.3 3.9 5.32-4.61m8 4.78-3.19-5m9.39 4.79 6.74-4.26M25 116l5.32-4.6m6.2-.18 3.19 5m6.2-.18 6.73-4.25m50 3.72 5.31-4.61m6.2-.17 3.19 5m6.2-.18 6.74-4.25m-5.5-5.49 5.32-4.61m8.4 4.78-3.19-5m7.69 4.79 6.73-4.25m-99.36 0L45 106.05m14.7.18-3.18-5m9.39 4.78 6.73-4.25m-14.18-6.34 5.32-4.6m6.2-.18 3.19 5m6.2-.18 6.73-4.25m-5-7.44 5.32-4.61m9.39 4.79-3.19-5m9.39 4.78 6.73-4.25M1.42 84.08l5.31-4.6m9.39 4.78-3.19-5m16.13.53-6.74 4.25M10.63 73.35l4.25-4.86M3.54 95.07l6.74-4.25m32.24-28.35 5.31-4.61m6.17-.17 3.18 5m6.21-.18 6.73-4.25M62 72.74l5.31-4.6m6.2-.18 3.19 5m6.2-.18 6.74-4.25m31.18-6.38 5.31-4.6m6.2-.18 3.19 5m6.2-.18 6.73-4.25M3.54 52.9l6.74-4.25m32.59-29.76 5.32-4.61m6.2-.18 3.19 5m6.2-.17 6.73-4.26m50.32 4.61 5.31-4.61m6.2-.17 3.19 5m6.2-.18 6.73-4.32M59 7.07l5.31-4.61m6.2-.18 3.19 5m6.2-.17 6.73-4.26m56-.17-5.32 4.6m11.52-4.78 3.19 5M5.14 7.07l6.73-4.26m135.89 28.48-5.32-4.61M.89 31.46l3.19-5m4.07.18 6.74 4.25m47.3-4.25 5.31 4.61m7.44.35 3.19-5m6 .18 6.74 4.25M8.1 42.45l-5.31-4.61m10.1 4.79 3.19-5m6.2.17L29 42.09m52.31-4.25 5.31 4.61m6.2.18 3.19-5m6.2.17 6.79 4.29M97.09 48.3l5.31 4.6m6.2.18 3.19-5m6.2.18 6.73 4.25m-35.43 9.96L84 57.86m11.51 4.79 3.19-5m6.2.17 6.73 4.25m-90.72-13.6 5.31 4.61m6.2.18 3.19-5m6.2.17 6.73 4.25m-44 5 5.31 4.6m4.36.18 3.19-5m12.9 4.48-6.74-4.25m.18 11.16 5.32 4.6m6.2.18 3.18-5m12.94 4.47-6.73-4.25M40 79.3l5.31 4.61m6.21.17 3.18-5m12.94 4.43-6.7-4.21m-41.1 11.34 5.32 4.6m6.2.18 3.19-5m12.93 4.43-6.73-4.25M6.59 101.27l5.32 4.6m5.82.18 3.19-5m4.59.18 6.73 4.25M97.44 91l5.32 4.61m6.2.18 3.19-5m6.2.17 6.73 4.25m-2-11-5.32-4.61m11.52 4.79 3.19-5m6.2.17 6.73 4.26M109 73.45l-5.32-4.6m11.52 4.78 3.19-5m12.93 4.43-6.73-4.25m-38.62 32.6 5.31 4.6m6.2.18 3.19-5m6.2.18 6.73 4.25M62 111.37l5.31 4.6m6.2.18 3.19-5m12.94 4.43-6.74-4.25M-.71 115.8l3.19-5m6.2.18 6.73 4.25m24.1 6.38 5.31 4.61m6.2.18 3.19-5m6.2.18 6.74 4.25m52.44-4.25 5.31 4.61m6.2.18 3.19-5m6.2.18 6.73 4.25m-91.94 7.44 5.31 4.61m6.2.18 3.19-5m6.2.17 6.73 4.26m-7.44 6.91 5.32 4.6m6.2.18 3.19-5m6.2.18 6.73 4.25M-1.7 144.32l5.31 4.61m6.2.17 3.19-5m5.5.18 6.73 4.25M.89 133.16l6.73 4.25M102.76 7.77l-5.32-4.6M109 8l3.19-5m6.2.18 6.73 4.25m-104-5 5.28 4.64m6.2.17 3.19-5m6.2.18 6.73 4.25m-44.5 8.1 5.31 4.61m4.64.17 3.19-5m12.94 4.51-6.74-4.25m64.49 4.43-5.31-4.61m11.51 4.79 3.19-5m12.93 4.43-6.73-4.26m40.93 58.51 5.31-4.61M2 68.32l3.19 5m130.87 21.75 5.32-4.61m6.2-.18 3.19 5M136.06 52.9l5.32-4.6m6.2-.18 3.19 5M141.2 111l5.32 4.61m9.39-4.79-3.19 5m-1 28.52 5.32 4.61m-23.63-15.77 5.31 4.6m6.2.18 3.19-5" style="clip-path:url(#a)"/></pattern><pattern id="d" width="206.1" height="206.1" patternTransform="matrix(.66 1.1 -.57 .34 717.71 18.08)" patternUnits="userSpaceOnUse"><path class="a" d="M0 0h206.1v206.1H0z"/><path d="M1 59.74C10 47.48 20.2 32 23.8 24.36M43.58 1a151.17 151.17 0 0 1-12.45 15.27m51.2 2.84C76.66 31.15 58.94 56 51.15 63.75m52.85 4.4c-5.66 12-29.29 40.57-37.08 48.36M148.21 1c-8.54 14.86-29.82 44.4-36.77 51.35M46 74.28c-7 11.35-27.31 34-35.93 40.93m-3.19 8A101.62 101.62 0 0 1 1 131.55M98.05 1a95 95 0 0 1-6.5 7.32M63.74 128.14c-6.23 10.15-32.85 42.91-44 51.83m98.74-57.87c-4.45 9.45-18.89 22.2-27.57 33-2.37 2.95-4.51 5.42-6.18 7.1M158.1 68c-4.46 9.46-18.9 22.2-27.57 33a91 91 0 0 1-6.19 7.1m51.83-1.28c-4.45 9.46-18.9 22.2-27.57 33a91 91 0 0 1-6.19 7.1m57.85-137c-4.45 9.46-18.89 22.2-27.56 33-2.38 3-4.52 5.41-6.19 7.09M205.1 59c-5.37 7.35-10.34 13.66-13.29 16.6m13.29 55.24-.06.07c-9 11.87-22.69 35.37-29.62 40.91m-99.94-2.32C72 176.83 51.19 195 43.73 205.1m119.21-22.76c-1 2.18-13.8 19.22-15.93 22.69v.07m-16.54-45.89c-4.7 9.56-21.6 33-32.23 45.88m104.51-31.26c-4.63 6.38-17.13 21.4-25.91 31.27M68.69 1c-1.44 1.67-2.9 3.33-4.36 5m-4.58 5-2.33 2.45M64.33 6a409.38 409.38 0 0 1-4.58 5m112.09-4.72-1 1m5.54-6c-1.71 1.91-3.25 3.59-4.57 5M9.54 80.09c-.93 1.29-2 2.67-3.07 4.07m-4.26 5.31L1 90.92m5.47-6.76q-2 2.58-4.26 5.31m58.26.15c-1.49 1.8-3 3.54-4.37 5.2m0 0c-1.63 1.93-3.19 3.74-4.6 5.32m21.84-26.53a675.83 675.83 0 0 1-4.14 5.25m-4.34 5.4c-1.46 1.8-2.94 3.6-4.39 5.36m8.73-10.76-4.34 5.4m14.36-18.41c-.43.6-1 1.29-1.5 2m0 0a418.38 418.38 0 0 1-4.38 5.72M51.5 100.14c-1.25 1.4-2.39 2.64-3.37 3.65m72.32-90.44q-2.08 2.7-4.32 5.43m-4.45 5.29a165.46 165.46 0 0 1-4.61 5.13m9.06-10.42c-1.45 1.78-2.94 3.55-4.45 5.29m-4.61 5.13c-.61.66-1.22 1.32-1.83 1.95m21.29-25.89c-.6.83-1.24 1.69-1.87 2.55m0 0a316.59 316.59 0 0 1-4.21 5.54m84.65 76.94q-1.74 2.07-3.55 4.17m-9.24 10.24-1.9 2m11.14-12.23c-1.5 1.74-3 3.47-4.56 5.17m0 0a355.33 355.33 0 0 1-4.68 5.07m-147.79-70c-1.4 1.81-2.91 3.7-4.49 5.62m0 0c-1.39 1.68-2.83 3.38-4.3 5.09M47.28 31c-.85 1.17-1.79 2.41-2.76 3.67M31.16 50.56C29.57 52.32 28 54 26.48 55.63m9.25-10.24c-1.52 1.74-3 3.48-4.57 5.17m-4.68 5.07-1.9 2m123.76-16.39c-1.32 1.82-2.7 3.7-4.11 5.63M135.9 58a459.16 459.16 0 0 1-4.24 5.5m20.77-27.94 4-5.56m-12.2 16.87c-1.37 1.86-2.76 3.73-4.15 5.6m12.35-16.88c-1.25 1.75-2.63 3.64-4.09 5.65m8.1-11.24 1.24-1.71m-17.6 24.15c-1.4 1.89-2.81 3.75-4.18 5.56m-4.24 5.5c-1.57 2-3 3.82-4.36 5.39m0 0c-1.26 1.5-2.38 2.79-3.32 3.76m19.88 41.85c-.61.64-1.22 1.3-1.81 1.91m6.4-6.87c-1.55 1.72-3.09 3.37-4.59 5m13.63-15.42c-1.41 1.72-2.89 3.45-4.38 5.18m8.71-10.59c-1.35 1.75-2.8 3.56-4.33 5.41m-4.38 5.18c-1.54 1.78-3.1 3.55-4.66 5.27m16.29-19.73c-.89 1.23-1.88 2.54-2.92 3.87m-13.4 83.87a274.38 274.38 0 0 1-3.19 3.36m21.08-24.45c-1.36 1.81-2.85 3.71-4.44 5.66m6.06-7.82c-.5.69-1.07 1.43-1.62 2.16m-13.25 16a351.29 351.29 0 0 1-4.64 5.1m9.18-10.3c-1.49 1.74-3 3.48-4.54 5.2m8.81-10.33q-2.06 2.54-4.27 5.13M19.2 145.44c-.81.86-1.62 1.72-2.41 2.53m11.55-12.7c-1.53 1.78-3.09 3.54-4.65 5.27m0 0c-1.51 1.69-3 3.33-4.49 4.9M32.79 130q-2.16 2.63-4.45 5.3m11.14-13.9c-.72 1-1.48 2-2.3 3.07m0 0c-1.35 1.77-2.84 3.63-4.39 5.52m47.47 60.9c-.83 1.14-1.73 2.34-2.68 3.56m-4.16 5.22C72 201.4 70.5 203.17 69 205m8.62-10.52c-1.29 1.69-2.7 3.44-4.16 5.22m-3.78-52.32c-.89 1-1.72 1.9-2.45 2.65m11.37-13c-1.54 1.85-3 3.63-4.45 5.29M83 131.59a551.58 551.58 0 0 1-4.39 5.35m20.3-25.71c-.79 1.09-1.82 2.47-3 4m-21.74 27c-1.62 1.9-3.12 3.61-4.47 5.11m17.74-21.25c-1.45 1.81-2.93 3.66-4.43 5.5m8.65-10.84a527.9 527.9 0 0 1-4.22 5.34m8.47-10.83c-1.25 1.64-2.69 3.5-4.25 5.49M40 40.3 1 1.27m39 39 33.34 33.34m0 0 88.53 88.53m42.95 43-42.95-43m-4.27 5.13 37.83 37.83M69.2 78.86 35.73 45.39M69.2 78.86l88.4 88.41M1 10.66l34.72 34.73m150 159.71-32.63-32.63M1 20.41l30.16 30.15m33.7 33.7-33.7-33.7m64.69 64.7-31-31m88.2 88.21-57.2-57.21M26.48 55.63l34 34m31.12 31.12L60.47 89.62m87.95 87.95 27.52 27.53m-27.52-27.53L91.6 120.75M26.48 55.63 1 30.15m86.38 95.94L56.1 94.82M1 39.72l55.1 55.1m31.28 31.27 79 79M83 131.59l-31.5-31.45M83 131.59l73.51 73.51m-105-105L1 49.64m77.56 87.3L1 59.39m77.56 77.55 68.15 68.16M74.1 142.23 137 205.1m-62.9-62.87L1 69.13m5.46 15L1 78.7m5.47 5.46 63.17 63.17m57.76 57.77-57.76-57.77m-32.46-22.89-35-35m0 0L1 88.26m36.18 36.18 80.65 80.66M32.79 130l75.12 75.13M32.79 130 1 98.19M98.17 205.1l-69.83-69.83m0 0L1 107.93m22.69 32.61 53.89 53.89m10.67 10.67-10.67-10.67m-53.89-53.89L1 117.85m72.42 81.8L19.2 145.44m0 0L1 127.24m72.42 72.41 5.44 5.45M1 137l68 68m-9.78.15L1 146.91m0 9.56 48.62 48.63m-9.74 0L1 166.22m29.14 38.88L1 176m19.39 29.1L1 185.7m9.65 19.4L1 195.45M195.27 1l9.83 9.83M186.05 1l19 19.05M176.4 1.28 205.1 30M171.84 6.28 166.57 1m38.53 38.53L171.84 6.28m33.26 43.17L156.64 1m-9.74 0 58.2 58.2m0 9.74L137.16 1m-9.75 0 29 29m48.69 48.69L156.44 30m48.66 58.25-52.67-52.66m0 0L124.66 7.81m0 0L117.85 1m-9.75 0 12.35 12.35m27.89 27.89-27.89-27.89m81.1 81.11-53.21-53.22M205.1 98l-3.54-3.54m-85.42-75.68 28.09 28.09M197 99.63l8.11 8.11m-89-89L98.36 1m45.87 45.87L197 99.63m-85.32-75.56L88.61 1m23.07 23.07 28.4 28.4m65 65-12.77-12.77m0 0-52.23-52.23M78.87 1l28.2 28.2M135.9 58l69.2 69.2M135.9 58l-28.83-28.8M69.12 1l62.54 62.53m30.16 30.17-30.16-30.17m30.16 30.17L205.1 137m-77.8-68-63-63m0 0-4.92-5m98.11 98.11 47.61 47.61m-47.61-47.61L127.3 68.92m25.81 35.38L59.75 10.94m0 0L49.81 1m103.3 103.29 52 52m-56.65-46.72 56.65 56.65M39.89 1l108.56 108.56m-4.59 5 61.24 61.24m-61.24-61.24L30.33 1M205.1 185.52 20.58 1m23.94 33.68L10.84 1M205.1 195.26l-38.79-38.78M77.72 67.89l88.6 88.59m-88.6-88.59-33.2-33.21" style="stroke-linecap:square;stroke-miterlimit:11.34;stroke-width:1.42px;stroke:#d9b776;fill:none"/></pattern><pattern id="e" width="153.43" height="153.43" patternTransform="matrix(1.62 .56 -.29 .84 1192.49 102.65)" patternUnits="userSpaceOnUse"><path class="a" d="M0 0h153.43v153.43H0z"/><path class="b" d="M152.86 10.63h.57m-100.49 0h24.94m54.08 0h20.9m-99.92 0H38.62M0 10.63h12.54m119.42 0H87m-74.41 0h26.03m48.33 0h-9.07M0 22.46h153.43m-2 11.87h2m-2 0h-34.77m0 0H75.93M0 34.33h75.93m15.51 83.94H57.07m0 0H35.9m80.61 0H91.44m46.42 0h-21.35m-80.61 0H15.26m-15.26 0h15.26m138.16 0h-15.56m-63 10.73H110m-35.14 0H29.43m122.89 0H110m43.43 0h-1.11M0 129h29.43M90.5 45.73H16.8m73.7 0h42.72m20.21 0h-20.21M0 45.73h16.8M0 55h35.36m44.12 0h37.38M153 55h.45m-.45 0h-36.14m-81.49 0h44.11m74 9.7h-15.54m-80.78 0h80.78M0 64.73h57.16M0 76.22h153.43M0 87h153.43M0 98.89h153.43M0 108h153.43m-10.93 43H132m10.54 0h10.93m-124.25 0h-8.49m32.21 0H29.19m102.76 0h-23.22m-42.77 0h-13m13 0h28.83m0 0h13.94M0 151.05h20.73M12.54 10.63 19.2 0m33.74 10.63V0m40.44 0L87 10.63m45 0V0M31.47 22.43l7.15-11.8m39.26-.18v.18m0 11.8v-11.8m41.71.18-7.34 11.62m40.61 0v-11.8m0 0v-.18M23 22.5l-7.3 11.8m41.81-11.48V34.3m41.35-11.8L91.7 34.3m46.6-11.48V34.3m-21.64 0-7.06 11.34m7.06-11.31.09-.14M75.93 45.61V34.33m-39.43 0-7 11.27m121.91-11.27v11.31M127.7 55l5.52-9.26m-42.72 0V55m0-9.35v.09m-36.11.16-5.7 9.1M16.8 45.64v.09m0 9.26v-9.26m18.56 19V55m38.27 9.7 5.85-9.7m.07-.11-.07.11m37.38 9.67V55M153 55l-6.11 9.64M21.79 64.84l-7.15 11.34m42.52 0V64.73m34.37 11.45 7.15-11.34M137.94 76.15V64.73M109.24 87l6.45-10.59m-40 0V87M35.43 76.36 29 87m122-10.64V87m-132.4.34-7.19 11.52m41.1-11.73v11.73m34.37 0 7.37-11.69m37.28 0v11.69m-10.7.18-5.46 9M79.51 99v9m-41.77-8.79L32.39 108M1.44 99v9m20.35.07-6.53 10.2m41.81-10.1v10.1m34.37 0 6.35-10.2m40.07.1v10.1m-21.35 0L110 129m6.58-10.81-.07.1m-6.57 10.81.06-.1m-35.14.1v-.1m0-10.56V129m-45.5.1.07-.1m6.47-10.7L29.43 129M36 118.17l-.06.1m116.42 10.81V129m0-10.56V129m-3.92 12.5h-39.71m-37 0h37m-37 0H29.19m119.21 0h5M0 141.48h29.19m0-.07v.07m0 9.57v.18m0-.18v-9.57m42.5 0 .06-.1M66 151.05l5.72-9.57M66 151.05l-.1.18m42.87 0v-.18m0-9.64v.07m0 9.57v-9.57m39.67 0 .06-.1m-6 9.67 5.9-9.57m-5.9 9.57-.11.18M13 129.08v12.33m32.6 0 7.59-12.08m36.34 12.08v-12.33m37 12.33 7.42-12.26m-81 24.28v-2.38m79 2.38v-2.38m-112.72 2.38 1.5-2.38m.18-.28-.18.28m74.06 0-1.43 2.38m1.43-2.38.17-.28"/></pattern><pattern id="f" width="140.91" height="140.91" patternTransform="matrix(-.13 1.93 -1.85 1.1 3054.53 415.95)" patternUnits="userSpaceOnUse"><path class="a" d="M0 0h140.91v140.91H0z"/><path class="b" d="M7.22 4.8c-1.59.7-2.66 1.59-1.42 3.89s1.07 3.19-.17 4.61m-2.49-2.83c-1.59-4.79.18-7.09 2.49-8.86m2.48 6.2c1.06 1.59 1.41 7.26-1.24 9.92m12.75 9.92c1.24-1.42 1.42-2.3.18-4.61s-.18-3.19 1.42-3.89m-4.08 5.67c-1.6-4.79.18-7.09 2.48-8.86m2.48 6.2c1.07 1.59 1.42 7.26-1.24 9.92M5.63 41.47c1.24-1.42 1.41-2.31.17-4.61S5.63 33.67 7.22 33m-4.08 5.63c-1.59-4.78.18-7.08 2.49-8.85M8.11 36c1.06 1.59 1.41 7.26-1.24 9.92m12.93 9.55c1.24-1.42 1.42-2.31.18-4.61s-.18-3.19 1.41-3.9m-4.07 5.67c-1.6-4.78.17-7.09 2.48-8.86M22.28 50c1.06 1.6 1.42 7.27-1.24 9.92M5.62 69.64C6.87 68.22 7 67.34 5.8 65s-.18-3.19 1.42-3.9m-4.08 5.7c-1.59-4.8.18-7.08 2.49-8.8m2.48 6.2c1.06 1.59 1.41 7.26-1.24 9.92m12.75 9.74c1.24-1.42 1.42-2.3.18-4.6s-.18-3.19 1.42-3.9M17.14 81c-1.6-4.79.18-7.09 2.48-8.86m2.48 6.2c1.07 1.59 1.42 7.26-1.24 9.92M5.62 97.81c1.25-1.42 1.42-2.3.18-4.61s-.18-3.2 1.42-3.9M3.14 95c-1.59-4.78.18-7.08 2.49-8.86m2.48 6.21c1.06 1.59 1.41 7.26-1.24 9.92m12.75 9.56c1.24-1.41 1.42-2.3.18-4.6s-.18-3.19 1.42-3.9M17.14 109c-1.6-4.78.18-7.09 2.48-8.86m2.48 6.2c1.07 1.59 1.42 7.26-1.24 9.92m-15.24 9.89c1.25-1.41 1.42-2.3.18-4.6s-.18-3.19 1.42-3.9m-4.08 5.67c-1.59-4.78.18-7.09 2.49-8.86m2.48 6.2c1.06 1.6 1.41 7.27-1.25 9.92M19.62 140c1.24-1.41 1.42-2.3.18-4.6s-.18-3.19 1.42-3.9m-4.08 5.67c-1.6-4.78.18-7.09 2.48-8.86m2.48 6.2c.7 1.05 1.09 3.87.52 6.43M33.79 13.3C35 11.88 35.21 11 34 8.69s-.21-3.19 1.39-3.89m-4.08 5.67c-1.59-4.79.18-7.09 2.48-8.86m2.49 6.2c1.06 1.59 1.41 7.26-1.25 9.92m12.76 9.92c1.21-1.42 1.42-2.3.21-4.65s-.18-3.19 1.41-3.89m-4.07 5.67c-1.6-4.79.18-7.09 2.48-8.86m2.48 6.2c1.07 1.59 1.42 7.26-1.24 9.92m-15.27 9.43c1.25-1.42 1.42-2.31.18-4.61s-.18-3.19 1.42-3.89m-4.08 5.66c-1.59-4.78.18-7.08 2.48-8.85M36.28 36c1.06 1.59 1.41 7.26-1.25 9.92M48 55.47c1.24-1.42 1.41-2.31.18-4.61S48 47.67 49.56 47m-4.07 5.67c-1.6-4.78.17-7.09 2.48-8.86M50.45 50c1.06 1.6 1.42 7.27-1.24 9.92m-15.42 9.72c1.21-1.42 1.42-2.3.21-4.64s-.18-3.19 1.42-3.9m-4.11 5.7c-1.59-4.78.18-7.08 2.48-8.85m2.49 6.2c1.06 1.59 1.41 7.26-1.25 9.92m12.76 9.74c1.24-1.42 1.42-2.3.18-4.6s-.18-3.19 1.42-3.9M45.31 81c-1.6-4.79.18-7.09 2.48-8.86m2.48 6.2c1.07 1.59 1.42 7.26-1.24 9.92m-15.24 9.55c1.24-1.42 1.42-2.3.18-4.61s-.18-3.19 1.42-3.9M31.31 95c-1.59-4.78.18-7.08 2.48-8.86m2.49 6.21c1.06 1.59 1.41 7.26-1.25 9.92m12.76 9.56c1.24-1.41 1.42-2.3.18-4.6s-.18-3.19 1.42-3.9M45.31 109c-1.6-4.78.18-7.09 2.48-8.86m2.48 6.2c1.07 1.59 1.42 7.26-1.24 9.92m-15.24 9.92c1.24-1.41 1.42-2.3.18-4.6s-.18-3.19 1.42-3.9m-4.08 5.67c-1.59-4.78.18-7.09 2.48-8.86m2.48 6.2c1.07 1.6 1.42 7.27-1.24 9.92M47.79 140c1.24-1.41 1.42-2.3.18-4.6s-.18-3.19 1.41-3.9m-4.07 5.67c-1.6-4.78.18-7.09 2.48-8.86m2.3 6.2c.7 1.05 1.09 3.87.53 6.43M61.79 13.3C63 11.88 63.2 11 62 8.69s-.21-3.19 1.38-3.89m-4.07 5.67c-1.6-4.79.17-7.09 2.48-8.86m2.48 6.2c1.06 1.59 1.42 7.26-1.24 9.92m12.75 9.92C77 26.23 77.2 25.35 76 23s-.18-3.19 1.42-3.89m-4.12 5.71c-1.59-4.79.18-7.09 2.48-8.86m2.48 6.2c1.07 1.59 1.42 7.26-1.24 9.92m-15.23 9.39c1.24-1.42 1.41-2.31.18-4.61s-.18-3.19 1.41-3.89m-4.07 5.66c-1.6-4.78.17-7.08 2.48-8.85M64.27 36c1.06 1.59 1.42 7.26-1.24 9.92M76 55.47c1.24-1.42 1.42-2.31.18-4.61S76 47.67 77.56 47m-4.08 5.67c-1.6-4.78.18-7.09 2.48-8.86M78.44 50c1.06 1.6 1.42 7.27-1.24 9.92m-15.41 9.72C63 68.22 63.2 67.34 62 65s-.17-3.19 1.42-3.9m-4.11 5.7c-1.6-4.78.17-7.08 2.48-8.85m2.48 6.2c1.06 1.59 1.42 7.26-1.24 9.92m12.75 9.74c1.24-1.42 1.42-2.3.18-4.6s-.18-3.19 1.42-3.9M73.3 81c-1.59-4.79.18-7.09 2.48-8.86m2.48 6.2c1.07 1.59 1.42 7.26-1.24 9.92m-15.23 9.55c1.24-1.42 1.41-2.3.17-4.61s-.17-3.19 1.42-3.9M59.31 95c-1.6-4.78.17-7.08 2.48-8.86m2.48 6.21c1.06 1.59 1.42 7.26-1.24 9.92m12.75 9.56c1.24-1.41 1.42-2.3.18-4.6s-.18-3.19 1.42-3.9M73.3 109c-1.59-4.78.18-7.09 2.48-8.86m2.48 6.2c1.07 1.59 1.42 7.26-1.24 9.92m-15.23 9.92c1.24-1.41 1.41-2.3.17-4.6s-.17-3.19 1.42-3.9m-4.07 5.67c-1.6-4.78.17-7.09 2.48-8.86m2.48 6.2c1.06 1.6 1.41 7.27-1.24 9.92M75.78 140c1.24-1.41 1.42-2.3.18-4.6s-.18-3.19 1.42-3.9m-4.08 5.67c-1.59-4.78.18-7.09 2.48-8.86m2.48 6.2c.7 1.05 1.09 3.87.52 6.43M90.07 13.3c1.24-1.42 1.42-2.3.18-4.61s-.18-3.19 1.42-3.89m-4.08 5.67c-1.59-4.79.18-7.09 2.48-8.86m2.49 6.2c1.06 1.59 1.41 7.26-1.25 9.92m12.76 9.92c1.24-1.42 1.42-2.3.18-4.61s-.18-3.19 1.41-3.89m-4.07 5.67c-1.6-4.79.18-7.09 2.48-8.86m2.48 6.2c1.06 1.59 1.42 7.26-1.24 9.92m-15.24 9.39c1.24-1.42 1.42-2.31.18-4.61s-.18-3.19 1.42-3.89m-4.08 5.66c-1.59-4.78.18-7.08 2.48-8.85M92.56 36c1.06 1.59 1.41 7.26-1.25 9.92m12.94 9.57c1.24-1.42 1.41-2.31.18-4.61s-.18-3.19 1.41-3.9m-4.07 5.67c-1.6-4.78.17-7.09 2.48-8.86m2.48 6.2c1.06 1.6 1.42 7.27-1.24 9.92m-15.42 9.73c1.24-1.42 1.42-2.3.18-4.61s-.18-3.19 1.42-3.9m-4.08 5.67c-1.59-4.8.18-7.08 2.48-8.8m2.49 6.2c1.06 1.59 1.41 7.26-1.25 9.92m12.76 9.74c1.24-1.42 1.42-2.3.18-4.6s-.18-3.19 1.42-3.9M101.59 81c-1.6-4.79.17-7.09 2.48-8.86m2.48 6.2c1.06 1.59 1.42 7.26-1.24 9.92m-15.24 9.55c1.24-1.42 1.42-2.3.18-4.61s-.18-3.19 1.42-3.9M87.59 95c-1.59-4.78.18-7.08 2.48-8.86m2.49 6.21c1.06 1.59 1.41 7.26-1.25 9.92m12.76 9.56c1.24-1.41 1.42-2.3.18-4.6s-.18-3.19 1.42-3.9m-4.08 5.67c-1.6-4.78.17-7.09 2.48-8.86m2.48 6.2c1.06 1.59 1.42 7.26-1.24 9.92m-15.24 9.92c1.24-1.41 1.42-2.3.18-4.6s-.18-3.19 1.42-3.9m-4.08 5.67c-1.59-4.78.18-7.09 2.48-8.86m2.48 6.2c1.07 1.6 1.42 7.27-1.24 9.92m12.76 9.39c1.24-1.41 1.42-2.3.18-4.6s-.18-3.19 1.41-3.9m-4.07 5.67c-1.6-4.78.17-7.09 2.48-8.86m2.48 6.2c.7 1.05 1.09 3.87.52 6.43M118.24 13.3c1.24-1.42 1.42-2.3.18-4.61s-.18-3.19 1.42-3.89m-4.08 5.67c-1.59-4.79.18-7.09 2.48-8.86m2.48 6.2c1.07 1.59 1.42 7.26-1.24 9.92m12.76 9.92c1.24-1.42 1.41-2.3.18-4.61s-.18-3.19 1.41-3.89m-4.07 5.67c-1.6-4.79.18-7.09 2.48-8.86m2.48 6.2c1.06 1.59 1.42 7.26-1.24 9.92m-15.24 9.39c1.24-1.42 1.42-2.31.18-4.61s-.18-3.19 1.42-3.89m-4.08 5.66c-1.59-4.78.18-7.08 2.48-8.85m2.48 6.2c1.07 1.59 1.42 7.26-1.24 9.92m12.94 9.57c1.24-1.42 1.41-2.31.17-4.61s-.17-3.19 1.42-3.9m-4.07 5.67c-1.6-4.78.17-7.09 2.48-8.86M134.9 50c1.06 1.6 1.42 7.27-1.24 9.92m-15.42 9.75c1.24-1.42 1.42-2.3.18-4.61s-.18-3.19 1.42-3.9m-4.08 5.67c-1.59-4.78.18-7.08 2.48-8.85m2.48 6.2c1.07 1.59 1.42 7.26-1.24 9.92m12.76 9.74c1.24-1.42 1.42-2.3.18-4.6s-.18-3.19 1.41-3.9M129.76 81c-1.6-4.79.17-7.09 2.48-8.86m2.48 6.2c1.06 1.59 1.42 7.26-1.24 9.92m-15.24 9.57c1.24-1.42 1.42-2.3.18-4.61s-.18-3.19 1.42-3.9M115.76 95c-1.59-4.78.18-7.08 2.48-8.86m2.48 6.21c1.07 1.59 1.42 7.26-1.24 9.92m12.76 9.56c1.24-1.41 1.42-2.3.18-4.6s-.18-3.19 1.41-3.9m-4.07 5.67c-1.6-4.78.17-7.09 2.48-8.86m2.48 6.2c1.06 1.59 1.42 7.26-1.24 9.92m-15.24 9.92c1.24-1.41 1.42-2.3.18-4.6s-.18-3.19 1.42-3.9m-4.08 5.67c-1.59-4.78.18-7.09 2.48-8.86m2.48 6.2c1.07 1.6 1.42 7.27-1.24 9.92m12.76 9.39c1.24-1.41 1.41-2.3.18-4.6s-.18-3.19 1.41-3.9m-4.07 5.67c-1.6-4.78.17-7.09 2.48-8.86m2.48 6.2c.7 1.05 1.09 3.87.52 6.43M22.64 0a7.25 7.25 0 0 1-1.78 3.56M50.81 0A7.25 7.25 0 0 1 49 3.56M78.8 0A7.25 7.25 0 0 1 77 3.56M107.08 0a7.15 7.15 0 0 1-1.77 3.56M135.25 0a7.15 7.15 0 0 1-1.77 3.56"/></pattern><clipPath id="a"><path class="a" d="M0 0h153.43v153.43H0z"/></clipPath><clipPath id="b"><path class="a" d="M3000.91 1536H.91V0h3000z"/></clipPath><symbol id="g" viewBox="0 0 3002.74 1538.41"><g style="clip-path:url(#b)"><path d="M.91 599.52a464.69 464.69 0 0 1 65.29-10.24c31.89-2.7 43.6-.37 97.26-1.33 45.19-.82 68-1.33 80-6.43 26.56-11.25 33.37-26.55 66.1-35 14-3.62 25.08-4 39.78-4.51 33.17-1.16 51.14 3.9 69.89 5.64 28 2.61 30.2-4.75 99.17-19.06 43.19-9 75.57-13 116.12-18 48.61-6 72.89-8.87 86.24-7.12 17.19 2.26 42 7.68 77.67 6.37 24.32-.89 28.8-3.88 79.72-11.65 46.09-7 69.17-10.57 100.25-11.08 27.95-.46 31.65 2 75.51 4.35 65.94 3.5 70.34-1.43 113 1.36 54.67 3.57 61.35 12.56 136.13 24.25 45.76 7.15 53.49 5.38 111.6 11.88 121.11 13.53 134.73 26.48 262.66 42 45.57 5.54 30.54 2.28 123.45 12.15 102.25 10.9 116.48 14.39 196.93 22.16 94.53 9.13 91.5 5.87 128.15 12 73.47 12.21 94.35 26.75 158.06 42.46 40 9.86 101.57 21.34 188 24.06q146.24 32.28 305.15 60 114.59 19.77 223.83 34.75V1536H.91" style="fill:#161515"/><path class="g" d="m793.26 509.89 23.22 41 79.74 13.42 64.84 21.62 35.05 9.33c12.91 24.06 33.8 36.41 50.52 43.24s32.61 9.45 43.61 19.81c10.39 9.8 7.42 18 8.17 28.31 1.71 23.25 20 26 38.16 56.61 23.64 39.79-.49 46.53 24.52 63.68 25.19 17.27 54.35 13.67 79 34 15.16 12.47 6.4 15.69 19.07 34 27.61 39.84 84.08 46 87.21 77.84 1 9.86-4.67 7.07-5.45 21.23-1.32 23.81 14.33 37.09 32.7 67.93 6.87 11.53 3.48 8 19.08 38.57 11.73 23 17.6 34.45 19.7 37.87 13.21 21.46 21.48 28.07 19.06 38.12-2.24 9.32-11.19 11.29-10.59 19.06.44 5.6 5.42 8.63 16.94 16.94 30.54 22 31.77 26.79 31.77 29.65 0 7.91-9.59 15.25-13.91 18.56-6.13 4.7-8.66 4.15-11.5 6.85-13.41 12.71 3.79 61.79 16.94 61.41 7.44-.21 7.34-22.72 14.82-23.3 8.54-.65 6.72 32.41 27.53 53 2.55 2.51 8.63 8 9 15.88.31 6.62-3.77 7.27-4.76 13.76-1.7 11.05 6.88 24.49 19.06 44.47 4.62 7.59-20.63-1-29.65 8.47-7 7.37-4.81 20.3-2.12 36s6.45 21.29 10.59 36a175.08 175.08 0 0 1 6.35 43"/><path class="g" d="m793.26 509.89 44.25 16 156.86 33.18 122.68 22.52 58.55 11.58c4.89 6 11.89 14.29 20.92 24 14.16 15.23 26.28 26.42 40.88 39.63 40.32 36.49 60.48 54.73 70.86 60.85 31.72 18.73 38.52 13.31 79 34 62.34 31.8 46.45 44.75 89.93 59.44 47.89 16.18 74.2 2.85 144.44 22.64 11.36 3.21 36.62 10.86 62.68 24.06 39.17 19.84 32.94 28.27 76.3 59.44 40.34 29 58.12 30.61 76.31 53.78 15.41 19.63 5.42 22 19.08 32.55 9.67 7.47 25.21 14.41 149.89 32.55 46.26 6.73 72.53 9.91 98.1 22.65 4 2 16.12 9.28 30 21.58 34.61 30.72 40 59 65.5 100 14.36 23.09 27.93 38 55.06 67.76 27.42 30.1 56.12 61.6 100.24 91.77 39.71 27.15 46.71 22.32 66.35 43.76 21.16 23.11 29.17 37.44 50.82 69.18a645.44 645.44 0 0 0 67.77 83.18"/><path d="M793.26 509.89s64.79 11.25 67.27 11.41 57.93 5 57.93 5 67.85 5 69.09 5.3 80.24 2.26 80.24 2.26 58.86-1.45 60.72-.81 91.39-1.93 95.73-1 54.22 5.15 54.22 5.15 85.5 19.14 88.29 19 24.78 4.34 24.78 4.34c16.73 4 34.48 9.84 50.26 18.46 19.9 10.87 18.89 16.49 40.88 28.3 14.79 8 18 6.88 49 19.82 8.85 3.68 31.61 13.21 51.78 24.06 29.88 16.06 28.69 21.37 51.78 35.38 29 17.56 59.7 26.74 98.11 38.21 41.33 12.34 52 11.72 92.66 25.47a559.53 559.53 0 0 1 54.5 21.23c58.76 26.91 48.18 38 87.21 50.95 18.74 6.2 19.71 3.15 119.91 17 36.74 5.08 55.1 7.61 68.13 9.91 84 14.82 106.7 37.77 182.59 60.86 13.84 4.21 2.65.11 133.54 26.89 6.15 1.25 37.1 7.67 76.28 20 36.06 11.33 48.16 17.94 55.76 22.59 25.53 15.63 23.33 23.39 40.94 29.65 26.65 9.47 40.87-5 64.94 4.23 13.82 5.32 14.69 13.17 33.18 30.36 10.23 9.5 22.52 19.82 52.24 36.12 25.78 14.14 47.16 21.15 60.7 25.52 27.73 9 33.21 3.77 50.83 12.71 14.91 7.57 20.47 15.13 35.29 28.24a316.87 316.87 0 0 0 58.82 40.94" style="stroke-width:7.65px;stroke-miterlimit:8.09;stroke:#d9b776;fill:none"/><path d="M.91 599.52a484.56 484.56 0 0 1 98.94-12c26.77-.41 45.1 1.65 86.47-.35 28.88-1.39 43.32-2.09 57.18-5.65 42.1-10.79 44.23-29.08 78-39.52 39.49-12.21 44.43 7.79 107.3 4.94 17.07-.78 14.06-2.73 89.64-18.36 27.14-5.6 49.38-9.87 63.89-12.59l36.56-3.7 99.44-10.78 30.67 1.55 44.25 6.83 49.51-8 56.09-5.89 82.37-7.28 72.73 2.73s39 2.73 44.25 3.41 68.78-2.05 68.78-2.05l114.35 20.48 48.64 8.42 99 5.23 128.37 18.66A700.65 700.65 0 0 0 1668 567.69c29.18 3.41 36.51 2.43 76.3 7.08 45.06 5.26 49.92 8.21 95.39 14.15 35.36 4.62 31.79 2.75 100.83 9.9 74 7.67 67.18 8.68 103.56 11.33 42.16 3.06 54.35 1.93 81.76 7.07 21.25 4 27.36 7.2 60 17 40.92 12.29 66.2 19.88 98.11 25.48 5.53 1 1.64.19 25.89 3.8 42.36 6.3 66.68 10.45 82.52 12.92 40.57 6.34 51 5.33 98 11.23 30.39 3.81 53.15 7.68 68.82 10.37 20.36 3.48 43.17 7.78 128.12 26.47 23.65 5.2 39 8.6 51.65 11.44 8.42 1.88 14.57 3.27 15 3.38 18.61 4.19 82.22 14.78 246.94 39.18" style="stroke-width:8.35px;stroke-miterlimit:8.09;stroke:#d9b776;fill:none"/><path d="M547.12 537.32c27.77-10.55 26.28-2.16 103.62-12.79 0 0 46-7.86 72.22-2.12 4 .87 18.49 4 29.3 11.67 6.9 4.88 10 9.95 13.62 15.93 4.19 6.88 2.56 7.13 6.14 12.73 3 4.67 14 15.46 15 18 10.25 28.25-144.68 77.68-144.68 77.68-93.91 72.37-176.84 103.87-234.91 119.29-75.72 20.1-141.77 21.5-270.52 62.87C76.51 860 37.13 877 38.09 880.11c2.26 7.29 274.69-90.57 293.69-51.62 2.22 4.51-.27 8.4-60.78 80.51-63 75.07-92.31 109.11-128.47 112.26-6.15.54-24.85 1.25-25.41 5.65-.53 4.13 15.31 9.27 16.14 9.54 47.28 15.34 115.77-105.13 168.67-92.06 43.09 10.66 56.51 105.17 66.48 102.28 3.47-1 3.64-12.94 2.1-24.35-8.18-60.65-60.34-75.2-61.39-116.83-.85-33.66 32.23-65.89 45.17-62.11 13.85 4 14 52 13.24 52.07s-15.68-43 3.71-73.25c1.1-1.72 4.14-6.25 11.29-12.71 27.12-24.48 59.22-27.85 88.94-35.29 57.92-14.49 55.28-31.53 83.3-32.47 41.81-1.4 68.93 35.88 134.11 112.94C776.26 958 849.64 1035.33 851.27 1034c.71-.59-10.53-17.71-25.14-35.09-16.58-19.74-26-26.07-24.07-30.84 3.38-8.55 38.75-1.58 54.85 1 85.68 13.63 97.43-22.65 179.3-16.94 0 0 85.87 6 182.11 60.71a471.18 471.18 0 0 0 55.06 26.82c6.77 2.78 30.58 12.37 31.06 11.3 1.21-2.69-124.29-113.89-275.29-112.94-70.75.44-229.83 26-248.82 3.59-.4-.47-5.4-6.48-12.6-14.89-8.89-10.38-16.16-18.63-20.93-24-18.71-21.07-63.92-71.09-93.18-104.47-36.22-41.32-54.33-62.12-54.68-69-.91-18.05 12.34-66.12 224.85-131.77 4.91-.58 10.11-1 15.6-1.31 6.21-.32 13.36-.43 21.2-.11 0 0 5.11.21 12.7 1a239.28 239.28 0 0 1 27.49 4.33c14.76 3.28 28.83 6.41 37.47 13.44 1.59 1.29 4.06 6.36 8.92 16.45 5.33 11 6.86 14.62 10.84 20 1.31 1.76 9.81 13.21 13.63 12.73 5.36-.67-1.86-24.39 2-24.76 3.55-.34 8.59 19.37 23.85 20.52 8.53.64 12.64-5.11 21.8-5.31 19.06-.42 35.37 23.67 36.79 25.83 37.06 56.08-9.22 148.77 2 150.37 2.68.38 7.44-4.55 9.54-6.73 16.48-17 10.6-34.83 9.54-38.21-16.61-52.81 34.49-104.07-21.8-130.91-29.54-14.08-59.86-7.71-86.66-27.36-17.57-12.88-11.42-21.6-33.25-30.66-11.21-4.65-30.79-7.65-69.49-13.45-45.29-6.78-55.62-7-65.41-13.44-10.49-6.91-14.72-17.27-16.8-22.39-4.17-10.2-1.56-14.45-9.09-19-11.73-7.09-31.62-5-32-7.43-.53-3.17 32.31-11.72 49-5.66 18.74 6.78 1 26.71 24.71 35.51 6.58 2.44 10.81 2.26 25 4.2a399.35 399.35 0 0 1 63.41 14.07c43.9 7.22 68.6 18 83 26.45 25.71 15 24.41 25.9 58.81 42.89 24.31 12 32.59 10.36 43.61 19.81 16.16 13.87 5.2 23.3 13.06 44.5 7.38 19.9 19.13 17.31 33.27 40.42 21 34.3-.93 46.57 24.52 63.68 20.1 13.51 36.49 7.72 61.63 23.32 21.41 13.28 10.82 18.28 36.48 44.61 20 20.5 46.64 38.24 48 39.12 19 12.54 25.48 14.07 31.66 22.27a24.66 24.66 0 0 1 4.61 9.41c2.44 10.83-2.23 16.29-2.47 28.27-.16 7.93 2 13.54 5.45 22.76a94.9 94.9 0 0 0 14.87 25.88c4.52 7.38 11.74 19.43 20.1 34.67 23.47 42.81 17.82 41.36 31.06 61.06 12 17.9 21.38 26.06 19.06 38.12-2 10.37-10.88 11.29-10.59 19.06.82 21.71 49.19 29.18 48.71 46.59-.32 11.61-21.94 11.82-29.65 30.17-9.72 23.15 10 57.61 21.18 56.65 7.9-.69 9.17-23.63 14.82-23.3s1.62 22.68 16.94 41.3c8.3 10.08 16.62 12.2 18.5 22.38 1.48 8-3 10.06-3.67 18.91-1.66 21.94 23.86 36.18 19.06 44.47-2.57 4.43-10.15.9-23.83 8.21-5 2.66-8.31 4.44-10.59 7.41-10 13 9.74 36.55 17 75.17A156.55 156.55 0 0 1 1512 1536H.91V599.52a424.28 424.28 0 0 1 74.77-11.11c41.18-2.42 54.14 2.87 103.23.53 39.43-1.89 59.14-2.83 80.21-11.65 35.94-15 35.54-31.86 62.38-35.29 32.16-4.12 70.47-1.58 76.32 15.44 4.7 13.64-12.88 31.29-23.73 41.73-85.13 81.94-214.71 206.67-272.47 168C61.57 740.35 78.31 649.86 69.15 650c-5 .07-12.59 27.49-8.47 56.47 5.22 36.76 24.3 41.44 24.2 65.86-.18 44.35-63.33 78.9-59.5 83.78 1.51 1.92 11.21-3.4 12.71-4.23 34.69-19.22 51.43-40.48 66.35-52.24 23.79-18.74 42.84-13.26 73.41-21.17 110-28.48 205.21-187.91 240.31-206.94 12.2-6.62 26.25-12.51 26.25-12.51 6.92-2.89 11.62-4.95 16.94-6.35 16.49-4.31 27.57-1.33 38.65-1.06 18.52.47 27.53-6.85 47.12-14.29z" style="opacity:.7;fill:url(#c)"/><path d="M1392.74 1080.36c-5-13.21-9.8-24.7-14-34.23-3.5-7.9-6.93-15.43-14.31-30.25-4.41-8.85-6.61-13.27-10.22-19.63-7.79-13.73-8.54-12.63-9.72-16.73-3.3-11.5 4.52-13.62 1.94-26.89a41.07 41.07 0 0 0-7.59-16.45c-1.23-1.62-5.88-7.57-16.31-15-10.26-7.33-18.51-10.69-25.63-14.45-15.26-8.06-21.65-16-33.13-30.39-20.47-25.59-8.74-28.61-24.3-39-18.84-12.61-34.58-7.22-61.34-22.49-5-2.85-22.16-13.16-30-28.79-5.16-10.27-1.16-12.6-3.4-24.77-3.83-20.82-17-22.21-33.39-54.49-5.73-11.3-9.62-19-11.48-30.1-2.71-16.12 2.38-18.41-3.51-24.74-11.93-12.8-39.48-10.59-66.06-22.68-11.85-5.39-26.91-15.16-34.15-34a806.182 806.182 0 0 1-49.17-13.72c-32.5-10.2-32.14-12.5-50.72-17.23-41.35-10.51-60.28-3.49-79.74-13.42-19.74-10.08-22.22-28.71-12.61-32 6.55-2.22 22.5 1.4 27.37 7 5.14 5.88-4.65 11 1.88 17.11 4.56 4.28 13.65 5.83 14 5.57s-10.77-3.47-11.75-8.75c-.08-.42 0-.45 1.53-5.71s1.69-5.9 2.81-6.3c3.12-1.13 7.55 1.22 19.29 3.85 13.2 2.95 18.1 2.34 21.57 5.22a5.42 5.42 0 0 1 1.79 6.54c-2.27 5.08-12.54 8-11.95 8.4s6.78-2.65 10.56-1.68 3.08 5.32 3.58 5.31c.9 0-1.53-13.82 6-15.21a33.31 33.31 0 0 1 5.85.42c6.52.69 9.9 1 11.7 2.14 2.84 1.84 2.47 4.14 2.38 4.6-.52 2.63-3.78 3-5.45 6.81-.75 1.7-.54 2.63.24 3.36 1 .9 2.51 1.21 4.19 1.68 4.52 1.28 4.36 2.12 9.42 4.15 5.31 2.13 10.86 3.36 11.19 3.11.53-.42-13.17-4.42-18.22-11.24a4.56 4.56 0 0 1-1-2.85c.12-3.83 6.28-7.56 9.71-7.14 1.37.17 1.14.85 2.9 1.77 4.46 2.33 10.59.33 14.93 2.23.74.32 1.78 2.24 3.85 6.08s2.4 4.66 1.56 5.57c-1.77 1.93-7 2.53-6.72 2.92s3.13-.39 4.6.27c2.34 1-.82 4.68-.34 4.78.33.06 2.38-1.54 3.75-3.81 4.55-7.52-3.44-14-.19-15 1.69-.54 4.3 1.06 12.78 3.58 8 11.52 18.38 19.44 26.75 24.67 8.94 5.58 18.27 9.78 18.74 9.55.65-.31-16.09-9.17-13.82-10.59 2.64-1.65 28.33 8.3 30.17 7.06 1-.7-5.23-5-14.65-7.43-5.91-1.52-7-.73-12.6-2.13-10.71-2.69-15.59-7.84-17.65-10-2.83-3-6-6.3-3.61-7.79 3.77-2.4 19.56 1.11 30.12 3.83 14.07 10.29 23.26 15.17 29.29 17.69A8.28 8.28 0 0 1 1033 580c6.59 6.1-16 18.87-15.22 19.19.45.17 5.41-4.76 11.24-4.6 5 .13 7 3.85 16.35 11.14 6.71 5.2 7 4.32 10.45 7.34 10.85 9.5 9.07 19.22 11 19.2 1.13 0 2.73-3.28 2.39-7.08-.17-1.79-1.19-8.53-18.06-19.81-11.26-7.54-18.26-9.52-17.6-13.89.42-2.78 3.88-6 8.38-6.42 5.77-.5 9.07 4.06 24.21 13.23 12 7.26 14 6.9 22.82 13.09 6.52 4.59 6.7 5.7 13 9.38 7.19 4.23 9.61 4.32 17.37 8.84 8.38 4.88 12.88 7.5 12.61 11-.23 2.82-3.38 3.16-7.5 8.32s-5.15 10.07-4.09 10.26c2 .35 12.1-16.2 19.08-15.57 2.26.2 2.16 2 6.81 4.95s11.23 5.26 12.27 4.78c3.25-1.51-46.22-32.88-51.39-36.12-2.74-1.72-5.55-3.46-5.55-3.46s-6.41-4-12.9-7.81c-16.52-9.84-77.26-39.82-72.51-43 1.42-1 7.29 1.47 40.15 7.94 12.79 2.52 24.41 4.62 26.63 5 8.25 1.49 15.7 2.76 18.6 3.25 5.6 1 8.34 1.4 11 1.84 19.7 3.32 29.56 5 31.54 6.58 8.64 7-17.77 24.08-15.85 24.71.8.26 4.31-3.09 9.2-3s8.43 3.68 10 5.12c12.48 11.81 35 10.8 41.14 20.53 5.31 8.5-7 17.09-5.8 17.34s14.4-7.41 12.61-15.93c-3.11-14.78-48.23-16.71-51.27-32-1.18-5.92 4.08-13.3 11.16-14.12 4.32-.5 8.77 1.5 11.49 2.93 44.45 23.35 70.74 63.68 70.74 63.68 16 16.72 41.47 40.42 80.51 67.41 26.34 8.28 62.79 21.81 96.39 43 42.71 26.89 33.13 36.08 65.08 48.84 56.21 22.44 104.71 1.53 172.2 26.54 27.56 10.21 47.26 24 56.21 30.25 25.06 17.53 24 24.28 52.85 44.39 23.12 16.1 26.94 14 45.83 28.7 9.23 7.21 10.68 9.58 37.48 35.81 18.44 18 27.76 27.12 32.47 29.61 15.85 8.41 29.35 9.19 93 18.05 84.54 11.77 100.29 15.91 113.44 20.7a161.75 161.75 0 0 1 51.15 30.24c4.09 3.6 13.64 12.41 31.49 38 32.92 47.25 32.46 63.29 61.62 99.11.62.75 9.56 10.71 27.45 30.62 28.74 32 35.1 38.85 44.29 47.47a392.9 392.9 0 0 0 35.24 29.22c38.65 29 51.54 30 74.58 46.91 23.22 17.09 25.43 27.38 66.3 82.52 14.87 20 36.62 48.42 64.77 81.77H1512a170.19 170.19 0 0 0-3.17-28.65c-2.62-13.23-5.21-18-8.54-29.49-6.28-21.79-13.35-46.32-3.11-56.81 9.22-9.44 26.31-1.2 29.65-8.47 4-8.83-20.93-21.61-19.42-42.13.69-9.41 6.19-10.08 5.75-18.86-.63-12.62-12.19-15-22.76-32-11-17.67-10.39-34.24-14.4-34-4.47.24-3.47 20.79-11.64 22.9-6.32 1.64-14.77-8.6-18.53-15.62-2.64-4.91-3.44-9.8-5-19.58-1.88-11.48-2.81-17.21-.8-21 3.38-6.43 9-4.67 18.27-12.84 4.47-3.94 11.52-10.16 11.38-17.33-.09-4.85-3.44-8.59-23.82-23.83-19.39-14.49-24-16.8-24.89-22.76-1.36-9.12 8-12.79 9.53-23.83 1.13-8.42-2.59-19.35-18-33.35" style="opacity:.6;fill:url(#d)"/><path d="M2134 1080.36c-5.31-5.54-14.55-13.73-30-21.58-24.51-12.48-61.54-18.27-134.61-29.36-76.66-11.64-97.18-14.65-113.38-25.84-15.56-10.74-18.86-23.31-19.08-32.55a238.41 238.41 0 0 0-30.46-25.03c-21.25-14.85-30.38-16.83-45.83-28.7-21.86-16.8-12-19.35-32.2-35.45-13.2-10.54-29.64-18.12-62.5-33.28-22.14-10.21-33.2-15.32-44.67-18.47-25.16-6.92-37.33-5.23-81.08-11-35.28-4.64-52.93-7-66.77-11.68-32.16-11-25.05-21.26-64.72-44.22-5.07-2.93-23.09-11.25-59.14-27.87-34.27-15.81-42.27-19-53.62-27.15-8.23-5.94-9.15-8-30-28.66-21.82-21.66-20.53-19.15-30-29-33.12-34.61-31.76-47.6-60.39-57.28-5.68-1.92-7-1.83-33.67-6.66-34.15-6.18-67.63-13.31-101.47-19.92-132.25-25.86-214.65-42-212.39-46.1 2.15-3.91 95.63 8.89 159.48 11.06 15.79.54 23.16 1.19 37.91 2.49 29 2.57 39.49 5 45.14 6.55 11 3 12 5.89 23.55 8.09 7.36 1.4 10.37 1.07 22.95 3 1.08.17 10 1.59 19.42 3.72a241.65 241.65 0 0 1 30.31 9c42.19 15.06 38.7 12.33 51.44 17.87 20.1 8.73 31.06 13.49 38.16 21.93 11.94 14.22 5.33 29.86 7.49 29.9.58 0 1.31-1.58 2.73-4.77 2.23-5 3.35-7.55 3.74-10.09 0 0 .89-5.79-3.74-12.91-10.69-16.4-92.5-40.06-87.89-46.7 2.35-3.39 24.64 1.28 66.26-3.14 9-1 15-1.92 24.86-1.77 20.58.31 35 5.63 41.39 6.9 35.43 7 97.46 18.63 98.62 17.24s-52.46-14-85.33-21.76c-34.66-8.2-40.44-9.09-49.06-9.36-28-.88-35.77 6.36-73.77 7.3a330.93 330.93 0 0 1-47.09-2.34c-24.71-2.77-39-6.91-47.08-9.7-6.4-2.2-19.77-6.8-18.06-9.38s16.87-1.47 42-.58c28.8 1 57.72.83 86.57 1.38 43.67.82 49 .64 60.44 2.7 20.48 3.68 23 7.47 46.38 13.57 36.48 9.52 43.53 3.72 75.27 12 34.19 8.88 55.82 23.34 61.45 27.18 12.34 8.42 12.68 11.65 26.77 19.55 14.7 8.25 25.41 11 43.39 17.64a517.81 517.81 0 0 1 62.29 29c27.55 15.21 34.13 24.35 49.81 35.33 56 39.2 127.75 32 220 72.76a522.63 522.63 0 0 1 53.34 27.15c28 16.92 26 20.81 42.73 28.57 25.47 11.8 49.37 11.71 109 18.4 33.06 3.71 74.44 8.35 109.56 15.46a360 360 0 0 1 46.3 12.24c50.36 17.26 65.43 27.25 101.47 40.27 10.25 3.7 5.57 1.49 114.88 23.55 25.35 5.11 63 12.83 107.12 27.17 29.63 9.64 40.82 15.33 50.74 21.83 23.38 15.31 23.78 24.67 41.2 29.35s23-3 52.41 2.12c16.41 2.85 23.65 6.8 26.47 8.47 11.72 6.92 14.88 14.33 24 25.06 12.07 14.19 25.46 21.5 52.24 36.12a318.56 318.56 0 0 0 43.94 19.88c42.05 15.24 49 7.55 72.53 20.82 18.34 10.35 17.1 16.72 45.31 38.34a328.11 328.11 0 0 0 43.86 28.37V1536h-461.18" style="opacity:.5;fill:url(#e)"/><path d="M2382.68 918.58s-58.75-13.67-105.66-33.52l-3.55-1.49c-3.83-1.59-9.91-4.06-17.46-6.89-8.65-3.25-19.28-7-31.93-10.84 0 0-5.54-1.7-14-4.05 0 0-15.26-4.22-31.62-8-64.87-14.86-127.88-19.59-127.88-19.59-41.92-3.15-56.79-1-82.8-11.8a160 160 0 0 1-35.14-20.16c-14.93-9.91-18.28-14.19-31.68-21.76-7.51-4.24-15.94-8.25-37.13-16.27-40-15.15-74.1-25.15-81-27.14-49.09-14.29-48-11.12-80.13-21.68-30.43-10-49.79-16.37-67.44-28.85-15.42-10.91-13.21-15-31.73-26.8-5.17-3.3-12.85-7.79-46-21.81-51-21.56-52.1-19.1-69.24-28.47-25.3-13.83-20.19-17.73-46.54-30.48-5.36-2.6-23.19-11-50.26-18.46-16.1-4.45-18.39-3.88-65.19-13.55-34.18-7.07-35.15-7.83-47.88-9.77-24.29-3.71-44.38-4.53-63-5-55.73-1.42-87.09.6-129 1-16.88.15-57 .11-108-2.79-26.75-1.52-69.86-4.07-70.13-8.36-.19-2.93 19.76-5.47 23.62-6 26.37-3.35 47.86-.82 60.57.36 30.76 2.88 21.19-1.06 125.65-.23 27.28.21 40.93.32 50.76.7 59.75 2.33 76.43 9.05 162.41 19.51 64.24 7.82 69.23 5.82 90 12.27 47.42 14.73 67.33 43 71.18 41.82 1.81-.55-2.52-6.74-8.18-12.39-16.83-16.78-41.06-24.31-39.42-25.58s28.43 4.88 70.76 19.57c56.86 19.73 87.87 36.14 89.25 35.38s-29.33-21.36-80.05-39.45c-14.58-5.2-47.91-16.3-96.23-24.86-52.74-9.34-53.72-3.33-119.4-12.47-62.61-8.71-75.17-16.37-132.18-20.16-19.22-1.29-34.27-1.57-64.38-2.13-86.79-1.62-80.32 3.38-133.6.84-29.66-1.41-48.11-3.75-70.79 1.64-13.85 3.29-18.26 6.84-32.71 8.67-25.74 3.26-56.81-2.29-57.4-7.34-.95-8.24 78.48-20.73 150.53-22.41 41.73-1 40.07 2.56 117.23 2.5 42.47 0 60.65-1.11 91.65 2.39 27.13 3.06 27.37 5.49 73 13.77 41.28 7.51 71 12.92 110.82 15.69 41.67 2.9 55.8.22 92.55 6.39 16.2 2.72 19.13 4.2 42.86 8.2 34.1 5.76 46.54 5.84 70 9.46 36.91 5.68 41.77 11 75.24 18.23 37.82 8.21 57.83 7.15 109.17 11.32 57.91 4.7 75.41 9.53 138.14 17.69 49.77 6.47 123.07 14.4 218.7 19.11 21.85 5.55 54.35 13.92 93.65 24.4 12.52 3.34 23.25 6.23 32.39 8.71 22.33 6.06 37.69 10.29 40.37 11 41.17 11.27 102.78 18.72 124.8 21.29 68.85 8 74.76 6.09 117.88 11.29 35.83 4.32 46.93 7.48 148.23 28.23 99.78 20.45 150.81 30.87 206.83 40.24 54.69 9.15 99.57 15.12 128.7 18.71v408.94a403.86 403.86 0 0 1-35.62-22.39c-37.7-26.55-35.79-35-58.49-46.79-25.36-13.21-33.68-5.82-76.06-22.06a313.57 313.57 0 0 1-35.47-16.17 171.85 171.85 0 0 1-42.67-27.75c-21.71-19.4-24.47-32.36-42.75-38.73-15.4-5.36-21.17 1.16-41.25-1-25.12-2.71-40.86-15.58-55.8-25.47-23.47-15.52-50.21-24.09-103.69-41.23-38.45-12.28-27.26-4.1-126.41-27.18z" style="opacity:.4;fill:url(#f)"/></g></symbol><style>.a,.b,.g{fill:none}.b,.g{stroke:#d9b776}.b{stroke-miterlimit:11.34;stroke-width:1.42px}.g{stroke-miterlimit:8.09;stroke-width:6.96px}</style></defs><use width="3002.74" height="1538.41" transform="translate(-.91)" xlink:href="#g"/></svg>