<svg xmlns="http://www.w3.org/2000/svg" xmlns:xlink="http://www.w3.org/1999/xlink" width="1920" height="1920" viewBox="0 0 1920 1920"><defs><style>.a,.b,.c{fill:none;}.b,.c{stroke:#d9b776;stroke-miterlimit:11.34;}.b{stroke-linecap:round;stroke-width:1.98px;}.c{stroke-width:1.42px;}.d{clip-path:url(#a);}.e{fill:#161515;}.f{opacity:0.4;fill:url(#b);}.aa,.ab,.ac,.ad,.ae,.af,.ag,.ah,.ai,.aj,.ak,.al,.am,.an,.ao,.ap,.aq,.ar,.as,.at,.au,.av,.aw,.ax,.ay,.az,.ba,.bb,.bc,.bd,.be,.bf,.bg,.bh,.bi,.bj,.bk,.bl,.bm,.bn,.bo,.bp,.bq,.br,.bs,.bt,.bu,.bv,.bw,.bx,.by,.bz,.ca,.cb,.cc,.cd,.ce,.cf,.cg,.ch,.ci,.cj,.ck,.cl,.cm,.cn,.co,.cp,.cq,.cr,.cs,.ct,.cu,.cv,.cw,.cx,.cy,.cz,.da,.db,.dc,.dd,.de,.df,.dg,.dh,.di,.dj,.dk,.dl,.dm,.dn,.do,.dp,.dq,.dr,.ds,.dt,.du,.dv,.dw,.dx,.dy,.dz,.ea,.eb,.ec,.ed,.ee,.ef,.eg,.eh,.ei,.ej,.ek,.el,.em,.en,.eo,.ep,.eq,.er,.es,.et,.eu,.ev,.ew,.ex,.ey,.ez,.fa,.fb,.fc,.fd,.fe,.ff,.fg,.fh,.fi,.fj,.fk,.fl,.fm,.fn,.fo,.fp,.fq,.fr,.fs,.ft,.fu,.fv,.fw,.fx,.fy,.fz,.g,.ga,.gb,.gc,.gd,.ge,.gf,.gg,.gh,.gi,.gj,.gk,.gl,.gm,.gn,.go,.gp,.gq,.gr,.gs,.gt,.h,.i,.j,.k,.l,.m,.n,.o,.p,.q,.r,.s,.t,.u,.v,.w,.x,.y,.z{fill:#d9b776;stroke:#161515;stroke-miterlimit:13.97;}.g{stroke-width:2.16px;}.h{stroke-width:2.03px;}.i{stroke-width:2.23px;}.j{stroke-width:1.95px;}.k{stroke-width:2.06px;}.l{stroke-width:2.32px;}.m{stroke-width:2.02px;}.n{stroke-width:2.1px;}.o{stroke-width:2.27px;}.p{stroke-width:2.05px;}.q{stroke-width:2.24px;}.r{stroke-width:1.99px;}.s{stroke-width:2.15px;}.t{stroke-width:2.08px;}.u{stroke-width:2.27px;}.v{stroke-width:2.13px;}.w{stroke-width:1.97px;}.x{stroke-width:1.98px;}.y{stroke-width:2.07px;}.z{stroke-width:2.21px;}.aa{stroke-width:2px;}.ab{stroke-width:2.14px;}.ac{stroke-width:2.23px;}.ad{stroke-width:2.1px;}.ae{stroke-width:2.15px;}.af{stroke-width:1.95px;}.ag{stroke-width:2.2px;}.ah{stroke-width:2.02px;}.ai{stroke-width:2.26px;}.aj{stroke-width:2.27px;}.ak{stroke-width:2.01px;}.al{stroke-width:2.21px;}.am{stroke-width:2.3px;}.an{stroke-width:2.23px;}.ao{stroke-width:2.02px;}.ap{stroke-width:2.29px;}.aq{stroke-width:1.96px;}.ar{stroke-width:2.12px;}.as{stroke-width:2.31px;}.at{stroke-width:2.21px;}.au{stroke-width:2.02px;}.av{stroke-width:2.26px;}.aw{stroke-width:2.01px;}.ax{stroke-width:2.07px;}.ay{stroke-width:1.97px;}.az{stroke-width:2.3px;}.ba{stroke-width:1.98px;}.bb{stroke-width:2.26px;}.bc{stroke-width:2.25px;}.bd{stroke-width:2.19px;}.be{stroke-width:2.2px;}.bf{stroke-width:2.18px;}.bg{stroke-width:2.16px;}.bh{stroke-width:2.25px;}.bi{stroke-width:2.03px;}.bj{stroke-width:2.01px;}.bk{stroke-width:2.32px;}.bl{stroke-width:2.2px;}.bm{stroke-width:2.03px;}.bn{stroke-width:1.99px;}.bo{stroke-width:2.26px;}.bp{stroke-width:2.23px;}.bq{stroke-width:2.08px;}.br{stroke-width:2.29px;}.bs{stroke-width:1.95px;}.bt{stroke-width:2.19px;}.bu{stroke-width:2.05px;}.bv{stroke-width:1.98px;}.bw{stroke-width:2.02px;}.bx{stroke-width:1.97px;}.by{stroke-width:1.94px;}.bz{stroke-width:2.19px;}.ca{stroke-width:2.22px;}.cb{stroke-width:2.19px;}.cc{stroke-width:2.01px;}.cd{stroke-width:2.05px;}.ce{stroke-width:2.27px;}.cf{stroke-width:2.17px;}.cg{stroke-width:2.31px;}.ch{stroke-width:2px;}.ci{stroke-width:2.09px;}.cj{stroke-width:1.98px;}.ck{stroke-width:2.23px;}.cl{stroke-width:2.07px;}.cm{stroke-width:2.06px;}.cn{stroke-width:2.27px;}.co{stroke-width:2.27px;}.cp{stroke-width:1.94px;}.cq{stroke-width:2.04px;}.cr{stroke-width:2.02px;}.cs{stroke-width:2.28px;}.ct{stroke-width:2.11px;}.cu{stroke-width:2.29px;}.cv{stroke-width:2.12px;}.cw{stroke-width:2.03px;}.cx{stroke-width:2.13px;}.cy{stroke-width:2.18px;}.cz{stroke-width:2.03px;}.da{stroke-width:2px;}.db{stroke-width:2px;}.dc{stroke-width:2.3px;}.dd{stroke-width:2.05px;}.de{stroke-width:1.99px;}.df{stroke-width:2.27px;}.dg{stroke-width:2.25px;}.dh{stroke-width:1.99px;}.di{stroke-width:2.02px;}.dj{stroke-width:2.02px;}.dk{stroke-width:1.99px;}.dl{stroke-width:2.17px;}.dm{stroke-width:2.28px;}.dn{stroke-width:2.29px;}.do{stroke-width:1.96px;}.dp{stroke-width:1.97px;}.dq{stroke-width:2.07px;}.dr{stroke-width:1.97px;}.ds{stroke-width:2.27px;}.dt{stroke-width:2.28px;}.du{stroke-width:2.11px;}.dv{stroke-width:1.98px;}.dw{stroke-width:2.09px;}.dx{stroke-width:2.28px;}.dy{stroke-width:2.1px;}.dz{stroke-width:2.3px;}.ea{stroke-width:2.22px;}.eb{stroke-width:2.24px;}.ec{stroke-width:2.09px;}.ed{stroke-width:2.06px;}.ee{stroke-width:2.22px;}.ef{stroke-width:2px;}.eg{stroke-width:2.1px;}.eh{stroke-width:2.04px;}.ei{stroke-width:2.17px;}.ej{stroke-width:2.21px;}.ek{stroke-width:2.04px;}.el{stroke-width:2.09px;}.em{stroke-width:2.07px;}.en{stroke-width:2.17px;}.eo{stroke-width:1.98px;}.ep{stroke-width:2.08px;}.eq{stroke-width:2.08px;}.er{stroke-width:2.18px;}.es{stroke-width:2.09px;}.et{stroke-width:2.16px;}.eu{stroke-width:2.3px;}.ev{stroke-width:2.15px;}.ew{stroke-width:1.95px;}.ex{stroke-width:2.01px;}.ey{stroke-width:2.23px;}.ez{stroke-width:2.22px;}.fa{stroke-width:2.12px;}.fb{stroke-width:2.15px;}.fc{stroke-width:2.17px;}.fd{stroke-width:2.08px;}.fe{stroke-width:2.09px;}.ff{stroke-width:2.19px;}.fg{stroke-width:2.15px;}.fh{stroke-width:2.24px;}.fi{stroke-width:2.01px;}.fj{stroke-width:2.02px;}.fk{stroke-width:1.98px;}.fl{stroke-width:2.32px;}.fm{stroke-width:1.97px;}.fn{stroke-width:1.94px;}.fo{stroke-width:2.25px;}.fp{stroke-width:2.21px;}.fq{stroke-width:1.96px;}.fr{stroke-width:2.08px;}.fs{stroke-width:2.11px;}.ft{stroke-width:2.19px;}.fu{stroke-width:2.28px;}.fv{stroke-width:2.1px;}.fw{stroke-width:1.96px;}.fx{stroke-width:2.05px;}.fy{stroke-width:2.16px;}.fz{stroke-width:1.94px;}.ga{stroke-width:2.16px;}.gb{stroke-width:2.23px;}.gc{stroke-width:2.02px;}.gd{stroke-width:1.95px;}.ge{stroke-width:2.08px;}.gf{stroke-width:2.28px;}.gg{stroke-width:2.22px;}.gh{stroke-width:2.24px;}.gi{stroke-width:2.27px;}.gj{stroke-width:1.96px;}.gk{stroke-width:2.29px;}.gl{stroke-width:2.04px;}.gm{stroke-width:2.27px;}.gn{stroke-width:1.99px;}.go{stroke-width:2.13px;}.gp{stroke-width:2.04px;}.gq{stroke-width:2.29px;}.gr{stroke-width:1.98px;}.gs{stroke-width:2.17px;}.gt{stroke-width:2.25px;}</style><clipPath id="a"><path class="a" d="M0,0H1920V1920H0Z"/></clipPath><pattern id="b" width="241.06" height="241.06" patternTransform="translate(374.41 264.81) scale(0.8 1.42)" patternUnits="userSpaceOnUse" viewBox="0 0 241.06 241.06"><rect class="a" width="241.06" height="241.06"/><path class="b" d="M5.07,7.42h0m9-1h0m9.62-1.59h0m8.51-1.42h0M4.6,13.68h0m8-.36h0m9-1.24h0m9-2.24h0m-26,9.68h0m7.44-.7h0m7.44-1.07h0M49.78,8h0M3.89,25.55h0m6.38-.71h0m6.26-.95h0m6.38-1.41h0m6.37-1.18h0m6.15-1.89h0m5.9-1.89h0m6.14-2.13h0m6.15-2.6h0m5.43-2.36h0m5.43-3.07h0m11.81-.89h0m-4.78,3h0m-5,2.48h0m-5,2.84h0m-5.14,2.13h0m-5.31,2.48h0m-5.32,1.94h0m-5.31,2.13h0m-5.32,1.59h0m-5.14,1.42h0m-5.67,1.6h0m-5.49.71h0m-5.67,1.06h0m-5.67.35h0m-5.49.18h0M5.6,33.93h0M1.94,37.77h0m19.84,8h0m-5.84.18h0m-6,.18h0m-6.37-.53h0m6.73,9h0m-8.15-.35h0m16.3.53h0m8-.35h0m7.09-.71h0m6.73-1.07h0m15.24,5.5h0m5.67-1.78h0M48.71,59.56h0M42.16,60.8h0m-7.44.89h0m-7.09.71h0m-15.24.35h0m7.27,0h0M4.78,62.58h0M5.84,72.5h0m16.48,8h0M4.78,81h0M14,80.82h0m35.79-3h0m-9,1.24h0m-9,.89h0m26.22-3.55h0M9.21,90.92h0m6.2-.35h0m5.67-.36h0M3,90.92H3m23.2-1.24h0M31.88,89h0m5.67-.71h0m29.06-6h0m6-1.42h0m5.49-1.77h0m5.32-1.59h0M96.67,80h0m9.56.7h0m8.51.18h0m7.62-.35h0m-17,8.5h0m-10.46-.71h0m-11-1.77h0M114.56,89h0m9.57-.71h0M131,87.26h0m7.08-.89h0m6.74-.88h0M65.72,75h0m8-2h0m7.09-2.13h0m6.73-2.3h0M40.56,70.72h0m-8.35.93h0m-9.39.53h0m-9,.35h0m34.05-2.69h0m7.08-1.24h0m6.56-1.42h0m6.2-1.59h0m6.38-2h0m6.38-2.31h0m13.46,4.79h0m11.63,3.25h0m5-2.9h0m4.79-3h0m-4.84,8.21h0M115.8,74h0m5.32,2h0m5.49,1.6h0m5.49,1.94h0m5.67,1.07h0m-37-17.07h0M10.39,36.41h0m5,2.66h0m5.14,2.3h0m5.31,2h0m5.32,1.77h0m5.66,1.78h0m5.5,1.41h0m5.49,1.24h0m5.49,1.42h0m5.32,1.42h0m5.49,1.06h0m5.31,1.24h0m5.67,1.06h0M86.57,58h0m6.14.71h0m6.14.47h0m6.38,0h0m7.56.24h0M80.9,57h0M66.43,49.29h0m12.22,2.3h0m10.63,1.06h0m11.17.71h0m10.63.36h0m8.51,6.08h0m6.49,0h0m5.31-.18h0M238.58,90.8h0m-3,3.19h0m.89,5.85h0m-.18,7.09h0m1.42,21.26h0m-8.5-.18h0m-8.33-.53h0m-8.5-1.07h0m-8.86-.88h0m-8-1.42h0m37.62,15.35h0m5,11h0m-6-.36h0m-6.2-.35h0m-5.32-.35h0m-6.08-.48h0m-5.67-.88h0m-37.2-8.33h0m5.9,1.89h0m5.91,1.89h0m-17.66-6.26h0m-5.14-2.3h0m-5-2.66h0m-5-2.83h0m9-8.51h0m-5.32,2h0m-5.67,1.95h0m-27.28,7.44h0m-5.32,1.24h0m-5.49,1.42h0M105,136.16h0M99.5,137h0m-5.14,1.42h0m-5.84,1.06h0m-5.5.89h0m-5.49.89h0m-5.49.88h0m-5.67.89h0m-5.67.71h0m-5.49.88h0m-5.49.71h0m-5.49.53h0m-5.67.89h0m-5.32.71h0m-6.49.82h0m-6,.53h0m-5.84.18h0m-5.67.71h0m-6.2.71H3m7.2,5.73h0M5.6,153.87h0M2.24,210.21h0m6,5.14h0M5.6,222.44h0M3.3,231.3h0m.35,8.32h0m8.51-.71h0m8.5-.88h0m8.15-1.42h0m8.33-1.77h0m7.44-1.77h0M12,231.12h0m8.51-.89h0m8.15-1.59h0m-15.06-11h0M18.71,220h0m5.5,2.12h0m5.31,1.6h0m5.32,1.95h0m5.31,1.77h0M45.64,229h0m5.5,1.42h0M57,231.65h0m5,1.06h0m5.49,1.07h0m6,1.24h0M79,236.08h0m5.49.88h0M90.11,238h0m5.67.71h0m22.15,1.41h0m6.37-.17h0m5.5,0h0m5.84-.36h0m5.5-.71h0m5.66-.88h0m5.67-.53h0m5.67-.89h0m5.14-.89h0m5.32-1.06h0m5.84-1.65h0m6.14-1.66h0m6.85-1.31h0m7.09-2h0m6.85-2.13h0m5.91-1.42h0m-19.55,15.65h0m-7.09-3h0M126,234.6h0M148.1,233h0m-11.16,1.24h0M166,230.71h0m-8.86,1.41h0M175,228.93h0m-59.7,5.32h0m-3.25-5.08h0m8.15.53h0m8.5,0h0m8.68-.35h0m8.15-1.07h0m8.69-.88h0m8.32-1.77h0m8.33-2.13h0m7.79-2.13h0m8.51-2.83h0m26.1-4h0M206.75,218h0m6.14,5.2h0m5.13-1.78h0m5.32-2.12h0m5.14-2.48h0m5.14-2.48h0M237,221h0m-15.59,6.55h0m8,2h0m8.86,1.6h0m-.71,8.68h0m-7.08-.41h0m-6.85-.71h0M215.64,237h0m-8.13-2.12h0m-7.32-3.07h0m-5.37-16.3h0M117,222.61h0m8.5.18h0m8.51.18h0m8.33-.89h0m8.68-.88h0m7.79-1.6h0m6.91-1.59h0m6.38-1.77h0m5.67-1.78h0m-69.27,6.91h0m3.54-7.61h0M135.64,215h0m-15.41-.36h0m8.15.53h0m14.7-.71h0m6.38-.7h0m5.49-.89h0m5.32-1.24h0m-20.38-5.31h0m-7.26.88h0m-8,.18h0m7.09-8.15h0m5.13,2.3h0m5.32,1.77h0m5.49,1.42h0m5.32,1.42h0m22.32,3h0m5.67.18h0m5.49.53h0m5.85,0h0m5.49,0h0m5.67,0h0m6,0h0m5.67.18h0m5.49,0h0m5.85.17h0m6-.35h0m5,.35h0M97,204.37h0m6.56,7.79h0m-8.15-1.95h0m-9.57-2.65h0m14.35,12.57h0m3.37,8h0m-8.33-1.24h0m9.45,6.85h0M92.06,218.36h0m-5.31,7.09h0m6.61,7h0m-14.76-8.8h0m5.31-7.09h0m-8.33-2.66h0m-8-2.65h0m12.82,19.43h0M46.35,213.22h0m21.85,15h0m-12.4-3h0m-11.87-3.54h0M34,218.13h0m-10.1-3.55h0m.65-5.61h0m5.67-.35h0m5.31-.71h0m5.85-.35h0m5.67-.71h0m5.67-.36h0m5.67-.88h0m5.31-.71h0m5.5-.71h0m5.67-.89h0m5.31-.88h0M86,201.35h0m5.67-.7h0m5.13-1.24h0m5.85-.89h0m5.49-1.42h0m5.67-.88h0m5.32-1.07h0m5.49-1.06h0M130,192.5h0m5.5-1.24h0m5.67-1.24h0m5.31-1.42h0m5.49-1.77h0m5.49-1.42h0m5.32-1.77h0m5.49-1.95h0m5.32-1.95h0m5-2.13h0m5.49-2.12h0M15.35,158.83h0M20.49,161h0M26,162.91h0m5.67,1.77h0M37,166.45h0m5,1.42h0m5.85,1.42h0m5.31,1.41h0m5.5,1.42h0m5.49,1.07h0m5.67.88h0m5.31.89h0m5.49.88h0m5.79.48h0m5.67.47h0m6.38.47h0m7.09,1h0m6.61.7h0m7.09.48h0m-23.33-9.28h0m-11.52-1.24h0M72.63,167.1h0m-12.75-2.48h0m-11.52-3h0m-10.81-3.54h0m-10.27-3.72h0m79.54,16.47h0M48.06,151.51h0M117.63,171h0m10.45-.18h0M58.93,154.35h0m15.95-7h0m8,1.77h0m8.5,2.13h0m8.33,1.59h0m8.33,1.24h0m8.5,1.06h0m8.15.54h0m8.68.53h0m8.15.35h0m32.24-3.72h0m6.38-2.48h0m5.67-2.48h0m-88.94-4.61h0m8.86,2.13h0m8,1.42h0m8.33,1.06h0m8.33.89h0m8.15,0h0m8,.53h0m6.91-.18h0m5.67-.71h0m5.31-.71h0m5.5-.88h0m5.31-1.42h0m-11.69-4.07h0m-5.85,1.41h0m-9-5.84h0m6.37-.36h0m-10.45,6.56h0m7.09,0h0m-10.81-6.91h0m-5.31,6.2h0m-2.13-7.27h0m-7.44,5.32h0m-8.68-2.3h0m-49.79,18.6h0m30.71,5.2h0m9.33.29h0m8.51.53h0m8.15,0h0m8.68-.17h0m9.57-.36h0m9.38-.53h0m8.51-1.06h0m7.79-1.07h0m8.51-1.59h0m8.32-1.6h0m7.8-1.59h0m7.44-1.59h0m7.8-1.78h0m-68.33,18.9h0m11.34-1.06h0m9.92-1.42h0m-35.32,11.81h0m6.74-.23h0m22.32-2.48h0m5.85-.54h0m5.49-1.06h0m5.67-1.06h0M177.1,173h0m-6.67-6.62h0m9-1.59h0m8.86-1.77h0m8.5-2.48h0m6.91-2h0m7.21-2.42h0m6.85-2.6h0m18,.29h0m-5,3h0m-5.14,1.94h0m-5.13,2.31h0m-5.5,2h0m-5.31,1.77h0m-5.49,1.59h0m-5.32,1.6h0m-5.67,1.59h0m-5.31,1.24h0m-5.85,1.42h0m-56.63-47.36h0m-10.63,2.65h0m-11.52,2.66h0m-10.81,2.48h0m-12.22,2.13h0m-11,1.77h0m-10.09,1.24h0M3.65,139.7h0m37.09-.06h0m9-.71h0m55.39-15.35h0m-7.2.83h0m-34.79,3.24h0m7.09-.7h0M54.68,128h0m-8.33.35h0m-8.5.18h0m-8.68,0h0m-8.33.18h0m-8.33-.36h0m-8.68-.17h0m58.82-6.74h0m-8.5-.17h0m-8.51,0h0M37,120.74h0m-8.32-.53h0M20.13,120h0m-8.5-.71h0m-8.15-.89h0m67.32,2.84h0m151.89,17.3h0m-11-1.24h0m-10.81-1.77h0m-11.34-2.48h0m-10.1-2.84h0m-10.27-3.9h0m40.33-13.58h0m18.78-8.15h0M231,96.47h0M225.82,99h0m-5.31,2.31h0m-5.32,1.94h0m-5.31,2h0m-10.22-9.62h0m4.72,11.4h0m-5.49,1.41h0m-5.67,1.24h0m-5.31,1.77h0m-5.32,1.24h0m-5.67.89h0m-5.67,1.06h0m-5.31,1.07h0m-5.67,1.06h0m-5.49.71h0m-5.85.88h0m-5.31.71h0m-5.5.36h0m-5.84.71h0m-6.2.35h0m-7.8,0h0m-5.85-.35h0m-5.67-.36h0m-5.49-.71h0m-5.49-.35h0m-5.85-.89h0m-5.49-.88h0M79,116h0m-5.67-.89h0m-5.31-.7h0m-5.14-1.24h0M57,112.06h0m-5.84-1.59h0m2.3,4.78h0m-8.51-.88h0m-8.32-.71h0m-8.51-1.24h0M19.78,111h0m-8.33-1.59h0M3.12,108h0m33.13,1.59h0m-8.5-1.24h0m-8-1.77h0m-8.33-2.66h0M3.3,101.43h0m20.73.71h0m-5-1.77h0m-5-2.13h0m-4.2-2.36h0M6,93.58H6m185.49,5.67h0m-8.86,3.9h0m-8.86,3h0m-10.27,3h0m-10.28,2.13h0m-43.76,3.18h0m10.45.36h0m10.81-.53h0m10.81-1.24h0M98.32,114h0m-10.63-1.24h0m-9.39-1.59h0M80.9,103h0m-9.57-2.48h0M68.73,109h0m-19.84-5.84h0m9.92,3h0M39.68,99.6h0M31,95.88h0m30.86,2h0M51,93.58h0m48.84,11.93h0m18.24-9.75h0M88.69,94.17h0m-9.56-1.6h0m-9.22-3h0M90.82,104.8h0M108.18,106h0m17-11h0m6.56-.54h0m-15.6,11.7h0M138,93.82h0m18.24,7.61h0m7.45-2h0m6.73-1.94h0m6.73-2.13h0M184,92.93h0m-36,10.45h0m14.18-14.17h0m-6.38,1.42h0M150,91.69h0m-6,1.24h0m-4.08,11.87h0m-7.44.71h0m-7.8.38h0M232.91,90.45h0m-5.67,0h0m-5.67-.18h0m-5.67-.35h0m-22.68-1.24h0m-5.49-.53h0m-6-.71h0m-5.5-.53h0m-5.67-.71h0m-5.31-.71h0m-5.49-1.06h0m-5.85-.89h0m-5.49-1.06h0m-5.32-1.07h0m-5.49-22.14h0m5.32-.71h0m5.67-.53h0m5.67-.89h0m5.66-.88h0m5.5-.71h0m5.67-1.07h0m5.67-1.24h0m5.49-1.06h0m5.31-1.24h0m5.32-1.24h0m27.28-8.15h0m5.14-2.3h0m5.14-2.3h0m5.31-2.49h0M158,49.82h0m11-1.77h0m-22.32,3.72h0M134.28,53h0m-11.16.53h0m57.23-8h0m9.74-2.84h0m9.21-2.83h0m8.86-3.37h0M35.07,40.43h0m-8.15-3.37h0m-7.5-3.66h0m14.71-1.77h0m7.26,4.25h0m8,2.84h0m8,2.83h0m8.5,1.6h0M74,44.56h0m8.33,1.07h0m8.68.88h0m9,.71h0m8.51.18h0m7.79-.36h0m8.15-.17h0M133,45.8h0m27.63-6.2h0m6.91-2.3h0m6.73-2.3h0M45.64,26.49h0m7.62,3.9h0m7.62,2.66h0m8,2h0m9.57,1.77h0m9,.88h0m9.75.54h0m10.27-.54h0m9.22-1.06h0m9-1.24h0m7.44-1.24h0m6.91-1.24h0m6.38-1.42h0M64.78,24.19h0m-7.09-2h0m15.24,3.9h0m17.89-6.2h0m-7.44-1.6h0M74.88,16h0m23.56,5.31h0m7.26.89h0m7.44.53h0M85.51,7.89h0m5.31,2.66h0m4.78,1.77h0m5.14,2.48h0m5.49,2.13h0m5.5,1.77h0M117,20.47h0m5.32,1.59h0M128,23.48h0m5.32,1.24h0M139,26h0m5.31.89h0m5.5,1.06h0m5.67.89h0m5.66.35h0m5.67.53h0m5.5.71h0m5.49.35h0m5.67.54h0m5.84.17h0m5.67.18h0m5.5-.18h0m5.66.18h0m6,0h0m6.2-.35h0m6,0h0m6.38-.71h0m6.38,0h0M102.69,29h0m7.09,0h0m6.91-.35h0m6.73-.71h0M163,23.42h0m-11.11-1.89h0M98,3.64h0m31.19-.3h0m6.61,2.6h0m7.09,2.84h0m6.37,1.89h0m6.85,1.89h0m82,7.55h0m-6.61-.23h0m-7.56.23h0m-7.56,0h0m-7.56-.47h0M201,19.41h0m-7.8-.71h0m-9-1.18h0m26.69,10.15h0m-7.8-.35h0m-9-.53h0M174.32,24.6h0M106.53,7.36h0m8.5,3.78h0m9,3.07h0m8.8,2.83h0m9.39,2.6h0m42.69,6.44h0M218,27.67h0m6.74-.17h0m6.55-.54h0m6.56-.53h0m-57.82-17h0m-8.68-2h0m-8.15-2.83h0m-8.33-3.54h0m33.49,9.92h0m8,1.06h0m8.33.71h0M204.86,4h0M196.17,2h0m42.05,5.38h0m0,6.42h0M230,13.9h0m-7.79-.18h0M213,13.37h0M18.6,164.62h0M3.54,162.85h0m7.44.89h0M39.68,174h0m8.86-.35h0m23.74,5h0m-8.51,1.06h0m-7.79.71h0m-8.86,1.06h0m-10.28.71h0m-11,.36h0m-11.34.35h0M4.07,192.79h0M2.12,203.42h0m10.63-.53h0m10.45-.71h0m11.52-1.06h0m9.56-1.24h0m9.22-1.24h0m9.39-1.42h0m8.32-1.42h0m8.15-1.59h0m8-1.42h0m8-1.95h0m7.79-1.77h0m7.09-1.77h0m6-1.59h0m5.85-1.78h0M11.51,192.44h0m8.5-.53h0m8.68-.54h0m9-.53h0m8.68-1.06h0m9.57-.89h0m31.53-4.6h0m6.2-1.07h0m6.56-1.06h0m-96,1.06h0m3.36-9.56h0m167.3,25.86h0M162.51,197h0m-11.34-3.3h0m36,7.73h0m12.05,1.07h0m10.8.7h0m10.81.36h0m12,0h0m-64.31-15.95h0m11.16,1.78h0m30.82,2.83h0m8.69.53h0m8.85,0h0m8.51,0h0M190,180h0m14.18,1.06h0m14.52,1.42h0m14.89.7h0M236.75,173h0m-.89-11.52h0M211.53,70.19h0M202,69.31h0m-10.27-1.42h0m-9.75-1.59h0m-11.16-2.13h0M158,61.33h0m76.19,19.49h0m-11.52-.35h0m-12.22-.71h0m-12.41-1.24h0m-14.35-2h0M145.09,69h0m-12.58-3.72h0M238.28,45h0m-9.39-1.6h0m-10.45,8h0M210.11,50h0m16.3,2.83h0m8.68.89h0m2.66,8.86h0m-7.8-.89h0M222.34,61h0m-8.15-.89h0M206.75,59h0m-16.84-3h0m8.86,1.77h0M56.33,5.54h0m6.2-3.9h0m11-.35h0M69.09,4.12h0m11.34-.35h0m3-2.84h0M68,238.85h0m-8.85,0h0m-13.47.36h0m5.85-3.37h0M39,1.45h0M38.79,8h0m6.73-3h0M53,1.63h0M45.7,239.21h0m5.85-3.37h0"/><path class="c" d="M27.07,16.19A116.84,116.84,0,0,0,43,11.59M96.77,29.48a116.16,116.16,0,0,1-16.49-1.83m31.83,68.8a92.7,92.7,0,0,1-14.71-.71m51.56,82a66.29,66.29,0,0,1-12.4,1.24M118.1,207.67a92.08,92.08,0,0,1-14.62-1.77m9.13,33.72c-4.36-.11-8,.28-11.84-.55M204.4,147.86a93.21,93.21,0,0,1-14.4-3.05M88.54,160.49A91.67,91.67,0,0,1,74,158.1M19.81,209.3c-4.34.47-8.49,1.21-12.41.89M202.6,191.6a52.26,52.26,0,0,1-11-.76m33.48-19.13a91.85,91.85,0,0,1-12.58-1.6m-13.11,51a115.86,115.86,0,0,1-15.47,5.38m-113.62-4.9a124.48,124.48,0,0,1-16.12-5.49M170,208.77c-4.25-.35-8-.89-11.87-1.59m32.07-83.63a116.08,116.08,0,0,1-15.77-5.17M60.23,83.75a119,119,0,0,1-16.15,3.81M30.2,139.48a117,117,0,0,1-16.6.16M92.14,124.2a117.67,117.67,0,0,1-16.47,2.1m-43.2,48.1a116.84,116.84,0,0,1-16.6-.27M45.14,109.2A117,117,0,0,1,29.37,104M177.53,16.6a117.48,117.48,0,0,1-16.35-2.84M155,41.17a118.22,118.22,0,0,1-16.25,3.42M230.58,7.21a117.75,117.75,0,0,1-16.5-1.77m0,38.11a117.79,117.79,0,0,1-15.91,4.72M172.8,75.19a116.12,116.12,0,0,1-16.25-3.37m77.19,46.25a119.05,119.05,0,0,1-16.25-3.37m20.15-42.34c-5.06-.18-11.44-.53-18.17-1.42m-6.92,18.75a103.61,103.61,0,0,1-15.4-.5M58.41,47.84A116.94,116.94,0,0,1,42.53,43m59.23,28.06a118.83,118.83,0,0,1-15.68,5.43m57.49,50.2a117.57,117.57,0,0,1-16.08,4.1M167.31,154a116.93,116.93,0,0,1-16.47,2M80.33,185.67a117.3,117.3,0,0,1-16.48,2"/></pattern></defs><g class="d"><path class="e" d="M0,0H1920V1920H0Z"/><rect class="f" width="1920" height="1920"/><polygon class="g" points="40.4 265.18 37.38 269.42 37.11 274.63 32.87 271.6 27.66 271.34 30.69 267.09 30.95 261.89 35.2 264.92 40.4 265.18"/><polygon class="h" points="74.88 258.94 75.73 263.77 79.05 267.38 74.22 268.23 70.61 271.55 69.76 266.72 66.44 263.11 71.27 262.26 74.88 258.94"/><polygon class="i" points="52.47 413.99 51.39 408.73 47.65 404.88 52.91 403.81 56.76 400.06 57.83 405.32 61.58 409.17 56.32 410.25 52.47 413.99"/><polygon class="j" points="57.83 483.1 61.13 479.75 62.11 475.15 65.46 478.45 70.06 479.43 66.76 482.78 65.78 487.38 62.43 484.08 57.83 483.1"/><polygon class="k" points="131.19 201.75 135.28 204.57 140.25 204.75 137.42 208.84 137.25 213.81 133.16 210.98 128.19 210.81 131.01 206.72 131.19 201.75"/><polygon class="l" points="104.18 435.65 109.76 435.31 114.27 432.01 114.62 437.59 117.92 442.1 112.34 442.45 107.82 445.75 107.48 440.17 104.18 435.65"/><polygon class="m" points="202.34 41.87 207.19 41.4 211.02 38.39 211.48 43.24 214.49 47.07 209.64 47.54 205.81 50.55 205.35 45.7 202.34 41.87"/><polygon class="n" points="153.8 397.22 148.82 398.18 145.14 401.68 144.18 396.7 140.68 393.02 145.66 392.06 149.34 388.56 150.3 393.54 153.8 397.22"/><polygon class="o" points="135.48 614.76 130.16 613.47 124.99 615.26 126.28 609.94 124.49 604.76 129.81 606.05 134.99 604.27 133.7 609.59 135.48 614.76"/><polygon class="p" points="154.74 516.67 159.04 514.23 161.34 509.85 163.78 514.15 168.16 516.45 163.86 518.9 161.56 523.27 159.12 518.98 154.74 516.67"/><polygon class="q" points="206.37 389.24 203.59 393.85 203.73 399.24 199.12 396.46 193.73 396.61 196.51 391.99 196.37 386.6 200.98 389.38 206.37 389.24"/><polygon class="r" points="199.75 529 198.22 533.54 199.38 538.19 194.84 536.66 190.19 537.82 191.72 533.28 190.56 528.63 195.1 530.16 199.75 529"/><polygon class="s" points="305.07 74.59 300.45 72.21 295.28 72.7 297.66 68.09 297.17 62.92 301.78 65.29 306.95 64.8 304.58 69.42 305.07 74.59"/><polygon class="t" points="337.66 -7.24 332.88 -5.7 329.69 -1.83 328.15 -6.6 324.27 -9.79 329.05 -11.34 332.24 -15.21 333.79 -10.43 337.66 -7.24"/><polygon class="u" points="329.41 138.21 326.12 142.59 325.7 148.05 321.32 144.75 315.86 144.34 319.16 139.96 319.57 134.5 323.95 137.8 329.41 138.21"/><polygon class="v" points="340.56 78.38 343.58 74.23 343.89 69.11 348.04 72.13 353.16 72.44 350.13 76.59 349.82 81.71 345.68 78.69 340.56 78.38"/><polygon class="w" points="280.56 443.61 281.48 438.94 279.75 434.51 284.41 435.44 288.84 433.7 287.91 438.37 289.65 442.79 284.99 441.87 280.56 443.61"/><polygon class="x" points="264.8 574.89 269.08 576.99 273.82 576.45 271.73 580.73 272.27 585.47 267.99 583.37 263.25 583.92 265.34 579.63 264.8 574.89"/><polygon class="y" points="390.18 17.98 395.08 17.11 398.74 13.73 399.61 18.64 402.99 22.3 398.08 23.17 394.43 26.54 393.56 21.64 390.18 17.98"/><polygon class="z" points="406.14 31.73 404.1 26.8 399.73 23.75 404.66 21.72 407.71 17.34 409.74 22.27 414.12 25.32 409.19 27.36 406.14 31.73"/><polygon class="aa" points="303.92 641.2 308.02 638.66 310.11 634.3 312.65 638.4 317 640.49 312.9 643.03 310.82 647.38 308.28 643.28 303.92 641.2"/><polygon class="ab" points="419.71 108.5 423.91 105.48 425.81 100.68 428.83 104.88 433.63 106.78 429.43 109.8 427.53 114.6 424.51 110.4 419.71 108.5"/><polygon class="ac" points="342.99 686.4 340.87 691.33 341.75 696.63 336.82 694.51 331.52 695.39 333.64 690.45 332.76 685.16 337.7 687.28 342.99 686.4"/><polygon class="ad" points="448.22 156.08 451.67 152.37 452.57 147.39 456.28 150.84 461.26 151.74 457.81 155.45 456.91 160.43 453.2 156.98 448.22 156.08"/><polygon class="ae" points="418.64 375.36 421.17 370.82 420.84 365.65 425.38 368.17 430.56 367.84 428.04 372.38 428.36 377.56 423.82 375.04 418.64 375.36"/><polygon class="af" points="492.05 148.55 493.99 152.82 497.92 155.38 493.65 157.31 491.09 161.25 489.16 156.97 485.22 154.42 489.5 152.48 492.05 148.55"/><polygon class="ag" points="516.05 56.58 519.79 52.8 520.9 47.61 524.68 51.34 529.88 52.45 526.14 56.23 525.03 61.43 521.25 57.69 516.05 56.58"/><polygon class="ah" points="511.52 132.97 515.74 130.53 517.97 126.21 520.4 130.43 524.72 132.66 520.51 135.09 518.28 139.41 515.84 135.2 511.52 132.97"/><polygon class="ai" points="478.08 516.96 472.83 518.38 469.18 522.42 467.75 517.17 463.72 513.52 468.97 512.09 472.62 508.06 474.04 513.31 478.08 516.96"/><polygon class="aj" points="540.26 259.02 535.67 262 533.42 266.99 530.44 262.41 525.45 260.16 530.03 257.17 532.28 252.19 535.27 256.77 540.26 259.02"/><polygon class="ak" points="475.2 670.49 470.35 670.73 466.39 673.54 466.16 668.69 463.35 664.73 468.19 664.5 472.15 661.69 472.38 666.54 475.2 670.49"/><polygon class="al" points="532.6 411 528.35 407.77 523.03 407.34 526.27 403.09 526.7 397.78 530.94 401.01 536.26 401.44 533.03 405.68 532.6 411"/><polygon class="am" points="477.13 716.12 482.65 715.57 487 712.13 487.55 717.64 490.99 721.99 485.47 722.54 481.12 725.98 480.57 720.47 477.13 716.12"/><polygon class="an" points="593.29 164.9 597.94 162.18 600.39 157.38 603.11 162.03 607.91 164.48 603.26 167.2 600.81 172 598.09 167.35 593.29 164.9"/><polygon class="ao" points="537.03 587.56 532.78 585.18 527.92 585.47 530.29 581.22 530 576.36 534.25 578.74 539.12 578.45 536.74 582.7 537.03 587.56"/><polygon class="ap" points="563.16 457.53 567.32 453.91 568.87 448.61 572.5 452.77 577.8 454.33 573.63 457.95 572.08 463.25 568.46 459.08 563.16 457.53"/><polygon class="aq" points="567.77 525.39 570.36 529.36 574.67 531.31 570.7 533.89 568.75 538.2 566.17 534.23 561.86 532.28 565.83 529.7 567.77 525.39"/><polygon class="ar" points="667.85 163.2 665.8 167.87 666.58 172.91 661.91 170.85 656.87 171.64 658.93 166.97 658.14 161.93 662.81 163.98 667.85 163.2"/><polygon class="as" points="640.29 351.04 643.97 355.23 649.33 356.76 645.15 360.44 643.61 365.8 639.93 361.62 634.58 360.08 638.76 356.4 640.29 351.04"/><polygon class="at" points="660.08 430.41 654.9 429.16 649.86 430.89 651.12 425.71 649.39 420.68 654.56 421.93 659.6 420.2 658.35 425.38 660.08 430.41"/><polygon class="au" points="653.99 548.02 654.56 543.19 652.43 538.82 657.26 539.38 661.63 537.25 661.06 542.08 663.19 546.45 658.36 545.89 653.99 548.02"/><polygon class="av" points="736.58 197.91 735.91 203.32 738.28 208.24 732.86 207.58 727.94 209.94 728.61 204.53 726.24 199.61 731.66 200.27 736.58 197.91"/><polygon class="aw" points="728.12 337.19 723.38 336.18 718.83 337.88 719.85 333.14 718.14 328.6 722.88 329.61 727.43 327.9 726.41 332.65 728.12 337.19"/><polygon class="ax" points="695.75 537.1 698.97 540.92 703.74 542.4 699.92 545.61 698.43 550.38 695.22 546.56 690.46 545.08 694.27 541.87 695.75 537.1"/><polygon class="ay" points="742.72 430.87 746.9 428.59 749.19 424.42 751.47 428.61 755.64 430.9 751.45 433.17 749.16 437.34 746.89 433.16 742.72 430.87"/><polygon class="az" points="797.95 202.91 802.94 205.34 808.45 204.7 806.02 209.69 806.67 215.21 801.67 212.78 796.16 213.42 798.59 208.43 797.95 202.91"/><polygon class="ba" points="815.92 182.77 820.54 184.01 825.09 182.57 823.85 187.18 825.29 191.74 820.68 190.5 816.12 191.94 817.37 187.32 815.92 182.77"/><polygon class="bb" points="821 276.47 821.7 281.88 825.21 286.05 819.8 286.75 815.63 290.26 814.93 284.85 811.42 280.68 816.83 279.98 821 276.47"/><polygon class="bc" points="849.32 203.51 845.39 207.24 844.09 212.5 840.36 208.57 835.1 207.28 839.03 203.55 840.33 198.29 844.06 202.22 849.32 203.51"/><polygon class="bd" points="827.27 338.36 831.63 335.38 833.7 330.53 836.67 334.88 841.53 336.95 837.17 339.93 835.11 344.78 832.13 340.43 827.27 338.36"/><polygon class="be" points="810.92 518.7 816.06 519.97 821.08 518.27 819.81 523.41 821.51 528.43 816.37 527.16 811.35 528.86 812.62 523.72 810.92 518.7"/><polygon class="bf" points="851.24 342.88 854.6 338.84 855.24 333.63 859.28 336.99 864.49 337.63 861.14 341.67 860.49 346.88 856.45 343.53 851.24 342.88"/><polygon class="bg" points="897.55 187.47 898 192.66 901.18 196.78 896 197.23 891.87 200.41 891.42 195.23 888.24 191.1 893.43 190.65 897.55 187.47"/><polygon class="bh" points="848.49 536.08 848.4 530.66 845.4 526.14 850.83 526.05 855.34 523.05 855.43 528.48 858.43 532.99 853.01 533.08 848.49 536.08"/><polygon class="bi" points="906.5 301.63 907.18 306.48 910.38 310.19 905.53 310.88 901.82 314.07 901.13 309.22 897.94 305.51 902.79 304.83 906.5 301.63"/><polygon class="bj" points="889.97 506.12 886.94 509.89 886.42 514.71 882.65 511.67 877.83 511.16 880.87 507.38 881.38 502.57 885.16 505.6 889.97 506.12"/><polygon class="bk" points="860.22 687.44 865.46 685.47 868.8 680.99 870.77 686.23 875.26 689.57 870.02 691.54 866.67 696.02 864.7 690.79 860.22 687.44"/><polygon class="bl" points="927.56 608.46 930.57 604.07 930.74 598.76 935.12 601.77 940.43 601.94 937.42 606.32 937.26 611.63 932.88 608.62 927.56 608.46"/><polygon class="bm" points="1014.14 296.32 1009.25 296.44 1005.2 299.18 1005.08 294.29 1002.34 290.24 1007.23 290.12 1011.28 287.38 1011.4 292.27 1014.14 296.32"/><polygon class="bn" points="965.97 632.14 964.55 627.56 960.88 624.46 965.47 623.04 968.57 619.37 969.99 623.96 973.66 627.06 969.07 628.48 965.97 632.14"/><polygon class="bo" points="1018.79 439.62 1021.44 434.86 1021.1 429.41 1025.86 432.06 1031.31 431.72 1028.66 436.49 1029 441.93 1024.23 439.28 1018.79 439.62"/><polygon class="bp" points="1090.98 194.66 1088.54 199.44 1089.06 204.79 1084.28 202.34 1078.93 202.86 1081.38 198.08 1080.86 192.74 1085.64 195.18 1090.98 194.66"/><polygon class="bq" points="1049.34 640.68 1050.06 645.63 1053.33 649.42 1048.38 650.14 1044.59 653.41 1043.88 648.46 1040.6 644.67 1045.55 643.96 1049.34 640.68"/><polygon class="br" points="1089.42 464.44 1087.4 469.58 1088.48 475 1083.34 472.98 1077.92 474.06 1079.94 468.91 1078.86 463.5 1084 465.51 1089.42 464.44"/><polygon class="bs" points="1084.97 594.58 1083.16 598.91 1083.97 603.55 1079.63 601.73 1075 602.55 1076.82 598.21 1076 593.58 1080.34 595.39 1084.97 594.58"/><polygon class="bt" points="1132.13 286.13 1132.31 280.85 1129.62 276.31 1134.9 276.49 1139.45 273.8 1139.26 279.08 1141.96 283.62 1136.68 283.44 1132.13 286.13"/><polygon class="bu" points="1175.28 124.22 1173.99 129 1175.48 133.72 1170.7 132.43 1165.98 133.92 1167.27 129.14 1165.78 124.42 1170.56 125.71 1175.28 124.22"/><polygon class="bv" points="1178.99 99.17 1183.72 99.91 1188.1 97.99 1187.36 102.72 1189.28 107.1 1184.55 106.35 1180.17 108.28 1180.91 103.55 1178.99 99.17"/><polygon class="bw" points="1124.65 696.11 1122.08 691.96 1117.68 689.86 1121.83 687.29 1123.94 682.88 1126.51 687.03 1130.91 689.14 1126.76 691.71 1124.65 696.11"/><polygon class="bx" points="1118.04 808.7 1119.2 804.1 1117.69 799.6 1122.29 800.75 1126.78 799.25 1125.63 803.85 1127.14 808.34 1122.54 807.19 1118.04 808.7"/><polygon class="by" points="1228.3 3.69 1232.86 4.73 1237.27 3.14 1236.23 7.7 1237.81 12.11 1233.25 11.07 1228.85 12.65 1229.89 8.09 1228.3 3.69"/><polygon class="bz" points="1151.92 734.85 1154.28 730.12 1153.71 724.88 1158.43 727.23 1163.67 726.66 1161.32 731.38 1161.89 736.63 1157.17 734.28 1151.92 734.85"/><polygon class="ca" points="1165.13 776.47 1162.35 771.89 1157.54 769.53 1162.11 766.75 1164.46 761.94 1167.25 766.52 1172.06 768.87 1167.48 771.65 1165.13 776.47"/><polygon class="cb" points="1242.42 193.76 1247.36 195.63 1252.52 194.54 1250.65 199.48 1251.75 204.64 1246.81 202.78 1241.64 203.87 1243.51 198.93 1242.42 193.76"/><polygon class="cc" points="1251.87 317.83 1247.04 318.28 1243.22 321.26 1242.77 316.44 1239.79 312.61 1244.62 312.16 1248.44 309.18 1248.89 314.01 1251.87 317.83"/><polygon class="cd" points="1251.8 303.28 1255.86 300.46 1257.76 295.9 1260.58 299.96 1265.13 301.86 1261.08 304.68 1259.18 309.23 1256.36 305.18 1251.8 303.28"/><polygon class="ce" points="1288.4 53.79 1293.61 52.12 1297.09 47.9 1298.76 53.1 1302.98 56.58 1297.78 58.26 1294.3 62.47 1292.62 57.27 1288.4 53.79"/><polygon class="cf" points="1235.78 826 1230.76 824.5 1225.73 825.95 1227.22 820.93 1225.78 815.89 1230.8 817.39 1235.83 815.95 1234.33 820.97 1235.78 826"/><polygon class="cg" points="1276.27 583.76 1270.71 584 1266.15 587.2 1265.91 581.63 1262.72 577.08 1268.28 576.84 1272.84 573.64 1273.07 579.21 1276.27 583.76"/><polygon class="ch" points="1305.9 352.71 1306.45 357.49 1309.49 361.23 1304.7 361.77 1300.97 364.81 1300.42 360.03 1297.38 356.3 1302.17 355.75 1305.9 352.71"/><polygon class="ci" points="1357.1 -0.58 1352.05 -0.59 1347.8 2.12 1347.81 -2.93 1345.1 -7.18 1350.14 -7.17 1354.4 -9.88 1354.38 -4.83 1357.1 -0.58"/><polygon class="cj" points="1274.47 847.02 1274.82 842.25 1272.55 838.04 1277.32 838.4 1281.53 836.13 1281.17 840.9 1283.44 845.1 1278.67 844.75 1274.47 847.02"/><polygon class="ck" points="1293.36 773.32 1297.25 777.01 1302.52 778.02 1298.82 781.91 1297.82 787.18 1293.92 783.49 1288.65 782.48 1292.35 778.59 1293.36 773.32"/><polygon class="cl" points="1360.99 246.78 1363.33 251.19 1367.67 253.63 1363.27 255.97 1360.83 260.31 1358.49 255.91 1354.14 253.47 1358.55 251.13 1360.99 246.78"/><polygon class="cm" points="1363.95 563.37 1362.96 568.24 1364.75 572.87 1359.88 571.88 1355.25 573.67 1356.24 568.8 1354.45 564.17 1359.32 565.16 1363.95 563.37"/><polygon class="cn" points="1350.21 779.88 1353.15 775.26 1353.13 769.79 1357.75 772.73 1363.23 772.71 1360.29 777.33 1360.31 782.8 1355.69 779.86 1350.21 779.88"/><polygon class="co" points="1377.72 655.29 1377 649.85 1373.45 645.67 1378.89 644.94 1383.08 641.4 1383.8 646.84 1387.34 651.02 1381.91 651.75 1377.72 655.29"/><polygon class="cp" points="1431.1 279.59 1434.32 282.99 1438.87 284.12 1435.46 287.33 1434.34 291.88 1431.12 288.48 1426.57 287.35 1429.97 284.13 1431.1 279.59"/><polygon class="cq" points="1457.39 241.42 1453.29 238.69 1448.37 238.6 1451.1 234.51 1451.18 229.59 1455.28 232.32 1460.2 232.4 1457.47 236.5 1457.39 241.42"/><polygon class="cr" points="1445.67 765.98 1446.81 770.72 1450.32 774.1 1445.58 775.24 1442.2 778.75 1441.06 774.01 1437.55 770.63 1442.29 769.49 1445.67 765.98"/><polygon class="cs" points="1465.26 429.36 1470.31 431.54 1475.74 430.65 1473.56 435.7 1474.44 441.13 1469.39 438.95 1463.96 439.83 1466.15 434.78 1465.26 429.36"/><polygon class="ct" points="1476.46 598.53 1475.68 603.55 1477.73 608.21 1472.71 607.43 1468.05 609.49 1468.83 604.46 1466.78 599.8 1471.8 600.58 1476.46 598.53"/><polygon class="cu" points="1497.62 464.07 1492.33 462.48 1487.02 463.99 1488.61 458.7 1487.1 453.39 1492.39 454.98 1497.71 453.47 1496.11 458.76 1497.62 464.07"/><polygon class="cv" points="1508.3 636.65 1510.28 641.36 1514.49 644.25 1509.78 646.24 1506.88 650.45 1504.9 645.74 1500.69 642.84 1505.4 640.86 1508.3 636.65"/><polygon class="cw" points="1528.39 336.19 1531.79 339.73 1536.56 340.86 1533.03 344.27 1531.9 349.04 1528.49 345.51 1523.72 344.37 1527.25 340.97 1528.39 336.19"/><polygon class="cx" points="1534.36 84.66 1539.25 83.1 1542.53 79.15 1544.09 84.04 1548.04 87.32 1543.15 88.88 1539.87 92.83 1538.31 87.94 1534.36 84.66"/><polygon class="cy" points="1561.74 171.07 1562.63 165.87 1560.58 161.02 1565.77 161.91 1570.62 159.86 1569.73 165.05 1571.78 169.9 1566.59 169.01 1561.74 171.07"/><polygon class="cz" points="1580.19 717.15 1580.88 721.99 1584.07 725.7 1579.23 726.39 1575.52 729.58 1574.84 724.74 1571.64 721.03 1576.49 720.34 1580.19 717.15"/><polygon class="da" points="1591.76 286.19 1588.02 283.15 1583.24 282.6 1586.28 278.87 1586.83 274.08 1590.56 277.12 1595.34 277.67 1592.3 281.4 1591.76 286.19"/><polygon class="db" points="1587.48 99.04 1583.85 95.85 1579.08 95.12 1582.27 91.49 1582.99 86.71 1586.63 89.9 1591.4 90.63 1588.21 94.26 1587.48 99.04"/><polygon class="dc" points="1594.42 183.59 1596.06 178.3 1594.59 172.96 1599.88 174.6 1605.22 173.13 1603.58 178.42 1605.05 183.76 1599.76 182.12 1594.42 183.59"/><polygon class="dd" points="1627.95 599.59 1632.51 601.51 1637.37 600.66 1635.46 605.21 1636.3 610.08 1631.75 608.17 1626.88 609.01 1628.8 604.46 1627.95 599.59"/><polygon class="de" points="1635.71 222.41 1640.43 223.31 1644.9 221.52 1643.99 226.25 1645.79 230.71 1641.06 229.81 1636.6 231.6 1637.5 226.88 1635.71 222.41"/><polygon class="df" points="1683.92 614.37 1689.37 613.78 1693.64 610.35 1694.22 615.79 1697.66 620.06 1692.21 620.65 1687.94 624.09 1687.36 618.64 1683.92 614.37"/><polygon class="dg" points="1730.81 775.96 1725.99 778.44 1723.26 783.13 1720.78 778.31 1716.09 775.59 1720.91 773.1 1723.64 768.41 1726.12 773.24 1730.81 775.96"/><polygon class="dh" points="1655.34 159.02 1659.41 156.51 1661.49 152.19 1664.01 156.27 1668.32 158.35 1664.24 160.86 1662.17 165.18 1659.65 161.1 1655.34 159.02"/><polygon class="di" points="1678.35 202.01 1682.08 205.13 1686.91 205.75 1683.79 209.49 1683.17 214.32 1679.44 211.19 1674.6 210.58 1677.73 206.84 1678.35 202.01"/><polygon class="dj" points="1674.91 196.35 1678.69 199.44 1683.53 200.01 1680.44 203.78 1679.87 208.63 1676.1 205.53 1671.25 204.97 1674.35 201.19 1674.91 196.35"/><polygon class="dk" points="1737.81 413.33 1739.57 417.79 1743.46 420.59 1739.01 422.36 1736.21 426.25 1734.44 421.79 1730.55 418.99 1735.01 417.23 1737.81 413.33"/><polygon class="dl" points="1659.77 23.38 1664.99 23.63 1669.53 21.01 1669.29 26.24 1671.9 30.77 1666.67 30.53 1662.14 33.14 1662.38 27.91 1659.77 23.38"/><polygon class="dm" points="1847.98 644.13 1851.19 648.59 1856.3 650.62 1851.84 653.83 1849.81 658.94 1846.6 654.48 1841.5 652.45 1845.96 649.24 1847.98 644.13"/><polygon class="dn" points="1758.59 345.33 1753.11 344.75 1748.18 347.21 1748.77 341.73 1746.3 336.81 1751.78 337.39 1756.7 334.92 1756.12 340.4 1758.59 345.33"/><polygon class="do" points="1722.25 235.6 1717.56 236.28 1713.99 239.38 1713.31 234.7 1710.21 231.12 1714.89 230.44 1718.47 227.34 1719.15 232.03 1722.25 235.6"/><polygon class="dp" points="1465 112.37 1469.32 114.34 1474.03 113.66 1472.06 117.99 1472.74 122.69 1468.41 120.73 1463.71 121.4 1465.67 117.08 1465 112.37"/><polygon class="dq" points="1821.59 306.21 1824.39 302.07 1824.51 297.08 1828.65 299.87 1833.64 300 1830.84 304.13 1830.72 309.13 1826.58 306.33 1821.59 306.21"/><polygon class="dr" points="1739.66 263.13 1744.41 262.98 1748.34 260.3 1748.48 265.05 1751.17 268.98 1746.41 269.12 1742.49 271.81 1742.35 267.05 1739.66 263.13"/><polygon class="ds" points="1821.69 257 1821.76 262.46 1824.76 267.02 1819.3 267.08 1814.73 270.09 1814.67 264.62 1811.67 260.06 1817.13 260 1821.69 257"/><polygon class="dt" points="1806.11 221.34 1800.88 219.66 1795.57 221.08 1797.24 215.85 1795.83 210.54 1801.06 212.21 1806.37 210.79 1804.7 216.03 1806.11 221.34"/><polygon class="du" points="1467.95 426.42 1465.07 422.22 1460.37 420.24 1464.57 417.35 1466.55 412.65 1469.44 416.86 1474.14 418.84 1469.94 421.72 1467.95 426.42"/><polygon class="dv" points="1426.02 427.67 1428.43 431.78 1432.67 433.95 1428.56 436.35 1426.4 440.6 1423.99 436.49 1419.74 434.32 1423.86 431.92 1426.02 427.67"/><polygon class="dw" points="1709.89 229.23 1712.79 233.34 1717.45 235.24 1713.34 238.14 1711.44 242.8 1708.54 238.69 1703.88 236.79 1707.99 233.89 1709.89 229.23"/><polygon class="dx" points="1918.25 48.44 1913.12 46.48 1907.74 47.59 1909.7 42.46 1908.58 37.08 1913.72 39.04 1919.1 37.92 1917.14 43.06 1918.25 48.44"/><polygon class="dy" points="1844.19 70.97 1842.04 75.56 1842.71 80.59 1838.12 78.44 1833.09 79.11 1835.24 74.52 1834.57 69.49 1839.16 71.64 1844.19 70.97"/><polygon class="dz" points="1419.3 484.26 1422.2 479.55 1422.11 474.01 1426.82 476.92 1432.35 476.82 1429.45 481.53 1429.55 487.07 1424.84 484.16 1419.3 484.26"/><polygon class="ea" points="1581.6 354.99 1586.23 357.67 1591.58 357.43 1588.9 362.06 1589.14 367.4 1584.51 364.72 1579.17 364.96 1581.85 360.33 1581.6 354.99"/><polygon class="eb" points="1554.34 381.8 1555 387.17 1558.45 391.34 1553.08 392 1548.9 395.45 1548.25 390.08 1544.8 385.91 1550.17 385.25 1554.34 381.8"/><polygon class="ec" points="1719.1 85.6 1724.1 86.3 1728.68 84.18 1727.98 89.18 1730.1 93.76 1725.1 93.07 1720.52 95.18 1721.21 90.18 1719.1 85.6"/><polygon class="ed" points="1481.88 439.15 1477.52 436.77 1472.56 437.12 1474.94 432.75 1474.59 427.8 1478.95 430.18 1483.91 429.83 1481.53 434.19 1481.88 439.15"/><polygon class="ee" points="1583.01 356.73 1583.88 362.01 1587.46 365.98 1582.18 366.85 1578.21 370.43 1577.34 365.15 1573.76 361.18 1579.03 360.31 1583.01 356.73"/><polygon class="ef" points="1521.85 464.45 1523.95 460.1 1523.37 455.31 1527.72 457.4 1532.51 456.82 1530.41 461.18 1530.99 465.97 1526.64 463.87 1521.85 464.45"/><polygon class="eg" points="1699.49 9.8 1702.46 13.91 1707.17 15.77 1703.06 18.73 1701.2 23.45 1698.23 19.34 1693.52 17.47 1697.63 14.51 1699.49 9.8"/><polygon class="eh" points="1578.25 191.08 1581.44 187.35 1582.13 182.48 1585.86 185.68 1590.72 186.36 1587.52 190.09 1586.84 194.96 1583.11 191.76 1578.25 191.08"/><polygon class="ei" points="1487.77 533.49 1491.66 529.99 1493.04 524.95 1496.54 528.84 1501.58 530.22 1497.69 533.72 1496.31 538.76 1492.81 534.87 1487.77 533.49"/><polygon class="ej" points="1519.13 387.76 1515.73 383.66 1510.65 382.04 1514.76 378.64 1516.38 373.56 1519.78 377.67 1524.86 379.29 1520.75 382.69 1519.13 387.76"/><polygon class="ek" points="1512.77 418.4 1508.47 420.78 1506.13 425.1 1503.75 420.8 1499.42 418.46 1503.73 416.08 1506.07 411.75 1508.45 416.06 1512.77 418.4"/><polygon class="el" points="1534.46 399.25 1534.04 404.28 1536.39 408.74 1531.36 408.32 1526.9 410.68 1527.32 405.65 1524.96 401.19 1529.99 401.61 1534.46 399.25"/><polygon class="em" points="1510.26 162.25 1514.22 165.3 1519.2 165.73 1516.16 169.69 1515.73 174.67 1511.77 171.63 1506.79 171.2 1509.83 167.24 1510.26 162.25"/><polygon class="en" points="1514.16 512.76 1508.97 512.16 1504.28 514.46 1504.88 509.27 1502.58 504.58 1507.77 505.18 1512.46 502.88 1511.87 508.07 1514.16 512.76"/><polygon class="eo" points="1476.34 167.62 1475.75 162.88 1472.69 159.22 1477.42 158.63 1481.08 155.57 1481.68 160.3 1484.73 163.96 1480.01 164.56 1476.34 167.62"/><polygon class="ep" points="1475.15 182.94 1479.32 185.74 1484.35 185.85 1481.54 190.03 1481.43 195.05 1477.26 192.25 1472.23 192.14 1475.04 187.97 1475.15 182.94"/><polygon class="eq" points="1442.2 234.7 1437.22 235.39 1433.41 238.65 1432.72 233.68 1429.46 229.86 1434.43 229.17 1438.25 225.91 1438.93 230.88 1442.2 234.7"/><polygon class="er" points="1448.91 327 1449.33 321.76 1446.85 317.13 1452.09 317.55 1456.73 315.07 1456.31 320.31 1458.79 324.95 1453.55 324.53 1448.91 327"/><polygon class="es" points="1351.01 20.27 1354.93 17.1 1356.53 12.32 1359.69 16.25 1364.46 17.84 1360.54 21 1358.95 25.78 1355.79 21.86 1351.01 20.27"/><polygon class="et" points="1457.41 528.47 1460.71 532.5 1465.67 534.12 1461.64 537.42 1460.02 542.38 1456.72 538.34 1451.77 536.73 1455.8 533.42 1457.41 528.47"/><polygon class="eu" points="1285.8 19.02 1287.69 13.81 1286.47 8.4 1291.68 10.3 1297.08 9.08 1295.19 14.29 1296.41 19.69 1291.2 17.8 1285.8 19.02"/><polygon class="ev" points="1322.46 151.26 1317.35 150.38 1312.58 152.39 1313.46 147.28 1311.45 142.51 1316.56 143.39 1321.33 141.38 1320.45 146.49 1322.46 151.26"/><polygon class="ew" points="1332.91 222.05 1333.2 226.75 1335.97 230.55 1331.27 230.83 1327.47 233.6 1327.18 228.91 1324.41 225.1 1329.11 224.82 1332.91 222.05"/><polygon class="ex" points="1377.73 401.48 1382.41 400.2 1385.66 396.61 1386.94 401.29 1390.53 404.55 1385.85 405.82 1382.6 409.41 1381.32 404.73 1377.73 401.48"/><polygon class="ey" points="1344.45 342.62 1343.74 337.27 1340.27 333.16 1345.61 332.45 1349.72 328.98 1350.43 334.32 1353.91 338.43 1348.57 339.14 1344.45 342.62"/><polygon class="ez" points="1231.31 17.49 1227.38 21.11 1226.03 26.29 1222.4 22.36 1217.22 21.01 1221.16 17.38 1222.51 12.2 1226.14 16.13 1231.31 17.49"/><polygon class="fa" points="1356.98 410.79 1354.53 415.29 1354.9 420.39 1350.4 417.95 1345.29 418.31 1347.74 413.82 1347.37 408.71 1351.87 411.16 1356.98 410.79"/><polygon class="fb" points="1193.35 92.37 1188.16 92.54 1183.88 95.49 1183.71 90.3 1180.76 86.02 1185.95 85.84 1190.23 82.9 1190.4 88.09 1193.35 92.37"/><polygon class="fc" points="1346.85 480.24 1342.03 478.2 1336.88 479.08 1338.92 474.27 1338.04 469.12 1342.85 471.15 1348.01 470.27 1345.97 475.09 1346.85 480.24"/><polygon class="fd" points="1320.97 385.89 1322.84 390.54 1326.93 393.44 1322.28 395.32 1319.37 399.4 1317.5 394.75 1313.41 391.85 1318.06 389.97 1320.97 385.89"/><polygon class="fe" points="1039.33 20.95 1040.76 16.13 1039.36 11.3 1044.18 12.73 1049.01 11.33 1047.58 16.15 1048.98 20.98 1044.16 19.55 1039.33 20.95"/><polygon class="ff" points="1124.94 160.6 1120.92 157.15 1115.68 156.41 1119.13 152.4 1119.87 147.16 1123.88 150.61 1129.12 151.34 1125.67 155.36 1124.94 160.6"/><polygon class="fg" points="1372.72 434.58 1373.95 439.62 1377.7 443.2 1372.67 444.43 1369.09 448.18 1367.86 443.14 1364.11 439.56 1369.14 438.34 1372.72 434.58"/><polygon class="fh" points="1054.24 192.15 1052.14 187.18 1047.7 184.13 1052.66 182.03 1055.71 177.59 1057.81 182.55 1062.26 185.6 1057.29 187.7 1054.24 192.15"/><polygon class="fi" points="976.81 288.1 980.04 284.47 980.79 279.68 984.42 282.9 989.22 283.66 985.99 287.29 985.24 292.08 981.61 288.86 976.81 288.1"/><polygon class="fj" points="958.41 468.62 961.18 472.61 965.67 474.47 961.68 477.25 959.82 481.73 957.04 477.75 952.55 475.88 956.54 473.11 958.41 468.62"/><polygon class="fk" points="1213.4 8.03 1210.99 3.9 1206.75 1.73 1210.87 -0.68 1213.05 -4.92 1215.45 -0.8 1219.7 1.38 1215.57 3.78 1213.4 8.03"/><polygon class="fl" points="1052.98 507.81 1048.34 504.7 1042.76 504.59 1045.86 499.94 1045.97 494.36 1050.62 497.47 1056.2 497.58 1053.1 502.22 1052.98 507.81"/><polygon class="fm" points="1076.69 617.86 1075.91 622.54 1077.78 626.91 1073.09 626.13 1068.72 628 1069.51 623.32 1067.63 618.95 1072.32 619.73 1076.69 617.86"/><polygon class="fn" points="1125.59 421.07 1124.8 416.46 1121.65 413 1126.27 412.21 1129.73 409.07 1130.52 413.68 1133.66 417.14 1129.05 417.93 1125.59 421.07"/><polygon class="fo" points="1229.51 22.23 1234.19 24.98 1239.62 24.79 1236.86 29.46 1237.06 34.89 1232.38 32.13 1226.95 32.33 1229.71 27.65 1229.51 22.23"/><polygon class="fp" points="1136.1 702.9 1137.7 707.98 1141.8 711.39 1136.72 713 1133.31 717.09 1131.7 712.01 1127.61 708.6 1132.69 706.99 1136.1 702.9"/><polygon class="fq" points="1180.25 546.73 1180.67 542.03 1178.49 537.85 1183.19 538.27 1187.37 536.09 1186.95 540.79 1189.13 544.97 1184.44 544.55 1180.25 546.73"/><polygon class="fr" points="1253.86 31.47 1257.71 34.7 1262.69 35.34 1259.46 39.19 1258.82 44.18 1254.97 40.95 1249.98 40.3 1253.21 36.45 1253.86 31.47"/><polygon class="fs" points="1231.44 343.92 1235.55 340.9 1237.38 336.15 1240.4 340.25 1245.16 342.08 1241.05 345.1 1239.22 349.86 1236.2 345.75 1231.44 343.92"/><polygon class="ft" points="1238.59 426.29 1238.73 421 1236 416.48 1241.28 416.62 1245.8 413.88 1245.66 419.17 1248.4 423.69 1243.12 423.55 1238.59 426.29"/><polygon class="fu" points="1256.99 592.59 1251.52 592 1246.59 594.45 1247.19 588.98 1244.73 584.05 1250.2 584.64 1255.13 582.19 1254.54 587.66 1256.99 592.59"/><polygon class="fv" points="1308.07 287 1307.59 292.05 1309.9 296.56 1304.85 296.07 1300.34 298.38 1300.83 293.34 1298.52 288.82 1303.56 289.31 1308.07 287"/><polygon class="fw" points="1348.01 7.36 1350.88 11.12 1355.33 12.74 1351.57 15.61 1349.95 20.06 1347.08 16.3 1342.63 14.67 1346.39 11.8 1348.01 7.36"/><polygon class="fx" points="1367.14 5.05 1371.71 6.93 1376.58 6.04 1374.7 10.62 1375.59 15.49 1371.01 13.61 1366.14 14.49 1368.02 9.92 1367.14 5.05"/><polygon class="fy" points="1364.39 455.64 1362.23 450.91 1357.85 448.09 1362.58 445.92 1365.4 441.54 1367.57 446.28 1371.95 449.1 1367.21 451.26 1364.39 455.64"/><polygon class="fz" points="1388.16 368.68 1385.3 372.38 1384.88 377.04 1381.18 374.18 1376.53 373.76 1379.39 370.06 1379.8 365.4 1383.5 368.27 1388.16 368.68"/><polygon class="ga" points="1389.4 358.98 1389.46 353.78 1386.7 349.37 1391.9 349.43 1396.32 346.67 1396.26 351.88 1399.01 356.29 1393.81 356.23 1389.4 358.98"/><polygon class="gb" points="1399.78 468.33 1399.06 463.01 1395.59 458.92 1400.9 458.2 1405 454.73 1405.71 460.05 1409.19 464.14 1403.87 464.86 1399.78 468.33"/><polygon class="gc" points="1423.53 533.98 1420.32 537.64 1419.59 542.45 1415.93 539.24 1411.13 538.51 1414.34 534.85 1415.07 530.04 1418.72 533.25 1423.53 533.98"/><polygon class="gd" points="1440.4 724.36 1437.21 720.92 1432.67 719.75 1436.11 716.56 1437.29 712.02 1440.47 715.46 1445.02 716.63 1441.58 719.82 1440.4 724.36"/><polygon class="ge" points="1464.18 262.68 1461.29 266.76 1461.06 271.76 1456.97 268.86 1451.98 268.63 1454.87 264.55 1455.11 259.55 1459.19 262.44 1464.18 262.68"/><polygon class="gf" points="1471.33 427.95 1472.19 433.39 1475.85 437.51 1470.41 438.37 1466.3 442.03 1465.44 436.59 1461.78 432.47 1467.21 431.61 1471.33 427.95"/><polygon class="gg" points="1480.43 219.71 1484.72 222.9 1490.05 223.27 1486.86 227.56 1486.49 232.89 1482.2 229.7 1476.87 229.33 1480.06 225.04 1480.43 219.71"/><polygon class="gh" points="1490.71 674.56 1490.65 679.95 1493.52 684.52 1488.13 684.47 1483.56 687.34 1483.61 681.94 1480.74 677.37 1486.14 677.42 1490.71 674.56"/><polygon class="gi" points="1526.63 552.9 1521.74 550.44 1516.3 551 1518.76 546.11 1518.2 540.66 1523.09 543.13 1528.53 542.57 1526.07 547.46 1526.63 552.9"/><polygon class="gj" points="1540.88 525.06 1545.27 523.32 1548.03 519.49 1549.77 523.88 1553.61 526.64 1549.21 528.38 1546.45 532.22 1544.71 527.82 1540.88 525.06"/><polygon class="gk" points="1559.71 138.94 1562.27 143.84 1567.06 146.59 1562.16 149.15 1559.4 153.95 1556.85 149.04 1552.05 146.29 1556.96 143.73 1559.71 138.94"/><polygon class="gl" points="1577.82 17.32 1582.28 19.39 1587.16 18.72 1585.09 23.19 1585.75 28.06 1581.29 25.99 1576.42 26.66 1578.48 22.2 1577.82 17.32"/><polygon class="gm" points="1598.85 236.5 1593.67 234.71 1588.34 235.99 1590.13 230.81 1588.84 225.48 1594.03 227.28 1599.35 225.99 1597.56 231.17 1598.85 236.5"/><polygon class="gn" points="1611.98 314.19 1607.36 315.55 1604.21 319.18 1602.85 314.56 1599.22 311.41 1603.83 310.06 1606.99 306.42 1608.34 311.04 1611.98 314.19"/><polygon class="go" points="1621.89 637.26 1618.97 633.03 1614.22 631.05 1618.45 628.12 1620.44 623.38 1623.36 627.61 1628.11 629.6 1623.88 632.52 1621.89 637.26"/><polygon class="gp" points="1650.06 675.03 1645.77 672.64 1640.86 672.95 1643.25 668.65 1642.94 663.75 1647.24 666.14 1652.14 665.83 1649.76 670.13 1650.06 675.03"/><polygon class="gq" points="1652.2 563.33 1656.52 559.9 1658.32 554.69 1661.74 559.01 1666.95 560.8 1662.63 564.22 1660.84 569.44 1657.42 565.12 1652.2 563.33"/><polygon class="gr" points="1664.48 521.13 1665.91 516.57 1664.66 511.95 1669.22 513.39 1673.83 512.13 1672.4 516.69 1673.65 521.3 1669.09 519.87 1664.48 521.13"/><polygon class="gs" points="1671.78 63.68 1674.59 59.26 1674.57 54.03 1678.98 56.84 1684.22 56.82 1681.41 61.23 1681.43 66.47 1677.01 63.66 1671.78 63.68"/><polygon class="gt" points="1687.78 710.51 1689.68 705.43 1688.54 700.13 1693.62 702.03 1698.93 700.89 1697.03 705.97 1698.16 711.27 1693.08 709.37 1687.78 710.51"/></g></svg>