<svg xmlns="http://www.w3.org/2000/svg" xmlns:xlink="http://www.w3.org/1999/xlink" width="1920" height="1920" viewBox="0 0 1920 1920"><defs><style>.a,.b,.c{fill:none;}.b,.c{stroke:#d9b776;stroke-miterlimit:11.34;}.b{stroke-linecap:round;stroke-width:1.98px;}.c{stroke-width:1.42px;}.d{clip-path:url(#a);}.e{fill:#161515;}.f{opacity:0.4;fill:url(#b);}.aa,.ab,.ac,.ad,.ae,.af,.ag,.ah,.ai,.aj,.ak,.al,.am,.an,.ao,.ap,.aq,.ar,.as,.at,.au,.av,.aw,.ax,.ay,.az,.ba,.bb,.bc,.bd,.be,.bf,.bg,.bh,.bi,.bj,.bk,.bl,.bm,.bn,.bo,.bp,.bq,.br,.bs,.bt,.bu,.bv,.bw,.bx,.by,.bz,.ca,.cb,.cc,.cd,.ce,.cf,.cg,.ch,.ci,.cj,.ck,.cl,.cm,.cn,.co,.cp,.cq,.cr,.cs,.ct,.cu,.cv,.cw,.cx,.cy,.cz,.da,.db,.dc,.dd,.de,.df,.dg,.dh,.di,.dj,.dk,.dl,.dm,.dn,.do,.dp,.dq,.dr,.ds,.dt,.du,.dv,.dw,.dx,.dy,.dz,.ea,.eb,.ec,.ed,.ee,.ef,.eg,.eh,.ei,.ej,.ek,.el,.em,.en,.eo,.ep,.eq,.er,.es,.et,.eu,.ev,.ew,.ex,.ey,.ez,.fa,.fb,.fc,.fd,.fe,.ff,.fg,.fh,.fi,.fj,.fk,.fl,.fm,.fn,.fo,.fp,.fq,.fr,.fs,.ft,.fu,.fv,.fw,.fx,.fy,.fz,.g,.ga,.gb,.gc,.gd,.ge,.gf,.gg,.gh,.gi,.gj,.gk,.gl,.gm,.gn,.go,.gp,.gq,.gr,.gs,.gt,.gu,.gv,.gw,.gx,.gy,.gz,.h,.ha,.hb,.hc,.hd,.he,.hf,.hg,.hh,.hi,.hj,.hk,.hl,.hm,.hn,.ho,.hp,.hq,.hr,.hs,.ht,.hu,.hv,.hw,.hx,.hy,.hz,.i,.ia,.ib,.ic,.id,.ie,.if,.ig,.ih,.ii,.ij,.ik,.il,.im,.in,.io,.ip,.iq,.ir,.is,.it,.iu,.iv,.iw,.ix,.iy,.iz,.j,.ja,.jb,.jc,.jd,.je,.jf,.jg,.jh,.ji,.jj,.jk,.jl,.jm,.jn,.jo,.jp,.jq,.jr,.k,.l,.m,.n,.o,.p,.q,.r,.s,.t,.u,.v,.w,.x,.y,.z{fill:#d9b776;stroke:#161515;stroke-miterlimit:13.97;}.g{stroke-width:2.07px;}.h{stroke-width:2.16px;}.i{stroke-width:2.28px;}.j{stroke-width:2.3px;}.k{stroke-width:2.03px;}.l{stroke-width:2.23px;}.m{stroke-width:2.19px;}.n{stroke-width:1.95px;}.o{stroke-width:2.06px;}.p{stroke-width:2.09px;}.q{stroke-width:2.32px;}.r{stroke-width:2.02px;}.s{stroke-width:2.1px;}.t{stroke-width:2.05px;}.u{stroke-width:2.27px;}.v{stroke-width:2.05px;}.w{stroke-width:2.24px;}.x{stroke-width:2.03px;}.y{stroke-width:1.99px;}.z{stroke-width:2.15px;}.aa{stroke-width:2.08px;}.ab{stroke-width:2.07px;}.ac{stroke-width:2.27px;}.ad{stroke-width:2.13px;}.ae{stroke-width:1.97px;}.af{stroke-width:1.98px;}.ag{stroke-width:2.07px;}.ah{stroke-width:2.21px;}.ai{stroke-width:2.13px;}.aj{stroke-width:2px;}.ak{stroke-width:2.14px;}.al{stroke-width:2.3px;}.am{stroke-width:2.23px;}.an{stroke-width:2.1px;}.ao{stroke-width:2.15px;}.ap{stroke-width:2.23px;}.aq{stroke-width:1.95px;}.ar{stroke-width:2.2px;}.as{stroke-width:2.02px;}.at{stroke-width:2.03px;}.au{stroke-width:2.26px;}.av{stroke-width:2.27px;}.aw{stroke-width:2.01px;}.ax{stroke-width:2.21px;}.ay{stroke-width:2.3px;}.az{stroke-width:2.23px;}.ba{stroke-width:2.02px;}.bb{stroke-width:2.29px;}.bc{stroke-width:1.96px;}.bd{stroke-width:2.05px;}.be{stroke-width:2.12px;}.bf{stroke-width:2.31px;}.bg{stroke-width:2.05px;}.bh{stroke-width:2.21px;}.bi{stroke-width:2.09px;}.bj{stroke-width:2.02px;}.bk{stroke-width:2.26px;}.bl{stroke-width:2.01px;}.bm{stroke-width:2.07px;}.bn{stroke-width:2.24px;}.bo{stroke-width:2.05px;}.bp{stroke-width:1.97px;}.bq{stroke-width:2.3px;}.br{stroke-width:1.98px;}.bs{stroke-width:2.26px;}.bt{stroke-width:2.25px;}.bu{stroke-width:2.19px;}.bv{stroke-width:2.2px;}.bw{stroke-width:2.18px;}.bx{stroke-width:2.16px;}.by{stroke-width:2.25px;}.bz{stroke-width:2.03px;}.ca{stroke-width:2.01px;}.cb{stroke-width:2.32px;}.cc{stroke-width:1.97px;}.cd{stroke-width:2.32px;}.ce{stroke-width:2.09px;}.cf{stroke-width:2.2px;}.cg{stroke-width:1.99px;}.ch{stroke-width:2.03px;}.ci{stroke-width:1.99px;}.cj{stroke-width:2.25px;}.ck{stroke-width:2.26px;}.cl{stroke-width:2.26px;}.cm{stroke-width:2.23px;}.cn{stroke-width:2.13px;}.co{stroke-width:2.08px;}.cp{stroke-width:2.29px;}.cq{stroke-width:1.95px;}.cr{stroke-width:2.19px;}.cs{stroke-width:2.05px;}.ct{stroke-width:1.98px;}.cu{stroke-width:2.02px;}.cv{stroke-width:1.97px;}.cw{stroke-width:1.94px;}.cx{stroke-width:2.19px;}.cy{stroke-width:2.22px;}.cz{stroke-width:2.19px;}.da{stroke-width:2.01px;}.db{stroke-width:2.05px;}.dc{stroke-width:2.27px;}.dd{stroke-width:2.17px;}.de{stroke-width:2.31px;}.df{stroke-width:2px;}.dg{stroke-width:2.09px;}.dh{stroke-width:1.98px;}.di{stroke-width:2.23px;}.dj{stroke-width:2.07px;}.dk{stroke-width:2.08px;}.dl{stroke-width:2.06px;}.dm{stroke-width:2.27px;}.dn{stroke-width:2.27px;}.do{stroke-width:2.27px;}.dp{stroke-width:1.94px;}.dq{stroke-width:1.96px;}.dr{stroke-width:2.04px;}.ds{stroke-width:2.02px;}.dt{stroke-width:2.28px;}.du{stroke-width:2.11px;}.dv{stroke-width:2.29px;}.dw{stroke-width:2.28px;}.dx{stroke-width:2.12px;}.dy{stroke-width:2.03px;}.dz{stroke-width:2.13px;}.ea{stroke-width:1.96px;}.eb{stroke-width:2.18px;}.ec{stroke-width:2.03px;}.ed{stroke-width:2px;}.ee{stroke-width:2px;}.ef{stroke-width:2.3px;}.eg{stroke-width:2.05px;}.eh{stroke-width:2.28px;}.ei{stroke-width:1.99px;}.ej{stroke-width:2.27px;}.ek{stroke-width:2.25px;}.el{stroke-width:1.99px;}.em{stroke-width:2.02px;}.en{stroke-width:2.02px;}.eo{stroke-width:1.99px;}.ep{stroke-width:2.17px;}.eq{stroke-width:2.28px;}.er{stroke-width:2.29px;}.es{stroke-width:2.06px;}.et{stroke-width:1.96px;}.eu{stroke-width:2.05px;}.ev{stroke-width:2.15px;}.ew{stroke-width:2.03px;}.ex{stroke-width:1.97px;}.ey{stroke-width:2.07px;}.ez{stroke-width:2.25px;}.fa{stroke-width:1.97px;}.fb{stroke-width:2.27px;}.fc{stroke-width:2.23px;}.fd{stroke-width:1.99px;}.fe{stroke-width:1.97px;}.ff{stroke-width:2.28px;}.fg{stroke-width:2.08px;}.fh{stroke-width:2.11px;}.fi{stroke-width:1.98px;}.fj{stroke-width:2.09px;}.fk{stroke-width:2.28px;}.fl{stroke-width:2.1px;}.fm{stroke-width:2.07px;}.fn{stroke-width:2.3px;}.fo{stroke-width:2.22px;}.fp{stroke-width:2.24px;}.fq{stroke-width:2.05px;}.fr{stroke-width:2.09px;}.fs{stroke-width:2.06px;}.ft{stroke-width:2.22px;}.fu{stroke-width:2px;}.fv{stroke-width:2.1px;}.fw{stroke-width:2.29px;}.fx{stroke-width:2.18px;}.fy{stroke-width:2.25px;}.fz{stroke-width:2.15px;}.ga{stroke-width:2.04px;}.gb{stroke-width:2.17px;}.gc{stroke-width:2.21px;}.gd{stroke-width:2.01px;}.ge{stroke-width:2.19px;}.gf{stroke-width:2.27px;}.gg{stroke-width:2.04px;}.gh{stroke-width:2.09px;}.gi{stroke-width:2.07px;}.gj{stroke-width:2.17px;}.gk{stroke-width:2.07px;}.gl{stroke-width:1.98px;}.gm{stroke-width:2.08px;}.gn{stroke-width:2.26px;}.go{stroke-width:2.01px;}.gp{stroke-width:2.25px;}.gq{stroke-width:2.08px;}.gr{stroke-width:2.18px;}.gs{stroke-width:2.18px;}.gt{stroke-width:2.11px;}.gu{stroke-width:2.09px;}.gv{stroke-width:1.94px;}.gw{stroke-width:2.24px;}.gx{stroke-width:2.16px;}.gy{stroke-width:1.99px;}.gz{stroke-width:2.3px;}.ha{stroke-width:2.15px;}.hb{stroke-width:1.95px;}.hc{stroke-width:2.01px;}.hd{stroke-width:2.23px;}.he{stroke-width:2.22px;}.hf{stroke-width:2.12px;}.hg{stroke-width:2.23px;}.hh{stroke-width:2.21px;}.hi{stroke-width:2.22px;}.hj{stroke-width:2.15px;}.hk{stroke-width:2.17px;}.hl{stroke-width:2.08px;}.hm{stroke-width:2.29px;}.hn{stroke-width:2.2px;}.ho{stroke-width:1.99px;}.hp{stroke-width:2.09px;}.hq{stroke-width:2.19px;}.hr{stroke-width:2.11px;}.hs{stroke-width:2.15px;}.ht{stroke-width:2.24px;}.hu{stroke-width:2.01px;}.hv{stroke-width:2.02px;}.hw{stroke-width:1.98px;}.hx{stroke-width:2.32px;}.hy{stroke-width:1.97px;}.hz{stroke-width:1.94px;}.ia{stroke-width:2px;}.ib{stroke-width:2.25px;}.ic{stroke-width:2.21px;}.id{stroke-width:2.05px;}.ie{stroke-width:1.96px;}.if{stroke-width:2.08px;}.ig{stroke-width:2.11px;}.ih{stroke-width:2.19px;}.ii{stroke-width:2px;}.ij{stroke-width:2.28px;}.ik{stroke-width:2.22px;}.il{stroke-width:2.1px;}.im{stroke-width:2.21px;}.in{stroke-width:1.96px;}.io{stroke-width:2.23px;}.ip{stroke-width:2.05px;}.iq{stroke-width:2.16px;}.ir{stroke-width:1.94px;}.is{stroke-width:2.16px;}.it{stroke-width:2.23px;}.iu{stroke-width:2.02px;}.iv{stroke-width:2.19px;}.iw{stroke-width:1.95px;}.ix{stroke-width:2.08px;}.iy{stroke-width:2.28px;}.iz{stroke-width:2.22px;}.ja{stroke-width:2.24px;}.jb{stroke-width:2.1px;}.jc{stroke-width:2.27px;}.jd{stroke-width:2.09px;}.je{stroke-width:1.96px;}.jf{stroke-width:2.29px;}.jg{stroke-width:2.31px;}.jh{stroke-width:2.04px;}.ji{stroke-width:2.27px;}.jj{stroke-width:1.99px;}.jk{stroke-width:2.13px;}.jl{stroke-width:2.16px;}.jm{stroke-width:2.04px;}.jn{stroke-width:2.29px;}.jo{stroke-width:1.98px;}.jp{stroke-width:2.17px;}.jq{stroke-width:2.25px;}.jr{stroke-width:2.1px;}</style><clipPath id="a"><path class="a" d="M22.78,364.93h1920v1920H22.78Z"/></clipPath><pattern id="b" width="241.06" height="241.06" patternTransform="translate(1185.59 1665.47) scale(0.8 1.42)" patternUnits="userSpaceOnUse" viewBox="0 0 241.06 241.06"><rect class="a" width="241.06" height="241.06"/><path class="b" d="M5.07,7.42h0m9-1h0m9.62-1.59h0m8.51-1.42h0M4.6,13.68h0m8-.36h0m9-1.24h0m9-2.24h0m-26,9.68h0m7.44-.7h0m7.44-1.07h0M49.78,8h0M3.89,25.55h0m6.38-.71h0m6.26-.95h0m6.38-1.41h0m6.37-1.18h0m6.15-1.89h0m5.9-1.89h0m6.14-2.13h0m6.15-2.6h0m5.43-2.36h0m5.43-3.07h0m11.81-.89h0m-4.78,3h0m-5,2.48h0m-5,2.84h0m-5.14,2.13h0m-5.31,2.48h0m-5.32,1.94h0m-5.31,2.13h0m-5.32,1.59h0m-5.14,1.42h0m-5.67,1.6h0m-5.49.71h0m-5.67,1.06h0m-5.67.35h0m-5.49.18h0M5.6,33.93h0M1.94,37.77h0m19.84,8h0m-5.84.18h0m-6,.18h0m-6.37-.53h0m6.73,9h0m-8.15-.35h0m16.3.53h0m8-.35h0m7.09-.71h0m6.73-1.07h0m15.24,5.5h0m5.67-1.78h0M48.71,59.56h0M42.16,60.8h0m-7.44.89h0m-7.09.71h0m-15.24.35h0m7.27,0h0M4.78,62.58h0M5.84,72.5h0m16.48,8h0M4.78,81h0M14,80.82h0m35.79-3h0m-9,1.24h0m-9,.89h0m26.22-3.55h0M9.21,90.92h0m6.2-.35h0m5.67-.36h0M3,90.92H3m23.2-1.24h0M31.88,89h0m5.67-.71h0m29.06-6h0m6-1.42h0m5.49-1.77h0m5.32-1.59h0M96.67,80h0m9.56.7h0m8.51.18h0m7.62-.35h0m-17,8.5h0m-10.46-.71h0m-11-1.77h0M114.56,89h0m9.57-.71h0M131,87.26h0m7.08-.89h0m6.74-.88h0M65.72,75h0m8-2h0m7.09-2.13h0m6.73-2.3h0M40.56,70.72h0m-8.35.93h0m-9.39.53h0m-9,.35h0m34.05-2.69h0m7.08-1.24h0m6.56-1.42h0m6.2-1.59h0m6.38-2h0m6.38-2.31h0m13.46,4.79h0m11.63,3.25h0m5-2.9h0m4.79-3h0m-4.84,8.21h0M115.8,74h0m5.32,2h0m5.49,1.6h0m5.49,1.94h0m5.67,1.07h0m-37-17.07h0M10.39,36.41h0m5,2.66h0m5.14,2.3h0m5.31,2h0m5.32,1.77h0m5.66,1.78h0m5.5,1.41h0m5.49,1.24h0m5.49,1.42h0m5.32,1.42h0m5.49,1.06h0m5.31,1.24h0m5.67,1.06h0M86.57,58h0m6.14.71h0m6.14.47h0m6.38,0h0m7.56.24h0M80.9,57h0M66.43,49.29h0m12.22,2.3h0m10.63,1.06h0m11.17.71h0m10.63.36h0m8.51,6.08h0m6.49,0h0m5.31-.18h0M238.58,90.8h0m-3,3.19h0m.89,5.85h0m-.18,7.09h0m1.42,21.26h0m-8.5-.18h0m-8.33-.53h0m-8.5-1.07h0m-8.86-.88h0m-8-1.42h0m37.62,15.35h0m5,11h0m-6-.36h0m-6.2-.35h0m-5.32-.35h0m-6.08-.48h0m-5.67-.88h0m-37.2-8.33h0m5.9,1.89h0m5.91,1.89h0m-17.66-6.26h0m-5.14-2.3h0m-5-2.66h0m-5-2.83h0m9-8.51h0m-5.32,2h0m-5.67,1.95h0m-27.28,7.44h0m-5.32,1.24h0m-5.49,1.42h0M105,136.16h0M99.5,137h0m-5.14,1.42h0m-5.84,1.06h0m-5.5.89h0m-5.49.89h0m-5.49.88h0m-5.67.89h0m-5.67.71h0m-5.49.88h0m-5.49.71h0m-5.49.53h0m-5.67.89h0m-5.32.71h0m-6.49.82h0m-6,.53h0m-5.84.18h0m-5.67.71h0m-6.2.71H3m7.2,5.73h0M5.6,153.87h0M2.24,210.21h0m6,5.14h0M5.6,222.44h0M3.3,231.3h0m.35,8.32h0m8.51-.71h0m8.5-.88h0m8.15-1.42h0m8.33-1.77h0m7.44-1.77h0M12,231.12h0m8.51-.89h0m8.15-1.59h0m-15.06-11h0M18.71,220h0m5.5,2.12h0m5.31,1.6h0m5.32,1.95h0m5.31,1.77h0M45.64,229h0m5.5,1.42h0M57,231.65h0m5,1.06h0m5.49,1.07h0m6,1.24h0M79,236.08h0m5.49.88h0M90.11,238h0m5.67.71h0m22.15,1.41h0m6.37-.17h0m5.5,0h0m5.84-.36h0m5.5-.71h0m5.66-.88h0m5.67-.53h0m5.67-.89h0m5.14-.89h0m5.32-1.06h0m5.84-1.65h0m6.14-1.66h0m6.85-1.31h0m7.09-2h0m6.85-2.13h0m5.91-1.42h0m-19.55,15.65h0m-7.09-3h0M126,234.6h0M148.1,233h0m-11.16,1.24h0M166,230.71h0m-8.86,1.41h0M175,228.93h0m-59.7,5.32h0m-3.25-5.08h0m8.15.53h0m8.5,0h0m8.68-.35h0m8.15-1.07h0m8.69-.88h0m8.32-1.77h0m8.33-2.13h0m7.79-2.13h0m8.51-2.83h0m26.1-4h0M206.75,218h0m6.14,5.2h0m5.13-1.78h0m5.32-2.12h0m5.14-2.48h0m5.14-2.48h0M237,221h0m-15.59,6.55h0m8,2h0m8.86,1.6h0m-.71,8.68h0m-7.08-.41h0m-6.85-.71h0M215.64,237h0m-8.13-2.12h0m-7.32-3.07h0m-5.37-16.3h0M117,222.61h0m8.5.18h0m8.51.18h0m8.33-.89h0m8.68-.88h0m7.79-1.6h0m6.91-1.59h0m6.38-1.77h0m5.67-1.78h0m-69.27,6.91h0m3.54-7.61h0M135.64,215h0m-15.41-.36h0m8.15.53h0m14.7-.71h0m6.38-.7h0m5.49-.89h0m5.32-1.24h0m-20.38-5.31h0m-7.26.88h0m-8,.18h0m7.09-8.15h0m5.13,2.3h0m5.32,1.77h0m5.49,1.42h0m5.32,1.42h0m22.32,3h0m5.67.18h0m5.49.53h0m5.85,0h0m5.49,0h0m5.67,0h0m6,0h0m5.67.18h0m5.49,0h0m5.85.17h0m6-.35h0m5,.35h0M97,204.37h0m6.56,7.79h0m-8.15-1.95h0m-9.57-2.65h0m14.35,12.57h0m3.37,8h0m-8.33-1.24h0m9.45,6.85h0M92.06,218.36h0m-5.31,7.09h0m6.61,7h0m-14.76-8.8h0m5.31-7.09h0m-8.33-2.66h0m-8-2.65h0m12.82,19.43h0M46.35,213.22h0m21.85,15h0m-12.4-3h0m-11.87-3.54h0M34,218.13h0m-10.1-3.55h0m.65-5.61h0m5.67-.35h0m5.31-.71h0m5.85-.35h0m5.67-.71h0m5.67-.36h0m5.67-.88h0m5.31-.71h0m5.5-.71h0m5.67-.89h0m5.31-.88h0M86,201.35h0m5.67-.7h0m5.13-1.24h0m5.85-.89h0m5.49-1.42h0m5.67-.88h0m5.32-1.07h0m5.49-1.06h0M130,192.5h0m5.5-1.24h0m5.67-1.24h0m5.31-1.42h0m5.49-1.77h0m5.49-1.42h0m5.32-1.77h0m5.49-1.95h0m5.32-1.95h0m5-2.13h0m5.49-2.12h0M15.35,158.83h0M20.49,161h0M26,162.91h0m5.67,1.77h0M37,166.45h0m5,1.42h0m5.85,1.42h0m5.31,1.41h0m5.5,1.42h0m5.49,1.07h0m5.67.88h0m5.31.89h0m5.49.88h0m5.79.48h0m5.67.47h0m6.38.47h0m7.09,1h0m6.61.7h0m7.09.48h0m-23.33-9.28h0m-11.52-1.24h0M72.63,167.1h0m-12.75-2.48h0m-11.52-3h0m-10.81-3.54h0m-10.27-3.72h0m79.54,16.47h0M48.06,151.51h0M117.63,171h0m10.45-.18h0M58.93,154.35h0m15.95-7h0m8,1.77h0m8.5,2.13h0m8.33,1.59h0m8.33,1.24h0m8.5,1.06h0m8.15.54h0m8.68.53h0m8.15.35h0m32.24-3.72h0m6.38-2.48h0m5.67-2.48h0m-88.94-4.61h0m8.86,2.13h0m8,1.42h0m8.33,1.06h0m8.33.89h0m8.15,0h0m8,.53h0m6.91-.18h0m5.67-.71h0m5.31-.71h0m5.5-.88h0m5.31-1.42h0m-11.69-4.07h0m-5.85,1.41h0m-9-5.84h0m6.37-.36h0m-10.45,6.56h0m7.09,0h0m-10.81-6.91h0m-5.31,6.2h0m-2.13-7.27h0m-7.44,5.32h0m-8.68-2.3h0m-49.79,18.6h0m30.71,5.2h0m9.33.29h0m8.51.53h0m8.15,0h0m8.68-.17h0m9.57-.36h0m9.38-.53h0m8.51-1.06h0m7.79-1.07h0m8.51-1.59h0m8.32-1.6h0m7.8-1.59h0m7.44-1.59h0m7.8-1.78h0m-68.33,18.9h0m11.34-1.06h0m9.92-1.42h0m-35.32,11.81h0m6.74-.23h0m22.32-2.48h0m5.85-.54h0m5.49-1.06h0m5.67-1.06h0M177.1,173h0m-6.67-6.62h0m9-1.59h0m8.86-1.77h0m8.5-2.48h0m6.91-2h0m7.21-2.42h0m6.85-2.6h0m18,.29h0m-5,3h0m-5.14,1.94h0m-5.13,2.31h0m-5.5,2h0m-5.31,1.77h0m-5.49,1.59h0m-5.32,1.6h0m-5.67,1.59h0m-5.31,1.24h0m-5.85,1.42h0m-56.63-47.36h0m-10.63,2.65h0m-11.52,2.66h0m-10.81,2.48h0m-12.22,2.13h0m-11,1.77h0m-10.09,1.24h0M3.65,139.7h0m37.09-.06h0m9-.71h0m55.39-15.35h0m-7.2.83h0m-34.79,3.24h0m7.09-.7h0M54.68,128h0m-8.33.35h0m-8.5.18h0m-8.68,0h0m-8.33.18h0m-8.33-.36h0m-8.68-.17h0m58.82-6.74h0m-8.5-.17h0m-8.51,0h0M37,120.74h0m-8.32-.53h0M20.13,120h0m-8.5-.71h0m-8.15-.89h0m67.32,2.84h0m151.89,17.3h0m-11-1.24h0m-10.81-1.77h0m-11.34-2.48h0m-10.1-2.84h0m-10.27-3.9h0m40.33-13.58h0m18.78-8.15h0M231,96.47h0M225.82,99h0m-5.31,2.31h0m-5.32,1.94h0m-5.31,2h0m-10.22-9.62h0m4.72,11.4h0m-5.49,1.41h0m-5.67,1.24h0m-5.31,1.77h0m-5.32,1.24h0m-5.67.89h0m-5.67,1.06h0m-5.31,1.07h0m-5.67,1.06h0m-5.49.71h0m-5.85.88h0m-5.31.71h0m-5.5.36h0m-5.84.71h0m-6.2.35h0m-7.8,0h0m-5.85-.35h0m-5.67-.36h0m-5.49-.71h0m-5.49-.35h0m-5.85-.89h0m-5.49-.88h0M79,116h0m-5.67-.89h0m-5.31-.7h0m-5.14-1.24h0M57,112.06h0m-5.84-1.59h0m2.3,4.78h0m-8.51-.88h0m-8.32-.71h0m-8.51-1.24h0M19.78,111h0m-8.33-1.59h0M3.12,108h0m33.13,1.59h0m-8.5-1.24h0m-8-1.77h0m-8.33-2.66h0M3.3,101.43h0m20.73.71h0m-5-1.77h0m-5-2.13h0m-4.2-2.36h0M6,93.58H6m185.49,5.67h0m-8.86,3.9h0m-8.86,3h0m-10.27,3h0m-10.28,2.13h0m-43.76,3.18h0m10.45.36h0m10.81-.53h0m10.81-1.24h0M98.32,114h0m-10.63-1.24h0m-9.39-1.59h0M80.9,103h0m-9.57-2.48h0M68.73,109h0m-19.84-5.84h0m9.92,3h0M39.68,99.6h0M31,95.88h0m30.86,2h0M51,93.58h0m48.84,11.93h0m18.24-9.75h0M88.69,94.17h0m-9.56-1.6h0m-9.22-3h0M90.82,104.8h0M108.18,106h0m17-11h0m6.56-.54h0m-15.6,11.7h0M138,93.82h0m18.24,7.61h0m7.45-2h0m6.73-1.94h0m6.73-2.13h0M184,92.93h0m-36,10.45h0m14.18-14.17h0m-6.38,1.42h0M150,91.69h0m-6,1.24h0m-4.08,11.87h0m-7.44.71h0m-7.8.38h0M232.91,90.45h0m-5.67,0h0m-5.67-.18h0m-5.67-.35h0m-22.68-1.24h0m-5.49-.53h0m-6-.71h0m-5.5-.53h0m-5.67-.71h0m-5.31-.71h0m-5.49-1.06h0m-5.85-.89h0m-5.49-1.06h0m-5.32-1.07h0m-5.49-22.14h0m5.32-.71h0m5.67-.53h0m5.67-.89h0m5.66-.88h0m5.5-.71h0m5.67-1.07h0m5.67-1.24h0m5.49-1.06h0m5.31-1.24h0m5.32-1.24h0m27.28-8.15h0m5.14-2.3h0m5.14-2.3h0m5.31-2.49h0M158,49.82h0m11-1.77h0m-22.32,3.72h0M134.28,53h0m-11.16.53h0m57.23-8h0m9.74-2.84h0m9.21-2.83h0m8.86-3.37h0M35.07,40.43h0m-8.15-3.37h0m-7.5-3.66h0m14.71-1.77h0m7.26,4.25h0m8,2.84h0m8,2.83h0m8.5,1.6h0M74,44.56h0m8.33,1.07h0m8.68.88h0m9,.71h0m8.51.18h0m7.79-.36h0m8.15-.17h0M133,45.8h0m27.63-6.2h0m6.91-2.3h0m6.73-2.3h0M45.64,26.49h0m7.62,3.9h0m7.62,2.66h0m8,2h0m9.57,1.77h0m9,.88h0m9.75.54h0m10.27-.54h0m9.22-1.06h0m9-1.24h0m7.44-1.24h0m6.91-1.24h0m6.38-1.42h0M64.78,24.19h0m-7.09-2h0m15.24,3.9h0m17.89-6.2h0m-7.44-1.6h0M74.88,16h0m23.56,5.31h0m7.26.89h0m7.44.53h0M85.51,7.89h0m5.31,2.66h0m4.78,1.77h0m5.14,2.48h0m5.49,2.13h0m5.5,1.77h0M117,20.47h0m5.32,1.59h0M128,23.48h0m5.32,1.24h0M139,26h0m5.31.89h0m5.5,1.06h0m5.67.89h0m5.66.35h0m5.67.53h0m5.5.71h0m5.49.35h0m5.67.54h0m5.84.17h0m5.67.18h0m5.5-.18h0m5.66.18h0m6,0h0m6.2-.35h0m6,0h0m6.38-.71h0m6.38,0h0M102.69,29h0m7.09,0h0m6.91-.35h0m6.73-.71h0M163,23.42h0m-11.11-1.89h0M98,3.64h0m31.19-.3h0m6.61,2.6h0m7.09,2.84h0m6.37,1.89h0m6.85,1.89h0m82,7.55h0m-6.61-.23h0m-7.56.23h0m-7.56,0h0m-7.56-.47h0M201,19.41h0m-7.8-.71h0m-9-1.18h0m26.69,10.15h0m-7.8-.35h0m-9-.53h0M174.32,24.6h0M106.53,7.36h0m8.5,3.78h0m9,3.07h0m8.8,2.83h0m9.39,2.6h0m42.69,6.44h0M218,27.67h0m6.74-.17h0m6.55-.54h0m6.56-.53h0m-57.82-17h0m-8.68-2h0m-8.15-2.83h0m-8.33-3.54h0m33.49,9.92h0m8,1.06h0m8.33.71h0M204.86,4h0M196.17,2h0m42.05,5.38h0m0,6.42h0M230,13.9h0m-7.79-.18h0M213,13.37h0M18.6,164.62h0M3.54,162.85h0m7.44.89h0M39.68,174h0m8.86-.35h0m23.74,5h0m-8.51,1.06h0m-7.79.71h0m-8.86,1.06h0m-10.28.71h0m-11,.36h0m-11.34.35h0M4.07,192.79h0M2.12,203.42h0m10.63-.53h0m10.45-.71h0m11.52-1.06h0m9.56-1.24h0m9.22-1.24h0m9.39-1.42h0m8.32-1.42h0m8.15-1.59h0m8-1.42h0m8-1.95h0m7.79-1.77h0m7.09-1.77h0m6-1.59h0m5.85-1.78h0M11.51,192.44h0m8.5-.53h0m8.68-.54h0m9-.53h0m8.68-1.06h0m9.57-.89h0m31.53-4.6h0m6.2-1.07h0m6.56-1.06h0m-96,1.06h0m3.36-9.56h0m167.3,25.86h0M162.51,197h0m-11.34-3.3h0m36,7.73h0m12.05,1.07h0m10.8.7h0m10.81.36h0m12,0h0m-64.31-15.95h0m11.16,1.78h0m30.82,2.83h0m8.69.53h0m8.85,0h0m8.51,0h0M190,180h0m14.18,1.06h0m14.52,1.42h0m14.89.7h0M236.75,173h0m-.89-11.52h0M211.53,70.19h0M202,69.31h0m-10.27-1.42h0m-9.75-1.59h0m-11.16-2.13h0M158,61.33h0m76.19,19.49h0m-11.52-.35h0m-12.22-.71h0m-12.41-1.24h0m-14.35-2h0M145.09,69h0m-12.58-3.72h0M238.28,45h0m-9.39-1.6h0m-10.45,8h0M210.11,50h0m16.3,2.83h0m8.68.89h0m2.66,8.86h0m-7.8-.89h0M222.34,61h0m-8.15-.89h0M206.75,59h0m-16.84-3h0m8.86,1.77h0M56.33,5.54h0m6.2-3.9h0m11-.35h0M69.09,4.12h0m11.34-.35h0m3-2.84h0M68,238.85h0m-8.85,0h0m-13.47.36h0m5.85-3.37h0M39,1.45h0M38.79,8h0m6.73-3h0M53,1.63h0M45.7,239.21h0m5.85-3.37h0"/><path class="c" d="M27.07,16.19A116.84,116.84,0,0,0,43,11.59M96.77,29.48a116.16,116.16,0,0,1-16.49-1.83m31.83,68.8a92.7,92.7,0,0,1-14.71-.71m51.56,82a66.29,66.29,0,0,1-12.4,1.24M118.1,207.67a92.08,92.08,0,0,1-14.62-1.77m9.13,33.72c-4.36-.11-8,.28-11.84-.55M204.4,147.86a93.21,93.21,0,0,1-14.4-3.05M88.54,160.49A91.67,91.67,0,0,1,74,158.1M19.81,209.3c-4.34.47-8.49,1.21-12.41.89M202.6,191.6a52.26,52.26,0,0,1-11-.76m33.48-19.13a91.85,91.85,0,0,1-12.58-1.6m-13.11,51a115.86,115.86,0,0,1-15.47,5.38m-113.62-4.9a124.48,124.48,0,0,1-16.12-5.49M170,208.77c-4.25-.35-8-.89-11.87-1.59m32.07-83.63a116.08,116.08,0,0,1-15.77-5.17M60.23,83.75a119,119,0,0,1-16.15,3.81M30.2,139.48a117,117,0,0,1-16.6.16M92.14,124.2a117.67,117.67,0,0,1-16.47,2.1m-43.2,48.1a116.84,116.84,0,0,1-16.6-.27M45.14,109.2A117,117,0,0,1,29.37,104M177.53,16.6a117.48,117.48,0,0,1-16.35-2.84M155,41.17a118.22,118.22,0,0,1-16.25,3.42M230.58,7.21a117.75,117.75,0,0,1-16.5-1.77m0,38.11a117.79,117.79,0,0,1-15.91,4.72M172.8,75.19a116.12,116.12,0,0,1-16.25-3.37m77.19,46.25a119.05,119.05,0,0,1-16.25-3.37m20.15-42.34c-5.06-.18-11.44-.53-18.17-1.42m-6.92,18.75a103.61,103.61,0,0,1-15.4-.5M58.41,47.84A116.94,116.94,0,0,1,42.53,43m59.23,28.06a118.83,118.83,0,0,1-15.68,5.43m57.49,50.2a117.57,117.57,0,0,1-16.08,4.1M167.31,154a116.93,116.93,0,0,1-16.47,2M80.33,185.67a117.3,117.3,0,0,1-16.48,2"/></pattern><symbol id="c" viewBox="0 0 2189.74 2284.93"><g class="d"><path class="e" d="M22.78,364.93h1920v1920H22.78Z"/><rect class="f" x="22.78" y="364.93" width="1920" height="1920"/><polygon class="g" points="1.62 810.83 3.31 806.14 2.21 801.27 6.91 802.96 11.78 801.86 10.08 806.55 11.18 811.42 6.49 809.73 1.62 810.83"/><polygon class="h" points="63.19 630.11 60.16 634.36 59.9 639.56 55.65 636.53 50.45 636.27 53.48 632.03 53.74 626.82 57.98 629.85 63.19 630.11"/><polygon class="i" points="182.17 122.78 181.86 128.26 184.56 133.04 179.08 132.73 174.29 135.43 174.6 129.95 171.91 125.17 177.39 125.47 182.17 122.78"/><polygon class="j" points="188.6 108.11 193.72 110.27 199.2 109.32 197.04 114.44 197.99 119.92 192.87 117.76 187.4 118.71 189.55 113.59 188.6 108.11"/><polygon class="k" points="97.66 623.88 98.51 628.71 101.83 632.32 97 633.16 93.39 636.48 92.54 631.65 89.22 628.04 94.05 627.2 97.66 623.88"/><polygon class="l" points="75.25 778.92 74.18 773.66 70.43 769.82 75.69 768.74 79.54 765 80.62 770.26 84.36 774.1 79.1 775.18 75.25 778.92"/><polygon class="m" points="237.64 107.94 235.48 112.76 236.27 117.98 231.45 115.83 226.22 116.61 228.38 111.79 227.6 106.57 232.42 108.73 237.64 107.94"/><polygon class="n" points="80.61 848.04 83.92 844.69 84.89 840.09 88.24 843.39 92.84 844.36 89.54 847.71 88.57 852.32 85.22 849.01 80.61 848.04"/><polygon class="o" points="153.97 566.68 158.06 569.51 163.03 569.68 160.21 573.77 160.03 578.74 155.94 575.92 150.97 575.75 153.8 571.65 153.97 566.68"/><polygon class="p" points="216.36 332.82 217.54 327.93 215.9 323.17 220.79 324.35 225.55 322.7 224.37 327.6 226.02 332.35 221.12 331.17 216.36 332.82"/><polygon class="q" points="126.97 800.59 132.55 800.25 137.06 796.95 137.4 802.52 140.7 807.04 135.12 807.38 130.61 810.68 130.26 805.1 126.97 800.59"/><polygon class="r" points="225.12 406.8 229.97 406.34 233.8 403.33 234.27 408.18 237.28 412 232.43 412.47 228.6 415.48 228.13 410.63 225.12 406.8"/><polygon class="s" points="176.58 762.15 171.6 763.12 167.93 766.62 166.96 761.63 163.46 757.96 168.45 756.99 172.12 753.5 173.09 758.48 176.58 762.15"/><polygon class="t" points="297.18 211.21 298.9 215.84 302.84 218.82 298.21 220.54 295.24 224.48 293.52 219.85 289.57 216.88 294.2 215.16 297.18 211.21"/><polygon class="u" points="158.27 979.7 152.95 978.41 147.77 980.19 149.06 974.87 147.27 969.7 152.59 970.99 157.77 969.2 156.48 974.52 158.27 979.7"/><polygon class="v" points="177.52 881.61 181.82 879.16 184.12 874.79 186.57 879.09 190.95 881.39 186.65 883.83 184.34 888.21 181.9 883.91 177.52 881.61"/><polygon class="w" points="229.15 754.17 226.37 758.79 226.52 764.18 221.9 761.39 216.51 761.54 219.3 756.92 219.15 751.54 223.77 754.32 229.15 754.17"/><polygon class="x" points="332.31 281.25 333.94 285.88 337.81 288.89 333.19 290.52 330.18 294.39 328.54 289.77 324.67 286.76 329.3 285.13 332.31 281.25"/><polygon class="y" points="222.54 893.93 221.01 898.47 222.17 903.12 217.63 901.59 212.98 902.76 214.51 898.21 213.34 893.56 217.89 895.09 222.54 893.93"/><polygon class="z" points="327.86 439.52 323.24 437.15 318.07 437.64 320.44 433.02 319.95 427.85 324.57 430.23 329.74 429.74 327.36 434.35 327.86 439.52"/><polygon class="aa" points="360.44 357.69 355.67 359.23 352.48 363.11 350.94 358.33 347.06 355.14 351.84 353.6 355.03 349.72 356.57 354.5 360.44 357.69"/><polygon class="ab" points="419.96 84.45 421.19 89.27 424.83 92.67 420.01 93.9 416.61 97.54 415.38 92.71 411.74 89.31 416.56 88.08 419.96 84.45"/><polygon class="ac" points="352.2 503.15 348.9 507.52 348.48 512.98 344.11 509.69 338.65 509.27 341.94 504.9 342.36 499.43 346.73 502.73 352.2 503.15"/><polygon class="ad" points="363.34 443.31 366.37 439.17 366.68 434.04 370.82 437.07 375.94 437.38 372.92 441.52 372.61 446.65 368.46 443.62 363.34 443.31"/><polygon class="ae" points="303.34 808.54 304.27 803.88 302.53 799.45 307.19 800.37 311.62 798.64 310.7 803.3 312.43 807.73 307.77 806.8 303.34 808.54"/><polygon class="af" points="287.58 939.83 291.87 941.93 296.61 941.38 294.51 945.67 295.06 950.41 290.77 948.31 286.03 948.86 288.13 944.57 287.58 939.83"/><polygon class="ag" points="412.96 382.91 417.87 382.05 421.53 378.67 422.4 383.57 425.77 387.23 420.87 388.1 417.21 391.48 416.34 386.57 412.96 382.91"/><polygon class="ah" points="428.92 396.66 426.89 391.74 422.51 388.69 427.44 386.65 430.49 382.28 432.53 387.2 436.9 390.25 431.97 392.29 428.92 396.66"/><polygon class="ai" points="486.89 177.89 485.26 182.75 486.5 187.72 481.64 186.09 476.67 187.34 478.31 182.48 477.06 177.5 481.92 179.14 486.89 177.89"/><polygon class="aj" points="326.71 1006.14 330.81 1003.59 332.89 999.24 335.43 1003.34 339.79 1005.42 335.69 1007.96 333.61 1012.32 331.06 1008.22 326.71 1006.14"/><polygon class="ak" points="442.5 473.43 446.69 470.42 448.6 465.62 451.61 469.81 456.41 471.72 452.22 474.73 450.31 479.53 447.3 475.34 442.5 473.43"/><polygon class="al" points="524.05 139.86 525.48 134.51 523.79 129.23 529.15 130.66 534.42 128.97 533 134.32 534.68 139.6 529.33 138.18 524.05 139.86"/><polygon class="am" points="365.78 1051.33 363.66 1056.27 364.54 1061.56 359.6 1059.44 354.31 1060.32 356.43 1055.39 355.55 1050.09 360.48 1052.21 365.78 1051.33"/><polygon class="an" points="471 521.01 474.45 517.31 475.35 512.33 479.06 515.77 484.04 516.67 480.59 520.38 479.69 525.37 475.98 521.92 471 521.01"/><polygon class="ao" points="441.43 740.29 443.95 735.76 443.63 730.58 448.16 733.1 453.34 732.78 450.82 737.31 451.14 742.49 446.61 739.97 441.43 740.29"/><polygon class="ap" points="554.62 288.62 549.23 288.68 544.73 291.63 544.67 286.25 541.72 281.74 547.1 281.68 551.6 278.73 551.66 284.11 554.62 288.62"/><polygon class="aq" points="514.84 513.48 516.77 517.76 520.71 520.32 516.43 522.25 513.88 526.18 511.94 521.91 508.01 519.35 512.28 517.42 514.84 513.48"/><polygon class="ar" points="538.84 421.51 542.58 417.74 543.69 412.54 547.46 416.28 552.66 417.39 548.92 421.17 547.81 426.36 544.03 422.62 538.84 421.51"/><polygon class="as" points="534.31 497.9 538.52 495.47 540.75 491.15 543.19 495.36 547.51 497.6 543.3 500.03 541.06 504.35 538.63 500.14 534.31 497.9"/><polygon class="at" points="595.12 330 590.24 330.11 586.18 332.84 586.07 327.95 583.34 323.9 588.23 323.79 592.28 321.06 592.39 325.95 595.12 330"/><polygon class="au" points="500.86 881.89 495.61 883.32 491.96 887.35 490.54 882.1 486.5 878.45 491.75 877.02 495.4 872.99 496.83 878.24 500.86 881.89"/><polygon class="av" points="563.04 623.96 558.46 626.94 556.21 631.93 553.22 627.34 548.23 625.09 552.82 622.11 555.07 617.12 558.05 621.71 563.04 623.96"/><polygon class="aw" points="497.98 1035.43 493.13 1035.66 489.17 1038.47 488.94 1033.63 486.13 1029.67 490.98 1029.43 494.94 1026.62 495.17 1031.47 497.98 1035.43"/><polygon class="ax" points="555.38 775.94 551.14 772.71 545.82 772.27 549.05 768.03 549.48 762.71 553.73 765.94 559.04 766.37 555.81 770.62 555.38 775.94"/><polygon class="ay" points="499.92 1081.05 505.44 1080.5 509.78 1077.06 510.33 1082.58 513.77 1086.93 508.25 1087.48 503.91 1090.91 503.36 1085.4 499.92 1081.05"/><polygon class="az" points="616.07 529.84 620.73 527.12 623.17 522.32 625.89 526.97 630.69 529.42 626.04 532.14 623.6 536.94 620.87 532.29 616.07 529.84"/><polygon class="ba" points="559.81 952.49 555.56 950.11 550.7 950.4 553.08 946.15 552.79 941.29 557.04 943.67 561.9 943.38 559.52 947.63 559.81 952.49"/><polygon class="bb" points="585.94 822.47 590.11 818.84 591.66 813.54 595.28 817.71 600.58 819.26 596.42 822.89 594.86 828.18 591.24 824.02 585.94 822.47"/><polygon class="bc" points="590.56 890.32 593.14 894.29 597.46 896.24 593.49 898.82 591.54 903.14 588.96 899.17 584.64 897.22 588.61 894.64 590.56 890.32"/><polygon class="bd" points="708.97 309.09 713.22 306.57 715.44 302.15 717.96 306.4 722.38 308.63 718.13 311.14 715.91 315.56 713.39 311.31 708.97 309.09"/><polygon class="be" points="690.64 528.13 688.58 532.8 689.37 537.84 684.7 535.79 679.65 536.57 681.71 531.9 680.92 526.86 685.6 528.92 690.64 528.13"/><polygon class="bf" points="663.08 715.98 666.76 720.16 672.11 721.7 667.93 725.38 666.4 730.73 662.72 726.55 657.36 725.01 661.54 721.33 663.08 715.98"/><polygon class="bg" points="755.63 319.47 751.73 322.51 750.09 327.17 747.05 323.27 742.4 321.63 746.29 318.59 747.93 313.93 750.97 317.83 755.63 319.47"/><polygon class="bh" points="682.86 795.35 677.69 794.09 672.65 795.83 673.91 790.65 672.17 785.61 677.35 786.87 682.39 785.13 681.13 790.31 682.86 795.35"/><polygon class="bi" points="804.05 196.15 799.01 196.15 794.77 198.88 794.76 193.84 792.04 189.6 797.08 189.59 801.32 186.87 801.32 191.91 804.05 196.15"/><polygon class="bj" points="676.78 912.95 677.34 908.13 675.21 903.76 680.04 904.32 684.41 902.19 683.85 907.02 685.98 911.39 681.15 910.82 676.78 912.95"/><polygon class="bk" points="759.36 562.84 758.7 568.26 761.06 573.18 755.64 572.51 750.73 574.88 751.39 569.46 749.03 564.54 754.44 565.21 759.36 562.84"/><polygon class="bl" points="750.9 702.12 746.16 701.11 741.62 702.82 742.63 698.07 740.93 693.53 745.67 694.54 750.21 692.84 749.2 697.58 750.9 702.12"/><polygon class="bm" points="718.54 902.03 721.75 905.85 726.52 907.33 722.7 910.55 721.22 915.32 718.01 911.5 713.24 910.01 717.06 906.8 718.54 902.03"/><polygon class="bn" points="853.26 196.94 855.05 191.83 853.81 186.56 858.91 188.35 864.18 187.11 862.39 192.21 863.64 197.48 858.53 195.69 853.26 196.94"/><polygon class="bo" points="850.47 261.28 855.28 262.35 859.91 260.65 858.85 265.47 860.54 270.1 855.73 269.03 851.1 270.73 852.16 265.91 850.47 261.28"/><polygon class="bp" points="765.5 795.8 769.68 793.53 771.98 789.36 774.25 793.54 778.42 795.84 774.24 798.11 771.94 802.28 769.67 798.1 765.5 795.8"/><polygon class="bq" points="820.73 567.85 825.72 570.28 831.24 569.63 828.81 574.63 829.45 580.14 824.46 577.71 818.94 578.36 821.37 573.36 820.73 567.85"/><polygon class="br" points="838.71 547.7 843.32 548.95 847.88 547.5 846.63 552.12 848.08 556.67 843.46 555.43 838.91 556.87 840.15 552.26 838.71 547.7"/><polygon class="bs" points="843.78 641.41 844.49 646.81 847.99 650.98 842.59 651.68 838.41 655.19 837.71 649.79 834.21 645.61 839.61 644.91 843.78 641.41"/><polygon class="bt" points="872.1 568.45 868.17 572.18 866.88 577.44 863.14 573.51 857.88 572.21 861.81 568.48 863.11 563.22 866.84 567.15 872.1 568.45"/><polygon class="bu" points="850.06 703.3 854.42 700.32 856.48 695.46 859.46 699.82 864.32 701.88 859.96 704.86 857.89 709.72 854.92 705.36 850.06 703.3"/><polygon class="bv" points="833.7 883.63 838.85 884.91 843.87 883.2 842.59 888.35 844.29 893.37 839.15 892.09 834.13 893.79 835.41 888.65 833.7 883.63"/><polygon class="bw" points="874.02 707.82 877.38 703.78 878.02 698.56 882.07 701.92 887.28 702.57 883.92 706.61 883.28 711.82 879.24 708.46 874.02 707.82"/><polygon class="bx" points="920.34 552.4 920.79 557.59 923.97 561.72 918.78 562.17 914.66 565.35 914.21 560.16 911.02 556.04 916.21 555.58 920.34 552.4"/><polygon class="by" points="871.28 901.02 871.19 895.6 868.19 891.08 873.61 890.99 878.13 887.99 878.22 893.41 881.22 897.93 875.79 898.02 871.28 901.02"/><polygon class="bz" points="929.28 666.57 929.97 671.41 933.16 675.12 928.32 675.81 924.61 679 923.92 674.16 920.73 670.45 925.57 669.76 929.28 666.57"/><polygon class="ca" points="912.76 871.05 909.72 874.83 909.2 879.64 905.43 876.61 900.62 876.09 903.65 872.32 904.17 867.5 907.94 870.54 912.76 871.05"/><polygon class="cb" points="883 1052.38 888.24 1050.41 891.59 1045.92 893.56 1051.16 898.04 1054.51 892.8 1056.48 889.46 1060.96 887.49 1055.72 883 1052.38"/><polygon class="cc" points="1019.76 334.54 1016 331.65 1011.26 331.25 1014.16 327.48 1014.56 322.75 1018.33 325.64 1023.06 326.05 1020.16 329.81 1019.76 334.54"/><polygon class="cd" points="1027.39 317.44 1027.96 311.88 1025.45 306.89 1031.01 307.47 1036 304.95 1035.42 310.51 1037.93 315.5 1032.38 314.93 1027.39 317.44"/><polygon class="ce" points="1035.34 337.34 1040.28 336.31 1043.88 332.76 1044.92 337.71 1048.46 341.31 1043.52 342.34 1039.92 345.88 1038.88 340.94 1035.34 337.34"/><polygon class="cf" points="950.35 973.39 953.36 969.01 953.52 963.7 957.9 966.7 963.22 966.87 960.21 971.25 960.04 976.57 955.66 973.56 950.35 973.39"/><polygon class="cg" points="1066.31 301.48 1070.09 298.54 1071.68 294.03 1074.63 297.81 1079.14 299.4 1075.36 302.34 1073.77 306.86 1070.83 303.08 1066.31 301.48"/><polygon class="ch" points="1036.93 661.26 1032.04 661.38 1027.99 664.12 1027.87 659.23 1025.12 655.18 1030.01 655.05 1034.07 652.31 1034.19 657.2 1036.93 661.26"/><polygon class="ci" points="988.75 997.08 987.34 992.49 983.67 989.39 988.26 987.98 991.35 984.31 992.77 988.89 996.44 991.99 991.85 993.41 988.75 997.08"/><polygon class="cj" points="1103.94 304.14 1107.71 300.25 1108.79 294.94 1112.68 298.71 1117.99 299.79 1114.22 303.68 1113.14 308.99 1109.25 305.22 1103.94 304.14"/><polygon class="ck" points="1041.58 804.56 1044.22 799.79 1043.88 794.35 1048.65 796.99 1054.09 796.65 1051.44 801.42 1051.79 806.86 1047.02 804.22 1041.58 804.56"/><polygon class="cl" points="1126.06 281.6 1131.46 280.93 1135.64 277.46 1136.31 282.85 1139.79 287.03 1134.39 287.7 1130.21 291.18 1129.54 285.79 1126.06 281.6"/><polygon class="cm" points="1113.77 559.6 1111.32 564.38 1111.84 569.72 1107.06 567.28 1101.71 567.8 1104.16 563.02 1103.64 557.67 1108.42 560.12 1113.77 559.6"/><polygon class="cn" points="1170.26 226.17 1166.23 222.97 1161.11 222.45 1164.31 218.42 1164.83 213.3 1168.86 216.5 1173.98 217.02 1170.78 221.05 1170.26 226.17"/><polygon class="co" points="1072.12 1005.61 1072.84 1010.57 1076.12 1014.35 1071.16 1015.07 1067.38 1018.35 1066.66 1013.39 1063.38 1009.61 1068.34 1008.89 1072.12 1005.61"/><polygon class="cp" points="1112.2 829.37 1110.19 834.51 1111.27 839.93 1106.12 837.91 1100.71 838.99 1102.72 833.85 1101.64 828.43 1106.79 830.45 1112.2 829.37"/><polygon class="cq" points="1107.76 959.51 1105.94 963.85 1106.76 968.48 1102.42 966.67 1097.79 967.48 1099.6 963.14 1098.79 958.51 1103.13 960.33 1107.76 959.51"/><polygon class="cr" points="1154.91 651.07 1155.1 645.79 1152.4 641.24 1157.68 641.42 1162.23 638.73 1162.05 644.01 1164.74 648.56 1159.46 648.37 1154.91 651.07"/><polygon class="cs" points="1198.07 489.15 1196.77 493.93 1198.27 498.65 1193.48 497.36 1188.76 498.86 1190.05 494.07 1188.56 489.35 1193.34 490.64 1198.07 489.15"/><polygon class="ct" points="1201.78 464.1 1206.5 464.85 1210.88 462.93 1210.14 467.65 1212.06 472.03 1207.34 471.29 1202.95 473.21 1203.7 468.49 1201.78 464.1"/><polygon class="cu" points="1147.44 1061.05 1144.87 1056.9 1140.46 1054.79 1144.62 1052.22 1146.72 1047.82 1149.29 1051.97 1153.7 1054.08 1149.55 1056.65 1147.44 1061.05"/><polygon class="cv" points="1140.83 1173.63 1141.98 1169.03 1140.47 1164.54 1145.07 1165.69 1149.57 1164.18 1148.41 1168.78 1149.92 1173.28 1145.32 1172.12 1140.83 1173.63"/><polygon class="cw" points="1251.09 368.62 1255.65 369.66 1260.05 368.08 1259.01 372.64 1260.6 377.04 1256.03 376 1251.63 377.58 1252.67 373.02 1251.09 368.62"/><polygon class="cx" points="1174.71 1099.78 1177.06 1095.06 1176.49 1089.81 1181.21 1092.16 1186.46 1091.6 1184.11 1096.32 1184.68 1101.56 1179.95 1099.21 1174.71 1099.78"/><polygon class="cy" points="1187.91 1141.4 1185.13 1136.82 1180.32 1134.47 1184.9 1131.69 1187.25 1126.88 1190.03 1131.45 1194.84 1133.81 1190.27 1136.59 1187.91 1141.4"/><polygon class="cz" points="1265.2 558.7 1270.14 560.57 1275.31 559.47 1273.44 564.41 1274.53 569.58 1269.59 567.71 1264.43 568.8 1266.29 563.87 1265.2 558.7"/><polygon class="da" points="1274.65 682.76 1269.83 683.21 1266.01 686.2 1265.56 681.37 1262.57 677.55 1267.4 677.1 1271.22 674.12 1271.67 678.94 1274.65 682.76"/><polygon class="db" points="1274.59 668.21 1278.65 665.4 1280.55 660.84 1283.36 664.9 1287.92 666.8 1283.86 669.61 1281.96 674.17 1279.15 670.11 1274.59 668.21"/><polygon class="dc" points="1311.19 418.72 1316.39 417.05 1319.87 412.83 1321.55 418.04 1325.77 421.51 1320.56 423.19 1317.08 427.41 1315.41 422.2 1311.19 418.72"/><polygon class="dd" points="1258.56 1190.93 1253.55 1189.43 1248.51 1190.88 1250.01 1185.86 1248.56 1180.83 1253.58 1182.33 1258.62 1180.88 1257.12 1185.9 1258.56 1190.93"/><polygon class="de" points="1299.06 948.7 1293.49 948.93 1288.93 952.13 1288.7 946.57 1285.5 942.01 1291.07 941.77 1295.62 938.58 1295.86 944.14 1299.06 948.7"/><polygon class="df" points="1328.68 717.64 1329.23 722.43 1332.27 726.16 1327.49 726.71 1323.75 729.75 1323.21 724.96 1320.17 721.23 1324.95 720.68 1328.68 717.64"/><polygon class="dg" points="1379.88 364.36 1374.84 364.34 1370.58 367.05 1370.59 362.01 1367.88 357.75 1372.93 357.77 1377.18 355.06 1377.17 360.1 1379.88 364.36"/><polygon class="dh" points="1297.25 1211.96 1297.61 1207.19 1295.33 1202.98 1300.1 1203.34 1304.31 1201.06 1303.95 1205.83 1306.23 1210.04 1301.46 1209.68 1297.25 1211.96"/><polygon class="di" points="1316.14 1138.25 1320.03 1141.94 1325.3 1142.95 1321.61 1146.85 1320.6 1152.11 1316.71 1148.42 1311.44 1147.41 1315.13 1143.52 1316.14 1138.25"/><polygon class="dj" points="1383.77 611.72 1386.11 616.12 1390.46 618.56 1386.06 620.9 1383.61 625.25 1381.27 620.85 1376.93 618.4 1381.33 616.06 1383.77 611.72"/><polygon class="dk" points="1414.04 341.47 1411.71 337.04 1407.36 334.56 1411.79 332.24 1414.27 327.88 1416.6 332.31 1420.95 334.79 1416.52 337.12 1414.04 341.47"/><polygon class="dl" points="1386.73 928.31 1385.74 933.17 1387.53 937.8 1382.67 936.82 1378.04 938.61 1379.03 933.74 1377.23 929.11 1382.1 930.1 1386.73 928.31"/><polygon class="dm" points="1373 1144.82 1375.94 1140.2 1375.92 1134.72 1380.54 1137.66 1386.01 1137.64 1383.07 1142.26 1383.09 1147.73 1378.47 1144.8 1373 1144.82"/><polygon class="dn" points="1400.51 1020.22 1399.78 1014.79 1396.24 1010.6 1401.67 1009.88 1405.86 1006.34 1406.58 1011.77 1410.13 1015.96 1404.69 1016.68 1400.51 1020.22"/><polygon class="do" points="1460.06 338.11 1465.21 336.27 1468.57 331.95 1470.4 337.11 1474.73 340.46 1469.57 342.3 1466.22 346.62 1464.38 341.46 1460.06 338.11"/><polygon class="dp" points="1453.88 644.52 1457.1 647.92 1461.65 649.05 1458.25 652.27 1457.12 656.81 1453.9 653.41 1449.36 652.29 1452.76 649.07 1453.88 644.52"/><polygon class="dq" points="1489.57 257.21 1493.94 255.44 1496.66 251.59 1498.43 255.95 1502.28 258.67 1497.92 260.45 1495.2 264.3 1493.42 259.93 1489.57 257.21"/><polygon class="dr" points="1480.17 606.36 1476.07 603.63 1471.15 603.54 1473.88 599.44 1473.97 594.52 1478.07 597.25 1482.99 597.34 1480.26 601.43 1480.17 606.36"/><polygon class="ds" points="1468.46 1130.91 1469.59 1135.66 1473.11 1139.04 1468.37 1140.17 1464.98 1143.69 1463.85 1138.95 1460.33 1135.57 1465.08 1134.43 1468.46 1130.91"/><polygon class="dt" points="1488.05 794.29 1493.09 796.47 1498.52 795.59 1496.34 800.63 1497.23 806.07 1492.18 803.88 1486.75 804.77 1488.93 799.72 1488.05 794.29"/><polygon class="du" points="1499.24 963.46 1498.46 968.49 1500.52 973.14 1495.49 972.36 1490.84 974.42 1491.62 969.39 1489.56 964.74 1494.59 965.52 1499.24 963.46"/><polygon class="dv" points="1520.41 829.01 1515.12 827.41 1509.8 828.92 1511.4 823.64 1509.89 818.32 1515.18 819.92 1520.49 818.41 1518.9 823.7 1520.41 829.01"/><polygon class="dw" points="1542.69 264.44 1547.66 262.11 1550.58 257.47 1552.91 262.43 1557.56 265.36 1552.59 267.69 1549.66 272.33 1547.33 267.37 1542.69 264.44"/><polygon class="dx" points="1531.08 1001.59 1533.07 1006.29 1537.27 1009.19 1532.57 1011.17 1529.67 1015.38 1527.69 1010.67 1523.48 1007.78 1528.19 1005.79 1531.08 1001.59"/><polygon class="dy" points="1551.17 701.13 1554.58 704.66 1559.35 705.8 1555.82 709.2 1554.68 713.97 1551.28 710.44 1546.51 709.31 1550.04 705.9 1551.17 701.13"/><polygon class="dz" points="1557.14 449.6 1562.04 448.04 1565.31 444.09 1566.87 448.98 1570.82 452.26 1565.93 453.81 1562.65 457.77 1561.1 452.88 1557.14 449.6"/><polygon class="ea" points="1584.72 279.97 1580.18 281.31 1577.09 284.89 1575.75 280.36 1572.17 277.27 1576.7 275.92 1579.8 272.35 1581.14 276.88 1584.72 279.97"/><polygon class="eb" points="1584.52 536 1585.41 530.81 1583.36 525.96 1588.55 526.85 1593.4 524.79 1592.51 529.99 1594.57 534.84 1589.38 533.95 1584.52 536"/><polygon class="ec" points="1602.98 1082.08 1603.67 1086.93 1606.86 1090.63 1602.01 1091.32 1598.31 1094.51 1597.62 1089.67 1594.43 1085.96 1599.27 1085.28 1602.98 1082.08"/><polygon class="ed" points="1614.54 651.12 1610.81 648.08 1606.02 647.53 1609.07 643.8 1609.61 639.02 1613.35 642.06 1618.13 642.61 1615.09 646.34 1614.54 651.12"/><polygon class="ee" points="1610.27 463.97 1606.64 460.78 1601.86 460.05 1605.05 456.42 1605.78 451.64 1609.41 454.83 1614.19 455.56 1611 459.19 1610.27 463.97"/><polygon class="ef" points="1617.2 548.52 1618.85 543.23 1617.37 537.89 1622.66 539.53 1628 538.06 1626.36 543.35 1627.84 548.69 1622.54 547.05 1617.2 548.52"/><polygon class="eg" points="1650.74 964.53 1655.29 966.44 1660.15 965.6 1658.24 970.15 1659.09 975.01 1654.53 973.1 1649.67 973.95 1651.58 969.39 1650.74 964.53"/><polygon class="eh" points="1635.63 305.76 1638.84 310.23 1643.95 312.25 1639.49 315.46 1637.46 320.58 1634.25 316.11 1629.13 314.09 1633.6 310.87 1635.63 305.76"/><polygon class="ei" points="1658.49 587.35 1663.22 588.25 1667.68 586.46 1666.78 591.18 1668.57 595.64 1663.85 594.74 1659.38 596.53 1660.28 591.81 1658.49 587.35"/><polygon class="ej" points="1706.71 979.3 1712.15 978.72 1716.42 975.28 1717.01 980.73 1720.44 985 1715 985.59 1710.73 989.02 1710.14 983.57 1706.71 979.3"/><polygon class="ek" points="1753.6 1140.9 1748.77 1143.38 1746.05 1148.07 1743.57 1143.24 1738.87 1140.52 1743.7 1138.04 1746.42 1133.35 1748.9 1138.17 1753.6 1140.9"/><polygon class="el" points="1678.12 523.95 1682.2 521.44 1684.28 517.13 1686.79 521.2 1691.11 523.28 1687.03 525.79 1684.95 530.11 1682.44 526.03 1678.12 523.95"/><polygon class="em" points="1701.13 566.94 1704.87 570.07 1709.7 570.69 1706.57 574.42 1705.96 579.26 1702.22 576.13 1697.39 575.51 1700.51 571.78 1701.13 566.94"/><polygon class="en" points="1697.7 561.28 1701.47 564.37 1706.32 564.94 1703.22 568.72 1702.66 573.56 1698.88 570.47 1694.04 569.9 1697.13 566.13 1697.7 561.28"/><polygon class="eo" points="1760.59 778.27 1762.36 782.73 1766.25 785.52 1761.79 787.29 1758.99 791.18 1757.23 786.73 1753.34 783.93 1757.79 782.16 1760.59 778.27"/><polygon class="ep" points="1682.55 388.31 1687.78 388.56 1692.31 385.94 1692.07 391.17 1694.68 395.71 1689.45 395.46 1684.92 398.08 1685.16 392.85 1682.55 388.31"/><polygon class="eq" points="1870.77 1009.07 1873.97 1013.53 1879.08 1015.55 1874.62 1018.76 1872.6 1023.87 1869.39 1019.41 1864.28 1017.39 1868.74 1014.18 1870.77 1009.07"/><polygon class="er" points="1781.37 710.26 1775.89 709.68 1770.97 712.15 1771.55 706.67 1769.08 701.74 1774.56 702.32 1779.49 699.86 1778.91 705.33 1781.37 710.26"/><polygon class="es" points="1647.12 296.5 1642.42 294.87 1637.59 296.03 1639.22 291.33 1638.05 286.49 1642.75 288.12 1647.59 286.96 1645.96 291.66 1647.12 296.5"/><polygon class="et" points="1745.03 600.54 1740.35 601.22 1736.77 604.31 1736.09 599.63 1732.99 596.05 1737.68 595.38 1741.25 592.28 1741.93 596.96 1745.03 600.54"/><polygon class="eu" points="1996.83 1043.77 2001.64 1044.83 2006.27 1043.12 2005.21 1047.93 2006.93 1052.56 2002.11 1051.5 1997.48 1053.21 1998.54 1048.4 1996.83 1043.77"/><polygon class="ev" points="1978.4 969.84 1973.81 972.21 1971.21 976.68 1968.85 972.09 1964.37 969.5 1968.96 967.13 1971.56 962.65 1973.93 967.25 1978.4 969.84"/><polygon class="ew" points="2073.12 938.42 2072.89 943.3 2075.34 947.53 2070.46 947.3 2066.23 949.74 2066.45 944.87 2064.01 940.63 2068.89 940.86 2073.12 938.42"/><polygon class="ex" points="1487.78 477.31 1492.11 479.28 1496.81 478.6 1494.85 482.93 1495.52 487.63 1491.2 485.66 1486.49 486.34 1488.46 482.01 1487.78 477.31"/><polygon class="ey" points="1844.38 671.14 1847.17 667 1847.29 662.01 1851.43 664.81 1856.42 664.93 1853.63 669.07 1853.51 674.06 1849.37 671.26 1844.38 671.14"/><polygon class="ez" points="2000.19 672.54 1994.77 672.24 1990.03 674.9 1990.34 669.48 1987.68 664.74 1993.1 665.05 1997.84 662.39 1997.53 667.81 2000.19 672.54"/><polygon class="fa" points="1762.44 628.06 1767.2 627.92 1771.12 625.23 1771.27 629.99 1773.95 633.91 1769.2 634.05 1765.28 636.74 1765.13 631.99 1762.44 628.06"/><polygon class="fb" points="1844.47 621.93 1844.54 627.39 1847.54 631.96 1842.08 632.02 1837.52 635.02 1837.45 629.56 1834.45 625 1839.91 624.93 1844.47 621.93"/><polygon class="fc" points="2178.53 527.43 2182.28 531.28 2187.51 532.5 2183.66 536.24 2182.44 541.47 2178.69 537.62 2173.47 536.4 2177.31 532.66 2178.53 527.43"/><polygon class="fd" points="1974.95 536.89 1971.16 539.81 1969.54 544.32 1966.62 540.52 1962.11 538.9 1965.9 535.98 1967.53 531.47 1970.45 535.27 1974.95 536.89"/><polygon class="fe" points="1989.71 516.26 1985.5 518.42 1983.11 522.51 1980.95 518.29 1976.86 515.91 1981.08 513.75 1983.46 509.65 1985.62 513.87 1989.71 516.26"/><polygon class="ff" points="1828.9 586.27 1823.66 584.6 1818.36 586.01 1820.03 580.78 1818.61 575.47 1823.85 577.14 1829.15 575.73 1827.48 580.96 1828.9 586.27"/><polygon class="fg" points="1960.18 469.9 1963.47 466.13 1964.21 461.18 1967.98 464.47 1972.94 465.21 1969.64 468.98 1968.9 473.94 1965.13 470.64 1960.18 469.9"/><polygon class="fh" points="1490.74 791.36 1487.85 787.15 1483.15 785.17 1487.36 782.29 1489.34 777.59 1492.22 781.79 1496.92 783.77 1492.72 786.66 1490.74 791.36"/><polygon class="fi" points="1448.8 792.61 1451.21 796.72 1455.45 798.88 1451.34 801.29 1449.18 805.53 1446.77 801.42 1442.53 799.26 1446.64 796.85 1448.8 792.61"/><polygon class="fj" points="1732.68 594.16 1735.58 598.28 1740.23 600.18 1736.12 603.08 1734.22 607.73 1731.32 603.62 1726.66 601.72 1730.78 598.82 1732.68 594.16"/><polygon class="fk" points="1941.04 413.38 1935.9 411.41 1930.52 412.53 1932.48 407.39 1931.37 402.01 1936.5 403.98 1941.88 402.86 1939.92 407.99 1941.04 413.38"/><polygon class="fl" points="1866.98 435.9 1864.83 440.5 1865.5 445.52 1860.9 443.38 1855.88 444.05 1858.02 439.45 1857.35 434.42 1861.95 436.57 1866.98 435.9"/><polygon class="fm" points="1981.44 289.02 1985.13 292.39 1990.06 293.24 1986.69 296.93 1985.85 301.86 1982.15 298.49 1977.22 297.65 1980.59 293.95 1981.44 289.02"/><polygon class="fn" points="1442.09 849.2 1444.99 844.48 1444.89 838.95 1449.6 841.85 1455.14 841.75 1452.24 846.47 1452.34 852 1447.62 849.1 1442.09 849.2"/><polygon class="fo" points="1604.39 719.92 1609.02 722.6 1614.36 722.36 1611.68 726.99 1611.92 732.33 1607.3 729.65 1601.95 729.9 1604.63 725.27 1604.39 719.92"/><polygon class="fp" points="1577.13 746.74 1577.78 752.11 1581.23 756.28 1575.86 756.93 1571.69 760.38 1571.03 755.01 1567.58 750.84 1572.96 750.19 1577.13 746.74"/><polygon class="fq" points="1893.88 261.44 1891.98 256.88 1887.92 254.07 1892.48 252.17 1895.29 248.11 1897.19 252.67 1901.26 255.48 1896.69 257.38 1893.88 261.44"/><polygon class="fr" points="1741.88 450.54 1746.88 451.23 1751.46 449.12 1750.77 454.11 1752.88 458.7 1747.88 458 1743.3 460.12 1743.99 455.12 1741.88 450.54"/><polygon class="fs" points="1504.66 804.08 1500.3 801.7 1495.34 802.05 1497.72 797.69 1497.38 792.73 1501.74 795.11 1506.69 794.77 1504.31 799.13 1504.66 804.08"/><polygon class="ft" points="1605.79 721.67 1606.66 726.94 1610.24 730.92 1604.96 731.79 1600.99 735.37 1600.12 730.09 1596.54 726.12 1601.82 725.25 1605.79 721.67"/><polygon class="fu" points="1544.63 829.39 1546.73 825.04 1546.15 820.24 1550.5 822.34 1555.3 821.76 1553.2 826.11 1553.78 830.9 1549.43 828.81 1544.63 829.39"/><polygon class="fv" points="1722.28 374.74 1725.24 378.84 1729.95 380.71 1725.84 383.67 1723.98 388.38 1721.02 384.27 1716.31 382.41 1720.42 379.45 1722.28 374.74"/><polygon class="fw" points="1801.58 166.48 1800.22 161.13 1796.2 157.37 1801.55 156.01 1805.32 151.98 1806.67 157.33 1810.7 161.1 1805.35 162.46 1801.58 166.48"/><polygon class="fx" points="1748.52 271.81 1745.25 275.92 1744.71 281.15 1740.6 277.87 1735.37 277.33 1738.64 273.22 1739.18 268 1743.3 271.27 1748.52 271.81"/><polygon class="fy" points="1736.33 128.17 1732.81 132.29 1732.06 137.65 1727.95 134.13 1722.58 133.39 1726.1 129.28 1726.85 123.91 1730.96 127.43 1736.33 128.17"/><polygon class="fz" points="1696.88 226.55 1695.4 221.59 1691.47 218.2 1696.44 216.72 1699.82 212.8 1701.3 217.76 1705.22 221.15 1700.26 222.63 1696.88 226.55"/><polygon class="ga" points="1601.03 556.02 1604.23 552.29 1604.91 547.42 1608.64 550.62 1613.51 551.3 1610.31 555.03 1609.63 559.9 1605.9 556.7 1601.03 556.02"/><polygon class="gb" points="1510.56 898.42 1514.44 894.93 1515.83 889.89 1519.32 893.77 1524.36 895.16 1520.48 898.65 1519.09 903.69 1515.6 899.81 1510.56 898.42"/><polygon class="gc" points="1541.92 752.7 1538.52 748.6 1533.44 746.98 1537.54 743.58 1539.16 738.5 1542.56 742.6 1547.64 744.22 1543.54 747.62 1541.92 752.7"/><polygon class="gd" points="1619.94 239.57 1617.9 243.96 1618.54 248.75 1614.16 246.71 1609.36 247.36 1611.4 242.97 1610.76 238.18 1615.14 240.22 1619.94 239.57"/><polygon class="ge" points="1606.87 254.82 1603.98 259.23 1603.92 264.5 1599.52 261.61 1594.24 261.55 1597.13 257.14 1597.19 251.87 1601.6 254.76 1606.87 254.82"/><polygon class="gf" points="1597.64 243.1 1592.18 242.79 1587.42 245.48 1587.73 240.02 1585.05 235.26 1590.51 235.57 1595.27 232.88 1594.96 238.34 1597.64 243.1"/><polygon class="gg" points="1535.56 783.33 1531.25 785.71 1528.91 790.03 1526.53 785.73 1522.21 783.39 1526.51 781.01 1528.85 776.69 1531.23 780.99 1535.56 783.33"/><polygon class="gh" points="1557.24 764.18 1556.82 769.21 1559.18 773.67 1554.15 773.25 1549.69 775.61 1550.11 770.58 1547.75 766.12 1552.78 766.54 1557.24 764.18"/><polygon class="gi" points="1533.05 527.19 1537.01 530.24 1541.99 530.66 1538.94 534.63 1538.52 539.61 1534.55 536.56 1529.57 536.13 1532.62 532.17 1533.05 527.19"/><polygon class="gj" points="1536.95 877.69 1531.76 877.1 1527.07 879.4 1527.66 874.21 1525.36 869.52 1530.55 870.11 1535.24 867.81 1534.65 873 1536.95 877.69"/><polygon class="gk" points="1498.86 209.04 1503.32 206.78 1505.86 202.47 1508.12 206.93 1512.43 209.47 1507.97 211.73 1505.43 216.04 1503.17 211.58 1498.86 209.04"/><polygon class="gl" points="1499.13 532.55 1498.53 527.82 1495.48 524.16 1500.21 523.56 1503.87 520.51 1504.46 525.24 1507.52 528.9 1502.79 529.5 1499.13 532.55"/><polygon class="gm" points="1497.93 547.88 1502.1 550.68 1507.13 550.79 1504.33 554.96 1504.21 559.99 1500.04 557.18 1495.02 557.07 1497.82 552.9 1497.93 547.88"/><polygon class="gn" points="1431.94 72.89 1435.52 77.01 1440.76 78.54 1436.65 82.12 1435.12 87.36 1431.54 83.25 1426.3 81.72 1430.41 78.14 1431.94 72.89"/><polygon class="go" points="1423.69 145.1 1428.53 145.45 1432.78 143.14 1432.43 147.97 1434.74 152.23 1429.91 151.88 1425.65 154.19 1426 149.35 1423.69 145.1"/><polygon class="gp" points="1408.81 23.73 1403.53 22.48 1398.42 24.27 1399.67 18.99 1397.88 13.88 1403.15 15.13 1408.27 13.34 1407.02 18.61 1408.81 23.73"/><polygon class="gq" points="1464.98 599.64 1460.01 600.33 1456.19 603.59 1455.5 598.61 1452.24 594.8 1457.21 594.11 1461.03 590.85 1461.72 595.82 1464.98 599.64"/><polygon class="gr" points="1471.7 691.94 1472.11 686.7 1469.64 682.06 1474.88 682.48 1479.51 680 1479.1 685.24 1481.57 689.88 1476.33 689.46 1471.7 691.94"/><polygon class="gs" points="1361.09 149.72 1355.97 148.5 1351.01 150.24 1352.23 145.12 1350.49 140.16 1355.61 141.38 1360.57 139.64 1359.35 144.75 1361.09 149.72"/><polygon class="gt" points="1344.03 125.41 1339.56 122.97 1334.48 123.33 1336.91 118.86 1336.55 113.78 1341.03 116.22 1346.11 115.86 1343.67 120.33 1344.03 125.41"/><polygon class="gu" points="1373.79 385.2 1377.71 382.04 1379.31 377.26 1382.47 381.18 1387.25 382.77 1383.33 385.94 1381.73 390.71 1378.57 386.8 1373.79 385.2"/><polygon class="gv" points="1353.38 271.89 1352.26 276.43 1353.76 280.86 1349.22 279.74 1344.8 281.24 1345.92 276.7 1344.41 272.28 1348.95 273.4 1353.38 271.89"/><polygon class="gw" points="1278.31 5.06 1283.71 5.01 1288.23 2.06 1288.28 7.46 1291.23 11.97 1285.83 12.02 1281.31 14.98 1281.26 9.58 1278.31 5.06"/><polygon class="gx" points="1480.2 893.4 1483.5 897.44 1488.45 899.05 1484.42 902.36 1482.81 907.31 1479.51 903.28 1474.55 901.66 1478.58 898.36 1480.2 893.4"/><polygon class="gy" points="1298.69 296.21 1300.37 291.71 1299.35 287.01 1303.86 288.69 1308.55 287.67 1306.88 292.17 1307.89 296.87 1303.39 295.19 1298.69 296.21"/><polygon class="gz" points="1308.58 383.95 1310.47 378.75 1309.25 373.34 1314.46 375.23 1319.87 374.01 1317.98 379.22 1319.19 384.63 1313.98 382.74 1308.58 383.95"/><polygon class="ha" points="1345.24 516.2 1340.14 515.31 1335.36 517.32 1336.24 512.22 1334.23 507.44 1339.34 508.33 1344.12 506.32 1343.23 511.42 1345.24 516.2"/><polygon class="hb" points="1355.7 586.99 1355.98 591.68 1358.75 595.49 1354.05 595.77 1350.25 598.54 1349.97 593.84 1347.2 590.04 1351.9 589.76 1355.7 586.99"/><polygon class="hc" points="1400.51 766.41 1405.19 765.14 1408.45 761.54 1409.72 766.22 1413.32 769.48 1408.63 770.75 1405.38 774.35 1404.11 769.66 1400.51 766.41"/><polygon class="hd" points="1367.24 707.55 1366.53 702.21 1363.05 698.1 1368.39 697.39 1372.51 693.91 1373.22 699.25 1376.69 703.37 1371.35 704.07 1367.24 707.55"/><polygon class="he" points="1254.1 382.42 1250.17 386.05 1248.81 391.23 1245.19 387.29 1240.01 385.94 1243.94 382.31 1245.29 377.14 1248.92 381.07 1254.1 382.42"/><polygon class="hf" points="1379.76 775.72 1377.32 780.22 1377.68 785.33 1373.18 782.88 1368.08 783.25 1370.52 778.75 1370.16 773.64 1374.65 776.09 1379.76 775.72"/><polygon class="hg" points="1163.29 282.39 1163.77 277.04 1161.29 272.27 1166.64 272.75 1171.4 270.27 1170.92 275.62 1173.41 280.39 1168.05 279.91 1163.29 282.39"/><polygon class="hh" points="1171.43 310.37 1174.53 314.71 1179.48 316.69 1175.14 319.78 1173.16 324.73 1170.07 320.39 1165.12 318.42 1169.45 315.32 1171.43 310.37"/><polygon class="hi" points="1179.85 358.67 1175.45 355.63 1170.1 355.44 1173.14 351.04 1173.33 345.69 1177.73 348.73 1183.08 348.92 1180.04 353.32 1179.85 358.67"/><polygon class="hj" points="1216.13 457.3 1210.94 457.47 1206.66 460.42 1206.49 455.23 1203.54 450.95 1208.73 450.78 1213.01 447.83 1213.19 453.02 1216.13 457.3"/><polygon class="hk" points="1369.63 845.17 1364.82 843.14 1359.66 844.02 1361.7 839.2 1360.82 834.05 1365.64 836.09 1370.79 835.21 1368.75 840.02 1369.63 845.17"/><polygon class="hl" points="1343.75 750.82 1345.63 755.47 1349.71 758.38 1345.06 760.25 1342.16 764.34 1340.28 759.69 1336.19 756.78 1340.85 754.91 1343.75 750.82"/><polygon class="hm" points="1020.84 185.65 1018.02 180.89 1013.09 178.41 1017.85 175.59 1020.33 170.66 1023.15 175.41 1028.08 177.9 1023.33 180.71 1020.84 185.65"/><polygon class="hn" points="982.12 131.82 985.92 135.52 991.12 136.58 987.42 140.38 986.37 145.58 982.56 141.88 977.36 140.82 981.06 137.02 982.12 131.82"/><polygon class="ho" points="1022.44 289.17 1022.9 293.95 1025.87 297.72 1021.09 298.18 1017.31 301.15 1016.85 296.37 1013.89 292.59 1018.67 292.13 1022.44 289.17"/><polygon class="hp" points="1062.12 385.88 1063.54 381.06 1062.15 376.24 1066.97 377.66 1071.8 376.26 1070.37 381.09 1071.77 385.92 1066.94 384.49 1062.12 385.88"/><polygon class="hq" points="1147.72 525.53 1143.71 522.09 1138.47 521.35 1141.92 517.34 1142.65 512.1 1146.67 515.54 1151.9 516.28 1148.46 520.29 1147.72 525.53"/><polygon class="hr" points="902.98 299.85 904.29 304.76 908.04 308.19 903.13 309.5 899.7 313.26 898.39 308.34 894.63 304.91 899.55 303.6 902.98 299.85"/><polygon class="hs" points="1395.51 799.52 1396.73 804.56 1400.49 808.13 1395.45 809.36 1391.87 813.11 1390.64 808.08 1386.89 804.5 1391.93 803.27 1395.51 799.52"/><polygon class="ht" points="1077.03 557.08 1074.93 552.12 1070.48 549.07 1075.44 546.97 1078.49 542.52 1080.59 547.49 1085.04 550.53 1080.08 552.63 1077.03 557.08"/><polygon class="hu" points="999.6 653.03 1002.82 649.41 1003.58 644.61 1007.21 647.84 1012 648.59 1008.78 652.22 1008.02 657.01 1004.39 653.79 999.6 653.03"/><polygon class="hv" points="981.19 833.55 983.97 837.54 988.46 839.4 984.47 842.18 982.6 846.67 979.83 842.68 975.34 840.82 979.33 838.04 981.19 833.55"/><polygon class="hw" points="1236.18 372.96 1233.78 368.84 1229.53 366.66 1233.66 364.26 1235.83 360.01 1238.23 364.14 1242.48 366.31 1238.36 368.71 1236.18 372.96"/><polygon class="hx" points="1075.77 872.74 1071.13 869.63 1065.54 869.52 1068.65 864.88 1068.76 859.29 1073.4 862.4 1078.99 862.51 1075.88 867.15 1075.77 872.74"/><polygon class="hy" points="1099.47 982.79 1098.69 987.48 1100.57 991.85 1095.88 991.07 1091.51 992.94 1092.29 988.25 1090.42 983.88 1095.11 984.66 1099.47 982.79"/><polygon class="hz" points="1148.37 786.01 1147.59 781.39 1144.44 777.93 1149.05 777.15 1152.52 774 1153.3 778.62 1156.45 782.08 1151.83 782.86 1148.37 786.01"/><polygon class="ia" points="1254.16 321.11 1258.51 323.16 1263.29 322.54 1261.23 326.9 1261.86 331.67 1257.5 329.62 1252.73 330.24 1254.78 325.89 1254.16 321.11"/><polygon class="ib" points="1252.29 387.16 1256.97 389.92 1262.4 389.72 1259.64 394.4 1259.84 399.83 1255.16 397.07 1249.73 397.27 1252.49 392.59 1252.29 387.16"/><polygon class="ic" points="1158.88 1067.83 1160.49 1072.91 1164.58 1076.32 1159.51 1077.93 1156.1 1082.03 1154.49 1076.95 1150.39 1073.54 1155.47 1071.93 1158.88 1067.83"/><polygon class="id" points="1275.56 257.72 1280.27 256.24 1283.44 252.44 1284.93 257.15 1288.72 260.32 1284.01 261.81 1280.84 265.6 1279.36 260.89 1275.56 257.72"/><polygon class="ie" points="1203.04 911.66 1203.46 906.97 1201.28 902.79 1205.98 903.21 1210.16 901.03 1209.74 905.72 1211.92 909.91 1207.22 909.49 1203.04 911.66"/><polygon class="if" points="1276.64 396.41 1280.49 399.64 1285.48 400.28 1282.25 404.13 1281.6 409.11 1277.75 405.88 1272.77 405.24 1276 401.39 1276.64 396.41"/><polygon class="ig" points="1254.23 708.86 1258.34 705.84 1260.17 701.08 1263.18 705.19 1267.94 707.02 1263.83 710.04 1262 714.79 1258.99 710.69 1254.23 708.86"/><polygon class="ih" points="1261.38 791.22 1261.52 785.94 1258.78 781.41 1264.07 781.55 1268.59 778.82 1268.45 784.1 1271.18 788.63 1265.9 788.49 1261.38 791.22"/><polygon class="ii" points="1326.24 270.4 1328.09 274.84 1332.05 277.58 1327.61 279.43 1324.87 283.38 1323.01 278.94 1319.06 276.2 1323.5 274.35 1326.24 270.4"/><polygon class="ij" points="1279.78 957.52 1274.3 956.93 1269.38 959.38 1269.97 953.91 1267.52 948.99 1272.99 949.58 1277.91 947.13 1277.32 952.6 1279.78 957.52"/><polygon class="ik" points="1329.64 351.07 1328.75 345.79 1325.16 341.81 1330.44 340.93 1334.41 337.33 1335.3 342.62 1338.89 346.59 1333.61 347.48 1329.64 351.07"/><polygon class="il" points="1330.86 651.94 1330.37 656.98 1332.68 661.5 1327.63 661.01 1323.12 663.32 1323.61 658.27 1321.3 653.76 1326.35 654.25 1330.86 651.94"/><polygon class="im" points="1376.88 176.91 1372.54 180.02 1370.57 184.98 1367.45 180.65 1362.49 178.67 1366.83 175.56 1368.8 170.6 1371.92 174.94 1376.88 176.91"/><polygon class="in" points="1370.8 372.29 1373.67 376.06 1378.12 377.68 1374.35 380.55 1372.73 385 1369.86 381.23 1365.41 379.61 1369.18 376.74 1370.8 372.29"/><polygon class="io" points="1377.4 247.85 1382.21 245.45 1384.97 240.83 1387.37 245.64 1391.98 248.4 1387.17 250.8 1384.42 255.41 1382.02 250.6 1377.4 247.85"/><polygon class="ip" points="1389.92 369.99 1394.5 371.87 1399.36 370.98 1397.48 375.56 1398.37 380.42 1393.8 378.54 1388.93 379.43 1390.81 374.85 1389.92 369.99"/><polygon class="iq" points="1387.18 820.58 1385.01 815.84 1380.63 813.02 1385.37 810.86 1388.19 806.48 1390.35 811.21 1394.73 814.03 1390 816.2 1387.18 820.58"/><polygon class="ir" points="1410.94 733.62 1408.08 737.32 1407.67 741.97 1403.97 739.11 1399.31 738.7 1402.17 735 1402.59 730.34 1406.29 733.2 1410.94 733.62"/><polygon class="is" points="1412.18 723.92 1412.24 718.72 1409.49 714.3 1414.69 714.37 1419.1 711.61 1419.04 716.81 1421.8 721.22 1416.6 721.16 1412.18 723.92"/><polygon class="it" points="1422.56 833.27 1421.84 827.95 1418.37 823.86 1423.69 823.14 1427.78 819.67 1428.5 824.99 1431.97 829.08 1426.65 829.79 1422.56 833.27"/><polygon class="iu" points="1446.31 898.92 1443.1 902.57 1442.37 907.38 1438.72 904.17 1433.91 903.44 1437.12 899.79 1437.85 894.98 1441.51 898.19 1446.31 898.92"/><polygon class="iv" points="1460.52 322.38 1462.46 317.46 1461.45 312.29 1466.36 314.22 1471.54 313.21 1469.6 318.12 1470.62 323.3 1465.7 321.36 1460.52 322.38"/><polygon class="iw" points="1463.18 1089.3 1460 1085.86 1455.45 1084.68 1458.89 1081.49 1460.07 1076.95 1463.26 1080.39 1467.8 1081.57 1464.36 1084.76 1463.18 1089.3"/><polygon class="ix" points="1486.97 627.61 1484.08 631.69 1483.84 636.69 1479.76 633.8 1474.76 633.56 1477.65 629.48 1477.89 624.48 1481.97 627.38 1486.97 627.61"/><polygon class="iy" points="1494.12 792.88 1494.98 798.33 1498.64 802.44 1493.2 803.3 1489.08 806.96 1488.22 801.52 1484.56 797.41 1490 796.54 1494.12 792.88"/><polygon class="iz" points="1503.21 584.65 1507.5 587.84 1512.83 588.2 1509.64 592.49 1509.28 597.83 1504.99 594.64 1499.65 594.27 1502.84 589.98 1503.21 584.65"/><polygon class="ja" points="1513.49 1039.49 1513.44 1044.88 1516.31 1049.46 1510.91 1049.4 1506.34 1052.27 1506.39 1046.88 1503.53 1042.31 1508.92 1042.36 1513.49 1039.49"/><polygon class="jb" points="1531.97 350.37 1531.09 345.38 1527.65 341.65 1532.64 340.77 1536.37 337.33 1537.25 342.32 1540.69 346.05 1535.7 346.94 1531.97 350.37"/><polygon class="jc" points="1549.41 917.84 1544.53 915.37 1539.08 915.93 1541.54 911.04 1540.98 905.6 1545.87 908.06 1551.32 907.5 1548.85 912.39 1549.41 917.84"/><polygon class="jd" points="1563.38 352.96 1559.1 350.33 1554.08 350.42 1556.71 346.14 1556.62 341.11 1560.9 343.75 1565.93 343.65 1563.29 347.94 1563.38 352.96"/><polygon class="je" points="1563.66 890 1568.06 888.26 1570.82 884.42 1572.56 888.81 1576.39 891.58 1572 893.32 1569.24 897.15 1567.5 892.76 1563.66 890"/><polygon class="jf" points="1582.49 503.87 1585.05 508.78 1589.85 511.53 1584.94 514.08 1582.19 518.88 1579.63 513.98 1574.84 511.22 1579.74 508.67 1582.49 503.87"/><polygon class="jg" points="1590.36 239.05 1595.39 241.44 1600.92 240.73 1598.53 245.76 1599.24 251.29 1594.21 248.9 1588.68 249.61 1591.07 244.58 1590.36 239.05"/><polygon class="jh" points="1600.6 382.26 1605.07 384.32 1609.94 383.66 1607.87 388.12 1608.54 393 1604.08 390.93 1599.2 391.59 1601.27 387.13 1600.6 382.26"/><polygon class="ji" points="1621.63 601.43 1616.45 599.64 1611.12 600.93 1612.91 595.75 1611.63 590.42 1616.81 592.21 1622.14 590.92 1620.35 596.1 1621.63 601.43"/><polygon class="jj" points="1634.76 679.13 1630.15 680.48 1626.99 684.11 1625.63 679.5 1622 676.35 1626.62 674.99 1629.77 671.36 1631.13 675.97 1634.76 679.13"/><polygon class="jk" points="1644.67 1002.2 1641.75 997.97 1637.01 995.98 1641.24 993.06 1643.22 988.31 1646.15 992.54 1650.89 994.53 1646.66 997.46 1644.67 1002.2"/><polygon class="jl" points="1647.23 289.7 1648.78 284.74 1647.4 279.73 1652.36 281.27 1657.38 279.89 1655.83 284.85 1657.21 289.87 1652.25 288.32 1647.23 289.7"/><polygon class="jm" points="1672.84 1039.97 1668.55 1037.58 1663.64 1037.88 1666.03 1033.59 1665.73 1028.68 1670.02 1031.07 1674.93 1030.77 1672.54 1035.06 1672.84 1039.97"/><polygon class="jn" points="1674.99 928.26 1679.31 924.84 1681.1 919.62 1684.52 923.94 1689.74 925.73 1685.42 929.16 1683.63 934.37 1680.2 930.05 1674.99 928.26"/><polygon class="jo" points="1687.26 886.06 1688.7 881.5 1687.44 876.89 1692 878.32 1696.61 877.07 1695.18 881.63 1696.43 886.24 1691.88 884.81 1687.26 886.06"/><polygon class="jp" points="1694.57 428.61 1697.37 424.2 1697.35 418.97 1701.77 421.77 1707 421.75 1704.19 426.17 1704.21 431.4 1699.8 428.6 1694.57 428.61"/><polygon class="jq" points="1710.56 1075.44 1712.47 1070.37 1711.33 1065.06 1716.41 1066.96 1721.71 1065.83 1719.81 1070.9 1720.95 1076.21 1715.87 1074.31 1710.56 1075.44"/><polygon class="jr" points="1717.58 177.46 1722.64 177.61 1726.98 175.01 1726.83 180.07 1729.43 184.41 1724.37 184.26 1720.03 186.86 1720.18 181.8 1717.58 177.46"/></g></symbol></defs><use width="2189.74" height="2284.93" transform="translate(-22.78 -364.93)" xlink:href="#c"/></svg>