<svg xmlns="http://www.w3.org/2000/svg" xmlns:xlink="http://www.w3.org/1999/xlink" viewBox="0 0 19871.75 1088"><defs><style>.a,.b,.c,.l{fill:none;}.aa,.ab,.ac,.ad,.ae,.af,.ag,.ah,.ai,.aj,.ak,.al,.am,.an,.ao,.ap,.aq,.ar,.as,.at,.au,.av,.aw,.ax,.ay,.az,.b,.ba,.bb,.bc,.bd,.be,.bf,.bg,.bh,.bi,.bj,.bk,.bl,.bm,.bn,.bo,.bp,.bq,.br,.bs,.bt,.bu,.bv,.bw,.bx,.by,.bz,.c,.ca,.cb,.cc,.cd,.ce,.cf,.cg,.ch,.ci,.cj,.ck,.cl,.cm,.cn,.co,.cp,.cq,.cr,.cs,.ct,.cu,.cv,.cw,.cx,.cy,.cz,.da,.db,.dc,.dd,.de,.df,.dg,.dh,.di,.dj,.dk,.dl,.dm,.dn,.do,.dp,.dq,.dr,.ds,.dt,.du,.dv,.dw,.dx,.dy,.dz,.ea,.eb,.ec,.ed,.ee,.ef,.eg,.eh,.ei,.l,.n,.o,.p,.q,.r,.s,.t,.u,.v,.w,.x,.y,.z{stroke:#d9b776;}.b,.c{stroke-miterlimit:11.34;}.b{stroke-width:1.42px;}.c{stroke-linecap:round;stroke-width:1.98px;}.d{clip-path:url(#a);}.aa,.ab,.ac,.ad,.ae,.af,.ag,.ah,.ai,.aj,.ak,.al,.am,.an,.ao,.ap,.aq,.ar,.as,.at,.au,.av,.aw,.ax,.ay,.az,.ba,.bb,.bc,.bd,.be,.bf,.bg,.bh,.bi,.bj,.bk,.bl,.bm,.bn,.bo,.bp,.bq,.br,.bs,.bt,.bu,.bv,.bw,.bx,.by,.bz,.ca,.cb,.cc,.cd,.ce,.cf,.cg,.ch,.ci,.cj,.ck,.cl,.cm,.cn,.co,.cp,.cq,.cr,.cs,.ct,.cu,.cv,.cw,.cx,.cy,.cz,.da,.db,.dc,.dd,.de,.df,.dg,.dh,.di,.dj,.dk,.dl,.dm,.dn,.do,.dp,.dq,.dr,.ds,.dt,.du,.dv,.dw,.dx,.dy,.dz,.e,.ea,.eb,.ec,.ed,.ee,.ef,.eg,.eh,.ei,.n,.o,.p,.q,.r,.s,.t,.u,.v,.w,.x,.y,.z{fill:#161515;}.f{clip-path:url(#b);}.g{opacity:0.5;}.h,.i{isolation:isolate;}.i{font-size:56.8px;fill:#d9b776;font-family:morse;}.j{font-size:55.03px;}.k{font-size:59.17px;}.l{stroke-miterlimit:8.09;stroke-width:11.09px;}.m{fill:url(#c);}.n{stroke-width:2.08px;}.o{stroke-width:2.21px;}.p{stroke-width:2.21px;}.q{stroke-width:2.21px;}.r{stroke-width:2.21px;}.s{stroke-width:2.21px;}.t{stroke-width:2.21px;}.u{stroke-width:2.21px;}.v{stroke-width:2.21px;}.w{stroke-width:2.21px;}.x{stroke-width:2.21px;}.y{stroke-width:2.21px;}.z{stroke-width:2.21px;}.aa{stroke-width:2.21px;}.ab{stroke-width:2.19px;}.ac{stroke-width:2.17px;}.ad{stroke-width:2.16px;}.ae{stroke-width:2.14px;}.af{stroke-width:2.12px;}.ag{stroke-width:2.11px;}.ah{stroke-width:2.08px;}.ai{stroke-width:2.05px;}.aj{stroke-width:2.03px;}.ak{stroke-width:2px;}.al{stroke-width:1.98px;}.am{stroke-width:1.95px;}.an{stroke-width:1.9px;}.ao{stroke-width:1.81px;}.ap{stroke-width:2.07px;}.aq{stroke-width:2.07px;}.ar{stroke-width:2.07px;}.as{stroke-width:2.07px;}.at{stroke-width:2.04px;}.au{stroke-width:2.01px;}.av{stroke-width:1.99px;}.aw{stroke-width:1.9px;}.ax{stroke-width:2.1px;}.ay{stroke-width:2.2px;}.az{stroke-width:2.21px;}.ba{stroke-width:2.18px;}.bb{stroke-width:2.15px;}.bc{stroke-width:2.08px;}.bd{stroke-width:2.02px;}.be{stroke-width:2px;}.bf{stroke-width:2.01px;}.bg{stroke-width:2.08px;}.bh{stroke-width:2.14px;}.bi{stroke-width:2.13px;}.bj{stroke-width:2.06px;}.bk{stroke-width:1.97px;}.bl{stroke-width:1.99px;}.bm{stroke-width:1.97px;}.bn{stroke-width:1.96px;}.bo{stroke-width:1.91px;}.bp{stroke-width:1.86px;}.bq{stroke-width:2px;}.br{stroke-width:2.02px;}.bs{stroke-width:2.03px;}.bt{stroke-width:2.03px;}.bu{stroke-width:2.03px;}.bv{stroke-width:1.99px;}.bw{stroke-width:1.95px;}.bx{stroke-width:2.08px;}.by{stroke-width:2.07px;}.bz{stroke-width:2.04px;}.ca{stroke-width:1.94px;}.cb{stroke-width:2.02px;}.cc{stroke-width:2.13px;}.cd{stroke-width:2.08px;}.ce{stroke-width:2.03px;}.cf{stroke-width:2.02px;}.cg{stroke-width:2.01px;}.ch{stroke-width:2px;}.ci{stroke-width:2px;}.cj{stroke-width:1.99px;}.ck{stroke-width:1.98px;}.cl{stroke-width:1.98px;}.cm{stroke-width:1.97px;}.cn{stroke-width:1.92px;}.co{stroke-width:1.8px;}.cp{stroke-width:2.35px;}.cq{stroke-width:2.34px;}.cr{stroke-width:2.34px;}.cs{stroke-width:2.31px;}.ct{stroke-width:2.29px;}.cu{stroke-width:2.26px;}.cv{stroke-width:2.24px;}.cw{stroke-width:2.22px;}.cx{stroke-width:2.2px;}.cy{stroke-width:2.18px;}.cz{stroke-width:2.16px;}.da{stroke-width:2.05px;}.db{stroke-width:2.55px;}.dc{stroke-width:2.47px;}.dd{stroke-width:2.43px;}.de{stroke-width:2.4px;}.df{stroke-width:2.39px;}.dg{stroke-width:2.38px;}.dh{stroke-width:2.37px;}.di{stroke-width:2.36px;}.dj{stroke-width:2.35px;}.dk{stroke-width:2.32px;}.dl{stroke-width:2.29px;}.dm{stroke-width:2.24px;}.dn{stroke-width:2.18px;}.do{stroke-width:2.13px;}.dp{stroke-width:2.06px;}.dq{stroke-width:1.88px;}.dr{stroke-width:2.27px;}.ds{stroke-width:2.13px;}.dt{stroke-width:2.12px;}.du{stroke-width:2.1px;}.dv{stroke-width:2.09px;}.dw{stroke-width:2.08px;}.dx{stroke-width:1.79px;}.dy{stroke-width:2.65px;}.dz{stroke-width:2.64px;}.ea{stroke-width:2.64px;}.eb{stroke-width:2.63px;}.ec{stroke-width:2.62px;}.ed{stroke-width:2.59px;}.ee{stroke-width:2.57px;}.ef{stroke-width:2.51px;}.eg{stroke-width:2.46px;}.eh{stroke-width:2.42px;}.ei{stroke-width:2.27px;}</style><clipPath id="a"><rect class="a" x="8981.4" width="1920" height="1080"/></clipPath><clipPath id="b"><path class="a" d="M8975.63,1079.42h1920.49l5.28-465.65c-52.87,10.52-116.66,23.88-188.29,40.35-164.18,37.73-245.88,57.06-266.75,64.74-25.64,9.44-56.78,22.33-102.87,23.77-39.75,1.25-48.32-7.35-99.43-8-58.09-.73-57.47,10.24-112.52,8.89-54.11-1.33-67.08-12.23-109.81-7.06-14.24,1.72-28.14,4.79-52.87,5.29-20.38.42-24.21-1.4-42.7,0-24,1.82-30.36,5.84-40.26,3.28-12.21-3.15-8.24-10.74-22.61-15-9.3-2.76-14-.56-27.41-2.5-15.19-2.2-21.38-6.82-31.86-11.12-19.86-8.15-28.83-4.37-66.59-11.72-38.65-7.52-35.3-12.65-64.81-16.5-28.15-3.68-30.9,1-62.88-1.76-25.17-2.18-43.83-7.21-81.15-17.25-40.15-10.81-41.06-13.61-66-18.44-30.13-5.83-44.1-4.7-69.28-7.64-50.18-5.87-60.29-18-103.9-29.45-59.41-15.56-83.49-4.21-188.84-13.78a1219.68,1219.68,0,0,1-126.52-18.21"/></clipPath><pattern id="c" width="153.43" height="153.43" patternTransform="matrix(1.29, 0.74, -1.43, 0.67, 9651.04, 692.49)" patternUnits="userSpaceOnUse" viewBox="0 0 153.43 153.43"><rect class="a" width="153.43" height="153.43"/><path class="b" d="M20.2,9.39c-9-1.18-13.94,1.89-17.48,2.6m42.52-.71c-7.76,3.15-14.18,1.18-19.37-.71M50.2,9.39c10.16-1.89,17,2.6,21.26,3.07m5.9,0c4.26,0,7.33-2.12,10.87-3.07a20.59,20.59,0,0,1,12.52.24m25.51-.24c-6.14,3.07-17.48,2.83-20.79,2.13m46.3.7c-1.18-.23-6.38,1.18-10.22-1.41-5.13-1.42-4.42-1.66-10.09-1.42M8.38,23.09A26.46,26.46,0,0,1,0,25.3m33.9.63c-1.18-.24-6.38,1.18-10.23-1.42-5.13-1.42-4.42-1.65-10.09-1.42m94.73,16.77c3.54-.71,8.5-3.78,17.48-2.6m25,1.89c-7.76,3.16-14.18,1.18-19.37-.71M43.11,124c3.54-.71,8.5-3.78,17.48-2.6m25,1.89c-7.75,3.15-14.17,1.18-19.37-.71m24.33-1.18c10.16-1.89,17,2.6,21.26,3.07m5.91,0c4.25,0,7.32-2.13,10.86-3.07a20.65,20.65,0,0,1,12.52.23m-126.61-.7c-3.88,1.94-9.84,2.56-14.53,2.57m40,.26c-1.18-.23-6.38,1.18-10.23-1.42-5.13-1.41-4.42-1.65-10.09-1.41M3,150.65a23.68,23.68,0,0,1-2.95,1m7.91-2.87c10.16-1.89,17,2.6,21.26,3.07m5.91,0c4.25,0,7.32-2.13,10.86-3.07a20.59,20.59,0,0,1,12.52.24M84,148.76c-6.15,3.07-17.48,2.84-20.79,2.13m46.3.71c-1.18-.24-6.38,1.17-10.23-1.42-5.13-1.42-4.42-1.66-10.09-1.42M114,150.89c3.54-.71,8.5-3.78,17.48-2.6M0,53.09a28.93,28.93,0,0,1,13.94-1.53m25,1.88c-7.76,3.16-14.18,1.19-19.37-.7m24.33-1.18c10.15-1.89,17,2.59,21.26,3.07m5.9,0c4.25,0,7.33-2.13,10.87-3.07a20.65,20.65,0,0,1,12.52.23M120,51.56c-6.14,3.07-17.48,2.83-20.79,2.12m46.3.71c-1.18-.24-6.38,1.18-10.22-1.42-5.13-1.41-4.42-1.65-10.09-1.41M2.83,95.61c3.55-.71,8.51-3.78,17.49-2.6m25,1.89C37.6,98.05,31.18,96.08,26,94.19M50.31,93c10.16-1.89,17,2.6,21.26,3.07m5.91,0c4.25,0,7.32-2.12,10.87-3.07a20.74,20.74,0,0,1,12.52.24M126.38,93c-6.14,3.07-17.48,2.84-20.79,2.13m46.3.71c-1.18-.24-6.38,1.18-10.23-1.42-5.12-1.42-4.41-1.65-10.08-1.42M3.19,137.78c3.54-.71,8.5-3.78,17.48-2.6m25,1.89c-7.76,3.15-14.17,1.18-19.37-.71m24.33-1.18c10.16-1.89,17,2.6,21.26,3.07m5.9,0c4.26,0,7.33-2.13,10.87-3.07a20.65,20.65,0,0,1,12.52.23m25.51-.23c-6.14,3.07-17.48,2.83-20.79,2.12m46.3.71c-1.18-.23-6.37,1.18-10.22-1.42-5.13-1.41-4.42-1.65-10.09-1.41M36.5,25.81C40,25.1,45,22,54,23.21M79,25.1c-7.76,3.15-14.18,1.18-19.37-.71M84,23.21c10.15-1.89,17,2.6,21.26,3.07m5.9,0c4.25,0,7.33-2.13,10.87-3.07a20.59,20.59,0,0,1,12.52.24M1.06,37.14c10.16-1.88,17,2.6,21.26,3.08m5.91,0c4.25,0,7.32-2.13,10.87-3.08a20.71,20.71,0,0,1,12.51.24m25.52-.23C71,40.22,59.65,40,56.34,39.27m46.3.71c-1.18-.24-6.38,1.18-10.23-1.42-5.13-1.41-4.42-1.65-10.09-1.41M2.25,67.62c3.54-.71,8.5-3.78,17.47-2.6m25,1.89C37,70.06,30.59,68.09,25.39,66.2M49.73,65c10.15-1.89,17,2.6,21.26,3.07m5.9,0c4.25,0,7.32-2.12,10.86-3.07a20.62,20.62,0,0,1,12.53.24M125.79,65c-6.15,3.07-17.48,2.83-20.79,2.13m46.3.7c-1.18-.23-6.38,1.19-10.23-1.41C135.94,65,136.65,64.78,131,65M41.22,81.44c3.54-.71,8.51-3.78,17.48-2.6m25,1.89C76,83.88,69.57,81.91,64.37,80M88.7,78.84c10.16-1.89,17,2.6,21.26,3.07m5.91,0c4.25,0,7.32-2.13,10.86-3.07a20.59,20.59,0,0,1,12.52.24M44.76,110.14c3.55-.71,8.51-3.78,17.48-2.6m25,1.89c-7.75,3.15-14.17,1.18-19.37-.71m24.34-1.18c10.15-1.89,17,2.6,21.25,3.07m5.91,0c4.25,0,7.32-2.13,10.86-3.07a20.62,20.62,0,0,1,12.53.24m-127.21-.59c-4.18,2.08-10.77,2.64-15.59,2.56m41.1.27c-1.18-.24-6.38,1.18-10.22-1.42-5.13-1.41-4.42-1.65-10.09-1.41m-9.1-28C8.56,80.76,4.08,81.46,0,81.69M37.2,82C36,81.79,30.83,83.21,27,80.61c-5.13-1.42-4.42-1.65-10.09-1.42M153.43,25.3A46.16,46.16,0,0,1,141,25.22m12.41,98.24a33.67,33.67,0,0,1-6.26-.45m6.26,28.62c-6.45,1.66-11.9,0-16.42-1.69m16.42-96.85a30.19,30.19,0,0,1-3.55,1.06m3.55,55.6a29.21,29.21,0,0,1-5.2-.44m5.2-27.62a41,41,0,0,1-9.1-.37"/><path class="c" d="M1.3,5.31h0M7,4.41H7m5.15-1.75h0m5.46-.36h0m5.53.36h0M28.6,3.91h0m5.23,1h0m5.75.35h0m5.83-.9h0m5.16-1.75h0M56,2.3h0m5.52.36h0M67,3.91h0M72,5h0m5.68.19h0m5.83-.9h0M88.62,2.5h0m5.47-.36h0m5.52.36h0m5.49,1.25h0m5.4,1h0m5.6.35h0m5.83-.9h0m5.16-1.75h0m5.46-.36h0m5.52.36h0m5.49,1.25h0m4.92,1h0M2.34,18.27h0m5.15-1.75h0M13,16.16h0m5.53.36h0M24,17.78h0m5.23,1h0m5.75.36h0m5.83-.91h0m5.16-1.75h0m5.45-.36h0m5.53.36h0m5.49,1.26h0m4.91,1h0M73,19h0m5.83-.91h0M84,16.36h0M89.45,16h0m5.53.36h0m5.49,1.26h0m5.39,1h0m5.61.36h0m5.83-.91h0m5.15-1.75h0m5.46-.36h0m5.53.36h0m5.49,1.26h0m4.91,1h0m5.64.2h0M1.35,30.69h0m5.46-.35h0m5.52.35h0M17.82,32h0M23.06,33h0m5.75.35h0m5.83-.9h0m5.15-1.76h0m5.46-.35h0m5.53.35h0M56.27,32h0M61.18,33h0m5.69.19h0m5.83-.9h0m5.15-1.76h0m5.46-.35h0m5.52.35h0m5.5,1.26h0m5.39,1.05h0m5.61.35h0m5.83-.9h0m5.15-1.76h0m5.46-.35h0m5.53.35h0m5.49,1.26h0m4.91,1.05h0m5.64.19h0m5.83-.9h0M1.82,44.39h0M7.28,44h0m5.53.35h0m5.49,1.26h0m5.23,1.05h0m5.75.35h0m5.83-.9h0m5.16-1.76h0M45.73,44h0m5.52.35h0m5.49,1.26h0m4.91,1.05h0m5.69.19h0m5.83-.9h0m5.15-1.76h0m5.46-.35h0m5.53.35h0m5.49,1.26h0m5.39,1h0m5.61.36h0m5.83-.9h0m5.16-1.76h0m5.45-.35h0m5.53.35h0m5.49,1.26h0m4.91,1h0m5.64.2h0m5.83-.9h0M3.28,60.79h0M8.43,59h0m5.46-.36h0m5.53.36h0m5.49,1.26h0m5.24,1h0m5.75.36h0m5.83-.91h0M46.88,59h0m5.46-.36h0m5.52.36h0m5.5,1.26h0m4.91,1h0m5.68.2h0m5.83-.91h0m5.16-1.75h0m5.46-.36h0m5.52.36h0m5.49,1.26h0m5.4,1h0m5.6.36h0m5.83-.91h0m5.16-1.75h0m5.46-.36h0m5.52.36h0m5.49,1.26h0m4.92,1h0m5.63.2h0M2.81,74h0M8,72.27H8m5.46-.36h0m5.53.36h0m5.49,1.25h0m5.23,1h0m5.75.35h0m5.83-.9h0m5.16-1.75h0m5.46-.36h0m5.52.36h0m5.5,1.25h0m4.91,1h0m5.68.19h0m5.83-.9h0m5.16-1.75h0m5.46-.36h0m5.52.36h0m5.49,1.25h0m5.4,1h0m5.6.35h0m5.83-.9h0m5.16-1.75h0m5.46-.36h0m5.52.36h0m5.49,1.25h0m4.91,1h0m5.64.19h0M1.35,89.1h0m5.24-.9h0m5.15-1.76h0m5.46-.35h0m5.53.35h0m5.49,1.26h0m5.23,1h0m5.75.36h0M45,88.2h0m5.16-1.76h0m5.46-.35h0m5.52.35h0m5.49,1.26h0m4.91,1h0m5.69.2h0M83.09,88h0m5.15-1.75h0m5.46-.35h0m5.53.35h0m5.49,1.26h0m5.39,1h0m5.61.36h0m5.83-.91h0m5.16-1.75h0m5.46-.35h0m5.52.35h0m5.49,1.26h0m4.91,1h0M3.75,103.27h0m5.67-.9h0m5.16-1.76h0m5.46-.35h0m5.52.35h0m5.49,1.26h0m5.24,1h0m5.75.35h0m5.83-.9h0M53,100.61h0m5.46-.35h0m5.53.35h0m5.49,1.26h0m4.91,1h0m5.69.19h0m5.83-.9h0m5.15-1.76h0m5.46-.35h0m5.52.35h0m5.5,1.26h0m5.39,1.05h0m5.61.35h0m5.83-.9h0m5.15-1.76h0m5.46-.35h0m5.53.35h0m5.49,1.26h0m4.91,1.05h0M3.28,117h0m5.67-.9H9m5.15-1.76h0m5.46-.35h0m5.53.35h0m5.49,1.26h0m5.23,1.05h0m5.75.35h0m5.83-.9h0m5.16-1.76h0M58,114h0m5.52.35h0m5.5,1.26h0m4.91,1.05h0m5.68.19h0m5.83-.9h0m5.16-1.76h0m5.46-.35h0m5.52.35h0m5.49,1.26h0m5.4,1h0m5.6.35h0m5.83-.9h0m5.16-1.76h0m5.46-.35h0m5.52.35h0m5.49,1.26h0m4.91,1h0M5.31,130.36h0m5.16-1.75h0m5.46-.36h0m5.52.36h0m5.5,1.25h0m5.23,1h0m5.75.35h0m5.83-.9h0m5.15-1.75h0m5.46-.36h0m5.53.36h0m5.49,1.25h0m4.91,1h0m5.69.19h0m5.83-.9h0M87,128.44h0m5.46-.35h0m5.53.35h0m5.49,1.26h0m5.39,1.05h0m5.61.35h0m5.83-.9h0m5.15-1.76h0m5.46-.35h0m5.53.35h0m5.49,1.26h0m4.91,1.05h0m5.64.19h0M1.71,144.22h0m5.16-1.75h0m5.46-.36h0m5.52.36h0m5.49,1.25h0m5.24,1.05h0m5.75.35h0m5.83-.9h0m5.15-1.75h0m5.46-.36h0m5.53.36h0m5.49,1.25h0m4.91,1.05h0m5.69.19h0m5.83-.9h0m5.15-1.75h0m5.46-.36h0m5.52.36h0m5.5,1.25h0m5.39,1.05h0m5.61.35h0m5.83-.9h0m5.15-1.75h0m5.46-.36h0m5.53.36h0m5.49,1.25h0m4.91,1.05h0m5.63.19h0"/></pattern><symbol id="d" viewBox="0 0 19871.75 1088"><g class="d"><path class="e" d="M8981.4,1080h1920V613.77c-52.87,10.52-116.66,23.88-188.29,40.35-164.18,37.73-245.88,57.06-266.75,64.74-25.64,9.44-56.78,22.33-102.87,23.77-39.75,1.25-48.32-7.35-99.43-8-58.09-.73-57.47,10.24-112.52,8.89-54.11-1.33-67.08-12.23-109.81-7.06-14.24,1.72-28.14,4.79-52.87,5.29-20.37.42-24.21-1.4-42.7,0-24,1.82-30.36,5.84-40.26,3.28-12.21-3.15-8.24-10.74-22.61-15-9.3-2.76-14-.56-27.41-2.5-15.19-2.2-21.38-6.82-31.86-11.12-19.86-8.15-28.83-4.37-66.59-11.72-38.65-7.52-35.3-12.65-64.81-16.5-28.15-3.68-30.9,1-62.88-1.76-25.17-2.18-43.83-7.21-81.15-17.25-40.15-10.81-41.06-13.61-66-18.44-30.13-5.83-44.1-4.7-69.28-7.64-50.18-5.87-60.29-18-103.9-29.45-59.41-15.56-83.49-4.21-188.84-13.78-11.29-1-19.45-1.88-26.3-2.67a922.31,922.31,0,0,1-92.88-15.57"/><g class="f"><g class="g"><g class="h"><text class="i" transform="translate(8748.29 686.6) scale(0.25 0.2)">APPALACHIA INTERACTIVE APPALACHIA INTERACTIVE APPALACHIA INTERACTIVE APPALACHIA INTERACTIVE APPALACHIA INTERACTIVE APPALACHIA INTERACTIVE <tspan class="j"><tspan x="80.32" y="29.58" xml:space="preserve">    APPALACHIA INTERACTIVE APPALACHIA INTERACTIVE APPALACHIA INTERACTIVE APPALACHIA INTERACTIVE APPALACHIA INTERACTIVE APPALACHIA INTERACTIVE </tspan></tspan><tspan x="-319.52" y="59.17" xml:space="preserve">                  APPALACHIA INTERACTIVE APPALACHIA INTERACTIVE APPALACHIA INTERACTIVE APPALACHIA INTERACTIVE APPALACHIA INTERACTIVE APPALACHIA INTERACTIVE </tspan><tspan class="k"><tspan x="-402.21" y="88.75" xml:space="preserve">           APPALACHIA INTERACTIVE APPALACHIA INTERACTIVE APPALACHIA INTERACTIVE APPALACHIA INTERACTIVE APPALACHIA INTERACTIVE APPALACHIA INTERACTIVE </tspan></tspan></text></g><g class="h"><text class="i" transform="translate(7956.57 725.46) scale(0.41 0.3)">APPALACHIA INTERACTIVE APPALACHIA INTERACTIVE APPALACHIA INTERACTIVE APPALACHIA INTERACTIVE APPALACHIA INTERACTIVE APPALACHIA INTERACTIVE <tspan class="j"><tspan x="80.32" y="29.58" xml:space="preserve">    APPALACHIA INTERACTIVE APPALACHIA INTERACTIVE APPALACHIA INTERACTIVE APPALACHIA INTERACTIVE APPALACHIA INTERACTIVE APPALACHIA INTERACTIVE </tspan></tspan><tspan x="-319.52" y="59.17" xml:space="preserve">                  APPALACHIA INTERACTIVE APPALACHIA INTERACTIVE APPALACHIA INTERACTIVE APPALACHIA INTERACTIVE APPALACHIA INTERACTIVE APPALACHIA INTERACTIVE </tspan><tspan class="k"><tspan x="-402.21" y="88.75" xml:space="preserve">           APPALACHIA INTERACTIVE APPALACHIA INTERACTIVE APPALACHIA INTERACTIVE APPALACHIA INTERACTIVE APPALACHIA INTERACTIVE APPALACHIA INTERACTIVE </tspan></tspan></text></g><g class="h"><text class="i" transform="translate(6637.03 783.47) scale(0.69 0.45)">APPALACHIA INTERACTIVE APPALACHIA INTERACTIVE APPALACHIA INTERACTIVE APPALACHIA INTERACTIVE APPALACHIA INTERACTIVE APPALACHIA INTERACTIVE <tspan class="j"><tspan x="80.32" y="29.58" xml:space="preserve">    APPALACHIA INTERACTIVE APPALACHIA INTERACTIVE APPALACHIA INTERACTIVE APPALACHIA INTERACTIVE APPALACHIA INTERACTIVE APPALACHIA INTERACTIVE </tspan></tspan><tspan x="-319.52" y="59.17" xml:space="preserve">                  APPALACHIA INTERACTIVE APPALACHIA INTERACTIVE APPALACHIA INTERACTIVE APPALACHIA INTERACTIVE APPALACHIA INTERACTIVE APPALACHIA INTERACTIVE </tspan><tspan class="k"><tspan x="-402.21" y="88.75" xml:space="preserve">           APPALACHIA INTERACTIVE APPALACHIA INTERACTIVE APPALACHIA INTERACTIVE APPALACHIA INTERACTIVE APPALACHIA INTERACTIVE APPALACHIA INTERACTIVE </tspan></tspan></text></g><g class="h"><text class="i" transform="translate(4437.81 870.04) scale(1.15 0.67)">APPALACHIA INTERACTIVE APPALACHIA INTERACTIVE APPALACHIA INTERACTIVE APPALACHIA INTERACTIVE APPALACHIA INTERACTIVE APPALACHIA INTERACTIVE <tspan class="j"><tspan x="80.32" y="29.58" xml:space="preserve">    APPALACHIA INTERACTIVE APPALACHIA INTERACTIVE APPALACHIA INTERACTIVE APPALACHIA INTERACTIVE APPALACHIA INTERACTIVE APPALACHIA INTERACTIVE </tspan></tspan><tspan x="-319.52" y="59.17" xml:space="preserve">                  APPALACHIA INTERACTIVE APPALACHIA INTERACTIVE APPALACHIA INTERACTIVE APPALACHIA INTERACTIVE APPALACHIA INTERACTIVE APPALACHIA INTERACTIVE </tspan><tspan class="k"><tspan x="-402.21" y="88.75" xml:space="preserve">           APPALACHIA INTERACTIVE APPALACHIA INTERACTIVE APPALACHIA INTERACTIVE APPALACHIA INTERACTIVE APPALACHIA INTERACTIVE APPALACHIA INTERACTIVE </tspan></tspan></text></g><g class="h"><text class="i" transform="translate(772.43 999.25) scale(1.92 1)">APPALACHIA INTERACTIVE APPALACHIA INTERACTIVE APPALACHIA INTERACTIVE APPALACHIA INTERACTIVE APPALACHIA INTERACTIVE APPALACHIA INTERACTIVE <tspan class="j"><tspan x="80.32" y="29.58" xml:space="preserve">    APPALACHIA INTERACTIVE APPALACHIA INTERACTIVE APPALACHIA INTERACTIVE APPALACHIA INTERACTIVE APPALACHIA INTERACTIVE APPALACHIA INTERACTIVE </tspan></tspan><tspan x="-319.52" y="59.17" xml:space="preserve">                  APPALACHIA INTERACTIVE APPALACHIA INTERACTIVE APPALACHIA INTERACTIVE APPALACHIA INTERACTIVE APPALACHIA INTERACTIVE APPALACHIA INTERACTIVE </tspan><tspan class="k"><tspan x="-402.21" y="88.75" xml:space="preserve">           APPALACHIA INTERACTIVE APPALACHIA INTERACTIVE APPALACHIA INTERACTIVE APPALACHIA INTERACTIVE APPALACHIA INTERACTIVE APPALACHIA INTERACTIVE </tspan></tspan></text></g></g></g><path class="l" d="M8974.06,581.67l115.26,17.09,51,3.33,43,2.61,54.23,3.23s50.83,5.42,51.83,5.73,33.21,8.85,33.21,8.85L9359.36,634l34,9.14s27.17-.59,29.43,1.18,13.3,2.21,17.55,2.5S9494.63,657,9494.63,657l34,12.23,58.57,14.29,33.68,4.42,51.78.3,49.52,10.9s10.76,5.6,15.28,5.6,54.34,7.81,54.34,7.81l20.37,5,23.75,10,27.41,2.5,16.21,9.9,6.4,5.1c8.91-1.16,22.88-2.7,40.26-3.28,19.51-.65,25.36.5,42.7,0,26-.74,29.35-3.78,52.87-5.29,13.1-.84,29.92.13,63,2.12,48.81,2.92,53.19,4.62,73.2,4.23,26.77-.52,39.11-4,59-6.35,60-7.22,69.7,9.45,126.55,6.16,0,0,35-8.17,177.8-42.66h0s107-26.38,191.78-45.84c43.48-10,107.74-24.28,188.29-40.35"/><path class="m" d="M8965.72,614.58c9.76,7,23.13,14.89,33.89,13.42,11.12-1.53,14.86-12.39,17.63-12,3.74.52-5.47,20.09,0,21.17,6.71,1.34,28.07-26.53,38-25.41,11.22,1.28-7.68,60.92,2.71,62.12,5.53.64,18.41-10.85,24.41-22.59,8.56-16.77.69-29.34,10.84-31.76,3.1-.74,8.6-.71,19,3.52-3.47,22.43-13,39.8-22,52.24-3.29,4.54-19.36,13.59-20.33,27-.54,7.35,3,13.26,5.08,13.24,4.15-.06-2-24.94,17.28-29.65,8-1.94,20-.4,26.44,3.17,25.61,14.11-34.53,60-29.49,61.42,4.47,1.29,58.44-30.92,44.74-54.53-2.49-4.29-13.86-19.75-13.86-19.75a38.32,38.32,0,0,1-4.22-2.42,21.68,21.68,0,0,1-5.3-5.36c-3.73-6,6-22.08,14.57-21.71,5.88.26,12.06,8.28,11.12,15.2-.76,5.52-5.79,8.51-2.31,12,2.47,2.46,8.74,4.69,12.2,3.88,10.32-2.43-15.69-29.33,2.71-37.76,8.57-3.93,25.86-3.44,32.54.7,13.33,8.27-19.92,29.83-10.72,33.69,5.4,2.25,21.44-3.22,30-7.22,4.15-2,11.86-5.7,20.08-15.88,10.9-13.5,13.61-23.42,16.27-23.29,4.49.21-1.39,28.6,10.84,30.35,9.76,1.39,24.4-15.12,32.54-13.41,2.7.57,2.91,2.77,4.07,9.88,3,18.22,4.36,21,7.44,23.53,5.91,4.87,18.53,9.44,26.05,7.78,15.54-3.41,3.54-32.09,9.89-32.72,3.78-.38,10.44,9.58,14.91,16.23,31.1,46.27,35.09,48.82,38.57,48.77,9.23-.12,21.43-18.69,15.65-36.06-3.77-11.35-14.64-20.45-12.2-21.18,3.2-.95,16.63,16.21,40.67,17.65,15.52.93,24.92-5.33,31.18-2.82,9.84,3.93-10.07,20.69,1.23,25.79,5.3,2.4,15.64,1.39,21.82-.38,12.27-3.52,11.33-11,17.62-11.3,7.61-.37,9.26,10.52,27.44,18.16,3.48,1.47,20.52,8.26,36.27,5.84,17.69-2.71,19.39-14.81,28.72-14.53,10.75.33,8,16.38,32.4,29.4,15.61,8.33,32.91,10.4,36.69,10.82,7.34.8,25.93,2.82,39.11-2.39,12.67-5,7.3-11.54,19-15.53,12.29-4.2,33.9-2.34,44.74,3.53,10.41,5.64,5.51,12.06,16.27,15.53,8.6,2.77,12.81-1,25.75.7,19.52,2.58,20.91,12.62,46.1,16.94,3.88.67,6.75.93,10.52,1.27,37.09,3.28,80.62-2.8,98.6-5.5,49.62-7.46,59.44-12.47,73.21-8.47,16.31,4.74,16.95,16,29.82,16.23,10.66.23,13.65-7.4,29.83-10.58,14.46-2.85,27.08.3,40.12,2.2,32.41,4.72,38.65-2.46,92.73-2.91,48.53-.4,49.19,5.33,91.5,3.53,27.19-1.16,34.28-3.84,66.54-7.12,48.87-5,79.56-3.58,104.27-4.18,99.9-2.39,194.72-39.33,275.88-70.94,35.5-13.82,69.65-29.2,79.3-25.06,6,2.59,2.77,12.86-8.13,18.36-13.82,7-33.59,3.06-40.21,9.11-4.87,4.45,4.5,7.78,4.73,14.71.56,16.28-50.32,20.48-68.23,45-6.16,8.43-8.31,19.11-2.71,20.47,16.35,4,95.09-72.41,110.45-68.47,3.88,1,2.83,7.25.71,19.77-1.41,8.37-2.12,12.56-5.42,16.23-8.58,9.54-21.57,8.7-31.18,18.35-7.83,7.87-7.7,16.94-4.07,17.65,3.1.61,8.44-5,27.11-16.94,16.83-10.8,21-11.77,23.05-11.29,5.14,1.21-4.69,11.49,5.74,18.11,4.32,2.75,12.33,5,15.95,3.77,8.39-2.85-19.61-19.94-9.49-38.83,5-9.28,18-16.81,13.56-19-3-1.51-9.51,1.52-14.91,0-8.93-2.52-5.78-14.93-2.07-22.11,3.14-6.09,11.44-17.67,36.63-29.07q3.06,67.76,6.11,135.51l-1928.4,0Q8968.44,696.46,8965.72,614.58Z"/><polygon class="n" points="10883.29 623.21 10867.85 666.98 10898.72 666.98 10883.29 623.21"/><polygon class="o" points="10847.96 609.21 10831.57 655.68 10864.35 655.68 10847.96 609.21"/><polygon class="p" points="10818.49 624.29 10802.1 670.77 10834.89 670.77 10818.49 624.29"/><polygon class="q" points="10787.65 632.94 10771.25 679.43 10804.05 679.43 10787.65 632.94"/><polygon class="r" points="10755.56 635.67 10739.16 682.17 10771.95 682.17 10755.56 635.67"/><polygon class="s" points="10725.1 646.41 10708.7 692.93 10741.51 692.93 10725.1 646.41"/><polygon class="t" points="10692.54 646.98 10676.14 693.5 10708.95 693.5 10692.54 646.98"/><polygon class="u" points="10662.79 662.07 10646.38 708.61 10679.2 708.61 10662.79 662.07"/><polygon class="v" points="10631.46 669.03 10615.04 715.58 10647.88 715.58 10631.46 669.03"/><polygon class="w" points="10597.97 661.51 10581.55 708.07 10614.39 708.07 10597.97 661.51"/><polygon class="x" points="10566.59 669.15 10550.16 715.72 10583.01 715.72 10566.59 669.15"/><polygon class="y" points="10535.51 679.16 10519.08 725.74 10551.93 725.74 10535.51 679.16"/><polygon class="z" points="10503.67 682.73 10487.24 729.32 10520.1 729.32 10503.67 682.73"/><polygon class="aa" points="10471.42 684.2 10455.02 730.71 10487.83 730.71 10471.42 684.2"/><polygon class="ab" points="10443.31 699.53 10427.05 745.65 10459.58 745.65 10443.31 699.53"/><polygon class="ac" points="10408.07 692.05 10391.94 737.78 10424.2 737.78 10408.07 692.05"/><polygon class="ad" points="10381.1 705.62 10365.11 750.98 10397.1 750.98 10381.1 705.62"/><polygon class="ae" points="10355.38 717.02 10339.51 762.01 10371.25 762.01 10355.38 717.02"/><polygon class="af" points="10327.16 709.38 10311.42 754.02 10342.9 754.02 10327.16 709.38"/><polygon class="ag" points="10298.57 705.19 10282.94 749.5 10314.19 749.5 10298.57 705.19"/><polygon class="ah" points="10270.74 710.61 10255.31 754.38 10286.17 754.38 10270.74 710.61"/><polygon class="ai" points="10243.04 707.99 10227.8 751.2 10258.28 751.2 10243.04 707.99"/><polygon class="aj" points="10217.95 721.88 10202.9 764.55 10233 764.55 10217.95 721.88"/><polygon class="ak" points="10193.35 726.42 10178.54 768.39 10208.15 768.39 10193.35 726.42"/><polygon class="al" points="10167.22 714.2 10152.57 755.74 10181.88 755.74 10167.22 714.2"/><polygon class="am" points="10144.58 720.5 10130.12 761.52 10159.05 761.52 10144.58 720.5"/><polygon class="an" points="10126.22 742.76 10112.11 782.76 10140.33 782.76 10126.22 742.76"/><polygon class="ao" points="10106.51 738.3 10093.11 776.29 10119.91 776.29 10106.51 738.3"/><polygon class="ap" points="9314.88 619.83 9299.52 663.4 9330.25 663.4 9314.88 619.83"/><polygon class="aq" points="9342.89 625.67 9327.53 669.21 9358.24 669.21 9342.89 625.67"/><polygon class="ar" points="9362.14 647.44 9346.8 690.94 9377.48 690.94 9362.14 647.44"/><polygon class="as" points="9388.9 655.01 9373.57 698.47 9404.23 698.47 9388.9 655.01"/><polygon class="at" points="9408.9 675.04 9393.75 717.98 9424.04 717.98 9408.9 675.04"/><polygon class="au" points="9432.72 684.36 9417.78 726.72 9447.66 726.72 9432.72 684.36"/><polygon class="av" points="9455.62 694.78 9440.88 736.58 9470.36 736.58 9455.62 694.78"/><polygon class="aw" points="9483.02 684.34 9468.95 724.25 9497.09 724.25 9483.02 684.34"/><polygon class="ax" points="9219.35 609.17 9203.79 653.28 9234.9 653.28 9219.35 609.17"/><polygon class="ay" points="9251.02 616.48 9234.73 662.7 9267.32 662.7 9251.02 616.48"/><polygon class="az" points="9273.68 647.76 9257.29 694.25 9290.08 694.25 9273.68 647.76"/><polygon class="ba" points="9304.5 655.24 9288.3 701.2 9320.71 701.2 9304.5 655.24"/><polygon class="bb" points="9333.21 665.57 9317.3 710.69 9349.12 710.69 9333.21 665.57"/><polygon class="bc" points="9348.69 694.2 9333.25 738 9364.14 738 9348.69 694.2"/><polygon class="bd" points="9380.58 691.91 9365.55 734.51 9395.6 734.51 9380.58 691.91"/><polygon class="be" points="9396.68 713.86 9381.84 755.95 9411.52 755.95 9396.68 713.86"/><polygon class="bf" points="9183.49 634.88 9168.56 677.24 9198.43 677.24 9183.49 634.88"/><polygon class="bg" points="9195.33 651.51 9179.91 695.24 9210.76 695.24 9195.33 651.51"/><polygon class="bh" points="9223.31 667.8 9207.45 712.79 9239.18 712.79 9223.31 667.8"/><polygon class="bi" points="9251.84 678.46 9236.04 723.26 9267.64 723.26 9251.84 678.46"/><polygon class="bj" points="9268.88 701.18 9253.63 744.42 9284.13 744.42 9268.88 701.18"/><polygon class="bk" points="9270.48 726.43 9255.83 767.97 9285.13 767.97 9270.48 726.43"/><polygon class="bl" points="9143.6 616.9 9128.85 658.72 9158.34 658.72 9143.6 616.9"/><polygon class="bm" points="9131.13 647.43 9116.48 688.96 9145.77 688.96 9131.13 647.43"/><polygon class="bn" points="9143.02 668.65 9128.49 709.84 9157.55 709.84 9143.02 668.65"/><polygon class="bo" points="9155.71 685.52 9141.57 725.62 9169.85 725.62 9155.71 685.52"/><polygon class="bp" points="9156.26 702.96 9142.47 742.04 9170.04 742.04 9156.26 702.96"/><polygon class="bq" points="9018.89 586.78 9004.02 628.94 9033.76 628.94 9018.89 586.78"/><polygon class="br" points="9028.18 612.46 9013.2 654.92 9043.15 654.92 9028.18 612.46"/><polygon class="bs" points="9048.05 629.59 9032.99 672.29 9063.11 672.29 9048.05 629.59"/><polygon class="bt" points="9072.79 643.27 9057.72 686 9087.86 686 9072.79 643.27"/><polygon class="bu" points="9084.1 669.52 9069.06 712.18 9099.15 712.18 9084.1 669.52"/><polygon class="bv" points="9079.17 699.24 9064.37 741.2 9093.97 741.2 9079.17 699.24"/><polygon class="bw" points="9085.67 722.83 9071.21 763.83 9100.12 763.83 9085.67 722.83"/><polygon class="bx" points="8972.72 628.74 8957.3 672.47 8988.14 672.47 8972.72 628.74"/><polygon class="by" points="8981.69 656.61 8966.32 700.19 8997.06 700.19 8981.69 656.61"/><polygon class="bz" points="8999.72 679.96 8984.58 722.89 9014.86 722.89 8999.72 679.96"/><polygon class="ca" points="8996.37 704.74 8981.96 745.6 9010.78 745.6 8996.37 704.74"/><polygon class="cb" points="10898.21 645.45 10883.23 687.94 10913.19 687.94 10898.21 645.45"/><polygon class="cc" points="10868.72 655.09 10852.9 699.95 10884.54 699.95 10868.72 655.09"/><polygon class="cd" points="10840.71 662.7 10825.26 706.51 10856.16 706.51 10840.71 662.7"/><polygon class="ce" points="10812.5 654.02 10797.43 696.75 10827.56 696.75 10812.5 654.02"/><polygon class="cf" points="10790.99 682.61 10775.99 725.15 10805.99 725.15 10790.99 682.61"/><polygon class="cg" points="10763.71 674.05 10748.78 716.41 10778.65 716.41 10763.71 674.05"/><polygon class="ch" points="10739.37 686.15 10724.49 728.33 10754.24 728.33 10739.37 686.15"/><polygon class="ci" points="10713.45 671.14 10698.64 713.13 10728.26 713.13 10713.45 671.14"/><polygon class="cj" points="10688.42 663.39 10673.66 705.25 10703.17 705.25 10688.42 663.39"/><polygon class="ck" points="10664.92 684.03 10650.2 725.75 10679.63 725.75 10664.92 684.03"/><polygon class="cl" points="10640.48 679.85 10625.81 721.44 10655.15 721.44 10640.48 679.85"/><polygon class="cm" points="10617.52 687.24 10602.9 728.71 10632.15 728.71 10617.52 687.24"/><polygon class="cn" points="10591.91 677.96 10577.7 718.26 10606.13 718.26 10591.91 677.96"/><polygon class="co" points="10581.57 708.8 10568.22 746.65 10594.92 746.65 10581.57 708.8"/><polygon class="cp" points="10844.77 688.67 10827.34 738.11 10862.21 738.11 10844.77 688.67"/><polygon class="cq" points="10808.4 691 10791.01 740.31 10825.8 740.31 10808.4 691"/><polygon class="cr" points="10772.51 702.92 10755.17 752.11 10789.86 752.11 10772.51 702.92"/><polygon class="cs" points="10737.23 705.44 10720.08 754.07 10754.38 754.07 10737.23 705.44"/><polygon class="ct" points="10702.14 685.29 10685.18 733.36 10719.09 733.36 10702.14 685.29"/><polygon class="cu" points="10669 701.3 10652.23 748.83 10685.76 748.83 10669 701.3"/><polygon class="cv" points="10635.89 694.75 10619.3 741.79 10652.48 741.79 10635.89 694.75"/><polygon class="cw" points="10603.54 693.48 10587.08 740.15 10620 740.15 10603.54 693.48"/><polygon class="cx" points="10571.97 698.79 10555.65 745.07 10588.29 745.07 10571.97 698.79"/><polygon class="cy" points="10542.55 714.42 10526.38 760.27 10558.72 760.27 10542.55 714.42"/><polygon class="cz" points="10510.22 699.93 10494.2 745.36 10526.24 745.36 10510.22 699.93"/><polygon class="da" points="10484.61 711.76 10469.38 754.94 10499.84 754.94 10484.61 711.76"/><polygon class="db" points="9003.78 713.5 8984.89 767.07 9022.67 767.07 9003.78 713.5"/><polygon class="dc" points="9040.14 744.41 9021.81 796.41 9058.48 796.41 9040.14 744.41"/><polygon class="dd" points="9080.49 736.62 9062.44 787.79 9098.54 787.79 9080.49 736.62"/><polygon class="de" points="9118.67 729.9 9100.89 780.31 9136.45 780.31 9118.67 729.9"/><polygon class="df" points="9156.25 751.11 9138.54 801.34 9173.97 801.34 9156.25 751.11"/><polygon class="dg" points="9194.25 743.84 9176.6 793.88 9211.9 793.88 9194.25 743.84"/><polygon class="dh" points="9230.83 732.01 9213.25 781.87 9248.42 781.87 9230.83 732.01"/><polygon class="di" points="9269 741.26 9251.48 790.94 9286.52 790.94 9269 741.26"/><polygon class="dj" points="9303.58 720.64 9286.12 770.13 9321.03 770.13 9303.58 720.64"/><polygon class="dk" points="9340.63 730.13 9323.39 779.02 9357.87 779.02 9340.63 730.13"/><polygon class="dl" points="9374.23 718.69 9357.21 766.93 9391.24 766.93 9374.23 718.69"/><polygon class="dm" points="9406.9 714.39 9390.27 761.55 9423.53 761.55 9406.9 714.39"/><polygon class="dn" points="9436.9 706.45 9420.75 752.22 9453.04 752.22 9436.9 706.45"/><polygon class="do" points="9466.74 710.2 9450.96 754.93 9482.51 754.93 9466.74 710.2"/><polygon class="dp" points="9492.85 702.57 9477.57 745.88 9508.12 745.88 9492.85 702.57"/><polygon class="dq" points="9516.25 704.47 9502.32 743.96 9530.17 743.96 9516.25 704.47"/><polygon class="dr" points="9350.24 761.68 9333.4 809.44 9367.08 809.44 9350.24 761.68"/><polygon class="ds" points="9379.98 756.13 9364.16 800.98 9395.8 800.98 9379.98 756.13"/><polygon class="dt" points="9406.43 742.75 9390.73 787.27 9422.13 787.27 9406.43 742.75"/><polygon class="du" points="9436.56 745.67 9420.95 789.9 9452.16 789.9 9436.56 745.67"/><polygon class="dv" points="9462.68 741.78 9447.18 785.73 9478.18 785.73 9462.68 741.78"/><polygon class="dw" points="9486.93 715.34 9471.53 759.01 9502.33 759.01 9486.93 715.34"/><polygon class="dx" points="9505.02 718.36 9491.76 755.94 9518.27 755.94 9505.02 718.36"/><polygon class="dy" points="8985.25 747.89 8965.61 803.6 9004.9 803.6 8985.25 747.89"/><polygon class="dz" points="9031.28 737.45 9011.67 793.05 9050.89 793.05 9031.28 737.45"/><polygon class="ea" points="9077.47 737.48 9057.9 792.97 9097.04 792.97 9077.47 737.48"/><polygon class="eb" points="9124.47 734.4 9104.94 789.78 9144.01 789.78 9124.47 734.4"/><polygon class="ec" points="9168.58 762.25 9149.18 817.28 9187.99 817.28 9168.58 762.25"/><polygon class="ed" points="9213.23 764.19 9193.99 818.73 9232.46 818.73 9213.23 764.19"/><polygon class="ee" points="9257.4 760.34 9238.33 814.4 9276.46 814.4 9257.4 760.34"/><polygon class="ef" points="9298.95 763.01 9280.36 815.72 9317.54 815.72 9298.95 763.01"/><polygon class="eg" points="9339.68 755.82 9321.43 807.57 9357.93 807.57 9339.68 755.82"/><polygon class="eh" points="9376.59 750.65 9358.65 801.51 9394.52 801.51 9376.59 750.65"/><polygon class="ei" points="9408.62 744.48 9391.75 792.31 9425.48 792.31 9408.62 744.48"/></g></symbol></defs><use width="19871.75" height="1088" transform="translate(0)" xlink:href="#d"/></svg>