<svg xmlns="http://www.w3.org/2000/svg" xmlns:xlink="http://www.w3.org/1999/xlink" width="1920" height="1080" viewBox="0 0 1920 1080"><defs><style>.a,.b,.c,.h{fill:none;}.b,.c,.h{stroke:#d9b776;}.b,.c{stroke-miterlimit:11.34;}.b{stroke-width:1.7px;}.c{stroke-width:1.42px;}.d{clip-path:url(#a);}.e{fill:#161515;}.f{opacity:0.5;fill:url(#b);}.g{opacity:0.7;fill:url(#c);}.h{stroke-miterlimit:10;stroke-width:16px;}</style><clipPath id="a"><rect class="a" x="24.53" width="1920" height="1080"/></clipPath><pattern id="b" width="166.82" height="166.82" patternTransform="translate(981.59 712.94) scale(0.75)" patternUnits="userSpaceOnUse" viewBox="0 0 166.82 166.82"><rect class="a" width="166.82" height="166.82"/><path class="c" d="M5.54,0a36.2,36.2,0,0,0,16.2,17.54C30.51,22,35.06,29.93,37.33,34.3c2.53,4.87,11.79,12.38,18.42,15.49S71,61.87,72.51,66.55,84.2,81,89.27,83.7s14.42,11.69,16.37,16,9,12.48,16.76,16.76,14.81,12.09,16.76,16.76,9.74,13.65,16.76,16.76c3.76,1.68,7.67,5,10.9,8.7M23.66,0a36.25,36.25,0,0,0,16.2,17.54C48.63,22,53.18,29.93,55.45,34.3,58,39.17,67.24,46.68,73.87,49.79s15.2,12.08,16.76,16.76S102.32,81,107.39,83.7s14.42,11.69,16.37,16,9,12.48,16.76,16.76,14.81,12.09,16.76,16.76c1.28,3.08,5.09,8,9.54,11.91m0-23.15a44.05,44.05,0,0,0-7.73-5.52c-7.79-4.28-14.81-12.47-16.75-16.76S131,86.43,126,83.7,110.76,71.23,109.2,66.55,99.07,52.91,92.44,49.79,76.56,39.17,74,34.3C71.75,29.93,67.21,22,58.44,17.54A36.15,36.15,0,0,1,42.24,0M60.81,0A36.2,36.2,0,0,0,77,17.54C85.78,22,90.33,29.93,92.6,34.3c2.54,4.87,11.79,12.38,18.42,15.49s15.2,12.08,16.76,16.76S139.47,81,144.54,83.7s14.42,11.69,16.37,16a33.67,33.67,0,0,0,5.91,8.09m0-21.58a29.27,29.27,0,0,0-3.7-2.49c-5.07-2.73-15.21-12.47-16.76-17.15s-10.14-13.64-16.77-16.76S113.71,39.17,111.18,34.3C108.9,29.93,104.36,22,95.59,17.54A36.15,36.15,0,0,1,79.39,0m87.43,69.92a14,14,0,0,1-1.89-3.37c-1.56-4.68-10.13-13.64-16.76-16.76S132.29,39.17,129.75,34.3c-2.27-4.37-6.82-12.28-15.59-16.76A36.25,36.25,0,0,1,98,0m68.86,49.83-.07,0c-6.63-3.11-15.88-10.62-18.42-15.49-2.27-4.37-6.82-12.28-15.59-16.76A36.2,36.2,0,0,1,116.54,0m50.28,34.13c-2.3-4.4-6.84-12.16-15.5-16.59A36.22,36.22,0,0,1,135.11,0m31.71,15.74A36.55,36.55,0,0,1,153.69,0M0,158.66a42.08,42.08,0,0,1,5.69,8.16M0,145.11A29.59,29.59,0,0,0,7.22,150c6.52,2.9,13.46,10.76,16.59,16.86m18.58,0c-3.14-6.1-10.08-14-16.59-16.86C18.78,146.84,11,137.88,9,133.2c-1.26-3-4.66-7.39-9-11.24m0-14.19a45.76,45.76,0,0,0,10.85,8.67c7.79,4.29,14.81,12.09,16.76,16.76S37.35,146.85,44.37,150c6.52,2.9,13.45,10.76,16.59,16.86m18.58,0c-3.14-6.1-10.08-14-16.59-16.86-7-3.11-14.82-12.08-16.77-16.76s-9-12.47-16.75-16.76S14.62,104,12.67,99.68C11.13,96.31,5,90,0,86.19M0,69.92c3.57,5,10.83,11.61,14.87,13.78,5.07,2.73,14.42,11.69,16.37,16s9,12.48,16.76,16.76,14.81,12.09,16.76,16.76S74.51,146.85,81.52,150c6.52,2.9,13.46,10.76,16.6,16.86M0,49.83C6.62,53,15.13,61.89,16.69,66.55S28.38,81,33.45,83.7s14.42,11.69,16.37,16,9,12.48,16.76,16.76,14.81,12.09,16.76,16.76S93.08,146.85,100.1,150c6.52,2.9,13.46,10.76,16.59,16.86M0,34.13l.09.17C2.62,39.17,11.88,46.68,18.5,49.79S33.7,61.87,35.26,66.55,47,81,52,83.7s14.42,11.69,16.37,16,9,12.48,16.76,16.76S100,128.53,101.91,133.2s9.75,13.65,16.76,16.76c6.52,2.9,13.46,10.76,16.6,16.86M0,15.74a32.42,32.42,0,0,0,3.07,1.8C11.84,22,16.39,29.93,18.66,34.3c2.53,4.87,11.79,12.38,18.42,15.49s15.2,12.09,16.76,16.76S65.53,81,70.6,83.7,85,95.4,87,99.68s9,12.48,16.76,16.76,14.81,12.09,16.76,16.76,9.74,13.64,16.76,16.76c6.52,2.9,13.46,10.76,16.59,16.86M35.59,20.26l-7.37-3.15M25.47,33.74l7.37,3.16m15.47-5.08L48,39.54M68.17,54.87l8.24,3.68M86.77,76.39,95.28,79m-26,8.76-6.82-2m49.42,17.42L114,95.13m23.83,27.38-7.18-5.67m17.42,18.72,6.78,2.58M33.72,1.26l2.42,6.51M52.28,24l6-3.12m6.8,18.76,8.66-.53M35.83,52.9l-6.7-.61M94,66.64l1-8.42m14.79,17.34,3.65,7.5m16.15,21.23,4.13-7M92.68,98.44,95.56,94m-39-82.6,4.55-3.51m47.28,47.84,7.6,4M64.94,71l8.6,5.27M84.47,38.88l1.06-7m40.54,47,8.77,1.06M149,102.64l6.88,1.27m-1.44,14,2.1,7M6,32.92l4.56-3.5M45.65,71.14l1.05-7M81.57,101l2.14,5.61m30.78,30.56-2.11-7M5.94,12.07,14.35,17m98,99.88,6.17,1.81M129.76,135l4.74,6.19m1.16,19.91,2.84-5.19m13.58-3.61,1.83,5.77M96.28,121.38l4.66-2.94M50.56,51.14l2.81,7.72M126.42,3.3l7.37,3.16m21.48,29.77.94-9.92m-28.8-2.5,9.48,1.38m10.24-13.75,8.66-.53M109,19.22l3.78,8m40.49,20.89,7,3.8M89,7.23l4.56-3.5m40.24,47,1.05-7m20.36,37.81,1.05,8.06m-70.57-71,8,1.89m37.09,43.23h6.08M60.4,142.55l8.07,2.11M20.23,149.1l-5.75.52m-11-47.87,8.42,2.1m48.79,2.09,4.3-3.09M12.78,124.51,14.89,134M64.8,164l7.49-3.66M46.35,157l-7-4.13M51.16,128.3l-4-6.94M29.07,86l3.31,6.15M22.71,71.38l3.58-4.91M7.39,51.35,8.3,45.6m14.82,61.74,2.7-6.38M48,90.09l-2.66-4.82M43.77,109l4.85-4.58m35,35.23L81,144.93M67.39,127.41l-2.31-6.69m-22,24.92,1.18-8.31m56.58,9.95,5.72-2.45M8.8,163.59l2.4-6.31M2.12,81.46l6.16,2.31m2-16.83L4.4,68.34m22.48,55.79,7.56,2.28m51,2.89,2.31-5.19M104.43,39.7l8.07,2.1m-12,119.69,2.31-5.2"/></pattern><pattern id="c" width="184.94" height="184.93" patternTransform="matrix(0.92, -0.58, 1.11, 0.48, 539.21, 791.21)" patternUnits="userSpaceOnUse" viewBox="0 0 184.94 184.93"><rect class="a" width="184.94" height="184.93"/><path class="b" d="M127.32,173c7.46.12,19.94,1,24,1.34,5.1.43,14-.42,21.26-.85M122.85,173c1-.09,2.59-.1,4.47-.07M134.46,7.4c3.84-.22,8.86-.33,14.12-.38m-24,1.69c1.47-.2,2.77-.41,3.81-.66a42.21,42.21,0,0,1,6.08-.65m-9.89,1.31c-8.74,1.15-23.53,1.47-26.8,1.47M148.58,7c5.43,0,11.12,0,16,0m5.67,0,5.53.08M164.59,7c2.06,0,4,0,5.67.06m14.67.16c-3,0-5.44,0-7.18,0l-2,0m-29.51,19c2.56-.05,5.58-.07,8.84,0m-8.84,0c-2.84.06-5.1.14-6.42.14m20.07.05c7.42.37,14,.74,15.11.8m-19.92-1c1.27,0,2.56.08,3.87.14l.94.05m15.11.8h.16c3,.08,6.26.21,9.73.35m-14.3,20.33c-3-.06-7-.06-11.21.16-8.08.42-20.41-.43-25.09,0m50.6-.49c-3.65.14-7,.31-9.74.49,0,0-1.79-.1-4.56-.16m14.3,15.19c-3.27-.07-7.3-.32-10.59-.57,0,0-24.7.85-37.88.42-4.42-.14-9.6-.29-14.73-.38m-23.54.38c3.39-.57,13.37-.57,23.54-.38M66.6,84.85c3-.42,17.33-.47,26.69-1.32s30.41.63,45.29,1c2,.06,4,.16,6.18.29m0,0,2.55.17m0,0c9.65.7,19.84,1.92,24.81,2.54m11.2.59c-2.07,0-4,0-5.53,0m-5.67-.55,2.26.3m3.41.25c-1,0-1.9-.07-2.59-.14l-.81-.11m10.54.27-1.61,0M113.07,99.89c3-.42,12.76-.42,17.43-.85s17.44.43,24.67.85,21.73.85,21.73.85a77.21,77.21,0,0,1,8,0m0,35.38c-3,0-5.44-.06-7.18-.06,0,0-15.35,0-25.13.86s-25.09,1.7-34.44,2.12-14.89-.42-17.44,0m75.48,17,5.52.18m0,0,3.19.14m-12.12-.55a84.23,84.23,0,0,0-11.27-.23c-4.67.43-20.83-1.27-23-.85m37.63,1.31-1,0s-.95-.09-2.39-.2m.83,17.21c3.17-.21,7-.39,11.29-.55m-30.19-52.6H162c3,0,12.38-1.28,12.38-1.28a105.41,105.41,0,0,1,10.58.23m-115-110L63,8.68M21.65,7.61c14.64.27,29.94.63,35.3.87,1.82.07,3.87.14,6,.2m15.86.42A85.61,85.61,0,0,1,88,9.75m-18.07-.9c3.09.07,6.16.15,8.93.25M12.3,7.43l9.35.17M0,7.26c3,0,6.46.08,10.21.14m2.12,0-2.13,0M126.68,25.48c-5.15,0-10.31.74-16.5-.19M20.55,28.36c-6.91-.21-14.07-.55-20.58-.83m103.41-2.88a33.27,33.27,0,0,1,5.44.41l1.36.23M20.55,28.36c10.53.31,20.47.31,26.62-.75,12.33-2.13,17-2.55,27.21-2.13,8.09.34,20.72-.93,29-.83M0,47.53c22-.87,56.55-1,64.2.06.68.1,1.39.19,2.14.27m48.89-.27c-2.55-.42-16.16-.42-20.84.43-4.32.79-18.82.84-28-.16m-36,14.86c-1.81.23-4,.46-6.74.61-8.08.42-15.95-.85-18.5-.43a33.07,33.07,0,0,1-5.1.15m84.19-.15c-17.86.85-31.89,1.27-41.25-.42-5.32-1-7.77-.37-12.6.24M50.44,87.3a115.13,115.13,0,0,1-13.68,1.13m-18.7-.34,2.26.09M15.58,88l2.48.08m34.06-1-1.68.26M36.76,88.43c-3,.08-6,.06-8.71,0m0,0c-2.78-.06-5.38-.16-7.73-.25M0,88.15C4.4,88.1,9.39,88,13.58,88l2,0M97.77,99.89c-9.54,0-27.34-.78-39.89-.89m0,0A89.6,89.6,0,0,0,45,99.47c-6.8,1.27-11.48,1.7-25.51,1.7-2.26,0-4.38,0-6.37-.06m-3-.07c-3.95-.1-7.31-.23-10.15-.33m13.19.4-3-.07M.84,136.1l4.11.06m58.81,1.37c9.25.24,20.19.38,24.23,1.05M7.28,136.19l-2.33,0m58.81,1.37-3.61-.1M7.28,136.19c17.36.26,42.48.81,49.67,1.12l3.2.12M44.62,156.8q1.37-.15,2.55-.36c9.25-1.59,14.2-2.23,20.41-2.27m-23,2.63C33.83,158,15.14,157,0,156.37m67.61-2.2c2.06,0,4.26,0,6.8.15,10.2.42,27.64-1.7,34.44-.43s12.33.43,17.86.43m-24.87,18.06c1.5,0,3-.06,4.46-.06m-4.46.06a68.58,68.58,0,0,0-9,.65c-4.68.85-21.26.85-30.19-.43-7.48-1.07-40.59-.94-62.65-.13m106.3-.15a68.71,68.71,0,0,1,7.37.28m-40.1-54.36,2.34,0m67.61-.21c-3.1-.58-5-.64-14.26.55-13.18,1.7-31,1.7-39.12.43a61.92,61.92,0,0,0-6.29-.53m-63.27,1.72c1.19,0,2.28.08,3.23.08A156.85,156.85,0,0,0,44.62,119c4.2-.53,17.47-.89,28.92-.79m75.25.79c-2.43-.39-4-.73-5.3-1M20.55,120.22C14.92,120,7,119.25,0,118.84m75.91-.58c1.7,0,3.35.07,4.89.12m0,0c1.07,0,2.09.07,3,.12m-76,66.43v-10.8m-4.68,10.8V174.35m7,10.58v-10.8m2.13,10.8v-11m2.77,11v-11m59.31,11V175.2m2.34,9.73v-9.31m2.13,9.31v-9.52m2.76,9.52v-9.52m-60,9.52v-11m5.18,11V173.71m6.94,11.22V173.71m87.6,11.22V175m8,10V174.77m2.84,10.16V174.28M117,184.93V174.77m-6.45,10.16V174.35M146,184.93V174.85m-6.18,10.08V174.64m-2.93,10.29v-10.5m-2.45,10.5V173.79m17.94,11.14v-9.65m5,9.65v-9.65m-8.86,9.65v-9.86m-78.66,9.86V175.2m30.4,9.73V174.35m2.33,10.58v-10.8m2.13,10.8v-10.8m2.77,10.8V174.35M56,139.21v14.9m1.87-14.47v14.68m2.42,0V139.21m-9.73.21v14.69m17-14.26v14.32m0,.15v-.15m-5.11-.63V139.07m24.45,45.86v-9.52m8.93,9.52V174.56m74.41,10.37v-9.52m5.53,9.52V175M5.29,156.44V138.83m5.17,17.4v-17.4M21.6,156V136.91m-1.87,17.62V137.76M17.4,156.23v-17.4m27.22,18v-.07m.8,0V137.72m-5.27,18.93V137.93m-6.23,17.94V139.11M26.48,155V138.26m-2.63,17.19V138.68m149.61-.84v17.41m2-17.94v17.52m-3.56-17v17.41m9.92-18v16.77m-2.19-15.92V154.9m-1.92-16.49v16.77M42.91,156.87V137.51m124,47.42v-9.1m-71-23V141.26m8,11.36V139.35M91.53,152.62V140.84m-6.45,11.35V141.47m35.43,12.21v-13m-2.26,12.76V140.78m-4.89,12.47V140.92m-3,12.12V140.71M108,152.62V140.28m18.92,13.83V138.75m5,15.36V138.82m-8.85,15.07V141.34M74.8,152.19V139m2.34,13V139.21M79.27,152V139.42M82,152.19V139M70.34,152.4V139.21m74.41-.67v14.71m5.53-14.63v14.21m-8.93-14.43v15.28m-2.27-15.2v15.41m21-15.35v14.71m5.52-14.63v14.21m-8.93-14.43v15.28m-2.26-15.2v15.41m10.2,31v-8.88M7.84,0V7.24M3.16,0V7.24m7,.16V0m0,7.43v0m2.13,0v.22M12.3,0V7.44M15.07,0V7.24M74.38,0V8.73M76.72,0v9m2.13.21V9.1m0-9.13V9.1M81.61,0V8.73m-60-1.07V7.6m0-7.63V7.6M26.83,0V7.66M41.21,0V7.66M54.53,0V7.88M46.32,0V8.09M52,0V7.88M33.77,0V7.66M61,0V8.51M121.37,0V8.73m8-8.76V6.81M132.21,0V6.32M117,0V8.3M110.59,0v9M146,0V6.39M139.84,0V6.46M136.91,0V6.6m-2.45,1.06V7.4m0-7.43V7.4M152.4,0V6.39m5-6.42V6.46M148.58,7h0m0-7V7M69.92,0V8.85m0,.09V8.85M100.32,0V9.58M102.65,0V9.79M104.78,0V10m2.77-10V9.58M86.92,0V9.36M95.85,0V9.79M170.26,0V7.08m0,0v.09m5.53,0v.07m0-7.27V7.16M57.71,0V7m-16.5,177.9V173.75m13.32,11.18V173.11m-8.21,11.82v-11.4M52,184.93V173.32m9,11.61V174.39m-3.28,10.54V172.47M166.86,0V7M164.59,0V7m0,.07V7M6.57,63.88V86.8m-4.67,0V64.09m7-.21V87M11,63.66V87.23M13.8,63.67V86.8m59.32-3.41V65.92m2.34,17.69V66.35m2.12,17.47V66.14m2.77,17.25V66.14m-58-2.47V86.25m5.18-22.8v22.8M41.91,64.43V86.25m11.78-22V85.91M47,64.22V86.67M50.72,64V85.48m-16.25-23V86.25M59.72,65.07V85.14m60.38-3.7V65.71m8-.21v17M130.94,65V82M115.78,81V65.5m-6.45,16.15V65.07M144.76,85v-.1m0,0V65.58m-5.33.64V83m-2.35-17.59V82.17M135,66V83.1M133.2,64.52V83.31M151.14,66V85m5-19V85m-8.86,0V65.79m0,19.82V85M68.65,83.6V65.92m30.4,16.36V65.07m2.34,17.43V64.86m2.13,17.85V64.86m2.76,17.42V65.07M54.75,28V45.81M57.26,28.4V46M59,28V46M49.31,30.15V44.83m17,3V48m0-20.34V47.86m-5.1-20v17.4M85.66,82.07V66.14M94.59,82.5V65.28M169,64.18V85.75m5.53-22v24M56.24,64.86V85.35M4,29.55V47.17M9.2,29.55V47m9.49-17.4V47m1.86-19.32v.73m0,18.38V28.36m-4.41,1.19V47m28-16.55V46.61m-5.27-16V46.4M32.65,29.83V46.6M26.06,29V45.75M23.87,29.83V46.6M175,47.72V27.18m0-.52v.52m-2.3,20.11V28.57m-2.11,19.36v-.07m0-19.29V47.86M180.55,28V46.73m-2.2.85V28.85M41.65,30.19V46.61m124,18v21m-71-58.52V47.47m8-21.32V46.28M90.27,26.66v20.6m-6.45-20V46.83m35.43-20.3V47.34M117,47.13V26.61m-2.48.06V47.13m-5.45-20.6V46.7m-2.34-.42V27.09m18.92,19.7V27.51m5,19.28V27.59m-8.86,20V27.17m-48.26-.38v20M75.88,27V46.62M78,27.21V46.62m2.76-19.83v20M69.08,27V46.07m74.41.85V27.31M149,46.49V27.39m-8.92,20V27.17m-2.27.07V47.55m21-.63V27.31m5.53.08v19.1m-8.93.85V27.17m-2.26,20.38V27.24M54.75,117.48V100.64m1.66,16.63V100.64M59,117.7V100.64m-9.73,17.83V100.85m17,16.85V101.27m-5.1,15.65V100.49M4,118.85V102.21m5.18,0v16.42m11.35,1.75v-.16m0-18v18m-2.29-1.59V102.84m-2.12,15.79V102.21m28,16.08V102.08m-5.27,16V102.29m-6.24,16V101.51m-6.59,17.88V101.64m-2.19,18.6V102.49M175,118.42V101.27m-2.51,15.67V102.12m-1.9,16.51V103.18m9.92-.56v14.81m-2.2.85V103.47M41.65,118.29V101.86m52.94,17.29V101.7m8,16.26V100.77M90.27,118.94V101.28m-6.45-.34V118.5m0,0h0m35.43-17.35V119M117,101.22v17.59m-4.89-.21V101.36m-3,17V101.15M106.71,118V101.7m18.92.43v14.38m5-14.31v14.31m-8.86-14.72v17.44m-48.26-.72v-.27m0-17.82v17.82m2.34,0V100.64m0,17.66v0M78,100.85V118.3m2.76.21v-.13m0,0v-18M69.08,117.74v-17.1m74.41,17.41V101.93m0,16.66v-.54m5.52.12V102m-8.92-.21v15.27m-2.27-15.2v15.41m21,2.31V101.93m5.53,17.22V102m-8.93,17V101.79m-2.26,17.44V101.86m10.2-37V85.68m19.91-21.5V85.75m-3.4-21.15v21m-2.27-20.79V85.68M18.52,64.3V86.88m68,85.57V154.62m2.27,17.9V154.47M91,172.66V155m2.77,17.62v-18M82,172.45V154.83m17,16.85V155.25M37.55,170.87V158.14m4.37,12.52V158.14m14.39,12.52V156.19M65,172.4V154.28M61.41,172.4V155.63M26.48,171.29V158.78m8.71,12.3V157.85m-3.61,13.23V159.21m17.29,11.45V156.19m27.21,17.06V155.08m-4.46,18V155.29m2.76,18V154.87m52.94,18.26V173m0-17.28V173m8,0V156.71M123,155.26v17.66m-6.45-.43V155.9m34.37,17.31V156.32m-1.73,16.47V156.25m-2.41,16.32V156.32m-2.07,17V156.11m-5.27,16.81V155.68m18.92,17.74V156.11m5,17.32V156.18m-9.84,17V156.75M2.1,171V157.76m16.65,13.35v-13M16.48,170.9V158.21M14,170.9V158.28m-2.41,13.39V159.33m-3,12.13V159.12M6.21,171V158.69M21.3,171.33V158.78m85-4.38v17.92m0,.17v-.17m2.34,0V155.6m2.13,16.68V155.81m2.76,16.68V155.38M101.81,172.7v-.32m0-17.76v17.76m74.4-16.33v-.14m0,16.67V156.05m5.53-.07v.25m0,15.92V156.23M172.81,173V155.82m0,0v0m-2.26,17.44V155.84M85.23,62.19V49.25m2.4,13V49.33M89.7,62.4V49.68M92.47,62.4V49.25m-11.7.22V62.19m17-.76V48.91M36.29,61.59V47.89m4.37,13.49V48.87M55.05,63.34V47.89m8.71,15.23V47.93m-3.61,15.2V49.3M25.21,47.55V63m8.72-1.19V47.59M30.31,48V62.72m0,.06v-.06m17.3-1.34V46.91m27.21,2.81V63M70.35,49.93V62.78m2.77-13.27V63m52.93-2.08V48.37m8,12.33V49.39M121.73,62.66v-.14m0-14.58V62.52m-6.45-.28V49.56m35,11.44V49.29m-2.35,11.28V48.93m-2.41,11.43V49m-2.07,12.12V48.79m-5.28,11.92V48.37m18.92,12.84V48.79m5,12.42V48.86M152.29,61V49.43M17.49,47.88V62.82M15.22,48V62.6M12.74,48V62.6M10.33,49.07V60.43m-3-12.55v14.3M5,47.46V61.75M20,48.52V63m85-.8V48.06m2.34,14V49.25M109.47,62V49.47m2.77,12.76V49m-11.7,13.41V48.28M175,60.36V48.59m5.53,14.29V48.66m-8.93,12.13V48.45M169.28,61V48.52m-81.21-24V10.58m2.4,14V10.65M92.53,24.7V11m2.77-.42V24.7m-11.69-.21V10.79m17,.42V23.72M39.13,26.83V8.23M43.5,26.62V8.23M57.88,25.64V9.21M66.6,24.45V10.23M63,8.68v0m0,16.77V8.68M28.05,27.25V8.87M36.76,27V7.94M33.15,27V9.3M50.44,26.62V9.21M77.65,25.29V11m-4.46,14V11.25m2.76,14V10.83m52.94,14.34V8.71m8,0V25.94M124.57,8.28v.43m0,16.25V8.71m-6.45,3.15V25.51M152.7,7.94V25.81M150.76,8.3V25.81M148.35,8.37V25.6M146.28,8.15v18m0,0v.17M141,7.73V25.94M159.93,8.15V26.38m0,.07v-.07m5-18.16V26.45m-9.84-.26v0m0-17.44v17.4M3.67,27V7.84m16.65.39V27.07M18.06,8.3V26.86M15.58,8.37V26.86M13.16,9.42V27.63m-3-.22V9.2M7.78,27V8.78M22.87,27.29V8.86m85,1.5V24.53m2.34.76h0m0-13.75V25.29m2.13-13.52V25.3m2.76-14V25.51M103.38,10.58V24.65m0,.1v-.1m74.41,1V8m5.53,17.22V8m-8.94-.21V26M172.12,7.88V26.23M85.23,136.81V120.93m2.06,16.16V121m2.41,16V121.36M92.47,137V120.93m-11.7,15.88V120.17m17,15.87V123.53M35.49,136.21V121.53M40.66,136V120.55M55.05,136V119.57m8.71,18V119.61m0,17.92v.21m-3.61,0v-.31m0-16.46v16.46m-34.94-2.75V122.17m8.72,13.27V121.23m-3.62,14.21V121.61M47.61,136V121.53m27.21,16.08V119.44m-4.47,18V119.65m2.77-.42v18.38m52.93-2.08V123m8,12.34V120.09m-12.33,17.19V122.56m-6.45,14.29V122.22m34.59,12.12v-12m-1.94,12.85V120.61M145.52,135v-14.3m-2.07,15.07V120.47m-5.28,14.85V120.05m18.92,15.78V121.45m5,14.38V121.52m-9.83,14.09V122.09m-134.8,12.4v-14m-2.27,13.74V120.61m-2.48,13.67v-13.6m-2.41,14.37V121.73m-3,15.06v-.6m0-15.65v15.65M5,136.37v-.21m0,0v-16M20,134.71V121.18m85,15.67V122.68m2.34,14V123.87m2.12,12.77V122.13m2.77,14.72V121.7m-11.7,15.37V122.89M175,135V120.27m5.53,14.28V120.34m-8.93,15.06V121.11m-2.27,14.51V121.18m-81.21-37V98.13m2.4-13.85V98.2m1.91-13.7V98.62m2.92-14.4V98.34M83.61,84.42V98.13m17-.77V84.85M39.13,98.51V88.72m4.37,9.57V88.72M57.88,99.27V99m0,0V86.76M66.6,98.08V84.85M63,86.21V99.06M28.05,88.43v12.46m0-12.51v.05m8.71,0V98.72m0-10.29h0m-3.61,12.25V88.81M50.44,87.3v11m0-11.52v.53m27.21-2.62V98.93m-4.46-14V98.72M76,84.46V98.93m52.94-.12V86.26m8,11.36V86.31M124.57,98.6V85.84m-6.45,13.31V85.49m35,13.19V87m-2.35,11.5V86.83m-2.2,10.92V86.39m-2.49,11.7V85.75M141,97.62V85.28m18.92,14.81V87.66m5,12.43V87.74m-9.84,11.15V87.32m-151.45,2v11.32M20.32,88.18v12.53m0-13v.45m-2.26-.37v.28m0,0V100.5m-2.48,0V88m0-.13V88m-2.42,13.1v.15m0-12.33v12.18m-3-.06h0m0-12.32V101M7.78,88.29v12.34m15.09.29V88.37m85,9.8V84m4.47,1.41V98.94m2.76.21V85m-11.69,13.4V84.21m74.41,15V88.13m0,0v-.67m5.53.08v.63m0,10.64V88.17m-8.94,11.49V87.88m0,0v-.56m-2.26.26v-.19m0,12.48V87.58M.83,135.47v-16"/></pattern><symbol id="d" viewBox="0 0 1947.31 1089.11"><g class="d"><path class="e" d="M1944.62,1080H23.83V434.48c7.24,8.19,20.83,19.94,44.76,24.34,23.21,4.28,43-.78,77.81-6.91,41.18-7.25,84.53-10.58,126.69-16.11C376.37,422.27,386,421.87,395.84,421.71c21.51-.35,46.24.45,83.43-2.35,32.1-2.42,43.73-3.67,43.73-3.67,22.28-2.4,28.07-3.85,42-3.87,17.6,0,18.42,2.6,36.8,2.79,10.49.11,22.42-.39,51.34-4,29.23-3.65,47.79-6.89,47.79-6.89,76.16-13.27,114.24-19.91,154.32-21.19,33.57-1.07,61.36,1.42,110,5.8,42.25,3.8,60.62,7.33,94.27,5.27,24.47-1.5,47.15-5.36,64.11-8.24,36.13-6.14,54.2-9.22,62.78-12,6.28-2,13.86-4.88,24.73-4.91,3.6,0,9.87.28,28.54,5.13,14.19,3.69,17.54,5.33,24.22,7.06,17.19,4.45,31.27,2.95,49.85,3,9.5,0,28.64,2.09,66.92,6.26,53.19,5.8,59.45,7.68,114.34,14,38.52,4.41,69,7.32,76.37,8,56.35,5.35,55.88,4,84.88,7.54,42,5.09,79.3,12.28,92.14,14.77,29.5,5.74,37.52,8.32,59.41,10.65,19.66,2.09,36.1,3.85,57.45,3.44,8.54-.16,13.37-.58,21.93.17,14.4,1.26,19.84,4.14,35.2,6a174.83,174.83,0,0,0,22.24,1.2"/><path class="f" d="M487.35,1080c-3.56-19.82-8.82-65.25,12.51-115.16,8-18.75,22-47.74,51.4-70.61,22.15-17.22,38-20.23,90.25-41.09,39.57-15.79,38.29-18.39,94.14-40.79,57.24-23,108.26-36.09,130.16-41.65,103.27-26.22,117.47-14,168.81-34.94,59.37-24.18,44.58-42.19,105.75-59.29,34.44-9.63,52-7.53,103.73-23.3,42.52-13,59.66-23.24,64.42-26.19,19.89-12.35,19.53-18.5,29.07-26.88,4.47-3.92,7.53-5.32,10.23-7.28,16.89-12.32-3.75-25.07,4.82-48.18,4.37-11.78,11.25-12.54,11.19-22.23-.07-10.65-8.43-19.26-17.29-26.47-36.21-29.51-73.89-30.07-109.82-58.77-8.41-6.71-25.75-20.91-18.82-32.29,1.33-2.18,4.35-5.57,4.94-10.91.92-8.4-5-13.73-2.39-14.5,2.86-.84,9.17,5.57,25.42,11.38,8.82,3.15,9.38,2.13,26.44,6.88,18.34,5.11,29.16,9.49,31.52,8.21,1.17-.63-2.51-2.5-1-4,1.81-1.78,9.35-1.42,11.19-1.33,16.14.78,28.19,7,45.76,12.71,17.9,5.83,17.38,3.31,29.17,7.77,25.13,9.52,30.22,22,35.91,21.08,4-.68,4.9-7.49.51-12.7-2-2.39-4.87-4.15-10.77-6.83-5.6-2.56-30.81-14-51.77-15.67a81.73,81.73,0,0,1-13.22-2.39c-1.35-.36-8.09-2.18-7.63-3.44.7-1.87,17.11-1.7,20.84-1.66,47.3.49,81.43.76,104.37,11,33.61,15,17.21,39.64,54.27,80.14,4.33,4.73,10.75,11.17,24.08,14.84,19.77,5.46,34.6-.71,62.36.52,41.15,1.81,64.93,17.85,67.12,16.41,2.36-1.56-23.43-21.6-62-24.36-27.08-1.93-37.86,6.27-56.94,2.12-4.47-1-17.56-4.39-34.43-31.3-14.21-22.67-28.23-45-11.73-51.37,3.27-1.25,16.16-5.11,54.29,7,127.42,9.18,172.94,12.08,177.41,12,4.64-.07,8.53-.22,15.39-.19,65.72.29,130.22,12.09,130.22,12.09,19.95.8,49.73,1.5,57.45,10.32,6.05,6.92,0,20.47,0,20.47V1080Z"/><path class="g" d="M456,419.17c6.8,0,17.91-.2,31.5-1.06,36.25-2.29,49.49-6.92,77.44-6.29,16.48.37,15,2.05,32.36,2.89,28.62,1.38,50.5-2.31,77.12-7,82.9-14.46,83.14-15.6,104.93-18.49a731.39,731.39,0,0,1,90.5-6.09c74.84-.85,134,7.21,143.5,8.65,2.74.42,8.55,1.38,17,2.19,19.89,1.91,26.38.3,28.36,1.87,4,3.2-14.44,18.75-80.92,46.91-101.41,42.95-136.06,39.71-185.17,71-41.25,26.26-62.65,57.76-56.26,60l.21.06c7.16,1.73,21.49-6.78,26.23-9.59,7-4.14,16.91-11.21,24.4-22.23,11.68-7.42,25.31-16,40.68-25.42,20.52-12.61,27.4-16.54,39.32-19.76,18-4.86,36.1-5.1,48.13-4.59,34.66-17.48,52-26.23,66.54-33.83,35.69-18.64,65.11-34.84,87-47.17,24.56-14.71,48.58-23.62,65.34-29.12,11.57-3.79,43.16-13.27,52.13-8.78,4.67,2.34,1.61,7.66-2.05,13.81-7,11.74-17.68,19.09-21.87,22.5-25.37,20.72,15,38.14-6.44,65.3-12,15.19-28.1,14.07-35.25,29.64s5.91,22.65,4.07,35.3c-1.47,10.13-12.51,24-81.35,48-97.26,33.91-190.29,46.38-189.14,48.35.5.87,19.22-.48,50.84-5.29,75.95-11.57,198.13-30.18,227.78-75.53a25.63,25.63,0,0,0,3.62-7.58,34,34,0,0,0,.77-14.55c-1-5.89-1.77-14.59-1.34-28.08,37.9-32.5,40.46-50.29,35.09-60.62-1.17-2.25-6.28-11-3.05-22,2.56-8.74,10.09-17.81,14.74-17.47s2.09,9.42,7.38,21.07c2.88,6.32,8.51,14.43,43.65,38.77,33,22.85,34.73,20.08,45.17,29.57,12.88,11.72,33.74,30.7,25,49.56-9.41,20.21-51.73,32.73-136.36,57.76-39.39,11.65-53.42,13.82-73.12,24.83-27.76,15.51-24,24.7-48.81,44.47-29.91,23.89-68.14,36.71-94.46,45.53-52.42,17.57-66.79,12.34-121.12,26.47-44.42,11.56-84.52,32.33-162.92,73.42-59.63,31.25-89.44,46.87-105.54,57.88-28.41,19.42-45.84,36.43-58.09,51.59-31.59,39.11-54.72,68-58.51,73.62-24.11,35.58-116.33,73.45-421.22,80.32V439.4c12.92,8,33.75,18.24,63.25,21.83,45.56,5.55,58.57-11.22,150.3-21.15,39.48-4.27,64.77-4.16,123-12.7,14-2.05,26-4,35.42-5.67"/><path class="h" d="M5.41,424.73c17,15.58,44.11,34.6,81.67,36.5,22.53,1.14,35.64-6.26,72.39-11.53,31-4.46,72.83-9.83,113.62-13.9,64.16-6.11,115.29-18.36,206.18-16.44,29,.61,56.73-7.56,85.7-7.54,10.94,0,21.42,3.06,32.36,2.89,58-.95,113-13.88,169.55-20.87,31-3.83,61.15-10.25,92.89-11.55,29.14-1.18,58.35,2,87.41,3.57,37.56,2.05,74.62,8.8,112.33,7.73,15.53-.44,30.27-3.75,45.33-5.79,23.86-3.22,48.08-5.89,71.34-10.15,14.83-2.72,29.66-10.44,43.29-9.78,14.35.69,29,11.75,43.22,12.83s36.83,1.65,51,2.87q51.54,4.41,102.65,10.11c26.37,3,52.17,7.3,78.61,10.11,35.7,3.81,72.17,5.42,107.89,9.15,24.24,2.53,48.27,5.63,72.14,9,47.1,6.63,92.35,16.88,140.13,22.06,23.66,2.56,48.32,1.9,72,4.39,5.76.61,21.78,5.46,45,6.79,5.23.3,9.56.38,12.42.4m-733.49-87.15c.32-.34-25.3,17.52-23.18,25.34,3.11,11.49-3.39,24,3.69,35.15,9.19,14.43,48.4,38,48.4,38,12.69,6.62,31.55,18.08,45.64,34.82,12.13,14.42,24.31,28,18.3,42.35-6.87,16.39-37.89,26.68-99.66,46.59-72.63,23.42-85.66,20.53-109.82,36-20.3,13-16.38,18.41-48.81,44.47-13.53,10.88-29.64,23.81-48.81,33.88-49.7,26.11-93.89,19.23-166.77,38.12-29,7.52-60,22.66-122,52.94-59.44,29-101.21,46-146.43,78.36-29.15,20.84-45.63,36.82-57.88,58.47-9.86,17.41-11.17,28.21-22.77,51.88-14.33,29.25-27.64,34.2-38.12,58.76a137.42,137.42,0,0,0-10.58,45"/></g></symbol></defs><use width="1947.31" height="1089.1" transform="translate(-24.53)" xlink:href="#d"/></svg>