<svg xmlns="http://www.w3.org/2000/svg" xmlns:xlink="http://www.w3.org/1999/xlink" width="3000" height="1536"><defs><pattern id="b" width="166.82" height="166.82" patternTransform="translate(1372.67 736.2) scale(.75)" patternUnits="userSpaceOnUse"><path class="a" d="M0 0h166.82v166.82H0z"/><path class="c" d="M5.54 0a36.2 36.2 0 0 0 16.2 17.54C30.51 22 35.06 29.93 37.33 34.3c2.53 4.87 11.79 12.38 18.42 15.49S71 61.87 72.51 66.55 84.2 81 89.27 83.7s14.42 11.69 16.37 16 9 12.48 16.76 16.76 14.81 12.09 16.76 16.76 9.74 13.65 16.76 16.76c3.76 1.68 7.67 5 10.9 8.7M23.66 0a36.25 36.25 0 0 0 16.2 17.54C48.63 22 53.18 29.93 55.45 34.3 58 39.17 67.24 46.68 73.87 49.79s15.2 12.08 16.76 16.76S102.32 81 107.39 83.7s14.42 11.69 16.37 16 9 12.48 16.76 16.76 14.81 12.09 16.76 16.76c1.28 3.08 5.09 8 9.54 11.91m0-23.15a44.05 44.05 0 0 0-7.73-5.52c-7.79-4.28-14.81-12.47-16.75-16.76S131 86.43 126 83.7s-15.24-12.47-16.8-17.15-10.13-13.64-16.76-16.76S76.56 39.17 74 34.3c-2.25-4.37-6.79-12.3-15.56-16.76A36.15 36.15 0 0 1 42.24 0m18.57 0A36.2 36.2 0 0 0 77 17.54C85.78 22 90.33 29.93 92.6 34.3c2.54 4.87 11.79 12.38 18.42 15.49s15.2 12.08 16.76 16.76S139.47 81 144.54 83.7s14.42 11.69 16.37 16a33.67 33.67 0 0 0 5.91 8.09m0-21.58a29.27 29.27 0 0 0-3.7-2.49c-5.07-2.73-15.21-12.47-16.76-17.15s-10.14-13.64-16.77-16.76-15.88-10.64-18.41-15.51c-2.28-4.37-6.82-12.3-15.59-16.76A36.15 36.15 0 0 1 79.39 0m87.43 69.92a14 14 0 0 1-1.89-3.37c-1.56-4.68-10.13-13.64-16.76-16.76s-15.88-10.62-18.42-15.49c-2.27-4.37-6.82-12.28-15.59-16.76A36.25 36.25 0 0 1 98 0m68.86 49.83h-.07c-6.63-3.11-15.88-10.62-18.42-15.49-2.27-4.37-6.82-12.28-15.59-16.76A36.2 36.2 0 0 1 116.54 0m50.28 34.13c-2.3-4.4-6.84-12.16-15.5-16.59A36.22 36.22 0 0 1 135.11 0m31.71 15.74A36.55 36.55 0 0 1 153.69 0M0 158.66a42.08 42.08 0 0 1 5.69 8.16M0 145.11A29.59 29.59 0 0 0 7.22 150c6.52 2.9 13.46 10.76 16.59 16.86m18.58 0c-3.14-6.1-10.08-14-16.59-16.86-7.02-3.16-14.8-12.12-16.8-16.8-1.26-3-4.66-7.39-9-11.24m0-14.19a45.76 45.76 0 0 0 10.85 8.67c7.79 4.29 14.81 12.09 16.76 16.76s9.74 13.65 16.76 16.8c6.52 2.9 13.45 10.76 16.59 16.86m18.58 0c-3.14-6.1-10.08-14-16.59-16.86-7-3.11-14.82-12.08-16.77-16.76s-9-12.47-16.75-16.76S14.62 104 12.67 99.68C11.13 96.31 5 90 0 86.19m0-16.27c3.57 5 10.83 11.61 14.87 13.78 5.07 2.73 14.42 11.69 16.37 16s9 12.48 16.76 16.76 14.81 12.09 16.76 16.76 9.75 13.63 16.76 16.78c6.52 2.9 13.46 10.76 16.6 16.86M0 49.83C6.62 53 15.13 61.89 16.69 66.55S28.38 81 33.45 83.7s14.42 11.69 16.37 16 9 12.48 16.76 16.76 14.81 12.09 16.76 16.76 9.74 13.63 16.76 16.78c6.52 2.9 13.46 10.76 16.59 16.86M0 34.13l.09.17c2.53 4.87 11.79 12.38 18.41 15.49s15.2 12.08 16.76 16.76S47 81 52 83.7s14.42 11.69 16.37 16 9 12.48 16.76 16.76 14.87 12.07 16.78 16.74 9.75 13.65 16.76 16.76c6.52 2.9 13.46 10.76 16.6 16.86M0 15.74a32.42 32.42 0 0 0 3.07 1.8C11.84 22 16.39 29.93 18.66 34.3c2.53 4.87 11.79 12.38 18.42 15.49s15.2 12.09 16.76 16.76S65.53 81 70.6 83.7 85 95.4 87 99.68s9 12.48 16.76 16.76 14.81 12.09 16.76 16.76 9.74 13.64 16.76 16.76c6.52 2.9 13.46 10.76 16.59 16.86M35.59 20.26l-7.37-3.15m-2.75 16.63 7.37 3.16m15.47-5.08L48 39.54m20.17 15.33 8.24 3.68m10.36 17.84L95.28 79m-26 8.76-6.82-2m49.42 17.42 2.12-8.05m23.83 27.38-7.18-5.67m17.42 18.72 6.78 2.58M33.72 1.26l2.42 6.51M52.28 24l6-3.12m6.8 18.76 8.66-.53M35.83 52.9l-6.7-.61M94 66.64l1-8.42m14.79 17.34 3.65 7.5m16.15 21.23 4.13-7m-41.04 1.15L95.56 94m-39-82.6 4.55-3.51m47.28 47.84 7.6 4M64.94 71l8.6 5.27m10.93-37.39 1.06-7m40.54 47 8.77 1.06m14.16 22.7 6.88 1.27m-1.44 14 2.1 7M6 32.92l4.56-3.5m35.09 41.72 1.05-7M81.57 101l2.14 5.61m30.78 30.56-2.11-7M5.94 12.07 14.35 17m98 99.88 6.17 1.81M129.76 135l4.74 6.19m1.16 19.91 2.84-5.19m13.58-3.61 1.83 5.77m-57.63-36.69 4.66-2.94m-50.38-67.3 2.81 7.72M126.42 3.3l7.37 3.16m21.48 29.77.94-9.92m-28.8-2.5 9.48 1.38m10.24-13.75 8.66-.53M109 19.22l3.78 8m40.49 20.89 7 3.8M89 7.23l4.56-3.5m40.24 47 1.05-7m20.36 37.81 1.05 8.06m-70.57-71 8 1.89m37.09 43.23h6.08M60.4 142.55l8.07 2.11m-48.24 4.44-5.75.52m-11-47.87 8.42 2.1m48.79 2.09 4.3-3.09m-52.21 21.66 2.11 9.49m49.91 30 7.49-3.66M46.35 157l-7-4.13m11.81-24.57-4-6.94M29.07 86l3.31 6.15m-9.67-20.77 3.58-4.91M7.39 51.35l.91-5.75m14.82 61.74 2.7-6.38M48 90.09l-2.66-4.82M43.77 109l4.85-4.58m35 35.23L81 144.93m-13.61-17.52-2.31-6.69m-22 24.92 1.18-8.31m56.58 9.95 5.72-2.45M8.8 163.59l2.4-6.31M2.12 81.46l6.16 2.31m2-16.83-5.88 1.4m22.48 55.79 7.56 2.28m51 2.89 2.31-5.19m16.68-84.41 8.07 2.1m-12 119.69 2.31-5.2"/></pattern><pattern id="c" width="184.94" height="184.93" patternTransform="matrix(.92 -.58 1.11 .48 1056.14 791.21)" patternUnits="userSpaceOnUse"><path class="a" d="M0 0h184.94v184.93H0z"/><path d="M127.32 173c7.46.12 19.94 1 24 1.34 5.1.43 14-.42 21.26-.85m-49.73-.49c1-.09 2.59-.1 4.47-.07M134.46 7.4c3.84-.22 8.86-.33 14.12-.38m-24 1.69c1.47-.2 2.77-.41 3.81-.66a42.21 42.21 0 0 1 6.08-.65m-9.89 1.31c-8.74 1.15-23.53 1.47-26.8 1.47M148.58 7h16m5.67 0 5.53.08M164.59 7c2.06 0 4 0 5.67.06m14.67.16h-9.18m-29.51 19c2.56-.05 5.58-.07 8.84 0m-8.84 0c-2.84.06-5.1.14-6.42.14m20.07.05c7.42.37 14 .74 15.11.8m-19.92-1c1.27 0 2.56.08 3.87.14l.94.05m15.11.8h.16c3 .08 6.26.21 9.73.35m-14.3 20.33c-3-.06-7-.06-11.21.16-8.08.42-20.41-.43-25.09 0m50.6-.49c-3.65.14-7 .31-9.74.49 0 0-1.79-.1-4.56-.16m14.3 15.19c-3.27-.07-7.3-.32-10.59-.57 0 0-24.7.85-37.88.42-4.42-.14-9.6-.29-14.73-.38m-23.54.38c3.39-.57 13.37-.57 23.54-.38M66.6 84.85c3-.42 17.33-.47 26.69-1.32s30.41.63 45.29 1c2 .06 4 .16 6.18.29m0 0 2.55.17m0 0c9.65.7 19.84 1.92 24.81 2.54m11.2.59h-5.53m-5.67-.55 2.26.3m3.41.25c-1 0-1.9-.07-2.59-.14l-.81-.11m10.54.27h-1.61m-70.25 11.75c3-.42 12.76-.42 17.43-.85s17.44.43 24.67.85 21.73.85 21.73.85a77.21 77.21 0 0 1 8 0m0 35.38c-3 0-5.44-.06-7.18-.06 0 0-15.35 0-25.13.86s-25.09 1.7-34.44 2.12-14.89-.42-17.44 0m75.48 17 5.52.18m0 0 3.19.14m-12.12-.55a84.23 84.23 0 0 0-11.27-.23c-4.67.43-20.83-1.27-23-.85m37.63 1.31h-1s-.95-.09-2.39-.2m.83 17.21c3.17-.21 7-.39 11.29-.55m-30.19-52.6H162c3 0 12.38-1.28 12.38-1.28a105.41 105.41 0 0 1 10.58.23m-115-110L63 8.68M21.65 7.61c14.64.27 29.94.63 35.3.87 1.82.07 3.87.14 6 .2m15.86.42a85.61 85.61 0 0 1 9.19.65m-18.07-.9c3.09.07 6.16.15 8.93.25M12.3 7.43l9.35.17M0 7.26c3 0 6.46.08 10.21.14m2.12 0H10.2m116.48 18.08c-5.15 0-10.31.74-16.5-.19m-89.63 3.07c-6.91-.21-14.07-.55-20.58-.83m103.41-2.88a33.27 33.27 0 0 1 5.44.41l1.36.23m-89.63 3.07c10.53.31 20.47.31 26.62-.75 12.33-2.13 17-2.55 27.21-2.13 8.09.34 20.72-.93 29-.83M0 47.53c22-.87 56.55-1 64.2.06.68.1 1.39.19 2.14.27m48.89-.27c-2.55-.42-16.16-.42-20.84.43-4.32.79-18.82.84-28-.16m-36 14.86c-1.81.23-4 .46-6.74.61-8.08.42-15.95-.85-18.5-.43a33.07 33.07 0 0 1-5.1.15m84.19-.15c-17.86.85-31.89 1.27-41.25-.42-5.32-1-7.77-.37-12.6.24M50.44 87.3a115.13 115.13 0 0 1-13.68 1.13m-18.7-.34 2.26.09M15.58 88l2.48.08m34.06-1-1.68.26m-13.68 1.09c-3 .08-6 .06-8.71 0m0 0c-2.78-.06-5.38-.16-7.73-.25M0 88.15C4.4 88.1 9.39 88 13.58 88h2m82.19 11.89c-9.54 0-27.34-.78-39.89-.89m0 0a89.6 89.6 0 0 0-12.88.47c-6.8 1.27-11.48 1.7-25.51 1.7-2.26 0-4.38 0-6.37-.06m-3-.07c-3.95-.1-7.31-.23-10.15-.33m13.19.4-3-.07M.84 136.1l4.11.06m58.81 1.37c9.25.24 20.19.38 24.23 1.05m-80.71-2.39H4.95m58.81 1.37-3.61-.1m-52.87-1.27c17.36.26 42.48.81 49.67 1.12l3.2.12M44.62 156.8q1.37-.15 2.55-.36c9.25-1.59 14.2-2.23 20.41-2.27m-23 2.63c-10.75 1.2-29.44.2-44.58-.43m67.61-2.2c2.06 0 4.26 0 6.8.15 10.2.42 27.64-1.7 34.44-.43s12.33.43 17.86.43m-24.87 18.06c1.5 0 3-.06 4.46-.06m-4.46.06a68.58 68.58 0 0 0-9 .65c-4.68.85-21.26.85-30.19-.43-7.48-1.07-40.59-.94-62.65-.13m106.3-.15a68.71 68.71 0 0 1 7.37.28m-40.1-54.36h2.34m67.61-.21c-3.1-.58-5-.64-14.26.55-13.18 1.7-31 1.7-39.12.43a61.92 61.92 0 0 0-6.29-.53m-63.27 1.72c1.19 0 2.28.08 3.23.08A156.85 156.85 0 0 0 44.62 119c4.2-.53 17.47-.89 28.92-.79m75.25.79c-2.43-.39-4-.73-5.3-1m-122.94 2.22C14.92 120 7 119.25 0 118.84m75.91-.58c1.7 0 3.35.07 4.89.12m0 0c1.07 0 2.09.07 3 .12m-76 66.43v-10.8m-4.68 10.8v-10.58m7 10.58v-10.8m2.13 10.8v-11m2.77 11v-11m59.31 11v-9.73m2.34 9.73v-9.31m2.13 9.31v-9.52m2.76 9.52v-9.52m-60 9.52v-11m5.18 11v-11.22m6.94 11.22v-11.22m87.6 11.22V175m8 10v-10.23m2.84 10.16v-10.65M117 184.93v-10.16m-6.45 10.16v-10.58M146 184.93v-10.08m-6.18 10.08v-10.29m-2.93 10.29v-10.5m-2.45 10.5v-11.14m17.94 11.14v-9.65m5 9.65v-9.65m-8.86 9.65v-9.86m-78.66 9.86v-9.73m30.4 9.73v-10.58m2.33 10.58v-10.8m2.13 10.8v-10.8m2.77 10.8v-10.58M56 139.21v14.9m1.87-14.47v14.68m2.42 0v-15.11m-9.73.21v14.69m17-14.26v14.32m0 .15v-.15m-5.11-.63v-14.47m24.45 45.86v-9.52m8.93 9.52v-10.37m74.41 10.37v-9.52m5.53 9.52V175M5.29 156.44v-17.61m5.17 17.4v-17.4M21.6 156v-19.09m-1.87 17.62v-16.77m-2.33 18.47v-17.4m27.22 18v-.07m.8 0v-19.04m-5.27 18.93v-18.72m-6.23 17.94v-16.76M26.48 155v-16.74m-2.63 17.19v-16.77m149.61-.84v17.41m2-17.94v17.52m-3.56-17v17.41m9.92-18v16.77m-2.19-15.92v16.81m-1.92-16.49v16.77m-134.8 1.69v-19.36m124 47.42v-9.1m-71-23v-11.57m8 11.36v-13.27m-12.38 13.27v-11.78m-6.45 11.35v-10.72m35.43 12.21v-13m-2.26 12.76v-12.66m-4.89 12.47v-12.33m-3 12.12v-12.33M108 152.62v-12.34m18.92 13.83v-15.36m5 15.36v-15.29m-8.85 15.07v-12.55M74.8 152.19V139m2.34 13v-12.79M79.27 152v-12.58M82 152.19V139m-11.66 13.4v-13.19m74.41-.67v14.71m5.53-14.63v14.21m-8.93-14.43v15.28m-2.27-15.2v15.41m21-15.35v14.71m5.52-14.63v14.21m-8.93-14.43v15.28m-2.26-15.2v15.41m10.2 31v-8.88M7.84 0v7.24M3.16 0v7.24m7 .16V0m2.13 7.43v.22M12.3 0v7.44M15.07 0v7.24M74.38 0v8.73M76.72 0v9m2.13.21V9.1m0-9.13V9.1M81.61 0v8.73m-60-1.07V7.6m0-7.63V7.6M26.83 0v7.66M41.21 0v7.66M54.53 0v7.88M46.32 0v8.09M52 0v7.88M33.77 0v7.66M61 0v8.51M121.37 0v8.73m8-8.76v6.84M132.21 0v6.32M117 0v8.3M110.59 0v9M146 0v6.39M139.84 0v6.46M136.91 0v6.6m-2.45 1.06V7.4m0-7.43V7.4M152.4 0v6.39m5-6.42v6.49M148.58 0v7M69.92 0v8.85m0 .09v-.09M100.32 0v9.58M102.65 0v9.79M104.78 0v10m2.77-10v9.58M86.92 0v9.36M95.85 0v9.79M170.26 0v7.08m0 0v.09m5.53 0v.07m0-7.27v7.19M57.71 0v7m-16.5 177.9v-11.15m13.32 11.18v-11.82m-8.21 11.82v-11.4m5.68 11.4v-11.61m9 11.61v-10.54m-3.28 10.54v-12.46M166.86 0v7m-2.27-7v7m0 .07V7M6.57 63.88V86.8m-4.67 0V64.09m7-.21V87M11 63.66v23.57m2.8-23.56V86.8m59.32-3.41V65.92m2.34 17.69V66.35m2.12 17.47V66.14m2.77 17.25V66.14m-58-2.47v22.58m5.18-22.8v22.8m14.38-21.82v21.82m11.78-22v21.66M47 64.22v22.45M50.72 64v21.48m-16.25-23v23.77m25.25-21.18v20.07m60.38-3.7V65.71m8-.21v17m2.84-17.5v17m-15.16-1V65.5m-6.45 16.15V65.07M144.76 85v-.1m0 0V65.58m-5.33.64V83m-2.35-17.59v16.76M135 66v17.1m-1.8-18.58v18.79M151.14 66v19m5-19v19m-8.86 0V65.79m0 19.82V85m-78.63-1.4V65.92m30.4 16.36V65.07m2.34 17.43V64.86m2.13 17.85V64.86m2.76 17.42V65.07M54.75 28v17.81m2.51-17.41V46M59 28v18m-9.69-15.85v14.68m17 3V48m0-20.34v20.2m-5.1-20v17.4m24.45 36.81V66.14m8.93 16.36V65.28m74.41-1.1v21.57m5.53-22v24M56.24 64.86v20.49M4 29.55v17.62m5.2-17.62V47m9.49-17.4V47m1.86-19.32v.73m0 18.38V28.36m-4.41 1.19V47m28-16.55v16.16m-5.27-16V46.4m-6.22-16.57V46.6M26.06 29v16.75m-2.19-15.92V46.6M175 47.72V27.18m0-.52v.52m-2.3 20.11V28.57m-2.11 19.36v-.07m0-19.29v19.29M180.55 28v18.73m-2.2.85V28.85m-136.7 1.34v16.42m124 18v21m-71-58.52v20.38m8-21.32v20.13M90.27 26.66v20.6m-6.45-20v19.57m35.43-20.3v20.81m-2.25-.21V26.61m-2.48.06v20.46m-5.45-20.6V46.7m-2.34-.42V27.09m18.92 19.7V27.51m5 19.28v-19.2m-8.86 20V27.17m-48.26-.38v20M75.88 27v19.62M78 27.21v19.41m2.76-19.83v20M69.08 27v19.07m74.41.85V27.31M149 46.49v-19.1m-8.92 20V27.17m-2.27.07v20.31m21-.63V27.31m5.53.08v19.1m-8.93.85V27.17m-2.26 20.38V27.24m-98.4 90.24v-16.84m1.66 16.63v-16.63M59 117.7v-17.06m-9.73 17.83v-17.62m17 16.85v-16.43m-5.1 15.65v-16.43M4 118.85v-16.64m5.18 0v16.42m11.35 1.75v-.16m0-18v18m-2.29-1.59v-15.79m-2.12 15.79v-16.42m28 16.08v-16.21m-5.27 16v-15.79m-6.24 16v-16.78m-6.59 17.88v-17.75m-2.19 18.6v-17.75M175 118.42v-17.15m-2.51 15.67v-14.82m-1.9 16.51v-15.45m9.92-.56v14.81m-2.2.85v-14.81M41.65 118.29v-16.43m52.94 17.29V101.7m8 16.26v-17.19m-12.32 18.17v-17.66m-6.45-.34v17.56m35.43-17.35V119M117 101.22v17.59m-4.89-.21v-17.24m-3 17v-17.21m-2.4 16.85v-16.3m18.92.43v14.38m5-14.31v14.31m-8.86-14.72v17.44m-48.26-.72v-.27m0-17.82v17.82m2.34 0v-17.6M78 100.85v17.45m2.76.21v-.13m0 0v-18m-11.68 17.36v-17.1m74.41 17.41v-16.12m0 16.66v-.54m5.52.12V102m-8.92-.21v15.27m-2.27-15.2v15.41m21 2.31v-17.65m5.53 17.22V102m-8.93 17v-17.21m-2.26 17.44v-17.37m10.2-37v20.82m19.91-21.5v21.57m-3.4-21.15v21m-2.27-20.79v20.87M18.52 64.3v22.58m68 85.57v-17.83m2.27 17.9v-18.05M91 172.66V155m2.77 17.62v-18M82 172.45v-17.62m17 16.85v-16.43m-61.45 15.62v-12.73m4.37 12.52v-12.52m14.39 12.52v-14.47M65 172.4v-18.12m-3.59 18.12v-16.77m-34.93 15.66v-12.51m8.71 12.3v-13.23m-3.61 13.23v-11.87m17.29 11.45v-14.47m27.21 17.06v-18.17m-4.46 18v-17.79m2.76 18v-18.42m52.94 18.26V173m0-17.28V173m8 0v-16.29M123 155.26v17.66m-6.45-.43V155.9m34.37 17.31v-16.89m-1.73 16.47v-16.54m-2.41 16.32v-16.25m-2.07 17v-17.21m-5.27 16.81v-17.24m18.92 17.74v-17.31m5 17.32v-17.25m-9.84 17v-16.43M2.1 171v-13.24m16.65 13.35v-13m-2.27 12.79v-12.69M14 170.9v-12.62m-2.41 13.39v-12.34m-3 12.13v-12.34M6.21 171v-12.31m15.09 12.64v-12.55m85-4.38v17.92m0 .17v-.17m2.34 0V155.6m2.13 16.68v-16.47m2.76 16.68v-17.11m-11.72 17.32v-.32m0-17.76v17.76m74.4-16.33v-.14m0 16.67v-16.53m5.53-.07v.25m0 15.92v-15.92M172.81 173v-17.18m-2.26 17.44v-17.42M85.23 62.19V49.25m2.4 13V49.33M89.7 62.4V49.68m2.77 12.72V49.25m-11.7.22v12.72m17-.76V48.91M36.29 61.59v-13.7m4.37 13.49V48.87m14.39 14.47V47.89m8.71 15.23V47.93m-3.61 15.2V49.3m-34.94-1.75V63m8.72-1.19V47.59m-3.62.41v14.72m0 .06v-.06m17.3-1.34V46.91m27.21 2.81V63m-4.47-13.07v12.85m2.77-13.27V63m52.93-2.08V48.37m8 12.33V49.39m-12.32 13.27v-.14m0-14.58v14.58m-6.45-.28V49.56m35 11.44V49.29m-2.35 11.28V48.93m-2.41 11.43V49m-2.07 12.12V48.79m-5.28 11.92V48.37m18.92 12.84V48.79m5 12.42V48.86M152.29 61V49.43m-134.8-1.55v14.94M15.22 48v14.6M12.74 48v14.6m-2.41-13.53v11.36m-3-12.55v14.3M5 47.46v14.29m15-13.23V63m85-.8V48.06m2.34 14V49.25M109.47 62V49.47m2.77 12.76V49m-11.7 13.41V48.28M175 60.36V48.59m5.53 14.29V48.66m-8.93 12.13V48.45M169.28 61V48.52m-81.21-24V10.58m2.4 14V10.65m2.06 14.05V11m2.77-.42V24.7m-11.69-.21v-13.7m17 .42v12.51m-61.48 3.11V8.23m4.37 18.39V8.23m14.38 17.41V9.21m8.72 15.24V10.23M63 25.45V8.68M28.05 27.25V8.87M36.76 27V7.94M33.15 27V9.3m17.29 17.32V9.21m27.21 16.08V11m-4.46 14V11.25m2.76 14V10.83m52.94 14.34V8.71m8 0v17.23M124.57 8.28v.43m0 16.25V8.71m-6.45 3.15v13.65M152.7 7.94v17.87M150.76 8.3v17.51m-2.41-17.44V25.6m-2.07-17.45v18m0 0v.17M141 7.73v18.21m18.93-17.79v18.23m0 .07v-.07m5-18.16v18.23M155.09 8.75v17.4M3.67 27V7.84m16.65.39v18.84M18.06 8.3v18.56M15.58 8.37v18.49M13.16 9.42v18.21m-3-.22V9.2M7.78 27V8.78m15.09 18.51V8.86m85 1.5v14.17m2.34-12.99v13.75m2.13-13.52V25.3m2.76-14v14.21m-11.72-14.93v14.07m0 .1v-.1m74.41 1V8m5.53 17.22V8m-8.94-.21V26m-2.26-18.12v18.35M85.23 136.81v-15.88m2.06 16.16V121m2.41 16v-15.64M92.47 137v-16.07m-11.7 15.88v-16.64m17 15.87v-12.51m-62.28 12.68v-14.68M40.66 136v-15.45M55.05 136v-16.43m8.71 18v-17.96m0 17.92v.21m-3.61 0v-.31m0-16.46v16.46m-34.94-2.75v-12.51m8.72 13.27v-14.21m-3.62 14.21v-13.83M47.61 136v-14.47m27.21 16.08v-18.17m-4.47 18v-17.79m2.77-.42v18.38m52.93-2.08V123m8 12.34v-15.25m-12.33 17.19v-14.72m-6.45 14.29v-14.63m34.59 12.12v-12m-1.94 12.85v-14.58m-2.4 14.39v-14.3m-2.07 15.07v-15.3m-5.28 14.85v-15.27m18.92 15.78v-14.38m5 14.38v-14.31m-9.83 14.09v-13.52m-134.8 12.4v-14m-2.27 13.74v-13.62m-2.48 13.67v-13.6m-2.41 14.37v-13.32m-3 15.06v-.6m0-15.65v15.65m-2.3.18v-.21m0 0v-16m15 14.55v-13.53m85 15.67v-14.17m2.34 14v-12.81m2.12 12.77v-14.51m2.77 14.72V121.7m-11.7 15.37v-14.18M175 135v-14.73m5.53 14.28v-14.21m-8.93 15.06v-14.29m-2.27 14.51v-14.44m-81.21-37v13.95m2.4-13.85V98.2m1.91-13.7v14.12m2.92-14.4v14.12M83.61 84.42v13.71m17-.77V84.85M39.13 98.51v-9.79m4.37 9.57v-9.57m14.38 10.55V99m0 0V86.76m8.72 11.32V84.85M63 86.21v12.85M28.05 88.43v12.46m0-12.51v.05m8.71 0v10.29M33.15 100.68V88.81m17.29-1.51v11m0-11.52v.53m27.21-2.62v14.24m-4.46-14v13.79M76 84.46v14.47m52.94-.12V86.26m8 11.36V86.31M124.57 98.6V85.84m-6.45 13.31V85.49m35 13.19V87m-2.35 11.5V86.83m-2.2 10.92V86.39m-2.49 11.7V85.75M141 97.62V85.28m18.92 14.81V87.66m5 12.43V87.74m-9.84 11.15V87.32m-151.45 2v11.32m16.69-12.46v12.53m0-13v.45m-2.26-.37v.28m0 0v12.43m-2.48 0V88m0-.13V88m-2.42 13.1v.15m0-12.33v12.18m-3-12.38V101M7.78 88.29v12.34m15.09.29V88.37m85 9.8V84m4.47 1.41v13.53m2.76.21V85m-11.69 13.4V84.21m74.41 15V88.13m0 0v-.67m5.53.08v.63m0 10.64V88.17m-8.94 11.49V87.88m0 0v-.56m-2.26.26v-.19m0 12.48V87.58M.83 135.47v-16" style="stroke-width:1.7px;stroke-miterlimit:11.34;stroke:#d9b776;fill:none"/></pattern><pattern id="e" width="241.06" height="241.06" patternTransform="matrix(.8 0 0 1.42 1185.59 1665.47)" patternUnits="userSpaceOnUse"><path class="a" d="M0 0h241.06v241.06H0z"/><path d="M5.07 7.42h0m9-1h0m9.62-1.59h0m8.51-1.42h0M4.6 13.68h0m8-.36h0m9-1.24h0m9-2.24h0m-26 9.68h0m7.44-.7h0m7.44-1.07h0M49.78 8h0M3.89 25.55h0m6.38-.71h0m6.26-.95h0m6.38-1.41h0m6.37-1.18h0m6.15-1.89h0m5.9-1.89h0m6.14-2.13h0m6.15-2.6h0m5.43-2.36h0m5.43-3.07h0m11.81-.89h0m-4.78 3h0m-5 2.48h0m-5 2.84h0m-5.14 2.13h0m-5.31 2.48h0m-5.32 1.94h0m-5.31 2.13h0m-5.32 1.59h0m-5.14 1.42h0m-5.67 1.6h0m-5.49.71h0m-5.67 1.06h0m-5.67.35h0m-5.49.18h0m3.62 3.55h0m-3.66 3.84h0m19.84 8h0m-5.84.18h0m-6 .18h0m-6.37-.53h0m6.73 9h0m-8.15-.35h0m16.3.53h0m8-.35h0m7.09-.71h0m6.73-1.07h0m15.24 5.5h0m5.67-1.78h0m-12.47 3.19h0m-6.55 1.24h0m-7.44.89h0m-7.09.71h0m-15.24.35h0m7.27 0h0m-14.88-.17h0m1.06 9.92h0m16.48 8h0M4.78 81h0m9.22-.18h0m35.79-3h0m-9 1.24h0m-9 .89h0m26.22-3.55h0M9.21 90.92h0m6.2-.35h0m5.67-.36h0M3 90.92h0m23.2-1.24h0m5.68-.68h0m5.67-.71h0m29.06-6h0m6-1.42h0m5.49-1.77h0m5.32-1.59h0M96.67 80h0m9.56.7h0m8.51.18h0m7.62-.35h0m-17 8.5h0m-10.46-.71h0m-11-1.77h0M114.56 89h0m9.57-.71h0m6.87-1.03h0m7.08-.89h0m6.74-.88h0M65.72 75h0m8-2h0m7.09-2.13h0m6.73-2.3h0m-46.98 2.15h0m-8.35.93h0m-9.39.53h0m-9 .35h0m34.05-2.69h0m7.08-1.24h0m6.56-1.42h0m6.2-1.59h0m6.38-2h0m6.38-2.31h0m13.46 4.79h0m11.63 3.25h0m5-2.9h0m4.79-3h0m-4.84 8.21h0M115.8 74h0m5.32 2h0m5.49 1.6h0m5.49 1.94h0m5.67 1.07h0m-37-17.07h0M10.39 36.41h0m5 2.66h0m5.14 2.3h0m5.31 2h0m5.32 1.77h0m5.66 1.78h0m5.5 1.41h0m5.49 1.24h0m5.49 1.42h0m5.32 1.42h0m5.49 1.06h0m5.31 1.24h0m5.67 1.06h0M86.57 58h0m6.14.71h0m6.14.47h0m6.38 0h0m7.56.24h0M80.9 57h0m-14.47-7.71h0m12.22 2.3h0m10.63 1.06h0m11.17.71h0m10.63.36h0m8.51 6.08h0m6.49 0h0m5.31-.18h0M238.58 90.8h0m-3 3.19h0m.89 5.85h0m-.18 7.09h0m1.42 21.26h0m-8.5-.18h0m-8.33-.53h0m-8.5-1.07h0m-8.86-.88h0m-8-1.42h0m37.62 15.35h0m5 11h0m-6-.36h0m-6.2-.35h0m-5.32-.35h0m-6.08-.48h0m-5.67-.88h0m-37.2-8.33h0m5.9 1.89h0m5.91 1.89h0m-17.66-6.26h0m-5.14-2.3h0m-5-2.66h0m-5-2.83h0m9-8.51h0m-5.32 2h0m-5.67 1.95h0m-27.28 7.44h0m-5.32 1.24h0m-5.49 1.42h0m-5.6 1.18h0m-5.5.84h0m-5.14 1.42h0m-5.84 1.06h0m-5.5.89h0m-5.49.89h0m-5.49.88h0m-5.67.89h0m-5.67.71h0m-5.49.88h0m-5.49.71h0m-5.49.53h0m-5.67.89h0m-5.32.71h0m-6.49.82h0m-6 .53h0m-5.84.18h0m-5.67.71h0m-6.2.71H3m7.2 5.73h0m-4.6-2.27h0m-3.36 56.34h0m6 5.14h0m-2.64 7.09h0m-2.3 8.86h0m.35 8.32h0m8.51-.71h0m8.5-.88h0m8.15-1.42h0m8.33-1.77h0m7.44-1.77h0M12 231.12h0m8.51-.89h0m8.15-1.59h0m-15.06-11h0m5.11 2.36h0m5.5 2.12h0m5.31 1.6h0m5.32 1.95h0m5.31 1.77h0m5.49 1.56h0m5.5 1.42h0m5.86 1.23h0m5 1.06h0m5.49 1.07h0m6 1.24h0m5.51 1.06h0m5.49.88h0m5.62 1.04h0m5.67.71h0m22.15 1.41h0m6.37-.17h0m5.5 0h0m5.84-.36h0m5.5-.71h0m5.66-.88h0m5.67-.53h0m5.67-.89h0m5.14-.89h0m5.32-1.06h0m5.84-1.65h0m6.14-1.66h0m6.85-1.31h0m7.09-2h0m6.85-2.13h0m5.91-1.42h0m-19.55 15.65h0m-7.09-3h0M126 234.6h0m22.1-1.6h0m-11.16 1.24h0m29.06-3.53h0m-8.86 1.41h0m17.86-3.19h0m-59.7 5.32h0m-3.25-5.08h0m8.15.53h0m8.5 0h0m8.68-.35h0m8.15-1.07h0m8.69-.88h0m8.32-1.77h0m8.33-2.13h0m7.79-2.13h0m8.51-2.83h0m26.1-4h0m-6.52 3.46h0m6.14 5.2h0m5.13-1.78h0m5.32-2.12h0m5.14-2.48h0m5.14-2.48h0M237 221h0m-15.59 6.55h0m8 2h0m8.86 1.6h0m-.71 8.68h0m-7.08-.41h0m-6.85-.71h0m-7.99-1.71h0m-8.13-2.12h0m-7.32-3.07h0m-5.37-16.3h0m-77.82 7.1h0m8.5.18h0m8.51.18h0m8.33-.89h0m8.68-.88h0m7.79-1.6h0m6.91-1.59h0m6.38-1.77h0m5.67-1.78h0m-69.27 6.91h0m3.54-7.61h0m23.6 1.24h0m-15.41-.36h0m8.15.53h0m14.7-.71h0m6.38-.7h0m5.49-.89h0m5.32-1.24h0m-20.38-5.31h0m-7.26.88h0m-8 .18h0m7.09-8.15h0m5.13 2.3h0m5.32 1.77h0m5.49 1.42h0m5.32 1.42h0m22.32 3h0m5.67.18h0m5.49.53h0m5.85 0h0m5.49 0h0m5.67 0h0m6 0h0m5.67.18h0m5.49 0h0m5.85.17h0m6-.35h0m5 .35h0M97 204.37h0m6.56 7.79h0m-8.15-1.95h0m-9.57-2.65h0m14.35 12.57h0m3.37 8h0m-8.33-1.24h0m9.45 6.85h0m-12.62-15.38h0m-5.31 7.09h0m6.61 7h0m-14.76-8.8h0m5.31-7.09h0m-8.33-2.66h0m-8-2.65h0m12.82 19.43h0m-34.05-17.46h0m21.85 15h0m-12.4-3h0m-11.87-3.54h0M34 218.13h0m-10.1-3.55h0m.65-5.61h0m5.67-.35h0m5.31-.71h0m5.85-.35h0m5.67-.71h0m5.67-.36h0m5.67-.88h0m5.31-.71h0m5.5-.71h0m5.67-.89h0m5.31-.88h0m5.82-1.07h0m5.67-.7h0m5.13-1.24h0m5.85-.89h0m5.49-1.42h0m5.67-.88h0m5.32-1.07h0m5.49-1.06h0m5.38-1.59h0m5.5-1.24h0m5.67-1.24h0m5.31-1.42h0m5.49-1.77h0m5.49-1.42h0m5.32-1.77h0m5.49-1.95h0m5.32-1.95h0m5-2.13h0m5.49-2.12h0M15.35 158.83h0m5.14 2.17h0m5.51 1.91h0m5.67 1.77h0m5.33 1.77h0m5 1.42h0m5.85 1.42h0m5.31 1.41h0m5.5 1.42h0m5.49 1.07h0m5.67.88h0m5.31.89h0m5.49.88h0m5.79.48h0m5.67.47h0m6.38.47h0m7.09 1h0m6.61.7h0m7.09.48h0m-23.33-9.28h0m-11.52-1.24h0m-11.77-1.82h0m-12.75-2.48h0m-11.52-3h0m-10.81-3.54h0m-10.27-3.72h0m79.54 16.47h0m-58.76-19.32h0M117.63 171h0m10.45-.18h0m-69.15-16.47h0m15.95-7h0m8 1.77h0m8.5 2.13h0m8.33 1.59h0m8.33 1.24h0m8.5 1.06h0m8.15.54h0m8.68.53h0m8.15.35h0m32.24-3.72h0m6.38-2.48h0m5.67-2.48h0m-88.94-4.61h0m8.86 2.13h0m8 1.42h0m8.33 1.06h0m8.33.89h0m8.15 0h0m8 .53h0m6.91-.18h0m5.67-.71h0m5.31-.71h0m5.5-.88h0m5.31-1.42h0m-11.69-4.07h0m-5.85 1.41h0m-9-5.84h0m6.37-.36h0m-10.45 6.56h0m7.09 0h0m-10.81-6.91h0m-5.31 6.2h0m-2.13-7.27h0m-7.44 5.32h0m-8.68-2.3h0m-49.79 18.6h0m30.71 5.2h0m9.33.29h0m8.51.53h0m8.15 0h0m8.68-.17h0m9.57-.36h0m9.38-.53h0m8.51-1.06h0m7.79-1.07h0m8.51-1.59h0m8.32-1.6h0m7.8-1.59h0m7.44-1.59h0m7.8-1.78h0m-68.33 18.9h0m11.34-1.06h0m9.92-1.42h0m-35.32 11.81h0m6.74-.23h0m22.32-2.48h0m5.85-.54h0m5.49-1.06h0m5.67-1.06h0m5.37-1.28h0m-6.67-6.62h0m9-1.59h0m8.86-1.77h0m8.5-2.48h0m6.91-2h0m7.21-2.42h0m6.85-2.6h0m18 .29h0m-5 3h0m-5.14 1.94h0m-5.13 2.31h0m-5.5 2h0m-5.31 1.77h0m-5.49 1.59h0m-5.32 1.6h0m-5.67 1.59h0m-5.31 1.24h0m-5.85 1.42h0m-56.63-47.36h0m-10.63 2.65h0m-11.52 2.66h0m-10.81 2.48h0m-12.22 2.13h0m-11 1.77h0m-10.09 1.24h0M3.65 139.7h0m37.09-.06h0m9-.71h0m55.39-15.35h0m-7.2.83h0m-34.79 3.24h0m7.09-.7h0M54.68 128h0m-8.33.35h0m-8.5.18h0m-8.68 0h0m-8.33.18h0m-8.33-.36h0m-8.68-.17h0m58.82-6.74h0m-8.5-.17h0m-8.51 0h0m-8.64-.53h0m-8.32-.53h0m-8.55-.21h0m-8.5-.71h0m-8.15-.89h0m67.32 2.84h0m151.89 17.3h0m-11-1.24h0m-10.81-1.77h0m-11.34-2.48h0m-10.1-2.84h0m-10.27-3.9h0m40.33-13.58h0m18.78-8.15h0m2.72-8.11h0M225.82 99h0m-5.31 2.31h0m-5.32 1.94h0m-5.31 2h0m-10.22-9.62h0m4.72 11.4h0m-5.49 1.41h0m-5.67 1.24h0m-5.31 1.77h0m-5.32 1.24h0m-5.67.89h0m-5.67 1.06h0m-5.31 1.07h0m-5.67 1.06h0m-5.49.71h0m-5.85.88h0m-5.31.71h0m-5.5.36h0m-5.84.71h0m-6.2.35h0m-7.8 0h0m-5.85-.35h0m-5.67-.36h0m-5.49-.71h0m-5.49-.35h0m-5.85-.89h0m-5.49-.88h0M79 116h0m-5.67-.89h0m-5.31-.7h0m-5.14-1.24h0M57 112.06h0m-5.84-1.59h0m2.3 4.78h0m-8.51-.88h0m-8.32-.71h0m-8.51-1.24h0M19.78 111h0m-8.33-1.59h0M3.12 108h0m33.13 1.59h0m-8.5-1.24h0m-8-1.77h0m-8.33-2.66h0m-8.12-2.49h0m20.73.71h0m-5-1.77h0m-5-2.13h0m-4.2-2.36h0M6 93.58h0m185.49 5.67h0m-8.86 3.9h0m-8.86 3h0m-10.27 3h0m-10.28 2.13h0m-43.76 3.18h0m10.45.36h0m10.81-.53h0m10.81-1.24h0m-43.21.95h0m-10.63-1.24h0m-9.39-1.59h0m2.6-8.17h0m-9.57-2.48h0m-2.6 8.48h0m-19.84-5.84h0m9.92 3h0M39.68 99.6h0M31 95.88h0m30.86 2h0M51 93.58h0m48.84 11.93h0m18.24-9.75h0m-29.39-1.59h0m-9.56-1.6h0m-9.22-3h0m20.91 15.23h0m17.36 1.2h0m17-11h0m6.56-.54h0m-15.6 11.7h0M138 93.82h0m18.24 7.61h0m7.45-2h0m6.73-1.94h0m6.73-2.13h0m6.85-2.43h0m-36 10.45h0m14.18-14.17h0m-6.38 1.42h0m-5.8 1.06h0m-6 1.24h0m-4.08 11.87h0m-7.44.71h0m-7.8.38h0m108.23-15.44h0m-5.67 0h0m-5.67-.18h0m-5.67-.35h0m-22.68-1.24h0m-5.49-.53h0m-6-.71h0m-5.5-.53h0m-5.67-.71h0m-5.31-.71h0m-5.49-1.06h0m-5.85-.89h0m-5.49-1.06h0m-5.32-1.07h0m-5.49-22.14h0m5.32-.71h0m5.67-.53h0m5.67-.89h0m5.66-.88h0m5.5-.71h0m5.67-1.07h0m5.67-1.24h0m5.49-1.06h0m5.31-1.24h0m5.32-1.24h0m27.28-8.15h0m5.14-2.3h0m5.14-2.3h0m5.31-2.49h0M158 49.82h0m11-1.77h0m-22.32 3.72h0M134.28 53h0m-11.16.53h0m57.23-8h0m9.74-2.84h0m9.21-2.83h0m8.86-3.37h0M35.07 40.43h0m-8.15-3.37h0m-7.5-3.66h0m14.71-1.77h0m7.26 4.25h0m8 2.84h0m8 2.83h0m8.5 1.6h0M74 44.56h0m8.33 1.07h0m8.68.88h0m9 .71h0m8.51.18h0m7.79-.36h0m8.15-.17h0M133 45.8h0m27.63-6.2h0m6.91-2.3h0m6.73-2.3h0M45.64 26.49h0m7.62 3.9h0m7.62 2.66h0m8 2h0m9.57 1.77h0m9 .88h0m9.75.54h0m10.27-.54h0m9.22-1.06h0m9-1.24h0m7.44-1.24h0m6.91-1.24h0m6.38-1.42h0m-81.64-7.31h0m-7.09-2h0m15.24 3.9h0m17.89-6.2h0m-7.44-1.6h0M74.88 16h0m23.56 5.31h0m7.26.89h0m7.44.53h0M85.51 7.89h0m5.31 2.66h0m4.78 1.77h0m5.14 2.48h0m5.49 2.13h0m5.5 1.77h0m5.27 1.77h0m5.32 1.59h0m5.68 1.42h0m5.32 1.24h0M139 26h0m5.31.89h0m5.5 1.06h0m5.67.89h0m5.66.35h0m5.67.53h0m5.5.71h0m5.49.35h0m5.67.54h0m5.84.17h0m5.67.18h0m5.5-.18h0m5.66.18h0m6 0h0m6.2-.35h0m6 0h0m6.38-.71h0m6.38 0h0M102.69 29h0m7.09 0h0m6.91-.35h0m6.73-.71h0M163 23.42h0m-11.11-1.89h0M98 3.64h0m31.19-.3h0m6.61 2.6h0m7.09 2.84h0m6.37 1.89h0m6.85 1.89h0m82 7.55h0m-6.61-.23h0m-7.56.23h0m-7.56 0h0m-7.56-.47h0m-7.82-.23h0m-7.8-.71h0m-9-1.18h0m26.69 10.15h0m-7.8-.35h0m-9-.53h0m-19.77-2.19h0M106.53 7.36h0m8.5 3.78h0m9 3.07h0m8.8 2.83h0m9.39 2.6h0m42.69 6.44h0M218 27.67h0m6.74-.17h0m6.55-.54h0m6.56-.53h0m-57.82-17h0m-8.68-2h0M163.2 4.6h0m-8.33-3.54h0m33.49 9.92h0m8 1.06h0m8.33.71h0m.17-8.75h0m-8.69-2h0m42.05 5.38h0m0 6.42h0m-8.22.1h0m-7.79-.18h0m-9.21-.35h0M18.6 164.62h0m-15.06-1.77h0m7.44.89h0M39.68 174h0m8.86-.35h0m23.74 5h0m-8.51 1.06h0m-7.79.71h0m-8.86 1.06h0m-10.28.71h0m-11 .36h0m-11.34.35h0m-10.43 9.89h0m-1.95 10.63h0m10.63-.53h0m10.45-.71h0m11.52-1.06h0m9.56-1.24h0m9.22-1.24h0m9.39-1.42h0m8.32-1.42h0m8.15-1.59h0m8-1.42h0m8-1.95h0m7.79-1.77h0m7.09-1.77h0m6-1.59h0m5.85-1.78h0m-110.58 8.51h0m8.5-.53h0m8.68-.54h0m9-.53h0m8.68-1.06h0m9.57-.89h0m31.53-4.6h0m6.2-1.07h0m6.56-1.06h0m-96 1.06h0m3.36-9.56h0m167.3 25.86h0M162.51 197h0m-11.34-3.3h0m36 7.73h0m12.05 1.07h0m10.8.7h0m10.81.36h0m12 0h0m-64.31-15.95h0m11.16 1.78h0m30.82 2.83h0m8.69.53h0m8.85 0h0m8.51 0h0M190 180h0m14.18 1.06h0m14.52 1.42h0m14.89.7h0m3.16-10.18h0m-.89-11.52h0m-24.33-91.29h0m-9.53-.88h0m-10.27-1.42h0m-9.75-1.59h0m-11.16-2.13h0M158 61.33h0m76.19 19.49h0m-11.52-.35h0m-12.22-.71h0m-12.41-1.24h0m-14.35-2h0M145.09 69h0m-12.58-3.72h0M238.28 45h0m-9.39-1.6h0m-10.45 8h0m-8.33-1.4h0m16.3 2.83h0m8.68.89h0m2.66 8.86h0m-7.8-.89h0m-7.61-.69h0m-8.15-.89h0M206.75 59h0m-16.84-3h0m8.86 1.77h0M56.33 5.54h0m6.2-3.9h0m11-.35h0m-4.44 2.83h0m11.34-.35h0m3-2.84h0M68 238.85h0m-8.85 0h0m-13.47.36h0m5.85-3.37h0M39 1.45h0M38.79 8h0m6.73-3h0M53 1.63h0m-7.3 237.58h0m5.85-3.37h0" style="stroke-miterlimit:11.34;stroke-linecap:round;stroke-width:1.98px;stroke:#d9b776;fill:none"/><path class="c" d="M27.07 16.19A116.84 116.84 0 0 0 43 11.59m53.77 17.89a116.16 116.16 0 0 1-16.49-1.83m31.83 68.8a92.7 92.7 0 0 1-14.71-.71m51.56 82a66.29 66.29 0 0 1-12.4 1.24m-18.46 28.69a92.08 92.08 0 0 1-14.62-1.77m9.13 33.72c-4.36-.11-8 .28-11.84-.55m103.63-91.21a93.21 93.21 0 0 1-14.4-3.05M88.54 160.49A91.67 91.67 0 0 1 74 158.1m-54.19 51.2c-4.34.47-8.49 1.21-12.41.89m195.2-18.59a52.26 52.26 0 0 1-11-.76m33.48-19.13a91.85 91.85 0 0 1-12.58-1.6m-13.11 51a115.86 115.86 0 0 1-15.47 5.38m-113.62-4.9a124.48 124.48 0 0 1-16.12-5.49M170 208.77c-4.25-.35-8-.89-11.87-1.59m32.07-83.63a116.08 116.08 0 0 1-15.77-5.17M60.23 83.75a119 119 0 0 1-16.15 3.81M30.2 139.48a117 117 0 0 1-16.6.16m78.54-15.44a117.67 117.67 0 0 1-16.47 2.1m-43.2 48.1a116.84 116.84 0 0 1-16.6-.27m29.27-64.93a117 117 0 0 1-15.77-5.2m148.16-87.4a117.48 117.48 0 0 1-16.35-2.84M155 41.17a118.22 118.22 0 0 1-16.25 3.42m91.83-37.38a117.75 117.75 0 0 1-16.5-1.77m0 38.11a117.79 117.79 0 0 1-15.91 4.72M172.8 75.19a116.12 116.12 0 0 1-16.25-3.37m77.19 46.25a119.05 119.05 0 0 1-16.25-3.37m20.15-42.34c-5.06-.18-11.44-.53-18.17-1.42m-6.92 18.75a103.61 103.61 0 0 1-15.4-.5M58.41 47.84A116.94 116.94 0 0 1 42.53 43m59.23 28.06a118.83 118.83 0 0 1-15.68 5.43m57.49 50.2a117.57 117.57 0 0 1-16.08 4.1M167.31 154a116.93 116.93 0 0 1-16.47 2m-70.51 29.67a117.3 117.3 0 0 1-16.48 2"/></pattern><clipPath id="a"><path class="a" d="M3001.47 1536H1.47V0h3000z"/></clipPath><clipPath id="d"><path class="a" d="M22.78 364.93h1920v1920h-1920z"/></clipPath><symbol id="f" viewBox="0 0 3002 1536"><g style="clip-path:url(#a)"><path class="g" d="M3001.47 514v1022H1.47V454.88C39 469.56 96.4 486 164.29 479.41c50.83-4.92 69.55-35.3 136.94-40.94 37-3.11 42.32 3.34 85.6-1.9C449 429 453 413.94 486.84 418c44.75 5.41 48.1 33.05 98.69 40.79 13.42 2.06 18.93 3.45 77.8-6.91 41.19-7.25 84.54-10.58 126.7-16.11 103.28-13.5 112.97-13.9 122.75-14.06 21.51-.35 46.24.45 83.43-2.35 32.1-2.42 43.72-3.67 43.72-3.67 22.29-2.4 28.07-3.85 42-3.87 17.61 0 18.43 2.6 36.81 2.79 10.49.11 22.42-.39 51.34-4 29.22-3.65 47.79-6.89 47.79-6.89 76.16-13.27 114.23-19.91 154.32-21.19 33.57-1.07 61.35 1.42 110 5.8 42.25 3.8 60.62 7.33 94.27 5.27 24.46-1.5 47.15-5.36 64.11-8.24 36.13-6.14 54.19-9.22 62.78-12 6.28-2 13.86-4.88 24.73-4.91 3.59 0 9.86.28 28.54 5.13 14.19 3.69 17.54 5.33 24.22 7.06 17.18 4.45 31.27 2.95 49.85 3 9.49 0 28.64 2.09 66.92 6.26 53.18 5.79 59.45 7.68 114.34 14 38.52 4.41 69 7.32 76.37 8 56.35 5.35 55.87 4 84.87 7.54 42.05 5.09 79.31 12.28 92.15 14.77 29.49 5.74 37.52 8.32 59.41 10.65 19.66 2.09 36.09 3.85 57.45 3.44 8.54-.16 13.37-.58 21.92.17 13.07 1.14 24.28 4.35 35.21 6 10.15 1.51 16.7 1.12 22.24 1.2 37.61.58 78.54 24.15 132 29.48 25.24 2.52 16.24-2.71 80.83-2.82 44.87-.07 64.19 2.43 76.1 4.38 26.62 4.37 36.92 9.37 61.15 15.74 3.27.86 7.13 1.85 11.75 2.91 28.6 6.57 75.31 10.41 91.7 11.56"/><path d="M821.11 1536c-45.23-26.19-61-48.81-66.7-65.18-2-5.9-7-23-20.12-27.53-8.91-3.07-14.26 2.19-20.34-1.39-10.5-6.18-9.28-30.55-4-47.32 10-31.92 38.67-48.86 40.23-49.76 18.71-10.72 34.39-10.12 36-19.06 1.51-8.37-15.31-14.43-13.76-25.41.57-4.08 3.54-8.35 6.35-9.53 17.88-7.5 50.4 101 137.65 148.23 51.57 27.91 106.37 25.78 106.94 23.3.51-2.23-42.31-6.5-91.06-31.77-83-43-137.46-123.2-121.76-151.41 3.69-6.63 9.32-7 14.82-18 11-21.86-2.39-37.17 7.21-47.36 10.62-11.27 34.86-.91 39.38-10.87 2.62-5.78-4.27-12-1.06-15.89 4.31-5.21 17.9 4.5 27.53-2.11 5.13-3.53 3.29-7.69 8.47-10.59 7.92-4.44 15.22 3.58 23.29 0 4.79-2.12 3.6-6.28 10.59-16.94 4.22-6.44 8.59-13.09 11.65-13.77 18.76-4.13 77.9 197 80.47 196.24 1.07-.31-2.49-37.38-20.65-81.62-7.3-17.79-15.62-33.47-11.26-37 3.62-2.91 11.31 6.23 30.85 14.5 10.39 4.4 35.73 15.13 61.14 7.48 10.64-3.21 11-6.54 15.36-5.36 9.86 2.66 13.25 21.07 25.68 100.85 1 6.62 2.4 15.42 3.17 15.35 1.34-.12 1.68-26.68-1.32-55.58-3.91-37.58-10.4-49.68-2.37-59 7.24-8.43 19.27-6.48 38.1-6.88 50.28-1.06 87.08-17.55 86.83-19.06-.63-3.74-239.5 41.62-262.47-12.51-4-9.43-15.71-55.45-23.41-66.9a71.79 71.79 0 0 1-8.37-16.23 36.29 36.29 0 0 1-1.74-5.43c-1.45-7.56 1.91-13.35 10.25-29.94 2.91-5.77 1.77-3.62 5.79-11.65 10.5-21 12.37-23.89 15.9-27.17 1.35-1.25 4.54-3.7 10.92-8.61 2.08-1.59 2.81-2.13 9.25-7 11.65-8.77 7.85-5.94 13.41-10.11 7.21-5.42 9.11-6.79 12.44-9.66 4-3.46 3.95-3.77 4.49-3.86 11.8-2.08 46.89 148.45 50.83 147.63 1-.2.31-9.75-2.82-28.23-12.34-72.79-35.8-124.42-25.43-130.38.86-.5 3.61-.25 9.09.25a98.07 98.07 0 0 1 20 4.08c18.33 5.47 21.59 8.63 23.19 7.11 5.54-5.26-30.16-45.58-24.35-51.89 4.73-5.13 37.27 16.11 45.22 21.3 80.39 52.49-3.86-.83 43.14 26.4 8.31 4.82 11.24 6.35 12.23 10 3.75 14-29 28.12-25.41 45.53.75 3.69 3.17 7.76 5.82 7.94 4.63.31 6.64-11.5 16.41-26.47 6-9.25 13.31-20.38 24.35-22.24 10.1-1.69 18.59 5.23 19.06 4.24.68-1.41-5.12-6.08-29.43-20.8-53-32.06-64.2-33.34-78.21-50.85-2.85-3.55-24.26-30.28-15.18-45.88 7.71-13.26 33.67-11.89 40.23-11.65a68.88 68.88 0 0 1 28.59 7.42c12.23 6.38 12.34 12.32 32.83 27.52 7.28 5.41 8.57 5.66 10.06 8.48 6.66 12.62-9.5 25.9-4.24 37.58s28.65 13.47 30.18 10.06c1.6-3.57-20.78-12.75-18.91-22.11 1-5.17 9.11-8.55 15.63-8.94 15.07-.91 26.18 13.95 27.1 13 2.51-2.45-56.65-67.76-56.65-67.76-32.27-35.74-41.35-44.58-38-51.83 4.48-9.58 38.8-12.89 68.68-2.17s47 32.33 57.53 45.53c16.27 20.41 24.4 30.62 24.3 44.88-.26 34.17-46.35 56.86-38.35 73 1.67 3.36 6.41 7.92 8.4 7 1.69-.76.71-5.16.71-9.18 0-15.64 14.69-27.72 20.47-32.47 6.48-5.32 15.55-12.77 21.6-9.9s5.58 14.16 5.93 24c1.43 40.59 16.1 69 15.53 69.18s-14.13-29.61-15.53-69.18c-1.2-33.64 7.62-39.47 0-59.3-7-18.3-22.61-34.28-34.2-46.18-5.21-5.34-9.8-9.5-19.62-19.91-20.55-21.8-22-26.38-22.42-29.2-2-14.64 8.18-31.34 21.18-38.12 20.89-10.89 47 9.5 58.23 18 12.2 9.23 36.62 31.23 55.19 90.59 19.79 63.25 15.27 112.4 17.17 112.35s17.52-53.86-4.8-107.35c-15.15-36.29-31.8-76.19-45.32-96.65-1.31-2-5.68-8.44-5.22-16.79.52-9.47 7.24-21.2 13.09-21.56 22.83-1.38 75 167.89 88.83 240.24 1.57 8.22 5.48 30.1 18.36 33.88s31.14-11.93 29.64-15.53c-1-2.41-10.08 2.37-18.35.71-25.12-5.07-20.82-65.32-43.78-137.42-21.39-67.19-52.5-100.84-36-122.35 4.75-6.19 13-8.8 29.48-14 28.37-9 39.5-2.53 74.26-11.55a207.1 207.1 0 0 0 26.34-8.89c59.38-24.18 44.59-42.19 105.76-59.29 34.44-9.63 52-7.53 103.72-23.3 18.37-5.6 18.61-7.94 21.41-7 3.45 1.15 46.34 108.32 11.07 194.49-48.29 118-222 145-220.28 149.11 1.41 3.37 118.48-10.69 184.7-84.29 9.27-10.3 30.75-36.46 44.36-31.15 9.09 3.54 9.61 19.16 11.76 32.66 7.57 47.47 33 49.35 86.53 143.49 18.91 33.25 33.52 63.26 36.53 61.94 2-.88-2.37-15-4.16-20.72-9.3-30-22.86-50.52-23.37-51.28-45.29-68.52-70.46-91.68-86.32-131.3-15-37.56-13.77-70.84-11.58-127.88 1.14-29.69 6.91-106.62-8.3-129.36-1-1.46-5.59-8-3.31-12.48 2.4-4.68 10.61-3.57 24-11.6l1.33-.81c19.89-12.35 19.54-18.5 29.07-26.88 4.47-3.92 7.54-5.32 10.23-7.28 16.89-12.32-3.75-25.07 4.83-48.18 4.37-11.78 11.24-12.54 11.18-22.23-.06-10.65-8.43-19.26-17.28-26.47-36.21-29.51-73.89-30.07-109.83-58.77-8.4-6.71-25.75-20.91-18.81-32.29 1.33-2.18 4.35-5.57 4.93-10.91.93-8.4-5-13.73-2.39-14.5 2.87-.84 9.17 5.57 25.42 11.38 8.83 3.15 9.39 2.13 26.44 6.88 18.34 5.11 29.16 9.49 31.53 8.21 1.16-.63-2.52-2.5-1-4 1.8-1.78 9.35-1.42 11.19-1.33 16.14.78 28.19 7 45.76 12.71 17.89 5.83 17.38 3.31 29.16 7.77 25.14 9.52 30.23 22 35.92 21.08 4-.68 4.89-7.49.51-12.7-2-2.39-4.88-4.15-10.77-6.83-5.6-2.56-30.82-14.05-51.77-15.67a81.73 81.73 0 0 1-13.22-2.39c-1.36-.36-8.09-2.18-7.63-3.44.69-1.87 17.11-1.7 20.83-1.66 47.31.49 81.44.76 104.38 11 33.61 15 17.21 39.64 54.27 80.14 4.33 4.73 10.75 11.17 24.08 14.84 19.76 5.46 34.59-.71 62.36.52 6.91.3 14.68 1.65 30.23 4.13 16.58 2.66 30.59 5.54 38.36 7.15 6.76 1.4 12.61 2.68 16 3.43 4.37 1 12.64 2.81 23.09 5.28 6.58 1.55 17.47 4.14 31.75 7.86 30.36 7.91 31.73 7.34 32.82 9 6.52 9.88-21.68 56.91-71.27 79.85-71.33 33-150.14-.87-157.69 20.22-1.79 5 1.72 9.5 5.93 17.19 14.8 27.09 14.05 49.37 16.23 99.53 5.58 127.85 16.78 127 6.35 160.24-17 54.14-55 82.72-51.88 85.41s43.93-24.41 60.71-69.88c8.55-23.19 5.05-51.11-2.31-106-7.62-56.9-5-115.29-17.25-171.37-.56-2.55-1.63-7.17.85-10.62 8.27-11.5 40.15 12 82.6 2.64 14.85-3.29 17.08-7.53 23.06-5.28 29.19 11 4.11 122.64 10.72 123.78s12.39-112.71 5.11-120.9l-5.58-6.25s21.42-9 43.62-20.82a199.11 199.11 0 0 0 18.41-10.48c9.49-6.28 15.81-10.47 21.89-17.65 3.48-4.12 7.26-11.22 14.82-25.41 7.44-14 8.67-17.37 12.85-19.08 7.27-3 14.49 4.35 23.15 7.08 30.88 9.74 67.46 25.38 77.93 29.91 11.41 4.94 19.69 8.75 27.92 12.54 41.28 19 71.12 34.9 80.55 40 31.93 17.12 48.26 25.07 49.13 27.62 11.15 32.62-84.43 69.71-168.3 179.55-37.62 49.28-58.57 94.45-58 94.77s23.21-30.87 62.82-87.35c20.78-29.64 24.66-35.53 30.94-35.27 33.34 1.39 47.63 172.88 51.12 172.38 2.86-.4-1.32-116.25-36.16-173.54a28.65 28.65 0 0 1-4.3-10.25c-5.34-28.35 39.86-42.67 114-106.36 8.59-7.39 21.12-18.49 36.32-16.85 8.81.95 10.79 6.38 35.91 22.55 7.65 4.93 19.62 12.73 34.18 22.59 8.73 5.92 20.4 13.83 35.47 24.65 26.48 19 39.85 28.33 40.46 30.15 10.74 32.48-117 66.16-157.64 168.91-22.7 57.32-8 110-6.35 110.11 2.06.11-7.92-84.32 41.38-149.86a184.19 184.19 0 0 1 51.8-46.37c6.19-9 20.87-28.85 29.81-25.68 6.93 2.45 7.33 17.64 7.6 27.09 3 107.49 6.21 118.89 11.47 127.83 21 35.67 78.9 39.32 81 34.52s-57.07-14.22-74.87-58.72c-16.19-40.48 8.41-93.86-7-122.69-1.37-2.56-6.54-11.42-3.13-18.32 2.6-5.26 9-6.87 15.13-8.5 40.11-10.61 37.79-13.05 44.29-11.94 6.75 1.15 5.64 3.83 38.35 31.69 10.26 8.74 20.95 18 33.7 29.49 14.1 12.66 24.73 22.46 32.3 29.48 12.27 11.38 21.56 20.19 28.33 26.63 13.73 13 20.58 19.56 26.32 25.24 30 29.67 45.56 51.59 46.59 50.82 1.18-.89-17.3-31.08-43.41-63.53-17.15-21.31-44.06-49.08-117.2-111.73a1532.016 1532.016 0 0 0-113.63-88.39 1555.3 1555.3 0 0 0-184.33-111.35c-43.31-22.27-116.66-60-188.37-80.29-5.69-1.62-27.8-7.55-72-19.42-36.63-9.83-51.5-13.75-72.71-18.35-37.61-8.15-56.42-12.22-64.86-10.65-7.6 1.43-33.73 7.17-56.94 2.12-4.47-1-17.56-4.39-34.43-31.3-14.21-22.67-28.23-45-11.74-51.37 3.27-1.25 16.17-5.11 54.3 7 127.41 9.18 172.94 12.08 177.41 12 4.64-.07 8.53-.22 15.38-.19 65.73.29 130.23 12.09 130.23 12.09 21.49 3.35 55.48 8.94 97.22 17.1 63.51 12.42 78.83 17.88 113.28 22 61 7.27 60.21-4.19 124.18 0 74.34 4.91 90.31 21.37 168.24 27a604.3 604.3 0 0 0 94.44-.53V1536z" style="opacity:.5;fill:url(#b)"/><path d="M973 419.17c6.8 0 17.91-.2 31.51-1.06 36.25-2.29 49.48-6.92 77.43-6.29 16.49.37 15 2.05 32.37 2.89 28.62 1.38 50.5-2.31 77.12-7 82.9-14.46 83.14-15.6 104.92-18.49a731.52 731.52 0 0 1 90.51-6.09c74.84-.85 134 7.21 143.5 8.65 2.73.42 8.55 1.38 17 2.19 19.9 1.91 26.38.3 28.37 1.87 4 3.2-14.44 18.75-80.92 46.91-101.41 42.95-136.07 39.71-185.17 71-41.25 26.26-62.66 57.76-56.27 60l.21.06c7.17 1.73 21.49-6.78 26.23-9.59 7-4.14 16.92-11.21 24.41-22.23 11.68-7.42 25.31-16 40.67-25.42 20.53-12.61 27.41-16.54 39.32-19.76 18-4.86 36.11-5.1 48.14-4.59 34.65-17.48 52-26.23 66.54-33.83 35.68-18.64 65.11-34.84 87-47.17 24.55-14.71 48.57-23.62 65.34-29.12 11.57-3.79 43.16-13.27 52.13-8.78 4.66 2.34 1.61 7.66-2.06 13.81-7 11.74-17.68 19.09-21.86 22.5-25.38 20.72 15 38.14-6.44 65.3-12 15.19-28.1 14.07-35.25 29.64s5.9 22.65 4.06 35.3c-1.47 10.13-12.51 24-81.35 48-97.25 33.91-190.29 46.38-189.14 48.35.51.87 19.23-.48 50.85-5.29 75.94-11.57 198.13-30.18 227.78-75.53a26.14 26.14 0 0 0 3.62-7.58 34 34 0 0 0 .77-14.55c-1-5.89-1.77-14.59-1.34-28.08 37.89-32.5 40.45-50.29 35.08-60.62-1.17-2.25-6.27-11-3-22 2.57-8.74 10.1-17.81 14.75-17.47s2.09 9.42 7.38 21.07c2.87 6.32 8.5 14.43 43.64 38.77 33 22.85 34.74 20.08 45.17 29.57 12.89 11.72 33.75 30.7 25 49.56-9.41 20.21-51.73 32.73-136.36 57.76-39.4 11.65-53.42 13.82-73.12 24.83-27.76 15.51-24 24.7-48.81 44.47-29.91 23.89-68.14 36.71-94.46 45.53a351.4 351.4 0 0 1-34.23 9.75c-41.21 9.36-69.53 14-86.89 16.72-43.73 6.91-84.11 22.33-164.88 53.18-33.93 13-51.22 19.61-67.06 28.23-38.43 20.92-45.06 35.45-70.07 56.88-4.89 4.2-12.15 9.47-26.63 20.06-46 33.66-55.36 36.34-64.24 34.59-6-1.19-12.08-4.48-15.53-1.41-4.06 3.62 1.44 10.77-1.41 18.35-3.66 9.76-16.82 8.79-38.12 18.36-16.34 7.34-13.18 10-31.76 19.06-18.73 9.15-20.87 6-40.24 14.82-22 10-20.06 14.54-39.53 21.88-15.61 5.89-18.66 3.69-33.17 10.59-15.09 7.18-15.85 11.49-26.12 14.12-14.68 3.75-18.18-3.79-35.68-3.63-11.45.11-25.13 6.43-52 19a818.03 818.03 0 0 0-30.17 14.93 297.63 297.63 0 0 0-61.54 36.62c-21.14 16.41-28.31 26.8-48 34.06-22.81 8.4-29.61.49-51.89 4.94-28.76 5.74-49.19 27.46-90.06 70.89-32.76 34.82-34.85 44.22-54.29 51.93-24.06 9.54-31.57-.61-60.17 9.57-25.16 8.95-26.12 19.22-59.48 37-29.87 15.94-30.79 8.61-52.58 21.18-37.94 21.88-38 45.73-73.42 67.76-11.72 7.29-30.28 16.22-57.64 19.77v-981c29.5 8.15 51.61 9.81 66.82 9.7 6.24 0 14.6-.4 21.54 5 12.43 9.7 10.91 30.62 10.51 38-2.52 46.07 14.43 2.73 11.63 134.86-2.84 133.45-6 200.12-31.89 278.24-25.27 76.17-58.63 126-55.55 127.64 2.92 1.57 40.91-39.23 57.87-99.54 13.52-48.08 18.88-127.08 32.71-146.41a31.39 31.39 0 0 0 3.21-34c-7.25-16.26 1.22-26.63 3-58.93.68-12.79-.5-11.7-1-36-.81-39.86 2.38-42.44 1.67-68.43-.81-29.49-5.42-60.28-9.88-84.7-3.32-18.15-8.39-41.48.9-47.16 3-1.83 6.18-1 14 .49 12.36 2.39 25.07 2.88 37.33 5.73 23.65 5.5 54.44-7.82 72-19.15 2.52-1.63 6.94-4.66 13-4.61 12.58.1 21.85 13.45 25.09 18.11 30.2 43.49-1.52 188.58 53.65 232.24 16.16 12.79 34.74 12.88 40.23 30.35 7.9 25.1-21.4 53.73-20.47 54.35s32.14-27.49 26.12-54.35c-4-17.75-20.88-20.14-37.54-35.16C276.48 647.16 323 523 281.66 469.65c-2.45-3.16-11.47-14.16-8-21.31 2.26-4.6 8.74-5.66 37.38-7.27 19-1.06 29.07-1.48 43.71-2.16 8-.37 17.95-1 32-2.34 68.6-6.45 74.29-13.71 104.46-12.4 57.26 2.5 55.27 29.48 112.72 37.06a134 134 0 0 0 28.27 1.16c14.81-1.14 19-4.58 20.18-3.33 3.17 3.33-9.48 35-37.16 52.57-16.49 10.47-25.56 7.81-32.95 19.48-6.5 10.28-3.1 18.08-11.35 30.83a55 55 0 0 1-17.77 16.82c-12.9 8.34-32.94 29.07-118.59 123.35C382 760.08 324 824.45 279 869.76c-49.29 49.65-37 30.12-52.72 48.77-13 15.42-27.42 35.86-41.87 33.11-7.37-1.4-12.66-8.43-17.65-6-4.84 2.36-4.78 11.42-4.91 13.5C160 986.91 57.53 1055.54 57 1054.7c-.18-.28 10.67-8.31 23.73-14.24a110.18 110.18 0 0 1 25.33-8c43.51-8.92 157.31-138.27 189.88-173 21.55-22.94 25.95-24 39.87-42.09 6.74-8.73 8.2-11.7 11-11.47 13.66 1.22 33.19 78.1 24.05 147.81-1.16 8.87-2.94 18.77 2.06 29.38 14.64 31 70.38 32.25 78.66 32.43 9.14.2 12.61-.7 12.71-1.58.45-4.07-70.43-3-85.37-36-3.13-6.9-1.59-10.4-.57-28.07 1.72-30.06 2.38-108.72-15.07-140.51-1.36-2.48-5.37-9.3-3.59-16.82s7.88-10.5 16-16.45c4.8-3.54 28.78-21.2 43.83-44.7 3-4.74 5.49-9.38 10.55-10.58 8.42-2 17.22 7.21 21.91 12 38.48 39.26 51.31 36.22 51.53 48 .54 29.67-80.82 53.39-93.53 93.18-.65 2-3 9.44-1.06 10.58 2.83 1.66 12.06-11.9 28.94-30.35 21.72-23.74 36.38-34 46.94-40.23 12.55-7.36 18.83-11 23.3-9.18 21.86 9.11-2.94 110.76 1.05 111.53 1.83.35 9.24-20.58 12.36-45.88 3-24.28 7.26-60.75-10.24-93.18-23.39-43.37-71.42-54.59-66.41-71.37.6-2 1.59-1.57 7.88-8a145.08 145.08 0 0 0 18.65-23.71c6.54-9.76 17.54-21.1 39.53-43.76 60.36-62.22 69.47-57.34 85.41-85.42 1.92-3.37 4-7.28 6.33-7 15 1.53 11.67 168.34 14.14 168.34.68 0-1.26-12.75 4.11-15.45 10.65-5.35 48.84 29.54 49.36 65.74.16 11-3.18 20.37-2.12 20.65 1.5.38 12.28-16.88 10.06-35.47-2.73-23-24.63-42.17-36.37-52.45-7.57-6.63-14.91-11.69-18.53-22.22-3.43-10-1.42-18.85-.69-22.74 8-42.1-18.38-107.89-8.11-119.28l5.56-6.06s4.08-4.44 7.79-8.45c6.28-6.79 18-19.18 22.12-23.45 20.85-21.61 31-32.94 40.78-37.29 17.25-7.7 21.58-2 63.59-9.8 23.65-4.41 31-7.85 36.49-3.19 11.16 9.44-2.35 46.1-4.84 52.75 0 0-1.45 3.85-95.11 264.35-6.38 17.72-18.39 52.21-43.77 92.47-9.6 15.23-11.41 15.9-24.25 35.07-31.14 46.51-57.59 98-54.8 99.75 3.4 2.12 57-66.14 100.23-151.06 36.42-71.59 54.21-133 65.62-173 0 0 62.73-220.45 85.52-222.81.45-.05 6.71-.61 15.7-1.58 2-.22 7-.77 13.57-1.57 3-.36 13.91-1.7 28.66-3.86 2.54-.37 7.68-1.13 14.24-2.17 8.27-1.3 15.43-2.5 21.18-3.5" style="opacity:.7;fill:url(#c)"/><path class="e" d="M1.47 454.88S152.11 481 164.29 479.41s110.12-31.77 110.12-31.77l65.46-11.72a167.5 167.5 0 0 1 47 .65 66.6 66.6 0 0 0 28-1.48L469.39 420a56.36 56.36 0 0 1 33.94 1.26 194.68 194.68 0 0 1 40.13 19.92C559.2 451.36 579.37 460 604 461.23c22.54 1.14 35.65-6.26 72.39-11.53 31-4.46 72.83-9.83 113.63-13.9 64.15-6.11 115.28-18.36 206.18-16.44 28.94.61 56.72-7.56 85.69-7.54 10.95 0 21.43 3.06 32.37 2.89 58-.95 113-13.88 169.55-20.87 31-3.83 61.15-10.25 92.89-11.55 29.13-1.18 58.34 2 87.41 3.57 37.56 2.05 74.61 8.8 112.33 7.73 15.53-.44 30.27-3.75 45.33-5.79 23.86-3.22 48.08-5.89 71.33-10.15 14.84-2.72 29.66-10.44 43.29-9.78 14.35.69 29 11.75 43.23 12.83s36.83 1.65 51 2.87q51.54 4.41 102.65 10.11c26.37 3 52.17 7.3 78.61 10.11 35.7 3.81 72.17 5.42 107.89 9.15 24.24 2.53 48.27 5.63 72.13 9 47.11 6.63 92.36 16.88 140.13 22.06 23.67 2.56 48.33 1.9 72 4.39 20.18 2.12 35.43 5 45 6.79 80.61 14.67 103.64 23.93 144.44 29.88 57.25 8.36 50.44-4.25 123.94 1.7 65 5.27 79.56 15.88 143.95 23.72a744 744 0 0 0 140 3.53M1728.07 368.42c.32-.34-25.31 17.52-23.19 25.34 3.12 11.49-3.39 24 3.7 35.15 9.19 14.43 48.4 38 48.4 38 12.69 6.62 31.55 18.08 45.63 34.82 12.14 14.42 24.31 28 18.31 42.35-6.88 16.39-37.9 26.68-99.66 46.59-72.63 23.42-85.66 20.53-109.82 36-20.3 13-16.38 18.41-48.81 44.47-13.54 10.88-29.64 23.81-48.81 33.88-49.71 26.11-93.89 19.23-166.77 38.12-17.43 4.52-52.22 20.92-122 52.94-53.51 24.55-81.32 39.1-100.13 49.32-21.2 11.53-43.78 20-68.36 39.86-8 6.46-18 15.43-26.83 23.29-28.73 25.68-30.73 29.8-43.79 38.15-15.05 9.63-17.16 7.21-36.71 19.06-16.31 9.89-20.5 15-33.17 24-23.78 16.88-45.52 24.8-76.24 36-23.18 8.45-29.44 8.78-51.53 18.35-21.1 9.15-20 10.83-34.59 16.94-29.64 12.39-43.38 9.27-85.06 19-17.93 4.16-30.36 8.29-48 14-39.9 12.92-59.85 19.38-74.48 29.17-22.82 15.28-26.26 26.55-45.17 29.65-17.05 2.79-19.94-5.44-36.71-2.82-15.39 2.4-21.82 10.7-52.23 35.29-25.74 20.81-22.52 16-36.71 28.23-44.61 38.54-43 57.39-70.59 67.06-21.76 7.63-25.55-3.12-50.82 5.65-27 9.36-25.22 22.5-55.06 38.12-33.17 17.36-44.24 5.78-66.35 24-15.76 13-14.3 22.28-33.89 40.94-15.14 14.43-30 21.87-39.53 26.82a207.68 207.68 0 0 1-57.64 19.77"/></g></symbol><symbol id="g" viewBox="0 0 2189.74 2284.93"><g style="clip-path:url(#d)"><path class="g" d="M22.78 364.93h1920v1920h-1920z"/><path style="opacity:.4;fill:url(#e)" d="M22.78 364.93h1920v1920h-1920z"/><path style="stroke-width:2.07px;fill:#d9b776;stroke:#161515;stroke-miterlimit:13.97" d="m1.62 810.83 1.69-4.69-1.1-4.87 4.7 1.69 4.87-1.1-1.7 4.69 1.1 4.87-4.69-1.69-4.87 1.1z"/><path style="stroke-width:2.16px;fill:#d9b776;stroke:#161515;stroke-miterlimit:13.97" d="m63.19 630.11-3.03 4.25-.26 5.2-4.25-3.03-5.2-.26 3.03-4.24.26-5.21 4.24 3.03 5.21.26z"/><path style="stroke-width:2.28px;fill:#d9b776;stroke:#161515;stroke-miterlimit:13.97" d="m182.17 122.78-.31 5.48 2.7 4.78-5.48-.31-4.79 2.7.31-5.48-2.69-4.78 5.48.3 4.78-2.69z"/><path style="stroke-width:2.3px;fill:#d9b776;stroke:#161515;stroke-miterlimit:13.97" d="m188.6 108.11 5.12 2.16 5.48-.95-2.16 5.12.95 5.48-5.12-2.16-5.47.95 2.15-5.12-.95-5.48z"/><path style="stroke-width:2.03px;fill:#d9b776;stroke:#161515;stroke-miterlimit:13.97" d="m97.66 623.88.85 4.83 3.32 3.61-4.83.84-3.61 3.32-.85-4.83-3.32-3.61 4.83-.84 3.61-3.32z"/><path style="stroke-width:2.23px;fill:#d9b776;stroke:#161515;stroke-miterlimit:13.97" d="m75.25 778.92-1.07-5.26-3.75-3.84 5.26-1.08 3.85-3.74 1.08 5.26 3.74 3.84-5.26 1.08-3.85 3.74z"/><path style="stroke-width:2.19px;fill:#d9b776;stroke:#161515;stroke-miterlimit:13.97" d="m237.64 107.94-2.16 4.82.79 5.22-4.82-2.15-5.23.78 2.16-4.82-.78-5.22 4.82 2.16 5.22-.79z"/><path style="stroke-width:1.95px;fill:#d9b776;stroke:#161515;stroke-miterlimit:13.97" d="m80.61 848.04 3.31-3.35.97-4.6 3.35 3.3 4.6.97-3.3 3.35-.97 4.61-3.35-3.31-4.61-.97z"/><path style="stroke-width:2.06px;fill:#d9b776;stroke:#161515;stroke-miterlimit:13.97" d="m153.97 566.68 4.09 2.83 4.97.17-2.82 4.09-.18 4.97-4.09-2.82-4.97-.17 2.83-4.1.17-4.97z"/><path style="stroke-width:2.09px;fill:#d9b776;stroke:#161515;stroke-miterlimit:13.97" d="m216.36 332.82 1.18-4.89-1.64-4.76 4.89 1.18 4.76-1.65-1.18 4.9 1.65 4.75-4.9-1.18-4.76 1.65z"/><path style="stroke-width:2.32px;fill:#d9b776;stroke:#161515;stroke-miterlimit:13.97" d="m126.97 800.59 5.58-.34 4.51-3.3.34 5.57 3.3 4.52-5.58.34-4.51 3.3-.35-5.58-3.29-4.51z"/><path style="stroke-width:2.02px;fill:#d9b776;stroke:#161515;stroke-miterlimit:13.97" d="m225.12 406.8 4.85-.46 3.83-3.01.47 4.85 3.01 3.82-4.85.47-3.83 3.01-.47-4.85-3.01-3.83z"/><path style="stroke-width:2.1px;fill:#d9b776;stroke:#161515;stroke-miterlimit:13.97" d="m176.58 762.15-4.98.97-3.67 3.5-.97-4.99-3.5-3.67 4.99-.97 3.67-3.49.97 4.98 3.49 3.67z"/><path style="stroke-width:2.05px;fill:#d9b776;stroke:#161515;stroke-miterlimit:13.97" d="m297.18 211.21 1.72 4.63 3.94 2.98-4.63 1.72-2.97 3.94-1.72-4.63-3.95-2.97 4.63-1.72 2.98-3.95z"/><path style="stroke-width:2.27px;fill:#d9b776;stroke:#161515;stroke-miterlimit:13.97" d="m158.27 979.7-5.32-1.29-5.18 1.78 1.29-5.32-1.79-5.17 5.32 1.29 5.18-1.79-1.29 5.32 1.79 5.18z"/><path style="stroke-width:2.05px;fill:#d9b776;stroke:#161515;stroke-miterlimit:13.97" d="m177.52 881.61 4.3-2.45 2.3-4.37 2.45 4.3 4.38 2.3-4.3 2.44-2.31 4.38-2.44-4.3-4.38-2.3z"/><path style="stroke-width:2.24px;fill:#d9b776;stroke:#161515;stroke-miterlimit:13.97" d="m229.15 754.17-2.78 4.62.15 5.39-4.62-2.79-5.39.15 2.79-4.62-.15-5.38 4.62 2.78 5.38-.15z"/><path style="stroke-width:2.03px;fill:#d9b776;stroke:#161515;stroke-miterlimit:13.97" d="m332.31 281.25 1.63 4.63 3.87 3.01-4.62 1.63-3.01 3.87-1.64-4.62-3.87-3.01 4.63-1.63 3.01-3.88z"/><path style="stroke-width:1.99px;fill:#d9b776;stroke:#161515;stroke-miterlimit:13.97" d="m222.54 893.93-1.53 4.54 1.16 4.65-4.54-1.53-4.65 1.17 1.53-4.55-1.17-4.65 4.55 1.53 4.65-1.16z"/><path style="stroke-width:2.15px;fill:#d9b776;stroke:#161515;stroke-miterlimit:13.97" d="m327.86 439.52-4.62-2.37-5.17.49 2.37-4.62-.49-5.17 4.62 2.38 5.17-.49-2.38 4.61.5 5.17z"/><path style="stroke-width:2.08px;fill:#d9b776;stroke:#161515;stroke-miterlimit:13.97" d="m360.44 357.69-4.77 1.54-3.19 3.88-1.54-4.78-3.88-3.19 4.78-1.54 3.19-3.88 1.54 4.78 3.87 3.19z"/><path style="stroke-width:2.07px;fill:#d9b776;stroke:#161515;stroke-miterlimit:13.97" d="m419.96 84.45 1.23 4.82 3.64 3.4-4.82 1.23-3.4 3.64-1.23-4.83-3.64-3.4 4.82-1.23 3.4-3.63z"/><path style="stroke-width:2.27px;fill:#d9b776;stroke:#161515;stroke-miterlimit:13.97" d="m352.2 503.15-3.3 4.37-.42 5.46-4.37-3.29-5.46-.42 3.29-4.37.42-5.47 4.37 3.3 5.47.42z"/><path style="stroke-width:2.13px;fill:#d9b776;stroke:#161515;stroke-miterlimit:13.97" d="m363.34 443.31 3.03-4.14.31-5.13 4.14 3.03 5.12.31-3.02 4.14-.31 5.13-4.15-3.03-5.12-.31z"/><path style="stroke-width:1.97px;fill:#d9b776;stroke:#161515;stroke-miterlimit:13.97" d="m303.34 808.54.93-4.66-1.74-4.43 4.66.92 4.43-1.73-.92 4.66 1.73 4.43-4.66-.93-4.43 1.74z"/><path style="stroke-width:1.98px;fill:#d9b776;stroke:#161515;stroke-miterlimit:13.97" d="m287.58 939.83 4.29 2.1 4.74-.55-2.1 4.29.55 4.74-4.29-2.1-4.74.55 2.1-4.29-.55-4.74z"/><path style="stroke-width:2.07px;fill:#d9b776;stroke:#161515;stroke-miterlimit:13.97" d="m412.96 382.91 4.91-.86 3.66-3.38.87 4.9 3.37 3.66-4.9.87-3.66 3.38-.87-4.91-3.38-3.66z"/><path style="stroke-width:2.21px;fill:#d9b776;stroke:#161515;stroke-miterlimit:13.97" d="m428.92 396.66-2.03-4.92-4.38-3.05 4.93-2.04 3.05-4.37 2.04 4.92 4.37 3.05-4.93 2.04-3.05 4.37z"/><path style="stroke-width:2.13px;fill:#d9b776;stroke:#161515;stroke-miterlimit:13.97" d="m486.89 177.89-1.63 4.86 1.24 4.97-4.86-1.63-4.97 1.25 1.64-4.86-1.25-4.98 4.86 1.64 4.97-1.25z"/><path style="stroke-width:2px;fill:#d9b776;stroke:#161515;stroke-miterlimit:13.97" d="m326.71 1006.14 4.1-2.55 2.08-4.35 2.54 4.1 4.36 2.08-4.1 2.54-2.08 4.36-2.55-4.1-4.35-2.08z"/><path style="stroke-width:2.14px;fill:#d9b776;stroke:#161515;stroke-miterlimit:13.97" d="m442.5 473.43 4.19-3.01 1.91-4.8 3.01 4.19 4.8 1.91-4.19 3.01-1.91 4.8-3.01-4.19-4.8-1.91z"/><path style="stroke-width:2.3px;fill:#d9b776;stroke:#161515;stroke-miterlimit:13.97" d="m524.05 139.86 1.43-5.35-1.69-5.28 5.36 1.43 5.27-1.69-1.42 5.35 1.68 5.28-5.35-1.42-5.28 1.68z"/><path style="stroke-width:2.23px;fill:#d9b776;stroke:#161515;stroke-miterlimit:13.97" d="m365.78 1051.33-2.12 4.94.88 5.29-4.94-2.12-5.29.88 2.12-4.93-.88-5.3 4.93 2.12 5.3-.88z"/><path style="stroke-width:2.1px;fill:#d9b776;stroke:#161515;stroke-miterlimit:13.97" d="m471 521.01 3.45-3.7.9-4.98 3.71 3.44 4.98.9-3.45 3.71-.9 4.99-3.71-3.45-4.98-.91z"/><path style="stroke-width:2.15px;fill:#d9b776;stroke:#161515;stroke-miterlimit:13.97" d="m441.43 740.29 2.52-4.53-.32-5.18 4.53 2.52 5.18-.32-2.52 4.53.32 5.18-4.53-2.52-5.18.32z"/><path style="stroke-width:2.23px;fill:#d9b776;stroke:#161515;stroke-miterlimit:13.97" d="m554.62 288.62-5.39.06-4.5 2.95-.06-5.38-2.95-4.51 5.38-.06 4.5-2.95.06 5.38 2.96 4.51z"/><path style="stroke-width:1.95px;fill:#d9b776;stroke:#161515;stroke-miterlimit:13.97" d="m514.84 513.48 1.93 4.28 3.94 2.56-4.28 1.93-2.55 3.93-1.94-4.27-3.93-2.56 4.27-1.93 2.56-3.94z"/><path style="stroke-width:2.2px;fill:#d9b776;stroke:#161515;stroke-miterlimit:13.97" d="m538.84 421.51 3.74-3.77 1.11-5.2 3.77 3.74 5.2 1.11-3.74 3.78-1.11 5.19-3.78-3.74-5.19-1.11z"/><path style="stroke-width:2.02px;fill:#d9b776;stroke:#161515;stroke-miterlimit:13.97" d="m534.31 497.9 4.21-2.43 2.23-4.32 2.44 4.21 4.32 2.24-4.21 2.43-2.24 4.32-2.43-4.21-4.32-2.24z"/><path style="stroke-width:2.03px;fill:#d9b776;stroke:#161515;stroke-miterlimit:13.97" d="m595.12 330-4.88.11-4.06 2.73-.11-4.89-2.73-4.05 4.89-.11 4.05-2.73.11 4.89 2.73 4.05z"/><path style="stroke-width:2.26px;fill:#d9b776;stroke:#161515;stroke-miterlimit:13.97" d="m500.86 881.89-5.25 1.43-3.65 4.03-1.42-5.25-4.04-3.65 5.25-1.43 3.65-4.03 1.43 5.25 4.03 3.65z"/><path style="stroke-width:2.27px;fill:#d9b776;stroke:#161515;stroke-miterlimit:13.97" d="m563.04 623.96-4.58 2.98-2.25 4.99-2.99-4.59-4.99-2.25 4.59-2.98 2.25-4.99 2.98 4.59 4.99 2.25z"/><path style="stroke-width:2.01px;fill:#d9b776;stroke:#161515;stroke-miterlimit:13.97" d="m497.98 1035.43-4.85.23-3.96 2.81-.23-4.84-2.81-3.96 4.85-.24 3.96-2.81.23 4.85 2.81 3.96z"/><path style="stroke-width:2.21px;fill:#d9b776;stroke:#161515;stroke-miterlimit:13.97" d="m555.38 775.94-4.24-3.23-5.32-.44 3.23-4.24.43-5.32 4.25 3.23 5.31.43-3.23 4.25-.43 5.32z"/><path style="stroke-width:2.3px;fill:#d9b776;stroke:#161515;stroke-miterlimit:13.97" d="m499.92 1081.05 5.52-.55 4.34-3.44.55 5.52 3.44 4.35-5.52.55-4.34 3.43-.55-5.51-3.44-4.35z"/><path style="stroke-width:2.23px;fill:#d9b776;stroke:#161515;stroke-miterlimit:13.97" d="m616.07 529.84 4.66-2.72 2.44-4.8 2.72 4.65 4.8 2.45-4.65 2.72-2.44 4.8-2.73-4.65-4.8-2.45z"/><path style="stroke-width:2.02px;fill:#d9b776;stroke:#161515;stroke-miterlimit:13.97" d="m559.81 952.49-4.25-2.38-4.86.29 2.38-4.25-.29-4.86 4.25 2.38 4.86-.29-2.38 4.25.29 4.86z"/><path style="stroke-width:2.29px;fill:#d9b776;stroke:#161515;stroke-miterlimit:13.97" d="m585.94 822.47 4.17-3.63 1.55-5.3 3.62 4.17 5.3 1.55-4.16 3.63-1.56 5.29-3.62-4.16-5.3-1.55z"/><path style="stroke-width:1.96px;fill:#d9b776;stroke:#161515;stroke-miterlimit:13.97" d="m590.56 890.32 2.58 3.97 4.32 1.95-3.97 2.58-1.95 4.32-2.58-3.97-4.32-1.95 3.97-2.58 1.95-4.32z"/><path style="stroke-width:2.05px;fill:#d9b776;stroke:#161515;stroke-miterlimit:13.97" d="m708.97 309.09 4.25-2.52 2.22-4.42 2.52 4.25 4.42 2.23-4.25 2.51-2.22 4.42-2.52-4.25-4.42-2.22z"/><path style="stroke-width:2.12px;fill:#d9b776;stroke:#161515;stroke-miterlimit:13.97" d="m690.64 528.13-2.06 4.67.79 5.04-4.67-2.05-5.05.78 2.06-4.67-.79-5.04 4.68 2.06 5.04-.79z"/><path style="stroke-width:2.31px;fill:#d9b776;stroke:#161515;stroke-miterlimit:13.97" d="m663.08 715.98 3.68 4.18 5.35 1.54-4.18 3.68-1.53 5.35-3.68-4.18-5.36-1.54 4.18-3.68 1.54-5.35z"/><path style="stroke-width:2.05px;fill:#d9b776;stroke:#161515;stroke-miterlimit:13.97" d="m755.63 319.47-3.9 3.04-1.64 4.66-3.04-3.9-4.65-1.64 3.89-3.04 1.64-4.66 3.04 3.9 4.66 1.64z"/><path style="stroke-width:2.21px;fill:#d9b776;stroke:#161515;stroke-miterlimit:13.97" d="m682.86 795.35-5.17-1.26-5.04 1.74 1.26-5.18-1.74-5.04 5.18 1.26 5.04-1.74-1.26 5.18 1.73 5.04z"/><path style="stroke-width:2.09px;fill:#d9b776;stroke:#161515;stroke-miterlimit:13.97" d="M804.05 196.15h-5.04l-4.24 2.73-.01-5.04-2.72-4.24 5.04-.01 4.24-2.72v5.04l2.73 4.24z"/><path style="stroke-width:2.02px;fill:#d9b776;stroke:#161515;stroke-miterlimit:13.97" d="m676.78 912.95.56-4.82-2.13-4.37 4.83.56 4.37-2.13-.56 4.83 2.13 4.37-4.83-.57-4.37 2.13z"/><path style="stroke-width:2.26px;fill:#d9b776;stroke:#161515;stroke-miterlimit:13.97" d="m759.36 562.84-.66 5.42 2.36 4.92-5.42-.67-4.91 2.37.66-5.42-2.36-4.92 5.41.67 4.92-2.37z"/><path style="stroke-width:2.01px;fill:#d9b776;stroke:#161515;stroke-miterlimit:13.97" d="m750.9 702.12-4.74-1.01-4.54 1.71 1.01-4.75-1.7-4.54 4.74 1.01 4.54-1.7-1.01 4.74 1.7 4.54z"/><path style="stroke-width:2.07px;fill:#d9b776;stroke:#161515;stroke-miterlimit:13.97" d="m718.54 902.03 3.21 3.82 4.77 1.48-3.82 3.22-1.48 4.77-3.21-3.82-4.77-1.49 3.82-3.21 1.48-4.77z"/><path style="stroke-width:2.24px;fill:#d9b776;stroke:#161515;stroke-miterlimit:13.97" d="m853.26 196.94 1.79-5.11-1.24-5.27 5.1 1.79 5.27-1.24-1.79 5.1 1.25 5.27-5.11-1.79-5.27 1.25z"/><path style="stroke-width:2.05px;fill:#d9b776;stroke:#161515;stroke-miterlimit:13.97" d="m850.47 261.28 4.81 1.07 4.63-1.7-1.06 4.82 1.69 4.63-4.81-1.07-4.63 1.7 1.06-4.82-1.69-4.63z"/><path style="stroke-width:1.97px;fill:#d9b776;stroke:#161515;stroke-miterlimit:13.97" d="m765.5 795.8 4.18-2.27 2.3-4.17 2.27 4.18 4.17 2.3-4.18 2.27-2.3 4.17-2.27-4.18-4.17-2.3z"/><path style="stroke-width:2.3px;fill:#d9b776;stroke:#161515;stroke-miterlimit:13.97" d="m820.73 567.85 4.99 2.43 5.52-.65-2.43 5 .64 5.51-4.99-2.43-5.52.65 2.43-5-.64-5.51z"/><path style="stroke-width:1.98px;fill:#d9b776;stroke:#161515;stroke-miterlimit:13.97" d="m838.71 547.7 4.61 1.25 4.56-1.45-1.25 4.62 1.45 4.55-4.62-1.24-4.55 1.44 1.24-4.61-1.44-4.56z"/><path style="stroke-width:2.26px;fill:#d9b776;stroke:#161515;stroke-miterlimit:13.97" d="m843.78 641.41.71 5.4 3.5 4.17-5.4.7-4.18 3.51-.7-5.4-3.5-4.18 5.4-.7 4.17-3.5z"/><path style="stroke-width:2.25px;fill:#d9b776;stroke:#161515;stroke-miterlimit:13.97" d="m872.1 568.45-3.93 3.73-1.29 5.26-3.74-3.93-5.26-1.3 3.93-3.73 1.3-5.26 3.73 3.93 5.26 1.3z"/><path style="stroke-width:2.19px;fill:#d9b776;stroke:#161515;stroke-miterlimit:13.97" d="m850.06 703.3 4.36-2.98 2.06-4.86 2.98 4.36 4.86 2.06-4.36 2.98-2.07 4.86-2.97-4.36-4.86-2.06z"/><path style="stroke-width:2.2px;fill:#d9b776;stroke:#161515;stroke-miterlimit:13.97" d="m833.7 883.63 5.15 1.28 5.02-1.71-1.28 5.15 1.7 5.02-5.14-1.28-5.02 1.7 1.28-5.14-1.71-5.02z"/><path style="stroke-width:2.18px;fill:#d9b776;stroke:#161515;stroke-miterlimit:13.97" d="m874.02 707.82 3.36-4.04.64-5.22 4.05 3.36 5.21.65-3.36 4.04-.64 5.21-4.04-3.36-5.22-.64z"/><path style="stroke-width:2.16px;fill:#d9b776;stroke:#161515;stroke-miterlimit:13.97" d="m920.34 552.4.45 5.19 3.18 4.13-5.19.45-4.12 3.18-.45-5.19-3.19-4.12 5.19-.46 4.13-3.18z"/><path style="stroke-width:2.25px;fill:#d9b776;stroke:#161515;stroke-miterlimit:13.97" d="m871.28 901.02-.09-5.42-3-4.52 5.42-.09 4.52-3 .09 5.42 3 4.52-5.43.09-4.51 3z"/><path style="stroke-width:2.03px;fill:#d9b776;stroke:#161515;stroke-miterlimit:13.97" d="m929.28 666.57.69 4.84 3.19 3.71-4.84.69-3.71 3.19-.69-4.84-3.19-3.71 4.84-.69 3.71-3.19z"/><path style="stroke-width:2.01px;fill:#d9b776;stroke:#161515;stroke-miterlimit:13.97" d="m912.76 871.05-3.04 3.78-.52 4.81-3.77-3.03-4.81-.52 3.03-3.77.52-4.82 3.77 3.04 4.82.51z"/><path style="stroke-width:2.32px;fill:#d9b776;stroke:#161515;stroke-miterlimit:13.97" d="m883 1052.38 5.24-1.97 3.35-4.49 1.97 5.24 4.48 3.35-5.24 1.97-3.34 4.48-1.97-5.24-4.49-3.34z"/><path style="stroke-width:1.97px;fill:#d9b776;stroke:#161515;stroke-miterlimit:13.97" d="m1019.76 334.54-3.76-2.89-4.74-.4 2.9-3.77.4-4.73 3.77 2.89 4.73.41-2.9 3.76-.4 4.73z"/><path style="stroke-width:2.32px;fill:#d9b776;stroke:#161515;stroke-miterlimit:13.97" d="m1027.39 317.44.57-5.56-2.51-4.99 5.56.58 4.99-2.52-.58 5.56 2.51 4.99-5.55-.57-4.99 2.51z"/><path style="stroke-width:2.09px;fill:#d9b776;stroke:#161515;stroke-miterlimit:13.97" d="m1035.34 337.34 4.94-1.03 3.6-3.55 1.04 4.95 3.54 3.6-4.94 1.03-3.6 3.54-1.04-4.94-3.54-3.6z"/><path style="stroke-width:2.2px;fill:#d9b776;stroke:#161515;stroke-miterlimit:13.97" d="m950.35 973.39 3.01-4.38.16-5.31 4.38 3 5.32.17-3.01 4.38-.17 5.32-4.38-3.01-5.31-.17z"/><path style="stroke-width:1.99px;fill:#d9b776;stroke:#161515;stroke-miterlimit:13.97" d="m1066.31 301.48 3.78-2.94 1.59-4.51 2.95 3.78 4.51 1.59-3.78 2.94-1.59 4.52-2.94-3.78-4.52-1.6z"/><path style="stroke-width:2.03px;fill:#d9b776;stroke:#161515;stroke-miterlimit:13.97" d="m1036.93 661.26-4.89.12-4.05 2.74-.12-4.89-2.75-4.05 4.89-.13 4.06-2.74.12 4.89 2.74 4.06z"/><path style="stroke-width:1.99px;fill:#d9b776;stroke:#161515;stroke-miterlimit:13.97" d="m988.75 997.08-1.41-4.59-3.67-3.1 4.59-1.41 3.09-3.67 1.42 4.58 3.67 3.1-4.59 1.42-3.1 3.67z"/><path style="stroke-width:2.25px;fill:#d9b776;stroke:#161515;stroke-miterlimit:13.97" d="m1103.94 304.14 3.77-3.89 1.08-5.31 3.89 3.77 5.31 1.08-3.77 3.89-1.08 5.31-3.89-3.77-5.31-1.08z"/><path style="stroke-width:2.26px;fill:#d9b776;stroke:#161515;stroke-miterlimit:13.97" d="m1041.58 804.56 2.64-4.77-.34-5.44 4.77 2.64 5.44-.34-2.65 4.77.35 5.44-4.77-2.64-5.44.34zM1126.06 281.6l5.4-.67 4.18-3.47.67 5.39 3.48 4.18-5.4.67-4.18 3.48-.67-5.39-3.48-4.19z"/><path style="stroke-width:2.23px;fill:#d9b776;stroke:#161515;stroke-miterlimit:13.97" d="m1113.77 559.6-2.45 4.78.52 5.34-4.78-2.44-5.35.52 2.45-4.78-.52-5.35 4.78 2.45 5.35-.52z"/><path style="stroke-width:2.13px;fill:#d9b776;stroke:#161515;stroke-miterlimit:13.97" d="m1170.26 226.17-4.03-3.2-5.12-.52 3.2-4.03.52-5.12 4.03 3.2 5.12.52-3.2 4.03-.52 5.12z"/><path style="stroke-width:2.08px;fill:#d9b776;stroke:#161515;stroke-miterlimit:13.97" d="m1072.12 1005.61.72 4.96 3.28 3.78-4.96.72-3.78 3.28-.72-4.96-3.28-3.78 4.96-.72 3.78-3.28z"/><path style="stroke-width:2.29px;fill:#d9b776;stroke:#161515;stroke-miterlimit:13.97" d="m1112.2 829.37-2.01 5.14 1.08 5.42-5.15-2.02-5.41 1.08 2.01-5.14-1.08-5.42 5.15 2.02 5.41-1.08z"/><path style="stroke-width:1.95px;fill:#d9b776;stroke:#161515;stroke-miterlimit:13.97" d="m1107.76 959.51-1.82 4.34.82 4.63-4.34-1.81-4.63.81 1.81-4.34-.81-4.63 4.34 1.82 4.63-.82z"/><path style="stroke-width:2.19px;fill:#d9b776;stroke:#161515;stroke-miterlimit:13.97" d="m1154.91 651.07.19-5.28-2.7-4.55 5.28.18 4.55-2.69-.18 5.28 2.69 4.55-5.28-.19-4.55 2.7z"/><path style="stroke-width:2.05px;fill:#d9b776;stroke:#161515;stroke-miterlimit:13.97" d="m1198.07 489.15-1.3 4.78 1.5 4.72-4.79-1.29-4.72 1.5 1.29-4.79-1.49-4.72 4.78 1.29 4.73-1.49z"/><path style="stroke-width:1.98px;fill:#d9b776;stroke:#161515;stroke-miterlimit:13.97" d="m1201.78 464.1 4.72.75 4.38-1.92-.74 4.72 1.92 4.38-4.72-.74-4.39 1.92.75-4.72-1.92-4.39z"/><path style="stroke-width:2.02px;fill:#d9b776;stroke:#161515;stroke-miterlimit:13.97" d="m1147.44 1061.05-2.57-4.15-4.41-2.11 4.16-2.57 2.1-4.4 2.57 4.15 4.41 2.11-4.15 2.57-2.11 4.4z"/><path style="stroke-width:1.97px;fill:#d9b776;stroke:#161515;stroke-miterlimit:13.97" d="m1140.83 1173.63 1.15-4.6-1.51-4.49 4.6 1.15 4.5-1.51-1.16 4.6 1.51 4.5-4.6-1.16-4.49 1.51z"/><path style="stroke-width:1.94px;fill:#d9b776;stroke:#161515;stroke-miterlimit:13.97" d="m1251.09 368.62 4.56 1.04 4.4-1.58-1.04 4.56 1.59 4.4-4.57-1.04-4.4 1.58 1.04-4.56-1.58-4.4z"/><path style="stroke-width:2.19px;fill:#d9b776;stroke:#161515;stroke-miterlimit:13.97" d="m1174.71 1099.78 2.35-4.72-.57-5.25 4.72 2.35 5.25-.56-2.35 4.72.57 5.24-4.73-2.35-5.24.57z"/><path style="stroke-width:2.22px;fill:#d9b776;stroke:#161515;stroke-miterlimit:13.97" d="m1187.91 1141.4-2.78-4.58-4.81-2.35 4.58-2.78 2.35-4.81 2.78 4.57 4.81 2.36-4.57 2.78-2.36 4.81z"/><path style="stroke-width:2.19px;fill:#d9b776;stroke:#161515;stroke-miterlimit:13.97" d="m1265.2 558.7 4.94 1.87 5.17-1.1-1.87 4.94 1.09 5.17-4.94-1.87-5.16 1.09 1.86-4.93-1.09-5.17z"/><path style="stroke-width:2.01px;fill:#d9b776;stroke:#161515;stroke-miterlimit:13.97" d="m1274.65 682.76-4.82.45-3.82 2.99-.45-4.83-2.99-3.82 4.83-.45 3.82-2.98.45 4.82 2.98 3.82z"/><path style="stroke-width:2.05px;fill:#d9b776;stroke:#161515;stroke-miterlimit:13.97" d="m1274.59 668.21 4.06-2.81 1.9-4.56 2.81 4.06 4.56 1.9-4.06 2.81-1.9 4.56-2.81-4.06-4.56-1.9z"/><path style="stroke-width:2.27px;fill:#d9b776;stroke:#161515;stroke-miterlimit:13.97" d="m1311.19 418.72 5.2-1.67 3.48-4.22 1.68 5.21 4.22 3.47-5.21 1.68-3.48 4.22-1.67-5.21-4.22-3.48z"/><path style="stroke-width:2.17px;fill:#d9b776;stroke:#161515;stroke-miterlimit:13.97" d="m1258.56 1190.93-5.01-1.5-5.04 1.45 1.5-5.02-1.45-5.03 5.02 1.5 5.04-1.45-1.5 5.02 1.44 5.03z"/><path style="stroke-width:2.31px;fill:#d9b776;stroke:#161515;stroke-miterlimit:13.97" d="m1299.06 948.7-5.57.23-4.56 3.2-.23-5.56-3.2-4.56 5.57-.24 4.55-3.19.24 5.56 3.2 4.56z"/><path style="stroke-width:2px;fill:#d9b776;stroke:#161515;stroke-miterlimit:13.97" d="m1328.68 717.64.55 4.79 3.04 3.73-4.78.55-3.74 3.04-.54-4.79-3.04-3.73 4.78-.55 3.73-3.04z"/><path style="stroke-width:2.09px;fill:#d9b776;stroke:#161515;stroke-miterlimit:13.97" d="m1379.88 364.36-5.04-.02-4.26 2.71.01-5.04-2.71-4.26 5.05.02 4.25-2.71-.01 5.04 2.71 4.26z"/><path style="stroke-width:1.98px;fill:#d9b776;stroke:#161515;stroke-miterlimit:13.97" d="m1297.25 1211.96.36-4.77-2.28-4.21 4.77.36 4.21-2.28-.36 4.77 2.28 4.21-4.77-.36-4.21 2.28z"/><path style="stroke-width:2.23px;fill:#d9b776;stroke:#161515;stroke-miterlimit:13.97" d="m1316.14 1138.25 3.89 3.69 5.27 1.01-3.69 3.9-1.01 5.26-3.89-3.69-5.27-1.01 3.69-3.89 1.01-5.27z"/><path style="stroke-width:2.07px;fill:#d9b776;stroke:#161515;stroke-miterlimit:13.97" d="m1383.77 611.72 2.34 4.4 4.35 2.44-4.4 2.34-2.45 4.35-2.34-4.4-4.34-2.45 4.4-2.34 2.44-4.34z"/><path style="stroke-width:2.08px;fill:#d9b776;stroke:#161515;stroke-miterlimit:13.97" d="m1414.04 341.47-2.33-4.43-4.35-2.48 4.43-2.32 2.48-4.36 2.33 4.43 4.35 2.48-4.43 2.33-2.48 4.35z"/><path style="stroke-width:2.06px;fill:#d9b776;stroke:#161515;stroke-miterlimit:13.97" d="m1386.73 928.31-.99 4.86 1.79 4.63-4.86-.98-4.63 1.79.99-4.87-1.8-4.63 4.87.99 4.63-1.79z"/><path style="stroke-width:2.27px;fill:#d9b776;stroke:#161515;stroke-miterlimit:13.97" d="m1373 1144.82 2.94-4.62-.02-5.48 4.62 2.94 5.47-.02-2.94 4.62.02 5.47-4.62-2.93-5.47.02zM1400.51 1020.22l-.73-5.43-3.54-4.19 5.43-.72 4.19-3.54.72 5.43 3.55 4.19-5.44.72-4.18 3.54zM1460.06 338.11l5.15-1.84 3.36-4.32 1.83 5.16 4.33 3.35-5.16 1.84-3.35 4.32-1.84-5.16-4.32-3.35z"/><path style="stroke-width:1.94px;fill:#d9b776;stroke:#161515;stroke-miterlimit:13.97" d="m1453.88 644.52 3.22 3.4 4.55 1.13-3.4 3.22-1.13 4.54-3.22-3.4-4.54-1.12 3.4-3.22 1.12-4.55z"/><path style="stroke-width:1.96px;fill:#d9b776;stroke:#161515;stroke-miterlimit:13.97" d="m1489.57 257.21 4.37-1.77 2.72-3.85 1.77 4.36 3.85 2.72-4.36 1.78-2.72 3.85-1.78-4.37-3.85-2.72z"/><path style="stroke-width:2.04px;fill:#d9b776;stroke:#161515;stroke-miterlimit:13.97" d="m1480.17 606.36-4.1-2.73-4.92-.09 2.73-4.1.09-4.92 4.1 2.73 4.92.09-2.73 4.09-.09 4.93z"/><path style="stroke-width:2.02px;fill:#d9b776;stroke:#161515;stroke-miterlimit:13.97" d="m1468.46 1130.91 1.13 4.75 3.52 3.38-4.74 1.13-3.39 3.52-1.13-4.74-3.52-3.38 4.75-1.14 3.38-3.52z"/><path style="stroke-width:2.28px;fill:#d9b776;stroke:#161515;stroke-miterlimit:13.97" d="m1488.05 794.29 5.04 2.18 5.43-.88-2.18 5.04.89 5.44-5.05-2.19-5.43.89 2.18-5.05-.88-5.43z"/><path style="stroke-width:2.11px;fill:#d9b776;stroke:#161515;stroke-miterlimit:13.97" d="m1499.24 963.46-.78 5.03 2.06 4.65-5.03-.78-4.65 2.06.78-5.03-2.06-4.65 5.03.78 4.65-2.06z"/><path style="stroke-width:2.29px;fill:#d9b776;stroke:#161515;stroke-miterlimit:13.97" d="m1520.41 829.01-5.29-1.6-5.32 1.51 1.6-5.28-1.51-5.32 5.29 1.6 5.31-1.51-1.59 5.29 1.51 5.31z"/><path style="stroke-width:2.28px;fill:#d9b776;stroke:#161515;stroke-miterlimit:13.97" d="m1542.69 264.44 4.97-2.33 2.92-4.64 2.33 4.96 4.65 2.93-4.97 2.33-2.93 4.64-2.33-4.96-4.64-2.93z"/><path style="stroke-width:2.12px;fill:#d9b776;stroke:#161515;stroke-miterlimit:13.97" d="m1531.08 1001.59 1.99 4.7 4.2 2.9-4.7 1.98-2.9 4.21-1.98-4.71-4.21-2.89 4.71-1.99 2.89-4.2z"/><path style="stroke-width:2.03px;fill:#d9b776;stroke:#161515;stroke-miterlimit:13.97" d="m1551.17 701.13 3.41 3.53 4.77 1.14-3.53 3.4-1.14 4.77-3.4-3.53-4.77-1.13 3.53-3.41 1.13-4.77z"/><path style="stroke-width:2.13px;fill:#d9b776;stroke:#161515;stroke-miterlimit:13.97" d="m1557.14 449.6 4.9-1.56 3.27-3.95 1.56 4.89 3.95 3.28-4.89 1.55-3.28 3.96-1.55-4.89-3.96-3.28z"/><path style="stroke-width:1.96px;fill:#d9b776;stroke:#161515;stroke-miterlimit:13.97" d="m1584.72 279.97-4.54 1.34-3.09 3.58-1.34-4.53-3.58-3.09 4.53-1.35 3.1-3.57 1.34 4.53 3.58 3.09z"/><path style="stroke-width:2.18px;fill:#d9b776;stroke:#161515;stroke-miterlimit:13.97" d="m1584.52 536 .89-5.19-2.05-4.85 5.19.89 4.85-2.06-.89 5.2 2.06 4.85-5.19-.89-4.86 2.05z"/><path style="stroke-width:2.03px;fill:#d9b776;stroke:#161515;stroke-miterlimit:13.97" d="m1602.98 1082.08.69 4.85 3.19 3.7-4.85.69-3.7 3.19-.69-4.84-3.19-3.71 4.84-.68 3.71-3.2z"/><path style="stroke-width:2px;fill:#d9b776;stroke:#161515;stroke-miterlimit:13.97" d="m1614.54 651.12-3.73-3.04-4.79-.55 3.05-3.73.54-4.78 3.74 3.04 4.78.55-3.04 3.73-.55 4.78zM1610.27 463.97l-3.63-3.19-4.78-.73 3.19-3.63.73-4.78 3.63 3.19 4.78.73-3.19 3.63-.73 4.78z"/><path style="stroke-width:2.3px;fill:#d9b776;stroke:#161515;stroke-miterlimit:13.97" d="m1617.2 548.52 1.65-5.29-1.48-5.34 5.29 1.64 5.34-1.47-1.64 5.29 1.48 5.34-5.3-1.64-5.34 1.47z"/><path style="stroke-width:2.05px;fill:#d9b776;stroke:#161515;stroke-miterlimit:13.97" d="m1650.74 964.53 4.55 1.91 4.86-.84-1.91 4.55.85 4.86-4.56-1.91-4.86.85 1.91-4.56-.84-4.86z"/><path style="stroke-width:2.28px;fill:#d9b776;stroke:#161515;stroke-miterlimit:13.97" d="m1635.63 305.76 3.21 4.47 5.11 2.02-4.46 3.21-2.03 5.12-3.21-4.47-5.12-2.02 4.47-3.22 2.03-5.11z"/><path style="stroke-width:1.99px;fill:#d9b776;stroke:#161515;stroke-miterlimit:13.97" d="m1658.49 587.35 4.73.9 4.46-1.79-.9 4.72 1.79 4.46-4.72-.9-4.47 1.79.9-4.72-1.79-4.46z"/><path style="stroke-width:2.27px;fill:#d9b776;stroke:#161515;stroke-miterlimit:13.97" d="m1706.71 979.3 5.44-.58 4.27-3.44.59 5.45 3.43 4.27-5.44.59-4.27 3.43-.59-5.45-3.43-4.27z"/><path style="stroke-width:2.25px;fill:#d9b776;stroke:#161515;stroke-miterlimit:13.97" d="m1753.6 1140.9-4.83 2.48-2.72 4.69-2.48-4.83-4.7-2.72 4.83-2.48 2.72-4.69 2.48 4.82 4.7 2.73z"/><path style="stroke-width:1.99px;fill:#d9b776;stroke:#161515;stroke-miterlimit:13.97" d="m1678.12 523.95 4.08-2.51 2.08-4.31 2.51 4.07 4.32 2.08-4.08 2.51-2.08 4.32-2.51-4.08-4.32-2.08z"/><path style="stroke-width:2.02px;fill:#d9b776;stroke:#161515;stroke-miterlimit:13.97" d="m1701.13 566.94 3.74 3.13 4.83.62-3.13 3.73-.61 4.84-3.74-3.13-4.83-.62 3.12-3.73.62-4.84z"/><path style="stroke-width:2.02px;fill:#d9b776;stroke:#161515;stroke-miterlimit:13.97" d="m1697.7 561.28 3.77 3.09 4.85.57-3.1 3.78-.56 4.84-3.78-3.09-4.84-.57 3.09-3.77.57-4.85z"/><path style="stroke-width:1.99px;fill:#d9b776;stroke:#161515;stroke-miterlimit:13.97" d="m1760.59 778.27 1.77 4.46 3.89 2.79-4.46 1.77-2.8 3.89-1.76-4.45-3.89-2.8 4.45-1.77 2.8-3.89z"/><path style="stroke-width:2.17px;fill:#d9b776;stroke:#161515;stroke-miterlimit:13.97" d="m1682.55 388.31 5.23.25 4.53-2.62-.24 5.23 2.61 4.54-5.23-.25-4.53 2.62.24-5.23-2.61-4.54z"/><path style="stroke-width:2.28px;fill:#d9b776;stroke:#161515;stroke-miterlimit:13.97" d="m1870.77 1009.07 3.2 4.46 5.11 2.02-4.46 3.21-2.02 5.11-3.21-4.46-5.11-2.02 4.46-3.21 2.03-5.11z"/><path style="stroke-width:2.29px;fill:#d9b776;stroke:#161515;stroke-miterlimit:13.97" d="m1781.37 710.26-5.48-.58-4.92 2.47.58-5.48-2.47-4.93 5.48.58 4.93-2.46-.58 5.47 2.46 4.93z"/><path style="stroke-width:2.06px;fill:#d9b776;stroke:#161515;stroke-miterlimit:13.97" d="m1647.12 296.5-4.7-1.63-4.83 1.16 1.63-4.7-1.17-4.84 4.7 1.63 4.84-1.16-1.63 4.7 1.16 4.84z"/><path style="stroke-width:1.96px;fill:#d9b776;stroke:#161515;stroke-miterlimit:13.97" d="m1745.03 600.54-4.68.68-3.58 3.09-.68-4.68-3.1-3.58 4.69-.67 3.57-3.1.68 4.68 3.1 3.58z"/><path style="stroke-width:2.05px;fill:#d9b776;stroke:#161515;stroke-miterlimit:13.97" d="m1996.83 1043.77 4.81 1.06 4.63-1.71-1.06 4.81 1.72 4.63-4.82-1.06-4.63 1.71 1.06-4.81-1.71-4.63z"/><path style="stroke-width:2.15px;fill:#d9b776;stroke:#161515;stroke-miterlimit:13.97" d="m1978.4 969.84-4.59 2.37-2.6 4.47-2.36-4.59-4.48-2.59 4.59-2.37 2.6-4.48 2.37 4.6 4.47 2.59z"/><path style="stroke-width:2.03px;fill:#d9b776;stroke:#161515;stroke-miterlimit:13.97" d="m2073.12 938.42-.23 4.88 2.45 4.23-4.88-.23-4.23 2.44.22-4.87-2.44-4.24 4.88.23 4.23-2.44z"/><path style="stroke-width:1.97px;fill:#d9b776;stroke:#161515;stroke-miterlimit:13.97" d="m1487.78 477.31 4.33 1.97 4.7-.68-1.96 4.33.67 4.7-4.32-1.97-4.71.68 1.97-4.33-.68-4.7z"/><path style="stroke-width:2.07px;fill:#d9b776;stroke:#161515;stroke-miterlimit:13.97" d="m1844.38 671.14 2.79-4.14.12-4.99 4.14 2.8 4.99.12-2.79 4.14-.12 4.99-4.14-2.8-4.99-.12z"/><path style="stroke-width:2.25px;fill:#d9b776;stroke:#161515;stroke-miterlimit:13.97" d="m2000.19 672.54-5.42-.3-4.74 2.66.31-5.42-2.66-4.74 5.42.31 4.74-2.66-.31 5.42 2.66 4.73z"/><path style="stroke-width:1.97px;fill:#d9b776;stroke:#161515;stroke-miterlimit:13.97" d="m1762.44 628.06 4.76-.14 3.92-2.69.15 4.76 2.68 3.92-4.75.14-3.92 2.69-.15-4.75-2.69-3.93z"/><path style="stroke-width:2.27px;fill:#d9b776;stroke:#161515;stroke-miterlimit:13.97" d="m1844.47 621.93.07 5.46 3 4.57-5.46.06-4.56 3-.07-5.46-3-4.56 5.46-.07 4.56-3z"/><path style="stroke-width:2.23px;fill:#d9b776;stroke:#161515;stroke-miterlimit:13.97" d="m2178.53 527.43 3.75 3.85 5.23 1.22-3.85 3.74-1.22 5.23-3.75-3.85-5.22-1.22 3.84-3.74 1.22-5.23z"/><path style="stroke-width:1.99px;fill:#d9b776;stroke:#161515;stroke-miterlimit:13.97" d="m1974.95 536.89-3.79 2.92-1.62 4.51-2.92-3.8-4.51-1.62 3.79-2.92 1.63-4.51 2.92 3.8 4.5 1.62z"/><path style="stroke-width:1.97px;fill:#d9b776;stroke:#161515;stroke-miterlimit:13.97" d="m1989.71 516.26-4.21 2.16-2.39 4.09-2.16-4.22-4.09-2.38 4.22-2.16 2.38-4.1 2.16 4.22 4.09 2.39z"/><path style="stroke-width:2.28px;fill:#d9b776;stroke:#161515;stroke-miterlimit:13.97" d="m1828.9 586.27-5.24-1.67-5.3 1.41 1.67-5.23-1.42-5.31 5.24 1.67 5.3-1.41-1.67 5.23 1.42 5.31z"/><path style="stroke-width:2.08px;fill:#d9b776;stroke:#161515;stroke-miterlimit:13.97" d="m1960.18 469.9 3.29-3.77.74-4.95 3.77 3.29 4.96.74-3.3 3.77-.74 4.96-3.77-3.3-4.95-.74z"/><path style="stroke-width:2.11px;fill:#d9b776;stroke:#161515;stroke-miterlimit:13.97" d="m1490.74 791.36-2.89-4.21-4.7-1.98 4.21-2.88 1.98-4.7 2.88 4.2 4.7 1.98-4.2 2.89-1.98 4.7z"/><path style="stroke-width:1.98px;fill:#d9b776;stroke:#161515;stroke-miterlimit:13.97" d="m1448.8 792.61 2.41 4.11 4.24 2.16-4.11 2.41-2.16 4.24-2.41-4.11-4.24-2.16 4.11-2.41 2.16-4.24z"/><path style="stroke-width:2.09px;fill:#d9b776;stroke:#161515;stroke-miterlimit:13.97" d="m1732.68 594.16 2.9 4.12 4.65 1.9-4.11 2.9-1.9 4.65-2.9-4.11-4.66-1.9 4.12-2.9 1.9-4.66z"/><path style="stroke-width:2.28px;fill:#d9b776;stroke:#161515;stroke-miterlimit:13.97" d="m1941.04 413.38-5.14-1.97-5.38 1.12 1.96-5.14-1.11-5.38 5.13 1.97 5.38-1.12-1.96 5.13 1.12 5.39z"/><path style="stroke-width:2.1px;fill:#d9b776;stroke:#161515;stroke-miterlimit:13.97" d="m1866.98 435.9-2.15 4.6.67 5.02-4.6-2.14-5.02.67 2.14-4.6-.67-5.03 4.6 2.15 5.03-.67z"/><path style="stroke-width:2.07px;fill:#d9b776;stroke:#161515;stroke-miterlimit:13.97" d="m1981.44 289.02 3.69 3.37 4.93.85-3.37 3.69-.84 4.93-3.7-3.37-4.93-.84 3.37-3.7.85-4.93z"/><path style="stroke-width:2.3px;fill:#d9b776;stroke:#161515;stroke-miterlimit:13.97" d="m1442.09 849.2 2.9-4.72-.1-5.53 4.71 2.9 5.54-.1-2.9 4.72.1 5.53-4.72-2.9-5.53.1z"/><path style="stroke-width:2.22px;fill:#d9b776;stroke:#161515;stroke-miterlimit:13.97" d="m1604.39 719.92 4.63 2.68 5.34-.24-2.68 4.63.24 5.34-4.62-2.68-5.35.25 2.68-4.63-.24-5.35z"/><path style="stroke-width:2.24px;fill:#d9b776;stroke:#161515;stroke-miterlimit:13.97" d="m1577.13 746.74.65 5.37 3.45 4.17-5.37.65-4.17 3.45-.66-5.37-3.45-4.17 5.38-.65 4.17-3.45z"/><path style="stroke-width:2.05px;fill:#d9b776;stroke:#161515;stroke-miterlimit:13.97" d="m1893.88 261.44-1.9-4.56-4.06-2.81 4.56-1.9 2.81-4.06 1.9 4.56 4.07 2.81-4.57 1.9-2.81 4.06z"/><path style="stroke-width:2.09px;fill:#d9b776;stroke:#161515;stroke-miterlimit:13.97" d="m1741.88 450.54 5 .69 4.58-2.11-.69 4.99 2.11 4.59-5-.7-4.58 2.12.69-5-2.11-4.58z"/><path style="stroke-width:2.06px;fill:#d9b776;stroke:#161515;stroke-miterlimit:13.97" d="m1504.66 804.08-4.36-2.38-4.96.35 2.38-4.36-.34-4.96 4.36 2.38 4.95-.34-2.38 4.36.35 4.95z"/><path style="stroke-width:2.22px;fill:#d9b776;stroke:#161515;stroke-miterlimit:13.97" d="m1605.79 721.67.87 5.27 3.58 3.98-5.28.87-3.97 3.58-.87-5.28-3.58-3.97 5.28-.87 3.97-3.58z"/><path style="stroke-width:2px;fill:#d9b776;stroke:#161515;stroke-miterlimit:13.97" d="m1544.63 829.39 2.1-4.35-.58-4.8 4.35 2.1 4.8-.58-2.1 4.35.58 4.79-4.35-2.09-4.8.58z"/><path style="stroke-width:2.1px;fill:#d9b776;stroke:#161515;stroke-miterlimit:13.97" d="m1722.28 374.74 2.96 4.1 4.71 1.87-4.11 2.96-1.86 4.71-2.96-4.11-4.71-1.86 4.11-2.96 1.86-4.71z"/><path style="stroke-width:2.29px;fill:#d9b776;stroke:#161515;stroke-miterlimit:13.97" d="m1801.58 166.48-1.36-5.35-4.02-3.76 5.35-1.36 3.77-4.03 1.35 5.35 4.03 3.77-5.35 1.36-3.77 4.02z"/><path style="stroke-width:2.18px;fill:#d9b776;stroke:#161515;stroke-miterlimit:13.97" d="m1748.52 271.81-3.27 4.11-.54 5.23-4.11-3.28-5.23-.54 3.27-4.11.54-5.22 4.12 3.27 5.22.54z"/><path style="stroke-width:2.25px;fill:#d9b776;stroke:#161515;stroke-miterlimit:13.97" d="m1736.33 128.17-3.52 4.12-.75 5.36-4.11-3.52-5.37-.74 3.52-4.11.75-5.37 4.11 3.52 5.37.74z"/><path style="stroke-width:2.15px;fill:#d9b776;stroke:#161515;stroke-miterlimit:13.97" d="m1696.88 226.55-1.48-4.96-3.93-3.39 4.97-1.48 3.38-3.92 1.48 4.96 3.92 3.39-4.96 1.48-3.38 3.92z"/><path style="stroke-width:2.04px;fill:#d9b776;stroke:#161515;stroke-miterlimit:13.97" d="m1601.03 556.02 3.2-3.73.68-4.87 3.73 3.2 4.87.68-3.2 3.73-.68 4.87-3.73-3.2-4.87-.68z"/><path style="stroke-width:2.17px;fill:#d9b776;stroke:#161515;stroke-miterlimit:13.97" d="m1510.56 898.42 3.88-3.49 1.39-5.04 3.49 3.88 5.04 1.39-3.88 3.49-1.39 5.04-3.49-3.88-5.04-1.39z"/><path style="stroke-width:2.21px;fill:#d9b776;stroke:#161515;stroke-miterlimit:13.97" d="m1541.92 752.7-3.4-4.1-5.08-1.62 4.1-3.4 1.62-5.08 3.4 4.1 5.08 1.62-4.1 3.4-1.62 5.08z"/><path style="stroke-width:2.01px;fill:#d9b776;stroke:#161515;stroke-miterlimit:13.97" d="m1619.94 239.57-2.04 4.39.64 4.79-4.38-2.04-4.8.65 2.04-4.39-.64-4.79 4.38 2.04 4.8-.65z"/><path style="stroke-width:2.19px;fill:#d9b776;stroke:#161515;stroke-miterlimit:13.97" d="m1606.87 254.82-2.89 4.41-.06 5.27-4.4-2.89-5.28-.06 2.89-4.41.06-5.27 4.41 2.89 5.27.06z"/><path style="stroke-width:2.27px;fill:#d9b776;stroke:#161515;stroke-miterlimit:13.97" d="m1597.64 243.1-5.46-.31-4.76 2.69.31-5.46-2.68-4.76 5.46.31 4.76-2.69-.31 5.46 2.68 4.76z"/><path style="stroke-width:2.04px;fill:#d9b776;stroke:#161515;stroke-miterlimit:13.97" d="m1535.56 783.33-4.31 2.38-2.34 4.32-2.38-4.3-4.32-2.34 4.3-2.38 2.34-4.32 2.38 4.3 4.33 2.34z"/><path style="stroke-width:2.09px;fill:#d9b776;stroke:#161515;stroke-miterlimit:13.97" d="m1557.24 764.18-.42 5.03 2.36 4.46-5.03-.42-4.46 2.36.42-5.03-2.36-4.46 5.03.42 4.46-2.36z"/><path style="stroke-width:2.07px;fill:#d9b776;stroke:#161515;stroke-miterlimit:13.97" d="m1533.05 527.19 3.96 3.05 4.98.42-3.05 3.97-.42 4.98-3.97-3.05-4.98-.43 3.05-3.96.43-4.98z"/><path style="stroke-width:2.17px;fill:#d9b776;stroke:#161515;stroke-miterlimit:13.97" d="m1536.95 877.69-5.19-.59-4.69 2.3.59-5.19-2.3-4.69 5.19.59 4.69-2.3-.59 5.19 2.3 4.69z"/><path style="stroke-width:2.07px;fill:#d9b776;stroke:#161515;stroke-miterlimit:13.97" d="m1498.86 209.04 4.46-2.26 2.54-4.31 2.26 4.46 4.31 2.54-4.46 2.26-2.54 4.31-2.26-4.46-4.31-2.54z"/><path style="stroke-width:1.98px;fill:#d9b776;stroke:#161515;stroke-miterlimit:13.97" d="m1499.13 532.55-.6-4.73-3.05-3.66 4.73-.6 3.66-3.05.59 4.73 3.06 3.66-4.73.6-3.66 3.05z"/><path style="stroke-width:2.08px;fill:#d9b776;stroke:#161515;stroke-miterlimit:13.97" d="m1497.93 547.88 4.17 2.8 5.03.11-2.8 4.17-.12 5.03-4.17-2.81-5.02-.11 2.8-4.17.11-5.02z"/><path style="stroke-width:2.26px;fill:#d9b776;stroke:#161515;stroke-miterlimit:13.97" d="m1431.94 72.89 3.58 4.12 5.24 1.53-4.11 3.58-1.53 5.24-3.58-4.11-5.24-1.53 4.11-3.58 1.53-5.25z"/><path style="stroke-width:2.01px;fill:#d9b776;stroke:#161515;stroke-miterlimit:13.97" d="m1423.69 145.1 4.84.35 4.25-2.31-.35 4.83 2.31 4.26-4.83-.35-4.26 2.31.35-4.84-2.31-4.25z"/><path style="stroke-width:2.25px;fill:#d9b776;stroke:#161515;stroke-miterlimit:13.97" d="m1408.81 23.73-5.28-1.25-5.11 1.79 1.25-5.28-1.79-5.11 5.27 1.25 5.12-1.79-1.25 5.27 1.79 5.12z"/><path style="stroke-width:2.08px;fill:#d9b776;stroke:#161515;stroke-miterlimit:13.97" d="m1464.98 599.64-4.97.69-3.82 3.26-.69-4.98-3.26-3.81 4.97-.69 3.82-3.26.69 4.97 3.26 3.82z"/><path style="stroke-width:2.18px;fill:#d9b776;stroke:#161515;stroke-miterlimit:13.97" d="m1471.7 691.94.41-5.24-2.47-4.64 5.24.42 4.63-2.48-.41 5.24 2.47 4.64-5.24-.42-4.63 2.48zM1361.09 149.72l-5.12-1.22-4.96 1.74 1.22-5.12-1.74-4.96 5.12 1.22 4.96-1.74-1.22 5.11 1.74 4.97z"/><path style="stroke-width:2.11px;fill:#d9b776;stroke:#161515;stroke-miterlimit:13.97" d="m1344.03 125.41-4.47-2.44-5.08.36 2.43-4.47-.36-5.08 4.48 2.44 5.08-.36-2.44 4.47.36 5.08z"/><path style="stroke-width:2.09px;fill:#d9b776;stroke:#161515;stroke-miterlimit:13.97" d="m1373.79 385.2 3.92-3.16 1.6-4.78 3.16 3.92 4.78 1.59-3.92 3.17-1.6 4.77-3.16-3.91-4.78-1.6z"/><path style="stroke-width:1.94px;fill:#d9b776;stroke:#161515;stroke-miterlimit:13.97" d="m1353.38 271.89-1.12 4.54 1.5 4.43-4.54-1.12-4.42 1.5 1.12-4.54-1.51-4.42 4.54 1.12 4.43-1.51z"/><path style="stroke-width:2.24px;fill:#d9b776;stroke:#161515;stroke-miterlimit:13.97" d="m1278.31 5.06 5.4-.05 4.52-2.95.05 5.4 2.95 4.51-5.4.05-4.52 2.96-.05-5.4-2.95-4.52z"/><path style="stroke-width:2.16px;fill:#d9b776;stroke:#161515;stroke-miterlimit:13.97" d="m1480.2 893.4 3.3 4.04 4.95 1.61-4.03 3.31-1.61 4.95-3.3-4.03-4.96-1.62 4.03-3.3 1.62-4.96z"/><path style="stroke-width:1.99px;fill:#d9b776;stroke:#161515;stroke-miterlimit:13.97" d="m1298.69 296.21 1.68-4.5-1.02-4.7 4.51 1.68 4.69-1.02-1.67 4.5 1.01 4.7-4.5-1.68-4.7 1.02z"/><path style="stroke-width:2.3px;fill:#d9b776;stroke:#161515;stroke-miterlimit:13.97" d="m1308.58 383.95 1.89-5.2-1.22-5.41 5.21 1.89 5.41-1.22-1.89 5.21 1.21 5.41-5.21-1.89-5.4 1.21z"/><path style="stroke-width:2.15px;fill:#d9b776;stroke:#161515;stroke-miterlimit:13.97" d="m1345.24 516.2-5.1-.89-4.78 2.01.88-5.1-2.01-4.78 5.11.89 4.78-2.01-.89 5.1 2.01 4.78z"/><path style="stroke-width:1.95px;fill:#d9b776;stroke:#161515;stroke-miterlimit:13.97" d="m1355.7 586.99.28 4.69 2.77 3.81-4.7.28-3.8 2.77-.28-4.7-2.77-3.8 4.7-.28 3.8-2.77z"/><path style="stroke-width:2.01px;fill:#d9b776;stroke:#161515;stroke-miterlimit:13.97" d="m1400.51 766.41 4.68-1.27 3.26-3.6 1.27 4.68 3.6 3.26-4.69 1.27-3.25 3.6-1.27-4.69-3.6-3.25z"/><path style="stroke-width:2.23px;fill:#d9b776;stroke:#161515;stroke-miterlimit:13.97" d="m1367.24 707.55-.71-5.34-3.48-4.11 5.34-.71 4.12-3.48.71 5.34 3.47 4.12-5.34.7-4.11 3.48z"/><path style="stroke-width:2.22px;fill:#d9b776;stroke:#161515;stroke-miterlimit:13.97" d="m1254.1 382.42-3.93 3.63-1.36 5.18-3.62-3.94-5.18-1.35 3.93-3.63 1.35-5.17 3.63 3.93 5.18 1.35z"/><path style="stroke-width:2.12px;fill:#d9b776;stroke:#161515;stroke-miterlimit:13.97" d="m1379.76 775.72-2.44 4.5.36 5.11-4.5-2.45-5.1.37 2.44-4.5-.36-5.11 4.49 2.45 5.11-.37z"/><path style="stroke-width:2.23px;fill:#d9b776;stroke:#161515;stroke-miterlimit:13.97" d="m1163.29 282.39.48-5.35-2.48-4.77 5.35.48 4.76-2.48-.48 5.35 2.49 4.77-5.36-.48-4.76 2.48z"/><path style="stroke-width:2.21px;fill:#d9b776;stroke:#161515;stroke-miterlimit:13.97" d="m1171.43 310.37 3.1 4.34 4.95 1.98-4.34 3.09-1.98 4.95-3.09-4.34-4.95-1.97 4.33-3.1 1.98-4.95z"/><path style="stroke-width:2.22px;fill:#d9b776;stroke:#161515;stroke-miterlimit:13.97" d="m1179.85 358.67-4.4-3.04-5.35-.19 3.04-4.4.19-5.35 4.4 3.04 5.35.19-3.04 4.4-.19 5.35z"/><path style="stroke-width:2.15px;fill:#d9b776;stroke:#161515;stroke-miterlimit:13.97" d="m1216.13 457.3-5.19.17-4.28 2.95-.17-5.19-2.95-4.28 5.19-.17 4.28-2.95.18 5.19 2.94 4.28z"/><path style="stroke-width:2.17px;fill:#d9b776;stroke:#161515;stroke-miterlimit:13.97" d="m1369.63 845.17-4.81-2.03-5.16.88 2.04-4.82-.88-5.15 4.82 2.04 5.15-.88-2.04 4.81.88 5.15z"/><path style="stroke-width:2.08px;fill:#d9b776;stroke:#161515;stroke-miterlimit:13.97" d="m1343.75 750.82 1.88 4.65 4.08 2.91-4.65 1.87-2.9 4.09-1.88-4.65-4.09-2.91 4.66-1.87 2.9-4.09z"/><path style="stroke-width:2.29px;fill:#d9b776;stroke:#161515;stroke-miterlimit:13.97" d="m1020.84 185.65-2.82-4.76-4.93-2.48 4.76-2.82 2.48-4.93 2.82 4.75 4.93 2.49-4.75 2.81-2.49 4.94z"/><path style="stroke-width:2.2px;fill:#d9b776;stroke:#161515;stroke-miterlimit:13.97" d="m982.12 131.82 3.8 3.7 5.2 1.06-3.7 3.8-1.05 5.2-3.81-3.7-5.2-1.06 3.7-3.8 1.06-5.2z"/><path style="stroke-width:1.99px;fill:#d9b776;stroke:#161515;stroke-miterlimit:13.97" d="m1022.44 289.17.46 4.78 2.97 3.77-4.78.46-3.78 2.97-.46-4.78-2.96-3.78 4.78-.46 3.77-2.96z"/><path style="stroke-width:2.09px;fill:#d9b776;stroke:#161515;stroke-miterlimit:13.97" d="m1062.12 385.88 1.42-4.82-1.39-4.82 4.82 1.42 4.83-1.4-1.43 4.83 1.4 4.83-4.83-1.43-4.82 1.39z"/><path style="stroke-width:2.19px;fill:#d9b776;stroke:#161515;stroke-miterlimit:13.97" d="m1147.72 525.53-4.01-3.44-5.24-.74 3.45-4.01.73-5.24 4.02 3.44 5.23.74-3.44 4.01-.74 5.24z"/><path style="stroke-width:2.11px;fill:#d9b776;stroke:#161515;stroke-miterlimit:13.97" d="m902.98 299.85 1.31 4.91 3.75 3.43-4.91 1.31-3.43 3.76-1.31-4.92-3.76-3.43 4.92-1.31 3.43-3.75z"/><path style="stroke-width:2.15px;fill:#d9b776;stroke:#161515;stroke-miterlimit:13.97" d="m1395.51 799.52 1.22 5.04 3.76 3.57-5.04 1.23-3.58 3.75-1.23-5.03-3.75-3.58 5.04-1.23 3.58-3.75z"/><path style="stroke-width:2.24px;fill:#d9b776;stroke:#161515;stroke-miterlimit:13.97" d="m1077.03 557.08-2.1-4.96-4.45-3.05 4.96-2.1 3.05-4.45 2.1 4.97 4.45 3.04-4.96 2.1-3.05 4.45z"/><path style="stroke-width:2.01px;fill:#d9b776;stroke:#161515;stroke-miterlimit:13.97" d="m999.6 653.03 3.22-3.62.76-4.8 3.63 3.23 4.79.75-3.22 3.63-.76 4.79-3.63-3.22-4.79-.76z"/><path style="stroke-width:2.02px;fill:#d9b776;stroke:#161515;stroke-miterlimit:13.97" d="m981.19 833.55 2.78 3.99 4.49 1.86-3.99 2.78-1.87 4.49-2.77-3.99-4.49-1.86 3.99-2.78 1.86-4.49z"/><path style="stroke-width:1.98px;fill:#d9b776;stroke:#161515;stroke-miterlimit:13.97" d="m1236.18 372.96-2.4-4.12-4.25-2.18 4.13-2.4 2.17-4.25 2.4 4.13 4.25 2.17-4.12 2.4-2.18 4.25z"/><path style="stroke-width:2.32px;fill:#d9b776;stroke:#161515;stroke-miterlimit:13.97" d="m1075.77 872.74-4.64-3.11-5.59-.11 3.11-4.64.11-5.59 4.64 3.11 5.59.11-3.11 4.64-.11 5.59z"/><path style="stroke-width:1.97px;fill:#d9b776;stroke:#161515;stroke-miterlimit:13.97" d="m1099.47 982.79-.78 4.69 1.88 4.37-4.69-.78-4.37 1.87.78-4.69-1.87-4.37 4.69.78 4.36-1.87z"/><path style="stroke-width:1.94px;fill:#d9b776;stroke:#161515;stroke-miterlimit:13.97" d="m1148.37 786.01-.78-4.62-3.15-3.46 4.61-.78 3.47-3.15.78 4.62 3.15 3.46-4.62.78-3.46 3.15z"/><path style="stroke-width:2px;fill:#d9b776;stroke:#161515;stroke-miterlimit:13.97" d="m1254.16 321.11 4.35 2.05 4.78-.62-2.06 4.36.63 4.77-4.36-2.05-4.77.62 2.05-4.35-.62-4.78z"/><path style="stroke-width:2.25px;fill:#d9b776;stroke:#161515;stroke-miterlimit:13.97" d="m1252.29 387.16 4.68 2.76 5.43-.2-2.76 4.68.2 5.43-4.68-2.76-5.43.2 2.76-4.68-.2-5.43z"/><path style="stroke-width:2.21px;fill:#d9b776;stroke:#161515;stroke-miterlimit:13.97" d="m1158.88 1067.83 1.61 5.08 4.09 3.41-5.07 1.61-3.41 4.1-1.61-5.08-4.1-3.41 5.08-1.61 3.41-4.1z"/><path style="stroke-width:2.05px;fill:#d9b776;stroke:#161515;stroke-miterlimit:13.97" d="m1275.56 257.72 4.71-1.48 3.17-3.8 1.49 4.71 3.79 3.17-4.71 1.49-3.17 3.79-1.48-4.71-3.8-3.17z"/><path style="stroke-width:1.96px;fill:#d9b776;stroke:#161515;stroke-miterlimit:13.97" d="m1203.04 911.66.42-4.69-2.18-4.18 4.7.42 4.18-2.18-.42 4.69 2.18 4.19-4.7-.42-4.18 2.17z"/><path style="stroke-width:2.08px;fill:#d9b776;stroke:#161515;stroke-miterlimit:13.97" d="m1276.64 396.41 3.85 3.23 4.99.64-3.23 3.85-.65 4.98-3.85-3.23-4.98-.64 3.23-3.85.64-4.98z"/><path style="stroke-width:2.11px;fill:#d9b776;stroke:#161515;stroke-miterlimit:13.97" d="m1254.23 708.86 4.11-3.02 1.83-4.76 3.01 4.11 4.76 1.83-4.11 3.02-1.83 4.75-3.01-4.1-4.76-1.83z"/><path style="stroke-width:2.19px;fill:#d9b776;stroke:#161515;stroke-miterlimit:13.97" d="m1261.38 791.22.14-5.28-2.74-4.53 5.29.14 4.52-2.73-.14 5.28 2.73 4.53-5.28-.14-4.52 2.73z"/><path style="stroke-width:2px;fill:#d9b776;stroke:#161515;stroke-miterlimit:13.97" d="m1326.24 270.4 1.85 4.44 3.96 2.74-4.44 1.85-2.74 3.95-1.86-4.44-3.95-2.74 4.44-1.85 2.74-3.95z"/><path style="stroke-width:2.28px;fill:#d9b776;stroke:#161515;stroke-miterlimit:13.97" d="m1279.78 957.52-5.48-.59-4.92 2.45.59-5.47-2.45-4.92 5.47.59 4.92-2.45-.59 5.47 2.46 4.92z"/><path style="stroke-width:2.22px;fill:#d9b776;stroke:#161515;stroke-miterlimit:13.97" d="m1329.64 351.07-.89-5.28-3.59-3.98 5.28-.88 3.97-3.6.89 5.29 3.59 3.97-5.28.89-3.97 3.59z"/><path style="stroke-width:2.1px;fill:#d9b776;stroke:#161515;stroke-miterlimit:13.97" d="m1330.86 651.94-.49 5.04 2.31 4.52-5.05-.49-4.51 2.31.49-5.05-2.31-4.51 5.05.49 4.51-2.31z"/><path style="stroke-width:2.21px;fill:#d9b776;stroke:#161515;stroke-miterlimit:13.97" d="m1376.88 176.91-4.34 3.11-1.97 4.96-3.12-4.33-4.96-1.98 4.34-3.11 1.97-4.96 3.12 4.34 4.96 1.97z"/><path style="stroke-width:1.96px;fill:#d9b776;stroke:#161515;stroke-miterlimit:13.97" d="m1370.8 372.29 2.87 3.77 4.45 1.62-3.77 2.87-1.62 4.45-2.87-3.77-4.45-1.62 3.77-2.87 1.62-4.45z"/><path style="stroke-width:2.23px;fill:#d9b776;stroke:#161515;stroke-miterlimit:13.97" d="m1377.4 247.85 4.81-2.4 2.76-4.62 2.4 4.81 4.61 2.76-4.81 2.4-2.75 4.61-2.4-4.81-4.62-2.75z"/><path style="stroke-width:2.05px;fill:#d9b776;stroke:#161515;stroke-miterlimit:13.97" d="m1389.92 369.99 4.58 1.88 4.86-.89-1.88 4.58.89 4.86-4.57-1.88-4.87.89 1.88-4.58-.89-4.86z"/><path style="stroke-width:2.16px;fill:#d9b776;stroke:#161515;stroke-miterlimit:13.97" d="m1387.18 820.58-2.17-4.74-4.38-2.82 4.74-2.16 2.82-4.38 2.16 4.73 4.38 2.82-4.73 2.17-2.82 4.38z"/><path style="stroke-width:1.94px;fill:#d9b776;stroke:#161515;stroke-miterlimit:13.97" d="m1410.94 733.62-2.86 3.7-.41 4.65-3.7-2.86-4.66-.41 2.86-3.7.42-4.66 3.7 2.86 4.65.42z"/><path style="stroke-width:2.16px;fill:#d9b776;stroke:#161515;stroke-miterlimit:13.97" d="m1412.18 723.92.06-5.2-2.75-4.42 5.2.07 4.41-2.76-.06 5.2 2.76 4.41-5.2-.06-4.42 2.76z"/><path style="stroke-width:2.23px;fill:#d9b776;stroke:#161515;stroke-miterlimit:13.97" d="m1422.56 833.27-.72-5.32-3.47-4.09 5.32-.72 4.09-3.47.72 5.32 3.47 4.09-5.32.71-4.09 3.48z"/><path style="stroke-width:2.02px;fill:#d9b776;stroke:#161515;stroke-miterlimit:13.97" d="m1446.31 898.92-3.21 3.65-.73 4.81-3.65-3.21-4.81-.73 3.21-3.65.73-4.81 3.66 3.21 4.8.73z"/><path style="stroke-width:2.19px;fill:#d9b776;stroke:#161515;stroke-miterlimit:13.97" d="m1460.52 322.38 1.94-4.92-1.01-5.17 4.91 1.93 5.18-1.01-1.94 4.91 1.02 5.18-4.92-1.94-5.18 1.02z"/><path style="stroke-width:1.95px;fill:#d9b776;stroke:#161515;stroke-miterlimit:13.97" d="m1463.18 1089.3-3.18-3.44-4.55-1.18 3.44-3.19 1.18-4.54 3.19 3.44 4.54 1.18-3.44 3.19-1.18 4.54z"/><path style="stroke-width:2.08px;fill:#d9b776;stroke:#161515;stroke-miterlimit:13.97" d="m1486.97 627.61-2.89 4.08-.24 5-4.08-2.89-5-.24 2.89-4.08.24-5 4.08 2.9 5 .23z"/><path style="stroke-width:2.28px;fill:#d9b776;stroke:#161515;stroke-miterlimit:13.97" d="m1494.12 792.88.86 5.45 3.66 4.11-5.44.86-4.12 3.66-.86-5.44-3.66-4.11 5.44-.87 4.12-3.66z"/><path style="stroke-width:2.22px;fill:#d9b776;stroke:#161515;stroke-miterlimit:13.97" d="m1503.21 584.65 4.29 3.19 5.33.36-3.19 4.29-.36 5.34-4.29-3.19-5.34-.37 3.19-4.29.37-5.33z"/><path style="stroke-width:2.24px;fill:#d9b776;stroke:#161515;stroke-miterlimit:13.97" d="m1513.49 1039.49-.05 5.39 2.87 4.58-5.4-.06-4.57 2.87.05-5.39-2.86-4.57 5.39.05 4.57-2.87z"/><path style="stroke-width:2.1px;fill:#d9b776;stroke:#161515;stroke-miterlimit:13.97" d="m1531.97 350.37-.88-4.99-3.44-3.73 4.99-.88 3.73-3.44.88 4.99 3.44 3.73-4.99.89-3.73 3.43z"/><path style="stroke-width:2.27px;fill:#d9b776;stroke:#161515;stroke-miterlimit:13.97" d="m1549.41 917.84-4.88-2.47-5.45.56 2.46-4.89-.56-5.44 4.89 2.46 5.45-.56-2.47 4.89.56 5.45z"/><path style="stroke-width:2.09px;fill:#d9b776;stroke:#161515;stroke-miterlimit:13.97" d="m1563.38 352.96-4.28-2.63-5.02.09 2.63-4.28-.09-5.03 4.28 2.64 5.03-.1-2.64 4.29.09 5.02z"/><path style="stroke-width:1.96px;fill:#d9b776;stroke:#161515;stroke-miterlimit:13.97" d="m1563.66 890 4.4-1.74 2.76-3.84 1.74 4.39 3.83 2.77-4.39 1.74-2.76 3.83-1.74-4.39-3.84-2.76z"/><path style="stroke-width:2.29px;fill:#d9b776;stroke:#161515;stroke-miterlimit:13.97" d="m1582.49 503.87 2.56 4.91 4.8 2.75-4.91 2.55-2.75 4.8-2.56-4.9-4.79-2.76 4.9-2.55 2.75-4.8z"/><path style="stroke-width:2.31px;fill:#d9b776;stroke:#161515;stroke-miterlimit:13.97" d="m1590.36 239.05 5.03 2.39 5.53-.71-2.39 5.03.71 5.53-5.03-2.39-5.53.71 2.39-5.03-.71-5.53z"/><path style="stroke-width:2.04px;fill:#d9b776;stroke:#161515;stroke-miterlimit:13.97" d="m1600.6 382.26 4.47 2.06 4.87-.66-2.07 4.46.67 4.88-4.46-2.07-4.88.66 2.07-4.46-.67-4.87z"/><path style="stroke-width:2.27px;fill:#d9b776;stroke:#161515;stroke-miterlimit:13.97" d="m1621.63 601.43-5.18-1.79-5.33 1.29 1.79-5.18-1.28-5.33 5.18 1.79 5.33-1.29-1.79 5.18 1.28 5.33z"/><path style="stroke-width:1.99px;fill:#d9b776;stroke:#161515;stroke-miterlimit:13.97" d="m1634.76 679.13-4.61 1.35-3.16 3.63-1.36-4.61-3.63-3.15 4.62-1.36 3.15-3.63 1.36 4.61 3.63 3.16z"/><path style="stroke-width:2.13px;fill:#d9b776;stroke:#161515;stroke-miterlimit:13.97" d="m1644.67 1002.2-2.92-4.23-4.74-1.99 4.23-2.92 1.98-4.75 2.93 4.23 4.74 1.99-4.23 2.93-1.99 4.74z"/><path style="stroke-width:2.16px;fill:#d9b776;stroke:#161515;stroke-miterlimit:13.97" d="m1647.23 289.7 1.55-4.96-1.38-5.01 4.96 1.54 5.02-1.38-1.55 4.96 1.38 5.02-4.96-1.55-5.02 1.38z"/><path style="stroke-width:2.04px;fill:#d9b776;stroke:#161515;stroke-miterlimit:13.97" d="m1672.84 1039.97-4.29-2.39-4.91.3 2.39-4.29-.3-4.91 4.29 2.39 4.91-.3-2.39 4.29.3 4.91z"/><path style="stroke-width:2.29px;fill:#d9b776;stroke:#161515;stroke-miterlimit:13.97" d="m1674.99 928.26 4.32-3.42 1.79-5.22 3.42 4.32 5.22 1.79-4.32 3.43-1.79 5.21-3.43-4.32-5.21-1.79z"/><path style="stroke-width:1.98px;fill:#d9b776;stroke:#161515;stroke-miterlimit:13.97" d="m1687.26 886.06 1.44-4.56-1.26-4.61 4.56 1.43 4.61-1.25-1.43 4.56 1.25 4.61-4.55-1.43-4.62 1.25z"/><path style="stroke-width:2.17px;fill:#d9b776;stroke:#161515;stroke-miterlimit:13.97" d="m1694.57 428.61 2.8-4.41-.02-5.23 4.42 2.8 5.23-.02-2.81 4.42.02 5.23-4.41-2.8-5.23.01z"/><path style="stroke-width:2.25px;fill:#d9b776;stroke:#161515;stroke-miterlimit:13.97" d="m1710.56 1075.44 1.91-5.07-1.14-5.31 5.08 1.9 5.3-1.13-1.9 5.07 1.14 5.31-5.08-1.9-5.31 1.13z"/><path style="stroke-width:2.1px;fill:#d9b776;stroke:#161515;stroke-miterlimit:13.97" d="m1717.58 177.46 5.06.15 4.34-2.6-.15 5.06 2.6 4.34-5.06-.15-4.34 2.6.15-5.06-2.6-4.34z"/></g></symbol><style>.a,.c,.e{fill:none}.c,.e{stroke:#d9b776}.c{stroke-miterlimit:11.34;stroke-width:1.42px}.e{stroke-miterlimit:10;stroke-width:16px}.g{fill:#161515}</style></defs><use width="3002" height="1536" transform="translate(-1.47)" xlink:href="#f"/><use width="2189.74" height="2284.93" transform="translate(-2142.78 -364.93)" xlink:href="#g"/></svg>