<svg xmlns="http://www.w3.org/2000/svg" xmlns:xlink="http://www.w3.org/1999/xlink" viewBox="0 0 1979.84 1082.74"><defs><style>.a,.b,.d,.g,.h,.i{fill:none;}.b,.d,.g,.h,.i{stroke:#d9b776;}.b,.d{stroke-miterlimit:11.34;stroke-width:1.42px;}.c{clip-path:url(#a);}.d{stroke-linecap:square;}.e{clip-path:url(#b);}.f{fill:#161515;}.g,.h,.i{stroke-miterlimit:8.09;}.g{stroke-width:6.96px;}.h{stroke-width:7.65px;}.i{stroke-width:8.35px;}.j{opacity:0.7;fill:url(#c);}.k{opacity:0.6;fill:url(#d);}.l{opacity:0.5;fill:url(#e);}.m{opacity:0.4;fill:url(#f);}</style><clipPath id="a"><rect class="a" width="153.43" height="153.43"/></clipPath><clipPath id="b"><rect class="a" x="30.11" width="1920" height="1080"/></clipPath><pattern id="c" width="153.43" height="153.43" patternTransform="translate(545.26 744.55) scale(1.93 1)" patternUnits="userSpaceOnUse" viewBox="0 0 153.43 153.43"><rect class="a" width="153.43" height="153.43"/><g class="c"><path class="b" d="M153.43,10.63H0M153.43,22.46H0M153.43,34.33H0m153.6,84H0M153.43,129H0M153.43,45.73H0M153.43,55H0m153.43,9.71H0M153.43,76.22H0M153.43,87H0m153.6,11.9H0M153.43,108H0m153.43,43H0M16.8,10.63V0M52.94,10.63V0M91.2,10.63V0M132,10.63V0M16.8,153.43V151m36.14,2.41V151m38.26,2.41V151M132,153.43V151M35.72,22.43v-12m42.16,12v-12m38.62,12v-12m36.36,12v-12M20,34.3V22.82M57.51,34.3V22.82M96,34.3V22.82M138.3,34.3V22.82M113.85,45.64V34.3M75.93,45.64V34.3M33.77,45.64V34.3M151.41,45.64V34.3M132,55V45.64M90.5,55V45.64M52.94,55V45.64M16.8,55V45.64M35.36,64.7V55M77.88,64.7V55m39,9.71V55M153,64.7V55M18.89,76.18V64.7M57.15,76.18V64.7M95.78,76.18V64.7m42.16,11.48V64.7M113.49,87V76.36M75.72,87V76.36M33.2,87V76.36M151,87V76.36M15.66,98.86V87.13M52.51,98.86V87.13M91.13,98.86V87.13m40.4,11.73V87.13M119.62,108V99m-40.11,9V99m-42.87,9V99m-35.2,9V99m18.07,19.24v-10.1m37.56,10.1v-10.1m38.62,10.1v-10.1m42.17,10.1v-10.1m-23.67,20.9V118.42M74.86,129.08V118.42M33.61,129.08V118.42m118.7,10.66V118.42m1.12,23.07H0m29.18,9.74v-9.82m40.93,9.82v-9.82m38.62,9.82v-9.82m37.92,9.82v-9.82M13,141.41V129.08m36.85,12.33V129.08m39.68,12.33V129.08m41.28,12.33V129.08M26,30.93l5.32-4.6m6.2-.18,3.19,5m6.2-.18,6.73-4.25m49.43,4.25,5.32-4.6m6.2-.18,3.18,5m7.62-.18,6.74-4.25m-13.11,16L124.37,38m6.2-.18,3.19,5m6.2-.17,6.73-4.26M41.46,42.27l5.31-4.6m6.2-.18,3.19,5m6.2-.18L69.09,38m-11,14.53,5.32-4.61m6.2-.18,3.18,5M79,52.55l6.73-4.25M17.89,137.76l5.32-4.6m6.2-.18,3.19,5m6.2-.18,6.73-4.25m-9.39,15.42,5.32-4.61m6.2-.18,3.19,5m6.2-.17,6.73-4.26m49.61,3.72,5.31-4.6m6.2-.18,3.19,5m6.2-.18,6.73-4.25m-39-10.63-5.32,4.61m11.52-4.79,3.19,5m6.2-.18,6.73-4.25m-42.87-7.8,5.31-4.61m6.2-.17,3.19,5m6.2-.18,6.73-4.25m-106.3,3.9,5.32-4.61m8,4.78-3.19-5m9.39,4.79,6.74-4.26M25,116l5.32-4.6m6.2-.18,3.19,5m6.2-.18,6.73-4.25m50,3.72,5.31-4.61m6.2-.17,3.19,5m6.2-.18,6.74-4.25m-5.5-5.49,5.32-4.61m8.4,4.78-3.19-5m7.69,4.79,6.73-4.25m-99.36,0L45,106.05m14.7.18-3.18-5m9.39,4.78,6.73-4.25M58.46,95.42l5.32-4.6m6.2-.18,3.19,5m6.2-.18,6.73-4.25m-5-7.44,5.32-4.61m9.39,4.79-3.19-5m9.39,4.78,6.73-4.25M1.42,84.08l5.31-4.6m9.39,4.78-3.19-5m16.13.53-6.74,4.25M10.63,73.35l4.25-4.86M3.54,95.07l6.74-4.25M42.52,62.47l5.31-4.61M54,57.69l3.18,5m6.21-.18,6.73-4.25M62,72.74l5.31-4.6m6.2-.18,3.19,5m6.2-.18,6.74-4.25m31.18-6.38,5.31-4.6m6.2-.18,3.19,5m6.2-.18,6.73-4.25M3.54,52.9l6.74-4.25M42.87,18.89l5.32-4.61m6.2-.18,3.19,5m6.2-.17,6.73-4.26m50.32,4.61,5.31-4.61m6.2-.17,3.19,5m6.2-.18L148.46,15M59,7.07l5.31-4.61m6.2-.18,3.19,5m6.2-.17,6.73-4.26m56-.17-5.32,4.6m11.52-4.78,3.19,5M5.14,7.07l6.73-4.26M147.76,31.29l-5.32-4.61M.89,31.46l3.19-5m4.07.18,6.74,4.25m47.3-4.25,5.31,4.61m7.44.35,3.19-5m6,.18,6.74,4.25M8.1,42.45,2.79,37.84m10.1,4.79,3.19-5m6.2.17L29,42.09m52.31-4.25,5.31,4.61m6.2.18,3.19-5m6.2.17L109,42.09M97.09,48.3l5.31,4.6m6.2.18,3.19-5m6.2.18,6.73,4.25M89.29,62.47,84,57.86m11.51,4.79,3.19-5m6.2.17,6.73,4.25M20.91,48.47l5.31,4.61m6.2.18,3.19-5m6.2.17,6.73,4.25m-44,5,5.31,4.6m4.36.18,3.19-5M30.3,61.94l-6.74-4.25m.18,11.16,5.32,4.6m6.2.18,3.18-5M51.38,73.1l-6.73-4.25M40,79.3l5.31,4.61m6.21.17,3.18-5m12.94,4.43L60.94,79.3M19.84,90.64l5.32,4.6m6.2.18,3.19-5m12.93,4.43-6.73-4.25M6.59,101.27l5.32,4.6m5.82.18,3.19-5m4.59.18,6.73,4.25M97.44,91l5.32,4.61m6.2.18,3.19-5m6.2.17,6.73,4.25m-2-11-5.32-4.61m11.52,4.79,3.19-5m6.2.17,6.73,4.26M109,73.45l-5.32-4.6m11.52,4.78,3.19-5m12.93,4.43-6.73-4.25m-38.62,32.6,5.31,4.6m6.2.18,3.19-5m6.2.18,6.73,4.25M62,111.37l5.31,4.6m6.2.18,3.19-5m12.94,4.43-6.74-4.25M-.71,115.8l3.19-5m6.2.18,6.73,4.25m24.1,6.38,5.31,4.61m6.2.18,3.19-5m6.2.18,6.74,4.25m52.44-4.25,5.31,4.61m6.2.18,3.19-5m6.2.18,6.73,4.25m-91.94,7.44,5.31,4.61m6.2.18,3.19-5m6.2.17,6.73,4.26m-7.44,6.91,5.32,4.6m6.2.18,3.19-5m6.2.18,6.73,4.25M-1.7,144.32l5.31,4.61m6.2.17,3.19-5m5.5.18,6.73,4.25M.89,133.16l6.73,4.25M102.76,7.77l-5.32-4.6M109,8l3.19-5m6.2.18,6.73,4.25m-104-5L26.4,7.07m6.2.17,3.19-5m6.2.18,6.73,4.25m-44.5,8.1,5.31,4.61m4.64.17,3.19-5M30.3,19.06l-6.74-4.25m64.49,4.43-5.31-4.61m11.51,4.79,3.19-5m12.93,4.43-6.73-4.26M144.57,73.1l5.31-4.61M2,68.32l3.19,5M136.06,95.07l5.32-4.61m6.2-.18,3.19,5M136.06,52.9l5.32-4.6m6.2-.18,3.19,5M141.2,111l5.32,4.61m9.39-4.79-3.19,5m-1,28.52,5.32,4.61m-23.63-15.77,5.31,4.6m6.2.18,3.19-5"/></g></pattern><pattern id="d" width="206.1" height="206.1" patternTransform="translate(759.45 772.43) scale(0.97 0.5)" patternUnits="userSpaceOnUse" viewBox="0 0 206.1 206.1"><rect class="a" width="206.1" height="206.1"/><path class="d" d="M1,59.74C10,47.48,20.2,32,23.8,24.36M43.58,1A151.17,151.17,0,0,1,31.13,16.27m51.2,2.84C76.66,31.15,58.94,56,51.15,63.75M104,68.15c-5.66,12-29.29,40.57-37.08,48.36M148.21,1c-8.54,14.86-29.82,44.4-36.77,51.35M46,74.28c-7,11.35-27.31,34-35.93,40.93m-3.19,8A101.62,101.62,0,0,1,1,131.55M98.05,1a95,95,0,0,1-6.5,7.32M63.74,128.14c-6.23,10.15-32.85,42.91-44,51.83m98.74-57.87c-4.45,9.45-18.89,22.2-27.57,33-2.37,2.95-4.51,5.42-6.18,7.1M158.1,68c-4.46,9.46-18.9,22.2-27.57,33a91,91,0,0,1-6.19,7.1m51.83-1.28c-4.45,9.46-18.9,22.2-27.57,33a91,91,0,0,1-6.19,7.1m57.85-137c-4.45,9.46-18.89,22.2-27.56,33-2.38,3-4.52,5.41-6.19,7.09M205.1,59c-5.37,7.35-10.34,13.66-13.29,16.6m13.29,55.24-.06.07c-9,11.87-22.69,35.37-29.62,40.91m-99.94-2.32C72,176.83,51.19,195,43.73,205.1m119.21-22.76c-1,2.18-13.8,19.22-15.93,22.69l0,.07m-16.54-45.89c-4.7,9.56-21.6,33-32.23,45.88m104.51-31.26c-4.63,6.38-17.13,21.4-25.91,31.27M68.69,1c-1.44,1.67-2.9,3.33-4.36,5m-4.58,5-2.33,2.45M64.33,6c-1.55,1.72-3.08,3.39-4.58,5M171.84,6.28l-1,1m5.54-6c-1.71,1.91-3.25,3.59-4.57,5M9.54,80.09c-.93,1.29-2,2.67-3.07,4.07M2.21,89.47,1,90.92m5.47-6.76q-2,2.58-4.26,5.31m58.26.15c-1.49,1.8-3,3.54-4.37,5.2m0,0c-1.63,1.93-3.19,3.74-4.6,5.32M73.34,73.61c-1.29,1.65-2.68,3.42-4.14,5.25m-4.34,5.4c-1.46,1.8-2.94,3.6-4.39,5.36M69.2,78.86l-4.34,5.4M79.22,65.85c-.43.6-1,1.29-1.5,2m0,0c-1.22,1.63-2.71,3.57-4.38,5.72M51.5,100.14c-1.25,1.4-2.39,2.64-3.37,3.65m72.32-90.44q-2.08,2.7-4.32,5.43m-4.45,5.29c-1.52,1.76-3.06,3.48-4.61,5.13m9.06-10.42c-1.45,1.78-2.94,3.55-4.45,5.29m-4.61,5.13c-.61.66-1.22,1.32-1.83,1.95M126.53,5.26c-.6.83-1.24,1.69-1.87,2.55m0,0c-1.33,1.79-2.74,3.65-4.21,5.54M205.1,90.29q-1.74,2.07-3.55,4.17m-9.24,10.24-1.9,2m11.14-12.23c-1.5,1.74-3,3.47-4.56,5.17m0,0c-1.58,1.75-3.15,3.44-4.68,5.07m-147.79-70c-1.4,1.81-2.91,3.7-4.49,5.62m0,0c-1.39,1.68-2.83,3.38-4.3,5.09M47.28,31c-.85,1.17-1.79,2.41-2.76,3.67M31.16,50.56C29.57,52.32,28,54,26.48,55.63m9.25-10.24c-1.52,1.74-3,3.48-4.57,5.17m-4.68,5.07-1.9,2M148.34,41.24c-1.32,1.82-2.7,3.7-4.11,5.63M135.9,58c-1.46,1.92-2.89,3.78-4.24,5.5m20.77-27.94,4-5.56M144.23,46.87c-1.37,1.86-2.76,3.73-4.15,5.6m12.35-16.88c-1.25,1.75-2.63,3.64-4.09,5.65M156.44,30l1.24-1.71m-17.6,24.15c-1.4,1.89-2.81,3.75-4.18,5.56m-4.24,5.5c-1.57,2-3,3.82-4.36,5.39m0,0c-1.26,1.5-2.38,2.79-3.32,3.76m19.88,41.85c-.61.64-1.22,1.3-1.81,1.91m6.4-6.87c-1.55,1.72-3.09,3.37-4.59,5m13.63-15.42c-1.41,1.72-2.89,3.45-4.38,5.18m8.71-10.59c-1.35,1.75-2.8,3.56-4.33,5.41m-4.38,5.18c-1.54,1.78-3.1,3.55-4.66,5.27m16.29-19.73c-.89,1.23-1.88,2.54-2.92,3.87m-13.4,83.87c-1.08,1.16-2.15,2.28-3.19,3.36m21.08-24.45c-1.36,1.81-2.85,3.71-4.44,5.66m6.06-7.82c-.5.69-1.07,1.43-1.62,2.16m-13.25,16c-1.56,1.74-3.11,3.46-4.64,5.1m9.18-10.3c-1.49,1.74-3,3.48-4.54,5.2m8.81-10.33q-2.06,2.54-4.27,5.13M19.2,145.44c-.81.86-1.62,1.72-2.41,2.53m11.55-12.7c-1.53,1.78-3.09,3.54-4.65,5.27m0,0c-1.51,1.69-3,3.33-4.49,4.9M32.79,130q-2.16,2.63-4.45,5.3m11.14-13.9c-.72,1-1.48,2-2.3,3.07m0,0c-1.35,1.77-2.84,3.63-4.39,5.52m47.47,60.9c-.83,1.14-1.73,2.34-2.68,3.56m-4.16,5.22C72,201.4,70.5,203.17,69,205m8.62-10.52c-1.29,1.69-2.7,3.44-4.16,5.22m-3.78-52.32c-.89,1-1.72,1.9-2.45,2.65m11.37-13c-1.54,1.85-3,3.63-4.45,5.29M83,131.59c-1.47,1.81-2.94,3.61-4.39,5.35m20.3-25.71c-.79,1.09-1.82,2.47-3,4m-21.74,27c-1.62,1.9-3.12,3.61-4.47,5.11m17.74-21.25c-1.45,1.81-2.93,3.66-4.43,5.5m8.65-10.84c-1.33,1.71-2.75,3.5-4.22,5.34m8.47-10.83c-1.25,1.64-2.69,3.5-4.25,5.49M40,40.3,1,1.27m39,39L73.34,73.61m0,0,88.53,88.53m42.95,43-42.95-43m-4.27,5.13,37.83,37.83M69.2,78.86,35.73,45.39M69.2,78.86l88.4,88.41M1,10.66,35.72,45.39m150,159.71-32.63-32.63M1,20.41,31.16,50.56m33.7,33.7-33.7-33.7m64.69,64.7-31-31m88.2,88.21L95.85,115.26M26.48,55.63l34,34M91.6,120.75,60.47,89.62m87.95,87.95,27.52,27.53m-27.52-27.53L91.6,120.75M26.48,55.63,1,30.15m86.38,95.94L56.1,94.82M1,39.72l55.1,55.1m31.28,31.27,79,79M83,131.59,51.5,100.14M83,131.59l73.51,73.51m-105-105L1,49.64m77.56,87.3L1,59.39m77.56,77.55,68.15,68.16M74.1,142.23,137,205.1M74.1,142.23,1,69.13m5.46,15L1,78.7m5.47,5.46,63.17,63.17M127.4,205.1,69.64,147.33M37.18,124.44l-35-35m0,0L1,88.26m36.18,36.18,80.65,80.66M32.79,130l75.12,75.13M32.79,130,1,98.19M98.17,205.1,28.34,135.27m0,0L1,107.93m22.69,32.61,53.89,53.89M88.25,205.1,77.58,194.43M23.69,140.54,1,117.85m72.42,81.8L19.2,145.44m0,0L1,127.24m72.42,72.41,5.44,5.45M1,137l68,68m-9.78.15L1,146.91m0,9.56L49.62,205.1m-9.74,0L1,166.22M30.14,205.1,1,176M20.39,205.1,1,185.7m9.65,19.4L1,195.45M195.27,1l9.83,9.83M186.05,1l19,19.05M176.4,1.28,205.1,30M171.84,6.28,166.57,1M205.1,39.53,171.84,6.28M205.1,49.45,156.64,1M146.9,1l58.2,58.2m0,9.74L137.16,1m-9.75,0,29,29M205.1,78.69,156.44,30M205.1,88.25,152.43,35.59m0,0L124.66,7.81m0,0L117.85,1M108.1,1l12.35,12.35m27.89,27.89L120.45,13.35m81.1,81.11L148.34,41.24M205.1,98l-3.54-3.54M116.14,18.78l28.09,28.09M197,99.63l8.11,8.11m-89-89L98.36,1m45.87,45.87L197,99.63M111.68,24.07,88.61,1m23.07,23.07,28.4,28.4m65,65L192.31,104.7m0,0L140.08,52.47M78.87,1l28.2,28.2M135.9,58l69.2,69.2M135.9,58,107.07,29.2M69.12,1l62.54,62.53M161.82,93.7,131.66,63.53M161.82,93.7,205.1,137m-77.8-68-63-63m0,0L59.38,1m98.11,98.11,47.61,47.61M157.49,99.11,127.3,68.92m25.81,35.38L59.75,10.94m0,0L49.81,1m103.3,103.29,52,52m-56.65-46.72,56.65,56.65M39.89,1,148.45,109.56m-4.59,5,61.24,61.24m-61.24-61.24L30.33,1M205.1,185.52,20.58,1M44.52,34.68,10.84,1M205.1,195.26l-38.79-38.78M77.72,67.89l88.6,88.59M77.72,67.89,44.52,34.68"/></pattern><pattern id="e" width="153.43" height="153.43" patternTransform="translate(842.22 772.34) scale(0.97 0.5)" patternUnits="userSpaceOnUse" viewBox="0 0 153.43 153.43"><rect class="a" width="153.43" height="153.43"/><path class="b" d="M152.86,10.63h.57m-100.49,0H77.88m54.08,0h20.9m-99.92,0H38.62M0,10.63H12.54m119.42,0H87m-74.41,0H38.62m48.33,0H77.88M0,22.46H153.43m-2,11.87h2m-2,0H116.66m0,0H75.93M0,34.33H75.93m15.51,83.94H57.07m0,0H35.9m80.61,0H91.44m46.42,0H116.51m-80.61,0H15.26M0,118.27H15.26m138.16,0H137.86M74.86,129H110m-35.14,0H29.43m122.89,0H110m43.43,0h-1.11M0,129H29.43M90.5,45.73H16.8m73.7,0h42.72m20.21,0H133.22M0,45.73H16.8M0,55H35.36m44.12,0h37.38M153,55h.45M153,55H116.86M35.37,55H79.48m74,9.7H137.94m-80.78,0h80.78M0,64.73H57.16M0,76.22H153.43M0,87H153.43M0,98.89H153.43M0,108H153.43m-10.93,43H132m10.54,0h10.93m-124.25,0H20.73m32.21,0H29.19m102.76,0H108.73m-42.77,0h-13m13,0H94.79m0,0h13.94M0,151.05H20.73M12.54,10.63,19.2,0M52.94,10.63V0M93.38,0,87,10.63m45,0V0M31.47,22.43l7.15-11.8m39.26-.18v.18m0,11.8V10.63m41.71.18-7.34,11.62m40.61,0V10.63m0,0v-.18M23,22.5,15.7,34.3M57.51,22.82V34.3M98.86,22.5,91.7,34.3m46.6-11.48V34.3m-21.64,0L109.6,45.64m7.06-11.31.09-.14m-40.82.11v0m0,11.31V34.33m-39.43,0-7,11.27M151.41,34.33V45.64m0-11.31v0M127.7,55l5.52-9.26m0,0v0m-42.72,0V55m0-9.35v.09m-36.11.16L48.69,55M16.8,45.64v.09m0,9.26V45.73m18.56,19V55m0,0v0M73.63,64.7,79.48,55m.07-.11-.07.11m37.38,0v0m0,9.67V55M153,55l-6.11,9.64M153,55l0,0M21.79,64.84,14.64,76.18m42.52,0V64.73m0,0v0M91.53,76.18l7.15-11.34m39.26-.14v0m0,11.45V64.73M109.24,87l6.45-10.59m-40,0V87M35.43,76.36,29,87M151,76.36V87M18.6,87.34,11.41,98.86m41.1-11.73V98.86m34.37,0,7.37-11.69m37.28,0V98.86m-10.7.18-5.46,9M79.51,99v9M37.74,99.21,32.39,108M1.44,99v9m20.35.07-6.53,10.2m41.81-10.1v10.1m34.37,0,6.35-10.2m40.07.1v10.1m-21.35,0L110,129m6.58-10.81-.07.1m-6.57,10.81.06-.1m-35.14.1V129m0-10.56V129m-45.5.1.07-.1m6.47-10.7L29.43,129M36,118.17l-.06.1m116.42,10.81V129m0-10.56V129m-3.92,12.5H108.73m-37,0h37m-37,0H29.19m119.21,0h5M0,141.48H29.19m0-.07v.07m0,9.57v.18m0-.18v-9.57m42.5,0,.06-.1M66,151.05l5.72-9.57M66,151.05l-.1.18m42.87,0v-.18m0-9.64v.07m0,9.57v-9.57m39.67,0,.06-.1m-6,9.67,5.9-9.57m-5.9,9.57-.11.18M13,129.08v12.33m32.6,0,7.59-12.08m36.34,12.08V129.08m37,12.33,7.42-12.26m-81,24.28v-2.38m79,2.38v-2.38M19.23,153.43l1.5-2.38m.18-.28-.18.28m74.06,0-1.43,2.38m1.43-2.38.17-.28"/></pattern><pattern id="f" width="140.91" height="140.91" patternTransform="matrix(0.46, -0.29, 0.56, 0.24, 1230.22, 767.52)" patternUnits="userSpaceOnUse" viewBox="0 0 140.91 140.91"><rect class="a" width="140.91" height="140.91"/><path class="b" d="M7.22,4.8C5.63,5.5,4.56,6.39,5.8,8.69s1.07,3.19-.17,4.61M3.14,10.47c-1.59-4.79.18-7.09,2.49-8.86m2.48,6.2c1.06,1.59,1.41,7.26-1.24,9.92m12.75,9.92c1.24-1.42,1.42-2.3.18-4.61s-.18-3.19,1.42-3.89m-4.08,5.67c-1.6-4.79.18-7.09,2.48-8.86m2.48,6.2c1.07,1.59,1.42,7.26-1.24,9.92M5.63,41.47c1.24-1.42,1.41-2.31.17-4.61S5.63,33.67,7.22,33M3.14,38.63c-1.59-4.78.18-7.08,2.49-8.85M8.11,36c1.06,1.59,1.41,7.26-1.24,9.92M19.8,55.47c1.24-1.42,1.42-2.31.18-4.61s-.18-3.19,1.41-3.9m-4.07,5.67c-1.6-4.78.17-7.09,2.48-8.86M22.28,50c1.06,1.6,1.42,7.27-1.24,9.92M5.62,69.64C6.87,68.22,7,67.34,5.8,65s-.18-3.19,1.42-3.9M3.14,66.8C1.55,62,3.32,59.72,5.63,58m2.48,6.2c1.06,1.59,1.41,7.26-1.24,9.92m12.75,9.74c1.24-1.42,1.42-2.3.18-4.6s-.18-3.19,1.42-3.9M17.14,81c-1.6-4.79.18-7.09,2.48-8.86m2.48,6.2c1.07,1.59,1.42,7.26-1.24,9.92M5.62,97.81c1.25-1.42,1.42-2.3.18-4.61S5.62,90,7.22,89.3M3.14,95c-1.59-4.78.18-7.08,2.49-8.86m2.48,6.21c1.06,1.59,1.41,7.26-1.24,9.92m12.75,9.56c1.24-1.41,1.42-2.3.18-4.6s-.18-3.19,1.42-3.9M17.14,109c-1.6-4.78.18-7.09,2.48-8.86m2.48,6.2c1.07,1.59,1.42,7.26-1.24,9.92M5.62,126.15c1.25-1.41,1.42-2.3.18-4.6s-.18-3.19,1.42-3.9m-4.08,5.67c-1.59-4.78.18-7.09,2.49-8.86m2.48,6.2c1.06,1.6,1.41,7.27-1.25,9.92M19.62,140c1.24-1.41,1.42-2.3.18-4.6s-.18-3.19,1.42-3.9m-4.08,5.67c-1.6-4.78.18-7.09,2.48-8.86m2.48,6.2c.7,1.05,1.09,3.87.52,6.43M33.79,13.3C35,11.88,35.21,11,34,8.69S33.79,5.5,35.39,4.8m-4.08,5.67c-1.59-4.79.18-7.09,2.48-8.86m2.49,6.2c1.06,1.59,1.41,7.26-1.25,9.92m12.76,9.92C49,26.23,49.21,25.35,48,23s-.18-3.19,1.41-3.89m-4.07,5.67c-1.6-4.79.18-7.09,2.48-8.86m2.48,6.2c1.07,1.59,1.42,7.26-1.24,9.92M33.79,41.47c1.25-1.42,1.42-2.31.18-4.61s-.18-3.19,1.42-3.89m-4.08,5.66c-1.59-4.78.18-7.08,2.48-8.85M36.28,36c1.06,1.59,1.41,7.26-1.25,9.92M48,55.47c1.24-1.42,1.41-2.31.18-4.61S48,47.67,49.56,47m-4.07,5.67c-1.6-4.78.17-7.09,2.48-8.86M50.45,50c1.06,1.6,1.42,7.27-1.24,9.92M33.79,69.64C35,68.22,35.21,67.34,34,65s-.18-3.19,1.42-3.9M31.31,66.8c-1.59-4.78.18-7.08,2.48-8.85m2.49,6.2c1.06,1.59,1.41,7.26-1.25,9.92m12.76,9.74c1.24-1.42,1.42-2.3.18-4.6s-.18-3.19,1.42-3.9M45.31,81c-1.6-4.79.18-7.09,2.48-8.86m2.48,6.2c1.07,1.59,1.42,7.26-1.24,9.92M33.79,97.81c1.24-1.42,1.42-2.3.18-4.61s-.18-3.19,1.42-3.9M31.31,95c-1.59-4.78.18-7.08,2.48-8.86m2.49,6.21c1.06,1.59,1.41,7.26-1.25,9.92m12.76,9.56c1.24-1.41,1.42-2.3.18-4.6s-.18-3.19,1.42-3.9M45.31,109c-1.6-4.78.18-7.09,2.48-8.86m2.48,6.2c1.07,1.59,1.42,7.26-1.24,9.92m-15.24,9.92c1.24-1.41,1.42-2.3.18-4.6s-.18-3.19,1.42-3.9m-4.08,5.67c-1.59-4.78.18-7.09,2.48-8.86m2.48,6.2c1.07,1.6,1.42,7.27-1.24,9.92M47.79,140c1.24-1.41,1.42-2.3.18-4.6s-.18-3.19,1.41-3.9m-4.07,5.67c-1.6-4.78.18-7.09,2.48-8.86m2.3,6.2c.7,1.05,1.09,3.87.53,6.43M61.79,13.3C63,11.88,63.2,11,62,8.69S61.79,5.5,63.38,4.8m-4.07,5.67c-1.6-4.79.17-7.09,2.48-8.86m2.48,6.2c1.06,1.59,1.42,7.26-1.24,9.92m12.75,9.92C77,26.23,77.2,25.35,76,23s-.18-3.19,1.42-3.89M73.3,24.82c-1.59-4.79.18-7.09,2.48-8.86m2.48,6.2c1.07,1.59,1.42,7.26-1.24,9.92M61.79,41.47c1.24-1.42,1.41-2.31.18-4.61s-.18-3.19,1.41-3.89m-4.07,5.66c-1.6-4.78.17-7.08,2.48-8.85M64.27,36c1.06,1.59,1.42,7.26-1.24,9.92M76,55.47c1.24-1.42,1.42-2.31.18-4.61S76,47.67,77.56,47m-4.08,5.67c-1.6-4.78.18-7.09,2.48-8.86M78.44,50c1.06,1.6,1.42,7.27-1.24,9.92M61.79,69.64C63,68.22,63.2,67.34,62,65s-.17-3.19,1.42-3.9M59.31,66.8c-1.6-4.78.17-7.08,2.48-8.85m2.48,6.2c1.06,1.59,1.42,7.26-1.24,9.92m12.75,9.74c1.24-1.42,1.42-2.3.18-4.6s-.18-3.19,1.42-3.9M73.3,81c-1.59-4.79.18-7.09,2.48-8.86m2.48,6.2c1.07,1.59,1.42,7.26-1.24,9.92M61.79,97.81c1.24-1.42,1.41-2.3.17-4.61s-.17-3.19,1.42-3.9M59.31,95c-1.6-4.78.17-7.08,2.48-8.86m2.48,6.21c1.06,1.59,1.42,7.26-1.24,9.92m12.75,9.56c1.24-1.41,1.42-2.3.18-4.6s-.18-3.19,1.42-3.9M73.3,109c-1.59-4.78.18-7.09,2.48-8.86m2.48,6.2c1.07,1.59,1.42,7.26-1.24,9.92m-15.23,9.92c1.24-1.41,1.41-2.3.17-4.6s-.17-3.19,1.42-3.9m-4.07,5.67c-1.6-4.78.17-7.09,2.48-8.86m2.48,6.2c1.06,1.6,1.41,7.27-1.24,9.92M75.78,140c1.24-1.41,1.42-2.3.18-4.6s-.18-3.19,1.42-3.9m-4.08,5.67c-1.59-4.78.18-7.09,2.48-8.86m2.48,6.2c.7,1.05,1.09,3.87.52,6.43M90.07,13.3c1.24-1.42,1.42-2.3.18-4.61S90.07,5.5,91.67,4.8m-4.08,5.67c-1.59-4.79.18-7.09,2.48-8.86m2.49,6.2c1.06,1.59,1.41,7.26-1.25,9.92m12.76,9.92c1.24-1.42,1.42-2.3.18-4.61s-.18-3.19,1.41-3.89m-4.07,5.67c-1.6-4.79.18-7.09,2.48-8.86m2.48,6.2c1.06,1.59,1.42,7.26-1.24,9.92M90.07,41.47c1.24-1.42,1.42-2.31.18-4.61s-.18-3.19,1.42-3.89m-4.08,5.66c-1.59-4.78.18-7.08,2.48-8.85M92.56,36c1.06,1.59,1.41,7.26-1.25,9.92m12.94,9.57c1.24-1.42,1.41-2.31.18-4.61s-.18-3.19,1.41-3.9m-4.07,5.67c-1.6-4.78.17-7.09,2.48-8.86m2.48,6.2c1.06,1.6,1.42,7.27-1.24,9.92M90.07,69.64c1.24-1.42,1.42-2.3.18-4.61s-.18-3.19,1.42-3.9M87.59,66.8C86,62,87.77,59.72,90.07,58m2.49,6.2c1.06,1.59,1.41,7.26-1.25,9.92m12.76,9.74c1.24-1.42,1.42-2.3.18-4.6s-.18-3.19,1.42-3.9M101.59,81c-1.6-4.79.17-7.09,2.48-8.86m2.48,6.2c1.06,1.59,1.42,7.26-1.24,9.92M90.07,97.81c1.24-1.42,1.42-2.3.18-4.61s-.18-3.19,1.42-3.9M87.59,95c-1.59-4.78.18-7.08,2.48-8.86m2.49,6.21c1.06,1.59,1.41,7.26-1.25,9.92m12.76,9.56c1.24-1.41,1.42-2.3.18-4.6s-.18-3.19,1.42-3.9M101.59,109c-1.6-4.78.17-7.09,2.48-8.86m2.48,6.2c1.06,1.59,1.42,7.26-1.24,9.92m-15.24,9.92c1.24-1.41,1.42-2.3.18-4.6s-.18-3.19,1.42-3.9m-4.08,5.67c-1.59-4.78.18-7.09,2.48-8.86m2.48,6.2c1.07,1.6,1.42,7.27-1.24,9.92M104.07,140c1.24-1.41,1.42-2.3.18-4.6s-.18-3.19,1.41-3.9m-4.07,5.67c-1.6-4.78.17-7.09,2.48-8.86m2.48,6.2c.7,1.05,1.09,3.87.52,6.43M118.24,13.3c1.24-1.42,1.42-2.3.18-4.61s-.18-3.19,1.42-3.89m-4.08,5.67c-1.59-4.79.18-7.09,2.48-8.86m2.48,6.2c1.07,1.59,1.42,7.26-1.24,9.92m12.76,9.92c1.24-1.42,1.41-2.3.18-4.61s-.18-3.19,1.41-3.89m-4.07,5.67c-1.6-4.79.18-7.09,2.48-8.86m2.48,6.2c1.06,1.59,1.42,7.26-1.24,9.92m-15.24,9.39c1.24-1.42,1.42-2.31.18-4.61s-.18-3.19,1.42-3.89m-4.08,5.66c-1.59-4.78.18-7.08,2.48-8.85m2.48,6.2c1.07,1.59,1.42,7.26-1.24,9.92m12.94,9.57c1.24-1.42,1.41-2.31.17-4.61s-.17-3.19,1.42-3.9m-4.07,5.67c-1.6-4.78.17-7.09,2.48-8.86M134.9,50c1.06,1.6,1.42,7.27-1.24,9.92m-15.42,9.75c1.24-1.42,1.42-2.3.18-4.61s-.18-3.19,1.42-3.9m-4.08,5.67c-1.59-4.78.18-7.08,2.48-8.85m2.48,6.2c1.07,1.59,1.42,7.26-1.24,9.92m12.76,9.74c1.24-1.42,1.42-2.3.18-4.6s-.18-3.19,1.41-3.9M129.76,81c-1.6-4.79.17-7.09,2.48-8.86m2.48,6.2c1.06,1.59,1.42,7.26-1.24,9.92m-15.24,9.57c1.24-1.42,1.42-2.3.18-4.61s-.18-3.19,1.42-3.9M115.76,95c-1.59-4.78.18-7.08,2.48-8.86m2.48,6.21c1.07,1.59,1.42,7.26-1.24,9.92m12.76,9.56c1.24-1.41,1.42-2.3.18-4.6s-.18-3.19,1.41-3.9M129.76,109c-1.6-4.78.17-7.09,2.48-8.86m2.48,6.2c1.06,1.59,1.42,7.26-1.24,9.92m-15.24,9.92c1.24-1.41,1.42-2.3.18-4.6s-.18-3.19,1.42-3.9m-4.08,5.67c-1.59-4.78.18-7.09,2.48-8.86m2.48,6.2c1.07,1.6,1.42,7.27-1.24,9.92M132.24,140c1.24-1.41,1.41-2.3.18-4.6s-.18-3.19,1.41-3.9m-4.07,5.67c-1.6-4.78.17-7.09,2.48-8.86m2.48,6.2c.7,1.05,1.09,3.87.52,6.43M22.64,0a7.25,7.25,0,0,1-1.78,3.56M50.81,0A7.25,7.25,0,0,1,49,3.56M78.8,0A7.25,7.25,0,0,1,77,3.56M107.08,0a7.15,7.15,0,0,1-1.77,3.56M135.25,0a7.15,7.15,0,0,1-1.77,3.56"/></pattern><symbol id="g" viewBox="0 0 1979.84 1082.74"><g class="e"><path class="f" d="M30.76,521.72c37.05-4.69,68.63-8.38,93-11.13,50.35-5.68,75.74-8.49,86.24-7.12,17.19,2.26,42,7.68,77.66,6.37C312,509,316.47,506,367.39,498.19c46.09-7,69.17-10.57,100.25-11.08,27.95-.46,31.65,2,75.5,4.35,66,3.5,70.35-1.43,113,1.36,54.67,3.57,61.35,12.56,136.12,24.25,45.76,7.15,53.5,5.38,111.61,11.88,121.11,13.53,134.73,26.48,262.66,42,45.56,5.54,30.54,2.28,123.45,12.15,102.16,10.85,116.41,14.37,196.86,22.14,94.52,9.13,91.5,5.87,128.14,12,73.47,12.21,94.36,26.75,158.07,42.46,40,9.86,101.57,21.34,188,24.06v396.62H30.76"/><path class="g" d="M282.46,509.89l23.22,41,79.74,13.42,64.84,21.62,35.05,9.33c12.91,24.06,33.79,36.41,50.52,43.24s32.61,9.45,43.6,19.81c10.4,9.8,7.42,18,8.18,28.31,1.7,23.25,20,26,38.15,56.61,23.64,39.79-.48,46.53,24.53,63.68,25.19,17.27,54.35,13.67,79,34,15.17,12.47,6.41,15.69,19.08,34,27.61,39.83,84.08,46,87.21,77.83,1,9.86-4.67,7.07-5.45,21.23-1.32,23.81,14.32,37.09,32.7,67.93a273.68,273.68,0,0,1,19.08,38.57"/><path class="g" d="M282.46,509.89l44.25,16,156.85,33.18,122.69,22.52,58.55,11.58c4.88,6,11.88,14.29,20.92,24,14.15,15.23,26.28,26.42,40.88,39.63,40.32,36.49,60.48,54.73,70.85,60.85,31.72,18.73,38.52,13.31,79,34,62.35,31.8,46.45,44.75,89.94,59.44,47.89,16.18,74.19,2.85,144.43,22.64,11.37,3.21,36.62,10.86,62.69,24.06,39.16,19.84,32.94,28.27,76.3,59.44,40.34,29,58.12,30.61,76.31,53.78,15.4,19.63,5.42,22,19.07,32.55,9.67,7.47,25.22,14.41,149.89,32.55,46.26,6.73,72.53,9.91,98.11,22.65,15.38,7.65,24.58,15.81,30,21.58"/><path class="h" d="M282.46,509.89s64.79,11.25,67.27,11.41,57.93,5,57.93,5,67.85,5,69.09,5.3S557,533.85,557,533.85s58.86-1.45,60.72-.81,91.39-1.93,95.73-1,54.21,5.15,54.21,5.15,85.51,19.14,88.3,19,24.78,4.34,24.78,4.34c16.73,4,34.47,9.84,50.26,18.46,19.9,10.87,18.89,16.49,40.88,28.3,14.79,8,18,6.88,49,19.82,8.84,3.68,31.61,13.21,51.78,24.06,29.88,16.06,28.69,21.37,51.78,35.38,29,17.56,59.7,26.74,98.11,38.21,41.33,12.34,52,11.72,92.66,25.47a561.54,561.54,0,0,1,54.5,21.23c58.76,26.91,48.18,38,87.21,50.95,18.74,6.2,19.71,3.15,119.91,17,36.73,5.08,55.1,7.61,68.13,9.91,84,14.82,106.7,37.77,182.59,60.86,29,8.82,72.87,19.82,133.54,26.89"/><path class="i" d="M.58,526l71-10,36.55-3.7,99.45-10.78,30.68,1.55,44.25,6.83,49.51-8L388.05,496l82.36-7.28,72.73,2.73s39,2.73,44.25,3.41,68.79-2.05,68.79-2.05L770.53,513.3l48.63,8.42,99,5.23,128.37,18.66a700.56,700.56,0,0,0,110.63,22.08c29.19,3.41,36.52,2.43,76.31,7.07,45.06,5.27,49.92,8.22,95.38,14.16,35.36,4.62,31.8,2.75,100.84,9.9,74,7.67,67.18,8.68,103.56,11.33,42.16,3.06,54.34,1.93,81.75,7.07,21.25,4,27.37,7.2,60,17,40.92,12.29,66.19,19.89,98.11,25.48,5.53,1,1.64.19,25.89,3.8,42.35,6.3,66.67,10.45,82.52,12.92,22.55,3.52,55.51,8,98,11.23"/><path class="j" d="M30.75,521.72c48.62,7.19,84.65,5.73,109.19,2.81,21.87-2.6,46.44-7.76,72.22-2.12,4,.87,18.49,4,29.29,11.67,6.91,4.88,10,9.95,13.63,15.93,4.19,6.88,2.55,7.13,6.13,12.73,7.56,11.83,16.68,13.59,15,18-3.32,8.77-41.3,10.35-40.88,13.09.28,1.82,17.53,3.39,77.67,3.54A233.15,233.15,0,0,1,349.78,596s5.12.21,12.71,1A240.11,240.11,0,0,1,390,601.31c14.76,3.28,28.83,6.41,37.47,13.44,1.59,1.29,4.05,6.36,8.92,16.45,5.33,11,6.86,14.62,10.84,20,1.31,1.76,9.8,13.21,13.63,12.73,5.36-.67-1.86-24.39,2-24.76,3.55-.34,8.59,19.37,23.85,20.52,8.53.64,12.63-5.11,21.8-5.31,19.05-.42,35.36,23.67,36.79,25.83,37.06,56.08-9.22,148.77,2,150.37,2.68.38,7.43-4.55,9.54-6.73,16.47-17,10.6-34.83,9.54-38.21-16.62-52.81,34.49-104.07-21.8-130.91C515.09,640.65,484.78,647,458,627.37c-17.56-12.88-11.41-21.6-33.24-30.66-11.21-4.65-30.79-7.65-69.5-13.45-45.29-6.78-55.62-7-65.4-13.44-10.49-6.91-14.72-17.27-16.81-22.39-4.16-10.2-1.55-14.45-9.08-19-11.73-7.09-31.62-5-32-7.43-.53-3.17,32.31-11.72,49.05-5.66,18.74,6.78,1,26.71,24.71,35.51,6.58,2.44,10.81,2.26,25,4.2a399.43,399.43,0,0,1,63.42,14.07c43.89,7.22,68.6,18,82.95,26.45,25.71,15,24.41,25.9,58.81,42.89,24.3,12,32.59,10.36,43.6,19.81,16.17,13.87,5.21,23.3,13.07,44.5,7.37,19.9,19.13,17.31,33.26,40.42,21,34.3-.92,46.57,24.53,63.68,20.09,13.51,36.48,7.72,61.63,23.32,21.4,13.28,10.82,18.28,36.48,44.61,20,20.5,46.63,38.24,48,39.12,19,12.54,25.48,14.07,31.65,22.27,9.92,13.18,2.44,21.48,2.15,37.68-.1,5.29.59,10.49,20.32,48.64,7.94,15.35,18.41,35,31.46,57.86H30.75Z"/><path class="k" d="M881.94,1080.36c-4.84-12.86-9.64-24.34-14-34.23-6-13.51-11-23.64-14.31-30.25-4.41-8.85-6.61-13.27-10.22-19.63-7.79-13.73-8.54-12.63-9.72-16.73-3.3-11.5,4.52-13.62,1.94-26.89a40.92,40.92,0,0,0-7.6-16.45c-1.23-1.62-5.87-7.57-16.3-15-10.26-7.33-18.52-10.69-25.64-14.45-15.26-8.06-21.65-16-33.12-30.39-20.47-25.59-8.75-28.61-24.3-39-18.84-12.61-34.58-7.22-61.34-22.49-5-2.85-22.16-13.16-30-28.79-5.15-10.27-1.16-12.6-3.39-24.77-3.83-20.82-17-22.21-33.4-54.49-5.72-11.3-9.61-19-11.47-30.1-2.71-16.12,2.38-18.41-3.51-24.74-11.93-12.8-39.49-10.59-66.07-22.68-11.84-5.39-26.9-15.16-34.14-34-11.57-2.84-28.93-7.36-49.17-13.72-32.5-10.2-32.15-12.5-50.72-17.23-41.36-10.51-60.28-3.49-79.74-13.42-19.74-10.08-22.23-28.71-12.62-32,6.55-2.22,22.5,1.4,27.37,7,5.14,5.88-4.64,11,1.89,17.11,4.56,4.28,13.65,5.83,14.05,5.57s-10.77-3.47-11.75-8.75c-.08-.42,0-.45,1.53-5.71s1.69-5.9,2.81-6.3c3.11-1.13,7.55,1.22,19.29,3.85,13.2,2.95,18.1,2.34,21.56,5.22a5.39,5.39,0,0,1,1.79,6.54c-2.26,5.08-12.53,8-11.94,8.4s6.78-2.65,10.56-1.68,3.08,5.32,3.58,5.31c.9,0-1.53-13.82,6-15.21a33.36,33.36,0,0,1,5.85.42c6.51.69,9.9,1,11.69,2.14,2.84,1.84,2.48,4.14,2.39,4.6-.53,2.63-3.78,3-5.45,6.81-.76,1.7-.54,2.63.24,3.36,1,.9,2.51,1.21,4.19,1.68,4.52,1.28,4.36,2.12,9.41,4.15,5.32,2.13,10.87,3.36,11.2,3.11.53-.42-13.17-4.42-18.22-11.24a4.56,4.56,0,0,1-1-2.85c.12-3.83,6.27-7.56,9.71-7.14,1.37.17,1.13.85,2.89,1.77,4.47,2.33,10.59.33,14.94,2.23.73.32,1.78,2.24,3.85,6.08s2.4,4.66,1.56,5.57c-1.77,1.93-7,2.53-6.72,2.92s3.13-.39,4.6.27c2.34,1-.82,4.68-.34,4.78.32.06,2.37-1.54,3.74-3.81,4.56-7.52-3.43-14-.19-15,1.69-.54,4.31,1.06,12.79,3.58,8,11.52,18.38,19.44,26.75,24.67,8.93,5.58,18.27,9.78,18.74,9.55.64-.31-16.1-9.17-13.82-10.59,2.63-1.65,28.33,8.3,30.17,7.06,1-.7-5.24-5-14.65-7.43-5.91-1.52-7-.73-12.6-2.13-10.71-2.69-15.6-7.84-17.65-10-2.84-3-6-6.3-3.61-7.79,3.76-2.4,19.55,1.11,30.11,3.83,14.08,10.29,23.26,15.17,29.3,17.69a8.39,8.39,0,0,1,2.62,1.51c6.58,6.1-16,18.87-15.23,19.19.46.17,5.41-4.76,11.25-4.6,5,.13,7,3.85,16.35,11.14,6.7,5.2,7,4.32,10.45,7.34,10.85,9.5,9.07,19.22,11,19.2,1.12,0,2.72-3.28,2.38-7.08-.16-1.79-1.18-8.53-18-19.81-11.27-7.54-18.26-9.52-17.6-13.89.42-2.78,3.88-6,8.38-6.42,5.76-.5,9.07,4.06,24.21,13.23,12,7.26,14,6.9,22.82,13.09,6.52,4.59,6.7,5.7,12.95,9.38,7.19,4.23,9.61,4.32,17.37,8.84,8.38,4.88,12.88,7.5,12.6,11-.22,2.82-3.37,3.16-7.49,8.32s-5.16,10.07-4.09,10.26c2,.35,12.1-16.2,19.08-15.57,2.26.2,2.16,2,6.81,4.95s11.23,5.26,12.26,4.78c3.26-1.51-46.21-32.88-51.38-36.12l-5.55-3.46s-6.41-4-12.9-7.81c-16.52-9.84-77.26-39.82-72.51-43,1.42-1,7.29,1.47,40.15,7.94,12.79,2.52,24.41,4.62,26.63,5,8.25,1.49,15.69,2.76,18.59,3.25,5.6,1,8.35,1.4,11,1.84,19.7,3.32,29.55,5,31.54,6.58,8.64,7-17.77,24.08-15.85,24.71.8.26,4.31-3.09,9.19-3s8.44,3.68,10,5.12c12.48,11.81,35,10.8,41.13,20.53,5.32,8.5-7,17.09-5.79,17.34s14.4-7.4,12.61-15.92c-3.11-14.79-48.23-16.72-51.27-32-1.19-5.92,4.07-13.3,11.16-14.12,4.31-.5,8.77,1.5,11.49,2.93,44.45,23.35,70.74,63.68,70.74,63.68,16,16.72,41.47,40.42,80.51,67.41,26.34,8.28,62.79,21.81,96.39,43,42.7,26.89,33.13,36.08,65.08,48.84,56.21,22.44,104.71,1.53,172.2,26.54,27.56,10.21,47.26,24,56.21,30.25,25.06,17.53,24,24.28,52.85,44.39,23.12,16.1,26.94,14,45.82,28.7,9.23,7.21,10.69,9.58,37.49,35.81,18.44,18,27.76,27.12,32.46,29.61,15.86,8.41,29.36,9.19,93,18.05,84.54,11.77,100.28,15.91,113.44,20.7,26.6,9.67,42.28,21.86,51.15,30.24"/><path class="l" d="M1623.2,1080.36c-5.31-5.54-14.55-13.73-30-21.58-24.51-12.48-61.54-18.27-134.61-29.36-76.66-11.64-97.19-14.65-113.39-25.84-15.56-10.74-18.86-23.31-19.07-32.55A237.94,237.94,0,0,0,1295.66,946c-21.24-14.85-30.38-16.83-45.82-28.7-21.86-16.8-12-19.35-32.2-35.45-13.21-10.54-29.64-18.12-62.5-33.28-22.14-10.21-33.21-15.32-44.68-18.47-25.15-6.92-37.32-5.23-81.07-11-35.29-4.64-52.93-7-66.77-11.68-32.17-11-25-21.26-64.73-44.22-5.06-2.93-23.08-11.25-59.13-27.87-34.28-15.81-42.27-19-53.62-27.15-8.23-5.94-9.15-8-30-28.66-21.82-21.66-20.54-19.15-30-29-33.11-34.61-31.75-47.6-60.38-57.28-5.69-1.92-7-1.83-33.67-6.66-34.15-6.18-67.63-13.31-101.48-19.92-132.24-25.86-214.65-42-212.38-46.1,2.14-3.91,95.63,8.89,159.48,11.06,15.79.54,23.16,1.19,37.91,2.49,29,2.57,39.49,5,45.14,6.55,11,3,12,5.89,23.54,8.09,7.37,1.4,10.37,1.07,23,3,1.08.17,10,1.59,19.41,3.72a241.39,241.39,0,0,1,30.32,9c42.18,15.06,38.7,12.33,51.44,17.87,20.1,8.73,31.06,13.49,38.15,21.94,12,14.21,5.34,29.85,7.5,29.89.58,0,1.3-1.58,2.72-4.77,2.24-5,3.36-7.55,3.75-10.09,0,0,.89-5.79-3.75-12.91-10.68-16.4-92.5-40.06-87.89-46.7,2.35-3.39,24.65,1.28,66.27-3.14,9-1,15-1.92,24.86-1.77,20.58.31,35,5.63,41.39,6.9,35.43,7,97.46,18.63,98.62,17.24s-52.46-14-85.34-21.76c-34.65-8.2-40.43-9.09-49-9.36-28-.88-35.77,6.36-73.77,7.3a331.09,331.09,0,0,1-47.1-2.34c-24.7-2.77-39-6.91-47.07-9.7-6.4-2.2-19.78-6.8-18.06-9.38s16.86-1.47,41.95-.58c28.8,1,57.71.83,86.56,1.38,43.68.82,49,.64,60.44,2.7,20.49,3.68,23,7.47,46.38,13.57,36.49,9.52,43.53,3.72,75.28,12,34.18,8.88,55.82,23.34,61.45,27.18,12.33,8.42,12.67,11.65,26.76,19.55,14.7,8.25,25.42,11,43.4,17.64a518.62,518.62,0,0,1,62.29,29c27.54,15.21,34.13,24.35,49.81,35.33,56,39.2,127.75,32,220,72.76a521.72,521.72,0,0,1,53.33,27.15c28,16.92,26,20.81,42.73,28.57,25.48,11.8,49.38,11.71,109,18.4,33.06,3.71,74.44,8.35,109.56,15.46,69.06,14,79.51,30.51,147.77,52.51,31.11,10,78.71,22.62,145.72,30.74v143.29"/><path class="m" d="M1865.35,921.68c-46.2-15.49-78.12-27.92-99.13-36.62a538.48,538.48,0,0,0-52.94-19.22s-22.17-6.78-45.64-12c-89.07-19.91-162.23-7.25-210.68-31.39a369.75,369.75,0,0,1-35.14-20.16c-14.94-9.91-18.29-14.19-31.68-21.76-7.51-4.24-15.94-8.25-37.13-16.27-40-15.15-74.1-25.15-81-27.14-49.1-14.29-48-11.12-80.13-21.68-30.43-10-49.79-16.37-67.44-28.85-15.42-10.91-13.21-15-31.73-26.8-5.17-3.3-12.85-7.79-46-21.81-51-21.56-52.09-19.1-69.24-28.47C952.23,595.66,957.34,591.76,931,579c-5.36-2.6-23.2-11-50.26-18.46-16.1-4.45-18.39-3.88-65.19-13.55-34.18-7.07-35.15-7.83-47.89-9.77-24.29-3.71-44.37-4.53-63-5-55.73-1.42-87.09.6-129,1-16.88.15-57.06.11-108-2.79-26.75-1.52-69.86-4.07-70.14-8.36-.19-2.93,19.77-5.47,23.63-6,26.36-3.35,47.85-.82,60.56.36,30.77,2.88,21.19-1.06,125.66-.23,27.28.21,40.92.32,50.75.7,59.76,2.33,76.43,9.05,162.42,19.51,64.24,7.82,69.23,5.82,90,12.27,47.42,14.73,67.33,43,71.18,41.82,1.81-.55-2.52-6.74-8.18-12.39-16.83-16.78-41.06-24.31-39.43-25.58s28.44,4.88,70.77,19.57c56.86,19.73,87.87,36.14,89.25,35.38s-29.33-21.36-80-39.45c-14.58-5.2-47.92-16.3-96.24-24.86-52.74-9.34-53.72-3.33-119.4-12.47-62.61-8.71-75.16-16.37-132.17-20.16C647,509.27,632,509,601.87,508.43c-86.79-1.62-80.32,3.38-133.6.84-29.67-1.41-48.11-3.75-70.8,1.64-13.84,3.29-18.25,6.84-32.7,8.67-25.75,3.26-56.81-2.29-57.4-7.34-.95-8.24,78.48-20.73,150.53-22.41,41.72-1,40.07,2.56,117.23,2.5,42.47,0,60.64-1.11,91.65,2.39,27.12,3.06,27.37,5.49,73,13.77,41.28,7.51,71,12.92,110.81,15.69,41.68,2.9,55.8.22,92.56,6.39,16.2,2.72,19.12,4.2,42.85,8.2,34.1,5.76,46.55,5.84,70.06,9.46,36.91,5.68,41.77,11,75.23,18.23,37.83,8.21,57.84,7.15,109.18,11.32,57.91,4.7,75.4,9.53,138.14,17.69,49.77,6.47,123.07,14.4,218.7,19.11,21.84,5.55,54.35,13.92,93.65,24.4,41,10.93,62.71,17.06,72.76,19.73,39.11,10.42,100.6,21.82,197.46,25V937.07"/></g></symbol></defs><use width="1979.84" height="1082.74" xlink:href="#g"/></svg>