<svg xmlns="http://www.w3.org/2000/svg" xmlns:xlink="http://www.w3.org/1999/xlink" width="3000" height="1080" viewBox="0 0 3000 1080"><defs><style>.a,.b,.c,.d,.g,.h,.i{fill:none;}.b,.c,.d,.g,.h,.i{stroke:#d9b776;}.b,.d{stroke-linecap:round;}.b,.c,.d{stroke-miterlimit:11.34;}.b{stroke-width:1.98px;}.c{stroke-width:1.42px;}.d{stroke-width:1.7px;}.e{clip-path:url(#a);}.f{fill:#161515;}.g,.h,.i{stroke-miterlimit:8.09;}.g{stroke-width:12.47px;}.h{stroke-width:8.31px;}.i{stroke-width:5.54px;}.j{opacity:0.7;fill:url(#b);}.k{opacity:0.6;fill:url(#c);}.l{fill:url(#d);}</style><clipPath id="a"><ellipse class="a" cx="1500.9" cy="540" rx="2121.32" ry="763.68"/></clipPath><pattern id="b" width="153.54" height="153.54" patternTransform="matrix(0, 0.5, -0.96, 0, 1229.15, 652.33)" patternUnits="userSpaceOnUse" viewBox="0 0 153.54 153.54"><rect class="a" width="153.54" height="153.54"/><path class="c" d="M153.54,6c-11.6,10.38-19.77,17-17.71,19s-2.84,6.14-9.92,13.23S105.12,57.87,107,62.6c0,0,1.65,2.42.23,3.66S82.62,92.3,80.85,93.9s-3.37,4.78-3,6.38a6.21,6.21,0,0,1-1.78,6c-2.12,2.13-17.54,18.25-20,20.73m82.12-95.76c.59-.61,1.08-1.12,1.44-1.51,3.55-3.78,1.66-4.25,1.42-6.61-.22-2.18,6-6,12.52-11.73M138.16,31.27c-4.8,4.95-16.22,16.37-20.21,20.19M80.06,106.75c1.63-1.72,2.77-2.93,3.09-3.28,1.59-1.78.89-3.55.71-5.5s2.3-5.67,4.6-7.79,22.09-22.62,22.09-22.62c2.36-2.36,2.13-3.54,1.42-5.91s1.89-6.37,5.19-9.45c.22-.19.48-.44.79-.74M47,148.82s6.91-7.27,8-8.5,0-2.84-.36-4.61.71-2.84,3-5.32c.76-.82,3.65-3.87,7.23-7.64M124.25,22.44c1.66-1.65.71-2.6.24-5.43S135.83,5.9,139.13,2.36M112.68,8c-4.25,4.49-7.8,8.5-8.74,9.45s-1.42,1.89-1,4.25-.23,1.66-2.6,4S90.24,36.38,90.24,36.38M85,28.58c3.07-3.3,4.72-6.14,4.72-8.27s.71-2.36,2.37-3.77,7.32-6.86,11.33-11.11M42.05,71.22c1.24-.89,7.79-8,9.21-9.57s1.24-2.83,1.24-4.78,1.77-4.25,3.9-6.38S80.31,26.22,80.31,26.22c2.6-2.6,2.84-4,2.84-5.9s0-2.37,1.65-4.26C86.33,14.32,93.27,7.37,100.44,0M74.88,26c2.6-2.6,3.07-3.3,2.36-5.9a6.42,6.42,0,0,1,2.13-6.85C81.24,11.57,88.56,4.82,93,0M58.82,28.58s1.89-1.89,4.25-4.49,2.6-3.78,1.65-6.37.71-2.6,2.37-4.73C68.59,11.06,74.38,4.84,79,0M0,75.84c5.8-6.33,19-20.57,20.79-22.69A20.61,20.61,0,0,0,23.62,50c1.06-1.59,1.24-1.24.71-3s-1.06-2.48-.18-3.37,1.84-2,1.84-2c.94-.94,15.35-13.93,17.47-15.59s3.08-3.54,2.6-6.14-.23-2.83,1.66-4.49C49.35,13.92,58.07,5.59,64.22,0M12.76,55.51c2.83-2.83,4.72-5,4.72-8.27s1.89-5.19,4.72-7.55S35.43,26.93,38.5,24.33s2.84-4.25,2.84-6.14.24-1.89,2.6-4.49C45.92,11.51,53.1,5,58,0M51.86,0c-3.74,3.92-6.38,6.68-7.92,8M0,60.52a56.49,56.49,0,0,0,7.68-6.31C10.51,51,10.51,50,10.87,47.48l.7-3.72c.24-2.36,2.13-3.84,6.15-7.62s13.46-13.23,18-17.95M6.29,0,1.48,4.72M0,11.47c.57-.5,1.14-1,1.71-1.55L9,3.54M0,17.19c.68-.61,1.34-1.23,2-1.84L19.56,0M0,28.7l4.31-4.31c4-4,4-4.49,3.54-6.85s5-6.14,8.51-9.69l9-7.85M0,35.68l8.74-8.75c4-4,4-4.49,3.54-6.85s5-6.14,8.51-9.69L32.71,0M57.88,153.54c1-1,1.85-1.9,2.59-2.71,0,0,3.55-4.14,5.91-6.5s3.07-3.07,2.36-5.9-2.12-5,6.85-13.94a145.2,145.2,0,0,0,13-14.41s6.14-6.38,8.51-9.21.47-4.26.47-6.62,2.36-4.25,5-7.09S130,59.82,130,59.82c2.13-2.13,3.07-4.25,2.36-6.14s.95-4.49,3.55-7.32c2-2.2,11.53-11.77,17.59-17.83m-18.39,125L137,152a13.44,13.44,0,0,0,1.24-1.95c.53-1.06-.36-1.24-.89-2.48s.71-2.84,2.13-4.08,9.56-8.85,10.63-10.27-.36-2.66-.36-3.72a3,3,0,0,1,1.06-1.95c.43-.42,1.4-1.32,2.72-2.5M129.69,151.3c-.67.69-1.42,1.45-2.23,2.24m24.25-68c-2.66,2.66-9,9.75-10.81,11.69s-3.72,3.73-3.72,5.67,1.42,3.37.36,5-12.23,13.29-12.23,13.29c-2.3,2.3-7.79,7.44-10.09,9.92s-2.48,2-2.31,4.26,1.77,3.54-.53,6.37-2.3,1.78-10.1,9.81l-2,2m-5.61-2c-.52.61-1.13,1.29-1.8,2m-5.75-2.48c-.57.69-1.31,1.53-2.14,2.48m68.51-93.1c-2.11,1.52-3.78,2.63-3.78,2.63s-2.65,2.13-3.19,3.37-.17,2.83-.17,4.25-3.73,6.2-3.73,6.2c-2.83,3-15.76,15.59-17.89,17.36s-3.54,3.55-3.37,5.49,1.25,4.79-.7,6.38-16.48,16.3-19.14,18.78-4.25,4.25-4.25,6,1.42,3.19-.18,5.14-11.16,9.57-14,12.76S85,147.05,80.32,152l-1.46,1.53m-14.77,0c1-.91,1.93-1.75,2.76-2.48,0,0,3.07-3.42,5-5.55s4.25-4.25,4-7.56-.71-7.09,2.36-10.39,13.23-13.94,13.23-13.94M51.75,153.54l2.82-2.95,1.65-2c1.59-1.77,6.73-6.55,6.73-8.32s-1.77-3.73-1.59-5.14,3.89-5.32,5.14-6.56,22.32-25,24.09-26.75.89-4.25.35-5.67,1.24-4.43,3.55-7.09,21.26-21.79,21.26-21.79c2.12-2.12,3.07-4.25,2.36-6.14s.94-4.49,3.54-7.32,17.72-18,21.73-22,4-4.49,3.55-6.85c-.39-2,3.31-4.92,6.61-7.91M6.17,153.54l4.7-4.6s7.79-7.92,9.92-9.81a4.83,4.83,0,0,0,.94-6.61c-1.42-2.36-3.07-2.83,0-5.9s18.43-19.38,21.5-22.45S48,99,47.72,96.61s-.95-3.07,2.36-5.9S71.81,69.45,73.23,67.56,77,64,76.77,61.65s-.94-3.3,1-5.19,26.45-26.7,26.45-26.7c3.31-2.83,5.91-5.9,5.44-9s-.48-4,1.89-6.14C113.57,12.78,122,5.44,127.58,0M19.42,153.54l4.2-3.66m51.2-55.45c-4,4.61-5.84,7.09-5.13,8.5,1,2.06-.36,2.84-1.78,4.08s-8.32,8-14.52,14.17-11.52,11.34-11,12.58a5.21,5.21,0,0,1-.71,4.78c-1.06,1.24-3.66,3.84-3.66,3.84l-12.8,11.16m7.34,0,9.89-8.62m-27.88,6.73c2.48-2.3,12.23-11,14-12.93s.71-3.37,0-5.14-1.77-3.36,1.77-7.08,16.84-18.07,19.85-21.09,4.43-4.25,3.89-6.73-.53-3.54,1.42-5.49S76.24,72.46,80.67,67.5s4.07-5.14,3.54-7.44,0-3.9,2.3-6.2,18.37-18.19,18.37-18.19c2.84-2.36,10.87-10.39,13-12.76s0-5.19.48-7.32c.42-1.89,11.52-11.1,17-15.59M66,90.71c2.48-2.48,24.27-25.34,24.27-25.34,2-1.94,3.9-3.9,3.37-6s-.53-3.54,1.42-5.14S115.75,34,117.16,32.6M92.89,112.32s10.28-10.1,12-12.22,2.13-3,1.6-5.49,1.23-4.08,2.65-5.67,8.68-9.92,12.4-13.65L125.67,71c2.13-2.3,8.8-8.68,8.8-8.68,2.12-2.12,3.07-4.25,2.36-6.14s.95-4.49,3.54-7.32c1.57-1.71,7.68-7.88,13.17-13.39M78.9,46.77c-5.2,5.91-7.8,9.69-9,11.1s-1.65,2.6-1.18,4.26-.47,2.59-1.89,4S59.53,73,59.53,73M4.31,38.5s10.16-9.86,11.58-11.28,2.36-2.36,1.88-4,0-2.84,1.19-4.25S33.37,6.85,38.56.94M30.71,109.13s6.85-6.61,8-7.79,1.18-1.66.95-3.78.7-3.31,1.88-4.49S54.09,79.13,54.09,79.13M118.4,92c-2.3,2.83-4.25,4.61-3.89,6.56s.71,4.42-1.07,6.37-13.28,12.58-15.06,14.53-5,5.32-4.6,7.62.71,3.37-1.07,5.67-14,14-15.76,15.94M28.82,113.15s-9.69,9-10.87,9.69-4.49,5.19-2.13,8.73c.89,1.32,0,1.66-1.41,3.31C13.42,136,5,143.56,0,148.05M37.44,84l-9.57,9.56c-2.12,2.13-3.89,3.55-3.54,5.67s-1.42,5-5,8.51C16.51,110.58,5.31,120.38,0,125.16m38.86-50c-7.09,7.08-12,11-14.18,13.82s-4.25,3.54-4.6,7.44-.71,3.54-3.55,6.38C14.45,104.84,4.92,113,0,117.24m0-6.85c4.2-3.74,11.6-10.28,13.35-11.53,2.48-1.77,2.12-4.61,2.12-7.09s1.42-3.19,5-6.38S36,71.22,40.63,66.61c0,0,3.72-4.6,4.78-5.67s1.07-1.94,1.24-4.25-.35-3,2.31-5.84S70,30.65,72.34,28.52M85.13,0C80.77,5,73.48,12.81,72.28,14.41c-1.41,1.89-2.36,2.83-1.41,5s.23,3.31-2.37,5.91c0,0-13.87,13.87-17.06,16.89s-6.73,6.55-6.73,6.55c-1.42,1.59-2.66,2.3-2.66,4.43s.35,4.61-1.24,6.38-3.9,3.37-6,5.67-3.89,3.36-6.55,6.37c-4,4.53-10.63,9.93-13.11,12.76S9.8,88.58,9.8,92.48,9.45,95,6.61,98.15C5,100,2.09,102.72,0,104.65m0-8c1.07-.68,2.35-1.49,3.07-2C4.49,93.54,4.49,92.48,4.84,90s1.77-3.54,4.25-6,6.38-6.74,11.34-12M11.22,56.69A103.18,103.18,0,0,1,0,68.4m28.23-4.62,6-6c2.13-2.13,2.13-3.9,2.48-5.67a12.22,12.22,0,0,1,3.54-6c2.13-2.12,7.09-6.73,12.41-12m97.84,116.62,3-2.69M131,150.06a9.8,9.8,0,0,0,2.31-1.77c.71-.89.35-1.95.17-3.19s1.42-2.31,3.19-4.25,7.62-6.74,8.33-8.51,0-1.41-.53-2.83-1.07-2.84.35-4.08,5.67-5.67,5.67-5.67l3.07-2.62M119.64,151s5.14-5.67,6.74-7.09.35-2.13.53-4.61,6.91-8,11.34-12,6.38-5.67,7.79-7.45a7.44,7.44,0,0,0,1.77-4.43c.18-1.41,2.66-2.3,2.66-2.3l3.07-2.74m0-5.75C152,106,150.83,107,150.83,107m-42.17,45.71c1.42-1.42,8.33-7.8,9.39-9s.53-3.54.18-5.14.88-3.36,1.77-4.07a46,46,0,0,0,3.19-3.37c2.48-3,18.25-16.3,20.37-18.42s3-3.55,3-5.14-.17-3.54.71-5.14,4.25-4.61,4.25-4.61.92-.55,2-1.23M91.48,146.87c2.65-2.83,10.63-9.21,11.87-11s-.71-3-.54-5.14,2.13-3.19,6.56-8,16.83-17.37,18.6-19.85.89-3.72.18-4.78,1.59-3.55,3.19-5.32,3.19-3.36,6.38-6.37c3-2.83,7.47-7,9.92-9.22,2-1.77,4.25-7.44,4.25-7.44l1.65-1.51m-2.36,10c.48-.54,1.31-1.45,2.36-2.59m-103.88-7s4.79-4.25,6.38-6a10.94,10.94,0,0,0,2.66-6.21c.36-2.48,1.59-2.83,4.07-5.66S69.86,43.4,75.88,37.2m75.65,15.6c-3.36,3.89-9.39,11-11,12.58s-1.77,2.3-1.77,4.07.17,2.48-1.95,4.61-11.34,11.16-11.34,11.16"/></pattern><pattern id="c" width="153.01" height="153.01" patternTransform="matrix(0.94, 0.87, -1.67, 0.49, 1098.77, 799.4)" patternUnits="userSpaceOnUse" viewBox="0 0 153.01 153.01"><rect class="a" width="153.01" height="153.01"/><path class="b" d="M44.63,5.84h0m0,8.5h0M43,21.78h0m-12.22.53h0M51,44.1h0M29,57.46h0m22-.61h0m12.22,0h0m-1.06-18.6h0m6.28,4.21h0m3.81-11.12h0m-4.78-6.9h0m1.06-10.1h0M64.66,5.61h0m7.59-3.48h0M88.19,14.34h0m8.5-.53h0m4.82,27.7h0m-21.73,1h0m36.57-19.62h0m3.72-21.78h0m23.37,2.13h0m0,15.57h0m-4.1,4.8h0m-.65,9.38h0m-3,6.37h0M14.88,110.51h0M17,117.16h0M4.78,115.29h0m15.94,20.19h0m2.66,14.87h0m15.93-11.69h0m-4.78-6.9h0m-8.5-.54h0m10.06-13.53h0m4.82-9.84h0m-6,2.17h0m-.37-10.14h0m34.38,10.61h0m-15.59,7.56h0M68,117.94h0m-12.75,17h0M76.5,119h0m10.22-9.9h0m6.73-16.65h0m13.34,16.45h0m-.55-9.29h0m10.64-.27h0m0,15.41h0m-8,4.25h0m-7,9.55h0m21.92,1.6h0M82.88,52.06h0m18.06,5.32h0m19.47,3h0m-11.5-7.28h0m1.6,9h0m22.31,12.75h0M120.6,82.35h0M97.7,76.87h0M102,93.5h0m23.37,4.25h0m20.19-5.31h0M131.23,82.35h0m-62.16,17h0M53.77,78.28h0m9.45-3.37h0M23.09,61.35h0m-17.78,13h0m21.8,16.8h0m2.64-19.46h0M56.16,60.88h0M79.78,72.22h0M13.16,41.51h0m7.56-2.2h0m5.1,12.3h0m-21.07.22h0M136.54,62.16h0m11.15.53h0M3.19,18.59h0m34.53-4.78h0m-29.28.77h0m30.87,25.8h0M45.16,78.1h0M1.59,93.5h0m146.1,45.69h0m-25.5,6.91h0M10,128h0M56.71,127h0M111,80.22h0M137.6,96.69h0m-33.25,42.14h0M85,79.69h0M42,55.78h0M25,3.19h0M102,146.1h0M40.66,31.87h0M27.34,33.48h0m-14.59-9h0M14.88,5.31h0m12.93,8.8h0m26.91.23h0m23.91,1.07h0M92.44,2.66h0m16.47,15.93h0M76,22.84h0m7.44,8.5h0M54.27,33.48h0m-38.86,25h0m6.9,12.22h0m-11,10.06h0M6.91,43h0M37.19,74.91h0M34,82.35h0M27.09,98.29h0m-2.16,18.87h0M12.75,134.41h0m-8-3.19h0m23.91,15.94h0m17.53,2.66h0m23.17-11.46h0M47.68,128h0m8.1-27.09h0m-1.06-9h0M72.78,56.85h0M93,52.6h0m-1.59-9h0m4.93-9.14h0m11,3.3h0m19.12-1.59h0m0-13.82h0m-1.59-6.9h0m18.59-3.19h0m-8.5,6.91h0m-9.33,33.25h0m-8.51.47h0m.84-13.54h0m21.37,12.6h0M111,71.75h0m-10-.56h0M94,82.88h0M70.8,90.65h0m14.86,4.64h0m11.56,15.22h0m1.6,9.56h0M89.65,127h0M85,132.82h0m-6.64,3.65h0m-.79-24.9h0M64.28,131.76h0m15.41,16.47h0m54.19-27.63h0M127,110.49h0m-11.34-1.42h0m1.89-17.95h0m15.25-1.87h0m14.87,25.51h0m-12.75,15.93h0m2.66,8h0m-4.78,10.1h0m-20.72-1.07h0m-21.57-8.32h0m-30,11.51h0M4.25,61.63h0m145,11.15h0M6.38,107.85h0M146.63,55.78h0m-3.19,74.91h0M5.84,150.88h0M2.66,35.06h0m59.5-14.34h0m23.38.53h0m12.75,0h0m18.06-7.44h0M136,13.28h0m-2.66-9.56h0m14.34,34h0M17,99.35h0m-6.37,20.72h0M6.91,139.19h0m30.81,8.5h0m6.91-14.34h0m0-37.72h0m12.94,14.86h0M78,128h0m10.76-11.68h0m22.71,11.15h0m-6.24,6.38h0m11.69,4.25h0M53.66,51.53h0m36.66,8h0m20.19,31.35h0m31.87,18.59h0M97.2,99.62h0M78.63,94h0M36.13,60h0M23.91,77.57h0M140.25,70.8h0M15.41,32.94h0m-8-28.16h0M141.32,78.63h0M93.5,133.35h0M54.72,148.23h0m-17-57.58h0M88.19,72.78h0m25-41.44h0M80.75,37.19h0M27.63,42h0m97.75,1.59h0m18.06,77.57h0M11.16,147.69h0m25-142.38h0M3,9.05H3m5.68,0h0m5.67,0h0m5.67,0h0m5.67,0h0m5.65,0h0m5.67,0h0m5.67,0h0m5.69,0h0m5.67,0h0m5.67,0h0m5.67,0h0m5.68,0h0m5.67,0h0m5.67,0h0m5.67,0h0m5.65,0h0m5.67,0h0m5.67,0h0m5.69,0h0m5.67,0h0m5.67,0h0m5.68,0h0m5.69,0h0m5.67,0h0m5.67,0h0m5.62,0h0M2.85,28.18h0m5.68,0h0m5.67,0h0m5.67,0h0m5.67,0h0m5.65,0h0m5.67,0h0m5.67,0h0m5.69,0h0m5.67,0h0m5.67,0h0m5.67,0h0m5.68,0h0m5.67,0h0m5.67,0h0m5.67,0h0m5.65,0h0m5.67,0h0m5.67,0h0m5.69,0h0m5.67,0h0m5.66,0h0m5.69,0h0m5.69,0h0m5.67,0h0m5.66,0h0m5.62,0h0M2.85,47.46h0m5.68,0h0m5.67,0h0m5.67,0h0m5.67,0h0m5.65,0h0m5.67,0h0m5.67,0h0m5.69,0h0m5.67,0h0m5.67,0h0m5.67,0h0m5.68,0h0m5.67,0h0m5.67,0h0m5.67,0h0m5.65,0h0m5.67,0h0m5.67,0h0m5.69,0h0m5.67,0h0m5.66,0h0m5.69,0h0m5.69,0h0m5.67,0h0m5.66,0h0m5.62,0h0M2.69,66.47h0m5.68,0h0m5.67,0h0m5.67,0h0m5.67,0h0m5.65,0h0m5.67,0h0m5.67,0h0m5.69,0h0m5.67,0h0m5.67,0h0m5.66,0h0m5.69,0h0m5.67,0h0m5.67,0h0m5.67,0h0m5.65,0h0m5.67,0h0m5.67,0h0m5.69,0h0m5.66,0h0m5.67,0h0m5.69,0h0m5.69,0h0m5.66,0h0m5.67,0h0m5.62,0h0M2.53,85.6h0m5.68,0h0m5.67,0h0m5.67,0h0m5.67,0h0m5.65,0h0m5.67,0h0m5.67,0h0m5.69,0h0m5.67,0h0m5.66,0h0m5.67,0h0m5.69,0h0m5.67,0h0m5.67,0h0m5.67,0h0m5.65,0h0m5.67,0h0m5.67,0h0m5.68,0h0m5.67,0h0m5.67,0h0m5.69,0h0m5.68,0h0m5.67,0h0m5.67,0h0m5.62,0h0M2.36,104.73h0m5.69,0h0m5.67,0h0m5.67,0h0m5.67,0h0m5.65,0h0m5.67,0h0m5.67,0h0m5.69,0h0m5.66,0h0m5.67,0h0m5.67,0h0m5.69,0h0m5.67,0h0m5.67,0h0m5.67,0h0m5.65,0h0m5.67,0h0m5.67,0h0m5.68,0h0m5.67,0h0m5.67,0h0m5.69,0h0m5.68,0h0m5.67,0h0m5.67,0h0m5.62,0h0M2.2,123.85h0m5.69,0h0m5.67,0h0m5.67,0h0m5.67,0h0m5.65,0h0m5.67,0h0m5.67,0h0m5.68,0h0m5.67,0h0m5.67,0h0m5.67,0h0m5.69,0h0m5.67,0h0m5.67,0h0m5.67,0h0m5.65,0h0m5.67,0h0m5.67,0h0m5.68,0h0m5.67,0h0m5.67,0h0m5.69,0h0m5.68,0h0m5.67,0h0m5.67,0h0m5.62,0h0M2.2,143h0m5.69,0h0m5.67,0h0m5.67,0h0m5.67,0h0m5.65,0h0m5.67,0h0m5.67,0h0m5.68,0h0m5.67,0h0m5.67,0h0m5.67,0h0m5.69,0h0m5.67,0h0m5.67,0h0m5.67,0h0m5.65,0h0m5.67,0h0m5.67,0h0m5.68,0h0m5.67,0h0m5.67,0h0m5.69,0h0m5.68,0h0m5.67,0h0m5.67,0h0m5.62,0h0M15.94,52.6h0m-9,47.28h0M21.65,127.5h0m7,11.69h0m18.06-26.56h0m25.5-40.91h0m-17,0h0M79.16,60h0m51-3.18h0m-5.31,63.75h0m0-30.81h0m-6.38-14.88h0m28.69,74.38h0m-18.06-10.1h0M94.57,150.88h0M52.07,1.59h0m21.78,77h0m51.53-8h0m-110,20.19h0m6.37-71.72h0m29.75,2.65h0M14.34,17.53h0m-.53,54.19h0m32.94-1.06h0M63.22,93.5h0m71.19,20.19h0M105.72,2.13h0m45.69,131.22h0m-.29-24.28h0m-1.3-86.23h0m1.06,57.91h0M84.47,3.19h0M44.63,5.84h0m22.84,18.6h0m75.14,18h0M88.47,100.7h0m28.41,14.06h0M48.6,38.2h0M72.78,56.85h0m34.54-19.13h0m-3.95,42.69h0M26.48,109.82h0m2.21,29.37h0m65.88,11.69h0m30.81-80.22h0m26,62.69h0"/></pattern><pattern id="d" width="153.07" height="153.07" patternTransform="translate(1034.78 600.46) scale(1.92 1)" patternUnits="userSpaceOnUse" viewBox="0 0 153.07 153.07"><rect class="a" width="153.07" height="153.07"/><path class="d" d="M17.24,31.18h0m-5-14.64h0m-7.44-7h0m7.44-.12h0m-.45-5.74h0m8.25,8h0m2.29-7.18h0M29.76,9h0m5.91-4.54h0m7.44-1.06h0M2.36,2.13h0M9.27,28.35h0M8.39,37.2h0M3.31,33.07h0m2-15.63h0M3.78,45.53h0m8.68,2.3h0M18,55.63h0m-7.08,3.54h0M21.14,47.66h0M6.26,53.33h0m8.86-14h0m5-16.3h0m8.74-2.71h0m15.71-7.56h0m-1.77,7.79h0m7.44-3.19h0m-1.77,8.15h0M39.92,28h0m5.32,3.9h0m-9.57,3.19h0m-6,4.6h0m12-.35h0m8.51-1.42h0m2.12-7.08h0m5,4.25h0m2.13-6.73h0m6.73-3.55h0m-.35,7.09h0m7.79-3.19h0m-1.06,7.09h0m-6,3.89h0m4.6,6.21h0m9.57-12.58h0m-1.42,6.37h0m7.09.36h0m-5.67,5.31h0M73.76,59.7h0M77,52.62h0m5.85,5.67h0m4.42-6.2h0m5.5-6.74h0M96.79,37h0m5.14,8h0m7.79-.89h0m5.5-8.5h0m-9.22.18h0m-7.08-7.62h0m22.14-18.6h0M143.74,36.5h0m2.83,12.4h0M142,43.58h0m-5,5.32h0m2.83,5.43h0m10.28.59h0m-5,3.54h0m-9.1,2h0m-4.72-8.74h0m-9.21-6.38h0m.23,8.51h0m-7.08,2.36h0m12.87,1.89h0m1.3,7.56h0m11.46-1.54h0M137,69.92h0m12-62.12h0m-7.44,2.83h0M143,2.83h0m-9.21,0h0m-1.06,6.38h0m-7.09-3.9h0m-7.44-3.18h0m31.53,60.59h0m.36-27.64h0m-1.07,8.15h0M129.92,24.09h0m3.9-6h0M137,26.93h0m-9.57,3.9h0m6.73,10.63h0m-6-3.9h0m6-2.13h0m8-5.19h0m1.19-10.4h0m5.66,5h0m1.42-6.73h0m-40,9.39h0m-4.07-8.33h0m-9.57.36h0M80.67,23.56h0m-3.54-7.79h0m-7.8,1.77h0m-8-4.78h0M53.74,9.92h0m3.19-7.26h0m7.79,2.12h0m7.09,4.79h0M83,9.21h0m16-5.31h0m9.39-1.24h0M90.59,26.4h0m-4.07-8h0m5.84-4.61h0m35.79-.36h0m-16.3-4.6h0m-9,45.35h0m-8.14-.71h0M95,62h0m-2,7.44h0m8.15-2.13h0M99.45,73.7h0m9.57-6h0m3.89-3.9h0m.71,9.21h0m5.44-4.49h0m2.83-7.08h0m5.67,11.81h0m-8,3.78h0m-5.67,7.56h0m-1.3,6.85h0M122.48,95h0m7.09-7.44h0M130.63,95h0m6-5h0m1.42-8.15h0m6-3.42h0m6.62-3.78h0M144.09,85h0M143,93.9h0m6.73-4.61h0m-13.11,11h0m12.76,7.44h0m-4.61,5.67h0m-6,3.54h0m5.31,3.54h0m2.48,7.44h0m3.9-8.27h0m-18.07,1.9h0m-2.12,7.08h0m-7.8,0h0m-20.91,23h0M137,132.52h0m-3.55,6.73h0m9.93-3.9h0m-2.84,6.38h0m-7.44,5.67h0m-8.5-4.25h0m-7.44-6h0m-1.07,7.44h0m-2.48,6.37h0M109.37,141h0m-2.13,6h0m17,2.48h0m17.72-.36h0m6.38-7.08h0m2.12-8.86h0m-.35,15.23h0M126.73,135h0M27.17,104.17h0m111.61,22h0M128.15,102.4h0m-11,1.42h0m-3.55-6.38h0m-8.86,12h0m22,0h0m-7.79,2.12h0m-1.07,7.8h0m-5.67-4.61h0m-2.83,7.44h0m-8.15-5.31h0m.35,7.79h0m-5-14.52h0m4.61-7.44h0m-7.79-.36h0M97,95.31h0m5-5.66h0m-8.5-3.19h0m6.37-3.9h0m-6.73-5h0M86,81.5h0m-8.85-5.32h0M66.5,75.47h0m-10.28,0h0M52,81.85h0m9.92-.35h0m-4.61,5.67h0m14.89-5.32h0m-5,5.67h0m10.63-1.06h0m7.8,4.25h0m-7.44,2.12h0m8.15,4.61h0M78.9,99.92h0m6.73,5h0M87.76,63.6h0m-8.69,2.13h0M69,65h0M63,45.71h0M58.7,52.26h0m8.5,2h0m-4.6,6.38h0m-9-2.83h0M46.12,63.6h0M35.85,54.21h0m.7,7.44h0m-6.9,5.14h0m8.68,2.66h0M47,72.81h0m-4.43,8h0m-6.38-3.9h0m-3,5.31h0m4.25,5.32h0m9.57.71h0M42.76,93.9h0m9.56-.36h0m-3.54,7.09h0m12.4-8.15h0m9.21,2.83h0m-7.08,3.9h0m-7.8,3.9h0m11.34,1.77h0m-6.73,3.9h0m-9.92,0h0m6,5.67h0m-8.5,2.83h0M41,113.74h0m36.85-3.9h0m10.28,1.77h0m-6,3.55h0m11,3.19h0m-.71,6.73h0M98,132.17h0m9.21-2.13h0M94,138.43h0m-5.56-5.2h0M84.21,122.6h0m-8.15-3.54h0m3.19,8.85h0m1.77,7.8h0m5.32,6.2h0m11.51,2.48h0M83.5,148.11h0m-6.73-3.9h0m-8.15-5.67h0M67.91,129h0m-6,6h0m.71,7.09h0m7.32,7.67h0m-8.38-.94h0m-7.09-3.9h0m-6.38,5.67h0M55.16,123h0m-2.84,6.73h0m-7.08-5h0m-7.44-5h0m-4.61-8.5h0m.71-10.63h0m-6.73-5h0m-7.09,3.19h0m.71-10.28h0m-6.74,3.55h0M9.09,84h0m7.09-2.48h0m-3.54-7.8h0M6.26,76.18h0M1.65,83.62h0M9.8,98.5h0M4,103.56H4m11.79,1h0m-5.67,4.25h0m12.4,1.42h0m5.67,7.08h0M6.61,120h0m8.94-6.14h0M4.2,113.65h0M12.83,121h0M2.1,127.37h0m7.35.19h0M5.2,136.09h0m-1.61,6.28h0M30.71,122.6h0m-7.09,3.54h0m7.09,3.54h0m7.44-1.41h0m6.73,4.6h0m2.36,6h0m-21.49-4.61h0M17.6,135h0M36,136.23h0m-7.2,4.08h0m13.23,2.37h0M35.34,146h0m4.82,3.12h0m-11.29,1.14h0m-7.14-6.62h0m-7.56-.19h0m4.16,7.28h0M5.2,149.29h0M9.28,66.61h0M1.85,68.5h0m.87-8.26h0M40.63,107h0M28.05,74.59h0m-6.38-8h0M50.91,47.48h0M54.09,23h0m-28,6.2h0m-2.66,8.15h0M26.81,53.5h0m-1.42,6.38h0M77.13,1.42h0m-19.49,18h0m3.7.48h0m3.92,1.06h0M69,22.15h0m3.81,1.76h0m3.51,2.2h0m4.33,2.76h0M85,31.81h0m4.26,3.31h0m33.56-19.53h0m-3.73.12h0m-4-.42h0m-3.87-.64h0m-4-1.13h0m-3.81-1.62h0m-4.72-2h0M93.83,7.66h0M89.1,5.07h0M60.47,38.62h0M57.25,40.5h0M53.5,42.05h0m-3.71,1.28h0m-4.1.93h0m-4.12.39h0m-5.12.45h0m2.76,3.21h0m2.13,3.07h0m2.12,3.07h0m1.66,2.6h0M31.2,45.44h0m-5.4,0h0m86.05,63h0M49.13,145.28h0m61.12-40.23h0m-58.7,36.62h0M109,101.19h0M54,137.83h0m54.08-40.44h0M56.62,134.25h0m50.86-41h0M59.07,130.17h0m48.17-41.59h0M8.39,144.92h0m.94-3.61h0m1.56-3.75h0M12.6,134h0m2.24-3.55h0m2.81-3.7h0m2.28-3.67h0M22.31,119h0m39.23,6.84h0m45.87-41.92h0M64.22,121.8h0m1.92-3.45h0m2.69-4.06h0m58.38-31.66h0m-4.14,3.12h0m-4,3.07h0M131.15,80h0m4-2.87h0m7.71-5.76h0m-4,2.83h0m8.27-5.43h0M75.9,70.87h0m5.1.91h0m5,.86h0M71.27,69.8h0m-4.86-1h0m-9.47-1.73h0m4.81,1h0M52.14,65.7h0m57.27-12.92h0m-3.14,4.12h0m-3,4h0m9.25-11.78h0m3.13-3.86h0m5.87-7.63h0m-1-4.74h0m-.71-5.06h0m-.47-5.43h0m-.91,19h0m5.87-1.32h0m2.6,3.07h0m3.07,2.83h0m-59,64.73h0m1.92-3.46h0m2.68-4.06h0m.12,34.21h0m-1.18-3.88h0m-1.23-3.76h0M72,125.12h0m-.92-4.41h0M2.83,26h0m4-1.63h0M11,22.53h0M15.21,21h0m4.31-2h0M24,16.84h0M28.47,15h0M32,13.19h0m4.49-1.86h0m3.66-1.77h0m3.52-1.79h0m4.5-1.86h0M32.67,30.67h0m1.19-3.88h0M34.94,23h0m1.69-4.56h0m1.7-4.17h0m69.19,64.42h0m.49-5.37h0m-7,68.07h0m3.19-3h0M91.12,150.59h0m3.37-3.19h0m13.16-11.79h0m4.34-3.2h0m3.84-3.42h0m4-3.41h0m4.34-3.2h0m3.56-3.2h0m3.34-2.65h0m3.39-3.36h0m3.46-2.76h0m3.39-3.36h0m3.55-3.2h0m3.35-2.65h0m3.38-3.35h0M2.36,95.09h0m3.39-3.36h0m38.6,8.55h0m-3.3-1.75h0m-3.3-2.36h0m-3-2.47h0m-3-3h0m-2.51-3.29h0m-3.1-4.1h0M23.08,79h0m-2.83-4.6h0m-2.83-4.59h0m-2.83-4.6h0"/></pattern><symbol id="e" viewBox="0 0 3001.12 1083.3"><g class="e"><path class="f" d="M3000.9,1080H.9V507.17c28.39,2.9,69.2,6.5,118.47,8.89,61,3,135,6.55,228.58-1.12,66.67-5.47,100-8.2,144.4-17.16,22.3-4.49,50.28-11.09,91.07-12.91,30-1.34,41.65-.64,66.52,1.28,27.25,2.1,45.28-1.43,123.87-16.53,98.32-18.9,147.73-28.38,160.19-30.17,37.87-5.44,83.38-11.83,142.31-12.91,36.45-.67,81.91.61,95.75,1,11.21.32,35.37,1,58.31,2.28,97.11,5.4,105.13,17.67,169.33,18.09,44.53.29,44-5.59,108.32-5.9,11.69-.05,43.83,0,85.89,3,52.32,3.79,71.9,8.74,126.48,15.87,18.07,2.36,76.55,9.74,145.68,13.67,87.24,5,96.43-1,159.07,5.93,42.65,4.7,72.64,11.22,113.61,20.13,76.5,16.64,73.73,21.9,155.88,39.85,27.35,6,55.77,11.53,88,15.91,10.53,1,26.73,2.66,46.44,5.14,72.61,9.14,125.56,21,134.31,22.89,47,10.05,160.83,17.8,437.49,12.39"/><path class="g" d="M.9,507.17a2132.2,2132.2,0,0,0,448.92-2.87c46.34-5.24,90.9-11.82,133.6-19.43l59.76,1.92,72.4-5L754.4,477l19.41-7.38,30.49-5.3,72.09-10.27L934,439.45l43.44-7.7,62.23-1.45,42.21-4.33,78.55,1.12,69.94,2.73s49.9,5.3,50.83,5.94,88.72,10.75,88.72,10.75,62.54,3.05,65.93,2.73,61.61-7.06,61.61-7.06,74.25-1.29,75.79,0,98.89,11.39,98.89,11.39l99.2,15.09,107.82,6.74,44.37,4.17,64.08.32a442.27,442.27,0,0,1,58.66,2.38c11.36,1.23,27.89,3.48,77.23,14.82,25.18,5.78,44.62,10.65,56.91,13.76,72.57,18.39,81.4,22.67,124,31.77q31.2,6.11,63,11.65c222,38.58,434.35,49.74,633.5,42.55"/><path class="h" d="M1570.21,441.43,1568.9,480l33.74,24.76A244.15,244.15,0,0,1,1625,541.83c14.81,30.65,7.92,34.85,22.9,45.26,4.86,3.38,30.82,20.79,38.27,28.49a22.27,22.27,0,0,1,5.09,8.22c3.77,10.8-5.08,10.65-2.71,28.23.78,5.81,4.14,14.31,10.84,31.06s7.84,18,8.13,22.59c.72,11.53-5.32,18.47-10.84,28.23-6.42,11.34-28.79,50.88,1.35,67.06,5.47,2.94,6.25,1.66,27.1,9.88,19.27,7.61,23.53,10.64,35.23,15.53,39.25,16.42,67.52,14.14,73.17,25.42,2.49,5-2.79,5.79,0,14.11.67,2,3.78,10.32,16.26,18.36,9.44,6.08,19.87,9.18,27.1,11.29,41.09,12,63.35,17.1,81.3,22.59,32.49,9.93,24.62,13,54.2,22.59,49.61,16,71,7.08,127.37,22.59,35.11,9.65,33.18,14.88,65,21.17,37.16,7.34,67.54,5.72,86.72,5.65,32.62-.13,78.2,10.59,169.38,33.88,12.23,3.13,29.78,7.76,54.82,12.55,32.94,6.31,49.41,9.46,69.88,9.89,26.25.54,35.39-3.15,55.06,2.11,15.08,4,30.37,13.77,34.59,16.24a218.12,218.12,0,0,1,22.59,15.18"/><path class="i" d="M1002.09,433.48c0,1.36-3.05,17.48-3.05,17.48-.25,1.66-1.14,4.06-4.42,6.05-3.82,2.32-8.84,2.84-14.84,3.57-17.8,2.17-26.7,3.25-33.44,5.7a28.3,28.3,0,0,0-13.09,9.19,47.42,47.42,0,0,1-15.36,4.84c-9.14,1.31-16-.08-22.87-.53-8.59-.57-21,.09-37.58,5.68-9.47,1.75-17.21,3.43-22.88,4.73-8.37,1.92-12.63,2.92-16.77,4.41-9.35,3.38-10.3,5.78-17.11,8.65-8.8,3.71-15,3-27.61,5.12-25.54,4.31-22.1,11-45.22,14.64-7.85,1.23-23.28,3.64-40.65,1.24-8.47-1.17-14.19-3-20.83-1.59-5.9,1.29-6.08,3.78-13.21,9A78.76,78.76,0,0,1,630.8,543c-12.77,4.14-17.51,2.12-25.41,5.83C596,553.3,601,557,593.2,563.16c-.76.6-1.61,1.26-2.7,2-18.55,12.18-49.19,12.07-49.19,12.07-.32,0-20.67,4.42-61.36,13.26-67.76,14.71-67.6,16.2-79.05,15.53-20.7-1.22-33-6.75-42.36,1.41s-2.61,18.93-9.88,32.47c-16.11,30-77.88,29.68-84.71,29.64-27.51-.14-45-7.35-56.47,4.24-6,6.07-4.12,11-8.47,19.76-9.08,18.44-30.86,24.5-73.41,35.3-45,11.41-54.3,9.39-80.47,19.76A232.92,232.92,0,0,0,1.54,771.52"/><path class="j" d="M.9,1080V800.11c14.16-29.82,31.5-44.06,44.23-51.53,15.42-9,23.49-7.8,102-26,23.23-5.39,37.43-9,47.16-21.82s7-24.13,17.43-31.38c11-7.59,22.36-1,43.06,1.41,14.43,1.68,25.74-6,32.68.5a14.19,14.19,0,0,1,3.67,6c28.11,82.69,36.23,133.63,36.23,133.63,2,4.11,3.89,9.87,2.48,16-2.37,10.19-12.72,15.75-15.8,17.51-35.07,20-119.38,112.79-159.5,165.36-16.42,21.52-25.09,35.85-24,36.71,2.66,2.09,65.61-74.17,71.3-69.89,2.44,1.84-9.82,15.43-11.3,38.12-1.66,25.43,11.15,48.07,14.12,47.3s-7.79-22.22-4.94-51.53c5.45-56.12,55.37-89.21,88.94-135.53,4.17-5.75,7.1-10.36,13.41-14.83,10.3-7.29,18.59-6.45,23.94-14.92,3.09-4.88,2.48-8.56,5.22-9.43,5.5-1.76,14.14,11.11,15,12.35,12.34,18.67,7.82,39.13,7.06,71.3-.06,2.42-.65,29.92,2.12,50.82,7.39,56,42.72,94.34,44.82,93.18,2.76-1.53-45.54-74.79-25.8-94.15,2.31-2.27,5.07-3.31,12-4.52,35.59-6.24,65.87,3.22,68.53,4.08,42,13.64,40.23,22.55,73.18,33.55,58,19.35,100.87,4.21,129.4,17.27,2.64,1.21,13,6.26,24.71,3.53,4.73-1.1,12.81-4.21,12.71-7.06-.33-8.8-78.35,5.78-165.18-24-55.28-19-67.49-39.89-110.12-37.41-18.29,1.06-40.74,6.35-51.76-6.37-3.53-4.07-4.13-8-5.41-36-1.76-38.27-1.39-47.16-5.81-60.6-3.9-11.89-6.4-11.63-13.25-26.23-24.12-51.34-14.29-99.35-33.73-120.14a33.37,33.37,0,0,1-7.92-12.74c-2.35-7.13-2.87-17,1.32-24.26,7.91-13.63,25-8.18,40.09-21.18,17.23-14.88,6.56-31.77,20.8-42.44,16.22-12.16,32.09,1.55,76,3.53,49.47,2.23,54.1-14.08,92.11-9.18,0,0,31.21,4,51.8-3l9.12-3.1a79.08,79.08,0,0,1,9.72-1.81c19.64-2.5,30.63-13.89,37.94-17.76,7.69-4.07,6.59-8.35,10.84-8.47,6.42-.18,6.9,9.62,19,12,3.46.68,4.88.22,7.27.49,16,1.82,32.58,47,35.27,95.18.83,14.85-.13,21.69,5.11,30.71,9.64,16.62,29.51,22.09,43.2,25.25,62.26,14.37,125.52,10.55,125.47,8.47,0-.81-9.62.3-43.94-2.64-62.57-5.37-78-13.09-86-17.93S737,704.74,727.9,691.05c-17.67-26.45-1.62-41.28-18-81.84,0,0-14-34.59-8.32-37.85a29.58,29.58,0,0,0,4.34-2.51c2.91-2.07,3.39-3.46,7.85-4.55,10.21-2.49,16.66-5.44,28.46-7.29,11.38-1.79,12-7.54,21.68-7.77,7.3-.17,8.18,3.06,16.94,3.53,12.25.66,19.09-5.19,25.06-3.53,4.9,1.36.3,6.46,5,8.14,6.68,2.38,23.51-4.9,28.56-7.08,8.25-3.56,13.13-5.68,16.26-9.53,4.71-5.8-.51-8.25,4.62-13.83,4.67-5.09,13.25-7.68,15.7-8.4,8.91-2.61,11.61-.92,23.88-3.39,13.5-2.7,15-5.71,21.83-5.21,9.14.67,9.63,6.31,18.32,7,11.53.93,23.1-8,24.39-9,9.76-7.69,4.62-12.6,12.87-15.53,9.61-3.41,19.59,2.18,30.83-1.41,9.75-3.12,7.08-8.89,16.26-10.59,8.56-1.59,13.93,2.86,22.35,1.06,7.44-1.6,5.55-5.56,14.23-8.47a55.38,55.38,0,0,1,21.34-2.12c16.55,1.89,22.27,15.54,37.13,41.18,18.29,31.57,19.52,27.95,19.88,32.6,2.88,38.06-95.68,69.93-92.38,71.87.93.55,9.27-1.56,25.75-8.82a269.63,269.63,0,0,0,36-19c36.26-23,36.72-23.94,39.49-23.17,26.53,7.39-29.11,169.61,30.32,214.42,31.42,23.68,74.5-.89,114.6,37.45,7.38,7.05,21.95,21,25.13,39.94,12.93,77.07-174.21,167.86-169.48,175.7,1.81,3,31.53-6.44,65.65-30.17,69-48,96.39-113.06,111.7-106.41,4.82,2.09,2.6,8.75,13,34.4a312.71,312.71,0,0,0,14,29.13c22.15,40.44,129.7,73.31,132,67,1.84-5-73-10.31-122-72.42-49.53-62.76-22.52-119.91-70.42-150.55-37.92-24.25-72.64.19-105.59-31.83-19.24-18.7-23.59-42.77-28.1-67.78-13-71.89,21.4-88.93,6.37-139.41-15.53-52.17-68.27-87.88-59-98.91a4.5,4.5,0,0,1,2.34-1.61c7.07-2.38,20.46,4.54,38.61,1,9.76-1.87,9-4.83,21.34-7.41a95.36,95.36,0,0,1,24.06-1.76c19.38,1.12,21.16,8,40,9.7,12.49,1.17,12.56-1.77,31.5-1.58,15.65.15,29.27-.2,39,4.23,2.92,1.34,7.66,4.08,12.34,16.94,4,11.13,3.56,17.49,4.61,23.36,2.9,16.2,15.31,16.53,22.83,32.76,9.36,20.19-7.92,23.83,1,49.24a69.48,69.48,0,0,0,16.22,25.43c12.6,12.89,31.6,24.45,35.6,23.27s-6.34-14.59-12.19-22.23c-14.08-18.41-24-24-20.57-25.91,7.4-4.11,55.92,19.12,135.41,30.67,9.87,1.44,31,4.5,32.52,2.65,1.8-2.19-22.28-12.88-52.85-16.94-16.67-2.22-25.69-1.19-39.63-5.83-10.28-3.41-9.5-5.34-21.34-9.53-16.79-5.93-23.8-4-35.57-8.47-14.95-5.68-19.48-14.83-22.36-20.64-6.72-13.58,3.65-15.64,0-29.12-4.56-16.81-22-18.44-26.42-37.59-.61-2.63-4.13-18,7.64-21,5.74-1.48,9.76,1.71,25.75,1.76,4.52,0,5.79-.13,27.1-1.41,16.45-1,24.73-1.47,27.1-1.41,11.24.29,15.25,1.58,21.68,0,6.59-1.62,7.38-4.21,12.19-4.23,6.33,0,7.48,4.43,14.23,4.94,8.45.63,12.08-6,21-5.65,8.51.31,11.55,6.56,19,6,4.84-.36,6-3.21,9-2.89,4.17.45,2.66,6.11,8.63,12.07,3.57,3.57,6.38,3.79,12.19,7.41,9.26,5.76,7.72,12.49,21.68,21.17a12.57,12.57,0,0,1,3.76,3c3.5,4.68-2.15,9.81-4.07,11.65-11.12,10.65-3.83,12.63-21.52,31.31-18.68,19.72-39,30.42-37.93,30.9s32.32-10.53,48.78-30.71c17.09-21,13.2-43.31,28.13-44.85a22,22,0,0,1,8.6.84c6.87,2.42,5.44,9,5.42,11.3-.35,28.19,47.09,54.68,56.77,60.08l.09,0c2.2,1.25,34.14,19.51,42.72,35.59.33.61.55,1.07.55,1.07,4.52,9.79-1.55,13.52-2.71,28.23-1.51,18.91,9.78,21,11.65,42.27,1,11.86,2.56,32-8.52,56.49-9.45,20.85-20.79,24.37-15.87,34.57,5.45,11.29,23.62,17.57,58.75,29.34,57.37,19.22,88.17,20,94.11,33.48,2.95,6.66-2.19,11.91,5.68,22.59,1.24,1.68,5.62,7.34,15.44,13.5,11.75,7.37,23.85,10.81,67.21,21.44,44.42,10.9,46.64,10.95,55.56,14.47,23.29,9.2,19,13.13,39.83,20.56,18.24,6.49,36,8.65,65.86,12.27,30.13,3.65,31.36,1.8,47.42,4.94,27.54,5.39,34.22,12.86,55.44,20.24,13,4.52,20.38,5.16,92.26,11.88,82,7.66,95.25,9,116.42,12.88,36.58,6.77,71.11,21.08,71.11,21.08,39,14.92,71,18.79,93.25,19.52,34.58,1.13,55.62-5,86.51,5,23.89,7.76,41.12,21.09,51.88,31.06l-231.64.36"/><path class="k" d="M1596.55,474.07c2.66-2.61,14-1.14,71.81,4.23,54.35,5,57.22,4.94,68.43,7.06,39.48,7.47,34.12,14.49,71.14,22.59,47.61,10.42,65.75,1.11,99.59,13.76,13.25,5,18.11,9.13,36.58,13.77a233,233,0,0,0,44.72,6.35,138.55,138.55,0,0,0,21.86-.39c11-1.18,11.62-.9,12.42-.21,7.73,6.62-24.84,66.32-77.73,136.06-42.9,56.55-61.23,69.69-57.89,93.18,1,7.19,5.47,25.09,75.57,64.76,102.16,57.82,180.4,69.43,225.14,72.18,7.77.47,37.53,2.3,38.12-1.41.81-5.18-55.75-15.58-118.59-33.89-78.66-22.91-197.56-57.55-199.06-103.06-.7-21.27,25-23,55.6-80.13,18-33.67,18-49.64,30.25-52.11,16.62-3.35,24.38,24.55,80.74,80,18.56,18.27,28.77,26.11,40.94,45.18s18.07,36.41,22.59,35.29c3.58-.89,4.26-12.92,2.82-22.59-3.21-21.53-17.63-36-21.17-39.53C2050,664.32,2014.72,628.9,2016.77,595.51c1.94-31.75,35.28-57.55,43.19-59,2.28-.41,4.66-.63,4.66-.63a68,68,0,0,1,15.3.81c26.14,3.71,47,22.17,136.17,54.61,52.46,19.07,78.69,28.61,113.5,32.62,29.49,3.39,39.4.54,64.83,8.21,16.2,4.88,24.58,6.47,26.22,9.65,4.18,8.14-12.19,23.23-26.33,38.3-37.88,40.37-25.69,44.27-67.48,91.79-27.93,31.77-41.83,39.62-39.82,55,1.31,10,8.47,16.28,36.71,38.11,34,26.24,50.92,39.36,57.88,43.77,68.11,43.11,167.4,83.48,169.41,79.06,3-6.65-227.2-83.37-221.64-170.83,1.34-21.21,14.86-16.09,56.47-91.76,18.47-33.59,38.83-76.48,62.54-75.37,4.09.19,6.76,1.66,15.1,1.91,18.9.58,32.86-6.12,36.89-7.36,49-15.14,101,6,124.58,13.72,49.92,16.23,47.9,12.85,79.64,17.75,33.62,5.2,50.6,7,52.45,10.29,7.86,14-29.51,44-88.85,120.17-27.94,35.85-31.7,44.65-32.83,55.51-4.57,44.27,40.18,69.11,28.89,97.4-10.48,26.28-59.73,31.49-58.18,37,.79,2.82,13.59,1.47,14.12,1.41,35.57-3.93,43.54-26.76,64.94-31.06,33.38-6.71,51.34,41.3,129.88,67.77,5.47,1.84,22.35,7.45,24,4.23,5.48-10.67-179.22-74.18-183.53-165.18-1-20.61,26.18-56.09,80.47-127,17.54-22.92,41.51-52.11,72.77-51.94,3.82,0,5.23.77,13.86,1.92,20,2.66,48,5.92,81.22,8.26,27.54,1.95,60.19,3.38,97.1,3.29v372H2697.84c-20.68-17.84-39.72-25-51.53-28.24-12.64-3.45-24.64-4.48-40.41-5.82-18-1.54-28.54-1.24-38.12-1.49-23.23-.61-32.71-4.24-112.68-23-15.22-3.58-28.08-6.56-37.59-8.74l-54.17-16.1c-3.57-1.06-9.66-2.61-17.55-5.56-9-3.36-13.19-5.94-25-9.42-32.36-9.54-55.66-6.44-88.07-9.17-35.63-3-39.14-9.42-113.82-31.77-91.89-27.49-90.78-19-132.79-36-36-14.54-64.75-32-100.27-53.64-35.81-21.8-36.19-25.22-56.23-32.47-34.06-12.33-59.26-12-86.72-28.24-10.48-6.21-20.5-12.14-23-21.18-3.16-11.25,9.25-13.19,23-40.23a91.39,91.39,0,0,0,9.45-28.89c.14-1,.26-1.89.34-2.79,1.74-20.14-20.69-29.3-23.34-46-2.53-15.88,16.29-17.36,10.16-32.63-.86-2.14-2.72-5.81-21-22.43,0,0-9.8-6.79-27.1-23.29a59.43,59.43,0,0,1-8.46-9.64s-7.51-9.66-17.29-34.13l-6.1-7.41C1650.59,510.85,1589.41,481,1596.55,474.07Z"/><path class="l" d="M.9,507.17c36.25,3.69,82.37,7.48,136,9.68,37.92,1.55,89,3.53,155.29.91,61.29-2.42,105.44-4.17,163.76-14.12,5.37-.91,87.87-15,138.57-17.93,14.7-.83,22-1.19,30.64-1.29,20.28-.24,31.68,1,54.05-.12,17.95-.91,17.87-2.09,94.59-14.68,72.7-11.93,62.42-9.18,80.21-12.85,2.21-.46,58.58-11.21,102.3-19.41,25.85-4.85,38.92-7.21,45.78-3.88,8.9,4.33,5.15,16.77-7.47,23.53-12,6.43-21.83,2.28-42.69,9.27-18.68,6.26-18.32,12.11-34,14-11.07,1.34-13.37-1.3-29.47-.27-3.11.2-7.2.57-31,5.42-22.12,4.51-33.31,6.81-39.65,9.14-9.73,3.58-10.9,5.43-21.85,8.74a179.18,179.18,0,0,1-22.87,5c-32.7,5.85-31.23,13.1-52.84,15.35-25.43,2.65-37.81-6.31-53.86-1.06-8.56,2.8-6.88,6-17.28,11.91-13.81,7.92-24,5.23-37.6,11.65C601,551.17,601.36,555,597,560a37.34,37.34,0,0,1-7.31,5.83c-14,8.7-109.69,24.66-109.69,24.66-51.62,8.6-51.24,18.66-79.05,15.53-17.17-1.94-33-7.54-42.36,1.41-8.34,8-2.13,18.75-9.88,32.47-8.45,15-25.81,19.85-39.54,23.73-26,7.36-55.39,5.3-72.17,4.13-12.76-.9-18.29-2-25.23,1.61-13.77,7.26-12.42,22.56-23.82,36-6.57,7.73-14,10.92-46.06,19.06-56.22,14.27-70.28,13.84-96.71,24.17A224,224,0,0,0,1.54,771.52Q1.23,639.36.9,507.17Z"/></g></symbol></defs><use width="3001.12" height="1083.3" transform="translate(-0.9 0)" xlink:href="#e"/></svg>