<svg xmlns="http://www.w3.org/2000/svg" xmlns:xlink="http://www.w3.org/1999/xlink" width="1920" height="1920"><defs><clipPath id="a"><path class="a" d="M22.78 364.93h1920v1920h-1920z"/></clipPath><pattern id="b" width="241.06" height="241.06" patternTransform="matrix(.8 0 0 1.42 1185.59 1665.47)" patternUnits="userSpaceOnUse"><path class="a" d="M0 0h241.06v241.06H0z"/><path d="M5.07 7.42h0m9-1h0m9.62-1.59h0m8.51-1.42h0M4.6 13.68h0m8-.36h0m9-1.24h0m9-2.24h0m-26 9.68h0m7.44-.7h0m7.44-1.07h0M49.78 8h0M3.89 25.55h0m6.38-.71h0m6.26-.95h0m6.38-1.41h0m6.37-1.18h0m6.15-1.89h0m5.9-1.89h0m6.14-2.13h0m6.15-2.6h0m5.43-2.36h0m5.43-3.07h0m11.81-.89h0m-4.78 3h0m-5 2.48h0m-5 2.84h0m-5.14 2.13h0m-5.31 2.48h0m-5.32 1.94h0m-5.31 2.13h0m-5.32 1.59h0m-5.14 1.42h0m-5.67 1.6h0m-5.49.71h0m-5.67 1.06h0m-5.67.35h0m-5.49.18h0m3.62 3.55h0m-3.66 3.84h0m19.84 8h0m-5.84.18h0m-6 .18h0m-6.37-.53h0m6.73 9h0m-8.15-.35h0m16.3.53h0m8-.35h0m7.09-.71h0m6.73-1.07h0m15.24 5.5h0m5.67-1.78h0m-12.47 3.19h0m-6.55 1.24h0m-7.44.89h0m-7.09.71h0m-15.24.35h0m7.27 0h0m-14.88-.17h0m1.06 9.92h0m16.48 8h0M4.78 81h0m9.22-.18h0m35.79-3h0m-9 1.24h0m-9 .89h0m26.22-3.55h0M9.21 90.92h0m6.2-.35h0m5.67-.36h0M3 90.92h0m23.2-1.24h0m5.68-.68h0m5.67-.71h0m29.06-6h0m6-1.42h0m5.49-1.77h0m5.32-1.59h0M96.67 80h0m9.56.7h0m8.51.18h0m7.62-.35h0m-17 8.5h0m-10.46-.71h0m-11-1.77h0M114.56 89h0m9.57-.71h0m6.87-1.03h0m7.08-.89h0m6.74-.88h0M65.72 75h0m8-2h0m7.09-2.13h0m6.73-2.3h0m-46.98 2.15h0m-8.35.93h0m-9.39.53h0m-9 .35h0m34.05-2.69h0m7.08-1.24h0m6.56-1.42h0m6.2-1.59h0m6.38-2h0m6.38-2.31h0m13.46 4.79h0m11.63 3.25h0m5-2.9h0m4.79-3h0m-4.84 8.21h0M115.8 74h0m5.32 2h0m5.49 1.6h0m5.49 1.94h0m5.67 1.07h0m-37-17.07h0M10.39 36.41h0m5 2.66h0m5.14 2.3h0m5.31 2h0m5.32 1.77h0m5.66 1.78h0m5.5 1.41h0m5.49 1.24h0m5.49 1.42h0m5.32 1.42h0m5.49 1.06h0m5.31 1.24h0m5.67 1.06h0M86.57 58h0m6.14.71h0m6.14.47h0m6.38 0h0m7.56.24h0M80.9 57h0m-14.47-7.71h0m12.22 2.3h0m10.63 1.06h0m11.17.71h0m10.63.36h0m8.51 6.08h0m6.49 0h0m5.31-.18h0M238.58 90.8h0m-3 3.19h0m.89 5.85h0m-.18 7.09h0m1.42 21.26h0m-8.5-.18h0m-8.33-.53h0m-8.5-1.07h0m-8.86-.88h0m-8-1.42h0m37.62 15.35h0m5 11h0m-6-.36h0m-6.2-.35h0m-5.32-.35h0m-6.08-.48h0m-5.67-.88h0m-37.2-8.33h0m5.9 1.89h0m5.91 1.89h0m-17.66-6.26h0m-5.14-2.3h0m-5-2.66h0m-5-2.83h0m9-8.51h0m-5.32 2h0m-5.67 1.95h0m-27.28 7.44h0m-5.32 1.24h0m-5.49 1.42h0m-5.6 1.18h0m-5.5.84h0m-5.14 1.42h0m-5.84 1.06h0m-5.5.89h0m-5.49.89h0m-5.49.88h0m-5.67.89h0m-5.67.71h0m-5.49.88h0m-5.49.71h0m-5.49.53h0m-5.67.89h0m-5.32.71h0m-6.49.82h0m-6 .53h0m-5.84.18h0m-5.67.71h0m-6.2.71H3m7.2 5.73h0m-4.6-2.27h0m-3.36 56.34h0m6 5.14h0m-2.64 7.09h0m-2.3 8.86h0m.35 8.32h0m8.51-.71h0m8.5-.88h0m8.15-1.42h0m8.33-1.77h0m7.44-1.77h0M12 231.12h0m8.51-.89h0m8.15-1.59h0m-15.06-11h0m5.11 2.36h0m5.5 2.12h0m5.31 1.6h0m5.32 1.95h0m5.31 1.77h0m5.49 1.56h0m5.5 1.42h0m5.86 1.23h0m5 1.06h0m5.49 1.07h0m6 1.24h0m5.51 1.06h0m5.49.88h0m5.62 1.04h0m5.67.71h0m22.15 1.41h0m6.37-.17h0m5.5 0h0m5.84-.36h0m5.5-.71h0m5.66-.88h0m5.67-.53h0m5.67-.89h0m5.14-.89h0m5.32-1.06h0m5.84-1.65h0m6.14-1.66h0m6.85-1.31h0m7.09-2h0m6.85-2.13h0m5.91-1.42h0m-19.55 15.65h0m-7.09-3h0M126 234.6h0m22.1-1.6h0m-11.16 1.24h0m29.06-3.53h0m-8.86 1.41h0m17.86-3.19h0m-59.7 5.32h0m-3.25-5.08h0m8.15.53h0m8.5 0h0m8.68-.35h0m8.15-1.07h0m8.69-.88h0m8.32-1.77h0m8.33-2.13h0m7.79-2.13h0m8.51-2.83h0m26.1-4h0m-6.52 3.46h0m6.14 5.2h0m5.13-1.78h0m5.32-2.12h0m5.14-2.48h0m5.14-2.48h0M237 221h0m-15.59 6.55h0m8 2h0m8.86 1.6h0m-.71 8.68h0m-7.08-.41h0m-6.85-.71h0m-7.99-1.71h0m-8.13-2.12h0m-7.32-3.07h0m-5.37-16.3h0m-77.82 7.1h0m8.5.18h0m8.51.18h0m8.33-.89h0m8.68-.88h0m7.79-1.6h0m6.91-1.59h0m6.38-1.77h0m5.67-1.78h0m-69.27 6.91h0m3.54-7.61h0m23.6 1.24h0m-15.41-.36h0m8.15.53h0m14.7-.71h0m6.38-.7h0m5.49-.89h0m5.32-1.24h0m-20.38-5.31h0m-7.26.88h0m-8 .18h0m7.09-8.15h0m5.13 2.3h0m5.32 1.77h0m5.49 1.42h0m5.32 1.42h0m22.32 3h0m5.67.18h0m5.49.53h0m5.85 0h0m5.49 0h0m5.67 0h0m6 0h0m5.67.18h0m5.49 0h0m5.85.17h0m6-.35h0m5 .35h0M97 204.37h0m6.56 7.79h0m-8.15-1.95h0m-9.57-2.65h0m14.35 12.57h0m3.37 8h0m-8.33-1.24h0m9.45 6.85h0m-12.62-15.38h0m-5.31 7.09h0m6.61 7h0m-14.76-8.8h0m5.31-7.09h0m-8.33-2.66h0m-8-2.65h0m12.82 19.43h0m-34.05-17.46h0m21.85 15h0m-12.4-3h0m-11.87-3.54h0M34 218.13h0m-10.1-3.55h0m.65-5.61h0m5.67-.35h0m5.31-.71h0m5.85-.35h0m5.67-.71h0m5.67-.36h0m5.67-.88h0m5.31-.71h0m5.5-.71h0m5.67-.89h0m5.31-.88h0m5.82-1.07h0m5.67-.7h0m5.13-1.24h0m5.85-.89h0m5.49-1.42h0m5.67-.88h0m5.32-1.07h0m5.49-1.06h0m5.38-1.59h0m5.5-1.24h0m5.67-1.24h0m5.31-1.42h0m5.49-1.77h0m5.49-1.42h0m5.32-1.77h0m5.49-1.95h0m5.32-1.95h0m5-2.13h0m5.49-2.12h0M15.35 158.83h0m5.14 2.17h0m5.51 1.91h0m5.67 1.77h0m5.33 1.77h0m5 1.42h0m5.85 1.42h0m5.31 1.41h0m5.5 1.42h0m5.49 1.07h0m5.67.88h0m5.31.89h0m5.49.88h0m5.79.48h0m5.67.47h0m6.38.47h0m7.09 1h0m6.61.7h0m7.09.48h0m-23.33-9.28h0m-11.52-1.24h0m-11.77-1.82h0m-12.75-2.48h0m-11.52-3h0m-10.81-3.54h0m-10.27-3.72h0m79.54 16.47h0m-58.76-19.32h0M117.63 171h0m10.45-.18h0m-69.15-16.47h0m15.95-7h0m8 1.77h0m8.5 2.13h0m8.33 1.59h0m8.33 1.24h0m8.5 1.06h0m8.15.54h0m8.68.53h0m8.15.35h0m32.24-3.72h0m6.38-2.48h0m5.67-2.48h0m-88.94-4.61h0m8.86 2.13h0m8 1.42h0m8.33 1.06h0m8.33.89h0m8.15 0h0m8 .53h0m6.91-.18h0m5.67-.71h0m5.31-.71h0m5.5-.88h0m5.31-1.42h0m-11.69-4.07h0m-5.85 1.41h0m-9-5.84h0m6.37-.36h0m-10.45 6.56h0m7.09 0h0m-10.81-6.91h0m-5.31 6.2h0m-2.13-7.27h0m-7.44 5.32h0m-8.68-2.3h0m-49.79 18.6h0m30.71 5.2h0m9.33.29h0m8.51.53h0m8.15 0h0m8.68-.17h0m9.57-.36h0m9.38-.53h0m8.51-1.06h0m7.79-1.07h0m8.51-1.59h0m8.32-1.6h0m7.8-1.59h0m7.44-1.59h0m7.8-1.78h0m-68.33 18.9h0m11.34-1.06h0m9.92-1.42h0m-35.32 11.81h0m6.74-.23h0m22.32-2.48h0m5.85-.54h0m5.49-1.06h0m5.67-1.06h0m5.37-1.28h0m-6.67-6.62h0m9-1.59h0m8.86-1.77h0m8.5-2.48h0m6.91-2h0m7.21-2.42h0m6.85-2.6h0m18 .29h0m-5 3h0m-5.14 1.94h0m-5.13 2.31h0m-5.5 2h0m-5.31 1.77h0m-5.49 1.59h0m-5.32 1.6h0m-5.67 1.59h0m-5.31 1.24h0m-5.85 1.42h0m-56.63-47.36h0m-10.63 2.65h0m-11.52 2.66h0m-10.81 2.48h0m-12.22 2.13h0m-11 1.77h0m-10.09 1.24h0M3.65 139.7h0m37.09-.06h0m9-.71h0m55.39-15.35h0m-7.2.83h0m-34.79 3.24h0m7.09-.7h0M54.68 128h0m-8.33.35h0m-8.5.18h0m-8.68 0h0m-8.33.18h0m-8.33-.36h0m-8.68-.17h0m58.82-6.74h0m-8.5-.17h0m-8.51 0h0m-8.64-.53h0m-8.32-.53h0m-8.55-.21h0m-8.5-.71h0m-8.15-.89h0m67.32 2.84h0m151.89 17.3h0m-11-1.24h0m-10.81-1.77h0m-11.34-2.48h0m-10.1-2.84h0m-10.27-3.9h0m40.33-13.58h0m18.78-8.15h0m2.72-8.11h0M225.82 99h0m-5.31 2.31h0m-5.32 1.94h0m-5.31 2h0m-10.22-9.62h0m4.72 11.4h0m-5.49 1.41h0m-5.67 1.24h0m-5.31 1.77h0m-5.32 1.24h0m-5.67.89h0m-5.67 1.06h0m-5.31 1.07h0m-5.67 1.06h0m-5.49.71h0m-5.85.88h0m-5.31.71h0m-5.5.36h0m-5.84.71h0m-6.2.35h0m-7.8 0h0m-5.85-.35h0m-5.67-.36h0m-5.49-.71h0m-5.49-.35h0m-5.85-.89h0m-5.49-.88h0M79 116h0m-5.67-.89h0m-5.31-.7h0m-5.14-1.24h0M57 112.06h0m-5.84-1.59h0m2.3 4.78h0m-8.51-.88h0m-8.32-.71h0m-8.51-1.24h0M19.78 111h0m-8.33-1.59h0M3.12 108h0m33.13 1.59h0m-8.5-1.24h0m-8-1.77h0m-8.33-2.66h0m-8.12-2.49h0m20.73.71h0m-5-1.77h0m-5-2.13h0m-4.2-2.36h0M6 93.58h0m185.49 5.67h0m-8.86 3.9h0m-8.86 3h0m-10.27 3h0m-10.28 2.13h0m-43.76 3.18h0m10.45.36h0m10.81-.53h0m10.81-1.24h0m-43.21.95h0m-10.63-1.24h0m-9.39-1.59h0m2.6-8.17h0m-9.57-2.48h0m-2.6 8.48h0m-19.84-5.84h0m9.92 3h0M39.68 99.6h0M31 95.88h0m30.86 2h0M51 93.58h0m48.84 11.93h0m18.24-9.75h0m-29.39-1.59h0m-9.56-1.6h0m-9.22-3h0m20.91 15.23h0m17.36 1.2h0m17-11h0m6.56-.54h0m-15.6 11.7h0M138 93.82h0m18.24 7.61h0m7.45-2h0m6.73-1.94h0m6.73-2.13h0m6.85-2.43h0m-36 10.45h0m14.18-14.17h0m-6.38 1.42h0m-5.8 1.06h0m-6 1.24h0m-4.08 11.87h0m-7.44.71h0m-7.8.38h0m108.23-15.44h0m-5.67 0h0m-5.67-.18h0m-5.67-.35h0m-22.68-1.24h0m-5.49-.53h0m-6-.71h0m-5.5-.53h0m-5.67-.71h0m-5.31-.71h0m-5.49-1.06h0m-5.85-.89h0m-5.49-1.06h0m-5.32-1.07h0m-5.49-22.14h0m5.32-.71h0m5.67-.53h0m5.67-.89h0m5.66-.88h0m5.5-.71h0m5.67-1.07h0m5.67-1.24h0m5.49-1.06h0m5.31-1.24h0m5.32-1.24h0m27.28-8.15h0m5.14-2.3h0m5.14-2.3h0m5.31-2.49h0M158 49.82h0m11-1.77h0m-22.32 3.72h0M134.28 53h0m-11.16.53h0m57.23-8h0m9.74-2.84h0m9.21-2.83h0m8.86-3.37h0M35.07 40.43h0m-8.15-3.37h0m-7.5-3.66h0m14.71-1.77h0m7.26 4.25h0m8 2.84h0m8 2.83h0m8.5 1.6h0M74 44.56h0m8.33 1.07h0m8.68.88h0m9 .71h0m8.51.18h0m7.79-.36h0m8.15-.17h0M133 45.8h0m27.63-6.2h0m6.91-2.3h0m6.73-2.3h0M45.64 26.49h0m7.62 3.9h0m7.62 2.66h0m8 2h0m9.57 1.77h0m9 .88h0m9.75.54h0m10.27-.54h0m9.22-1.06h0m9-1.24h0m7.44-1.24h0m6.91-1.24h0m6.38-1.42h0m-81.64-7.31h0m-7.09-2h0m15.24 3.9h0m17.89-6.2h0m-7.44-1.6h0M74.88 16h0m23.56 5.31h0m7.26.89h0m7.44.53h0M85.51 7.89h0m5.31 2.66h0m4.78 1.77h0m5.14 2.48h0m5.49 2.13h0m5.5 1.77h0m5.27 1.77h0m5.32 1.59h0m5.68 1.42h0m5.32 1.24h0M139 26h0m5.31.89h0m5.5 1.06h0m5.67.89h0m5.66.35h0m5.67.53h0m5.5.71h0m5.49.35h0m5.67.54h0m5.84.17h0m5.67.18h0m5.5-.18h0m5.66.18h0m6 0h0m6.2-.35h0m6 0h0m6.38-.71h0m6.38 0h0M102.69 29h0m7.09 0h0m6.91-.35h0m6.73-.71h0M163 23.42h0m-11.11-1.89h0M98 3.64h0m31.19-.3h0m6.61 2.6h0m7.09 2.84h0m6.37 1.89h0m6.85 1.89h0m82 7.55h0m-6.61-.23h0m-7.56.23h0m-7.56 0h0m-7.56-.47h0m-7.82-.23h0m-7.8-.71h0m-9-1.18h0m26.69 10.15h0m-7.8-.35h0m-9-.53h0m-19.77-2.19h0M106.53 7.36h0m8.5 3.78h0m9 3.07h0m8.8 2.83h0m9.39 2.6h0m42.69 6.44h0M218 27.67h0m6.74-.17h0m6.55-.54h0m6.56-.53h0m-57.82-17h0m-8.68-2h0M163.2 4.6h0m-8.33-3.54h0m33.49 9.92h0m8 1.06h0m8.33.71h0m.17-8.75h0m-8.69-2h0m42.05 5.38h0m0 6.42h0m-8.22.1h0m-7.79-.18h0m-9.21-.35h0M18.6 164.62h0m-15.06-1.77h0m7.44.89h0M39.68 174h0m8.86-.35h0m23.74 5h0m-8.51 1.06h0m-7.79.71h0m-8.86 1.06h0m-10.28.71h0m-11 .36h0m-11.34.35h0m-10.43 9.89h0m-1.95 10.63h0m10.63-.53h0m10.45-.71h0m11.52-1.06h0m9.56-1.24h0m9.22-1.24h0m9.39-1.42h0m8.32-1.42h0m8.15-1.59h0m8-1.42h0m8-1.95h0m7.79-1.77h0m7.09-1.77h0m6-1.59h0m5.85-1.78h0m-110.58 8.51h0m8.5-.53h0m8.68-.54h0m9-.53h0m8.68-1.06h0m9.57-.89h0m31.53-4.6h0m6.2-1.07h0m6.56-1.06h0m-96 1.06h0m3.36-9.56h0m167.3 25.86h0M162.51 197h0m-11.34-3.3h0m36 7.73h0m12.05 1.07h0m10.8.7h0m10.81.36h0m12 0h0m-64.31-15.95h0m11.16 1.78h0m30.82 2.83h0m8.69.53h0m8.85 0h0m8.51 0h0M190 180h0m14.18 1.06h0m14.52 1.42h0m14.89.7h0m3.16-10.18h0m-.89-11.52h0m-24.33-91.29h0m-9.53-.88h0m-10.27-1.42h0m-9.75-1.59h0m-11.16-2.13h0M158 61.33h0m76.19 19.49h0m-11.52-.35h0m-12.22-.71h0m-12.41-1.24h0m-14.35-2h0M145.09 69h0m-12.58-3.72h0M238.28 45h0m-9.39-1.6h0m-10.45 8h0m-8.33-1.4h0m16.3 2.83h0m8.68.89h0m2.66 8.86h0m-7.8-.89h0m-7.61-.69h0m-8.15-.89h0M206.75 59h0m-16.84-3h0m8.86 1.77h0M56.33 5.54h0m6.2-3.9h0m11-.35h0m-4.44 2.83h0m11.34-.35h0m3-2.84h0M68 238.85h0m-8.85 0h0m-13.47.36h0m5.85-3.37h0M39 1.45h0M38.79 8h0m6.73-3h0M53 1.63h0m-7.3 237.58h0m5.85-3.37h0" style="stroke-linecap:round;stroke-width:1.98px;stroke:#d9b776;stroke-miterlimit:11.34;fill:none"/><path d="M27.07 16.19A116.84 116.84 0 0 0 43 11.59m53.77 17.89a116.16 116.16 0 0 1-16.49-1.83m31.83 68.8a92.7 92.7 0 0 1-14.71-.71m51.56 82a66.29 66.29 0 0 1-12.4 1.24m-18.46 28.69a92.08 92.08 0 0 1-14.62-1.77m9.13 33.72c-4.36-.11-8 .28-11.84-.55m103.63-91.21a93.21 93.21 0 0 1-14.4-3.05M88.54 160.49A91.67 91.67 0 0 1 74 158.1m-54.19 51.2c-4.34.47-8.49 1.21-12.41.89m195.2-18.59a52.26 52.26 0 0 1-11-.76m33.48-19.13a91.85 91.85 0 0 1-12.58-1.6m-13.11 51a115.86 115.86 0 0 1-15.47 5.38m-113.62-4.9a124.48 124.48 0 0 1-16.12-5.49M170 208.77c-4.25-.35-8-.89-11.87-1.59m32.07-83.63a116.08 116.08 0 0 1-15.77-5.17M60.23 83.75a119 119 0 0 1-16.15 3.81M30.2 139.48a117 117 0 0 1-16.6.16m78.54-15.44a117.67 117.67 0 0 1-16.47 2.1m-43.2 48.1a116.84 116.84 0 0 1-16.6-.27m29.27-64.93a117 117 0 0 1-15.77-5.2m148.16-87.4a117.48 117.48 0 0 1-16.35-2.84M155 41.17a118.22 118.22 0 0 1-16.25 3.42m91.83-37.38a117.75 117.75 0 0 1-16.5-1.77m0 38.11a117.79 117.79 0 0 1-15.91 4.72M172.8 75.19a116.12 116.12 0 0 1-16.25-3.37m77.19 46.25a119.05 119.05 0 0 1-16.25-3.37m20.15-42.34c-5.06-.18-11.44-.53-18.17-1.42m-6.92 18.75a103.61 103.61 0 0 1-15.4-.5M58.41 47.84A116.94 116.94 0 0 1 42.53 43m59.23 28.06a118.83 118.83 0 0 1-15.68 5.43m57.49 50.2a117.57 117.57 0 0 1-16.08 4.1M167.31 154a116.93 116.93 0 0 1-16.47 2m-70.51 29.67a117.3 117.3 0 0 1-16.48 2" style="stroke-width:1.42px;stroke:#d9b776;stroke-miterlimit:11.34;fill:none"/></pattern><symbol id="c" viewBox="0 0 2189.74 2284.93"><g style="clip-path:url(#a)"><path d="M22.78 364.93h1920v1920h-1920z" style="fill:#161515"/><path style="opacity:.4;fill:url(#b)" d="M22.78 364.93h1920v1920h-1920z"/><path style="stroke-width:2.07px;fill:#d9b776;stroke:#161515;stroke-miterlimit:13.97" d="m1.62 810.83 1.69-4.69-1.1-4.87 4.7 1.69 4.87-1.1-1.7 4.69 1.1 4.87-4.69-1.69-4.87 1.1z"/><path style="stroke-width:2.16px;fill:#d9b776;stroke:#161515;stroke-miterlimit:13.97" d="m63.19 630.11-3.03 4.25-.26 5.2-4.25-3.03-5.2-.26 3.03-4.24.26-5.21 4.24 3.03 5.21.26z"/><path style="stroke-width:2.28px;fill:#d9b776;stroke:#161515;stroke-miterlimit:13.97" d="m182.17 122.78-.31 5.48 2.7 4.78-5.48-.31-4.79 2.7.31-5.48-2.69-4.78 5.48.3 4.78-2.69z"/><path style="stroke-width:2.3px;fill:#d9b776;stroke:#161515;stroke-miterlimit:13.97" d="m188.6 108.11 5.12 2.16 5.48-.95-2.16 5.12.95 5.48-5.12-2.16-5.47.95 2.15-5.12-.95-5.48z"/><path style="stroke-width:2.03px;fill:#d9b776;stroke:#161515;stroke-miterlimit:13.97" d="m97.66 623.88.85 4.83 3.32 3.61-4.83.84-3.61 3.32-.85-4.83-3.32-3.61 4.83-.84 3.61-3.32z"/><path style="stroke-width:2.23px;fill:#d9b776;stroke:#161515;stroke-miterlimit:13.97" d="m75.25 778.92-1.07-5.26-3.75-3.84 5.26-1.08 3.85-3.74 1.08 5.26 3.74 3.84-5.26 1.08-3.85 3.74z"/><path style="stroke-width:2.19px;fill:#d9b776;stroke:#161515;stroke-miterlimit:13.97" d="m237.64 107.94-2.16 4.82.79 5.22-4.82-2.15-5.23.78 2.16-4.82-.78-5.22 4.82 2.16 5.22-.79z"/><path style="stroke-width:1.95px;fill:#d9b776;stroke:#161515;stroke-miterlimit:13.97" d="m80.61 848.04 3.31-3.35.97-4.6 3.35 3.3 4.6.97-3.3 3.35-.97 4.61-3.35-3.31-4.61-.97z"/><path style="stroke-width:2.06px;fill:#d9b776;stroke:#161515;stroke-miterlimit:13.97" d="m153.97 566.68 4.09 2.83 4.97.17-2.82 4.09-.18 4.97-4.09-2.82-4.97-.17 2.83-4.1.17-4.97z"/><path style="stroke-width:2.09px;fill:#d9b776;stroke:#161515;stroke-miterlimit:13.97" d="m216.36 332.82 1.18-4.89-1.64-4.76 4.89 1.18 4.76-1.65-1.18 4.9 1.65 4.75-4.9-1.18-4.76 1.65z"/><path style="stroke-width:2.32px;fill:#d9b776;stroke:#161515;stroke-miterlimit:13.97" d="m126.97 800.59 5.58-.34 4.51-3.3.34 5.57 3.3 4.52-5.58.34-4.51 3.3-.35-5.58-3.29-4.51z"/><path style="stroke-width:2.02px;fill:#d9b776;stroke:#161515;stroke-miterlimit:13.97" d="m225.12 406.8 4.85-.46 3.83-3.01.47 4.85 3.01 3.82-4.85.47-3.83 3.01-.47-4.85-3.01-3.83z"/><path style="stroke-width:2.1px;fill:#d9b776;stroke:#161515;stroke-miterlimit:13.97" d="m176.58 762.15-4.98.97-3.67 3.5-.97-4.99-3.5-3.67 4.99-.97 3.67-3.49.97 4.98 3.49 3.67z"/><path style="stroke-width:2.05px;fill:#d9b776;stroke:#161515;stroke-miterlimit:13.97" d="m297.18 211.21 1.72 4.63 3.94 2.98-4.63 1.72-2.97 3.94-1.72-4.63-3.95-2.97 4.63-1.72 2.98-3.95z"/><path style="stroke-width:2.27px;fill:#d9b776;stroke:#161515;stroke-miterlimit:13.97" d="m158.27 979.7-5.32-1.29-5.18 1.78 1.29-5.32-1.79-5.17 5.32 1.29 5.18-1.79-1.29 5.32 1.79 5.18z"/><path style="stroke-width:2.05px;fill:#d9b776;stroke:#161515;stroke-miterlimit:13.97" d="m177.52 881.61 4.3-2.45 2.3-4.37 2.45 4.3 4.38 2.3-4.3 2.44-2.31 4.38-2.44-4.3-4.38-2.3z"/><path style="stroke-width:2.24px;fill:#d9b776;stroke:#161515;stroke-miterlimit:13.97" d="m229.15 754.17-2.78 4.62.15 5.39-4.62-2.79-5.39.15 2.79-4.62-.15-5.38 4.62 2.78 5.38-.15z"/><path style="stroke-width:2.03px;fill:#d9b776;stroke:#161515;stroke-miterlimit:13.97" d="m332.31 281.25 1.63 4.63 3.87 3.01-4.62 1.63-3.01 3.87-1.64-4.62-3.87-3.01 4.63-1.63 3.01-3.88z"/><path style="stroke-width:1.99px;fill:#d9b776;stroke:#161515;stroke-miterlimit:13.97" d="m222.54 893.93-1.53 4.54 1.16 4.65-4.54-1.53-4.65 1.17 1.53-4.55-1.17-4.65 4.55 1.53 4.65-1.16z"/><path style="stroke-width:2.15px;fill:#d9b776;stroke:#161515;stroke-miterlimit:13.97" d="m327.86 439.52-4.62-2.37-5.17.49 2.37-4.62-.49-5.17 4.62 2.38 5.17-.49-2.38 4.61.5 5.17z"/><path style="stroke-width:2.08px;fill:#d9b776;stroke:#161515;stroke-miterlimit:13.97" d="m360.44 357.69-4.77 1.54-3.19 3.88-1.54-4.78-3.88-3.19 4.78-1.54 3.19-3.88 1.54 4.78 3.87 3.19z"/><path style="stroke-width:2.07px;fill:#d9b776;stroke:#161515;stroke-miterlimit:13.97" d="m419.96 84.45 1.23 4.82 3.64 3.4-4.82 1.23-3.4 3.64-1.23-4.83-3.64-3.4 4.82-1.23 3.4-3.63z"/><path style="stroke-width:2.27px;fill:#d9b776;stroke:#161515;stroke-miterlimit:13.97" d="m352.2 503.15-3.3 4.37-.42 5.46-4.37-3.29-5.46-.42 3.29-4.37.42-5.47 4.37 3.3 5.47.42z"/><path style="stroke-width:2.13px;fill:#d9b776;stroke:#161515;stroke-miterlimit:13.97" d="m363.34 443.31 3.03-4.14.31-5.13 4.14 3.03 5.12.31-3.02 4.14-.31 5.13-4.15-3.03-5.12-.31z"/><path style="stroke-width:1.97px;fill:#d9b776;stroke:#161515;stroke-miterlimit:13.97" d="m303.34 808.54.93-4.66-1.74-4.43 4.66.92 4.43-1.73-.92 4.66 1.73 4.43-4.66-.93-4.43 1.74z"/><path style="stroke-width:1.98px;fill:#d9b776;stroke:#161515;stroke-miterlimit:13.97" d="m287.58 939.83 4.29 2.1 4.74-.55-2.1 4.29.55 4.74-4.29-2.1-4.74.55 2.1-4.29-.55-4.74z"/><path style="stroke-width:2.07px;fill:#d9b776;stroke:#161515;stroke-miterlimit:13.97" d="m412.96 382.91 4.91-.86 3.66-3.38.87 4.9 3.37 3.66-4.9.87-3.66 3.38-.87-4.91-3.38-3.66z"/><path style="stroke-width:2.21px;fill:#d9b776;stroke:#161515;stroke-miterlimit:13.97" d="m428.92 396.66-2.03-4.92-4.38-3.05 4.93-2.04 3.05-4.37 2.04 4.92 4.37 3.05-4.93 2.04-3.05 4.37z"/><path style="stroke-width:2.13px;fill:#d9b776;stroke:#161515;stroke-miterlimit:13.97" d="m486.89 177.89-1.63 4.86 1.24 4.97-4.86-1.63-4.97 1.25 1.64-4.86-1.25-4.98 4.86 1.64 4.97-1.25z"/><path style="stroke-width:2px;fill:#d9b776;stroke:#161515;stroke-miterlimit:13.97" d="m326.71 1006.14 4.1-2.55 2.08-4.35 2.54 4.1 4.36 2.08-4.1 2.54-2.08 4.36-2.55-4.1-4.35-2.08z"/><path style="stroke-width:2.14px;fill:#d9b776;stroke:#161515;stroke-miterlimit:13.97" d="m442.5 473.43 4.19-3.01 1.91-4.8 3.01 4.19 4.8 1.91-4.19 3.01-1.91 4.8-3.01-4.19-4.8-1.91z"/><path style="stroke-width:2.3px;fill:#d9b776;stroke:#161515;stroke-miterlimit:13.97" d="m524.05 139.86 1.43-5.35-1.69-5.28 5.36 1.43 5.27-1.69-1.42 5.35 1.68 5.28-5.35-1.42-5.28 1.68z"/><path style="stroke-width:2.23px;fill:#d9b776;stroke:#161515;stroke-miterlimit:13.97" d="m365.78 1051.33-2.12 4.94.88 5.29-4.94-2.12-5.29.88 2.12-4.93-.88-5.3 4.93 2.12 5.3-.88z"/><path style="stroke-width:2.1px;fill:#d9b776;stroke:#161515;stroke-miterlimit:13.97" d="m471 521.01 3.45-3.7.9-4.98 3.71 3.44 4.98.9-3.45 3.71-.9 4.99-3.71-3.45-4.98-.91z"/><path style="stroke-width:2.15px;fill:#d9b776;stroke:#161515;stroke-miterlimit:13.97" d="m441.43 740.29 2.52-4.53-.32-5.18 4.53 2.52 5.18-.32-2.52 4.53.32 5.18-4.53-2.52-5.18.32z"/><path style="stroke-width:2.23px;fill:#d9b776;stroke:#161515;stroke-miterlimit:13.97" d="m554.62 288.62-5.39.06-4.5 2.95-.06-5.38-2.95-4.51 5.38-.06 4.5-2.95.06 5.38 2.96 4.51z"/><path style="stroke-width:1.95px;fill:#d9b776;stroke:#161515;stroke-miterlimit:13.97" d="m514.84 513.48 1.93 4.28 3.94 2.56-4.28 1.93-2.55 3.93-1.94-4.27-3.93-2.56 4.27-1.93 2.56-3.94z"/><path style="stroke-width:2.2px;fill:#d9b776;stroke:#161515;stroke-miterlimit:13.97" d="m538.84 421.51 3.74-3.77 1.11-5.2 3.77 3.74 5.2 1.11-3.74 3.78-1.11 5.19-3.78-3.74-5.19-1.11z"/><path style="stroke-width:2.02px;fill:#d9b776;stroke:#161515;stroke-miterlimit:13.97" d="m534.31 497.9 4.21-2.43 2.23-4.32 2.44 4.21 4.32 2.24-4.21 2.43-2.24 4.32-2.43-4.21-4.32-2.24z"/><path style="stroke-width:2.03px;fill:#d9b776;stroke:#161515;stroke-miterlimit:13.97" d="m595.12 330-4.88.11-4.06 2.73-.11-4.89-2.73-4.05 4.89-.11 4.05-2.73.11 4.89 2.73 4.05z"/><path style="stroke-width:2.26px;fill:#d9b776;stroke:#161515;stroke-miterlimit:13.97" d="m500.86 881.89-5.25 1.43-3.65 4.03-1.42-5.25-4.04-3.65 5.25-1.43 3.65-4.03 1.43 5.25 4.03 3.65z"/><path style="stroke-width:2.27px;fill:#d9b776;stroke:#161515;stroke-miterlimit:13.97" d="m563.04 623.96-4.58 2.98-2.25 4.99-2.99-4.59-4.99-2.25 4.59-2.98 2.25-4.99 2.98 4.59 4.99 2.25z"/><path style="stroke-width:2.01px;fill:#d9b776;stroke:#161515;stroke-miterlimit:13.97" d="m497.98 1035.43-4.85.23-3.96 2.81-.23-4.84-2.81-3.96 4.85-.24 3.96-2.81.23 4.85 2.81 3.96z"/><path style="stroke-width:2.21px;fill:#d9b776;stroke:#161515;stroke-miterlimit:13.97" d="m555.38 775.94-4.24-3.23-5.32-.44 3.23-4.24.43-5.32 4.25 3.23 5.31.43-3.23 4.25-.43 5.32z"/><path style="stroke-width:2.3px;fill:#d9b776;stroke:#161515;stroke-miterlimit:13.97" d="m499.92 1081.05 5.52-.55 4.34-3.44.55 5.52 3.44 4.35-5.52.55-4.34 3.43-.55-5.51-3.44-4.35z"/><path style="stroke-width:2.23px;fill:#d9b776;stroke:#161515;stroke-miterlimit:13.97" d="m616.07 529.84 4.66-2.72 2.44-4.8 2.72 4.65 4.8 2.45-4.65 2.72-2.44 4.8-2.73-4.65-4.8-2.45z"/><path style="stroke-width:2.02px;fill:#d9b776;stroke:#161515;stroke-miterlimit:13.97" d="m559.81 952.49-4.25-2.38-4.86.29 2.38-4.25-.29-4.86 4.25 2.38 4.86-.29-2.38 4.25.29 4.86z"/><path style="stroke-width:2.29px;fill:#d9b776;stroke:#161515;stroke-miterlimit:13.97" d="m585.94 822.47 4.17-3.63 1.55-5.3 3.62 4.17 5.3 1.55-4.16 3.63-1.56 5.29-3.62-4.16-5.3-1.55z"/><path style="stroke-width:1.96px;fill:#d9b776;stroke:#161515;stroke-miterlimit:13.97" d="m590.56 890.32 2.58 3.97 4.32 1.95-3.97 2.58-1.95 4.32-2.58-3.97-4.32-1.95 3.97-2.58 1.95-4.32z"/><path style="stroke-width:2.05px;fill:#d9b776;stroke:#161515;stroke-miterlimit:13.97" d="m708.97 309.09 4.25-2.52 2.22-4.42 2.52 4.25 4.42 2.23-4.25 2.51-2.22 4.42-2.52-4.25-4.42-2.22z"/><path style="stroke-width:2.12px;fill:#d9b776;stroke:#161515;stroke-miterlimit:13.97" d="m690.64 528.13-2.06 4.67.79 5.04-4.67-2.05-5.05.78 2.06-4.67-.79-5.04 4.68 2.06 5.04-.79z"/><path style="stroke-width:2.31px;fill:#d9b776;stroke:#161515;stroke-miterlimit:13.97" d="m663.08 715.98 3.68 4.18 5.35 1.54-4.18 3.68-1.53 5.35-3.68-4.18-5.36-1.54 4.18-3.68 1.54-5.35z"/><path style="stroke-width:2.05px;fill:#d9b776;stroke:#161515;stroke-miterlimit:13.97" d="m755.63 319.47-3.9 3.04-1.64 4.66-3.04-3.9-4.65-1.64 3.89-3.04 1.64-4.66 3.04 3.9 4.66 1.64z"/><path style="stroke-width:2.21px;fill:#d9b776;stroke:#161515;stroke-miterlimit:13.97" d="m682.86 795.35-5.17-1.26-5.04 1.74 1.26-5.18-1.74-5.04 5.18 1.26 5.04-1.74-1.26 5.18 1.73 5.04z"/><path style="stroke-width:2.09px;fill:#d9b776;stroke:#161515;stroke-miterlimit:13.97" d="M804.05 196.15h-5.04l-4.24 2.73-.01-5.04-2.72-4.24 5.04-.01 4.24-2.72v5.04l2.73 4.24z"/><path style="stroke-width:2.02px;fill:#d9b776;stroke:#161515;stroke-miterlimit:13.97" d="m676.78 912.95.56-4.82-2.13-4.37 4.83.56 4.37-2.13-.56 4.83 2.13 4.37-4.83-.57-4.37 2.13z"/><path style="stroke-width:2.26px;fill:#d9b776;stroke:#161515;stroke-miterlimit:13.97" d="m759.36 562.84-.66 5.42 2.36 4.92-5.42-.67-4.91 2.37.66-5.42-2.36-4.92 5.41.67 4.92-2.37z"/><path style="stroke-width:2.01px;fill:#d9b776;stroke:#161515;stroke-miterlimit:13.97" d="m750.9 702.12-4.74-1.01-4.54 1.71 1.01-4.75-1.7-4.54 4.74 1.01 4.54-1.7-1.01 4.74 1.7 4.54z"/><path style="stroke-width:2.07px;fill:#d9b776;stroke:#161515;stroke-miterlimit:13.97" d="m718.54 902.03 3.21 3.82 4.77 1.48-3.82 3.22-1.48 4.77-3.21-3.82-4.77-1.49 3.82-3.21 1.48-4.77z"/><path style="stroke-width:2.24px;fill:#d9b776;stroke:#161515;stroke-miterlimit:13.97" d="m853.26 196.94 1.79-5.11-1.24-5.27 5.1 1.79 5.27-1.24-1.79 5.1 1.25 5.27-5.11-1.79-5.27 1.25z"/><path style="stroke-width:2.05px;fill:#d9b776;stroke:#161515;stroke-miterlimit:13.97" d="m850.47 261.28 4.81 1.07 4.63-1.7-1.06 4.82 1.69 4.63-4.81-1.07-4.63 1.7 1.06-4.82-1.69-4.63z"/><path style="stroke-width:1.97px;fill:#d9b776;stroke:#161515;stroke-miterlimit:13.97" d="m765.5 795.8 4.18-2.27 2.3-4.17 2.27 4.18 4.17 2.3-4.18 2.27-2.3 4.17-2.27-4.18-4.17-2.3z"/><path style="stroke-width:2.3px;fill:#d9b776;stroke:#161515;stroke-miterlimit:13.97" d="m820.73 567.85 4.99 2.43 5.52-.65-2.43 5 .64 5.51-4.99-2.43-5.52.65 2.43-5-.64-5.51z"/><path style="stroke-width:1.98px;fill:#d9b776;stroke:#161515;stroke-miterlimit:13.97" d="m838.71 547.7 4.61 1.25 4.56-1.45-1.25 4.62 1.45 4.55-4.62-1.24-4.55 1.44 1.24-4.61-1.44-4.56z"/><path style="stroke-width:2.26px;fill:#d9b776;stroke:#161515;stroke-miterlimit:13.97" d="m843.78 641.41.71 5.4 3.5 4.17-5.4.7-4.18 3.51-.7-5.4-3.5-4.18 5.4-.7 4.17-3.5z"/><path style="stroke-width:2.25px;fill:#d9b776;stroke:#161515;stroke-miterlimit:13.97" d="m872.1 568.45-3.93 3.73-1.29 5.26-3.74-3.93-5.26-1.3 3.93-3.73 1.3-5.26 3.73 3.93 5.26 1.3z"/><path style="stroke-width:2.19px;fill:#d9b776;stroke:#161515;stroke-miterlimit:13.97" d="m850.06 703.3 4.36-2.98 2.06-4.86 2.98 4.36 4.86 2.06-4.36 2.98-2.07 4.86-2.97-4.36-4.86-2.06z"/><path style="stroke-width:2.2px;fill:#d9b776;stroke:#161515;stroke-miterlimit:13.97" d="m833.7 883.63 5.15 1.28 5.02-1.71-1.28 5.15 1.7 5.02-5.14-1.28-5.02 1.7 1.28-5.14-1.71-5.02z"/><path style="stroke-width:2.18px;fill:#d9b776;stroke:#161515;stroke-miterlimit:13.97" d="m874.02 707.82 3.36-4.04.64-5.22 4.05 3.36 5.21.65-3.36 4.04-.64 5.21-4.04-3.36-5.22-.64z"/><path style="stroke-width:2.16px;fill:#d9b776;stroke:#161515;stroke-miterlimit:13.97" d="m920.34 552.4.45 5.19 3.18 4.13-5.19.45-4.12 3.18-.45-5.19-3.19-4.12 5.19-.46 4.13-3.18z"/><path style="stroke-width:2.25px;fill:#d9b776;stroke:#161515;stroke-miterlimit:13.97" d="m871.28 901.02-.09-5.42-3-4.52 5.42-.09 4.52-3 .09 5.42 3 4.52-5.43.09-4.51 3z"/><path style="stroke-width:2.03px;fill:#d9b776;stroke:#161515;stroke-miterlimit:13.97" d="m929.28 666.57.69 4.84 3.19 3.71-4.84.69-3.71 3.19-.69-4.84-3.19-3.71 4.84-.69 3.71-3.19z"/><path style="stroke-width:2.01px;fill:#d9b776;stroke:#161515;stroke-miterlimit:13.97" d="m912.76 871.05-3.04 3.78-.52 4.81-3.77-3.03-4.81-.52 3.03-3.77.52-4.82 3.77 3.04 4.82.51z"/><path style="stroke-width:2.32px;fill:#d9b776;stroke:#161515;stroke-miterlimit:13.97" d="m883 1052.38 5.24-1.97 3.35-4.49 1.97 5.24 4.48 3.35-5.24 1.97-3.34 4.48-1.97-5.24-4.49-3.34z"/><path style="stroke-width:1.97px;fill:#d9b776;stroke:#161515;stroke-miterlimit:13.97" d="m1019.76 334.54-3.76-2.89-4.74-.4 2.9-3.77.4-4.73 3.77 2.89 4.73.41-2.9 3.76-.4 4.73z"/><path style="stroke-width:2.32px;fill:#d9b776;stroke:#161515;stroke-miterlimit:13.97" d="m1027.39 317.44.57-5.56-2.51-4.99 5.56.58 4.99-2.52-.58 5.56 2.51 4.99-5.55-.57-4.99 2.51z"/><path style="stroke-width:2.09px;fill:#d9b776;stroke:#161515;stroke-miterlimit:13.97" d="m1035.34 337.34 4.94-1.03 3.6-3.55 1.04 4.95 3.54 3.6-4.94 1.03-3.6 3.54-1.04-4.94-3.54-3.6z"/><path style="stroke-width:2.2px;fill:#d9b776;stroke:#161515;stroke-miterlimit:13.97" d="m950.35 973.39 3.01-4.38.16-5.31 4.38 3 5.32.17-3.01 4.38-.17 5.32-4.38-3.01-5.31-.17z"/><path style="stroke-width:1.99px;fill:#d9b776;stroke:#161515;stroke-miterlimit:13.97" d="m1066.31 301.48 3.78-2.94 1.59-4.51 2.95 3.78 4.51 1.59-3.78 2.94-1.59 4.52-2.94-3.78-4.52-1.6z"/><path style="stroke-width:2.03px;fill:#d9b776;stroke:#161515;stroke-miterlimit:13.97" d="m1036.93 661.26-4.89.12-4.05 2.74-.12-4.89-2.75-4.05 4.89-.13 4.06-2.74.12 4.89 2.74 4.06z"/><path style="stroke-width:1.99px;fill:#d9b776;stroke:#161515;stroke-miterlimit:13.97" d="m988.75 997.08-1.41-4.59-3.67-3.1 4.59-1.41 3.09-3.67 1.42 4.58 3.67 3.1-4.59 1.42-3.1 3.67z"/><path style="stroke-width:2.25px;fill:#d9b776;stroke:#161515;stroke-miterlimit:13.97" d="m1103.94 304.14 3.77-3.89 1.08-5.31 3.89 3.77 5.31 1.08-3.77 3.89-1.08 5.31-3.89-3.77-5.31-1.08z"/><path style="stroke-width:2.26px;fill:#d9b776;stroke:#161515;stroke-miterlimit:13.97" d="m1041.58 804.56 2.64-4.77-.34-5.44 4.77 2.64 5.44-.34-2.65 4.77.35 5.44-4.77-2.64-5.44.34zM1126.06 281.6l5.4-.67 4.18-3.47.67 5.39 3.48 4.18-5.4.67-4.18 3.48-.67-5.39-3.48-4.19z"/><path style="stroke-width:2.23px;fill:#d9b776;stroke:#161515;stroke-miterlimit:13.97" d="m1113.77 559.6-2.45 4.78.52 5.34-4.78-2.44-5.35.52 2.45-4.78-.52-5.35 4.78 2.45 5.35-.52z"/><path style="stroke-width:2.13px;fill:#d9b776;stroke:#161515;stroke-miterlimit:13.97" d="m1170.26 226.17-4.03-3.2-5.12-.52 3.2-4.03.52-5.12 4.03 3.2 5.12.52-3.2 4.03-.52 5.12z"/><path style="stroke-width:2.08px;fill:#d9b776;stroke:#161515;stroke-miterlimit:13.97" d="m1072.12 1005.61.72 4.96 3.28 3.78-4.96.72-3.78 3.28-.72-4.96-3.28-3.78 4.96-.72 3.78-3.28z"/><path style="stroke-width:2.29px;fill:#d9b776;stroke:#161515;stroke-miterlimit:13.97" d="m1112.2 829.37-2.01 5.14 1.08 5.42-5.15-2.02-5.41 1.08 2.01-5.14-1.08-5.42 5.15 2.02 5.41-1.08z"/><path style="stroke-width:1.95px;fill:#d9b776;stroke:#161515;stroke-miterlimit:13.97" d="m1107.76 959.51-1.82 4.34.82 4.63-4.34-1.81-4.63.81 1.81-4.34-.81-4.63 4.34 1.82 4.63-.82z"/><path style="stroke-width:2.19px;fill:#d9b776;stroke:#161515;stroke-miterlimit:13.97" d="m1154.91 651.07.19-5.28-2.7-4.55 5.28.18 4.55-2.69-.18 5.28 2.69 4.55-5.28-.19-4.55 2.7z"/><path style="stroke-width:2.05px;fill:#d9b776;stroke:#161515;stroke-miterlimit:13.97" d="m1198.07 489.15-1.3 4.78 1.5 4.72-4.79-1.29-4.72 1.5 1.29-4.79-1.49-4.72 4.78 1.29 4.73-1.49z"/><path style="stroke-width:1.98px;fill:#d9b776;stroke:#161515;stroke-miterlimit:13.97" d="m1201.78 464.1 4.72.75 4.38-1.92-.74 4.72 1.92 4.38-4.72-.74-4.39 1.92.75-4.72-1.92-4.39z"/><path style="stroke-width:2.02px;fill:#d9b776;stroke:#161515;stroke-miterlimit:13.97" d="m1147.44 1061.05-2.57-4.15-4.41-2.11 4.16-2.57 2.1-4.4 2.57 4.15 4.41 2.11-4.15 2.57-2.11 4.4z"/><path style="stroke-width:1.97px;fill:#d9b776;stroke:#161515;stroke-miterlimit:13.97" d="m1140.83 1173.63 1.15-4.6-1.51-4.49 4.6 1.15 4.5-1.51-1.16 4.6 1.51 4.5-4.6-1.16-4.49 1.51z"/><path style="stroke-width:1.94px;fill:#d9b776;stroke:#161515;stroke-miterlimit:13.97" d="m1251.09 368.62 4.56 1.04 4.4-1.58-1.04 4.56 1.59 4.4-4.57-1.04-4.4 1.58 1.04-4.56-1.58-4.4z"/><path style="stroke-width:2.19px;fill:#d9b776;stroke:#161515;stroke-miterlimit:13.97" d="m1174.71 1099.78 2.35-4.72-.57-5.25 4.72 2.35 5.25-.56-2.35 4.72.57 5.24-4.73-2.35-5.24.57z"/><path style="stroke-width:2.22px;fill:#d9b776;stroke:#161515;stroke-miterlimit:13.97" d="m1187.91 1141.4-2.78-4.58-4.81-2.35 4.58-2.78 2.35-4.81 2.78 4.57 4.81 2.36-4.57 2.78-2.36 4.81z"/><path style="stroke-width:2.19px;fill:#d9b776;stroke:#161515;stroke-miterlimit:13.97" d="m1265.2 558.7 4.94 1.87 5.17-1.1-1.87 4.94 1.09 5.17-4.94-1.87-5.16 1.09 1.86-4.93-1.09-5.17z"/><path style="stroke-width:2.01px;fill:#d9b776;stroke:#161515;stroke-miterlimit:13.97" d="m1274.65 682.76-4.82.45-3.82 2.99-.45-4.83-2.99-3.82 4.83-.45 3.82-2.98.45 4.82 2.98 3.82z"/><path style="stroke-width:2.05px;fill:#d9b776;stroke:#161515;stroke-miterlimit:13.97" d="m1274.59 668.21 4.06-2.81 1.9-4.56 2.81 4.06 4.56 1.9-4.06 2.81-1.9 4.56-2.81-4.06-4.56-1.9z"/><path style="stroke-width:2.27px;fill:#d9b776;stroke:#161515;stroke-miterlimit:13.97" d="m1311.19 418.72 5.2-1.67 3.48-4.22 1.68 5.21 4.22 3.47-5.21 1.68-3.48 4.22-1.67-5.21-4.22-3.48z"/><path style="stroke-width:2.17px;fill:#d9b776;stroke:#161515;stroke-miterlimit:13.97" d="m1258.56 1190.93-5.01-1.5-5.04 1.45 1.5-5.02-1.45-5.03 5.02 1.5 5.04-1.45-1.5 5.02 1.44 5.03z"/><path style="stroke-width:2.31px;fill:#d9b776;stroke:#161515;stroke-miterlimit:13.97" d="m1299.06 948.7-5.57.23-4.56 3.2-.23-5.56-3.2-4.56 5.57-.24 4.55-3.19.24 5.56 3.2 4.56z"/><path style="stroke-width:2px;fill:#d9b776;stroke:#161515;stroke-miterlimit:13.97" d="m1328.68 717.64.55 4.79 3.04 3.73-4.78.55-3.74 3.04-.54-4.79-3.04-3.73 4.78-.55 3.73-3.04z"/><path style="stroke-width:2.09px;fill:#d9b776;stroke:#161515;stroke-miterlimit:13.97" d="m1379.88 364.36-5.04-.02-4.26 2.71.01-5.04-2.71-4.26 5.05.02 4.25-2.71-.01 5.04 2.71 4.26z"/><path style="stroke-width:1.98px;fill:#d9b776;stroke:#161515;stroke-miterlimit:13.97" d="m1297.25 1211.96.36-4.77-2.28-4.21 4.77.36 4.21-2.28-.36 4.77 2.28 4.21-4.77-.36-4.21 2.28z"/><path style="stroke-width:2.23px;fill:#d9b776;stroke:#161515;stroke-miterlimit:13.97" d="m1316.14 1138.25 3.89 3.69 5.27 1.01-3.69 3.9-1.01 5.26-3.89-3.69-5.27-1.01 3.69-3.89 1.01-5.27z"/><path style="stroke-width:2.07px;fill:#d9b776;stroke:#161515;stroke-miterlimit:13.97" d="m1383.77 611.72 2.34 4.4 4.35 2.44-4.4 2.34-2.45 4.35-2.34-4.4-4.34-2.45 4.4-2.34 2.44-4.34z"/><path style="stroke-width:2.08px;fill:#d9b776;stroke:#161515;stroke-miterlimit:13.97" d="m1414.04 341.47-2.33-4.43-4.35-2.48 4.43-2.32 2.48-4.36 2.33 4.43 4.35 2.48-4.43 2.33-2.48 4.35z"/><path style="stroke-width:2.06px;fill:#d9b776;stroke:#161515;stroke-miterlimit:13.97" d="m1386.73 928.31-.99 4.86 1.79 4.63-4.86-.98-4.63 1.79.99-4.87-1.8-4.63 4.87.99 4.63-1.79z"/><path style="stroke-width:2.27px;fill:#d9b776;stroke:#161515;stroke-miterlimit:13.97" d="m1373 1144.82 2.94-4.62-.02-5.48 4.62 2.94 5.47-.02-2.94 4.62.02 5.47-4.62-2.93-5.47.02zM1400.51 1020.22l-.73-5.43-3.54-4.19 5.43-.72 4.19-3.54.72 5.43 3.55 4.19-5.44.72-4.18 3.54zM1460.06 338.11l5.15-1.84 3.36-4.32 1.83 5.16 4.33 3.35-5.16 1.84-3.35 4.32-1.84-5.16-4.32-3.35z"/><path style="stroke-width:1.94px;fill:#d9b776;stroke:#161515;stroke-miterlimit:13.97" d="m1453.88 644.52 3.22 3.4 4.55 1.13-3.4 3.22-1.13 4.54-3.22-3.4-4.54-1.12 3.4-3.22 1.12-4.55z"/><path style="stroke-width:1.96px;fill:#d9b776;stroke:#161515;stroke-miterlimit:13.97" d="m1489.57 257.21 4.37-1.77 2.72-3.85 1.77 4.36 3.85 2.72-4.36 1.78-2.72 3.85-1.78-4.37-3.85-2.72z"/><path style="stroke-width:2.04px;fill:#d9b776;stroke:#161515;stroke-miterlimit:13.97" d="m1480.17 606.36-4.1-2.73-4.92-.09 2.73-4.1.09-4.92 4.1 2.73 4.92.09-2.73 4.09-.09 4.93z"/><path style="stroke-width:2.02px;fill:#d9b776;stroke:#161515;stroke-miterlimit:13.97" d="m1468.46 1130.91 1.13 4.75 3.52 3.38-4.74 1.13-3.39 3.52-1.13-4.74-3.52-3.38 4.75-1.14 3.38-3.52z"/><path style="stroke-width:2.28px;fill:#d9b776;stroke:#161515;stroke-miterlimit:13.97" d="m1488.05 794.29 5.04 2.18 5.43-.88-2.18 5.04.89 5.44-5.05-2.19-5.43.89 2.18-5.05-.88-5.43z"/><path style="stroke-width:2.11px;fill:#d9b776;stroke:#161515;stroke-miterlimit:13.97" d="m1499.24 963.46-.78 5.03 2.06 4.65-5.03-.78-4.65 2.06.78-5.03-2.06-4.65 5.03.78 4.65-2.06z"/><path style="stroke-width:2.29px;fill:#d9b776;stroke:#161515;stroke-miterlimit:13.97" d="m1520.41 829.01-5.29-1.6-5.32 1.51 1.6-5.28-1.51-5.32 5.29 1.6 5.31-1.51-1.59 5.29 1.51 5.31z"/><path style="stroke-width:2.28px;fill:#d9b776;stroke:#161515;stroke-miterlimit:13.97" d="m1542.69 264.44 4.97-2.33 2.92-4.64 2.33 4.96 4.65 2.93-4.97 2.33-2.93 4.64-2.33-4.96-4.64-2.93z"/><path style="stroke-width:2.12px;fill:#d9b776;stroke:#161515;stroke-miterlimit:13.97" d="m1531.08 1001.59 1.99 4.7 4.2 2.9-4.7 1.98-2.9 4.21-1.98-4.71-4.21-2.89 4.71-1.99 2.89-4.2z"/><path style="stroke-width:2.03px;fill:#d9b776;stroke:#161515;stroke-miterlimit:13.97" d="m1551.17 701.13 3.41 3.53 4.77 1.14-3.53 3.4-1.14 4.77-3.4-3.53-4.77-1.13 3.53-3.41 1.13-4.77z"/><path style="stroke-width:2.13px;fill:#d9b776;stroke:#161515;stroke-miterlimit:13.97" d="m1557.14 449.6 4.9-1.56 3.27-3.95 1.56 4.89 3.95 3.28-4.89 1.55-3.28 3.96-1.55-4.89-3.96-3.28z"/><path style="stroke-width:1.96px;fill:#d9b776;stroke:#161515;stroke-miterlimit:13.97" d="m1584.72 279.97-4.54 1.34-3.09 3.58-1.34-4.53-3.58-3.09 4.53-1.35 3.1-3.57 1.34 4.53 3.58 3.09z"/><path style="stroke-width:2.18px;fill:#d9b776;stroke:#161515;stroke-miterlimit:13.97" d="m1584.52 536 .89-5.19-2.05-4.85 5.19.89 4.85-2.06-.89 5.2 2.06 4.85-5.19-.89-4.86 2.05z"/><path style="stroke-width:2.03px;fill:#d9b776;stroke:#161515;stroke-miterlimit:13.97" d="m1602.98 1082.08.69 4.85 3.19 3.7-4.85.69-3.7 3.19-.69-4.84-3.19-3.71 4.84-.68 3.71-3.2z"/><path style="stroke-width:2px;fill:#d9b776;stroke:#161515;stroke-miterlimit:13.97" d="m1614.54 651.12-3.73-3.04-4.79-.55 3.05-3.73.54-4.78 3.74 3.04 4.78.55-3.04 3.73-.55 4.78zM1610.27 463.97l-3.63-3.19-4.78-.73 3.19-3.63.73-4.78 3.63 3.19 4.78.73-3.19 3.63-.73 4.78z"/><path style="stroke-width:2.3px;fill:#d9b776;stroke:#161515;stroke-miterlimit:13.97" d="m1617.2 548.52 1.65-5.29-1.48-5.34 5.29 1.64 5.34-1.47-1.64 5.29 1.48 5.34-5.3-1.64-5.34 1.47z"/><path style="stroke-width:2.05px;fill:#d9b776;stroke:#161515;stroke-miterlimit:13.97" d="m1650.74 964.53 4.55 1.91 4.86-.84-1.91 4.55.85 4.86-4.56-1.91-4.86.85 1.91-4.56-.84-4.86z"/><path style="stroke-width:2.28px;fill:#d9b776;stroke:#161515;stroke-miterlimit:13.97" d="m1635.63 305.76 3.21 4.47 5.11 2.02-4.46 3.21-2.03 5.12-3.21-4.47-5.12-2.02 4.47-3.22 2.03-5.11z"/><path style="stroke-width:1.99px;fill:#d9b776;stroke:#161515;stroke-miterlimit:13.97" d="m1658.49 587.35 4.73.9 4.46-1.79-.9 4.72 1.79 4.46-4.72-.9-4.47 1.79.9-4.72-1.79-4.46z"/><path style="stroke-width:2.27px;fill:#d9b776;stroke:#161515;stroke-miterlimit:13.97" d="m1706.71 979.3 5.44-.58 4.27-3.44.59 5.45 3.43 4.27-5.44.59-4.27 3.43-.59-5.45-3.43-4.27z"/><path style="stroke-width:2.25px;fill:#d9b776;stroke:#161515;stroke-miterlimit:13.97" d="m1753.6 1140.9-4.83 2.48-2.72 4.69-2.48-4.83-4.7-2.72 4.83-2.48 2.72-4.69 2.48 4.82 4.7 2.73z"/><path style="stroke-width:1.99px;fill:#d9b776;stroke:#161515;stroke-miterlimit:13.97" d="m1678.12 523.95 4.08-2.51 2.08-4.31 2.51 4.07 4.32 2.08-4.08 2.51-2.08 4.32-2.51-4.08-4.32-2.08z"/><path style="stroke-width:2.02px;fill:#d9b776;stroke:#161515;stroke-miterlimit:13.97" d="m1701.13 566.94 3.74 3.13 4.83.62-3.13 3.73-.61 4.84-3.74-3.13-4.83-.62 3.12-3.73.62-4.84z"/><path style="stroke-width:2.02px;fill:#d9b776;stroke:#161515;stroke-miterlimit:13.97" d="m1697.7 561.28 3.77 3.09 4.85.57-3.1 3.78-.56 4.84-3.78-3.09-4.84-.57 3.09-3.77.57-4.85z"/><path style="stroke-width:1.99px;fill:#d9b776;stroke:#161515;stroke-miterlimit:13.97" d="m1760.59 778.27 1.77 4.46 3.89 2.79-4.46 1.77-2.8 3.89-1.76-4.45-3.89-2.8 4.45-1.77 2.8-3.89z"/><path style="stroke-width:2.17px;fill:#d9b776;stroke:#161515;stroke-miterlimit:13.97" d="m1682.55 388.31 5.23.25 4.53-2.62-.24 5.23 2.61 4.54-5.23-.25-4.53 2.62.24-5.23-2.61-4.54z"/><path style="stroke-width:2.28px;fill:#d9b776;stroke:#161515;stroke-miterlimit:13.97" d="m1870.77 1009.07 3.2 4.46 5.11 2.02-4.46 3.21-2.02 5.11-3.21-4.46-5.11-2.02 4.46-3.21 2.03-5.11z"/><path style="stroke-width:2.29px;fill:#d9b776;stroke:#161515;stroke-miterlimit:13.97" d="m1781.37 710.26-5.48-.58-4.92 2.47.58-5.48-2.47-4.93 5.48.58 4.93-2.46-.58 5.47 2.46 4.93z"/><path style="stroke-width:2.06px;fill:#d9b776;stroke:#161515;stroke-miterlimit:13.97" d="m1647.12 296.5-4.7-1.63-4.83 1.16 1.63-4.7-1.17-4.84 4.7 1.63 4.84-1.16-1.63 4.7 1.16 4.84z"/><path style="stroke-width:1.96px;fill:#d9b776;stroke:#161515;stroke-miterlimit:13.97" d="m1745.03 600.54-4.68.68-3.58 3.09-.68-4.68-3.1-3.58 4.69-.67 3.57-3.1.68 4.68 3.1 3.58z"/><path style="stroke-width:2.05px;fill:#d9b776;stroke:#161515;stroke-miterlimit:13.97" d="m1996.83 1043.77 4.81 1.06 4.63-1.71-1.06 4.81 1.72 4.63-4.82-1.06-4.63 1.71 1.06-4.81-1.71-4.63z"/><path style="stroke-width:2.15px;fill:#d9b776;stroke:#161515;stroke-miterlimit:13.97" d="m1978.4 969.84-4.59 2.37-2.6 4.47-2.36-4.59-4.48-2.59 4.59-2.37 2.6-4.48 2.37 4.6 4.47 2.59z"/><path style="stroke-width:2.03px;fill:#d9b776;stroke:#161515;stroke-miterlimit:13.97" d="m2073.12 938.42-.23 4.88 2.45 4.23-4.88-.23-4.23 2.44.22-4.87-2.44-4.24 4.88.23 4.23-2.44z"/><path style="stroke-width:1.97px;fill:#d9b776;stroke:#161515;stroke-miterlimit:13.97" d="m1487.78 477.31 4.33 1.97 4.7-.68-1.96 4.33.67 4.7-4.32-1.97-4.71.68 1.97-4.33-.68-4.7z"/><path style="stroke-width:2.07px;fill:#d9b776;stroke:#161515;stroke-miterlimit:13.97" d="m1844.38 671.14 2.79-4.14.12-4.99 4.14 2.8 4.99.12-2.79 4.14-.12 4.99-4.14-2.8-4.99-.12z"/><path style="stroke-width:2.25px;fill:#d9b776;stroke:#161515;stroke-miterlimit:13.97" d="m2000.19 672.54-5.42-.3-4.74 2.66.31-5.42-2.66-4.74 5.42.31 4.74-2.66-.31 5.42 2.66 4.73z"/><path style="stroke-width:1.97px;fill:#d9b776;stroke:#161515;stroke-miterlimit:13.97" d="m1762.44 628.06 4.76-.14 3.92-2.69.15 4.76 2.68 3.92-4.75.14-3.92 2.69-.15-4.75-2.69-3.93z"/><path style="stroke-width:2.27px;fill:#d9b776;stroke:#161515;stroke-miterlimit:13.97" d="m1844.47 621.93.07 5.46 3 4.57-5.46.06-4.56 3-.07-5.46-3-4.56 5.46-.07 4.56-3z"/><path style="stroke-width:2.23px;fill:#d9b776;stroke:#161515;stroke-miterlimit:13.97" d="m2178.53 527.43 3.75 3.85 5.23 1.22-3.85 3.74-1.22 5.23-3.75-3.85-5.22-1.22 3.84-3.74 1.22-5.23z"/><path style="stroke-width:1.99px;fill:#d9b776;stroke:#161515;stroke-miterlimit:13.97" d="m1974.95 536.89-3.79 2.92-1.62 4.51-2.92-3.8-4.51-1.62 3.79-2.92 1.63-4.51 2.92 3.8 4.5 1.62z"/><path style="stroke-width:1.97px;fill:#d9b776;stroke:#161515;stroke-miterlimit:13.97" d="m1989.71 516.26-4.21 2.16-2.39 4.09-2.16-4.22-4.09-2.38 4.22-2.16 2.38-4.1 2.16 4.22 4.09 2.39z"/><path style="stroke-width:2.28px;fill:#d9b776;stroke:#161515;stroke-miterlimit:13.97" d="m1828.9 586.27-5.24-1.67-5.3 1.41 1.67-5.23-1.42-5.31 5.24 1.67 5.3-1.41-1.67 5.23 1.42 5.31z"/><path style="stroke-width:2.08px;fill:#d9b776;stroke:#161515;stroke-miterlimit:13.97" d="m1960.18 469.9 3.29-3.77.74-4.95 3.77 3.29 4.96.74-3.3 3.77-.74 4.96-3.77-3.3-4.95-.74z"/><path style="stroke-width:2.11px;fill:#d9b776;stroke:#161515;stroke-miterlimit:13.97" d="m1490.74 791.36-2.89-4.21-4.7-1.98 4.21-2.88 1.98-4.7 2.88 4.2 4.7 1.98-4.2 2.89-1.98 4.7z"/><path style="stroke-width:1.98px;fill:#d9b776;stroke:#161515;stroke-miterlimit:13.97" d="m1448.8 792.61 2.41 4.11 4.24 2.16-4.11 2.41-2.16 4.24-2.41-4.11-4.24-2.16 4.11-2.41 2.16-4.24z"/><path style="stroke-width:2.09px;fill:#d9b776;stroke:#161515;stroke-miterlimit:13.97" d="m1732.68 594.16 2.9 4.12 4.65 1.9-4.11 2.9-1.9 4.65-2.9-4.11-4.66-1.9 4.12-2.9 1.9-4.66z"/><path style="stroke-width:2.28px;fill:#d9b776;stroke:#161515;stroke-miterlimit:13.97" d="m1941.04 413.38-5.14-1.97-5.38 1.12 1.96-5.14-1.11-5.38 5.13 1.97 5.38-1.12-1.96 5.13 1.12 5.39z"/><path style="stroke-width:2.1px;fill:#d9b776;stroke:#161515;stroke-miterlimit:13.97" d="m1866.98 435.9-2.15 4.6.67 5.02-4.6-2.14-5.02.67 2.14-4.6-.67-5.03 4.6 2.15 5.03-.67z"/><path style="stroke-width:2.07px;fill:#d9b776;stroke:#161515;stroke-miterlimit:13.97" d="m1981.44 289.02 3.69 3.37 4.93.85-3.37 3.69-.84 4.93-3.7-3.37-4.93-.84 3.37-3.7.85-4.93z"/><path style="stroke-width:2.3px;fill:#d9b776;stroke:#161515;stroke-miterlimit:13.97" d="m1442.09 849.2 2.9-4.72-.1-5.53 4.71 2.9 5.54-.1-2.9 4.72.1 5.53-4.72-2.9-5.53.1z"/><path style="stroke-width:2.22px;fill:#d9b776;stroke:#161515;stroke-miterlimit:13.97" d="m1604.39 719.92 4.63 2.68 5.34-.24-2.68 4.63.24 5.34-4.62-2.68-5.35.25 2.68-4.63-.24-5.35z"/><path style="stroke-width:2.24px;fill:#d9b776;stroke:#161515;stroke-miterlimit:13.97" d="m1577.13 746.74.65 5.37 3.45 4.17-5.37.65-4.17 3.45-.66-5.37-3.45-4.17 5.38-.65 4.17-3.45z"/><path style="stroke-width:2.05px;fill:#d9b776;stroke:#161515;stroke-miterlimit:13.97" d="m1893.88 261.44-1.9-4.56-4.06-2.81 4.56-1.9 2.81-4.06 1.9 4.56 4.07 2.81-4.57 1.9-2.81 4.06z"/><path style="stroke-width:2.09px;fill:#d9b776;stroke:#161515;stroke-miterlimit:13.97" d="m1741.88 450.54 5 .69 4.58-2.11-.69 4.99 2.11 4.59-5-.7-4.58 2.12.69-5-2.11-4.58z"/><path style="stroke-width:2.06px;fill:#d9b776;stroke:#161515;stroke-miterlimit:13.97" d="m1504.66 804.08-4.36-2.38-4.96.35 2.38-4.36-.34-4.96 4.36 2.38 4.95-.34-2.38 4.36.35 4.95z"/><path style="stroke-width:2.22px;fill:#d9b776;stroke:#161515;stroke-miterlimit:13.97" d="m1605.79 721.67.87 5.27 3.58 3.98-5.28.87-3.97 3.58-.87-5.28-3.58-3.97 5.28-.87 3.97-3.58z"/><path style="stroke-width:2px;fill:#d9b776;stroke:#161515;stroke-miterlimit:13.97" d="m1544.63 829.39 2.1-4.35-.58-4.8 4.35 2.1 4.8-.58-2.1 4.35.58 4.79-4.35-2.09-4.8.58z"/><path style="stroke-width:2.1px;fill:#d9b776;stroke:#161515;stroke-miterlimit:13.97" d="m1722.28 374.74 2.96 4.1 4.71 1.87-4.11 2.96-1.86 4.71-2.96-4.11-4.71-1.86 4.11-2.96 1.86-4.71z"/><path style="stroke-width:2.29px;fill:#d9b776;stroke:#161515;stroke-miterlimit:13.97" d="m1801.58 166.48-1.36-5.35-4.02-3.76 5.35-1.36 3.77-4.03 1.35 5.35 4.03 3.77-5.35 1.36-3.77 4.02z"/><path style="stroke-width:2.18px;fill:#d9b776;stroke:#161515;stroke-miterlimit:13.97" d="m1748.52 271.81-3.27 4.11-.54 5.23-4.11-3.28-5.23-.54 3.27-4.11.54-5.22 4.12 3.27 5.22.54z"/><path style="stroke-width:2.25px;fill:#d9b776;stroke:#161515;stroke-miterlimit:13.97" d="m1736.33 128.17-3.52 4.12-.75 5.36-4.11-3.52-5.37-.74 3.52-4.11.75-5.37 4.11 3.52 5.37.74z"/><path style="stroke-width:2.15px;fill:#d9b776;stroke:#161515;stroke-miterlimit:13.97" d="m1696.88 226.55-1.48-4.96-3.93-3.39 4.97-1.48 3.38-3.92 1.48 4.96 3.92 3.39-4.96 1.48-3.38 3.92z"/><path style="stroke-width:2.04px;fill:#d9b776;stroke:#161515;stroke-miterlimit:13.97" d="m1601.03 556.02 3.2-3.73.68-4.87 3.73 3.2 4.87.68-3.2 3.73-.68 4.87-3.73-3.2-4.87-.68z"/><path style="stroke-width:2.17px;fill:#d9b776;stroke:#161515;stroke-miterlimit:13.97" d="m1510.56 898.42 3.88-3.49 1.39-5.04 3.49 3.88 5.04 1.39-3.88 3.49-1.39 5.04-3.49-3.88-5.04-1.39z"/><path style="stroke-width:2.21px;fill:#d9b776;stroke:#161515;stroke-miterlimit:13.97" d="m1541.92 752.7-3.4-4.1-5.08-1.62 4.1-3.4 1.62-5.08 3.4 4.1 5.08 1.62-4.1 3.4-1.62 5.08z"/><path style="stroke-width:2.01px;fill:#d9b776;stroke:#161515;stroke-miterlimit:13.97" d="m1619.94 239.57-2.04 4.39.64 4.79-4.38-2.04-4.8.65 2.04-4.39-.64-4.79 4.38 2.04 4.8-.65z"/><path style="stroke-width:2.19px;fill:#d9b776;stroke:#161515;stroke-miterlimit:13.97" d="m1606.87 254.82-2.89 4.41-.06 5.27-4.4-2.89-5.28-.06 2.89-4.41.06-5.27 4.41 2.89 5.27.06z"/><path style="stroke-width:2.27px;fill:#d9b776;stroke:#161515;stroke-miterlimit:13.97" d="m1597.64 243.1-5.46-.31-4.76 2.69.31-5.46-2.68-4.76 5.46.31 4.76-2.69-.31 5.46 2.68 4.76z"/><path style="stroke-width:2.04px;fill:#d9b776;stroke:#161515;stroke-miterlimit:13.97" d="m1535.56 783.33-4.31 2.38-2.34 4.32-2.38-4.3-4.32-2.34 4.3-2.38 2.34-4.32 2.38 4.3 4.33 2.34z"/><path style="stroke-width:2.09px;fill:#d9b776;stroke:#161515;stroke-miterlimit:13.97" d="m1557.24 764.18-.42 5.03 2.36 4.46-5.03-.42-4.46 2.36.42-5.03-2.36-4.46 5.03.42 4.46-2.36z"/><path style="stroke-width:2.07px;fill:#d9b776;stroke:#161515;stroke-miterlimit:13.97" d="m1533.05 527.19 3.96 3.05 4.98.42-3.05 3.97-.42 4.98-3.97-3.05-4.98-.43 3.05-3.96.43-4.98z"/><path style="stroke-width:2.17px;fill:#d9b776;stroke:#161515;stroke-miterlimit:13.97" d="m1536.95 877.69-5.19-.59-4.69 2.3.59-5.19-2.3-4.69 5.19.59 4.69-2.3-.59 5.19 2.3 4.69z"/><path style="stroke-width:2.07px;fill:#d9b776;stroke:#161515;stroke-miterlimit:13.97" d="m1498.86 209.04 4.46-2.26 2.54-4.31 2.26 4.46 4.31 2.54-4.46 2.26-2.54 4.31-2.26-4.46-4.31-2.54z"/><path style="stroke-width:1.98px;fill:#d9b776;stroke:#161515;stroke-miterlimit:13.97" d="m1499.13 532.55-.6-4.73-3.05-3.66 4.73-.6 3.66-3.05.59 4.73 3.06 3.66-4.73.6-3.66 3.05z"/><path style="stroke-width:2.08px;fill:#d9b776;stroke:#161515;stroke-miterlimit:13.97" d="m1497.93 547.88 4.17 2.8 5.03.11-2.8 4.17-.12 5.03-4.17-2.81-5.02-.11 2.8-4.17.11-5.02z"/><path style="stroke-width:2.26px;fill:#d9b776;stroke:#161515;stroke-miterlimit:13.97" d="m1431.94 72.89 3.58 4.12 5.24 1.53-4.11 3.58-1.53 5.24-3.58-4.11-5.24-1.53 4.11-3.58 1.53-5.25z"/><path style="stroke-width:2.01px;fill:#d9b776;stroke:#161515;stroke-miterlimit:13.97" d="m1423.69 145.1 4.84.35 4.25-2.31-.35 4.83 2.31 4.26-4.83-.35-4.26 2.31.35-4.84-2.31-4.25z"/><path style="stroke-width:2.25px;fill:#d9b776;stroke:#161515;stroke-miterlimit:13.97" d="m1408.81 23.73-5.28-1.25-5.11 1.79 1.25-5.28-1.79-5.11 5.27 1.25 5.12-1.79-1.25 5.27 1.79 5.12z"/><path style="stroke-width:2.08px;fill:#d9b776;stroke:#161515;stroke-miterlimit:13.97" d="m1464.98 599.64-4.97.69-3.82 3.26-.69-4.98-3.26-3.81 4.97-.69 3.82-3.26.69 4.97 3.26 3.82z"/><path style="stroke-width:2.18px;fill:#d9b776;stroke:#161515;stroke-miterlimit:13.97" d="m1471.7 691.94.41-5.24-2.47-4.64 5.24.42 4.63-2.48-.41 5.24 2.47 4.64-5.24-.42-4.63 2.48zM1361.09 149.72l-5.12-1.22-4.96 1.74 1.22-5.12-1.74-4.96 5.12 1.22 4.96-1.74-1.22 5.11 1.74 4.97z"/><path style="stroke-width:2.11px;fill:#d9b776;stroke:#161515;stroke-miterlimit:13.97" d="m1344.03 125.41-4.47-2.44-5.08.36 2.43-4.47-.36-5.08 4.48 2.44 5.08-.36-2.44 4.47.36 5.08z"/><path style="stroke-width:2.09px;fill:#d9b776;stroke:#161515;stroke-miterlimit:13.97" d="m1373.79 385.2 3.92-3.16 1.6-4.78 3.16 3.92 4.78 1.59-3.92 3.17-1.6 4.77-3.16-3.91-4.78-1.6z"/><path style="stroke-width:1.94px;fill:#d9b776;stroke:#161515;stroke-miterlimit:13.97" d="m1353.38 271.89-1.12 4.54 1.5 4.43-4.54-1.12-4.42 1.5 1.12-4.54-1.51-4.42 4.54 1.12 4.43-1.51z"/><path style="stroke-width:2.24px;fill:#d9b776;stroke:#161515;stroke-miterlimit:13.97" d="m1278.31 5.06 5.4-.05 4.52-2.95.05 5.4 2.95 4.51-5.4.05-4.52 2.96-.05-5.4-2.95-4.52z"/><path style="stroke-width:2.16px;fill:#d9b776;stroke:#161515;stroke-miterlimit:13.97" d="m1480.2 893.4 3.3 4.04 4.95 1.61-4.03 3.31-1.61 4.95-3.3-4.03-4.96-1.62 4.03-3.3 1.62-4.96z"/><path style="stroke-width:1.99px;fill:#d9b776;stroke:#161515;stroke-miterlimit:13.97" d="m1298.69 296.21 1.68-4.5-1.02-4.7 4.51 1.68 4.69-1.02-1.67 4.5 1.01 4.7-4.5-1.68-4.7 1.02z"/><path style="stroke-width:2.3px;fill:#d9b776;stroke:#161515;stroke-miterlimit:13.97" d="m1308.58 383.95 1.89-5.2-1.22-5.41 5.21 1.89 5.41-1.22-1.89 5.21 1.21 5.41-5.21-1.89-5.4 1.21z"/><path style="stroke-width:2.15px;fill:#d9b776;stroke:#161515;stroke-miterlimit:13.97" d="m1345.24 516.2-5.1-.89-4.78 2.01.88-5.1-2.01-4.78 5.11.89 4.78-2.01-.89 5.1 2.01 4.78z"/><path style="stroke-width:1.95px;fill:#d9b776;stroke:#161515;stroke-miterlimit:13.97" d="m1355.7 586.99.28 4.69 2.77 3.81-4.7.28-3.8 2.77-.28-4.7-2.77-3.8 4.7-.28 3.8-2.77z"/><path style="stroke-width:2.01px;fill:#d9b776;stroke:#161515;stroke-miterlimit:13.97" d="m1400.51 766.41 4.68-1.27 3.26-3.6 1.27 4.68 3.6 3.26-4.69 1.27-3.25 3.6-1.27-4.69-3.6-3.25z"/><path style="stroke-width:2.23px;fill:#d9b776;stroke:#161515;stroke-miterlimit:13.97" d="m1367.24 707.55-.71-5.34-3.48-4.11 5.34-.71 4.12-3.48.71 5.34 3.47 4.12-5.34.7-4.11 3.48z"/><path style="stroke-width:2.22px;fill:#d9b776;stroke:#161515;stroke-miterlimit:13.97" d="m1254.1 382.42-3.93 3.63-1.36 5.18-3.62-3.94-5.18-1.35 3.93-3.63 1.35-5.17 3.63 3.93 5.18 1.35z"/><path style="stroke-width:2.12px;fill:#d9b776;stroke:#161515;stroke-miterlimit:13.97" d="m1379.76 775.72-2.44 4.5.36 5.11-4.5-2.45-5.1.37 2.44-4.5-.36-5.11 4.49 2.45 5.11-.37z"/><path style="stroke-width:2.23px;fill:#d9b776;stroke:#161515;stroke-miterlimit:13.97" d="m1163.29 282.39.48-5.35-2.48-4.77 5.35.48 4.76-2.48-.48 5.35 2.49 4.77-5.36-.48-4.76 2.48z"/><path style="stroke-width:2.21px;fill:#d9b776;stroke:#161515;stroke-miterlimit:13.97" d="m1171.43 310.37 3.1 4.34 4.95 1.98-4.34 3.09-1.98 4.95-3.09-4.34-4.95-1.97 4.33-3.1 1.98-4.95z"/><path style="stroke-width:2.22px;fill:#d9b776;stroke:#161515;stroke-miterlimit:13.97" d="m1179.85 358.67-4.4-3.04-5.35-.19 3.04-4.4.19-5.35 4.4 3.04 5.35.19-3.04 4.4-.19 5.35z"/><path style="stroke-width:2.15px;fill:#d9b776;stroke:#161515;stroke-miterlimit:13.97" d="m1216.13 457.3-5.19.17-4.28 2.95-.17-5.19-2.95-4.28 5.19-.17 4.28-2.95.18 5.19 2.94 4.28z"/><path style="stroke-width:2.17px;fill:#d9b776;stroke:#161515;stroke-miterlimit:13.97" d="m1369.63 845.17-4.81-2.03-5.16.88 2.04-4.82-.88-5.15 4.82 2.04 5.15-.88-2.04 4.81.88 5.15z"/><path style="stroke-width:2.08px;fill:#d9b776;stroke:#161515;stroke-miterlimit:13.97" d="m1343.75 750.82 1.88 4.65 4.08 2.91-4.65 1.87-2.9 4.09-1.88-4.65-4.09-2.91 4.66-1.87 2.9-4.09z"/><path style="stroke-width:2.29px;fill:#d9b776;stroke:#161515;stroke-miterlimit:13.97" d="m1020.84 185.65-2.82-4.76-4.93-2.48 4.76-2.82 2.48-4.93 2.82 4.75 4.93 2.49-4.75 2.81-2.49 4.94z"/><path style="stroke-width:2.2px;fill:#d9b776;stroke:#161515;stroke-miterlimit:13.97" d="m982.12 131.82 3.8 3.7 5.2 1.06-3.7 3.8-1.05 5.2-3.81-3.7-5.2-1.06 3.7-3.8 1.06-5.2z"/><path style="stroke-width:1.99px;fill:#d9b776;stroke:#161515;stroke-miterlimit:13.97" d="m1022.44 289.17.46 4.78 2.97 3.77-4.78.46-3.78 2.97-.46-4.78-2.96-3.78 4.78-.46 3.77-2.96z"/><path style="stroke-width:2.09px;fill:#d9b776;stroke:#161515;stroke-miterlimit:13.97" d="m1062.12 385.88 1.42-4.82-1.39-4.82 4.82 1.42 4.83-1.4-1.43 4.83 1.4 4.83-4.83-1.43-4.82 1.39z"/><path style="stroke-width:2.19px;fill:#d9b776;stroke:#161515;stroke-miterlimit:13.97" d="m1147.72 525.53-4.01-3.44-5.24-.74 3.45-4.01.73-5.24 4.02 3.44 5.23.74-3.44 4.01-.74 5.24z"/><path style="stroke-width:2.11px;fill:#d9b776;stroke:#161515;stroke-miterlimit:13.97" d="m902.98 299.85 1.31 4.91 3.75 3.43-4.91 1.31-3.43 3.76-1.31-4.92-3.76-3.43 4.92-1.31 3.43-3.75z"/><path style="stroke-width:2.15px;fill:#d9b776;stroke:#161515;stroke-miterlimit:13.97" d="m1395.51 799.52 1.22 5.04 3.76 3.57-5.04 1.23-3.58 3.75-1.23-5.03-3.75-3.58 5.04-1.23 3.58-3.75z"/><path style="stroke-width:2.24px;fill:#d9b776;stroke:#161515;stroke-miterlimit:13.97" d="m1077.03 557.08-2.1-4.96-4.45-3.05 4.96-2.1 3.05-4.45 2.1 4.97 4.45 3.04-4.96 2.1-3.05 4.45z"/><path style="stroke-width:2.01px;fill:#d9b776;stroke:#161515;stroke-miterlimit:13.97" d="m999.6 653.03 3.22-3.62.76-4.8 3.63 3.23 4.79.75-3.22 3.63-.76 4.79-3.63-3.22-4.79-.76z"/><path style="stroke-width:2.02px;fill:#d9b776;stroke:#161515;stroke-miterlimit:13.97" d="m981.19 833.55 2.78 3.99 4.49 1.86-3.99 2.78-1.87 4.49-2.77-3.99-4.49-1.86 3.99-2.78 1.86-4.49z"/><path style="stroke-width:1.98px;fill:#d9b776;stroke:#161515;stroke-miterlimit:13.97" d="m1236.18 372.96-2.4-4.12-4.25-2.18 4.13-2.4 2.17-4.25 2.4 4.13 4.25 2.17-4.12 2.4-2.18 4.25z"/><path style="stroke-width:2.32px;fill:#d9b776;stroke:#161515;stroke-miterlimit:13.97" d="m1075.77 872.74-4.64-3.11-5.59-.11 3.11-4.64.11-5.59 4.64 3.11 5.59.11-3.11 4.64-.11 5.59z"/><path style="stroke-width:1.97px;fill:#d9b776;stroke:#161515;stroke-miterlimit:13.97" d="m1099.47 982.79-.78 4.69 1.88 4.37-4.69-.78-4.37 1.87.78-4.69-1.87-4.37 4.69.78 4.36-1.87z"/><path style="stroke-width:1.94px;fill:#d9b776;stroke:#161515;stroke-miterlimit:13.97" d="m1148.37 786.01-.78-4.62-3.15-3.46 4.61-.78 3.47-3.15.78 4.62 3.15 3.46-4.62.78-3.46 3.15z"/><path style="stroke-width:2px;fill:#d9b776;stroke:#161515;stroke-miterlimit:13.97" d="m1254.16 321.11 4.35 2.05 4.78-.62-2.06 4.36.63 4.77-4.36-2.05-4.77.62 2.05-4.35-.62-4.78z"/><path style="stroke-width:2.25px;fill:#d9b776;stroke:#161515;stroke-miterlimit:13.97" d="m1252.29 387.16 4.68 2.76 5.43-.2-2.76 4.68.2 5.43-4.68-2.76-5.43.2 2.76-4.68-.2-5.43z"/><path style="stroke-width:2.21px;fill:#d9b776;stroke:#161515;stroke-miterlimit:13.97" d="m1158.88 1067.83 1.61 5.08 4.09 3.41-5.07 1.61-3.41 4.1-1.61-5.08-4.1-3.41 5.08-1.61 3.41-4.1z"/><path style="stroke-width:2.05px;fill:#d9b776;stroke:#161515;stroke-miterlimit:13.97" d="m1275.56 257.72 4.71-1.48 3.17-3.8 1.49 4.71 3.79 3.17-4.71 1.49-3.17 3.79-1.48-4.71-3.8-3.17z"/><path style="stroke-width:1.96px;fill:#d9b776;stroke:#161515;stroke-miterlimit:13.97" d="m1203.04 911.66.42-4.69-2.18-4.18 4.7.42 4.18-2.18-.42 4.69 2.18 4.19-4.7-.42-4.18 2.17z"/><path style="stroke-width:2.08px;fill:#d9b776;stroke:#161515;stroke-miterlimit:13.97" d="m1276.64 396.41 3.85 3.23 4.99.64-3.23 3.85-.65 4.98-3.85-3.23-4.98-.64 3.23-3.85.64-4.98z"/><path style="stroke-width:2.11px;fill:#d9b776;stroke:#161515;stroke-miterlimit:13.97" d="m1254.23 708.86 4.11-3.02 1.83-4.76 3.01 4.11 4.76 1.83-4.11 3.02-1.83 4.75-3.01-4.1-4.76-1.83z"/><path style="stroke-width:2.19px;fill:#d9b776;stroke:#161515;stroke-miterlimit:13.97" d="m1261.38 791.22.14-5.28-2.74-4.53 5.29.14 4.52-2.73-.14 5.28 2.73 4.53-5.28-.14-4.52 2.73z"/><path style="stroke-width:2px;fill:#d9b776;stroke:#161515;stroke-miterlimit:13.97" d="m1326.24 270.4 1.85 4.44 3.96 2.74-4.44 1.85-2.74 3.95-1.86-4.44-3.95-2.74 4.44-1.85 2.74-3.95z"/><path style="stroke-width:2.28px;fill:#d9b776;stroke:#161515;stroke-miterlimit:13.97" d="m1279.78 957.52-5.48-.59-4.92 2.45.59-5.47-2.45-4.92 5.47.59 4.92-2.45-.59 5.47 2.46 4.92z"/><path style="stroke-width:2.22px;fill:#d9b776;stroke:#161515;stroke-miterlimit:13.97" d="m1329.64 351.07-.89-5.28-3.59-3.98 5.28-.88 3.97-3.6.89 5.29 3.59 3.97-5.28.89-3.97 3.59z"/><path style="stroke-width:2.1px;fill:#d9b776;stroke:#161515;stroke-miterlimit:13.97" d="m1330.86 651.94-.49 5.04 2.31 4.52-5.05-.49-4.51 2.31.49-5.05-2.31-4.51 5.05.49 4.51-2.31z"/><path style="stroke-width:2.21px;fill:#d9b776;stroke:#161515;stroke-miterlimit:13.97" d="m1376.88 176.91-4.34 3.11-1.97 4.96-3.12-4.33-4.96-1.98 4.34-3.11 1.97-4.96 3.12 4.34 4.96 1.97z"/><path style="stroke-width:1.96px;fill:#d9b776;stroke:#161515;stroke-miterlimit:13.97" d="m1370.8 372.29 2.87 3.77 4.45 1.62-3.77 2.87-1.62 4.45-2.87-3.77-4.45-1.62 3.77-2.87 1.62-4.45z"/><path style="stroke-width:2.23px;fill:#d9b776;stroke:#161515;stroke-miterlimit:13.97" d="m1377.4 247.85 4.81-2.4 2.76-4.62 2.4 4.81 4.61 2.76-4.81 2.4-2.75 4.61-2.4-4.81-4.62-2.75z"/><path style="stroke-width:2.05px;fill:#d9b776;stroke:#161515;stroke-miterlimit:13.97" d="m1389.92 369.99 4.58 1.88 4.86-.89-1.88 4.58.89 4.86-4.57-1.88-4.87.89 1.88-4.58-.89-4.86z"/><path style="stroke-width:2.16px;fill:#d9b776;stroke:#161515;stroke-miterlimit:13.97" d="m1387.18 820.58-2.17-4.74-4.38-2.82 4.74-2.16 2.82-4.38 2.16 4.73 4.38 2.82-4.73 2.17-2.82 4.38z"/><path style="stroke-width:1.94px;fill:#d9b776;stroke:#161515;stroke-miterlimit:13.97" d="m1410.94 733.62-2.86 3.7-.41 4.65-3.7-2.86-4.66-.41 2.86-3.7.42-4.66 3.7 2.86 4.65.42z"/><path style="stroke-width:2.16px;fill:#d9b776;stroke:#161515;stroke-miterlimit:13.97" d="m1412.18 723.92.06-5.2-2.75-4.42 5.2.07 4.41-2.76-.06 5.2 2.76 4.41-5.2-.06-4.42 2.76z"/><path style="stroke-width:2.23px;fill:#d9b776;stroke:#161515;stroke-miterlimit:13.97" d="m1422.56 833.27-.72-5.32-3.47-4.09 5.32-.72 4.09-3.47.72 5.32 3.47 4.09-5.32.71-4.09 3.48z"/><path style="stroke-width:2.02px;fill:#d9b776;stroke:#161515;stroke-miterlimit:13.97" d="m1446.31 898.92-3.21 3.65-.73 4.81-3.65-3.21-4.81-.73 3.21-3.65.73-4.81 3.66 3.21 4.8.73z"/><path style="stroke-width:2.19px;fill:#d9b776;stroke:#161515;stroke-miterlimit:13.97" d="m1460.52 322.38 1.94-4.92-1.01-5.17 4.91 1.93 5.18-1.01-1.94 4.91 1.02 5.18-4.92-1.94-5.18 1.02z"/><path style="stroke-width:1.95px;fill:#d9b776;stroke:#161515;stroke-miterlimit:13.97" d="m1463.18 1089.3-3.18-3.44-4.55-1.18 3.44-3.19 1.18-4.54 3.19 3.44 4.54 1.18-3.44 3.19-1.18 4.54z"/><path style="stroke-width:2.08px;fill:#d9b776;stroke:#161515;stroke-miterlimit:13.97" d="m1486.97 627.61-2.89 4.08-.24 5-4.08-2.89-5-.24 2.89-4.08.24-5 4.08 2.9 5 .23z"/><path style="stroke-width:2.28px;fill:#d9b776;stroke:#161515;stroke-miterlimit:13.97" d="m1494.12 792.88.86 5.45 3.66 4.11-5.44.86-4.12 3.66-.86-5.44-3.66-4.11 5.44-.87 4.12-3.66z"/><path style="stroke-width:2.22px;fill:#d9b776;stroke:#161515;stroke-miterlimit:13.97" d="m1503.21 584.65 4.29 3.19 5.33.36-3.19 4.29-.36 5.34-4.29-3.19-5.34-.37 3.19-4.29.37-5.33z"/><path style="stroke-width:2.24px;fill:#d9b776;stroke:#161515;stroke-miterlimit:13.97" d="m1513.49 1039.49-.05 5.39 2.87 4.58-5.4-.06-4.57 2.87.05-5.39-2.86-4.57 5.39.05 4.57-2.87z"/><path style="stroke-width:2.1px;fill:#d9b776;stroke:#161515;stroke-miterlimit:13.97" d="m1531.97 350.37-.88-4.99-3.44-3.73 4.99-.88 3.73-3.44.88 4.99 3.44 3.73-4.99.89-3.73 3.43z"/><path style="stroke-width:2.27px;fill:#d9b776;stroke:#161515;stroke-miterlimit:13.97" d="m1549.41 917.84-4.88-2.47-5.45.56 2.46-4.89-.56-5.44 4.89 2.46 5.45-.56-2.47 4.89.56 5.45z"/><path style="stroke-width:2.09px;fill:#d9b776;stroke:#161515;stroke-miterlimit:13.97" d="m1563.38 352.96-4.28-2.63-5.02.09 2.63-4.28-.09-5.03 4.28 2.64 5.03-.1-2.64 4.29.09 5.02z"/><path style="stroke-width:1.96px;fill:#d9b776;stroke:#161515;stroke-miterlimit:13.97" d="m1563.66 890 4.4-1.74 2.76-3.84 1.74 4.39 3.83 2.77-4.39 1.74-2.76 3.83-1.74-4.39-3.84-2.76z"/><path style="stroke-width:2.29px;fill:#d9b776;stroke:#161515;stroke-miterlimit:13.97" d="m1582.49 503.87 2.56 4.91 4.8 2.75-4.91 2.55-2.75 4.8-2.56-4.9-4.79-2.76 4.9-2.55 2.75-4.8z"/><path style="stroke-width:2.31px;fill:#d9b776;stroke:#161515;stroke-miterlimit:13.97" d="m1590.36 239.05 5.03 2.39 5.53-.71-2.39 5.03.71 5.53-5.03-2.39-5.53.71 2.39-5.03-.71-5.53z"/><path style="stroke-width:2.04px;fill:#d9b776;stroke:#161515;stroke-miterlimit:13.97" d="m1600.6 382.26 4.47 2.06 4.87-.66-2.07 4.46.67 4.88-4.46-2.07-4.88.66 2.07-4.46-.67-4.87z"/><path style="stroke-width:2.27px;fill:#d9b776;stroke:#161515;stroke-miterlimit:13.97" d="m1621.63 601.43-5.18-1.79-5.33 1.29 1.79-5.18-1.28-5.33 5.18 1.79 5.33-1.29-1.79 5.18 1.28 5.33z"/><path style="stroke-width:1.99px;fill:#d9b776;stroke:#161515;stroke-miterlimit:13.97" d="m1634.76 679.13-4.61 1.35-3.16 3.63-1.36-4.61-3.63-3.15 4.62-1.36 3.15-3.63 1.36 4.61 3.63 3.16z"/><path style="stroke-width:2.13px;fill:#d9b776;stroke:#161515;stroke-miterlimit:13.97" d="m1644.67 1002.2-2.92-4.23-4.74-1.99 4.23-2.92 1.98-4.75 2.93 4.23 4.74 1.99-4.23 2.93-1.99 4.74z"/><path style="stroke-width:2.16px;fill:#d9b776;stroke:#161515;stroke-miterlimit:13.97" d="m1647.23 289.7 1.55-4.96-1.38-5.01 4.96 1.54 5.02-1.38-1.55 4.96 1.38 5.02-4.96-1.55-5.02 1.38z"/><path style="stroke-width:2.04px;fill:#d9b776;stroke:#161515;stroke-miterlimit:13.97" d="m1672.84 1039.97-4.29-2.39-4.91.3 2.39-4.29-.3-4.91 4.29 2.39 4.91-.3-2.39 4.29.3 4.91z"/><path style="stroke-width:2.29px;fill:#d9b776;stroke:#161515;stroke-miterlimit:13.97" d="m1674.99 928.26 4.32-3.42 1.79-5.22 3.42 4.32 5.22 1.79-4.32 3.43-1.79 5.21-3.43-4.32-5.21-1.79z"/><path style="stroke-width:1.98px;fill:#d9b776;stroke:#161515;stroke-miterlimit:13.97" d="m1687.26 886.06 1.44-4.56-1.26-4.61 4.56 1.43 4.61-1.25-1.43 4.56 1.25 4.61-4.55-1.43-4.62 1.25z"/><path style="stroke-width:2.17px;fill:#d9b776;stroke:#161515;stroke-miterlimit:13.97" d="m1694.57 428.61 2.8-4.41-.02-5.23 4.42 2.8 5.23-.02-2.81 4.42.02 5.23-4.41-2.8-5.23.01z"/><path style="stroke-width:2.25px;fill:#d9b776;stroke:#161515;stroke-miterlimit:13.97" d="m1710.56 1075.44 1.91-5.07-1.14-5.31 5.08 1.9 5.3-1.13-1.9 5.07 1.14 5.31-5.08-1.9-5.31 1.13z"/><path style="stroke-width:2.1px;fill:#d9b776;stroke:#161515;stroke-miterlimit:13.97" d="m1717.58 177.46 5.06.15 4.34-2.6-.15 5.06 2.6 4.34-5.06-.15-4.34 2.6.15-5.06-2.6-4.34z"/></g></symbol><style>.a{fill:none}</style></defs><use width="2189.74" height="2284.93" transform="translate(-22.78 -364.93)" xlink:href="#c"/></svg>