<svg xmlns="http://www.w3.org/2000/svg" width="1920" height="1920"><defs><clipPath id="a"><path class="a" d="M0 0h1920v1920H0z"/></clipPath><pattern id="b" width="241.06" height="241.06" patternTransform="matrix(.8 0 0 1.42 374.41 264.81)" patternUnits="userSpaceOnUse"><path class="a" d="M0 0h241.06v241.06H0z"/><path d="M5.07 7.42h0m9-1h0m9.62-1.59h0m8.51-1.42h0M4.6 13.68h0m8-.36h0m9-1.24h0m9-2.24h0m-26 9.68h0m7.44-.7h0m7.44-1.07h0M49.78 8h0M3.89 25.55h0m6.38-.71h0m6.26-.95h0m6.38-1.41h0m6.37-1.18h0m6.15-1.89h0m5.9-1.89h0m6.14-2.13h0m6.15-2.6h0m5.43-2.36h0m5.43-3.07h0m11.81-.89h0m-4.78 3h0m-5 2.48h0m-5 2.84h0m-5.14 2.13h0m-5.31 2.48h0m-5.32 1.94h0m-5.31 2.13h0m-5.32 1.59h0m-5.14 1.42h0m-5.67 1.6h0m-5.49.71h0m-5.67 1.06h0m-5.67.35h0m-5.49.18h0m3.62 3.55h0m-3.66 3.84h0m19.84 8h0m-5.84.18h0m-6 .18h0m-6.37-.53h0m6.73 9h0m-8.15-.35h0m16.3.53h0m8-.35h0m7.09-.71h0m6.73-1.07h0m15.24 5.5h0m5.67-1.78h0m-12.47 3.19h0m-6.55 1.24h0m-7.44.89h0m-7.09.71h0m-15.24.35h0m7.27 0h0m-14.88-.17h0m1.06 9.92h0m16.48 8h0M4.78 81h0m9.22-.18h0m35.79-3h0m-9 1.24h0m-9 .89h0m26.22-3.55h0M9.21 90.92h0m6.2-.35h0m5.67-.36h0M3 90.92h0m23.2-1.24h0m5.68-.68h0m5.67-.71h0m29.06-6h0m6-1.42h0m5.49-1.77h0m5.32-1.59h0M96.67 80h0m9.56.7h0m8.51.18h0m7.62-.35h0m-17 8.5h0m-10.46-.71h0m-11-1.77h0M114.56 89h0m9.57-.71h0m6.87-1.03h0m7.08-.89h0m6.74-.88h0M65.72 75h0m8-2h0m7.09-2.13h0m6.73-2.3h0m-46.98 2.15h0m-8.35.93h0m-9.39.53h0m-9 .35h0m34.05-2.69h0m7.08-1.24h0m6.56-1.42h0m6.2-1.59h0m6.38-2h0m6.38-2.31h0m13.46 4.79h0m11.63 3.25h0m5-2.9h0m4.79-3h0m-4.84 8.21h0M115.8 74h0m5.32 2h0m5.49 1.6h0m5.49 1.94h0m5.67 1.07h0m-37-17.07h0M10.39 36.41h0m5 2.66h0m5.14 2.3h0m5.31 2h0m5.32 1.77h0m5.66 1.78h0m5.5 1.41h0m5.49 1.24h0m5.49 1.42h0m5.32 1.42h0m5.49 1.06h0m5.31 1.24h0m5.67 1.06h0M86.57 58h0m6.14.71h0m6.14.47h0m6.38 0h0m7.56.24h0M80.9 57h0m-14.47-7.71h0m12.22 2.3h0m10.63 1.06h0m11.17.71h0m10.63.36h0m8.51 6.08h0m6.49 0h0m5.31-.18h0M238.58 90.8h0m-3 3.19h0m.89 5.85h0m-.18 7.09h0m1.42 21.26h0m-8.5-.18h0m-8.33-.53h0m-8.5-1.07h0m-8.86-.88h0m-8-1.42h0m37.62 15.35h0m5 11h0m-6-.36h0m-6.2-.35h0m-5.32-.35h0m-6.08-.48h0m-5.67-.88h0m-37.2-8.33h0m5.9 1.89h0m5.91 1.89h0m-17.66-6.26h0m-5.14-2.3h0m-5-2.66h0m-5-2.83h0m9-8.51h0m-5.32 2h0m-5.67 1.95h0m-27.28 7.44h0m-5.32 1.24h0m-5.49 1.42h0m-5.6 1.18h0m-5.5.84h0m-5.14 1.42h0m-5.84 1.06h0m-5.5.89h0m-5.49.89h0m-5.49.88h0m-5.67.89h0m-5.67.71h0m-5.49.88h0m-5.49.71h0m-5.49.53h0m-5.67.89h0m-5.32.71h0m-6.49.82h0m-6 .53h0m-5.84.18h0m-5.67.71h0m-6.2.71H3m7.2 5.73h0m-4.6-2.27h0m-3.36 56.34h0m6 5.14h0m-2.64 7.09h0m-2.3 8.86h0m.35 8.32h0m8.51-.71h0m8.5-.88h0m8.15-1.42h0m8.33-1.77h0m7.44-1.77h0M12 231.12h0m8.51-.89h0m8.15-1.59h0m-15.06-11h0m5.11 2.36h0m5.5 2.12h0m5.31 1.6h0m5.32 1.95h0m5.31 1.77h0m5.49 1.56h0m5.5 1.42h0m5.86 1.23h0m5 1.06h0m5.49 1.07h0m6 1.24h0m5.51 1.06h0m5.49.88h0m5.62 1.04h0m5.67.71h0m22.15 1.41h0m6.37-.17h0m5.5 0h0m5.84-.36h0m5.5-.71h0m5.66-.88h0m5.67-.53h0m5.67-.89h0m5.14-.89h0m5.32-1.06h0m5.84-1.65h0m6.14-1.66h0m6.85-1.31h0m7.09-2h0m6.85-2.13h0m5.91-1.42h0m-19.55 15.65h0m-7.09-3h0M126 234.6h0m22.1-1.6h0m-11.16 1.24h0m29.06-3.53h0m-8.86 1.41h0m17.86-3.19h0m-59.7 5.32h0m-3.25-5.08h0m8.15.53h0m8.5 0h0m8.68-.35h0m8.15-1.07h0m8.69-.88h0m8.32-1.77h0m8.33-2.13h0m7.79-2.13h0m8.51-2.83h0m26.1-4h0m-6.52 3.46h0m6.14 5.2h0m5.13-1.78h0m5.32-2.12h0m5.14-2.48h0m5.14-2.48h0M237 221h0m-15.59 6.55h0m8 2h0m8.86 1.6h0m-.71 8.68h0m-7.08-.41h0m-6.85-.71h0m-7.99-1.71h0m-8.13-2.12h0m-7.32-3.07h0m-5.37-16.3h0m-77.82 7.1h0m8.5.18h0m8.51.18h0m8.33-.89h0m8.68-.88h0m7.79-1.6h0m6.91-1.59h0m6.38-1.77h0m5.67-1.78h0m-69.27 6.91h0m3.54-7.61h0m23.6 1.24h0m-15.41-.36h0m8.15.53h0m14.7-.71h0m6.38-.7h0m5.49-.89h0m5.32-1.24h0m-20.38-5.31h0m-7.26.88h0m-8 .18h0m7.09-8.15h0m5.13 2.3h0m5.32 1.77h0m5.49 1.42h0m5.32 1.42h0m22.32 3h0m5.67.18h0m5.49.53h0m5.85 0h0m5.49 0h0m5.67 0h0m6 0h0m5.67.18h0m5.49 0h0m5.85.17h0m6-.35h0m5 .35h0M97 204.37h0m6.56 7.79h0m-8.15-1.95h0m-9.57-2.65h0m14.35 12.57h0m3.37 8h0m-8.33-1.24h0m9.45 6.85h0m-12.62-15.38h0m-5.31 7.09h0m6.61 7h0m-14.76-8.8h0m5.31-7.09h0m-8.33-2.66h0m-8-2.65h0m12.82 19.43h0m-34.05-17.46h0m21.85 15h0m-12.4-3h0m-11.87-3.54h0M34 218.13h0m-10.1-3.55h0m.65-5.61h0m5.67-.35h0m5.31-.71h0m5.85-.35h0m5.67-.71h0m5.67-.36h0m5.67-.88h0m5.31-.71h0m5.5-.71h0m5.67-.89h0m5.31-.88h0m5.82-1.07h0m5.67-.7h0m5.13-1.24h0m5.85-.89h0m5.49-1.42h0m5.67-.88h0m5.32-1.07h0m5.49-1.06h0m5.38-1.59h0m5.5-1.24h0m5.67-1.24h0m5.31-1.42h0m5.49-1.77h0m5.49-1.42h0m5.32-1.77h0m5.49-1.95h0m5.32-1.95h0m5-2.13h0m5.49-2.12h0M15.35 158.83h0m5.14 2.17h0m5.51 1.91h0m5.67 1.77h0m5.33 1.77h0m5 1.42h0m5.85 1.42h0m5.31 1.41h0m5.5 1.42h0m5.49 1.07h0m5.67.88h0m5.31.89h0m5.49.88h0m5.79.48h0m5.67.47h0m6.38.47h0m7.09 1h0m6.61.7h0m7.09.48h0m-23.33-9.28h0m-11.52-1.24h0m-11.77-1.82h0m-12.75-2.48h0m-11.52-3h0m-10.81-3.54h0m-10.27-3.72h0m79.54 16.47h0m-58.76-19.32h0M117.63 171h0m10.45-.18h0m-69.15-16.47h0m15.95-7h0m8 1.77h0m8.5 2.13h0m8.33 1.59h0m8.33 1.24h0m8.5 1.06h0m8.15.54h0m8.68.53h0m8.15.35h0m32.24-3.72h0m6.38-2.48h0m5.67-2.48h0m-88.94-4.61h0m8.86 2.13h0m8 1.42h0m8.33 1.06h0m8.33.89h0m8.15 0h0m8 .53h0m6.91-.18h0m5.67-.71h0m5.31-.71h0m5.5-.88h0m5.31-1.42h0m-11.69-4.07h0m-5.85 1.41h0m-9-5.84h0m6.37-.36h0m-10.45 6.56h0m7.09 0h0m-10.81-6.91h0m-5.31 6.2h0m-2.13-7.27h0m-7.44 5.32h0m-8.68-2.3h0m-49.79 18.6h0m30.71 5.2h0m9.33.29h0m8.51.53h0m8.15 0h0m8.68-.17h0m9.57-.36h0m9.38-.53h0m8.51-1.06h0m7.79-1.07h0m8.51-1.59h0m8.32-1.6h0m7.8-1.59h0m7.44-1.59h0m7.8-1.78h0m-68.33 18.9h0m11.34-1.06h0m9.92-1.42h0m-35.32 11.81h0m6.74-.23h0m22.32-2.48h0m5.85-.54h0m5.49-1.06h0m5.67-1.06h0m5.37-1.28h0m-6.67-6.62h0m9-1.59h0m8.86-1.77h0m8.5-2.48h0m6.91-2h0m7.21-2.42h0m6.85-2.6h0m18 .29h0m-5 3h0m-5.14 1.94h0m-5.13 2.31h0m-5.5 2h0m-5.31 1.77h0m-5.49 1.59h0m-5.32 1.6h0m-5.67 1.59h0m-5.31 1.24h0m-5.85 1.42h0m-56.63-47.36h0m-10.63 2.65h0m-11.52 2.66h0m-10.81 2.48h0m-12.22 2.13h0m-11 1.77h0m-10.09 1.24h0M3.65 139.7h0m37.09-.06h0m9-.71h0m55.39-15.35h0m-7.2.83h0m-34.79 3.24h0m7.09-.7h0M54.68 128h0m-8.33.35h0m-8.5.18h0m-8.68 0h0m-8.33.18h0m-8.33-.36h0m-8.68-.17h0m58.82-6.74h0m-8.5-.17h0m-8.51 0h0m-8.64-.53h0m-8.32-.53h0m-8.55-.21h0m-8.5-.71h0m-8.15-.89h0m67.32 2.84h0m151.89 17.3h0m-11-1.24h0m-10.81-1.77h0m-11.34-2.48h0m-10.1-2.84h0m-10.27-3.9h0m40.33-13.58h0m18.78-8.15h0m2.72-8.11h0M225.82 99h0m-5.31 2.31h0m-5.32 1.94h0m-5.31 2h0m-10.22-9.62h0m4.72 11.4h0m-5.49 1.41h0m-5.67 1.24h0m-5.31 1.77h0m-5.32 1.24h0m-5.67.89h0m-5.67 1.06h0m-5.31 1.07h0m-5.67 1.06h0m-5.49.71h0m-5.85.88h0m-5.31.71h0m-5.5.36h0m-5.84.71h0m-6.2.35h0m-7.8 0h0m-5.85-.35h0m-5.67-.36h0m-5.49-.71h0m-5.49-.35h0m-5.85-.89h0m-5.49-.88h0M79 116h0m-5.67-.89h0m-5.31-.7h0m-5.14-1.24h0M57 112.06h0m-5.84-1.59h0m2.3 4.78h0m-8.51-.88h0m-8.32-.71h0m-8.51-1.24h0M19.78 111h0m-8.33-1.59h0M3.12 108h0m33.13 1.59h0m-8.5-1.24h0m-8-1.77h0m-8.33-2.66h0m-8.12-2.49h0m20.73.71h0m-5-1.77h0m-5-2.13h0m-4.2-2.36h0M6 93.58h0m185.49 5.67h0m-8.86 3.9h0m-8.86 3h0m-10.27 3h0m-10.28 2.13h0m-43.76 3.18h0m10.45.36h0m10.81-.53h0m10.81-1.24h0m-43.21.95h0m-10.63-1.24h0m-9.39-1.59h0m2.6-8.17h0m-9.57-2.48h0m-2.6 8.48h0m-19.84-5.84h0m9.92 3h0M39.68 99.6h0M31 95.88h0m30.86 2h0M51 93.58h0m48.84 11.93h0m18.24-9.75h0m-29.39-1.59h0m-9.56-1.6h0m-9.22-3h0m20.91 15.23h0m17.36 1.2h0m17-11h0m6.56-.54h0m-15.6 11.7h0M138 93.82h0m18.24 7.61h0m7.45-2h0m6.73-1.94h0m6.73-2.13h0m6.85-2.43h0m-36 10.45h0m14.18-14.17h0m-6.38 1.42h0m-5.8 1.06h0m-6 1.24h0m-4.08 11.87h0m-7.44.71h0m-7.8.38h0m108.23-15.44h0m-5.67 0h0m-5.67-.18h0m-5.67-.35h0m-22.68-1.24h0m-5.49-.53h0m-6-.71h0m-5.5-.53h0m-5.67-.71h0m-5.31-.71h0m-5.49-1.06h0m-5.85-.89h0m-5.49-1.06h0m-5.32-1.07h0m-5.49-22.14h0m5.32-.71h0m5.67-.53h0m5.67-.89h0m5.66-.88h0m5.5-.71h0m5.67-1.07h0m5.67-1.24h0m5.49-1.06h0m5.31-1.24h0m5.32-1.24h0m27.28-8.15h0m5.14-2.3h0m5.14-2.3h0m5.31-2.49h0M158 49.82h0m11-1.77h0m-22.32 3.72h0M134.28 53h0m-11.16.53h0m57.23-8h0m9.74-2.84h0m9.21-2.83h0m8.86-3.37h0M35.07 40.43h0m-8.15-3.37h0m-7.5-3.66h0m14.71-1.77h0m7.26 4.25h0m8 2.84h0m8 2.83h0m8.5 1.6h0M74 44.56h0m8.33 1.07h0m8.68.88h0m9 .71h0m8.51.18h0m7.79-.36h0m8.15-.17h0M133 45.8h0m27.63-6.2h0m6.91-2.3h0m6.73-2.3h0M45.64 26.49h0m7.62 3.9h0m7.62 2.66h0m8 2h0m9.57 1.77h0m9 .88h0m9.75.54h0m10.27-.54h0m9.22-1.06h0m9-1.24h0m7.44-1.24h0m6.91-1.24h0m6.38-1.42h0m-81.64-7.31h0m-7.09-2h0m15.24 3.9h0m17.89-6.2h0m-7.44-1.6h0M74.88 16h0m23.56 5.31h0m7.26.89h0m7.44.53h0M85.51 7.89h0m5.31 2.66h0m4.78 1.77h0m5.14 2.48h0m5.49 2.13h0m5.5 1.77h0m5.27 1.77h0m5.32 1.59h0m5.68 1.42h0m5.32 1.24h0M139 26h0m5.31.89h0m5.5 1.06h0m5.67.89h0m5.66.35h0m5.67.53h0m5.5.71h0m5.49.35h0m5.67.54h0m5.84.17h0m5.67.18h0m5.5-.18h0m5.66.18h0m6 0h0m6.2-.35h0m6 0h0m6.38-.71h0m6.38 0h0M102.69 29h0m7.09 0h0m6.91-.35h0m6.73-.71h0M163 23.42h0m-11.11-1.89h0M98 3.64h0m31.19-.3h0m6.61 2.6h0m7.09 2.84h0m6.37 1.89h0m6.85 1.89h0m82 7.55h0m-6.61-.23h0m-7.56.23h0m-7.56 0h0m-7.56-.47h0m-7.82-.23h0m-7.8-.71h0m-9-1.18h0m26.69 10.15h0m-7.8-.35h0m-9-.53h0m-19.77-2.19h0M106.53 7.36h0m8.5 3.78h0m9 3.07h0m8.8 2.83h0m9.39 2.6h0m42.69 6.44h0M218 27.67h0m6.74-.17h0m6.55-.54h0m6.56-.53h0m-57.82-17h0m-8.68-2h0M163.2 4.6h0m-8.33-3.54h0m33.49 9.92h0m8 1.06h0m8.33.71h0m.17-8.75h0m-8.69-2h0m42.05 5.38h0m0 6.42h0m-8.22.1h0m-7.79-.18h0m-9.21-.35h0M18.6 164.62h0m-15.06-1.77h0m7.44.89h0M39.68 174h0m8.86-.35h0m23.74 5h0m-8.51 1.06h0m-7.79.71h0m-8.86 1.06h0m-10.28.71h0m-11 .36h0m-11.34.35h0m-10.43 9.89h0m-1.95 10.63h0m10.63-.53h0m10.45-.71h0m11.52-1.06h0m9.56-1.24h0m9.22-1.24h0m9.39-1.42h0m8.32-1.42h0m8.15-1.59h0m8-1.42h0m8-1.95h0m7.79-1.77h0m7.09-1.77h0m6-1.59h0m5.85-1.78h0m-110.58 8.51h0m8.5-.53h0m8.68-.54h0m9-.53h0m8.68-1.06h0m9.57-.89h0m31.53-4.6h0m6.2-1.07h0m6.56-1.06h0m-96 1.06h0m3.36-9.56h0m167.3 25.86h0M162.51 197h0m-11.34-3.3h0m36 7.73h0m12.05 1.07h0m10.8.7h0m10.81.36h0m12 0h0m-64.31-15.95h0m11.16 1.78h0m30.82 2.83h0m8.69.53h0m8.85 0h0m8.51 0h0M190 180h0m14.18 1.06h0m14.52 1.42h0m14.89.7h0m3.16-10.18h0m-.89-11.52h0m-24.33-91.29h0m-9.53-.88h0m-10.27-1.42h0m-9.75-1.59h0m-11.16-2.13h0M158 61.33h0m76.19 19.49h0m-11.52-.35h0m-12.22-.71h0m-12.41-1.24h0m-14.35-2h0M145.09 69h0m-12.58-3.72h0M238.28 45h0m-9.39-1.6h0m-10.45 8h0m-8.33-1.4h0m16.3 2.83h0m8.68.89h0m2.66 8.86h0m-7.8-.89h0m-7.61-.69h0m-8.15-.89h0M206.75 59h0m-16.84-3h0m8.86 1.77h0M56.33 5.54h0m6.2-3.9h0m11-.35h0m-4.44 2.83h0m11.34-.35h0m3-2.84h0M68 238.85h0m-8.85 0h0m-13.47.36h0m5.85-3.37h0M39 1.45h0M38.79 8h0m6.73-3h0M53 1.63h0m-7.3 237.58h0m5.85-3.37h0" style="stroke-linecap:round;stroke-width:1.98px;stroke:#d9b776;stroke-miterlimit:11.34;fill:none"/><path d="M27.07 16.19A116.84 116.84 0 0 0 43 11.59m53.77 17.89a116.16 116.16 0 0 1-16.49-1.83m31.83 68.8a92.7 92.7 0 0 1-14.71-.71m51.56 82a66.29 66.29 0 0 1-12.4 1.24m-18.46 28.69a92.08 92.08 0 0 1-14.62-1.77m9.13 33.72c-4.36-.11-8 .28-11.84-.55m103.63-91.21a93.21 93.21 0 0 1-14.4-3.05M88.54 160.49A91.67 91.67 0 0 1 74 158.1m-54.19 51.2c-4.34.47-8.49 1.21-12.41.89m195.2-18.59a52.26 52.26 0 0 1-11-.76m33.48-19.13a91.85 91.85 0 0 1-12.58-1.6m-13.11 51a115.86 115.86 0 0 1-15.47 5.38m-113.62-4.9a124.48 124.48 0 0 1-16.12-5.49M170 208.77c-4.25-.35-8-.89-11.87-1.59m32.07-83.63a116.08 116.08 0 0 1-15.77-5.17M60.23 83.75a119 119 0 0 1-16.15 3.81M30.2 139.48a117 117 0 0 1-16.6.16m78.54-15.44a117.67 117.67 0 0 1-16.47 2.1m-43.2 48.1a116.84 116.84 0 0 1-16.6-.27m29.27-64.93a117 117 0 0 1-15.77-5.2m148.16-87.4a117.48 117.48 0 0 1-16.35-2.84M155 41.17a118.22 118.22 0 0 1-16.25 3.42m91.83-37.38a117.75 117.75 0 0 1-16.5-1.77m0 38.11a117.79 117.79 0 0 1-15.91 4.72M172.8 75.19a116.12 116.12 0 0 1-16.25-3.37m77.19 46.25a119.05 119.05 0 0 1-16.25-3.37m20.15-42.34c-5.06-.18-11.44-.53-18.17-1.42m-6.92 18.75a103.61 103.61 0 0 1-15.4-.5M58.41 47.84A116.94 116.94 0 0 1 42.53 43m59.23 28.06a118.83 118.83 0 0 1-15.68 5.43m57.49 50.2a117.57 117.57 0 0 1-16.08 4.1M167.31 154a116.93 116.93 0 0 1-16.47 2m-70.51 29.67a117.3 117.3 0 0 1-16.48 2" style="stroke-width:1.42px;stroke:#d9b776;stroke-miterlimit:11.34;fill:none"/></pattern><style>.a{fill:none}</style></defs><g style="clip-path:url(#a)"><path d="M0 0h1920v1920H0z" style="fill:#161515"/><path style="opacity:.4;fill:url(#b)" d="M0 0h1920v1920H0z"/><path style="stroke-width:2.16px;fill:#d9b776;stroke:#161515;stroke-miterlimit:13.97" d="m40.4 265.18-3.02 4.24-.27 5.21-4.24-3.03-5.21-.26 3.03-4.25.26-5.2 4.25 3.03 5.2.26z"/><path style="stroke-width:2.03px;fill:#d9b776;stroke:#161515;stroke-miterlimit:13.97" d="m74.88 258.94.85 4.83 3.32 3.61-4.83.85-3.61 3.32-.85-4.83-3.32-3.61 4.83-.85 3.61-3.32z"/><path style="stroke-width:2.23px;fill:#d9b776;stroke:#161515;stroke-miterlimit:13.97" d="m52.47 413.99-1.08-5.26-3.74-3.85 5.26-1.07 3.85-3.75 1.07 5.26 3.75 3.85-5.26 1.08-3.85 3.74z"/><path style="stroke-width:1.95px;fill:#d9b776;stroke:#161515;stroke-miterlimit:13.97" d="m57.83 483.1 3.3-3.35.98-4.6 3.35 3.3 4.6.98-3.3 3.35-.98 4.6-3.35-3.3-4.6-.98z"/><path style="stroke-width:2.06px;fill:#d9b776;stroke:#161515;stroke-miterlimit:13.97" d="m131.19 201.75 4.09 2.82 4.97.18-2.83 4.09-.17 4.97-4.09-2.83-4.97-.17 2.82-4.09.18-4.97z"/><path style="stroke-width:2.32px;fill:#d9b776;stroke:#161515;stroke-miterlimit:13.97" d="m104.18 435.65 5.58-.34 4.51-3.3.35 5.58 3.3 4.51-5.58.35-4.52 3.3-.34-5.58-3.3-4.52z"/><path style="stroke-width:2.02px;fill:#d9b776;stroke:#161515;stroke-miterlimit:13.97" d="m202.34 41.87 4.85-.47 3.83-3.01.46 4.85 3.01 3.83-4.85.47-3.83 3.01-.46-4.85-3.01-3.83z"/><path style="stroke-width:2.1px;fill:#d9b776;stroke:#161515;stroke-miterlimit:13.97" d="m153.8 397.22-4.98.96-3.68 3.5-.96-4.98-3.5-3.68 4.98-.96 3.68-3.5.96 4.98 3.5 3.68z"/><path style="stroke-width:2.27px;fill:#d9b776;stroke:#161515;stroke-miterlimit:13.97" d="m135.48 614.76-5.32-1.29-5.17 1.79 1.29-5.32-1.79-5.18 5.32 1.29 5.18-1.78-1.29 5.32 1.78 5.17z"/><path style="stroke-width:2.05px;fill:#d9b776;stroke:#161515;stroke-miterlimit:13.97" d="m154.74 516.67 4.3-2.44 2.3-4.38 2.44 4.3 4.38 2.3-4.3 2.45-2.3 4.37-2.44-4.29-4.38-2.31z"/><path style="stroke-width:2.24px;fill:#d9b776;stroke:#161515;stroke-miterlimit:13.97" d="m206.37 389.24-2.78 4.61.14 5.39-4.61-2.78-5.39.15 2.78-4.62-.14-5.39 4.61 2.78 5.39-.14z"/><path style="stroke-width:1.99px;fill:#d9b776;stroke:#161515;stroke-miterlimit:13.97" d="m199.75 529-1.53 4.54 1.16 4.65-4.54-1.53-4.65 1.16 1.53-4.54-1.16-4.65 4.54 1.53 4.65-1.16z"/><path style="stroke-width:2.15px;fill:#d9b776;stroke:#161515;stroke-miterlimit:13.97" d="m305.07 74.59-4.62-2.38-5.17.49 2.38-4.61-.49-5.17 4.61 2.37 5.17-.49-2.37 4.62.49 5.17z"/><path style="stroke-width:2.08px;fill:#d9b776;stroke:#161515;stroke-miterlimit:13.97" d="m337.66-7.24-4.78 1.54-3.19 3.87-1.54-4.77-3.88-3.19 4.78-1.55 3.19-3.87 1.55 4.78 3.87 3.19z"/><path style="stroke-width:2.27px;fill:#d9b776;stroke:#161515;stroke-miterlimit:13.97" d="m329.41 138.21-3.29 4.38-.42 5.46-4.38-3.3-5.46-.41 3.3-4.38.41-5.46 4.38 3.3 5.46.41z"/><path style="stroke-width:2.13px;fill:#d9b776;stroke:#161515;stroke-miterlimit:13.97" d="m340.56 78.38 3.02-4.15.31-5.12 4.15 3.02 5.12.31-3.03 4.15-.31 5.12-4.14-3.02-5.12-.31z"/><path style="stroke-width:1.97px;fill:#d9b776;stroke:#161515;stroke-miterlimit:13.97" d="m280.56 443.61.92-4.67-1.73-4.43 4.66.93 4.43-1.74-.93 4.67 1.74 4.42-4.66-.92-4.43 1.74z"/><path style="stroke-width:1.98px;fill:#d9b776;stroke:#161515;stroke-miterlimit:13.97" d="m264.8 574.89 4.28 2.1 4.74-.54-2.09 4.28.54 4.74-4.28-2.1-4.74.55 2.09-4.29-.54-4.74z"/><path style="stroke-width:2.07px;fill:#d9b776;stroke:#161515;stroke-miterlimit:13.97" d="m390.18 17.98 4.9-.87 3.66-3.38.87 4.91 3.38 3.66-4.91.87-3.65 3.37-.87-4.9-3.38-3.66z"/><path style="stroke-width:2.21px;fill:#d9b776;stroke:#161515;stroke-miterlimit:13.97" d="m406.14 31.73-2.04-4.93-4.37-3.05 4.93-2.03 3.05-4.38 2.03 4.93 4.38 3.05-4.93 2.04-3.05 4.37z"/><path style="stroke-width:2px;fill:#d9b776;stroke:#161515;stroke-miterlimit:13.97" d="m303.92 641.2 4.1-2.54 2.09-4.36 2.54 4.1 4.35 2.09-4.1 2.54-2.08 4.35-2.54-4.1-4.36-2.08z"/><path style="stroke-width:2.14px;fill:#d9b776;stroke:#161515;stroke-miterlimit:13.97" d="m419.71 108.5 4.2-3.02 1.9-4.8 3.02 4.2 4.8 1.9-4.2 3.02-1.9 4.8-3.02-4.2-4.8-1.9z"/><path style="stroke-width:2.23px;fill:#d9b776;stroke:#161515;stroke-miterlimit:13.97" d="m342.99 686.4-2.12 4.93.88 5.3-4.93-2.12-5.3.88 2.12-4.94-.88-5.29 4.94 2.12 5.29-.88z"/><path style="stroke-width:2.1px;fill:#d9b776;stroke:#161515;stroke-miterlimit:13.97" d="m448.22 156.08 3.45-3.71.9-4.98 3.71 3.45 4.98.9-3.45 3.71-.9 4.98-3.71-3.45-4.98-.9z"/><path style="stroke-width:2.15px;fill:#d9b776;stroke:#161515;stroke-miterlimit:13.97" d="m418.64 375.36 2.53-4.54-.33-5.17 4.54 2.52 5.18-.33-2.52 4.54.32 5.18-4.54-2.52-5.18.32z"/><path style="stroke-width:1.95px;fill:#d9b776;stroke:#161515;stroke-miterlimit:13.97" d="m492.05 148.55 1.94 4.27 3.93 2.56-4.27 1.93-2.56 3.94-1.93-4.28-3.94-2.55 4.28-1.94 2.55-3.93z"/><path style="stroke-width:2.2px;fill:#d9b776;stroke:#161515;stroke-miterlimit:13.97" d="m516.05 56.58 3.74-3.78 1.11-5.19 3.78 3.73 5.2 1.11-3.74 3.78-1.11 5.2-3.78-3.74-5.2-1.11z"/><path style="stroke-width:2.02px;fill:#d9b776;stroke:#161515;stroke-miterlimit:13.97" d="m511.52 132.97 4.22-2.44 2.23-4.32 2.43 4.22 4.32 2.23-4.21 2.43-2.23 4.32-2.44-4.21-4.32-2.23z"/><path style="stroke-width:2.26px;fill:#d9b776;stroke:#161515;stroke-miterlimit:13.97" d="m478.08 516.96-5.25 1.42-3.65 4.04-1.43-5.25-4.03-3.65 5.25-1.43 3.65-4.03 1.42 5.25 4.04 3.65z"/><path style="stroke-width:2.27px;fill:#d9b776;stroke:#161515;stroke-miterlimit:13.97" d="m540.26 259.02-4.59 2.98-2.25 4.99-2.98-4.58-4.99-2.25 4.58-2.99 2.25-4.98 2.99 4.58 4.99 2.25z"/><path style="stroke-width:2.01px;fill:#d9b776;stroke:#161515;stroke-miterlimit:13.97" d="m475.2 670.49-4.85.24-3.96 2.81-.23-4.85-2.81-3.96 4.84-.23 3.96-2.81.23 4.85 2.82 3.95z"/><path style="stroke-width:2.21px;fill:#d9b776;stroke:#161515;stroke-miterlimit:13.97" d="m532.6 411-4.25-3.23-5.32-.43 3.24-4.25.43-5.31 4.24 3.23 5.32.43-3.23 4.24-.43 5.32z"/><path style="stroke-width:2.3px;fill:#d9b776;stroke:#161515;stroke-miterlimit:13.97" d="m477.13 716.12 5.52-.55 4.35-3.44.55 5.51 3.44 4.35-5.52.55-4.35 3.44-.55-5.51-3.44-4.35z"/><path style="stroke-width:2.23px;fill:#d9b776;stroke:#161515;stroke-miterlimit:13.97" d="m593.29 164.9 4.65-2.72 2.45-4.8 2.72 4.65 4.8 2.45-4.65 2.72-2.45 4.8-2.72-4.65-4.8-2.45z"/><path style="stroke-width:2.02px;fill:#d9b776;stroke:#161515;stroke-miterlimit:13.97" d="m537.03 587.56-4.25-2.38-4.86.29 2.37-4.25-.29-4.86 4.25 2.38 4.87-.29-2.38 4.25.29 4.86z"/><path style="stroke-width:2.29px;fill:#d9b776;stroke:#161515;stroke-miterlimit:13.97" d="m563.16 457.53 4.16-3.62 1.55-5.3 3.63 4.16 5.3 1.56-4.17 3.62-1.55 5.3-3.62-4.17-5.3-1.55z"/><path style="stroke-width:1.96px;fill:#d9b776;stroke:#161515;stroke-miterlimit:13.97" d="m567.77 525.39 2.59 3.97 4.31 1.95-3.97 2.58-1.95 4.31-2.58-3.97-4.31-1.95 3.97-2.58 1.94-4.31z"/><path style="stroke-width:2.12px;fill:#d9b776;stroke:#161515;stroke-miterlimit:13.97" d="m667.85 163.2-2.05 4.67.78 5.04-4.67-2.06-5.04.79 2.06-4.67-.79-5.04 4.67 2.05 5.04-.78z"/><path style="stroke-width:2.31px;fill:#d9b776;stroke:#161515;stroke-miterlimit:13.97" d="m640.29 351.04 3.68 4.19 5.36 1.53-4.18 3.68-1.54 5.36-3.68-4.18-5.35-1.54 4.18-3.68 1.53-5.36z"/><path style="stroke-width:2.21px;fill:#d9b776;stroke:#161515;stroke-miterlimit:13.97" d="m660.08 430.41-5.18-1.25-5.04 1.73 1.26-5.18-1.73-5.03 5.17 1.25 5.04-1.73-1.25 5.18 1.73 5.03z"/><path style="stroke-width:2.02px;fill:#d9b776;stroke:#161515;stroke-miterlimit:13.97" d="m653.99 548.02.57-4.83-2.13-4.37 4.83.56 4.37-2.13-.57 4.83 2.13 4.37-4.83-.56-4.37 2.13z"/><path style="stroke-width:2.26px;fill:#d9b776;stroke:#161515;stroke-miterlimit:13.97" d="m736.58 197.91-.67 5.41 2.37 4.92-5.42-.66-4.92 2.36.67-5.41-2.37-4.92 5.42.66 4.92-2.36z"/><path style="stroke-width:2.01px;fill:#d9b776;stroke:#161515;stroke-miterlimit:13.97" d="m728.12 337.19-4.74-1.01-4.55 1.7 1.02-4.74-1.71-4.54 4.74 1.01 4.55-1.71-1.02 4.75 1.71 4.54z"/><path style="stroke-width:2.07px;fill:#d9b776;stroke:#161515;stroke-miterlimit:13.97" d="m695.75 537.1 3.22 3.82 4.77 1.48-3.82 3.21-1.49 4.77-3.21-3.82-4.76-1.48 3.81-3.21 1.48-4.77z"/><path style="stroke-width:1.97px;fill:#d9b776;stroke:#161515;stroke-miterlimit:13.97" d="m742.72 430.87 4.18-2.28 2.29-4.17 2.28 4.19 4.17 2.29-4.19 2.27-2.29 4.17-2.27-4.18-4.17-2.29z"/><path style="stroke-width:2.3px;fill:#d9b776;stroke:#161515;stroke-miterlimit:13.97" d="m797.95 202.91 4.99 2.43 5.51-.64-2.43 4.99.65 5.52-5-2.43-5.51.64 2.43-4.99-.64-5.52z"/><path style="stroke-width:1.98px;fill:#d9b776;stroke:#161515;stroke-miterlimit:13.97" d="m815.92 182.77 4.62 1.24 4.55-1.44-1.24 4.61 1.44 4.56-4.61-1.24-4.56 1.44 1.25-4.62-1.45-4.55z"/><path style="stroke-width:2.26px;fill:#d9b776;stroke:#161515;stroke-miterlimit:13.97" d="m821 276.47.7 5.41 3.51 4.17-5.41.7-4.17 3.51-.7-5.41-3.51-4.17 5.41-.7 4.17-3.51z"/><path style="stroke-width:2.25px;fill:#d9b776;stroke:#161515;stroke-miterlimit:13.97" d="m849.32 203.51-3.93 3.73-1.3 5.26-3.73-3.93-5.26-1.29 3.93-3.73 1.3-5.26 3.73 3.93 5.26 1.29z"/><path style="stroke-width:2.19px;fill:#d9b776;stroke:#161515;stroke-miterlimit:13.97" d="m827.27 338.36 4.36-2.98 2.07-4.85 2.97 4.35 4.86 2.07-4.36 2.98-2.06 4.85-2.98-4.35-4.86-2.07z"/><path style="stroke-width:2.2px;fill:#d9b776;stroke:#161515;stroke-miterlimit:13.97" d="m810.92 518.7 5.14 1.27 5.02-1.7-1.27 5.14 1.7 5.02-5.14-1.27-5.02 1.7 1.27-5.14-1.7-5.02z"/><path style="stroke-width:2.18px;fill:#d9b776;stroke:#161515;stroke-miterlimit:13.97" d="m851.24 342.88 3.36-4.04.64-5.21 4.04 3.36 5.21.64-3.35 4.04-.65 5.21-4.04-3.35-5.21-.65z"/><path style="stroke-width:2.16px;fill:#d9b776;stroke:#161515;stroke-miterlimit:13.97" d="m897.55 187.47.45 5.19 3.18 4.12-5.18.45-4.13 3.18-.45-5.18-3.18-4.13 5.19-.45 4.12-3.18z"/><path style="stroke-width:2.25px;fill:#d9b776;stroke:#161515;stroke-miterlimit:13.97" d="m848.49 536.08-.09-5.42-3-4.52 5.43-.09 4.51-3 .09 5.43 3 4.51-5.42.09-4.52 3z"/><path style="stroke-width:2.03px;fill:#d9b776;stroke:#161515;stroke-miterlimit:13.97" d="m906.5 301.63.68 4.85 3.2 3.71-4.85.69-3.71 3.19-.69-4.85-3.19-3.71 4.85-.68 3.71-3.2z"/><path style="stroke-width:2.01px;fill:#d9b776;stroke:#161515;stroke-miterlimit:13.97" d="m889.97 506.12-3.03 3.77-.52 4.82-3.77-3.04-4.82-.51 3.04-3.78.51-4.81 3.78 3.03 4.81.52z"/><path style="stroke-width:2.32px;fill:#d9b776;stroke:#161515;stroke-miterlimit:13.97" d="m860.22 687.44 5.24-1.97 3.34-4.48 1.97 5.24 4.49 3.34-5.24 1.97-3.35 4.48-1.97-5.23-4.48-3.35z"/><path style="stroke-width:2.2px;fill:#d9b776;stroke:#161515;stroke-miterlimit:13.97" d="m927.56 608.46 3.01-4.39.17-5.31 4.38 3.01 5.31.17-3.01 4.38-.16 5.31-4.38-3.01-5.32-.16z"/><path style="stroke-width:2.03px;fill:#d9b776;stroke:#161515;stroke-miterlimit:13.97" d="m1014.14 296.32-4.89.12-4.05 2.74-.12-4.89-2.74-4.05 4.89-.12 4.05-2.74.12 4.89 2.74 4.05z"/><path style="stroke-width:1.99px;fill:#d9b776;stroke:#161515;stroke-miterlimit:13.97" d="m965.97 632.14-1.42-4.58-3.67-3.1 4.59-1.42 3.1-3.67 1.42 4.59 3.67 3.1-4.59 1.42-3.1 3.66z"/><path style="stroke-width:2.26px;fill:#d9b776;stroke:#161515;stroke-miterlimit:13.97" d="m1018.79 439.62 2.65-4.76-.34-5.45 4.76 2.65 5.45-.34-2.65 4.77.34 5.44-4.77-2.65-5.44.34z"/><path style="stroke-width:2.23px;fill:#d9b776;stroke:#161515;stroke-miterlimit:13.97" d="m1090.98 194.66-2.44 4.78.52 5.35-4.78-2.45-5.35.52 2.45-4.78-.52-5.34 4.78 2.44 5.34-.52z"/><path style="stroke-width:2.08px;fill:#d9b776;stroke:#161515;stroke-miterlimit:13.97" d="m1049.34 640.68.72 4.95 3.27 3.79-4.95.72-3.79 3.27-.71-4.95-3.28-3.79 4.95-.71 3.79-3.28z"/><path style="stroke-width:2.29px;fill:#d9b776;stroke:#161515;stroke-miterlimit:13.97" d="m1089.42 464.44-2.02 5.14 1.08 5.42-5.14-2.02-5.42 1.08 2.02-5.15-1.08-5.41 5.14 2.01 5.42-1.07z"/><path style="stroke-width:1.95px;fill:#d9b776;stroke:#161515;stroke-miterlimit:13.97" d="m1084.97 594.58-1.81 4.33.81 4.64-4.34-1.82-4.63.82 1.82-4.34-.82-4.63 4.34 1.81 4.63-.81z"/><path style="stroke-width:2.19px;fill:#d9b776;stroke:#161515;stroke-miterlimit:13.97" d="m1132.13 286.13.18-5.28-2.69-4.54 5.28.18 4.55-2.69-.19 5.28 2.7 4.54-5.28-.18-4.55 2.69z"/><path style="stroke-width:2.05px;fill:#d9b776;stroke:#161515;stroke-miterlimit:13.97" d="m1175.28 124.22-1.29 4.78 1.49 4.72-4.78-1.29-4.72 1.49 1.29-4.78-1.49-4.72 4.78 1.29 4.72-1.49z"/><path style="stroke-width:1.98px;fill:#d9b776;stroke:#161515;stroke-miterlimit:13.97" d="m1178.99 99.17 4.73.74 4.38-1.92-.74 4.73 1.92 4.38-4.73-.75-4.38 1.93.74-4.73-1.92-4.38z"/><path style="stroke-width:2.02px;fill:#d9b776;stroke:#161515;stroke-miterlimit:13.97" d="m1124.65 696.11-2.57-4.15-4.4-2.1 4.15-2.57 2.11-4.41 2.57 4.15 4.4 2.11-4.15 2.57-2.11 4.4z"/><path style="stroke-width:1.97px;fill:#d9b776;stroke:#161515;stroke-miterlimit:13.97" d="m1118.04 808.7 1.16-4.6-1.51-4.5 4.6 1.15 4.49-1.5-1.15 4.6 1.51 4.49-4.6-1.15-4.5 1.51z"/><path style="stroke-width:1.94px;fill:#d9b776;stroke:#161515;stroke-miterlimit:13.97" d="m1228.3 3.69 4.56 1.04 4.41-1.59-1.04 4.56 1.58 4.41-4.56-1.04-4.4 1.58 1.04-4.56-1.59-4.4z"/><path style="stroke-width:2.19px;fill:#d9b776;stroke:#161515;stroke-miterlimit:13.97" d="m1151.92 734.85 2.36-4.73-.57-5.24 4.72 2.35 5.24-.57-2.35 4.72.57 5.25-4.72-2.35-5.25.57z"/><path style="stroke-width:2.22px;fill:#d9b776;stroke:#161515;stroke-miterlimit:13.97" d="m1165.13 776.47-2.78-4.58-4.81-2.36 4.57-2.78 2.35-4.81 2.79 4.58 4.81 2.35-4.58 2.78-2.35 4.82z"/><path style="stroke-width:2.19px;fill:#d9b776;stroke:#161515;stroke-miterlimit:13.97" d="m1242.42 193.76 4.94 1.87 5.16-1.09-1.87 4.94 1.1 5.16-4.94-1.86-5.17 1.09 1.87-4.94-1.09-5.17z"/><path style="stroke-width:2.01px;fill:#d9b776;stroke:#161515;stroke-miterlimit:13.97" d="m1251.87 317.83-4.83.45-3.82 2.98-.45-4.82-2.98-3.83 4.83-.45 3.82-2.98.45 4.83 2.98 3.82z"/><path style="stroke-width:2.05px;fill:#d9b776;stroke:#161515;stroke-miterlimit:13.97" d="m1251.8 303.28 4.06-2.82 1.9-4.56 2.82 4.06 4.55 1.9-4.05 2.82-1.9 4.55-2.82-4.05-4.56-1.9z"/><path style="stroke-width:2.27px;fill:#d9b776;stroke:#161515;stroke-miterlimit:13.97" d="m1288.4 53.79 5.21-1.67 3.48-4.22 1.67 5.2 4.22 3.48-5.2 1.68-3.48 4.21-1.68-5.2-4.22-3.48z"/><path style="stroke-width:2.17px;fill:#d9b776;stroke:#161515;stroke-miterlimit:13.97" d="m1235.78 826-5.02-1.5-5.03 1.45 1.49-5.02-1.44-5.04 5.02 1.5 5.03-1.44-1.5 5.02 1.45 5.03z"/><path style="stroke-width:2.31px;fill:#d9b776;stroke:#161515;stroke-miterlimit:13.97" d="m1276.27 583.76-5.56.24-4.56 3.2-.24-5.57-3.19-4.55 5.56-.24 4.56-3.2.23 5.57 3.2 4.55z"/><path style="stroke-width:2px;fill:#d9b776;stroke:#161515;stroke-miterlimit:13.97" d="m1305.9 352.71.55 4.78 3.04 3.74-4.79.54-3.73 3.04-.55-4.78-3.04-3.73 4.79-.55 3.73-3.04z"/><path style="stroke-width:2.09px;fill:#d9b776;stroke:#161515;stroke-miterlimit:13.97" d="m1357.1-.58-5.05-.01-4.25 2.71.01-5.05-2.71-4.25 5.04.01 4.26-2.71-.02 5.05 2.72 4.25z"/><path style="stroke-width:1.98px;fill:#d9b776;stroke:#161515;stroke-miterlimit:13.97" d="m1274.47 847.02.35-4.77-2.27-4.21 4.77.36 4.21-2.27-.36 4.77 2.27 4.2-4.77-.35-4.2 2.27z"/><path style="stroke-width:2.23px;fill:#d9b776;stroke:#161515;stroke-miterlimit:13.97" d="m1293.36 773.32 3.89 3.69 5.27 1.01-3.7 3.89-1 5.27-3.9-3.69-5.27-1.01 3.7-3.89 1.01-5.27z"/><path style="stroke-width:2.07px;fill:#d9b776;stroke:#161515;stroke-miterlimit:13.97" d="m1360.99 246.78 2.34 4.41 4.34 2.44-4.4 2.34-2.44 4.34-2.34-4.4-4.35-2.44 4.41-2.34 2.44-4.35z"/><path style="stroke-width:2.06px;fill:#d9b776;stroke:#161515;stroke-miterlimit:13.97" d="m1363.95 563.37-.99 4.87 1.79 4.63-4.87-.99-4.63 1.79.99-4.87-1.79-4.63 4.87.99 4.63-1.79z"/><path style="stroke-width:2.27px;fill:#d9b776;stroke:#161515;stroke-miterlimit:13.97" d="m1350.21 779.88 2.94-4.62-.02-5.47 4.62 2.94 5.48-.02-2.94 4.62.02 5.47-4.62-2.94-5.48.02zm27.51-124.59-.72-5.44-3.55-4.18 5.44-.73 4.19-3.54.72 5.44 3.54 4.18-5.43.73-4.19 3.54z"/><path style="stroke-width:1.94px;fill:#d9b776;stroke:#161515;stroke-miterlimit:13.97" d="m1431.1 279.59 3.22 3.4 4.55 1.13-3.41 3.21-1.12 4.55-3.22-3.4-4.55-1.13 3.4-3.22 1.13-4.54z"/><path style="stroke-width:2.04px;fill:#d9b776;stroke:#161515;stroke-miterlimit:13.97" d="m1457.39 241.42-4.1-2.73-4.92-.09 2.73-4.09.08-4.92 4.1 2.73 4.92.08-2.73 4.1-.08 4.92z"/><path style="stroke-width:2.02px;fill:#d9b776;stroke:#161515;stroke-miterlimit:13.97" d="m1445.67 765.98 1.14 4.74 3.51 3.38-4.74 1.14-3.38 3.51-1.14-4.74-3.51-3.38 4.74-1.14 3.38-3.51z"/><path style="stroke-width:2.28px;fill:#d9b776;stroke:#161515;stroke-miterlimit:13.97" d="m1465.26 429.36 5.05 2.18 5.43-.89-2.18 5.05.88 5.43-5.05-2.18-5.43.88 2.19-5.05-.89-5.42z"/><path style="stroke-width:2.11px;fill:#d9b776;stroke:#161515;stroke-miterlimit:13.97" d="m1476.46 598.53-.78 5.02 2.05 4.66-5.02-.78-4.66 2.06.78-5.03-2.05-4.66 5.02.78 4.66-2.05z"/><path style="stroke-width:2.29px;fill:#d9b776;stroke:#161515;stroke-miterlimit:13.97" d="m1497.62 464.07-5.29-1.59-5.31 1.51 1.59-5.29-1.51-5.31 5.29 1.59 5.32-1.51-1.6 5.29 1.51 5.31z"/><path style="stroke-width:2.12px;fill:#d9b776;stroke:#161515;stroke-miterlimit:13.97" d="m1508.3 636.65 1.98 4.71 4.21 2.89-4.71 1.99-2.9 4.21-1.98-4.71-4.21-2.9 4.71-1.98 2.9-4.21z"/><path style="stroke-width:2.03px;fill:#d9b776;stroke:#161515;stroke-miterlimit:13.97" d="m1528.39 336.19 3.4 3.54 4.77 1.13-3.53 3.41-1.13 4.77-3.41-3.53-4.77-1.14 3.53-3.4 1.14-4.78z"/><path style="stroke-width:2.13px;fill:#d9b776;stroke:#161515;stroke-miterlimit:13.97" d="m1534.36 84.66 4.89-1.56 3.28-3.95 1.56 4.89 3.95 3.28-4.89 1.56-3.28 3.95-1.56-4.89-3.95-3.28z"/><path style="stroke-width:2.18px;fill:#d9b776;stroke:#161515;stroke-miterlimit:13.97" d="m1561.74 171.07.89-5.2-2.05-4.85 5.19.89 4.85-2.05-.89 5.19 2.05 4.85-5.19-.89-4.85 2.06z"/><path style="stroke-width:2.03px;fill:#d9b776;stroke:#161515;stroke-miterlimit:13.97" d="m1580.19 717.15.69 4.84 3.19 3.71-4.84.69-3.71 3.19-.68-4.84-3.2-3.71 4.85-.69 3.7-3.19z"/><path style="stroke-width:2px;fill:#d9b776;stroke:#161515;stroke-miterlimit:13.97" d="m1591.76 286.19-3.74-3.04-4.78-.55 3.04-3.73.55-4.79 3.73 3.04 4.78.55-3.04 3.73-.54 4.79zm-4.28-187.15-3.63-3.19-4.77-.73 3.19-3.63.72-4.78 3.64 3.19 4.77.73-3.19 3.63-.73 4.78z"/><path style="stroke-width:2.3px;fill:#d9b776;stroke:#161515;stroke-miterlimit:13.97" d="m1594.42 183.59 1.64-5.29-1.47-5.34 5.29 1.64 5.34-1.47-1.64 5.29 1.47 5.34-5.29-1.64-5.34 1.47z"/><path style="stroke-width:2.05px;fill:#d9b776;stroke:#161515;stroke-miterlimit:13.97" d="m1627.95 599.59 4.56 1.92 4.86-.85-1.91 4.55.84 4.87-4.55-1.91-4.87.84 1.92-4.55-.85-4.87z"/><path style="stroke-width:1.99px;fill:#d9b776;stroke:#161515;stroke-miterlimit:13.97" d="m1635.71 222.41 4.72.9 4.47-1.79-.91 4.73 1.8 4.46-4.73-.9-4.46 1.79.9-4.72-1.79-4.47z"/><path style="stroke-width:2.27px;fill:#d9b776;stroke:#161515;stroke-miterlimit:13.97" d="m1683.92 614.37 5.45-.59 4.27-3.43.58 5.44 3.44 4.27-5.45.59-4.27 3.44-.58-5.45-3.44-4.27z"/><path style="stroke-width:2.25px;fill:#d9b776;stroke:#161515;stroke-miterlimit:13.97" d="m1730.81 775.96-4.82 2.48-2.73 4.69-2.48-4.82-4.69-2.72 4.82-2.49 2.73-4.69 2.48 4.83 4.69 2.72z"/><path style="stroke-width:1.99px;fill:#d9b776;stroke:#161515;stroke-miterlimit:13.97" d="m1655.34 159.02 4.07-2.51 2.08-4.32 2.52 4.08 4.31 2.08-4.08 2.51-2.07 4.32-2.52-4.08-4.31-2.08z"/><path style="stroke-width:2.02px;fill:#d9b776;stroke:#161515;stroke-miterlimit:13.97" d="m1678.35 202.01 3.73 3.12 4.83.62-3.12 3.74-.62 4.83-3.73-3.13-4.84-.61 3.13-3.74.62-4.83z"/><path style="stroke-width:2.02px;fill:#d9b776;stroke:#161515;stroke-miterlimit:13.97" d="m1674.91 196.35 3.78 3.09 4.84.57-3.09 3.77-.57 4.85-3.77-3.1-4.85-.56 3.1-3.78.56-4.84z"/><path style="stroke-width:1.99px;fill:#d9b776;stroke:#161515;stroke-miterlimit:13.97" d="m1737.81 413.33 1.76 4.46 3.89 2.8-4.45 1.77-2.8 3.89-1.77-4.46-3.89-2.8 4.46-1.76 2.8-3.9z"/><path style="stroke-width:2.17px;fill:#d9b776;stroke:#161515;stroke-miterlimit:13.97" d="m1659.77 23.38 5.22.25 4.54-2.62-.24 5.23 2.61 4.53-5.23-.24-4.53 2.61.24-5.23-2.61-4.53z"/><path style="stroke-width:2.28px;fill:#d9b776;stroke:#161515;stroke-miterlimit:13.97" d="m1847.98 644.13 3.21 4.46 5.11 2.03-4.46 3.21-2.03 5.11-3.21-4.46-5.1-2.03 4.46-3.21 2.02-5.11z"/><path style="stroke-width:2.29px;fill:#d9b776;stroke:#161515;stroke-miterlimit:13.97" d="m1758.59 345.33-5.48-.58-4.93 2.46.59-5.48-2.47-4.92 5.48.58 4.92-2.47-.58 5.48 2.47 4.93z"/><path style="stroke-width:1.96px;fill:#d9b776;stroke:#161515;stroke-miterlimit:13.97" d="m1722.25 235.6-4.69.68-3.57 3.1-.68-4.68-3.1-3.58 4.68-.68 3.58-3.1.68 4.69 3.1 3.57z"/><path style="stroke-width:1.97px;fill:#d9b776;stroke:#161515;stroke-miterlimit:13.97" d="m1465 112.37 4.32 1.97 4.71-.68-1.97 4.33.68 4.7-4.33-1.96-4.7.67 1.96-4.32-.67-4.71z"/><path style="stroke-width:2.07px;fill:#d9b776;stroke:#161515;stroke-miterlimit:13.97" d="m1821.59 306.21 2.8-4.14.12-4.99 4.14 2.79 4.99.13-2.8 4.13-.12 5-4.14-2.8-4.99-.12z"/><path style="stroke-width:1.97px;fill:#d9b776;stroke:#161515;stroke-miterlimit:13.97" d="m1739.66 263.13 4.75-.15 3.93-2.68.14 4.75 2.69 3.93-4.76.14-3.92 2.69-.14-4.76-2.69-3.92z"/><path style="stroke-width:2.27px;fill:#d9b776;stroke:#161515;stroke-miterlimit:13.97" d="m1821.69 257 .07 5.46 3 4.56-5.46.06-4.57 3.01-.06-5.47-3-4.56 5.46-.06 4.56-3z"/><path style="stroke-width:2.28px;fill:#d9b776;stroke:#161515;stroke-miterlimit:13.97" d="m1806.11 221.34-5.23-1.68-5.31 1.42 1.67-5.23-1.41-5.31 5.23 1.67 5.31-1.42-1.67 5.24 1.41 5.31z"/><path style="stroke-width:2.11px;fill:#d9b776;stroke:#161515;stroke-miterlimit:13.97" d="m1467.95 426.42-2.88-4.2-4.7-1.98 4.2-2.89 1.98-4.7 2.89 4.21 4.7 1.98-4.2 2.88-1.99 4.7z"/><path style="stroke-width:1.98px;fill:#d9b776;stroke:#161515;stroke-miterlimit:13.97" d="m1426.02 427.67 2.41 4.11 4.24 2.17-4.11 2.4-2.16 4.25-2.41-4.11-4.25-2.17 4.12-2.4 2.16-4.25z"/><path style="stroke-width:2.09px;fill:#d9b776;stroke:#161515;stroke-miterlimit:13.97" d="m1709.89 229.23 2.9 4.11 4.66 1.9-4.11 2.9-1.9 4.66-2.9-4.11-4.66-1.9 4.11-2.9 1.9-4.66z"/><path style="stroke-width:2.28px;fill:#d9b776;stroke:#161515;stroke-miterlimit:13.97" d="m1918.25 48.44-5.13-1.96-5.38 1.11 1.96-5.13-1.12-5.38 5.14 1.96 5.38-1.12-1.96 5.14 1.11 5.38z"/><path style="stroke-width:2.1px;fill:#d9b776;stroke:#161515;stroke-miterlimit:13.97" d="m1844.19 70.97-2.15 4.59.67 5.03-4.59-2.15-5.03.67 2.15-4.59-.67-5.03 4.59 2.15 5.03-.67z"/><path style="stroke-width:2.3px;fill:#d9b776;stroke:#161515;stroke-miterlimit:13.97" d="m1419.3 484.26 2.9-4.71-.09-5.54 4.71 2.91 5.53-.1-2.9 4.71.1 5.54-4.71-2.91-5.54.1z"/><path style="stroke-width:2.22px;fill:#d9b776;stroke:#161515;stroke-miterlimit:13.97" d="m1581.6 354.99 4.63 2.68 5.35-.24-2.68 4.63.24 5.34-4.63-2.68-5.34.24 2.68-4.63-.25-5.34z"/><path style="stroke-width:2.24px;fill:#d9b776;stroke:#161515;stroke-miterlimit:13.97" d="m1554.34 381.8.66 5.37 3.45 4.17-5.37.66-4.18 3.45-.65-5.37-3.45-4.17 5.37-.66 4.17-3.45z"/><path style="stroke-width:2.09px;fill:#d9b776;stroke:#161515;stroke-miterlimit:13.97" d="m1719.1 85.6 5 .7 4.58-2.12-.7 5 2.12 4.58-5-.69-4.58 2.11.69-5-2.11-4.58z"/><path style="stroke-width:2.06px;fill:#d9b776;stroke:#161515;stroke-miterlimit:13.97" d="m1481.88 439.15-4.36-2.38-4.96.35 2.38-4.37-.35-4.95 4.36 2.38 4.96-.35-2.38 4.36.35 4.96z"/><path style="stroke-width:2.22px;fill:#d9b776;stroke:#161515;stroke-miterlimit:13.97" d="m1583.01 356.73.87 5.28 3.58 3.97-5.28.87-3.97 3.58-.87-5.28-3.58-3.97 5.27-.87 3.98-3.58z"/><path style="stroke-width:2px;fill:#d9b776;stroke:#161515;stroke-miterlimit:13.97" d="m1521.85 464.45 2.1-4.35-.58-4.79 4.35 2.09 4.79-.58-2.1 4.36.58 4.79-4.35-2.1-4.79.58z"/><path style="stroke-width:2.1px;fill:#d9b776;stroke:#161515;stroke-miterlimit:13.97" d="m1699.49 9.8 2.97 4.11 4.71 1.86-4.11 2.96-1.86 4.72-2.97-4.11-4.71-1.87 4.11-2.96 1.86-4.71z"/><path style="stroke-width:2.04px;fill:#d9b776;stroke:#161515;stroke-miterlimit:13.97" d="m1578.25 191.08 3.19-3.73.69-4.87 3.73 3.2 4.86.68-3.2 3.73-.68 4.87-3.73-3.2-4.86-.68z"/><path style="stroke-width:2.17px;fill:#d9b776;stroke:#161515;stroke-miterlimit:13.97" d="m1487.77 533.49 3.89-3.5 1.38-5.04 3.5 3.89 5.04 1.38-3.89 3.5-1.38 5.04-3.5-3.89-5.04-1.38z"/><path style="stroke-width:2.21px;fill:#d9b776;stroke:#161515;stroke-miterlimit:13.97" d="m1519.13 387.76-3.4-4.1-5.08-1.62 4.11-3.4 1.62-5.08 3.4 4.11 5.08 1.62-4.11 3.4-1.62 5.07z"/><path style="stroke-width:2.04px;fill:#d9b776;stroke:#161515;stroke-miterlimit:13.97" d="m1512.77 418.4-4.3 2.38-2.34 4.32-2.38-4.3-4.33-2.34 4.31-2.38 2.34-4.33 2.38 4.31 4.32 2.34z"/><path style="stroke-width:2.09px;fill:#d9b776;stroke:#161515;stroke-miterlimit:13.97" d="m1534.46 399.25-.42 5.03 2.35 4.46-5.03-.42-4.46 2.36.42-5.03-2.36-4.46 5.03.42 4.47-2.36z"/><path style="stroke-width:2.07px;fill:#d9b776;stroke:#161515;stroke-miterlimit:13.97" d="m1510.26 162.25 3.96 3.05 4.98.43-3.04 3.96-.43 4.98-3.96-3.04-4.98-.43 3.04-3.96.43-4.99z"/><path style="stroke-width:2.17px;fill:#d9b776;stroke:#161515;stroke-miterlimit:13.97" d="m1514.16 512.76-5.19-.6-4.69 2.3.6-5.19-2.3-4.69 5.19.6 4.69-2.3-.59 5.19 2.29 4.69z"/><path style="stroke-width:1.98px;fill:#d9b776;stroke:#161515;stroke-miterlimit:13.97" d="m1476.34 167.62-.59-4.74-3.06-3.66 4.73-.59 3.66-3.06.6 4.73 3.05 3.66-4.72.6-3.67 3.06z"/><path style="stroke-width:2.08px;fill:#d9b776;stroke:#161515;stroke-miterlimit:13.97" d="m1475.15 182.94 4.17 2.8 5.03.11-2.81 4.18-.11 5.02-4.17-2.8-5.03-.11 2.81-4.17.11-5.03zm-32.95 51.76-4.98.69-3.81 3.26-.69-4.97-3.26-3.82 4.97-.69 3.82-3.26.68 4.97 3.27 3.82z"/><path style="stroke-width:2.18px;fill:#d9b776;stroke:#161515;stroke-miterlimit:13.97" d="m1448.91 327 .42-5.24-2.48-4.63 5.24.42 4.64-2.48-.42 5.24 2.48 4.64-5.24-.42-4.64 2.47z"/><path style="stroke-width:2.09px;fill:#d9b776;stroke:#161515;stroke-miterlimit:13.97" d="m1351.01 20.27 3.92-3.17 1.6-4.78 3.16 3.93 4.77 1.59-3.92 3.16-1.59 4.78-3.16-3.92-4.78-1.59z"/><path style="stroke-width:2.16px;fill:#d9b776;stroke:#161515;stroke-miterlimit:13.97" d="m1457.41 528.47 3.3 4.03 4.96 1.62-4.03 3.3-1.62 4.96-3.3-4.04-4.95-1.61 4.03-3.31 1.61-4.95z"/><path style="stroke-width:2.3px;fill:#d9b776;stroke:#161515;stroke-miterlimit:13.97" d="m1285.8 19.02 1.89-5.21-1.22-5.41 5.21 1.9 5.4-1.22-1.89 5.21 1.22 5.4-5.21-1.89-5.4 1.22z"/><path style="stroke-width:2.15px;fill:#d9b776;stroke:#161515;stroke-miterlimit:13.97" d="m1322.46 151.26-5.11-.88-4.77 2.01.88-5.11-2.01-4.77 5.11.88 4.77-2.01-.88 5.11 2.01 4.77z"/><path style="stroke-width:1.95px;fill:#d9b776;stroke:#161515;stroke-miterlimit:13.97" d="m1332.91 222.05.29 4.7 2.77 3.8-4.7.28-3.8 2.77-.29-4.69-2.77-3.81 4.7-.28 3.8-2.77z"/><path style="stroke-width:2.01px;fill:#d9b776;stroke:#161515;stroke-miterlimit:13.97" d="m1377.73 401.48 4.68-1.28 3.25-3.59 1.28 4.68 3.59 3.26-4.68 1.27-3.25 3.59-1.28-4.68-3.59-3.25z"/><path style="stroke-width:2.23px;fill:#d9b776;stroke:#161515;stroke-miterlimit:13.97" d="m1344.45 342.62-.71-5.35-3.47-4.11 5.34-.71 4.11-3.47.71 5.34 3.48 4.11-5.34.71-4.12 3.48z"/><path style="stroke-width:2.22px;fill:#d9b776;stroke:#161515;stroke-miterlimit:13.97" d="m1231.31 17.49-3.93 3.62-1.35 5.18-3.63-3.93-5.18-1.35 3.94-3.63 1.35-5.18 3.63 3.93 5.17 1.36z"/><path style="stroke-width:2.12px;fill:#d9b776;stroke:#161515;stroke-miterlimit:13.97" d="m1356.98 410.79-2.45 4.5.37 5.1-4.5-2.44-5.11.36 2.45-4.49-.37-5.11 4.5 2.45 5.11-.37z"/><path style="stroke-width:2.15px;fill:#d9b776;stroke:#161515;stroke-miterlimit:13.97" d="m1193.35 92.37-5.19.17-4.28 2.95-.17-5.19-2.95-4.28 5.19-.18 4.28-2.94.17 5.19 2.95 4.28z"/><path style="stroke-width:2.17px;fill:#d9b776;stroke:#161515;stroke-miterlimit:13.97" d="m1346.85 480.24-4.82-2.04-5.15.88 2.04-4.81-.88-5.15 4.81 2.03 5.16-.88-2.04 4.82.88 5.15z"/><path style="stroke-width:2.08px;fill:#d9b776;stroke:#161515;stroke-miterlimit:13.97" d="m1320.97 385.89 1.87 4.65 4.09 2.9-4.65 1.88-2.91 4.08-1.87-4.65-4.09-2.9 4.65-1.88 2.91-4.08z"/><path style="stroke-width:2.09px;fill:#d9b776;stroke:#161515;stroke-miterlimit:13.97" d="m1039.33 20.95 1.43-4.82-1.4-4.83 4.82 1.43 4.83-1.4-1.43 4.82 1.4 4.83-4.82-1.43-4.83 1.4z"/><path style="stroke-width:2.19px;fill:#d9b776;stroke:#161515;stroke-miterlimit:13.97" d="m1124.94 160.6-4.02-3.45-5.24-.74 3.45-4.01.74-5.24 4.01 3.45 5.24.73-3.45 4.02-.73 5.24z"/><path style="stroke-width:2.15px;fill:#d9b776;stroke:#161515;stroke-miterlimit:13.97" d="m1372.72 434.58 1.23 5.04 3.75 3.58-5.03 1.23-3.58 3.75-1.23-5.04-3.75-3.58 5.03-1.22 3.58-3.76z"/><path style="stroke-width:2.24px;fill:#d9b776;stroke:#161515;stroke-miterlimit:13.97" d="m1054.24 192.15-2.1-4.97-4.44-3.05 4.96-2.1 3.05-4.44 2.1 4.96 4.45 3.05-4.97 2.1-3.05 4.45z"/><path style="stroke-width:2.01px;fill:#d9b776;stroke:#161515;stroke-miterlimit:13.97" d="m976.81 288.1 3.23-3.63.75-4.79 3.63 3.22 4.8.76-3.23 3.63-.75 4.79-3.63-3.22-4.8-.76z"/><path style="stroke-width:2.02px;fill:#d9b776;stroke:#161515;stroke-miterlimit:13.97" d="m958.41 468.62 2.77 3.99 4.49 1.86-3.99 2.78-1.86 4.48-2.78-3.98-4.49-1.87 3.99-2.77 1.87-4.49z"/><path style="stroke-width:1.98px;fill:#d9b776;stroke:#161515;stroke-miterlimit:13.97" d="m1213.4 8.03-2.41-4.13-4.24-2.17 4.12-2.41 2.18-4.24 2.4 4.12 4.25 2.18-4.13 2.4-2.17 4.25z"/><path style="stroke-width:2.32px;fill:#d9b776;stroke:#161515;stroke-miterlimit:13.97" d="m1052.98 507.81-4.64-3.11-5.58-.11 3.1-4.65.11-5.58 4.65 3.11 5.58.11-3.1 4.64-.12 5.59z"/><path style="stroke-width:1.97px;fill:#d9b776;stroke:#161515;stroke-miterlimit:13.97" d="m1076.69 617.86-.78 4.68 1.87 4.37-4.69-.78-4.37 1.87.79-4.68-1.88-4.37 4.69.78 4.37-1.87z"/><path style="stroke-width:1.94px;fill:#d9b776;stroke:#161515;stroke-miterlimit:13.97" d="m1125.59 421.07-.79-4.61-3.15-3.46 4.62-.79 3.46-3.14.79 4.61 3.14 3.46-4.61.79-3.46 3.14z"/><path style="stroke-width:2.25px;fill:#d9b776;stroke:#161515;stroke-miterlimit:13.97" d="m1229.51 22.23 4.68 2.75 5.43-.19-2.76 4.67.2 5.43-4.68-2.76-5.43.2 2.76-4.68-.2-5.42z"/><path style="stroke-width:2.21px;fill:#d9b776;stroke:#161515;stroke-miterlimit:13.97" d="m1136.1 702.9 1.6 5.08 4.1 3.41-5.08 1.61-3.41 4.09-1.61-5.08-4.09-3.41 5.08-1.61 3.41-4.09z"/><path style="stroke-width:1.96px;fill:#d9b776;stroke:#161515;stroke-miterlimit:13.97" d="m1180.25 546.73.42-4.7-2.18-4.18 4.7.42 4.18-2.18-.42 4.7 2.18 4.18-4.69-.42-4.19 2.18z"/><path style="stroke-width:2.08px;fill:#d9b776;stroke:#161515;stroke-miterlimit:13.97" d="m1253.86 31.47 3.85 3.23 4.98.64-3.23 3.85-.64 4.99-3.85-3.23-4.99-.65 3.23-3.85.65-4.98z"/><path style="stroke-width:2.11px;fill:#d9b776;stroke:#161515;stroke-miterlimit:13.97" d="m1231.44 343.92 4.11-3.02 1.83-4.75 3.02 4.1 4.76 1.83-4.11 3.02-1.83 4.76-3.02-4.11-4.76-1.83z"/><path style="stroke-width:2.19px;fill:#d9b776;stroke:#161515;stroke-miterlimit:13.97" d="m1238.59 426.29.14-5.29-2.73-4.52 5.28.14 4.52-2.74-.14 5.29 2.74 4.52-5.28-.14-4.53 2.74z"/><path style="stroke-width:2.28px;fill:#d9b776;stroke:#161515;stroke-miterlimit:13.97" d="m1256.99 592.59-5.47-.59-4.93 2.45.6-5.47-2.46-4.93 5.47.59 4.93-2.45-.59 5.47 2.45 4.93z"/><path style="stroke-width:2.1px;fill:#d9b776;stroke:#161515;stroke-miterlimit:13.97" d="m1308.07 287-.48 5.05 2.31 4.51-5.05-.49-4.51 2.31.49-5.04-2.31-4.52 5.04.49 4.51-2.31z"/><path style="stroke-width:1.96px;fill:#d9b776;stroke:#161515;stroke-miterlimit:13.97" d="m1348.01 7.36 2.87 3.76 4.45 1.62-3.76 2.87-1.62 4.45-2.87-3.76-4.45-1.63 3.76-2.87 1.62-4.44z"/><path style="stroke-width:2.05px;fill:#d9b776;stroke:#161515;stroke-miterlimit:13.97" d="m1367.14 5.05 4.57 1.88 4.87-.89-1.88 4.58.89 4.87-4.58-1.88-4.87.88 1.88-4.57-.88-4.87z"/><path style="stroke-width:2.16px;fill:#d9b776;stroke:#161515;stroke-miterlimit:13.97" d="m1364.39 455.64-2.16-4.73-4.38-2.82 4.73-2.17 2.82-4.38 2.17 4.74 4.38 2.82-4.74 2.16-2.82 4.38z"/><path style="stroke-width:1.94px;fill:#d9b776;stroke:#161515;stroke-miterlimit:13.97" d="m1388.16 368.68-2.86 3.7-.42 4.66-3.7-2.86-4.65-.42 2.86-3.7.41-4.66 3.7 2.87 4.66.41z"/><path style="stroke-width:2.16px;fill:#d9b776;stroke:#161515;stroke-miterlimit:13.97" d="m1389.4 358.98.06-5.2-2.76-4.41 5.2.06 4.42-2.76-.06 5.21 2.75 4.41-5.2-.06-4.41 2.75z"/><path style="stroke-width:2.23px;fill:#d9b776;stroke:#161515;stroke-miterlimit:13.97" d="m1399.78 468.33-.72-5.32-3.47-4.09 5.31-.72 4.1-3.47.71 5.32 3.48 4.09-5.32.72-4.09 3.47z"/><path style="stroke-width:2.02px;fill:#d9b776;stroke:#161515;stroke-miterlimit:13.97" d="m1423.53 533.98-3.21 3.66-.73 4.81-3.66-3.21-4.8-.73 3.21-3.66.73-4.81 3.65 3.21 4.81.73z"/><path style="stroke-width:1.95px;fill:#d9b776;stroke:#161515;stroke-miterlimit:13.97" d="m1440.4 724.36-3.19-3.44-4.54-1.17 3.44-3.19 1.18-4.54 3.18 3.44 4.55 1.17-3.44 3.19-1.18 4.54z"/><path style="stroke-width:2.08px;fill:#d9b776;stroke:#161515;stroke-miterlimit:13.97" d="m1464.18 262.68-2.89 4.08-.23 5-4.09-2.9-4.99-.23 2.89-4.08.24-5 4.08 2.89 4.99.24z"/><path style="stroke-width:2.28px;fill:#d9b776;stroke:#161515;stroke-miterlimit:13.97" d="m1471.33 427.95.86 5.44 3.66 4.12-5.44.86-4.11 3.66-.86-5.44-3.66-4.12 5.43-.86 4.12-3.66z"/><path style="stroke-width:2.22px;fill:#d9b776;stroke:#161515;stroke-miterlimit:13.97" d="m1480.43 219.71 4.29 3.19 5.33.37-3.19 4.29-.37 5.33-4.29-3.19-5.33-.37 3.19-4.29.37-5.33z"/><path style="stroke-width:2.24px;fill:#d9b776;stroke:#161515;stroke-miterlimit:13.97" d="m1490.71 674.56-.06 5.39 2.87 4.57-5.39-.05-4.57 2.87.05-5.4-2.87-4.57 5.4.05 4.57-2.86z"/><path style="stroke-width:2.27px;fill:#d9b776;stroke:#161515;stroke-miterlimit:13.97" d="m1526.63 552.9-4.89-2.46-5.44.56 2.46-4.89-.56-5.45 4.89 2.47 5.44-.56-2.46 4.89.56 5.44z"/><path style="stroke-width:1.96px;fill:#d9b776;stroke:#161515;stroke-miterlimit:13.97" d="m1540.88 525.06 4.39-1.74 2.76-3.83 1.74 4.39 3.84 2.76-4.4 1.74-2.76 3.84-1.74-4.4-3.83-2.76z"/><path style="stroke-width:2.29px;fill:#d9b776;stroke:#161515;stroke-miterlimit:13.97" d="m1559.71 138.94 2.56 4.9 4.79 2.75-4.9 2.56-2.76 4.8-2.55-4.91-4.8-2.75 4.91-2.56 2.75-4.79z"/><path style="stroke-width:2.04px;fill:#d9b776;stroke:#161515;stroke-miterlimit:13.97" d="m1577.82 17.32 4.46 2.07 4.88-.67-2.07 4.47.66 4.87-4.46-2.07-4.87.67 2.06-4.46-.66-4.88z"/><path style="stroke-width:2.27px;fill:#d9b776;stroke:#161515;stroke-miterlimit:13.97" d="m1598.85 236.5-5.18-1.79-5.33 1.28 1.79-5.18-1.29-5.33 5.19 1.8 5.32-1.29-1.79 5.18 1.29 5.33z"/><path style="stroke-width:1.99px;fill:#d9b776;stroke:#161515;stroke-miterlimit:13.97" d="m1611.98 314.19-4.62 1.36-3.15 3.63-1.36-4.62-3.63-3.15 4.61-1.35 3.16-3.64 1.35 4.62 3.64 3.15z"/><path style="stroke-width:2.13px;fill:#d9b776;stroke:#161515;stroke-miterlimit:13.97" d="m1621.89 637.26-2.92-4.23-4.75-1.98 4.23-2.93 1.99-4.74 2.92 4.23 4.75 1.99-4.23 2.92-1.99 4.74z"/><path style="stroke-width:2.04px;fill:#d9b776;stroke:#161515;stroke-miterlimit:13.97" d="m1650.06 675.03-4.29-2.39-4.91.31 2.39-4.3-.31-4.9 4.3 2.39 4.9-.31-2.38 4.3.3 4.9z"/><path style="stroke-width:2.29px;fill:#d9b776;stroke:#161515;stroke-miterlimit:13.97" d="m1652.2 563.33 4.32-3.43 1.8-5.21 3.42 4.32 5.21 1.79-4.32 3.42-1.79 5.22-3.42-4.32-5.22-1.79z"/><path style="stroke-width:1.98px;fill:#d9b776;stroke:#161515;stroke-miterlimit:13.97" d="m1664.48 521.13 1.43-4.56-1.25-4.62 4.56 1.44 4.61-1.26-1.43 4.56 1.25 4.61-4.56-1.43-4.61 1.26z"/><path style="stroke-width:2.17px;fill:#d9b776;stroke:#161515;stroke-miterlimit:13.97" d="m1671.78 63.68 2.81-4.42-.02-5.23 4.41 2.81 5.24-.02-2.81 4.41.02 5.24-4.42-2.81-5.23.02z"/><path style="stroke-width:2.25px;fill:#d9b776;stroke:#161515;stroke-miterlimit:13.97" d="m1687.78 710.51 1.9-5.08-1.14-5.3 5.08 1.9 5.31-1.14-1.9 5.08 1.13 5.3-5.08-1.9-5.3 1.14z"/></g></svg>