<svg xmlns="http://www.w3.org/2000/svg" width="3000" height="1536"><defs><clipPath id="a"><path class="a" d="M3000 1536H0V0h3000z"/></clipPath><clipPath id="d"><path class="a" d="M-2120 0h1920v1920h-1920z"/></clipPath><pattern id="b" width="166.82" height="166.82" patternTransform="translate(-63.66 213.94) scale(.75)" patternUnits="userSpaceOnUse"><path class="a" d="M0 0h166.82v166.82H0z"/><path d="M5.54 0a36.2 36.2 0 0 0 16.2 17.54C30.51 22 35.06 29.93 37.33 34.3c2.53 4.87 11.79 12.38 18.42 15.49S71 61.87 72.51 66.55 84.2 81 89.27 83.7s14.42 11.69 16.37 16 9 12.48 16.76 16.76 14.81 12.09 16.76 16.76 9.74 13.65 16.76 16.76c3.76 1.68 7.67 5 10.9 8.7M23.66 0a36.25 36.25 0 0 0 16.2 17.54C48.63 22 53.18 29.93 55.45 34.3 58 39.17 67.24 46.68 73.87 49.79s15.2 12.08 16.76 16.76S102.32 81 107.39 83.7s14.42 11.69 16.37 16 9 12.48 16.76 16.76 14.81 12.09 16.76 16.76c1.28 3.08 5.09 8 9.54 11.91m0-23.15a44.05 44.05 0 0 0-7.73-5.52c-7.79-4.28-14.81-12.47-16.75-16.76S131 86.43 126 83.7s-15.24-12.47-16.8-17.15-10.13-13.64-16.76-16.76S76.56 39.17 74 34.3c-2.25-4.37-6.79-12.3-15.56-16.76A36.15 36.15 0 0 1 42.24 0m18.57 0A36.2 36.2 0 0 0 77 17.54C85.78 22 90.33 29.93 92.6 34.3c2.54 4.87 11.79 12.38 18.42 15.49s15.2 12.08 16.76 16.76S139.47 81 144.54 83.7s14.42 11.69 16.37 16a33.67 33.67 0 0 0 5.91 8.09m0-21.58a29.27 29.27 0 0 0-3.7-2.49c-5.07-2.73-15.21-12.47-16.76-17.15s-10.14-13.64-16.77-16.76-15.88-10.64-18.41-15.51c-2.28-4.37-6.82-12.3-15.59-16.76A36.15 36.15 0 0 1 79.39 0m87.43 69.92a14 14 0 0 1-1.89-3.37c-1.56-4.68-10.13-13.64-16.76-16.76s-15.88-10.62-18.42-15.49c-2.27-4.37-6.82-12.28-15.59-16.76A36.25 36.25 0 0 1 98 0m68.86 49.83h-.07c-6.63-3.11-15.88-10.62-18.42-15.49-2.27-4.37-6.82-12.28-15.59-16.76A36.2 36.2 0 0 1 116.54 0m50.28 34.13c-2.3-4.4-6.84-12.16-15.5-16.59A36.22 36.22 0 0 1 135.11 0m31.71 15.74A36.55 36.55 0 0 1 153.69 0M0 158.66a42.08 42.08 0 0 1 5.69 8.16M0 145.11A29.59 29.59 0 0 0 7.22 150c6.52 2.9 13.46 10.76 16.59 16.86m18.58 0c-3.14-6.1-10.08-14-16.59-16.86-7.02-3.16-14.8-12.12-16.8-16.8-1.26-3-4.66-7.39-9-11.24m0-14.19a45.76 45.76 0 0 0 10.85 8.67c7.79 4.29 14.81 12.09 16.76 16.76s9.74 13.65 16.76 16.8c6.52 2.9 13.45 10.76 16.59 16.86m18.58 0c-3.14-6.1-10.08-14-16.59-16.86-7-3.11-14.82-12.08-16.77-16.76s-9-12.47-16.75-16.76S14.62 104 12.67 99.68C11.13 96.31 5 90 0 86.19m0-16.27c3.57 5 10.83 11.61 14.87 13.78 5.07 2.73 14.42 11.69 16.37 16s9 12.48 16.76 16.76 14.81 12.09 16.76 16.76 9.75 13.63 16.76 16.78c6.52 2.9 13.46 10.76 16.6 16.86M0 49.83C6.62 53 15.13 61.89 16.69 66.55S28.38 81 33.45 83.7s14.42 11.69 16.37 16 9 12.48 16.76 16.76 14.81 12.09 16.76 16.76 9.74 13.63 16.76 16.78c6.52 2.9 13.46 10.76 16.59 16.86M0 34.13l.09.17c2.53 4.87 11.79 12.38 18.41 15.49s15.2 12.08 16.76 16.76S47 81 52 83.7s14.42 11.69 16.37 16 9 12.48 16.76 16.76 14.87 12.07 16.78 16.74 9.75 13.65 16.76 16.76c6.52 2.9 13.46 10.76 16.6 16.86M0 15.74a32.42 32.42 0 0 0 3.07 1.8C11.84 22 16.39 29.93 18.66 34.3c2.53 4.87 11.79 12.38 18.42 15.49s15.2 12.09 16.76 16.76S65.53 81 70.6 83.7 85 95.4 87 99.68s9 12.48 16.76 16.76 14.81 12.09 16.76 16.76 9.74 13.64 16.76 16.76c6.52 2.9 13.46 10.76 16.59 16.86M35.59 20.26l-7.37-3.15m-2.75 16.63 7.37 3.16m15.47-5.08L48 39.54m20.17 15.33 8.24 3.68m10.36 17.84L95.28 79m-26 8.76-6.82-2m49.42 17.42 2.12-8.05m23.83 27.38-7.18-5.67m17.42 18.72 6.78 2.58M33.72 1.26l2.42 6.51M52.28 24l6-3.12m6.8 18.76 8.66-.53M35.83 52.9l-6.7-.61M94 66.64l1-8.42m14.79 17.34 3.65 7.5m16.15 21.23 4.13-7m-41.04 1.15L95.56 94m-39-82.6 4.55-3.51m47.28 47.84 7.6 4M64.94 71l8.6 5.27m10.93-37.39 1.06-7m40.54 47 8.77 1.06m14.16 22.7 6.88 1.27m-1.44 14 2.1 7M6 32.92l4.56-3.5m35.09 41.72 1.05-7M81.57 101l2.14 5.61m30.78 30.56-2.11-7M5.94 12.07 14.35 17m98 99.88 6.17 1.81M129.76 135l4.74 6.19m1.16 19.91 2.84-5.19m13.58-3.61 1.83 5.77m-57.63-36.69 4.66-2.94m-50.38-67.3 2.81 7.72M126.42 3.3l7.37 3.16m21.48 29.77.94-9.92m-28.8-2.5 9.48 1.38m10.24-13.75 8.66-.53M109 19.22l3.78 8m40.49 20.89 7 3.8M89 7.23l4.56-3.5m40.24 47 1.05-7m20.36 37.81 1.05 8.06m-70.57-71 8 1.89m37.09 43.23h6.08M60.4 142.55l8.07 2.11m-48.24 4.44-5.75.52m-11-47.87 8.42 2.1m48.79 2.09 4.3-3.09m-52.21 21.66 2.11 9.49m49.91 30 7.49-3.66M46.35 157l-7-4.13m11.81-24.57-4-6.94M29.07 86l3.31 6.15m-9.67-20.77 3.58-4.91M7.39 51.35l.91-5.75m14.82 61.74 2.7-6.38M48 90.09l-2.66-4.82M43.77 109l4.85-4.58m35 35.23L81 144.93m-13.61-17.52-2.31-6.69m-22 24.92 1.18-8.31m56.58 9.95 5.72-2.45M8.8 163.59l2.4-6.31M2.12 81.46l6.16 2.31m2-16.83-5.88 1.4m22.48 55.79 7.56 2.28m51 2.89 2.31-5.19m16.68-84.41 8.07 2.1m-12 119.69 2.31-5.2" style="stroke-width:1.42px;stroke-miterlimit:11.34;stroke:#d9b776;fill:none"/></pattern><pattern id="c" width="184.94" height="184.93" patternTransform="matrix(.92 -.58 1.11 .48 -180.59 215.44)" patternUnits="userSpaceOnUse"><path class="a" d="M0 0h184.94v184.93H0z"/><path d="M127.32 173c7.46.12 19.94 1 24 1.34 5.1.43 14-.42 21.26-.85m-49.73-.49c1-.09 2.59-.1 4.47-.07M134.46 7.4c3.84-.22 8.86-.33 14.12-.38m-24 1.69c1.47-.2 2.77-.41 3.81-.66a42.21 42.21 0 0 1 6.08-.65m-9.89 1.31c-8.74 1.15-23.53 1.47-26.8 1.47M148.58 7h16m5.67 0 5.53.08M164.59 7c2.06 0 4 0 5.67.06m14.67.16h-9.18m-29.51 19c2.56-.05 5.58-.07 8.84 0m-8.84 0c-2.84.06-5.1.14-6.42.14m20.07.05c7.42.37 14 .74 15.11.8m-19.92-1c1.27 0 2.56.08 3.87.14l.94.05m15.11.8h.16c3 .08 6.26.21 9.73.35m-14.3 20.33c-3-.06-7-.06-11.21.16-8.08.42-20.41-.43-25.09 0m50.6-.49c-3.65.14-7 .31-9.74.49 0 0-1.79-.1-4.56-.16m14.3 15.19c-3.27-.07-7.3-.32-10.59-.57 0 0-24.7.85-37.88.42-4.42-.14-9.6-.29-14.73-.38m-23.54.38c3.39-.57 13.37-.57 23.54-.38M66.6 84.85c3-.42 17.33-.47 26.69-1.32s30.41.63 45.29 1c2 .06 4 .16 6.18.29m0 0 2.55.17m0 0c9.65.7 19.84 1.92 24.81 2.54m11.2.59h-5.53m-5.67-.55 2.26.3m3.41.25c-1 0-1.9-.07-2.59-.14l-.81-.11m10.54.27h-1.61m-70.25 11.75c3-.42 12.76-.42 17.43-.85s17.44.43 24.67.85 21.73.85 21.73.85a77.21 77.21 0 0 1 8 0m0 35.38c-3 0-5.44-.06-7.18-.06 0 0-15.35 0-25.13.86s-25.09 1.7-34.44 2.12-14.89-.42-17.44 0m75.48 17 5.52.18m0 0 3.19.14m-12.12-.55a84.23 84.23 0 0 0-11.27-.23c-4.67.43-20.83-1.27-23-.85m37.63 1.31h-1s-.95-.09-2.39-.2m.83 17.21c3.17-.21 7-.39 11.29-.55m-30.19-52.6H162c3 0 12.38-1.28 12.38-1.28a105.41 105.41 0 0 1 10.58.23m-115-110L63 8.68M21.65 7.61c14.64.27 29.94.63 35.3.87 1.82.07 3.87.14 6 .2m15.86.42a85.61 85.61 0 0 1 9.19.65m-18.07-.9c3.09.07 6.16.15 8.93.25M12.3 7.43l9.35.17M0 7.26c3 0 6.46.08 10.21.14m2.12 0H10.2m116.48 18.08c-5.15 0-10.31.74-16.5-.19m-89.63 3.07c-6.91-.21-14.07-.55-20.58-.83m103.41-2.88a33.27 33.27 0 0 1 5.44.41l1.36.23m-89.63 3.07c10.53.31 20.47.31 26.62-.75 12.33-2.13 17-2.55 27.21-2.13 8.09.34 20.72-.93 29-.83M0 47.53c22-.87 56.55-1 64.2.06.68.1 1.39.19 2.14.27m48.89-.27c-2.55-.42-16.16-.42-20.84.43-4.32.79-18.82.84-28-.16m-36 14.86c-1.81.23-4 .46-6.74.61-8.08.42-15.95-.85-18.5-.43a33.07 33.07 0 0 1-5.1.15m84.19-.15c-17.86.85-31.89 1.27-41.25-.42-5.32-1-7.77-.37-12.6.24M50.44 87.3a115.13 115.13 0 0 1-13.68 1.13m-18.7-.34 2.26.09M15.58 88l2.48.08m34.06-1-1.68.26m-13.68 1.09c-3 .08-6 .06-8.71 0m0 0c-2.78-.06-5.38-.16-7.73-.25M0 88.15C4.4 88.1 9.39 88 13.58 88h2m82.19 11.89c-9.54 0-27.34-.78-39.89-.89m0 0a89.6 89.6 0 0 0-12.88.47c-6.8 1.27-11.48 1.7-25.51 1.7-2.26 0-4.38 0-6.37-.06m-3-.07c-3.95-.1-7.31-.23-10.15-.33m13.19.4-3-.07M.84 136.1l4.11.06m58.81 1.37c9.25.24 20.19.38 24.23 1.05m-80.71-2.39H4.95m58.81 1.37-3.61-.1m-52.87-1.27c17.36.26 42.48.81 49.67 1.12l3.2.12M44.62 156.8q1.37-.15 2.55-.36c9.25-1.59 14.2-2.23 20.41-2.27m-23 2.63c-10.75 1.2-29.44.2-44.58-.43m67.61-2.2c2.06 0 4.26 0 6.8.15 10.2.42 27.64-1.7 34.44-.43s12.33.43 17.86.43m-24.87 18.06c1.5 0 3-.06 4.46-.06m-4.46.06a68.58 68.58 0 0 0-9 .65c-4.68.85-21.26.85-30.19-.43-7.48-1.07-40.59-.94-62.65-.13m106.3-.15a68.71 68.71 0 0 1 7.37.28m-40.1-54.36h2.34m67.61-.21c-3.1-.58-5-.64-14.26.55-13.18 1.7-31 1.7-39.12.43a61.92 61.92 0 0 0-6.29-.53m-63.27 1.72c1.19 0 2.28.08 3.23.08A156.85 156.85 0 0 0 44.62 119c4.2-.53 17.47-.89 28.92-.79m75.25.79c-2.43-.39-4-.73-5.3-1m-122.94 2.22C14.92 120 7 119.25 0 118.84m75.91-.58c1.7 0 3.35.07 4.89.12m0 0c1.07 0 2.09.07 3 .12m-76 66.43v-10.8m-4.68 10.8v-10.58m7 10.58v-10.8m2.13 10.8v-11m2.77 11v-11m59.31 11v-9.73m2.34 9.73v-9.31m2.13 9.31v-9.52m2.76 9.52v-9.52m-60 9.52v-11m5.18 11v-11.22m6.94 11.22v-11.22m87.6 11.22V175m8 10v-10.23m2.84 10.16v-10.65M117 184.93v-10.16m-6.45 10.16v-10.58M146 184.93v-10.08m-6.18 10.08v-10.29m-2.93 10.29v-10.5m-2.45 10.5v-11.14m17.94 11.14v-9.65m5 9.65v-9.65m-8.86 9.65v-9.86m-78.66 9.86v-9.73m30.4 9.73v-10.58m2.33 10.58v-10.8m2.13 10.8v-10.8m2.77 10.8v-10.58M56 139.21v14.9m1.87-14.47v14.68m2.42 0v-15.11m-9.73.21v14.69m17-14.26v14.32m0 .15v-.15m-5.11-.63v-14.47m24.45 45.86v-9.52m8.93 9.52v-10.37m74.41 10.37v-9.52m5.53 9.52V175M5.29 156.44v-17.61m5.17 17.4v-17.4M21.6 156v-19.09m-1.87 17.62v-16.77m-2.33 18.47v-17.4m27.22 18v-.07m.8 0v-19.04m-5.27 18.93v-18.72m-6.23 17.94v-16.76M26.48 155v-16.74m-2.63 17.19v-16.77m149.61-.84v17.41m2-17.94v17.52m-3.56-17v17.41m9.92-18v16.77m-2.19-15.92v16.81m-1.92-16.49v16.77m-134.8 1.69v-19.36m124 47.42v-9.1m-71-23v-11.57m8 11.36v-13.27m-12.38 13.27v-11.78m-6.45 11.35v-10.72m35.43 12.21v-13m-2.26 12.76v-12.66m-4.89 12.47v-12.33m-3 12.12v-12.33M108 152.62v-12.34m18.92 13.83v-15.36m5 15.36v-15.29m-8.85 15.07v-12.55M74.8 152.19V139m2.34 13v-12.79M79.27 152v-12.58M82 152.19V139m-11.66 13.4v-13.19m74.41-.67v14.71m5.53-14.63v14.21m-8.93-14.43v15.28m-2.27-15.2v15.41m21-15.35v14.71m5.52-14.63v14.21m-8.93-14.43v15.28m-2.26-15.2v15.41m10.2 31v-8.88M7.84 0v7.24M3.16 0v7.24m7 .16V0m2.13 7.43v.22M12.3 0v7.44M15.07 0v7.24M74.38 0v8.73M76.72 0v9m2.13.21V9.1m0-9.13V9.1M81.61 0v8.73m-60-1.07V7.6m0-7.63V7.6M26.83 0v7.66M41.21 0v7.66M54.53 0v7.88M46.32 0v8.09M52 0v7.88M33.77 0v7.66M61 0v8.51M121.37 0v8.73m8-8.76v6.84M132.21 0v6.32M117 0v8.3M110.59 0v9M146 0v6.39M139.84 0v6.46M136.91 0v6.6m-2.45 1.06V7.4m0-7.43V7.4M152.4 0v6.39m5-6.42v6.49M148.58 0v7M69.92 0v8.85m0 .09v-.09M100.32 0v9.58M102.65 0v9.79M104.78 0v10m2.77-10v9.58M86.92 0v9.36M95.85 0v9.79M170.26 0v7.08m0 0v.09m5.53 0v.07m0-7.27v7.19M57.71 0v7m-16.5 177.9v-11.15m13.32 11.18v-11.82m-8.21 11.82v-11.4m5.68 11.4v-11.61m9 11.61v-10.54m-3.28 10.54v-12.46M166.86 0v7m-2.27-7v7m0 .07V7M6.57 63.88V86.8m-4.67 0V64.09m7-.21V87M11 63.66v23.57m2.8-23.56V86.8m59.32-3.41V65.92m2.34 17.69V66.35m2.12 17.47V66.14m2.77 17.25V66.14m-58-2.47v22.58m5.18-22.8v22.8m14.38-21.82v21.82m11.78-22v21.66M47 64.22v22.45M50.72 64v21.48m-16.25-23v23.77m25.25-21.18v20.07m60.38-3.7V65.71m8-.21v17m2.84-17.5v17m-15.16-1V65.5m-6.45 16.15V65.07M144.76 85v-.1m0 0V65.58m-5.33.64V83m-2.35-17.59v16.76M135 66v17.1m-1.8-18.58v18.79M151.14 66v19m5-19v19m-8.86 0V65.79m0 19.82V85m-78.63-1.4V65.92m30.4 16.36V65.07m2.34 17.43V64.86m2.13 17.85V64.86m2.76 17.42V65.07M54.75 28v17.81m2.51-17.41V46M59 28v18m-9.69-15.85v14.68m17 3V48m0-20.34v20.2m-5.1-20v17.4m24.45 36.81V66.14m8.93 16.36V65.28m74.41-1.1v21.57m5.53-22v24M56.24 64.86v20.49M4 29.55v17.62m5.2-17.62V47m9.49-17.4V47m1.86-19.32v.73m0 18.38V28.36m-4.41 1.19V47m28-16.55v16.16m-5.27-16V46.4m-6.22-16.57V46.6M26.06 29v16.75m-2.19-15.92V46.6M175 47.72V27.18m0-.52v.52m-2.3 20.11V28.57m-2.11 19.36v-.07m0-19.29v19.29M180.55 28v18.73m-2.2.85V28.85m-136.7 1.34v16.42m124 18v21m-71-58.52v20.38m8-21.32v20.13M90.27 26.66v20.6m-6.45-20v19.57m35.43-20.3v20.81m-2.25-.21V26.61m-2.48.06v20.46m-5.45-20.6V46.7m-2.34-.42V27.09m18.92 19.7V27.51m5 19.28v-19.2m-8.86 20V27.17m-48.26-.38v20M75.88 27v19.62M78 27.21v19.41m2.76-19.83v20M69.08 27v19.07m74.41.85V27.31M149 46.49v-19.1m-8.92 20V27.17m-2.27.07v20.31m21-.63V27.31m5.53.08v19.1m-8.93.85V27.17m-2.26 20.38V27.24m-98.4 90.24v-16.84m1.66 16.63v-16.63M59 117.7v-17.06m-9.73 17.83v-17.62m17 16.85v-16.43m-5.1 15.65v-16.43M4 118.85v-16.64m5.18 0v16.42m11.35 1.75v-.16m0-18v18m-2.29-1.59v-15.79m-2.12 15.79v-16.42m28 16.08v-16.21m-5.27 16v-15.79m-6.24 16v-16.78m-6.59 17.88v-17.75m-2.19 18.6v-17.75M175 118.42v-17.15m-2.51 15.67v-14.82m-1.9 16.51v-15.45m9.92-.56v14.81m-2.2.85v-14.81M41.65 118.29v-16.43m52.94 17.29V101.7m8 16.26v-17.19m-12.32 18.17v-17.66m-6.45-.34v17.56m35.43-17.35V119M117 101.22v17.59m-4.89-.21v-17.24m-3 17v-17.21m-2.4 16.85v-16.3m18.92.43v14.38m5-14.31v14.31m-8.86-14.72v17.44m-48.26-.72v-.27m0-17.82v17.82m2.34 0v-17.6M78 100.85v17.45m2.76.21v-.13m0 0v-18m-11.68 17.36v-17.1m74.41 17.41v-16.12m0 16.66v-.54m5.52.12V102m-8.92-.21v15.27m-2.27-15.2v15.41m21 2.31v-17.65m5.53 17.22V102m-8.93 17v-17.21m-2.26 17.44v-17.37m10.2-37v20.82m19.91-21.5v21.57m-3.4-21.15v21m-2.27-20.79v20.87M18.52 64.3v22.58m68 85.57v-17.83m2.27 17.9v-18.05M91 172.66V155m2.77 17.62v-18M82 172.45v-17.62m17 16.85v-16.43m-61.45 15.62v-12.73m4.37 12.52v-12.52m14.39 12.52v-14.47M65 172.4v-18.12m-3.59 18.12v-16.77m-34.93 15.66v-12.51m8.71 12.3v-13.23m-3.61 13.23v-11.87m17.29 11.45v-14.47m27.21 17.06v-18.17m-4.46 18v-17.79m2.76 18v-18.42m52.94 18.26V173m0-17.28V173m8 0v-16.29M123 155.26v17.66m-6.45-.43V155.9m34.37 17.31v-16.89m-1.73 16.47v-16.54m-2.41 16.32v-16.25m-2.07 17v-17.21m-5.27 16.81v-17.24m18.92 17.74v-17.31m5 17.32v-17.25m-9.84 17v-16.43M2.1 171v-13.24m16.65 13.35v-13m-2.27 12.79v-12.69M14 170.9v-12.62m-2.41 13.39v-12.34m-3 12.13v-12.34M6.21 171v-12.31m15.09 12.64v-12.55m85-4.38v17.92m0 .17v-.17m2.34 0V155.6m2.13 16.68v-16.47m2.76 16.68v-17.11m-11.72 17.32v-.32m0-17.76v17.76m74.4-16.33v-.14m0 16.67v-16.53m5.53-.07v.25m0 15.92v-15.92M172.81 173v-17.18m-2.26 17.44v-17.42M85.23 62.19V49.25m2.4 13V49.33M89.7 62.4V49.68m2.77 12.72V49.25m-11.7.22v12.72m17-.76V48.91M36.29 61.59v-13.7m4.37 13.49V48.87m14.39 14.47V47.89m8.71 15.23V47.93m-3.61 15.2V49.3m-34.94-1.75V63m8.72-1.19V47.59m-3.62.41v14.72m0 .06v-.06m17.3-1.34V46.91m27.21 2.81V63m-4.47-13.07v12.85m2.77-13.27V63m52.93-2.08V48.37m8 12.33V49.39m-12.32 13.27v-.14m0-14.58v14.58m-6.45-.28V49.56m35 11.44V49.29m-2.35 11.28V48.93m-2.41 11.43V49m-2.07 12.12V48.79m-5.28 11.92V48.37m18.92 12.84V48.79m5 12.42V48.86M152.29 61V49.43m-134.8-1.55v14.94M15.22 48v14.6M12.74 48v14.6m-2.41-13.53v11.36m-3-12.55v14.3M5 47.46v14.29m15-13.23V63m85-.8V48.06m2.34 14V49.25M109.47 62V49.47m2.77 12.76V49m-11.7 13.41V48.28M175 60.36V48.59m5.53 14.29V48.66m-8.93 12.13V48.45M169.28 61V48.52m-81.21-24V10.58m2.4 14V10.65m2.06 14.05V11m2.77-.42V24.7m-11.69-.21v-13.7m17 .42v12.51m-61.48 3.11V8.23m4.37 18.39V8.23m14.38 17.41V9.21m8.72 15.24V10.23M63 25.45V8.68M28.05 27.25V8.87M36.76 27V7.94M33.15 27V9.3m17.29 17.32V9.21m27.21 16.08V11m-4.46 14V11.25m2.76 14V10.83m52.94 14.34V8.71m8 0v17.23M124.57 8.28v.43m0 16.25V8.71m-6.45 3.15v13.65M152.7 7.94v17.87M150.76 8.3v17.51m-2.41-17.44V25.6m-2.07-17.45v18m0 0v.17M141 7.73v18.21m18.93-17.79v18.23m0 .07v-.07m5-18.16v18.23M155.09 8.75v17.4M3.67 27V7.84m16.65.39v18.84M18.06 8.3v18.56M15.58 8.37v18.49M13.16 9.42v18.21m-3-.22V9.2M7.78 27V8.78m15.09 18.51V8.86m85 1.5v14.17m2.34-12.99v13.75m2.13-13.52V25.3m2.76-14v14.21m-11.72-14.93v14.07m0 .1v-.1m74.41 1V8m5.53 17.22V8m-8.94-.21V26m-2.26-18.12v18.35M85.23 136.81v-15.88m2.06 16.16V121m2.41 16v-15.64M92.47 137v-16.07m-11.7 15.88v-16.64m17 15.87v-12.51m-62.28 12.68v-14.68M40.66 136v-15.45M55.05 136v-16.43m8.71 18v-17.96m0 17.92v.21m-3.61 0v-.31m0-16.46v16.46m-34.94-2.75v-12.51m8.72 13.27v-14.21m-3.62 14.21v-13.83M47.61 136v-14.47m27.21 16.08v-18.17m-4.47 18v-17.79m2.77-.42v18.38m52.93-2.08V123m8 12.34v-15.25m-12.33 17.19v-14.72m-6.45 14.29v-14.63m34.59 12.12v-12m-1.94 12.85v-14.58m-2.4 14.39v-14.3m-2.07 15.07v-15.3m-5.28 14.85v-15.27m18.92 15.78v-14.38m5 14.38v-14.31m-9.83 14.09v-13.52m-134.8 12.4v-14m-2.27 13.74v-13.62m-2.48 13.67v-13.6m-2.41 14.37v-13.32m-3 15.06v-.6m0-15.65v15.65m-2.3.18v-.21m0 0v-16m15 14.55v-13.53m85 15.67v-14.17m2.34 14v-12.81m2.12 12.77v-14.51m2.77 14.72V121.7m-11.7 15.37v-14.18M175 135v-14.73m5.53 14.28v-14.21m-8.93 15.06v-14.29m-2.27 14.51v-14.44m-81.21-37v13.95m2.4-13.85V98.2m1.91-13.7v14.12m2.92-14.4v14.12M83.61 84.42v13.71m17-.77V84.85M39.13 98.51v-9.79m4.37 9.57v-9.57m14.38 10.55V99m0 0V86.76m8.72 11.32V84.85M63 86.21v12.85M28.05 88.43v12.46m0-12.51v.05m8.71 0v10.29M33.15 100.68V88.81m17.29-1.51v11m0-11.52v.53m27.21-2.62v14.24m-4.46-14v13.79M76 84.46v14.47m52.94-.12V86.26m8 11.36V86.31M124.57 98.6V85.84m-6.45 13.31V85.49m35 13.19V87m-2.35 11.5V86.83m-2.2 10.92V86.39m-2.49 11.7V85.75M141 97.62V85.28m18.92 14.81V87.66m5 12.43V87.74m-9.84 11.15V87.32m-151.45 2v11.32m16.69-12.46v12.53m0-13v.45m-2.26-.37v.28m0 0v12.43m-2.48 0V88m0-.13V88m-2.42 13.1v.15m0-12.33v12.18m-3-12.38V101M7.78 88.29v12.34m15.09.29V88.37m85 9.8V84m4.47 1.41v13.53m2.76.21V85m-11.69 13.4V84.21m74.41 15V88.13m0 0v-.67m5.53.08v.63m0 10.64V88.17m-8.94 11.49V87.88m0 0v-.56m-2.26.26v-.19m0 12.48V87.58M.83 135.47v-16" style="stroke-width:1.7px;stroke-miterlimit:11.34;stroke:#d9b776;fill:none"/></pattern><style>.a{fill:none}</style></defs><g style="clip-path:url(#a)"><path d="M3000 514v1022H0V454.88c37.56 14.68 94.94 31.1 162.82 24.53 50.83-4.92 69.55-35.3 136.94-40.94 37-3.11 42.32 3.34 85.6-1.9 62.16-7.53 66.16-22.63 100-18.54 44.75 5.41 48.1 33.05 98.69 40.79 13.42 2.06 18.93 3.45 77.81-6.91 41.18-7.25 84.53-10.58 126.69-16.11 103.28-13.53 112.93-13.93 122.75-14.09 21.51-.35 46.24.45 83.43-2.35 32.1-2.42 43.73-3.67 43.73-3.67 22.28-2.4 28.07-3.85 42-3.87 17.6 0 18.42 2.6 36.8 2.79 10.49.11 22.42-.39 51.34-4 29.23-3.65 47.79-6.89 47.79-6.89 76.16-13.27 114.24-19.91 154.32-21.19 33.57-1.07 61.35 1.42 110 5.8 42.25 3.8 60.62 7.33 94.27 5.27 24.47-1.5 47.15-5.36 64.11-8.24 36.13-6.14 54.2-9.22 62.78-12 6.28-2 13.86-4.88 24.73-4.91 3.6 0 9.87.28 28.54 5.13 14.19 3.69 17.54 5.33 24.22 7.06 17.19 4.45 31.27 2.95 49.85 3 9.5 0 28.64 2.09 66.92 6.26 53.19 5.8 59.45 7.68 114.34 14 38.52 4.41 69 7.32 76.37 8 56.35 5.35 55.87 4 84.88 7.54 42 5.09 79.3 12.28 92.14 14.77 29.5 5.74 37.52 8.32 59.41 10.65 19.66 2.09 36.1 3.85 57.45 3.44 8.54-.16 13.37-.58 21.92.17 13.07 1.14 24.28 4.35 35.21 6 10.15 1.51 16.7 1.12 22.24 1.2 37.61.58 78.54 24.15 132 29.48 25.23 2.52 16.24-2.71 80.82-2.82 44.88-.07 64.19 2.43 76.1 4.38 26.62 4.37 36.93 9.37 61.15 15.74 3.27.86 7.13 1.85 11.76 2.91 28.59 6.57 75.3 10.41 91.7 11.56" style="fill:#161515"/><path d="M819.65 1536c-45.23-26.19-61-48.81-66.71-65.18-2.05-5.9-7-23-20.12-27.53-8.91-3.07-14.26 2.19-20.34-1.39-10.5-6.18-9.27-30.55-4-47.32 10-31.92 38.67-48.86 40.24-49.76 18.71-10.72 34.38-10.12 36-19.06 1.5-8.37-15.32-14.43-13.77-25.41.58-4.08 3.54-8.35 6.35-9.53 17.88-7.5 50.4 101 137.65 148.23 51.57 27.91 106.38 25.78 106.94 23.3.51-2.23-42.31-6.5-91.06-31.77-83-43-137.45-123.2-121.76-151.41 3.69-6.63 9.33-7 14.82-18 11-21.86-2.39-37.17 7.21-47.36 10.62-11.27 34.86-.91 39.38-10.87 2.62-5.78-4.27-12-1.06-15.89 4.31-5.21 17.9 4.5 27.53-2.11 5.14-3.53 3.29-7.69 8.47-10.59 7.92-4.44 15.22 3.58 23.3 0 4.78-2.12 3.59-6.28 10.58-16.94 4.23-6.44 8.59-13.09 11.65-13.77 18.76-4.13 77.9 197 80.47 196.24 1.08-.31-2.49-37.38-20.65-81.62-7.3-17.79-15.62-33.47-11.25-37 3.61-2.91 11.3 6.23 30.84 14.5 10.39 4.4 35.74 15.13 61.14 7.48 10.64-3.21 11-6.54 15.36-5.36 9.86 2.66 13.25 21.07 25.68 100.85 1 6.62 2.4 15.42 3.18 15.35 1.34-.12 1.68-26.68-1.33-55.58-3.9-37.58-10.4-49.68-2.36-59 7.24-8.43 19.27-6.48 38.1-6.88 50.27-1.06 87.07-17.55 86.82-19.06-.63-3.74-239.49 41.62-262.47-12.51-4-9.43-15.7-55.45-23.41-66.9a71.5 71.5 0 0 1-8.36-16.23 35.45 35.45 0 0 1-1.75-5.43c-1.45-7.56 1.92-13.35 10.26-29.94 2.9-5.77 1.76-3.62 5.78-11.65 10.5-21 12.37-23.89 15.9-27.17 1.35-1.25 4.54-3.7 10.93-8.61 2.07-1.59 2.8-2.13 9.24-7 11.65-8.77 7.85-5.94 13.41-10.11 7.22-5.42 9.11-6.79 12.44-9.66 4-3.46 4-3.77 4.49-3.86 11.8-2.08 46.89 148.45 50.84 147.63 1-.2.3-9.75-2.83-28.23-12.33-72.79-35.8-124.42-25.43-130.38.87-.5 3.61-.25 9.1.25a97.24 97.24 0 0 1 20 4.09c18.33 5.46 21.59 8.62 23.2 7.1 5.53-5.26-30.16-45.58-24.36-51.89 4.73-5.13 37.27 16.11 45.22 21.3 80.39 52.49-3.86-.83 43.14 26.4 8.32 4.82 11.25 6.35 12.23 10 3.75 14-29 28.12-25.41 45.53.75 3.69 3.18 7.76 5.82 7.94 4.63.31 6.64-11.5 16.41-26.47 6-9.25 13.31-20.38 24.36-22.24 10.1-1.69 18.58 5.23 19.06 4.24.67-1.41-5.12-6.08-29.44-20.8-53-32.06-64.19-33.34-78.21-50.85-2.84-3.55-24.26-30.28-15.18-45.88 7.72-13.26 33.67-11.89 40.24-11.65a68.93 68.93 0 0 1 28.59 7.42c12.23 6.38 12.33 12.32 32.82 27.52 7.29 5.41 8.57 5.66 10.06 8.48 6.66 12.62-9.5 25.9-4.24 37.58s28.65 13.47 30.18 10.06c1.6-3.57-20.78-12.75-18.9-22.11 1-5.17 9.11-8.55 15.62-8.94 15.08-.91 26.18 13.95 27.1 13 2.51-2.45-56.64-67.76-56.64-67.76-32.28-35.74-41.36-44.58-38-51.83 4.48-9.58 38.8-12.89 68.68-2.17s47 32.33 57.53 45.53c16.27 20.41 24.41 30.62 24.3 44.88-.25 34.17-46.35 56.86-38.35 73 1.67 3.36 6.42 7.92 8.4 7 1.69-.76.71-5.16.71-9.18 0-15.64 14.69-27.72 20.47-32.47 6.48-5.32 15.55-12.77 21.6-9.9s5.58 14.16 5.93 24c1.43 40.59 16.1 69 15.53 69.18s-14.12-29.61-15.53-69.18c-1.2-33.64 7.62-39.47 0-59.3-7-18.3-22.61-34.28-34.2-46.18-5.2-5.34-9.8-9.5-19.62-19.91-20.55-21.8-22-26.38-22.42-29.2-2-14.64 8.18-31.34 21.18-38.12 20.9-10.89 47 9.5 58.24 18 12.19 9.23 36.61 31.23 55.18 90.59 19.79 63.25 15.27 112.4 17.17 112.35s17.52-53.86-4.8-107.35c-15.14-36.29-31.8-76.19-45.32-96.65-1.31-2-5.67-8.44-5.21-16.79.52-9.47 7.23-21.2 13.08-21.56 22.83-1.38 75 167.89 88.84 240.24 1.57 8.22 5.48 30.1 18.35 33.88s31.14-11.93 29.65-15.53c-1-2.41-10.09 2.37-18.36.71-25.12-5.07-20.82-65.32-43.78-137.42-21.39-67.19-52.5-100.84-36-122.35 4.76-6.19 13-8.8 29.48-14 28.37-9 39.5-2.53 74.26-11.55a207.72 207.72 0 0 0 26.35-8.89c59.37-24.18 44.58-42.19 105.75-59.29 34.44-9.63 52-7.53 103.72-23.3 18.37-5.6 18.61-7.94 21.41-7 3.45 1.15 46.34 108.32 11.07 194.49-48.29 118-222 145-220.28 149.11 1.41 3.37 118.49-10.69 184.7-84.29 9.27-10.3 30.76-36.46 44.36-31.15 9.09 3.54 9.62 19.16 11.77 32.66 7.56 47.47 33 49.35 86.53 143.49 18.9 33.25 33.52 63.26 36.53 61.94 2-.88-2.38-15-4.16-20.72a216.91 216.91 0 0 0-23.37-51.28c-45.3-68.52-70.46-91.68-86.33-131.3-15-37.56-13.77-70.84-11.58-127.88 1.14-29.69 6.91-106.62-8.3-129.36-1-1.46-5.59-8-3.31-12.48 2.4-4.68 10.62-3.57 24.06-11.6l1.33-.7c19.89-12.35 19.53-18.5 29.07-26.88 4.47-3.92 7.53-5.32 10.23-7.28 16.89-12.32-3.76-25.07 4.82-48.18 4.37-11.78 11.25-12.54 11.19-22.23-.07-10.65-8.43-19.26-17.29-26.47-36.21-29.51-73.89-30.07-109.82-58.77-8.41-6.71-25.75-20.91-18.82-32.29 1.33-2.18 4.35-5.57 4.94-10.91.92-8.4-5-13.73-2.39-14.5 2.86-.84 9.17 5.57 25.42 11.38 8.82 3.15 9.38 2.13 26.44 6.88 18.34 5.11 29.16 9.49 31.52 8.21 1.17-.63-2.51-2.5-1-4 1.8-1.78 9.35-1.42 11.19-1.33 16.14.78 28.19 7 45.76 12.71 17.9 5.83 17.38 3.31 29.16 7.77 25.14 9.52 30.23 22 35.92 21.08 4-.68 4.9-7.49.51-12.7-2-2.39-4.87-4.15-10.77-6.83-5.6-2.56-30.82-14-51.77-15.67a81.73 81.73 0 0 1-13.22-2.39c-1.35-.36-8.09-2.18-7.63-3.44.7-1.87 17.11-1.7 20.83-1.66 47.31.49 81.44.76 104.38 11 33.61 15 17.21 39.64 54.27 80.14 4.33 4.73 10.75 11.17 24.08 14.84 19.76 5.46 34.6-.71 62.36.52 6.91.3 14.68 1.65 30.23 4.13 16.59 2.66 30.59 5.54 38.36 7.15 6.77 1.4 12.61 2.68 16 3.43 4.37 1 12.65 2.81 23.1 5.28 6.57 1.55 17.47 4.14 31.74 7.86 30.37 7.91 31.73 7.34 32.82 9 6.52 9.88-21.68 56.91-71.27 79.85-71.33 33-150.13-.87-157.68 20.22-1.79 5 1.71 9.5 5.92 17.19 14.81 27.09 14 49.37 16.24 99.53 5.57 127.85 16.77 127 6.35 160.24-17 54.14-55 82.73-51.89 85.41s43.93-24.41 60.71-69.88c8.56-23.19 5.05-51.11-2.3-106-7.63-56.9-5-115.29-17.26-171.37-.56-2.55-1.63-7.17.85-10.62 8.28-11.5 40.16 12 82.6 2.64 14.86-3.29 17.09-7.53 23.06-5.28 29.19 11 4.11 122.64 10.73 123.78s12.39-112.71 5.11-120.9c-.11-.11-5.59-6.25-5.59-6.25s21.42-9 43.62-20.82a200.68 200.68 0 0 0 18.35-10.59c9.48-6.28 15.8-10.47 21.88-17.65 3.48-4.12 7.26-11.22 14.82-25.41 7.44-14 8.67-17.37 12.85-19.08 7.27-3 14.49 4.35 23.15 7.08 30.89 9.74 67.46 25.38 77.94 29.91 11.41 4.94 19.68 8.75 27.91 12.54 41.28 19 71.13 34.9 80.56 40 31.92 17.12 48.25 25.07 49.12 27.62 11.15 32.62-84.43 69.71-168.29 179.55-37.62 49.28-58.58 94.45-58.06 94.77s23.22-30.87 62.82-87.35c20.78-29.64 24.66-35.53 30.94-35.27 33.34 1.39 47.63 172.88 51.12 172.38 2.86-.4-1.31-116.25-36.16-173.54a28.65 28.65 0 0 1-4.21-10.21c-5.34-28.35 39.87-42.67 114-106.36 8.59-7.39 21.12-18.49 36.32-16.85 8.82.95 10.79 6.38 35.91 22.55 7.65 4.93 19.62 12.73 34.18 22.59 8.74 5.92 20.4 13.83 35.47 24.65 26.48 19 39.86 28.33 40.46 30.15 10.74 32.48-116.95 66.16-157.63 168.91-22.71 57.32-8 110-6.36 110.11 2.06.11-7.92-84.32 41.38-149.86a184.19 184.19 0 0 1 51.8-46.37c6.19-9 20.88-28.85 29.82-25.68 6.92 2.45 7.32 17.64 7.59 27.09 3 107.49 6.21 118.89 11.47 127.83 21 35.67 78.9 39.32 81 34.52s-57.07-14.22-74.86-58.72c-16.19-40.48 8.4-93.86-7-122.69-1.37-2.56-6.53-11.42-3.13-18.32 2.61-5.26 9-6.87 15.13-8.5 40.11-10.61 37.8-13.05 44.29-11.94 6.76 1.15 5.64 3.83 38.35 31.69 10.26 8.74 21 18 33.7 29.49 14.1 12.66 24.73 22.46 32.31 29.48 12.27 11.38 21.55 20.19 28.33 26.63 13.72 13 20.58 19.56 26.31 25.24 30 29.67 45.56 51.59 46.59 50.82s-17.3-31.08-43.41-63.53c-17.15-21.31-44.05-49.08-117.2-111.73-42.4-36.31-81.37-65.65-113.62-88.39a1555.64 1555.64 0 0 0-184.34-111.35c-43.31-22.27-116.66-60-188.37-80.29-5.69-1.62-27.79-7.55-72-19.42-36.63-9.83-51.49-13.75-72.71-18.35-37.61-8.15-56.42-12.22-64.86-10.65-7.6 1.43-33.72 7.17-56.94 2.12-4.47-1-17.56-4.39-34.43-31.3-14.21-22.67-28.23-45-11.73-51.37 3.27-1.25 16.16-5.11 54.29 7 127.42 9.18 172.94 12.08 177.41 12 4.64-.07 8.53-.22 15.39-.19 65.72.29 130.22 12.09 130.22 12.09 21.49 3.35 55.49 8.94 97.22 17.1 63.52 12.42 78.83 17.88 113.29 22 61 7.27 60.21-4.19 124.17 0 74.34 4.91 90.31 21.37 168.24 27A604.3 604.3 0 0 0 3000 514v1022z" style="opacity:.5;fill:url(#b)"/><path d="M971.5 419.17c6.8 0 17.91-.2 31.5-1.06 36.25-2.29 49.49-6.92 77.44-6.29 16.48.37 15 2.05 32.36 2.89 28.62 1.38 50.5-2.31 77.12-7 82.9-14.46 83.14-15.6 104.93-18.49a731.39 731.39 0 0 1 90.5-6.09c74.84-.85 134 7.21 143.5 8.65 2.74.42 8.55 1.38 17 2.19 19.89 1.91 26.38.3 28.36 1.87 4 3.2-14.44 18.75-80.92 46.91-101.41 42.95-136.07 39.71-185.17 71-41.25 26.26-62.65 57.76-56.26 60l.21.06c7.16 1.73 21.49-6.78 26.23-9.59 7-4.14 16.91-11.21 24.4-22.23 11.68-7.42 25.31-16 40.68-25.42 20.52-12.61 27.4-16.54 39.32-19.76 18-4.86 36.1-5.1 48.13-4.59 34.66-17.48 52-26.23 66.54-33.83 35.69-18.64 65.11-34.84 87-47.17 24.56-14.71 48.58-23.62 65.34-29.12 11.57-3.79 43.16-13.27 52.13-8.78 4.67 2.34 1.61 7.66-2 13.81-7 11.74-17.68 19.09-21.87 22.5-25.37 20.72 15 38.14-6.44 65.3-12 15.19-28.1 14.07-35.25 29.64s5.91 22.65 4.07 35.3c-1.47 10.13-12.51 24-81.35 48-97.26 33.91-190.29 46.38-189.14 48.35.5.87 19.22-.48 50.84-5.29 75.94-11.57 198.13-30.18 227.78-75.53a25.63 25.63 0 0 0 3.62-7.58 34 34 0 0 0 .77-14.55c-1-5.89-1.77-14.59-1.34-28.08 37.9-32.5 40.46-50.29 35.09-60.62-1.17-2.25-6.28-11-3-22 2.56-8.74 10.09-17.81 14.74-17.47s2.09 9.42 7.38 21.07c2.87 6.32 8.51 14.43 43.65 38.77 33 22.85 34.73 20.08 45.17 29.57 12.88 11.72 33.74 30.7 25 49.56-9.41 20.21-51.73 32.73-136.36 57.76-39.39 11.65-53.42 13.82-73.12 24.83-27.76 15.51-24 24.7-48.81 44.47-29.91 23.89-68.14 36.71-94.46 45.53a349.82 349.82 0 0 1-34.23 9.75c-41.21 9.36-69.53 14-86.89 16.72-43.72 6.91-84.11 22.33-164.87 53.18-33.94 13-51.22 19.61-67.06 28.23-38.44 20.92-45.07 35.45-70.07 56.88-4.9 4.2-12.16 9.47-26.64 20.06-46 33.66-55.36 36.34-64.23 34.59-6.06-1.19-12.09-4.48-15.53-1.41-4.07 3.62 1.43 10.77-1.42 18.35-3.65 9.76-16.82 8.79-38.11 18.36-16.34 7.34-13.19 10-31.77 19.06s-20.87 6-40.23 14.82c-21.95 10-20.07 14.54-39.53 21.88-15.61 5.89-18.67 3.69-33.18 10.59-15.09 7.18-15.85 11.49-26.12 14.12-14.68 3.75-18.18-3.79-35.68-3.63-11.44.11-25.13 6.43-52 19-12.78 6-23.16 11.28-30.18 14.93a297.63 297.63 0 0 0-61.41 36.53c-21.14 16.41-28.31 26.8-48 34.06-22.81 8.4-29.6.49-51.88 4.94-28.76 5.74-49.2 27.46-90.07 70.89-32.76 34.82-34.85 44.22-54.29 51.93-24.06 9.55-31.57-.61-60.17 9.57-25.16 8.95-26.11 19.22-59.47 37-29.88 15.94-30.8 8.61-52.59 21.18-37.94 21.88-38 45.73-73.41 67.76-11.72 7.29-30.29 16.22-57.65 19.77v-981c29.51 8.15 51.61 9.81 66.82 9.7 6.24 0 14.6-.4 21.54 5 12.43 9.7 10.91 30.62 10.51 38-2.51 46.07 14.44 2.73 11.63 134.86-2.84 133.45-6 200.12-31.89 278.24-25.27 76.17-58.63 126-55.55 127.64s40.81-39.09 57.74-99.4c13.52-48.08 18.89-127.08 32.72-146.41a31.41 31.41 0 0 0 3.2-34c-7.25-16.26 1.23-26.63 3-58.93.68-12.79-.5-11.7-1-36-.81-39.86 2.38-42.44 1.67-68.43-.81-29.49-5.42-60.28-9.88-84.7-3.32-18.15-8.39-41.48.9-47.16 3-1.83 6.18-1 14 .49 12.36 2.39 25.06 2.88 37.32 5.73 23.65 5.5 54.44-7.82 72.05-19.15 2.52-1.63 6.93-4.66 13-4.61 12.59.1 21.85 13.45 25.09 18.11 30.2 43.49-1.52 188.58 53.65 232.24 16.16 12.79 34.74 12.88 40.23 30.35 7.9 25.1-21.39 53.73-20.47 54.35s32.14-27.49 26.12-54.35c-4-17.75-20.87-20.14-37.54-35.16C275 647.16 321.5 523 280.19 469.65c-2.44-3.16-11.47-14.16-7.95-21.31 2.26-4.6 8.75-5.66 37.39-7.27 19-1.06 29.07-1.48 43.71-2.16 8-.37 17.94-1 32-2.34 68.6-6.44 74.29-13.71 104.46-12.4 57.27 2.5 55.27 29.48 112.73 37.06a134 134 0 0 0 28.27 1.16c14.81-1.14 19-4.58 20.17-3.33 3.17 3.33-9.48 35-37.15 52.57-16.49 10.47-25.57 7.81-33 19.48-6.5 10.28-3.1 18.08-11.35 30.83a55 55 0 0 1-17.77 16.82c-12.9 8.34-32.94 29.07-118.58 123.35-52.66 58-110.67 122.34-155.65 167.65-49.29 49.65-37 30.12-52.72 48.77-13 15.42-27.41 35.86-41.87 33.11-7.36-1.4-12.66-8.43-17.65-6-4.84 2.36-4.77 11.42-4.91 13.5-1.82 27.77-104.31 96.4-104.85 95.56-.18-.28 10.67-8.31 23.74-14.24a110 110 0 0 1 25.32-8c43.51-8.92 157.31-138.27 189.88-173 21.55-22.94 25.95-24 39.88-42.09 6.73-8.73 8.2-11.7 11-11.47 13.71 1.22 33.22 78.1 24.1 147.81-1.16 8.87-2.93 18.77 2.07 29.38 14.63 31 70.37 32.25 78.66 32.43 9.13.2 12.61-.7 12.7-1.58.45-4.07-70.43-3-85.37-36-3.12-6.9-1.59-10.4-.57-28.07 1.72-30.06 2.38-108.72-15.07-140.51-1.35-2.48-5.36-9.3-3.59-16.82s7.89-10.5 16-16.45C379 772.56 403 754.9 418 731.4c3-4.74 5.49-9.38 10.54-10.58 8.43-2 17.22 7.21 21.91 12 38.55 39.26 51.33 36.18 51.55 48 .55 29.67-80.82 53.39-93.53 93.18-.65 2-3 9.44-1.06 10.58 2.83 1.66 12.06-11.9 28.94-30.35 21.72-23.74 36.39-34 46.94-40.23 12.56-7.36 18.83-11 23.3-9.18 21.87 9.11-2.93 110.76 1.06 111.53 1.83.35 9.23-20.58 12.35-45.88 3-24.28 7.26-60.75-10.24-93.18-23.39-43.37-71.41-54.59-66.4-71.37.6-2 1.58-1.57 7.87-8a145.08 145.08 0 0 0 18.65-23.71c6.54-9.76 17.54-21.1 39.53-43.76 60.36-62.22 69.48-57.34 85.41-85.42 1.92-3.37 4-7.28 6.33-7 15 1.53 11.67 168.34 14.14 168.34.69 0-1.25-12.75 4.11-15.45 10.65-5.35 48.84 29.54 49.36 65.74.16 11-3.18 20.37-2.11 20.65 1.49.38 12.27-16.88 10.06-35.47-2.74-23-24.64-42.17-36.38-52.45-7.56-6.63-14.91-11.69-18.52-22.22-3.43-10-1.43-18.85-.69-22.74 8-42.1-18.38-107.89-8.11-119.28l5.55-6.06s4.08-4.44 7.79-8.45c6.28-6.79 18-19.18 22.12-23.45 20.85-21.61 31-32.94 40.79-37.29 17.24-7.7 21.58-2 63.59-9.8 23.64-4.41 31-7.85 36.48-3.19 11.19 9.45-2.3 46.09-4.81 52.76 0 0-1.44 3.85-95.11 264.35-6.41 17.7-18.41 52.19-43.76 92.45-9.61 15.23-11.42 15.9-24.26 35.07-31.14 46.51-57.59 98-54.8 99.75 3.41 2.12 57-66.14 100.23-151.06 36.43-71.59 54.22-133 65.62-173 0 0 62.73-220.45 85.52-222.81.45-.05 6.71-.61 15.7-1.58 2-.22 7.05-.77 13.58-1.57 3-.36 13.9-1.7 28.65-3.86 2.54-.37 7.68-1.13 14.24-2.17 8.27-1.3 15.43-2.5 21.18-3.5" style="opacity:.7;fill:url(#c)"/><path d="M0 454.88S150.65 481 162.82 479.41s110.12-31.77 110.12-31.77l65.46-11.72a167.5 167.5 0 0 1 47 .65 66.6 66.6 0 0 0 28-1.48L467.93 420a56.36 56.36 0 0 1 33.94 1.26A194.35 194.35 0 0 1 542 441.18c15.74 10.18 35.91 18.81 60.56 20.05 22.53 1.14 35.64-6.26 72.39-11.53 31-4.46 72.83-9.83 113.62-13.9 64.16-6.11 115.29-18.36 206.18-16.44 29 .61 56.72-7.56 85.7-7.54 10.94 0 21.42 3.06 32.36 2.89 58-.95 113-13.88 169.55-20.87 31-3.83 61.15-10.25 92.89-11.55 29.14-1.18 58.35 2 87.41 3.57 37.56 2.05 74.62 8.8 112.33 7.73 15.53-.44 30.27-3.75 45.33-5.79 23.86-3.22 48.08-5.89 71.33-10.15 14.84-2.72 29.67-10.44 43.29-9.78 14.36.69 29 11.75 43.23 12.83s36.83 1.65 51 2.87q51.54 4.41 102.65 10.11c26.37 3 52.17 7.3 78.61 10.11 35.7 3.81 72.17 5.42 107.89 9.15 24.24 2.53 48.27 5.63 72.14 9 47.1 6.63 92.35 16.88 140.12 22.06 23.67 2.56 48.33 1.9 72 4.39 20.18 2.12 35.43 5 45 6.79 80.62 14.67 103.64 23.93 144.45 29.88 57.24 8.36 50.44-4.25 123.94 1.7 65 5.27 79.55 15.88 143.94 23.72A744.12 744.12 0 0 0 3000 514M1726.6 368.42c.32-.34-25.31 17.52-23.19 25.34 3.12 11.49-3.38 24 3.7 35.15 9.19 14.43 48.4 38 48.4 38 12.69 6.62 31.55 18.08 45.64 34.82 12.13 14.42 24.3 28 18.3 42.35-6.87 16.39-37.89 26.68-99.66 46.59-72.63 23.42-85.66 20.53-109.82 36-20.3 13-16.38 18.41-48.81 44.47-13.54 10.88-29.64 23.81-48.81 33.88-49.7 26.11-93.89 19.23-166.77 38.12-17.42 4.52-52.22 20.92-122 52.94-53.5 24.55-81.32 39.1-100.13 49.32-21.2 11.53-43.78 20-68.36 39.86-8 6.46-18 15.43-26.82 23.29-28.72 25.65-30.72 29.77-43.77 38.12-15 9.63-17.15 7.21-36.71 19.06-16.31 9.89-20.49 15-33.17 24-23.77 16.88-45.51 24.8-76.24 36-23.18 8.45-29.44 8.78-51.53 18.35-21.1 9.15-20 10.83-34.58 16.94-29.64 12.39-43.39 9.27-85.06 19-17.94 4.16-30.37 8.29-48 14-39.91 12.92-59.86 19.38-74.48 29.17-22.83 15.28-26.27 26.55-45.18 29.65-17 2.79-19.93-5.44-36.71-2.82-15.39 2.4-21.82 10.7-52.23 35.29-25.74 20.81-22.52 16-36.71 28.23-44.61 38.54-43 57.39-70.59 67.06-21.76 7.63-25.55-3.12-50.82 5.65-27 9.36-25.22 22.5-55.06 38.12-33.17 17.36-44.24 5.78-66.35 24-15.75 13-14.3 22.28-33.88 40.94-15.15 14.43-30 21.87-39.53 26.82A207.77 207.77 0 0 1 0 1435.88" style="stroke-miterlimit:10;stroke-width:16px;stroke:#d9b776;fill:none"/></g><g style="clip-path:url(#d)"><path style="fill:#d9b776;stroke:#161515;stroke-miterlimit:13.97;stroke-width:2.23px" d="m35.75 162.49 3.74 3.85 5.23 1.22-3.84 3.75-1.23 5.23-3.74-3.85-5.23-1.22 3.85-3.75 1.22-5.23z"/></g></svg>