<svg xmlns="http://www.w3.org/2000/svg" xmlns:xlink="http://www.w3.org/1999/xlink" width="1920" height="1080" viewBox="0 0 1920 1080"><defs><style>.a,.b,.c,.f,.g{fill:none;}.aa,.ab,.ac,.ad,.ae,.af,.ag,.ah,.ai,.aj,.ak,.al,.am,.an,.ao,.ap,.aq,.ar,.as,.at,.au,.av,.aw,.ax,.ay,.az,.b,.ba,.bb,.bc,.bd,.be,.bf,.bg,.bh,.bi,.bj,.bk,.bl,.bm,.bn,.bo,.bp,.bq,.br,.bs,.bt,.bu,.bv,.bw,.bx,.by,.bz,.c,.ca,.cb,.cc,.cd,.ce,.cf,.cg,.ch,.ci,.cj,.ck,.cl,.cm,.cn,.co,.cp,.cq,.cr,.cs,.ct,.cu,.cv,.cw,.cx,.cy,.cz,.da,.db,.dc,.dd,.de,.df,.dg,.dh,.di,.dj,.dk,.dl,.dm,.dn,.do,.dp,.dq,.dr,.ds,.dt,.du,.dv,.dw,.dx,.dy,.dz,.ea,.eb,.ec,.ed,.ee,.ef,.eg,.eh,.ei,.ej,.ek,.el,.em,.en,.eo,.ep,.eq,.er,.es,.et,.eu,.ev,.ew,.ex,.ey,.ez,.f,.fa,.fb,.fc,.fd,.fe,.ff,.fg,.fh,.fi,.fj,.fk,.fl,.fm,.fn,.fo,.fp,.fq,.fr,.fs,.ft,.fu,.fv,.fw,.fx,.fy,.fz,.g,.ga,.gb,.gc,.gd,.ge,.gf,.gg,.gh,.gi,.gj,.gk,.gl,.gm,.gn,.go,.gp,.gq,.gr,.gs,.gt,.gu,.gv,.gw,.gx,.gy,.gz,.ha,.hb,.hc,.hd,.he,.hf,.hg,.hh,.hi,.hj,.hk,.hl,.hm,.hn,.ho,.hp,.hq,.hr,.hs,.ht,.hu,.hv,.hw,.hx,.hy,.hz,.ia,.ib,.ic,.id,.ie,.if,.ig,.ih,.ii,.ij,.ik,.il,.im,.in,.io,.ip,.iq,.ir,.is,.it,.iu,.iv,.iw,.ix,.iy,.iz,.j,.ja,.jb,.jc,.jd,.je,.jf,.jg,.jh,.ji,.jj,.jk,.jl,.jm,.jn,.jo,.jp,.jq,.jr,.js,.jt,.ju,.jv,.jw,.jx,.jy,.jz,.k,.ka,.kb,.kc,.kd,.ke,.kf,.kg,.kh,.ki,.kj,.kk,.kl,.km,.kn,.ko,.kp,.kq,.kr,.ks,.kt,.ku,.kv,.kw,.kx,.ky,.kz,.l,.la,.lb,.lc,.ld,.le,.lf,.lg,.lh,.li,.lj,.lk,.ll,.lm,.ln,.lo,.lp,.lq,.lr,.ls,.lt,.lu,.lv,.lw,.lx,.ly,.lz,.m,.ma,.mb,.mc,.md,.me,.mf,.mg,.mh,.mi,.mj,.mk,.ml,.mm,.mn,.mo,.mp,.mq,.mr,.ms,.mt,.mu,.mv,.mw,.mx,.my,.mz,.n,.na,.nb,.nc,.nd,.ne,.nf,.ng,.nh,.ni,.nj,.nk,.nl,.nm,.nn,.no,.np,.nq,.nr,.ns,.nt,.nu,.nv,.nw,.nx,.ny,.nz,.o,.oa,.ob,.oc,.od,.oe,.of,.og,.oh,.oi,.oj,.ok,.ol,.om,.on,.oo,.op,.oq,.or,.os,.ot,.ou,.ov,.ow,.ox,.oy,.oz,.p,.pa,.pb,.pc,.pd,.pe,.pf,.pg,.ph,.pi,.pj,.pk,.pl,.q,.r,.s,.t,.u,.v,.w,.x,.y,.z{stroke:#d9b776;}.b,.c{stroke-miterlimit:11.34;}.b{stroke-width:1.42px;}.c{stroke-width:1.7px;}.d{clip-path:url(#a);}.aa,.ab,.ac,.ad,.ae,.af,.ag,.ah,.ai,.aj,.ak,.al,.am,.an,.ao,.ap,.aq,.ar,.as,.at,.au,.av,.aw,.ax,.ay,.az,.ba,.bb,.bc,.bd,.be,.bf,.bg,.bh,.bi,.bj,.bk,.bl,.bm,.bn,.bo,.bp,.bq,.br,.bs,.bt,.bu,.bv,.bw,.bx,.by,.bz,.ca,.cb,.cc,.cd,.ce,.cf,.cg,.ch,.ci,.cj,.ck,.cl,.cm,.cn,.co,.cp,.cq,.cr,.cs,.ct,.cu,.cv,.cw,.cx,.cy,.cz,.da,.db,.dc,.dd,.de,.df,.dg,.dh,.di,.dj,.dk,.dl,.dm,.dn,.do,.dp,.dq,.dr,.ds,.dt,.du,.dv,.dw,.dx,.dy,.dz,.e,.ea,.eb,.ec,.ed,.ee,.ef,.eg,.eh,.ei,.ej,.ek,.el,.em,.en,.eo,.ep,.eq,.er,.es,.et,.eu,.ev,.ew,.ex,.ey,.ez,.fa,.fb,.fc,.fd,.fe,.ff,.fg,.fh,.fi,.fj,.fk,.fl,.fm,.fn,.fo,.fp,.fq,.fr,.fs,.ft,.fu,.fv,.fw,.fx,.fy,.fz,.ga,.gb,.gc,.gd,.ge,.gf,.gg,.gh,.gi,.gj,.gk,.gl,.gm,.gn,.go,.gp,.gq,.gr,.gs,.gt,.gu,.gv,.gw,.gx,.gy,.gz,.ha,.hb,.hc,.hd,.he,.hf,.hg,.hh,.hi,.hj,.hk,.hl,.hm,.hn,.ho,.hp,.hq,.hr,.hs,.ht,.hu,.hv,.hw,.hx,.hy,.hz,.ia,.ib,.ic,.id,.ie,.if,.ig,.ih,.ii,.ij,.ik,.il,.im,.in,.io,.ip,.iq,.ir,.is,.it,.iu,.iv,.iw,.ix,.iy,.iz,.j,.ja,.jb,.jc,.jd,.je,.jf,.jg,.jh,.ji,.jj,.jk,.jl,.jm,.jn,.jo,.jp,.jq,.jr,.js,.jt,.ju,.jv,.jw,.jx,.jy,.jz,.k,.ka,.kb,.kc,.kd,.ke,.kf,.kg,.kh,.ki,.kj,.kk,.kl,.km,.kn,.ko,.kp,.kq,.kr,.ks,.kt,.ku,.kv,.kw,.kx,.ky,.kz,.l,.la,.lb,.lc,.ld,.le,.lf,.lg,.lh,.li,.lj,.lk,.ll,.lm,.ln,.lo,.lp,.lq,.lr,.ls,.lt,.lu,.lv,.lw,.lx,.ly,.lz,.m,.ma,.mb,.mc,.md,.me,.mf,.mg,.mh,.mi,.mj,.mk,.ml,.mm,.mn,.mo,.mp,.mq,.mr,.ms,.mt,.mu,.mv,.mw,.mx,.my,.mz,.n,.na,.nb,.nc,.nd,.ne,.nf,.ng,.nh,.ni,.nj,.nk,.nl,.nm,.nn,.no,.np,.nq,.nr,.ns,.nt,.nu,.nv,.nw,.nx,.ny,.nz,.o,.oa,.ob,.oc,.od,.oe,.of,.og,.oh,.oi,.oj,.ok,.ol,.om,.on,.oo,.op,.oq,.or,.os,.ot,.ou,.ov,.ow,.ox,.oy,.oz,.p,.pa,.pb,.pc,.pd,.pe,.pf,.pg,.ph,.pi,.pj,.pk,.pl,.q,.r,.s,.t,.u,.v,.w,.x,.y,.z{fill:#161515;}.f,.g{stroke-miterlimit:8.09;}.f{stroke-width:19.64px;}.g{stroke-width:13.75px;}.h{fill-opacity:0.8;opacity:0.8;fill:url(#b);}.i{fill:url(#c);}.j{stroke-width:0.88px;}.k{stroke-width:0.9px;}.l{stroke-width:0.91px;}.m{stroke-width:0.92px;}.n{stroke-width:0.92px;}.o{stroke-width:0.91px;}.p{stroke-width:0.91px;}.q{stroke-width:0.9px;}.r{stroke-width:0.89px;}.s{stroke-width:0.9px;}.t{stroke-width:0.9px;}.u{stroke-width:0.9px;}.v{stroke-width:0.91px;}.w{stroke-width:0.89px;}.x{stroke-width:0.87px;}.y{stroke-width:0.85px;}.z{stroke-width:0.84px;}.aa{stroke-width:1.18px;}.ab{stroke-width:1.15px;}.ac{stroke-width:1.07px;}.ad{stroke-width:1.12px;}.ae{stroke-width:1.11px;}.af{stroke-width:1.1px;}.ag{stroke-width:1.08px;}.ah{stroke-width:1.06px;}.ai{stroke-width:1.07px;}.aj{stroke-width:1.08px;}.ak{stroke-width:1.08px;}.al{stroke-width:1.07px;}.am{stroke-width:1.05px;}.an{stroke-width:1.07px;}.ao{stroke-width:1.07px;}.ap{stroke-width:1.05px;}.aq{stroke-width:1.04px;}.ar{stroke-width:1.02px;}.as{stroke-width:0.97px;}.at{stroke-width:0.94px;}.au{stroke-width:0.91px;}.av{stroke-width:0.89px;}.aw{stroke-width:1.01px;}.ax{stroke-width:1.01px;}.ay{stroke-width:1px;}.az{stroke-width:0.99px;}.ba{stroke-width:0.99px;}.bb{stroke-width:0.99px;}.bc{stroke-width:0.99px;}.bd{stroke-width:0.99px;}.be{stroke-width:0.99px;}.bf{stroke-width:0.99px;}.bg{stroke-width:0.98px;}.bh{stroke-width:0.97px;}.bi{stroke-width:0.96px;}.bj{stroke-width:0.95px;}.bk{stroke-width:1.19px;}.bl{stroke-width:1.18px;}.bm{stroke-width:1.17px;}.bn{stroke-width:1.16px;}.bo{stroke-width:1.1px;}.bp{stroke-width:1.06px;}.bq{stroke-width:1.08px;}.br{stroke-width:1.09px;}.bs{stroke-width:1.1px;}.bt{stroke-width:1.11px;}.bu{stroke-width:1.11px;}.bv{stroke-width:1.12px;}.bw{stroke-width:1.12px;}.bx{stroke-width:1.1px;}.by{stroke-width:1.08px;}.bz{stroke-width:0.98px;}.ca{stroke-width:0.93px;}.cb{stroke-width:1.39px;}.cc{stroke-width:1.38px;}.cd{stroke-width:1.37px;}.ce{stroke-width:1.35px;}.cf{stroke-width:1.32px;}.cg{stroke-width:1.3px;}.ch{stroke-width:1.27px;}.ci{stroke-width:1.25px;}.cj{stroke-width:1.22px;}.ck{stroke-width:1.19px;}.cl{stroke-width:1.04px;}.cm{stroke-width:1.46px;}.cn{stroke-width:1.46px;}.co{stroke-width:1.45px;}.cp{stroke-width:1.45px;}.cq{stroke-width:1.45px;}.cr{stroke-width:1.44px;}.cs{stroke-width:1.43px;}.ct{stroke-width:1.42px;}.cu{stroke-width:1.4px;}.cv{stroke-width:1.37px;}.cw{stroke-width:1.22px;}.cx{stroke-width:1.15px;}.cy{stroke-width:1.39px;}.cz{stroke-width:1.36px;}.da{stroke-width:1.29px;}.db{stroke-width:1.27px;}.dc{stroke-width:1.27px;}.dd{stroke-width:1.27px;}.de{stroke-width:1.26px;}.df{stroke-width:1.26px;}.dg{stroke-width:1.26px;}.dh{stroke-width:1.25px;}.di{stroke-width:1.23px;}.dj{stroke-width:1.21px;}.dk{stroke-width:1.17px;}.dl{stroke-width:1.13px;}.dm{stroke-width:0.94px;}.dn{stroke-width:1.09px;}.do{stroke-width:1.08px;}.dp{stroke-width:1.08px;}.dq{stroke-width:1.08px;}.dr{stroke-width:1.08px;}.ds{stroke-width:1.08px;}.dt{stroke-width:1.07px;}.du{stroke-width:1.07px;}.dv{stroke-width:1.07px;}.dw{stroke-width:1.07px;}.dx{stroke-width:1.07px;}.dy{stroke-width:1.12px;}.dz{stroke-width:1.27px;}.ea{stroke-width:1.38px;}.eb{stroke-width:1.46px;}.ec{stroke-width:1.49px;}.ed{stroke-width:1.5px;}.ee{stroke-width:1.48px;}.ef{stroke-width:1.42px;}.eg{stroke-width:1.41px;}.eh{stroke-width:1.38px;}.ei{stroke-width:1.36px;}.ej{stroke-width:1.33px;}.ek{stroke-width:1.31px;}.el{stroke-width:1.28px;}.em{stroke-width:1.26px;}.en{stroke-width:1.24px;}.eo{stroke-width:1.22px;}.ep{stroke-width:1.2px;}.eq{stroke-width:1.18px;}.er{stroke-width:1.16px;}.es{stroke-width:1.14px;}.et{stroke-width:1.11px;}.eu{stroke-width:1.08px;}.ev{stroke-width:1.01px;}.ew{stroke-width:0.94px;}.ex{stroke-width:0.93px;}.ey{stroke-width:1.18px;}.ez{stroke-width:1.26px;}.fa{stroke-width:1.27px;}.fb{stroke-width:1.27px;}.fc{stroke-width:1.26px;}.fd{stroke-width:1.26px;}.fe{stroke-width:1.26px;}.ff{stroke-width:1.25px;}.fg{stroke-width:1.25px;}.fh{stroke-width:1.23px;}.fi{stroke-width:1.22px;}.fj{stroke-width:1.2px;}.fk{stroke-width:1.19px;}.fl{stroke-width:1.17px;}.fm{stroke-width:1.15px;}.fn{stroke-width:1.14px;}.fo{stroke-width:1.13px;}.fp{stroke-width:1.12px;}.fq{stroke-width:1.11px;}.fr{stroke-width:1.09px;}.fs{stroke-width:1.07px;}.ft{stroke-width:0.94px;}.fu{stroke-width:0.95px;}.fv{stroke-width:0.97px;}.fw{stroke-width:0.96px;}.fx{stroke-width:0.96px;}.fy{stroke-width:0.95px;}.fz{stroke-width:0.95px;}.ga{stroke-width:0.92px;}.gb{stroke-width:0.92px;}.gc{stroke-width:0.92px;}.gd{stroke-width:0.92px;}.ge{stroke-width:0.92px;}.gf{stroke-width:1.21px;}.gg{stroke-width:1.22px;}.gh{stroke-width:1.2px;}.gi{stroke-width:1.19px;}.gj{stroke-width:1.17px;}.gk{stroke-width:1.16px;}.gl{stroke-width:1.15px;}.gm{stroke-width:1.14px;}.gn{stroke-width:1.14px;}.go{stroke-width:1.14px;}.gp{stroke-width:1.14px;}.gq{stroke-width:1.13px;}.gr{stroke-width:1.13px;}.gs{stroke-width:1.09px;}.gt{stroke-width:0.94px;}.gu{stroke-width:1.27px;}.gv{stroke-width:1.25px;}.gw{stroke-width:1.24px;}.gx{stroke-width:1.22px;}.gy{stroke-width:1.2px;}.gz{stroke-width:1.18px;}.ha{stroke-width:1.16px;}.hb{stroke-width:1.14px;}.hc{stroke-width:1.12px;}.hd{stroke-width:1.04px;}.he{stroke-width:1.13px;}.hf{stroke-width:1.16px;}.hg{stroke-width:1.16px;}.hh{stroke-width:1.15px;}.hi{stroke-width:1.15px;}.hj{stroke-width:0.98px;}.hk{stroke-width:1.06px;}.hl{stroke-width:1.07px;}.hm{stroke-width:1.07px;}.hn{stroke-width:1.06px;}.ho{stroke-width:1.06px;}.hp{stroke-width:1.06px;}.hq{stroke-width:1.05px;}.hr{stroke-width:1.05px;}.hs{stroke-width:1.05px;}.ht{stroke-width:1.05px;}.hu{stroke-width:1.05px;}.hv{stroke-width:1.05px;}.hw{stroke-width:1.05px;}.hx{stroke-width:1.06px;}.hy{stroke-width:1.06px;}.hz{stroke-width:1.06px;}.ia{stroke-width:1.05px;}.ib{stroke-width:1.05px;}.ic{stroke-width:1.05px;}.id{stroke-width:1.04px;}.ie{stroke-width:1.04px;}.if{stroke-width:1.03px;}.ig{stroke-width:0.91px;}.ih{stroke-width:0.92px;}.ii{stroke-width:0.93px;}.ij{stroke-width:0.92px;}.ik{stroke-width:0.92px;}.il{stroke-width:0.92px;}.im{stroke-width:0.92px;}.in{stroke-width:0.92px;}.io{stroke-width:0.92px;}.ip{stroke-width:0.92px;}.iq{stroke-width:0.92px;}.ir{stroke-width:0.91px;}.is{stroke-width:0.9px;}.it{stroke-width:0.91px;}.iu{stroke-width:0.93px;}.iv{stroke-width:0.92px;}.iw{stroke-width:0.92px;}.ix{stroke-width:0.92px;}.iy{stroke-width:0.92px;}.iz{stroke-width:0.92px;}.ja{stroke-width:0.92px;}.jb{stroke-width:0.91px;}.jc{stroke-width:0.91px;}.jd{stroke-width:0.91px;}.je{stroke-width:0.91px;}.jf{stroke-width:0.92px;}.jg{stroke-width:1.07px;}.jh{stroke-width:1.06px;}.ji{stroke-width:1.05px;}.jj{stroke-width:1.05px;}.jk{stroke-width:1.05px;}.jl{stroke-width:1.05px;}.jm{stroke-width:1.04px;}.jn{stroke-width:1.04px;}.jo{stroke-width:1.04px;}.jp{stroke-width:1.04px;}.jq{stroke-width:1.04px;}.jr{stroke-width:1.04px;}.js{stroke-width:1.04px;}.jt{stroke-width:1.04px;}.ju{stroke-width:1.04px;}.jv{stroke-width:1.03px;}.jw{stroke-width:1.03px;}.jx{stroke-width:1.03px;}.jy{stroke-width:1.03px;}.jz{stroke-width:1.03px;}.ka{stroke-width:1.03px;}.kb{stroke-width:1.02px;}.kc{stroke-width:1.01px;}.kd{stroke-width:0.99px;}.ke{stroke-width:0.98px;}.kf{stroke-width:0.97px;}.kg{stroke-width:0.96px;}.kh{stroke-width:0.94px;}.ki{stroke-width:0.94px;}.kj{stroke-width:0.95px;}.kk{stroke-width:0.95px;}.kl{stroke-width:0.95px;}.km{stroke-width:0.95px;}.kn{stroke-width:0.96px;}.ko{stroke-width:0.96px;}.kp{stroke-width:0.96px;}.kq{stroke-width:0.96px;}.kr{stroke-width:0.96px;}.ks{stroke-width:0.97px;}.kt{stroke-width:0.96px;}.ku{stroke-width:0.95px;}.kv{stroke-width:0.95px;}.kw{stroke-width:0.94px;}.kx{stroke-width:0.91px;}.ky{stroke-width:0.89px;}.kz{stroke-width:0.9px;}.la{stroke-width:0.88px;}.lb{stroke-width:0.9px;}.lc{stroke-width:0.9px;}.ld{stroke-width:0.92px;}.le{stroke-width:0.92px;}.lf{stroke-width:0.92px;}.lg{stroke-width:0.92px;}.lh{stroke-width:0.92px;}.li{stroke-width:0.92px;}.lj{stroke-width:0.91px;}.lk{stroke-width:0.91px;}.ll{stroke-width:0.91px;}.lm{stroke-width:0.91px;}.ln{stroke-width:0.91px;}.lo{stroke-width:0.91px;}.lp{stroke-width:0.91px;}.lq{stroke-width:0.91px;}.lr{stroke-width:0.92px;}.ls{stroke-width:0.92px;}.lt{stroke-width:0.92px;}.lu{stroke-width:0.92px;}.lv{stroke-width:0.91px;}.lw{stroke-width:0.91px;}.lx{stroke-width:0.9px;}.ly{stroke-width:0.9px;}.lz{stroke-width:0.89px;}.ma{stroke-width:0.88px;}.mb{stroke-width:0.87px;}.mc{stroke-width:0.87px;}.md{stroke-width:0.86px;}.me{stroke-width:0.95px;}.mf{stroke-width:1.01px;}.mg{stroke-width:1.03px;}.mh{stroke-width:1.03px;}.mi{stroke-width:1.03px;}.mj{stroke-width:1.03px;}.mk{stroke-width:1.03px;}.ml{stroke-width:1.03px;}.mm{stroke-width:1.03px;}.mn{stroke-width:1.03px;}.mo{stroke-width:1.03px;}.mp{stroke-width:1.03px;}.mq{stroke-width:1.02px;}.mr{stroke-width:1.01px;}.ms{stroke-width:0.99px;}.mt{stroke-width:0.98px;}.mu{stroke-width:0.97px;}.mv{stroke-width:0.97px;}.mw{stroke-width:0.97px;}.mx{stroke-width:0.96px;}.my{stroke-width:0.95px;}.mz{stroke-width:0.93px;}.na{stroke-width:1px;}.nb{stroke-width:0.99px;}.nc{stroke-width:0.99px;}.nd{stroke-width:0.99px;}.ne{stroke-width:0.98px;}.nf{stroke-width:0.98px;}.ng{stroke-width:0.97px;}.nh{stroke-width:0.98px;}.ni{stroke-width:1.01px;}.nj{stroke-width:1.01px;}.nk{stroke-width:1.01px;}.nl{stroke-width:1.02px;}.nm{stroke-width:1.01px;}.no{stroke-width:0.99px;}.np{stroke-width:0.96px;}.nq{stroke-width:0.96px;}.nr{stroke-width:0.97px;}.ns{stroke-width:0.97px;}.nt{stroke-width:0.96px;}.nu{stroke-width:0.96px;}.nv{stroke-width:0.95px;}.nw{stroke-width:0.95px;}.nx{stroke-width:0.94px;}.ny{stroke-width:0.93px;}.nz{stroke-width:0.92px;}.oa{stroke-width:0.9px;}.ob{stroke-width:0.88px;}.oc{stroke-width:0.86px;}.od{stroke-width:0.84px;}.oe{stroke-width:0.83px;}.of{stroke-width:0.93px;}.og{stroke-width:0.94px;}.oh{stroke-width:0.94px;}.oi{stroke-width:0.94px;}.oj{stroke-width:0.94px;}.ok{stroke-width:0.94px;}.ol{stroke-width:0.94px;}.om{stroke-width:0.94px;}.on{stroke-width:0.94px;}.oo{stroke-width:0.94px;}.op{stroke-width:0.94px;}.oq{stroke-width:0.94px;}.or{stroke-width:0.94px;}.os{stroke-width:0.94px;}.ot{stroke-width:0.94px;}.ou{stroke-width:0.94px;}.ov{stroke-width:0.94px;}.ow{stroke-width:0.94px;}.ox{stroke-width:0.93px;}.oy{stroke-width:0.93px;}.oz{stroke-width:0.93px;}.pa{stroke-width:0.93px;}.pb{stroke-width:0.92px;}.pc{stroke-width:0.92px;}.pd{stroke-width:0.91px;}.pe{stroke-width:0.91px;}.pf{stroke-width:0.9px;}.pg{stroke-width:0.89px;}.ph{stroke-width:0.9px;}.pi{stroke-width:0.9px;}.pj{stroke-width:0.91px;}.pk{stroke-width:0.91px;}.pl{stroke-width:0.9px;}</style><clipPath id="a"><rect class="a" x="0.48" width="1920" height="1080"/></clipPath><pattern id="b" width="184.94" height="184.93" patternTransform="matrix(0.92, -0.58, 1.11, 0.48, 752.95, 594.04)" patternUnits="userSpaceOnUse" viewBox="0 0 184.94 184.93"><rect class="a" width="184.94" height="184.93"/><path class="c" d="M127.32,173c7.46.12,19.94,1,24,1.34,5.1.43,14-.42,21.26-.85M122.85,173c1-.09,2.59-.1,4.47-.07M134.46,7.4c3.84-.22,8.86-.33,14.12-.38m-24,1.69c1.47-.2,2.77-.41,3.81-.66a42.21,42.21,0,0,1,6.08-.65m-9.89,1.31c-8.74,1.15-23.53,1.47-26.8,1.47M148.58,7c5.43,0,11.12,0,16,0m5.67,0,5.53.08M164.59,7c2.06,0,4,0,5.67.06m14.67.16c-3,0-5.44,0-7.18,0l-2,0m-29.51,19c2.56-.05,5.58-.07,8.84,0m-8.84,0c-2.84.06-5.1.14-6.42.14m20.07.05c7.42.37,14,.74,15.11.8m-19.92-1c1.27,0,2.56.08,3.87.14l.94.05m15.11.8h.16c3,.08,6.26.21,9.73.35m-14.3,20.33c-3-.06-7-.06-11.21.16-8.08.42-20.41-.43-25.09,0m50.6-.49c-3.65.14-7,.31-9.74.49,0,0-1.79-.1-4.56-.16m14.3,15.19c-3.27-.07-7.3-.32-10.59-.57,0,0-24.7.85-37.88.42-4.42-.14-9.6-.29-14.73-.38m-23.54.38c3.39-.57,13.37-.57,23.54-.38M66.6,84.85c3-.42,17.33-.47,26.69-1.32s30.41.63,45.29,1c2,.06,4,.16,6.18.29m0,0,2.55.17m0,0c9.65.7,19.84,1.92,24.81,2.54m11.2.59c-2.07,0-4,0-5.53,0m-5.67-.55,2.26.3m3.41.25c-1,0-1.9-.07-2.59-.14l-.81-.11m10.54.27-1.61,0M113.07,99.89c3-.42,12.76-.42,17.43-.85s17.44.43,24.67.85,21.73.85,21.73.85a77.21,77.21,0,0,1,8,0m0,35.38c-3,0-5.44-.06-7.18-.06,0,0-15.35,0-25.13.86s-25.09,1.7-34.44,2.12-14.89-.42-17.44,0m75.48,17,5.52.18m0,0,3.19.14m-12.12-.55a84.23,84.23,0,0,0-11.27-.23c-4.67.43-20.83-1.27-23-.85m37.63,1.31-1,0s-.95-.09-2.39-.2m.83,17.21c3.17-.21,7-.39,11.29-.55m-30.19-52.6H162c3,0,12.38-1.28,12.38-1.28a105.41,105.41,0,0,1,10.58.23m-115-110L63,8.68M21.65,7.61c14.64.27,29.94.63,35.3.87,1.82.07,3.87.14,6,.2m15.86.42A85.61,85.61,0,0,1,88,9.75m-18.07-.9c3.09.07,6.16.15,8.93.25M12.3,7.43l9.35.17M0,7.26c3,0,6.46.08,10.21.14m2.12,0-2.13,0M126.68,25.48c-5.15,0-10.31.74-16.5-.19M20.55,28.36c-6.91-.21-14.07-.55-20.58-.83m103.41-2.88a33.27,33.27,0,0,1,5.44.41l1.36.23M20.55,28.36c10.53.31,20.47.31,26.62-.75,12.33-2.13,17-2.55,27.21-2.13,8.09.34,20.72-.93,29-.83M0,47.53c22-.87,56.55-1,64.2.06.68.1,1.39.19,2.14.27m48.89-.27c-2.55-.42-16.16-.42-20.84.43-4.32.79-18.82.84-28-.16m-36,14.86c-1.81.23-4,.46-6.74.61-8.08.42-15.95-.85-18.5-.43a33.07,33.07,0,0,1-5.1.15m84.19-.15c-17.86.85-31.89,1.27-41.25-.42-5.32-1-7.77-.37-12.6.24M50.44,87.3a115.13,115.13,0,0,1-13.68,1.13m-18.7-.34,2.26.09M15.58,88l2.48.08m34.06-1-1.68.26M36.76,88.43c-3,.08-6,.06-8.71,0m0,0c-2.78-.06-5.38-.16-7.73-.25M0,88.15C4.4,88.1,9.39,88,13.58,88l2,0M97.77,99.89c-9.54,0-27.34-.78-39.89-.89m0,0A89.6,89.6,0,0,0,45,99.47c-6.8,1.27-11.48,1.7-25.51,1.7-2.26,0-4.38,0-6.37-.06m-3-.07c-3.95-.1-7.31-.23-10.15-.33m13.19.4-3-.07M.84,136.1l4.11.06m58.81,1.37c9.25.24,20.19.38,24.23,1.05M7.28,136.19l-2.33,0m58.81,1.37-3.61-.1M7.28,136.19c17.36.26,42.48.81,49.67,1.12l3.2.12M44.62,156.8q1.37-.15,2.55-.36c9.25-1.59,14.2-2.23,20.41-2.27m-23,2.63C33.83,158,15.14,157,0,156.37m67.61-2.2c2.06,0,4.26,0,6.8.15,10.2.42,27.64-1.7,34.44-.43s12.33.43,17.86.43m-24.87,18.06c1.5,0,3-.06,4.46-.06m-4.46.06a68.58,68.58,0,0,0-9,.65c-4.68.85-21.26.85-30.19-.43-7.48-1.07-40.59-.94-62.65-.13m106.3-.15a68.71,68.71,0,0,1,7.37.28m-40.1-54.36,2.34,0m67.61-.21c-3.1-.58-5-.64-14.26.55-13.18,1.7-31,1.7-39.12.43a61.92,61.92,0,0,0-6.29-.53m-63.27,1.72c1.19,0,2.28.08,3.23.08A156.85,156.85,0,0,0,44.62,119c4.2-.53,17.47-.89,28.92-.79m75.25.79c-2.43-.39-4-.73-5.3-1M20.55,120.22C14.92,120,7,119.25,0,118.84m75.91-.58c1.7,0,3.35.07,4.89.12m0,0c1.07,0,2.09.07,3,.12m-76,66.43v-10.8m-4.68,10.8V174.35m7,10.58v-10.8m2.13,10.8v-11m2.77,11v-11m59.31,11V175.2m2.34,9.73v-9.31m2.13,9.31v-9.52m2.76,9.52v-9.52m-60,9.52v-11m5.18,11V173.71m6.94,11.22V173.71m87.6,11.22V175m8,10V174.77m2.84,10.16V174.28M117,184.93V174.77m-6.45,10.16V174.35M146,184.93V174.85m-6.18,10.08V174.64m-2.93,10.29v-10.5m-2.45,10.5V173.79m17.94,11.14v-9.65m5,9.65v-9.65m-8.86,9.65v-9.86m-78.66,9.86V175.2m30.4,9.73V174.35m2.33,10.58v-10.8m2.13,10.8v-10.8m2.77,10.8V174.35M56,139.21v14.9m1.87-14.47v14.68m2.42,0V139.21m-9.73.21v14.69m17-14.26v14.32m0,.15v-.15m-5.11-.63V139.07m24.45,45.86v-9.52m8.93,9.52V174.56m74.41,10.37v-9.52m5.53,9.52V175M5.29,156.44V138.83m5.17,17.4v-17.4M21.6,156V136.91m-1.87,17.62V137.76M17.4,156.23v-17.4m27.22,18v-.07m.8,0V137.72m-5.27,18.93V137.93m-6.23,17.94V139.11M26.48,155V138.26m-2.63,17.19V138.68m149.61-.84v17.41m2-17.94v17.52m-3.56-17v17.41m9.92-18v16.77m-2.19-15.92V154.9m-1.92-16.49v16.77M42.91,156.87V137.51m124,47.42v-9.1m-71-23V141.26m8,11.36V139.35M91.53,152.62V140.84m-6.45,11.35V141.47m35.43,12.21v-13m-2.26,12.76V140.78m-4.89,12.47V140.92m-3,12.12V140.71M108,152.62V140.28m18.92,13.83V138.75m5,15.36V138.82m-8.85,15.07V141.34M74.8,152.19V139m2.34,13V139.21M79.27,152V139.42M82,152.19V139M70.34,152.4V139.21m74.41-.67v14.71m5.53-14.63v14.21m-8.93-14.43v15.28m-2.27-15.2v15.41m21-15.35v14.71m5.52-14.63v14.21m-8.93-14.43v15.28m-2.26-15.2v15.41m10.2,31v-8.88M7.84,0V7.24M3.16,0V7.24m7,.16V0m0,7.43v0m2.13,0v.22M12.3,0V7.44M15.07,0V7.24M74.38,0V8.73M76.72,0v9m2.13.21V9.1m0-9.13V9.1M81.61,0V8.73m-60-1.07V7.6m0-7.63V7.6M26.83,0V7.66M41.21,0V7.66M54.53,0V7.88M46.32,0V8.09M52,0V7.88M33.77,0V7.66M61,0V8.51M121.37,0V8.73m8-8.76V6.81M132.21,0V6.32M117,0V8.3M110.59,0v9M146,0V6.39M139.84,0V6.46M136.91,0V6.6m-2.45,1.06V7.4m0-7.43V7.4M152.4,0V6.39m5-6.42V6.46M148.58,7h0m0-7V7M69.92,0V8.85m0,.09V8.85M100.32,0V9.58M102.65,0V9.79M104.78,0V10m2.77-10V9.58M86.92,0V9.36M95.85,0V9.79M170.26,0V7.08m0,0v.09m5.53,0v.07m0-7.27V7.16M57.71,0V7m-16.5,177.9V173.75m13.32,11.18V173.11m-8.21,11.82v-11.4M52,184.93V173.32m9,11.61V174.39m-3.28,10.54V172.47M166.86,0V7M164.59,0V7m0,.07V7M6.57,63.88V86.8m-4.67,0V64.09m7-.21V87M11,63.66V87.23M13.8,63.67V86.8m59.32-3.41V65.92m2.34,17.69V66.35m2.12,17.47V66.14m2.77,17.25V66.14m-58-2.47V86.25m5.18-22.8v22.8M41.91,64.43V86.25m11.78-22V85.91M47,64.22V86.67M50.72,64V85.48m-16.25-23V86.25M59.72,65.07V85.14m60.38-3.7V65.71m8-.21v17M130.94,65V82M115.78,81V65.5m-6.45,16.15V65.07M144.76,85v-.1m0,0V65.58m-5.33.64V83m-2.35-17.59V82.17M135,66V83.1M133.2,64.52V83.31M151.14,66V85m5-19V85m-8.86,0V65.79m0,19.82V85M68.65,83.6V65.92m30.4,16.36V65.07m2.34,17.43V64.86m2.13,17.85V64.86m2.76,17.42V65.07M54.75,28V45.81M57.26,28.4V46M59,28V46M49.31,30.15V44.83m17,3V48m0-20.34V47.86m-5.1-20v17.4M85.66,82.07V66.14M94.59,82.5V65.28M169,64.18V85.75m5.53-22v24M56.24,64.86V85.35M4,29.55V47.17M9.2,29.55V47m9.49-17.4V47m1.86-19.32v.73m0,18.38V28.36m-4.41,1.19V47m28-16.55V46.61m-5.27-16V46.4M32.65,29.83V46.6M26.06,29V45.75M23.87,29.83V46.6M175,47.72V27.18m0-.52v.52m-2.3,20.11V28.57m-2.11,19.36v-.07m0-19.29V47.86M180.55,28V46.73m-2.2.85V28.85M41.65,30.19V46.61m124,18v21m-71-58.52V47.47m8-21.32V46.28M90.27,26.66v20.6m-6.45-20V46.83m35.43-20.3V47.34M117,47.13V26.61m-2.48.06V47.13m-5.45-20.6V46.7m-2.34-.42V27.09m18.92,19.7V27.51m5,19.28V27.59m-8.86,20V27.17m-48.26-.38v20M75.88,27V46.62M78,27.21V46.62m2.76-19.83v20M69.08,27V46.07m74.41.85V27.31M149,46.49V27.39m-8.92,20V27.17m-2.27.07V47.55m21-.63V27.31m5.53.08v19.1m-8.93.85V27.17m-2.26,20.38V27.24M54.75,117.48V100.64m1.66,16.63V100.64M59,117.7V100.64m-9.73,17.83V100.85m17,16.85V101.27m-5.1,15.65V100.49M4,118.85V102.21m5.18,0v16.42m11.35,1.75v-.16m0-18v18m-2.29-1.59V102.84m-2.12,15.79V102.21m28,16.08V102.08m-5.27,16V102.29m-6.24,16V101.51m-6.59,17.88V101.64m-2.19,18.6V102.49M175,118.42V101.27m-2.51,15.67V102.12m-1.9,16.51V103.18m9.92-.56v14.81m-2.2.85V103.47M41.65,118.29V101.86m52.94,17.29V101.7m8,16.26V100.77M90.27,118.94V101.28m-6.45-.34V118.5m0,0h0m35.43-17.35V119M117,101.22v17.59m-4.89-.21V101.36m-3,17V101.15M106.71,118V101.7m18.92.43v14.38m5-14.31v14.31m-8.86-14.72v17.44m-48.26-.72v-.27m0-17.82v17.82m2.34,0V100.64m0,17.66v0M78,100.85V118.3m2.76.21v-.13m0,0v-18M69.08,117.74v-17.1m74.41,17.41V101.93m0,16.66v-.54m5.52.12V102m-8.92-.21v15.27m-2.27-15.2v15.41m21,2.31V101.93m5.53,17.22V102m-8.93,17V101.79m-2.26,17.44V101.86m10.2-37V85.68m19.91-21.5V85.75m-3.4-21.15v21m-2.27-20.79V85.68M18.52,64.3V86.88m68,85.57V154.62m2.27,17.9V154.47M91,172.66V155m2.77,17.62v-18M82,172.45V154.83m17,16.85V155.25M37.55,170.87V158.14m4.37,12.52V158.14m14.39,12.52V156.19M65,172.4V154.28M61.41,172.4V155.63M26.48,171.29V158.78m8.71,12.3V157.85m-3.61,13.23V159.21m17.29,11.45V156.19m27.21,17.06V155.08m-4.46,18V155.29m2.76,18V154.87m52.94,18.26V173m0-17.28V173m8,0V156.71M123,155.26v17.66m-6.45-.43V155.9m34.37,17.31V156.32m-1.73,16.47V156.25m-2.41,16.32V156.32m-2.07,17V156.11m-5.27,16.81V155.68m18.92,17.74V156.11m5,17.32V156.18m-9.84,17V156.75M2.1,171V157.76m16.65,13.35v-13M16.48,170.9V158.21M14,170.9V158.28m-2.41,13.39V159.33m-3,12.13V159.12M6.21,171V158.69M21.3,171.33V158.78m85-4.38v17.92m0,.17v-.17m2.34,0V155.6m2.13,16.68V155.81m2.76,16.68V155.38M101.81,172.7v-.32m0-17.76v17.76m74.4-16.33v-.14m0,16.67V156.05m5.53-.07v.25m0,15.92V156.23M172.81,173V155.82m0,0v0m-2.26,17.44V155.84M85.23,62.19V49.25m2.4,13V49.33M89.7,62.4V49.68M92.47,62.4V49.25m-11.7.22V62.19m17-.76V48.91M36.29,61.59V47.89m4.37,13.49V48.87M55.05,63.34V47.89m8.71,15.23V47.93m-3.61,15.2V49.3M25.21,47.55V63m8.72-1.19V47.59M30.31,48V62.72m0,.06v-.06m17.3-1.34V46.91m27.21,2.81V63M70.35,49.93V62.78m2.77-13.27V63m52.93-2.08V48.37m8,12.33V49.39M121.73,62.66v-.14m0-14.58V62.52m-6.45-.28V49.56m35,11.44V49.29m-2.35,11.28V48.93m-2.41,11.43V49m-2.07,12.12V48.79m-5.28,11.92V48.37m18.92,12.84V48.79m5,12.42V48.86M152.29,61V49.43M17.49,47.88V62.82M15.22,48V62.6M12.74,48V62.6M10.33,49.07V60.43m-3-12.55v14.3M5,47.46V61.75M20,48.52V63m85-.8V48.06m2.34,14V49.25M109.47,62V49.47m2.77,12.76V49m-11.7,13.41V48.28M175,60.36V48.59m5.53,14.29V48.66m-8.93,12.13V48.45M169.28,61V48.52m-81.21-24V10.58m2.4,14V10.65M92.53,24.7V11m2.77-.42V24.7m-11.69-.21V10.79m17,.42V23.72M39.13,26.83V8.23M43.5,26.62V8.23M57.88,25.64V9.21M66.6,24.45V10.23M63,8.68v0m0,16.77V8.68M28.05,27.25V8.87M36.76,27V7.94M33.15,27V9.3M50.44,26.62V9.21M77.65,25.29V11m-4.46,14V11.25m2.76,14V10.83m52.94,14.34V8.71m8,0V25.94M124.57,8.28v.43m0,16.25V8.71m-6.45,3.15V25.51M152.7,7.94V25.81M150.76,8.3V25.81M148.35,8.37V25.6M146.28,8.15v18m0,0v.17M141,7.73V25.94M159.93,8.15V26.38m0,.07v-.07m5-18.16V26.45m-9.84-.26v0m0-17.44v17.4M3.67,27V7.84m16.65.39V27.07M18.06,8.3V26.86M15.58,8.37V26.86M13.16,9.42V27.63m-3-.22V9.2M7.78,27V8.78M22.87,27.29V8.86m85,1.5V24.53m2.34.76h0m0-13.75V25.29m2.13-13.52V25.3m2.76-14V25.51M103.38,10.58V24.65m0,.1v-.1m74.41,1V8m5.53,17.22V8m-8.94-.21V26M172.12,7.88V26.23M85.23,136.81V120.93m2.06,16.16V121m2.41,16V121.36M92.47,137V120.93m-11.7,15.88V120.17m17,15.87V123.53M35.49,136.21V121.53M40.66,136V120.55M55.05,136V119.57m8.71,18V119.61m0,17.92v.21m-3.61,0v-.31m0-16.46v16.46m-34.94-2.75V122.17m8.72,13.27V121.23m-3.62,14.21V121.61M47.61,136V121.53m27.21,16.08V119.44m-4.47,18V119.65m2.77-.42v18.38m52.93-2.08V123m8,12.34V120.09m-12.33,17.19V122.56m-6.45,14.29V122.22m34.59,12.12v-12m-1.94,12.85V120.61M145.52,135v-14.3m-2.07,15.07V120.47m-5.28,14.85V120.05m18.92,15.78V121.45m5,14.38V121.52m-9.83,14.09V122.09m-134.8,12.4v-14m-2.27,13.74V120.61m-2.48,13.67v-13.6m-2.41,14.37V121.73m-3,15.06v-.6m0-15.65v15.65M5,136.37v-.21m0,0v-16M20,134.71V121.18m85,15.67V122.68m2.34,14V123.87m2.12,12.77V122.13m2.77,14.72V121.7m-11.7,15.37V122.89M175,135V120.27m5.53,14.28V120.34m-8.93,15.06V121.11m-2.27,14.51V121.18m-81.21-37V98.13m2.4-13.85V98.2m1.91-13.7V98.62m2.92-14.4V98.34M83.61,84.42V98.13m17-.77V84.85M39.13,98.51V88.72m4.37,9.57V88.72M57.88,99.27V99m0,0V86.76M66.6,98.08V84.85M63,86.21V99.06M28.05,88.43v12.46m0-12.51v.05m8.71,0V98.72m0-10.29h0m-3.61,12.25V88.81M50.44,87.3v11m0-11.52v.53m27.21-2.62V98.93m-4.46-14V98.72M76,84.46V98.93m52.94-.12V86.26m8,11.36V86.31M124.57,98.6V85.84m-6.45,13.31V85.49m35,13.19V87m-2.35,11.5V86.83m-2.2,10.92V86.39m-2.49,11.7V85.75M141,97.62V85.28m18.92,14.81V87.66m5,12.43V87.74m-9.84,11.15V87.32m-151.45,2v11.32M20.32,88.18v12.53m0-13v.45m-2.26-.37v.28m0,0V100.5m-2.48,0V88m0-.13V88m-2.42,13.1v.15m0-12.33v12.18m-3-.06h0m0-12.32V101M7.78,88.29v12.34m15.09.29V88.37m85,9.8V84m4.47,1.41V98.94m2.76.21V85m-11.69,13.4V84.21m74.41,15V88.13m0,0v-.67m5.53.08v.63m0,10.64V88.17m-8.94,11.49V87.88m0,0v-.56m-2.26.26v-.19m0,12.48V87.58M.83,135.47v-16"/></pattern><pattern id="c" width="153.43" height="153.43" patternTransform="matrix(1.65, -0.51, 0.98, 0.86, 423.91, 847.19)" patternUnits="userSpaceOnUse" viewBox="0 0 153.43 153.43"><rect class="a" width="153.43" height="153.43"/><path class="b" d="M150.55,54.59a43.82,43.82,0,0,0-.31-13.09m1.11,36.78c-.93-2.5-1.25-11.23-.31-15.91M143.56,73.1c-1.24-4.06-1.24-6.56,0-12.17a29.79,29.79,0,0,0,.63-12.78m-8-8c1.25,4.36.66,9.4-.59,15.33m3.77,27.47c-2.18-3.75-5.17-11.73-4.86-15.32s.78-2.33.93-5.61m-8.27,11c-2.65-4.21-3.11-6.81-1.55-12.89s1.87-9.82.63-14.81M115.79,40.8a34.89,34.89,0,0,1,2.34,12.79m.9,29.34c-4.68-5.15-2.15-17.5-1.21-23.89m-4.4-31a47.6,47.6,0,0,1,.94,7.36m-2.23,49.15c-1.72-3.12-4.45-14.25-3.51-18.31a50.18,50.18,0,0,0,.93-13.76m-8-10.4a55.44,55.44,0,0,1,0,19m-.78,19c-1.4-2.19-1.4-9.51-.46-13.25m-7.8,13.87C91,77.12,91.31,70.58,93,65.43a30.6,30.6,0,0,0,1.56-14.5m-8.73-9.38c.78,4.52,1.4,12.81,0,18.43m-2.3,27.77c-1.4-2.28-.94-11.32,1.16-21.12M78.53,48.44c.47,6.86.78,9.35-.63,15s-1.55,9.82-1.09,12.47M72.34,39.24c1.25,4.84-.2,12.94-.83,16.37m-.78,25C69,77.28,69.33,70.73,70,67.15a42.21,42.21,0,0,0,.78-5.3m-7,18.24c-1.09-2.5-1.09-8.73-.47-14a89.6,89.6,0,0,0-.15-19.39m-8.08-4.16c1.71,5.31,2.49,8.89,2.34,12.94m-.63,25c-2.65-4.36-2-12.79-1.09-17.15M47.05,41.37C48.76,49,50.43,55.14,49.33,60.6s-1.24,5-1.24,6.55m1.17,5c.85,3.17,1.19,9.67,1.42,12.28m-8-4.51c-2-5-2.18-11.69-.93-17.31s.93-9.5-.32-15.9m-9.17-6.45C33.66,45,35.18,50.62,35,53.74M35.64,83c-3.59-5.77-3.12-14.11-1.71-19.57M26.62,44.7c.93,6.39,1.4,9.51.31,14.18S26,63.41,26,65.12M98.18,6.81c2.67,3.43,3.39,27.46,3.39,27.46M18.31,80.4c-2.34-3.9-.94-10.6,0-14s2-12.59,2.74-17.57m-7.91-6.9c.78,5.14,1.56,8.42.62,12.93A36.44,36.44,0,0,0,13,61.54m.85,22.67A49.38,49.38,0,0,1,11,78.37c-.78-2.18-.47-5.61.31-8.57m-6.1-21c1.24,4.37,2.18,12,.77,17S3.6,77.28,5.63,81.34m25.15,6.54c-1.4-2-5.72-12.47-5.88-15.59M4,91c1.24,6.24,1.71,8.11.15,13.56S2,113.92,3.38,118.13M9.77,86.32C11,89.6,12.27,93.81,12,96.93s-1.09,4.83-.94,5.3m1.21,20.16c-1.71-3.43-3.39-12.21-2.15-16m6.71,8.89c-1.09-3.12-1.4-7.64.47-13.41s1.09-7.79.31-11.69m6-5.33c.94,3.9,1.72,8.27.94,12.16m.63,23c-1.09-3.12-1.47-12.38-.07-16.27m5.52,18c-1.72-3.28-.22-12.24,1-17.38s1.09-5.62.93-8.89M40.17,117c-3-5.46-1.71-10-.15-15s.78-8.57-.15-12.94m6.3-4.26c1.09,4.52,3.2,7.69,2.27,11.12s-1.72,5-2,6.7m1,13.9c-1.09-2.18-1-6.24-1-9.52m7.1-18.41c1.41,5.93,3,8.58.94,13.57s-1.73,15-1.11,18.54m6.1-35.07c1.71,3.74,2.65,9.67,2.34,12m-1.2,22.45c-.78-2.18-1-11.84.1-15.59m4.53-15.9c1.71,5.77,2.65,8,1.4,13.1s-2.49,10.6-1.71,13.56M73.5,84.53c.62,3.12-.74,8.81-.74,10.68m1,32.38c-.79-2.18-3.49-16.94-2.71-19.91a22.18,22.18,0,0,0,.94-5.77m6.49-11.84c1.71,7.17,3,10.75,1.87,14.81s-1.4,8.73-.94,10.91m5.93-25a23,23,0,0,0,.93,7.49,15.52,15.52,0,0,1,0,9.35c-1.24,4.52.28,8.19.6,10.06m7.25-21.13a64.74,64.74,0,0,1-1.09-10.29m.66,35.16c-.47-1.56-.66-8.5,0-12.39a46.43,46.43,0,0,0,.78-7.8m11-18.14c1.41,4.84,2.88,9.26,2.41,13.93m-1.44,26a44.07,44.07,0,0,0-.43-8.21c-.62-3,.31-7.33.93-12.17m7.61,15c-1.55-3.59-2-12.52-.73-17.2s1.09-4.83.62-11.22m10.75-11.14c2.82,4.6,3.9,17.53,2.65,23.61a25.93,25.93,0,0,0,.94,15m3.48-35.44c.93,3.89,3.29,14.3,3,18m.87,21.86c-.78-2.66-2.19-11.64-1.56-15.53m6.71-16.53c1.4,6.08,2.19,8.11,1.4,13.41s-1.09,9.82-.62,12M147.49,83c2.41,3.79,2.22,8.33,2.22,11m.36,27.05c-3-6.08-.83-15.67-.2-19.41M5.13,3.39c1.25,3.27.17,6.91-.14,10s-1.09,4.83-.94,5.3M5.62,41.42C3.9,38,1.87,28.5,3.12,24.76M10.6,6.14c.78,3.9,1.56,8.34-.31,14.1S8.73,30.53,9.82,33.65M16.36,3.27c.94,3.9,1.72,6.7.94,10.6m1.1,28.2c-1.09-3.11-1.87-17.26-.47-21.16m8,18.41c-1.72-3.27-2.5-11.44-1.25-16.58s1.09-5.62.94-8.89m7.64,21.51c-3-5.45-1.72-10-.16-15s.78-11.47-.16-15.83M39,1.67c1.1,4.52,1.72,6,.78,9.45s-1.71,5-2,6.71m4.53,22.83c-1.09-2.18-3.61-15-3.61-18.27m8-18.3c1.41,5.92,3,9.18.94,14.16S44.28,27,44.9,30.57M54.64,8.93c1.72,3.74,1,10.38.66,12.72m-4.63,17.6c-.78-2.18,0-9.66,1.09-13.4M58.31,1.67C60,7.44,61,13.11,59.71,18.26s-1.77,17-1,19.92M66,5.17c1.53,7.62.11,15.51.11,13.5m-.48,23.54a21.17,21.17,0,0,1-.32-10c.79-3,1.84-5.52,2.15-8.8M71.56,1.76c1.71,7.17,3,15.09,1.87,19.14S72,29.63,72.5,31.82m5.92-21.4c-.16,3.12.31,3.58.94,6.24a15.68,15.68,0,0,1,0,9.35c-1.25,4.52-.64,12.15-.33,14m5.28-26.92c-.47-2,1.11-7.48,1.11-10.29m0,33.63a22.5,22.5,0,0,1-.31-9,45.16,45.16,0,0,0,.77-7.79M91.44.93c1.72,5.77.39,20.87-.23,26.17M94.8,44.7a32.57,32.57,0,0,1-1.1-4.2c-.62-3,2.1-9.09,2.73-13.93m8.86,2.13c-1.56-3.59-.78-7.48.47-12.16s1.09-8.61.62-15m8,9.06c.47,3.43.94,3.82.31,7.09s-1.4,5.15-1.56,6.4m8.36,13.38c-1.56-4-1-13.69.27-19.77s.78-9.2-.31-14m7.82-2.6c.94,3.9.67,12.15.36,15.89m-.53,25.2c-.78-2.65-2.13-14.28-1.5-18.18M135,9.3c1.41,6.08,2.19,6.27,1.41,11.56s-1.09,9.83-.63,12m7-31.43a58.61,58.61,0,0,1,.78,10.85m0,26.32c-3-6.08-.44-14.94.18-18.68m5.94,13.72c-1.71-4.21-1.09-9.2-.46-13.56s.93-12.24,0-17.38M6.51,123.9c1.1,4.83,1.41,7.95.94,11.07m-4.2,17.48c-1.09-2.65,1-9.38,2.3-13.27m6.23,12.58c-1.1-3.12-.63-9.16.15-13s1.87-6.7,1.25-11.23m7.29-8.87c.62,3.27-1.32,23.69-2.88,28.52m5.92,6.22a71.47,71.47,0,0,1,1.7-16.08c.82-3.74,1.24-2.81,1.09-7.18m14.79-2.61c.3,5.46.93,6.71-.94,11.54s-2.34,5.44-1.56,8.71m7.87-26.31c.93,2.8,3.13,8.71,2.82,11.36M43.86,151.3c-.32-4.52,1.57-11.34,2.66-14.15M53.66,127c1.4,5.77,1.76,8.2,0,12.32-1.45,3.37-1.22,10-1.25,14.06m14.09-31.2c1.41,5.76,2,12.15.58,15.74S64.84,148.61,65.62,152m5.79-4.39c-.62-2,2.26-12.21,2.57-14.86m5.08-12.37a27.36,27.36,0,0,1-.2,14.89c-1.2,3.48-1.62,12.56-1.63,18m13.66-27c1.41,4.52,1.41,7.17.16,11.85s-2,5.88-1.09,9m9.2-24.86c.63,3-.72,7.36-.87,9.38M95.82,150c-.46-2.18,2-11.21,3.06-14.33m4.75-9c1.25,6.71,1.4,9.51-.47,13.57s-2.49,9.2-1.4,12.31m16.72-27.08c2.18,5.77,1.28,8.3-1.6,13.52-1.77,3.21-2.36,9.72-2.33,14.33m7.64-34.53c2,2,3.29,11.47,3,13m-2,5.84c0,3.89-2.06,11.21-3,14.33m10.39-27.26c.46,3-1,2.1.22,6.78s.31,6.7-.94,10-.37,6.08-.21,8M25.07,6.69c-1-1.17-1.44-3.05-1.56-6.65m28.9,0a10.34,10.34,0,0,1-.28,3.16M77.42,5.63A43.79,43.79,0,0,1,77.23.05m37.84,6.28c-.3-.49-.51-3.75-.52-6.28m22.53,4.59C137,4.23,137,1.38,137,.05m.65,126.65c.78,3.12,1.71,7.49.78,11.07-.72,2.77-1.37,11.08-1.43,15.58m13.6-2.59c-1.09-3.58-.17-13,.77-16.73s.77-4.67.47-8.26M99.6,89.16c.48,5.67,1.89,6.61,1,13.7s-1.89,10.39-1,13.23m9.92-70.63c-.78-2-1.56-8.44-1.4-12.65M111,122.75c.78,3.9,1.56,5.93-.31,11.69-1.43,4.39-3.34,10-1.8,14.4m11.56-35.66c-1.09-3.12-1.41-7.64.47-13.41s1.08-7.8.31-11.69M86,123.09c.78,3.89.83,7.67-1,13.43S82.34,147.87,83.43,151m-24-25.68c.78,3.9,2,6.31.11,12.08s-2,8.61-.93,11.72m-26.44,3.08c-1.09-3.11-1.2-10.07.67-15.84s3.74-13.15,3-17m108.5,2.29c.78,3.9,2.92,9.33,1.05,15.09s-1.56,8.85-.47,12"/></pattern><symbol id="d" viewBox="0 0 1920.95 1080"><g class="d"><path class="e" d="M1920.45,1080H.45V640.64l192.08-1.81c49.79-.92,84.27-7.69,106.79-13.83,28.59-7.8,38.61-14.79,66.61-18.06,34.46-4,58.6,2,84,4.94,44,5.14,73.48-1,169.41-16.94,105.24-17.52,157.87-26.27,207.36-32.65,95.3-12.28,102.18-7.22,237.93-22.42,13.87-1.55,78.59-8.86,163.14-21C1349.11,501.45,1374,493.78,1447,484.2c55.3-7.27,135.57-15.29,237.7-16.73L1920.45,476"/><path class="f" d="M1920.45,476l-175.29-9s-143.46.59-151.31,3.32-175.16,16.22-175.16,16.22-181.3,28.26-190.89,32.35-217,27.69-217,27.69L845.86,561.47,631.09,594.05l-97.68,16.37-76.73,1.44c-56.07-6.49-92.55-2.09-115.82,3.37-16.85,4-26.36,8.37-52.86,12.71-6.28,1-21.2,3.3-69.12,6.35-18.49,1.18-23.88,1.32-61,3.18-65.2,3.26-71,3.93-91.48,4.23-15.26.22-38,.23-66-1.06"/><path class="g" d="M1298.82,541.25s-102.3,55.85-108.46,56.49-210.77,44.93-210.77,44.93l-135.33,59c-43.59,13.81-68.12,29-81.23,38.66-16.45,12.16-30.52,27.25-35.24,32.47-12.93,14.3-11.21,15.93-19,22.59-17.47,15-41.42,19.81-73.19,29.64-51.48,16-40.62,19.38-89.45,35.3-49.74,16.22-94,23.42-140.95,31.06-44.7,7.27-81.2,11.2-111.13,14.11C233.32,911.43,135,919.4.45,923.88"/><polygon class="a" points="1360.33 487.06 694.15 553.13 411.13 596.8 509.19 624.57 595.51 649.51 620.89 655.5 661.07 657.5 704.56 665.14 733.39 669.66 758.93 674.89 782.13 679.82 803.25 688.96 827.12 696.28 844.7 700.26 895.63 678.43 915.89 668.83 945.03 655.86 969.24 646.61 996.34 638.52 1074.76 622.62 1114.47 613.96 1127.38 609.31 1191.23 597.25 1278.4 551.5 1360.33 487.06"/><path class="h" d="M.45,741.83C289.28,634.12,367.26,621,383.27,630.13c7.09,4,2.14,20-7.77,51.82-5.91,19-8.87,28.56-15.34,38.86-8.77,14-28.84,45.9-82.6,65.49-39.77,14.49-80.09,15.71-79.29,17.47s40.44,2.76,77.26-7.41c49.42-13.65,70.88-38,92.49-63.53,22.83-26.91,33.69-52.7,34.32-54.29C414.62,647.94,408.06,636,427,628c19.86-8.36,39.08-.22,100.91,2,31.33,1.11,128.13,5.67,189.8-21.55,23-10.16,32.41-20.86,34.56-20.12,3.61,1.25-15.71,34.12-67.09,50.12-16.88,5.26-42.86,9.29-94.87,17.29-24.5,3.78-32.66,4.62-32.52,4.95.55,1.35,71.52,4.21,129.43-16.24,16.78-5.93,66.71-23.56,71.15-44.47.59-2.77,1.16-9.26,10.16-13.41,10.87-5,27.39-3.55,33.89-3.18,42.59,2.46,56.9-18.07,123.44-27.86,48.56-7.15,53.89,1.88,115.09-7.43,22.78-3.47,45.4-8.27,48.44-5.56s-16.85,11.73-22,14C1016.08,579.39,954.1,579.9,892.5,591c-97.13,17.48-115.9,47.33-204.63,63.67-7.9,1.45-35.52,6.33-83.43,14.79-29.75,5.25-36.62,6.44-48,8.15-32.87,4.91-51.42,6.35-51.16,7.59.32,1.54,24.82,2.78,50.82.52,25.79-2.23,39.59-6.75,68.11-13.41,41.37-9.66,41.19-6.91,73.18-14.47,28.06-6.63,33-9.89,98.6-31.94,55-18.5,82.6-27.72,85.38-25.94,3.17,2-21.83,16.72-49.8,28.24-31.56,13-59.9,19.07-59,20.11.78.87,21-2.33,40.66-7.59,44.63-12,54.7-26.19,82.67-39.7,63.86-30.84,116.8-7.54,182.29-40.24,10.65-5.32,19.7-10.39,32.87-15.75,0,0,11.66-4.66,24.58-8.65,31.32-9.67,66.62-14.37,97.73-19,45.75-6.75,68.78-9.85,90.23-13.37,21.65-3.55,48.7-13.72,88.68-14.93,6.26-.18,15.91-.29,16.93,1.42,2,3.38-34.17,6.75-68.44,23.47-11,5.34-22.4,12.38-49.13,25.94-2.08,1-4.7,2.38-8.24,4.07-17.78,8.49-32.32,13.7-36.32,15.17-30.65,11.24-45.58,24.3-81.82,37.58-27.26,10-33.18,4.52-87.42,18.53-12.46,3.22-23.11,6.25-24.9,5-3.34-2.26,26.38-17.45,53.87-31.5,23.8-12.16,27.18-13.05,34.56-18.53,20.74-15.39,25.51-31.74,22.87-32.29-2.83-.59-10.67,17.6-40.84,31.61-22.34,10.37-47,12.16-65.38,15.51-103,18.76-145.79,25.66-194.65,39.17-34.31,9.49-90.33,25-86.4,40.59,2.24,9,24,16.5,26.42,15.53s-15.55-8.78-13.55-18.35c1.84-8.8,24-15.42,68.21-28.3,15.51-4.52,33.73-9.35,59.87-15.11,29-6.4,57.71-12.72,94.53-16.95,12.45-1.42,21.66-2.13,36.25-4.94,24.3-4.67,38.57-10.35,40.66-9s-8.63,7.5-15.59,11.12c-5.58,2.91-21.71,10.84-56.58,19.41-14.15,3.48-12.66,2.47-20.33,4.59-27.91,7.74-42.57,19.83-47.63,23.72-19,14.6-35.82,15.57-97,42.28C796.36,722,758.45,738.52,735,762.48c-21.92,22.37-20.2,35.64-51.84,48.71-22,9.09-36.64,8.34-71.15,19.58-35.89,11.7-55.82,24.16-65.8,29.58-28,15.18-77.49,29.13-252.08,45.17-77.83,7.16-177,14.41-293.65,18.36"/><path class="i" d="M.45,1080V923.88c63.39-.89,117.06-3.57,158.18-6.28,12-.79,12.85-.92,161.06-14.81,95-8.91,113.28-10.6,142.68-17.8,2-.5,29.3-8.55,83.81-24.64,22.59-6.67,37.46-11.11,55.63-19,20.25-8.77,18-10.27,33.82-16.31,30.74-11.7,45.71-8.52,63.76-18.28,8.54-4.61,6-5.77,21.69-24.7C733.25,767.35,744,754.35,763,740.35a198.77,198.77,0,0,1,39.37-23.22c18.75-8.43,22.3-7,41.86-15.44,32-13.74,37.9-24,51.37-23.26,11.89.67,24.09,9,25.35,17.27,2.08,13.75-27.14,18.83-61.17,46.46-13.48,10.94-26.44,24.38-21.16,26.67,5.79,2.51,31.62-9.16,34.56-7.41,2.61,1.56-19.54,9.82-16.26,18,2.56,6.42,20.34,11.69,30.49,9.53,10.92-2.32,9.19-12.43,14.23-12.71,10.64-.57,28.4,43.79,32.53,43.42s-18.3-41.3,12.2-52.95c15.24-5.82,33.83-20.56,46.75-28.47,12.34-7.54,3.38-17.22,14.23-21.17,13.24-4.82,40.47-34.49,42.7-33.71,35.07,12.27,35.64,94.56,50.67,168,10.44,51,17.82,77.2-12,89-15,5.91-34.94,6.46-36.59,12.71-2.08,7.88,26.13,20.43,44.72,18,41.39-5.41,36-85.12,34.56-106.94-3.1-46.12-5.72-144.14-37.2-176.38-.14-.15-20.46-21-13.62-23.45,3.7-1.34,11.22,4.17,28.46,6.36,13.1,1.65,34,1.68,42.69-4.24,7.24-4.93,2.17-11.41,8.14-12.71,6.3-1.36,13.88,5.47,20.32,4.24,8.35-1.59.89-14.05,12.2-18,8.64-3,17.74,1.63,28.46,0,26.22-4,22.86-40.93,29.48-41.06,3.26-.06,1.7,10.7,9.93,12.45,15.1,3.21,48.16-28.81,55.13-26.92,4.29,1.16-1.1,15.22-16.27,27.88s-26.35,12.61-32.26,22.59c-4.13,7,.91,9.41.75,25.18-.36,35.6-8.59,43.11-11.32,71.58-1.28,13.4,5.76,23.78,9.29,28.83,6.13,8.77,15.76,37.55,38.62,50.71,49.06,28.22,73.08,27.13,79.29,38.11,17.4,30.78-149.64,77.77-146.37,80.47S1422.92,895.3,1418,852.48c-4.47-39.19-98.2-46-125.12-108.3-19.5-45.12.41-97.65,23.47-113.76,2.41-1.68,12.22-8.12,19.31-18.12a46,46,0,0,0,8.35-25c.76-20.77-12-35.11-9-35.66,2.19-.41,10,7.25,15.58,14.47,12.19,15.63,14.19,28.94,14.57,31.76,3.68,27.31-13,48.72-8.13,49.53,3.46.58,10.39-10.49,18.64-10,9.65.58,11.12,16.41,15.92,16.35S1403,637.18,1402.79,618c-.23-22.31-9.3-32.18,3-44.47,2.39-2.37,6.14-5.41,8.6-10.49,5.39-11.15-1.3-20.06-.13-20.22,1.39-.18,11.91,12.26,16.94,30.71,2,7.27,3.52,10.87,3.2,15.25-1.18,15.83-16.7,27.82-15.39,28.16s11.91-10.07,14.66-9.48c4.31.93-20.31,27-2.47,35.6,2.56,1.24,3.58,1,7.12,2.23,18.16,6.59,16.79,23.38,16.6,27.77,0,0-.87,20.21,66.58,128.93,1,1.54,1.93,3.08,1.93,3.08,3.52,5.52,7.32,10.81,51.1,78.17,13.27,20.42,19.9,30.78,19.42,37.66-3.28,47.46-130.87,75.82-127.17,78.81s138.62-19.4,154.5-65.65c6.16-17.93-5.74-39-19.11-62.54-15.37-27.14-32.88-42.76-23.58-46.52,11.45-4.63,41.13,17.76,99.62,20.12,25.38,1,32.11-2.7,44.72,1.06,23.26,6.93,14.82,23.9,26.43,56.11,15.12,42,41.64,47.07,34.56,74.12-4.68,17.9-20.31,31-12.2,33.88,6.76,2.4,27.48-3.2,38.63-11.64,24.84-18.84-8.47-43.85-40.66-115.41-11.06-24.59-16.6-42.68,2-51.89,14.67-7.25,40.22-7,48.79-18,2.3-2.95,5.27-9.16,0-11.64-11.72-5.54-46,16-101.65,22.23-3.29.37-68.8,7.22-119.94-11.65-12.61-4.65-13.14-17-29.9-37.92a114.48,114.48,0,0,0-9-10c-10.26-10.11-18.44-17.25-20.09-18.63-13.8-11.54-46.71-55.54-35.58-71.59,18.5-26.67,192-24.28,416-1.06v407"/><polygon class="j" points="852.41 713.35 845.88 731.88 858.95 731.88 852.41 713.35"/><polygon class="k" points="842.8 718.02 836.1 737.02 849.5 737.02 842.8 718.02"/><polygon class="l" points="834.05 721.46 827.3 740.61 840.81 740.61 834.05 721.46"/><polygon class="m" points="822.92 714.53 816.12 733.82 829.72 733.82 822.92 714.53"/><polygon class="n" points="817.55 725.05 810.73 744.41 824.38 744.41 817.55 725.05"/><polygon class="o" points="810.56 727.96 803.79 747.18 817.34 747.18 810.56 727.96"/><polygon class="p" points="802.85 729.28 796.13 748.36 809.58 748.36 802.85 729.28"/><polygon class="q" points="794.51 731.35 787.83 750.28 801.19 750.28 794.51 731.35"/><polygon class="r" points="793.28 741.13 786.65 759.93 799.91 759.93 793.28 741.13"/><polygon class="s" points="792.65 750.61 786 769.46 799.3 769.46 792.65 750.61"/><polygon class="t" points="780.25 750.15 773.59 769.06 786.93 769.06 780.25 750.15"/><polygon class="u" points="783.74 763.5 777.04 782.48 790.43 782.48 783.74 763.5"/><polygon class="v" points="773.44 764.5 766.73 783.55 780.16 783.55 773.44 764.5"/><polygon class="w" points="756.33 763.5 749.75 782.16 762.91 782.16 756.33 763.5"/><polygon class="x" points="756.17 772.05 749.73 790.34 762.62 790.34 756.17 772.05"/><polygon class="y" points="753.33 778.84 747.01 796.77 759.65 796.77 753.33 778.84"/><polygon class="z" points="766.04 794.03 759.84 811.61 772.24 811.61 766.04 794.03"/><polygon class="aa" points="1585.01 648.55 1576.24 673.41 1593.77 673.41 1585.01 648.55"/><polygon class="ab" points="1580.06 658.91 1571.52 683.13 1588.6 683.13 1580.06 658.91"/><polygon class="ac" points="1581.93 670.79 1573.99 693.3 1589.86 693.3 1581.93 670.79"/><polygon class="ad" points="1515.19 652.45 1506.87 676.05 1523.51 676.05 1515.19 652.45"/><polygon class="ae" points="1519.43 669.35 1511.2 692.7 1527.66 692.7 1519.43 669.35"/><polygon class="af" points="1535.47 676.44 1527.33 699.52 1543.61 699.52 1535.47 676.44"/><polygon class="ag" points="1533.02 686 1525.02 708.71 1541.03 708.71 1533.02 686"/><polygon class="ah" points="1538.74 694.38 1530.87 716.71 1546.62 716.71 1538.74 694.38"/><polygon class="ai" points="1381.05 643.98 1373.08 666.58 1389.03 666.58 1381.05 643.98"/><polygon class="aj" points="1378.41 651.14 1370.41 673.8 1386.4 673.8 1378.41 651.14"/><polygon class="ak" points="1383.83 659.91 1375.82 682.64 1391.85 682.64 1383.83 659.91"/><polygon class="al" points="1395.59 666.24 1387.62 688.83 1403.55 688.83 1395.59 666.24"/><polygon class="am" points="1397.59 676.15 1389.81 698.23 1405.38 698.23 1397.59 676.15"/><polygon class="an" points="1336.9 647.16 1328.96 669.66 1344.83 669.66 1336.9 647.16"/><polygon class="ao" points="1318.46 645.85 1310.56 668.26 1326.37 668.26 1318.46 645.85"/><polygon class="ap" points="1318.89 657.45 1311.1 679.56 1326.69 679.56 1318.89 657.45"/><polygon class="aq" points="1328.06 671.86 1320.36 693.67 1335.75 693.67 1328.06 671.86"/><polygon class="ar" points="1318.22 677.71 1310.66 699.14 1325.78 699.14 1318.22 677.71"/><polygon class="as" points="1302.29 682.51 1295.1 702.89 1309.48 702.89 1302.29 682.51"/><polygon class="at" points="1322.07 698.23 1315.13 717.91 1329.02 717.91 1322.07 698.23"/><polygon class="au" points="1300.24 698.94 1293.48 718.12 1307.01 718.12 1300.24 698.94"/><polygon class="av" points="1305.18 709.21 1298.58 727.91 1311.77 727.91 1305.18 709.21"/><polygon class="aw" points="1225.16 645.21 1217.7 666.38 1232.63 666.38 1225.16 645.21"/><polygon class="ax" points="1219.08 654 1211.56 675.33 1226.6 675.33 1219.08 654"/><polygon class="ay" points="1214.8 660.93 1207.4 681.92 1222.2 681.92 1214.8 660.93"/><polygon class="az" points="1211.44 675.05 1204.06 695.98 1218.82 695.98 1211.44 675.05"/><polygon class="ba" points="1197.98 666.04 1190.61 686.94 1205.35 686.94 1197.98 666.04"/><polygon class="bb" points="1188.26 662.38 1180.9 683.25 1195.62 683.25 1188.26 662.38"/><polygon class="bc" points="1182.11 677.17 1174.76 698.02 1189.46 698.02 1182.11 677.17"/><polygon class="bd" points="1173.1 677.81 1165.76 698.63 1180.45 698.63 1173.1 677.81"/><polygon class="be" points="1163.58 675.46 1156.24 696.26 1170.91 696.26 1163.58 675.46"/><polygon class="bf" points="1154.93 677.76 1147.62 698.49 1162.24 698.49 1154.93 677.76"/><polygon class="bg" points="1147.84 688.16 1140.6 708.67 1155.07 708.67 1147.84 688.16"/><polygon class="bh" points="1135.78 669.96 1128.62 690.27 1142.95 690.27 1135.78 669.96"/><polygon class="bi" points="1129.12 681.32 1122.03 701.43 1136.21 701.43 1129.12 681.32"/><polygon class="bj" points="1119.44 674.99 1112.41 694.9 1126.46 694.9 1119.44 674.99"/><polygon class="bk" points="1148.84 680.79 1139.98 705.89 1157.69 705.89 1148.84 680.79"/><polygon class="bk" points="1161.04 695.04 1152.18 720.14 1169.89 720.14 1161.04 695.04"/><polygon class="bk" points="1151.27 706.43 1142.41 731.54 1160.12 731.54 1151.27 706.43"/><polygon class="bk" points="1143.28 718.38 1134.43 743.48 1152.13 743.48 1143.28 718.38"/><polygon class="bl" points="1165.92 729.55 1157.14 754.44 1174.7 754.44 1165.92 729.55"/><polygon class="bm" points="1165.34 739.67 1156.65 764.3 1174.03 764.3 1165.34 739.67"/><polygon class="bn" points="1163 750.86 1154.4 775.24 1171.6 775.24 1163 750.86"/><polygon class="bo" points="1152.88 765.2 1144.7 788.4 1161.07 788.4 1152.88 765.2"/><polygon class="bp" points="1055.67 713.58 1047.79 735.91 1063.54 735.91 1055.67 713.58"/><polygon class="bq" points="1051.38 721.32 1043.39 744 1059.38 744 1051.38 721.32"/><polygon class="br" points="1028.11 713.73 1020.02 736.67 1036.2 736.67 1028.11 713.73"/><polygon class="bs" points="1019.94 718.81 1011.76 742.02 1028.13 742.02 1019.94 718.81"/><polygon class="bt" points="1020.13 734.35 1011.9 757.68 1028.36 757.68 1020.13 734.35"/><polygon class="bu" points="1005.05 731.56 996.8 754.97 1013.3 754.97 1005.05 731.56"/><polygon class="bv" points="1005.22 749.84 996.94 773.32 1013.5 773.32 1005.22 749.84"/><polygon class="bw" points="1003.38 764.22 995.08 787.77 1011.69 787.77 1003.38 764.22"/><polygon class="bx" points="980.04 752.89 971.86 776.07 988.21 776.07 980.04 752.89"/><polygon class="by" points="973.92 763.12 965.93 785.78 981.91 785.78 973.92 763.12"/><polygon class="bz" points="987.33 776.08 980.06 796.68 994.59 796.68 987.33 776.08"/><polygon class="ca" points="979.94 788.14 973.01 807.79 986.87 807.79 979.94 788.14"/><polygon class="cb" points="461.16 830.15 450.88 859.29 471.43 859.29 461.16 830.15"/><polygon class="cc" points="445.96 829.49 435.72 858.51 456.19 858.51 445.96 829.49"/><polygon class="cd" points="430.23 823.2 420.1 851.93 440.36 851.93 430.23 823.2"/><polygon class="ce" points="419.59 835.77 409.58 864.14 429.6 864.14 419.59 835.77"/><polygon class="cf" points="404.32 831.65 394.49 859.51 414.15 859.51 404.32 831.65"/><polygon class="cg" points="393.37 841.14 383.72 868.5 403.02 868.5 393.37 841.14"/><polygon class="ch" points="382.01 847.91 372.55 874.72 391.46 874.72 382.01 847.91"/><polygon class="ci" points="368.52 846.58 359.28 872.79 377.76 872.79 368.52 846.58"/><polygon class="cj" points="358.28 857.39 349.25 883.01 367.32 883.01 358.28 857.39"/><polygon class="ck" points="343 838.66 334.17 863.72 351.84 863.72 343 838.66"/><polygon class="cl" points="333.14 839.8 325.41 861.71 340.86 861.71 333.14 839.8"/><polygon class="cm" points="369.27 796.26 358.47 826.89 380.07 826.89 369.27 796.26"/><polygon class="cn" points="354.85 805.27 344.05 835.88 365.64 835.88 354.85 805.27"/><polygon class="co" points="340.86 819.79 330.07 850.39 351.65 850.39 340.86 819.79"/><polygon class="cp" points="323.73 800.39 312.95 830.97 334.51 830.97 323.73 800.39"/><polygon class="cq" points="310.58 817.09 299.8 847.65 321.36 847.65 310.58 817.09"/><polygon class="cr" points="293.61 808.49 282.9 838.84 304.31 838.84 293.61 808.49"/><polygon class="cs" points="280.24 818.24 269.63 848.32 290.85 848.32 280.24 818.24"/><polygon class="ct" points="261.92 818.74 251.41 848.56 272.44 848.56 261.92 818.74"/><polygon class="cu" points="257.18 837.88 246.81 867.26 267.54 867.26 257.18 837.88"/><polygon class="cv" points="252.16 853.28 241.95 882.2 262.36 882.2 252.16 853.28"/><polygon class="cw" points="236.66 855.45 227.63 881.07 245.7 881.07 236.66 855.45"/><polygon class="cx" points="310.98 771.72 302.44 795.92 319.51 795.92 310.98 771.72"/><polygon class="cy" points="312.91 764.05 302.6 793.31 323.23 793.31 312.91 764.05"/><polygon class="cz" points="296.53 760.63 286.41 789.32 306.65 789.32 296.53 760.63"/><polygon class="da" points="285.01 767.23 275.47 794.29 294.56 794.29 285.01 767.23"/><polygon class="db" points="273.27 773.65 263.81 800.47 282.73 800.47 273.27 773.65"/><polygon class="dc" points="269.62 796.12 260.2 822.83 279.04 822.83 269.62 796.12"/><polygon class="dd" points="259.09 802.64 249.7 829.26 268.48 829.26 259.09 802.64"/><polygon class="de" points="238.66 790.54 229.3 817.08 248.03 817.08 238.66 790.54"/><polygon class="df" points="238.64 816.88 229.3 843.35 247.97 843.35 238.64 816.88"/><polygon class="dg" points="218.25 805.31 208.94 831.71 227.56 831.71 218.25 805.31"/><polygon class="dh" points="216.32 829.68 207.03 856.01 225.6 856.01 216.32 829.68"/><polygon class="di" points="203.57 832.96 194.43 858.89 212.72 858.89 203.57 832.96"/><polygon class="dj" points="184.77 817.27 175.81 842.7 193.74 842.7 184.77 817.27"/><polygon class="dk" points="176.82 826.87 168.15 851.45 185.5 851.45 176.82 826.87"/><polygon class="dl" points="168.39 840.82 160 864.61 176.78 864.61 168.39 840.82"/><polygon class="am" points="154.49 820.75 146.71 842.82 162.28 842.82 154.49 820.75"/><polygon class="dm" points="291.71 696.51 284.76 716.21 298.66 716.21 291.71 696.51"/><polygon class="dn" points="286.38 706.61 278.32 729.46 294.44 729.46 286.38 706.61"/><polygon class="do" points="280.51 717.11 272.46 739.92 288.55 739.92 280.51 717.11"/><polygon class="dp" points="264.22 708.74 256.19 731.51 272.25 731.51 264.22 708.74"/><polygon class="dq" points="258.39 719.22 250.38 741.95 266.41 741.95 258.39 719.22"/><polygon class="dr" points="254.37 732.91 246.37 755.6 262.37 755.6 254.37 732.91"/><polygon class="ds" points="244.88 736.68 236.89 759.33 252.87 759.33 244.88 736.68"/><polygon class="dt" points="236.22 741.78 228.25 764.39 244.19 764.39 236.22 741.78"/><polygon class="du" points="230.01 751.13 222.05 773.7 237.97 773.7 230.01 751.13"/><polygon class="dv" points="209.27 735.98 201.32 758.52 217.21 758.52 209.27 735.98"/><polygon class="dw" points="208.51 753.38 200.58 775.88 216.44 775.88 208.51 753.38"/><polygon class="dx" points="196.52 753.65 188.6 776.11 204.44 776.11 196.52 753.65"/><polygon class="dy" points="191.51 765.38 183.23 788.88 199.8 788.88 191.51 765.38"/><polygon class="dz" points="178.15 765.46 168.74 792.15 187.56 792.15 178.15 765.46"/><polygon class="ea" points="169.03 779.55 158.82 808.51 179.24 808.51 169.03 779.55"/><polygon class="eb" points="147.82 766.31 136.99 797.04 158.66 797.04 147.82 766.31"/><polygon class="ec" points="140.75 790.31 129.73 821.57 151.78 821.57 140.75 790.31"/><polygon class="ed" points="117.48 778.42 106.37 809.93 128.6 809.93 117.48 778.42"/><polygon class="ed" points="106.69 790.63 95.58 822.14 117.8 822.14 106.69 790.63"/><polygon class="ed" points="95.02 802.04 83.9 833.55 106.13 833.55 95.02 802.04"/><polygon class="ee" points="80.86 810.61 69.88 841.75 91.84 841.75 80.86 810.61"/><polygon class="cy" points="69.78 820.56 59.46 849.82 80.1 849.82 69.78 820.56"/><polygon class="ef" points="596.01 785.37 585.45 815.31 606.57 815.31 596.01 785.37"/><polygon class="eg" points="585.75 794.61 575.25 824.36 596.24 824.36 585.75 794.61"/><polygon class="eh" points="569.85 797.76 559.6 826.84 580.11 826.84 569.85 797.76"/><polygon class="ei" points="556.47 801.45 546.41 829.98 566.54 829.98 556.47 801.45"/><polygon class="ej" points="542.14 811.34 532.26 839.34 552.02 839.34 542.14 811.34"/><polygon class="ek" points="528.62 802.13 518.92 829.63 538.32 829.63 528.62 802.13"/><polygon class="el" points="515.73 799.85 506.21 826.85 525.25 826.85 515.73 799.85"/><polygon class="em" points="504 793.3 494.65 819.81 513.35 819.81 504 793.3"/><polygon class="en" points="491.13 797.64 481.95 823.67 500.31 823.67 491.13 797.64"/><polygon class="eo" points="480.44 787.62 471.42 813.19 489.45 813.19 480.44 787.62"/><polygon class="ep" points="468.48 791.79 459.6 816.97 477.37 816.97 468.48 791.79"/><polygon class="eq" points="457.41 788.98 448.67 813.78 466.16 813.78 457.41 788.98"/><polygon class="er" points="445.64 789.18 437.02 813.61 454.25 813.61 445.64 789.18"/><polygon class="es" points="436.26 782.85 427.78 806.9 444.74 806.9 436.26 782.85"/><polygon class="et" points="432.82 768.2 424.58 791.56 441.06 791.56 432.82 768.2"/><polygon class="eu" points="418.08 773.78 410.09 796.42 426.06 796.42 418.08 773.78"/><polygon class="ev" points="414.34 762.3 406.82 783.63 421.87 783.63 414.34 762.3"/><polygon class="ew" points="422.11 774.4 415.17 794.1 429.06 794.1 422.11 774.4"/><polygon class="ex" points="417.16 779.3 410.29 798.78 424.03 798.78 417.16 779.3"/><polygon class="ey" points="651.25 718.37 642.49 743.21 660.01 743.21 651.25 718.37"/><polygon class="ez" points="638.97 720.31 629.59 746.92 648.36 746.92 638.97 720.31"/><polygon class="fa" points="630.98 744.25 621.58 770.9 640.38 770.9 630.98 744.25"/><polygon class="fb" points="614 723.92 604.61 750.54 623.38 750.54 614 723.92"/><polygon class="fc" points="603.37 734.63 594 761.19 612.73 761.19 603.37 734.63"/><polygon class="fd" points="591.14 733.15 581.79 759.65 600.48 759.65 591.14 733.15"/><polygon class="fe" points="579.24 739.85 569.91 766.28 588.56 766.28 579.24 739.85"/><polygon class="ff" points="566.51 737.43 557.21 763.8 575.82 763.8 566.51 737.43"/><polygon class="fg" points="555.58 753.48 546.3 779.8 564.86 779.8 555.58 753.48"/><polygon class="fh" points="541.34 732.67 532.18 758.65 550.5 758.65 541.34 732.67"/><polygon class="fi" points="530.55 753.32 521.52 778.94 539.59 778.94 530.55 753.32"/><polygon class="fj" points="518.88 741.01 509.97 766.29 527.79 766.29 518.88 741.01"/><polygon class="fk" points="507.24 759.47 498.44 784.4 516.03 784.4 507.24 759.47"/><polygon class="fl" points="495.94 754.45 487.27 779.04 504.61 779.04 495.94 754.45"/><polygon class="fm" points="484.87 746.14 476.31 770.4 493.43 770.4 484.87 746.14"/><polygon class="fn" points="474.01 743.91 465.55 767.91 482.48 767.91 474.01 743.91"/><polygon class="fo" points="463.58 735.44 455.19 759.22 471.96 759.22 463.58 735.44"/><polygon class="fp" points="452.43 753.31 444.13 776.87 460.74 776.87 452.43 753.31"/><polygon class="fq" points="442.27 754.34 434.04 777.68 450.51 777.68 442.27 754.34"/><polygon class="fr" points="433.69 759.07 425.57 782.09 441.81 782.09 433.69 759.07"/><polygon class="fs" points="424.68 758.8 416.76 781.25 432.59 781.25 424.68 758.8"/><polygon class="ft" points="415.11 757.07 408.15 776.81 422.07 776.81 415.11 757.07"/><polygon class="fu" points="1036.38 569.85 1029.31 589.88 1043.44 589.88 1036.38 569.85"/><polygon class="fv" points="1026.52 561.2 1019.36 581.51 1033.69 581.51 1026.52 561.2"/><polygon class="fw" points="1017.63 559.58 1010.49 579.81 1024.76 579.81 1017.63 559.58"/><polygon class="fx" points="1011.49 578.6 1004.39 598.75 1018.6 598.75 1011.49 578.6"/><polygon class="fy" points="1001.49 570.21 994.41 590.27 1008.57 590.27 1001.49 570.21"/><polygon class="fz" points="993.91 576.02 986.89 595.91 1000.93 595.91 993.91 576.02"/><polygon class="ga" points="986.9 581.56 980.07 600.95 993.75 600.95 986.9 581.56"/><polygon class="av" points="976.12 570.4 969.53 589.1 982.72 589.1 976.12 570.4"/><polygon class="gb" points="963.78 572.39 956.97 591.7 970.59 591.7 963.78 572.39"/><polygon class="gb" points="955.25 575.55 948.44 594.85 962.05 594.85 955.25 575.55"/><polygon class="gc" points="949.37 590.2 942.56 609.51 956.18 609.51 949.37 590.2"/><polygon class="gd" points="939.56 582.91 932.73 602.28 946.39 602.28 939.56 582.91"/><polygon class="ge" points="932.13 587 925.28 606.42 938.98 606.42 932.13 587"/><polygon class="ex" points="922.17 580.24 915.3 599.72 929.04 599.72 922.17 580.24"/><polygon class="gf" points="983.66 599.68 974.7 625.07 992.61 625.07 983.66 599.68"/><polygon class="gg" points="968.18 619.21 959.11 644.92 977.24 644.92 968.18 619.21"/><polygon class="gh" points="952.79 603.1 943.91 628.27 961.67 628.27 952.79 603.1"/><polygon class="gi" points="945.45 627.61 936.64 652.59 954.26 652.59 945.45 627.61"/><polygon class="gj" points="934.31 630.32 925.6 655.02 943.03 655.02 934.31 630.32"/><polygon class="gk" points="923.03 627.14 914.42 651.55 931.64 651.55 923.03 627.14"/><polygon class="gl" points="913.67 632.72 905.17 656.84 922.18 656.84 913.67 632.72"/><polygon class="gm" points="897 615.49 888.53 639.52 905.48 639.52 897 615.49"/><polygon class="gn" points="890.39 631.47 881.93 655.46 898.85 655.46 890.39 631.47"/><polygon class="go" points="881.07 641.89 872.63 665.83 889.51 665.83 881.07 641.89"/><polygon class="gp" points="866.26 622.21 857.84 646.1 874.69 646.1 866.26 622.21"/><polygon class="gq" points="859.31 641.08 850.9 664.92 867.72 664.92 859.31 641.08"/><polygon class="gr" points="844.94 635.64 836.58 659.33 853.29 659.33 844.94 635.64"/><polygon class="gs" points="832.71 643.56 824.6 666.55 840.82 666.55 832.71 643.56"/><polygon class="gt" points="839.59 659.18 832.6 679 846.58 679 839.59 659.18"/><polygon class="gu" points="758.41 646.34 748.99 673.04 767.83 673.04 758.41 646.34"/><polygon class="gv" points="742.78 647.45 733.49 673.8 752.07 673.8 742.78 647.45"/><polygon class="gw" points="739.88 665.04 730.68 691.11 749.07 691.11 739.88 665.04"/><polygon class="gx" points="720.27 657.8 711.22 683.46 729.33 683.46 720.27 657.8"/><polygon class="gy" points="712.45 667.34 703.54 692.61 721.36 692.61 712.45 667.34"/><polygon class="gz" points="710.46 683.83 701.68 708.69 719.22 708.69 710.46 683.83"/><polygon class="ha" points="699.79 688.92 691.18 713.33 708.41 713.33 699.79 688.92"/><polygon class="hb" points="688.76 692.95 680.3 716.93 697.22 716.93 688.76 692.95"/><polygon class="hc" points="684.46 705.05 676.15 728.6 692.77 728.6 684.46 705.05"/><polygon class="hd" points="673.56 707.26 665.87 729.07 681.25 729.07 673.56 707.26"/><polygon class="he" points="463.07 687.65 454.72 711.35 471.43 711.35 463.07 687.65"/><polygon class="hf" points="457.17 698.99 448.53 723.49 465.81 723.49 457.17 698.99"/><polygon class="hf" points="433.34 682.56 424.7 707.05 441.98 707.05 433.34 682.56"/><polygon class="hg" points="433.24 702.65 424.64 727.05 441.85 727.05 433.24 702.65"/><polygon class="hh" points="424.69 709.38 416.13 733.65 433.25 733.65 424.69 709.38"/><polygon class="hi" points="418.73 719.17 410.21 743.31 427.25 743.31 418.73 719.17"/><polygon class="hj" points="399.95 714 392.71 734.51 407.19 734.51 399.95 714"/><polygon class="hk" points="708.64 664.86 700.79 687.12 716.49 687.12 708.64 664.86"/><polygon class="hl" points="701.17 676.19 693.2 698.79 709.14 698.79 701.17 676.19"/><polygon class="hm" points="690.79 675.95 682.87 698.39 698.7 698.39 690.79 675.95"/><polygon class="hn" points="681.34 679.07 673.47 701.38 689.21 701.38 681.34 679.07"/><polygon class="ho" points="667.32 664.13 659.47 686.39 675.17 686.39 667.32 664.13"/><polygon class="hp" points="660.59 676.84 652.76 699.04 668.42 699.04 660.59 676.84"/><polygon class="hq" points="653.49 692.24 645.68 714.38 661.3 714.38 653.49 692.24"/><polygon class="hr" points="639.82 672.21 632.03 694.3 647.61 694.3 639.82 672.21"/><polygon class="hs" points="631.39 680.28 623.6 702.37 639.18 702.37 631.39 680.28"/><polygon class="ht" points="623.85 693.21 616.05 715.32 631.64 715.32 623.85 693.21"/><polygon class="hu" points="615.02 699.31 607.22 721.45 622.83 721.45 615.02 699.31"/><polygon class="hv" points="602.95 688.04 595.14 710.19 610.76 710.19 602.95 688.04"/><polygon class="hw" points="595.38 701.87 587.56 724.04 603.2 724.04 595.38 701.87"/><polygon class="hx" points="584.7 698.21 576.88 720.4 592.53 720.4 584.7 698.21"/><polygon class="hy" points="572.98 686.92 565.14 709.14 580.82 709.14 572.98 686.92"/><polygon class="hz" points="563.14 687.82 555.3 710.06 570.99 710.06 563.14 687.82"/><polygon class="ia" points="553.8 691.75 545.98 713.94 561.63 713.94 553.8 691.75"/><polygon class="ib" points="543.48 688.95 535.69 711.04 551.27 711.04 543.48 688.95"/><polygon class="ic" points="537.02 710.58 529.26 732.58 544.77 732.58 537.02 710.58"/><polygon class="id" points="527.59 712.76 519.87 734.66 535.31 734.66 527.59 712.76"/><polygon class="ie" points="516.83 706.05 509.14 727.85 524.52 727.85 516.83 706.05"/><polygon class="if" points="508.8 716.41 501.14 738.11 516.45 738.11 508.8 716.41"/><polygon class="gt" points="498.3 704.18 491.31 724 505.3 724 498.3 704.18"/><polygon class="ig" points="751.2 641.08 744.43 660.27 757.97 660.27 751.2 641.08"/><polygon class="ih" points="745.1 650.59 738.28 669.92 751.91 669.92 745.1 650.59"/><polygon class="ii" points="732.26 630.38 725.39 649.84 739.12 649.84 732.26 630.38"/><polygon class="ij" points="726.83 643.34 719.97 662.79 733.69 662.79 726.83 643.34"/><polygon class="ik" points="717.54 638.97 710.69 658.4 724.39 658.4 717.54 638.97"/><polygon class="il" points="711.75 650.16 704.91 669.56 718.59 669.56 711.75 650.16"/><polygon class="im" points="701.09 642.3 694.25 661.68 707.92 661.68 701.09 642.3"/><polygon class="in" points="699.36 663.86 692.53 683.21 706.18 683.21 699.36 663.86"/><polygon class="io" points="691.46 665.57 684.65 684.89 698.28 684.89 691.46 665.57"/><polygon class="ip" points="682.71 664.46 675.91 683.75 689.52 683.75 682.71 664.46"/><polygon class="iq" points="669.45 648.82 662.66 668.08 676.25 668.08 669.45 648.82"/><polygon class="ir" points="663.07 655.38 656.29 674.62 669.85 674.62 663.07 655.38"/><polygon class="is" points="657.69 664.14 651.03 683.01 664.34 683.01 657.69 664.14"/><polygon class="it" points="648.67 658.98 641.92 678.11 655.42 678.11 648.67 658.98"/><polygon class="iu" points="643.29 675.18 636.43 694.66 650.16 694.66 643.29 675.18"/><polygon class="iv" points="633.25 663.28 626.39 682.73 640.11 682.73 633.25 663.28"/><polygon class="iw" points="627.63 682.15 620.79 701.57 634.48 701.57 627.63 682.15"/><polygon class="ix" points="619.08 679.26 612.24 698.65 625.92 698.65 619.08 679.26"/><polygon class="ix" points="609.04 665.45 602.2 684.85 615.88 684.85 609.04 665.45"/><polygon class="ix" points="599.82 660.43 592.98 679.83 606.66 679.83 599.82 660.43"/><polygon class="iy" points="595.03 679.61 588.19 699 601.86 699 595.03 679.61"/><polygon class="iz" points="586.32 677.15 579.51 696.48 593.14 696.48 586.32 677.15"/><polygon class="ja" points="577.75 675.16 570.96 694.43 584.55 694.43 577.75 675.16"/><polygon class="jb" points="571.65 685.31 564.88 704.52 578.42 704.52 571.65 685.31"/><polygon class="jc" points="565.16 691.01 558.4 710.16 571.91 710.16 565.16 691.01"/><polygon class="jd" points="553.14 676.32 546.41 695.41 559.88 695.41 553.14 676.32"/><polygon class="je" points="548.67 691.39 541.93 710.49 555.4 710.49 548.67 691.39"/><polygon class="jf" points="539.34 684.62 532.53 703.91 546.14 703.91 539.34 684.62"/><polygon class="ex" points="530.52 678.12 523.65 697.6 537.39 697.6 530.52 678.12"/><polygon class="jg" points="327.05 643.56 319.08 666.14 335.01 666.14 327.05 643.56"/><polygon class="jh" points="313.32 643.48 305.48 665.71 321.16 665.71 313.32 643.48"/><polygon class="ji" points="306.85 652.06 299.04 674.2 314.65 674.2 306.85 652.06"/><polygon class="jj" points="306.47 671.61 298.68 693.7 314.26 693.7 306.47 671.61"/><polygon class="jk" points="293.15 667.64 285.37 689.69 300.92 689.69 293.15 667.64"/><polygon class="jl" points="286.11 675 278.35 696.99 293.86 696.99 286.11 675"/><polygon class="jm" points="281.08 685.93 273.34 707.88 288.82 707.88 281.08 685.93"/><polygon class="jn" points="272.5 690.39 264.78 712.29 280.23 712.29 272.5 690.39"/><polygon class="jo" points="261.61 690.59 253.9 712.45 269.32 712.45 261.61 690.59"/><polygon class="jp" points="256.67 702.35 248.97 724.16 264.36 724.16 256.67 702.35"/><polygon class="jq" points="244.81 700.16 237.12 721.96 252.5 721.96 244.81 700.16"/><polygon class="jr" points="236.41 704.78 228.72 726.58 244.09 726.58 236.41 704.78"/><polygon class="js" points="225.3 703.84 217.61 725.63 232.98 725.63 225.3 703.84"/><polygon class="jt" points="217.12 709.41 209.44 731.2 224.81 731.2 217.12 709.41"/><polygon class="ju" points="203.19 698.3 195.51 720.07 210.87 720.07 203.19 698.3"/><polygon class="jv" points="200.84 720.93 193.17 742.69 208.52 742.69 200.84 720.93"/><polygon class="jw" points="186.24 707.33 178.57 729.09 193.92 729.09 186.24 707.33"/><polygon class="jx" points="176.22 706.67 168.55 728.42 183.89 728.42 176.22 706.67"/><polygon class="jy" points="174.85 734.82 167.18 756.56 182.52 756.56 174.85 734.82"/><polygon class="jz" points="158.8 715.02 151.14 736.76 166.47 736.76 158.8 715.02"/><polygon class="ka" points="150.71 720.96 143.09 742.56 158.32 742.56 150.71 720.96"/><polygon class="kb" points="140.15 718.4 132.61 739.77 147.68 739.77 140.15 718.4"/><polygon class="kc" points="131.5 721.62 124.04 742.76 138.96 742.76 131.5 721.62"/><polygon class="kd" points="126.36 735.78 118.98 756.69 133.73 756.69 126.36 735.78"/><polygon class="ke" points="114.53 727.61 107.25 748.28 121.82 748.28 114.53 727.61"/><polygon class="kf" points="113.33 753.59 106.13 774 120.53 774 113.33 753.59"/><polygon class="kg" points="100.3 740.41 93.18 760.58 107.41 760.58 100.3 740.41"/><polygon class="ex" points="91.9 741.09 85.03 760.57 98.77 760.57 91.9 741.09"/><polygon class="kh" points="555.87 655.02 548.88 674.86 562.87 674.86 555.87 655.02"/><polygon class="ki" points="545.24 636.22 538.23 656.1 552.25 656.1 545.24 636.22"/><polygon class="kj" points="537.6 643.36 530.57 663.28 544.63 663.28 537.6 643.36"/><polygon class="kk" points="529.7 650.72 522.66 670.7 536.75 670.7 529.7 650.72"/><polygon class="kl" points="520.33 634.24 513.27 654.26 527.38 654.26 520.33 634.24"/><polygon class="km" points="512.15 642.93 505.07 663 519.23 663 512.15 642.93"/><polygon class="kn" points="503.32 639.99 496.22 660.1 510.41 660.1 503.32 639.99"/><polygon class="ko" points="496.21 655.09 489.11 675.24 503.32 675.24 496.21 655.09"/><polygon class="kp" points="486.17 642.75 479.05 662.96 493.3 662.96 486.17 642.75"/><polygon class="kq" points="478.03 647.45 470.89 667.7 485.17 667.7 478.03 647.45"/><polygon class="kr" points="468.95 644.14 461.8 664.44 476.11 664.44 468.95 644.14"/><polygon class="ks" points="462.76 656.8 455.58 677.15 469.94 677.15 462.76 656.8"/><polygon class="kt" points="449.54 642.2 442.41 662.42 456.67 662.42 449.54 642.2"/><polygon class="ku" points="445.99 660.56 438.9 680.65 453.07 680.65 445.99 660.56"/><polygon class="kv" points="439.37 668.09 432.33 688.05 446.41 688.05 439.37 668.09"/><polygon class="kw" points="429.2 662.47 422.2 682.32 436.2 682.32 429.2 662.47"/><polygon class="kx" points="428.02 669.04 421.24 688.26 434.8 688.26 428.02 669.04"/><polygon class="av" points="374.37 619.39 367.77 638.09 380.96 638.09 374.37 619.39"/><polygon class="av" points="365.68 628.72 359.08 647.42 372.27 647.42 365.68 628.72"/><polygon class="ky" points="358.2 626.15 351.58 644.92 364.82 644.92 358.2 626.15"/><polygon class="kz" points="350.3 626.7 343.63 645.62 356.97 645.62 350.3 626.7"/><polygon class="la" points="342.91 624.97 336.38 643.5 349.45 643.5 342.91 624.97"/><polygon class="lb" points="335.24 622.56 328.53 641.59 341.95 641.59 335.24 622.56"/><polygon class="lc" points="327.75 612.07 321.08 631 334.43 631 327.75 612.07"/><polygon class="ld" points="319.49 625.25 312.67 644.57 326.3 644.57 319.49 625.25"/><polygon class="le" points="310.63 610.06 303.8 629.45 317.47 629.45 310.63 610.06"/><polygon class="lf" points="299.64 613.28 292.78 632.74 306.5 632.74 299.64 613.28"/><polygon class="lg" points="299.39 637.52 292.54 656.95 306.25 656.95 299.39 637.52"/><polygon class="lh" points="290.4 635.79 283.58 655.13 297.23 655.13 290.4 635.79"/><polygon class="li" points="276.69 625.69 269.9 644.95 283.48 644.95 276.69 625.69"/><polygon class="lj" points="277.76 646.49 271 665.66 284.52 665.66 277.76 646.49"/><polygon class="lk" points="269.05 646.63 262.3 665.77 275.8 665.77 269.05 646.63"/><polygon class="ll" points="259.19 644.36 252.43 663.52 265.94 663.52 259.19 644.36"/><polygon class="lm" points="247.44 638.13 240.68 657.31 254.2 657.31 247.44 638.13"/><polygon class="ln" points="244.71 650.95 237.94 670.14 251.47 670.14 244.71 650.95"/><polygon class="lo" points="243.37 666.72 236.59 685.93 250.14 685.93 243.37 666.72"/><polygon class="lp" points="227.75 652.42 220.97 671.64 234.53 671.64 227.75 652.42"/><polygon class="lq" points="219.03 652.66 212.24 671.91 225.81 671.91 219.03 652.66"/><polygon class="lr" points="213.35 659.36 206.55 678.62 220.14 678.62 213.35 659.36"/><polygon class="ls" points="207.08 664.84 200.28 684.12 213.88 684.12 207.08 664.84"/><polygon class="lt" points="205.45 680.68 198.64 699.98 212.25 699.98 205.45 680.68"/><polygon class="lu" points="190.54 665.89 183.74 685.16 197.34 685.16 190.54 665.89"/><polygon class="lv" points="190.35 686.62 183.59 705.79 197.11 705.79 190.35 686.62"/><polygon class="lw" points="181.57 685.97 174.85 705.03 188.29 705.03 181.57 685.97"/><polygon class="lx" points="171.89 682.92 165.2 701.87 178.57 701.87 171.89 682.92"/><polygon class="ly" points="169.1 696.72 162.46 715.56 175.75 715.56 169.1 696.72"/><polygon class="lz" points="154.06 680.05 147.46 698.76 160.66 698.76 154.06 680.05"/><polygon class="ma" points="148.63 686.83 142.09 705.37 155.16 705.37 148.63 686.83"/><polygon class="mb" points="148.83 707.25 142.35 725.62 155.31 725.62 148.83 707.25"/><polygon class="mc" points="141 707.57 134.58 725.78 147.43 725.78 141 707.57"/><polygon class="md" points="131.16 702.81 124.75 721 137.57 721 131.16 702.81"/><polygon class="md" points="120.07 694.96 113.66 713.14 126.48 713.14 120.07 694.96"/><polygon class="me" points="1321.87 508.61 1314.84 528.54 1328.9 528.54 1321.87 508.61"/><polygon class="mf" points="1312.57 520.06 1305.05 541.4 1320.1 541.4 1312.57 520.06"/><polygon class="mg" points="1302.46 501.42 1294.8 523.15 1310.12 523.15 1302.46 501.42"/><polygon class="mh" points="1292.81 505.44 1285.15 527.15 1300.47 527.15 1292.81 505.44"/><polygon class="mi" points="1286.09 523.93 1278.44 545.63 1293.75 545.63 1286.09 523.93"/><polygon class="mj" points="1276.8 525.16 1269.15 546.86 1284.45 546.86 1276.8 525.16"/><polygon class="mk" points="1263.39 504.1 1255.75 525.79 1271.04 525.79 1263.39 504.1"/><polygon class="ml" points="1254.09 506.1 1246.44 527.78 1261.74 527.78 1254.09 506.1"/><polygon class="mm" points="1248.77 530.49 1241.12 552.16 1256.41 552.16 1248.77 530.49"/><polygon class="mn" points="1234.95 508.75 1227.31 530.41 1242.59 530.41 1234.95 508.75"/><polygon class="mo" points="1229.89 530.64 1222.26 552.29 1237.53 552.29 1229.89 530.64"/><polygon class="mp" points="1216.92 516.43 1209.29 538.08 1224.56 538.08 1216.92 516.43"/><polygon class="mq" points="1212.66 535.1 1205.11 556.5 1220.21 556.5 1212.66 535.1"/><polygon class="mr" points="1207.57 543.28 1200.11 564.43 1215.03 564.43 1207.57 543.28"/><polygon class="ms" points="1194.28 537.21 1186.91 558.12 1201.65 558.12 1194.28 537.21"/><polygon class="ks" points="1192.36 547.34 1185.18 567.69 1199.53 567.69 1192.36 547.34"/><polygon class="mt" points="1150.82 522.54 1143.58 543.05 1158.05 543.05 1150.82 522.54"/><polygon class="mu" points="1150.26 549.42 1143.05 569.86 1157.47 569.86 1150.26 549.42"/><polygon class="mv" points="1140.31 545.55 1133.13 565.93 1147.49 565.93 1140.31 545.55"/><polygon class="mw" points="1124.59 532.4 1117.43 552.71 1131.75 552.71 1124.59 532.4"/><polygon class="mx" points="1121.24 545.11 1114.11 565.34 1128.38 565.34 1121.24 545.11"/><polygon class="my" points="1112.28 546.55 1105.2 566.63 1119.37 566.63 1112.28 546.55"/><polygon class="mz" points="1112.27 563.7 1105.4 583.17 1119.14 583.17 1112.27 563.7"/><polygon class="ex" points="1104.34 566.17 1097.47 585.65 1111.21 585.65 1104.34 566.17"/><polygon class="ks" points="1034.23 537.13 1027.05 557.47 1041.4 557.47 1034.23 537.13"/><polygon class="na" points="1019.17 541.28 1011.76 562.28 1026.58 562.28 1019.17 541.28"/><polygon class="nb" points="1008.4 538.74 1001.03 559.65 1015.78 559.65 1008.4 538.74"/><polygon class="nc" points="1002.59 559.42 995.25 580.25 1009.94 580.25 1002.59 559.42"/><polygon class="nd" points="990.5 540.23 983.18 560.97 997.81 560.97 990.5 540.23"/><polygon class="ne" points="983.37 551.94 976.08 572.6 990.65 572.6 983.37 551.94"/><polygon class="nf" points="973.64 547 966.39 567.57 980.9 567.57 973.64 547"/><polygon class="ng" points="965.36 547.3 958.13 567.79 972.58 567.79 965.36 547.3"/><polygon class="nh" points="957.17 561.65 949.89 582.32 964.46 582.32 957.17 561.65"/><polygon class="ni" points="949.65 540.88 942.17 562.1 957.14 562.1 949.65 540.88"/><polygon class="nj" points="938.85 559.25 931.35 580.52 946.35 580.52 938.85 559.25"/><polygon class="nk" points="929.56 555.81 922.04 577.13 937.08 577.13 929.56 555.81"/><polygon class="nl" points="920.94 557.97 913.4 579.34 928.48 579.34 920.94 557.97"/><polygon class="nm" points="910.41 553.81 902.92 575.05 917.9 575.05 910.41 553.81"/><polygon class="nn" points="906.16 566.82 898.74 587.85 913.57 587.85 906.16 566.82"/><polygon class="no" points="889.51 557.98 882.17 578.79 896.86 578.79 889.51 557.98"/><polygon class="bz" points="884.63 561.88 877.36 582.48 891.89 582.48 884.63 561.88"/><polygon class="np" points="879.1 564.96 872 585.09 886.2 585.09 879.1 564.96"/><polygon class="nq" points="870.8 568.95 863.65 589.22 877.95 589.22 870.8 568.95"/><polygon class="nr" points="862.61 578.38 855.41 598.79 869.81 598.79 862.61 578.38"/><polygon class="ns" points="852.84 559.72 845.67 580.07 860.02 580.07 852.84 559.72"/><polygon class="nt" points="844.29 561.23 837.15 581.48 851.43 581.48 844.29 561.23"/><polygon class="nu" points="836.4 573.84 829.29 594 843.51 594 836.4 573.84"/><polygon class="nv" points="827.63 573.62 820.55 593.68 834.7 593.68 827.63 573.62"/><polygon class="nw" points="821.33 584.85 814.3 604.76 828.35 604.76 821.33 584.85"/><polygon class="nx" points="811.86 579.98 804.92 599.67 818.81 599.67 811.86 579.98"/><polygon class="ny" points="805.15 587.88 798.28 607.36 812.02 607.36 805.15 587.88"/><polygon class="nz" points="794.46 575.68 787.66 594.95 801.25 594.95 794.46 575.68"/><polygon class="oa" points="784.07 573.16 777.37 592.14 790.76 592.14 784.07 573.16"/><polygon class="ob" points="783.46 592.71 776.92 611.26 790.01 611.26 783.46 592.71"/><polygon class="oc" points="776.58 594.84 770.18 612.98 782.97 612.98 776.58 594.84"/><polygon class="od" points="774.84 600.68 768.58 618.43 781.1 618.43 774.84 600.68"/><polygon class="oe" points="775.29 614.15 769.12 631.64 781.46 631.64 775.29 614.15"/><polygon class="of" points="720.56 608.41 713.68 627.91 727.44 627.91 720.56 608.41"/><polygon class="og" points="710.62 608.66 703.65 628.42 717.58 628.42 710.62 608.66"/><polygon class="oh" points="708.6 623.24 701.62 643.04 715.59 643.04 708.6 623.24"/><polygon class="gt" points="697.07 618.77 690.08 638.59 704.06 638.59 697.07 618.77"/><polygon class="gt" points="686.83 612.05 679.84 631.88 693.82 631.88 686.83 612.05"/><polygon class="gt" points="681.24 627.72 674.25 647.55 688.23 647.55 681.24 627.72"/><polygon class="gt" points="671.83 617.74 664.84 637.56 678.83 637.56 671.83 617.74"/><polygon class="oi" points="663.4 614.12 656.41 633.94 670.39 633.94 663.4 614.12"/><polygon class="oj" points="655.14 618.41 648.15 638.23 662.13 638.23 655.14 618.41"/><polygon class="ok" points="646.86 621.25 639.88 641.05 653.85 641.05 646.86 621.25"/><polygon class="ol" points="639.42 630.44 632.44 650.23 646.4 650.23 639.42 630.44"/><polygon class="om" points="631.47 629.55 624.49 649.34 638.45 649.34 631.47 629.55"/><polygon class="on" points="621.7 621.69 614.73 641.46 628.67 641.46 621.7 621.69"/><polygon class="oo" points="612.7 616.04 605.73 635.8 619.67 635.8 612.7 616.04"/><polygon class="op" points="605.83 628.42 598.87 648.17 612.8 648.17 605.83 628.42"/><polygon class="oq" points="597.08 623.78 590.12 643.52 604.04 643.52 597.08 623.78"/><polygon class="or" points="589.79 635.37 582.83 655.1 596.75 655.1 589.79 635.37"/><polygon class="os" points="581.3 633.54 574.35 653.26 588.26 653.26 581.3 633.54"/><polygon class="ot" points="572.3 622.36 565.35 642.07 579.25 642.07 572.3 622.36"/><polygon class="ou" points="564.33 621.34 557.38 641.04 571.27 641.04 564.33 621.34"/><polygon class="ov" points="556 630.84 549.05 650.53 562.94 650.53 556 630.84"/><polygon class="ow" points="547.71 633.84 540.77 653.51 554.65 653.51 547.71 633.84"/><polygon class="ox" points="539.48 630.04 532.54 649.71 546.41 649.71 539.48 630.04"/><polygon class="oy" points="531.12 633.37 524.19 653.03 538.05 653.03 531.12 633.37"/><polygon class="oz" points="522.83 636.31 515.92 655.92 529.75 655.92 522.83 636.31"/><polygon class="pa" points="514.93 624.92 508.06 644.42 521.81 644.42 514.93 624.92"/><polygon class="pb" points="506.48 640.98 499.63 660.38 513.32 660.38 506.48 640.98"/><polygon class="pc" points="498.86 622.63 492.05 641.93 505.67 641.93 498.86 622.63"/><polygon class="pd" points="490.58 636.17 483.81 655.37 497.36 655.37 490.58 636.17"/><polygon class="pe" points="482.69 635.81 475.95 654.91 489.42 654.91 482.69 635.81"/><polygon class="pf" points="475.14 623.94 468.45 642.9 481.82 642.9 475.14 623.94"/><polygon class="pg" points="467.25 633.26 460.64 652 473.86 652 467.25 633.26"/><polygon class="ph" points="459.39 634.95 452.7 653.91 466.08 653.91 459.39 634.95"/><polygon class="pi" points="451.61 631.9 444.9 650.91 458.31 650.91 451.61 631.9"/><polygon class="pj" points="443.79 624.84 437.06 643.9 450.51 643.9 443.79 624.84"/><polygon class="pk" points="428.76 623.55 422.02 642.66 435.5 642.66 428.76 623.55"/><polygon class="pl" points="441.69 640.41 435 659.37 448.37 659.37 441.69 640.41"/><polygon class="av" points="433.05 645.27 426.45 663.97 439.64 663.97 433.05 645.27"/></g></symbol></defs><use width="1920.96" height="1080" transform="translate(-0.45)" xlink:href="#d"/></svg>