<svg xmlns="http://www.w3.org/2000/svg" xmlns:xlink="http://www.w3.org/1999/xlink" width="1920" height="1536" viewBox="0 0 1920 1536"><defs><style>.a,.b,.c,.l{fill:none;}.aa,.ab,.ac,.ad,.ae,.af,.ag,.ah,.ai,.aj,.ak,.al,.am,.an,.ao,.ap,.aq,.ar,.as,.at,.au,.av,.aw,.ax,.ay,.az,.b,.ba,.bb,.bc,.bd,.be,.bf,.bg,.bh,.bi,.bj,.bk,.bl,.bm,.bn,.bo,.bp,.bq,.br,.bs,.bt,.bu,.bv,.bw,.bx,.by,.bz,.c,.ca,.cb,.cc,.cd,.ce,.cf,.cg,.ch,.ci,.cj,.ck,.cl,.cm,.cn,.co,.cp,.cq,.cr,.cs,.ct,.cu,.cv,.cw,.cx,.cy,.cz,.da,.db,.dc,.dd,.de,.df,.dg,.dh,.di,.dj,.dk,.dl,.dm,.dn,.do,.dp,.dq,.dr,.ds,.dt,.du,.dv,.dw,.dx,.dy,.dz,.ea,.eb,.ec,.ed,.ee,.ef,.eg,.eh,.ei,.ej,.ek,.el,.em,.en,.eo,.ep,.eq,.er,.es,.et,.eu,.ev,.ew,.ex,.ey,.ez,.fa,.fb,.fc,.fd,.fe,.ff,.fg,.fh,.fi,.fj,.fk,.fl,.fm,.fn,.fo,.fp,.fq,.fr,.fs,.ft,.fu,.fv,.fw,.fx,.fy,.fz,.ga,.gb,.gc,.gd,.ge,.gf,.gg,.gh,.gi,.gj,.gk,.gl,.gm,.gn,.go,.gp,.gq,.gr,.gs,.gt,.gu,.gv,.gw,.gx,.gy,.gz,.ha,.hb,.hc,.hd,.he,.hf,.hg,.hh,.hi,.hj,.hk,.hl,.hm,.hn,.ho,.hp,.hq,.hr,.hs,.ht,.hu,.hv,.hw,.hx,.hy,.hz,.ia,.ib,.ic,.id,.ie,.if,.ig,.ih,.ii,.ij,.ik,.il,.im,.in,.io,.ip,.iq,.ir,.is,.it,.iu,.iv,.iw,.ix,.iy,.iz,.ja,.jb,.jc,.jd,.je,.jf,.jg,.jh,.ji,.jj,.jk,.jl,.jm,.jn,.jo,.jp,.jq,.jr,.js,.jt,.ju,.jv,.jw,.jx,.jy,.jz,.ka,.kb,.kc,.kd,.ke,.kf,.kg,.kh,.ki,.kj,.kk,.kl,.km,.kn,.ko,.kp,.kq,.kr,.ks,.kt,.ku,.kv,.kw,.kx,.ky,.kz,.l,.la,.lb,.lc,.ld,.le,.lf,.lg,.lh,.li,.lj,.lk,.ll,.lm,.ln,.lo,.lp,.lq,.lr,.ls,.lt,.lu,.lv,.lw,.lx,.ly,.lz,.ma,.mb,.mc,.md,.me,.mf,.mg,.mh,.mi,.mj,.mk,.ml,.mm,.mn,.mo,.mp,.mq,.mr,.ms,.mt,.mu,.mv,.mw,.mx,.my,.mz,.n,.na,.nb,.nc,.nd,.ne,.nf,.ng,.nh,.ni,.nj,.nk,.nl,.nm,.nn,.no,.np,.nq,.nr,.ns,.nt,.nu,.nv,.nw,.nx,.ny,.nz,.o,.oa,.ob,.oc,.od,.oe,.of,.og,.oh,.oi,.oj,.ok,.ol,.om,.on,.oo,.op,.oq,.or,.os,.ot,.ou,.ov,.ow,.ox,.oy,.oz,.p,.pa,.pb,.pc,.pd,.q,.r,.s,.t,.u,.v,.w,.x,.y,.z{stroke:#d9b776;}.b,.c{stroke-miterlimit:11.34;}.b{stroke-width:1.42px;}.c{stroke-linecap:round;stroke-width:1.98px;}.d{clip-path:url(#a);}.aa,.ab,.ac,.ad,.ae,.af,.ag,.ah,.ai,.aj,.ak,.al,.am,.an,.ao,.ap,.aq,.ar,.as,.at,.au,.av,.aw,.ax,.ay,.az,.ba,.bb,.bc,.bd,.be,.bf,.bg,.bh,.bi,.bj,.bk,.bl,.bm,.bn,.bo,.bp,.bq,.br,.bs,.bt,.bu,.bv,.bw,.bx,.by,.bz,.ca,.cb,.cc,.cd,.ce,.cf,.cg,.ch,.ci,.cj,.ck,.cl,.cm,.cn,.co,.cp,.cq,.cr,.cs,.ct,.cu,.cv,.cw,.cx,.cy,.cz,.da,.db,.dc,.dd,.de,.df,.dg,.dh,.di,.dj,.dk,.dl,.dm,.dn,.do,.dp,.dq,.dr,.ds,.dt,.du,.dv,.dw,.dx,.dy,.dz,.e,.ea,.eb,.ec,.ed,.ee,.ef,.eg,.eh,.ei,.ej,.ek,.el,.em,.en,.eo,.ep,.eq,.er,.es,.et,.eu,.ev,.ew,.ex,.ey,.ez,.fa,.fb,.fc,.fd,.fe,.ff,.fg,.fh,.fi,.fj,.fk,.fl,.fm,.fn,.fo,.fp,.fq,.fr,.fs,.ft,.fu,.fv,.fw,.fx,.fy,.fz,.ga,.gb,.gc,.gd,.ge,.gf,.gg,.gh,.gi,.gj,.gk,.gl,.gm,.gn,.go,.gp,.gq,.gr,.gs,.gt,.gu,.gv,.gw,.gx,.gy,.gz,.ha,.hb,.hc,.hd,.he,.hf,.hg,.hh,.hi,.hj,.hk,.hl,.hm,.hn,.ho,.hp,.hq,.hr,.hs,.ht,.hu,.hv,.hw,.hx,.hy,.hz,.ia,.ib,.ic,.id,.ie,.if,.ig,.ih,.ii,.ij,.ik,.il,.im,.in,.io,.ip,.iq,.ir,.is,.it,.iu,.iv,.iw,.ix,.iy,.iz,.ja,.jb,.jc,.jd,.je,.jf,.jg,.jh,.ji,.jj,.jk,.jl,.jm,.jn,.jo,.jp,.jq,.jr,.js,.jt,.ju,.jv,.jw,.jx,.jy,.jz,.ka,.kb,.kc,.kd,.ke,.kf,.kg,.kh,.ki,.kj,.kk,.kl,.km,.kn,.ko,.kp,.kq,.kr,.ks,.kt,.ku,.kv,.kw,.kx,.ky,.kz,.la,.lb,.lc,.ld,.le,.lf,.lg,.lh,.li,.lj,.lk,.ll,.lm,.ln,.lo,.lp,.lq,.lr,.ls,.lt,.lu,.lv,.lw,.lx,.ly,.lz,.ma,.mb,.mc,.md,.me,.mf,.mg,.mh,.mi,.mj,.mk,.ml,.mm,.mn,.mo,.mp,.mq,.mr,.ms,.mt,.mu,.mv,.mw,.mx,.my,.mz,.n,.na,.nb,.nc,.nd,.ne,.nf,.ng,.nh,.ni,.nj,.nk,.nl,.nm,.nn,.no,.np,.nq,.nr,.ns,.nt,.nu,.nv,.nw,.nx,.ny,.nz,.o,.oa,.ob,.oc,.od,.oe,.of,.og,.oh,.oi,.oj,.ok,.ol,.om,.on,.oo,.op,.oq,.or,.os,.ot,.ou,.ov,.ow,.ox,.oy,.oz,.p,.pa,.pb,.pc,.pd,.q,.r,.s,.t,.u,.v,.w,.x,.y,.z{fill:#161515;}.f{clip-path:url(#b);}.g{opacity:0.5;}.h,.i{isolation:isolate;}.i{font-size:107.89px;fill:#d9b776;font-family:morse;}.j{font-size:104.52px;}.k{font-size:112.39px;}.l{stroke-miterlimit:8.09;stroke-width:11.09px;}.m{fill:url(#c);}.n{stroke-width:1.34px;}.o{stroke-width:1.38px;}.p{stroke-width:1.39px;}.q{stroke-width:1.37px;}.r{stroke-width:2px;}.s{stroke-width:1.39px;}.t{stroke-width:1.35px;}.u{stroke-width:1.36px;}.v{stroke-width:1.33px;}.w{stroke-width:1.38px;}.x{stroke-width:1.4px;}.y{stroke-width:1.39px;}.z{stroke-width:1.26px;}.aa{stroke-width:1.38px;}.ab{stroke-width:1.52px;}.ac{stroke-width:1.59px;}.ad{stroke-width:1.51px;}.ae{stroke-width:1.39px;}.af{stroke-width:1.54px;}.ag{stroke-width:1.39px;}.ah{stroke-width:1.38px;}.ai{stroke-width:1.43px;}.aj{stroke-width:1.59px;}.ak{stroke-width:1.52px;}.al{stroke-width:1.52px;}.am{stroke-width:2.07px;}.an{stroke-width:1.54px;}.ao{stroke-width:1.5px;}.ap{stroke-width:1.48px;}.aq{stroke-width:1.53px;}.ar{stroke-width:1.59px;}.as{stroke-width:1.35px;}.at{stroke-width:2.08px;}.au{stroke-width:1.59px;}.av{stroke-width:2.02px;}.aw{stroke-width:1.53px;}.ax{stroke-width:1.53px;}.ay{stroke-width:1.51px;}.az{stroke-width:1.53px;}.ba{stroke-width:1.52px;}.bb{stroke-width:1.59px;}.bc{stroke-width:1.99px;}.bd{stroke-width:1.37px;}.be{stroke-width:1.53px;}.bf{stroke-width:1.28px;}.bg{stroke-width:1.49px;}.bh{stroke-width:2.21px;}.bi{stroke-width:1.49px;}.bj{stroke-width:1.6px;}.bk{stroke-width:2.03px;}.bl{stroke-width:1.48px;}.bm{stroke-width:2.21px;}.bn{stroke-width:1.68px;}.bo{stroke-width:2.01px;}.bp{stroke-width:1.48px;}.bq{stroke-width:1.6px;}.br{stroke-width:2.07px;}.bs{stroke-width:1.37px;}.bt{stroke-width:1.6px;}.bu{stroke-width:1.59px;}.bv{stroke-width:2.21px;}.bw{stroke-width:1.66px;}.bx{stroke-width:2.1px;}.by{stroke-width:1.48px;}.bz{stroke-width:1.68px;}.ca{stroke-width:2.21px;}.cb{stroke-width:1.67px;}.cc{stroke-width:2.02px;}.cd{stroke-width:2.08px;}.ce{stroke-width:1.62px;}.cf{stroke-width:1.69px;}.cg{stroke-width:1.57px;}.ch{stroke-width:1.35px;}.ci{stroke-width:1.7px;}.cj{stroke-width:1.6px;}.ck{stroke-width:1.61px;}.cl{stroke-width:1.37px;}.cm{stroke-width:1.6px;}.cn{stroke-width:2.07px;}.co{stroke-width:1.66px;}.cp{stroke-width:1.48px;}.cq{stroke-width:2.2px;}.cr{stroke-width:1.33px;}.cs{stroke-width:1.59px;}.ct{stroke-width:1.7px;}.cu{stroke-width:1.32px;}.cv{stroke-width:1.58px;}.cw{stroke-width:1.69px;}.cx{stroke-width:2.08px;}.cy{stroke-width:1.97px;}.cz{stroke-width:2.21px;}.da{stroke-width:2.21px;}.db{stroke-width:1.47px;}.dc{stroke-width:1.47px;}.dd{stroke-width:2.03px;}.de{stroke-width:1.57px;}.df{stroke-width:1.3px;}.dg{stroke-width:2.07px;}.dh{stroke-width:2.21px;}.di{stroke-width:1.47px;}.dj{stroke-width:2.21px;}.dk{stroke-width:2.07px;}.dl{stroke-width:1.31px;}.dm{stroke-width:1.96px;}.dn{stroke-width:1.28px;}.do{stroke-width:2.03px;}.dp{stroke-width:1.45px;}.dq{stroke-width:2.21px;}.dr{stroke-width:1.43px;}.ds{stroke-width:2.04px;}.dt{stroke-width:2.13px;}.du{stroke-width:2.21px;}.dv{stroke-width:2.01px;}.dw{stroke-width:1.39px;}.dx{stroke-width:2.18px;}.dy{stroke-width:2.21px;}.dz{stroke-width:1.38px;}.ea{stroke-width:2.08px;}.eb{stroke-width:1.46px;}.ec{stroke-width:2.14px;}.ed{stroke-width:2.01px;}.ee{stroke-width:1.43px;}.ef{stroke-width:1.99px;}.eg{stroke-width:1.86px;}.eh{stroke-width:1.41px;}.ei{stroke-width:1.98px;}.ej{stroke-width:2.02px;}.ek{stroke-width:1.56px;}.el{stroke-width:1.54px;}.em{stroke-width:2.03px;}.en{stroke-width:1.43px;}.eo{stroke-width:1.99px;}.ep{stroke-width:1.55px;}.eq{stroke-width:2.13px;}.er{stroke-width:2.15px;}.es{stroke-width:1.43px;}.et{stroke-width:2.21px;}.eu{stroke-width:2.21px;}.ev{stroke-width:1.43px;}.ew{stroke-width:1.53px;}.ex{stroke-width:1.91px;}.ey{stroke-width:1.43px;}.ez{stroke-width:2.04px;}.fa{stroke-width:1.44px;}.fb{stroke-width:1.8px;}.fc{stroke-width:2px;}.fd{stroke-width:1.43px;}.fe{stroke-width:1.46px;}.ff{stroke-width:2px;}.fg{stroke-width:2.08px;}.fh{stroke-width:1.41px;}.fi{stroke-width:2.34px;}.fj{stroke-width:1.81px;}.fk{stroke-width:1.78px;}.fl{stroke-width:1.4px;}.fm{stroke-width:1.52px;}.fn{stroke-width:2.07px;}.fo{stroke-width:2.31px;}.fp{stroke-width:1.48px;}.fq{stroke-width:1.98px;}.fr{stroke-width:2.21px;}.fs{stroke-width:1.39px;}.ft{stroke-width:2.19px;}.fu{stroke-width:2.18px;}.fv{stroke-width:1.97px;}.fw{stroke-width:1.92px;}.fx{stroke-width:2.16px;}.fy{stroke-width:2.34px;}.fz{stroke-width:1.99px;}.ga{stroke-width:1.45px;}.gb{stroke-width:2.25px;}.gc{stroke-width:1.5px;}.gd{stroke-width:1.4px;}.ge{stroke-width:2.24px;}.gf{stroke-width:1.9px;}.gg{stroke-width:1.39px;}.gh{stroke-width:1.45px;}.gi{stroke-width:2.03px;}.gj{stroke-width:2.35px;}.gk{stroke-width:1.48px;}.gl{stroke-width:1.86px;}.gm{stroke-width:1.71px;}.gn{stroke-width:2.13px;}.go{stroke-width:2.17px;}.gp{stroke-width:1.94px;}.gq{stroke-width:1.47px;}.gr{stroke-width:2.29px;}.gs{stroke-width:2.06px;}.gt{stroke-width:1.54px;}.gu{stroke-width:2.02px;}.gv{stroke-width:1.46px;}.gw{stroke-width:1.38px;}.gx{stroke-width:2.12px;}.gy{stroke-width:2.06px;}.gz{stroke-width:2.22px;}.ha{stroke-width:1.63px;}.hb{stroke-width:1.38px;}.hc{stroke-width:2.12px;}.hd{stroke-width:2.18px;}.he{stroke-width:1.67px;}.hf{stroke-width:1.92px;}.hg{stroke-width:2.26px;}.hh{stroke-width:2px;}.hi{stroke-width:1.25px;}.hj{stroke-width:2.2px;}.hk{stroke-width:1.39px;}.hl{stroke-width:2.2px;}.hm{stroke-width:1.88px;}.hn{stroke-width:1.41px;}.ho{stroke-width:1.37px;}.hp{stroke-width:1.47px;}.hq{stroke-width:2.03px;}.hr{stroke-width:1.38px;}.hs{stroke-width:2.24px;}.ht{stroke-width:2.11px;}.hu{stroke-width:1.79px;}.hv{stroke-width:2.05px;}.hw{stroke-width:2.23px;}.hx{stroke-width:1.59px;}.hy{stroke-width:1.97px;}.hz{stroke-width:1.37px;}.ia{stroke-width:1.37px;}.ib{stroke-width:2px;}.ic{stroke-width:2.35px;}.id{stroke-width:2.36px;}.ie{stroke-width:2.14px;}.if{stroke-width:1.38px;}.ig{stroke-width:1.35px;}.ih{stroke-width:1.95px;}.ii{stroke-width:2.29px;}.ij{stroke-width:2.38px;}.ik{stroke-width:2.08px;}.il{stroke-width:1.37px;}.im{stroke-width:2.16px;}.in{stroke-width:2.43px;}.io{stroke-width:1.71px;}.ip{stroke-width:2.05px;}.iq{stroke-width:1.98px;}.ir{stroke-width:2.37px;}.is{stroke-width:1.42px;}.it{stroke-width:2.08px;}.iu{stroke-width:2.39px;}.iv{stroke-width:1.34px;}.iw{stroke-width:2.19px;}.ix{stroke-width:1.36px;}.iy{stroke-width:1.62px;}.iz{stroke-width:2.63px;}.ja{stroke-width:2.55px;}.jb{stroke-width:2.1px;}.jc{stroke-width:1.85px;}.jd{stroke-width:2.04px;}.je{stroke-width:2.4px;}.jf{stroke-width:2.64px;}.jg{stroke-width:2.64px;}.jh{stroke-width:2.32px;}.ji{stroke-width:1.7px;}.jj{stroke-width:1.81px;}.jk{stroke-width:1.28px;}.jl{stroke-width:2.12px;}.jm{stroke-width:1.37px;}.jn{stroke-width:1.34px;}.jo{stroke-width:1.97px;}.jp{stroke-width:1.9px;}.jq{stroke-width:2.09px;}.jr{stroke-width:1.95px;}.js{stroke-width:2.07px;}.jt{stroke-width:2.03px;}.ju{stroke-width:2.47px;}.jv{stroke-width:1.27px;}.jw{stroke-width:2.27px;}.jx{stroke-width:1.68px;}.jy{stroke-width:1.92px;}.jz{stroke-width:1.86px;}.ka{stroke-width:1.36px;}.kb{stroke-width:2.65px;}.kc{stroke-width:2.04px;}.kd{stroke-width:1.29px;}.ke{stroke-width:1.87px;}.kf{stroke-width:2.27px;}.kg{stroke-width:2.42px;}.kh{stroke-width:1.41px;}.ki{stroke-width:2.14px;}.kj{stroke-width:1.72px;}.kk{stroke-width:1.3px;}.kl{stroke-width:1.89px;}.km{stroke-width:1.4px;}.kn{stroke-width:2.02px;}.ko{stroke-width:2.39px;}.kp{stroke-width:1.83px;}.kq{stroke-width:1.84px;}.kr{stroke-width:2px;}.ks{stroke-width:2.46px;}.kt{stroke-width:1.87px;}.ku{stroke-width:2.13px;}.kv{stroke-width:1.74px;}.kw{stroke-width:2.07px;}.kx{stroke-width:2.57px;}.ky{stroke-width:2.01px;}.kz{stroke-width:2.62px;}.la{stroke-width:1.97px;}.lb{stroke-width:1.63px;}.lc{stroke-width:1.52px;}.ld{stroke-width:2.51px;}.le{stroke-width:1.85px;}.lf{stroke-width:2.59px;}.lg{stroke-width:1.21px;}.lh{stroke-width:1.76px;}.li{stroke-width:1.72px;}.lj{stroke-width:2.07px;}.lk{stroke-width:1.68px;}.ll{stroke-width:1.23px;}.lm{stroke-width:1.81px;}.ln{stroke-width:1.83px;}.lo{stroke-width:1.73px;}.lp{stroke-width:1.81px;}.lq{stroke-width:1.71px;}.lr{stroke-width:1.86px;}.ls{stroke-width:1.62px;}.lt{stroke-width:1.94px;}.lu{stroke-width:1.79px;}.lv{stroke-width:1.95px;}.lw{stroke-width:2.39px;}.lx{stroke-width:1.93px;}.ly{stroke-width:2px;}.lz{stroke-width:1.63px;}.ma{stroke-width:1.78px;}.mb{stroke-width:1.8px;}.mc{stroke-width:1.9px;}.md{stroke-width:1.84px;}.me{stroke-width:1.86px;}.mf{stroke-width:1.79px;}.mg{stroke-width:1.75px;}.mh{stroke-width:1.66px;}.mi{stroke-width:1.6px;}.mj{stroke-width:2.39px;}.mk{stroke-width:1.58px;}.ml{stroke-width:1.77px;}.mm{stroke-width:1.82px;}.mn{stroke-width:2.36px;}.mo{stroke-width:1.75px;}.mp{stroke-width:1.92px;}.mq{stroke-width:1.8px;}.mr{stroke-width:1.45px;}.ms{stroke-width:1.9px;}.mt{stroke-width:2.39px;}.mu{stroke-width:1.72px;}.mv{stroke-width:2.16px;}.mw{stroke-width:1.63px;}.mx{stroke-width:2.08px;}.my{stroke-width:1.63px;}.mz{stroke-width:1.63px;}.na{stroke-width:1.86px;}.nb{stroke-width:1.86px;}.nc{stroke-width:2.3px;}.nd{stroke-width:2.39px;}.ne{stroke-width:1.83px;}.nf{stroke-width:1.57px;}.ng{stroke-width:1.64px;}.nh{stroke-width:1.9px;}.ni{stroke-width:1.96px;}.nj{stroke-width:1.63px;}.nk{stroke-width:1.86px;}.nl{stroke-width:1.94px;}.nm{stroke-width:1.77px;}.nn{stroke-width:2.07px;}.no{stroke-width:1.63px;}.np{stroke-width:1.99px;}.nq{stroke-width:1.73px;}.nr{stroke-width:1.68px;}.ns{stroke-width:2.39px;}.nt{stroke-width:1.73px;}.nu{stroke-width:1.62px;}.nv{stroke-width:1.94px;}.nw{stroke-width:1.51px;}.nx{stroke-width:1.81px;}.ny{stroke-width:2.39px;}.nz{stroke-width:1.58px;}.oa{stroke-width:1.55px;}.ob{stroke-width:2.01px;}.oc{stroke-width:2.05px;}.od{stroke-width:2.08px;}.oe{stroke-width:1.54px;}.of{stroke-width:1.74px;}.og{stroke-width:2.39px;}.oh{stroke-width:1.59px;}.oi{stroke-width:2.36px;}.oj{stroke-width:1.53px;}.ok{stroke-width:1.75px;}.ol{stroke-width:2.39px;}.om{stroke-width:1.71px;}.on{stroke-width:1.68px;}.oo{stroke-width:1.65px;}.op{stroke-width:2.21px;}.oq{stroke-width:2.21px;}.or{stroke-width:2.39px;}.os{stroke-width:1.6px;}.ot{stroke-width:1.65px;}.ou{stroke-width:2.38px;}.ov{stroke-width:2.39px;}.ow{stroke-width:2.32px;}.ox{stroke-width:2.13px;}.oy{stroke-width:2.29px;}.oz{stroke-width:1.23px;}.pa{stroke-width:1.36px;}.pb{stroke-width:2.32px;}.pc{stroke-width:2.33px;}.pd{stroke-width:1.86px;}</style><clipPath id="a"><rect class="a" x="8981.4" width="1920" height="1454.82"/></clipPath><clipPath id="b"><path class="a" d="M8981.4,1454.82h1920v-841c-52.87,10.52-116.66,23.88-188.29,40.35-164.18,37.73-245.88,57.06-266.75,64.74-25.64,9.44-56.78,22.33-102.87,23.77-39.75,1.25-48.32-7.35-99.43-8-58.09-.73-57.47,10.24-112.52,8.89-54.11-1.33-67.08-12.23-109.81-7.06-14.24,1.72-28.14,4.79-52.87,5.29-20.37.42-24.21-1.4-42.7,0-24,1.82-30.36,5.84-40.26,3.28-12.21-3.15-8.24-10.74-22.61-15-9.3-2.76-14-.56-27.41-2.5-15.19-2.2-21.38-6.82-31.86-11.12-19.86-8.15-28.83-4.37-66.59-11.72-38.65-7.52-35.3-12.65-64.81-16.5-28.15-3.68-30.9,1-62.88-1.76-25.17-2.18-43.83-7.21-81.15-17.25-40.15-10.81-41.06-13.61-66-18.44-30.13-5.83-44.1-4.7-69.28-7.64-50.18-5.87-60.29-18-103.9-29.45-59.41-15.56-83.49-4.21-188.84-13.78-13.14-1.19-22.92-2.29-26.3-2.67-41.93-4.73-76.22-10.77-100.22-15.54"/></clipPath><pattern id="c" width="153.43" height="153.43" patternTransform="matrix(1.29, 0.74, -1.43, 0.67, 9651.04, 692.49)" patternUnits="userSpaceOnUse" viewBox="0 0 153.43 153.43"><rect class="a" width="153.43" height="153.43"/><path class="b" d="M20.2,9.39c-9-1.18-13.94,1.89-17.48,2.6m42.52-.71c-7.76,3.15-14.18,1.18-19.37-.71M50.2,9.39c10.16-1.89,17,2.6,21.26,3.07m5.9,0c4.26,0,7.33-2.12,10.87-3.07a20.59,20.59,0,0,1,12.52.24m25.51-.24c-6.14,3.07-17.48,2.83-20.79,2.13m46.3.7c-1.18-.23-6.38,1.18-10.22-1.41-5.13-1.42-4.42-1.66-10.09-1.42M8.38,23.09A26.46,26.46,0,0,1,0,25.3m33.9.63c-1.18-.24-6.38,1.18-10.23-1.42-5.13-1.42-4.42-1.65-10.09-1.42m94.73,16.77c3.54-.71,8.5-3.78,17.48-2.6m25,1.89c-7.76,3.16-14.18,1.18-19.37-.71M43.11,124c3.54-.71,8.5-3.78,17.48-2.6m25,1.89c-7.75,3.15-14.17,1.18-19.37-.71m24.33-1.18c10.16-1.89,17,2.6,21.26,3.07m5.91,0c4.25,0,7.32-2.13,10.86-3.07a20.65,20.65,0,0,1,12.52.23m-126.61-.7c-3.88,1.94-9.84,2.56-14.53,2.57m40,.26c-1.18-.23-6.38,1.18-10.23-1.42-5.13-1.41-4.42-1.65-10.09-1.41M3,150.65a23.68,23.68,0,0,1-2.95,1m7.91-2.87c10.16-1.89,17,2.6,21.26,3.07m5.91,0c4.25,0,7.32-2.13,10.86-3.07a20.59,20.59,0,0,1,12.52.24M84,148.76c-6.15,3.07-17.48,2.84-20.79,2.13m46.3.71c-1.18-.24-6.38,1.17-10.23-1.42-5.13-1.42-4.42-1.66-10.09-1.42M114,150.89c3.54-.71,8.5-3.78,17.48-2.6M0,53.09a28.93,28.93,0,0,1,13.94-1.53m25,1.88c-7.76,3.16-14.18,1.19-19.37-.7m24.33-1.18c10.15-1.89,17,2.59,21.26,3.07m5.9,0c4.25,0,7.33-2.13,10.87-3.07a20.65,20.65,0,0,1,12.52.23M120,51.56c-6.14,3.07-17.48,2.83-20.79,2.12m46.3.71c-1.18-.24-6.38,1.18-10.22-1.42-5.13-1.41-4.42-1.65-10.09-1.41M2.83,95.61c3.55-.71,8.51-3.78,17.49-2.6m25,1.89C37.6,98.05,31.18,96.08,26,94.19M50.31,93c10.16-1.89,17,2.6,21.26,3.07m5.91,0c4.25,0,7.32-2.12,10.87-3.07a20.74,20.74,0,0,1,12.52.24M126.38,93c-6.14,3.07-17.48,2.84-20.79,2.13m46.3.71c-1.18-.24-6.38,1.18-10.23-1.42-5.12-1.42-4.41-1.65-10.08-1.42M3.19,137.78c3.54-.71,8.5-3.78,17.48-2.6m25,1.89c-7.76,3.15-14.17,1.18-19.37-.71m24.33-1.18c10.16-1.89,17,2.6,21.26,3.07m5.9,0c4.26,0,7.33-2.13,10.87-3.07a20.65,20.65,0,0,1,12.52.23m25.51-.23c-6.14,3.07-17.48,2.83-20.79,2.12m46.3.71c-1.18-.23-6.37,1.18-10.22-1.42-5.13-1.41-4.42-1.65-10.09-1.41M36.5,25.81C40,25.1,45,22,54,23.21M79,25.1c-7.76,3.15-14.18,1.18-19.37-.71M84,23.21c10.15-1.89,17,2.6,21.26,3.07m5.9,0c4.25,0,7.33-2.13,10.87-3.07a20.59,20.59,0,0,1,12.52.24M1.06,37.14c10.16-1.88,17,2.6,21.26,3.08m5.91,0c4.25,0,7.32-2.13,10.87-3.08a20.71,20.71,0,0,1,12.51.24m25.52-.23C71,40.22,59.65,40,56.34,39.27m46.3.71c-1.18-.24-6.38,1.18-10.23-1.42-5.13-1.41-4.42-1.65-10.09-1.41M2.25,67.62c3.54-.71,8.5-3.78,17.47-2.6m25,1.89C37,70.06,30.59,68.09,25.39,66.2M49.73,65c10.15-1.89,17,2.6,21.26,3.07m5.9,0c4.25,0,7.32-2.12,10.86-3.07a20.62,20.62,0,0,1,12.53.24M125.79,65c-6.15,3.07-17.48,2.83-20.79,2.13m46.3.7c-1.18-.23-6.38,1.19-10.23-1.41C135.94,65,136.65,64.78,131,65M41.22,81.44c3.54-.71,8.51-3.78,17.48-2.6m25,1.89C76,83.88,69.57,81.91,64.37,80M88.7,78.84c10.16-1.89,17,2.6,21.26,3.07m5.91,0c4.25,0,7.32-2.13,10.86-3.07a20.59,20.59,0,0,1,12.52.24M44.76,110.14c3.55-.71,8.51-3.78,17.48-2.6m25,1.89c-7.75,3.15-14.17,1.18-19.37-.71m24.34-1.18c10.15-1.89,17,2.6,21.25,3.07m5.91,0c4.25,0,7.32-2.13,10.86-3.07a20.62,20.62,0,0,1,12.53.24m-127.21-.59c-4.18,2.08-10.77,2.64-15.59,2.56m41.1.27c-1.18-.24-6.38,1.18-10.22-1.42-5.13-1.41-4.42-1.65-10.09-1.41m-9.1-28C8.56,80.76,4.08,81.46,0,81.69M37.2,82C36,81.79,30.83,83.21,27,80.61c-5.13-1.42-4.42-1.65-10.09-1.42M153.43,25.3A46.16,46.16,0,0,1,141,25.22m12.41,98.24a33.67,33.67,0,0,1-6.26-.45m6.26,28.62c-6.45,1.66-11.9,0-16.42-1.69m16.42-96.85a30.19,30.19,0,0,1-3.55,1.06m3.55,55.6a29.21,29.21,0,0,1-5.2-.44m5.2-27.62a41,41,0,0,1-9.1-.37"/><path class="c" d="M1.3,5.31h0M7,4.41H7m5.15-1.75h0m5.46-.36h0m5.53.36h0M28.6,3.91h0m5.23,1h0m5.75.35h0m5.83-.9h0m5.16-1.75h0M56,2.3h0m5.52.36h0M67,3.91h0M72,5h0m5.68.19h0m5.83-.9h0M88.62,2.5h0m5.47-.36h0m5.52.36h0m5.49,1.25h0m5.4,1h0m5.6.35h0m5.83-.9h0m5.16-1.75h0m5.46-.36h0m5.52.36h0m5.49,1.25h0m4.92,1h0M2.34,18.27h0m5.15-1.75h0M13,16.16h0m5.53.36h0M24,17.78h0m5.23,1h0m5.75.36h0m5.83-.91h0m5.16-1.75h0m5.45-.36h0m5.53.36h0m5.49,1.26h0m4.91,1h0M73,19h0m5.83-.91h0M84,16.36h0M89.45,16h0m5.53.36h0m5.49,1.26h0m5.39,1h0m5.61.36h0m5.83-.91h0m5.15-1.75h0m5.46-.36h0m5.53.36h0m5.49,1.26h0m4.91,1h0m5.64.2h0M1.35,30.69h0m5.46-.35h0m5.52.35h0M17.82,32h0M23.06,33h0m5.75.35h0m5.83-.9h0m5.15-1.76h0m5.46-.35h0m5.53.35h0M56.27,32h0M61.18,33h0m5.69.19h0m5.83-.9h0m5.15-1.76h0m5.46-.35h0m5.52.35h0m5.5,1.26h0m5.39,1.05h0m5.61.35h0m5.83-.9h0m5.15-1.76h0m5.46-.35h0m5.53.35h0m5.49,1.26h0m4.91,1.05h0m5.64.19h0m5.83-.9h0M1.82,44.39h0M7.28,44h0m5.53.35h0m5.49,1.26h0m5.23,1.05h0m5.75.35h0m5.83-.9h0m5.16-1.76h0M45.73,44h0m5.52.35h0m5.49,1.26h0m4.91,1.05h0m5.69.19h0m5.83-.9h0m5.15-1.76h0m5.46-.35h0m5.53.35h0m5.49,1.26h0m5.39,1h0m5.61.36h0m5.83-.9h0m5.16-1.76h0m5.45-.35h0m5.53.35h0m5.49,1.26h0m4.91,1h0m5.64.2h0m5.83-.9h0M3.28,60.79h0M8.43,59h0m5.46-.36h0m5.53.36h0m5.49,1.26h0m5.24,1h0m5.75.36h0m5.83-.91h0M46.88,59h0m5.46-.36h0m5.52.36h0m5.5,1.26h0m4.91,1h0m5.68.2h0m5.83-.91h0m5.16-1.75h0m5.46-.36h0m5.52.36h0m5.49,1.26h0m5.4,1h0m5.6.36h0m5.83-.91h0m5.16-1.75h0m5.46-.36h0m5.52.36h0m5.49,1.26h0m4.92,1h0m5.63.2h0M2.81,74h0M8,72.27H8m5.46-.36h0m5.53.36h0m5.49,1.25h0m5.23,1h0m5.75.35h0m5.83-.9h0m5.16-1.75h0m5.46-.36h0m5.52.36h0m5.5,1.25h0m4.91,1h0m5.68.19h0m5.83-.9h0m5.16-1.75h0m5.46-.36h0m5.52.36h0m5.49,1.25h0m5.4,1h0m5.6.35h0m5.83-.9h0m5.16-1.75h0m5.46-.36h0m5.52.36h0m5.49,1.25h0m4.91,1h0m5.64.19h0M1.35,89.1h0m5.24-.9h0m5.15-1.76h0m5.46-.35h0m5.53.35h0m5.49,1.26h0m5.23,1h0m5.75.36h0M45,88.2h0m5.16-1.76h0m5.46-.35h0m5.52.35h0m5.49,1.26h0m4.91,1h0m5.69.2h0M83.09,88h0m5.15-1.75h0m5.46-.35h0m5.53.35h0m5.49,1.26h0m5.39,1h0m5.61.36h0m5.83-.91h0m5.16-1.75h0m5.46-.35h0m5.52.35h0m5.49,1.26h0m4.91,1h0M3.75,103.27h0m5.67-.9h0m5.16-1.76h0m5.46-.35h0m5.52.35h0m5.49,1.26h0m5.24,1h0m5.75.35h0m5.83-.9h0M53,100.61h0m5.46-.35h0m5.53.35h0m5.49,1.26h0m4.91,1h0m5.69.19h0m5.83-.9h0m5.15-1.76h0m5.46-.35h0m5.52.35h0m5.5,1.26h0m5.39,1.05h0m5.61.35h0m5.83-.9h0m5.15-1.76h0m5.46-.35h0m5.53.35h0m5.49,1.26h0m4.91,1.05h0M3.28,117h0m5.67-.9H9m5.15-1.76h0m5.46-.35h0m5.53.35h0m5.49,1.26h0m5.23,1.05h0m5.75.35h0m5.83-.9h0m5.16-1.76h0M58,114h0m5.52.35h0m5.5,1.26h0m4.91,1.05h0m5.68.19h0m5.83-.9h0m5.16-1.76h0m5.46-.35h0m5.52.35h0m5.49,1.26h0m5.4,1h0m5.6.35h0m5.83-.9h0m5.16-1.76h0m5.46-.35h0m5.52.35h0m5.49,1.26h0m4.91,1h0M5.31,130.36h0m5.16-1.75h0m5.46-.36h0m5.52.36h0m5.5,1.25h0m5.23,1h0m5.75.35h0m5.83-.9h0m5.15-1.75h0m5.46-.36h0m5.53.36h0m5.49,1.25h0m4.91,1h0m5.69.19h0m5.83-.9h0M87,128.44h0m5.46-.35h0m5.53.35h0m5.49,1.26h0m5.39,1.05h0m5.61.35h0m5.83-.9h0m5.15-1.76h0m5.46-.35h0m5.53.35h0m5.49,1.26h0m4.91,1.05h0m5.64.19h0M1.71,144.22h0m5.16-1.75h0m5.46-.36h0m5.52.36h0m5.49,1.25h0m5.24,1.05h0m5.75.35h0m5.83-.9h0m5.15-1.75h0m5.46-.36h0m5.53.36h0m5.49,1.25h0m4.91,1.05h0m5.69.19h0m5.83-.9h0m5.15-1.75h0m5.46-.36h0m5.52.36h0m5.5,1.25h0m5.39,1.05h0m5.61.35h0m5.83-.9h0m5.15-1.75h0m5.46-.36h0m5.53.36h0m5.49,1.25h0m4.91,1.05h0m5.63.19h0"/></pattern><symbol id="d" viewBox="0 0 19871.75 1454.82"><g class="d"><path class="e" d="M8981.4,1454.82h1920v-841c-52.87,10.52-116.66,23.88-188.29,40.35-164.18,37.73-245.88,57.06-266.75,64.74-25.64,9.44-56.78,22.33-102.87,23.77-39.75,1.25-48.32-7.35-99.43-8-58.09-.73-57.47,10.24-112.52,8.89-54.11-1.33-67.08-12.23-109.81-7.06-14.24,1.72-28.14,4.79-52.87,5.29-20.37.42-24.21-1.4-42.7,0-24,1.82-30.36,5.84-40.26,3.28-12.21-3.15-8.24-10.74-22.61-15-9.3-2.76-14-.56-27.41-2.5-15.19-2.2-21.38-6.82-31.86-11.12-19.86-8.15-28.83-4.37-66.59-11.72-38.65-7.52-35.3-12.65-64.81-16.5-28.15-3.68-30.9,1-62.88-1.76-25.17-2.18-43.83-7.21-81.15-17.25-40.15-10.81-41.06-13.61-66-18.44-30.13-5.83-44.1-4.7-69.28-7.64-50.18-5.87-60.29-18-103.9-29.45-59.41-15.56-83.49-4.21-188.84-13.78-11.29-1-19.45-1.88-26.3-2.67a922.31,922.31,0,0,1-92.88-15.57"/><g class="f"><g class="g"><g class="h"><text class="i" transform="matrix(-0.17, 0, 0, 0.19, 11475.97, 782.47)">APPALACHIA INTERACTIVE APPALACHIA INTERACTIVE APPALACHIA INTERACTIVE APPALACHIA INTERACTIVE APPALACHIA INTERACTIVE APPALACHIA INTERACTIVE <tspan class="j"><tspan x="152.56" y="56.19" xml:space="preserve">    APPALACHIA INTERACTIVE APPALACHIA INTERACTIVE APPALACHIA INTERACTIVE APPALACHIA INTERACTIVE APPALACHIA INTERACTIVE APPALACHIA INTERACTIVE </tspan></tspan><tspan x="-606.9" y="112.39" xml:space="preserve">                  APPALACHIA INTERACTIVE APPALACHIA INTERACTIVE APPALACHIA INTERACTIVE APPALACHIA INTERACTIVE APPALACHIA INTERACTIVE APPALACHIA INTERACTIVE </tspan><tspan class="k"><tspan x="-763.97" y="168.58" xml:space="preserve">           APPALACHIA INTERACTIVE APPALACHIA INTERACTIVE APPALACHIA INTERACTIVE APPALACHIA INTERACTIVE APPALACHIA INTERACTIVE APPALACHIA INTERACTIVE </tspan></tspan></text></g><g class="h"><text class="i" transform="translate(7735.73 829.48) scale(0.24 0.27)">APPALACHIA INTERACTIVE APPALACHIA INTERACTIVE APPALACHIA INTERACTIVE APPALACHIA INTERACTIVE APPALACHIA INTERACTIVE APPALACHIA INTERACTIVE <tspan class="j"><tspan x="152.56" y="56.19" xml:space="preserve">    APPALACHIA INTERACTIVE APPALACHIA INTERACTIVE APPALACHIA INTERACTIVE APPALACHIA INTERACTIVE APPALACHIA INTERACTIVE APPALACHIA INTERACTIVE </tspan></tspan><tspan x="-606.9" y="112.39" xml:space="preserve">                  APPALACHIA INTERACTIVE APPALACHIA INTERACTIVE APPALACHIA INTERACTIVE APPALACHIA INTERACTIVE APPALACHIA INTERACTIVE APPALACHIA INTERACTIVE </tspan><tspan class="k"><tspan x="-763.97" y="168.58" xml:space="preserve">           APPALACHIA INTERACTIVE APPALACHIA INTERACTIVE APPALACHIA INTERACTIVE APPALACHIA INTERACTIVE APPALACHIA INTERACTIVE APPALACHIA INTERACTIVE </tspan></tspan></text></g><g class="h"><text class="i" transform="matrix(-0.35, 0, 0, 0.37, 13078.94, 894.75)">APPALACHIA INTERACTIVE APPALACHIA INTERACTIVE APPALACHIA INTERACTIVE APPALACHIA INTERACTIVE APPALACHIA INTERACTIVE APPALACHIA INTERACTIVE <tspan class="j"><tspan x="152.56" y="56.19" xml:space="preserve">    APPALACHIA INTERACTIVE APPALACHIA INTERACTIVE APPALACHIA INTERACTIVE APPALACHIA INTERACTIVE APPALACHIA INTERACTIVE APPALACHIA INTERACTIVE </tspan></tspan><tspan x="-606.9" y="112.39" xml:space="preserve">                  APPALACHIA INTERACTIVE APPALACHIA INTERACTIVE APPALACHIA INTERACTIVE APPALACHIA INTERACTIVE APPALACHIA INTERACTIVE APPALACHIA INTERACTIVE </tspan><tspan class="k"><tspan x="-763.97" y="168.58" xml:space="preserve">           APPALACHIA INTERACTIVE APPALACHIA INTERACTIVE APPALACHIA INTERACTIVE APPALACHIA INTERACTIVE APPALACHIA INTERACTIVE APPALACHIA INTERACTIVE </tspan></tspan></text></g><g class="h"><text class="i" transform="translate(5445.79 985.42) scale(0.5 0.52)">APPALACHIA INTERACTIVE APPALACHIA INTERACTIVE APPALACHIA INTERACTIVE APPALACHIA INTERACTIVE APPALACHIA INTERACTIVE APPALACHIA INTERACTIVE <tspan class="j"><tspan x="152.56" y="56.19" xml:space="preserve">    APPALACHIA INTERACTIVE APPALACHIA INTERACTIVE APPALACHIA INTERACTIVE APPALACHIA INTERACTIVE APPALACHIA INTERACTIVE APPALACHIA INTERACTIVE </tspan></tspan><tspan x="-606.9" y="112.39" xml:space="preserve">                  APPALACHIA INTERACTIVE APPALACHIA INTERACTIVE APPALACHIA INTERACTIVE APPALACHIA INTERACTIVE APPALACHIA INTERACTIVE APPALACHIA INTERACTIVE </tspan><tspan class="k"><tspan x="-763.97" y="168.58" xml:space="preserve">           APPALACHIA INTERACTIVE APPALACHIA INTERACTIVE APPALACHIA INTERACTIVE APPALACHIA INTERACTIVE APPALACHIA INTERACTIVE APPALACHIA INTERACTIVE </tspan></tspan></text></g><g class="h"><text class="i" transform="matrix(-0.71, 0, 0, 0.72, 16350.29, 1111.34)">APPALACHIA INTERACTIVE APPALACHIA INTERACTIVE APPALACHIA INTERACTIVE APPALACHIA INTERACTIVE APPALACHIA INTERACTIVE APPALACHIA INTERACTIVE <tspan class="j"><tspan x="152.56" y="56.19" xml:space="preserve">    APPALACHIA INTERACTIVE APPALACHIA INTERACTIVE APPALACHIA INTERACTIVE APPALACHIA INTERACTIVE APPALACHIA INTERACTIVE APPALACHIA INTERACTIVE </tspan></tspan><tspan x="-606.9" y="112.39" xml:space="preserve">                  APPALACHIA INTERACTIVE APPALACHIA INTERACTIVE APPALACHIA INTERACTIVE APPALACHIA INTERACTIVE APPALACHIA INTERACTIVE APPALACHIA INTERACTIVE </tspan><tspan class="k"><tspan x="-763.97" y="168.58" xml:space="preserve">           APPALACHIA INTERACTIVE APPALACHIA INTERACTIVE APPALACHIA INTERACTIVE APPALACHIA INTERACTIVE APPALACHIA INTERACTIVE APPALACHIA INTERACTIVE </tspan></tspan></text></g><g class="h"><text class="i" transform="translate(772.43 1286.24) scale(1.01 1)">APPALACHIA INTERACTIVE APPALACHIA INTERACTIVE APPALACHIA INTERACTIVE APPALACHIA INTERACTIVE APPALACHIA INTERACTIVE APPALACHIA INTERACTIVE <tspan class="j"><tspan x="152.56" y="56.19" xml:space="preserve">    APPALACHIA INTERACTIVE APPALACHIA INTERACTIVE APPALACHIA INTERACTIVE APPALACHIA INTERACTIVE APPALACHIA INTERACTIVE APPALACHIA INTERACTIVE </tspan></tspan><tspan x="-606.9" y="112.39" xml:space="preserve">                  APPALACHIA INTERACTIVE APPALACHIA INTERACTIVE APPALACHIA INTERACTIVE APPALACHIA INTERACTIVE APPALACHIA INTERACTIVE APPALACHIA INTERACTIVE </tspan><tspan class="k"><tspan x="-763.97" y="168.58" xml:space="preserve">           APPALACHIA INTERACTIVE APPALACHIA INTERACTIVE APPALACHIA INTERACTIVE APPALACHIA INTERACTIVE APPALACHIA INTERACTIVE APPALACHIA INTERACTIVE </tspan></tspan></text></g></g></g><path class="l" d="M8974.06,581.67l115.26,17.09,51,3.33,43,2.61,54.23,3.23s50.83,5.42,51.83,5.73,33.21,8.85,33.21,8.85L9359.36,634l34,9.14s27.17-.59,29.43,1.18,13.3,2.21,17.55,2.5S9494.63,657,9494.63,657l34,12.23,58.57,14.29,33.68,4.42,51.78.3,49.52,10.9s10.76,5.6,15.28,5.6,54.34,7.81,54.34,7.81l20.37,5,23.75,10,27.41,2.5,16.21,9.9,6.4,5.1c8.91-1.16,22.88-2.7,40.26-3.28,19.51-.65,25.36.5,42.7,0,26-.74,29.35-3.78,52.87-5.29,13.1-.84,29.92.13,63,2.12,48.81,2.92,53.19,4.62,73.2,4.23,26.77-.52,39.11-4,59-6.35,60-7.22,69.7,9.45,126.55,6.16,0,0,35-8.17,177.8-42.66h0s107-26.38,191.78-45.84c43.48-10,107.74-24.28,188.29-40.35"/><path class="m" d="M8965.72,614.58c9.76,7,23.13,14.89,33.89,13.42,11.12-1.53,14.86-12.39,17.63-12,3.74.52-5.47,20.09,0,21.17,6.71,1.34,28.07-26.53,38-25.41,11.22,1.28-7.68,60.92,2.71,62.12,5.53.64,18.41-10.85,24.41-22.59,8.56-16.77.69-29.34,10.84-31.76,3.1-.74,8.6-.71,19,3.52-3.47,22.43-13,39.8-22,52.24-3.29,4.54-19.36,13.59-20.33,27-.54,7.35,3,13.26,5.08,13.24,4.15-.06-2-24.94,17.28-29.65,8-1.94,20-.4,26.44,3.17,25.61,14.11-34.53,60-29.49,61.42,4.47,1.29,58.44-30.92,44.74-54.53-2.49-4.29-13.86-19.75-13.86-19.75a38.32,38.32,0,0,1-4.22-2.42,21.68,21.68,0,0,1-5.3-5.36c-3.73-6,6-22.08,14.57-21.71,5.88.26,12.06,8.28,11.12,15.2-.76,5.52-5.79,8.51-2.31,12,2.47,2.46,8.74,4.69,12.2,3.88,10.32-2.43-15.69-29.33,2.71-37.76,8.57-3.93,25.86-3.44,32.54.7,13.33,8.27-19.92,29.83-10.72,33.69,5.4,2.25,21.44-3.22,30-7.22,4.15-2,11.86-5.7,20.08-15.88,10.9-13.5,13.61-23.42,16.27-23.29,4.49.21-1.39,28.6,10.84,30.35,9.76,1.39,24.4-15.12,32.54-13.41,2.7.57,2.91,2.77,4.07,9.88,3,18.22,4.36,21,7.44,23.53,5.91,4.87,18.53,9.44,26.05,7.78,15.54-3.41,3.54-32.09,9.89-32.72,3.78-.38,10.44,9.58,14.91,16.23,31.1,46.27,35.09,48.82,38.57,48.77,9.23-.12,21.43-18.69,15.65-36.06-3.77-11.35-14.64-20.45-12.2-21.18,3.2-.95,16.63,16.21,40.67,17.65,15.52.93,24.92-5.33,31.18-2.82,9.84,3.93-10.07,20.69,1.23,25.79,5.3,2.4,15.64,1.39,21.82-.38,12.27-3.52,11.33-11,17.62-11.3,7.61-.37,9.26,10.52,27.44,18.16,3.48,1.47,20.52,8.26,36.27,5.84,17.69-2.71,19.39-14.81,28.72-14.53,10.75.33,8,16.38,32.4,29.4,15.61,8.33,32.91,10.4,36.69,10.82,7.34.8,25.93,2.82,39.11-2.39,12.67-5,7.3-11.54,19-15.53,12.29-4.2,33.9-2.34,44.74,3.53,10.41,5.64,5.51,12.06,16.27,15.53,8.6,2.77,12.81-1,25.75.7,19.52,2.58,20.91,12.62,46.1,16.94,3.88.67,6.75.93,10.52,1.27,37.09,3.28,80.62-2.8,98.6-5.5,49.62-7.46,59.44-12.47,73.21-8.47,16.31,4.74,16.95,16,29.82,16.23,10.66.23,13.65-7.4,29.83-10.58,14.46-2.85,27.08.3,40.12,2.2,32.41,4.72,38.65-2.46,92.73-2.91,48.53-.4,49.19,5.33,91.5,3.53,27.19-1.16,34.28-3.84,66.54-7.12,48.87-5,79.56-3.58,104.27-4.18,99.9-2.39,194.72-39.33,275.88-70.94,35.5-13.82,69.65-29.2,79.3-25.06,6,2.59,2.77,12.86-8.13,18.36-13.82,7-33.59,3.06-40.21,9.11-4.87,4.45,4.5,7.78,4.73,14.71.56,16.28-50.32,20.48-68.23,45-6.16,8.43-8.31,19.11-2.71,20.47,16.35,4,95.09-72.41,110.45-68.47,3.88,1,2.83,7.25.71,19.77-1.41,8.37-2.12,12.56-5.42,16.23-8.58,9.54-21.57,8.7-31.18,18.35-7.83,7.87-7.7,16.94-4.07,17.65,3.1.61,8.44-5,27.11-16.94,16.83-10.8,21-11.77,23.05-11.29,5.14,1.21-4.69,11.49,5.74,18.11,4.32,2.75,12.33,5,15.95,3.77,8.39-2.85-19.61-19.94-9.49-38.83,5-9.28,18-16.81,13.56-19-3-1.51-9.51,1.52-14.91,0-8.93-2.52-5.78-14.93-2.07-22.11,3.14-6.09,11.44-17.67,36.63-29.07q3.06,67.76,6.11,135.51l-1928.4,0Q8968.44,696.46,8965.72,614.58Z"/><polygon class="n" points="9003.41 572.47 8993.5 600.57 9013.32 600.57 9003.41 572.47"/><polygon class="n" points="8988.92 573.09 8979.01 601.19 8998.83 601.19 8988.92 573.09"/><polygon class="o" points="9078.16 574 9067.89 603.12 9088.43 603.12 9078.16 574"/><polygon class="n" points="9031.8 574.01 9021.89 602.12 9041.71 602.12 9031.8 574.01"/><polygon class="n" points="9017.69 579.89 9007.78 608 9027.6 608 9017.69 579.89"/><polygon class="n" points="9046.79 580.26 9036.88 608.37 9056.7 608.37 9046.79 580.26"/><polygon class="p" points="9248.7 581.32 9238.4 610.52 9259 610.52 9248.7 581.32"/><polygon class="q" points="9092.4 581.35 9082.26 610.1 9102.54 610.1 9092.4 581.35"/><polygon class="r" points="9022.7 583.47 9007.83 625.63 9037.57 625.63 9022.7 583.47"/><polygon class="s" points="9199.28 582.81 9188.94 612.13 9209.62 612.13 9199.28 582.81"/><polygon class="t" points="9108.03 583.93 9098.02 612.33 9118.05 612.33 9108.03 583.93"/><polygon class="u" points="9062.38 584.5 9052.27 613.17 9072.49 613.17 9062.38 584.5"/><polygon class="v" points="9122.25 585.17 9112.35 613.23 9132.14 613.23 9122.25 585.17"/><polygon class="w" points="9282.03 586.4 9271.76 615.52 9292.31 615.52 9282.03 586.4"/><polygon class="x" points="9183.17 589.24 9172.82 618.6 9193.53 618.6 9183.17 589.24"/><polygon class="y" points="9215.64 589.39 9205.31 618.67 9225.96 618.67 9215.64 589.39"/><polygon class="z" points="9133.23 590.71 9123.87 617.24 9142.58 617.24 9133.23 590.71"/><polygon class="aa" points="9297.64 592.45 9287.38 621.54 9307.9 621.54 9297.64 592.45"/><polygon class="ab" points="10849.14 595.83 10837.89 627.73 10860.38 627.73 10849.14 595.83"/><polygon class="ac" points="10905.36 596.11 10893.57 629.54 10917.16 629.54 10905.36 596.11"/><polygon class="ad" points="9216.73 597.12 9205.56 628.81 9227.91 628.81 9216.73 597.12"/><polygon class="ae" points="9232.56 598.07 9222.25 627.32 9242.88 627.32 9232.56 598.07"/><polygon class="af" points="10873.51 598.95 10862.12 631.24 10884.9 631.24 10873.51 598.95"/><polygon class="ag" points="9263.77 599.39 9253.49 628.56 9274.06 628.56 9263.77 599.39"/><polygon class="ah" points="9168.14 600.83 9157.87 629.95 9178.41 629.95 9168.14 600.83"/><polygon class="ai" points="8990.8 601.56 8980.16 631.73 9001.44 631.73 8990.8 601.56"/><polygon class="aj" points="10883.1 602.31 10871.3 635.77 10894.9 635.77 10883.1 602.31"/><polygon class="ak" points="9012.06 602.8 9000.76 634.83 9023.35 634.83 9012.06 602.8"/><polygon class="al" points="9176.29 603.08 9165.01 635.07 9187.57 635.07 9176.29 603.08"/><polygon class="am" points="9323.4 604.05 9308.03 647.63 9338.77 647.63 9323.4 604.05"/><polygon class="an" points="9073.11 606.51 9061.71 638.84 9084.51 638.84 9073.11 606.51"/><polygon class="ao" points="10832.61 607.43 10821.5 638.94 10843.73 638.94 10832.61 607.43"/><polygon class="ap" points="9236.52 608.84 9225.55 639.93 9247.49 639.93 9236.52 608.84"/><polygon class="aq" points="9135.05 610.35 9123.72 642.49 9146.39 642.49 9135.05 610.35"/><polygon class="ar" points="10861.17 611.09 10849.36 644.57 10872.98 644.57 10861.17 611.09"/><polygon class="as" points="9299.88 614.35 9289.86 642.75 9309.89 642.75 9299.88 614.35"/><polygon class="at" points="10881.65 615.46 10866.21 659.23 10897.09 659.23 10881.65 615.46"/><polygon class="au" points="10815.17 614.89 10803.35 648.41 10827 648.41 10815.17 614.89"/><polygon class="av" points="9024.53 615.53 9009.55 657.99 9039.5 657.99 9024.53 615.53"/><polygon class="aw" points="9093.66 615.14 9082.28 647.4 9105.03 647.4 9093.66 615.14"/><polygon class="ax" points="9051.56 615.24 9040.18 647.51 9062.94 647.51 9051.56 615.24"/><polygon class="ay" points="9197.75 616.21 9186.52 648.07 9208.99 648.07 9197.75 616.21"/><polygon class="az" points="9114.76 617 9103.41 649.21 9126.12 649.21 9114.76 617"/><polygon class="ba" points="9156.44 617.02 9145.13 649.1 9167.76 649.1 9156.44 617.02"/><polygon class="bb" points="10839.09 619.01 10827.27 652.51 10850.9 652.51 10839.09 619.01"/><polygon class="bc" points="9130.63 619.66 9115.88 661.47 9145.38 661.47 9130.63 619.66"/><polygon class="bd" points="9400.96 618.86 9390.81 647.65 9411.12 647.65 9400.96 618.86"/><polygon class="be" points="9029.97 619.34 9018.63 651.49 9041.3 651.49 9029.97 619.34"/><polygon class="bd" points="9383.46 620.16 9373.31 648.95 9393.61 648.95 9383.46 620.16"/><polygon class="bf" points="9230.62 620.31 9221.09 647.33 9240.15 647.33 9230.62 620.31"/><polygon class="bg" points="10796.72 621.99 10785.69 653.28 10807.76 653.28 10796.72 621.99"/><polygon class="bh" points="10851.08 624.01 10834.69 670.48 10867.47 670.48 10851.08 624.01"/><polygon class="bi" points="10818.54 623.29 10807.49 654.62 10829.59 654.62 10818.54 623.29"/><polygon class="bj" points="9291.72 624.8 9279.88 658.37 9303.56 658.37 9291.72 624.8"/><polygon class="bk" points="9052.43 625.9 9037.37 668.6 9067.49 668.6 9052.43 625.9"/><polygon class="bl" points="10757.39 625.08 10746.4 656.25 10768.39 656.25 10757.39 625.08"/><polygon class="bm" points="10819.15 627.39 10802.75 673.87 10835.54 673.87 10819.15 627.39"/><polygon class="bn" points="9146.13 626.71 9133.69 661.98 9158.57 661.98 9146.13 626.71"/><polygon class="bo" points="9185.15 627.41 9170.21 669.76 9200.09 669.76 9185.15 627.41"/><polygon class="bp" points="10777.91 626.83 10766.89 658.07 10788.92 658.07 10777.91 626.83"/><polygon class="bq" points="10723.22 627.12 10711.36 660.73 10735.07 660.73 10723.22 627.12"/><polygon class="br" points="9341.43 627.84 9326.08 671.37 9356.79 671.37 9341.43 627.84"/><polygon class="bs" points="9414.64 628.56 9404.49 657.34 9424.79 657.34 9414.64 628.56"/><polygon class="bt" points="10770.99 628.95 10759.15 662.52 10782.83 662.52 10770.99 628.95"/><polygon class="bu" points="10794.88 630.09 10783.04 663.64 10806.71 663.64 10794.88 630.09"/><polygon class="bv" points="10754.76 631.85 10738.36 678.35 10771.16 678.35 10754.76 631.85"/><polygon class="bw" points="9196.73 631.53 9184.39 666.52 9209.07 666.52 9196.73 631.53"/><polygon class="bx" points="9215.43 632.38 9199.88 676.48 9230.99 676.48 9215.43 632.38"/><polygon class="by" points="10740 631.97 10729.03 663.07 10750.97 663.07 10740 631.97"/><polygon class="bz" points="9119.91 632.68 9107.42 668.1 9132.4 668.1 9119.91 632.68"/><polygon class="ca" points="10787.86 633.91 10771.46 680.4 10804.25 680.4 10787.86 633.91"/><polygon class="cb" points="9171.4 634.29 9159.01 669.42 9183.79 669.42 9171.4 634.29"/><polygon class="cc" points="10890.53 634.95 10875.54 677.44 10905.51 677.44 10890.53 634.95"/><polygon class="cd" points="8964.64 635.41 8949.22 679.14 8980.06 679.14 8964.64 635.41"/><polygon class="ce" points="9245.72 635.31 9233.68 669.42 9257.75 669.42 9245.72 635.31"/><polygon class="cf" points="9016.43 635.97 9003.89 671.53 9028.97 671.53 9016.43 635.97"/><polygon class="cg" points="9314.89 635.87 9303.21 668.99 9326.57 668.99 9314.89 635.87"/><polygon class="ch" points="9424.15 636.26 9414.14 664.66 9434.17 664.66 9424.15 636.26"/><polygon class="ci" points="9041.93 637.33 9029.28 673.18 9054.58 673.18 9041.93 637.33"/><polygon class="cj" points="10749.15 637.36 10737.3 670.95 10760.99 670.95 10749.15 637.36"/><polygon class="ck" points="9269.44 637.47 9257.49 671.35 9281.38 671.35 9269.44 637.47"/><polygon class="cl" points="9331.84 637.5 9321.65 666.39 9342.03 666.39 9331.84 637.5"/><polygon class="cm" points="10701.87 638.11 10690.03 671.68 10713.71 671.68 10701.87 638.11"/><polygon class="cn" points="9365.87 639.96 9350.53 683.46 9381.22 683.46 9365.87 639.96"/><polygon class="co" points="9221.76 639.6 9209.48 674.45 9234.05 674.45 9221.76 639.6"/><polygon class="cp" points="10721.86 639.45 10710.92 670.49 10732.81 670.49 10721.86 639.45"/><polygon class="cq" points="9244.26 640.65 9227.96 686.87 9260.56 686.87 9244.26 640.65"/><polygon class="cr" points="9438.98 640.17 9429.09 668.19 9448.86 668.19 9438.98 640.17"/><polygon class="cs" points="10678.99 641.11 10667.19 674.56 10690.78 674.56 10678.99 641.11"/><polygon class="ct" points="9068.62 643.36 9056.03 679.07 9081.21 679.07 9068.62 643.36"/><polygon class="cu" points="9455.42 642.85 9445.63 670.64 9465.23 670.64 9455.42 642.85"/><polygon class="cv" points="10656.15 643.49 10644.4 676.8 10667.9 676.8 10656.15 643.49"/><polygon class="cw" points="9095.55 644.11 9083.01 679.67 9108.09 679.67 9095.55 644.11"/><polygon class="cx" points="9205.56 645.12 9190.14 688.85 9220.98 688.85 9205.56 645.12"/><polygon class="cy" points="9134.5 645.53 9119.86 687.06 9149.15 687.06 9134.5 645.53"/><polygon class="cz" points="9273.67 647.78 9257.27 694.27 9290.07 694.27 9273.67 647.78"/><polygon class="da" points="10660.48 648.25 10644.06 694.78 10676.89 694.78 10660.48 648.25"/><polygon class="db" points="10684.89 647.83 10673.99 678.73 10695.78 678.73 10684.89 647.83"/><polygon class="dc" points="10704.08 648.5 10693.16 679.47 10715.01 679.47 10704.08 648.5"/><polygon class="dd" points="9063.48 650.65 9048.41 693.37 9078.54 693.37 9063.48 650.65"/><polygon class="de" points="10634.78 650.21 10623.11 683.3 10646.45 683.3 10634.78 650.21"/><polygon class="df" points="9478.33 650.28 9468.7 677.6 9487.97 677.6 9478.33 650.28"/><polygon class="dg" points="8987.41 653.63 8972.04 697.22 9002.78 697.22 8987.41 653.63"/><polygon class="dh" points="10597.04 654.03 10580.62 700.59 10613.46 700.59 10597.04 654.03"/><polygon class="di" points="10667.04 653.76 10656.16 684.6 10677.91 684.6 10667.04 653.76"/><polygon class="dj" points="10726.97 655.5 10710.56 702.02 10743.37 702.02 10726.97 655.5"/><polygon class="dk" points="9388.61 655.66 9373.28 699.12 9403.93 699.12 9388.61 655.66"/><polygon class="dl" points="9462.81 655.09 9453.07 682.71 9472.55 682.71 9462.81 655.09"/><polygon class="dm" points="9162.75 656.22 9148.22 697.42 9177.27 697.42 9162.75 656.22"/><polygon class="dn" points="9477.05 655.23 9467.56 682.15 9486.55 682.15 9477.05 655.23"/><polygon class="do" points="10813.21 658.48 10798.14 701.2 10828.27 701.2 10813.21 658.48"/><polygon class="dp" points="10630.02 658.58 10619.24 689.15 10640.81 689.15 10630.02 658.58"/><polygon class="dq" points="10695.2 659.95 10678.79 706.48 10711.6 706.48 10695.2 659.95"/><polygon class="dr" points="10612.07 658.91 10601.5 688.89 10622.65 688.89 10612.07 658.91"/><polygon class="ds" points="9415.25 660.92 9400.11 703.87 9430.4 703.87 9415.25 660.92"/><polygon class="dt" points="10871.86 661.28 10856.04 706.13 10887.68 706.13 10871.86 661.28"/><polygon class="du" points="10630.21 661.58 10613.8 708.13 10646.63 708.13 10630.21 661.58"/><polygon class="dv" points="9442.98 661.6 9428.04 703.96 9457.92 703.96 9442.98 661.6"/><polygon class="dw" points="9468.47 661.08 9458.13 690.41 9478.82 690.41 9468.47 661.08"/><polygon class="dx" points="9300.71 662.45 9284.5 708.41 9316.91 708.41 9300.71 662.45"/><polygon class="dy" points="10566.02 664.55 10549.59 711.12 10582.44 711.12 10566.02 664.55"/><polygon class="dz" points="9450.18 663.48 9439.96 692.47 9460.41 692.47 9450.18 663.48"/><polygon class="ea" points="10841.34 664.91 10825.89 708.73 10856.8 708.73 10841.34 664.91"/><polygon class="eb" points="10651.51 667.29 10640.66 698.06 10662.37 698.06 10651.51 667.29"/><polygon class="ec" points="9222.78 668.46 9206.92 713.46 9238.65 713.46 9222.78 668.46"/><polygon class="ed" points="10763.3 668.31 10748.36 710.67 10778.24 710.67 10763.3 668.31"/><polygon class="ee" points="10596.62 667.67 10586.04 697.67 10607.2 697.67 10596.62 667.67"/><polygon class="ef" points="10688.69 669.19 10673.93 711.04 10703.45 711.04 10688.69 669.19"/><polygon class="eg" points="9013.48 669.92 8999.66 709.1 9027.3 709.1 9013.48 669.92"/><polygon class="eh" points="9484.56 670.42 9474.1 700.09 9495.03 700.09 9484.56 670.42"/><polygon class="ei" points="10664.36 672.16 10649.65 713.88 10679.07 713.88 10664.36 672.16"/><polygon class="ej" points="10789.44 672.91 10774.44 715.46 10804.44 715.46 10789.44 672.91"/><polygon class="ek" points="10617.74 672.58 10606.14 705.45 10629.33 705.45 10617.74 672.58"/><polygon class="el" points="10573.35 672.66 10561.92 705.1 10584.79 705.1 10573.35 672.66"/><polygon class="em" points="9076.37 673.46 9061.33 716.12 9091.41 716.12 9076.37 673.46"/><polygon class="en" points="10526.59 673.22 10516.01 703.2 10537.16 703.2 10526.59 673.22"/><polygon class="eo" points="9463.81 674.35 9449.07 716.15 9478.56 716.15 9463.81 674.35"/><polygon class="ep" points="10595.95 674.43 10584.43 707.09 10607.46 707.09 10595.95 674.43"/><polygon class="eq" points="9253.37 676.3 9237.57 721.1 9269.17 721.1 9253.37 676.3"/><polygon class="er" points="9325.61 678.38 9309.7 723.51 9341.53 723.51 9325.61 678.38"/><polygon class="es" points="10545.05 677.36 10534.45 707.42 10555.65 707.42 10545.05 677.36"/><polygon class="et" points="10503.02 678.82 10486.59 725.41 10519.45 725.41 10503.02 678.82"/><polygon class="eu" points="10535.56 679.53 10519.13 726.11 10551.99 726.11 10535.56 679.53"/><polygon class="ev" points="10562.65 678.66 10552.06 708.7 10573.25 708.7 10562.65 678.66"/><polygon class="ew" points="10553.83 680.89 10542.46 713.12 10565.19 713.12 10553.83 680.89"/><polygon class="ex" points="9164.65 681.48 9150.51 721.57 9178.79 721.57 9164.65 681.48"/><polygon class="ey" points="10580.46 681 10569.87 711.02 10591.05 711.02 10580.46 681"/><polygon class="ez" points="8982.56 682.54 8967.42 725.48 8997.7 725.48 8982.56 682.54"/><polygon class="fa" points="9511.19 683.54 9500.51 713.84 9521.88 713.84 9511.19 683.54"/><polygon class="fb" points="10574.3 684.14 10560.95 721.99 10587.65 721.99 10574.3 684.14"/><polygon class="fc" points="10739.29 685.12 10724.42 727.3 10754.17 727.3 10739.29 685.12"/><polygon class="fd" points="9493.87 684.32 9483.27 714.36 9504.46 714.36 9493.87 684.32"/><polygon class="fe" points="9550.17 684.86 9539.31 715.67 9561.04 715.67 9550.17 684.86"/><polygon class="ff" points="10714.14 685.7 10699.33 727.69 10728.94 727.69 10714.14 685.7"/><polygon class="fg" points="9352.97 687.13 9337.53 730.92 9368.42 730.92 9352.97 687.13"/><polygon class="fh" points="10512.08 686.77 10501.59 716.53 10522.57 716.53 10512.08 686.77"/><polygon class="fi" points="10772.09 689.09 10754.75 738.29 10789.44 738.29 10772.09 689.09"/><polygon class="fj" points="9038.26 688.9 9024.8 727.06 9051.71 727.06 9038.26 688.9"/><polygon class="fk" points="9069.34 689.11 9056.14 726.55 9082.54 726.55 9069.34 689.11"/><polygon class="fl" points="10495.52 689.71 10485.11 719.24 10505.94 719.24 10495.52 689.71"/><polygon class="fm" points="10535.51 691.06 10524.22 723.08 10546.8 723.08 10535.51 691.06"/><polygon class="fn" points="9104.41 693.14 9089.04 736.71 9119.78 736.71 9104.41 693.14"/><polygon class="fo" points="10736.87 693.6 10719.72 742.23 10754.02 742.23 10736.87 693.6"/><polygon class="fp" points="10494.24 692.39 10483.25 723.55 10505.22 723.55 10494.24 692.39"/><polygon class="fq" points="10641.92 693.36 10627.25 734.95 10656.59 734.95 10641.92 693.36"/><polygon class="fr" points="10473.39 694.09 10456.99 740.59 10489.79 740.59 10473.39 694.09"/><polygon class="fs" points="10445.91 694.15 10435.59 723.4 10456.22 723.4 10445.91 694.15"/><polygon class="ft" points="10442 695.76 10425.74 741.87 10458.26 741.87 10442 695.76"/><polygon class="fu" points="10540.27 695.92 10524.1 741.77 10556.44 741.77 10540.27 695.92"/><polygon class="fv" points="10619.23 695.8 10604.6 737.26 10633.85 737.26 10619.23 695.8"/><polygon class="fw" points="10597.74 697.7 10583.52 738 10611.95 738 10597.74 697.7"/><polygon class="fx" points="10510.04 698.44 10494.01 743.87 10526.06 743.87 10510.04 698.44"/><polygon class="fy" points="10808.64 698.88 10791.25 748.2 10826.03 748.2 10808.64 698.88"/><polygon class="fz" points="9089.24 698.46 9074.44 740.42 9104.04 740.42 9089.24 698.46"/><polygon class="ga" points="9527.2 698.55 9516.43 729.1 9537.98 729.1 9527.2 698.55"/><polygon class="gb" points="10876.26 700.46 10859.57 747.78 10892.95 747.78 10876.26 700.46"/><polygon class="gc" points="10517.25 699.76 10506.1 731.39 10528.41 731.39 10517.25 699.76"/><polygon class="gd" points="10481.13 700.06 10470.77 729.42 10491.48 729.42 10481.13 700.06"/><polygon class="ge" points="10636.2 701.98 10619.61 749.02 10652.79 749.02 10636.2 701.98"/><polygon class="gf" points="9476.96 701.47 9462.89 741.37 9491.03 741.37 9476.96 701.47"/><polygon class="gg" points="10464.55 701.34 10454.22 730.64 10474.89 730.64 10464.55 701.34"/><polygon class="gh" points="9239.18 701.45 9228.44 731.92 9249.93 731.92 9239.18 701.45"/><polygon class="gi" points="9141.55 702.38 9126.52 745 9156.58 745 9141.55 702.38"/><polygon class="gj" points="10845.21 702.92 10827.77 752.36 10862.64 752.36 10845.21 702.92"/><polygon class="gk" points="9563.65 701.66 9552.69 732.74 9574.61 732.74 9563.65 701.66"/><polygon class="gl" points="9154.87 703.01 9141.09 742.09 9168.66 742.09 9154.87 703.01"/><polygon class="gm" points="9093.02 702.88 9080.35 738.81 9105.69 738.81 9093.02 702.88"/><polygon class="gn" points="9465.89 703.52 9450.11 748.25 9481.67 748.25 9465.89 703.52"/><polygon class="go" points="10412.29 704.16 10396.16 749.89 10428.42 749.89 10412.29 704.16"/><polygon class="gp" points="8999.58 704.26 8985.17 745.12 9013.99 745.12 8999.58 704.26"/><polygon class="gq" points="9204.02 703.59 9193.08 734.61 9214.96 734.61 9204.02 703.59"/><polygon class="gr" points="10702.75 705.42 10685.8 753.49 10719.7 753.49 10702.75 705.42"/><polygon class="gs" points="9493.26 705.8 9477.98 749.11 9508.53 749.11 9493.26 705.8"/><polygon class="gt" points="9185.08 705.19 9173.66 737.57 9196.49 737.57 9185.08 705.19"/><polygon class="gu" points="9372 706.09 9356.98 748.69 9387.03 748.69 9372 706.09"/><polygon class="gv" points="10479.12 705.56 10468.31 736.22 10489.93 736.22 10479.12 705.56"/><polygon class="gw" points="10415.52 705.66 10405.25 734.79 10425.79 734.79 10415.52 705.66"/><polygon class="gx" points="9067.66 706.84 9051.94 751.41 9083.38 751.41 9067.66 706.84"/><polygon class="gy" points="9261.89 707.86 9246.64 751.1 9277.14 751.1 9261.89 707.86"/><polygon class="gz" points="10604.19 708.49 10587.73 755.16 10620.66 755.16 10604.19 708.49"/><polygon class="ha" points="9141.28 708.01 9129.18 742.31 9153.37 742.31 9141.28 708.01"/><polygon class="hb" points="10399.6 708.03 10389.35 737.11 10409.85 737.11 10399.6 708.03"/><polygon class="hc" points="10327.16 709.42 10311.41 754.06 10342.9 754.06 10327.16 709.42"/><polygon class="hd" points="9437.3 709.58 9421.15 755.36 9453.44 755.36 9437.3 709.58"/><polygon class="he" points="9117.66 709.3 9105.29 744.39 9130.04 744.39 9117.66 709.3"/><polygon class="hf" points="9174.8 709.85 9160.51 750.34 9189.08 750.34 9174.8 709.85"/><polygon class="hg" points="10669.28 710.66 10652.52 758.19 10686.04 758.19 10669.28 710.66"/><polygon class="hh" points="9398.75 710.44 9383.9 752.53 9413.59 752.53 9398.75 710.44"/><polygon class="hi" points="10452.57 711.7 10443.32 737.93 10461.82 737.93 10452.57 711.7"/><polygon class="hj" points="10573.19 713.48 10556.87 759.76 10589.52 759.76 10573.19 713.48"/><polygon class="hk" points="10433.87 712.45 10423.58 741.63 10444.17 741.63 10433.87 712.45"/><polygon class="hl" points="9026.8 715.16 9010.47 761.47 9043.13 761.47 9026.8 715.16"/><polygon class="hm" points="9512.41 714.75 9498.48 754.24 9526.34 754.24 9512.41 714.75"/><polygon class="hn" points="9222.01 714.13 9211.52 743.85 9232.49 743.85 9222.01 714.13"/><polygon class="ho" points="10352.82 715.19 10342.63 744.09 10363.01 744.09 10352.82 715.19"/><polygon class="hp" points="9608.49 715.37 9597.56 746.36 9619.42 746.36 9608.49 715.37"/><polygon class="hq" points="10217.59 716.48 10202.54 759.15 10232.64 759.15 10217.59 716.48"/><polygon class="hr" points="10368.97 716.02 10358.76 744.98 10379.18 744.98 10368.97 716.02"/><polygon class="hs" points="9407.28 717.4 9390.65 764.55 9423.91 764.55 9407.28 717.4"/><polygon class="ht" points="10298.2 717.64 10282.57 761.95 10313.83 761.95 10298.2 717.64"/><polygon class="hu" points="9504.87 717.23 9491.61 754.81 9518.12 754.81 9504.87 717.23"/><polygon class="hv" points="10485.43 718.44 10470.2 761.63 10500.66 761.63 10485.43 718.44"/><polygon class="hw" points="10827.62 719.06 10811.08 765.94 10844.15 765.94 10827.62 719.06"/><polygon class="hx" points="9164.71 718.67 9152.88 752.22 9176.54 752.22 9164.71 718.67"/><polygon class="hy" points="9289.22 719.34 9274.57 760.88 9303.88 760.88 9289.22 719.34"/><polygon class="hz" points="10464.1 718.48 10453.91 747.37 10474.29 747.37 10464.1 718.48"/><polygon class="ia" points="10337.65 719.12 10327.48 747.96 10347.82 747.96 10337.65 719.12"/><polygon class="ib" points="10192.95 720.54 10178.15 762.52 10207.76 762.52 10192.95 720.54"/><polygon class="ic" points="9303.76 722.21 9286.3 771.71 9321.22 771.71 9303.76 722.21"/><polygon class="id" points="9266.89 722.78 9249.37 772.45 9284.41 772.45 9266.89 722.78"/><polygon class="ie" points="10355.79 722.86 10339.92 767.84 10371.65 767.84 10355.79 722.86"/><polygon class="if" points="10386.79 722.17 10376.55 751.18 10397.02 751.18 10386.79 722.17"/><polygon class="ig" points="9626.8 722.39 9616.81 750.71 9636.78 750.71 9626.8 722.39"/><polygon class="ih" points="9064.87 723.57 9050.41 764.57 9079.33 764.57 9064.87 723.57"/><polygon class="ii" points="9374.96 724.45 9357.94 772.7 9391.97 772.7 9374.96 724.45"/><polygon class="ij" points="9193.27 725.18 9175.62 775.22 9210.92 775.22 9193.27 725.18"/><polygon class="ik" points="9488.19 724.91 9472.79 768.58 9503.59 768.58 9488.19 724.91"/><polygon class="il" points="10307.17 724.98 10297.04 753.71 10317.31 753.71 10307.17 724.98"/><polygon class="im" points="10387.91 726.21 10371.92 771.57 10403.91 771.57 10387.91 726.21"/><polygon class="in" points="9081.45 726.87 9063.4 778.04 9099.49 778.04 9081.45 726.87"/><polygon class="io" points="9198.39 726.32 9185.73 762.21 9211.05 762.21 9198.39 726.32"/><polygon class="ip" points="10244.32 727.09 10229.08 770.3 10259.56 770.3 10244.32 727.09"/><polygon class="iq" points="10169.76 729.3 10155.11 770.85 10184.41 770.85 10169.76 729.3"/><polygon class="ir" points="9230.67 730.04 9213.09 779.9 9248.25 779.9 9230.67 730.04"/><polygon class="is" points="9593.56 728.63 9583.03 758.51 9604.1 758.51 9593.56 728.63"/><polygon class="it" points="10270.16 730.33 10254.73 774.1 10285.6 774.1 10270.16 730.33"/><polygon class="iu" points="9156.52 730.83 9138.81 781.05 9174.23 781.05 9156.52 730.83"/><polygon class="iv" points="9536.13 729.83 9526.16 758.1 9546.1 758.1 9536.13 729.83"/><polygon class="iw" points="10786.82 732.69 10770.56 778.8 10803.08 778.8 10786.82 732.69"/><polygon class="ix" points="10292.99 731.55 10282.92 760.12 10303.07 760.12 10292.99 731.55"/><polygon class="iy" points="10419.54 732.39 10407.56 766.38 10431.53 766.38 10419.54 732.39"/><polygon class="iz" points="9124.47 734.4 9104.94 789.78 9144.01 789.78 9124.47 734.4"/><polygon class="ja" points="8999.16 735.1 8980.27 788.67 9018.06 788.67 8999.16 735.1"/><polygon class="jb" points="9433.74 735.06 9418.14 779.3 9449.34 779.3 9433.74 735.06"/><polygon class="jc" points="10834.87 735.28 10821.17 774.15 10848.58 774.15 10834.87 735.28"/><polygon class="jd" points="10728.27 736.25 10713.13 779.16 10743.4 779.16 10728.27 736.25"/><polygon class="je" points="9118.57 737.05 9100.8 787.46 9136.35 787.46 9118.57 737.05"/><polygon class="jf" points="9031.28 737.45 9011.67 793.05 9050.89 793.05 9031.28 737.45"/><polygon class="jg" points="9077.47 737.48 9057.9 792.97 9097.04 792.97 9077.47 737.48"/><polygon class="jh" points="9341.44 737.26 9324.2 786.16 9358.69 786.16 9341.44 737.26"/><polygon class="ji" points="10471 736.38 10458.39 772.15 10483.62 772.15 10471 736.38"/><polygon class="jj" points="10106.23 736.63 10092.83 774.62 10119.63 774.62 10106.23 736.63"/><polygon class="jk" points="9522.66 736.16 9513.2 762.98 9532.12 762.98 9522.66 736.16"/><polygon class="jl" points="9405.45 739.05 9389.75 783.58 9421.15 783.58 9405.45 739.05"/><polygon class="jm" points="10325.68 738.05 10315.53 766.84 10335.84 766.84 10325.68 738.05"/><polygon class="jn" points="10279.52 738.58 10269.58 766.75 10289.46 766.75 10279.52 738.58"/><polygon class="jo" points="10509 739.6 10494.4 781 10523.59 781 10509 739.6"/><polygon class="jp" points="10125.79 740.2 10111.68 780.2 10139.9 780.2 10125.79 740.2"/><polygon class="jq" points="9462.54 740.72 9447.04 784.67 9478.04 784.67 9462.54 740.72"/><polygon class="jr" points="10148.11 741.47 10133.64 782.49 10162.57 782.49 10148.11 741.47"/><polygon class="js" points="10246.17 743.26 10230.8 786.85 10261.55 786.85 10246.17 743.26"/><polygon class="jt" points="10655.68 743.23 10640.62 785.93 10670.74 785.93 10655.68 743.23"/><polygon class="ju" points="9040.18 744.02 9021.84 796.03 9058.52 796.03 9040.18 744.02"/><polygon class="jv" points="10254.36 742.84 10244.94 769.56 10263.79 769.56 10254.36 742.84"/><polygon class="jw" points="9408.62 744.48 9391.75 792.31 9425.48 792.31 9408.62 744.48"/><polygon class="jx" points="10443.05 744.87 10430.62 780.11 10455.48 780.11 10443.05 744.87"/><polygon class="jy" points="10475.68 745.93 10461.42 786.36 10489.94 786.36 10475.68 745.93"/><polygon class="jz" points="10804.77 745.84 10790.96 785.01 10818.59 785.01 10804.77 745.84"/><polygon class="ka" points="9542.17 745.74 9532.07 774.38 9552.27 774.38 9542.17 745.74"/><polygon class="kb" points="8985.25 747.89 8965.61 803.6 9004.9 803.6 8985.25 747.89"/><polygon class="kc" points="10692.77 748.06 10677.65 790.95 10707.9 790.95 10692.77 748.06"/><polygon class="kd" points="10268.01 747.92 10258.42 775.13 10277.61 775.13 10268.01 747.92"/><polygon class="ke" points="10383.38 749.29 10369.48 788.69 10397.27 788.69 10383.38 749.29"/><polygon class="kf" points="9349.23 750.36 9332.39 798.12 9366.08 798.12 9349.23 750.36"/><polygon class="kg" points="9376.59 750.65 9358.65 801.51 9394.52 801.51 9376.59 750.65"/><polygon class="kh" points="9575.35 749.22 9564.87 778.96 9585.84 778.96 9575.35 749.22"/><polygon class="ki" points="10749.38 750.51 10733.52 795.47 10765.23 795.47 10749.38 750.51"/><polygon class="kj" points="10494.69 750.07 10481.96 786.19 10507.43 786.19 10494.69 750.07"/><polygon class="kk" points="10425.66 750.17 10415.99 777.62 10435.34 777.62 10425.66 750.17"/><polygon class="kl" points="10442.86 751.31 10428.84 791.08 10456.89 791.08 10442.86 751.31"/><polygon class="km" points="9558.91 751.96 9548.5 781.5 9569.33 781.5 9558.91 751.96"/><polygon class="kn" points="10618.21 753.37 10603.22 795.88 10633.21 795.88 10618.21 753.37"/><polygon class="ko" points="9145.75 754.42 9128 804.74 9163.49 804.74 9145.75 754.42"/><polygon class="kp" points="10712 754.28 10698.4 792.86 10725.61 792.86 10712 754.28"/><polygon class="kq" points="10743.31 754.51 10729.62 793.32 10756.99 793.32 10743.31 754.51"/><polygon class="kr" points="10582.44 754.81 10567.59 796.93 10597.3 796.93 10582.44 754.81"/><polygon class="ks" points="9339.68 755.82 9321.43 807.57 9357.93 807.57 9339.68 755.82"/><polygon class="kt" points="10349 755.78 10335.15 795.04 10362.84 795.04 10349 755.78"/><polygon class="ku" points="9380 756.2 9364.18 801.05 9395.82 801.05 9380 756.2"/><polygon class="kv" points="10520.81 757.21 10507.92 793.76 10533.7 793.76 10520.81 757.21"/><polygon class="kw" points="10210.3 758.09 10194.96 801.59 10225.64 801.59 10210.3 758.09"/><polygon class="kx" points="9257.4 760.34 9238.33 814.4 9276.46 814.4 9257.4 760.34"/><polygon class="ky" points="10843.22 760.68 10828.29 803.01 10858.15 803.01 10843.22 760.68"/><polygon class="kz" points="9168.58 762.25 9149.18 817.28 9187.99 817.28 9168.58 762.25"/><polygon class="la" points="10547.55 761.65 10532.94 803.08 10562.15 803.08 10547.55 761.65"/><polygon class="lb" points="9516.9 761.25 9504.83 795.47 9528.97 795.47 9516.9 761.25"/><polygon class="lc" points="10296.63 761.11 10285.33 793.16 10307.93 793.16 10296.63 761.11"/><polygon class="ld" points="9298.95 763.01 9280.36 815.72 9317.54 815.72 9298.95 763.01"/><polygon class="le" points="10776.18 762.1 10762.43 801.09 10789.93 801.09 10776.18 762.1"/><polygon class="lf" points="9213.23 764.19 9193.99 818.73 9232.46 818.73 9213.23 764.19"/><polygon class="lg" points="10433.88 762.82 10424.87 788.36 10442.88 788.36 10433.88 762.82"/><polygon class="lh" points="10547.85 763.65 10534.8 800.67 10560.91 800.67 10547.85 763.65"/><polygon class="li" points="10384.91 765.25 10372.15 801.44 10397.67 801.44 10384.91 765.25"/><polygon class="lj" points="10713.36 765.8 10698 809.34 10728.72 809.34 10713.36 765.8"/><polygon class="lk" points="9493.29 765.68 9480.83 801.03 9505.76 801.03 9493.29 765.68"/><polygon class="ll" points="10414 765.74 10404.86 791.68 10423.15 791.68 10414 765.74"/><polygon class="lm" points="10682.93 766.83 10669.49 804.95 10696.38 804.95 10682.93 766.83"/><polygon class="ln" points="10319.84 768.37 10306.23 806.97 10333.45 806.97 10319.84 768.37"/><polygon class="lo" points="10684.22 768.96 10671.43 805.25 10697.02 805.25 10684.22 768.96"/><polygon class="lp" points="10880.19 769.58 10866.75 807.68 10893.63 807.68 10880.19 769.58"/><polygon class="lq" points="9467.87 770.35 9455.15 806.43 9480.59 806.43 9467.87 770.35"/><polygon class="lr" points="10415.75 771.93 10401.97 811.02 10429.54 811.02 10415.75 771.93"/><polygon class="ls" points="10266.86 772.29 10254.85 806.36 10278.87 806.36 10266.86 772.29"/><polygon class="lt" points="10515.49 774.7 10501.12 815.44 10529.86 815.44 10515.49 774.7"/><polygon class="lu" points="10654.38 774.7 10641.1 812.36 10667.66 812.36 10654.38 774.7"/><polygon class="lv" points="10810.64 775.52 10796.14 816.64 10825.14 816.64 10810.64 775.52"/><polygon class="lw" points="9101.4 776.38 9083.7 826.57 9119.1 826.57 9101.4 776.38"/><polygon class="lx" points="10141.96 777.14 10127.65 817.72 10156.27 817.72 10141.96 777.14"/><polygon class="ly" points="10178.42 777.87 10163.6 819.89 10193.25 819.89 10178.42 777.87"/><polygon class="lz" points="10291.04 777.36 10278.94 811.68 10303.15 811.68 10291.04 777.36"/><polygon class="ma" points="10853.32 778.35 10840.09 815.85 10866.54 815.85 10853.32 778.35"/><polygon class="mb" points="9413 778.66 9399.61 816.63 9426.39 816.63 9413 778.66"/><polygon class="mc" points="10481.8 779.74 10467.67 819.8 10495.93 819.8 10481.8 779.74"/><polygon class="md" points="10111.49 780.36 10097.85 819.05 10125.14 819.05 10111.49 780.36"/><polygon class="me" points="10634.84 780.92 10621.05 820.04 10648.64 820.04 10634.84 780.92"/><polygon class="mf" points="10571.85 782.43 10558.58 820.05 10585.11 820.05 10571.85 782.43"/><polygon class="mg" points="9442.83 782.57 9429.84 819.4 9455.82 819.4 9442.83 782.57"/><polygon class="mh" points="10086.29 782.98 10073.98 817.89 10098.6 817.89 10086.29 782.98"/><polygon class="mi" points="10244.07 784.45 10232.22 818.04 10255.92 818.04 10244.07 784.45"/><polygon class="mj" points="9302.4 785.9 9284.69 836.11 9320.11 836.11 9302.4 785.9"/><polygon class="mk" points="10222.44 786.37 10210.76 819.5 10234.13 819.5 10222.44 786.37"/><polygon class="ml" points="10628.11 786.86 10614.99 824.07 10641.24 824.07 10628.11 786.86"/><polygon class="mm" points="10601.07 787.42 10587.58 825.67 10614.56 825.67 10601.07 787.42"/><polygon class="mn" points="9054.81 789.39 9037.27 839.12 9072.35 839.12 9054.81 789.39"/><polygon class="mo" points="10826.82 790.55 10813.81 827.47 10839.84 827.47 10826.82 790.55"/><polygon class="mp" points="10664.95 790.81 10650.72 831.17 10679.18 831.17 10664.95 790.81"/><polygon class="mq" points="10716.68 790.64 10703.34 828.46 10730.01 828.46 10716.68 790.64"/><polygon class="mr" points="10205.09 790.42 10194.31 820.99 10215.87 820.99 10205.09 790.42"/><polygon class="ms" points="10780.35 792.66 10766.23 832.7 10794.48 832.7 10780.35 792.66"/><polygon class="mt" points="9214.12 793.69 9196.36 844.05 9231.88 844.05 9214.12 793.69"/><polygon class="mu" points="10601.05 792.81 10588.27 829.05 10613.83 829.05 10601.05 792.81"/><polygon class="mv" points="9235.92 793.57 9219.89 839.02 9251.95 839.02 9235.92 793.57"/><polygon class="mw" points="10384.86 795.19 10372.73 829.59 10396.99 829.59 10384.86 795.19"/><polygon class="mx" points="9071.65 796.41 9056.21 840.19 9087.09 840.19 9071.65 796.41"/><polygon class="my" points="10309.84 795.88 10297.73 830.23 10321.95 830.23 10309.84 795.88"/><polygon class="mz" points="10336.14 795.9 10324.03 830.26 10348.26 830.26 10336.14 795.9"/><polygon class="na" points="10747.79 796.4 10733.98 835.59 10761.61 835.59 10747.79 796.4"/><polygon class="nb" points="9355.12 797.03 9341.33 836.13 9368.91 836.13 9355.12 797.03"/><polygon class="nc" points="9009.22 798.22 8992.15 846.6 9026.28 846.6 9009.22 798.22"/><polygon class="nd" points="9164.08 798.5 9146.33 848.83 9181.83 848.83 9164.08 798.5"/><polygon class="ne" points="9386.5 798.76 9372.94 837.22 9400.07 837.22 9386.5 798.76"/><polygon class="nf" points="10579.3 799.19 10567.69 832.12 10590.92 832.12 10579.3 799.19"/><polygon class="ng" points="10409.23 799.96 10397.09 834.37 10421.36 834.37 10409.23 799.96"/><polygon class="nh" points="9323.51 800.55 9309.42 840.49 9337.59 840.49 9323.51 800.55"/><polygon class="ni" points="9255.62 801.25 9241.05 842.56 9270.19 842.56 9255.62 801.25"/><polygon class="nj" points="10749.09 802.15 10736.98 836.51 10761.21 836.51 10749.09 802.15"/><polygon class="nk" points="10873.36 803.32 10859.6 842.35 10887.13 842.35 10873.36 803.32"/><polygon class="nl" points="10700.41 804.46 10686.02 845.26 10714.8 845.26 10700.41 804.46"/><polygon class="nm" points="10459.5 804.33 10446.39 841.51 10472.61 841.51 10459.5 804.33"/><polygon class="nn" points="9111.05 805.52 9095.68 849.1 9126.42 849.1 9111.05 805.52"/><polygon class="no" points="10360.22 805.34 10348.1 839.71 10372.34 839.71 10360.22 805.34"/><polygon class="np" points="9220.84 806.3 9206.1 848.09 9235.58 848.09 9220.84 806.3"/><polygon class="nq" points="10802.02 806.52 10789.21 842.85 10814.83 842.85 10802.02 806.52"/><polygon class="nr" points="10775.7 807.3 10763.25 842.62 10788.16 842.62 10775.7 807.3"/><polygon class="ns" points="9258.14 808.99 9240.42 859.23 9275.86 859.23 9258.14 808.99"/><polygon class="nt" points="10691.44 808.59 10678.6 844.99 10704.27 844.99 10691.44 808.59"/><polygon class="nu" points="8986.1 810.7 8974.11 844.72 8998.1 844.72 8986.1 810.7"/><polygon class="nv" points="9291.59 812.33 9277.23 853.06 9305.95 853.06 9291.59 812.33"/><polygon class="nw" points="10670.99 811.82 10659.76 843.67 10682.22 843.67 10670.99 811.82"/><polygon class="nx" points="10843.62 812.53 10830.18 850.64 10857.06 850.64 10843.62 812.53"/><polygon class="ny" points="9116.22 813.79 9098.48 864.09 9133.95 864.09 9116.22 813.79"/><polygon class="nz" points="10728.49 812.87 10716.75 846.14 10740.23 846.14 10728.49 812.87"/><polygon class="oa" points="10706.32 813.45 10694.8 846.11 10717.83 846.11 10706.32 813.45"/><polygon class="ob" points="9185.44 814.96 9170.53 857.24 9200.35 857.24 9185.44 814.96"/><polygon class="oc" points="9148.24 815.86 9133.06 858.9 9163.42 858.9 9148.24 815.86"/><polygon class="od" points="9034.08 817.17 9018.63 860.97 9049.52 860.97 9034.08 817.17"/><polygon class="oe" points="10685.62 818.75 10674.18 851.2 10697.07 851.2 10685.62 818.75"/><polygon class="of" points="10910.5 826.2 10897.56 862.89 10923.44 862.89 10910.5 826.2"/><polygon class="og" points="9212.86 829.16 9195.14 879.43 9230.59 879.43 9212.86 829.16"/><polygon class="oh" points="8995.9 830.23 8984.07 863.76 9007.72 863.76 8995.9 830.23"/><polygon class="oi" points="9071.47 832.46 9053.99 882.03 9088.95 882.03 9071.47 832.46"/><polygon class="oj" points="10667.7 833.45 10656.33 865.7 10679.08 865.7 10667.7 833.45"/><polygon class="ok" points="10823.48 835.07 10810.48 871.92 10836.48 871.92 10823.48 835.07"/><polygon class="ol" points="8986.73 836.44 8968.98 886.77 9004.48 886.77 8986.73 836.44"/><polygon class="om" points="10883.87 840.14 10871.21 876.05 10896.54 876.05 10883.87 840.14"/><polygon class="on" points="10796.56 840.65 10784.09 876 10809.02 876 10796.56 840.65"/><polygon class="oo" points="10857.62 842.23 10845.39 876.88 10869.84 876.88 10857.62 842.23"/><polygon class="op" points="9001.22 847.53 8984.8 894.11 9017.65 894.11 9001.22 847.53"/><polygon class="oq" points="9031.83 848.87 9015.44 895.32 9048.21 895.32 9031.83 848.87"/><polygon class="or" points="9169.18 852.49 9151.46 902.74 9186.9 902.74 9169.18 852.49"/><polygon class="os" points="10836.04 851.56 10824.15 885.28 10847.93 885.28 10836.04 851.56"/><polygon class="lc" points="10779.02 853.21 10767.72 885.25 10790.33 885.25 10779.02 853.21"/><polygon class="ot" points="9008.2 855.52 8995.99 890.13 9020.4 890.13 9008.2 855.52"/><polygon class="ou" points="9124.19 872.06 9106.55 922.08 9141.83 922.08 9124.19 872.06"/><polygon class="ov" points="8992.98 885.43 8975.27 935.64 9010.69 935.64 8992.98 885.43"/><polygon class="ow" points="9010.56 889.21 8993.34 938.04 9027.78 938.04 9010.56 889.21"/><polygon class="ox" points="9040.46 890.76 9024.67 935.51 9056.24 935.51 9040.46 890.76"/><polygon class="oy" points="9081.75 891.07 9064.79 939.14 9098.7 939.14 9081.75 891.07"/><polygon class="oz" points="9040.92 899.29 9031.81 925.13 9050.03 925.13 9040.92 899.29"/><polygon class="pa" points="9035.64 900.28 9025.53 928.97 9045.76 928.97 9035.64 900.28"/><polygon class="pb" points="9000.34 932.04 8983.13 980.85 9017.56 980.85 9000.34 932.04"/><polygon class="pc" points="9026.73 934.58 9009.43 983.63 9044.03 983.63 9026.73 934.58"/><polygon class="pd" points="9009.66 967.12 8995.85 1006.27 9023.47 1006.27 9009.66 967.12"/></g></symbol></defs><use width="19871.75" height="1454.82" transform="translate(-8981.4 81.18)" xlink:href="#d"/></svg>