<svg xmlns="http://www.w3.org/2000/svg" xmlns:xlink="http://www.w3.org/1999/xlink" width="1920" height="1080" viewBox="0 0 1920 1080"><defs><style>.a,.b,.c,.l{fill:none;}.aa,.ab,.ac,.ad,.ae,.af,.ag,.ah,.ai,.aj,.ak,.al,.am,.an,.ao,.ap,.aq,.ar,.as,.at,.au,.av,.aw,.ax,.ay,.az,.b,.ba,.bb,.bc,.bd,.be,.bf,.bg,.bh,.bi,.bj,.bk,.bl,.bm,.bn,.bo,.bp,.bq,.br,.bs,.bt,.bu,.bv,.bw,.bx,.by,.bz,.c,.ca,.cb,.cc,.cd,.ce,.cf,.cg,.ch,.ci,.cj,.ck,.cl,.cm,.cn,.co,.cp,.cq,.cr,.cs,.ct,.cu,.cv,.cw,.cx,.cy,.cz,.da,.db,.dc,.dd,.de,.df,.dg,.dh,.di,.dj,.dk,.dl,.dm,.dn,.do,.dp,.dq,.dr,.ds,.dt,.du,.dv,.dw,.dx,.dy,.dz,.ea,.eb,.ec,.ed,.ee,.ef,.eg,.eh,.ei,.l,.n,.o,.p,.q,.r,.s,.t,.u,.v,.w,.x,.y,.z{stroke:#d9b776;}.b,.c{stroke-miterlimit:11.34;}.b{stroke-width:1.42px;}.c{stroke-linecap:round;stroke-width:1.98px;}.d{clip-path:url(#a);}.aa,.ab,.ac,.ad,.ae,.af,.ag,.ah,.ai,.aj,.ak,.al,.am,.an,.ao,.ap,.aq,.ar,.as,.at,.au,.av,.aw,.ax,.ay,.az,.ba,.bb,.bc,.bd,.be,.bf,.bg,.bh,.bi,.bj,.bk,.bl,.bm,.bn,.bo,.bp,.bq,.br,.bs,.bt,.bu,.bv,.bw,.bx,.by,.bz,.ca,.cb,.cc,.cd,.ce,.cf,.cg,.ch,.ci,.cj,.ck,.cl,.cm,.cn,.co,.cp,.cq,.cr,.cs,.ct,.cu,.cv,.cw,.cx,.cy,.cz,.da,.db,.dc,.dd,.de,.df,.dg,.dh,.di,.dj,.dk,.dl,.dm,.dn,.do,.dp,.dq,.dr,.ds,.dt,.du,.dv,.dw,.dx,.dy,.dz,.e,.ea,.eb,.ec,.ed,.ee,.ef,.eg,.eh,.ei,.n,.o,.p,.q,.r,.s,.t,.u,.v,.w,.x,.y,.z{fill:#161515;}.f{clip-path:url(#b);}.g{opacity:0.5;}.h,.i{isolation:isolate;}.i{font-size:56.8px;fill:#d9b776;font-family:morse;}.j{font-size:55.03px;}.k{font-size:59.17px;}.l{stroke-miterlimit:8.09;stroke-width:11.09px;}.m{fill:url(#c);}.n{stroke-width:2.08px;}.o{stroke-width:2.21px;}.p{stroke-width:2.21px;}.q{stroke-width:2.21px;}.r{stroke-width:2.21px;}.s{stroke-width:2.21px;}.t{stroke-width:2.21px;}.u{stroke-width:2.21px;}.v{stroke-width:2.21px;}.w{stroke-width:2.21px;}.x{stroke-width:2.21px;}.y{stroke-width:2.21px;}.z{stroke-width:2.21px;}.aa{stroke-width:2.21px;}.ab{stroke-width:2.19px;}.ac{stroke-width:2.17px;}.ad{stroke-width:2.16px;}.ae{stroke-width:2.14px;}.af{stroke-width:2.12px;}.ag{stroke-width:2.11px;}.ah{stroke-width:2.08px;}.ai{stroke-width:2.05px;}.aj{stroke-width:2.03px;}.ak{stroke-width:2px;}.al{stroke-width:1.98px;}.am{stroke-width:1.95px;}.an{stroke-width:1.9px;}.ao{stroke-width:1.81px;}.ap{stroke-width:2.07px;}.aq{stroke-width:2.07px;}.ar{stroke-width:2.07px;}.as{stroke-width:2.07px;}.at{stroke-width:2.04px;}.au{stroke-width:2.01px;}.av{stroke-width:1.99px;}.aw{stroke-width:1.9px;}.ax{stroke-width:2.1px;}.ay{stroke-width:2.2px;}.az{stroke-width:2.21px;}.ba{stroke-width:2.18px;}.bb{stroke-width:2.15px;}.bc{stroke-width:2.08px;}.bd{stroke-width:2.02px;}.be{stroke-width:2px;}.bf{stroke-width:2.01px;}.bg{stroke-width:2.08px;}.bh{stroke-width:2.14px;}.bi{stroke-width:2.13px;}.bj{stroke-width:2.06px;}.bk{stroke-width:1.97px;}.bl{stroke-width:1.99px;}.bm{stroke-width:1.97px;}.bn{stroke-width:1.96px;}.bo{stroke-width:1.91px;}.bp{stroke-width:1.86px;}.bq{stroke-width:2px;}.br{stroke-width:2.02px;}.bs{stroke-width:2.03px;}.bt{stroke-width:2.03px;}.bu{stroke-width:2.03px;}.bv{stroke-width:1.99px;}.bw{stroke-width:1.95px;}.bx{stroke-width:2.08px;}.by{stroke-width:2.07px;}.bz{stroke-width:2.04px;}.ca{stroke-width:1.94px;}.cb{stroke-width:2.02px;}.cc{stroke-width:2.13px;}.cd{stroke-width:2.08px;}.ce{stroke-width:2.03px;}.cf{stroke-width:2.02px;}.cg{stroke-width:2.01px;}.ch{stroke-width:2px;}.ci{stroke-width:2px;}.cj{stroke-width:1.99px;}.ck{stroke-width:1.98px;}.cl{stroke-width:1.98px;}.cm{stroke-width:1.97px;}.cn{stroke-width:1.92px;}.co{stroke-width:1.8px;}.cp{stroke-width:2.35px;}.cq{stroke-width:2.34px;}.cr{stroke-width:2.34px;}.cs{stroke-width:2.31px;}.ct{stroke-width:2.29px;}.cu{stroke-width:2.26px;}.cv{stroke-width:2.24px;}.cw{stroke-width:2.22px;}.cx{stroke-width:2.2px;}.cy{stroke-width:2.18px;}.cz{stroke-width:2.16px;}.da{stroke-width:2.05px;}.db{stroke-width:2.55px;}.dc{stroke-width:2.47px;}.dd{stroke-width:2.43px;}.de{stroke-width:2.4px;}.df{stroke-width:2.39px;}.dg{stroke-width:2.38px;}.dh{stroke-width:2.37px;}.di{stroke-width:2.36px;}.dj{stroke-width:2.35px;}.dk{stroke-width:2.32px;}.dl{stroke-width:2.29px;}.dm{stroke-width:2.24px;}.dn{stroke-width:2.18px;}.do{stroke-width:2.13px;}.dp{stroke-width:2.06px;}.dq{stroke-width:1.88px;}.dr{stroke-width:2.27px;}.ds{stroke-width:2.13px;}.dt{stroke-width:2.12px;}.du{stroke-width:2.1px;}.dv{stroke-width:2.09px;}.dw{stroke-width:2.08px;}.dx{stroke-width:1.79px;}.dy{stroke-width:2.65px;}.dz{stroke-width:2.64px;}.ea{stroke-width:2.64px;}.eb{stroke-width:2.63px;}.ec{stroke-width:2.62px;}.ed{stroke-width:2.59px;}.ee{stroke-width:2.57px;}.ef{stroke-width:2.51px;}.eg{stroke-width:2.46px;}.eh{stroke-width:2.42px;}.ei{stroke-width:2.27px;}</style><clipPath id="a"><rect class="a" x="8981.4" width="1920" height="1080"/></clipPath><clipPath id="b"><path class="a" d="M8975.63,1079.42h1920.49l5.28-465.65c-52.87,10.52-116.66,23.88-188.29,40.35-164.18,37.73-245.88,57.06-266.75,64.74-25.64,9.44-56.78,22.33-102.87,23.77-39.75,1.25-48.32-7.35-99.43-8-58.09-.73-57.47,10.24-112.52,8.89-54.11-1.33-67.08-12.23-109.81-7.06-14.24,1.72-28.14,4.79-52.87,5.29-20.38.42-24.21-1.4-42.7,0-24,1.82-30.36,5.84-40.26,3.28-12.21-3.15-8.24-10.74-22.61-15-9.3-2.76-14-.56-27.41-2.5-15.19-2.2-21.38-6.82-31.86-11.12-19.86-8.15-28.83-4.37-66.59-11.72-38.65-7.52-35.3-12.65-64.81-16.5-28.15-3.68-30.9,1-62.88-1.76-25.17-2.18-43.83-7.21-81.15-17.25-40.15-10.81-41.06-13.61-66-18.44-30.13-5.83-44.1-4.7-69.28-7.64-50.18-5.87-60.29-18-103.9-29.45-59.41-15.56-83.49-4.21-188.84-13.78a1219.68,1219.68,0,0,1-126.52-18.21"/></clipPath><pattern id="c" width="153.43" height="153.43" patternTransform="matrix(1.29, 0.74, -1.43, 0.67, 9651.04, 692.49)" patternUnits="userSpaceOnUse" viewBox="0 0 153.43 153.43"><rect class="a" width="153.43" height="153.43"/><path class="b" d="M20.2,9.39c-9-1.18-13.94,1.89-17.48,2.6m42.52-.71c-7.76,3.15-14.18,1.18-19.37-.71M50.2,9.39c10.16-1.89,17,2.6,21.26,3.07m5.9,0c4.26,0,7.33-2.12,10.87-3.07a20.59,20.59,0,0,1,12.52.24m25.51-.24c-6.14,3.07-17.48,2.83-20.79,2.13m46.3.7c-1.18-.23-6.38,1.18-10.22-1.41-5.13-1.42-4.42-1.66-10.09-1.42M8.38,23.09A26.46,26.46,0,0,1,0,25.3m33.9.63c-1.18-.24-6.38,1.18-10.23-1.42-5.13-1.42-4.42-1.65-10.09-1.42m94.73,16.77c3.54-.71,8.5-3.78,17.48-2.6m25,1.89c-7.76,3.16-14.18,1.18-19.37-.71M43.11,124c3.54-.71,8.5-3.78,17.48-2.6m25,1.89c-7.75,3.15-14.17,1.18-19.37-.71m24.33-1.18c10.16-1.89,17,2.6,21.26,3.07m5.91,0c4.25,0,7.32-2.13,10.86-3.07a20.65,20.65,0,0,1,12.52.23m-126.61-.7c-3.88,1.94-9.84,2.56-14.53,2.57m40,.26c-1.18-.23-6.38,1.18-10.23-1.42-5.13-1.41-4.42-1.65-10.09-1.41M3,150.65a23.68,23.68,0,0,1-2.95,1m7.91-2.87c10.16-1.89,17,2.6,21.26,3.07m5.91,0c4.25,0,7.32-2.13,10.86-3.07a20.59,20.59,0,0,1,12.52.24M84,148.76c-6.15,3.07-17.48,2.84-20.79,2.13m46.3.71c-1.18-.24-6.38,1.17-10.23-1.42-5.13-1.42-4.42-1.66-10.09-1.42M114,150.89c3.54-.71,8.5-3.78,17.48-2.6M0,53.09a28.93,28.93,0,0,1,13.94-1.53m25,1.88c-7.76,3.16-14.18,1.19-19.37-.7m24.33-1.18c10.15-1.89,17,2.59,21.26,3.07m5.9,0c4.25,0,7.33-2.13,10.87-3.07a20.65,20.65,0,0,1,12.52.23M120,51.56c-6.14,3.07-17.48,2.83-20.79,2.12m46.3.71c-1.18-.24-6.38,1.18-10.22-1.42-5.13-1.41-4.42-1.65-10.09-1.41M2.83,95.61c3.55-.71,8.51-3.78,17.49-2.6m25,1.89C37.6,98.05,31.18,96.08,26,94.19M50.31,93c10.16-1.89,17,2.6,21.26,3.07m5.91,0c4.25,0,7.32-2.12,10.87-3.07a20.74,20.74,0,0,1,12.52.24M126.38,93c-6.14,3.07-17.48,2.84-20.79,2.13m46.3.71c-1.18-.24-6.38,1.18-10.23-1.42-5.12-1.42-4.41-1.65-10.08-1.42M3.19,137.78c3.54-.71,8.5-3.78,17.48-2.6m25,1.89c-7.76,3.15-14.17,1.18-19.37-.71m24.33-1.18c10.16-1.89,17,2.6,21.26,3.07m5.9,0c4.26,0,7.33-2.13,10.87-3.07a20.65,20.65,0,0,1,12.52.23m25.51-.23c-6.14,3.07-17.48,2.83-20.79,2.12m46.3.71c-1.18-.23-6.37,1.18-10.22-1.42-5.13-1.41-4.42-1.65-10.09-1.41M36.5,25.81C40,25.1,45,22,54,23.21M79,25.1c-7.76,3.15-14.18,1.18-19.37-.71M84,23.21c10.15-1.89,17,2.6,21.26,3.07m5.9,0c4.25,0,7.33-2.13,10.87-3.07a20.59,20.59,0,0,1,12.52.24M1.06,37.14c10.16-1.88,17,2.6,21.26,3.08m5.91,0c4.25,0,7.32-2.13,10.87-3.08a20.71,20.71,0,0,1,12.51.24m25.52-.23C71,40.22,59.65,40,56.34,39.27m46.3.71c-1.18-.24-6.38,1.18-10.23-1.42-5.13-1.41-4.42-1.65-10.09-1.41M2.25,67.62c3.54-.71,8.5-3.78,17.47-2.6m25,1.89C37,70.06,30.59,68.09,25.39,66.2M49.73,65c10.15-1.89,17,2.6,21.26,3.07m5.9,0c4.25,0,7.32-2.12,10.86-3.07a20.62,20.62,0,0,1,12.53.24M125.79,65c-6.15,3.07-17.48,2.83-20.79,2.13m46.3.7c-1.18-.23-6.38,1.19-10.23-1.41C135.94,65,136.65,64.78,131,65M41.22,81.44c3.54-.71,8.51-3.78,17.48-2.6m25,1.89C76,83.88,69.57,81.91,64.37,80M88.7,78.84c10.16-1.89,17,2.6,21.26,3.07m5.91,0c4.25,0,7.32-2.13,10.86-3.07a20.59,20.59,0,0,1,12.52.24M44.76,110.14c3.55-.71,8.51-3.78,17.48-2.6m25,1.89c-7.75,3.15-14.17,1.18-19.37-.71m24.34-1.18c10.15-1.89,17,2.6,21.25,3.07m5.91,0c4.25,0,7.32-2.13,10.86-3.07a20.62,20.62,0,0,1,12.53.24m-127.21-.59c-4.18,2.08-10.77,2.64-15.59,2.56m41.1.27c-1.18-.24-6.38,1.18-10.22-1.42-5.13-1.41-4.42-1.65-10.09-1.41m-9.1-28C8.56,80.76,4.08,81.46,0,81.69M37.2,82C36,81.79,30.83,83.21,27,80.61c-5.13-1.42-4.42-1.65-10.09-1.42M153.43,25.3A46.16,46.16,0,0,1,141,25.22m12.41,98.24a33.67,33.67,0,0,1-6.26-.45m6.26,28.62c-6.45,1.66-11.9,0-16.42-1.69m16.42-96.85a30.19,30.19,0,0,1-3.55,1.06m3.55,55.6a29.21,29.21,0,0,1-5.2-.44m5.2-27.62a41,41,0,0,1-9.1-.37"/><path class="c" d="M1.3,5.31h0M7,4.41H7m5.15-1.75h0m5.46-.36h0m5.53.36h0M28.6,3.91h0m5.23,1h0m5.75.35h0m5.83-.9h0m5.16-1.75h0M56,2.3h0m5.52.36h0M67,3.91h0M72,5h0m5.68.19h0m5.83-.9h0M88.62,2.5h0m5.47-.36h0m5.52.36h0m5.49,1.25h0m5.4,1h0m5.6.35h0m5.83-.9h0m5.16-1.75h0m5.46-.36h0m5.52.36h0m5.49,1.25h0m4.92,1h0M2.34,18.27h0m5.15-1.75h0M13,16.16h0m5.53.36h0M24,17.78h0m5.23,1h0m5.75.36h0m5.83-.91h0m5.16-1.75h0m5.45-.36h0m5.53.36h0m5.49,1.26h0m4.91,1h0M73,19h0m5.83-.91h0M84,16.36h0M89.45,16h0m5.53.36h0m5.49,1.26h0m5.39,1h0m5.61.36h0m5.83-.91h0m5.15-1.75h0m5.46-.36h0m5.53.36h0m5.49,1.26h0m4.91,1h0m5.64.2h0M1.35,30.69h0m5.46-.35h0m5.52.35h0M17.82,32h0M23.06,33h0m5.75.35h0m5.83-.9h0m5.15-1.76h0m5.46-.35h0m5.53.35h0M56.27,32h0M61.18,33h0m5.69.19h0m5.83-.9h0m5.15-1.76h0m5.46-.35h0m5.52.35h0m5.5,1.26h0m5.39,1.05h0m5.61.35h0m5.83-.9h0m5.15-1.76h0m5.46-.35h0m5.53.35h0m5.49,1.26h0m4.91,1.05h0m5.64.19h0m5.83-.9h0M1.82,44.39h0M7.28,44h0m5.53.35h0m5.49,1.26h0m5.23,1.05h0m5.75.35h0m5.83-.9h0m5.16-1.76h0M45.73,44h0m5.52.35h0m5.49,1.26h0m4.91,1.05h0m5.69.19h0m5.83-.9h0m5.15-1.76h0m5.46-.35h0m5.53.35h0m5.49,1.26h0m5.39,1h0m5.61.36h0m5.83-.9h0m5.16-1.76h0m5.45-.35h0m5.53.35h0m5.49,1.26h0m4.91,1h0m5.64.2h0m5.83-.9h0M3.28,60.79h0M8.43,59h0m5.46-.36h0m5.53.36h0m5.49,1.26h0m5.24,1h0m5.75.36h0m5.83-.91h0M46.88,59h0m5.46-.36h0m5.52.36h0m5.5,1.26h0m4.91,1h0m5.68.2h0m5.83-.91h0m5.16-1.75h0m5.46-.36h0m5.52.36h0m5.49,1.26h0m5.4,1h0m5.6.36h0m5.83-.91h0m5.16-1.75h0m5.46-.36h0m5.52.36h0m5.49,1.26h0m4.92,1h0m5.63.2h0M2.81,74h0M8,72.27H8m5.46-.36h0m5.53.36h0m5.49,1.25h0m5.23,1h0m5.75.35h0m5.83-.9h0m5.16-1.75h0m5.46-.36h0m5.52.36h0m5.5,1.25h0m4.91,1h0m5.68.19h0m5.83-.9h0m5.16-1.75h0m5.46-.36h0m5.52.36h0m5.49,1.25h0m5.4,1h0m5.6.35h0m5.83-.9h0m5.16-1.75h0m5.46-.36h0m5.52.36h0m5.49,1.25h0m4.91,1h0m5.64.19h0M1.35,89.1h0m5.24-.9h0m5.15-1.76h0m5.46-.35h0m5.53.35h0m5.49,1.26h0m5.23,1h0m5.75.36h0M45,88.2h0m5.16-1.76h0m5.46-.35h0m5.52.35h0m5.49,1.26h0m4.91,1h0m5.69.2h0M83.09,88h0m5.15-1.75h0m5.46-.35h0m5.53.35h0m5.49,1.26h0m5.39,1h0m5.61.36h0m5.83-.91h0m5.16-1.75h0m5.46-.35h0m5.52.35h0m5.49,1.26h0m4.91,1h0M3.75,103.27h0m5.67-.9h0m5.16-1.76h0m5.46-.35h0m5.52.35h0m5.49,1.26h0m5.24,1h0m5.75.35h0m5.83-.9h0M53,100.61h0m5.46-.35h0m5.53.35h0m5.49,1.26h0m4.91,1h0m5.69.19h0m5.83-.9h0m5.15-1.76h0m5.46-.35h0m5.52.35h0m5.5,1.26h0m5.39,1.05h0m5.61.35h0m5.83-.9h0m5.15-1.76h0m5.46-.35h0m5.53.35h0m5.49,1.26h0m4.91,1.05h0M3.28,117h0m5.67-.9H9m5.15-1.76h0m5.46-.35h0m5.53.35h0m5.49,1.26h0m5.23,1.05h0m5.75.35h0m5.83-.9h0m5.16-1.76h0M58,114h0m5.52.35h0m5.5,1.26h0m4.91,1.05h0m5.68.19h0m5.83-.9h0m5.16-1.76h0m5.46-.35h0m5.52.35h0m5.49,1.26h0m5.4,1h0m5.6.35h0m5.83-.9h0m5.16-1.76h0m5.46-.35h0m5.52.35h0m5.49,1.26h0m4.91,1h0M5.31,130.36h0m5.16-1.75h0m5.46-.36h0m5.52.36h0m5.5,1.25h0m5.23,1h0m5.75.35h0m5.83-.9h0m5.15-1.75h0m5.46-.36h0m5.53.36h0m5.49,1.25h0m4.91,1h0m5.69.19h0m5.83-.9h0M87,128.44h0m5.46-.35h0m5.53.35h0m5.49,1.26h0m5.39,1.05h0m5.61.35h0m5.83-.9h0m5.15-1.76h0m5.46-.35h0m5.53.35h0m5.49,1.26h0m4.91,1.05h0m5.64.19h0M1.71,144.22h0m5.16-1.75h0m5.46-.36h0m5.52.36h0m5.49,1.25h0m5.24,1.05h0m5.75.35h0m5.83-.9h0m5.15-1.75h0m5.46-.36h0m5.53.36h0m5.49,1.25h0m4.91,1.05h0m5.69.19h0m5.83-.9h0m5.15-1.75h0m5.46-.36h0m5.52.36h0m5.5,1.25h0m5.39,1.05h0m5.61.35h0m5.83-.9h0m5.15-1.75h0m5.46-.36h0m5.53.36h0m5.49,1.25h0m4.91,1.05h0m5.63.19h0"/></pattern><symbol id="d" viewBox="0 0 19871.75 1088"><g class="d"><path class="e" d="M8981.4,1080h1920V613.77c-52.87,10.52-116.66,23.88-188.29,40.35-164.18,37.73-245.88,57.06-266.75,64.74-25.64,9.44-56.78,22.33-102.87,23.77-39.75,1.25-48.32-7.35-99.43-8-58.09-.73-57.47,10.24-112.52,8.89-54.11-1.33-67.08-12.23-109.81-7.06-14.24,1.72-28.14,4.79-52.87,5.29-20.37.42-24.21-1.4-42.7,0-24,1.82-30.36,5.84-40.26,3.28-12.21-3.15-8.24-10.74-22.61-15-9.3-2.76-14-.56-27.41-2.5-15.19-2.2-21.38-6.82-31.86-11.12-19.86-8.15-28.83-4.37-66.59-11.72-38.65-7.52-35.3-12.65-64.81-16.5-28.15-3.68-30.9,1-62.88-1.76-25.17-2.18-43.83-7.21-81.15-17.25-40.15-10.81-41.06-13.61-66-18.44-30.13-5.83-44.1-4.7-69.28-7.64-50.18-5.87-60.29-18-103.9-29.45-59.41-15.56-83.49-4.21-188.84-13.78-11.29-1-19.45-1.88-26.3-2.67a922.31,922.31,0,0,1-92.88-15.57"/><g class="f"><g class="g"><g class="h"><text class="i" transform="translate(8748.29 686.6) scale(0.25 0.2)">APPALACHIA INTERACTIVE APPALACHIA INTERACTIVE APPALACHIA INTERACTIVE APPALACHIA INTERACTIVE APPALACHIA INTERACTIVE APPALACHIA INTERACTIVE <tspan class="j"><tspan x="80.32" y="29.58" xml:space="preserve">    APPALACHIA INTERACTIVE APPALACHIA INTERACTIVE APPALACHIA INTERACTIVE APPALACHIA INTERACTIVE APPALACHIA INTERACTIVE APPALACHIA INTERACTIVE </tspan></tspan><tspan x="-319.52" y="59.17" xml:space="preserve">                  APPALACHIA INTERACTIVE APPALACHIA INTERACTIVE APPALACHIA INTERACTIVE APPALACHIA INTERACTIVE APPALACHIA INTERACTIVE APPALACHIA INTERACTIVE </tspan><tspan class="k"><tspan x="-402.21" y="88.75" xml:space="preserve">           APPALACHIA INTERACTIVE APPALACHIA INTERACTIVE APPALACHIA INTERACTIVE APPALACHIA INTERACTIVE APPALACHIA INTERACTIVE APPALACHIA INTERACTIVE </tspan></tspan></text></g><g class="h"><text class="i" transform="translate(7956.57 725.46) scale(0.41 0.3)">APPALACHIA INTERACTIVE APPALACHIA INTERACTIVE APPALACHIA INTERACTIVE APPALACHIA INTERACTIVE APPALACHIA INTERACTIVE APPALACHIA INTERACTIVE <tspan class="j"><tspan x="80.32" y="29.58" xml:space="preserve">    APPALACHIA INTERACTIVE APPALACHIA INTERACTIVE APPALACHIA INTERACTIVE APPALACHIA INTERACTIVE APPALACHIA INTERACTIVE APPALACHIA INTERACTIVE </tspan></tspan><tspan x="-319.52" y="59.17" xml:space="preserve">                  APPALACHIA INTERACTIVE APPALACHIA INTERACTIVE APPALACHIA INTERACTIVE APPALACHIA INTERACTIVE APPALACHIA INTERACTIVE APPALACHIA INTERACTIVE </tspan><tspan class="k"><tspan x="-402.21" y="88.75" xml:space="preserve">           APPALACHIA INTERACTIVE APPALACHIA INTERACTIVE APPALACHIA INTERACTIVE APPALACHIA INTERACTIVE APPALACHIA INTERACTIVE APPALACHIA INTERACTIVE </tspan></tspan></text></g><g class="h"><text class="i" transform="translate(6637.03 783.47) scale(0.69 0.45)">APPALACHIA INTERACTIVE APPALACHIA INTERACTIVE APPALACHIA INTERACTIVE APPALACHIA INTERACTIVE APPALACHIA INTERACTIVE APPALACHIA INTERACTIVE <tspan class="j"><tspan x="80.32" y="29.58" xml:space="preserve">    APPALACHIA INTERACTIVE APPALACHIA INTERACTIVE APPALACHIA INTERACTIVE APPALACHIA INTERACTIVE APPALACHIA INTERACTIVE APPALACHIA INTERACTIVE </tspan></tspan><tspan x="-319.52" y="59.17" xml:space="preserve">                  APPALACHIA INTERACTIVE APPALACHIA INTERACTIVE APPALACHIA INTERACTIVE APPALACHIA INTERACTIVE APPALACHIA INTERACTIVE APPALACHIA INTERACTIVE </tspan><tspan class="k"><tspan x="-402.21" y="88.75" xml:space="preserve">           APPALACHIA INTERACTIVE APPALACHIA INTERACTIVE APPALACHIA INTERACTIVE APPALACHIA INTERACTIVE APPALACHIA INTERACTIVE APPALACHIA INTERACTIVE </tspan></tspan></text></g><g class="h"><text class="i" transform="translate(4437.81 870.04) scale(1.15 0.67)">APPALACHIA INTERACTIVE APPALACHIA INTERACTIVE APPALACHIA INTERACTIVE APPALACHIA INTERACTIVE APPALACHIA INTERACTIVE APPALACHIA INTERACTIVE <tspan class="j"><tspan x="80.32" y="29.58" xml:space="preserve">    APPALACHIA INTERACTIVE APPALACHIA INTERACTIVE APPALACHIA INTERACTIVE APPALACHIA INTERACTIVE APPALACHIA INTERACTIVE APPALACHIA INTERACTIVE </tspan></tspan><tspan x="-319.52" y="59.17" xml:space="preserve">                  APPALACHIA INTERACTIVE APPALACHIA INTERACTIVE APPALACHIA INTERACTIVE APPALACHIA INTERACTIVE APPALACHIA INTERACTIVE APPALACHIA INTERACTIVE </tspan><tspan class="k"><tspan x="-402.21" y="88.75" xml:space="preserve">           APPALACHIA INTERACTIVE APPALACHIA INTERACTIVE APPALACHIA INTERACTIVE APPALACHIA INTERACTIVE APPALACHIA INTERACTIVE APPALACHIA INTERACTIVE </tspan></tspan></text></g><g class="h"><text class="i" transform="translate(772.43 999.25) scale(1.92 1)">APPALACHIA INTERACTIVE APPALACHIA INTERACTIVE APPALACHIA INTERACTIVE APPALACHIA INTERACTIVE APPALACHIA INTERACTIVE APPALACHIA INTERACTIVE <tspan class="j"><tspan x="80.32" y="29.58" xml:space="preserve">    APPALACHIA INTERACTIVE APPALACHIA INTERACTIVE APPALACHIA INTERACTIVE APPALACHIA INTERACTIVE APPALACHIA INTERACTIVE APPALACHIA INTERACTIVE </tspan></tspan><tspan x="-319.52" y="59.17" xml:space="preserve">                  APPALACHIA INTERACTIVE APPALACHIA INTERACTIVE APPALACHIA INTERACTIVE APPALACHIA INTERACTIVE APPALACHIA INTERACTIVE APPALACHIA INTERACTIVE </tspan><tspan class="k"><tspan x="-402.21" y="88.75" xml:space="preserve">           APPALACHIA INTERACTIVE APPALACHIA INTERACTIVE APPALACHIA INTERACTIVE APPALACHIA INTERACTIVE APPALACHIA INTERACTIVE APPALACHIA INTERACTIVE </tspan></tspan></text></g></g></g><path class="l" d="M8974.06,581.67l115.26,17.09,51,3.33,43,2.61,54.23,3.23s50.83,5.42,51.83,5.73,33.21,8.85,33.21,8.85L9359.36,634l34,9.14s27.17-.59,29.43,1.18,13.3,2.21,17.55,2.5S9494.63,657,9494.63,657l34,12.23,58.57,14.29,33.68,4.42,51.78.3,49.52,10.9s10.76,5.6,15.28,5.6,54.34,7.81,54.34,7.81l20.37,5,23.75,10,27.41,2.5,16.21,9.9,6.4,5.1c8.91-1.16,22.88-2.7,40.26-3.28,19.51-.65,25.36.5,42.7,0,26-.74,29.35-3.78,52.87-5.29,13.1-.84,29.92.13,63,2.12,48.81,2.92,53.19,4.62,73.2,4.23,26.77-.52,39.11-4,59-6.35,60-7.22,69.7,9.45,126.55,6.16,0,0,35-8.17,177.8-42.66h0s107-26.38,191.78-45.84c43.48-10,107.74-24.28,188.29-40.35"/><path class="m" d="M8965.72,614.58c9.76,7,23.13,14.89,33.89,13.42,11.12-1.53,14.86-12.39,17.63-12,3.74.52-5.47,20.09,0,21.17,6.71,1.34,28.07-26.53,38-25.41,11.22,1.28-7.68,60.92,2.71,62.12,5.53.64,18.41-10.85,24.41-22.59,8.56-16.77.69-29.34,10.84-31.76,3.1-.74,8.6-.71,19,3.52-3.47,22.43-13,39.8-22,52.24-3.29,4.54-19.36,13.59-20.33,27-.54,7.35,3,13.26,5.08,13.24,4.15-.06-2-24.94,17.28-29.65,8-1.94,20-.4,26.44,3.17,25.61,14.11-34.53,60-29.49,61.42,4.47,1.29,58.44-30.92,44.74-54.53-2.49-4.29-13.86-19.75-13.86-19.75a38.32,38.32,0,0,1-4.22-2.42,21.68,21.68,0,0,1-5.3-5.36c-3.73-6,6-22.08,14.57-21.71,5.88.26,12.06,8.28,11.12,15.2-.76,5.52-5.79,8.51-2.31,12,2.47,2.46,8.74,4.69,12.2,3.88,10.32-2.43-15.69-29.33,2.71-37.76,8.57-3.93,25.86-3.44,32.54.7,13.33,8.27-19.92,29.83-10.72,33.69,5.4,2.25,21.44-3.22,30-7.22,4.15-2,11.86-5.7,20.08-15.88,10.9-13.5,13.61-23.42,16.27-23.29,4.49.21-1.39,28.6,10.84,30.35,9.76,1.39,24.4-15.12,32.54-13.41,2.7.57,2.91,2.77,4.07,9.88,3,18.22,4.36,21,7.44,23.53,5.91,4.87,18.53,9.44,26.05,7.78,15.54-3.41,3.54-32.09,9.89-32.72,3.78-.38,10.44,9.58,14.91,16.23,31.1,46.27,35.09,48.82,38.57,48.77,9.23-.12,21.43-18.69,15.65-36.06-3.77-11.35-14.64-20.45-12.2-21.18,3.2-.95,16.63,16.21,40.67,17.65,15.52.93,24.92-5.33,31.18-2.82,9.84,3.93-10.07,20.69,1.23,25.79,5.3,2.4,15.64,1.39,21.82-.38,12.27-3.52,11.33-11,17.62-11.3,7.61-.37,9.26,10.52,27.44,18.16,3.48,1.47,20.52,8.26,36.27,5.84,17.69-2.71,19.39-14.81,28.72-14.53,10.75.33,8,16.38,32.4,29.4,15.61,8.33,32.91,10.4,36.69,10.82,7.34.8,25.93,2.82,39.11-2.39,12.67-5,7.3-11.54,19-15.53,12.29-4.2,33.9-2.34,44.74,3.53,10.41,5.64,5.51,12.06,16.27,15.53,8.6,2.77,12.81-1,25.75.7,19.52,2.58,20.91,12.62,46.1,16.94,3.88.67,6.75.93,10.52,1.27,37.09,3.28,80.62-2.8,98.6-5.5,49.62-7.46,59.44-12.47,73.21-8.47,16.31,4.74,16.95,16,29.82,16.23,10.66.23,13.65-7.4,29.83-10.58,14.46-2.85,27.08.3,40.12,2.2,32.41,4.72,38.65-2.46,92.73-2.91,48.53-.4,49.19,5.33,91.5,3.53,27.19-1.16,34.28-3.84,66.54-7.12,48.87-5,79.56-3.58,104.27-4.18,99.9-2.39,194.72-39.33,275.88-70.94,35.5-13.82,69.65-29.2,79.3-25.06,6,2.59,2.77,12.86-8.13,18.36-13.82,7-33.59,3.06-40.21,9.11-4.87,4.45,4.5,7.78,4.73,14.71.56,16.28-50.32,20.48-68.23,45-6.16,8.43-8.31,19.11-2.71,20.47,16.35,4,95.09-72.41,110.45-68.47,3.88,1,2.83,7.25.71,19.77-1.41,8.37-2.12,12.56-5.42,16.23-8.58,9.54-21.57,8.7-31.18,18.35-7.83,7.87-7.7,16.94-4.07,17.65,3.1.61,8.44-5,27.11-16.94,16.83-10.8,21-11.77,23.05-11.29,5.14,1.21-4.69,11.49,5.74,18.11,4.32,2.75,12.33,5,15.95,3.77,8.39-2.85-19.61-19.94-9.49-38.83,5-9.28,18-16.81,13.56-19-3-1.51-9.51,1.52-14.91,0-8.93-2.52-5.78-14.93-2.07-22.11,3.14-6.09,11.44-17.67,36.63-29.07q3.06,67.76,6.11,135.51l-1928.4,0Q8968.44,696.46,8965.72,614.58Z"/><polygon class="n" points="10881.65 615.46 10866.21 659.23 10897.09 659.23 10881.65 615.46"/><polygon class="o" points="10851.08 624.01 10834.69 670.48 10867.47 670.48 10851.08 624.01"/><polygon class="p" points="10819.15 627.39 10802.75 673.87 10835.54 673.87 10819.15 627.39"/><polygon class="q" points="10787.86 633.91 10771.46 680.4 10804.25 680.4 10787.86 633.91"/><polygon class="r" points="10754.76 631.85 10738.36 678.35 10771.16 678.35 10754.76 631.85"/><polygon class="s" points="10726.97 655.5 10710.56 702.02 10743.37 702.02 10726.97 655.5"/><polygon class="t" points="10695.2 659.95 10678.79 706.48 10711.6 706.48 10695.2 659.95"/><polygon class="u" points="10660.48 648.25 10644.06 694.78 10676.89 694.78 10660.48 648.25"/><polygon class="v" points="10630.21 661.58 10613.8 708.13 10646.63 708.13 10630.21 661.58"/><polygon class="w" points="10597.04 654.03 10580.62 700.59 10613.46 700.59 10597.04 654.03"/><polygon class="x" points="10566.02 664.55 10549.59 711.12 10582.44 711.12 10566.02 664.55"/><polygon class="y" points="10535.56 679.53 10519.13 726.11 10551.99 726.11 10535.56 679.53"/><polygon class="z" points="10503.02 678.82 10486.59 725.41 10519.45 725.41 10503.02 678.82"/><polygon class="aa" points="10473.39 694.09 10456.99 740.59 10489.79 740.59 10473.39 694.09"/><polygon class="ab" points="10442 695.76 10425.74 741.87 10458.26 741.87 10442 695.76"/><polygon class="ac" points="10412.29 704.16 10396.16 749.89 10428.42 749.89 10412.29 704.16"/><polygon class="ad" points="10387.91 726.21 10371.92 771.57 10403.91 771.57 10387.91 726.21"/><polygon class="ae" points="10355.79 722.86 10339.92 767.84 10371.65 767.84 10355.79 722.86"/><polygon class="af" points="10327.16 709.42 10311.41 754.06 10342.9 754.06 10327.16 709.42"/><polygon class="ag" points="10298.2 717.64 10282.57 761.95 10313.83 761.95 10298.2 717.64"/><polygon class="ah" points="10270.16 730.33 10254.73 774.1 10285.6 774.1 10270.16 730.33"/><polygon class="ai" points="10244.32 727.09 10229.08 770.3 10259.56 770.3 10244.32 727.09"/><polygon class="aj" points="10217.59 716.48 10202.54 759.15 10232.64 759.15 10217.59 716.48"/><polygon class="ak" points="10192.95 720.54 10178.15 762.52 10207.76 762.52 10192.95 720.54"/><polygon class="al" points="10169.76 729.3 10155.11 770.85 10184.41 770.85 10169.76 729.3"/><polygon class="am" points="10148.11 741.47 10133.64 782.49 10162.57 782.49 10148.11 741.47"/><polygon class="an" points="10125.79 740.2 10111.68 780.2 10139.9 780.2 10125.79 740.2"/><polygon class="ao" points="10106.23 736.63 10092.83 774.62 10119.63 774.62 10106.23 736.63"/><polygon class="ap" points="9323.4 604.05 9308.03 647.63 9338.77 647.63 9323.4 604.05"/><polygon class="aq" points="9341.43 627.84 9326.08 671.37 9356.79 671.37 9341.43 627.84"/><polygon class="ar" points="9365.87 639.96 9350.53 683.46 9381.22 683.46 9365.87 639.96"/><polygon class="as" points="9388.61 655.66 9373.28 699.12 9403.93 699.12 9388.61 655.66"/><polygon class="at" points="9415.25 660.92 9400.11 703.87 9430.4 703.87 9415.25 660.92"/><polygon class="au" points="9442.98 661.6 9428.04 703.96 9457.92 703.96 9442.98 661.6"/><polygon class="av" points="9463.81 674.35 9449.07 716.15 9478.56 716.15 9463.81 674.35"/><polygon class="aw" points="9476.96 701.47 9462.89 741.37 9491.03 741.37 9476.96 701.47"/><polygon class="ax" points="9215.43 632.38 9199.88 676.48 9230.99 676.48 9215.43 632.38"/><polygon class="ay" points="9244.26 640.65 9227.96 686.87 9260.56 686.87 9244.26 640.65"/><polygon class="az" points="9273.67 647.78 9257.27 694.27 9290.07 694.27 9273.67 647.78"/><polygon class="ba" points="9300.71 662.45 9284.5 708.41 9316.91 708.41 9300.71 662.45"/><polygon class="bb" points="9325.61 678.38 9309.7 723.51 9341.53 723.51 9325.61 678.38"/><polygon class="bc" points="9352.97 687.13 9337.53 730.92 9368.42 730.92 9352.97 687.13"/><polygon class="bd" points="9372 706.09 9356.98 748.69 9387.03 748.69 9372 706.09"/><polygon class="be" points="9398.75 710.44 9383.9 752.53 9413.59 752.53 9398.75 710.44"/><polygon class="bf" points="9185.15 627.41 9170.21 669.76 9200.09 669.76 9185.15 627.41"/><polygon class="bg" points="9205.56 645.12 9190.14 688.85 9220.98 688.85 9205.56 645.12"/><polygon class="bh" points="9222.78 668.46 9206.92 713.46 9238.65 713.46 9222.78 668.46"/><polygon class="bi" points="9253.37 676.3 9237.57 721.1 9269.17 721.1 9253.37 676.3"/><polygon class="bj" points="9261.89 707.86 9246.64 751.1 9277.14 751.1 9261.89 707.86"/><polygon class="bk" points="9289.22 719.34 9274.57 760.88 9303.88 760.88 9289.22 719.34"/><polygon class="bl" points="9130.63 619.66 9115.88 661.47 9145.38 661.47 9130.63 619.66"/><polygon class="bm" points="9134.5 645.53 9119.86 687.06 9149.15 687.06 9134.5 645.53"/><polygon class="bn" points="9162.75 656.22 9148.22 697.42 9177.27 697.42 9162.75 656.22"/><polygon class="bo" points="9164.65 681.48 9150.51 721.57 9178.79 721.57 9164.65 681.48"/><polygon class="bp" points="9154.87 703.01 9141.09 742.09 9168.66 742.09 9154.87 703.01"/><polygon class="bq" points="9022.7 583.47 9007.83 625.63 9037.57 625.63 9022.7 583.47"/><polygon class="br" points="9024.53 615.53 9009.55 657.99 9039.5 657.99 9024.53 615.53"/><polygon class="bs" points="9052.43 625.9 9037.37 668.6 9067.49 668.6 9052.43 625.9"/><polygon class="bt" points="9063.48 650.65 9048.41 693.37 9078.54 693.37 9063.48 650.65"/><polygon class="bu" points="9076.37 673.46 9061.33 716.12 9091.41 716.12 9076.37 673.46"/><polygon class="bv" points="9089.24 698.46 9074.44 740.42 9104.04 740.42 9089.24 698.46"/><polygon class="bw" points="9064.87 723.57 9050.41 764.57 9079.33 764.57 9064.87 723.57"/><polygon class="bx" points="8964.64 635.41 8949.22 679.14 8980.06 679.14 8964.64 635.41"/><polygon class="by" points="8987.41 653.63 8972.04 697.22 9002.78 697.22 8987.41 653.63"/><polygon class="bz" points="8982.56 682.54 8967.42 725.48 8997.7 725.48 8982.56 682.54"/><polygon class="ca" points="8999.58 704.26 8985.17 745.12 9013.99 745.12 8999.58 704.26"/><polygon class="cb" points="10890.53 634.95 10875.54 677.44 10905.51 677.44 10890.53 634.95"/><polygon class="cc" points="10871.86 661.28 10856.04 706.13 10887.68 706.13 10871.86 661.28"/><polygon class="cd" points="10841.34 664.91 10825.89 708.73 10856.8 708.73 10841.34 664.91"/><polygon class="ce" points="10813.21 658.48 10798.14 701.2 10828.27 701.2 10813.21 658.48"/><polygon class="cf" points="10789.44 672.91 10774.44 715.46 10804.44 715.46 10789.44 672.91"/><polygon class="cg" points="10763.3 668.31 10748.36 710.67 10778.24 710.67 10763.3 668.31"/><polygon class="ch" points="10739.29 685.12 10724.42 727.3 10754.17 727.3 10739.29 685.12"/><polygon class="ci" points="10714.14 685.7 10699.33 727.69 10728.94 727.69 10714.14 685.7"/><polygon class="cj" points="10688.69 669.19 10673.93 711.04 10703.45 711.04 10688.69 669.19"/><polygon class="ck" points="10664.36 672.16 10649.65 713.88 10679.07 713.88 10664.36 672.16"/><polygon class="cl" points="10641.92 693.36 10627.25 734.95 10656.59 734.95 10641.92 693.36"/><polygon class="cm" points="10619.23 695.8 10604.6 737.26 10633.85 737.26 10619.23 695.8"/><polygon class="cn" points="10597.74 697.7 10583.52 738 10611.95 738 10597.74 697.7"/><polygon class="co" points="10574.3 684.14 10560.95 721.99 10587.65 721.99 10574.3 684.14"/><polygon class="cp" points="10845.21 702.92 10827.77 752.36 10862.64 752.36 10845.21 702.92"/><polygon class="cq" points="10808.64 698.88 10791.25 748.2 10826.03 748.2 10808.64 698.88"/><polygon class="cr" points="10772.09 689.09 10754.75 738.29 10789.44 738.29 10772.09 689.09"/><polygon class="cs" points="10736.87 693.6 10719.72 742.23 10754.02 742.23 10736.87 693.6"/><polygon class="ct" points="10702.75 705.42 10685.8 753.49 10719.7 753.49 10702.75 705.42"/><polygon class="cu" points="10669.28 710.66 10652.52 758.19 10686.04 758.19 10669.28 710.66"/><polygon class="cv" points="10636.2 701.98 10619.61 749.02 10652.79 749.02 10636.2 701.98"/><polygon class="cw" points="10604.19 708.49 10587.73 755.16 10620.66 755.16 10604.19 708.49"/><polygon class="cx" points="10573.19 713.48 10556.87 759.76 10589.52 759.76 10573.19 713.48"/><polygon class="cy" points="10540.27 695.92 10524.1 741.77 10556.44 741.77 10540.27 695.92"/><polygon class="cz" points="10510.04 698.44 10494.01 743.87 10526.06 743.87 10510.04 698.44"/><polygon class="da" points="10485.43 718.44 10470.2 761.63 10500.66 761.63 10485.43 718.44"/><polygon class="db" points="8999.16 735.1 8980.27 788.67 9018.06 788.67 8999.16 735.1"/><polygon class="dc" points="9040.18 744.02 9021.84 796.03 9058.52 796.03 9040.18 744.02"/><polygon class="dd" points="9081.45 726.87 9063.4 778.04 9099.49 778.04 9081.45 726.87"/><polygon class="de" points="9118.57 737.05 9100.8 787.46 9136.35 787.46 9118.57 737.05"/><polygon class="df" points="9156.52 730.83 9138.81 781.05 9174.23 781.05 9156.52 730.83"/><polygon class="dg" points="9193.27 725.18 9175.62 775.22 9210.92 775.22 9193.27 725.18"/><polygon class="dh" points="9230.67 730.04 9213.09 779.9 9248.25 779.9 9230.67 730.04"/><polygon class="di" points="9266.89 722.78 9249.37 772.45 9284.41 772.45 9266.89 722.78"/><polygon class="dj" points="9303.76 722.21 9286.3 771.71 9321.22 771.71 9303.76 722.21"/><polygon class="dk" points="9341.44 737.26 9324.2 786.16 9358.69 786.16 9341.44 737.26"/><polygon class="dl" points="9374.96 724.45 9357.94 772.7 9391.97 772.7 9374.96 724.45"/><polygon class="dm" points="9407.28 717.4 9390.65 764.55 9423.91 764.55 9407.28 717.4"/><polygon class="dn" points="9437.3 709.58 9421.15 755.36 9453.44 755.36 9437.3 709.58"/><polygon class="do" points="9465.89 703.52 9450.11 748.25 9481.67 748.25 9465.89 703.52"/><polygon class="dp" points="9493.26 705.8 9477.98 749.11 9508.53 749.11 9493.26 705.8"/><polygon class="dq" points="9512.41 714.75 9498.48 754.24 9526.34 754.24 9512.41 714.75"/><polygon class="dr" points="9349.23 750.36 9332.39 798.12 9366.08 798.12 9349.23 750.36"/><polygon class="ds" points="9380 756.2 9364.18 801.05 9395.82 801.05 9380 756.2"/><polygon class="dt" points="9405.45 739.05 9389.75 783.58 9421.15 783.58 9405.45 739.05"/><polygon class="du" points="9433.74 735.06 9418.14 779.3 9449.34 779.3 9433.74 735.06"/><polygon class="dv" points="9462.54 740.72 9447.04 784.67 9478.04 784.67 9462.54 740.72"/><polygon class="dw" points="9488.19 724.91 9472.79 768.58 9503.59 768.58 9488.19 724.91"/><polygon class="dx" points="9504.87 717.23 9491.61 754.81 9518.12 754.81 9504.87 717.23"/><polygon class="dy" points="8985.25 747.89 8965.61 803.6 9004.9 803.6 8985.25 747.89"/><polygon class="dz" points="9031.28 737.45 9011.67 793.05 9050.89 793.05 9031.28 737.45"/><polygon class="ea" points="9077.47 737.48 9057.9 792.97 9097.04 792.97 9077.47 737.48"/><polygon class="eb" points="9124.47 734.4 9104.94 789.78 9144.01 789.78 9124.47 734.4"/><polygon class="ec" points="9168.58 762.25 9149.18 817.28 9187.99 817.28 9168.58 762.25"/><polygon class="ed" points="9213.23 764.19 9193.99 818.73 9232.46 818.73 9213.23 764.19"/><polygon class="ee" points="9257.4 760.34 9238.33 814.4 9276.46 814.4 9257.4 760.34"/><polygon class="ef" points="9298.95 763.01 9280.36 815.72 9317.54 815.72 9298.95 763.01"/><polygon class="eg" points="9339.68 755.82 9321.43 807.57 9357.93 807.57 9339.68 755.82"/><polygon class="eh" points="9376.59 750.65 9358.65 801.51 9394.52 801.51 9376.59 750.65"/><polygon class="ei" points="9408.62 744.48 9391.75 792.31 9425.48 792.31 9408.62 744.48"/></g></symbol></defs><use width="19871.75" height="1088" transform="translate(-8981.4 0)" xlink:href="#d"/></svg>