<svg xmlns="http://www.w3.org/2000/svg" xmlns:xlink="http://www.w3.org/1999/xlink" viewBox="0 0 1920.96 1080"><defs><style>.a,.b,.c,.f,.g{fill:none;}.aa,.ab,.ac,.ad,.ae,.af,.ag,.ah,.ai,.aj,.ak,.al,.am,.an,.ao,.ap,.aq,.ar,.as,.at,.au,.av,.aw,.ax,.ay,.az,.b,.ba,.bb,.bc,.bd,.be,.bf,.bg,.bh,.bi,.bj,.bk,.bl,.bm,.bn,.bo,.bp,.bq,.br,.bs,.bt,.bu,.bv,.bw,.bx,.by,.bz,.c,.ca,.cb,.cc,.cd,.ce,.cf,.cg,.ch,.ci,.cj,.ck,.cl,.cm,.cn,.co,.cp,.cq,.cr,.cs,.ct,.cu,.cv,.cw,.cx,.cy,.cz,.da,.db,.dc,.dd,.de,.df,.dg,.dh,.di,.dj,.dk,.dl,.dm,.dn,.do,.dp,.dq,.dr,.ds,.dt,.du,.dv,.dw,.dx,.dy,.dz,.ea,.eb,.ec,.ed,.ee,.ef,.eg,.eh,.ei,.ej,.ek,.el,.em,.en,.eo,.ep,.eq,.er,.es,.et,.eu,.ev,.ew,.ex,.ey,.ez,.f,.fa,.fb,.fc,.fd,.fe,.ff,.fg,.fh,.fi,.fj,.fk,.fl,.fm,.fn,.fo,.fp,.fq,.fr,.fs,.ft,.fu,.fv,.fw,.fx,.fy,.fz,.g,.ga,.gb,.gc,.gd,.ge,.gf,.gg,.gh,.gi,.gj,.gk,.gl,.gm,.gn,.go,.gp,.gq,.gr,.gs,.gt,.gu,.gv,.gw,.gx,.gy,.gz,.ha,.hb,.hc,.hd,.he,.hf,.hg,.hh,.hi,.hj,.hk,.hl,.hm,.hn,.ho,.hp,.hq,.hr,.hs,.ht,.hu,.hv,.hw,.hx,.hy,.hz,.ia,.ib,.ic,.id,.ie,.if,.ig,.ih,.ii,.ij,.ik,.il,.im,.in,.io,.ip,.iq,.ir,.is,.it,.iu,.iv,.iw,.ix,.iy,.iz,.j,.ja,.jb,.jc,.jd,.je,.jf,.jg,.jh,.ji,.jj,.jk,.jl,.jm,.jn,.jo,.jp,.jq,.jr,.js,.jt,.ju,.jv,.jw,.jx,.jy,.jz,.k,.ka,.kb,.kc,.kd,.ke,.kf,.kg,.kh,.ki,.kj,.kk,.kl,.km,.kn,.ko,.kp,.kq,.kr,.ks,.kt,.ku,.kv,.kw,.kx,.ky,.kz,.l,.la,.lb,.lc,.ld,.le,.lf,.lg,.lh,.li,.lj,.lk,.ll,.lm,.ln,.lo,.lp,.lq,.lr,.ls,.lt,.lu,.lv,.lw,.lx,.ly,.lz,.m,.ma,.mb,.mc,.md,.me,.mf,.mg,.mh,.mi,.mj,.mk,.ml,.mm,.mn,.mo,.mp,.mq,.mr,.ms,.mt,.mu,.mv,.mw,.mx,.my,.mz,.n,.na,.nb,.nc,.nd,.ne,.nf,.ng,.nh,.ni,.nj,.nk,.nl,.nm,.nn,.no,.np,.nq,.nr,.ns,.nt,.nu,.nv,.nw,.nx,.ny,.nz,.o,.oa,.ob,.oc,.od,.oe,.of,.og,.oh,.oi,.oj,.ok,.ol,.om,.on,.oo,.op,.oq,.or,.os,.ot,.ou,.ov,.ow,.ox,.oy,.oz,.p,.pa,.pb,.pc,.pd,.pe,.pf,.pg,.ph,.pi,.pj,.pk,.pl,.q,.r,.s,.t,.u,.v,.w,.x,.y,.z{stroke:#d9b776;}.b,.c{stroke-miterlimit:11.34;}.b{stroke-width:1.42px;}.c{stroke-width:1.7px;}.d{clip-path:url(#a);}.aa,.ab,.ac,.ad,.ae,.af,.ag,.ah,.ai,.aj,.ak,.al,.am,.an,.ao,.ap,.aq,.ar,.as,.at,.au,.av,.aw,.ax,.ay,.az,.ba,.bb,.bc,.bd,.be,.bf,.bg,.bh,.bi,.bj,.bk,.bl,.bm,.bn,.bo,.bp,.bq,.br,.bs,.bt,.bu,.bv,.bw,.bx,.by,.bz,.ca,.cb,.cc,.cd,.ce,.cf,.cg,.ch,.ci,.cj,.ck,.cl,.cm,.cn,.co,.cp,.cq,.cr,.cs,.ct,.cu,.cv,.cw,.cx,.cy,.cz,.da,.db,.dc,.dd,.de,.df,.dg,.dh,.di,.dj,.dk,.dl,.dm,.dn,.do,.dp,.dq,.dr,.ds,.dt,.du,.dv,.dw,.dx,.dy,.dz,.e,.ea,.eb,.ec,.ed,.ee,.ef,.eg,.eh,.ei,.ej,.ek,.el,.em,.en,.eo,.ep,.eq,.er,.es,.et,.eu,.ev,.ew,.ex,.ey,.ez,.fa,.fb,.fc,.fd,.fe,.ff,.fg,.fh,.fi,.fj,.fk,.fl,.fm,.fn,.fo,.fp,.fq,.fr,.fs,.ft,.fu,.fv,.fw,.fx,.fy,.fz,.ga,.gb,.gc,.gd,.ge,.gf,.gg,.gh,.gi,.gj,.gk,.gl,.gm,.gn,.go,.gp,.gq,.gr,.gs,.gt,.gu,.gv,.gw,.gx,.gy,.gz,.ha,.hb,.hc,.hd,.he,.hf,.hg,.hh,.hi,.hj,.hk,.hl,.hm,.hn,.ho,.hp,.hq,.hr,.hs,.ht,.hu,.hv,.hw,.hx,.hy,.hz,.ia,.ib,.ic,.id,.ie,.if,.ig,.ih,.ii,.ij,.ik,.il,.im,.in,.io,.ip,.iq,.ir,.is,.it,.iu,.iv,.iw,.ix,.iy,.iz,.j,.ja,.jb,.jc,.jd,.je,.jf,.jg,.jh,.ji,.jj,.jk,.jl,.jm,.jn,.jo,.jp,.jq,.jr,.js,.jt,.ju,.jv,.jw,.jx,.jy,.jz,.k,.ka,.kb,.kc,.kd,.ke,.kf,.kg,.kh,.ki,.kj,.kk,.kl,.km,.kn,.ko,.kp,.kq,.kr,.ks,.kt,.ku,.kv,.kw,.kx,.ky,.kz,.l,.la,.lb,.lc,.ld,.le,.lf,.lg,.lh,.li,.lj,.lk,.ll,.lm,.ln,.lo,.lp,.lq,.lr,.ls,.lt,.lu,.lv,.lw,.lx,.ly,.lz,.m,.ma,.mb,.mc,.md,.me,.mf,.mg,.mh,.mi,.mj,.mk,.ml,.mm,.mn,.mo,.mp,.mq,.mr,.ms,.mt,.mu,.mv,.mw,.mx,.my,.mz,.n,.na,.nb,.nc,.nd,.ne,.nf,.ng,.nh,.ni,.nj,.nk,.nl,.nm,.nn,.no,.np,.nq,.nr,.ns,.nt,.nu,.nv,.nw,.nx,.ny,.nz,.o,.oa,.ob,.oc,.od,.oe,.of,.og,.oh,.oi,.oj,.ok,.ol,.om,.on,.oo,.op,.oq,.or,.os,.ot,.ou,.ov,.ow,.ox,.oy,.oz,.p,.pa,.pb,.pc,.pd,.pe,.pf,.pg,.ph,.pi,.pj,.pk,.pl,.q,.r,.s,.t,.u,.v,.w,.x,.y,.z{fill:#161515;}.f,.g{stroke-miterlimit:8.09;}.f{stroke-width:19.64px;}.g{stroke-width:13.75px;}.h{fill-opacity:0.8;opacity:0.8;fill:url(#b);}.i{fill:url(#c);}.j{stroke-width:0.88px;}.k{stroke-width:0.9px;}.l{stroke-width:0.91px;}.m{stroke-width:0.92px;}.n{stroke-width:0.92px;}.o{stroke-width:0.91px;}.p{stroke-width:0.91px;}.q{stroke-width:0.9px;}.r{stroke-width:0.89px;}.s{stroke-width:0.9px;}.t{stroke-width:0.9px;}.u{stroke-width:0.9px;}.v{stroke-width:0.91px;}.w{stroke-width:0.89px;}.x{stroke-width:0.87px;}.y{stroke-width:0.85px;}.z{stroke-width:0.84px;}.aa{stroke-width:1.18px;}.ab{stroke-width:1.15px;}.ac{stroke-width:1.07px;}.ad{stroke-width:1.12px;}.ae{stroke-width:1.11px;}.af{stroke-width:1.1px;}.ag{stroke-width:1.08px;}.ah{stroke-width:1.06px;}.ai{stroke-width:1.07px;}.aj{stroke-width:1.08px;}.ak{stroke-width:1.08px;}.al{stroke-width:1.07px;}.am{stroke-width:1.05px;}.an{stroke-width:1.07px;}.ao{stroke-width:1.07px;}.ap{stroke-width:1.05px;}.aq{stroke-width:1.04px;}.ar{stroke-width:1.02px;}.as{stroke-width:0.97px;}.at{stroke-width:0.94px;}.au{stroke-width:0.91px;}.av{stroke-width:0.89px;}.aw{stroke-width:1.01px;}.ax{stroke-width:1.01px;}.ay{stroke-width:1px;}.az{stroke-width:0.99px;}.ba{stroke-width:0.99px;}.bb{stroke-width:0.99px;}.bc{stroke-width:0.99px;}.bd{stroke-width:0.99px;}.be{stroke-width:0.99px;}.bf{stroke-width:0.99px;}.bg{stroke-width:0.98px;}.bh{stroke-width:0.97px;}.bi{stroke-width:0.96px;}.bj{stroke-width:0.95px;}.bk{stroke-width:1.19px;}.bl{stroke-width:1.18px;}.bm{stroke-width:1.17px;}.bn{stroke-width:1.16px;}.bo{stroke-width:1.1px;}.bp{stroke-width:1.06px;}.bq{stroke-width:1.08px;}.br{stroke-width:1.09px;}.bs{stroke-width:1.1px;}.bt{stroke-width:1.11px;}.bu{stroke-width:1.11px;}.bv{stroke-width:1.12px;}.bw{stroke-width:1.12px;}.bx{stroke-width:1.1px;}.by{stroke-width:1.08px;}.bz{stroke-width:0.98px;}.ca{stroke-width:0.93px;}.cb{stroke-width:1.39px;}.cc{stroke-width:1.38px;}.cd{stroke-width:1.37px;}.ce{stroke-width:1.35px;}.cf{stroke-width:1.32px;}.cg{stroke-width:1.3px;}.ch{stroke-width:1.27px;}.ci{stroke-width:1.25px;}.cj{stroke-width:1.22px;}.ck{stroke-width:1.19px;}.cl{stroke-width:1.04px;}.cm{stroke-width:1.46px;}.cn{stroke-width:1.46px;}.co{stroke-width:1.45px;}.cp{stroke-width:1.45px;}.cq{stroke-width:1.45px;}.cr{stroke-width:1.44px;}.cs{stroke-width:1.43px;}.ct{stroke-width:1.42px;}.cu{stroke-width:1.4px;}.cv{stroke-width:1.37px;}.cw{stroke-width:1.22px;}.cx{stroke-width:1.15px;}.cy{stroke-width:1.39px;}.cz{stroke-width:1.36px;}.da{stroke-width:1.29px;}.db{stroke-width:1.27px;}.dc{stroke-width:1.27px;}.dd{stroke-width:1.27px;}.de{stroke-width:1.26px;}.df{stroke-width:1.26px;}.dg{stroke-width:1.26px;}.dh{stroke-width:1.25px;}.di{stroke-width:1.23px;}.dj{stroke-width:1.21px;}.dk{stroke-width:1.17px;}.dl{stroke-width:1.13px;}.dm{stroke-width:0.94px;}.dn{stroke-width:1.09px;}.do{stroke-width:1.08px;}.dp{stroke-width:1.08px;}.dq{stroke-width:1.08px;}.dr{stroke-width:1.08px;}.ds{stroke-width:1.08px;}.dt{stroke-width:1.07px;}.du{stroke-width:1.07px;}.dv{stroke-width:1.07px;}.dw{stroke-width:1.07px;}.dx{stroke-width:1.07px;}.dy{stroke-width:1.12px;}.dz{stroke-width:1.27px;}.ea{stroke-width:1.38px;}.eb{stroke-width:1.46px;}.ec{stroke-width:1.49px;}.ed{stroke-width:1.5px;}.ee{stroke-width:1.48px;}.ef{stroke-width:1.42px;}.eg{stroke-width:1.41px;}.eh{stroke-width:1.38px;}.ei{stroke-width:1.36px;}.ej{stroke-width:1.33px;}.ek{stroke-width:1.31px;}.el{stroke-width:1.28px;}.em{stroke-width:1.26px;}.en{stroke-width:1.24px;}.eo{stroke-width:1.22px;}.ep{stroke-width:1.2px;}.eq{stroke-width:1.18px;}.er{stroke-width:1.16px;}.es{stroke-width:1.14px;}.et{stroke-width:1.11px;}.eu{stroke-width:1.08px;}.ev{stroke-width:1.01px;}.ew{stroke-width:0.94px;}.ex{stroke-width:0.93px;}.ey{stroke-width:1.18px;}.ez{stroke-width:1.26px;}.fa{stroke-width:1.27px;}.fb{stroke-width:1.27px;}.fc{stroke-width:1.26px;}.fd{stroke-width:1.26px;}.fe{stroke-width:1.26px;}.ff{stroke-width:1.25px;}.fg{stroke-width:1.25px;}.fh{stroke-width:1.23px;}.fi{stroke-width:1.22px;}.fj{stroke-width:1.2px;}.fk{stroke-width:1.19px;}.fl{stroke-width:1.17px;}.fm{stroke-width:1.15px;}.fn{stroke-width:1.14px;}.fo{stroke-width:1.13px;}.fp{stroke-width:1.12px;}.fq{stroke-width:1.11px;}.fr{stroke-width:1.09px;}.fs{stroke-width:1.07px;}.ft{stroke-width:0.94px;}.fu{stroke-width:0.95px;}.fv{stroke-width:0.97px;}.fw{stroke-width:0.96px;}.fx{stroke-width:0.96px;}.fy{stroke-width:0.95px;}.fz{stroke-width:0.95px;}.ga{stroke-width:0.92px;}.gb{stroke-width:0.92px;}.gc{stroke-width:0.92px;}.gd{stroke-width:0.92px;}.ge{stroke-width:0.92px;}.gf{stroke-width:1.21px;}.gg{stroke-width:1.22px;}.gh{stroke-width:1.2px;}.gi{stroke-width:1.19px;}.gj{stroke-width:1.17px;}.gk{stroke-width:1.16px;}.gl{stroke-width:1.15px;}.gm{stroke-width:1.14px;}.gn{stroke-width:1.14px;}.go{stroke-width:1.14px;}.gp{stroke-width:1.14px;}.gq{stroke-width:1.13px;}.gr{stroke-width:1.13px;}.gs{stroke-width:1.09px;}.gt{stroke-width:0.94px;}.gu{stroke-width:1.27px;}.gv{stroke-width:1.25px;}.gw{stroke-width:1.24px;}.gx{stroke-width:1.22px;}.gy{stroke-width:1.2px;}.gz{stroke-width:1.18px;}.ha{stroke-width:1.16px;}.hb{stroke-width:1.14px;}.hc{stroke-width:1.12px;}.hd{stroke-width:1.04px;}.he{stroke-width:1.13px;}.hf{stroke-width:1.16px;}.hg{stroke-width:1.16px;}.hh{stroke-width:1.15px;}.hi{stroke-width:1.15px;}.hj{stroke-width:0.98px;}.hk{stroke-width:1.06px;}.hl{stroke-width:1.07px;}.hm{stroke-width:1.07px;}.hn{stroke-width:1.06px;}.ho{stroke-width:1.06px;}.hp{stroke-width:1.06px;}.hq{stroke-width:1.05px;}.hr{stroke-width:1.05px;}.hs{stroke-width:1.05px;}.ht{stroke-width:1.05px;}.hu{stroke-width:1.05px;}.hv{stroke-width:1.05px;}.hw{stroke-width:1.05px;}.hx{stroke-width:1.06px;}.hy{stroke-width:1.06px;}.hz{stroke-width:1.06px;}.ia{stroke-width:1.05px;}.ib{stroke-width:1.05px;}.ic{stroke-width:1.05px;}.id{stroke-width:1.04px;}.ie{stroke-width:1.04px;}.if{stroke-width:1.03px;}.ig{stroke-width:0.91px;}.ih{stroke-width:0.92px;}.ii{stroke-width:0.93px;}.ij{stroke-width:0.92px;}.ik{stroke-width:0.92px;}.il{stroke-width:0.92px;}.im{stroke-width:0.92px;}.in{stroke-width:0.92px;}.io{stroke-width:0.92px;}.ip{stroke-width:0.92px;}.iq{stroke-width:0.92px;}.ir{stroke-width:0.91px;}.is{stroke-width:0.9px;}.it{stroke-width:0.91px;}.iu{stroke-width:0.93px;}.iv{stroke-width:0.92px;}.iw{stroke-width:0.92px;}.ix{stroke-width:0.92px;}.iy{stroke-width:0.92px;}.iz{stroke-width:0.92px;}.ja{stroke-width:0.92px;}.jb{stroke-width:0.91px;}.jc{stroke-width:0.91px;}.jd{stroke-width:0.91px;}.je{stroke-width:0.91px;}.jf{stroke-width:0.92px;}.jg{stroke-width:1.07px;}.jh{stroke-width:1.06px;}.ji{stroke-width:1.05px;}.jj{stroke-width:1.05px;}.jk{stroke-width:1.05px;}.jl{stroke-width:1.05px;}.jm{stroke-width:1.04px;}.jn{stroke-width:1.04px;}.jo{stroke-width:1.04px;}.jp{stroke-width:1.04px;}.jq{stroke-width:1.04px;}.jr{stroke-width:1.04px;}.js{stroke-width:1.04px;}.jt{stroke-width:1.04px;}.ju{stroke-width:1.04px;}.jv{stroke-width:1.03px;}.jw{stroke-width:1.03px;}.jx{stroke-width:1.03px;}.jy{stroke-width:1.03px;}.jz{stroke-width:1.03px;}.ka{stroke-width:1.03px;}.kb{stroke-width:1.02px;}.kc{stroke-width:1.01px;}.kd{stroke-width:0.99px;}.ke{stroke-width:0.98px;}.kf{stroke-width:0.97px;}.kg{stroke-width:0.96px;}.kh{stroke-width:0.94px;}.ki{stroke-width:0.94px;}.kj{stroke-width:0.95px;}.kk{stroke-width:0.95px;}.kl{stroke-width:0.95px;}.km{stroke-width:0.95px;}.kn{stroke-width:0.96px;}.ko{stroke-width:0.96px;}.kp{stroke-width:0.96px;}.kq{stroke-width:0.96px;}.kr{stroke-width:0.96px;}.ks{stroke-width:0.97px;}.kt{stroke-width:0.96px;}.ku{stroke-width:0.95px;}.kv{stroke-width:0.95px;}.kw{stroke-width:0.94px;}.kx{stroke-width:0.91px;}.ky{stroke-width:0.89px;}.kz{stroke-width:0.9px;}.la{stroke-width:0.88px;}.lb{stroke-width:0.9px;}.lc{stroke-width:0.9px;}.ld{stroke-width:0.92px;}.le{stroke-width:0.92px;}.lf{stroke-width:0.92px;}.lg{stroke-width:0.92px;}.lh{stroke-width:0.92px;}.li{stroke-width:0.92px;}.lj{stroke-width:0.91px;}.lk{stroke-width:0.91px;}.ll{stroke-width:0.91px;}.lm{stroke-width:0.91px;}.ln{stroke-width:0.91px;}.lo{stroke-width:0.91px;}.lp{stroke-width:0.91px;}.lq{stroke-width:0.91px;}.lr{stroke-width:0.92px;}.ls{stroke-width:0.92px;}.lt{stroke-width:0.92px;}.lu{stroke-width:0.92px;}.lv{stroke-width:0.91px;}.lw{stroke-width:0.91px;}.lx{stroke-width:0.9px;}.ly{stroke-width:0.9px;}.lz{stroke-width:0.89px;}.ma{stroke-width:0.88px;}.mb{stroke-width:0.87px;}.mc{stroke-width:0.87px;}.md{stroke-width:0.86px;}.me{stroke-width:0.95px;}.mf{stroke-width:1.01px;}.mg{stroke-width:1.03px;}.mh{stroke-width:1.03px;}.mi{stroke-width:1.03px;}.mj{stroke-width:1.03px;}.mk{stroke-width:1.03px;}.ml{stroke-width:1.03px;}.mm{stroke-width:1.03px;}.mn{stroke-width:1.03px;}.mo{stroke-width:1.03px;}.mp{stroke-width:1.03px;}.mq{stroke-width:1.02px;}.mr{stroke-width:1.01px;}.ms{stroke-width:0.99px;}.mt{stroke-width:0.98px;}.mu{stroke-width:0.97px;}.mv{stroke-width:0.97px;}.mw{stroke-width:0.97px;}.mx{stroke-width:0.96px;}.my{stroke-width:0.95px;}.mz{stroke-width:0.93px;}.na{stroke-width:1px;}.nb{stroke-width:0.99px;}.nc{stroke-width:0.99px;}.nd{stroke-width:0.99px;}.ne{stroke-width:0.98px;}.nf{stroke-width:0.98px;}.ng{stroke-width:0.97px;}.nh{stroke-width:0.98px;}.ni{stroke-width:1.01px;}.nj{stroke-width:1.01px;}.nk{stroke-width:1.01px;}.nl{stroke-width:1.02px;}.nm{stroke-width:1.01px;}.no{stroke-width:0.99px;}.np{stroke-width:0.96px;}.nq{stroke-width:0.96px;}.nr{stroke-width:0.97px;}.ns{stroke-width:0.97px;}.nt{stroke-width:0.96px;}.nu{stroke-width:0.96px;}.nv{stroke-width:0.95px;}.nw{stroke-width:0.95px;}.nx{stroke-width:0.94px;}.ny{stroke-width:0.93px;}.nz{stroke-width:0.92px;}.oa{stroke-width:0.9px;}.ob{stroke-width:0.88px;}.oc{stroke-width:0.86px;}.od{stroke-width:0.84px;}.oe{stroke-width:0.83px;}.of{stroke-width:0.93px;}.og{stroke-width:0.94px;}.oh{stroke-width:0.94px;}.oi{stroke-width:0.94px;}.oj{stroke-width:0.94px;}.ok{stroke-width:0.94px;}.ol{stroke-width:0.94px;}.om{stroke-width:0.94px;}.on{stroke-width:0.94px;}.oo{stroke-width:0.94px;}.op{stroke-width:0.94px;}.oq{stroke-width:0.94px;}.or{stroke-width:0.94px;}.os{stroke-width:0.94px;}.ot{stroke-width:0.94px;}.ou{stroke-width:0.94px;}.ov{stroke-width:0.94px;}.ow{stroke-width:0.94px;}.ox{stroke-width:0.93px;}.oy{stroke-width:0.93px;}.oz{stroke-width:0.93px;}.pa{stroke-width:0.93px;}.pb{stroke-width:0.92px;}.pc{stroke-width:0.92px;}.pd{stroke-width:0.91px;}.pe{stroke-width:0.91px;}.pf{stroke-width:0.9px;}.pg{stroke-width:0.89px;}.ph{stroke-width:0.9px;}.pi{stroke-width:0.9px;}.pj{stroke-width:0.91px;}.pk{stroke-width:0.91px;}.pl{stroke-width:0.9px;}</style><clipPath id="a"><rect class="a" x="0.48" width="1920" height="1080"/></clipPath><pattern id="b" width="184.94" height="184.93" patternTransform="matrix(0.92, -0.58, 1.11, 0.48, 752.95, 594.04)" patternUnits="userSpaceOnUse" viewBox="0 0 184.94 184.93"><rect class="a" width="184.94" height="184.93"/><path class="c" d="M127.32,173c7.46.12,19.94,1,24,1.34,5.1.43,14-.42,21.26-.85M122.85,173c1-.09,2.59-.1,4.47-.07M134.46,7.4c3.84-.22,8.86-.33,14.12-.38m-24,1.69c1.47-.2,2.77-.41,3.81-.66a42.21,42.21,0,0,1,6.08-.65m-9.89,1.31c-8.74,1.15-23.53,1.47-26.8,1.47M148.58,7c5.43,0,11.12,0,16,0m5.67,0,5.53.08M164.59,7c2.06,0,4,0,5.67.06m14.67.16c-3,0-5.44,0-7.18,0l-2,0m-29.51,19c2.56-.05,5.58-.07,8.84,0m-8.84,0c-2.84.06-5.1.14-6.42.14m20.07.05c7.42.37,14,.74,15.11.8m-19.92-1c1.27,0,2.56.08,3.87.14l.94.05m15.11.8h.16c3,.08,6.26.21,9.73.35m-14.3,20.33c-3-.06-7-.06-11.21.16-8.08.42-20.41-.43-25.09,0m50.6-.49c-3.65.14-7,.31-9.74.49,0,0-1.79-.1-4.56-.16m14.3,15.19c-3.27-.07-7.3-.32-10.59-.57,0,0-24.7.85-37.88.42-4.42-.14-9.6-.29-14.73-.38m-23.54.38c3.39-.57,13.37-.57,23.54-.38M66.6,84.85c3-.42,17.33-.47,26.69-1.32s30.41.63,45.29,1c2,.06,4,.16,6.18.29m0,0,2.55.17m0,0c9.65.7,19.84,1.92,24.81,2.54m11.2.59c-2.07,0-4,0-5.53,0m-5.67-.55,2.26.3m3.41.25c-1,0-1.9-.07-2.59-.14l-.81-.11m10.54.27-1.61,0M113.07,99.89c3-.42,12.76-.42,17.43-.85s17.44.43,24.67.85,21.73.85,21.73.85a77.21,77.21,0,0,1,8,0m0,35.38c-3,0-5.44-.06-7.18-.06,0,0-15.35,0-25.13.86s-25.09,1.7-34.44,2.12-14.89-.42-17.44,0m75.48,17,5.52.18m0,0,3.19.14m-12.12-.55a84.23,84.23,0,0,0-11.27-.23c-4.67.43-20.83-1.27-23-.85m37.63,1.31-1,0s-.95-.09-2.39-.2m.83,17.21c3.17-.21,7-.39,11.29-.55m-30.19-52.6H162c3,0,12.38-1.28,12.38-1.28a105.41,105.41,0,0,1,10.58.23m-115-110L63,8.68M21.65,7.61c14.64.27,29.94.63,35.3.87,1.82.07,3.87.14,6,.2m15.86.42A85.61,85.61,0,0,1,88,9.75m-18.07-.9c3.09.07,6.16.15,8.93.25M12.3,7.43l9.35.17M0,7.26c3,0,6.46.08,10.21.14m2.12,0-2.13,0M126.68,25.48c-5.15,0-10.31.74-16.5-.19M20.55,28.36c-6.91-.21-14.07-.55-20.58-.83m103.41-2.88a33.27,33.27,0,0,1,5.44.41l1.36.23M20.55,28.36c10.53.31,20.47.31,26.62-.75,12.33-2.13,17-2.55,27.21-2.13,8.09.34,20.72-.93,29-.83M0,47.53c22-.87,56.55-1,64.2.06.68.1,1.39.19,2.14.27m48.89-.27c-2.55-.42-16.16-.42-20.84.43-4.32.79-18.82.84-28-.16m-36,14.86c-1.81.23-4,.46-6.74.61-8.08.42-15.95-.85-18.5-.43a33.07,33.07,0,0,1-5.1.15m84.19-.15c-17.86.85-31.89,1.27-41.25-.42-5.32-1-7.77-.37-12.6.24M50.44,87.3a115.13,115.13,0,0,1-13.68,1.13m-18.7-.34,2.26.09M15.58,88l2.48.08m34.06-1-1.68.26M36.76,88.43c-3,.08-6,.06-8.71,0m0,0c-2.78-.06-5.38-.16-7.73-.25M0,88.15C4.4,88.1,9.39,88,13.58,88l2,0M97.77,99.89c-9.54,0-27.34-.78-39.89-.89m0,0A89.6,89.6,0,0,0,45,99.47c-6.8,1.27-11.48,1.7-25.51,1.7-2.26,0-4.38,0-6.37-.06m-3-.07c-3.95-.1-7.31-.23-10.15-.33m13.19.4-3-.07M.84,136.1l4.11.06m58.81,1.37c9.25.24,20.19.38,24.23,1.05M7.28,136.19l-2.33,0m58.81,1.37-3.61-.1M7.28,136.19c17.36.26,42.48.81,49.67,1.12l3.2.12M44.62,156.8q1.37-.15,2.55-.36c9.25-1.59,14.2-2.23,20.41-2.27m-23,2.63C33.83,158,15.14,157,0,156.37m67.61-2.2c2.06,0,4.26,0,6.8.15,10.2.42,27.64-1.7,34.44-.43s12.33.43,17.86.43m-24.87,18.06c1.5,0,3-.06,4.46-.06m-4.46.06a68.58,68.58,0,0,0-9,.65c-4.68.85-21.26.85-30.19-.43-7.48-1.07-40.59-.94-62.65-.13m106.3-.15a68.71,68.71,0,0,1,7.37.28m-40.1-54.36,2.34,0m67.61-.21c-3.1-.58-5-.64-14.26.55-13.18,1.7-31,1.7-39.12.43a61.92,61.92,0,0,0-6.29-.53m-63.27,1.72c1.19,0,2.28.08,3.23.08A156.85,156.85,0,0,0,44.62,119c4.2-.53,17.47-.89,28.92-.79m75.25.79c-2.43-.39-4-.73-5.3-1M20.55,120.22C14.92,120,7,119.25,0,118.84m75.91-.58c1.7,0,3.35.07,4.89.12m0,0c1.07,0,2.09.07,3,.12m-76,66.43v-10.8m-4.68,10.8V174.35m7,10.58v-10.8m2.13,10.8v-11m2.77,11v-11m59.31,11V175.2m2.34,9.73v-9.31m2.13,9.31v-9.52m2.76,9.52v-9.52m-60,9.52v-11m5.18,11V173.71m6.94,11.22V173.71m87.6,11.22V175m8,10V174.77m2.84,10.16V174.28M117,184.93V174.77m-6.45,10.16V174.35M146,184.93V174.85m-6.18,10.08V174.64m-2.93,10.29v-10.5m-2.45,10.5V173.79m17.94,11.14v-9.65m5,9.65v-9.65m-8.86,9.65v-9.86m-78.66,9.86V175.2m30.4,9.73V174.35m2.33,10.58v-10.8m2.13,10.8v-10.8m2.77,10.8V174.35M56,139.21v14.9m1.87-14.47v14.68m2.42,0V139.21m-9.73.21v14.69m17-14.26v14.32m0,.15v-.15m-5.11-.63V139.07m24.45,45.86v-9.52m8.93,9.52V174.56m74.41,10.37v-9.52m5.53,9.52V175M5.29,156.44V138.83m5.17,17.4v-17.4M21.6,156V136.91m-1.87,17.62V137.76M17.4,156.23v-17.4m27.22,18v-.07m.8,0V137.72m-5.27,18.93V137.93m-6.23,17.94V139.11M26.48,155V138.26m-2.63,17.19V138.68m149.61-.84v17.41m2-17.94v17.52m-3.56-17v17.41m9.92-18v16.77m-2.19-15.92V154.9m-1.92-16.49v16.77M42.91,156.87V137.51m124,47.42v-9.1m-71-23V141.26m8,11.36V139.35M91.53,152.62V140.84m-6.45,11.35V141.47m35.43,12.21v-13m-2.26,12.76V140.78m-4.89,12.47V140.92m-3,12.12V140.71M108,152.62V140.28m18.92,13.83V138.75m5,15.36V138.82m-8.85,15.07V141.34M74.8,152.19V139m2.34,13V139.21M79.27,152V139.42M82,152.19V139M70.34,152.4V139.21m74.41-.67v14.71m5.53-14.63v14.21m-8.93-14.43v15.28m-2.27-15.2v15.41m21-15.35v14.71m5.52-14.63v14.21m-8.93-14.43v15.28m-2.26-15.2v15.41m10.2,31v-8.88M7.84,0V7.24M3.16,0V7.24m7,.16V0m0,7.43v0m2.13,0v.22M12.3,0V7.44M15.07,0V7.24M74.38,0V8.73M76.72,0v9m2.13.21V9.1m0-9.13V9.1M81.61,0V8.73m-60-1.07V7.6m0-7.63V7.6M26.83,0V7.66M41.21,0V7.66M54.53,0V7.88M46.32,0V8.09M52,0V7.88M33.77,0V7.66M61,0V8.51M121.37,0V8.73m8-8.76V6.81M132.21,0V6.32M117,0V8.3M110.59,0v9M146,0V6.39M139.84,0V6.46M136.91,0V6.6m-2.45,1.06V7.4m0-7.43V7.4M152.4,0V6.39m5-6.42V6.46M148.58,7h0m0-7V7M69.92,0V8.85m0,.09V8.85M100.32,0V9.58M102.65,0V9.79M104.78,0V10m2.77-10V9.58M86.92,0V9.36M95.85,0V9.79M170.26,0V7.08m0,0v.09m5.53,0v.07m0-7.27V7.16M57.71,0V7m-16.5,177.9V173.75m13.32,11.18V173.11m-8.21,11.82v-11.4M52,184.93V173.32m9,11.61V174.39m-3.28,10.54V172.47M166.86,0V7M164.59,0V7m0,.07V7M6.57,63.88V86.8m-4.67,0V64.09m7-.21V87M11,63.66V87.23M13.8,63.67V86.8m59.32-3.41V65.92m2.34,17.69V66.35m2.12,17.47V66.14m2.77,17.25V66.14m-58-2.47V86.25m5.18-22.8v22.8M41.91,64.43V86.25m11.78-22V85.91M47,64.22V86.67M50.72,64V85.48m-16.25-23V86.25M59.72,65.07V85.14m60.38-3.7V65.71m8-.21v17M130.94,65V82M115.78,81V65.5m-6.45,16.15V65.07M144.76,85v-.1m0,0V65.58m-5.33.64V83m-2.35-17.59V82.17M135,66V83.1M133.2,64.52V83.31M151.14,66V85m5-19V85m-8.86,0V65.79m0,19.82V85M68.65,83.6V65.92m30.4,16.36V65.07m2.34,17.43V64.86m2.13,17.85V64.86m2.76,17.42V65.07M54.75,28V45.81M57.26,28.4V46M59,28V46M49.31,30.15V44.83m17,3V48m0-20.34V47.86m-5.1-20v17.4M85.66,82.07V66.14M94.59,82.5V65.28M169,64.18V85.75m5.53-22v24M56.24,64.86V85.35M4,29.55V47.17M9.2,29.55V47m9.49-17.4V47m1.86-19.32v.73m0,18.38V28.36m-4.41,1.19V47m28-16.55V46.61m-5.27-16V46.4M32.65,29.83V46.6M26.06,29V45.75M23.87,29.83V46.6M175,47.72V27.18m0-.52v.52m-2.3,20.11V28.57m-2.11,19.36v-.07m0-19.29V47.86M180.55,28V46.73m-2.2.85V28.85M41.65,30.19V46.61m124,18v21m-71-58.52V47.47m8-21.32V46.28M90.27,26.66v20.6m-6.45-20V46.83m35.43-20.3V47.34M117,47.13V26.61m-2.48.06V47.13m-5.45-20.6V46.7m-2.34-.42V27.09m18.92,19.7V27.51m5,19.28V27.59m-8.86,20V27.17m-48.26-.38v20M75.88,27V46.62M78,27.21V46.62m2.76-19.83v20M69.08,27V46.07m74.41.85V27.31M149,46.49V27.39m-8.92,20V27.17m-2.27.07V47.55m21-.63V27.31m5.53.08v19.1m-8.93.85V27.17m-2.26,20.38V27.24M54.75,117.48V100.64m1.66,16.63V100.64M59,117.7V100.64m-9.73,17.83V100.85m17,16.85V101.27m-5.1,15.65V100.49M4,118.85V102.21m5.18,0v16.42m11.35,1.75v-.16m0-18v18m-2.29-1.59V102.84m-2.12,15.79V102.21m28,16.08V102.08m-5.27,16V102.29m-6.24,16V101.51m-6.59,17.88V101.64m-2.19,18.6V102.49M175,118.42V101.27m-2.51,15.67V102.12m-1.9,16.51V103.18m9.92-.56v14.81m-2.2.85V103.47M41.65,118.29V101.86m52.94,17.29V101.7m8,16.26V100.77M90.27,118.94V101.28m-6.45-.34V118.5m0,0h0m35.43-17.35V119M117,101.22v17.59m-4.89-.21V101.36m-3,17V101.15M106.71,118V101.7m18.92.43v14.38m5-14.31v14.31m-8.86-14.72v17.44m-48.26-.72v-.27m0-17.82v17.82m2.34,0V100.64m0,17.66v0M78,100.85V118.3m2.76.21v-.13m0,0v-18M69.08,117.74v-17.1m74.41,17.41V101.93m0,16.66v-.54m5.52.12V102m-8.92-.21v15.27m-2.27-15.2v15.41m21,2.31V101.93m5.53,17.22V102m-8.93,17V101.79m-2.26,17.44V101.86m10.2-37V85.68m19.91-21.5V85.75m-3.4-21.15v21m-2.27-20.79V85.68M18.52,64.3V86.88m68,85.57V154.62m2.27,17.9V154.47M91,172.66V155m2.77,17.62v-18M82,172.45V154.83m17,16.85V155.25M37.55,170.87V158.14m4.37,12.52V158.14m14.39,12.52V156.19M65,172.4V154.28M61.41,172.4V155.63M26.48,171.29V158.78m8.71,12.3V157.85m-3.61,13.23V159.21m17.29,11.45V156.19m27.21,17.06V155.08m-4.46,18V155.29m2.76,18V154.87m52.94,18.26V173m0-17.28V173m8,0V156.71M123,155.26v17.66m-6.45-.43V155.9m34.37,17.31V156.32m-1.73,16.47V156.25m-2.41,16.32V156.32m-2.07,17V156.11m-5.27,16.81V155.68m18.92,17.74V156.11m5,17.32V156.18m-9.84,17V156.75M2.1,171V157.76m16.65,13.35v-13M16.48,170.9V158.21M14,170.9V158.28m-2.41,13.39V159.33m-3,12.13V159.12M6.21,171V158.69M21.3,171.33V158.78m85-4.38v17.92m0,.17v-.17m2.34,0V155.6m2.13,16.68V155.81m2.76,16.68V155.38M101.81,172.7v-.32m0-17.76v17.76m74.4-16.33v-.14m0,16.67V156.05m5.53-.07v.25m0,15.92V156.23M172.81,173V155.82m0,0v0m-2.26,17.44V155.84M85.23,62.19V49.25m2.4,13V49.33M89.7,62.4V49.68M92.47,62.4V49.25m-11.7.22V62.19m17-.76V48.91M36.29,61.59V47.89m4.37,13.49V48.87M55.05,63.34V47.89m8.71,15.23V47.93m-3.61,15.2V49.3M25.21,47.55V63m8.72-1.19V47.59M30.31,48V62.72m0,.06v-.06m17.3-1.34V46.91m27.21,2.81V63M70.35,49.93V62.78m2.77-13.27V63m52.93-2.08V48.37m8,12.33V49.39M121.73,62.66v-.14m0-14.58V62.52m-6.45-.28V49.56m35,11.44V49.29m-2.35,11.28V48.93m-2.41,11.43V49m-2.07,12.12V48.79m-5.28,11.92V48.37m18.92,12.84V48.79m5,12.42V48.86M152.29,61V49.43M17.49,47.88V62.82M15.22,48V62.6M12.74,48V62.6M10.33,49.07V60.43m-3-12.55v14.3M5,47.46V61.75M20,48.52V63m85-.8V48.06m2.34,14V49.25M109.47,62V49.47m2.77,12.76V49m-11.7,13.41V48.28M175,60.36V48.59m5.53,14.29V48.66m-8.93,12.13V48.45M169.28,61V48.52m-81.21-24V10.58m2.4,14V10.65M92.53,24.7V11m2.77-.42V24.7m-11.69-.21V10.79m17,.42V23.72M39.13,26.83V8.23M43.5,26.62V8.23M57.88,25.64V9.21M66.6,24.45V10.23M63,8.68v0m0,16.77V8.68M28.05,27.25V8.87M36.76,27V7.94M33.15,27V9.3M50.44,26.62V9.21M77.65,25.29V11m-4.46,14V11.25m2.76,14V10.83m52.94,14.34V8.71m8,0V25.94M124.57,8.28v.43m0,16.25V8.71m-6.45,3.15V25.51M152.7,7.94V25.81M150.76,8.3V25.81M148.35,8.37V25.6M146.28,8.15v18m0,0v.17M141,7.73V25.94M159.93,8.15V26.38m0,.07v-.07m5-18.16V26.45m-9.84-.26v0m0-17.44v17.4M3.67,27V7.84m16.65.39V27.07M18.06,8.3V26.86M15.58,8.37V26.86M13.16,9.42V27.63m-3-.22V9.2M7.78,27V8.78M22.87,27.29V8.86m85,1.5V24.53m2.34.76h0m0-13.75V25.29m2.13-13.52V25.3m2.76-14V25.51M103.38,10.58V24.65m0,.1v-.1m74.41,1V8m5.53,17.22V8m-8.94-.21V26M172.12,7.88V26.23M85.23,136.81V120.93m2.06,16.16V121m2.41,16V121.36M92.47,137V120.93m-11.7,15.88V120.17m17,15.87V123.53M35.49,136.21V121.53M40.66,136V120.55M55.05,136V119.57m8.71,18V119.61m0,17.92v.21m-3.61,0v-.31m0-16.46v16.46m-34.94-2.75V122.17m8.72,13.27V121.23m-3.62,14.21V121.61M47.61,136V121.53m27.21,16.08V119.44m-4.47,18V119.65m2.77-.42v18.38m52.93-2.08V123m8,12.34V120.09m-12.33,17.19V122.56m-6.45,14.29V122.22m34.59,12.12v-12m-1.94,12.85V120.61M145.52,135v-14.3m-2.07,15.07V120.47m-5.28,14.85V120.05m18.92,15.78V121.45m5,14.38V121.52m-9.83,14.09V122.09m-134.8,12.4v-14m-2.27,13.74V120.61m-2.48,13.67v-13.6m-2.41,14.37V121.73m-3,15.06v-.6m0-15.65v15.65M5,136.37v-.21m0,0v-16M20,134.71V121.18m85,15.67V122.68m2.34,14V123.87m2.12,12.77V122.13m2.77,14.72V121.7m-11.7,15.37V122.89M175,135V120.27m5.53,14.28V120.34m-8.93,15.06V121.11m-2.27,14.51V121.18m-81.21-37V98.13m2.4-13.85V98.2m1.91-13.7V98.62m2.92-14.4V98.34M83.61,84.42V98.13m17-.77V84.85M39.13,98.51V88.72m4.37,9.57V88.72M57.88,99.27V99m0,0V86.76M66.6,98.08V84.85M63,86.21V99.06M28.05,88.43v12.46m0-12.51v.05m8.71,0V98.72m0-10.29h0m-3.61,12.25V88.81M50.44,87.3v11m0-11.52v.53m27.21-2.62V98.93m-4.46-14V98.72M76,84.46V98.93m52.94-.12V86.26m8,11.36V86.31M124.57,98.6V85.84m-6.45,13.31V85.49m35,13.19V87m-2.35,11.5V86.83m-2.2,10.92V86.39m-2.49,11.7V85.75M141,97.62V85.28m18.92,14.81V87.66m5,12.43V87.74m-9.84,11.15V87.32m-151.45,2v11.32M20.32,88.18v12.53m0-13v.45m-2.26-.37v.28m0,0V100.5m-2.48,0V88m0-.13V88m-2.42,13.1v.15m0-12.33v12.18m-3-.06h0m0-12.32V101M7.78,88.29v12.34m15.09.29V88.37m85,9.8V84m4.47,1.41V98.94m2.76.21V85m-11.69,13.4V84.21m74.41,15V88.13m0,0v-.67m5.53.08v.63m0,10.64V88.17m-8.94,11.49V87.88m0,0v-.56m-2.26.26v-.19m0,12.48V87.58M.83,135.47v-16"/></pattern><pattern id="c" width="153.43" height="153.43" patternTransform="matrix(1.65, -0.51, 0.98, 0.86, 423.91, 847.19)" patternUnits="userSpaceOnUse" viewBox="0 0 153.43 153.43"><rect class="a" width="153.43" height="153.43"/><path class="b" d="M150.55,54.59a43.82,43.82,0,0,0-.31-13.09m1.11,36.78c-.93-2.5-1.25-11.23-.31-15.91M143.56,73.1c-1.24-4.06-1.24-6.56,0-12.17a29.79,29.79,0,0,0,.63-12.78m-8-8c1.25,4.36.66,9.4-.59,15.33m3.77,27.47c-2.18-3.75-5.17-11.73-4.86-15.32s.78-2.33.93-5.61m-8.27,11c-2.65-4.21-3.11-6.81-1.55-12.89s1.87-9.82.63-14.81M115.79,40.8a34.89,34.89,0,0,1,2.34,12.79m.9,29.34c-4.68-5.15-2.15-17.5-1.21-23.89m-4.4-31a47.6,47.6,0,0,1,.94,7.36m-2.23,49.15c-1.72-3.12-4.45-14.25-3.51-18.31a50.18,50.18,0,0,0,.93-13.76m-8-10.4a55.44,55.44,0,0,1,0,19m-.78,19c-1.4-2.19-1.4-9.51-.46-13.25m-7.8,13.87C91,77.12,91.31,70.58,93,65.43a30.6,30.6,0,0,0,1.56-14.5m-8.73-9.38c.78,4.52,1.4,12.81,0,18.43m-2.3,27.77c-1.4-2.28-.94-11.32,1.16-21.12M78.53,48.44c.47,6.86.78,9.35-.63,15s-1.55,9.82-1.09,12.47M72.34,39.24c1.25,4.84-.2,12.94-.83,16.37m-.78,25C69,77.28,69.33,70.73,70,67.15a42.21,42.21,0,0,0,.78-5.3m-7,18.24c-1.09-2.5-1.09-8.73-.47-14a89.6,89.6,0,0,0-.15-19.39m-8.08-4.16c1.71,5.31,2.49,8.89,2.34,12.94m-.63,25c-2.65-4.36-2-12.79-1.09-17.15M47.05,41.37C48.76,49,50.43,55.14,49.33,60.6s-1.24,5-1.24,6.55m1.17,5c.85,3.17,1.19,9.67,1.42,12.28m-8-4.51c-2-5-2.18-11.69-.93-17.31s.93-9.5-.32-15.9m-9.17-6.45C33.66,45,35.18,50.62,35,53.74M35.64,83c-3.59-5.77-3.12-14.11-1.71-19.57M26.62,44.7c.93,6.39,1.4,9.51.31,14.18S26,63.41,26,65.12M98.18,6.81c2.67,3.43,3.39,27.46,3.39,27.46M18.31,80.4c-2.34-3.9-.94-10.6,0-14s2-12.59,2.74-17.57m-7.91-6.9c.78,5.14,1.56,8.42.62,12.93A36.44,36.44,0,0,0,13,61.54m.85,22.67A49.38,49.38,0,0,1,11,78.37c-.78-2.18-.47-5.61.31-8.57m-6.1-21c1.24,4.37,2.18,12,.77,17S3.6,77.28,5.63,81.34m25.15,6.54c-1.4-2-5.72-12.47-5.88-15.59M4,91c1.24,6.24,1.71,8.11.15,13.56S2,113.92,3.38,118.13M9.77,86.32C11,89.6,12.27,93.81,12,96.93s-1.09,4.83-.94,5.3m1.21,20.16c-1.71-3.43-3.39-12.21-2.15-16m6.71,8.89c-1.09-3.12-1.4-7.64.47-13.41s1.09-7.79.31-11.69m6-5.33c.94,3.9,1.72,8.27.94,12.16m.63,23c-1.09-3.12-1.47-12.38-.07-16.27m5.52,18c-1.72-3.28-.22-12.24,1-17.38s1.09-5.62.93-8.89M40.17,117c-3-5.46-1.71-10-.15-15s.78-8.57-.15-12.94m6.3-4.26c1.09,4.52,3.2,7.69,2.27,11.12s-1.72,5-2,6.7m1,13.9c-1.09-2.18-1-6.24-1-9.52m7.1-18.41c1.41,5.93,3,8.58.94,13.57s-1.73,15-1.11,18.54m6.1-35.07c1.71,3.74,2.65,9.67,2.34,12m-1.2,22.45c-.78-2.18-1-11.84.1-15.59m4.53-15.9c1.71,5.77,2.65,8,1.4,13.1s-2.49,10.6-1.71,13.56M73.5,84.53c.62,3.12-.74,8.81-.74,10.68m1,32.38c-.79-2.18-3.49-16.94-2.71-19.91a22.18,22.18,0,0,0,.94-5.77m6.49-11.84c1.71,7.17,3,10.75,1.87,14.81s-1.4,8.73-.94,10.91m5.93-25a23,23,0,0,0,.93,7.49,15.52,15.52,0,0,1,0,9.35c-1.24,4.52.28,8.19.6,10.06m7.25-21.13a64.74,64.74,0,0,1-1.09-10.29m.66,35.16c-.47-1.56-.66-8.5,0-12.39a46.43,46.43,0,0,0,.78-7.8m11-18.14c1.41,4.84,2.88,9.26,2.41,13.93m-1.44,26a44.07,44.07,0,0,0-.43-8.21c-.62-3,.31-7.33.93-12.17m7.61,15c-1.55-3.59-2-12.52-.73-17.2s1.09-4.83.62-11.22m10.75-11.14c2.82,4.6,3.9,17.53,2.65,23.61a25.93,25.93,0,0,0,.94,15m3.48-35.44c.93,3.89,3.29,14.3,3,18m.87,21.86c-.78-2.66-2.19-11.64-1.56-15.53m6.71-16.53c1.4,6.08,2.19,8.11,1.4,13.41s-1.09,9.82-.62,12M147.49,83c2.41,3.79,2.22,8.33,2.22,11m.36,27.05c-3-6.08-.83-15.67-.2-19.41M5.13,3.39c1.25,3.27.17,6.91-.14,10s-1.09,4.83-.94,5.3M5.62,41.42C3.9,38,1.87,28.5,3.12,24.76M10.6,6.14c.78,3.9,1.56,8.34-.31,14.1S8.73,30.53,9.82,33.65M16.36,3.27c.94,3.9,1.72,6.7.94,10.6m1.1,28.2c-1.09-3.11-1.87-17.26-.47-21.16m8,18.41c-1.72-3.27-2.5-11.44-1.25-16.58s1.09-5.62.94-8.89m7.64,21.51c-3-5.45-1.72-10-.16-15s.78-11.47-.16-15.83M39,1.67c1.1,4.52,1.72,6,.78,9.45s-1.71,5-2,6.71m4.53,22.83c-1.09-2.18-3.61-15-3.61-18.27m8-18.3c1.41,5.92,3,9.18.94,14.16S44.28,27,44.9,30.57M54.64,8.93c1.72,3.74,1,10.38.66,12.72m-4.63,17.6c-.78-2.18,0-9.66,1.09-13.4M58.31,1.67C60,7.44,61,13.11,59.71,18.26s-1.77,17-1,19.92M66,5.17c1.53,7.62.11,15.51.11,13.5m-.48,23.54a21.17,21.17,0,0,1-.32-10c.79-3,1.84-5.52,2.15-8.8M71.56,1.76c1.71,7.17,3,15.09,1.87,19.14S72,29.63,72.5,31.82m5.92-21.4c-.16,3.12.31,3.58.94,6.24a15.68,15.68,0,0,1,0,9.35c-1.25,4.52-.64,12.15-.33,14m5.28-26.92c-.47-2,1.11-7.48,1.11-10.29m0,33.63a22.5,22.5,0,0,1-.31-9,45.16,45.16,0,0,0,.77-7.79M91.44.93c1.72,5.77.39,20.87-.23,26.17M94.8,44.7a32.57,32.57,0,0,1-1.1-4.2c-.62-3,2.1-9.09,2.73-13.93m8.86,2.13c-1.56-3.59-.78-7.48.47-12.16s1.09-8.61.62-15m8,9.06c.47,3.43.94,3.82.31,7.09s-1.4,5.15-1.56,6.4m8.36,13.38c-1.56-4-1-13.69.27-19.77s.78-9.2-.31-14m7.82-2.6c.94,3.9.67,12.15.36,15.89m-.53,25.2c-.78-2.65-2.13-14.28-1.5-18.18M135,9.3c1.41,6.08,2.19,6.27,1.41,11.56s-1.09,9.83-.63,12m7-31.43a58.61,58.61,0,0,1,.78,10.85m0,26.32c-3-6.08-.44-14.94.18-18.68m5.94,13.72c-1.71-4.21-1.09-9.2-.46-13.56s.93-12.24,0-17.38M6.51,123.9c1.1,4.83,1.41,7.95.94,11.07m-4.2,17.48c-1.09-2.65,1-9.38,2.3-13.27m6.23,12.58c-1.1-3.12-.63-9.16.15-13s1.87-6.7,1.25-11.23m7.29-8.87c.62,3.27-1.32,23.69-2.88,28.52m5.92,6.22a71.47,71.47,0,0,1,1.7-16.08c.82-3.74,1.24-2.81,1.09-7.18m14.79-2.61c.3,5.46.93,6.71-.94,11.54s-2.34,5.44-1.56,8.71m7.87-26.31c.93,2.8,3.13,8.71,2.82,11.36M43.86,151.3c-.32-4.52,1.57-11.34,2.66-14.15M53.66,127c1.4,5.77,1.76,8.2,0,12.32-1.45,3.37-1.22,10-1.25,14.06m14.09-31.2c1.41,5.76,2,12.15.58,15.74S64.84,148.61,65.62,152m5.79-4.39c-.62-2,2.26-12.21,2.57-14.86m5.08-12.37a27.36,27.36,0,0,1-.2,14.89c-1.2,3.48-1.62,12.56-1.63,18m13.66-27c1.41,4.52,1.41,7.17.16,11.85s-2,5.88-1.09,9m9.2-24.86c.63,3-.72,7.36-.87,9.38M95.82,150c-.46-2.18,2-11.21,3.06-14.33m4.75-9c1.25,6.71,1.4,9.51-.47,13.57s-2.49,9.2-1.4,12.31m16.72-27.08c2.18,5.77,1.28,8.3-1.6,13.52-1.77,3.21-2.36,9.72-2.33,14.33m7.64-34.53c2,2,3.29,11.47,3,13m-2,5.84c0,3.89-2.06,11.21-3,14.33m10.39-27.26c.46,3-1,2.1.22,6.78s.31,6.7-.94,10-.37,6.08-.21,8M25.07,6.69c-1-1.17-1.44-3.05-1.56-6.65m28.9,0a10.34,10.34,0,0,1-.28,3.16M77.42,5.63A43.79,43.79,0,0,1,77.23.05m37.84,6.28c-.3-.49-.51-3.75-.52-6.28m22.53,4.59C137,4.23,137,1.38,137,.05m.65,126.65c.78,3.12,1.71,7.49.78,11.07-.72,2.77-1.37,11.08-1.43,15.58m13.6-2.59c-1.09-3.58-.17-13,.77-16.73s.77-4.67.47-8.26M99.6,89.16c.48,5.67,1.89,6.61,1,13.7s-1.89,10.39-1,13.23m9.92-70.63c-.78-2-1.56-8.44-1.4-12.65M111,122.75c.78,3.9,1.56,5.93-.31,11.69-1.43,4.39-3.34,10-1.8,14.4m11.56-35.66c-1.09-3.12-1.41-7.64.47-13.41s1.08-7.8.31-11.69M86,123.09c.78,3.89.83,7.67-1,13.43S82.34,147.87,83.43,151m-24-25.68c.78,3.9,2,6.31.11,12.08s-2,8.61-.93,11.72m-26.44,3.08c-1.09-3.11-1.2-10.07.67-15.84s3.74-13.15,3-17m108.5,2.29c.78,3.9,2.92,9.33,1.05,15.09s-1.56,8.85-.47,12"/></pattern><symbol id="d" viewBox="0 0 1920.95 1080"><g class="d"><path class="e" d="M1920.45,1080H.45V640.64l192.08-1.81c49.79-.92,84.27-7.69,106.79-13.83,28.59-7.8,38.61-14.79,66.61-18.06,34.46-4,58.6,2,84,4.94,44,5.14,73.48-1,169.41-16.94,105.24-17.52,157.87-26.27,207.36-32.65,95.3-12.28,102.18-7.22,237.93-22.42,13.87-1.55,78.59-8.86,163.14-21C1349.11,501.45,1374,493.78,1447,484.2c55.3-7.27,135.57-15.29,237.7-16.73L1920.45,476"/><path class="f" d="M1920.45,476l-175.29-9s-143.46.59-151.31,3.32-175.16,16.22-175.16,16.22-181.3,28.26-190.89,32.35-217,27.69-217,27.69L845.86,561.47,631.09,594.05l-97.68,16.37-76.73,1.44c-56.07-6.49-92.55-2.09-115.82,3.37-16.85,4-26.36,8.37-52.86,12.71-6.28,1-21.2,3.3-69.12,6.35-18.49,1.18-23.88,1.32-61,3.18-65.2,3.26-71,3.93-91.48,4.23-15.26.22-38,.23-66-1.06"/><path class="g" d="M1298.82,541.25s-102.3,55.85-108.46,56.49-210.77,44.93-210.77,44.93l-135.33,59c-43.59,13.81-68.12,29-81.23,38.66-16.45,12.16-30.52,27.25-35.24,32.47-12.93,14.3-11.21,15.93-19,22.59-17.47,15-41.42,19.81-73.19,29.64-51.48,16-40.62,19.38-89.45,35.3-49.74,16.22-94,23.42-140.95,31.06-44.7,7.27-81.2,11.2-111.13,14.11C233.32,911.43,135,919.4.45,923.88"/><polygon class="a" points="1360.33 487.06 694.15 553.13 411.13 596.8 509.19 624.57 595.51 649.51 620.89 655.5 661.07 657.5 704.56 665.14 733.39 669.66 758.93 674.89 782.13 679.82 803.25 688.96 827.12 696.28 844.7 700.26 895.63 678.43 915.89 668.83 945.03 655.86 969.24 646.61 996.34 638.52 1074.76 622.62 1114.47 613.96 1127.38 609.31 1191.23 597.25 1278.4 551.5 1360.33 487.06"/><path class="h" d="M.45,741.83C289.28,634.12,367.26,621,383.27,630.13c7.09,4,2.14,20-7.77,51.82-5.91,19-8.87,28.56-15.34,38.86-8.77,14-28.84,45.9-82.6,65.49-39.77,14.49-80.09,15.71-79.29,17.47s40.44,2.76,77.26-7.41c49.42-13.65,70.88-38,92.49-63.53,22.83-26.91,33.69-52.7,34.32-54.29C414.62,647.94,408.06,636,427,628c19.86-8.36,39.08-.22,100.91,2,31.33,1.11,128.13,5.67,189.8-21.55,23-10.16,32.41-20.86,34.56-20.12,3.61,1.25-15.71,34.12-67.09,50.12-16.88,5.26-42.86,9.29-94.87,17.29-24.5,3.78-32.66,4.62-32.52,4.95.55,1.35,71.52,4.21,129.43-16.24,16.78-5.93,66.71-23.56,71.15-44.47.59-2.77,1.16-9.26,10.16-13.41,10.87-5,27.39-3.55,33.89-3.18,42.59,2.46,56.9-18.07,123.44-27.86,48.56-7.15,53.89,1.88,115.09-7.43,22.78-3.47,45.4-8.27,48.44-5.56s-16.85,11.73-22,14C1016.08,579.39,954.1,579.9,892.5,591c-97.13,17.48-115.9,47.33-204.63,63.67-7.9,1.45-35.52,6.33-83.43,14.79-29.75,5.25-36.62,6.44-48,8.15-32.87,4.91-51.42,6.35-51.16,7.59.32,1.54,24.82,2.78,50.82.52,25.79-2.23,39.59-6.75,68.11-13.41,41.37-9.66,41.19-6.91,73.18-14.47,28.06-6.63,33-9.89,98.6-31.94,55-18.5,82.6-27.72,85.38-25.94,3.17,2-21.83,16.72-49.8,28.24-31.56,13-59.9,19.07-59,20.11.78.87,21-2.33,40.66-7.59,44.63-12,54.7-26.19,82.67-39.7,63.86-30.84,116.8-7.54,182.29-40.24,10.65-5.32,19.7-10.39,32.87-15.75,0,0,11.66-4.66,24.58-8.65,31.32-9.67,66.62-14.37,97.73-19,45.75-6.75,68.78-9.85,90.23-13.37,21.65-3.55,48.7-13.72,88.68-14.93,6.26-.18,15.91-.29,16.93,1.42,2,3.38-34.17,6.75-68.44,23.47-11,5.34-22.4,12.38-49.13,25.94-2.08,1-4.7,2.38-8.24,4.07-17.78,8.49-32.32,13.7-36.32,15.17-30.65,11.24-45.58,24.3-81.82,37.58-27.26,10-33.18,4.52-87.42,18.53-12.46,3.22-23.11,6.25-24.9,5-3.34-2.26,26.38-17.45,53.87-31.5,23.8-12.16,27.18-13.05,34.56-18.53,20.74-15.39,25.51-31.74,22.87-32.29-2.83-.59-10.67,17.6-40.84,31.61-22.34,10.37-47,12.16-65.38,15.51-103,18.76-145.79,25.66-194.65,39.17-34.31,9.49-90.33,25-86.4,40.59,2.24,9,24,16.5,26.42,15.53s-15.55-8.78-13.55-18.35c1.84-8.8,24-15.42,68.21-28.3,15.51-4.52,33.73-9.35,59.87-15.11,29-6.4,57.71-12.72,94.53-16.95,12.45-1.42,21.66-2.13,36.25-4.94,24.3-4.67,38.57-10.35,40.66-9s-8.63,7.5-15.59,11.12c-5.58,2.91-21.71,10.84-56.58,19.41-14.15,3.48-12.66,2.47-20.33,4.59-27.91,7.74-42.57,19.83-47.63,23.72-19,14.6-35.82,15.57-97,42.28C796.36,722,758.45,738.52,735,762.48c-21.92,22.37-20.2,35.64-51.84,48.71-22,9.09-36.64,8.34-71.15,19.58-35.89,11.7-55.82,24.16-65.8,29.58-28,15.18-77.49,29.13-252.08,45.17-77.83,7.16-177,14.41-293.65,18.36"/><path class="i" d="M.45,1080V923.88c63.39-.89,117.06-3.57,158.18-6.28,12-.79,12.85-.92,161.06-14.81,95-8.91,113.28-10.6,142.68-17.8,2-.5,29.3-8.55,83.81-24.64,22.59-6.67,37.46-11.11,55.63-19,20.25-8.77,18-10.27,33.82-16.31,30.74-11.7,45.71-8.52,63.76-18.28,8.54-4.61,6-5.77,21.69-24.7C733.25,767.35,744,754.35,763,740.35a198.77,198.77,0,0,1,39.37-23.22c18.75-8.43,22.3-7,41.86-15.44,32-13.74,37.9-24,51.37-23.26,11.89.67,24.09,9,25.35,17.27,2.08,13.75-27.14,18.83-61.17,46.46-13.48,10.94-26.44,24.38-21.16,26.67,5.79,2.51,31.62-9.16,34.56-7.41,2.61,1.56-19.54,9.82-16.26,18,2.56,6.42,20.34,11.69,30.49,9.53,10.92-2.32,9.19-12.43,14.23-12.71,10.64-.57,28.4,43.79,32.53,43.42s-18.3-41.3,12.2-52.95c15.24-5.82,33.83-20.56,46.75-28.47,12.34-7.54,3.38-17.22,14.23-21.17,13.24-4.82,40.47-34.49,42.7-33.71,35.07,12.27,35.64,94.56,50.67,168,10.44,51,17.82,77.2-12,89-15,5.91-34.94,6.46-36.59,12.71-2.08,7.88,26.13,20.43,44.72,18,41.39-5.41,36-85.12,34.56-106.94-3.1-46.12-5.72-144.14-37.2-176.38-.14-.15-20.46-21-13.62-23.45,3.7-1.34,11.22,4.17,28.46,6.36,13.1,1.65,34,1.68,42.69-4.24,7.24-4.93,2.17-11.41,8.14-12.71,6.3-1.36,13.88,5.47,20.32,4.24,8.35-1.59.89-14.05,12.2-18,8.64-3,17.74,1.63,28.46,0,26.22-4,22.86-40.93,29.48-41.06,3.26-.06,1.7,10.7,9.93,12.45,15.1,3.21,48.16-28.81,55.13-26.92,4.29,1.16-1.1,15.22-16.27,27.88s-26.35,12.61-32.26,22.59c-4.13,7,.91,9.41.75,25.18-.36,35.6-8.59,43.11-11.32,71.58-1.28,13.4,5.76,23.78,9.29,28.83,6.13,8.77,15.76,37.55,38.62,50.71,49.06,28.22,73.08,27.13,79.29,38.11,17.4,30.78-149.64,77.77-146.37,80.47S1422.92,895.3,1418,852.48c-4.47-39.19-98.2-46-125.12-108.3-19.5-45.12.41-97.65,23.47-113.76,2.41-1.68,12.22-8.12,19.31-18.12a46,46,0,0,0,8.35-25c.76-20.77-12-35.11-9-35.66,2.19-.41,10,7.25,15.58,14.47,12.19,15.63,14.19,28.94,14.57,31.76,3.68,27.31-13,48.72-8.13,49.53,3.46.58,10.39-10.49,18.64-10,9.65.58,11.12,16.41,15.92,16.35S1403,637.18,1402.79,618c-.23-22.31-9.3-32.18,3-44.47,2.39-2.37,6.14-5.41,8.6-10.49,5.39-11.15-1.3-20.06-.13-20.22,1.39-.18,11.91,12.26,16.94,30.71,2,7.27,3.52,10.87,3.2,15.25-1.18,15.83-16.7,27.82-15.39,28.16s11.91-10.07,14.66-9.48c4.31.93-20.31,27-2.47,35.6,2.56,1.24,3.58,1,7.12,2.23,18.16,6.59,16.79,23.38,16.6,27.77,0,0-.87,20.21,66.58,128.93,1,1.54,1.93,3.08,1.93,3.08,3.52,5.52,7.32,10.81,51.1,78.17,13.27,20.42,19.9,30.78,19.42,37.66-3.28,47.46-130.87,75.82-127.17,78.81s138.62-19.4,154.5-65.65c6.16-17.93-5.74-39-19.11-62.54-15.37-27.14-32.88-42.76-23.58-46.52,11.45-4.63,41.13,17.76,99.62,20.12,25.38,1,32.11-2.7,44.72,1.06,23.26,6.93,14.82,23.9,26.43,56.11,15.12,42,41.64,47.07,34.56,74.12-4.68,17.9-20.31,31-12.2,33.88,6.76,2.4,27.48-3.2,38.63-11.64,24.84-18.84-8.47-43.85-40.66-115.41-11.06-24.59-16.6-42.68,2-51.89,14.67-7.25,40.22-7,48.79-18,2.3-2.95,5.27-9.16,0-11.64-11.72-5.54-46,16-101.65,22.23-3.29.37-68.8,7.22-119.94-11.65-12.61-4.65-13.14-17-29.9-37.92a114.48,114.48,0,0,0-9-10c-10.26-10.11-18.44-17.25-20.09-18.63-13.8-11.54-46.71-55.54-35.58-71.59,18.5-26.67,192-24.28,416-1.06v407"/><polygon class="j" points="842.93 707.49 836.39 726.02 849.46 726.02 842.93 707.49"/><polygon class="k" points="844.49 719.95 837.79 738.95 851.2 738.95 844.49 719.95"/><polygon class="l" points="837.53 729.15 830.78 748.29 844.29 748.29 837.53 729.15"/><polygon class="m" points="823.99 717.82 817.19 737.11 830.79 737.11 823.99 717.82"/><polygon class="n" points="816.06 717.84 809.23 737.19 822.88 737.19 816.06 717.84"/><polygon class="o" points="809.78 725.63 803 744.84 816.56 744.84 809.78 725.63"/><polygon class="p" points="806.64 737.25 799.91 756.32 813.36 756.32 806.64 737.25"/><polygon class="q" points="805.03 742.56 798.35 761.5 811.71 761.5 805.03 742.56"/><polygon class="r" points="792.04 739.94 785.41 758.74 798.67 758.74 792.04 739.94"/><polygon class="s" points="778.74 738.56 772.09 757.41 785.38 757.41 778.74 738.56"/><polygon class="t" points="790.32 758.87 783.65 777.78 796.99 777.78 790.32 758.87"/><polygon class="u" points="777.62 758.19 770.92 777.17 784.31 777.17 777.62 758.19"/><polygon class="v" points="763.96 757.86 757.24 776.91 770.68 776.91 763.96 757.86"/><polygon class="w" points="767.4 769.67 760.82 788.33 773.98 788.33 767.4 769.67"/><polygon class="x" points="757.63 772.86 751.18 791.15 764.08 791.15 757.63 772.86"/><polygon class="y" points="761.45 783.36 755.12 801.29 767.77 801.29 761.45 783.36"/><polygon class="z" points="748.15 784.08 741.95 801.66 754.35 801.66 748.15 784.08"/><polygon class="aa" points="1601.16 653.65 1592.39 678.5 1609.92 678.5 1601.16 653.65"/><polygon class="ab" points="1578.99 658.58 1570.45 682.79 1587.53 682.79 1578.99 658.58"/><polygon class="ac" points="1592.17 674.02 1584.23 696.53 1600.11 696.53 1592.17 674.02"/><polygon class="ad" points="1522.17 659.3 1513.85 682.91 1530.5 682.91 1522.17 659.3"/><polygon class="ae" points="1527.16 669.3 1518.92 692.65 1535.39 692.65 1527.16 669.3"/><polygon class="af" points="1513.42 681.87 1505.28 704.95 1521.56 704.95 1513.42 681.87"/><polygon class="ag" points="1521.29 692.06 1513.28 714.77 1529.3 714.77 1521.29 692.06"/><polygon class="ah" points="1525.3 701.33 1517.42 723.66 1533.18 723.66 1525.3 701.33"/><polygon class="ai" points="1372.33 638.43 1364.36 661.03 1380.3 661.03 1372.33 638.43"/><polygon class="aj" points="1376.79 651.76 1368.8 674.42 1384.78 674.42 1376.79 651.76"/><polygon class="ak" points="1395.12 655.55 1387.11 678.28 1403.14 678.28 1395.12 655.55"/><polygon class="al" points="1378.78 672.72 1370.81 695.31 1386.74 695.31 1378.78 672.72"/><polygon class="am" points="1392.33 678.18 1384.55 700.26 1400.12 700.26 1392.33 678.18"/><polygon class="an" points="1323.16 634.02 1315.23 656.53 1331.1 656.53 1323.16 634.02"/><polygon class="ao" points="1336.43 655.99 1328.53 678.4 1344.34 678.4 1336.43 655.99"/><polygon class="ap" points="1315.15 655.34 1307.36 677.45 1322.95 677.45 1315.15 655.34"/><polygon class="aq" points="1317.46 667.62 1309.77 689.43 1325.15 689.43 1317.46 667.62"/><polygon class="ar" points="1322.99 678.92 1315.44 700.34 1330.55 700.34 1322.99 678.92"/><polygon class="as" points="1316.4 686.86 1309.21 707.24 1323.59 707.24 1316.4 686.86"/><polygon class="at" points="1307.74 692.99 1300.8 712.67 1314.68 712.67 1307.74 692.99"/><polygon class="au" points="1319.13 705.85 1312.37 725.03 1325.9 725.03 1319.13 705.85"/><polygon class="av" points="1313.33 714.11 1306.74 732.81 1319.93 732.81 1313.33 714.11"/><polygon class="aw" points="1222.46 637.09 1215 658.26 1229.93 658.26 1222.46 637.09"/><polygon class="ax" points="1219.79 654.37 1212.27 675.7 1227.31 675.7 1219.79 654.37"/><polygon class="ay" points="1217.45 664.6 1210.05 685.58 1224.85 685.58 1217.45 664.6"/><polygon class="az" points="1206.26 663.12 1198.87 684.04 1213.63 684.04 1206.26 663.12"/><polygon class="ba" points="1196.98 663.18 1189.61 684.08 1204.36 684.08 1196.98 663.18"/><polygon class="bb" points="1189.29 667.07 1181.93 687.94 1196.66 687.94 1189.29 667.07"/><polygon class="bc" points="1182.9 681.63 1175.55 702.48 1190.26 702.48 1182.9 681.63"/><polygon class="bd" points="1170 660.4 1162.66 681.23 1177.35 681.23 1170 660.4"/><polygon class="be" points="1163.61 675.65 1156.28 696.45 1170.95 696.45 1163.61 675.65"/><polygon class="bf" points="1157.05 689.67 1149.74 710.39 1164.36 710.39 1157.05 689.67"/><polygon class="bg" points="1145.14 673.03 1137.91 693.54 1152.38 693.54 1145.14 673.03"/><polygon class="bh" points="1136.13 671.89 1128.96 692.2 1143.29 692.2 1136.13 671.89"/><polygon class="bi" points="1131.28 693.44 1124.19 713.55 1138.37 713.55 1131.28 693.44"/><polygon class="bj" points="1120.85 682.91 1113.83 702.83 1127.87 702.83 1120.85 682.91"/><polygon class="bk" points="1157.37 684.13 1148.52 709.24 1166.23 709.24 1157.37 684.13"/><polygon class="bk" points="1143.06 694.57 1134.21 719.68 1151.91 719.68 1143.06 694.57"/><polygon class="bk" points="1140.83 706.16 1131.98 731.27 1149.68 731.27 1140.83 706.16"/><polygon class="bk" points="1154.74 718.16 1145.88 743.26 1163.59 743.26 1154.74 718.16"/><polygon class="bl" points="1168.34 729.5 1159.56 754.39 1177.12 754.39 1168.34 729.5"/><polygon class="bm" points="1147.65 742.34 1138.96 766.98 1156.34 766.98 1147.65 742.34"/><polygon class="bn" points="1154.7 753.25 1146.1 777.63 1163.3 777.63 1154.7 753.25"/><polygon class="bo" points="1152.29 765.37 1144.11 788.57 1160.47 788.57 1152.29 765.37"/><polygon class="bp" points="1047.83 703.9 1039.96 726.22 1055.7 726.22 1047.83 703.9"/><polygon class="bq" points="1041.7 712.14 1033.7 734.82 1049.69 734.82 1041.7 712.14"/><polygon class="br" points="1036.82 721.39 1028.72 744.33 1044.9 744.33 1036.82 721.39"/><polygon class="bs" points="1029.3 728.78 1021.11 751.99 1037.48 751.99 1029.3 728.78"/><polygon class="bt" points="1012.5 725.13 1004.27 748.46 1020.74 748.46 1012.5 725.13"/><polygon class="bu" points="1014.47 744.52 1006.22 767.93 1022.73 767.93 1014.47 744.52"/><polygon class="bv" points="1002.47 746.06 994.19 769.54 1010.75 769.54 1002.47 746.06"/><polygon class="bw" points="990.01 747.63 981.7 771.18 998.31 771.18 990.01 747.63"/><polygon class="bx" points="988.28 762.13 980.1 785.3 996.45 785.3 988.28 762.13"/><polygon class="by" points="986.53 773.54 978.54 796.2 994.53 796.2 986.53 773.54"/><polygon class="bz" points="976.16 778.41 968.89 799.01 983.43 799.01 976.16 778.41"/><polygon class="ca" points="979.94 767.19 973.01 786.84 986.87 786.84 979.94 767.19"/><polygon class="cb" points="456.59 814.1 446.31 843.24 466.87 843.24 456.59 814.1"/><polygon class="cc" points="447.44 835.95 437.2 864.97 457.67 864.97 447.44 835.95"/><polygon class="cd" points="428.63 816.53 418.5 845.25 438.76 845.25 428.63 816.53"/><polygon class="ce" points="417.24 828.12 407.23 856.5 427.24 856.5 417.24 828.12"/><polygon class="cf" points="404.45 832.1 394.62 859.96 414.27 859.96 404.45 832.1"/><polygon class="cg" points="389 825.64 379.35 853 398.65 853 389 825.64"/><polygon class="ch" points="382.78 850.64 373.32 877.45 392.24 877.45 382.78 850.64"/><polygon class="ci" points="367.36 840.23 358.11 866.43 376.6 866.43 367.36 840.23"/><polygon class="cj" points="358.1 856.36 349.06 881.99 367.13 881.99 358.1 856.36"/><polygon class="ck" points="346.81 859.49 337.98 884.55 355.65 884.55 346.81 859.49"/><polygon class="cl" points="333.8 843.42 326.08 865.32 341.52 865.32 333.8 843.42"/><polygon class="cm" points="369.32 796.88 358.52 827.51 380.12 827.51 369.32 796.88"/><polygon class="cn" points="354.77 804.3 343.98 834.91 365.57 834.91 354.77 804.3"/><polygon class="co" points="340.45 814.52 329.66 845.11 351.24 845.11 340.45 814.52"/><polygon class="cp" points="326.6 824.29 315.81 854.87 337.38 854.87 326.6 824.29"/><polygon class="cq" points="311.37 823.65 300.59 854.21 322.15 854.21 311.37 823.65"/><polygon class="cr" points="298.64 830.26 287.94 860.62 309.35 860.62 298.64 830.26"/><polygon class="cs" points="285.63 833.72 275.02 863.81 296.24 863.81 285.63 833.72"/><polygon class="ct" points="265.52 824.27 255 854.09 276.04 854.09 265.52 824.27"/><polygon class="cu" points="262.13 845.49 251.77 874.87 272.5 874.87 262.13 845.49"/><polygon class="cv" points="246.05 846.49 235.85 875.42 256.25 875.42 246.05 846.49"/><polygon class="cw" points="243.45 863 234.42 888.62 252.49 888.62 243.45 863"/><polygon class="cx" points="315.14 772 306.61 796.21 323.68 796.21 315.14 772"/><polygon class="cy" points="315.4 770.33 305.08 799.59 325.72 799.59 315.4 770.33"/><polygon class="cz" points="302.45 775.58 292.33 804.27 312.57 804.27 302.45 775.58"/><polygon class="da" points="292.17 785.31 282.63 812.37 301.72 812.37 292.17 785.31"/><polygon class="db" points="274.87 777.16 265.42 803.98 284.33 803.98 274.87 777.16"/><polygon class="dc" points="269.56 795.99 260.14 822.7 278.98 822.7 269.56 795.99"/><polygon class="dd" points="256.97 798.38 247.58 825 266.36 825 256.97 798.38"/><polygon class="de" points="246.12 804.38 236.75 830.93 255.48 830.93 246.12 804.38"/><polygon class="df" points="229.06 799.09 219.72 825.56 238.39 825.56 229.06 799.09"/><polygon class="dg" points="224.69 817.27 215.38 843.68 234 843.68 224.69 817.27"/><polygon class="dh" points="207.93 811.39 198.64 837.72 217.21 837.72 207.93 811.39"/><polygon class="di" points="194.46 809.22 185.32 835.15 203.61 835.15 194.46 809.22"/><polygon class="dj" points="192.4 837.13 183.43 862.56 201.37 862.56 192.4 837.13"/><polygon class="dk" points="176.33 824.29 167.66 848.88 185.01 848.88 176.33 824.29"/><polygon class="dl" points="168.13 839.41 159.74 863.19 176.51 863.19 168.13 839.41"/><polygon class="am" points="154.96 823.23 147.18 845.31 162.75 845.31 154.96 823.23"/><polygon class="dm" points="297.07 706.19 290.12 725.89 304.01 725.89 297.07 706.19"/><polygon class="dn" points="288.91 711.18 280.85 734.03 296.97 734.03 288.91 711.18"/><polygon class="do" points="273.5 704.44 265.45 727.25 281.55 727.25 273.5 704.44"/><polygon class="dp" points="270.75 720.55 262.72 743.32 278.78 743.32 270.75 720.55"/><polygon class="dq" points="264.43 730.14 256.42 752.87 272.45 752.87 264.43 730.14"/><polygon class="dr" points="255.52 735 247.52 757.69 263.52 757.69 255.52 735"/><polygon class="ds" points="245.65 738.08 237.66 760.73 253.64 760.73 245.65 738.08"/><polygon class="dt" points="228.37 727.82 220.4 750.43 236.35 750.43 228.37 727.82"/><polygon class="du" points="228.44 748.38 220.48 770.96 236.4 770.96 228.44 748.38"/><polygon class="dv" points="221.11 754.84 213.17 777.38 229.06 777.38 221.11 754.84"/><polygon class="dw" points="208.42 753.25 200.49 775.75 216.35 775.75 208.42 753.25"/><polygon class="dx" points="194.93 751.39 187.01 773.84 202.85 773.84 194.93 751.39"/><polygon class="dy" points="192.36 767.01 184.07 790.52 200.65 790.52 192.36 767.01"/><polygon class="dz" points="179.7 769.61 170.29 796.29 189.11 796.29 179.7 769.61"/><polygon class="ea" points="168.53 778.27 158.31 807.23 178.74 807.23 168.53 778.27"/><polygon class="eb" points="148.18 767.2 137.34 797.94 159.02 797.94 148.18 767.2"/><polygon class="ec" points="133.58 772.15 122.56 803.41 144.61 803.41 133.58 772.15"/><polygon class="ed" points="124.42 789.5 113.31 821.01 135.54 821.01 124.42 789.5"/><polygon class="ed" points="111.75 798.72 100.64 830.23 122.86 830.23 111.75 798.72"/><polygon class="ed" points="95 802.02 83.89 833.53 106.11 833.53 95 802.02"/><polygon class="ee" points="81.47 811.2 70.48 842.34 92.45 842.34 81.47 811.2"/><polygon class="cy" points="82.19 832.52 71.87 861.77 92.51 861.77 82.19 832.52"/><polygon class="ef" points="595.98 785.27 585.41 815.22 606.53 815.22 595.98 785.27"/><polygon class="eg" points="574.5 774.92 564.01 804.66 584.99 804.66 574.5 774.92"/><polygon class="eh" points="567.13 789.56 556.87 818.64 577.39 818.64 567.13 789.56"/><polygon class="ei" points="554.31 794.93 544.25 823.46 564.37 823.46 554.31 794.93"/><polygon class="ej" points="541.93 806.04 532.05 834.05 551.81 834.05 541.93 806.04"/><polygon class="ek" points="528.66 803.06 518.96 830.55 538.36 830.55 528.66 803.06"/><polygon class="el" points="516.04 793.13 506.52 820.12 525.56 820.12 516.04 793.13"/><polygon class="em" points="503.55 796.71 494.2 823.22 512.9 823.22 503.55 796.71"/><polygon class="en" points="492.24 789.21 483.06 815.25 501.42 815.25 492.24 789.21"/><polygon class="eo" points="478.15 804.98 469.13 830.55 487.17 830.55 478.15 804.98"/><polygon class="ep" points="464.43 804.67 455.55 829.85 473.31 829.85 464.43 804.67"/><polygon class="eq" points="461.01 777.54 452.27 802.34 469.76 802.34 461.01 777.54"/><polygon class="er" points="444.07 794.17 435.45 818.6 452.68 818.6 444.07 794.17"/><polygon class="es" points="434.56 786.71 426.07 810.76 443.04 810.76 434.56 786.71"/><polygon class="et" points="423.77 783.78 415.53 807.15 432.01 807.15 423.77 783.78"/><polygon class="eu" points="422.01 767.01 414.03 789.65 430 789.65 422.01 767.01"/><polygon class="ev" points="416.99 757.74 409.47 779.07 424.51 779.07 416.99 757.74"/><polygon class="ew" points="405.1 767.14 398.15 786.84 412.04 786.84 405.1 767.14"/><polygon class="ex" points="416.58 781.31 409.71 800.79 423.45 800.79 416.58 781.31"/><polygon class="ey" points="652.86 726.28 644.1 751.12 661.62 751.12 652.86 726.28"/><polygon class="ez" points="639.94 725.09 630.56 751.69 649.33 751.69 639.94 725.09"/><polygon class="fa" points="628.95 734.26 619.55 760.91 638.35 760.91 628.95 734.26"/><polygon class="fb" points="615.29 730.29 605.91 756.91 624.68 756.91 615.29 730.29"/><polygon class="fc" points="603.47 735.13 594.1 761.69 612.83 761.69 603.47 735.13"/><polygon class="fd" points="590.79 729.55 581.45 756.05 600.14 756.05 590.79 729.55"/><polygon class="fe" points="579.77 745.44 570.45 771.87 589.09 771.87 579.77 745.44"/><polygon class="ff" points="566.79 740.3 557.48 766.68 576.09 766.68 566.79 740.3"/><polygon class="fg" points="554.62 743.39 545.34 769.72 563.9 769.72 554.62 743.39"/><polygon class="fh" points="543.18 751.99 534.02 777.97 552.34 777.97 543.18 751.99"/><polygon class="fi" points="530.53 756.92 521.5 782.54 539.57 782.54 530.53 756.92"/><polygon class="fj" points="518.84 748.3 509.92 773.57 527.75 773.57 518.84 748.3"/><polygon class="fk" points="507.28 751.45 498.49 776.38 516.08 776.38 507.28 751.45"/><polygon class="fl" points="495.96 751.48 487.29 776.07 504.63 776.07 495.96 751.48"/><polygon class="fm" points="484.91 739.23 476.36 763.49 493.47 763.49 484.91 739.23"/><polygon class="fn" points="473.75 749.61 465.28 773.62 482.21 773.62 473.75 749.61"/><polygon class="fo" points="463.55 736.12 455.16 759.9 471.93 759.9 463.55 736.12"/><polygon class="fp" points="452.46 736.39 444.15 759.95 460.77 759.95 452.46 736.39"/><polygon class="fq" points="442.27 754.14 434.03 777.49 450.5 777.49 442.27 754.14"/><polygon class="fr" points="430.18 738.38 422.06 761.41 438.3 761.41 430.18 738.38"/><polygon class="fs" points="418.49 738.3 410.58 760.75 426.41 760.75 418.49 738.3"/><polygon class="ft" points="416.52 761.76 409.56 781.5 423.49 781.5 416.52 761.76"/><polygon class="fu" points="1035.59 563.9 1028.53 583.93 1042.66 583.93 1035.59 563.9"/><polygon class="fv" points="1027.08 565.47 1019.92 585.78 1034.25 585.78 1027.08 565.47"/><polygon class="fw" points="1020.76 583.47 1013.63 603.7 1027.9 603.7 1020.76 583.47"/><polygon class="fx" points="1011.81 581.05 1004.71 601.2 1018.92 601.2 1011.81 581.05"/><polygon class="fy" points="1002.93 577.77 995.86 597.83 1010.01 597.83 1002.93 577.77"/><polygon class="fz" points="991.4 566.04 984.38 585.94 998.42 585.94 991.4 566.04"/><polygon class="ga" points="985.34 575.33 978.5 594.73 992.18 594.73 985.34 575.33"/><polygon class="av" points="976.21 570.76 969.62 589.46 982.81 589.46 976.21 570.76"/><polygon class="gb" points="964.7 589.96 957.89 609.27 971.51 609.27 964.7 589.96"/><polygon class="gb" points="956.61 586.17 949.8 605.48 963.42 605.48 956.61 586.17"/><polygon class="gc" points="948.08 583.92 941.27 603.24 954.89 603.24 948.08 583.92"/><polygon class="gd" points="939.58 583.01 932.75 602.38 946.41 602.38 939.58 583.01"/><polygon class="ge" points="932.99 590.63 926.14 610.05 939.84 610.05 932.99 590.63"/><polygon class="ex" points="922.91 583.38 916.04 602.87 929.78 602.87 922.91 583.38"/><polygon class="gf" points="978.71 607.93 969.75 633.33 987.66 633.33 978.71 607.93"/><polygon class="gg" points="965.79 607.86 956.72 633.57 974.86 633.57 965.79 607.86"/><polygon class="gh" points="954.99 613.55 946.11 638.73 963.87 638.73 954.99 613.55"/><polygon class="gi" points="945.05 625.03 936.24 650.01 953.86 650.01 945.05 625.03"/><polygon class="gj" points="931.98 615.1 923.26 639.8 940.69 639.8 931.98 615.1"/><polygon class="gk" points="920.65 616.63 912.04 641.04 929.26 641.04 920.65 616.63"/><polygon class="gl" points="914.54 635.58 906.03 659.7 923.04 659.7 914.54 635.58"/><polygon class="gm" points="902.63 634.14 894.16 658.17 911.11 658.17 902.63 634.14"/><polygon class="gn" points="893.3 641.09 884.84 665.08 901.75 665.08 893.3 641.09"/><polygon class="go" points="880.65 639.69 872.21 663.63 889.1 663.63 880.65 639.69"/><polygon class="gp" points="866.22 621.98 857.8 645.87 874.65 645.87 866.22 621.98"/><polygon class="gq" points="857.41 635.05 849 658.89 865.82 658.89 857.41 635.05"/><polygon class="gr" points="844.29 634.53 835.93 658.22 852.64 658.22 844.29 634.53"/><polygon class="gs" points="839.58 648.2 831.47 671.2 847.69 671.2 839.58 648.2"/><polygon class="gt" points="827.58 654.5 820.59 674.32 834.58 674.32 827.58 654.5"/><polygon class="gu" points="763.83 649.77 754.41 676.47 773.25 676.47 763.83 649.77"/><polygon class="gv" points="744.55 650.05 735.26 676.4 753.85 676.4 744.55 650.05"/><polygon class="gw" points="733.64 655.91 724.45 681.99 742.84 681.99 733.64 655.91"/><polygon class="gx" points="722.85 661.57 713.8 687.23 731.9 687.23 722.85 661.57"/><polygon class="gy" points="718.99 676.91 710.08 702.18 727.9 702.18 718.99 676.91"/><polygon class="gz" points="705.13 677.83 696.36 702.7 713.9 702.7 705.13 677.83"/><polygon class="ha" points="707.02 697.06 698.41 721.47 715.63 721.47 707.02 697.06"/><polygon class="hb" points="688.62 692.77 680.16 716.75 697.07 716.75 688.62 692.77"/><polygon class="hc" points="680.83 700.17 672.52 723.72 689.14 723.72 680.83 700.17"/><polygon class="hd" points="669.31 701.54 661.62 723.36 677 723.36 669.31 701.54"/><polygon class="he" points="452.44 670.96 444.08 694.65 460.79 694.65 452.44 670.96"/><polygon class="hf" points="453.24 692.82 444.6 717.32 461.88 717.32 453.24 692.82"/><polygon class="hf" points="445.04 700.92 436.4 725.42 453.68 725.42 445.04 700.92"/><polygon class="hg" points="439.65 710.79 431.05 735.19 448.26 735.19 439.65 710.79"/><polygon class="hh" points="427.56 712.35 419 736.62 436.12 736.62 427.56 712.35"/><polygon class="hi" points="407.79 707.82 399.27 731.96 416.3 731.96 407.79 707.82"/><polygon class="hj" points="404.6 718.81 397.36 739.33 411.83 739.33 404.6 718.81"/><polygon class="hk" points="705.96 654.41 698.11 676.67 713.81 676.67 705.96 654.41"/><polygon class="hl" points="697.95 663.6 689.98 686.2 705.91 686.2 697.95 663.6"/><polygon class="hm" points="691.28 677.88 683.37 700.32 699.19 700.32 691.28 677.88"/><polygon class="hn" points="681.74 680.6 673.87 702.92 689.61 702.92 681.74 680.6"/><polygon class="ho" points="669.33 671.99 661.48 694.25 677.18 694.25 669.33 671.99"/><polygon class="hp" points="661.76 683.11 653.93 705.31 669.59 705.31 661.76 683.11"/><polygon class="hq" points="650.7 677.26 642.89 699.41 658.51 699.41 650.7 677.26"/><polygon class="hr" points="641.76 682.64 633.97 704.73 649.55 704.73 641.76 682.64"/><polygon class="hs" points="634.44 696.7 626.65 718.79 642.24 718.79 634.44 696.7"/><polygon class="ht" points="620.39 674.64 612.59 696.75 628.19 696.75 620.39 674.64"/><polygon class="hu" points="612.35 684.98 604.55 707.11 620.16 707.11 612.35 684.98"/><polygon class="hv" points="601.65 681.07 593.84 703.23 609.47 703.23 601.65 681.07"/><polygon class="hw" points="595.61 703.19 587.79 725.36 603.43 725.36 595.61 703.19"/><polygon class="hx" points="582.53 684.28 574.71 706.48 590.36 706.48 582.53 684.28"/><polygon class="hy" points="572.64 684.75 564.81 706.97 580.48 706.97 572.64 684.75"/><polygon class="hz" points="565.22 701.16 557.38 723.4 573.07 723.4 565.22 701.16"/><polygon class="ia" points="553.29 688.45 545.47 710.64 561.12 710.64 553.29 688.45"/><polygon class="ib" points="546.46 708.07 538.66 730.16 554.25 730.16 546.46 708.07"/><polygon class="ic" points="534.93 697.16 527.17 719.15 542.68 719.15 534.93 697.16"/><polygon class="id" points="527.2 710.29 519.48 732.19 534.92 732.19 527.2 710.29"/><polygon class="ie" points="518.44 716.35 510.75 738.15 526.13 738.15 518.44 716.35"/><polygon class="if" points="507.39 707.39 499.74 729.1 515.05 729.1 507.39 707.39"/><polygon class="gt" points="500.87 720.62 493.87 740.45 507.86 740.45 500.87 720.62"/><polygon class="ig" points="750.64 638.57 743.87 657.76 757.41 657.76 750.64 638.57"/><polygon class="ih" points="743.62 643.99 736.8 663.31 750.44 663.31 743.62 643.99"/><polygon class="ii" points="732.69 632.31 725.83 651.77 739.55 651.77 732.69 632.31"/><polygon class="ij" points="725.85 638.96 718.99 658.42 732.71 658.42 725.85 638.96"/><polygon class="ik" points="719.98 649.88 713.13 669.3 726.83 669.3 719.98 649.88"/><polygon class="il" points="711 646.81 704.16 666.22 717.85 666.22 711 646.81"/><polygon class="im" points="702.16 645.76 695.33 665.13 708.99 665.13 702.16 645.76"/><polygon class="in" points="696.28 653.99 689.46 673.34 703.11 673.34 696.28 653.99"/><polygon class="io" points="690.62 662.86 683.81 682.18 697.43 682.18 690.62 662.86"/><polygon class="ip" points="684.44 670.01 677.64 689.31 691.24 689.31 684.44 670.01"/><polygon class="iq" points="676.58 671.72 669.79 690.99 683.38 690.99 676.58 671.72"/><polygon class="ir" points="660.98 648.86 654.2 668.09 667.76 668.09 660.98 648.86"/><polygon class="is" points="660.94 676.66 654.28 695.53 667.59 695.53 660.94 676.66"/><polygon class="it" points="650.91 670.66 644.16 689.79 657.66 689.79 650.91 670.66"/><polygon class="iu" points="642.37 669.56 635.5 689.03 649.24 689.03 642.37 669.56"/><polygon class="iv" points="632.84 660.27 625.98 679.71 639.7 679.71 632.84 660.27"/><polygon class="iw" points="624.55 659.43 617.7 678.85 631.4 678.85 624.55 659.43"/><polygon class="ix" points="617.77 669.63 610.93 689.02 624.61 689.02 617.77 669.63"/><polygon class="ix" points="610.87 678.91 604.03 698.31 617.71 698.31 610.87 678.91"/><polygon class="ix" points="600.02 661.61 593.18 681 606.86 681 600.02 661.61"/><polygon class="iy" points="592.11 665.07 585.28 684.46 598.95 684.46 592.11 665.07"/><polygon class="iz" points="585.22 671.64 578.4 690.97 592.03 690.97 585.22 671.64"/><polygon class="ja" points="575.95 666.18 569.16 685.45 582.75 685.45 575.95 666.18"/><polygon class="jb" points="572.99 691.97 566.21 711.18 579.76 711.18 572.99 691.97"/><polygon class="jc" points="563.07 682.48 556.32 701.63 569.83 701.63 563.07 682.48"/><polygon class="jd" points="552.27 673.31 545.54 692.4 559.01 692.4 552.27 673.31"/><polygon class="je" points="545.92 677.11 539.19 696.21 552.66 696.21 545.92 677.11"/><polygon class="jf" points="539.76 688.96 532.96 708.25 546.57 708.25 539.76 688.96"/><polygon class="ex" points="530.63 679.16 523.75 698.64 537.5 698.64 530.63 679.16"/><polygon class="jg" points="326.59 641.01 318.62 663.59 334.55 663.59 326.59 641.01"/><polygon class="jh" points="320.65 656.76 312.81 678.99 328.5 678.99 320.65 656.76"/><polygon class="ji" points="308.21 654.54 300.41 676.67 316.02 676.67 308.21 654.54"/><polygon class="jj" points="302.33 664.11 294.54 686.2 310.12 686.2 302.33 664.11"/><polygon class="jk" points="297.19 674.97 289.42 697.01 304.97 697.01 297.19 674.97"/><polygon class="jl" points="282.77 668.95 275.01 690.95 290.53 690.95 282.77 668.95"/><polygon class="jm" points="281.92 687.47 274.18 709.42 289.67 709.42 281.92 687.47"/><polygon class="jn" points="268.35 682.86 260.62 704.76 276.07 704.76 268.35 682.86"/><polygon class="jo" points="254.44 677.59 246.73 699.45 262.14 699.45 254.44 677.59"/><polygon class="jp" points="250.34 689.84 242.65 711.66 258.03 711.66 250.34 689.84"/><polygon class="jq" points="240.51 691.66 232.82 713.47 248.2 713.47 240.51 691.66"/><polygon class="jr" points="231.49 695.07 223.8 716.87 239.18 716.87 231.49 695.07"/><polygon class="js" points="228.2 710.7 220.51 732.5 235.88 732.5 228.2 710.7"/><polygon class="jt" points="215.39 704.36 207.71 726.14 223.07 726.14 215.39 704.36"/><polygon class="ju" points="206.01 706.5 198.33 728.28 213.69 728.28 206.01 706.5"/><polygon class="jv" points="197.16 710.21 189.49 731.98 204.84 731.98 197.16 710.21"/><polygon class="jw" points="186.88 709.31 179.21 731.07 194.56 731.07 186.88 709.31"/><polygon class="jx" points="182.18 726.12 174.5 747.87 189.84 747.87 182.18 726.12"/><polygon class="jy" points="174.45 733.5 166.78 755.25 182.12 755.25 174.45 733.5"/><polygon class="jz" points="162.14 725.92 154.48 747.65 169.81 747.65 162.14 725.92"/><polygon class="ka" points="150.19 719.26 142.57 740.86 157.81 740.86 150.19 719.26"/><polygon class="kb" points="143.06 727.93 135.53 749.3 150.6 749.3 143.06 727.93"/><polygon class="kc" points="135.62 735.08 128.16 756.23 143.08 756.23 135.62 735.08"/><polygon class="kd" points="126.9 737.57 119.53 758.48 134.28 758.48 126.9 737.57"/><polygon class="ke" points="116.47 733.95 109.19 754.62 123.76 754.62 116.47 733.95"/><polygon class="kf" points="108.28 737.1 101.08 757.51 115.48 757.51 108.28 737.1"/><polygon class="kg" points="102.9 748.91 95.79 769.09 110.02 769.09 102.9 748.91"/><polygon class="ex" points="95.84 753.96 88.97 773.44 102.71 773.44 95.84 753.96"/><polygon class="kh" points="553.04 630.66 546.04 650.5 560.03 650.5 553.04 630.66"/><polygon class="ki" points="544.41 629.05 537.4 648.93 551.42 648.93 544.41 629.05"/><polygon class="kj" points="539.05 655.85 532.02 675.77 546.08 675.77 539.05 655.85"/><polygon class="kk" points="529.31 645.63 522.27 665.6 536.35 665.6 529.31 645.63"/><polygon class="kl" points="520.57 640.66 513.51 660.68 527.63 660.68 520.57 640.66"/><polygon class="km" points="511.81 633.94 504.73 654 518.88 654 511.81 633.94"/><polygon class="kn" points="504.69 658.18 497.6 678.29 511.79 678.29 504.69 658.18"/><polygon class="ko" points="496.6 658.49 489.49 678.64 503.71 678.64 496.6 658.49"/><polygon class="kp" points="486.82 648.43 479.69 668.64 493.94 668.64 486.82 648.43"/><polygon class="kq" points="477.92 646.49 470.78 666.74 485.07 666.74 477.92 646.49"/><polygon class="kr" points="469.36 647.74 462.2 668.03 476.52 668.03 469.36 647.74"/><polygon class="ks" points="458.12 640.88 450.95 661.22 465.3 661.22 458.12 640.88"/><polygon class="kt" points="455.36 662.2 448.23 682.42 462.49 682.42 455.36 662.2"/><polygon class="ku" points="448.31 668.53 441.23 688.62 455.4 688.62 448.31 668.53"/><polygon class="kv" points="437.29 660.93 430.25 680.89 444.33 680.89 437.29 660.93"/><polygon class="kw" points="428.93 661.82 421.93 681.66 435.93 681.66 428.93 661.82"/><polygon class="kx" points="414.29 664.96 407.51 684.18 421.06 684.18 414.29 664.96"/><polygon class="av" points="373.75 625.2 367.15 643.9 380.35 643.9 373.75 625.2"/><polygon class="av" points="364.94 635.63 358.35 654.33 371.54 654.33 364.94 635.63"/><polygon class="ky" points="358.74 621.09 352.12 639.87 365.36 639.87 358.74 621.09"/><polygon class="kz" points="349.85 630.79 343.18 649.71 356.53 649.71 349.85 630.79"/><polygon class="la" points="342.72 626.68 336.19 645.21 349.25 645.21 342.72 626.68"/><polygon class="lb" points="336.1 614.9 329.38 633.94 342.81 633.94 336.1 614.9"/><polygon class="lc" points="327.34 625.74 320.67 644.67 334.01 644.67 327.34 625.74"/><polygon class="ld" points="319.23 620.05 312.41 639.37 326.04 639.37 319.23 620.05"/><polygon class="le" points="310.69 611.25 303.86 630.63 317.53 630.63 310.69 611.25"/><polygon class="lf" points="305.46 632.14 298.6 651.59 312.32 651.59 305.46 632.14"/><polygon class="lg" points="295.23 626.88 288.38 646.31 302.08 646.31 295.23 626.88"/><polygon class="lh" points="292.11 639.34 285.29 658.68 298.93 658.68 292.11 639.34"/><polygon class="li" points="276.77 625.85 269.98 645.11 283.56 645.11 276.77 625.85"/><polygon class="lj" points="268.69 627.35 261.93 646.52 275.45 646.52 268.69 627.35"/><polygon class="lk" points="263.13 634.15 256.38 653.3 269.88 653.3 263.13 634.15"/><polygon class="ll" points="261.51 649.25 254.75 668.41 268.26 668.41 261.51 649.25"/><polygon class="lm" points="253.34 650.58 246.58 669.76 260.1 669.76 253.34 650.58"/><polygon class="ln" points="247.56 656.98 240.79 676.17 254.33 676.17 247.56 656.98"/><polygon class="lo" points="237.62 654.59 230.84 673.8 244.39 673.8 237.62 654.59"/><polygon class="lp" points="234.59 666.84 227.81 686.07 241.37 686.07 234.59 666.84"/><polygon class="lq" points="224.45 664.09 217.66 683.34 231.23 683.34 224.45 664.09"/><polygon class="lr" points="214.81 662.44 208.01 681.7 221.6 681.7 214.81 662.44"/><polygon class="ls" points="214.57 680.63 207.77 699.91 221.37 699.91 214.57 680.63"/><polygon class="lt" points="205 679.67 198.2 698.96 211.81 698.96 205 679.67"/><polygon class="lu" points="194.55 675.8 187.76 695.07 201.35 695.07 194.55 675.8"/><polygon class="lv" points="192.2 691.19 185.44 710.36 198.96 710.36 192.2 691.19"/><polygon class="lw" points="175.9 671.98 169.18 691.03 182.62 691.03 175.9 671.98"/><polygon class="lx" points="169.56 677.17 162.87 696.12 176.24 696.12 169.56 677.17"/><polygon class="ly" points="165.57 688 158.92 706.84 172.21 706.84 165.57 688"/><polygon class="lz" points="158.57 691.18 151.97 709.89 165.17 709.89 158.57 691.18"/><polygon class="ma" points="146.73 682.14 140.19 700.68 153.26 700.68 146.73 682.14"/><polygon class="mb" points="139.76 684.85 133.28 703.22 146.24 703.22 139.76 684.85"/><polygon class="mc" points="136.69 696.91 130.26 715.12 143.11 715.12 136.69 696.91"/><polygon class="md" points="134.68 711.49 128.27 729.67 141.09 729.67 134.68 711.49"/><polygon class="md" points="124.44 705.74 118.03 723.92 130.85 723.92 124.44 705.74"/><polygon class="me" points="1321.87 498.91 1314.84 518.84 1328.89 518.84 1321.87 498.91"/><polygon class="mf" points="1312.57 499.37 1305.04 520.71 1320.09 520.71 1312.57 499.37"/><polygon class="mg" points="1302.63 503.7 1294.97 525.42 1310.29 525.42 1302.63 503.7"/><polygon class="mh" points="1294.77 518.59 1287.11 540.31 1302.43 540.31 1294.77 518.59"/><polygon class="mi" points="1282.98 504.86 1275.32 526.57 1290.63 526.57 1282.98 504.86"/><polygon class="mj" points="1274.13 510.14 1266.48 531.84 1281.79 531.84 1274.13 510.14"/><polygon class="mk" points="1263.67 505.66 1256.02 527.35 1271.32 527.35 1263.67 505.66"/><polygon class="ml" points="1255.02 511.31 1247.37 532.99 1262.66 532.99 1255.02 511.31"/><polygon class="mm" points="1247.65 524.2 1240.01 545.87 1255.29 545.87 1247.65 524.2"/><polygon class="mn" points="1236.49 516.34 1228.85 538 1244.13 538 1236.49 516.34"/><polygon class="mo" points="1230.85 534.84 1223.21 556.49 1238.49 556.49 1230.85 534.84"/><polygon class="mp" points="1216.89 516.28 1209.26 537.93 1224.52 537.93 1216.89 516.28"/><polygon class="mq" points="1207.7 521.6 1200.15 543 1215.24 543 1207.7 521.6"/><polygon class="mr" points="1203.93 536.29 1196.47 557.44 1211.39 557.44 1203.93 536.29"/><polygon class="ms" points="1190.37 532.54 1183 553.44 1197.75 553.44 1190.37 532.54"/><polygon class="ks" points="1199.05 552.53 1191.88 572.87 1206.23 572.87 1199.05 552.53"/><polygon class="mt" points="1156.39 539.89 1149.16 560.4 1163.63 560.4 1156.39 539.89"/><polygon class="mu" points="1149.67 547.56 1142.46 568 1156.88 568 1149.67 547.56"/><polygon class="mv" points="1141.48 548.55 1134.3 568.92 1148.67 568.92 1141.48 548.55"/><polygon class="mw" points="1125.22 533.65 1118.06 553.95 1132.38 553.95 1125.22 533.65"/><polygon class="mx" points="1124.83 551.64 1117.7 571.87 1131.97 571.87 1124.83 551.64"/><polygon class="my" points="1119.13 559.02 1112.05 579.1 1126.21 579.1 1119.13 559.02"/><polygon class="mz" points="1111.38 562.08 1104.51 581.55 1118.25 581.55 1111.38 562.08"/><polygon class="ex" points="1099.75 557.82 1092.88 577.3 1106.62 577.3 1099.75 557.82"/><polygon class="ks" points="1031.31 541.94 1024.13 562.28 1038.48 562.28 1031.31 541.94"/><polygon class="na" points="1018.3 559 1010.89 580 1025.7 580 1018.3 559"/><polygon class="nb" points="1008.8 541.23 1001.42 562.14 1016.17 562.14 1008.8 541.23"/><polygon class="nc" points="1000.57 546.68 993.22 567.5 1007.91 567.5 1000.57 546.68"/><polygon class="nd" points="990.81 542.2 983.49 562.94 998.12 562.94 990.81 542.2"/><polygon class="ne" points="983.91 555.33 976.62 575.98 991.19 575.98 983.91 555.33"/><polygon class="nf" points="975.04 555.77 967.79 576.34 982.29 576.34 975.04 555.77"/><polygon class="ng" points="965.04 543.9 957.82 564.39 972.27 564.39 965.04 543.9"/><polygon class="nh" points="957.1 568.02 949.81 588.68 964.39 588.68 957.1 568.02"/><polygon class="ni" points="948.06 554.55 940.58 575.77 955.55 575.77 948.06 554.55"/><polygon class="nj" points="938.8 543.02 931.3 564.29 946.3 564.29 938.8 543.02"/><polygon class="nk" points="929.56 557.3 922.04 578.62 937.08 578.62 929.56 557.3"/><polygon class="nl" points="918.97 549.86 911.43 571.22 926.5 571.22 918.97 549.86"/><polygon class="nm" points="912.88 564 905.39 585.25 920.38 585.25 912.88 564"/><polygon class="nn" points="905.5 565.75 898.09 586.78 912.92 586.78 905.5 565.75"/><polygon class="no" points="898.64 571.35 891.3 592.16 905.98 592.16 898.64 571.35"/><polygon class="bz" points="886.05 565.57 878.79 586.17 893.32 586.17 886.05 565.57"/><polygon class="np" points="880.33 581.6 873.23 601.73 887.43 601.73 880.33 581.6"/><polygon class="nq" points="870.24 559.15 863.09 579.42 877.39 579.42 870.24 559.15"/><polygon class="nr" points="862.06 568.72 854.86 589.13 869.25 589.13 862.06 568.72"/><polygon class="ns" points="853.49 571.08 846.32 591.43 860.67 591.43 853.49 571.08"/><polygon class="nt" points="845.12 575.7 837.98 595.95 852.26 595.95 845.12 575.7"/><polygon class="nu" points="835.87 569.7 828.76 589.86 842.97 589.86 835.87 569.7"/><polygon class="nv" points="830.05 585.47 822.98 605.53 837.13 605.53 830.05 585.47"/><polygon class="nw" points="820.12 578.96 813.1 598.88 827.15 598.88 820.12 578.96"/><polygon class="nx" points="813.88 589.87 806.94 609.56 820.83 609.56 813.88 589.87"/><polygon class="ny" points="803.88 581.67 797.01 601.16 810.75 601.16 803.88 581.67"/><polygon class="nz" points="797.98 592.88 791.18 612.15 804.77 612.15 797.98 592.88"/><polygon class="oa" points="792.47 596.67 785.77 615.65 799.16 615.65 792.47 596.67"/><polygon class="ob" points="785.65 597.26 779.11 615.81 792.19 615.81 785.65 597.26"/><polygon class="oc" points="775.68 593.39 769.28 611.53 782.08 611.53 775.68 593.39"/><polygon class="od" points="774.47 600.52 768.21 618.27 780.73 618.27 774.47 600.52"/><polygon class="oe" points="775.29 597.61 769.12 615.1 781.46 615.1 775.29 597.61"/><polygon class="of" points="720.56 608.41 713.68 627.91 727.44 627.91 720.56 608.41"/><polygon class="og" points="710.62 608.66 703.65 628.42 717.58 628.42 710.62 608.66"/><polygon class="oh" points="708.6 623.24 701.62 643.04 715.59 643.04 708.6 623.24"/><polygon class="gt" points="697.07 618.77 690.08 638.59 704.06 638.59 697.07 618.77"/><polygon class="gt" points="686.83 612.05 679.84 631.88 693.82 631.88 686.83 612.05"/><polygon class="gt" points="681.24 627.72 674.25 647.55 688.23 647.55 681.24 627.72"/><polygon class="gt" points="671.83 617.74 664.84 637.56 678.83 637.56 671.83 617.74"/><polygon class="oi" points="663.4 614.12 656.41 633.94 670.39 633.94 663.4 614.12"/><polygon class="oj" points="655.14 618.41 648.15 638.23 662.13 638.23 655.14 618.41"/><polygon class="ok" points="646.86 621.25 639.88 641.05 653.85 641.05 646.86 621.25"/><polygon class="ol" points="639.42 630.44 632.44 650.23 646.4 650.23 639.42 630.44"/><polygon class="om" points="631.47 629.55 624.49 649.34 638.45 649.34 631.47 629.55"/><polygon class="on" points="621.7 621.69 614.73 641.46 628.67 641.46 621.7 621.69"/><polygon class="oo" points="612.7 616.04 605.73 635.8 619.67 635.8 612.7 616.04"/><polygon class="op" points="605.83 628.42 598.87 648.17 612.8 648.17 605.83 628.42"/><polygon class="oq" points="597.08 623.78 590.12 643.52 604.04 643.52 597.08 623.78"/><polygon class="or" points="589.79 635.37 582.83 655.1 596.75 655.1 589.79 635.37"/><polygon class="os" points="581.3 633.54 574.35 653.26 588.26 653.26 581.3 633.54"/><polygon class="ot" points="572.3 622.36 565.35 642.07 579.25 642.07 572.3 622.36"/><polygon class="ou" points="564.33 621.34 557.38 641.04 571.27 641.04 564.33 621.34"/><polygon class="ov" points="556 630.84 549.05 650.53 562.94 650.53 556 630.84"/><polygon class="ow" points="547.71 633.84 540.77 653.51 554.65 653.51 547.71 633.84"/><polygon class="ox" points="539.48 630.04 532.54 649.71 546.41 649.71 539.48 630.04"/><polygon class="oy" points="531.12 633.37 524.19 653.03 538.05 653.03 531.12 633.37"/><polygon class="oz" points="522.83 636.31 515.92 655.92 529.75 655.92 522.83 636.31"/><polygon class="pa" points="514.93 624.92 508.06 644.42 521.81 644.42 514.93 624.92"/><polygon class="pb" points="506.48 640.98 499.63 660.38 513.32 660.38 506.48 640.98"/><polygon class="pc" points="498.86 622.63 492.05 641.93 505.67 641.93 498.86 622.63"/><polygon class="pd" points="490.58 636.17 483.81 655.37 497.36 655.37 490.58 636.17"/><polygon class="pe" points="482.69 635.81 475.95 654.91 489.42 654.91 482.69 635.81"/><polygon class="pf" points="475.14 623.94 468.45 642.9 481.82 642.9 475.14 623.94"/><polygon class="pg" points="467.25 633.26 460.64 652 473.86 652 467.25 633.26"/><polygon class="ph" points="459.39 634.95 452.7 653.91 466.08 653.91 459.39 634.95"/><polygon class="pi" points="451.61 631.9 444.9 650.91 458.31 650.91 451.61 631.9"/><polygon class="pj" points="443.79 624.84 437.06 643.9 450.51 643.9 443.79 624.84"/><polygon class="pk" points="428.76 623.55 422.02 642.66 435.5 642.66 428.76 623.55"/><polygon class="pl" points="441.69 640.41 435 659.37 448.37 659.37 441.69 640.41"/><polygon class="av" points="433.05 645.27 426.45 663.97 439.64 663.97 433.05 645.27"/></g></symbol></defs><use width="1920.96" height="1080" xlink:href="#d"/></svg>