<svg xmlns="http://www.w3.org/2000/svg" width="512" height="512">
  <defs>
    <pattern id="_703" data-name="703" width="72" height="72" patternTransform="matrix(2.44 0 0 2.44 -392.38 -532.56)" patternUnits="userSpaceOnUse">
      <path fill="none" d="M0 0h72v72H0z"/>
      <path class="cls-3" d="M0 20.72A101.45 101.45 0 0 0 8 8.24M10.63 5.39A53.09 53.09 0 0 0 15 0M17.69 22.14a83.67 83.67 0 0 0 11-15.75M23.25 40.75C26 38 34.33 27.94 36.33 23.69M39 18.12C41.45 15.66 49 5.24 52 0M15.88 25.85A83.8 83.8 0 0 1 3.21 40.29M0 46.05a30.22 30.22 0 0 0 2.08-2.94M31.94 2.58A33.67 33.67 0 0 0 34.24 0M22.13 44.85C19.93 48.43 10.54 60 6.61 63.14M41.44 42.72c-1.57 3.34-6.67 7.83-9.72 11.63a32 32 0 0 1-2.19 2.51M55.42 23.64c-1.57 3.36-6.67 7.83-9.72 11.63-.84 1-1.6 1.91-2.19 2.5M49.89 51.46c.59-.59 1.34-1.46 2.18-2.5 3.06-3.81 8.15-8.3 9.72-11.64M58.39 17.25c.59-.59 1.34-1.46 2.18-2.5 3.06-3.8 8.15-8.3 9.72-11.63M67.31 26.32A58.17 58.17 0 0 0 72 20.47M72 45.81h0c-3.21 4.19-8 12.5-10.47 14.46M26.27 59.45C25.06 62 17.7 68.44 15.07 72M57.13 64c-.37.77-4.87 6.78-5.62 8h0M45.66 55.81C44 59.18 38 67.45 34.29 72M71.16 61c-1.63 2.25-6 7.55-9.14 11"/>
      <path class="cls-4" d="M23.88 0c-.51.59-1 1.17-1.54 1.75M19.9 4.37l.82-.87M20.72 3.5c.53-.56 1.08-1.15 1.62-1.75"/>
      <path class="cls-3" d="m60.27 1.86-.35.36M61.88.1l-1.61 1.76"/>
      <path class="cls-4" d="m1.93 29.34 1.08-1.44M0 31.72l.43-.51M.43 31.21c.53-.64 1-1.27 1.5-1.87M19.44 33.1 21 31.26M17.81 35l1.63-1.87M25.52 25.61l-1.46 1.86M21 31.26l1.55-1.89M22.53 29.37l1.53-1.9M27.06 23.6l.54-.72M27.06 23.6c-.43.57-.95 1.26-1.54 2M16.63 36.26c.34-.36.74-.79 1.18-1.29M42.14 4.36l-1.52 1.91M37.42 10c.54-.59 1.09-1.19 1.63-1.81M40.62 6.27c-.52.63-1 1.25-1.57 1.87M37.42 10l-.65.69M43.62 2.4l.66-.9M42.14 4.36c.52-.67 1-1.33 1.48-2M70.75 33c.43-.49.84-1 1.25-1.47M67.49 36.58l-.67.71M69.14 34.79a94.9 94.9 0 0 0 1.61-1.82M67.49 36.58c.54-.57 1.09-1.17 1.65-1.79M15.35 11.88c-.49.64-1 1.3-1.58 2M12.25 15.66c.52-.6 1-1.2 1.52-1.8M16.32 10.59c-.29.41-.62.84-1 1.29M10.64 17.48c-.56.62-1.11 1.22-1.65 1.79M12.25 15.66a94.9 94.9 0 0 1-1.61 1.82M9 19.27l-.67.7M50.53 16.18l1.45-2M46.09 22.06c.48-.61 1-1.26 1.5-1.94M53.42 12.2l1.42-2M50.53 16.18q-.72 1-1.47 2M52 14.2l1.44-2M54.84 10.24l.43-.6M49.06 18.16l-1.47 2M46.09 22.06c-.55.7-1.07 1.34-1.53 1.9M44.56 24c-.45.53-.85 1-1.18 1.33M49.76 40.72l.64-.67M50.4 40.05l1.62-1.75M55.21 34.61c-.5.61-1 1.22-1.55 1.83M55.21 34.61c.53-.65 1-1.29 1.52-1.91M53.66 36.44a98.9 98.9 0 0 1-1.64 1.86M57.76 31.34l-1 1.36M52 62.29l-1.12 1.18M58.32 54.85c-.48.64-1 1.31-1.57 2M58.32 54.85l.57-.76M53.64 60.49 52 62.29M55.25 58.65l-1.61 1.84M56.75 56.85l-1.5 1.8M5.57 51.85l.85-.9M8 49.23c.55-.61 1.09-1.24 1.63-1.86M6.42 51c.52-.55 1-1.13 1.59-1.72M9.64 47.37l1.57-1.87M13.57 42.46l-.81 1.09M11.21 45.5c.55-.67 1.08-1.33 1.55-2M27 68.24l.94-1.26M24 72l1.57-1.87M25.55 70.08l1.47-1.84M24.21 51.62l-.86.94M25.79 49.82c.5-.58 1-1.21 1.57-1.86M27.36 48l1.55-1.89M33.46 40.31c.42-.55.78-1 1.06-1.42M25.79 49.82a60.9 60.9 0 0 1-1.58 1.8M28.91 46.07l1.56-1.94M30.47 44.13l1.49-1.89M32 42.24l1.5-1.93M0 .1l13.77 13.76M25.52 25.61 13.77 13.86M56.75 56.85 25.52 25.61M56.75 56.85 71.9 72M68.59 72 55.25 58.65M12.25 15.66l11.81 11.81M24.06 27.47l31.19 31.18M0 3.41l12.25 12.25M65.15 72 53.64 60.49M0 6.85l10.64 10.63M22.53 29.37 10.64 17.48M22.53 29.37l10.93 10.94M53.64 60.49 33.46 40.31M20.98 31.26 8.99 19.27M20.98 31.26l10.98 10.98M61.72 72 52 62.29M31.96 42.24 52 62.29M0 10.28l8.99 8.99M19.44 33.1l11.03 11.03M19.44 33.1 0 13.66M58.34 72 30.47 44.13M17.81 34.97l11.1 11.1M54.84 72 28.91 46.07M0 17.16l17.81 17.81M0 20.6l27.36 27.36M51.4 72 27.36 47.96M47.97 72 25.79 49.82M0 24.03l25.79 25.79M0 27.41l1.93 1.93M24.21 51.62 1.93 29.34M44.59 72 24.21 51.62M.43 31.21l12.33 12.34M0 30.78l.43.43M41.22 72 12.76 43.55M37.72 72 11.21 45.5M0 34.28 11.21 45.5M9.64 47.37 34.28 72M0 37.72l9.64 9.65M8.01 49.23l19.01 19.01M30.78 72l-3.76-3.76M0 41.22l8.01 8.01M6.42 50.95l19.13 19.13M0 44.53l6.42 6.42M27.47 72l-1.92-1.92M0 47.97l23.98 23.98M0 51.47 20.53 72M0 54.85 17.15 72M0 58.28 13.72 72M0 61.72 10.28 72M0 65.16 6.84 72M0 68.6 3.4 72M72 3.47 68.53 0M72 6.72 65.28 0M72 10.22 61.88.1M58.41 0l1.86 1.86M72 13.59 60.27 1.86M72 17.09 54.91 0M72 20.53 51.47 0M48.03 0 72 23.97M44.59 0l10.25 10.24M54.84 10.24 72 27.4M53.42 12.2 72 30.78M43.62 2.4l9.8 9.8M41.22 0l2.4 2.4M42.14 4.36 37.78 0M51.98 14.2l-9.84-9.84M51.98 14.2l18.77 18.77M72 34.22l-1.25-1.25M50.53 16.18l-9.91-9.91M72 37.65l-2.86-2.86M34.34 0l6.28 6.27M50.53 16.18l18.61 18.61M30.91 0l8.14 8.14M49.06 18.16 39.05 8.14M72 41.09l-4.51-4.51M67.49 36.58 49.06 18.16M37.42 9.95 27.47 0M72 44.53 47.59 20.12M37.42 9.95l10.17 10.17M46.09 22.06 24.03 0M56.73 32.7 46.09 22.06M72 47.97 56.73 32.7M22.34 1.75l22.22 22.21M20.59 0l1.75 1.75M72 51.4 55.21 34.61M55.21 34.61 44.56 23.96M20.72 3.5l32.94 32.94M17.22 0l3.5 3.5M72 54.78 53.66 36.44M72 58.28 52.02 38.3M13.72 0l38.3 38.3M72 61.65l-21.6-21.6M10.34 0 50.4 40.05M6.91 0 72 65.09M3.47 0l11.88 11.88M58.32 54.85 72 68.53M27.06 23.6l31.26 31.25M27.06 23.6 15.35 11.88"/>
    </pattern>
    <filter id="luminosity-invert" filterUnits="userSpaceOnUse" color-interpolation-filters="sRGB">
      <feColorMatrix values="-1 0 0 0 1 0 -1 0 0 1 0 0 -1 0 1 0 0 0 1 0"/>
    </filter>
    <style>
      .cls-3,.cls-4{fill:none;stroke:#000;stroke-linecap:square}.cls-3{stroke-width:.5px}.cls-4{stroke-width:.3px}
    </style>
    <mask id="mask" x="-.35" y="1.96" width="493.85" height="346.75" maskUnits="userSpaceOnUse">
      <path id="Fill" d="M145.59 163.29a92.68 92.68 0 0 0-86.65 60 51 51 0 1 0 22.45 99.52A92.5 92.5 0 0 0 203.93 328a67.78 67.78 0 0 0 99.59-8 45.46 45.46 0 0 0 68.17-15.11 24.85 24.85 0 0 0 35.66-8.45c4.47.14 9 .23 13.76.23 40 0 72.39-5.54 72.39-12.36s-32.42-12.37-72.39-12.37q-7 0-13.62.22a24.8 24.8 0 0 0-35.6-8.8 45.48 45.48 0 0 0-63-19.11 67.73 67.73 0 0 0-80.77-30.35 92.61 92.61 0 0 0-82.49-50.56" fill="url(#_703)" filter="url(#luminosity-invert)"/>
    </mask>
  </defs>
  <g id="Cloud_12" data-name="Cloud 12">
    <g id="Cloud_12-2" data-name="Cloud 12">
      <g mask="url(#mask)">
        <path id="Fill-2" data-name="Fill" d="M145.59 163.29a92.68 92.68 0 0 0-86.65 60 51 51 0 1 0 22.45 99.52A92.5 92.5 0 0 0 203.93 328a67.78 67.78 0 0 0 99.59-8 45.46 45.46 0 0 0 68.17-15.11 24.85 24.85 0 0 0 35.66-8.45c4.47.14 9 .23 13.76.23 40 0 72.39-5.54 72.39-12.36s-32.42-12.37-72.39-12.37q-7 0-13.62.22a24.8 24.8 0 0 0-35.6-8.8 45.48 45.48 0 0 0-63-19.11 67.73 67.73 0 0 0-80.77-30.35 92.61 92.61 0 0 0-82.49-50.56" fill="#ded1b8"/>
      </g>
      <path id="Cloud_12-3" data-name="Cloud 12" d="M145.59 163.29a92.68 92.68 0 0 0-86.65 60 51 51 0 1 0 22.45 99.52A92.5 92.5 0 0 0 203.93 328a67.78 67.78 0 0 0 99.59-8 45.46 45.46 0 0 0 68.17-15.11 24.85 24.85 0 0 0 35.66-8.45c4.47.14 9 .23 13.76.23 40 0 72.39-5.54 72.39-12.36s-32.42-12.37-72.39-12.37q-7 0-13.62.22a24.8 24.8 0 0 0-35.6-8.8 45.48 45.48 0 0 0-63-19.11 67.73 67.73 0 0 0-80.77-30.35 92.61 92.61 0 0 0-82.49-50.56" stroke="#ded1b8" stroke-miterlimit="10" stroke-width="11.78" fill="none"/>
    </g>
  </g>
</svg>
