<svg xmlns="http://www.w3.org/2000/svg" width="512" height="512">
  <defs>
    <pattern id="a" data-name="725" width="80.56" height="80.5" patternTransform="matrix(2.44 0 0 2.44 -561.36 -508.6)" patternUnits="userSpaceOnUse">
      <path fill="none" d="M0 0h80.56v80.5H0z"/>
      <path d="m8.95 2.32 2.02 2.03m0-2.03L8.95 4.35m6.75 4.66 2.02 2.02m0-2.02-2.02 2.02M2.38 9.01l2.03 2.02m0-2.02-2.03 2.02m19.88-8.71 2.02 2.03m0-2.03-2.02 2.03m6.75 4.66 2.02 2.02m0-2.02-2.02 2.02m6.56-8.71 2.03 2.03m0-2.03-2.03 2.03m6.75 4.66 2.03 2.02m0-2.02-2.03 2.02m6.56-8.71 2.03 2.03m0-2.03-2.03 2.03m6.77 4.66 2.02 2.02m0-2.02-2.02 2.02m6.56-8.71 2.03 2.03m0-2.03-2.03 2.03m6.75 4.66 2.03 2.02m0-2.02-2.03 2.02m6.56-8.71 2.03 2.03m0-2.03-2.03 2.03M8.95 28.95l2.02 2.02m0-2.02-2.02 2.02m6.75 4.66 2.02 2.03m0-2.03-2.02 2.03M2.38 35.63l2.03 2.03m0-2.03-2.03 2.03m6.57-22.03 2.02 2.03m0-2.03-2.02 2.03m6.75 4.66 2.02 2.03m0-2.03-2.02 2.03M2.38 22.32l2.03 2.03m0-2.03-2.03 2.03m19.88 4.6 2.02 2.02m0-2.02-2.02 2.02m6.75 4.66 2.02 2.03m0-2.03-2.02 2.03m-6.75-22.03 2.02 2.03m0-2.03-2.02 2.03m6.75 4.66 2.02 2.03m0-2.03-2.02 2.03m6.56 4.6 2.03 2.02m0-2.02-2.03 2.02m6.75 4.66 2.03 2.03m0-2.03-2.03 2.03m-6.75-22.03 2.03 2.03m0-2.03-2.03 2.03m6.75 4.66 2.03 2.03m0-2.03-2.03 2.03m6.56 4.6 2.03 2.02m0-2.02-2.03 2.02m0-15.34 2.03 2.03m0-2.03-2.03 2.03m6.77 17.97 2.02 2.03m0-2.03-2.02 2.03m0-15.34 2.02 2.03m0-2.03-2.02 2.03m6.56 4.6 2.03 2.02m0-2.02-2.03 2.02m6.75 4.66 2.03 2.03m0-2.03-2.03 2.03m-6.75-22.03 2.03 2.03m0-2.03-2.03 2.03m6.75 4.66 2.03 2.03m0-2.03-2.03 2.03m6.56 4.6 2.03 2.02m0-2.02-2.03 2.02m0-15.34 2.03 2.03m0-2.03-2.03 2.03M8.95 55.51l2.02 2.02m0-2.02-2.02 2.02m6.75 4.67 2.02 2.02m0-2.02-2.02 2.02M2.38 62.2l2.03 2.02m0-2.02-2.03 2.02M8.95 42.2l2.02 2.02m0-2.02-2.02 2.02m6.75 4.66 2.02 2.03m0-2.03-2.02 2.03M2.38 48.88l2.03 2.03m0-2.03-2.03 2.03m19.88 4.6 2.02 2.02m0-2.02-2.02 2.02m6.75 4.67 2.02 2.02m0-2.02-2.02 2.02M22.26 42.2l2.02 2.02m0-2.02-2.02 2.02m6.75 4.66 2.02 2.03m0-2.03-2.02 2.03m6.56 4.6 2.03 2.02m0-2.02-2.03 2.02m6.75 4.67 2.03 2.02m0-2.02-2.03 2.02M35.57 42.2l2.03 2.02m0-2.02-2.03 2.02m6.75 4.66 2.03 2.03m0-2.03-2.03 2.03m6.56 4.6 2.03 2.02m0-2.02-2.03 2.02m0-15.33 2.03 2.02m0-2.02-2.03 2.02m6.77 17.98 2.02 2.02m0-2.02-2.02 2.02m0-15.34 2.02 2.03m0-2.03-2.02 2.03m6.56 4.6 2.03 2.02m0-2.02-2.03 2.02m6.75 4.67 2.03 2.02m0-2.02-2.03 2.02M62.21 42.2l2.03 2.02m0-2.02-2.03 2.02m6.75 4.66 2.03 2.03m0-2.03-2.03 2.03m6.56 4.6 2.03 2.02m0-2.02-2.03 2.02m0-15.33 2.03 2.02m0-2.02-2.03 2.02M8.95 68.81l2.02 2.02m0-2.02-2.02 2.02m6.75 4.67 2.02 2.02m0-2.02-2.02 2.02M2.38 75.5l2.03 2.02m0-2.02-2.03 2.02m19.88-8.71 2.02 2.02m0-2.02-2.02 2.02m6.75 4.67 2.02 2.02m0-2.02-2.02 2.02m6.56-8.71 2.03 2.02m0-2.02-2.03 2.02m6.75 4.67 2.03 2.02m0-2.02-2.03 2.02m6.56-8.71 2.03 2.02m0-2.02-2.03 2.02m6.77 4.67 2.02 2.02m0-2.02-2.02 2.02m6.56-8.71 2.03 2.02m0-2.02-2.03 2.02m6.75 4.67 2.03 2.02m0-2.02-2.03 2.02m6.56-8.71 2.03 2.02m0-2.02-2.03 2.02" stroke-width=".3" fill="none" stroke="#000"/>
      <path d="M7.52 10.02h0m-.06 3.31h0m-4.63.07h0m8.69-.44h0m2.69 1.87h0m3.37.63h0m6.5-8.5h0m-3 5.75h0m-6.5 5.37h0m2.13-6h0m.5-5.75h0m3.5 2.38h0m3.62 1.37h0m-4-6.37h0M12.08 8.9h0M5.33 7.08h0m1.38-4.62h0M13.27.77h0m3.31 1.88h0m-13.81.68h0m-1.5 4.19h0m12.81-2.5h0m-5.25 1.5h0M7.52 27.73h0m-3.81.23h0m3.75 3.08h0m-4.63.06h0m10.38-1.27h0m1 2.71h0m-4.13 1.29h0m-5 .25h0m2.25 2.75h0m3.88 1.38h0m6.62-5.13h0m-4.91 2.88h0m3.79-6.17h0m-.25-3.33h0m4.25-.04h0m-.38-5h0m-.37-4.38h0m-7.88 9.56h0m-6.75-1.81h0m-1.25-7.62h0m2.63 3h0m4 .29h0m5.87-.11h0m-13.81.69h0m-1.5 4.19h0m12.81-2.5h0m-5.25 1.5h0m25.44-14.21h0m-.07 3.31h0m-4.62.07h0m-3.5-.19h0m1 3.37h0m-3.66 3.21h0m-.21 3.42h0m1.37 3.37h0m1.75-5h0m11.94-8.62h0m2.68 1.87h0m4.63 0h0m-4.25 3.25h0m2.12-6h0m.5-5.75h0m2.51 3.75h0m.29-3.12h0m.33-3.25h0M38.83 8.9h0m-6.75-1.82h0m1.37-4.62h0M40.02.77h0m3.31 1.88h0m7.25 76.64h0M29.52 3.33h0m-3.31 1h0M25.33.71h0m2.69 6.81h0m12.81-2.5h0m-5.25 1.5h0m-1.31 21.21h0m-3.82.23h0m-3.37.75h0m-7.12 1.12h0m14.24 1.21h0m-7.99 1.04h0m-.79 3.38h0m-5 .83h0m2.5 1.5h0m33.16-4.16h0m-3.5 2.33h0m8.34-.17h0m15.33.34h0m3.17 2.66h0m-57.46-5.58h0m7.62-2.11h0m10.37-1.27h0m1 2.71h0m-4.12 1.29h0m-5 .25h0m2.25 2.75h0m3.87 1.38h0m7.75-5.13h0m-5.78 2.88h0m3.53-6.17h0m-.25-3.33h0m3.63 3h0m2.38-2.88h0m2.75-2.5h0m.5 3.5h0m3.37-.87h0m-.08 3.42h0m3.67-1h0m-6.34 2.08h0m-3.37 2.62h0m4.62-12.62h0m-7.5-.75h0m-.13-3.42h0m-7.87 9.56h0m-5.91-1.64h0m14.16 11.62h0M30.83 17.17h0m2.62 3h0m4 .29h0m5.88-.11h0m-14.08-.22h0m-2.33 5h0m13.91-2.4h0m-4.41 1.23h0M79.99 11.4h0m0 17.7h0m-.28-11.14h0m-7.56-8.5h0m.06 3.31h0m4.62.06h0m-8.68-.43h0m-2.69 1.87h0m-5.38-1.31h0m4-4.63h0m-1.12 3.19h0m-.5-5.75h0m-3.5 2.38h0m.37-5h0m-3.75-1.82h0m-2.62 2h0m3.12.88h0m-2.16 2.25h0m-3.09 1.37h0m-.87 3.25h0m15.87 7.63h0m-17.41-5.25h0m4.5 1h0m.66-4.5h0m3.38 4h0m-1 3.37h0m-3.75 1.13h0m-1.88 2.87h0m-3.25 3.25h0m20.5-16.25h0m6.75-1.81h0M72.96 1.9h0M66.33.71h0m2.38 2.25h0m7.62 6.5h0m2.07-2.5h0m-12.82-2.5h0m-43.5 74h0m-12.5 1.33h0m-8.33-.33h0m16.17-.33h0m12.5-22.17h0m13.66 21.67h0m-14.33.66h0m13.17-7.83h0m14.83 7.67h0m-10.67.66h0m29.84-.33h0m-6.17.17h0m-8-.17h0m8.58-73.5h0m1.32 21.21h0m3.81.23h0m-3.75 3.08h0m5.87 2.73h0m-11.62-3.94h0m-1 2.71h0m4.12 1.29h0m5 .25h0m-2.25 2.75h0m-5.12 2.44h0m-6.5-6.19h0m4.37 2.71h0m3-19.02h0m-4.87 9.69h0m-1.46-3.11h0m-2.79 3.06h0m.37-5h0m.38-4.37h0m7.87 9.56h0m6.75-1.81h0m-4.75 5.1h0m3.38-9.73h0m-4 .3h0m-5.88-.11h0m13.82.69h0m1.5 4.19h0m-12.82-2.5h0m5.88-6.09h0M7.52 70.48h0m-.06-3.31h0m-4.63-.06h0m8.69.43h0m2.69-1.87h0m3.87-8.96h0m5.34 7.75h0m.66 9.08h0m-3-5.75h0m-7.83-5.16h0m4.33 4.16h0m-.5 5h0m3.63 0h0m8.37-28.66h0m-8.83 32.5h0M9.92 72.29h0m-4.59 1.13h0m.92 5.37h0m8.33-9h0m-11.16.34h0m-2.15 2.85h0m12.48.98h0m-1.17 3.17h0M7.52 52.77h0m-3.81-.23h0m3.75-3.08h0m10.79-9.33h0m-5.04 10.54h0m1-2.71h0m-4.13-1.29h0m-5-.25h0m2.25-2.75h0m5.92-2.38h0m4.58 6.13h0m-4.91-2.88h0m3.5-.58h0m.04 10.08h0m4.25.05h0m-.38 5h0m-.37 4.37h0m-7.88-9.56h0m-6.75 1.81h0M1.58 44.46h0m5.13 15.88h0m4-.3h0m5.87.11h0m-13.81-.69h0m-1.5-4.19h0m12.81 2.5h0m-4.83 6.19h0m25.02 6.52h0m-.07-3.31h0m-4.62-.06h0m-3.5.18h0m1-3.37h0m-3.66-3.21h0m-.17-10.42h0m1.33 3.63h0m1.75 5h0m11.94 8.62h0m2.68-1.87h0m4.63 0h0m-4.25-3.25h0m2.12 6h0m.5 5.75h0m2.51-3.75h0m.29 3.12h0m1.17 2.42h0m-9.09-4.35h0m-6.75 1.81h0m1.37 4.62h0m4.63.42h0m-8.33-8.5h0m-3.54 6.21h0m1.81-3.19h0m12.81 2.5h0m-4.25-.52h0m-2.31-22.19h0m-3.82-.23h0m-3.37-.75h0m-7.12-1.12h0m14.24-1.21h0m-7.99-1.04h0m-.79-3.38h0m-5-.83h0m5.33-4.42h0m30.33 7.09h0m-3.5-2.34h0m8.34.17h0m14.33-5.25h0m-3.83 1.17h0m-16-1.5h0m-5 0h0m-16.84 1h0m-3.83-.5h0m-22.17.33h0m-3.16 2h0m-3.34-3h0m78.34 2.75h0m-57.46 5.58h0m7.62 2.11h0m10.37 1.27h0m1-2.71h0m-4.12-1.29h0m-5-.25h0m2.25-2.75h0m5.67-2.38h0m5.95 6.13h0m-5.78-2.88h0m3.5-.91h0m-.22 10.41h0m3.63-3h0m2.38 2.88h0m2.75 2.5h0m.5-3.5h0m3.37.87h0m.92-11.5h0m2.67 9.09h0m-6.34-2.09h0m-3.37-2.62h0m4.62 12.62h0m-7.5.75h0m-.13 3.42h0m-7.87-9.56h0m-5.91 1.64h0m14.16-11.62h0M35.75 63.79h0m-2.3-3.45h0m4-.3h0m5.88.11h0m-14.08.23h0m-2.33-5h0m13.91 2.39h0m-4.08-6.64h0m43.24 17.98h0m0-17.71h0m-.28 11.14h0m-7.56 8.5h0m.06-3.31h0m4.62-.06h0m-8.68.44h0m-2.69-1.88h0m-5.38 1.31h0m4 4.63h0M8.92 76.29h0m54.33-1.33h0m-4.29-2.6h0m.96 4.1h0m-6.96.71h0m4.12-6.88h0m-3.16 3.75h0m-3.09-1.37h0m-6.08-32.88h0m21.08 22h0m-17.41 5.25h0m4.5-1h0m.66 4.5h0m3.38-4h0m4.96-27.25h0m-9.71 22.75h0m-1.88-2.87h0m-5.25-2.54h0m22.5 15.54h0m6.75 1.81h0m4.59 2.31h0m-5.67 1h0m2.67-13h0m-7.5-20.33h0m9.98 29.58h0m-12.48 3.92h0m4.16-3.83h0m2.07-20.29h0m3.81-.23h0m-3.75-3.09h0m5.87-2.73h0m-11.62 3.94h0m-1-2.71h0m4.12-1.29h0m5-.25h0m-2.25-2.75h0m-5.12-2.44h0m-6.5 6.19h0m4.37-2.71h0m3 19.02h0m-4.87-9.68h0m-5.96 2.35h0m1.71-2.31h0m.37 5h0m.38 4.37h0m7.87-9.56h0m6.75 1.81h0m-4.08.69h0m2.71 3.94h0m-4-.29h0m-5.88.1h0m13.82-.69h0m1.5-4.18h0m-12.82 2.5h0m-55.16-8.55h0" stroke-linecap="round" stroke-width=".6" fill="none" stroke="#000"/>
    </pattern>
    <filter id="b" x="0" y="1.01" width="503.5" height="374.93" filterUnits="userSpaceOnUse" color-interpolation-filters="sRGB">
      <feFlood flood-color="#fff" result="bg"/>
      <feBlend in="SourceGraphic" in2="bg"/>
    </filter>
    <mask id="c" x="0" y="1.01" width="503.5" height="374.93" maskUnits="userSpaceOnUse">
      <path data-name="Cloud 7" d="M268.34 156.06c-78.19 0-104.66 52.33-108.77 75.26a49.35 49.35 0 0 0-6.88-.41c-14.07 0-45.86 4.5-59 43.32a55.75 55.75 0 0 0-8.71-.71c-26.63 0-35 22-31.27 34.22-.44 0-.9-.05-1.34-.05-21.28 0-41.22 40.16.5 46.49 14.37 18.23 92.1 21.76 207.55 21.76s143.09-1.18 156-11.76a59.65 59.65 0 0 0 12.21 1.24c9.48 0 22-2.36 27.77-13.59a39.77 39.77 0 0 0 16.67 3.8c16.61 0 30.36-11.6 30.36-30.26 0-19.07-15.09-30.78-27.38-30.78a15.23 15.23 0 0 0-9.66 3.15s-6.32-21.86-33.1-21.86a56.54 56.54 0 0 0-8.64.7c-10.34-37.74-39.32-40-46.17-40-.93 0-1.46.05-1.46.05s-22.34-80.55-108.75-80.55" fill="url(#a)" filter="url(#b)"/>
    </mask>
  </defs>
  <g data-name="Cloud 7">
    <g mask="url(#c)">
      <path data-name="Cloud 7" d="M268.34 156.06c-78.19 0-104.66 52.33-108.77 75.26a49.35 49.35 0 0 0-6.88-.41c-14.07 0-45.86 4.5-59 43.32a55.75 55.75 0 0 0-8.71-.71c-26.63 0-35 22-31.27 34.22-.44 0-.9-.05-1.34-.05-21.28 0-41.22 40.16.5 46.49 14.37 18.23 92.1 21.76 207.55 21.76s143.09-1.18 156-11.76a59.65 59.65 0 0 0 12.21 1.24c9.48 0 22-2.36 27.77-13.59a39.77 39.77 0 0 0 16.67 3.8c16.61 0 30.36-11.6 30.36-30.26 0-19.07-15.09-30.78-27.38-30.78a15.23 15.23 0 0 0-9.66 3.15s-6.32-21.86-33.1-21.86a56.54 56.54 0 0 0-8.64.7c-10.34-37.74-39.32-40-46.17-40-.93 0-1.46.05-1.46.05s-22.34-80.55-108.75-80.55" fill="#635c4f"/>
    </g>
    <path data-name="Cloud 7" d="M268.34 156.06c-78.19 0-104.66 52.33-108.77 75.26a49.35 49.35 0 0 0-6.88-.41c-14.07 0-45.86 4.5-59 43.32a55.75 55.75 0 0 0-8.71-.71c-26.63 0-35 22-31.27 34.22-.44 0-.9-.05-1.34-.05-21.28 0-41.22 40.16.5 46.49 14.37 18.23 92.1 21.76 207.55 21.76s143.09-1.18 156-11.76a59.65 59.65 0 0 0 12.21 1.24c9.48 0 22-2.36 27.77-13.59a39.77 39.77 0 0 0 16.67 3.8c16.61 0 30.36-11.6 30.36-30.26 0-19.07-15.09-30.78-27.38-30.78a15.23 15.23 0 0 0-9.66 3.15s-6.32-21.86-33.1-21.86a56.54 56.54 0 0 0-8.64.7c-10.34-37.74-39.32-40-46.17-40-.93 0-1.46.05-1.46.05s-22.34-80.55-108.75-80.55" stroke="#dcd6cc" stroke-miterlimit="10" stroke-width="11.98" fill="none"/>
  </g>
</svg>
