<svg xmlns="http://www.w3.org/2000/svg" width="512" height="512">
  <defs>
    <pattern id="_609" data-name="609" width="85.04" height="85.04" patternTransform="matrix(1.56 0 0 1.56 -112.71 -299.15)" patternUnits="userSpaceOnUse">
      <path fill="none" d="M0 0h85.04v85.04H0z"/>
      <path class="cls-3" d="M1.79 2.62h0M4.96 2.28h0M8.35 1.72h0M11.35 1.22h0M1.62 4.83h0M4.44 4.7h0M7.62 4.26h0M10.79 3.47h0M1.62 6.89h0M4.25 6.64h0M6.87 6.26h0M9.56 5.76h0M12.37 5.08h0M15.19 4.14h0M17.56 2.83h0M1.37 9.01h0M3.62 8.76h0M5.83 8.43h0M8.08 7.93h0M10.33 7.51h0M12.5 6.85h0M14.58 6.18h0M16.75 5.43h0M18.91 4.51h0M20.83 3.68h0M22.75 2.6h0M26.91 2.28h0M25.23 3.35h0M23.48 4.22h0M21.73 5.22h0M19.91 5.97h0M18.04 6.85h0M16.16 7.53h0M14.29 8.28h0M12.41 8.85h0M10.6 9.35h0M8.6 9.91h0M6.66 10.16h0M4.66 10.53h0M2.66 10.66h0M.73 10.72h0M1.98 11.97h0M.69 13.33h0M7.69 16.14h0M5.62 16.2h0M3.5 16.26h0M1.25 16.08h0M3.62 19.26h0M.75 19.14h0M6.5 19.33h0M9.31 19.2h0M11.81 18.95h0M14.19 18.58h0M19.56 20.51h0M21.56 19.89h0M17.19 21.01h0M14.87 21.45h0M12.25 21.76h0M9.75 22.01h0M4.37 22.14h0M6.94 22.14h0M1.69 22.08h0M2.06 25.58h0M7.87 28.39h0M1.69 28.58h0M4.94 28.51h0M17.56 27.45h0M14.37 27.89h0M11.19 28.2h0M20.44 26.95h0M3.25 32.08h0M5.44 31.95h0M7.44 31.83h0M1.06 32.08h0M9.25 31.64h0M11.25 31.39h0M13.25 31.14h0M15.44 30.83h0M17.5 30.39h0M19.5 30.1h0M21.44 29.58h0M23.5 29.01h0M25.62 28.51h0M27.56 27.89h0M29.44 27.33h0M34.1 28.22h0M37.48 28.47h0M40.48 28.53h0M43.16 28.41h0M37.16 31.41h0M33.48 31.16h0M29.6 30.53h0M40.41 31.41h0M43.79 31.16h0M46.23 30.78h0M48.73 30.47h0M51.1 30.16h0M23.19 26.45h0M26 25.76h0M28.5 25.01h0M30.87 24.2h0M5 25.64h0M8.31 25.51h0M11.31 25.33h0M14.31 24.95h0M16.87 24.64h0M19.37 24.2h0M21.69 23.7h0M23.87 23.14h0M26.12 22.45h0M28.37 21.64h0M31.37 26.7h0M33.12 26.08h0M35.19 25.26h0M33.12 23.33h0M37.23 24.47h0M39 23.45h0M40.69 22.39h0M38.98 25.28h0M40.85 26.1h0M42.73 26.78h0M44.66 27.35h0M46.6 28.03h0M48.6 28.41h0M35.56 22.39h0M3.66 12.85h0M5.41 13.78h0M7.23 14.6h0M9.1 15.28h0M10.98 15.91h0M12.98 16.53h0M14.91 17.03h0M16.85 17.47h0M18.79 17.97h0M20.66 18.47h0M22.6 18.85h0M24.48 19.28h0M26.48 19.66h0M30.54 20.45h0M32.71 20.7h0M34.87 20.87h0M37.12 20.87h0M39.79 20.95h0M28.54 20.12h0M23.44 17.39h0M27.75 18.2h0M31.5 18.58h0M35.44 18.83h0M39.19 18.95h0M42.19 21.1h0M44.48 21.1h0M46.35 21.03h0M84.16 32.03h0M83.1 33.16h0M83.41 35.22h0M83.35 37.72h0M82.73 41.53h0M83.85 45.22h0M80.85 45.16h0M77.91 44.97h0M74.91 44.6h0M71.79 44.28h0M68.98 43.78h0M66.04 43.22h0M63.04 42.28h0M82.25 49.2h0M84 53.08h0M81.87 52.95h0M79.69 52.83h0M77.81 52.7h0M75.66 52.53h0M73.66 52.22h0M71.66 51.91h0M69.46 51.53h0M60.54 49.28h0M62.62 49.95h0M64.71 50.62h0M67.29 51.12h0M58.48 48.41h0M56.66 47.6h0M54.91 46.66h0M53.16 45.66h0M56.35 42.66h0M54.48 43.35h0M52.48 44.03h0M50.6 44.72h0M48.6 45.28h0M46.73 45.72h0M44.79 46.16h0M42.85 46.66h0M40.98 47.1h0M39.04 47.6h0M37.04 48.03h0M35.1 48.35h0M33.29 48.85h0M31.23 49.22h0M29.29 49.53h0M27.35 49.85h0M25.41 50.16h0M23.41 50.47h0M21.41 50.72h0M19.48 51.03h0M17.54 51.28h0M15.6 51.47h0M13.6 51.78h0M11.73 52.03h0M9.44 52.33h0M7.31 52.51h0M5.25 52.58h0M3.25 52.83h0M1.06 53.08h0M3.6 55.1h0M1.98 54.28h0M6.66 73.91h0M4.66 74.03h0M2.83 74.03h0M.79 74.16h0M2.91 75.97h0M1.98 78.47h0M1.16 81.6h0M1.29 84.53h0M4.29 84.28h0M7.29 83.97h0M10.16 83.47h0M13.1 82.85h0M15.73 82.22h0M4.23 81.53h0M7.23 81.22h0M10.1 80.66h0M4.79 76.78h0M6.6 77.6h0M8.54 78.35h0M10.41 78.91h0M12.29 79.6h0M14.16 80.22h0M16.1 80.78h0M18.04 81.28h0M20.1 81.72h0M21.85 82.1h0M23.79 82.47h0M25.91 82.91h0M27.85 83.28h0M29.79 83.6h0M31.79 83.97h0M33.79 84.22h0M35.79 84.41h0M37.73 84.47h0M39.73 84.53h0M41.6 84.72h0M43.85 84.66h0M45.79 84.66h0M47.85 84.53h0M49.79 84.28h0M51.79 83.97h0M53.79 83.78h0M55.79 83.47h0M57.6 83.16h0M59.48 82.78h0M61.54 82.2h0M63.71 81.62h0M66.12 81.15h0M68.62 80.45h0M71.04 79.7h0M73.12 79.2h0M66.23 84.72h0M63.73 83.66h0M44.44 82.76h0M52.25 82.2h0M48.31 82.64h0M58.56 81.39h0M55.44 81.89h0M64.87 79.89h0M61.75 80.76h0M40.69 82.64h0M39.54 80.85h0M42.41 81.03h0M45.41 81.03h0M48.48 80.91h0M51.35 80.53h0M54.41 80.22h0M57.35 79.6h0M60.29 78.85h0M63.04 78.1h0M66.04 77.1h0M67.69 79.01h0M75.25 75.7h0M72.94 76.89h0M70.31 78.01h0M75.1 78.72h0M76.91 78.1h0M78.79 77.35h0M80.6 76.47h0M82.41 75.6h0M83.6 77.97h0M78.1 80.28h0M80.91 80.97h0M84.04 81.53h0M83.79 84.6h0M81.29 84.45h0M78.87 84.2h0M76.07 83.62h0M73.21 82.87h0M70.62 81.78h0M68.73 76.03h0M41.29 78.53h0M44.29 78.6h0M47.29 78.66h0M50.23 78.35h0M53.29 78.03h0M56.04 77.47h0M58.48 76.91h0M60.73 76.28h0M62.73 75.66h0M38.29 78.1h0M39.54 75.41h0M47.85 75.85h0M42.41 75.72h0M45.29 75.91h0M50.48 75.66h0M52.73 75.41h0M54.66 75.1h0M56.54 74.66h0M49.35 72.78h0M46.79 73.1h0M43.98 73.16h0M40.98 72.97h0M37.79 73.16h0M46.48 70.28h0M48.29 71.1h0M50.16 71.72h0M52.1 72.22h0M53.98 72.72h0M55.91 73.1h0M57.85 73.41h0M59.85 73.6h0M61.85 73.78h0M63.85 73.85h0M65.79 74.03h0M67.85 74.03h0M69.79 74.03h0M71.79 74.03h0M73.91 74.03h0M75.91 74.1h0M77.85 74.1h0M79.91 74.16h0M82.04 74.03h0M83.79 74.16h0M34.23 72.1h0M36.54 74.85h0M33.66 74.16h0M30.29 73.22h0M35.35 77.66h0M36.54 80.47h0M33.6 80.03h0M36.94 82.45h0M32.48 77.03h0M30.6 79.53h0M32.94 82.01h0M27.73 78.91h0M29.6 76.41h0M26.66 75.47h0M23.85 74.53h0M21.98 77.1h0M24.79 78.16h0M28.37 81.39h0M19.1 76.22h0M16.35 75.22h0M24.06 80.51h0M19.69 79.45h0M15.5 78.2h0M12 76.95h0M8.44 75.7h0M8.66 73.72h0M10.66 73.6h0M12.54 73.35h0M14.6 73.22h0M16.6 72.97h0M18.6 72.85h0M20.6 72.53h0M22.48 72.28h0M24.41 72.03h0M26.41 71.72h0M28.29 71.41h0M30.35 71.03h0M32.35 70.78h0M34.16 70.35h0M36.23 70.03h0M38.16 69.53h0M40.16 69.22h0M42.04 68.85h0M43.98 68.47h0M45.85 67.91h0M47.79 67.47h0M49.79 67.03h0M51.66 66.53h0M53.6 65.91h0M55.54 65.41h0M57.41 64.78h0M59.35 64.1h0M61.23 63.41h0M62.98 62.66h0M64.91 61.91h0M5.41 56.03h0M7.23 56.78h0M9.16 57.47h0M11.16 58.1h0M13.04 58.72h0M14.79 59.22h0M16.85 59.72h0M18.73 60.22h0M20.66 60.72h0M22.6 61.1h0M24.6 61.41h0M26.48 61.72h0M28.41 62.03h0M30.46 62.2h0M32.46 62.37h0M34.71 62.53h0M37.21 62.87h0M39.54 63.12h0M42.04 63.28h0M33.81 60.01h0M29.75 59.58h0M25.62 58.95h0M21.12 58.08h0M17.06 57.01h0M13.25 55.76h0M9.62 54.45h0M37.69 60.26h0M16.96 53.45h0M41.5 60.33h0M45.19 60.26h0M20.79 54.45h0M26.41 51.97h0M29.23 52.6h0M32.23 53.35h0M35.16 53.91h0M38.1 54.35h0M41.1 54.72h0M43.98 54.91h0M47.04 55.1h0M49.91 55.22h0M52.98 54.97h0M55.98 54.72h0M58.91 54.35h0M61.29 53.91h0M63.54 53.03h0M65.54 52.16h0M34.16 50.53h0M37.29 51.28h0M40.1 51.78h0M43.04 52.16h0M45.98 52.47h0M48.85 52.47h0M51.66 52.66h0M54.1 52.6h0M56.1 52.35h0M57.98 52.1h0M59.91 51.78h0M61.79 51.28h0M57.66 49.85h0M55.6 50.35h0M52.41 48.28h0M54.66 48.16h0M50.98 50.47h0M53.48 50.47h0M49.66 48.03h0M47.79 50.22h0M47.04 47.66h0M44.41 49.53h0M41.35 48.72h0M23.79 55.28h0M27.29 56.12h0M30.79 56.62h0M34.62 57.12h0M37.91 57.22h0M40.91 57.41h0M43.79 57.41h0M46.85 57.35h0M50.23 57.22h0M53.54 57.03h0M56.54 56.66h0M59.29 56.28h0M62.29 55.72h0M65.23 55.16h0M67.98 54.6h0M70.6 54.03h0M73.35 53.41h0M49.25 60.08h0M53.25 59.7h0M56.75 59.2h0M44.29 63.37h0M46.66 63.28h0M48.73 63.16h0M50.66 62.91h0M52.6 62.66h0M54.54 62.41h0M56.6 62.22h0M58.54 61.85h0M60.54 61.47h0M62.48 61.03h0M60.12 58.7h0M63.31 58.14h0M66.44 57.51h0M69.44 56.64h0M71.87 55.95h0M74.41 55.1h0M76.83 54.18h0M83.16 54.28h0M81.41 55.35h0M79.6 56.03h0M77.79 56.85h0M75.85 57.53h0M73.98 58.16h0M72.04 58.72h0M70.16 59.28h0M68.16 59.85h0M66.29 60.28h0M64.23 60.78h0M44.25 44.08h0M40.5 45.01h0M36.44 45.95h0M32.62 46.83h0M28.31 47.58h0M24.44 48.2h0M20.87 48.64h0M1.29 49.28h0M4.56 49.45h0M7.56 49.45h0M11 49.45h0M14.37 49.26h0M17.56 49.01h0M37.1 43.6h0M34.56 43.89h0M22.29 45.03h0M24.79 44.78h0M27.29 44.62h0M29.54 44.37h0M32.12 44.12h0M19.29 45.16h0M16.35 45.28h0M13.35 45.35h0M10.29 45.35h0M7.35 45.41h0M4.41 45.28h0M1.35 45.22h0M22.1 42.85h0M19.1 42.78h0M16.1 42.78h0M13.04 42.6h0M10.1 42.41h0M7.1 42.35h0M4.1 42.1h0M1.23 41.78h0M24.98 42.78h0M78.56 48.89h0M74.69 48.45h0M70.87 47.83h0M66.87 46.95h0M63.31 45.95h0M59.69 44.58h0M79.85 41.1h0M76.79 40.47h0M73.91 39.78h0M80.54 36.91h0M81.48 34.03h0M79.66 34.91h0M77.79 35.72h0M75.91 36.41h0M74.04 37.1h0M70.44 33.7h0M72.1 37.72h0M70.16 38.22h0M68.16 38.66h0M66.29 39.28h0M64.41 39.72h0M62.41 40.03h0M60.41 40.41h0M58.54 40.78h0M56.54 41.16h0M54.6 41.41h0M52.54 41.72h0M50.66 41.97h0M48.73 42.1h0M46.66 42.35h0M44.48 42.47h0M41.73 42.47h0M39.66 42.35h0M37.66 42.22h0M35.73 41.97h0M33.79 41.85h0M31.73 41.53h0M29.79 41.22h0M27.85 40.91h0M25.85 40.6h0M23.98 40.35h0M22.16 39.91h0M20.1 39.53h0M18.04 38.97h0M18.85 40.66h0M15.85 40.35h0M12.91 40.1h0M9.91 39.66h0M6.98 39.16h0M4.04 38.6h0M1.1 38.1h0M12.79 38.66h0M9.79 38.22h0M6.98 37.6h0M4.04 36.66h0M1.16 35.78h0M16.16 38.47h0M14.29 37.91h0M12.41 37.35h0M10.41 36.66h0M8.48 36.03h0M6.73 35.41h0M4.98 34.66h0M3.5 33.83h0M2.12 33.01h0M67.56 35.01h0M64.44 36.39h0M61.31 37.45h0M57.69 38.51h0M54.06 39.26h0M38.62 40.39h0M42.31 40.51h0M46.12 40.33h0M49.94 39.89h0M34.69 40.2h0M30.94 39.76h0M27.62 39.2h0M28.54 36.35h0M25.16 35.47h0M24.25 38.45h0M17.25 36.39h0M20.75 37.45h0M14 35.14h0M10.94 33.83h0M21.82 34.53h0M18 33.01h0M35.23 37.22h0M41.66 33.78h0M38.41 33.97h0M34.98 33.72h0M31.29 33.22h0M27.91 32.66h0M24.66 31.6h0M32.04 36.97h0M38.16 37.41h0M44.16 33.53h0M46.48 33.35h0M40.98 37.47h0M48.66 33.1h0M55.1 35.78h0M57.73 35.1h0M60.1 34.41h0M62.48 33.66h0M64.91 32.78h0M52.23 36.47h0M57.23 31.47h0M54.98 31.97h0M52.91 32.35h0M50.79 32.78h0M49.35 36.97h0M46.73 37.22h0M43.97 37.36h0M82.16 31.91h0M80.16 31.91h0M78.16 31.85h0M76.16 31.72h0M74.1 31.66h0M72.1 31.53h0M70.1 31.47h0M68.16 31.28h0M66.23 31.1h0M64.1 30.85h0M62.16 30.66h0M60.16 30.41h0M58.29 30.16h0M56.35 29.78h0M54.29 29.47h0M52.35 29.1h0M50.48 28.72h0M48.54 20.91h0M50.41 20.66h0M52.41 20.47h0M54.41 20.16h0M56.41 19.85h0M58.35 19.6h0M60.35 19.22h0M62.35 18.78h0M64.29 18.41h0M66.16 17.97h0M68.04 17.53h0M69.98 17.03h0M71.91 16.53h0M73.85 15.91h0M75.73 15.35h0M77.66 14.66h0M79.48 13.85h0M81.29 13.03h0M83.16 12.16h0M55.75 17.58h0M59.62 16.95h0M51.75 18.26h0M47.37 18.7h0M43.44 18.89h0M63.62 16.08h0M67.06 15.08h0M70.31 14.08h0M73.44 12.89h0M19.62 16.51h0M15.81 15.39h0M12.37 14.26h0M9.5 13.08h0M6.85 11.78h0M12.04 11.16h0M14.6 12.66h0M17.41 13.66h0M20.23 14.66h0M23.23 15.22h0M26.1 15.72h0M29.04 16.1h0M32.1 16.41h0M35.29 16.66h0M38.29 16.72h0M41.04 16.6h0M43.91 16.53h0M46.91 16.16h0M49.23 15.72h0M51.73 15.16h0M54.16 14.66h0M56.66 13.97h0M59.1 13.16h0M61.48 12.35h0M16.1 9.35h0M18.79 10.72h0M21.48 11.66h0M24.29 12.35h0M27.66 12.97h0M30.85 13.28h0M34.29 13.47h0M37.91 13.28h0M41.16 12.91h0M44.35 12.47h0M46.98 12.03h0M49.41 11.6h0M51.66 11.1h0M22.85 8.53h0M20.35 7.85h0M25.73 9.22h0M28.35 9.72h0M32.04 7.03h0M29.41 6.47h0M26.41 5.66h0M34.73 7.53h0M37.29 7.85h0M39.91 8.03h0M30.16 2.78h0M32.04 3.72h0M33.73 4.35h0M35.54 5.22h0M37.48 5.97h0M39.41 6.6h0M41.29 7.22h0M43.16 7.78h0M45.16 8.28h0M47.04 8.72h0M49.04 9.16h0M50.91 9.47h0M52.85 9.85h0M54.85 10.16h0M56.85 10.28h0M58.85 10.47h0M60.79 10.72h0M62.73 10.85h0M64.73 11.03h0M66.79 11.1h0M68.79 11.16h0M70.73 11.1h0M72.73 11.16h0M74.85 11.16h0M77.04 11.03h0M79.16 11.03h0M81.41 10.78h0M83.66 10.78h0M33.73 10.28h0M36.23 10.22h0M38.73 10.22h0M41.16 10.1h0M43.54 9.85h0M31.04 10.1h0M57.5 8.26h0M53.58 7.6h0M34.58 1.28h0M45.58 1.18h0M47.91 2.1h0M50.41 3.1h0M52.66 3.76h0M55.08 4.43h0M57.33 5.01h0M59.75 5.43h0M62.16 5.85h0M84 7.1h0M81.66 7.01h0M79 7.1h0M76.33 7.1h0M73.66 6.93h0M70.91 6.85h0M68.16 6.6h0M65 6.18h0M74.41 9.76h0M71.66 9.64h0M68.48 9.45h0M61.5 8.68h0M37.58 2.6h0M40.58 3.93h0M43.75 5.01h0M46.85 6.01h0M50.16 6.93h0M65.23 9.2h0M76.91 9.76h0M79.29 9.7h0M81.6 9.51h0M83.91 9.33h0M63.52 3.34h0M60.46 2.65h0M57.58 1.65h0M54.64.4h0M66.46 3.9h0M69.27 4.28h0M72.21 4.53h0M72.27 1.41h0M69.21.72h0M75.52 1.91h0M78.39 2.35h0M81.27 2.53h0M84.04 2.62h0M84.04 4.88h0M81.14 4.9h0M78.39 4.84h0M75.14 4.72h0M6.56 58.08h0M1.25 57.45h0M3.87 57.76h0M6.62 61.39h0M10.62 61.51h0M14 61.39h0M17.12 61.26h0M25.5 63.01h0M22.5 63.39h0M19.75 63.64h0M16.62 64.01h0M13 64.26h0M9.12 64.39h0M5.12 64.51h0M1.44 68.01h0M.75 71.76h0M4.5 71.58h0M8.19 71.33h0M12.25 70.95h0M15.62 70.51h0M18.87 70.08h0M22.19 69.58h0M25.12 69.08h0M28 68.51h0M30.81 68.01h0M33.62 67.33h0M36.37 66.7h0M38.87 66.08h0M41 65.51h0M43.06 64.89h0M4.06 67.89h0M7.06 67.7h0M10.12 67.51h0M13.31 67.33h0M16.37 66.95h0M19.75 66.64h0M22.69 66.33h0M25.37 65.83h0M28.25 65.45h0M30.87 65.01h0M33.06 64.64h0M35.37 64.26h0M1.5 64.64h0M2.69 61.26h0M79.39 60.58h0M61.71 70.39h0M57.33 69.51h0M53.33 68.35h0M66.02 71.08h0M70.27 71.45h0M74.08 71.7h0M77.89 71.83h0M82.14 71.83h0M59.46 66.2h0M63.39 66.83h0M67.58 67.33h0M71.08 67.7h0M74.27 67.83h0M77.33 68.01h0M80.46 68.01h0M83.46 68.01h0M67.02 63.51h0M72.02 63.89h0M77.14 64.39h0M82.39 64.64h0M75.02 60.01h0M83.52 61.01h0M83.21 56.95h0M74.62 24.76h0M71.25 24.45h0M67.62 23.95h0M64.19 23.39h0M60.25 22.64h0M55.75 21.64h0M77.81 25.14h0M81 25.33h0M84 25.58h0M82.62 28.51h0M78.56 28.39h0M74.25 28.14h0M69.87 27.7h0M64.81 27.01h0M60.25 26.33h0M55.75 25.39h0M51.19 24.33h0M46.75 23.01h0M84.06 15.89h0M80.75 15.33h0M77.06 18.14h0M74.12 17.64h0M79.87 18.64h0M82.94 18.95h0M83.87 22.08h0M81.12 21.76h0M78.44 21.51h0M75.56 21.2h0M72.94 20.83h0M67 19.76h0M70.12 20.39h0M19.87 1.95h0M22.06.58h0M25.94.45h0M24.37 1.45h0M28.37 1.33h0M29.44.33h0M24 84.26h0M20.87 84.26h0M16.12 84.39h0M18.19 83.2h0M13.75.51h0M13.69 2.83h0M16.06 1.76h0M18.69.58h0M16.12 84.39h0M18.19 83.2h0"/>
    </pattern>
    <filter id="luminosity-noclip" x="0" y=".68" width="493.5" height="376.02" filterUnits="userSpaceOnUse" color-interpolation-filters="sRGB">
      <feFlood flood-color="#fff" result="bg"/>
      <feBlend in="SourceGraphic" in2="bg"/>
    </filter>
    <style>
      .cls-3{fill:none;stroke:#000;stroke-linecap:round;stroke-width:.7px}
    </style>
    <mask id="mask" x="0" y=".68" width="493.5" height="376.02" maskUnits="userSpaceOnUse">
      <path id="Cloud_10" data-name="Cloud 10" d="M343.38 135.3c-17.94 0-37.3 4-57.59 13.51-15-9.42-28.6-13-40.59-13-38.58 0-60.64 37.24-60.64 37.24a31.24 31.24 0 0 0-3.36-.15c-9.89 0-38.75 3.37-46.94 41.76a56.07 56.07 0 0 0-9-.74c-31.7 0-43.2 29.31-43.2 29.31a44.19 44.19 0 0 0-15.94-3.08c-11.83 0-26.84 5.47-32.52 31-26.7 14.29-14.28 52.18 8.08 52.18 13 29.43 67.33 49.52 118.4 49.52 22.21 0 43.79-3.8 61.1-12.26 0 0 21.17 16.11 44.57 16.11a43.2 43.2 0 0 0 28.09-9.9c11.48 5.74 28.29 9.12 46.37 9.12 32.79 0 69.72-11.13 86.54-39.55 69.56-3.1 94.39-90.67 27.31-123.59-12.23-37.67-54.47-77.48-110.71-77.48" fill="url(#_609)" filter="url(#luminosity-noclip)"/>
    </mask>
  </defs>
  <g id="Cloud_10-2" data-name="Cloud 10">
    <g id="Cloud_10-3" data-name="Cloud 10">
      <g mask="url(#mask)">
        <path id="Cloud_10-4" data-name="Cloud 10" d="M343.38 135.3c-17.94 0-37.3 4-57.59 13.51-15-9.42-28.6-13-40.59-13-38.58 0-60.64 37.24-60.64 37.24a31.24 31.24 0 0 0-3.36-.15c-9.89 0-38.75 3.37-46.94 41.76a56.07 56.07 0 0 0-9-.74c-31.7 0-43.2 29.31-43.2 29.31a44.19 44.19 0 0 0-15.94-3.08c-11.83 0-26.84 5.47-32.52 31-26.7 14.29-14.28 52.18 8.08 52.18 13 29.43 67.33 49.52 118.4 49.52 22.21 0 43.79-3.8 61.1-12.26 0 0 21.17 16.11 44.57 16.11a43.2 43.2 0 0 0 28.09-9.9c11.48 5.74 28.29 9.12 46.37 9.12 32.79 0 69.72-11.13 86.54-39.55 69.56-3.1 94.39-90.67 27.31-123.59-12.23-37.67-54.47-77.48-110.71-77.48" fill="#171616"/>
      </g>
      <path id="Cloud_10-5" data-name="Cloud 10" d="M343.38 135.3c-17.94 0-37.3 4-57.59 13.51-15-9.42-28.6-13-40.59-13-38.58 0-60.64 37.24-60.64 37.24a31.24 31.24 0 0 0-3.36-.15c-9.89 0-38.75 3.37-46.94 41.76a56.07 56.07 0 0 0-9-.74c-31.7 0-43.2 29.31-43.2 29.31a44.19 44.19 0 0 0-15.94-3.08c-11.83 0-26.84 5.47-32.52 31-26.7 14.29-14.28 52.18 8.08 52.18 13 29.43 67.33 49.52 118.4 49.52 22.21 0 43.79-3.8 61.1-12.26 0 0 21.17 16.11 44.57 16.11a43.2 43.2 0 0 0 28.09-9.9c11.48 5.74 28.29 9.12 46.37 9.12 32.79 0 69.72-11.13 86.54-39.55 69.56-3.1 94.39-90.67 27.31-123.59-12.23-37.67-54.47-77.48-110.71-77.48" stroke="#171616" stroke-miterlimit="10" stroke-width="12.66" fill="none"/>
    </g>
  </g>
</svg>
