<svg xmlns="http://www.w3.org/2000/svg" width="512" height="512">
  <defs>
    <pattern id="_706" data-name="706" width="53.5" height="53.5" patternTransform="matrix(3.81 0 0 3.81 -382.06 -1036.43)" patternUnits="userSpaceOnUse">
      <path fill="none" d="M0 0h53.5v53.5H0z"/>
      <path class="cls-3" d="M0 5.45C1.88 4.56 1.67 4 1.88 2.38 2 1.16 3.1.55 4.53 0M0 12.38c1.67-1.76 1.25-2.48 1.25-3.63S1.5 7 3.12 6.62 4.88 3.5 5.38 2.25C5.71 1.42 7.25.76 8.73 0"/>
      <path class="cls-3" d="M3.5 7.5C4.62 7 5 5.5 5.75 3.62s1.87-1.74 3.37-2.24C10.35 1 10.41.89 10.66 0M1.38 11.75A2.8 2.8 0 0 1 0 14.32"/>
      <path class="cls-3" d="M0 31.66c.89-.51 1.67-.26 2.75-.16A2.16 2.16 0 0 0 5 30.62a7.24 7.24 0 0 1 1.75-1.37c1-.63.87-1-.13-1.75a7.65 7.65 0 0 0-3.87-2c-2.5-.62-.5-1.62.75-1.88a6.58 6.58 0 0 0 3.5-1.5c1.12-1 4-1.74 5.25-2.62s.25-2.25-1.13-2.12-.87-1.13-2.62-1.5-4.25 2.5-6.5 2.87-1-3.25-.25-4.5a2.67 2.67 0 0 0 .5-2.5c-.13-1.25 1.25-3 2.37-3.87s1-1 1.26-2.38 2.37-2.75 3.74-3.12A5.26 5.26 0 0 0 12.19 0"/>
      <path class="cls-3" d="M0 29.14a5.36 5.36 0 0 1 .88 0c1 0 1.12.13 1.74-.62s0-1-.87-1.12A3.82 3.82 0 0 1 0 26.06m0-3.68a12.61 12.61 0 0 1 4-1.5A4.63 4.63 0 0 0 6.75 19c.87-1-1.37-.25-3 .62a6.53 6.53 0 0 1-3.75.6"/>
      <path class="cls-3" d="M1.12 23.5c.5-.88 1.76-1 2.76-1.12a4.8 4.8 0 0 0 2.74-1.63 6.79 6.79 0 0 1 3-1.5c1.13-.37.88-.87-.24-1.13s-.76.13-.76-.74-1.12-.63-2.5.24m-4.24 8.5c1.62.38 3.62.63 3.37 1.76s-.13 1-1 1.62a2.54 2.54 0 0 1-2.25.62 2.88 2.88 0 0 0-2 .13"/>
      <path class="cls-3" d="M0 33.67a6.81 6.81 0 0 1 4.38-.42c1.24.37 3.12-1.5 3.74-2.5s.63-1.5 2-1.87-.74-2.5-3-3.13-.12-1.63 1-1.87a9 9 0 0 0 2.5-1A6 6 0 0 1 13.5 22c1.12 0 1.12-.25 1.75-1.25a2.05 2.05 0 0 0 0-2.63 2.07 2.07 0 0 1-.87-1.87c0-1-1-1.13-1.76-1.13a4.27 4.27 0 0 1-2.37-.37c-1-.5-1.87-.5-4.75.63s-2.75.12-2.38-.5a2.42 2.42 0 0 0 .13-2.13c-.25-1 2-3.25 3.37-4.75S9.38 4.12 11 4c1.34-.1 2.43-1.74 4.46-4M6.75 33.88C5.5 35 4.62 35.62 3.12 35.38a4.76 4.76 0 0 0-3.12.56"/>
      <path class="cls-3" d="M0 37.69c1.67-.79 3.08-.31 4.5-.31 1.62 0 3.38-2.13 3.88-3.5s2.87-2.88 4.37-4.13-.37-2.25-1.5-3.25.25-1.5 1.25-2.38 2.62-1 4.75-1.24 2-1.76 1.63-2.5a2.64 2.64 0 0 1-.26-2.26c.26-1.24 0-1.12-1.37-2s-.87-1.37-1.37-2.24-2.26-.5-3-.5a3.41 3.41 0 0 1-2.13-.76c-.63-.5-2-.24-3.5.38s-1.75-.12-1.63-.88.76-1.24 2-1.87.76-1.13 1.13-2A7.68 7.68 0 0 1 12 5.5a5.17 5.17 0 0 0 2.5-1.88 5.74 5.74 0 0 1 2.75-2.12 6.08 6.08 0 0 0 2.3-1.5"/>
      <path class="cls-3" d="M12.12 32.62c-.74.88-.24.88-1.12 1.76s-1.5 1-2.12 2.24-1.76 2.26-4.13 2.5c-2 .22-3.51.07-4.75.79"/>
      <path class="cls-3" d="M0 42.48c2.13-1 1.88-1.25 3.62-1.36 2-.12 3.26-.37 4.38-1.37s.25-.25 2-.87 1.75-1 2.12-2.26a7.1 7.1 0 0 1 .05-1.29 3 3 0 0 1 .91-1.5c.59-.58.34-1.16.5-2.16a3.12 3.12 0 0 1 1.09-1.92c.5-.5.71-.25.71-.25.87-.5.5-.5.87-1.38a3.46 3.46 0 0 1 1.37-1.62c.76-.62 3.5-1.25 5.13-1.75s1.13-2 .63-3.25 0-1.12.74-2.62-1-3-2.12-3.76a8.35 8.35 0 0 1-2.5-2.62c-.75-1.12-2.38-1.5-4.38-1.75a2.37 2.37 0 0 1-2.37-2.63c0-1.12 1.87-2.5 3.13-3s1.24-.37 1.87-1.37.87-1 2.5-1.37A6.42 6.42 0 0 0 23.78 0"/>
      <path class="cls-3" d="M21.62 13a17 17 0 0 1-2.12-2.88c-.5-.87-2.12-.5-3.12-.87s-.63-1.75 0-2.37.87-.38 1.12-1.13 1.38-1 2.5-1.37 1-.5 1.75-1.13a8.35 8.35 0 0 1 2.63-1.5c1-.4 1.61-.48 2.26-1.75M12.19 53.5a18.75 18.75 0 0 0 1.06-1.88l.44-1.37a19.11 19.11 0 0 1 1.62-3.69c.63-.94 4.69-1.81 5.57-2.18s2.12-2.57 3-4 .06-2.26-.38-2.94a2.94 2.94 0 0 1-.69-2.44c.25-1.06 3.07-2.12 3.94-2.19s2.44-1 3.56-1.43 5.07-.19 6.13-.13a5.61 5.61 0 0 0 2.31-.06 19 19 0 0 1 3.44-.31 8.11 8.11 0 0 0 3.93-2c.76-.63.13-1-.37-1.19s-2.13.31-3.06.5a4.6 4.6 0 0 1-3.38-.63c-.81-.68-1.43-.5-2.87-.56s-1.5-1.56-1.5-2.25a2.35 2.35 0 0 0-.75-1.87c-.63-.63-.5-1.69-.57-2.76s1.26-1.62 2.19-2.12.44-.25.44-.25c1.25-.87.37-.87-.37-1.13A2.67 2.67 0 0 1 34 15.5c-.62-.88-3.12-1.75-4.75-2.5s-1.5-2.25-2-3.25-1.25-1.13-1-2 3.63-2.63 5.13-3.63c1.07-.71 1.75-2.25 2.15-4.12"/>
      <path class="cls-3" d="M36.62 25.62c-1.12-.74-.37-5-.24-6s1.12-1 2.37-1.5.87-.87.5-1.62-.63-.62-1.37-.75a5.88 5.88 0 0 1-2.88-.87c-1.5-.88-1.38-1.38-3.5-1.63a2.36 2.36 0 0 1-2.38-2.63c0-1 .13-.62-.62-1.62s-.5-1 .12-1.5a15.68 15.68 0 0 1 3-2.12c1.75-1 2.65-3 3.06-5.38"/>
      <path class="cls-3" d="M38.12 21.12c.26-.87 2.26-2.12 4.26-3.12s-.13-1.88-.76-2.75S39 14.12 38 14.12s-2.25-.24-2.5-1.12-1.25-1-2.38-1.12-2-1.13-1.62-2 .38-.63 0-1.38 1-1.88 3.75-3.25c2.31-1.15 2.15-2.66 2-5.25"/>
      <path class="cls-3" d="M29.09 53.5a11.17 11.17 0 0 0 .29-1.75s0-.37-.07-1.06a5.53 5.53 0 0 0-.43-2.57 7.72 7.72 0 0 1-.32-4.5c.32-1.31 2.14-2.65 2.38-3.37.62-1.87-.63-2.06-1.19-3s.13-1.37 1.69-2 2.5-.37 4.5-.19a7.8 7.8 0 0 0 4.37-.87c.81-.44 1.31-.31 2.69-.31a9.81 9.81 0 0 0 3.94-.88 3.48 3.48 0 0 0 1.87-1.56 6.5 6.5 0 0 1 1.88-1.63 4.73 4.73 0 0 0 1.75-2.37c.37-.88-.63-1.88-1.56-2.38a6.79 6.79 0 0 0-3.88-.18c-.88.24-.88.06-1.81-.32a4.26 4.26 0 0 0-3.25.25c-1 .5-1.32-.19-1.44-.43s-.31-.32-1.12-.19-.19-1.13.06-1.44.12-.5.18-.87c.25-1.45 2.5-1.5 3.88-2.26s.88-2.37.88-3.5a3.12 3.12 0 0 0-2.63-2.74c-1.63-.38-1.5.12-2-.26s-1.13-1-1.75-1A3.5 3.5 0 0 1 35.88 11C35 10.25 34.12 9.75 34 8.88s1.88-2 3.88-3.13c1.71-1 1.13-3.48.93-5.75"/>
      <path class="cls-3" d="M50.38 23.75c-.32-.31-.63-.81-1.26-.56s-1.18-.13-1.81-.5-1.19.06-2.37.12-1.19-.75-.88-1.31a34.24 34.24 0 0 1 2.69-2.75c1.13-1.19-.13-2.75-.13-2.75-.37-.38-.37-1.38-.87-2.38s-.87-1.12-2.37-1.37a28.08 28.08 0 0 1-3.5-.87c-1.88-.5-1.88-2-2-3.13s1-1.13 2.5-2.13c1.3-.87 1.56-2.69 1.11-6.12"/>
      <path class="cls-3" d="M47.38 20a2.83 2.83 0 0 0 .68-2.19 1.5 1.5 0 0 1 .38-1.12c.75-.75.44-3.31-.06-4.44s-2.63-1.37-4.63-1.75-1.87-1.25-2-2.25S43.62 6 44.88 4.62c1-1.12.28-2.76-.57-4.62"/>
      <path class="cls-3" d="M50.94 22.94c-.19-.5.87-.5 1.37-1.13s-1.43-.5-2.62-.62-1.07-1.94-.88-2.88a2 2 0 0 1 .94-1.31c.63-.88 1.5-1.25.87-2.25s-.12-.87-.24-1.75-.5-1.25-1.38-2.25-1.75-1.25-4.25-1.63-.63-1.74 1.37-3.87c1.72-1.83.76-2.73-.25-5.25M13.5 34.75a4.2 4.2 0 0 0 0 2.33 2.88 2.88 0 0 1-.83 2.75 2.73 2.73 0 0 1-2.17.67c-1.62.12-1.25.5-2.88 1.25a15.66 15.66 0 0 1-3.87 1.13c-1.56.38-2.43 1.31-3.75 2.46m5.15-1.24c-.68.62.5 1.75.63 2.62a1.89 1.89 0 0 1-.66 1.53C3.28 50 1.69 49.89 0 50.89"/>
      <path class="cls-3" d="M3 47.72a1.49 1.49 0 0 0 .56-2c-.31-.44-1.09-.1-1.09-.1-1.29.63-1.74 1.11-2.47 1.47"/>
      <path class="cls-3" d="M0 51.8c.3-.35.71-.5 2-.68 2.75-.37 3.25-.5 4.88-2.37s1.87-2.87 1-3.87c0 0-1.3-.38-.55-1.05a17.83 17.83 0 0 1 2.75-1.41 7.91 7.91 0 0 1 3.17-.84c1.08-.08 3.58-.91 2.92-2.25a9.51 9.51 0 0 1-1-3.08 11 11 0 0 0-.42-1.75c-.25-.92.67-3.33 1.58-4.5a11.46 11.46 0 0 1 5.09-3.25c1.75-.42 3.41-.58 4-1.33a2.27 2.27 0 0 0 .33-2.42 10.2 10.2 0 0 1-.33-2.5c-.16-1.18 1.36-1.35 1.7-2.5s-.12-1.5-1.87-2.5-2-1.38-2.25-3.12-.12-.76-.88-1.5a5.78 5.78 0 0 1-2.12-3c-.38-1.63 1.38-2 2.25-2.88s3.37-2.12 5.13-3.25c1.09-.7 1.5-1.06 1.71-1.75"/>
      <path class="cls-3" d="M4.53 53.5c.93-.36 2-.68 3.09-1.12l.63-.55c.42-.16.75-.66 1.42-1.5s.41-1.66.58-3.25.75-1.83 2.42-3.25 3.91-1.08 4.83-1.25a2.4 2.4 0 0 0 1.83-1.25c.5-.75-.5-1.83-1.58-2.58s-1.42-3.58-1.33-4.67 2.41-3.91 3.66-4.91 4.75-1.5 6.34-2A2.12 2.12 0 0 0 27.83 24a3.3 3.3 0 0 1-.5-2.67 4.07 4.07 0 0 1 1.29-1.95 2.11 2.11 0 0 0 .38-2.76c-.5-1.12-2-1.74-3.5-2.87s-1.25-1.5-1.38-2.63-.12-1-1.5-2.24-.37-1.76.38-2.63 1.88-1.37 4.12-2.37A5.23 5.23 0 0 0 30.6 0"/>
      <path class="cls-3" d="M8.73 53.5a11.21 11.21 0 0 0 2-1.25 2.5 2.5 0 0 0 1.19-2c0-1.31.81-4.37 2.37-5.06s4.88-1.07 5.69-2.25 1.62-2.88.19-4.38-3.44-3.81-1.44-6.31a9.41 9.41 0 0 1 6.31-3.5c1.32 0 4.32-.25 5.13-1.5s.81-2.44.06-3.13l-1-1.12c-.87-1.38.5-3.25 1.13-4.5a3.08 3.08 0 0 0 .37-2.88C30.38 14.5 29 14 27.88 13.75s-1.5-1.63-1.63-2.75S25 9.25 24 8.38s.12-1.76 1.5-2.26a28.92 28.92 0 0 0 4-2.24A5.58 5.58 0 0 0 32.21 0"/>
      <path class="cls-3" d="M30.06 32.88c-.87.56-3 .62-4.62 1.12s-1 2.25.06 4.12-1.25 4.94-2.06 6.13S20 46.69 19 47s-1.19 1.44-1.31 3.06-.81 1.94-.81 1.94c-.53.52-1 1-1.42 1.5"/>
      <path class="cls-3" d="M38.12 20.94a5.56 5.56 0 0 1-.12.81c-.12.63-.25 1.37-.5 2.56s.5 1.25 1 1.19.69.06 1.25.56a1.47 1.47 0 0 0 1.87.32 3.93 3.93 0 0 1 2.82.06 3.74 3.74 0 0 0 2.81-.38 4.33 4.33 0 0 1 3.63.5c.74.63.18 1.32-.69 2a28.14 28.14 0 0 0-2.88 2.56c-.75.82-2.93 1.19-4.31 1.38a17.89 17.89 0 0 0-4.06.88c-.75.37-3.25 0-5 0a6.4 6.4 0 0 0-3.88.81c-1 .69-1.44.31-2.94.43s-1.24 1.5-.56 2.5a4.72 4.72 0 0 1 .82 4.07c-.5 1.56-3.13 4-3.82 5.12s-.31 2.25-.68 3.38a6 6 0 0 1-1.76 2.19c-.62.67-1.12 1.2-1.57 1.62"/>
      <path class="cls-3" d="M25.25 46.69c-.19.87.13 1.69.25 3.31s-.75 2.12-.75 2.12a12.28 12.28 0 0 1-1 1.38m4.06-17.56c-.93.62 1.31 2.25 1.5 3.75s-1.43 2.69-1.43 2.69a7.88 7.88 0 0 0-1.07 3.31 10 10 0 0 0 .69 3.93 6.16 6.16 0 0 1-.38 2.76 8.33 8.33 0 0 1-.48 1.12m4.24-1-.28 1m1.61 0a10.43 10.43 0 0 0 .17-1.25 5.46 5.46 0 0 0 0-1.63 7.79 7.79 0 0 1 1.06-3.81c.87-1.56.56-1.81.18-3s-.24-1.62.19-2 .38-.87.57-1.87 2-1 3.68-1.06 2.63.24 3.56-.19a3.87 3.87 0 0 1 1.82-.57 25.32 25.32 0 0 0 4.37-.56A8.38 8.38 0 0 0 51 35.44a5.33 5.33 0 0 1 1.61-1.18 3.93 3.93 0 0 1 .89-.59"/>
      <path class="cls-3" d="M33.53 53.5a21.25 21.25 0 0 0 .35-2.38 5.43 5.43 0 0 1 .21-2 9.18 9.18 0 0 1 .79-1.72 3 3 0 0 0-.07-3.06 1.38 1.38 0 0 1 .25-1.76c.38-.43.19-.93.13-1.62a4.19 4.19 0 0 1 3.12-1.12c1.81.18 2.75.24 3.38-.07a6.34 6.34 0 0 1 3-.62 8.06 8.06 0 0 0 4.12-.81c1.13-.69 1.13-1.13 2.38-1.26s1.17-.36 1.17-.36A6.25 6.25 0 0 1 53.5 36"/>
      <path class="cls-3" d="M34.68 53.5c.09-.52.15-1.07.2-1.62a5.43 5.43 0 0 1 .4-1.53c.25-.38 1.41-1.73 1.41-1.73 1-1.12-.13-2.62-.44-3.74a2.15 2.15 0 0 1 .19-2.07c.31-.5-.25-.62.44-1.43a2.34 2.34 0 0 1 2.68-.32 2.05 2.05 0 0 0 2.19-.18c.56-.5 2-.57 3.94-.32A3.16 3.16 0 0 0 49 39.38a4.19 4.19 0 0 1 2.94-1.32c.75.13.8.08.8.08a4.63 4.63 0 0 1 .76-.44"/>
      <path class="cls-3" d="M37.22 53.5c0-.5-.07-1-.1-1.62a3.65 3.65 0 0 1 .16-1.72 16.67 16.67 0 0 0 .78-1.6 6.86 6.86 0 0 0-.56-3.87 1.46 1.46 0 0 1 .5-1.94s1.75-.13 3.06-.19.88-.06 1.38-.68 1.62-.38 2.87.06a3.07 3.07 0 0 0 2.69-.13 9.79 9.79 0 0 1 3.19-.81c1.56-.12 1.67-.61 1.67-.61a3.88 3.88 0 0 1 .64-.47"/>
      <path class="cls-3" d="M39.5 46.06a5.55 5.55 0 0 1-.25 3.88 8.44 8.44 0 0 0-.5 2.44 10.79 10.79 0 0 0 .06 1.12m5.5 0c-.19-.41-.38-.82-.56-1.25-1-2.37-.31-1.5-.31-2.44a27.82 27.82 0 0 0-.44-3.43c-.12-.76.06-1.44 1.56-.94 0 0 1.94-.5 2.88-.69s2.18.56 3.18 1.37 1.62.27 1.62.27c.47-.37.88-.72 1.26-1m-4.69 8.11-.69-1.25"/>
      <path class="cls-3" d="M47.31 50.31c-.25-.75.81-.69 1.5-.81s1.25.5 2.25 1.5 1.3.76 1.3.76a6.82 6.82 0 0 1 1.14-.86"/>
      <path class="cls-3" d="M45.87 53.5a13.65 13.65 0 0 1-.49-1.38s-.5-1.37-.26-1.81a3.43 3.43 0 0 0 .44-2.12c-.18-.57.44-.94 1.56-1a5.32 5.32 0 0 1 2.57.31c.75.31-.45.51 1.92.14a5.82 5.82 0 0 0 1.89-.55M11.67 7.5c-.84.83-2 1.67-1.75 2.75s.33 1.42 1.33 1.42.42-.17 1.33.16a2.33 2.33 0 0 0 1.67.09 7.08 7.08 0 0 1 4.17 1.83c.75 1 .58 1.25 1.83 2s1.83 1.42 1.5 2.08a2.47 2.47 0 0 0-.33 2.17c.33.83.91 3-.09 3.25s-3.75.92-4.75 1.33-2.5.92-2.16 2.17.66 1.67.33 2.08m17.37-13.39c1.07.87 1.82 1.18 1.32 1.81s-2.25 1.69-2.06 2.87.5 2 .62 2.69-.06.69.38 1.25.5.56.43 1.19a2.31 2.31 0 0 0 1.75 2.5c1.69.56 2.25.75 1.88 1.31s-.75.06-2.32.13a13.68 13.68 0 0 0-4.31.69 19.25 19.25 0 0 1-3.56.81 15.49 15.49 0 0 0-3.44.87c-1.12.5-2.31 1.13-2.43 1.94a2.74 2.74 0 0 0 .37 2.44c.69 1.06.5 1.25.5 1.62a2.33 2.33 0 0 1 1.13 2.19A5.58 5.58 0 0 1 21 43"/>
      <path class="cls-3" d="M47.94 26.94c1.5-.13.37 1.37-1.5 3.06a9.08 9.08 0 0 1-5.75 1.94 52.45 52.45 0 0 1-6.31.25c-2.57-.19-1-.31-2.26.12M10.66 53.5c.06-.2.12-.45.22-.75 0 0 1-.87 1.5-1.37s.5-1.63 1-3.5a3 3 0 0 1 2.12-2.5m38-33-.51.51-.74.17-.87-.68c-.82-1.13 0-2.13-.26-3.5S48.88 8 47.38 7.62s.62-2.24 1.74-3.5c1-1.05.75-2.1-.31-4.12m-4 36.56c.81-.18 2.44-.25 3.57-.56a7.57 7.57 0 0 0 3.06-2.31c.68-.81 1.3-1.43 1.3-1.43a3.74 3.74 0 0 1 .76-.6m0-9.27a3.59 3.59 0 0 0-1.26 1.25s-1-.13 0 1c.41.46.84 1 1.26 1.45m0-11.76c-.35.24-.76.49-1.26.81 0 0-1.05 1-.74 1.74s.41.85-.31 1.43-.75 1-.31 1.25.61.33.61.33a13 13 0 0 0 1.95.34h.06m-1.01 9.53a2.83 2.83 0 0 1 1-.61"/>
      <path class="cls-3" d="M30.81 52.31a17.56 17.56 0 0 0-.19-3.31 16 16 0 0 1-.62-4.69c.06-2.31.94-1.93 1.56-2.69s.63-1.74.44-3.06.19-1.06 1.06-1.5 1.06-.37 2.5-.25 2.13.13 2.94-.43.94-.32 2.06-.26a8.78 8.78 0 0 0 3.94-.5 5.91 5.91 0 0 1 2.81-.74 3.32 3.32 0 0 0 2.81-1.5 5.14 5.14 0 0 1 2-1.94 1.56 1.56 0 0 0 .62-.68 5.29 5.29 0 0 1 .76-.51M41.49 53.5q-.09-.77-.24-1.62v-1.44a20.4 20.4 0 0 1 .06-2.69c.19-1.13-1.19-2.37-1.69-3.19s1.69-.5 2.26-.68a4.37 4.37 0 0 1 2-.32 2.21 2.21 0 0 0 2.12-.25c.94-.62 3.5.44 4.81.31s1.55-.62 1.55-.62c.45-.19.82-.37 1.14-.53m0 9.33c-.29.32-.47.83-1.2 1.7m0-53.5c-.16.19-.34.41-.56.64 0 0-1 .42-.74 1s.87 1.43.31 2.31c-1.93 3.06.55 2.14.55 2.14.68-.26 1.21-.48 1.64-.68"/>
    </pattern>
    <filter id="luminosity-noclip" x="-.11" y="5.59" width="493.61" height="357.67" filterUnits="userSpaceOnUse" color-interpolation-filters="sRGB">
      <feFlood flood-color="#fff" result="bg"/>
      <feBlend in="SourceGraphic" in2="bg"/>
    </filter>
    <style>
      .cls-3{fill:none;stroke:#221f1f;stroke-width:.3px}
    </style>
    <mask id="mask" x="-.11" y="5.59" width="493.61" height="357.67" maskUnits="userSpaceOnUse">
      <path id="Cloud_2" data-name="Cloud 2" d="M247.25 148.75a71 71 0 0 0-56.2 27.61 64.3 64.3 0 0 0-96.84 55.54l.1 2h-.42a46.27 46.27 0 0 0-46.26 46.2l.13 2.65c-17.84 8.3-29.26 21-29.26 35.21 0 25 35.27 45.29 78.79 45.29h336l-.05-.08c33.47-1 60.22-20.67 60.22-44.88 0-24.84-28.1-45-62.76-45a87.79 87.79 0 0 0-14.5 1.25 53.83 53.83 0 0 0-71.83-41.2 35.28 35.28 0 0 0-28.12-30.53 71.13 71.13 0 0 0-69-54.07" fill="url(#_706)" filter="url(#luminosity-noclip)"/>
    </mask>
  </defs>
  <g id="Cloud_2-2" data-name="Cloud 2">
    <g id="Cloud_2-3" data-name="Cloud 2">
      <g mask="url(#mask)">
        <path id="Cloud_2-4" data-name="Cloud 2" d="M247.25 148.75a71 71 0 0 0-56.2 27.61 64.3 64.3 0 0 0-96.84 55.54l.1 2h-.42a46.27 46.27 0 0 0-46.26 46.2l.13 2.65c-17.84 8.3-29.26 21-29.26 35.21 0 25 35.27 45.29 78.79 45.29h336l-.05-.08c33.47-1 60.22-20.67 60.22-44.88 0-24.84-28.1-45-62.76-45a87.79 87.79 0 0 0-14.5 1.25 53.83 53.83 0 0 0-71.83-41.2 35.28 35.28 0 0 0-28.12-30.53 71.13 71.13 0 0 0-69-54.07" fill="#171616"/>
      </g>
      <path id="Cloud_2-5" data-name="Cloud 2" d="M247.25 148.75a71 71 0 0 0-56.2 27.61 64.3 64.3 0 0 0-96.84 55.54l.1 2h-.42a46.27 46.27 0 0 0-46.26 46.2l.13 2.65c-17.84 8.3-29.26 21-29.26 35.21 0 25 35.27 45.29 78.79 45.29h336l-.05-.08c33.47-1 60.22-20.67 60.22-44.88 0-24.84-28.1-45-62.76-45a87.79 87.79 0 0 0-14.5 1.25 53.83 53.83 0 0 0-71.83-41.2 35.28 35.28 0 0 0-28.12-30.53 71.13 71.13 0 0 0-69-54.07" stroke="#635c4f" stroke-miterlimit="10" stroke-width="12.79" fill="none"/>
    </g>
  </g>
</svg>
