<svg xmlns="http://www.w3.org/2000/svg" width="512" height="512">
  <defs>
    <pattern id="a" data-name="671" width="54.13" height="54.13" patternTransform="matrix(3.81 0 0 3.81 -733.32 -628.07)" patternUnits="userSpaceOnUse">
      <path fill="none" d="M0 0h54.13v54.13H0z"/>
      <path d="M1 4.23C2.21 4 4 2.9 7.12 3.31m2 .42A8.89 8.89 0 0 0 16 4m1.71-.69c3.58-.66 6 .92 7.5 1.09m2.08 0c1.5 0 2.59-.75 3.83-1.09a7.28 7.28 0 0 1 4.42.09m1.67.66c1.17.25 5.17.34 7.33-.75m1.84 0a7.24 7.24 0 0 1 3.55.5c1.36.92 3.19.42 3.61.5M3 8.15a9.51 9.51 0 0 1-3 .77m12 .23c-.42-.09-2.25.41-3.61-.5a7.17 7.17 0 0 0-3.56-.5m33.38 5.91c1.25-.25 3-1.33 6.17-.91m2 .41a8.86 8.86 0 0 0 6.83.25m-31.83 29c-3.17-.41-4.92.67-6.17.92m15-.25a8.86 8.86 0 0 1-6.83-.25m16.08.67c-1.5-.17-3.92-1.75-7.5-1.09m9.58 1.09c1.5 0 2.58-.75 3.84-1.09a7.25 7.25 0 0 1 4.41.09m-44.67-.25a12.61 12.61 0 0 1-5.12.9m14.12.1c-.41-.09-2.24.41-3.6-.5a7.17 7.17 0 0 0-3.52-.5M0 53.49a9 9 0 0 0 1-.34m9.29.41c-1.5-.16-3.91-1.75-7.5-1.08m17.83.08a7.32 7.32 0 0 0-4.41-.08c-1.25.33-2.33 1.08-3.83 1.08m17.24-1.08c-2.16 1.08-6.16 1-7.33.75m16.33.25c-.41-.08-2.24.42-3.6-.5a7.28 7.28 0 0 0-3.56-.5m14.92-.17c-3.17-.41-4.92.67-6.17.92M4.92 18.19a10.19 10.19 0 0 0-4.92.54m13.75.12a8.82 8.82 0 0 1-6.83-.25m16.08.67c-1.5-.17-3.92-1.75-7.5-1.08m17.83.08a7.24 7.24 0 0 0-4.41-.08c-1.25.33-2.34 1.08-3.84 1.08m17.25-1.08c-2.16 1.08-6.16 1-7.33.75m9.17-.75a7.17 7.17 0 0 1 3.56.5c1.35.91 3.19.41 3.6.5M7.17 32.81c-3.17-.41-4.92.67-6.17.92m8.17-.5a8.86 8.86 0 0 0 6.83.25m1.75-.67c3.58-.66 6 .92 7.5 1.09m2.08 0c1.5 0 2.59-.75 3.84-1.09a7.25 7.25 0 0 1 4.41.09m1.67.66c1.17.25 5.17.34 7.33-.75m1.84 0a7.28 7.28 0 0 1 3.56.5c1.35.92 3.19.42 3.6.5M7.29 47.69c-3.17-.42-4.91.66-6.17.91m8.17-.5a8.82 8.82 0 0 0 6.83.25m1.76-.66c3.58-.67 6 .91 7.5 1.08m2.08 0c1.5 0 2.58-.75 3.83-1.08a7.27 7.27 0 0 1 4.42.08m1.67.67c1.16.25 5.16.33 7.33-.75m9 1c-.42-.09-2.25.41-3.61-.5a7.17 7.17 0 0 0-3.56-.5M19 8.19c-3.16-.42-4.92.66-6.16.91m15.04-.25A8.85 8.85 0 0 1 21 8.6m8.62-.41c3.59-.67 6 .91 7.5 1.08m2.09 0c1.5 0 2.58-.75 3.83-1.08a7.27 7.27 0 0 1 4.42.08M7.88 14.19C6.38 14 4 12.44.38 13.1M10 14.19c1.5 0 2.58-.75 3.83-1.09a7.28 7.28 0 0 1 4.42.09m1.63.66c1.16.25 5.16.34 7.33-.75m1.79 0a7.28 7.28 0 0 1 3.56.5c1.36.92 3.19.42 3.61.5M7 22.94c-3.17-.42-4.92.66-6.17.91m14.96-.25A8.82 8.82 0 0 1 9 23.35m8.54-.41c3.58-.67 6 .91 7.5 1.08m2.08-.02c1.5 0 2.59-.75 3.84-1.08a7.27 7.27 0 0 1 4.42.08m1.62.69c1.17.25 5.17.33 7.34-.75m1.87 0a7.17 7.17 0 0 1 3.56.5c1.35.91 3.19.41 3.61.5m-32.67 3.87c-3.17-.41-4.92.67-6.17.92m15-.25a8.87 8.87 0 0 1-6.83-.25m16.08.67c-1.5-.17-3.91-1.75-7.5-1.09m9.59 1.09c1.5 0 2.58-.75 3.83-1.09a7.25 7.25 0 0 1 4.41.09M15.79 38.85c1.25-.25 3-1.33 6.17-.91m2.04.41a8.82 8.82 0 0 0 6.83.25m1.71-.66c3.58-.67 6 .91 7.5 1.08m2.08-.02c1.5 0 2.59-.75 3.84-1.08a7.27 7.27 0 0 1 4.42.08M5.5 37.81a13.14 13.14 0 0 1-5.5.91m7.33-.91a7.28 7.28 0 0 1 3.56.5c1.36.92 3.19.42 3.61.5M4.12 27.94a11.23 11.23 0 0 1-4.12.88m13.12.12c-.41-.09-2.24.41-3.6-.5a7.17 7.17 0 0 0-3.52-.5M49.75 8.9a16.48 16.48 0 0 0 4.37 0m-2.2 34.5a11.58 11.58 0 0 0 2.2.15m-5.79 9.35a9.35 9.35 0 0 0 5.79.59M52.88 19.1a10.14 10.14 0 0 0 1.24-.37m-1.83 19.83a10.3 10.3 0 0 0 1.83.16m-3.2-10.03a14.85 14.85 0 0 0 3.2.13" stroke-width=".3" fill="none" stroke="#000"/>
      <path d="M.46 1.88h0m2-.32h0M4.28.94h0M6.2.81h0m1.95.13h0m1.94.44h0m1.85.37h0m2.02.13h0m2.06-.32h0m1.82-.62h0m1.92-.13h0m1.95.13h0m1.94.44h0m1.73.37h0m2.01.07h0m2.06-.32h0m1.81-.62h0m1.93-.12h0m1.95.12h0m1.94.44h0m1.9.37h0m1.98.13h0m2.05-.32h0m1.82-.62h0m1.93-.12h0m1.95.12h0m1.94.44h0m1.73.37h0M.82 6.45h0m1.82-.62h0m1.93-.13h0m1.95.13h0m1.94.44h0m1.84.37h0m2.03.13h0m2.06-.32h0m1.82-.62h0m1.92-.13h0m1.95.13h0m1.94.44h0m1.73.37h0m2.01.07h0m2.05-.32h0m1.82-.62h0m1.93-.12h0m1.95.12h0m1.93.44h0m1.91.37h0m1.97.13h0m2.06-.32h0m1.82-.62h0m1.93-.12h0m1.94.12h0m1.94.44h0m1.73.37h0m1.99.07h0M.48 10.83h0m1.92-.13h0m1.95.13h0m1.94.44h0m1.84.37h0m2.03.13h0m2.06-.32h0m1.82-.62h0m1.92-.13h0m1.95.13h0m1.94.44h0m1.73.37h0m2.01.07h0m2.06-.32h0m1.81-.62h0m1.93-.12h0m1.95.12h0m1.94.44h0m1.9.37h0m1.98.13h0m2.05-.32h0m1.82-.62h0m1.93-.12h0m1.95.12h0m1.93.44h0m1.74.37h0m1.99.07h0m2.05-.32h0M.64 15.66h0m1.93-.12h0m1.95.12h0m1.94.44h0m1.84.37h0m2.03.13h0m2.06-.32h0m1.82-.62h0m1.92-.12h0m1.95.12h0m1.94.44h0m1.73.37h0m2.01.07h0m2.05-.32h0m1.82-.62h0m1.93-.12h0m1.95.12h0m1.93.45h0m1.91.37h0m1.97.12h0m2.06-.32h0m1.82-.62h0m1.93-.12h0m1.94.12h0m1.94.45h0m1.73.37h0m1.99.06h0m2.06-.31h0M1.16 21.45h0m1.82-.62h0m1.92-.13h0m1.95.13h0m1.94.44h0m1.84.37h0m2.03.13h0m2.06-.32h0m1.82-.62h0m1.92-.13h0m1.95.13h0m1.94.44h0m1.73.37h0m2.01.07h0m2.06-.32h0m1.81-.62h0m1.93-.12h0m1.95.12h0m1.94.44h0m1.9.37h0m1.98.13h0m2.05-.32h0m1.82-.62h0m1.93-.12h0m1.95.12h0m1.93.44h0m1.74.37h0m1.99.07h0M.99 26.11h0m1.82-.62h0m1.93-.12h0m1.94.12h0m1.94.45h0m1.85.37h0m2.03.12h0m2.05-.32h0m1.82-.62h0m1.93-.12h0m1.95.12h0m1.93.45h0m1.74.37h0m2 .07h0m2.06-.32h0m1.82-.62h0m1.92-.13h0m1.95.13h0m1.94.44h0m1.9.37h0m1.98.13h0m2.06-.32h0m1.82-.62h0m1.92-.13h0m1.95.13h0m1.94.44h0m1.73.37h0m1.99.07h0M.47 31.43h0m1.85-.32h0m1.82-.62h0m1.93-.12h0m1.95.12h0m1.94.45h0m1.84.37h0m2.03.12h0m2.06-.32h0m1.82-.62h0m1.92-.12h0m1.95.12h0m1.94.45h0m1.73.37h0m2.01.07h0m2.05-.32h0m1.82-.62h0m1.93-.13h0m1.95.13h0m1.93.44h0m1.91.37h0m1.97.13h0m2.06-.32h0m1.82-.62h0m1.93-.13h0m1.94.13h0m1.94.44h0m1.73.37h0M1.32 36.43h0m2-.32h0m1.82-.62h0m1.93-.12h0m1.95.12h0m1.94.45h0m1.84.37h0m2.03.12h0m2.06-.32h0m1.82-.62h0m1.92-.12h0m1.95.12h0m1.94.45h0m1.73.37h0m2.01.07h0m2.05-.32h0m1.82-.62h0m1.93-.13h0m1.95.13h0m1.93.44h0m1.91.37h0m1.97.13h0m2.06-.32h0m1.82-.62h0m1.93-.13h0m1.94.13h0m1.94.44h0m1.73.37h0M1.16 41.27h0m2-.32h0m1.82-.62h0m1.92-.13h0m1.95.13h0m1.94.44h0m1.84.37h0m2.03.13h0m2.06-.32h0m1.82-.62h0m1.92-.13h0m1.95.13h0m1.94.44h0m1.73.37h0m2.01.07h0m2.06-.32h0m1.81-.62h0m1.93-.12h0m1.95.12h0m1.94.44h0m1.9.37h0m1.98.13h0m2.05-.32h0m1.82-.62h0m1.93-.12h0m1.95.12h0m1.93.44h0m1.74.37h0m-51.2 4.91h0m1.81-.62h0m1.93-.13h0m1.95.13h0m1.94.44h0m1.84.37h0m2.03.13h0m2.06-.32h0m1.82-.62h0m1.92-.13h0m1.95.13h0m1.94.44h0m1.73.37h0m2.01.07h0m2.05-.32h0m1.82-.62h0m1.93-.12h0m1.95.12h0m1.93.45h0m1.91.37h0m1.98.12h0m2.05-.32h0m1.82-.62h0m1.93-.12h0m1.95.12h0m1.93.45h0m1.73.37h0m1.99.06h0M.6 50.88h0m1.82-.62h0m1.93-.13h0m1.95.13h0m1.94.44h0m1.84.37h0m2.03.13h0m2.06-.32h0m1.82-.62h0m1.92-.13h0m1.95.13h0m1.94.44h0m1.73.37h0m2.01.07h0m2.05-.32h0m1.82-.62h0m1.93-.12h0m1.95.12h0m1.93.45h0m1.91.36h0m1.97.13h0m2.06-.32h0m1.82-.62h0m1.93-.12h0m1.94.12h0m1.94.45h0m1.73.36h0m1.99.07h0" stroke-linecap="round" stroke-width=".7" fill="none" stroke="#000"/>
    </pattern>
    <filter id="b" x="-.05" y="1.11" width="503.55" height="388.04" filterUnits="userSpaceOnUse" color-interpolation-filters="sRGB">
      <feFlood flood-color="#fff" result="bg"/>
      <feBlend in="SourceGraphic" in2="bg"/>
    </filter>
    <mask id="c" x="-.05" y="1.11" width="503.55" height="388.04" maskUnits="userSpaceOnUse">
      <path data-name="Cloud 6" d="M194.63 142.85c-53.32 0-105.25 42.19-115.91 92.73-83.43 30.24-48.22 90.41 0 104.31 0 0 3.53 37.09 67 37.09 1.58 0 3.19 0 4.85-.07 19.14 9.17 36.76 12.24 51.78 12.24 30.46 0 50.22-12.62 50.22-12.62s9.55.39 24.27.39c38.1 0 110.86-2.65 142.63-21.72 10 2.74 18.31 3.9 25.17 3.9 35.92 0 32.32-31.73 32.32-31.73s28.54-7.54 26.42-32.91c-1.59-19.17-19.5-30-36.38-30-7.62 0-15 2.19-20.63 6.8-23.2-26.17-62.25-36.23-93.59-36.23a123.33 123.33 0 0 0-22.31 1.97c-4.64-6.49-15.77-7.42-15.77-7.42-13.07-40.75-57.41-86.7-120.07-86.7" fill="url(#a)" filter="url(#b)"/>
    </mask>
  </defs>
  <g data-name="Cloud 6">
    <g mask="url(#c)">
      <path data-name="Cloud 6" d="M194.63 142.85c-53.32 0-105.25 42.19-115.91 92.73-83.43 30.24-48.22 90.41 0 104.31 0 0 3.53 37.09 67 37.09 1.58 0 3.19 0 4.85-.07 19.14 9.17 36.76 12.24 51.78 12.24 30.46 0 50.22-12.62 50.22-12.62s9.55.39 24.27.39c38.1 0 110.86-2.65 142.63-21.72 10 2.74 18.31 3.9 25.17 3.9 35.92 0 32.32-31.73 32.32-31.73s28.54-7.54 26.42-32.91c-1.59-19.17-19.5-30-36.38-30-7.62 0-15 2.19-20.63 6.8-23.2-26.17-62.25-36.23-93.59-36.23a123.33 123.33 0 0 0-22.31 1.97c-4.64-6.49-15.77-7.42-15.77-7.42-13.07-40.75-57.41-86.7-120.07-86.7" fill="#2b261e"/>
    </g>
    <path data-name="Cloud 6" d="M194.63 142.85c-53.32 0-105.25 42.19-115.91 92.73-83.43 30.24-48.22 90.41 0 104.31 0 0 3.53 37.09 67 37.09 1.58 0 3.19 0 4.85-.07 19.14 9.17 36.76 12.24 51.78 12.24 30.46 0 50.22-12.62 50.22-12.62s9.55.39 24.27.39c38.1 0 110.86-2.65 142.63-21.72 10 2.74 18.31 3.9 25.17 3.9 35.92 0 32.32-31.73 32.32-31.73s28.54-7.54 26.42-32.91c-1.59-19.17-19.5-30-36.38-30-7.62 0-15 2.19-20.63 6.8-23.2-26.17-62.25-36.23-93.59-36.23a123.33 123.33 0 0 0-22.31 1.97c-4.64-6.49-15.77-7.42-15.77-7.42-13.07-40.75-57.41-86.7-120.07-86.7" stroke="#aea38d" stroke-miterlimit="10" stroke-width="12.64" fill="none"/>
  </g>
</svg>
