<svg xmlns="http://www.w3.org/2000/svg" width="512" height="512">
  <defs>
    <pattern id="a" data-name="609" width="85.04" height="85.04" patternTransform="matrix(2.44 0 0 2.44 -644.7 -587.82)" patternUnits="userSpaceOnUse">
      <path fill="none" d="M0 0h85.04v85.04H0z"/>
      <path d="M1.79 2.62h0m3.17-.34h0m3.39-.56h0m3-.5h0M1.62 4.83h0m2.82-.13h0m3.18-.44h0m3.17-.79h0M1.62 6.89h0m2.63-.25h0m2.62-.38h0m2.69-.5h0m2.81-.68h0m2.82-.94h0m2.37-1.31h0M1.37 9.01h0m2.25-.25h0m2.21-.33h0m2.25-.5h0m2.25-.42h0m2.17-.66h0m2.08-.67h0m2.17-.75h0m2.16-.92h0m1.92-.83h0m1.92-1.08h0m4.16-.32h0m-1.68 1.07h0m-1.75.87h0m-1.75 1h0m-1.82.75h0m-1.87.88h0m-1.88.68h0m-1.87.75h0m-1.88.57h0m-1.81.5h0m-2 .56h0m-1.94.25h0m-2 .37h0m-2 .13h0m-1.93.06h0m1.25 1.25h0M.69 13.33h0m7 2.81h0m-2.07.06h0m-2.12.06h0m-2.25-.18h0m2.37 3.18h0m-2.87-.12h0m5.75.19h0m2.81-.13h0m2.5-.25h0m2.38-.37h0m5.37 1.93h0m2-.62h0m-4.37 1.12h0m-2.32.44h0m-2.62.31h0m-2.5.25h0m-5.38.13h0m2.57 0h0m-5.25-.06h0m.37 3.5h0m5.81 2.81h0m-6.18.19h0m3.25-.07h0m12.62-1.06h0m-3.19.44h0m-3.18.31h0m9.25-1.25h0M3.25 32.08h0m2.19-.13h0m2-.12h0m-6.38.25h0m8.19-.44h0m2-.25h0m2-.25h0m2.19-.31h0m2.06-.44h0m2-.29h0m1.94-.52h0m2.06-.57h0m2.12-.5h0m1.94-.62h0m1.88-.56h0m4.66.89h0m3.38.25h0m3 .06h0m2.68-.12h0m-6 3h0m-3.68-.25h0m-3.88-.63h0m10.81.88h0m3.38-.25h0m2.44-.38h0m2.5-.31h0m2.37-.31h0m-27.91-3.71h0m2.81-.69h0m2.5-.75h0m2.37-.81h0M5 25.64h0m3.31-.13h0m3-.18h0m3-.38h0m2.56-.31h0m2.5-.44h0m2.32-.5h0m2.18-.56h0m2.25-.69h0m2.25-.81h0m3 5.06h0m1.75-.62h0m2.07-.82h0m-2.07-1.93h0m4.11 1.14h0M39 23.45h0m1.69-1.06h0m-1.71 2.89h0m1.87.82h0m1.88.68h0m1.93.57h0m1.94.68h0m2 .38h0m-13.04-6.02h0m-31.9-9.54h0m1.75.93h0m1.82.82h0m1.87.68h0m1.88.63h0m2 .62h0m1.93.5h0m1.94.44h0m1.94.5h0m1.87.5h0m1.94.38h0m1.88.43h0m2 .38h0m4.06.79h0m2.17.25h0m2.16.17h0m2.25 0h0m2.67.08h0m-11.25-.83h0m-5.1-2.73h0m4.31.81h0m3.75.38h0m3.94.25h0m3.75.12h0m3 2.15h0m2.29 0h0m1.87-.07h0m37.81 11h0m-1.06 1.13h0m.31 2.06h0m-.06 2.5h0m-.62 3.81h0m1.12 3.69h0m-3-.06h0m-2.94-.19h0m-3-.37h0m-3.12-.32h0m-2.81-.5h0m-2.94-.56h0m-3-.94h0m19.21 6.92h0M84 53.08h0m-2.13-.13h0m-2.18-.12h0m-1.88-.13h0m-2.15-.17h0m-2-.31h0m-2-.31h0m-2.2-.38h0m-8.92-2.25h0m2.08.67h0m2.09.67h0m2.58.5h0m-8.81-2.71h0m-1.82-.81h0m-1.75-.94h0m-1.75-1h0m3.19-3h0m-1.87.69h0m-2 .68h0m-1.88.69h0m-2 .56h0m-1.87.44h0m-1.94.44h0m-1.94.5h0m-1.87.44h0m-1.94.5h0m-2 .43h0m-1.94.32h0m-1.81.5h0m-2.06.37h0m-1.94.31h0m-1.94.32h0m-1.94.31h0m-2 .31h0m-2 .25h0m-1.93.31h0m-1.94.25h0m-1.94.19h0m-2 .31h0m-1.87.25h0m-2.29.3h0m-2.13.18h0m-2.06.07h0m-2 .25h0m-2.19.25h0M3.6 55.1h0m-1.62-.82h0m4.68 19.63h0m-2 .12h0m-1.83 0h0m-2.04.13h0m2.12 1.81h0m-.93 2.5h0m-.82 3.13h0m.13 2.93h0m3-.25h0m3-.31h0m2.87-.5h0m2.94-.62h0m2.63-.63h0m-11.5-.69h0m3-.31h0m2.87-.56h0m-5.31-3.88h0m1.81.82h0m1.94.75h0m1.87.56h0m1.88.69h0m1.87.62h0m1.94.56h0m1.94.5h0m2.06.44h0m1.75.38h0m1.94.37h0m2.12.44h0m1.94.37h0m1.94.32h0m2 .37h0m2 .25h0m2 .19h0m1.94.06h0m2 .06h0m1.87.19h0m2.25-.06h0m1.94 0h0m2.06-.13h0m1.94-.25h0m2-.31h0m2-.19h0m2-.31h0m1.81-.31h0m1.88-.38h0m2.06-.58h0m2.17-.58h0m2.41-.47h0m2.5-.7h0m2.42-.75h0m2.08-.5h0m-6.89 5.52h0m-2.5-1.06h0m-19.29-.9h0m7.81-.56h0m-3.94.44h0m10.25-1.25h0m-3.12.5h0m9.43-2h0m-3.12.87h0m-21.06 1.88h0m-1.15-1.79h0m2.87.18h0m3 0h0m3.07-.12h0m2.87-.38h0m3.06-.31h0m2.94-.62h0m2.94-.75h0m2.75-.75h0m3-1h0m1.65 1.91h0m7.56-3.31h0m-2.31 1.19h0m-2.63 1.12h0m4.79.71h0m1.81-.62h0m1.88-.75h0m1.81-.88h0m1.81-.87h0m1.19 2.37h0m-5.5 2.31h0m2.81.69h0m3.13.56h0m-.25 3.07h0m-2.5-.15h0m-2.42-.25h0m-2.8-.58h0m-2.86-.75h0m-2.59-1.09h0m-1.89-5.75h0m-27.44 2.5h0m3 .07h0m3 .06h0m2.94-.31h0m3.06-.32h0m2.75-.56h0m2.44-.56h0m2.25-.63h0m2-.62h0M38.29 78.1h0m1.25-2.69h0m8.31.44h0m-5.44-.13h0m2.88.19h0m5.19-.25h0m2.25-.25h0m1.93-.31h0m1.88-.44h0m-7.19-1.88h0m-2.56.32h0m-2.81.06h0m-3-.19h0m-3.19.19h0m8.69-2.88h0m1.81.82h0m1.87.62h0m1.94.5h0m1.88.5h0m1.93.38h0m1.94.31h0m2 .19h0m2 .18h0m2 .07h0m1.94.18h0m2.06 0h0m1.94 0h0m2 0h0m2.12 0h0m2 .07h0m1.94 0h0m2.06.06h0m2.13-.13h0m1.75.13h0M34.23 72.1h0m2.31 2.75h0m-2.88-.69h0m-3.37-.94h0m5.06 4.44h0m1.19 2.81h0m-2.94-.44h0m3.34 2.42h0m-4.46-5.42h0m-1.88 2.5h0m2.34 2.48h0m-5.21-3.1h0m1.87-2.5h0m-2.94-.94h0m-2.81-.94h0m-1.87 2.57h0m2.81 1.06h0m3.58 3.23h0m-9.27-5.17h0m-2.75-1h0m7.71 5.29h0m-4.37-1.06h0M15.5 78.2h0M12 76.95h0M8.44 75.7h0m.22-1.98h0m2-.12h0m1.88-.25h0m2.06-.13h0m2-.25h0m2-.12h0m2-.32h0m1.88-.25h0m1.93-.25h0m2-.31h0m1.88-.31h0m2.06-.38h0m2-.25h0m1.81-.43h0m2.07-.32h0m1.93-.5h0m2-.31h0m1.88-.37h0m1.94-.38h0m1.87-.56h0m1.94-.44h0m2-.44h0m1.87-.5h0m1.94-.62h0m1.94-.5h0m1.87-.63h0m1.94-.68h0m1.88-.69h0m1.75-.75h0m1.93-.75h0m-59.5-5.88h0m1.82.75h0m1.93.69h0m2 .63h0m1.88.62h0m1.75.5h0m2.06.5h0m1.88.5h0m1.93.5h0m1.94.38h0m2 .31h0m1.88.31h0m1.93.31h0m2.05.17h0m2 .17h0m2.25.16h0m2.5.34h0m2.33.25h0m2.5.16h0m-8.23-3.27h0m-4.06-.43h0m-4.13-.63h0m-4.5-.87h0m-4.06-1.07h0m-3.81-1.25h0m-3.63-1.31h0m28.07 5.81h0m-20.73-6.81h0m24.54 6.88h0m3.69-.07h0m-24.4-5.81h0m5.62-2.48h0m2.82.63h0m3 .75h0m2.93.56h0m2.94.44h0m3 .37h0m2.88.19h0m3.06.19h0m2.87.12h0m3.07-.25h0m3-.25h0m2.93-.37h0m2.38-.44h0m2.25-.88h0m2-.87h0m-31.38-1.63h0m3.13.75h0m2.81.5h0m2.94.38h0m2.94.31h0m2.87 0h0m2.81.19h0m2.44-.06h0m2-.25h0m1.88-.25h0m1.93-.32h0m1.88-.5h0m-4.13-1.43h0m-2.06.5h0m-3.19-2.07h0m2.25-.12h0m-3.68 2.31h0m2.5 0h0m-3.82-2.44h0m-1.87 2.19h0m-.75-2.56h0m-2.63 1.87h0m-3.06-.81h0m-17.56 6.56h0m3.5.84h0m3.5.5h0m3.83.5h0m3.29.1h0m3 .19h0m2.88 0h0m3.06-.06h0m3.38-.13h0m3.31-.19h0m3-.37h0m2.75-.38h0m3-.56h0m2.94-.56h0m2.75-.56h0m2.62-.57h0m2.75-.62h0m-24.1 6.67h0m4-.38h0m3.5-.5h0m-12.46 4.17h0m2.37-.09h0m2.07-.12h0m1.93-.25h0m1.94-.25h0m1.94-.25h0m2.06-.19h0m1.94-.37h0m2-.38h0m1.94-.44h0m-2.36-2.33h0m3.19-.56h0m3.13-.63h0m3-.87h0m2.43-.69h0m2.54-.85h0m2.42-.92h0m6.33.1h0m-1.75 1.07h0m-1.81.68h0m-1.81.82h0m-1.94.68h0m-1.87.63h0m-1.94.56h0m-1.88.56h0m-2 .57h0m-1.87.43h0m-2.06.5h0m-19.98-16.7h0m-3.75.93h0m-4.06.94h0m-3.82.88h0m-4.31.75h0m-3.87.62h0m-3.57.44h0m-19.58.64h0m3.27.17h0m3 0h0m3.44 0h0m3.37-.19h0m3.19-.25h0M37.1 43.6h0m-2.54.29h0m-12.27 1.14h0m2.5-.25h0m2.5-.16h0m2.25-.25h0m2.58-.25h0m-12.83 1.04h0m-2.94.12h0m-3 .07h0m-3.06 0h0m-2.94.06h0m-2.94-.13h0m-3.06-.06h0m20.75-2.37h0m-3-.07h0m-3 0h0m-3.06-.18h0m-2.94-.19h0m-3-.06h0m-3-.25h0m-2.87-.32h0m23.75 1h0m53.58 6.11h0m-3.87-.44h0m-3.82-.62h0m-4-.88h0m-3.56-1h0m-3.62-1.37h0m20.16-3.48h0m-3.06-.63h0m-2.88-.69h0m6.63-2.87h0m.94-2.88h0m-1.82.88h0m-1.87.81h0m-1.88.69h0m-1.87.69h0m-3.6-3.4h0m1.66 4.02h0m-1.94.5h0m-2 .44h0m-1.87.62h0m-1.88.44h0m-2 .31h0m-2 .38h0m-1.87.37h0m-2 .38h0m-1.94.25h0m-2.06.31h0m-1.88.25h0m-1.93.13h0m-2.07.25h0m-2.18.12h0m-2.75 0h0m-2.07-.12h0m-2-.13h0m-1.93-.25h0m-1.94-.12h0m-2.06-.32h0m-1.94-.31h0m-1.94-.31h0m-2-.31h0m-1.87-.25h0m-1.82-.44h0m-2.06-.38h0m-2.06-.56h0m.81 1.69h0m-3-.31h0m-2.94-.25h0m-3-.44h0m-2.93-.5h0m-2.94-.56h0m-2.94-.5h0m11.69.56h0m-3-.44h0m-2.81-.62h0m-2.94-.94h0m-2.88-.88h0m15 2.69h0m-1.87-.56h0m-1.88-.56h0m-2-.69h0m-1.93-.63h0m-1.75-.62h0m-1.75-.75h0m-1.48-.83h0m-1.38-.82h0m65.44 2h0m-3.12 1.38h0m-3.13 1.06h0m-3.62 1.06h0m-3.63.75h0m-15.44 1.13h0m3.69.12h0m3.81-.18h0m3.82-.44h0m-15.25.31h0m-3.75-.44h0m-3.32-.56h0m.92-2.85h0m-3.38-.88h0m-.91 2.98h0m-7-2.06h0m3.5 1.06h0M14 35.14h0m-3.06-1.31h0m10.88.7h0M18 33.01h0m17.23 4.21h0m6.43-3.44h0m-3.25.19h0m-3.43-.25h0m-3.69-.5h0m-3.38-.56h0m-3.25-1.06h0m7.38 5.37h0m6.12.44h0m6-3.88h0m2.32-.18h0m-5.5 4.12h0m7.68-4.37h0m6.44 2.68h0m2.63-.68h0m2.37-.69h0m2.38-.75h0m2.43-.88h0m-12.68 3.69h0m5-5h0m-2.25.5h0m-2.07.38h0m-2.12.43h0m-1.44 4.19h0m-2.62.25h0m-2.76.14h0m38.19-5.45h0m-2 0h0m-2-.06h0m-2-.13h0m-2.06-.06h0m-2-.13h0m-2-.06h0m-1.94-.19h0m-1.93-.18h0m-2.13-.25h0m-1.94-.19h0m-2-.25h0m-1.87-.25h0m-1.94-.38h0m-2.06-.31h0m-1.94-.37h0m-1.87-.38h0m-1.94-7.81h0m1.87-.25h0m2-.19h0m2-.31h0m2-.31h0m1.94-.25h0m2-.38h0m2-.44h0m1.94-.37h0m1.87-.44h0m1.88-.44h0m1.94-.5h0m1.93-.5h0m1.94-.62h0m1.88-.56h0m1.93-.69h0m1.82-.81h0m1.81-.82h0m1.87-.87h0m-27.41 5.42h0m3.87-.63h0m-7.87 1.31h0m-4.38.44h0m-3.93.19h0m20.18-2.81h0m3.44-1h0m3.25-1h0m3.13-1.19h0m-53.82 3.62h0m-3.81-1.12h0m-3.44-1.13h0M9.5 13.08h0m-2.65-1.3h0m5.19-.62h0m2.56 1.5h0m2.81 1h0m2.82 1h0m3 .56h0m2.87.5h0m2.94.38h0m3.06.31h0m3.19.25h0m3 .06h0m2.75-.12h0m2.87-.07h0m3-.37h0m2.32-.44h0m2.5-.56h0m2.43-.5h0m2.5-.69h0m2.44-.81h0m2.38-.81h0m-45.38-3h0m2.69 1.37h0m2.69.94h0m2.81.69h0m3.37.62h0m3.19.31h0m3.44.19h0m3.62-.19h0m3.25-.37h0m3.19-.44h0m2.63-.44h0m2.43-.43h0m2.25-.5h0M22.85 8.53h0m-2.5-.68h0m5.38 1.37h0m2.62.5h0m3.69-2.69h0m-2.63-.56h0m-3-.81h0m8.32 1.87h0m2.56.32h0m2.62.18h0m-9.75-5.25h0m1.88.94h0m1.69.63h0m1.81.87h0m1.94.75h0m1.93.63h0m1.88.62h0m1.87.56h0m2 .5h0m1.88.44h0m2 .44h0m1.87.31h0m1.94.38h0m2 .31h0m2 .12h0m2 .19h0m1.94.25h0m1.94.13h0m2 .18h0m2.06.07h0m2 .06h0m1.94-.06h0m2 .06h0m2.12 0h0m2.19-.13h0m2.12 0h0m2.25-.25h0m2.25 0h0m-49.93-.5h0m2.5-.06h0m2.5 0h0m2.43-.12h0m2.38-.25h0m-12.5.25h0M57.5 8.26h0m-3.92-.66h0m-19-6.32h0m11-.1h0m2.33.92h0m2.5 1h0m2.25.66h0m2.42.67h0m2.25.58h0m2.42.42h0m2.41.42h0M84 7.1h0m-2.34-.09h0M79 7.1h0m-2.67 0h0m-2.67-.17h0m-2.75-.08h0m-2.75-.25h0M65 6.18h0m9.41 3.58h0m-2.75-.12h0m-3.18-.19h0m-6.98-.77h0M37.58 2.6h0m3 1.33h0m3.17 1.08h0m3.1 1h0m3.31.92h0M65.23 9.2h0m11.68.56h0m2.38-.06h0m2.31-.19h0m2.31-.18h0M63.52 3.34h0m-3.06-.69h0m-2.88-1h0M54.64.4h0m11.82 3.5h0m2.81.38h0m2.94.25h0m.06-3.12h0M69.21.72h0m6.31 1.19h0m2.87.44h0m2.88.18h0m2.77.09h0m0 2.26h0m-2.9.02h0m-2.75-.06h0m-3.25-.12h0M6.56 58.08h0m-5.31-.63h0m2.62.31h0m2.75 3.63h0m4 .12h0m3.38-.12h0m3.12-.13h0m8.38 1.75h0m-3 .38h0m-2.75.25h0m-3.13.37h0m-3.62.25h0m-3.88.13h0m-4 .12h0m-3.68 3.5h0m-.69 3.75h0m3.75-.18h0m3.69-.25h0m4.06-.38h0m3.37-.44h0m3.25-.43h0m3.32-.5h0m2.93-.5h0m2.88-.57h0m2.81-.5h0m2.81-.68h0m2.75-.63h0m2.5-.62h0m2.13-.57h0m2.06-.62h0m-39 3h0m3-.19h0m3.06-.19h0m3.19-.18h0m3.06-.38h0m3.38-.31h0m2.94-.31h0m2.68-.5h0m2.88-.38h0m2.62-.44h0m2.19-.37h0m2.31-.38h0m-33.87.38h0m1.19-3.38h0m76.7-.68h0m-17.68 9.81h0m-4.38-.88h0m-4-1.16h0m12.69 2.73h0m4.25.37h0m3.81.25h0m3.81.13h0m4.25 0h0M59.46 66.2h0m3.93.63h0m4.19.5h0m3.5.37h0m3.19.13h0m3.06.18h0m3.13 0h0m3 0h0m-16.44-4.5h0m5 .38h0m5.12.5h0m5.25.25h0m-7.37-4.63h0m8.5 1h0m-.31-4.06h0m-8.59-32.19h0m-3.37-.31h0m-3.63-.5h0m-3.43-.56h0m-3.94-.75h0m-4.5-1h0m22.06 3.5h0m3.19.19h0m3 .25h0m-1.38 2.93h0m-4.06-.12h0m-4.31-.25h0m-4.38-.44h0m-5.06-.69h0m-4.56-.68h0m-4.5-.94h0m-4.56-1.06h0m-4.44-1.32h0m37.31-7.12h0m-3.31-.56h0m-3.69 2.81h0m-2.94-.5h0m5.75 1h0m3.07.31h0m.93 3.13h0m-2.75-.32h0m-2.68-.25h0m-2.88-.31h0m-2.62-.37h0M67 19.76h0m3.12.63h0M19.87 1.95h0M22.06.58h0m3.88-.13h0m-1.57 1h0m4-.12h0m1.07-1h0M24 84.26h0m-3.13 0h0m-4.75.13h0m2.07-1.19h0M13.75.51h0m-.06 2.32h0m2.37-1.07h0M18.69.58h0m-2.57 83.81h0m2.07-1.19h0" fill="none" stroke="#000" stroke-linecap="round" stroke-width=".7"/>
    </pattern>
    <filter id="b" filterUnits="userSpaceOnUse" color-interpolation-filters="sRGB">
      <feColorMatrix values="-1 0 0 0 1 0 -1 0 0 1 0 0 -1 0 1 0 0 0 1 0"/>
    </filter>
    <mask id="c" x="0" y=".68" width="493.5" height="376.02" maskUnits="userSpaceOnUse">
      <path data-name="Cloud 10" d="M343.38 135.3c-17.94 0-37.3 4-57.59 13.51-15-9.42-28.6-13-40.59-13-38.58 0-60.64 37.24-60.64 37.24a31.24 31.24 0 0 0-3.36-.15c-9.89 0-38.75 3.37-46.94 41.76a56.07 56.07 0 0 0-9-.74c-31.7 0-43.2 29.31-43.2 29.31a44.19 44.19 0 0 0-15.94-3.08c-11.83 0-26.84 5.47-32.52 31-26.7 14.29-14.28 52.18 8.08 52.18 13 29.43 67.33 49.52 118.4 49.52 22.21 0 43.79-3.8 61.1-12.26 0 0 21.17 16.11 44.57 16.11a43.2 43.2 0 0 0 28.09-9.9c11.48 5.74 28.29 9.12 46.37 9.12 32.79 0 69.72-11.13 86.54-39.55 69.56-3.1 94.39-90.67 27.31-123.59-12.23-37.67-54.47-77.48-110.71-77.48" fill="url(#a)" filter="url(#b)"/>
    </mask>
  </defs>
  <g data-name="Cloud 10">
    <g mask="url(#c)">
      <path data-name="Cloud 10" d="M343.38 135.3c-17.94 0-37.3 4-57.59 13.51-15-9.42-28.6-13-40.59-13-38.58 0-60.64 37.24-60.64 37.24a31.24 31.24 0 0 0-3.36-.15c-9.89 0-38.75 3.37-46.94 41.76a56.07 56.07 0 0 0-9-.74c-31.7 0-43.2 29.31-43.2 29.31a44.19 44.19 0 0 0-15.94-3.08c-11.83 0-26.84 5.47-32.52 31-26.7 14.29-14.28 52.18 8.08 52.18 13 29.43 67.33 49.52 118.4 49.52 22.21 0 43.79-3.8 61.1-12.26 0 0 21.17 16.11 44.57 16.11a43.2 43.2 0 0 0 28.09-9.9c11.48 5.74 28.29 9.12 46.37 9.12 32.79 0 69.72-11.13 86.54-39.55 69.56-3.1 94.39-90.67 27.31-123.59-12.23-37.67-54.47-77.48-110.71-77.48" fill="#aea38d"/>
    </g>
    <path data-name="Cloud 10" d="M343.38 135.3c-17.94 0-37.3 4-57.59 13.51-15-9.42-28.6-13-40.59-13-38.58 0-60.64 37.24-60.64 37.24a31.24 31.24 0 0 0-3.36-.15c-9.89 0-38.75 3.37-46.94 41.76a56.07 56.07 0 0 0-9-.74c-31.7 0-43.2 29.31-43.2 29.31a44.19 44.19 0 0 0-15.94-3.08c-11.83 0-26.84 5.47-32.52 31-26.7 14.29-14.28 52.18 8.08 52.18 13 29.43 67.33 49.52 118.4 49.52 22.21 0 43.79-3.8 61.1-12.26 0 0 21.17 16.11 44.57 16.11a43.2 43.2 0 0 0 28.09-9.9c11.48 5.74 28.29 9.12 46.37 9.12 32.79 0 69.72-11.13 86.54-39.55 69.56-3.1 94.39-90.67 27.31-123.59-12.23-37.67-54.47-77.48-110.71-77.48" stroke="#aea38d" stroke-miterlimit="10" stroke-width="12.66" fill="none"/>
  </g>
</svg>
