<svg xmlns="http://www.w3.org/2000/svg" width="512" height="512">
  <defs>
    <pattern id="a" data-name="725" width="80.56" height="80.5" patternTransform="matrix(2.44 0 0 2.44 -568.98 -462.66)" patternUnits="userSpaceOnUse">
      <path fill="none" d="M0 0h80.56v80.5H0z"/>
      <path class="c" d="m8.95 2.32 2.02 2.03M10.97 2.32 8.95 4.35M15.7 9.01l2.02 2.02M17.72 9.01l-2.02 2.02M2.38 9.01l2.03 2.02M4.41 9.01l-2.03 2.02M22.26 2.32l2.02 2.03M24.28 2.32l-2.02 2.03M29.01 9.01l2.02 2.02M31.03 9.01l-2.02 2.02M35.57 2.32l2.03 2.03M37.6 2.32l-2.03 2.03M42.32 9.01l2.03 2.02M44.35 9.01l-2.03 2.02M48.88 2.32l2.03 2.03M50.91 2.32l-2.03 2.03M55.65 9.01l2.02 2.02M57.67 9.01l-2.02 2.02M62.21 2.32l2.03 2.03M64.24 2.32l-2.03 2.03M68.96 9.01l2.03 2.02M70.99 9.01l-2.03 2.02M75.52 2.32l2.03 2.03M77.55 2.32l-2.03 2.03M8.95 28.95l2.02 2.02M10.97 28.95l-2.02 2.02M15.7 35.63l2.02 2.03M17.72 35.63l-2.02 2.03M2.38 35.63l2.03 2.03M4.41 35.63l-2.03 2.03M8.95 15.63l2.02 2.03M10.97 15.63l-2.02 2.03M15.7 22.32l2.02 2.03M17.72 22.32l-2.02 2.03M2.38 22.32l2.03 2.03M4.41 22.32l-2.03 2.03M22.26 28.95l2.02 2.02M24.28 28.95l-2.02 2.02M29.01 35.63l2.02 2.03M31.03 35.63l-2.02 2.03M22.26 15.63l2.02 2.03M24.28 15.63l-2.02 2.03M29.01 22.32l2.02 2.03M31.03 22.32l-2.02 2.03M35.57 28.95l2.03 2.02M37.6 28.95l-2.03 2.02M42.32 35.63l2.03 2.03M44.35 35.63l-2.03 2.03M35.57 15.63l2.03 2.03M37.6 15.63l-2.03 2.03M42.32 22.32l2.03 2.03M44.35 22.32l-2.03 2.03M48.88 28.95l2.03 2.02M50.91 28.95l-2.03 2.02M48.88 15.63l2.03 2.03M50.91 15.63l-2.03 2.03M55.65 35.63l2.02 2.03M57.67 35.63l-2.02 2.03M55.65 22.32l2.02 2.03M57.67 22.32l-2.02 2.03M62.21 28.95l2.03 2.02M64.24 28.95l-2.03 2.02M68.96 35.63l2.03 2.03M70.99 35.63l-2.03 2.03M62.21 15.63l2.03 2.03M64.24 15.63l-2.03 2.03M68.96 22.32l2.03 2.03M70.99 22.32l-2.03 2.03M75.52 28.95l2.03 2.02M77.55 28.95l-2.03 2.02M75.52 15.63l2.03 2.03M77.55 15.63l-2.03 2.03M8.95 55.51l2.02 2.02M10.97 55.51l-2.02 2.02M15.7 62.2l2.02 2.02M17.72 62.2l-2.02 2.02M2.38 62.2l2.03 2.02M4.41 62.2l-2.03 2.02M8.95 42.2l2.02 2.02M10.97 42.2l-2.02 2.02M15.7 48.88l2.02 2.03M17.72 48.88l-2.02 2.03M2.38 48.88l2.03 2.03M4.41 48.88l-2.03 2.03M22.26 55.51l2.02 2.02M24.28 55.51l-2.02 2.02M29.01 62.2l2.02 2.02M31.03 62.2l-2.02 2.02M22.26 42.2l2.02 2.02M24.28 42.2l-2.02 2.02M29.01 48.88l2.02 2.03M31.03 48.88l-2.02 2.03M35.57 55.51l2.03 2.02M37.6 55.51l-2.03 2.02M42.32 62.2l2.03 2.02M44.35 62.2l-2.03 2.02M35.57 42.2l2.03 2.02M37.6 42.2l-2.03 2.02M42.32 48.88l2.03 2.03M44.35 48.88l-2.03 2.03M48.88 55.51l2.03 2.02M50.91 55.51l-2.03 2.02M48.88 42.2l2.03 2.02M50.91 42.2l-2.03 2.02M55.65 62.2l2.02 2.02M57.67 62.2l-2.02 2.02M55.65 48.88l2.02 2.03M57.67 48.88l-2.02 2.03M62.21 55.51l2.03 2.02M64.24 55.51l-2.03 2.02M68.96 62.2l2.03 2.02M70.99 62.2l-2.03 2.02M62.21 42.2l2.03 2.02M64.24 42.2l-2.03 2.02M68.96 48.88l2.03 2.03M70.99 48.88l-2.03 2.03M75.52 55.51l2.03 2.02M77.55 55.51l-2.03 2.02M75.52 42.2l2.03 2.02M77.55 42.2l-2.03 2.02M8.95 68.81l2.02 2.02M10.97 68.81l-2.02 2.02M15.7 75.5l2.02 2.02M17.72 75.5l-2.02 2.02M2.38 75.5l2.03 2.02M4.41 75.5l-2.03 2.02M22.26 68.81l2.02 2.02M24.28 68.81l-2.02 2.02M29.01 75.5l2.02 2.02M31.03 75.5l-2.02 2.02M35.57 68.81l2.03 2.02M37.6 68.81l-2.03 2.02M42.32 75.5l2.03 2.02M44.35 75.5l-2.03 2.02M48.88 68.81l2.03 2.02M50.91 68.81l-2.03 2.02M55.65 75.5l2.02 2.02M57.67 75.5l-2.02 2.02M62.21 68.81l2.03 2.02M64.24 68.81l-2.03 2.02M68.96 75.5l2.03 2.02M70.99 75.5l-2.03 2.02M75.52 68.81l2.03 2.02M77.55 68.81l-2.03 2.02"/>
      <path class="d" d="M7.52 10.02h0M7.46 13.33h0M2.83 13.4h0M11.52 12.96h0M14.21 14.83h0M17.58 15.46h0M24.08 6.96h0M21.08 12.71h0M14.58 18.08h0M16.71 12.08h0M17.21 6.33h0M20.71 8.71h0M24.33 10.08h0M20.33 3.71h0M12.08 8.9h0M5.33 7.08h0M6.71 2.46h0M13.27.77h0M16.58 2.65h0M2.77 3.33h0M1.27 7.52h0M14.08 5.02h0M8.83 6.52h0M7.52 27.73h0M3.71 27.96h0M7.46 31.04h0M2.83 31.1h0M13.21 29.83h0M14.21 32.54h0M10.08 33.83h0M5.08 34.08h0M7.33 36.83h0M11.21 38.21h0M17.83 33.08h0M12.92 35.96h0M16.71 29.79h0M16.46 26.46h0M20.71 26.42h0M20.33 21.42h0M19.96 17.04h0M12.08 26.6h0M5.33 24.79h0M4.08 17.17h0M6.71 20.17h0M10.71 20.46h0M16.58 20.35h0M2.77 21.04h0M1.27 25.23h0M14.08 22.73h0M8.83 24.23h0M34.27 10.02h0M34.2 13.33h0M29.58 13.4h0M26.08 13.21h0M27.08 16.58h0M23.42 19.79h0M23.21 23.21h0M24.58 26.58h0M26.33 21.58h0M38.27 12.96h0M40.95 14.83h0M45.58 14.83h0M41.33 18.08h0M43.45 12.08h0M43.95 6.33h0M46.46 10.08h0M46.75 6.96h0M47.08 3.71h0M38.83 8.9h0M32.08 7.08h0M33.45 2.46h0M40.02.77h0M43.33 2.65h0M50.58 79.29h0M29.52 3.33h0M26.21 4.33h0M25.33.71h0M28.02 7.52h0M40.83 5.02h0M35.58 6.52h0M34.27 27.73h0M30.45 27.96h0M27.08 28.71h0M19.96 29.83h0M34.2 31.04h0M26.21 32.08h0M25.42 35.46h0M20.42 36.29h0M22.92 37.79h0M56.08 33.63h0M52.58 35.96h0M60.92 35.79h0M76.25 36.13h0M79.42 38.79h0M21.96 33.21h0M29.58 31.1h0M39.95 29.83h0M40.95 32.54h0M36.83 33.83h0M31.83 34.08h0M34.08 36.83h0M37.95 38.21h0M45.7 33.08h0M39.92 35.96h0M43.45 29.79h0M43.2 26.46h0M46.83 29.46h0M49.21 26.58h0M51.96 24.08h0M52.46 27.58h0M55.83 26.71h0M55.75 30.13h0M59.42 29.13h0M53.08 31.21h0M49.71 33.83h0M54.33 21.21h0M46.83 20.46h0M46.7 17.04h0M38.83 26.6h0M32.92 24.96h0M47.08 36.58h0M30.83 17.17h0M33.45 20.17h0M37.45 20.46h0M43.33 20.35h0M29.25 20.13h0M26.92 25.13h0M40.83 22.73h0M36.42 23.96h0M79.99 11.4h0M79.99 29.1h0M79.71 17.96h0M72.15 9.46h0M72.21 12.77h0M76.83 12.83h0M68.15 12.4h0M65.46 14.27h0M60.08 12.96h0M64.08 8.33h0M62.96 11.52h0M62.46 5.77h0M58.96 8.15h0M59.33 3.15h0M55.58 1.33h0M52.96 3.33h0M56.08 4.21h0M53.92 6.46h0M50.83 7.83h0M49.96 11.08h0M65.83 18.71h0M48.42 13.46h0M52.92 14.46h0M53.58 9.96h0M56.96 13.96h0M55.96 17.33h0M52.21 18.46h0M50.33 21.33h0M47.08 24.58h0M67.58 8.33h0M74.33 6.52h0M72.96 1.9h0M66.33.71h0M68.71 2.96h0M76.33 9.46h0M78.4 6.96h0M65.58 4.46h0M22.08 78.46h0M9.58 79.79h0M1.25 79.46h0M17.42 79.13h0M29.92 56.96h0M43.58 78.63h0M29.25 79.29h0M42.42 71.46h0M57.25 79.13h0M46.58 79.79h0M76.42 79.46h0M70.25 79.63h0M62.25 79.46h0M70.83 5.96h0M72.15 27.17h0M75.96 27.4h0M72.21 30.48h0M78.08 33.21h0M66.46 29.27h0M65.46 31.98h0M69.58 33.27h0M74.58 33.52h0M72.33 36.27h0M67.21 38.71h0M60.71 32.52h0M65.08 35.23h0M68.08 16.21h0M63.21 25.9h0M61.75 22.79h0M58.96 25.85h0M59.33 20.85h0M59.71 16.48h0M67.58 26.04h0M74.33 24.23h0M69.58 29.33h0M72.96 19.6h0M68.96 19.9h0M63.08 19.79h0M76.9 20.48h0M78.4 24.67h0M65.58 22.17h0M71.46 16.08h0M7.52 70.48h0M7.46 67.17h0M2.83 67.11h0M11.52 67.54h0M14.21 65.67h0M18.08 56.71h0M23.42 64.46h0M24.08 73.54h0M21.08 67.79h0M13.25 62.63h0M17.58 66.79h0M17.08 71.79h0M20.71 71.79h0M29.08 43.13h0M20.25 75.63h0M9.92 72.29h0M5.33 73.42h0M6.25 78.79h0M14.58 69.79h0M3.42 70.13h0M1.27 72.98h0M13.75 73.96h0M12.58 77.13h0M7.52 52.77h0M3.71 52.54h0M7.46 49.46h0M18.25 40.13h0M13.21 50.67h0M14.21 47.96h0M10.08 46.67h0M5.08 46.42h0M7.33 43.67h0M13.25 41.29h0M17.83 47.42h0M12.92 44.54h0M16.42 43.96h0M16.46 54.04h0M20.71 54.09h0M20.33 59.09h0M19.96 63.46h0M12.08 53.9h0M5.33 55.71h0M1.58 44.46h0M6.71 60.34h0M10.71 60.04h0M16.58 60.15h0M2.77 59.46h0M1.27 55.27h0M14.08 57.77h0M9.25 63.96h0M34.27 70.48h0M34.2 67.17h0M29.58 67.11h0M26.08 67.29h0M27.08 63.92h0M23.42 60.71h0M23.25 50.29h0M24.58 53.92h0M26.33 58.92h0M38.27 67.54h0M40.95 65.67h0M45.58 65.67h0M41.33 62.42h0M43.45 68.42h0M43.95 74.17h0M46.46 70.42h0M46.75 73.54h0M47.92 75.96h0M38.83 71.61h0M32.08 73.42h0M33.45 78.04h0M38.08 78.46h0M29.75 69.96h0M26.21 76.17h0M28.02 72.98h0M40.83 75.48h0M36.58 74.96h0M34.27 52.77h0M30.45 52.54h0M27.08 51.79h0M19.96 50.67h0M34.2 49.46h0M26.21 48.42h0M25.42 45.04h0M20.42 44.21h0M25.75 39.79h0M56.08 46.88h0M52.58 44.54h0M60.92 44.71h0M75.25 39.46h0M71.42 40.63h0M55.42 39.13h0M50.42 39.13h0M33.58 40.13h0M29.75 39.63h0M7.58 39.96h0M4.42 41.96h0M1.08 38.96h0M79.42 41.71h0M21.96 47.29h0M29.58 49.4h0M39.95 50.67h0M40.95 47.96h0M36.83 46.67h0M31.83 46.42h0M34.08 43.67h0M39.75 41.29h0M45.7 47.42h0M39.92 44.54h0M43.42 43.63h0M43.2 54.04h0M46.83 51.04h0M49.21 53.92h0M51.96 56.42h0M52.46 52.92h0M55.83 53.79h0M56.75 42.29h0M59.42 51.38h0M53.08 49.29h0M49.71 46.67h0M54.33 59.29h0M46.83 60.04h0M46.7 63.46h0M38.83 53.9h0M32.92 55.54h0M47.08 43.92h0M35.75 63.79h0M33.45 60.34h0M37.45 60.04h0M43.33 60.15h0M29.25 60.38h0M26.92 55.38h0M40.83 57.77h0M36.75 51.13h0M79.99 69.11h0M79.99 51.4h0M79.71 62.54h0M72.15 71.04h0M72.21 67.73h0M76.83 67.67h0M68.15 68.11h0M65.46 66.23h0M60.08 67.54h0M64.08 72.17h0M8.92 76.29h0M63.25 74.96h0M58.96 72.36h0M59.92 76.46h0M52.96 77.17h0M57.08 70.29h0M53.92 74.04h0M50.83 72.67h0M44.75 39.79h0M65.83 61.79h0M48.42 67.04h0M52.92 66.04h0M53.58 70.54h0M56.96 66.54h0M61.92 39.29h0M52.21 62.04h0M50.33 59.17h0M45.08 56.63h0M67.58 72.17h0M74.33 73.98h0M78.92 76.29h0M73.25 77.29h0M75.92 64.29h0M68.42 43.96h0M78.4 73.54h0M65.92 77.46h0M70.08 73.63h0M72.15 53.34h0M75.96 53.11h0M72.21 50.02h0M78.08 47.29h0M66.46 51.23h0M65.46 48.52h0M69.58 47.23h0M74.58 46.98h0M72.33 44.23h0M67.21 41.79h0M60.71 47.98h0M65.08 45.27h0M68.08 64.29h0M63.21 54.61h0M57.25 56.96h0M58.96 54.65h0M59.33 59.65h0M59.71 64.02h0M67.58 54.46h0M74.33 56.27h0M70.25 56.96h0M72.96 60.9h0M68.96 60.61h0M63.08 60.71h0M76.9 60.02h0M78.4 55.84h0M65.58 58.34h0M10.42 49.79h0"/>
    </pattern>
    <filter id="c" x="0" y="1.01" width="503.5" height="374.93" filterUnits="userSpaceOnUse" color-interpolation-filters="sRGB">
      <feFlood flood-color="#fff" result="bg"/>
      <feBlend in="SourceGraphic" in2="bg"/>
    </filter>
    <style>
      .c,.d{fill:none;stroke:#000}.c{stroke-width:.3px}.d{stroke-linecap:round;stroke-width:.6px}
    </style>
    <mask id="b" x="0" y="1.01" width="503.5" height="374.93" maskUnits="userSpaceOnUse">
      <path d="M268.34 156.06c-78.19 0-104.66 52.33-108.77 75.26a49.35 49.35 0 0 0-6.88-.41c-14.07 0-45.86 4.5-59 43.32a55.75 55.75 0 0 0-8.71-.71c-26.63 0-35 22-31.27 34.22-.44 0-.9-.05-1.34-.05-21.28 0-41.22 40.16.5 46.49 14.37 18.23 92.1 21.76 207.55 21.76s143.09-1.18 156-11.76a59.65 59.65 0 0 0 12.21 1.24c9.48 0 22-2.36 27.77-13.59a39.77 39.77 0 0 0 16.67 3.8c16.61 0 30.36-11.6 30.36-30.26 0-19.07-15.09-30.78-27.38-30.78a15.23 15.23 0 0 0-9.66 3.15s-6.32-21.86-33.1-21.86a56.54 56.54 0 0 0-8.64.7c-10.34-37.74-39.32-40-46.17-40-.93 0-1.46.05-1.46.05s-22.34-80.55-108.75-80.55" fill="url(#a)" filter="url(#c)"/>
    </mask>
  </defs>
  <g mask="url(#b)">
    <path d="M268.34 156.06c-78.19 0-104.66 52.33-108.77 75.26a49.35 49.35 0 0 0-6.88-.41c-14.07 0-45.86 4.5-59 43.32a55.75 55.75 0 0 0-8.71-.71c-26.63 0-35 22-31.27 34.22-.44 0-.9-.05-1.34-.05-21.28 0-41.22 40.16.5 46.49 14.37 18.23 92.1 21.76 207.55 21.76s143.09-1.18 156-11.76a59.65 59.65 0 0 0 12.21 1.24c9.48 0 22-2.36 27.77-13.59a39.77 39.77 0 0 0 16.67 3.8c16.61 0 30.36-11.6 30.36-30.26 0-19.07-15.09-30.78-27.38-30.78a15.23 15.23 0 0 0-9.66 3.15s-6.32-21.86-33.1-21.86a56.54 56.54 0 0 0-8.64.7c-10.34-37.74-39.32-40-46.17-40-.93 0-1.46.05-1.46.05s-22.34-80.55-108.75-80.55" fill="#171616"/>
  </g>
  <path d="M268.34 156.06c-78.19 0-104.66 52.33-108.77 75.26a49.35 49.35 0 0 0-6.88-.41c-14.07 0-45.86 4.5-59 43.32a55.75 55.75 0 0 0-8.71-.71c-26.63 0-35 22-31.27 34.22-.44 0-.9-.05-1.34-.05-21.28 0-41.22 40.16.5 46.49 14.37 18.23 92.1 21.76 207.55 21.76s143.09-1.18 156-11.76a59.65 59.65 0 0 0 12.21 1.24c9.48 0 22-2.36 27.77-13.59a39.77 39.77 0 0 0 16.67 3.8c16.61 0 30.36-11.6 30.36-30.26 0-19.07-15.09-30.78-27.38-30.78a15.23 15.23 0 0 0-9.66 3.15s-6.32-21.86-33.1-21.86a56.54 56.54 0 0 0-8.64.7c-10.34-37.74-39.32-40-46.17-40-.93 0-1.46.05-1.46.05s-22.34-80.55-108.75-80.55" stroke="#171616" stroke-miterlimit="10" stroke-width="11.98" fill="none"/>
</svg>
