<svg xmlns="http://www.w3.org/2000/svg" width="512" height="512">
  <defs>
    <pattern id="_703" data-name="703" width="72" height="72" patternTransform="matrix(1.25 0 0 1.25 -10.25 -66.52)" patternUnits="userSpaceOnUse">
      <path fill="none" d="M0 0h72v72H0z"/>
      <path class="cls-3" d="M0 20.72A101.45 101.45 0 0 0 8 8.24m2.63-2.85A53.09 53.09 0 0 0 15 0m2.69 22.14a83.67 83.67 0 0 0 11-15.75m-5.44 34.36C26 38 34.33 27.94 36.33 23.69M39 18.12C41.45 15.66 49 5.24 52 0M15.88 25.85A83.8 83.8 0 0 1 3.21 40.29M0 46.05a30.22 30.22 0 0 0 2.08-2.94M31.94 2.58A33.67 33.67 0 0 0 34.24 0M22.13 44.85C19.93 48.43 10.54 60 6.61 63.14m34.83-20.42c-1.57 3.34-6.67 7.83-9.72 11.63a32 32 0 0 1-2.19 2.51m25.89-33.22c-1.57 3.36-6.67 7.83-9.72 11.63-.84 1-1.6 1.91-2.19 2.5m6.38 13.69c.59-.59 1.34-1.46 2.18-2.5 3.06-3.81 8.15-8.3 9.72-11.64m-3.4-20.07c.59-.59 1.34-1.46 2.18-2.5 3.06-3.8 8.15-8.3 9.72-11.63m-2.98 23.2A58.17 58.17 0 0 0 72 20.47m0 25.34h0c-3.21 4.19-8 12.5-10.47 14.46m-35.26-.82C25.06 62 17.7 68.44 15.07 72m42.06-8c-.37.77-4.87 6.78-5.62 8h0m-5.85-16.19C44 59.18 38 67.45 34.29 72m36.87-11c-1.63 2.25-6 7.55-9.14 11"/>
      <path class="cls-4" d="M23.88 0c-.51.59-1 1.17-1.54 1.75M19.9 4.37l.82-.87m0 0c.53-.56 1.08-1.15 1.62-1.75"/>
      <path class="cls-3" d="m60.27 1.86-.35.36M61.88.1l-1.61 1.76"/>
      <path class="cls-4" d="m1.93 29.34 1.08-1.44M0 31.72l.43-.51m0 0c.53-.64 1-1.27 1.5-1.87m17.51 3.76L21 31.26M17.81 35l1.63-1.87m6.08-7.52-1.46 1.86M21 31.26l1.55-1.89m-.02 0 1.53-1.9m3-3.87.54-.72m-.54.72c-.43.57-.95 1.26-1.54 2m-8.89 10.66c.34-.36.74-.79 1.18-1.29M42.14 4.36l-1.52 1.91M37.42 10c.54-.59 1.09-1.19 1.63-1.81m1.57-1.92c-.52.63-1 1.25-1.57 1.87M37.42 10l-.65.69m6.85-8.29.66-.9m-2.14 2.86c.52-.67 1-1.33 1.48-2M70.75 33c.43-.49.84-1 1.25-1.47m-4.51 5.05-.67.71m2.32-2.5a94.9 94.9 0 0 0 1.61-1.82m-3.26 3.61c.54-.57 1.09-1.17 1.65-1.79M15.35 11.88c-.49.64-1 1.3-1.58 2m-1.52 1.78c.52-.6 1-1.2 1.52-1.8m2.55-3.27c-.29.41-.62.84-1 1.29m-4.68 5.6c-.56.62-1.11 1.22-1.65 1.79m3.26-3.61a94.9 94.9 0 0 1-1.61 1.82M9 19.27l-.67.7m42.2-3.79 1.45-2m-5.89 7.88c.48-.61 1-1.26 1.5-1.94m5.83-7.92 1.42-2m-4.31 5.98q-.72 1-1.47 2M52 14.2l1.44-2m1.4-1.96.43-.6m-6.21 8.52-1.47 2m-1.5 1.9c-.55.7-1.07 1.34-1.53 1.9m0 .04c-.45.53-.85 1-1.18 1.33m6.38 15.39.64-.67m0 0 1.62-1.75m3.19-3.69c-.5.61-1 1.22-1.55 1.83m1.55-1.83c.53-.65 1-1.29 1.52-1.91m-3.07 3.74a98.9 98.9 0 0 1-1.64 1.86m5.74-6.96-1 1.36M52 62.29l-1.12 1.18m7.44-8.62c-.48.64-1 1.31-1.57 2m1.57-2 .57-.76m-5.25 6.4L52 62.29m3.25-3.64-1.61 1.84m3.11-3.64-1.5 1.8m-49.68-6.8.85-.9M8 49.23c.55-.61 1.09-1.24 1.63-1.86M6.42 51c.52-.55 1-1.13 1.59-1.72m1.63-1.91 1.57-1.87m2.36-3.04-.81 1.09m-1.55 1.95c.55-.67 1.08-1.33 1.55-2M27 68.24l.94-1.26M24 72l1.57-1.87m-.02-.05 1.47-1.84m-2.81-16.62-.86.94m2.44-2.74c.5-.58 1-1.21 1.57-1.86m0 .04 1.55-1.89m4.55-5.8c.42-.55.78-1 1.06-1.42m-8.73 10.93a60.9 60.9 0 0 1-1.58 1.8m4.7-5.55 1.56-1.94m0 0 1.49-1.89m.04 0 1.5-1.93M0 .1l13.77 13.76m11.75 11.75L13.77 13.86m42.98 42.99L25.52 25.61m31.23 31.24L71.9 72m-3.31 0L55.25 58.65m-43-42.99 11.81 11.81m0 0 31.19 31.18M0 3.41l12.25 12.25M65.15 72 53.64 60.49M0 6.85l10.64 10.63m11.89 11.89L10.64 17.48m11.89 11.89 10.93 10.94m20.18 20.18L33.46 40.31m-12.48-9.05L8.99 19.27m11.99 11.99 10.98 10.98M61.72 72 52 62.29M31.96 42.24 52 62.29M0 10.28l8.99 8.99M19.44 33.1l11.03 11.03M19.44 33.1 0 13.66M58.34 72 30.47 44.13m-12.66-9.16 11.1 11.1M54.84 72 28.91 46.07M0 17.16l17.81 17.81M0 20.6l27.36 27.36M51.4 72 27.36 47.96M47.97 72 25.79 49.82M0 24.03l25.79 25.79M0 27.41l1.93 1.93m22.28 22.28L1.93 29.34M44.59 72 24.21 51.62M.43 31.21l12.33 12.34M0 30.78l.43.43M41.22 72 12.76 43.55M37.72 72 11.21 45.5M0 34.28 11.21 45.5m-1.57 1.87L34.28 72M0 37.72l9.64 9.65m-1.63 1.86 19.01 19.01M30.78 72l-3.76-3.76M0 41.22l8.01 8.01m-1.59 1.72 19.13 19.13M0 44.53l6.42 6.42M27.47 72l-1.92-1.92M0 47.97l23.98 23.98M0 51.47 20.53 72M0 54.85 17.15 72M0 58.28 13.72 72M0 61.72 10.28 72M0 65.16 6.84 72M0 68.6 3.4 72M72 3.47 68.53 0M72 6.72 65.28 0M72 10.22 61.88.1M58.41 0l1.86 1.86M72 13.59 60.27 1.86M72 17.09 54.91 0M72 20.53 51.47 0m-3.44 0L72 23.97M44.59 0l10.25 10.24m0 0L72 27.4M53.42 12.2 72 30.78M43.62 2.4l9.8 9.8M41.22 0l2.4 2.4m-1.48 1.96L37.78 0m14.2 14.2-9.84-9.84m9.84 9.84 18.77 18.77M72 34.22l-1.25-1.25M50.53 16.18l-9.91-9.91M72 37.65l-2.86-2.86M34.34 0l6.28 6.27m9.91 9.91 18.61 18.61M30.91 0l8.14 8.14m10.01 10.02L39.05 8.14M72 41.09l-4.51-4.51m0 0L49.06 18.16M37.42 9.95 27.47 0M72 44.53 47.59 20.12M37.42 9.95l10.17 10.17m-1.5 1.94L24.03 0m32.7 32.7L46.09 22.06M72 47.97 56.73 32.7M22.34 1.75l22.22 22.21M20.59 0l1.75 1.75M72 51.4 55.21 34.61m0 0L44.56 23.96M20.72 3.5l32.94 32.94M17.22 0l3.5 3.5M72 54.78 53.66 36.44M72 58.28 52.02 38.3M13.72 0l38.3 38.3M72 61.65l-21.6-21.6M10.34 0 50.4 40.05M6.91 0 72 65.09M3.47 0l11.88 11.88m42.97 42.97L72 68.53M27.06 23.6l31.26 31.25M27.06 23.6 15.35 11.88"/>
    </pattern>
    <filter id="luminosity-noclip" x="-.35" y="1.96" width="493.85" height="346.75" filterUnits="userSpaceOnUse" color-interpolation-filters="sRGB">
      <feFlood flood-color="#fff" result="bg"/>
      <feBlend in="SourceGraphic" in2="bg"/>
    </filter>
    <style>
      .cls-3,.cls-4{fill:none;stroke:#000;stroke-linecap:square}.cls-3{stroke-width:.5px}.cls-4{stroke-width:.3px}
    </style>
    <mask id="mask" x="-.35" y="1.96" width="493.85" height="346.75" maskUnits="userSpaceOnUse">
      <path id="Fill" d="M145.59 163.29a92.68 92.68 0 0 0-86.65 60 51 51 0 1 0 22.45 99.52A92.5 92.5 0 0 0 203.93 328a67.78 67.78 0 0 0 99.59-8 45.46 45.46 0 0 0 68.17-15.11 24.85 24.85 0 0 0 35.66-8.45c4.47.14 9 .23 13.76.23 40 0 72.39-5.54 72.39-12.36s-32.42-12.37-72.39-12.37q-7 0-13.62.22a24.8 24.8 0 0 0-35.6-8.8 45.48 45.48 0 0 0-63-19.11 67.73 67.73 0 0 0-80.77-30.35 92.61 92.61 0 0 0-82.49-50.56" fill="url(#_703)" filter="url(#luminosity-noclip)"/>
    </mask>
  </defs>
  <g id="Cloud_12" data-name="Cloud 12">
    <g id="Cloud_12-2" data-name="Cloud 12">
      <g mask="url(#mask)">
        <path id="Fill-2" data-name="Fill" d="M145.59 163.29a92.68 92.68 0 0 0-86.65 60 51 51 0 1 0 22.45 99.52A92.5 92.5 0 0 0 203.93 328a67.78 67.78 0 0 0 99.59-8 45.46 45.46 0 0 0 68.17-15.11 24.85 24.85 0 0 0 35.66-8.45c4.47.14 9 .23 13.76.23 40 0 72.39-5.54 72.39-12.36s-32.42-12.37-72.39-12.37q-7 0-13.62.22a24.8 24.8 0 0 0-35.6-8.8 45.48 45.48 0 0 0-63-19.11 67.73 67.73 0 0 0-80.77-30.35 92.61 92.61 0 0 0-82.49-50.56" fill="#ded1b8"/>
      </g>
      <path id="Cloud_12-3" data-name="Cloud 12" d="M145.59 163.29a92.68 92.68 0 0 0-86.65 60 51 51 0 1 0 22.45 99.52A92.5 92.5 0 0 0 203.93 328a67.78 67.78 0 0 0 99.59-8 45.46 45.46 0 0 0 68.17-15.11 24.85 24.85 0 0 0 35.66-8.45c4.47.14 9 .23 13.76.23 40 0 72.39-5.54 72.39-12.36s-32.42-12.37-72.39-12.37q-7 0-13.62.22a24.8 24.8 0 0 0-35.6-8.8 45.48 45.48 0 0 0-63-19.11 67.73 67.73 0 0 0-80.77-30.35 92.61 92.61 0 0 0-82.49-50.56" stroke="#d3aa5f" stroke-miterlimit="10" stroke-width="11.78" fill="none"/>
    </g>
  </g>
</svg>
