<svg xmlns="http://www.w3.org/2000/svg" xmlns:xlink="http://www.w3.org/1999/xlink" width="1024" height="1024" viewBox="0 0 1024 1024">
  <defs>
    <style>
      .cls-1 {
        fill: url(#_705);
        filter: url(#luminosity-invert);
      }

      .cls-2, .cls-3, .cls-7 {
        fill: none;
      }

      .cls-3 {
        stroke: #000;
        stroke-width: 0.3px;
      }

      .cls-4 {
        fill: #171616;
      }

      .cls-5 {
        mask: url(#mask);
      }

      .cls-6 {
        fill: #635c4f;
      }

      .cls-7 {
        stroke: #d9b776;
        stroke-miterlimit: 3;
        stroke-width: 18px;
      }
    </style>
    <pattern id="_705" data-name="705" width="53.5" height="53.5" patternTransform="translate(-1025.93 -879.54) scale(5.96)" patternUnits="userSpaceOnUse" viewBox="0 0 53.5 53.5">
      <rect class="cls-2" width="53.5" height="53.5"/>
      <path class="cls-3" d="M0,7.42C1.85,5.66,4.47,2.73,5.58,1.48l.76-1"/>
      <path class="cls-3" d="M4.08,5.23C3.08,6.4,1.67,8.4.92,9.15c-.23.23-.56.58-.92,1"/>
      <path class="cls-3" d="M8.67,1.81c-1.75,2-4.17,4.34-4.84,6A25.36,25.36,0,0,1,0,13.38"/>
      <path class="cls-3" d="M9,10.48a37.22,37.22,0,0,0-4.67,5.58A20,20,0,0,1,0,20"/>
      <path class="cls-3" d="M12.83,14.31c-1,1.09-6.83,8.17-8.41,10A40.19,40.19,0,0,1,0,28.43"/>
      <path class="cls-3" d="M8.25,22.31a51.22,51.22,0,0,0-5,5.59c-.73,1-2.09,2.82-3.25,4.2"/>
      <path class="cls-3" d="M6.75,26a52.35,52.35,0,0,0-4.83,6.5A11.64,11.64,0,0,1,0,35.39"/>
      <path class="cls-3" d="M15.08,19.23c-2.08,2.92-5.5,5.92-7.33,8.58s-3.25,4.92-5,7.42c-1.28,1.82-2,3-2.75,3.89"/>
      <path class="cls-3" d="M12.83,28.31c-1.75,2.42-6.83,7.25-8.5,8.84-1.26,1.2-2.87,3.22-4.33,4.7"/>
      <path class="cls-3" d="M8.33,35c-.91.67-3.25,3.33-5.83,6.08-.93,1-1.75,1.85-2.5,2.6"/>
      <path class="cls-3" d="M15.83,27a62.58,62.58,0,0,0-6.16,8.08,58.64,58.64,0,0,1-6.5,8.84A25.45,25.45,0,0,1,0,46.16"/>
      <path class="cls-3" d="M25.17,21.15C23.08,23.4,16.58,32.4,13.92,34.48S7.17,41.56,5.5,43.73c-1.53,2-3.29,4.33-5.5,6.7"/>
      <path class="cls-3" d="M3.25,1.73C2.58,2.65,1.42,3.06.92,4A4.41,4.41,0,0,1,0,5.1"/>
      <path class="cls-3" d="M45.88,15c.74-.81,2.43-2.81,3.68-3.94S52.5,8.31,52.5,8.31c.29-.23.63-.54,1-.89"/>
      <path class="cls-3" d="M34.06,31.29a86.43,86.43,0,0,0,6.94-8,57,57,0,0,1,7.31-7.75,18,18,0,0,0,2.61-2.31c.75-1,1.77-2.19,2.58-3.09"/>
      <path class="cls-3" d="M36.83,36.23a28.54,28.54,0,0,0,4.42-5.08c.81-1.38,4.75-9.3,6.19-11.23a63.18,63.18,0,0,1,5-5.36c.34-.33.71-.74,1.08-1.17"/>
      <path class="cls-3" d="M52.5,20.73l1-.7"/>
      <path class="cls-3" d="M45.63,32.11a59,59,0,0,0,4.44-4.94C51,25.86,52,24.47,52,24.47A11.73,11.73,0,0,1,53.5,22.7"/>
      <path class="cls-3" d="M44.76,35.3A51.81,51.81,0,0,1,49,30.8,13.05,13.05,0,0,1,51,29c.9-.86,1.74-1.68,2.51-2.53"/>
      <path class="cls-3" d="M35.17,53l1.21-1.5c.56-.75,1.93-2.81,3.5-5.25s2.87-5.5,4.43-7.38,4.07-4.31,5.31-6.25a15.81,15.81,0,0,1,2.3-2.87l1.58-1.3"/>
      <path class="cls-3" d="M48.88,36a17.6,17.6,0,0,1,3.46-2.64c.33-.34.73-.79,1.16-1.29"/>
      <path class="cls-3" d="M51.92,37.06c.67-.67,1.17-1.2,1.58-1.67"/>
      <path class="cls-3" d="M42.19,51.42c2-2.5,5.75-6.38,6.69-7.32s3.71-4,3.71-4a8,8,0,0,0,.91-.93"/>
      <path class="cls-3" d="M45.15,53.5l.52-.56s1.21-1.59,2.33-3.46a13.22,13.22,0,0,1,2.17-2.83,27.89,27.89,0,0,0,3.33-3"/>
      <path class="cls-3" d="M47.76,53.5l.66-.73a16.36,16.36,0,0,0,1.08-2.1,12.7,12.7,0,0,1,1-1.94,18,18,0,0,1,3-2.57"/>
      <path class="cls-3" d="M50.55,53.5l.78-.73,1.59-1.71.58-.63"/>
      <path class="cls-3" d="M36.94,25.92c.62-1.07,3.44-5.32,4.62-7.19s7.19-9.25,8.25-10.38a31,31,0,0,1,2.94-2.54c.2-.23.47-.45.75-.71"/>
      <path class="cls-3" d="M9.92,23.15c.66-.75,2.66-3.09,4.41-5S18.75,11.73,20,9.73A95.41,95.41,0,0,1,27,.9"/>
      <path class="cls-3" d="M10.17,27.65c1.5-1.92,4.33-5.5,5.66-6.92s4.59-5.17,6.84-8,8.5-8.5,10.75-11"/>
      <path class="cls-3" d="M23.67,18.31C25.33,16.06,35.08,6,37.83,2.81"/>
      <path class="cls-3" d="M22.75,15c-2.5,3.17-8.42,9.83-10.25,12a63.54,63.54,0,0,1-6.33,6.33"/>
      <path class="cls-3" d="M36.5,6.73A34.52,34.52,0,0,1,33.33,10c-1.33,1.17-3.91,3.92-5.58,5.75s-5,5.5-6.75,7.75-6.58,7.75-9.08,10.42"/>
      <path class="cls-3" d="M33.67,12.31c-1.25,1.59-3.92,4.42-5.42,6.59S23,26.06,21.58,28.06A29.51,29.51,0,0,1,18.33,32"/>
      <path class="cls-3" d="M25.83,24.48c2.34-2.33,7.67-7.75,9.92-9.58a43.39,43.39,0,0,0,6.08-6.5"/>
      <path class="cls-3" d="M52.78,53.5,53.5,53"/>
      <path class="cls-3" d="M49.46,2.82A13.31,13.31,0,0,0,48.38,4c-.57.75-2.07,3.06-3.26,4.44"/>
      <path class="cls-3" d="M16.56,37a57,57,0,0,0-5.37,5.56c-.75,1-2.07,3.75-3.25,5.07S4.88,50.6,4.38,51.1l-1,1.17-.9,1.23"/>
      <path class="cls-3" d="M29.75,31.42c-2.5,2.62-8.94,9.37-11.31,11.93S12.81,49.29,11.5,51c0,0,0,.44-1.33,1.61a4.1,4.1,0,0,0-.74.85"/>
      <path class="cls-3" d="M18.51,53.5l.91-1.23S20.38,50.6,22,48a74.29,74.29,0,0,1,8.69-10"/>
      <path class="cls-3" d="M23,53.5a13.37,13.37,0,0,1,2-3.19"/>
      <path class="cls-3" d="M12.31,53.5l.52-.73a21.79,21.79,0,0,1,2.86-3.85c1.62-1.69,4.69-4.82,6.12-6.57s8.69-9.5,10.38-12.12,4.43-6.25,5.43-8.06"/>
      <path class="cls-3" d="M39.19,30.35a106.27,106.27,0,0,1-6.94,8.13,125.36,125.36,0,0,0-8.13,9.87c-.93,1.44-3,4.5-3,4.5-.19.2-.38.42-.57.65"/>
      <path class="cls-3" d="M51.75,21.42c-.94.87-2.81,3.43-4.75,5.81a27.32,27.32,0,0,0-3.69,6.5,60,60,0,0,1-5.12,7.87,70.36,70.36,0,0,0-5.07,6.82,32.12,32.12,0,0,1-3.29,4.43c-.2.23-.37.44-.54.65"/>
      <path class="cls-3" d="M38.25,53.5c.45-.48.9-1,1.33-1.48a70.72,70.72,0,0,0,5.17-6.29c1.63-2.44,5.94-9.06,7.75-11.06"/>
      <path class="cls-3" d="M42.24,53.5a10.33,10.33,0,0,1,.76-.81s1.38-1.59,3.44-4.27a33.2,33.2,0,0,1,5.73-5.36,13.84,13.84,0,0,0,1.33-1.2"/>
      <path class="cls-3" d="M27.25,24.48c-.94,1-3.63,4-5.19,5.75a39.2,39.2,0,0,1-5.68,5.06,81.86,81.86,0,0,0-8.19,8"/>
      <path class="cls-3" d="M33.88,21.29c-1.44,1.13-8.82,11.81-10.57,13.94A32.49,32.49,0,0,1,17.38,41a64.13,64.13,0,0,0-6.63,5.81C9.38,48.17,7.69,51.92,6.69,53"/>
      <path class="cls-3" d="M37.88,15.29a72.36,72.36,0,0,1-6.32,6.06,44.87,44.87,0,0,0-6,6.94C24,30.6,20.31,34.79,19,35.67"/>
      <path class="cls-3" d="M27.25,32.42C28.38,31.23,37.44,19,38.88,17.17"/>
      <path class="cls-3" d="M40.12,17.92A120.47,120.47,0,0,1,48.69,7.29C50.38,5.54,51.25,4.6,53,3"/>
      <path class="cls-3" d="M48.69,16.54c-1.38,1.5-4.25,4.56-5.38,7.13a21.89,21.89,0,0,1-3,5.06"/>
      <path class="cls-3" d="M15.42,53.5l1.75-1.81S18,50.6,19,49.1a40.16,40.16,0,0,1,3.56-4.56,106.55,106.55,0,0,1,9.63-9.44,72.34,72.34,0,0,0,8.5-8.93"/>
      <path class="cls-3" d="M27,47.54a68,68,0,0,1,8.56-8.37l.42-.38"/>
      <path class="cls-3" d="M41.88,33.48c-1.63,2.94-5.32,6.81-7.32,9s-2.5,2.37-3.62,4.37-1.25,2.69-1.88,3.57a25.28,25.28,0,0,1-1.89,2.18c-.39.32-.73.62-1,.9"/>
      <path class="cls-3" d="M43.44,30.6a38.77,38.77,0,0,1,6.31-8.87,12.91,12.91,0,0,0,3.13-4.13"/>
      <path class="cls-3" d="M44,36.29c-1.88,2.81-5.62,8.19-6.69,10.06a32.66,32.66,0,0,1-3.25,4.32c-.81,1.06-1.23,1.68-1.23,1.68l-.91,1.15"/>
      <path class="cls-3" d="M46.62,38.35c-1.37,1.57-3.06,6.25-4.68,8.13s-1.38,1.75-2.56,3"/>
      <path class="cls-3" d="M29.75,46.1A50.81,50.81,0,0,1,25,52.6"/>
      <path class="cls-3" d="M11,49a53,53,0,0,1,5.38-5.5"/>
      <path class="cls-3" d="M21.19,35.29c-1.25,1.44-5.38,4.56-7.07,6.31"/>
      <path class="cls-3" d="M7.71,44.48a42.45,42.45,0,0,1-6,7.25A15.51,15.51,0,0,1,0,53"/>
      <path class="cls-3" d="M40.75,5.19c1.63-1.7,3-3.66,4.4-5.19"/>
      <path class="cls-3" d="M32.42,16.44C35.08,13,38.67,8.52,41.17,6.35A62.27,62.27,0,0,0,47.76,0"/>
      <path class="cls-3" d="M50.54,0A53.3,53.3,0,0,0,44,7.35c-1.58,2.34-2.92,5.75-3.83,6.84"/>
      <path class="cls-3" d="M50,2.14A9.8,9.8,0,0,1,52.78,0"/>
      <path class="cls-3" d="M2.43,0A13.25,13.25,0,0,1,.75,1.94"/>
      <path class="cls-3" d="M9.43,0a4.43,4.43,0,0,0-.54,1.14"/>
      <path class="cls-3" d="M18.5,0a74.53,74.53,0,0,1-6.33,7.52,28.36,28.36,0,0,0-3.5,4.75,64.2,64.2,0,0,1-5.42,7.25c-1,1.08-2.19,2.1-3.25,3.15"/>
      <path class="cls-3" d="M23,0c-.45.94-.75,1.69-.75,1.69a41.73,41.73,0,0,0-3.67,4.66A27,27,0,0,1,14,11.85c-2,1.84-6.25,5.5-7.25,6.42A24.92,24.92,0,0,0,2.17,23.6,19.93,19.93,0,0,1,0,26.42"/>
      <path class="cls-3" d="M5.67,8a63.5,63.5,0,0,1,4.5-5.33A22.75,22.75,0,0,0,12.3,0"/>
      <path class="cls-3" d="M7.92,15.69A108.82,108.82,0,0,0,16.67,5.52C18.5,3.06,19.49,1.26,20.51,0"/>
      <path class="cls-3" d="M17.25,16.85c1.75-2,6.92-9.16,8.5-11.5A61.12,61.12,0,0,1,29.28,0"/>
      <path class="cls-3" d="M17.58,24.6c1.17-1.33,3.17-4.5,5-7.25A143.35,143.35,0,0,1,32.67,5.44C34,4.13,36.13,2.25,38.25,0"/>
      <path class="cls-3" d="M35.58,9.6c1.85-2.21,4.61-7.16,6.66-9.6"/>
      <path class="cls-3" d="M15.42,0c-1.53,1.59-2.95,3.05-3.92,4a91.74,91.74,0,0,0-6.25,7c-1.5,2-2.83,3.92-3.67,4.92"/>
      <path class="cls-3" d="M11.17,18.94a85.33,85.33,0,0,0,5.41-7.09C18.17,9.69,21.75,4.44,23.17,3c1.11-1.12,1.82-2,3-3"/>
      <path class="cls-3" d="M31.91,0c-2,2.53-5,6.49-6.24,7.77"/>
    </pattern>
    <filter id="luminosity-invert" filterUnits="userSpaceOnUse" color-interpolation-filters="sRGB">
      <feColorMatrix values="-1 0 0 0 1 0 -1 0 0 1 0 0 -1 0 1 0 0 0 1 0"/>
    </filter>
    <mask id="mask" x="-0.11" y="1.18" width="984.47" height="938.64" maskUnits="userSpaceOnUse">
      <rect class="cls-1" x="49.76" y="58.88" width="934.59" height="880.94"/>
    </mask>
  </defs>
  <g id="Moon_Bold" data-name="Moon Bold">
    <path id="Moon" class="cls-4" d="M374.64,148.92C174.14,224.81,73.13,448.87,149,649.37S449,950.87,649.47,875A388.18,388.18,0,0,0,900.22,510.21a255.35,255.35,0,0,1-144,137.54C624.35,697.66,477,631.23,427.07,499.36S443.59,220.12,575.46,170.2h0l86.06-16.49A388.16,388.16,0,0,0,374.64,148.92Z"/>
    <g class="cls-5">
      <path id="Moon-2" data-name="Moon" class="cls-6" d="M374.64,148.92C174.14,224.81,73.13,448.87,149,649.37S449,950.87,649.47,875A388.18,388.18,0,0,0,900.22,510.21a255.35,255.35,0,0,1-144,137.54C624.35,697.66,477,631.23,427.07,499.36S443.59,220.12,575.46,170.2h0l86.06-16.49A388.16,388.16,0,0,0,374.64,148.92Z"/>
    </g>
    <path id="Moon-3" data-name="Moon" class="cls-7" d="M374.64,148.92C174.14,224.81,73.13,448.87,149,649.37S449,950.87,649.47,875A388.18,388.18,0,0,0,900.22,510.21a255.35,255.35,0,0,1-144,137.54C624.35,697.66,477,631.23,427.07,499.36S443.59,220.12,575.46,170.2h0l86.06-16.49A388.16,388.16,0,0,0,374.64,148.92Z"/>
  </g>
</svg>
