<svg xmlns="http://www.w3.org/2000/svg" xmlns:xlink="http://www.w3.org/1999/xlink" width="1024" height="1024" viewBox="0 0 1024 1024">
  <defs>
    <style>
      .cls-1 {
        filter: url(#luminosity-noclip);
      }

      .cls-2 {
        filter: url(#luminosity-noclip-2);
      }

      .cls-3 {
        fill: url(#_431-K);
        filter: url(#luminosity-noclip-3);
      }

      .cls-11, .cls-19, .cls-23, .cls-4, .cls-5, .cls-6, .cls-9 {
        fill: none;
      }

      .cls-11, .cls-12, .cls-13, .cls-5, .cls-6, .cls-9 {
        stroke: #000;
      }

      .cls-5, .cls-6 {
        stroke-width: 0.43px;
      }

      .cls-6 {
        fill-rule: evenodd;
      }

      .cls-7, .cls-8 {
        filter: url(#luminosity-invert);
      }

      .cls-8 {
        fill: url(#_705);
      }

      .cls-9 {
        stroke-width: 0.3px;
      }

      .cls-10 {
        fill: url(#_656);
        filter: url(#luminosity-noclip-4);
      }

      .cls-11 {
        stroke-linecap: round;
        stroke-width: 0.7px;
      }

      .cls-12, .cls-13, .cls-19, .cls-23 {
        stroke-miterlimit: 10;
      }

      .cls-12 {
        stroke-width: 4px;
      }

      .cls-14 {
        mask: url(#mask);
      }

      .cls-15 {
        mask: url(#mask-2);
      }

      .cls-16 {
        mask: url(#mask-3);
      }

      .cls-17 {
        mask: url(#mask-4);
      }

      .cls-18 {
        fill: #171616;
      }

      .cls-19, .cls-23 {
        stroke: #171616;
      }

      .cls-19 {
        stroke-width: 8px;
      }

      .cls-20 {
        mask: url(#mask-5);
      }

      .cls-21 {
        mask: url(#mask-6);
      }

      .cls-22 {
        fill: #e5cc9f;
      }

      .cls-23 {
        stroke-width: 10px;
      }

      .cls-24 {
        mask: url(#mask-7);
      }
    </style>
    <pattern id="_431-K" data-name="431-K" width="74.56" height="74.55" patternTransform="translate(-591.72 -1298.2) scale(6.1)" patternUnits="userSpaceOnUse" viewBox="0 0 74.56 74.55">
      <rect class="cls-4" width="74.56" height="74.55"/>
      <path class="cls-5" d="M63.9,11.15C67.4,8,71.13,2.15,72.85,0"/>
      <path class="cls-5" d="M70.42,0c-.7,1.06-1.3,2.1-1.45,2.36"/>
      <path class="cls-5" d="M57.6,15.31C62.5,12.82,63.66,6.58,68,3.61"/>
      <path class="cls-5" d="M57.4,13.82A104.83,104.83,0,0,1,66.15,2.91"/>
      <path class="cls-6" d="M50.58,19.43c2.84-2,7.94-11.29,8.9-12.6a14.05,14.05,0,0,1,3.32-3.4"/>
      <path class="cls-5" d="M62.44,0a50.31,50.31,0,0,0-6.11,8.53c-1.36,2.71-4.86,3.8-6.22,6.91"/>
      <path class="cls-5" d="M50,13.07c2.71-3.16,3.5-8.93,7.34-12.24"/>
      <path class="cls-5" d="M53.56,2.92c-1,1.4-1.43,2.42-2.18,3.42"/>
      <path class="cls-5" d="M38.3,12.43c1.05-.66,2.06-2.24,3.37-4.47,1.18-2,4-5.92,5.41-8"/>
      <path class="cls-5" d="M68.1,18.31c1.57-1.84,3.15-6.5,4-8.07A33.62,33.62,0,0,1,74.56,7"/>
      <path class="cls-5" d="M74.56,1.3A5,5,0,0,1,74,2c-1,1.18-4.2,4.8-4.85,5.71"/>
      <path class="cls-5" d="M59.57,17.33c2.55-4.14,6.1-4.73,9.58-9.59"/>
      <path class="cls-5" d="M73.48,11.68a16.87,16.87,0,0,1,1.08-1.54"/>
      <path class="cls-5" d="M68.56,0a20.29,20.29,0,0,1-2.41,2.91"/>
      <path class="cls-5" d="M54.05,8.27C55.84,6.66,57.77,2.8,60,0"/>
      <path class="cls-5" d="M62.41,2.71A18.75,18.75,0,0,0,65.9,0"/>
      <path class="cls-5" d="M74.56,3.64C74,4.53,73.62,5.27,73.08,6"/>
      <path class="cls-5" d="M72.56,19.69c-.92,1-4,4.65-5.08,6.21s-4.24,6.83-6,7.88"/>
      <path class="cls-5" d="M67.87,22.59a34.59,34.59,0,0,0-5.42,7.47c-1.57,3-4,4.72-5.31,5.9"/>
      <path class="cls-5" d="M63.11,25.79c2.3-4.26,6.74-6.19,10.94-13"/>
      <path class="cls-5" d="M69.76,12.34c-1.05,1.18-2.21,5.86-5.08,8.57"/>
      <path class="cls-5" d="M67.87,28.63c2.63-2.54,4.55-4.85,5-6.14a14.84,14.84,0,0,1,1.65-2.91"/>
      <path class="cls-5" d="M57.46,25a24.47,24.47,0,0,1-3.6,5.89c-1.38,1.58-1.51,2.63-2.17,4.07"/>
      <path class="cls-5" d="M57.86,23.1c.66-1.31,2-4.4,3.87-6a34,34,0,0,0,3.61-3.41"/>
      <path class="cls-5" d="M57.92,20.34c-1.83,1.91-6,5.84-7.21,8.08S47.23,34,46.06,36.15"/>
      <path class="cls-5" d="M43.9,38.15c.59-1.57,1.27-4.53,2.58-6a31,31,0,0,0,2.37-3"/>
      <path class="cls-5" d="M43.73,34.15a22.07,22.07,0,0,1,1.86-3.77c1.24-1.5,3.41-3,4.72-5.05a42.77,42.77,0,0,1,3.55-4.46"/>
      <path class="cls-5" d="M48.8,15.7c-1,1.18-1.64,3.86-2.82,6.74s-4.4,5.91-5.77,7.16a16.87,16.87,0,0,0-1.61,2,10.38,10.38,0,0,0-1.12,2.66"/>
      <path class="cls-5" d="M60,28.79c.33-.46,1.25-2.67,1.77-3.46,1.14-1.71,2.69-6.5,3.48-8.53s4.59-6.43,5.84-8"/>
      <path class="cls-5" d="M53.07,14.44c-1.25,1.51-3.87,3.87-4.4,5.64a14.16,14.16,0,0,1-1.25,3.35"/>
      <path class="cls-5" d="M56.61,15a19.59,19.59,0,0,0-3.87,4.6c-.92,1.64-2.37,3.12-5,6.35"/>
      <path class="cls-5" d="M54.66,21.71c1.52-2,1.46-2.27,1.43-2.22a14.16,14.16,0,0,1,2.51-3"/>
      <path class="cls-5" d="M48.86,8a25.1,25.1,0,0,0-3.53,6.55c-1.12,2.89-3.77,6.48-4.6,9"/>
      <path class="cls-5" d="M50.71,7.28a31.64,31.64,0,0,1-2.89,6.44,30.35,30.35,0,0,0-3,7c-.39,1.45-3.87,6.41-5.9,8"/>
      <path class="cls-5" d="M37.29,1.29A10.65,10.65,0,0,0,38,0"/>
      <path class="cls-5" d="M70.9,19.16a25.27,25.27,0,0,1,3.66-2.76"/>
      <path class="cls-5" d="M74.56,24.2c-2.88,3-6.79,8.12-6.79,8.12"/>
      <path class="cls-5" d="M53.61,2.88A26.19,26.19,0,0,1,56,0"/>
      <path class="cls-5" d="M53.73,0c-.82,1.05-2.19,2.52-3.44,3.87l-.1.08C49,5.29,47.27,6.69,47,7.23c-.7,1.23-2.19,5-4.59,6.89"/>
      <path class="cls-5" d="M51.75,0a18.29,18.29,0,0,0-1.63,2.17"/>
      <path class="cls-5" d="M45,6.6a26.5,26.5,0,0,0,2.66-3.43A14.36,14.36,0,0,0,49.47,0"/>
      <path class="cls-5" d="M27.6,9.52c4.08-2.3,6.24-7.37,8-9.52"/>
      <path class="cls-5" d="M33.13,0c-.69,1.06-1.29,2.1-1.44,2.36"/>
      <path class="cls-5" d="M20.31,15.31c4.9-2.49,6.06-8.73,10.44-11.7"/>
      <path class="cls-5" d="M20.7,13.13C22.27,9,26,5.91,28.86,2.91"/>
      <path class="cls-6" d="M13.23,19.11c2.84-2,8-11,9-12.28a17.11,17.11,0,0,1,3.6-3.78"/>
      <path class="cls-5" d="M25.15,0A50.31,50.31,0,0,0,19,8.53a15.54,15.54,0,0,1-3.25,4.27"/>
      <path class="cls-5" d="M11.85,14.58c4-2.53,3.78-9.9,8.24-13.75"/>
      <path class="cls-5" d="M5,14.06c2.41-1.93,3.76-5.34,4.46-6.57A19.1,19.1,0,0,1,11.9,3.32"/>
      <path class="cls-5" d="M1,12.43c1-.66,2.05-2.24,3.37-4.47C5.57,6,8.41,2,9.8,0"/>
      <path class="cls-5" d="M31.92,16.05c1.43-2.63,2-4.24,2.89-5.81A33.62,33.62,0,0,1,37.27,7h0A33.39,33.39,0,0,0,42,0"/>
      <path class="cls-5" d="M22.28,17.33c2.56-4.14,6.1-4.73,9.58-9.59.66-.91,3.8-4.53,4.86-5.71a5,5,0,0,0,.55-.73"/>
      <path class="cls-5" d="M36.19,11.68c.37-.59,1.1-1.54,1.1-1.54,2.11-2.63,4-3.16,6.33-8.5"/>
      <path class="cls-5" d="M0,7A33.43,33.43,0,0,0,4.68,0"/>
      <path class="cls-5" d="M0,10.14C2.11,7.51,4,7,6.33,1.64"/>
      <path class="cls-5" d="M37.27,30.47C36,31.61,36,32.71,34.55,33.86a29.62,29.62,0,0,0-3,3c-.08.14-.17.29-.27.44"/>
      <path class="cls-5" d="M31.28,0a20.39,20.39,0,0,1-2.42,2.91"/>
      <path class="cls-5" d="M28.61,37.28c3-2.87,6-6.8,8.66-9.71h0a24.37,24.37,0,0,1,2.46-2.37"/>
      <path class="cls-5" d="M17.23,8.42c1.56-1.88,3.59-6,5.47-8.42"/>
      <path class="cls-5" d="M25.12,2.71A18.12,18.12,0,0,0,28.61,0"/>
      <path class="cls-5" d="M0,3.63A23.76,23.76,0,0,1,2.76,0"/>
      <path class="cls-5" d="M35.8,6c.54-.72.93-1.46,1.47-2.35h0A22.5,22.5,0,0,1,40.05,0"/>
      <path class="cls-5" d="M4,30.52A16.26,16.26,0,0,0,2.26,33.6c-.26.79-.46,1.31-.46,1.31-.39.65-.7,1.51-1.1,2.37"/>
      <path class="cls-5" d="M36.1,19.55c-.91,1.05-4.68,4.81-5.9,6.35S26,32.73,24.25,33.78"/>
      <path class="cls-5" d="M31.23,22.36a36.37,36.37,0,0,0-6.06,7.7,16.22,16.22,0,0,1-4.4,5.33"/>
      <path class="cls-5" d="M25.82,25.79c2.3-4.26,6.71-5.86,10.91-12.68"/>
      <path class="cls-5" d="M31,15.11c-.73,1.57-1.2,3.49-2.81,5.44"/>
      <path class="cls-5" d="M31.34,27.38a25.05,25.05,0,0,0,3.83-3.77A28.92,28.92,0,0,0,37.23,21L38,19.61c.79-1.14,2.35-3,2.75-3.46"/>
      <path class="cls-5" d="M2,17a32.07,32.07,0,0,0-2,2.6"/>
      <path class="cls-5" d="M20.45,25a25,25,0,0,1-3.88,5.82c-1.38,1.58-1.51,2.63-2.17,4.07"/>
      <path class="cls-5" d="M20.77,23.56c.66-1.31,2-4.4,3.87-6a33,33,0,0,0,3.61-3.41"/>
      <path class="cls-5" d="M20.64,20.34c-1.84,1.91-6,5.84-7.22,8.08s-3.65,6.15-5,8.73"/>
      <path class="cls-5" d="M6.56,37.65c.59-1.57,1.33-4,2.64-5.54a30.34,30.34,0,0,0,2.36-3"/>
      <path class="cls-5" d="M5.9,35.48c.65-1.29,1.63-4.16,2.4-5.1,1.25-1.5,3.68-2.8,5-4.84a46.38,46.38,0,0,1,3.35-4.33"/>
      <path class="cls-5" d="M11,16.6c-1.05,1.18-1.11,3-2.29,5.84S4.3,28.35,2.92,29.6a16.87,16.87,0,0,0-1.61,2A10.27,10.27,0,0,0,.2,34.26"/>
      <path class="cls-5" d="M22.67,28.79c.33-.46,1.25-2.67,1.78-3.46,1.14-1.71,2.69-6.5,3.47-8.53s4.6-6.43,5.84-8"/>
      <path class="cls-5" d="M15,14.45c-1.25,1.51-3.09,3.86-3.61,5.63a14.64,14.64,0,0,1-1.25,3.35"/>
      <path class="cls-5" d="M19.79,14.36a24.65,24.65,0,0,0-4.34,5.2c-.91,1.64-3,3.42-5.39,7.42"/>
      <path class="cls-5" d="M18,20.54a34.71,34.71,0,0,1,3.91-4.74"/>
      <path class="cls-5" d="M12.57,6.23A39,39,0,0,0,8,14.5c-1.12,2.89-3.28,6.57-5.32,8.21"/>
      <path class="cls-5" d="M13.9,7a37.67,37.67,0,0,1-3.37,6.74,30.8,30.8,0,0,0-3,7C7.12,22.12,5,24.94,3,26.51"/>
      <path class="cls-5" d="M0,1.29A9.42,9.42,0,0,0,.69,0"/>
      <path class="cls-5" d="M6.43,7.68C6,8.33,4.5,11.75,3.77,12.73A14.34,14.34,0,0,1,.3,16.21L0,16.4"/>
      <path class="cls-5" d="M33,20.48a49.93,49.93,0,0,1,4.23-4.08h0l.29-.19a14.22,14.22,0,0,0,3.48-3.48c.72-1,2.78-3.86,3.21-4.51"/>
      <path class="cls-5" d="M29.4,34.32A117.89,117.89,0,0,1,37.27,24.2h0c.47-.49.92-.93,1.32-1.27,1-.84,3.36-5.38,5-7.61"/>
      <path class="cls-5" d="M.33,30.19a3,3,0,0,0-.33.28"/>
      <path class="cls-5" d="M0,27.57A26.67,26.67,0,0,1,2.46,25.2"/>
      <path class="cls-5" d="M4.93,15.88c-1.59,2.23-2.64,6.21-3.61,7-.39.34-.84.78-1.32,1.27"/>
      <path class="cls-5" d="M18.69,0a26.19,26.19,0,0,0-2.37,2.88l0,0c-1,1.4-1.44,2.42-2.18,3.42"/>
      <path class="cls-5" d="M16.45,0c-.83,1.05-2.2,2.52-3.45,3.87l-.62.74"/>
      <path class="cls-5" d="M14.46,0a18.29,18.29,0,0,0-1.63,2.17"/>
      <path class="cls-5" d="M7.68,6.6a26.5,26.5,0,0,0,2.66-3.43A15.21,15.21,0,0,0,12.19,0"/>
      <path class="cls-5" d="M65.42,46.65c3.69-3.11,5.71-7.23,7.43-9.37a4,4,0,0,1,.63-.66"/>
      <path class="cls-5" d="M73.48,73.89a4.48,4.48,0,0,0-.63.66"/>
      <path class="cls-5" d="M69,39.64c.15-.26.75-1.3,1.45-2.36.11-.18.23-.36.35-.53a13.78,13.78,0,0,1,1.92-2"/>
      <path class="cls-5" d="M57.6,52.59C62.5,50.09,64.37,44,68,40.88"/>
      <path class="cls-5" d="M58,50.4a68.37,68.37,0,0,1,8.16-10.21"/>
      <path class="cls-6" d="M50.58,56.7c2.84-2,7.94-11.29,8.9-12.6A13.75,13.75,0,0,1,63,41"/>
      <path class="cls-5" d="M49.93,53c2-3.06,5-4.52,6.4-7.23a49.91,49.91,0,0,1,6.11-8.53h0c.18-.2,1.76-1.86,1.9-2a52.85,52.85,0,0,0,3-4.38"/>
      <path class="cls-5" d="M63.28,71.66A9.41,9.41,0,0,0,60,74.55"/>
      <path class="cls-5" d="M49.85,50.5c3.58-3.53,3.49-8,7.26-11.64"/>
      <path class="cls-5" d="M38.06,51c1-1.66,3.19-3.93,4.5-6.16,1.18-2,5.32-9.19,5.92-10.17"/>
      <path class="cls-5" d="M69.27,53.83c1.58-1.84,2-4.74,2.83-6.32a33.85,33.85,0,0,1,2.46-3.19"/>
      <path class="cls-5" d="M74.56,38.57a5.75,5.75,0,0,1-.56.74c-1,1.17-4.2,4.79-4.85,5.71"/>
      <path class="cls-5" d="M59.57,54.6c2.55-4.13,6.1-4.72,9.58-9.58"/>
      <path class="cls-5" d="M73.48,49a15.59,15.59,0,0,1,1.08-1.54"/>
      <path class="cls-5" d="M70.42,74.55l.35-.52a13.73,13.73,0,0,1,1.92-2"/>
      <path class="cls-5" d="M74.56,67.74c-1.25,1.15-1.33,2.24-2.72,3.4a28.92,28.92,0,0,0-3,3c-.09.15-.18.3-.28.44"/>
      <path class="cls-5" d="M66.15,40.18a20.8,20.8,0,0,0,2.41-2.9l.28-.44a29.62,29.62,0,0,1,3-3c1.39-1.15,1.47-2.25,2.72-3.39"/>
      <path class="cls-5" d="M65.9,74.55c3-2.86,6-6.8,8.66-9.7"/>
      <path class="cls-5" d="M62.44,74.55l.49-.52a6.94,6.94,0,0,0,1.79-2,71.6,71.6,0,0,1,3.77-6.17"/>
      <path class="cls-5" d="M53.73,47c1.58-2.27,5.11-8.38,7.32-11.18"/>
      <path class="cls-5" d="M62.41,40a19.19,19.19,0,0,0,3.49-2.71c3-2.87,6-6.8,8.66-9.71"/>
      <path class="cls-5" d="M56,74.55l.67-.7"/>
      <path class="cls-5" d="M61.08,66.35c-1.71,2.69-5.45,6.17-6.17,6.89s-.68.61-.68.61c-.13.2-.31.44-.51.7"/>
      <path class="cls-5" d="M63.2,55.56a33,33,0,0,0-4.29,8.32c-.85,2.55-2.43,4-4,5.88a17.43,17.43,0,0,0-2.17,3.48,4.28,4.28,0,0,0-.48.7l-.53.61"/>
      <path class="cls-5" d="M47.08,74.55l.41-.61a13.59,13.59,0,0,1,1-2"/>
      <path class="cls-5" d="M46.7,62.15c-.32.78-2.82,3.61-3.41,4.72s-1,4.27-1.31,5.06a5.6,5.6,0,0,1-.93,1.56c-.37.37-.7.73-1,1.06"/>
      <path class="cls-5" d="M74.56,40.92c-.54.88-.94,1.62-1.48,2.35"/>
      <path class="cls-5" d="M42.17,74c-.06.17-.13.35-.21.52"/>
      <path class="cls-5" d="M41.32,67.79a16.28,16.28,0,0,0-1.77,3.09c-.26.78-.46,1.31-.46,1.31-.39.64-.71,1.5-1.11,2.36"/>
      <path class="cls-5" d="M72.56,57c-.92,1-4.29,4.51-5.08,6.22s-4.24,6.82-6,7.87"/>
      <path class="cls-5" d="M67.87,60a32.87,32.87,0,0,0-5.42,7.29c-1.57,3-4,4.73-5.31,5.91"/>
      <path class="cls-5" d="M63.11,63.07c2.3-4.27,6.74-6.19,10.94-13"/>
      <path class="cls-5" d="M69.76,49.61c-1.05,1.18-2.15,4.83-4.16,7.8"/>
      <path class="cls-5" d="M67.75,65.28c3-2.19,4.67-4.23,5.16-5.52a15.08,15.08,0,0,1,1.65-2.9"/>
      <path class="cls-5" d="M58.07,61.88a29.22,29.22,0,0,1-4.21,6.24c-1.38,1.57-1.51,2.62-2.17,4.07"/>
      <path class="cls-5" d="M57.86,60.38c.66-1.32,2-4.4,3.87-6A32,32,0,0,0,65.34,51"/>
      <path class="cls-5" d="M57.92,57.62c-1.83,1.9-6,5.84-7.21,8.07s-2.69,5-4.4,6.24"/>
      <path class="cls-5" d="M44.08,74a13.36,13.36,0,0,1,2.4-4.57,30.69,30.69,0,0,0,2.37-3"/>
      <path class="cls-5" d="M43.34,71.4a22,22,0,0,1,2.25-3.74c1.24-1.51,3.41-3,4.72-5a42.09,42.09,0,0,1,3.55-4.47"/>
      <path class="cls-5" d="M48.28,53.88c-1.05,1.18-1.12,2.95-2.3,5.84s-4.4,5.91-5.77,7.15a17.85,17.85,0,0,0-1.61,2,10.52,10.52,0,0,0-1.12,2.66"/>
      <path class="cls-5" d="M60,66.06c.33-.46,1.25-2.67,1.77-3.45,1.14-1.72,2.69-6.5,3.48-8.53s4.59-6.44,5.84-8"/>
      <path class="cls-5" d="M53.07,51.71c-1.25,1.51-3.87,3.87-4.4,5.65a14,14,0,0,1-1.25,3.34"/>
      <path class="cls-5" d="M56.61,52.24A26.74,26.74,0,0,0,52,57.59C51,59.23,50.28,60,47.66,63.28"/>
      <path class="cls-5" d="M54.75,58.73a11.63,11.63,0,0,0,1.34-2A11.42,11.42,0,0,1,58.33,54"/>
      <path class="cls-5" d="M50.23,43.15a41.32,41.32,0,0,0-4.9,8.63c-1.12,2.89-2.92,5.28-4.15,8.08"/>
      <path class="cls-5" d="M51,45.16A30.69,30.69,0,0,1,47.82,51a30.4,30.4,0,0,0-3,7c-.39,1.44-4,6.27-6.07,7.85"/>
      <path class="cls-5" d="M39.08,72.19c-.39.64-.7,1.5-1.1,2.36"/>
      <path class="cls-5" d="M70.9,56.44a24.56,24.56,0,0,1,3.66-2.76"/>
      <path class="cls-5" d="M74.56,61.48c-2.88,3-6.79,8.12-6.79,8.12"/>
      <path class="cls-5" d="M56,62a48.6,48.6,0,0,0-5.32,7.81c-.46,1.28-.31,2.65-1.17,4.72"/>
      <path class="cls-5" d="M51.38,43.62c.75-1,1.21-2,2.18-3.42l0-.05A26.23,26.23,0,0,1,56,37.28h0c.21-.23.44-.46.67-.7"/>
      <path class="cls-5" d="M42.72,51.84c1.79-2.91,4.11-6.3,4.81-7.52a29.66,29.66,0,0,1,2.66-3.1l.1-.08c1.25-1.35,2.62-2.82,3.44-3.86h0A10.46,10.46,0,0,1,54.91,36c.72-.72,4.46-4.2,6.17-6.89"/>
      <path class="cls-5" d="M50.12,39.44a18.26,18.26,0,0,1,1.63-2.16h0l.53-.62a4.28,4.28,0,0,1,.48-.7,17.43,17.43,0,0,1,2.17-3.48c1.57-1.83,3.15-3.32,4-5.88a32.93,32.93,0,0,1,4.29-8.31"/>
      <path class="cls-5" d="M45,43.87a25.93,25.93,0,0,0,2.66-3.42,14.83,14.83,0,0,0,1.85-3.17h0c.86-2.07.71-3.45,1.17-4.73.66-1.84,3.68-5.84,5.32-7.81"/>
      <line class="cls-5" x1="37.98" y1="74.55" x2="37.98" y2="74.55"/>
      <path class="cls-5" d="M27.6,46.79c4.08-2.29,7.41-8.16,9.13-10.31"/>
      <path class="cls-5" d="M36.19,73.89a5.07,5.07,0,0,0-.63.66"/>
      <path class="cls-5" d="M31.69,39.64c.15-.26.53-.89,1.23-2,.11-.17,1.12-1.2,1.24-1.38L36,35.12"/>
      <path class="cls-5" d="M21.15,52.08c4.41-5.1,5.75-7.43,10.08-10.93"/>
      <path class="cls-6" d="M13.29,56.7c2.84-2,7.94-11.29,8.9-12.6A26.75,26.75,0,0,1,27.06,40"/>
      <path class="cls-5" d="M13.27,52.59c1.35-3.11,4.42-4.07,5.77-6.78a49.91,49.91,0,0,1,6.11-8.53h0l.5-.53a7,7,0,0,0,1.78-2c.56-1.12,3.22-5.52,3.77-6.17"/>
      <path class="cls-5" d="M26,71.66a9.32,9.32,0,0,0-3.3,2.89"/>
      <path class="cls-5" d="M11.87,51.9c3.33-3.35,4.46-10.15,8.93-14"/>
      <path class="cls-5" d="M3.9,53.15A85.76,85.76,0,0,0,9.42,45c.31-.54,2.24-2.42,3.49-3.77"/>
      <path class="cls-5" d="M1,49.7c1-.66,2.05-2.23,3.37-4.46,1.18-2,4-5.92,5.41-8h0l.4-.62a14.88,14.88,0,0,1,1-2"/>
      <path class="cls-5" d="M32,53.83c1.57-1.84,2-4.74,2.81-6.32a33.85,33.85,0,0,1,2.46-3.19h0c1.62-2,4.71-5.21,5.77-7.67"/>
      <path class="cls-5" d="M22.28,54.6c2.56-4.13,6.1-4.72,9.58-9.58"/>
      <path class="cls-5" d="M36.19,49a15.59,15.59,0,0,1,1.08-1.54h0c2.11-2.64,4-3.17,6.33-8.5"/>
      <path class="cls-5" d="M0,44.32a34,34,0,0,0,4.68-7"/>
      <path class="cls-5" d="M0,47.42c2.11-2.64,4-3.17,6.33-8.5"/>
      <path class="cls-5" d="M33.13,74.55l.35-.52a13.73,13.73,0,0,1,1.92-2"/>
      <path class="cls-5" d="M37.27,67.74C36,68.89,36,70,34.55,71.14a28.92,28.92,0,0,0-3,3,4,4,0,0,1-.27.44"/>
      <path class="cls-5" d="M31.28,37.28a20.9,20.9,0,0,1-2.42,2.9h0c-2.87,3-6.59,6.05-8.16,10.21"/>
      <path class="cls-5" d="M28.61,74.55c3-2.86,6-6.8,8.66-9.7h0c.84-.92,2.59-3.09,3.38-3.74"/>
      <path class="cls-5" d="M25.15,74.55c.18-.2.35-.38.5-.52a7,7,0,0,0,1.78-2c.56-1.11,4.55-6.47,5.11-7.13"/>
      <path class="cls-5" d="M17.3,45.51c1.66-2.21,3.19-5.44,5.4-8.23A9.23,9.23,0,0,1,26,34.39"/>
      <path class="cls-5" d="M25.12,40a18.53,18.53,0,0,0,3.49-2.71"/>
      <path class="cls-5" d="M18.67,74.55l.68-.7"/>
      <path class="cls-5" d="M23.79,66.35c-1.71,2.69-5.45,6.17-6.17,6.89s-.68.61-.68.61a8.47,8.47,0,0,1-.51.7"/>
      <path class="cls-5" d="M25.91,55.56a33.31,33.31,0,0,0-4.29,8.32c-.85,2.55-2.42,4-4,5.88a18,18,0,0,0-2.17,3.48,4.28,4.28,0,0,0-.48.7l-.53.61"/>
      <path class="cls-5" d="M9.8,74.55l.4-.61a14.88,14.88,0,0,1,1-2"/>
      <path class="cls-5" d="M9.42,62.15c-.33.78-2.82,3.61-3.42,4.72s-1,4.27-1.31,5.06a5.6,5.6,0,0,1-.93,1.56c-.37.37-.7.73-1,1.06"/>
      <path class="cls-5" d="M0,40.9a23.29,23.29,0,0,1,2.76-3.62h0c.31-.34.64-.69,1-1.07a5.43,5.43,0,0,0,.93-1.56c.26-.79.72-3.94,1.31-5s3.09-3.94,3.42-4.73"/>
      <path class="cls-5" d="M35.8,43.27c.54-.73.93-1.47,1.47-2.35l0,0a22.07,22.07,0,0,1,2.76-3.62h0c.31-.34.64-.69,1-1.07A5.43,5.43,0,0,0,42,34.65c.26-.79.72-3.94,1.31-5s3.09-3.94,3.41-4.73"/>
      <path class="cls-5" d="M4.89,74l-.21.52"/>
      <path class="cls-5" d="M4,67.79a16.33,16.33,0,0,0-1.78,3.09c-.26.78-.46,1.31-.46,1.31-.39.64-.7,1.5-1.1,2.36"/>
      <path class="cls-5" d="M36.06,56.32c-.73.83-4.94,4.86-5.86,6.86-.79,1.7-4.25,6.82-5.95,7.87"/>
      <path class="cls-5" d="M31.92,58.36a49,49,0,0,0-6.75,9c-1.58,3-4,4.73-5.32,5.91"/>
      <path class="cls-5" d="M25.82,63.07c2.3-4.27,6.74-6.19,10.94-13"/>
      <path class="cls-5" d="M32,50.94c-1.05,1.18-1.71,4.11-4.15,7.29"/>
      <path class="cls-5" d="M30.46,65.28c1.95-1.44,4.48-4.88,5.21-5.61-1.38,1.38.7-.65,1.37-1.62l1.06-1.13c.8-1.14,1.56-3,2-3.44"/>
      <path class="cls-5" d="M2,54.25a32.66,32.66,0,0,0-2,2.61"/>
      <path class="cls-5" d="M20.05,61.62c-.85,2-2.1,4.92-3.48,6.5s-1.51,2.62-2.17,4.07"/>
      <path class="cls-5" d="M20.57,60.38c.66-1.32,2-4.4,3.88-6A31.72,31.72,0,0,0,28.05,51"/>
      <path class="cls-5" d="M20.64,57.62c-1.84,1.9-6,5.84-7.22,8.07s-2.69,5-4.4,6.24"/>
      <path class="cls-5" d="M6.79,74A13.39,13.39,0,0,1,9.2,69.39a30,30,0,0,0,2.36-3"/>
      <path class="cls-5" d="M6.05,71.4A22.7,22.7,0,0,1,8.3,67.66c1.25-1.51,3.41-3,4.73-5a43.74,43.74,0,0,1,3.54-4.47"/>
      <path class="cls-5" d="M11,53.88c-1.05,1.18-1.11,2.95-2.29,5.84s-4.4,5.91-5.78,7.15a17.85,17.85,0,0,0-1.61,2A10.41,10.41,0,0,0,.2,71.53"/>
      <path class="cls-5" d="M22.67,66.06c.33-.46,1.25-2.67,1.78-3.45,1.14-1.72,2.69-6.5,3.47-8.53s4.6-6.44,5.84-8"/>
      <path class="cls-5" d="M15.78,51.71c-1.24,1.51-3.87,3.87-4.39,5.65a14.49,14.49,0,0,1-1.25,3.34"/>
      <path class="cls-5" d="M19.33,52.24a19.13,19.13,0,0,0-3.88,4.59,17.42,17.42,0,0,1-5.7,6.43"/>
      <path class="cls-5" d="M16.77,59.87a29.92,29.92,0,0,0,2-3.1A22.6,22.6,0,0,1,22,52.91"/>
      <path class="cls-5" d="M12.23,44.32c-.91,1.43-3.53,6.22-4.91,9.16s-1.9,5.09-3.94,6.73"/>
      <path class="cls-5" d="M13.8,45.08A32.63,32.63,0,0,1,10.53,51a30.85,30.85,0,0,0-3,7C7.12,59.39,5,62.21,3,63.79"/>
      <path class="cls-5" d="M0,38.57a10.75,10.75,0,0,0,.69-1.29"/>
      <path class="cls-5" d="M1.8,72.19c-.39.64-.71,1.5-1.11,2.36"/>
      <path class="cls-5" d="M6.43,45C6,45.61,4.5,49,3.77,50A14.5,14.5,0,0,1,.3,53.48l-.3.2"/>
      <path class="cls-5" d="M33.61,56.44a25.64,25.64,0,0,1,3.66-2.76h0l.29-.2A14.38,14.38,0,0,0,41.06,50c.72-1,2.91-3.7,3.34-4.36"/>
      <path class="cls-5" d="M30.48,69.6s3.91-5.13,6.79-8.12h0c.47-.5.92-.93,1.32-1.28,1-.84,2-4.81,3.61-7"/>
      <path class="cls-5" d="M.33,67.46,0,67.74"/>
      <path class="cls-5" d="M0,64.85a24.27,24.27,0,0,1,2.46-2.37"/>
      <path class="cls-5" d="M5.05,53.74C3.45,56,2.29,59.36,1.32,60.2.93,60.55.48,61,0,61.48"/>
      <path class="cls-5" d="M18.67,62C17,64,14,68,13.35,69.83c-.45,1.28-.3,2.65-1.17,4.72"/>
      <path class="cls-5" d="M19.56,36.32A35.81,35.81,0,0,0,16.77,40l-.7.88c-1,1.4-1.23,1.74-2,2.74"/>
      <path class="cls-5" d="M13,41.14c1.25-1.35,3.43-3.86,3.43-3.86.21-.27,5.65-5.52,7.36-8.21"/>
      <path class="cls-5" d="M12.83,39.44a18.26,18.26,0,0,1,1.63-2.16h0l.53-.62a4.28,4.28,0,0,1,.48-.7,18,18,0,0,1,2.17-3.48c1.58-1.83,3.15-3.32,4-5.88a33.26,33.26,0,0,1,4.29-8.31"/>
      <path class="cls-5" d="M7.68,43.87a25.93,25.93,0,0,0,2.66-3.42,15.74,15.74,0,0,0,1.85-3.17h0c.87-2.07.72-3.45,1.17-4.73.66-1.84,3.68-5.84,5.32-7.81"/>
      <path class="cls-5" d="M41.32,30.52a16.21,16.21,0,0,0-1.77,3.08s-.46,1.31-.79,2.38a11.83,11.83,0,0,1-1.49,2.59h0a5.68,5.68,0,0,1-.55.74c-1.06,1.17-4.2,4.79-4.86,5.71"/>
    </pattern>
    <pattern id="_705" data-name="705" width="53.5" height="53.5" patternTransform="translate(-2609.42 -1494.88) scale(5.96)" patternUnits="userSpaceOnUse" viewBox="0 0 53.5 53.5">
      <rect class="cls-4" width="53.5" height="53.5"/>
      <path class="cls-9" d="M0,7.42C1.85,5.66,4.47,2.73,5.58,1.48l.76-1"/>
      <path class="cls-9" d="M4.08,5.23C3.08,6.4,1.67,8.4.92,9.15c-.23.23-.56.58-.92,1"/>
      <path class="cls-9" d="M8.67,1.81c-1.75,2-4.17,4.34-4.84,6A25.36,25.36,0,0,1,0,13.38"/>
      <path class="cls-9" d="M9,10.48a37.22,37.22,0,0,0-4.67,5.58A20,20,0,0,1,0,20"/>
      <path class="cls-9" d="M12.83,14.31c-1,1.09-6.83,8.17-8.41,10A40.19,40.19,0,0,1,0,28.43"/>
      <path class="cls-9" d="M8.25,22.31a51.22,51.22,0,0,0-5,5.59c-.73,1-2.09,2.82-3.25,4.2"/>
      <path class="cls-9" d="M6.75,26a52.35,52.35,0,0,0-4.83,6.5A11.64,11.64,0,0,1,0,35.39"/>
      <path class="cls-9" d="M15.08,19.23c-2.08,2.92-5.5,5.92-7.33,8.58s-3.25,4.92-5,7.42c-1.28,1.82-2,3-2.75,3.89"/>
      <path class="cls-9" d="M12.83,28.31c-1.75,2.42-6.83,7.25-8.5,8.84-1.26,1.2-2.87,3.22-4.33,4.7"/>
      <path class="cls-9" d="M8.33,35c-.91.67-3.25,3.33-5.83,6.08-.93,1-1.75,1.85-2.5,2.6"/>
      <path class="cls-9" d="M15.83,27a62.58,62.58,0,0,0-6.16,8.08,58.64,58.64,0,0,1-6.5,8.84A25.45,25.45,0,0,1,0,46.16"/>
      <path class="cls-9" d="M25.17,21.15C23.08,23.4,16.58,32.4,13.92,34.48S7.17,41.56,5.5,43.73c-1.53,2-3.29,4.33-5.5,6.7"/>
      <path class="cls-9" d="M3.25,1.73C2.58,2.65,1.42,3.06.92,4A4.41,4.41,0,0,1,0,5.1"/>
      <path class="cls-9" d="M45.88,15c.74-.81,2.43-2.81,3.68-3.94S52.5,8.31,52.5,8.31c.29-.23.63-.54,1-.89"/>
      <path class="cls-9" d="M34.06,31.29a86.43,86.43,0,0,0,6.94-8,57,57,0,0,1,7.31-7.75,18,18,0,0,0,2.61-2.31c.75-1,1.77-2.19,2.58-3.09"/>
      <path class="cls-9" d="M36.83,36.23a28.54,28.54,0,0,0,4.42-5.08c.81-1.38,4.75-9.3,6.19-11.23a63.18,63.18,0,0,1,5-5.36c.34-.33.71-.74,1.08-1.17"/>
      <path class="cls-9" d="M52.5,20.73l1-.7"/>
      <path class="cls-9" d="M45.63,32.11a59,59,0,0,0,4.44-4.94C51,25.86,52,24.47,52,24.47A11.73,11.73,0,0,1,53.5,22.7"/>
      <path class="cls-9" d="M44.76,35.3A51.81,51.81,0,0,1,49,30.8,13.05,13.05,0,0,1,51,29c.9-.86,1.74-1.68,2.51-2.53"/>
      <path class="cls-9" d="M35.17,53l1.21-1.5c.56-.75,1.93-2.81,3.5-5.25s2.87-5.5,4.43-7.38,4.07-4.31,5.31-6.25a15.81,15.81,0,0,1,2.3-2.87l1.58-1.3"/>
      <path class="cls-9" d="M48.88,36a17.6,17.6,0,0,1,3.46-2.64c.33-.34.73-.79,1.16-1.29"/>
      <path class="cls-9" d="M51.92,37.06c.67-.67,1.17-1.2,1.58-1.67"/>
      <path class="cls-9" d="M42.19,51.42c2-2.5,5.75-6.38,6.69-7.32s3.71-4,3.71-4a8,8,0,0,0,.91-.93"/>
      <path class="cls-9" d="M45.15,53.5l.52-.56s1.21-1.59,2.33-3.46a13.22,13.22,0,0,1,2.17-2.83,27.89,27.89,0,0,0,3.33-3"/>
      <path class="cls-9" d="M47.76,53.5l.66-.73a16.36,16.36,0,0,0,1.08-2.1,12.7,12.7,0,0,1,1-1.94,18,18,0,0,1,3-2.57"/>
      <path class="cls-9" d="M50.55,53.5l.78-.73,1.59-1.71.58-.63"/>
      <path class="cls-9" d="M36.94,25.92c.62-1.07,3.44-5.32,4.62-7.19s7.19-9.25,8.25-10.38a31,31,0,0,1,2.94-2.54c.2-.23.47-.45.75-.71"/>
      <path class="cls-9" d="M9.92,23.15c.66-.75,2.66-3.09,4.41-5S18.75,11.73,20,9.73A95.41,95.41,0,0,1,27,.9"/>
      <path class="cls-9" d="M10.17,27.65c1.5-1.92,4.33-5.5,5.66-6.92s4.59-5.17,6.84-8,8.5-8.5,10.75-11"/>
      <path class="cls-9" d="M23.67,18.31C25.33,16.06,35.08,6,37.83,2.81"/>
      <path class="cls-9" d="M22.75,15c-2.5,3.17-8.42,9.83-10.25,12a63.54,63.54,0,0,1-6.33,6.33"/>
      <path class="cls-9" d="M36.5,6.73A34.52,34.52,0,0,1,33.33,10c-1.33,1.17-3.91,3.92-5.58,5.75s-5,5.5-6.75,7.75-6.58,7.75-9.08,10.42"/>
      <path class="cls-9" d="M33.67,12.31c-1.25,1.59-3.92,4.42-5.42,6.59S23,26.06,21.58,28.06A29.51,29.51,0,0,1,18.33,32"/>
      <path class="cls-9" d="M25.83,24.48c2.34-2.33,7.67-7.75,9.92-9.58a43.39,43.39,0,0,0,6.08-6.5"/>
      <path class="cls-9" d="M52.78,53.5,53.5,53"/>
      <path class="cls-9" d="M49.46,2.82A13.31,13.31,0,0,0,48.38,4c-.57.75-2.07,3.06-3.26,4.44"/>
      <path class="cls-9" d="M16.56,37a57,57,0,0,0-5.37,5.56c-.75,1-2.07,3.75-3.25,5.07S4.88,50.6,4.38,51.1l-1,1.17-.9,1.23"/>
      <path class="cls-9" d="M29.75,31.42c-2.5,2.62-8.94,9.37-11.31,11.93S12.81,49.29,11.5,51c0,0,0,.44-1.33,1.61a4.1,4.1,0,0,0-.74.85"/>
      <path class="cls-9" d="M18.51,53.5l.91-1.23S20.38,50.6,22,48a74.29,74.29,0,0,1,8.69-10"/>
      <path class="cls-9" d="M23,53.5a13.37,13.37,0,0,1,2-3.19"/>
      <path class="cls-9" d="M12.31,53.5l.52-.73a21.79,21.79,0,0,1,2.86-3.85c1.62-1.69,4.69-4.82,6.12-6.57s8.69-9.5,10.38-12.12,4.43-6.25,5.43-8.06"/>
      <path class="cls-9" d="M39.19,30.35a106.27,106.27,0,0,1-6.94,8.13,125.36,125.36,0,0,0-8.13,9.87c-.93,1.44-3,4.5-3,4.5-.19.2-.38.42-.57.65"/>
      <path class="cls-9" d="M51.75,21.42c-.94.87-2.81,3.43-4.75,5.81a27.32,27.32,0,0,0-3.69,6.5,60,60,0,0,1-5.12,7.87,70.36,70.36,0,0,0-5.07,6.82,32.12,32.12,0,0,1-3.29,4.43c-.2.23-.37.44-.54.65"/>
      <path class="cls-9" d="M38.25,53.5c.45-.48.9-1,1.33-1.48a70.72,70.72,0,0,0,5.17-6.29c1.63-2.44,5.94-9.06,7.75-11.06"/>
      <path class="cls-9" d="M42.24,53.5a10.33,10.33,0,0,1,.76-.81s1.38-1.59,3.44-4.27a33.2,33.2,0,0,1,5.73-5.36,13.84,13.84,0,0,0,1.33-1.2"/>
      <path class="cls-9" d="M27.25,24.48c-.94,1-3.63,4-5.19,5.75a39.2,39.2,0,0,1-5.68,5.06,81.86,81.86,0,0,0-8.19,8"/>
      <path class="cls-9" d="M33.88,21.29c-1.44,1.13-8.82,11.81-10.57,13.94A32.49,32.49,0,0,1,17.38,41a64.13,64.13,0,0,0-6.63,5.81C9.38,48.17,7.69,51.92,6.69,53"/>
      <path class="cls-9" d="M37.88,15.29a72.36,72.36,0,0,1-6.32,6.06,44.87,44.87,0,0,0-6,6.94C24,30.6,20.31,34.79,19,35.67"/>
      <path class="cls-9" d="M27.25,32.42C28.38,31.23,37.44,19,38.88,17.17"/>
      <path class="cls-9" d="M40.12,17.92A120.47,120.47,0,0,1,48.69,7.29C50.38,5.54,51.25,4.6,53,3"/>
      <path class="cls-9" d="M48.69,16.54c-1.38,1.5-4.25,4.56-5.38,7.13a21.89,21.89,0,0,1-3,5.06"/>
      <path class="cls-9" d="M15.42,53.5l1.75-1.81S18,50.6,19,49.1a40.16,40.16,0,0,1,3.56-4.56,106.55,106.55,0,0,1,9.63-9.44,72.34,72.34,0,0,0,8.5-8.93"/>
      <path class="cls-9" d="M27,47.54a68,68,0,0,1,8.56-8.37l.42-.38"/>
      <path class="cls-9" d="M41.88,33.48c-1.63,2.94-5.32,6.81-7.32,9s-2.5,2.37-3.62,4.37-1.25,2.69-1.88,3.57a25.28,25.28,0,0,1-1.89,2.18c-.39.32-.73.62-1,.9"/>
      <path class="cls-9" d="M43.44,30.6a38.77,38.77,0,0,1,6.31-8.87,12.91,12.91,0,0,0,3.13-4.13"/>
      <path class="cls-9" d="M44,36.29c-1.88,2.81-5.62,8.19-6.69,10.06a32.66,32.66,0,0,1-3.25,4.32c-.81,1.06-1.23,1.68-1.23,1.68l-.91,1.15"/>
      <path class="cls-9" d="M46.62,38.35c-1.37,1.57-3.06,6.25-4.68,8.13s-1.38,1.75-2.56,3"/>
      <path class="cls-9" d="M29.75,46.1A50.81,50.81,0,0,1,25,52.6"/>
      <path class="cls-9" d="M11,49a53,53,0,0,1,5.38-5.5"/>
      <path class="cls-9" d="M21.19,35.29c-1.25,1.44-5.38,4.56-7.07,6.31"/>
      <path class="cls-9" d="M7.71,44.48a42.45,42.45,0,0,1-6,7.25A15.51,15.51,0,0,1,0,53"/>
      <path class="cls-9" d="M40.75,5.19c1.63-1.7,3-3.66,4.4-5.19"/>
      <path class="cls-9" d="M32.42,16.44C35.08,13,38.67,8.52,41.17,6.35A62.27,62.27,0,0,0,47.76,0"/>
      <path class="cls-9" d="M50.54,0A53.3,53.3,0,0,0,44,7.35c-1.58,2.34-2.92,5.75-3.83,6.84"/>
      <path class="cls-9" d="M50,2.14A9.8,9.8,0,0,1,52.78,0"/>
      <path class="cls-9" d="M2.43,0A13.25,13.25,0,0,1,.75,1.94"/>
      <path class="cls-9" d="M9.43,0a4.43,4.43,0,0,0-.54,1.14"/>
      <path class="cls-9" d="M18.5,0a74.53,74.53,0,0,1-6.33,7.52,28.36,28.36,0,0,0-3.5,4.75,64.2,64.2,0,0,1-5.42,7.25c-1,1.08-2.19,2.1-3.25,3.15"/>
      <path class="cls-9" d="M23,0c-.45.94-.75,1.69-.75,1.69a41.73,41.73,0,0,0-3.67,4.66A27,27,0,0,1,14,11.85c-2,1.84-6.25,5.5-7.25,6.42A24.92,24.92,0,0,0,2.17,23.6,19.93,19.93,0,0,1,0,26.42"/>
      <path class="cls-9" d="M5.67,8a63.5,63.5,0,0,1,4.5-5.33A22.75,22.75,0,0,0,12.3,0"/>
      <path class="cls-9" d="M7.92,15.69A108.82,108.82,0,0,0,16.67,5.52C18.5,3.06,19.49,1.26,20.51,0"/>
      <path class="cls-9" d="M17.25,16.85c1.75-2,6.92-9.16,8.5-11.5A61.12,61.12,0,0,1,29.28,0"/>
      <path class="cls-9" d="M17.58,24.6c1.17-1.33,3.17-4.5,5-7.25A143.35,143.35,0,0,1,32.67,5.44C34,4.13,36.13,2.25,38.25,0"/>
      <path class="cls-9" d="M35.58,9.6c1.85-2.21,4.61-7.16,6.66-9.6"/>
      <path class="cls-9" d="M15.42,0c-1.53,1.59-2.95,3.05-3.92,4a91.74,91.74,0,0,0-6.25,7c-1.5,2-2.83,3.92-3.67,4.92"/>
      <path class="cls-9" d="M11.17,18.94a85.33,85.33,0,0,0,5.41-7.09C18.17,9.69,21.75,4.44,23.17,3c1.11-1.12,1.82-2,3-3"/>
      <path class="cls-9" d="M31.91,0c-2,2.53-5,6.49-6.24,7.77"/>
    </pattern>
    <pattern id="_656" data-name="656" width="54.13" height="54.13" patternTransform="translate(-960.62 -1464.82) scale(4.77)" patternUnits="userSpaceOnUse" viewBox="0 0 54.13 54.13">
      <rect class="cls-4" width="54.13" height="54.13"/>
      <path class="cls-9" d="M1,4.23C2.21,4,4,2.9,7.12,3.31"/>
      <path class="cls-9" d="M17.71,3.31c3.58-.66,6,.92,7.5,1.09"/>
      <path class="cls-9" d="M37.21,4.06c1.17.25,5.17.34,7.33-.75"/>
      <path class="cls-9" d="M3,8.15a9.51,9.51,0,0,1-3,.77"/>
      <path class="cls-9" d="M38.21,14.06c1.25-.25,3-1.33,6.17-.91"/>
      <path class="cls-9" d="M23.38,43.23a8.86,8.86,0,0,0,6.83.25"/>
      <path class="cls-9" d="M41.54,43.9c1.5,0,2.58-.75,3.84-1.09a7.25,7.25,0,0,1,4.41.09"/>
      <path class="cls-9" d="M7,42.65a7.17,7.17,0,0,1,3.56.5c1.36.91,3.19.41,3.6.5"/>
      <path class="cls-9" d="M0,53.49a9,9,0,0,0,1-.34"/>
      <path class="cls-9" d="M20.62,52.56a7.32,7.32,0,0,0-4.41-.08c-1.25.33-2.33,1.08-3.83,1.08"/>
      <path class="cls-9" d="M38.62,53.48c-.41-.08-2.24.42-3.6-.5a7.28,7.28,0,0,0-3.56-.5"/>
      <path class="cls-9" d="M4.92,18.19A10.19,10.19,0,0,0,0,18.73"/>
      <path class="cls-9" d="M15.5,18.19c3.58-.67,6,.91,7.5,1.08"/>
      <path class="cls-9" d="M42.33,18.19c-2.16,1.08-6.16,1-7.33.75"/>
      <path class="cls-9" d="M9.17,33.23a10.44,10.44,0,0,0,7.41.17"/>
      <path class="cls-9" d="M27.33,33.9c1.5,0,2.59-.75,3.84-1.09a7.25,7.25,0,0,1,4.41.09"/>
      <path class="cls-9" d="M46.42,32.81a7.28,7.28,0,0,1,3.56.5c1.35.92,3.19.42,3.6.5"/>
      <path class="cls-9" d="M7.29,47.69c-3.17-.42-4.91.66-6.17.91"/>
      <path class="cls-9" d="M17.88,47.69c3.58-.67,6,.91,7.5,1.08"/>
      <path class="cls-9" d="M37.38,48.44c1.16.25,5.16.33,7.33-.75"/>
      <path class="cls-9" d="M19,8.19c-3.16-.42-4.92.66-6.16.91"/>
      <path class="cls-9" d="M29.62,8.19c3.59-.67,6,.91,7.5,1.08"/>
      <path class="cls-9" d="M.38,13.1c3.58-.66,6,.92,7.5,1.09"/>
      <path class="cls-9" d="M19.88,13.85c1.16.25,5.16.34,7.33-.75"/>
      <path class="cls-9" d="M15.79,23.6A8.82,8.82,0,0,1,9,23.35"/>
      <path class="cls-9" d="M35.38,23A7.27,7.27,0,0,0,31,22.94c-1.25.33-2.34,1.08-3.84,1.08"/>
      <path class="cls-9" d="M53.38,23.94c-.42-.09-2.26.41-3.61-.5a7.17,7.17,0,0,0-3.56-.5"/>
      <path class="cls-9" d="M22.71,28.23a8.87,8.87,0,0,0,6.83.25"/>
      <path class="cls-9" d="M49.12,27.9a7.25,7.25,0,0,0-4.41-.09c-1.25.34-2.33,1.09-3.83,1.09"/>
      <path class="cls-9" d="M22,37.94c-3.17-.42-4.92.66-6.17.91"/>
      <path class="cls-9" d="M32.54,37.94c3.58-.67,6,.91,7.5,1.08"/>
      <path class="cls-9" d="M5.5,37.81a13.14,13.14,0,0,1-5.5.91"/>
      <path class="cls-9" d="M13.12,28.94c-.41-.09-2.24.41-3.6-.5A7.17,7.17,0,0,0,6,27.94"/>
      <path class="cls-9" d="M49.75,8.9a16.48,16.48,0,0,0,4.37,0"/>
      <path class="cls-9" d="M48.33,52.9a9.35,9.35,0,0,0,5.79.59"/>
      <path class="cls-9" d="M52.88,19.1a10.14,10.14,0,0,0,1.24-.37"/>
      <path class="cls-9" d="M52.29,38.56a10.3,10.3,0,0,0,1.83.16"/>
      <line class="cls-11" x1="0.46" y1="1.88" x2="0.46" y2="1.88"/>
      <line class="cls-11" x1="2.46" y1="1.56" x2="2.46" y2="1.56"/>
      <line class="cls-11" x1="4.28" y1="0.94" x2="4.28" y2="0.94"/>
      <line class="cls-11" x1="6.2" y1="0.81" x2="6.2" y2="0.81"/>
      <line class="cls-11" x1="8.15" y1="0.94" x2="8.15" y2="0.94"/>
      <line class="cls-11" x1="10.09" y1="1.38" x2="10.09" y2="1.38"/>
      <line class="cls-11" x1="11.94" y1="1.75" x2="11.94" y2="1.75"/>
      <line class="cls-11" x1="13.96" y1="1.88" x2="13.96" y2="1.88"/>
      <line class="cls-11" x1="16.02" y1="1.56" x2="16.02" y2="1.56"/>
      <line class="cls-11" x1="17.84" y1="0.94" x2="17.84" y2="0.94"/>
      <line class="cls-11" x1="19.76" y1="0.81" x2="19.76" y2="0.81"/>
      <line class="cls-11" x1="21.71" y1="0.94" x2="21.71" y2="0.94"/>
      <line class="cls-11" x1="23.65" y1="1.38" x2="23.65" y2="1.38"/>
      <line class="cls-11" x1="25.38" y1="1.75" x2="25.38" y2="1.75"/>
      <line class="cls-11" x1="27.39" y1="1.82" x2="27.39" y2="1.82"/>
      <line class="cls-11" x1="29.45" y1="1.5" x2="29.45" y2="1.5"/>
      <line class="cls-11" x1="31.26" y1="0.88" x2="31.26" y2="0.88"/>
      <line class="cls-11" x1="33.19" y1="0.76" x2="33.19" y2="0.76"/>
      <line class="cls-11" x1="35.14" y1="0.88" x2="35.14" y2="0.88"/>
      <line class="cls-11" x1="37.08" y1="1.32" x2="37.08" y2="1.32"/>
      <line class="cls-11" x1="38.98" y1="1.69" x2="38.98" y2="1.69"/>
      <line class="cls-11" x1="40.96" y1="1.82" x2="40.96" y2="1.82"/>
      <line class="cls-11" x1="43.01" y1="1.5" x2="43.01" y2="1.5"/>
      <line class="cls-11" x1="44.83" y1="0.88" x2="44.83" y2="0.88"/>
      <line class="cls-11" x1="46.76" y1="0.76" x2="46.76" y2="0.76"/>
      <line class="cls-11" x1="48.71" y1="0.88" x2="48.71" y2="0.88"/>
      <line class="cls-11" x1="50.65" y1="1.32" x2="50.65" y2="1.32"/>
      <line class="cls-11" x1="52.38" y1="1.69" x2="52.38" y2="1.69"/>
      <line class="cls-11" x1="0.82" y1="6.45" x2="0.82" y2="6.45"/>
      <line class="cls-11" x1="2.64" y1="5.83" x2="2.64" y2="5.83"/>
      <line class="cls-11" x1="4.57" y1="5.7" x2="4.57" y2="5.7"/>
      <line class="cls-11" x1="6.52" y1="5.83" x2="6.52" y2="5.83"/>
      <line class="cls-11" x1="8.46" y1="6.27" x2="8.46" y2="6.27"/>
      <line class="cls-11" x1="10.3" y1="6.64" x2="10.3" y2="6.64"/>
      <line class="cls-11" x1="12.33" y1="6.77" x2="12.33" y2="6.77"/>
      <line class="cls-11" x1="14.39" y1="6.45" x2="14.39" y2="6.45"/>
      <line class="cls-11" x1="16.21" y1="5.83" x2="16.21" y2="5.83"/>
      <line class="cls-11" x1="8.42" y1="3.67" x2="8.42" y2="3.67"/>
      <line class="cls-11" x1="10.26" y1="4.04" x2="10.26" y2="4.04"/>
      <line class="cls-11" x1="12.29" y1="4.17" x2="12.29" y2="4.17"/>
      <line class="cls-11" x1="14.35" y1="3.85" x2="14.35" y2="3.85"/>
      <line class="cls-11" x1="16.17" y1="3.43" x2="16.17" y2="3.43"/>
      <line class="cls-11" x1="18.13" y1="5.7" x2="18.13" y2="5.7"/>
      <line class="cls-11" x1="20.08" y1="5.83" x2="20.08" y2="5.83"/>
      <line class="cls-11" x1="22.02" y1="6.27" x2="22.02" y2="6.27"/>
      <line class="cls-11" x1="23.75" y1="6.64" x2="23.75" y2="6.64"/>
      <line class="cls-11" x1="25.76" y1="6.71" x2="25.76" y2="6.71"/>
      <line class="cls-11" x1="27.81" y1="6.39" x2="27.81" y2="6.39"/>
      <line class="cls-11" x1="29.63" y1="5.77" x2="29.63" y2="5.77"/>
      <line class="cls-11" x1="31.56" y1="5.65" x2="31.56" y2="5.65"/>
      <line class="cls-11" x1="33.51" y1="5.77" x2="33.51" y2="5.77"/>
      <line class="cls-11" x1="35.44" y1="6.21" x2="35.44" y2="6.21"/>
      <line class="cls-11" x1="26.53" y1="4.13" x2="26.53" y2="4.13"/>
      <line class="cls-11" x1="28.59" y1="3.81" x2="28.59" y2="3.81"/>
      <line class="cls-11" x1="30.41" y1="3.19" x2="30.41" y2="3.19"/>
      <line class="cls-11" x1="32.33" y1="3.06" x2="32.33" y2="3.06"/>
      <line class="cls-11" x1="34.28" y1="3.19" x2="34.28" y2="3.19"/>
      <line class="cls-11" x1="36.22" y1="3.63" x2="36.22" y2="3.63"/>
      <line class="cls-11" x1="37.35" y1="6.58" x2="37.35" y2="6.58"/>
      <line class="cls-11" x1="39.32" y1="6.71" x2="39.32" y2="6.71"/>
      <line class="cls-11" x1="41.38" y1="6.39" x2="41.38" y2="6.39"/>
      <line class="cls-11" x1="43.2" y1="5.77" x2="43.2" y2="5.77"/>
      <line class="cls-11" x1="45.13" y1="5.65" x2="45.13" y2="5.65"/>
      <line class="cls-11" x1="47.07" y1="5.77" x2="47.07" y2="5.77"/>
      <line class="cls-11" x1="49.01" y1="6.21" x2="49.01" y2="6.21"/>
      <line class="cls-11" x1="50.74" y1="6.58" x2="50.74" y2="6.58"/>
      <line class="cls-11" x1="52.73" y1="6.65" x2="52.73" y2="6.65"/>
      <line class="cls-11" x1="45.75" y1="3.31" x2="45.75" y2="3.31"/>
      <line class="cls-11" x1="47.7" y1="3.44" x2="47.7" y2="3.44"/>
      <line class="cls-11" x1="49.64" y1="3.88" x2="49.64" y2="3.88"/>
      <line class="cls-11" x1="51.37" y1="4.25" x2="51.37" y2="4.25"/>
      <line class="cls-11" x1="53.36" y1="4.32" x2="53.36" y2="4.32"/>
      <line class="cls-11" x1="0.48" y1="10.83" x2="0.48" y2="10.83"/>
      <line class="cls-11" x1="2.4" y1="10.7" x2="2.4" y2="10.7"/>
      <line class="cls-11" x1="4.35" y1="10.83" x2="4.35" y2="10.83"/>
      <line class="cls-11" x1="6.29" y1="11.27" x2="6.29" y2="11.27"/>
      <line class="cls-11" x1="8.13" y1="11.64" x2="8.13" y2="11.64"/>
      <line class="cls-11" x1="10.16" y1="11.77" x2="10.16" y2="11.77"/>
      <line class="cls-11" x1="4" y1="8.23" x2="4" y2="8.23"/>
      <line class="cls-11" x1="5.95" y1="8.35" x2="5.95" y2="8.35"/>
      <line class="cls-11" x1="7.89" y1="8.8" x2="7.89" y2="8.8"/>
      <line class="cls-11" x1="9.73" y1="9.17" x2="9.73" y2="9.17"/>
      <line class="cls-11" x1="11.76" y1="9.29" x2="11.76" y2="9.29"/>
      <line class="cls-11" x1="12.22" y1="11.45" x2="12.22" y2="11.45"/>
      <line class="cls-11" x1="14.04" y1="10.83" x2="14.04" y2="10.83"/>
      <line class="cls-11" x1="15.96" y1="10.7" x2="15.96" y2="10.7"/>
      <line class="cls-11" x1="17.91" y1="10.83" x2="17.91" y2="10.83"/>
      <line class="cls-11" x1="19.85" y1="11.27" x2="19.85" y2="11.27"/>
      <line class="cls-11" x1="21.58" y1="11.64" x2="21.58" y2="11.64"/>
      <line class="cls-11" x1="23.59" y1="11.71" x2="23.59" y2="11.71"/>
      <line class="cls-11" x1="25.65" y1="11.39" x2="25.65" y2="11.39"/>
      <line class="cls-11" x1="27.46" y1="10.77" x2="27.46" y2="10.77"/>
      <line class="cls-11" x1="20.47" y1="8.56" x2="20.47" y2="8.56"/>
      <line class="cls-11" x1="22.2" y1="8.93" x2="22.2" y2="8.93"/>
      <line class="cls-11" x1="24.21" y1="9" x2="24.21" y2="9"/>
      <line class="cls-11" x1="26.27" y1="8.68" x2="26.27" y2="8.68"/>
      <line class="cls-11" x1="28.17" y1="8.31" x2="28.17" y2="8.31"/>
      <line class="cls-11" x1="29.39" y1="10.65" x2="29.39" y2="10.65"/>
      <line class="cls-11" x1="31.34" y1="10.77" x2="31.34" y2="10.77"/>
      <line class="cls-11" x1="33.28" y1="11.21" x2="33.28" y2="11.21"/>
      <line class="cls-11" x1="35.18" y1="11.58" x2="35.18" y2="11.58"/>
      <line class="cls-11" x1="37.16" y1="11.71" x2="37.16" y2="11.71"/>
      <line class="cls-11" x1="39.21" y1="11.39" x2="39.21" y2="11.39"/>
      <line class="cls-11" x1="41.03" y1="10.77" x2="41.03" y2="10.77"/>
      <line class="cls-11" x1="42.96" y1="10.65" x2="42.96" y2="10.65"/>
      <line class="cls-11" x1="44.91" y1="10.77" x2="44.91" y2="10.77"/>
      <line class="cls-11" x1="46.84" y1="11.21" x2="46.84" y2="11.21"/>
      <line class="cls-11" x1="38.65" y1="9.22" x2="38.65" y2="9.22"/>
      <line class="cls-11" x1="40.7" y1="8.9" x2="40.7" y2="8.9"/>
      <line class="cls-11" x1="42.52" y1="8.29" x2="42.52" y2="8.29"/>
      <line class="cls-11" x1="44.45" y1="8.16" x2="44.45" y2="8.16"/>
      <line class="cls-11" x1="46.4" y1="8.29" x2="46.4" y2="8.29"/>
      <line class="cls-11" x1="48.33" y1="8.73" x2="48.33" y2="8.73"/>
      <line class="cls-11" x1="48.58" y1="11.58" x2="48.58" y2="11.58"/>
      <line class="cls-11" x1="50.57" y1="11.65" x2="50.57" y2="11.65"/>
      <line class="cls-11" x1="52.62" y1="11.33" x2="52.62" y2="11.33"/>
      <line class="cls-11" x1="0.64" y1="15.66" x2="0.64" y2="15.66"/>
      <line class="cls-11" x1="2.57" y1="15.54" x2="2.57" y2="15.54"/>
      <line class="cls-11" x1="4.52" y1="15.66" x2="4.52" y2="15.66"/>
      <line class="cls-11" x1="6.46" y1="16.1" x2="6.46" y2="16.1"/>
      <line class="cls-11" x1="8.3" y1="16.47" x2="8.3" y2="16.47"/>
      <line class="cls-11" x1="10.33" y1="16.6" x2="10.33" y2="16.6"/>
      <line class="cls-11" x1="12.39" y1="16.28" x2="12.39" y2="16.28"/>
      <line class="cls-11" x1="14.21" y1="15.66" x2="14.21" y2="15.66"/>
      <line class="cls-11" x1="16.13" y1="15.54" x2="16.13" y2="15.54"/>
      <line class="cls-11" x1="18.08" y1="15.66" x2="18.08" y2="15.66"/>
      <line class="cls-11" x1="20.02" y1="16.1" x2="20.02" y2="16.1"/>
      <line class="cls-11" x1="9.12" y1="14.21" x2="9.12" y2="14.21"/>
      <line class="cls-11" x1="11.17" y1="13.89" x2="11.17" y2="13.89"/>
      <line class="cls-11" x1="12.99" y1="13.27" x2="12.99" y2="13.27"/>
      <line class="cls-11" x1="14.92" y1="13.15" x2="14.92" y2="13.15"/>
      <line class="cls-11" x1="16.87" y1="13.27" x2="16.87" y2="13.27"/>
      <line class="cls-11" x1="18.8" y1="13.71" x2="18.8" y2="13.71"/>
      <line class="cls-11" x1="21.75" y1="16.47" x2="21.75" y2="16.47"/>
      <line class="cls-11" x1="23.76" y1="16.54" x2="23.76" y2="16.54"/>
      <line class="cls-11" x1="25.81" y1="16.22" x2="25.81" y2="16.22"/>
      <line class="cls-11" x1="27.63" y1="15.6" x2="27.63" y2="15.6"/>
      <line class="cls-11" x1="29.56" y1="15.48" x2="29.56" y2="15.48"/>
      <line class="cls-11" x1="31.51" y1="15.6" x2="31.51" y2="15.6"/>
      <line class="cls-11" x1="33.44" y1="16.05" x2="33.44" y2="16.05"/>
      <line class="cls-11" x1="35.35" y1="16.42" x2="35.35" y2="16.42"/>
      <line class="cls-11" x1="28.92" y1="13.06" x2="28.92" y2="13.06"/>
      <line class="cls-11" x1="30.76" y1="13.27" x2="30.76" y2="13.27"/>
      <line class="cls-11" x1="32.71" y1="13.4" x2="32.71" y2="13.4"/>
      <line class="cls-11" x1="34.65" y1="13.84" x2="34.65" y2="13.84"/>
      <line class="cls-11" x1="36.55" y1="14.21" x2="36.55" y2="14.21"/>
      <line class="cls-11" x1="37.32" y1="16.54" x2="37.32" y2="16.54"/>
      <line class="cls-11" x1="39.38" y1="16.22" x2="39.38" y2="16.22"/>
      <line class="cls-11" x1="41.2" y1="15.6" x2="41.2" y2="15.6"/>
      <line class="cls-11" x1="43.13" y1="15.48" x2="43.13" y2="15.48"/>
      <line class="cls-11" x1="45.07" y1="15.6" x2="45.07" y2="15.6"/>
      <line class="cls-11" x1="47.01" y1="16.05" x2="47.01" y2="16.05"/>
      <line class="cls-11" x1="48.74" y1="16.42" x2="48.74" y2="16.42"/>
      <line class="cls-11" x1="50.73" y1="16.48" x2="50.73" y2="16.48"/>
      <line class="cls-11" x1="52.79" y1="16.17" x2="52.79" y2="16.17"/>
      <line class="cls-11" x1="45.67" y1="13.31" x2="45.67" y2="13.31"/>
      <line class="cls-11" x1="47.6" y1="13.76" x2="47.6" y2="13.76"/>
      <line class="cls-11" x1="49.34" y1="14.13" x2="49.34" y2="14.13"/>
      <line class="cls-11" x1="51.33" y1="14.19" x2="51.33" y2="14.19"/>
      <line class="cls-11" x1="53.38" y1="13.88" x2="53.38" y2="13.88"/>
      <line class="cls-11" x1="1.16" y1="21.45" x2="1.16" y2="21.45"/>
      <line class="cls-11" x1="2.98" y1="20.83" x2="2.98" y2="20.83"/>
      <line class="cls-11" x1="4.9" y1="20.7" x2="4.9" y2="20.7"/>
      <line class="cls-11" x1="6.85" y1="20.83" x2="6.85" y2="20.83"/>
      <line class="cls-11" x1="8.79" y1="21.27" x2="8.79" y2="21.27"/>
      <line class="cls-11" x1="10.63" y1="21.64" x2="10.63" y2="21.64"/>
      <line class="cls-11" x1="12.66" y1="21.77" x2="12.66" y2="21.77"/>
      <line class="cls-11" x1="14.72" y1="21.45" x2="14.72" y2="21.45"/>
      <line class="cls-11" x1="6.21" y1="18.36" x2="6.21" y2="18.36"/>
      <line class="cls-11" x1="8.15" y1="18.8" x2="8.15" y2="18.8"/>
      <line class="cls-11" x1="10" y1="19.17" x2="10" y2="19.17"/>
      <line class="cls-11" x1="12.03" y1="19.3" x2="12.03" y2="19.3"/>
      <line class="cls-11" x1="14.08" y1="18.73" x2="14.08" y2="18.73"/>
      <line class="cls-11" x1="16.54" y1="20.83" x2="16.54" y2="20.83"/>
      <line class="cls-11" x1="18.46" y1="20.7" x2="18.46" y2="20.7"/>
      <line class="cls-11" x1="20.41" y1="20.83" x2="20.41" y2="20.83"/>
      <line class="cls-11" x1="22.35" y1="21.27" x2="22.35" y2="21.27"/>
      <line class="cls-11" x1="24.08" y1="21.64" x2="24.08" y2="21.64"/>
      <line class="cls-11" x1="26.09" y1="21.71" x2="26.09" y2="21.71"/>
      <line class="cls-11" x1="28.15" y1="21.39" x2="28.15" y2="21.39"/>
      <line class="cls-11" x1="29.96" y1="20.77" x2="29.96" y2="20.77"/>
      <line class="cls-11" x1="31.89" y1="20.65" x2="31.89" y2="20.65"/>
      <line class="cls-11" x1="33.84" y1="20.77" x2="33.84" y2="20.77"/>
      <line class="cls-11" x1="24" y1="19.15" x2="24" y2="19.15"/>
      <line class="cls-11" x1="26.03" y1="18.88" x2="26.03" y2="18.88"/>
      <line class="cls-11" x1="28.08" y1="18.56" x2="28.08" y2="18.56"/>
      <line class="cls-11" x1="29.9" y1="17.94" x2="29.9" y2="17.94"/>
      <line class="cls-11" x1="31.81" y1="18.15" x2="31.81" y2="18.15"/>
      <line class="cls-11" x1="33.75" y1="18.56" x2="33.75" y2="18.56"/>
      <line class="cls-11" x1="35.78" y1="21.21" x2="35.78" y2="21.21"/>
      <line class="cls-11" x1="37.68" y1="21.58" x2="37.68" y2="21.58"/>
      <line class="cls-11" x1="39.66" y1="21.71" x2="39.66" y2="21.71"/>
      <line class="cls-11" x1="41.71" y1="21.39" x2="41.71" y2="21.39"/>
      <line class="cls-11" x1="43.53" y1="20.77" x2="43.53" y2="20.77"/>
      <line class="cls-11" x1="45.46" y1="20.65" x2="45.46" y2="20.65"/>
      <line class="cls-11" x1="47.41" y1="20.77" x2="47.41" y2="20.77"/>
      <line class="cls-11" x1="49.34" y1="21.21" x2="49.34" y2="21.21"/>
      <line class="cls-11" x1="51.08" y1="21.58" x2="51.08" y2="21.58"/>
      <line class="cls-11" x1="44.08" y1="18.15" x2="44.08" y2="18.15"/>
      <line class="cls-11" x1="45.84" y1="18.27" x2="45.84" y2="18.27"/>
      <line class="cls-11" x1="47.79" y1="18.4" x2="47.79" y2="18.4"/>
      <line class="cls-11" x1="49.73" y1="18.84" x2="49.73" y2="18.84"/>
      <line class="cls-11" x1="51.46" y1="19.21" x2="51.46" y2="19.21"/>
      <line class="cls-11" x1="53.07" y1="21.65" x2="53.07" y2="21.65"/>
      <line class="cls-11" x1="0.99" y1="26.11" x2="0.99" y2="26.11"/>
      <line class="cls-11" x1="2.81" y1="25.49" x2="2.81" y2="25.49"/>
      <line class="cls-11" x1="4.74" y1="25.37" x2="4.74" y2="25.37"/>
      <line class="cls-11" x1="6.68" y1="25.49" x2="6.68" y2="25.49"/>
      <line class="cls-11" x1="1.22" y1="23.69" x2="1.22" y2="23.69"/>
      <line class="cls-11" x1="3.21" y1="22.95" x2="3.21" y2="22.95"/>
      <line class="cls-11" x1="5.19" y1="22.77" x2="5.19" y2="22.77"/>
      <line class="cls-11" x1="7.25" y1="22.9" x2="7.25" y2="22.9"/>
      <line class="cls-11" x1="8.62" y1="25.94" x2="8.62" y2="25.94"/>
      <line class="cls-11" x1="10.47" y1="26.31" x2="10.47" y2="26.31"/>
      <line class="cls-11" x1="12.5" y1="26.43" x2="12.5" y2="26.43"/>
      <line class="cls-11" x1="14.55" y1="26.11" x2="14.55" y2="26.11"/>
      <line class="cls-11" x1="16.37" y1="25.49" x2="16.37" y2="25.49"/>
      <line class="cls-11" x1="18.3" y1="25.37" x2="18.3" y2="25.37"/>
      <line class="cls-11" x1="20.25" y1="25.49" x2="20.25" y2="25.49"/>
      <line class="cls-11" x1="22.18" y1="25.94" x2="22.18" y2="25.94"/>
      <line class="cls-11" x1="14.29" y1="28.74" x2="14.29" y2="28.74"/>
      <line class="cls-11" x1="16.1" y1="28.12" x2="16.1" y2="28.12"/>
      <line class="cls-11" x1="18.03" y1="27.99" x2="18.03" y2="27.99"/>
      <line class="cls-11" x1="19.98" y1="28.12" x2="19.98" y2="28.12"/>
      <line class="cls-11" x1="21.5" y1="28.06" x2="21.5" y2="28.06"/>
      <line class="cls-11" x1="23.92" y1="26.31" x2="23.92" y2="26.31"/>
      <line class="cls-11" x1="25.92" y1="26.38" x2="25.92" y2="26.38"/>
      <line class="cls-11" x1="17.58" y1="23.15" x2="17.58" y2="23.15"/>
      <line class="cls-11" x1="19.51" y1="23.02" x2="19.51" y2="23.02"/>
      <line class="cls-11" x1="21.46" y1="23.15" x2="21.46" y2="23.15"/>
      <line class="cls-11" x1="23.4" y1="23.59" x2="23.4" y2="23.59"/>
      <line class="cls-11" x1="25.13" y1="23.96" x2="25.13" y2="23.96"/>
      <line class="cls-11" x1="27.98" y1="26.06" x2="27.98" y2="26.06"/>
      <line class="cls-11" x1="29.8" y1="25.44" x2="29.8" y2="25.44"/>
      <line class="cls-11" x1="31.72" y1="25.31" x2="31.72" y2="25.31"/>
      <line class="cls-11" x1="33.67" y1="25.44" x2="33.67" y2="25.44"/>
      <line class="cls-11" x1="35.61" y1="25.88" x2="35.61" y2="25.88"/>
      <line class="cls-11" x1="37.51" y1="26.25" x2="37.51" y2="26.25"/>
      <line class="cls-11" x1="39.49" y1="26.38" x2="39.49" y2="26.38"/>
      <line class="cls-11" x1="41.55" y1="26.06" x2="41.55" y2="26.06"/>
      <line class="cls-11" x1="43.37" y1="25.44" x2="43.37" y2="25.44"/>
      <line class="cls-11" x1="45.29" y1="25.31" x2="45.29" y2="25.31"/>
      <line class="cls-11" x1="36.65" y1="23.39" x2="36.65" y2="23.39"/>
      <line class="cls-11" x1="38.55" y1="23.76" x2="38.55" y2="23.76"/>
      <line class="cls-11" x1="40.53" y1="23.88" x2="40.53" y2="23.88"/>
      <line class="cls-11" x1="42.58" y1="23.56" x2="42.58" y2="23.56"/>
      <line class="cls-11" x1="44.4" y1="22.94" x2="44.4" y2="22.94"/>
      <line class="cls-11" x1="47.24" y1="25.44" x2="47.24" y2="25.44"/>
      <line class="cls-11" x1="49.18" y1="25.88" x2="49.18" y2="25.88"/>
      <line class="cls-11" x1="51.42" y1="26.25" x2="51.42" y2="26.25"/>
      <line class="cls-11" x1="53.18" y1="26.32" x2="53.18" y2="26.32"/>
      <line class="cls-11" x1="0.47" y1="31.43" x2="0.47" y2="31.43"/>
      <line class="cls-11" x1="2.32" y1="31.11" x2="2.32" y2="31.11"/>
      <line class="cls-11" x1="4.14" y1="30.49" x2="4.14" y2="30.49"/>
      <line class="cls-11" x1="0.83" y1="29" x2="0.83" y2="29"/>
      <line class="cls-11" x1="2.68" y1="28.68" x2="2.68" y2="28.68"/>
      <line class="cls-11" x1="4.5" y1="28.06" x2="4.5" y2="28.06"/>
      <line class="cls-11" x1="6.07" y1="30.37" x2="6.07" y2="30.37"/>
      <line class="cls-11" x1="8.02" y1="30.49" x2="8.02" y2="30.49"/>
      <line class="cls-11" x1="1.67" y1="33.68" x2="1.67" y2="33.68"/>
      <line class="cls-11" x1="3.54" y1="33.06" x2="3.54" y2="33.06"/>
      <line class="cls-11" x1="5.47" y1="32.94" x2="5.47" y2="32.94"/>
      <line class="cls-11" x1="7.42" y1="33.06" x2="7.42" y2="33.06"/>
      <line class="cls-11" x1="9.96" y1="30.94" x2="9.96" y2="30.94"/>
      <line class="cls-11" x1="11.8" y1="31.31" x2="11.8" y2="31.31"/>
      <line class="cls-11" x1="13.83" y1="31.43" x2="13.83" y2="31.43"/>
      <line class="cls-11" x1="15.89" y1="31.11" x2="15.89" y2="31.11"/>
      <line class="cls-11" x1="17.71" y1="30.49" x2="17.71" y2="30.49"/>
      <line class="cls-11" x1="19.63" y1="30.37" x2="19.63" y2="30.37"/>
      <line class="cls-11" x1="21.58" y1="30.49" x2="21.58" y2="30.49"/>
      <line class="cls-11" x1="23.52" y1="30.94" x2="23.52" y2="30.94"/>
      <line class="cls-11" x1="25.25" y1="31.31" x2="25.25" y2="31.31"/>
      <line class="cls-11" x1="27.26" y1="31.38" x2="27.26" y2="31.38"/>
      <line class="cls-11" x1="29.31" y1="31.06" x2="29.31" y2="31.06"/>
      <line class="cls-11" x1="31.13" y1="30.44" x2="31.13" y2="30.44"/>
      <line class="cls-11" x1="33.06" y1="30.31" x2="33.06" y2="30.31"/>
      <line class="cls-11" x1="35.01" y1="30.44" x2="35.01" y2="30.44"/>
      <line class="cls-11" x1="36.94" y1="30.88" x2="36.94" y2="30.88"/>
      <line class="cls-11" x1="38.85" y1="31.25" x2="38.85" y2="31.25"/>
      <line class="cls-11" x1="31.25" y1="28.15" x2="31.25" y2="28.15"/>
      <line class="cls-11" x1="33.18" y1="28.02" x2="33.18" y2="28.02"/>
      <line class="cls-11" x1="35.13" y1="28.15" x2="35.13" y2="28.15"/>
      <line class="cls-11" x1="37.06" y1="28.59" x2="37.06" y2="28.59"/>
      <line class="cls-11" x1="38.96" y1="28.96" x2="38.96" y2="28.96"/>
      <line class="cls-11" x1="40.82" y1="31.38" x2="40.82" y2="31.38"/>
      <line class="cls-11" x1="42.88" y1="31.06" x2="42.88" y2="31.06"/>
      <line class="cls-11" x1="44.7" y1="30.44" x2="44.7" y2="30.44"/>
      <line class="cls-11" x1="46.63" y1="30.31" x2="46.63" y2="30.31"/>
      <line class="cls-11" x1="48.75" y1="30.52" x2="48.75" y2="30.52"/>
      <line class="cls-11" x1="50.68" y1="30.9" x2="50.68" y2="30.9"/>
      <line class="cls-11" x1="52.61" y1="31.27" x2="52.61" y2="31.27"/>
      <line class="cls-11" x1="51.15" y1="28.51" x2="51.15" y2="28.51"/>
      <line class="cls-11" x1="52.88" y1="28.88" x2="52.88" y2="28.88"/>
      <line class="cls-11" x1="1.32" y1="36.43" x2="1.32" y2="36.43"/>
      <line class="cls-11" x1="3.32" y1="36.11" x2="3.32" y2="36.11"/>
      <line class="cls-11" x1="5.14" y1="35.49" x2="5.14" y2="35.49"/>
      <line class="cls-11" x1="7.07" y1="35.37" x2="7.07" y2="35.37"/>
      <line class="cls-11" x1="9.02" y1="35.49" x2="9.02" y2="35.49"/>
      <line class="cls-11" x1="10.96" y1="35.94" x2="10.96" y2="35.94"/>
      <line class="cls-11" x1="12.8" y1="36.31" x2="12.8" y2="36.31"/>
      <line class="cls-11" x1="14.83" y1="36.43" x2="14.83" y2="36.43"/>
      <line class="cls-11" x1="16.89" y1="36.11" x2="16.89" y2="36.11"/>
      <line class="cls-11" x1="18.71" y1="35.49" x2="18.71" y2="35.49"/>
      <line class="cls-11" x1="20.63" y1="35.37" x2="20.63" y2="35.37"/>
      <line class="cls-11" x1="22.58" y1="35.49" x2="22.58" y2="35.49"/>
      <line class="cls-11" x1="24.52" y1="35.94" x2="24.52" y2="35.94"/>
      <line class="cls-11" x1="26.25" y1="36.31" x2="26.25" y2="36.31"/>
      <line class="cls-11" x1="18.57" y1="33.03" x2="18.57" y2="33.03"/>
      <line class="cls-11" x1="20.49" y1="32.9" x2="20.49" y2="32.9"/>
      <line class="cls-11" x1="22.44" y1="33.03" x2="22.44" y2="33.03"/>
      <line class="cls-11" x1="24.38" y1="33.47" x2="24.38" y2="33.47"/>
      <line class="cls-11" x1="26.11" y1="33.84" x2="26.11" y2="33.84"/>
      <line class="cls-11" x1="28.26" y1="36.38" x2="28.26" y2="36.38"/>
      <line class="cls-11" x1="30.31" y1="36.06" x2="30.31" y2="36.06"/>
      <line class="cls-11" x1="32.13" y1="35.44" x2="32.13" y2="35.44"/>
      <line class="cls-11" x1="34.06" y1="35.31" x2="34.06" y2="35.31"/>
      <line class="cls-11" x1="36.01" y1="35.44" x2="36.01" y2="35.44"/>
      <line class="cls-11" x1="37.94" y1="35.88" x2="37.94" y2="35.88"/>
      <line class="cls-11" x1="39.85" y1="36.25" x2="39.85" y2="36.25"/>
      <line class="cls-11" x1="41.82" y1="36.38" x2="41.82" y2="36.38"/>
      <line class="cls-11" x1="43.88" y1="36.06" x2="43.88" y2="36.06"/>
      <line class="cls-11" x1="45.7" y1="35.44" x2="45.7" y2="35.44"/>
      <line class="cls-11" x1="37.16" y1="33.26" x2="37.16" y2="33.26"/>
      <line class="cls-11" x1="39.06" y1="33.63" x2="39.06" y2="33.63"/>
      <line class="cls-11" x1="41.04" y1="33.75" x2="41.04" y2="33.75"/>
      <line class="cls-11" x1="43.1" y1="33.43" x2="43.1" y2="33.43"/>
      <line class="cls-11" x1="45.08" y1="33.06" x2="45.08" y2="33.06"/>
      <line class="cls-11" x1="47.63" y1="35.31" x2="47.63" y2="35.31"/>
      <line class="cls-11" x1="49.57" y1="35.44" x2="49.57" y2="35.44"/>
      <line class="cls-11" x1="51.51" y1="35.88" x2="51.51" y2="35.88"/>
      <line class="cls-11" x1="53.24" y1="36.25" x2="53.24" y2="36.25"/>
      <line class="cls-11" x1="1.16" y1="41.27" x2="1.16" y2="41.27"/>
      <line class="cls-11" x1="3.16" y1="40.95" x2="3.16" y2="40.95"/>
      <line class="cls-11" x1="4.98" y1="40.33" x2="4.98" y2="40.33"/>
      <line class="cls-11" x1="6.9" y1="40.2" x2="6.9" y2="40.2"/>
      <line class="cls-11" x1="8.85" y1="40.33" x2="8.85" y2="40.33"/>
      <line class="cls-11" x1="10.79" y1="40.77" x2="10.79" y2="40.77"/>
      <line class="cls-11" x1="12.63" y1="41.14" x2="12.63" y2="41.14"/>
      <line class="cls-11" x1="6.67" y1="37.81" x2="6.67" y2="37.81"/>
      <line class="cls-11" x1="8.59" y1="37.69" x2="8.59" y2="37.69"/>
      <line class="cls-11" x1="10.54" y1="37.81" x2="10.54" y2="37.81"/>
      <line class="cls-11" x1="12.48" y1="38.26" x2="12.48" y2="38.26"/>
      <line class="cls-11" x1="14.25" y1="38.81" x2="14.25" y2="38.81"/>
      <line class="cls-11" x1="14.66" y1="41.27" x2="14.66" y2="41.27"/>
      <line class="cls-11" x1="16.72" y1="40.95" x2="16.72" y2="40.95"/>
      <line class="cls-11" x1="18.54" y1="40.33" x2="18.54" y2="40.33"/>
      <line class="cls-11" x1="20.46" y1="40.2" x2="20.46" y2="40.2"/>
      <line class="cls-11" x1="22.41" y1="40.33" x2="22.41" y2="40.33"/>
      <line class="cls-11" x1="24.35" y1="40.77" x2="24.35" y2="40.77"/>
      <line class="cls-11" x1="26.08" y1="41.14" x2="26.08" y2="41.14"/>
      <line class="cls-11" x1="28.09" y1="41.21" x2="28.09" y2="41.21"/>
      <line class="cls-11" x1="30.15" y1="40.89" x2="30.15" y2="40.89"/>
      <line class="cls-11" x1="31.96" y1="40.27" x2="31.96" y2="40.27"/>
      <line class="cls-11" x1="23.47" y1="38.31" x2="23.47" y2="38.31"/>
      <line class="cls-11" x1="25.2" y1="38.68" x2="25.2" y2="38.68"/>
      <line class="cls-11" x1="27.21" y1="38.75" x2="27.21" y2="38.75"/>
      <line class="cls-11" x1="29.27" y1="38.43" x2="29.27" y2="38.43"/>
      <line class="cls-11" x1="31.25" y1="38.15" x2="31.25" y2="38.15"/>
      <line class="cls-11" x1="33.89" y1="40.15" x2="33.89" y2="40.15"/>
      <line class="cls-11" x1="35.84" y1="40.27" x2="35.84" y2="40.27"/>
      <line class="cls-11" x1="37.78" y1="40.71" x2="37.78" y2="40.71"/>
      <line class="cls-11" x1="39.68" y1="41.08" x2="39.68" y2="41.08"/>
      <line class="cls-11" x1="41.66" y1="41.21" x2="41.66" y2="41.21"/>
      <line class="cls-11" x1="43.71" y1="40.89" x2="43.71" y2="40.89"/>
      <line class="cls-11" x1="45.53" y1="40.27" x2="45.53" y2="40.27"/>
      <line class="cls-11" x1="47.46" y1="40.15" x2="47.46" y2="40.15"/>
      <line class="cls-11" x1="49.41" y1="40.27" x2="49.41" y2="40.27"/>
      <line class="cls-11" x1="51.34" y1="40.71" x2="51.34" y2="40.71"/>
      <line class="cls-11" x1="41.48" y1="38.72" x2="41.48" y2="38.72"/>
      <line class="cls-11" x1="43.54" y1="38.4" x2="43.54" y2="38.4"/>
      <line class="cls-11" x1="45.35" y1="37.79" x2="45.35" y2="37.79"/>
      <line class="cls-11" x1="47.28" y1="37.66" x2="47.28" y2="37.66"/>
      <line class="cls-11" x1="49.23" y1="37.79" x2="49.23" y2="37.79"/>
      <line class="cls-11" x1="51.17" y1="38.23" x2="51.17" y2="38.23"/>
      <line class="cls-11" x1="53.08" y1="41.08" x2="53.08" y2="41.08"/>
      <line class="cls-11" x1="1.88" y1="45.99" x2="1.88" y2="45.99"/>
      <line class="cls-11" x1="3.69" y1="45.37" x2="3.69" y2="45.37"/>
      <line class="cls-11" x1="5.62" y1="45.24" x2="5.62" y2="45.24"/>
      <line class="cls-11" x1="1.17" y1="43.72" x2="1.17" y2="43.72"/>
      <line class="cls-11" x1="2.99" y1="43.1" x2="2.99" y2="43.1"/>
      <line class="cls-11" x1="4.92" y1="42.98" x2="4.92" y2="42.98"/>
      <line class="cls-11" x1="7.57" y1="45.37" x2="7.57" y2="45.37"/>
      <line class="cls-11" x1="9.51" y1="45.81" x2="9.51" y2="45.81"/>
      <line class="cls-11" x1="11.35" y1="46.18" x2="11.35" y2="46.18"/>
      <line class="cls-11" x1="13.38" y1="46.31" x2="13.38" y2="46.31"/>
      <line class="cls-11" x1="15.44" y1="45.99" x2="15.44" y2="45.99"/>
      <line class="cls-11" x1="8.65" y1="48.14" x2="8.65" y2="48.14"/>
      <line class="cls-11" x1="10.5" y1="48.51" x2="10.5" y2="48.51"/>
      <line class="cls-11" x1="12.53" y1="48.63" x2="12.53" y2="48.63"/>
      <line class="cls-11" x1="14.58" y1="48.31" x2="14.58" y2="48.31"/>
      <line class="cls-11" x1="16.25" y1="47.98" x2="16.25" y2="47.98"/>
      <line class="cls-11" x1="17.26" y1="45.37" x2="17.26" y2="45.37"/>
      <line class="cls-11" x1="19.18" y1="45.24" x2="19.18" y2="45.24"/>
      <line class="cls-11" x1="21.13" y1="45.37" x2="21.13" y2="45.37"/>
      <line class="cls-11" x1="23.07" y1="45.81" x2="23.07" y2="45.81"/>
      <line class="cls-11" x1="15.64" y1="43.6" x2="15.64" y2="43.6"/>
      <line class="cls-11" x1="17.46" y1="42.98" x2="17.46" y2="42.98"/>
      <line class="cls-11" x1="19.38" y1="42.85" x2="19.38" y2="42.85"/>
      <line class="cls-11" x1="21.33" y1="42.98" x2="21.33" y2="42.98"/>
      <line class="cls-11" x1="24.8" y1="46.18" x2="24.8" y2="46.18"/>
      <line class="cls-11" x1="26.81" y1="46.25" x2="26.81" y2="46.25"/>
      <line class="cls-11" x1="28.86" y1="45.93" x2="28.86" y2="45.93"/>
      <line class="cls-11" x1="30.68" y1="45.31" x2="30.68" y2="45.31"/>
      <line class="cls-11" x1="32.61" y1="45.19" x2="32.61" y2="45.19"/>
      <line class="cls-11" x1="34.56" y1="45.31" x2="34.56" y2="45.31"/>
      <line class="cls-11" x1="36.49" y1="45.76" x2="36.49" y2="45.76"/>
      <line class="cls-11" x1="26.65" y1="48.72" x2="26.65" y2="48.72"/>
      <line class="cls-11" x1="28.7" y1="48.4" x2="28.7" y2="48.4"/>
      <line class="cls-11" x1="30.52" y1="47.79" x2="30.52" y2="47.79"/>
      <line class="cls-11" x1="32.45" y1="47.66" x2="32.45" y2="47.66"/>
      <line class="cls-11" x1="34.4" y1="47.79" x2="34.4" y2="47.79"/>
      <line class="cls-11" x1="36.33" y1="48.23" x2="36.33" y2="48.23"/>
      <line class="cls-11" x1="38.4" y1="46.13" x2="38.4" y2="46.13"/>
      <line class="cls-11" x1="32" y1="42.98" x2="32" y2="42.98"/>
      <line class="cls-11" x1="33.93" y1="42.85" x2="33.93" y2="42.85"/>
      <line class="cls-11" x1="35.88" y1="42.98" x2="35.88" y2="42.98"/>
      <line class="cls-11" x1="37.81" y1="43.42" x2="37.81" y2="43.42"/>
      <line class="cls-11" x1="39.71" y1="43.79" x2="39.71" y2="43.79"/>
      <line class="cls-11" x1="40.38" y1="46.25" x2="40.38" y2="46.25"/>
      <line class="cls-11" x1="42.43" y1="45.93" x2="42.43" y2="45.93"/>
      <line class="cls-11" x1="44.25" y1="45.31" x2="44.25" y2="45.31"/>
      <line class="cls-11" x1="46.18" y1="45.19" x2="46.18" y2="45.19"/>
      <line class="cls-11" x1="48.13" y1="45.31" x2="48.13" y2="45.31"/>
      <line class="cls-11" x1="50.1" y1="45.65" x2="50.1" y2="45.65"/>
      <line class="cls-11" x1="52.04" y1="46.02" x2="52.04" y2="46.02"/>
      <line class="cls-11" x1="53.78" y1="46.19" x2="53.78" y2="46.19"/>
      <line class="cls-11" x1="46.13" y1="47.63" x2="46.13" y2="47.63"/>
      <line class="cls-11" x1="48.08" y1="47.75" x2="48.08" y2="47.75"/>
      <line class="cls-11" x1="50.23" y1="48.15" x2="50.23" y2="48.15"/>
      <line class="cls-11" x1="52.04" y1="48.46" x2="52.04" y2="48.46"/>
      <line class="cls-11" x1="53.74" y1="48.63" x2="53.74" y2="48.63"/>
      <line class="cls-11" x1="51.33" y1="43.31" x2="51.33" y2="43.31"/>
      <line class="cls-11" x1="53.32" y1="43.38" x2="53.32" y2="43.38"/>
      <line class="cls-11" x1="0.6" y1="50.88" x2="0.6" y2="50.88"/>
      <line class="cls-11" x1="2.42" y1="50.26" x2="2.42" y2="50.26"/>
      <line class="cls-11" x1="4.35" y1="50.13" x2="4.35" y2="50.13"/>
      <line class="cls-11" x1="6.3" y1="50.26" x2="6.3" y2="50.26"/>
      <line class="cls-11" x1="8.24" y1="50.7" x2="8.24" y2="50.7"/>
      <line class="cls-11" x1="10.08" y1="51.07" x2="10.08" y2="51.07"/>
      <line class="cls-11" x1="2.92" y1="52.67" x2="2.92" y2="52.67"/>
      <line class="cls-11" x1="4.85" y1="52.54" x2="4.85" y2="52.54"/>
      <line class="cls-11" x1="6.8" y1="52.67" x2="6.8" y2="52.67"/>
      <line class="cls-11" x1="8.74" y1="53.11" x2="8.74" y2="53.11"/>
      <line class="cls-11" x1="10.58" y1="53.48" x2="10.58" y2="53.48"/>
      <line class="cls-11" x1="12.11" y1="51.2" x2="12.11" y2="51.2"/>
      <line class="cls-11" x1="14.17" y1="50.88" x2="14.17" y2="50.88"/>
      <line class="cls-11" x1="15.99" y1="50.26" x2="15.99" y2="50.26"/>
      <line class="cls-11" x1="17.91" y1="50.13" x2="17.91" y2="50.13"/>
      <line class="cls-11" x1="19.86" y1="50.26" x2="19.86" y2="50.26"/>
      <line class="cls-11" x1="21.8" y1="50.7" x2="21.8" y2="50.7"/>
      <line class="cls-11" x1="23.53" y1="51.07" x2="23.53" y2="51.07"/>
      <line class="cls-11" x1="25.54" y1="51.14" x2="25.54" y2="51.14"/>
      <line class="cls-11" x1="27.59" y1="50.82" x2="27.59" y2="50.82"/>
      <line class="cls-11" x1="29.41" y1="50.2" x2="29.41" y2="50.2"/>
      <line class="cls-11" x1="22.3" y1="53.31" x2="22.3" y2="53.31"/>
      <line class="cls-11" x1="24.04" y1="53.68" x2="24.04" y2="53.68"/>
      <line class="cls-11" x1="26.04" y1="53.75" x2="26.04" y2="53.75"/>
      <line class="cls-11" x1="28.1" y1="53.43" x2="28.1" y2="53.43"/>
      <line class="cls-11" x1="29.92" y1="52.81" x2="29.92" y2="52.81"/>
      <line class="cls-11" x1="31.34" y1="50.08" x2="31.34" y2="50.08"/>
      <line class="cls-11" x1="33.29" y1="50.2" x2="33.29" y2="50.2"/>
      <line class="cls-11" x1="35.22" y1="50.65" x2="35.22" y2="50.65"/>
      <line class="cls-11" x1="37.13" y1="51.02" x2="37.13" y2="51.02"/>
      <line class="cls-11" x1="39.1" y1="51.14" x2="39.1" y2="51.14"/>
      <line class="cls-11" x1="41.16" y1="50.82" x2="41.16" y2="50.82"/>
      <line class="cls-11" x1="42.98" y1="50.2" x2="42.98" y2="50.2"/>
      <line class="cls-11" x1="44.91" y1="50.08" x2="44.91" y2="50.08"/>
      <line class="cls-11" x1="46.85" y1="50.2" x2="46.85" y2="50.2"/>
      <line class="cls-11" x1="40.72" y1="53.18" x2="40.72" y2="53.18"/>
      <line class="cls-11" x1="42.54" y1="52.56" x2="42.54" y2="52.56"/>
      <line class="cls-11" x1="44.47" y1="52.44" x2="44.47" y2="52.44"/>
      <line class="cls-11" x1="46.42" y1="52.56" x2="46.42" y2="52.56"/>
      <line class="cls-11" x1="48.79" y1="50.65" x2="48.79" y2="50.65"/>
      <line class="cls-11" x1="50.52" y1="51.02" x2="50.52" y2="51.02"/>
      <line class="cls-11" x1="52.51" y1="51.08" x2="52.51" y2="51.08"/>
    </pattern>
    <filter id="luminosity-noclip" x="31.79" y="23.59" width="968.87" height="968.87" filterUnits="userSpaceOnUse" color-interpolation-filters="sRGB">
      <feFlood flood-color="#fff" result="bg"/>
      <feBlend in="SourceGraphic" in2="bg"/>
    </filter>
    <mask id="mask" x="31.79" y="23.59" width="968.87" height="968.87" maskUnits="userSpaceOnUse">
      <circle id="Outer_Ring" data-name="Outer Ring" class="cls-1" cx="514" cy="511" r="226.77"/>
    </mask>
    <filter id="luminosity-noclip-2" x="0" y="0" width="981.43" height="973.23" filterUnits="userSpaceOnUse" color-interpolation-filters="sRGB">
      <feFlood flood-color="#fff" result="bg"/>
      <feBlend in="SourceGraphic" in2="bg"/>
    </filter>
    <symbol id="Straight_Sun_Ray_Mask" data-name="Straight Sun Ray Mask" viewBox="0 0 61.09 126.9">
      <path class="cls-13" d="M60.45,126.4H.63l29-124.26Z"/>
    </symbol>
    <mask id="mask-2" x="0" y="0" width="981.43" height="973.23" maskUnits="userSpaceOnUse">
      <g id="Straight_Rays_Mask" data-name="Straight Rays Mask" class="cls-2">
        <use width="61.09" height="126.9" transform="translate(454.91 40.21) scale(2.22)" xlink:href="#Straight_Sun_Ray_Mask"/>
        <use width="61.09" height="126.9" transform="translate(577.54 975.83) rotate(180) scale(2.22)" xlink:href="#Straight_Sun_Ray_Mask"/>
        <use width="61.09" height="126.9" transform="translate(803.66 133.87) rotate(45) scale(2.22)" xlink:href="#Straight_Sun_Ray_Mask"/>
        <use width="61.09" height="126.9" transform="translate(228.79 882.17) rotate(-135) scale(2.22)" xlink:href="#Straight_Sun_Ray_Mask"/>
        <use width="61.09" height="126.9" transform="translate(984.04 446.71) rotate(90) scale(2.22)" xlink:href="#Straight_Sun_Ray_Mask"/>
        <use width="61.09" height="126.9" transform="translate(48.42 569.34) rotate(-90) scale(2.22)" xlink:href="#Straight_Sun_Ray_Mask"/>
        <use width="61.09" height="126.9" transform="translate(890.38 795.46) rotate(135) scale(2.22)" xlink:href="#Straight_Sun_Ray_Mask"/>
        <use width="61.09" height="126.9" transform="translate(142.08 220.59) rotate(-45) scale(2.22)" xlink:href="#Straight_Sun_Ray_Mask"/>
      </g>
    </mask>
    <filter id="luminosity-noclip-3" x="-0.18" y="1.41" width="983.65" height="990.41" filterUnits="userSpaceOnUse" color-interpolation-filters="sRGB">
      <feFlood flood-color="#fff" result="bg"/>
      <feBlend in="SourceGraphic" in2="bg"/>
    </filter>
    <mask id="mask-3" x="-0.18" y="1.41" width="983.65" height="990.41" maskUnits="userSpaceOnUse">
      <rect class="cls-3" x="26.29" y="34.64" width="957.18" height="957.18"/>
    </mask>
    <filter id="luminosity-invert" filterUnits="userSpaceOnUse" color-interpolation-filters="sRGB">
      <feColorMatrix values="-1 0 0 0 1 0 -1 0 0 1 0 0 -1 0 1 0 0 0 1 0"/>
    </filter>
    <symbol id="Curvy_Sun_Ray_Mask" data-name="Curvy Sun Ray Mask" viewBox="0 0 66.45 133.13">
      <path class="cls-12" d="M62.52,131.12H2.7c-2-18.6.77-32.25,3.55-41.05,6.05-19.19,15.28-25.9,21.44-45.52a99.34,99.34,0,0,0,4-37.69C39,16.73,45.94,29.74,47.87,45.68c2.24,18.41-3.83,27.53-1.65,46C47.51,102.61,51.63,116.14,62.52,131.12Z"/>
    </symbol>
    <mask id="mask-4" x="0" y="-35.24" width="1059.7" height="1090.59" maskUnits="userSpaceOnUse">
      <g id="Curvy_Rays_Fill" data-name="Curvy Rays Fill" class="cls-7">
        <use width="66.45" height="133.12" transform="translate(744.45 949.14) rotate(161.48) scale(2.22)" xlink:href="#Curvy_Sun_Ray_Mask"/>
        <use width="66.45" height="133.12" transform="translate(291.83 63.74) rotate(-17.5) scale(2.22)" xlink:href="#Curvy_Sun_Ray_Mask"/>
        <use width="66.45" height="133.12" transform="matrix(-0.99, 1.99, -1.99, -0.99, 990.97, 659.74)" xlink:href="#Curvy_Sun_Ray_Mask"/>
        <use width="66.45" height="133.12" transform="translate(44.84 353.71) rotate(-62.5) scale(2.22)" xlink:href="#Curvy_Sun_Ray_Mask"/>
        <use width="66.45" height="133.12" transform="matrix(0.7, 2.1, -2.1, 0.7, 960.14, 280.94)" xlink:href="#Curvy_Sun_Ray_Mask"/>
        <use width="66.45" height="133.12" transform="translate(74.74 733.56) rotate(-107.5) scale(2.22)" xlink:href="#Curvy_Sun_Ray_Mask"/>
        <use width="66.45" height="133.12" transform="matrix(1.99, 0.99, -0.99, 1.99, 670.74, 34.42)" xlink:href="#Curvy_Sun_Ray_Mask"/>
        <use width="66.45" height="133.12" transform="translate(364.72 980.55) rotate(-152.5) scale(2.22)" xlink:href="#Curvy_Sun_Ray_Mask"/>
      </g>
    </mask>
    <mask id="mask-5" x="-137.83" y="-54.3" width="1283.29" height="1132.94" maskUnits="userSpaceOnUse">
      <rect class="cls-8" x="-137.83" y="-54.3" width="1283.29" height="1132.94"/>
    </mask>
    <mask id="mask-6" x="-7.6" y="19.82" width="1049.29" height="997.41" maskUnits="userSpaceOnUse">
      <g id="Straight_Rays_Mask-2" data-name="Straight Rays Mask" class="cls-7">
        <use width="61.09" height="126.9" transform="translate(454.91 40.21) scale(2.22)" xlink:href="#Straight_Sun_Ray_Mask"/>
        <use width="61.09" height="126.9" transform="translate(577.54 975.83) rotate(180) scale(2.22)" xlink:href="#Straight_Sun_Ray_Mask"/>
        <use width="61.09" height="126.9" transform="translate(803.66 133.87) rotate(45) scale(2.22)" xlink:href="#Straight_Sun_Ray_Mask"/>
        <use width="61.09" height="126.9" transform="translate(228.79 882.17) rotate(-135) scale(2.22)" xlink:href="#Straight_Sun_Ray_Mask"/>
        <use width="61.09" height="126.9" transform="translate(984.04 446.71) rotate(90) scale(2.22)" xlink:href="#Straight_Sun_Ray_Mask"/>
        <use width="61.09" height="126.9" transform="translate(48.42 569.34) rotate(-90) scale(2.22)" xlink:href="#Straight_Sun_Ray_Mask"/>
        <use width="61.09" height="126.9" transform="translate(890.38 795.46) rotate(135) scale(2.22)" xlink:href="#Straight_Sun_Ray_Mask"/>
        <use width="61.09" height="126.9" transform="translate(142.08 220.59) rotate(-45) scale(2.22)" xlink:href="#Straight_Sun_Ray_Mask"/>
      </g>
    </mask>
    <filter id="luminosity-noclip-4" x="-0.05" y="1.11" width="724.4" height="713.5" filterUnits="userSpaceOnUse" color-interpolation-filters="sRGB">
      <feFlood flood-color="#fff" result="bg"/>
      <feBlend in="SourceGraphic" in2="bg"/>
    </filter>
    <mask id="mask-7" x="-0.05" y="1.11" width="724.4" height="713.5" maskUnits="userSpaceOnUse">
      <path id="Inner_Ring_Fill" data-name="Inner Ring Fill" class="cls-10" d="M445.64,314.6c73.71,39.65,119,117.31,116.47,200-2.35,78.14-46.94,149.49-116.47,186.81,10.11,3.86,98.38,35.82,182.47-16.69C722.24,626,723.4,516.13,723.35,508s-2.69-114.84-95.24-173.81C544.27,280.79,456.12,310.83,445.64,314.6Z"/>
    </mask>
  </defs>
  <g id="Sun_Bold" data-name="Sun Bold">
    <g id="Sun">
      <g class="cls-14">
        <g id="Rays">
          <g class="cls-15">
            <g id="Curvy_Rays" data-name="Curvy Rays">
              <g class="cls-16">
                <g id="Background">
                  <g class="cls-17">
                    <rect id="Background_Fill" data-name="Background Fill" class="cls-18" x="11.46" y="-35.24" width="1048.24" height="1090.59"/>
                  </g>
                </g>
              </g>
              <g id="Outlines">
                <path id="Outline" class="cls-19" d="M520.46,717.29l62.94-21.08,62.94-21.09c17.41,37.7,21.11,68.43,21.48,88.88.79,44.67-13.9,65.28-13,110.92a220.41,220.41,0,0,0,18,82.15c-22.18-15.66-46-38.13-61.31-70.31-17.67-37.15-11.33-60.64-28.92-97.93C572.15,766.7,554,741.14,520.46,717.29Z"/>
                <path id="Outline-2" data-name="Outline" class="cls-19" d="M511.66,299.53l-63.31,20-63.31,20c-16.73-38-19.89-68.79-19.89-89.24,0-44.67,15.06-65,15-110.67a220.21,220.21,0,0,0-16.57-82.46c21.9,16,45.32,38.94,60.05,71.39,17,37.46,10.26,60.83,27.18,98.42C460.86,249.21,478.6,275.09,511.66,299.53Z"/>
                <path id="Outline-3" data-name="Outline" class="cls-19" d="M668.64,654.18q14.8-29.71,29.6-59.42t29.6-59.41c39,14.35,63.31,33.46,78,47.66,32.14,31,36.34,56,69.22,87.65A220.32,220.32,0,0,0,945.93,716c-26.76,4.61-59.49,5.57-93.07-6.36-38.77-13.77-50.89-34.87-89.7-48.79C740.13,652.57,709.19,647.36,668.64,654.18Z"/>
                <path id="Outline-4" data-name="Outline" class="cls-19" d="M367,365l-30.65,58.87Q321,453.33,305.72,482.76c-38.71-15-62.71-34.57-77.17-49C197,402.13,193.21,377.1,160.9,344.86a220.51,220.51,0,0,0-70-46.59c26.83-4.14,59.58-4.51,92.94,8,38.52,14.47,50.27,35.77,88.81,50.39C295.51,365.34,326.36,371.1,367,365Z"/>
                <path id="Outline-5" data-name="Outline" class="cls-19" d="M728.29,504.93Q717.76,473.46,707.21,442t-21.08-62.94c37.7-17.41,68.42-21.11,88.88-21.47,44.66-.8,65.28,13.89,110.92,13a220.3,220.3,0,0,0,82.14-18c-15.66,22.18-38.12,46-70.3,61.31-37.16,17.67-60.65,11.33-97.93,28.92C777.71,453.24,752.14,471.44,728.29,504.93Z"/>
                <path id="Outline-6" data-name="Outline" class="cls-19" d="M310.54,513.74q10,31.65,20,63.3t20,63.31c-38,16.74-68.79,19.89-89.25,19.89-44.67,0-65-15.06-110.67-15a220.11,220.11,0,0,0-82.45,16.57c16-21.9,38.93-45.32,71.38-60,37.46-17,60.84-10.26,98.43-27.18C260.21,564.53,286.09,546.79,310.54,513.74Z"/>
                <path id="Outline-7" data-name="Outline" class="cls-19" d="M665.18,356.75l-59.41-29.6-59.42-29.6c14.35-39,33.46-63.31,47.67-78,31-32.14,56-36.34,87.64-69.22A220.15,220.15,0,0,0,727,79.46c4.62,26.76,5.58,59.49-6.35,93.07-13.78,38.77-34.87,50.9-48.8,89.7C663.58,285.26,658.37,316.2,665.18,356.75Z"/>
                <path id="Outline-8" data-name="Outline" class="cls-19" d="M376,658.37,434.89,689l58.88,30.65c-15,38.71-34.58,62.71-49,77.17-31.59,31.59-56.62,35.34-88.86,67.65a220.27,220.27,0,0,0-46.58,70c-4.14-26.83-4.52-59.58,8-92.93,14.46-38.52,35.77-50.27,50.38-88.82C376.34,729.88,382.1,699,376,658.37Z"/>
              </g>
            </g>
          </g>
          <g id="Straight_Rays" data-name="Straight Rays">
            <g class="cls-20">
              <g id="Background-2" data-name="Background">
                <g class="cls-21">
                  <rect id="Background_Fill-2" data-name="Background Fill" class="cls-22" x="-7.6" y="19.82" width="1049.29" height="997.41"/>
                </g>
              </g>
            </g>
            <g id="Outlines-2" data-name="Outlines">
              <g>
                <g id="Middle_Line" data-name="Middle Line">
                  <path class="cls-18" d="M646.92,642.2,745.1,739l49.09,48.4c16,16.46,34,31,46.28,51.25-20.44-12-35.22-29.75-51.9-45.55L739.48,744.7,641.3,647.89Z"/>
                </g>
                <path id="Outline-9" data-name="Outline" class="cls-23" d="M597.17,692q23.48-23.46,46.94-46.94l46.94-46.93L840.47,838.66Z"/>
              </g>
              <g>
                <g id="Middle_Line-2" data-name="Middle Line">
                  <path class="cls-18" d="M385.54,373.85,287.36,277l-49.09-48.4c-16-16.47-34-31-46.28-51.26,20.43,12,35.21,29.75,51.9,45.56L293,271.34l98.17,96.81Z"/>
                </g>
                <path id="Outline-10" data-name="Outline" class="cls-23" d="M435.28,324.06,388.35,371l-46.94,46.94Q266.7,297.65,192,177.38Z"/>
              </g>
              <g>
                <g id="Middle_Line-3" data-name="Middle Line">
                  <path class="cls-18" d="M518.69,320.74l-1-137.88-.48-68.94c.3-23-2.13-45.95,3.51-69,6,22.94,3.87,45.94,4.49,68.91l.48,68.94,1,137.88Z"/>
                </g>
                <path id="Outline-11" data-name="Outline" class="cls-23" d="M589.07,320.71H456.31L520.75,45Q554.92,182.83,589.07,320.71Z"/>
              </g>
              <g>
                <g id="Middle_Line-4" data-name="Middle Line">
                  <path class="cls-18" d="M513.77,695.31l1,137.88.49,68.94c-.3,23,2.12,45.94-3.52,69-6-22.94-3.86-45.93-4.48-68.91l-.49-68.94-1-137.87Z"/>
                </g>
                <path id="Outline-12" data-name="Outline" class="cls-23" d="M443.39,695.34H576.15Q543.92,833.22,511.7,971.09Z"/>
              </g>
              <g>
                <g id="Middle_Line-5" data-name="Middle Line">
                  <path class="cls-18" d="M650.4,377.33l96.81-98.18,48.4-49.09c16.47-16,31-34,51.26-46.28-12,20.44-29.75,35.22-45.56,51.9l-48.4,49.09L656.1,383Z"/>
                </g>
                <path id="Outline-13" data-name="Outline" class="cls-23" d="M700.19,427.08l-46.94-46.94L606.31,333.2,846.87,183.78Q773.52,305.43,700.19,427.08Z"/>
              </g>
              <g>
                <g id="Middle_Line-6" data-name="Middle Line">
                  <path class="cls-18" d="M382.05,638.71l-96.8,98.18L236.84,786c-16.46,16-31,34-51.25,46.28,12-20.43,29.75-35.21,45.55-51.89l48.41-49.09,96.81-98.18Z"/>
                </g>
                <path id="Outline-14" data-name="Outline" class="cls-23" d="M332.27,589l46.94,46.94,46.93,46.93L185.59,832.26Z"/>
              </g>
              <g>
                <g id="Middle_Line-7" data-name="Middle Line">
                  <path class="cls-18" d="M703.52,510.49l137.87-1,68.94-.49c23,.3,45.95-2.12,69,3.52-22.94,6-45.94,3.86-68.91,4.48l-68.94.49-137.88,1Z"/>
                </g>
                <path id="Outline-15" data-name="Outline" class="cls-23" d="M703.54,580.86V448.11L979.3,512.55Z"/>
              </g>
              <g>
                <g id="Middle_Line-8" data-name="Middle Line">
                  <path class="cls-18" d="M328.94,505.56l-137.88,1-68.94.48c-23-.29-45.94,2.13-69-3.51,22.94-6,45.93-3.87,68.91-4.49l68.94-.48,137.87-1Z"/>
                </g>
                <path id="Outline-16" data-name="Outline" class="cls-23" d="M328.91,435.18V567.94L53.16,503.5Z"/>
              </g>
            </g>
          </g>
        </g>
      </g>
      <g id="Body">
        <circle id="Outer_Ring-2" data-name="Outer Ring" class="cls-23" cx="518.17" cy="508.02" r="226.77"/>
        <rect class="cls-4" x="27.35" y="24.05" width="981.53" height="981.53"/>
        <g class="cls-24">
          <path id="Inner_Ring_Fill-2" data-name="Inner Ring Fill" class="cls-18" d="M446.64,314.6c73.71,39.65,119,117.31,116.47,200-2.35,78.14-46.94,149.49-116.47,186.81,10.11,3.86,98.38,35.82,182.47-16.69C723.24,626,724.4,516.13,724.35,508s-2.69-114.84-95.24-173.81C545.27,280.79,457.12,310.83,446.64,314.6Z"/>
        </g>
        <circle id="Inner_Ring" data-name="Inner Ring" class="cls-23" cx="518.17" cy="508.02" r="206.18" transform="translate(-207.46 515.2) rotate(-45)"/>
      </g>
    </g>
  </g>
</svg>
