<svg id="Sun" xmlns="http://www.w3.org/2000/svg" xmlns:xlink="http://www.w3.org/1999/xlink" width="1024" height="1024">
  <defs>
    <mask id="mask" x="0" y="0" width="1000.66" height="992.46" maskUnits="userSpaceOnUse">
      <circle id="Outer_Ring" data-name="Outer Ring" cx="512" cy="512" r="226.77" filter="url(#luminosity-noclip)"/>
    </mask>
    <mask id="mask-2" x="0" y="0" width="981.43" height="973.23" maskUnits="userSpaceOnUse">
      <g id="Straight_Rays_Mask" data-name="Straight Rays Mask" filter="url(#luminosity-noclip-2)">
        <use width="61.09" height="126.9" transform="matrix(2.22 0 0 2.22 454.91 40.21)" xlink:href="#Straight_Sun_Ray_Mask"/>
        <use width="61.09" height="126.9" transform="rotate(180 288.77 487.92) scale(2.22)" xlink:href="#Straight_Sun_Ray_Mask"/>
        <use width="61.09" height="126.9" transform="rotate(45 240.23 1037.04) scale(2.22)" xlink:href="#Straight_Sun_Ray_Mask"/>
        <use width="61.09" height="126.9" transform="rotate(-135 297.1 393.7) scale(2.22)" xlink:href="#Straight_Sun_Ray_Mask"/>
        <use width="61.09" height="126.9" transform="rotate(90 268.67 715.38) scale(2.22)" xlink:href="#Straight_Sun_Ray_Mask"/>
        <use width="61.09" height="126.9" transform="matrix(0 -2.22 2.22 0 48.42 569.34)" xlink:href="#Straight_Sun_Ray_Mask"/>
        <use width="61.09" height="126.9" transform="rotate(135 280.44 582.13) scale(2.22)" xlink:href="#Straight_Sun_Ray_Mask"/>
        <use width="61.09" height="126.9" transform="rotate(-45 337.32 -61.21) scale(2.22)" xlink:href="#Straight_Sun_Ray_Mask"/>
      </g>
    </mask>
    <mask id="mask-3" x="-.18" y="1.41" width="983.65" height="990.41" maskUnits="userSpaceOnUse">
      <path fill="url(#_431-K)" filter="url(#luminosity-noclip-3)" d="M26.29 34.64h957.18v957.18H26.29z"/>
    </mask>
    <mask id="mask-4" x="0" y="-35.24" width="1059.7" height="1090.59" maskUnits="userSpaceOnUse">
      <g id="Curvy_Rays_Fill" data-name="Curvy Rays Fill" class="cls-7">
        <use width="66.45" height="133.12" transform="rotate(161.48 294.85 535.26) scale(2.22)" xlink:href="#Curvy_Sun_Ray_Mask"/>
        <use width="66.45" height="133.12" transform="rotate(-17.5 352.98 -916.15) scale(2.22)" xlink:href="#Curvy_Sun_Ray_Mask"/>
        <use width="66.45" height="133.12" transform="matrix(-.99 1.99 -1.99 -.99 990.97 659.74)" xlink:href="#Curvy_Sun_Ray_Mask"/>
        <use width="66.45" height="133.12" transform="rotate(-62.5 313.87 139.9) scale(2.22)" xlink:href="#Curvy_Sun_Ray_Mask"/>
        <use width="66.45" height="133.12" transform="rotate(71 280.86 805.25) scale(2.2)" xlink:href="#Curvy_Sun_Ray_Mask"/>
        <use width="66.45" height="133.12" transform="rotate(-107.5 306.3 339.38) scale(2.22)" xlink:href="#Curvy_Sun_Ray_Mask"/>
        <use width="66.45" height="133.12" transform="matrix(1.99 .99 -.99 1.99 670.74 34.42)" xlink:href="#Curvy_Sun_Ray_Mask"/>
        <use width="66.45" height="133.12" transform="rotate(-152.5 302.33 445.65) scale(2.22)" xlink:href="#Curvy_Sun_Ray_Mask"/>
      </g>
    </mask>
    <mask id="mask-5" x="-137.83" y="-54.3" width="1283.29" height="1132.94" maskUnits="userSpaceOnUse">
      <path fill="url(#_705)" filter="url(#luminosity-invert)" d="M-137.83-54.3h1283.29v1132.94H-137.83z"/>
    </mask>
    <mask id="mask-6" x="-7.6" y="19.82" width="1049.29" height="997.41" maskUnits="userSpaceOnUse">
      <g id="Straight_Rays_Mask-2" data-name="Straight Rays Mask" class="cls-7">
        <use width="61.09" height="126.9" transform="matrix(2.22 0 0 2.22 454.91 40.21)" xlink:href="#Straight_Sun_Ray_Mask"/>
        <use width="61.09" height="126.9" transform="rotate(180 288.77 487.92) scale(2.22)" xlink:href="#Straight_Sun_Ray_Mask"/>
        <use width="61.09" height="126.9" transform="rotate(45 240.23 1037.04) scale(2.22)" xlink:href="#Straight_Sun_Ray_Mask"/>
        <use width="61.09" height="126.9" transform="rotate(-135 297.1 393.7) scale(2.22)" xlink:href="#Straight_Sun_Ray_Mask"/>
        <use width="61.09" height="126.9" transform="rotate(90 268.67 715.38) scale(2.22)" xlink:href="#Straight_Sun_Ray_Mask"/>
        <use width="61.09" height="126.9" transform="matrix(0 -2.22 2.22 0 48.42 569.34)" xlink:href="#Straight_Sun_Ray_Mask"/>
        <use width="61.09" height="126.9" transform="rotate(135 280.44 582.13) scale(2.22)" xlink:href="#Straight_Sun_Ray_Mask"/>
        <use width="61.09" height="126.9" transform="rotate(-45 337.32 -61.21) scale(2.22)" xlink:href="#Straight_Sun_Ray_Mask"/>
      </g>
    </mask>
    <mask id="mask-7" x="-.05" y="1.11" width="729.4" height="718.5" maskUnits="userSpaceOnUse">
      <path id="Inner_Ring_Fill" data-name="Inner Ring Fill" d="M445.64 314.6c73.71 39.65 119 117.31 116.47 200-2.35 78.14-46.94 149.49-116.47 186.81 10.11 3.86 98.38 35.82 182.47-16.69C722.24 626 723.4 516.13 723.35 508s-2.69-114.84-95.24-173.81c-83.84-53.4-171.99-23.36-182.47-19.59z" fill="url(#_656)" filter="url(#luminosity-invert)"/>
    </mask>
    <symbol id="Straight_Sun_Ray_Mask" data-name="Straight Sun Ray Mask" viewBox="0 0 61.09 126.9">
      <path d="M60.45 126.4H.63l29-124.26z" stroke-miterlimit="10" stroke="#000"/>
    </symbol>
    <symbol id="Curvy_Sun_Ray_Mask" data-name="Curvy Sun Ray Mask" viewBox="0 0 66.45 133.13">
      <path d="M62.52 131.12H2.7c-2-18.6.77-32.25 3.55-41.05 6.05-19.19 15.28-25.9 21.44-45.52a99.34 99.34 0 0 0 4-37.69C39 16.73 45.94 29.74 47.87 45.68c2.24 18.41-3.83 27.53-1.65 46 1.29 10.93 5.41 24.46 16.3 39.44z" stroke-width="4" stroke-miterlimit="10" stroke="#000"/>
    </symbol>
    <symbol id="Curvy_Sun_Ray" data-name="Curvy Sun Ray" viewBox="0 0 72.38 141.99">
      <path id="Outline" d="M64.52 138H4.7c-2-18.6.77-32.26 3.55-41.05C14.3 77.74 23.53 71 29.69 51.41a99.28 99.28 0 0 0 4.05-37.68C41 23.59 47.94 36.6 49.87 52.54 52.11 71 46 80.08 48.22 98.53c1.29 10.95 5.41 24.47 16.3 39.47z" stroke-width="8" stroke-miterlimit="10" stroke="#171616" fill="none"/>
    </symbol>
    <symbol id="Straight_Sun_Ray" data-name="Straight Sun Ray" viewBox="0 0 72.52 150.63">
      <path class="cls-14" d="m32.22 145.65-.44-62.13-.22-31.06c.39-10.36-1.95-20.7 3.78-31.1 5.88 10.32 3.69 20.69 4.22 31l.22 31.07.43 62.13z" id="Middle_Line" data-name="Middle Line"/>
      <path id="Outline-9" data-name="Outline" class="cls-15" d="M66.13 145.62H6.3l29-124.26q15.43 62.13 30.83 124.26z"/>
    </symbol>
    <filter id="luminosity-noclip" x="0" y="0" width="1000.66" height="992.46" filterUnits="userSpaceOnUse" color-interpolation-filters="sRGB">
      <feFlood flood-color="#fff" result="bg"/>
      <feBlend in="SourceGraphic" in2="bg"/>
    </filter>
    <filter id="luminosity-noclip-2" x="0" y="0" width="981.43" height="973.23" filterUnits="userSpaceOnUse" color-interpolation-filters="sRGB">
      <feFlood flood-color="#fff" result="bg"/>
      <feBlend in="SourceGraphic" in2="bg"/>
    </filter>
    <filter id="luminosity-noclip-3" x="-.18" y="1.41" width="983.65" height="990.41" filterUnits="userSpaceOnUse" color-interpolation-filters="sRGB">
      <feFlood flood-color="#fff" result="bg"/>
      <feBlend in="SourceGraphic" in2="bg"/>
    </filter>
    <filter id="luminosity-invert" filterUnits="userSpaceOnUse" color-interpolation-filters="sRGB">
      <feColorMatrix values="-1 0 0 0 1 0 -1 0 0 1 0 0 -1 0 1 0 0 0 1 0"/>
    </filter>
    <pattern id="_431-K" data-name="431-K" width="74.56" height="74.55" patternTransform="matrix(6.1 0 0 6.1 -803.47 -406.22)" patternUnits="userSpaceOnUse">
      <path class="cls-4" d="M0 0h74.56v74.55H0z"/>
      <path class="cls-5" d="M63.9 11.15C67.4 8 71.13 2.15 72.85 0m-2.43 0c-.7 1.06-1.3 2.1-1.45 2.36M57.6 15.31c4.9-2.49 6.06-8.73 10.4-11.7M57.4 13.82a104.83 104.83 0 0 1 8.75-10.91"/>
      <path class="cls-6" d="M50.58 19.43c2.84-2 7.94-11.29 8.9-12.6a14.05 14.05 0 0 1 3.32-3.4"/>
      <path class="cls-5" d="M62.44 0a50.31 50.31 0 0 0-6.11 8.53c-1.36 2.71-4.86 3.8-6.22 6.91M50 13.07c2.71-3.16 3.5-8.93 7.34-12.24m-3.78 2.09c-1 1.4-1.43 2.42-2.18 3.42M38.3 12.43c1.05-.66 2.06-2.24 3.37-4.47 1.18-2 4-5.92 5.41-8M68.1 18.31c1.57-1.84 3.15-6.5 4-8.07A33.62 33.62 0 0 1 74.56 7m0-5.7A5 5 0 0 1 74 2c-1 1.18-4.2 4.8-4.85 5.71m-9.58 9.62c2.55-4.14 6.1-4.73 9.58-9.59m4.33 3.94a16.87 16.87 0 0 1 1.08-1.54M68.56 0a20.29 20.29 0 0 1-2.41 2.91m-12.1 5.36C55.84 6.66 57.77 2.8 60 0m2.41 2.71A18.75 18.75 0 0 0 65.9 0m8.66 3.64c-.56.89-.94 1.63-1.48 2.36m-.52 13.69c-.92 1-4 4.65-5.08 6.21s-4.24 6.83-6 7.88m6.39-11.19a34.59 34.59 0 0 0-5.42 7.47c-1.57 3-4 4.72-5.31 5.9m5.97-10.17c2.3-4.26 6.74-6.19 10.94-13m-4.29-.45c-1.05 1.18-2.21 5.86-5.08 8.57m3.19 7.72c2.63-2.54 4.55-4.85 5-6.14a14.84 14.84 0 0 1 1.65-2.91M57.46 25a24.47 24.47 0 0 1-3.6 5.89c-1.38 1.58-1.51 2.63-2.17 4.07m6.17-11.86c.66-1.31 2-4.4 3.87-6a34 34 0 0 0 3.61-3.41m-7.42 6.65c-1.83 1.91-6 5.84-7.21 8.08s-3.48 5.58-4.65 7.73m-2.16 2c.59-1.57 1.27-4.53 2.58-6a31 31 0 0 0 2.37-3m-5.12 5a22.07 22.07 0 0 1 1.86-3.77c1.24-1.5 3.41-3 4.72-5.05a42.77 42.77 0 0 1 3.55-4.46M48.8 15.7c-1 1.18-1.64 3.86-2.82 6.74s-4.4 5.91-5.77 7.16a16.87 16.87 0 0 0-1.61 2 10.38 10.38 0 0 0-1.12 2.66M60 28.79c.33-.46 1.25-2.67 1.77-3.46 1.14-1.71 2.69-6.5 3.48-8.53s4.59-6.43 5.84-8m-18.02 5.64c-1.25 1.51-3.87 3.87-4.4 5.64a14.16 14.16 0 0 1-1.25 3.35M56.61 15a19.59 19.59 0 0 0-3.87 4.6c-.92 1.64-2.37 3.12-5 6.35m6.92-4.24c1.52-2 1.46-2.27 1.43-2.22a14.16 14.16 0 0 1 2.51-3M48.86 8a25.1 25.1 0 0 0-3.53 6.55c-1.12 2.89-3.77 6.48-4.6 9m9.98-16.27a31.64 31.64 0 0 1-2.89 6.44 30.35 30.35 0 0 0-3 7c-.39 1.45-3.87 6.41-5.9 8M37.29 1.29A10.65 10.65 0 0 0 38 0m32.9 19.16a25.27 25.27 0 0 1 3.66-2.76m0 7.8c-2.88 3-6.79 8.12-6.79 8.12M53.61 2.88A26.19 26.19 0 0 1 56 0m-2.27 0c-.82 1.05-2.19 2.52-3.44 3.87l-.1.08C49 5.29 47.27 6.69 47 7.23c-.7 1.23-2.19 5-4.59 6.89M51.75 0a18.29 18.29 0 0 0-1.63 2.17M45 6.6a26.5 26.5 0 0 0 2.66-3.43A14.36 14.36 0 0 0 49.47 0M27.6 9.52c4.08-2.3 6.24-7.37 8-9.52m-2.47 0c-.69 1.06-1.29 2.1-1.44 2.36M20.31 15.31c4.9-2.49 6.06-8.73 10.44-11.7M20.7 13.13C22.27 9 26 5.91 28.86 2.91"/>
      <path class="cls-6" d="M13.23 19.11c2.84-2 8-11 9-12.28a17.11 17.11 0 0 1 3.6-3.78"/>
      <path class="cls-5" d="M25.15 0A50.31 50.31 0 0 0 19 8.53a15.54 15.54 0 0 1-3.25 4.27m-3.9 1.78c4-2.53 3.78-9.9 8.24-13.75M5 14.06c2.41-1.93 3.76-5.34 4.46-6.57a19.1 19.1 0 0 1 2.44-4.17M1 12.43c1-.66 2.05-2.24 3.37-4.47C5.57 6 8.41 2 9.8 0m22.12 16.05c1.43-2.63 2-4.24 2.89-5.81A33.62 33.62 0 0 1 37.27 7 33.39 33.39 0 0 0 42 0M22.28 17.33c2.56-4.14 6.1-4.73 9.58-9.59.66-.91 3.8-4.53 4.86-5.71a5 5 0 0 0 .55-.73m-1.08 10.38c.37-.59 1.1-1.54 1.1-1.54 2.11-2.63 4-3.16 6.33-8.5M0 7a33.43 33.43 0 0 0 4.68-7M0 10.14C2.11 7.51 4 7 6.33 1.64m30.94 28.83C36 31.61 36 32.71 34.55 33.86a29.62 29.62 0 0 0-3 3l-.27.44m0-37.3a20.39 20.39 0 0 1-2.42 2.91m-.25 34.37c3-2.87 6-6.8 8.66-9.71a24.37 24.37 0 0 1 2.46-2.37M17.23 8.42c1.56-1.88 3.59-6 5.47-8.42m2.42 2.71A18.12 18.12 0 0 0 28.61 0M0 3.63A23.76 23.76 0 0 1 2.76 0M35.8 6c.54-.72.93-1.46 1.47-2.35A22.5 22.5 0 0 1 40.05 0M4 30.52a16.26 16.26 0 0 0-1.74 3.08c-.26.79-.46 1.31-.46 1.31-.39.65-.7 1.51-1.1 2.37m35.4-17.73c-.91 1.05-4.68 4.81-5.9 6.35s-4.2 6.83-5.95 7.88m6.98-11.42a36.37 36.37 0 0 0-6.06 7.7 16.22 16.22 0 0 1-4.4 5.33m5.05-9.6c2.3-4.26 6.71-5.86 10.91-12.68m-5.73 2c-.73 1.57-1.2 3.49-2.81 5.44m3.15 6.83a25.05 25.05 0 0 0 3.83-3.77A28.92 28.92 0 0 0 37.23 21l.77-1.39c.79-1.14 2.35-3 2.75-3.46M2 17a32.07 32.07 0 0 0-2 2.6M20.45 25a25 25 0 0 1-3.88 5.82c-1.38 1.58-1.51 2.63-2.17 4.07m6.37-11.33c.66-1.31 2-4.4 3.87-6a33 33 0 0 0 3.61-3.41m-7.61 6.19c-1.84 1.91-6 5.84-7.22 8.08s-3.65 6.15-5 8.73m-1.86.5c.59-1.57 1.33-4 2.64-5.54a30.34 30.34 0 0 0 2.36-3M5.9 35.48c.65-1.29 1.63-4.16 2.4-5.1 1.25-1.5 3.68-2.8 5-4.84a46.38 46.38 0 0 1 3.35-4.33M11 16.6c-1.05 1.18-1.11 3-2.29 5.84S4.3 28.35 2.92 29.6a16.87 16.87 0 0 0-1.61 2A10.27 10.27 0 0 0 .2 34.26m22.47-5.47c.33-.46 1.25-2.67 1.78-3.46 1.14-1.71 2.69-6.5 3.47-8.53s4.6-6.43 5.84-8M15 14.45c-1.25 1.51-3.09 3.86-3.61 5.63a14.64 14.64 0 0 1-1.25 3.35m9.65-9.07a24.65 24.65 0 0 0-4.34 5.2c-.91 1.64-3 3.42-5.39 7.42M18 20.54a34.71 34.71 0 0 1 3.91-4.74m-9.34-9.57A39 39 0 0 0 8 14.5c-1.12 2.89-3.28 6.57-5.32 8.21M13.9 7a37.67 37.67 0 0 1-3.37 6.74 30.8 30.8 0 0 0-3 7C7.12 22.12 5 24.94 3 26.51M0 1.29A9.42 9.42 0 0 0 .69 0m5.74 7.68c-.43.65-1.93 4.07-2.66 5.05A14.34 14.34 0 0 1 .3 16.21l-.3.19m33 4.08a49.93 49.93 0 0 1 4.23-4.08l.29-.19A14.22 14.22 0 0 0 41 12.73c.72-1 2.78-3.86 3.21-4.51M29.4 34.32a117.89 117.89 0 0 1 7.87-10.12c.47-.49.92-.93 1.32-1.27 1-.84 3.36-5.38 5-7.61M.33 30.19a3 3 0 0 0-.33.28m0-2.9a26.67 26.67 0 0 1 2.46-2.37m2.47-9.32c-1.59 2.23-2.64 6.21-3.61 7-.39.34-.84.78-1.32 1.27M18.69 0a26.19 26.19 0 0 0-2.37 2.88c-1 1.4-1.44 2.42-2.18 3.42M16.45 0c-.83 1.05-2.2 2.52-3.45 3.87l-.62.74M14.46 0a18.29 18.29 0 0 0-1.63 2.17M7.68 6.6a26.5 26.5 0 0 0 2.66-3.43A15.21 15.21 0 0 0 12.19 0m53.23 46.65c3.69-3.11 5.71-7.23 7.43-9.37a4 4 0 0 1 .63-.66m0 37.27a4.48 4.48 0 0 0-.63.66M69 39.64c.15-.26.75-1.3 1.45-2.36l.35-.53a13.78 13.78 0 0 1 1.92-2M57.6 52.59c4.9-2.5 6.77-8.59 10.4-11.71M58 50.4a68.37 68.37 0 0 1 8.16-10.21"/>
      <path class="cls-6" d="M50.58 56.7c2.84-2 7.94-11.29 8.9-12.6A13.75 13.75 0 0 1 63 41"/>
      <path class="cls-5" d="M49.93 53c2-3.06 5-4.52 6.4-7.23a49.91 49.91 0 0 1 6.11-8.53l1.9-2a52.85 52.85 0 0 0 3-4.38m-4.06 40.8A9.41 9.41 0 0 0 60 74.55M49.85 50.5c3.58-3.53 3.49-8 7.26-11.64M38.06 51c1-1.66 3.19-3.93 4.5-6.16 1.18-2 5.32-9.19 5.92-10.17m20.79 19.16c1.58-1.84 2-4.74 2.83-6.32a33.85 33.85 0 0 1 2.46-3.19m0-5.75a5.75 5.75 0 0 1-.56.74c-1 1.17-4.2 4.79-4.85 5.71m-9.58 9.58c2.55-4.13 6.1-4.72 9.58-9.58M73.48 49a15.59 15.59 0 0 1 1.08-1.54m-4.14 27.09.35-.52a13.73 13.73 0 0 1 1.92-2m1.87-4.29c-1.25 1.15-1.33 2.24-2.72 3.4a28.92 28.92 0 0 0-3 3l-.28.44m-2.41-34.4a20.8 20.8 0 0 0 2.41-2.9l.28-.44a29.62 29.62 0 0 1 3-3c1.39-1.15 1.47-2.25 2.72-3.39m-8.66 44.1c3-2.86 6-6.8 8.66-9.7m-12.12 9.7.49-.52a6.94 6.94 0 0 0 1.79-2 71.6 71.6 0 0 1 3.77-6.17M53.73 47c1.58-2.27 5.11-8.38 7.32-11.18M62.41 40a19.19 19.19 0 0 0 3.49-2.71c3-2.87 6-6.8 8.66-9.71M56 74.55l.67-.7m4.41-7.5c-1.71 2.69-5.45 6.17-6.17 6.89s-.68.61-.68.61c-.13.2-.31.44-.51.7m9.48-18.99a33 33 0 0 0-4.29 8.32c-.85 2.55-2.43 4-4 5.88a17.43 17.43 0 0 0-2.17 3.48 4.28 4.28 0 0 0-.48.7l-.53.61m-4.65 0 .41-.61a13.59 13.59 0 0 1 1-2m-1.79-9.79c-.32.78-2.82 3.61-3.41 4.72s-1 4.27-1.31 5.06a5.6 5.6 0 0 1-.93 1.56c-.37.37-.7.73-1 1.06m34.51-33.63c-.54.88-.94 1.62-1.48 2.35M42.17 74c-.06.17-.13.35-.21.52m-.64-6.73a16.28 16.28 0 0 0-1.77 3.09c-.26.78-.46 1.31-.46 1.31-.39.64-.71 1.5-1.11 2.36M72.56 57c-.92 1-4.29 4.51-5.08 6.22s-4.24 6.82-6 7.87M67.87 60a32.87 32.87 0 0 0-5.42 7.29c-1.57 3-4 4.73-5.31 5.91m5.97-10.13c2.3-4.27 6.74-6.19 10.94-13m-4.29-.46c-1.05 1.18-2.15 4.83-4.16 7.8m2.15 7.87c3-2.19 4.67-4.23 5.16-5.52a15.08 15.08 0 0 1 1.65-2.9m-16.49 5.02a29.22 29.22 0 0 1-4.21 6.24c-1.38 1.57-1.51 2.62-2.17 4.07m6.17-11.81c.66-1.32 2-4.4 3.87-6A32 32 0 0 0 65.34 51m-7.42 6.62c-1.83 1.9-6 5.84-7.21 8.07s-2.69 5-4.4 6.24M44.08 74a13.36 13.36 0 0 1 2.4-4.57 30.69 30.69 0 0 0 2.37-3m-5.51 4.97a22 22 0 0 1 2.25-3.74c1.24-1.51 3.41-3 4.72-5a42.09 42.09 0 0 1 3.55-4.47m-5.58-4.31c-1.05 1.18-1.12 2.95-2.3 5.84s-4.4 5.91-5.77 7.15a17.85 17.85 0 0 0-1.61 2 10.52 10.52 0 0 0-1.12 2.66M60 66.06c.33-.46 1.25-2.67 1.77-3.45 1.14-1.72 2.69-6.5 3.48-8.53s4.59-6.44 5.84-8m-18.02 5.63c-1.25 1.51-3.87 3.87-4.4 5.65a14 14 0 0 1-1.25 3.34m9.19-8.46A26.74 26.74 0 0 0 52 57.59c-1 1.64-1.72 2.41-4.34 5.69m7.09-4.55a11.63 11.63 0 0 0 1.34-2A11.42 11.42 0 0 1 58.33 54m-8.1-10.85a41.32 41.32 0 0 0-4.9 8.63c-1.12 2.89-2.92 5.28-4.15 8.08M51 45.16A30.69 30.69 0 0 1 47.82 51a30.4 30.4 0 0 0-3 7c-.39 1.44-4 6.27-6.07 7.85"/>
      <path class="cls-5" d="M39.08 72.19c-.39.64-.7 1.5-1.1 2.36M70.9 56.44a24.56 24.56 0 0 1 3.66-2.76m0 7.8c-2.88 3-6.79 8.12-6.79 8.12M56 62a48.6 48.6 0 0 0-5.32 7.81c-.46 1.28-.31 2.65-1.17 4.72m1.87-30.91c.75-1 1.21-2 2.18-3.42v-.05A26.23 26.23 0 0 1 56 37.28l.67-.7M42.72 51.84c1.79-2.91 4.11-6.3 4.81-7.52a29.66 29.66 0 0 1 2.66-3.1l.1-.08c1.25-1.35 2.62-2.82 3.44-3.86A10.46 10.46 0 0 1 54.91 36c.72-.72 4.46-4.2 6.17-6.89M50.12 39.44a18.26 18.26 0 0 1 1.63-2.16l.53-.62a4.28 4.28 0 0 1 .48-.7 17.43 17.43 0 0 1 2.17-3.48c1.57-1.83 3.15-3.32 4-5.88a32.93 32.93 0 0 1 4.29-8.31M45 43.87a25.93 25.93 0 0 0 2.66-3.42 14.83 14.83 0 0 0 1.85-3.17c.86-2.07.71-3.45 1.17-4.73.66-1.84 3.68-5.84 5.32-7.81M27.6 46.79c4.08-2.29 7.41-8.16 9.13-10.31m-.54 37.41a5.07 5.07 0 0 0-.63.66m-3.87-34.91c.15-.26.53-.89 1.23-2 .11-.17 1.12-1.2 1.24-1.38L36 35.12M21.15 52.08c4.41-5.1 5.75-7.43 10.08-10.93"/>
      <path class="cls-6" d="M13.29 56.7c2.84-2 7.94-11.29 8.9-12.6a26.75 26.75 0 0 1 4.87-4.1"/>
      <path class="cls-5" d="M13.27 52.59c1.35-3.11 4.42-4.07 5.77-6.78a49.91 49.91 0 0 1 6.11-8.53l.5-.53a7 7 0 0 0 1.78-2 73.6 73.6 0 0 1 3.77-6.17M26 71.66a9.32 9.32 0 0 0-3.3 2.89M11.87 51.9c3.33-3.35 4.46-10.15 8.93-14M3.9 53.15A85.76 85.76 0 0 0 9.42 45c.31-.54 2.24-2.42 3.49-3.77M1 49.7c1-.66 2.05-2.23 3.37-4.46 1.18-2 4-5.92 5.41-8l.4-.62a14.88 14.88 0 0 1 1-2M32 53.83c1.57-1.84 2-4.74 2.81-6.32a33.85 33.85 0 0 1 2.46-3.19c1.62-2 4.71-5.21 5.77-7.67M22.28 54.6c2.56-4.13 6.1-4.72 9.58-9.58M36.19 49a15.59 15.59 0 0 1 1.08-1.54c2.11-2.64 4-3.17 6.33-8.5M0 44.32a34 34 0 0 0 4.68-7M0 47.42c2.11-2.64 4-3.17 6.33-8.5m26.8 35.63.35-.52a13.73 13.73 0 0 1 1.92-2m1.87-4.29C36 68.89 36 70 34.55 71.14a28.92 28.92 0 0 0-3 3 4 4 0 0 1-.27.44m0-37.3a20.9 20.9 0 0 1-2.42 2.9c-2.87 3-6.59 6.05-8.16 10.21m7.91 24.16c3-2.86 6-6.8 8.66-9.7.84-.92 2.59-3.09 3.38-3.74m-15.5 13.44c.18-.2.35-.38.5-.52a7 7 0 0 0 1.78-2c.56-1.11 4.55-6.47 5.11-7.13M17.3 45.51c1.66-2.21 3.19-5.44 5.4-8.23a9.23 9.23 0 0 1 3.3-2.89M25.12 40a18.53 18.53 0 0 0 3.49-2.71m-9.94 37.26.68-.7m4.44-7.5c-1.71 2.69-5.45 6.17-6.17 6.89s-.68.61-.68.61a8.47 8.47 0 0 1-.51.7m9.48-18.99a33.31 33.31 0 0 0-4.29 8.32c-.85 2.55-2.42 4-4 5.88a18 18 0 0 0-2.17 3.48 4.28 4.28 0 0 0-.48.7l-.53.61m-4.64 0 .4-.61a14.88 14.88 0 0 1 1-2m-1.78-9.79c-.33.78-2.82 3.61-3.42 4.72s-1 4.27-1.31 5.06a5.6 5.6 0 0 1-.93 1.56c-.37.37-.7.73-1 1.06M0 40.9a23.29 23.29 0 0 1 2.76-3.62l1-1.07a5.43 5.43 0 0 0 .93-1.56c.26-.79.72-3.94 1.31-5s3.09-3.94 3.42-4.73M35.8 43.27c.54-.73.93-1.47 1.47-2.35a22.07 22.07 0 0 1 2.76-3.62l1-1.07a5.43 5.43 0 0 0 .97-1.58c.26-.79.72-3.94 1.31-5s3.09-3.94 3.41-4.73M4.89 74l-.21.52M4 67.79a16.33 16.33 0 0 0-1.78 3.09c-.26.78-.46 1.31-.46 1.31-.39.64-.7 1.5-1.1 2.36m35.4-18.23c-.73.83-4.94 4.86-5.86 6.86-.79 1.7-4.25 6.82-5.95 7.87m7.67-12.69a49 49 0 0 0-6.75 9c-1.58 3-4 4.73-5.32 5.91m5.97-10.2c2.3-4.27 6.74-6.19 10.94-13m-4.76.87c-1.05 1.18-1.71 4.11-4.15 7.29m2.61 7.05c1.95-1.44 4.48-4.88 5.21-5.61-1.38 1.38.7-.65 1.37-1.62l1.06-1.13c.8-1.14 1.56-3 2-3.44M2 54.25a32.66 32.66 0 0 0-2 2.61m20.05 4.76c-.85 2-2.1 4.92-3.48 6.5s-1.51 2.62-2.17 4.07m6.17-11.81c.66-1.32 2-4.4 3.88-6a31.72 31.72 0 0 0 3.6-3.38m-7.41 6.62c-1.84 1.9-6 5.84-7.22 8.07s-2.69 5-4.4 6.24M6.79 74a13.39 13.39 0 0 1 2.41-4.61 30 30 0 0 0 2.36-3M6.05 71.4a22.7 22.7 0 0 1 2.25-3.74c1.25-1.51 3.41-3 4.73-5a43.74 43.74 0 0 1 3.54-4.47M11 53.88c-1.05 1.18-1.11 2.95-2.29 5.84s-4.4 5.91-5.78 7.15a17.85 17.85 0 0 0-1.61 2A10.41 10.41 0 0 0 .2 71.53m22.47-5.47c.33-.46 1.25-2.67 1.78-3.45 1.14-1.72 2.69-6.5 3.47-8.53s4.6-6.44 5.84-8m-17.98 5.63c-1.24 1.51-3.87 3.87-4.39 5.65a14.49 14.49 0 0 1-1.25 3.34m9.19-8.46a19.13 19.13 0 0 0-3.88 4.59 17.42 17.42 0 0 1-5.7 6.43m7.02-3.39a29.92 29.92 0 0 0 2-3.1A22.6 22.6 0 0 1 22 52.91m-9.77-8.59c-.91 1.43-3.53 6.22-4.91 9.16s-1.9 5.09-3.94 6.73M13.8 45.08A32.63 32.63 0 0 1 10.53 51a30.85 30.85 0 0 0-3 7C7.12 59.39 5 62.21 3 63.79M0 38.57a10.75 10.75 0 0 0 .69-1.29"/>
      <path class="cls-5" d="M1.8 72.19c-.39.64-.71 1.5-1.11 2.36M6.43 45c-.43.61-1.93 4-2.66 5A14.5 14.5 0 0 1 .3 53.48l-.3.2m33.61 2.76a25.64 25.64 0 0 1 3.66-2.76l.29-.2a14.38 14.38 0 0 0 3.5-3.48c.72-1 2.91-3.7 3.34-4.36M30.48 69.6s3.91-5.13 6.79-8.12c.47-.5.92-.93 1.32-1.28 1-.84 2-4.81 3.61-7M.33 67.46l-.33.28m0-2.89a24.27 24.27 0 0 1 2.46-2.37m2.59-8.74C3.45 56 2.29 59.36 1.32 60.2c-.39.35-.84.8-1.32 1.28m18.67.52C17 64 14 68 13.35 69.83c-.45 1.28-.3 2.65-1.17 4.72m7.38-38.23A35.81 35.81 0 0 0 16.77 40l-.7.88c-1 1.4-1.23 1.74-2 2.74M13 41.14c1.25-1.35 3.43-3.86 3.43-3.86.21-.27 5.65-5.52 7.36-8.21M12.83 39.44a18.26 18.26 0 0 1 1.63-2.16l.53-.62a4.28 4.28 0 0 1 .48-.7 18 18 0 0 1 2.17-3.48c1.58-1.83 3.15-3.32 4-5.88a33.26 33.26 0 0 1 4.29-8.31M7.68 43.87a25.93 25.93 0 0 0 2.66-3.42 15.74 15.74 0 0 0 1.85-3.17c.87-2.07.72-3.45 1.17-4.73.66-1.84 3.68-5.84 5.32-7.81m22.64 5.78a16.21 16.21 0 0 0-1.77 3.08s-.46 1.31-.79 2.38a11.83 11.83 0 0 1-1.49 2.59 5.68 5.68 0 0 1-.55.74c-1.06 1.17-4.2 4.79-4.86 5.71"/>
    </pattern>
    <pattern id="_705" data-name="705" width="53.5" height="53.5" patternTransform="matrix(5.96 0 0 5.96 -2591.99 -1104.54)" patternUnits="userSpaceOnUse">
      <path class="cls-4" d="M0 0h53.5v53.5H0z"/>
      <path class="cls-9" d="M0 7.42a115.7 115.7 0 0 0 5.58-5.94l.76-1M4.08 5.23C3.08 6.4 1.67 8.4.92 9.15c-.23.23-.56.58-.92 1m8.67-8.34c-1.75 2-4.17 4.34-4.84 6A25.36 25.36 0 0 1 0 13.38m9-2.9a37.22 37.22 0 0 0-4.67 5.58A20 20 0 0 1 0 20m12.83-5.69c-1 1.09-6.83 8.17-8.41 10A40.19 40.19 0 0 1 0 28.43m8.25-6.12a51.22 51.22 0 0 0-5 5.59A86.9 86.9 0 0 1 0 32.1M6.75 26a52.35 52.35 0 0 0-4.83 6.5A11.64 11.64 0 0 1 0 35.39m15.08-16.16c-2.08 2.92-5.5 5.92-7.33 8.58s-3.25 4.92-5 7.42c-1.28 1.82-2 3-2.75 3.89m12.83-10.81c-1.75 2.42-6.83 7.25-8.5 8.84-1.26 1.2-2.87 3.22-4.33 4.7M8.33 35c-.91.67-3.25 3.33-5.83 6.08-.93 1-1.75 1.85-2.5 2.6M15.83 27a62.58 62.58 0 0 0-6.16 8.08 58.64 58.64 0 0 1-6.5 8.84A25.45 25.45 0 0 1 0 46.16m25.17-25.01c-2.09 2.25-8.59 11.25-11.25 13.33s-6.75 7.08-8.42 9.25c-1.53 2-3.29 4.33-5.5 6.7m3.25-48.7C2.58 2.65 1.42 3.06.92 4A4.41 4.41 0 0 1 0 5.1M45.88 15c.74-.81 2.43-2.81 3.68-3.94s2.94-2.75 2.94-2.75c.29-.23.63-.54 1-.89M34.06 31.29a86.43 86.43 0 0 0 6.94-8 57 57 0 0 1 7.31-7.75 18 18 0 0 0 2.61-2.31c.75-1 1.77-2.19 2.58-3.09M36.83 36.23a28.54 28.54 0 0 0 4.42-5.08c.81-1.38 4.75-9.3 6.19-11.23a63.18 63.18 0 0 1 5-5.36c.34-.33.71-.74 1.08-1.17m-1.02 7.34 1-.7m-7.87 12.08a59 59 0 0 0 4.44-4.94l1.93-2.7a11.73 11.73 0 0 1 1.5-1.77m-8.74 12.6A51.81 51.81 0 0 1 49 30.8a13.05 13.05 0 0 1 2-1.8c.9-.86 1.74-1.68 2.51-2.53M35.17 53l1.21-1.5c.56-.75 1.93-2.81 3.5-5.25s2.87-5.5 4.43-7.38 4.07-4.31 5.31-6.25a15.81 15.81 0 0 1 2.3-2.87l1.58-1.3M48.88 36a17.6 17.6 0 0 1 3.46-2.64c.33-.34.73-.79 1.16-1.29m-1.58 4.99a33.9 33.9 0 0 0 1.58-1.67M42.19 51.42c2-2.5 5.75-6.38 6.69-7.32s3.71-4 3.71-4a8 8 0 0 0 .91-.93M45.15 53.5l.52-.56s1.21-1.59 2.33-3.46a13.22 13.22 0 0 1 2.17-2.83 27.89 27.89 0 0 0 3.33-3m-5.74 9.85.66-.73a16.36 16.36 0 0 0 1.08-2.1 12.7 12.7 0 0 1 1-1.94 18 18 0 0 1 3-2.57m-2.95 7.34.78-.73 1.59-1.71.58-.63M36.94 25.92c.62-1.07 3.44-5.32 4.62-7.19s7.19-9.25 8.25-10.38a31 31 0 0 1 2.94-2.54c.2-.23.47-.45.75-.71M9.92 23.15c.66-.75 2.66-3.09 4.41-5s4.42-6.42 5.67-8.42A95.41 95.41 0 0 1 27 .9M10.17 27.65c1.5-1.92 4.33-5.5 5.66-6.92s4.59-5.17 6.84-8 8.5-8.5 10.75-11m-9.75 16.58C25.33 16.06 35.08 6 37.83 2.81M22.75 15c-2.5 3.17-8.42 9.83-10.25 12a63.54 63.54 0 0 1-6.33 6.33M36.5 6.73A34.52 34.52 0 0 1 33.33 10c-1.33 1.17-3.91 3.92-5.58 5.75s-5 5.5-6.75 7.75-6.58 7.75-9.08 10.42m21.75-21.61c-1.25 1.59-3.92 4.42-5.42 6.59s-5.25 7.16-6.67 9.16A29.51 29.51 0 0 1 18.33 32m7.5-7.52c2.34-2.33 7.67-7.75 9.92-9.58a43.39 43.39 0 0 0 6.08-6.5m10.95 45.1.72-.5M49.46 2.82A13.31 13.31 0 0 0 48.38 4c-.57.75-2.07 3.06-3.26 4.44M16.56 37a57 57 0 0 0-5.37 5.56c-.75 1-2.07 3.75-3.25 5.07S4.88 50.6 4.38 51.1l-1 1.17-.9 1.23m27.27-22.08c-2.5 2.62-8.94 9.37-11.31 11.93S12.81 49.29 11.5 51c0 0 0 .44-1.33 1.61a4.1 4.1 0 0 0-.74.85m9.08.04.91-1.23S20.38 50.6 22 48a74.29 74.29 0 0 1 8.69-10M23 53.5a13.37 13.37 0 0 1 2-3.19M12.31 53.5l.52-.73a21.79 21.79 0 0 1 2.86-3.85c1.62-1.69 4.69-4.82 6.12-6.57s8.69-9.5 10.38-12.12 4.43-6.25 5.43-8.06m1.57 8.18a106.27 106.27 0 0 1-6.94 8.13 125.36 125.36 0 0 0-8.13 9.87c-.93 1.44-3 4.5-3 4.5-.19.2-.38.42-.57.65m31.2-32.08c-.94.87-2.81 3.43-4.75 5.81a27.32 27.32 0 0 0-3.69 6.5 60 60 0 0 1-5.12 7.87 70.36 70.36 0 0 0-5.07 6.82 32.12 32.12 0 0 1-3.29 4.43l-.54.65m8.96 0c.45-.48.9-1 1.33-1.48a70.72 70.72 0 0 0 5.17-6.29c1.63-2.44 5.94-9.06 7.75-11.06M42.24 53.5a10.33 10.33 0 0 1 .76-.81s1.38-1.59 3.44-4.27a33.2 33.2 0 0 1 5.73-5.36 13.84 13.84 0 0 0 1.33-1.2M27.25 24.48c-.94 1-3.63 4-5.19 5.75a39.2 39.2 0 0 1-5.68 5.06 81.86 81.86 0 0 0-8.19 8m25.69-22c-1.44 1.13-8.82 11.81-10.57 13.94A32.49 32.49 0 0 1 17.38 41a64.13 64.13 0 0 0-6.63 5.81C9.38 48.17 7.69 51.92 6.69 53m31.19-37.71a72.36 72.36 0 0 1-6.32 6.06 44.87 44.87 0 0 0-6 6.94C24 30.6 20.31 34.79 19 35.67m8.25-3.25C28.38 31.23 37.44 19 38.88 17.17m1.24.75a120.47 120.47 0 0 1 8.57-10.63C50.38 5.54 51.25 4.6 53 3m-4.31 13.54c-1.38 1.5-4.25 4.56-5.38 7.13a21.89 21.89 0 0 1-3 5.06M15.42 53.5l1.75-1.81S18 50.6 19 49.1a40.16 40.16 0 0 1 3.56-4.56 106.55 106.55 0 0 1 9.63-9.44 72.34 72.34 0 0 0 8.5-8.93M27 47.54a68 68 0 0 1 8.56-8.37l.42-.38m5.9-5.31c-1.63 2.94-5.32 6.81-7.32 9s-2.5 2.37-3.62 4.37-1.25 2.69-1.88 3.57a25.28 25.28 0 0 1-1.89 2.18c-.39.32-.73.62-1 .9m17.27-22.9a38.77 38.77 0 0 1 6.31-8.87 12.91 12.91 0 0 0 3.13-4.13M44 36.29c-1.88 2.81-5.62 8.19-6.69 10.06a32.66 32.66 0 0 1-3.25 4.32c-.81 1.06-1.23 1.68-1.23 1.68l-.91 1.15m14.7-15.15c-1.37 1.57-3.06 6.25-4.68 8.13s-1.38 1.75-2.56 3m-9.63-3.38A50.81 50.81 0 0 1 25 52.6M11 49a53 53 0 0 1 5.38-5.5"/>
      <path class="cls-9" d="M21.19 35.29c-1.25 1.44-5.38 4.56-7.07 6.31m-6.41 2.88a42.45 42.45 0 0 1-6 7.25A15.51 15.51 0 0 1 0 53M40.75 5.19c1.63-1.7 3-3.66 4.4-5.19M32.42 16.44c2.66-3.44 6.25-7.92 8.75-10.09A62.27 62.27 0 0 0 47.76 0m2.78 0A53.3 53.3 0 0 0 44 7.35c-1.58 2.34-2.92 5.75-3.83 6.84M50 2.14A9.8 9.8 0 0 1 52.78 0M2.43 0A13.25 13.25 0 0 1 .75 1.94M9.43 0a4.43 4.43 0 0 0-.54 1.14M18.5 0a74.53 74.53 0 0 1-6.33 7.52 28.36 28.36 0 0 0-3.5 4.75 64.2 64.2 0 0 1-5.42 7.25c-1 1.08-2.19 2.1-3.25 3.15M23 0c-.45.94-.75 1.69-.75 1.69a41.73 41.73 0 0 0-3.67 4.66 27 27 0 0 1-4.58 5.5c-2 1.84-6.25 5.5-7.25 6.42a24.92 24.92 0 0 0-4.58 5.33A19.93 19.93 0 0 1 0 26.42M5.67 8a63.5 63.5 0 0 1 4.5-5.33A22.75 22.75 0 0 0 12.3 0M7.92 15.69a108.82 108.82 0 0 0 8.75-10.17C18.5 3.06 19.49 1.26 20.51 0m-3.26 16.85c1.75-2 6.92-9.16 8.5-11.5A61.12 61.12 0 0 1 29.28 0m-11.7 24.6c1.17-1.33 3.17-4.5 5-7.25A143.35 143.35 0 0 1 32.67 5.44C34 4.13 36.13 2.25 38.25 0m-2.67 9.6c1.85-2.21 4.61-7.16 6.66-9.6M15.42 0a215.04 215.04 0 0 1-3.92 4 91.74 91.74 0 0 0-6.25 7c-1.5 2-2.83 3.92-3.67 4.92m9.59 3.02a85.33 85.33 0 0 0 5.41-7.09c1.59-2.16 5.17-7.41 6.59-8.85 1.11-1.12 1.82-2 3-3m5.74 0c-2 2.53-5 6.49-6.24 7.77"/>
    </pattern>
    <pattern id="_656" data-name="656" width="54.13" height="54.13" patternTransform="matrix(4.77 0 0 4.77 -989.09 -892.09)" patternUnits="userSpaceOnUse">
      <path class="cls-4" d="M0 0h54.13v54.13H0z"/>
      <path class="cls-9" d="M1 4.23C2.21 4 4 2.9 7.12 3.31m10.59 0c3.58-.66 6 .92 7.5 1.09m12-.34c1.17.25 5.17.34 7.33-.75M3 8.15a9.51 9.51 0 0 1-3 .77m38.21 5.14c1.25-.25 3-1.33 6.17-.91m-21 30.08a8.86 8.86 0 0 0 6.83.25m11.33.42c1.5 0 2.58-.75 3.84-1.09a7.25 7.25 0 0 1 4.41.09M7 42.65a7.17 7.17 0 0 1 3.56.5c1.36.91 3.19.41 3.6.5M0 53.49a9 9 0 0 0 1-.34m19.62-.59a7.32 7.32 0 0 0-4.41-.08c-1.25.33-2.33 1.08-3.83 1.08m26.24-.08c-.41-.08-2.24.42-3.6-.5a7.28 7.28 0 0 0-3.56-.5M4.92 18.19a10.19 10.19 0 0 0-4.92.54m15.5-.54c3.58-.67 6 .91 7.5 1.08m19.33-1.08c-2.16 1.08-6.16 1-7.33.75M9.17 33.23a10.44 10.44 0 0 0 7.41.17m10.75.5c1.5 0 2.59-.75 3.84-1.09a7.25 7.25 0 0 1 4.41.09m10.84-.09a7.28 7.28 0 0 1 3.56.5c1.35.92 3.19.42 3.6.5M7.29 47.69c-3.17-.42-4.91.66-6.17.91m16.76-.91c3.58-.67 6 .91 7.5 1.08m12-.33c1.16.25 5.16.33 7.33-.75M19 8.19c-3.16-.42-4.92.66-6.16.91m16.78-.91c3.59-.67 6 .91 7.5 1.08M.38 13.1c3.58-.66 6 .92 7.5 1.09m12-.34c1.16.25 5.16.34 7.33-.75M15.79 23.6A8.82 8.82 0 0 1 9 23.35M35.38 23a7.27 7.27 0 0 0-4.38-.06c-1.25.33-2.34 1.08-3.84 1.08m26.22-.08c-.42-.09-2.26.41-3.61-.5a7.17 7.17 0 0 0-3.56-.5m-23.5 5.29a8.87 8.87 0 0 0 6.83.25m19.58-.58a7.25 7.25 0 0 0-4.41-.09c-1.25.34-2.33 1.09-3.83 1.09M22 37.94c-3.17-.42-4.92.66-6.17.91m16.71-.91c3.58-.67 6 .91 7.5 1.08M5.5 37.81a13.14 13.14 0 0 1-5.5.91m13.12-9.78c-.41-.09-2.24.41-3.6-.5a7.17 7.17 0 0 0-3.52-.5M49.75 8.9a16.48 16.48 0 0 0 4.37 0m-5.79 44a9.35 9.35 0 0 0 5.79.59M52.88 19.1a10.14 10.14 0 0 0 1.24-.37m-1.83 19.83a10.3 10.3 0 0 0 1.83.16"/>
      <path d="M.46 1.88h0m2-.32h0M4.28.94h0M6.2.81h0m1.95.13h0m1.94.44h0m1.85.37h0m2.02.13h0m2.06-.32h0m1.82-.62h0m1.92-.13h0m1.95.13h0m1.94.44h0m1.73.37h0m2.01.07h0m2.06-.32h0m1.81-.62h0m1.93-.12h0m1.95.12h0m1.94.44h0m1.9.37h0m1.98.13h0m2.05-.32h0m1.82-.62h0m1.93-.12h0m1.95.12h0m1.94.44h0m1.73.37h0M.82 6.45h0m1.82-.62h0m1.93-.13h0m1.95.13h0m1.94.44h0m1.84.37h0m2.03.13h0m2.06-.32h0m1.82-.62h0M8.42 3.67h0m1.84.37h0m2.03.13h0m2.06-.32h0m1.82-.42h0m1.96 2.27h0m1.95.13h0m1.94.44h0m1.73.37h0m2.01.07h0m2.05-.32h0m1.82-.62h0m1.93-.12h0m1.95.12h0m1.93.44h0m-8.91-2.08h0m2.06-.32h0m1.82-.62h0m1.92-.13h0m1.95.13h0m1.94.44h0m1.13 2.95h0m1.97.13h0m2.06-.32h0m1.82-.62h0m1.93-.12h0m1.94.12h0m1.94.44h0m1.73.37h0m1.99.07h0m-6.98-3.34h0m1.95.13h0m1.94.44h0m1.73.37h0m1.99.07h0M.48 10.83h0m1.92-.13h0m1.95.13h0m1.94.44h0m1.84.37h0m2.03.13h0M4 8.23h0m1.95.12h0m1.94.45h0m1.84.37h0m2.03.12h0m.46 2.16h0m1.82-.62h0m1.92-.13h0m1.95.13h0m1.94.44h0m1.73.37h0m2.01.07h0m2.06-.32h0m1.81-.62h0m-6.99-2.21h0m1.73.37h0m2.01.07h0m2.06-.32h0m1.9-.37h0m1.22 2.34h0m1.95.12h0m1.94.44h0m1.9.37h0m1.98.13h0m2.05-.32h0m1.82-.62h0m1.93-.12h0m1.95.12h0m1.93.44h0m-8.19-1.99h0m2.05-.32h0m1.82-.61h0m1.93-.13h0m1.95.13h0m1.93.44h0m.25 2.85h0m1.99.07h0m2.05-.32h0M.64 15.66h0m1.93-.12h0m1.95.12h0m1.94.44h0m1.84.37h0m2.03.13h0m2.06-.32h0m1.82-.62h0m1.92-.12h0m1.95.12h0m1.94.44h0m-10.9-1.89h0m2.05-.32h0m1.82-.62h0m1.93-.12h0m1.95.12h0m1.93.44h0m2.95 2.76h0m2.01.07h0m2.05-.32h0m1.82-.62h0m1.93-.12h0m1.95.12h0m1.93.45h0m1.91.37h0m-6.43-3.36h0m1.84.21h0m1.95.13h0m1.94.44h0m1.9.37h0m.77 2.33h0m2.06-.32h0m1.82-.62h0m1.93-.12h0m1.94.12h0m1.94.45h0m1.73.37h0m1.99.06h0m2.06-.31h0m-7.12-2.86h0m1.93.45h0m1.74.37h0m1.99.06h0m2.05-.31h0M1.16 21.45h0m1.82-.62h0m1.92-.13h0m1.95.13h0m1.94.44h0m1.84.37h0m2.03.13h0m2.06-.32h0m-8.51-3.09h0m1.94.44h0m1.85.37h0m2.03.13h0m2.05-.57h0m2.46 2.1h0m1.92-.13h0m1.95.13h0m1.94.44h0m1.73.37h0m2.01.07h0m2.06-.32h0m1.81-.62h0m1.93-.12h0m1.95.12h0M24 19.15h0m2.03-.27h0m2.05-.32h0m1.82-.62h0m1.91.21h0m1.94.41h0m2.03 2.65h0m1.9.37h0m1.98.13h0m2.05-.32h0m1.82-.62h0m1.93-.12h0m1.95.12h0m1.93.44h0m1.74.37h0m-7-3.43h0m1.76.12h0m1.95.13h0m1.94.44h0m1.73.37h0m1.61 2.44h0M.99 26.11h0m1.82-.62h0m1.93-.12h0m1.94.12h0m-5.46-1.8h0m1.99-.74h0m1.98-.18h0m2.06.13h0m1.37 3.04h0m1.85.37h0m2.03.12h0m2.05-.32h0m1.82-.62h0m1.93-.12h0m1.95.12h0m1.93.45h0m-7.89 2.8h0m1.81-.62h0m1.93-.13h0m1.95.13h0m1.52-.06h0m2.42-1.75h0m2 .07h0m-8.34-3.23h0m1.93-.13h0m1.95.13h0m1.94.44h0m1.73.37h0m2.85 2.1h0m1.82-.62h0m1.92-.13h0m1.95.13h0m1.94.44h0m1.9.37h0m1.98.13h0m2.06-.32h0m1.82-.62h0m1.92-.13h0m-8.64-1.92h0m1.9.37h0m1.98.12h0m2.05-.32h0m1.82-.62h0m2.84 2.5h0m1.94.44h0m2.24.37h0m1.76.07h0M.47 31.43h0m1.85-.32h0m1.82-.62h0M.83 29h0m1.85-.32h0m1.82-.62h0m1.57 2.31h0m1.95.12h0m-6.35 3.19h0m1.87-.62h0m1.93-.12h0m1.95.12h0m2.54-2.12h0m1.84.37h0m2.03.12h0m2.06-.32h0m1.82-.62h0m1.92-.12h0m1.95.12h0m1.94.45h0m1.73.37h0m2.01.07h0m2.05-.32h0m1.82-.62h0m1.93-.13h0m1.95.13h0m1.93.44h0m1.91.37h0m-7.6-3.1h0m1.93-.13h0m1.95.13h0m1.93.44h0m1.9.37h0m1.86 2.42h0m2.06-.32h0m1.82-.62h0m1.93-.13h0m2.12.21h0m1.93.38h0m1.93.37h0m-1.46-2.76h0m1.73.37h0M1.32 36.43h0m2-.32h0m1.82-.62h0m1.93-.12h0m1.95.12h0m1.94.45h0m1.84.37h0m2.03.12h0m2.06-.32h0m1.82-.62h0m1.92-.12h0m1.95.12h0m1.94.45h0m1.73.37h0m-7.68-3.28h0m1.92-.13h0m1.95.13h0m1.94.44h0m1.73.37h0m2.15 2.54h0m2.05-.32h0m1.82-.62h0m1.93-.13h0m1.95.13h0m1.93.44h0m1.91.37h0m1.97.13h0m2.06-.32h0m1.82-.62h0m-8.54-2.18h0m1.9.37h0m1.98.12h0m2.06-.32h0m1.98-.37h0m2.55 2.25h0m1.94.13h0m1.94.44h0m1.73.37h0M1.16 41.27h0m2-.32h0m1.82-.62h0m1.92-.13h0m1.95.13h0m1.94.44h0m1.84.37h0m-5.96-3.33h0m1.92-.12h0m1.95.12h0m1.94.45h0m1.77.55h0m.41 2.46h0m2.06-.32h0m1.82-.62h0m1.92-.13h0m1.95.13h0m1.94.44h0m1.73.37h0m2.01.07h0m2.06-.32h0m1.81-.62h0m-8.49-1.96h0m1.73.37h0m2.01.07h0m2.06-.32h0m1.98-.28h0m2.64 2h0m1.95.12h0m1.94.44h0m1.9.37h0m1.98.13h0m2.05-.32h0m1.82-.62h0m1.93-.12h0m1.95.12h0m1.93.44h0m-9.86-1.99h0m2.06-.32h0m1.81-.61h0m1.93-.13h0m1.95.13h0m1.94.44h0m1.91 2.85h0m-51.2 4.91h0m1.81-.62h0m1.93-.13h0m-4.45-1.52h0m1.82-.62h0m1.93-.12h0m2.65 2.39h0m1.94.44h0m1.84.37h0m2.03.13h0m2.06-.32h0m-6.79 2.15h0m1.85.37h0m2.03.12h0m2.05-.32h0m1.67-.33h0m1.01-2.61h0m1.92-.13h0m1.95.13h0m1.94.44h0m-7.43-2.21h0m1.82-.62h0m1.92-.13h0m1.95.13h0m3.47 3.2h0m2.01.07h0m2.05-.32h0m1.82-.62h0m1.93-.12h0m1.95.12h0m1.93.45h0m-9.84 2.96h0m2.05-.32h0m1.82-.61h0m1.93-.13h0m1.95.13h0m1.93.44h0m2.07-2.1h0M32 42.98h0m1.93-.13h0m1.95.13h0m1.93.44h0m1.9.37h0m.67 2.46h0m2.05-.32h0m1.82-.62h0m1.93-.12h0m1.95.12h0m1.97.34h0m1.94.37h0m1.74.17h0m-7.65 1.44h0m1.95.12h0m2.15.4h0m1.81.31h0m1.7.17h0m-2.41-5.32h0m1.99.07h0M.6 50.88h0m1.82-.62h0m1.93-.13h0m1.95.13h0m1.94.44h0m1.84.37h0m-7.16 1.6h0m1.93-.13h0m1.95.13h0m1.94.44h0m1.84.37h0m1.53-2.28h0m2.06-.32h0m1.82-.62h0m1.92-.13h0m1.95.13h0m1.94.44h0m1.73.37h0m2.01.07h0m2.05-.32h0m1.82-.62h0m-7.11 3.11h0m1.74.37h0m2 .07h0m2.06-.32h0m1.82-.62h0m1.42-2.73h0m1.95.12h0m1.93.45h0m1.91.37h0m1.97.12h0m2.06-.32h0m1.82-.62h0m1.93-.12h0m1.94.12h0m-6.13 2.98h0m1.82-.62h0m1.93-.12h0m1.95.12h0m2.37-1.91h0m1.73.37h0m1.99.06h0" stroke-linecap="round" stroke-width=".7" stroke="#000" fill="none"/>
    </pattern>
    <style>
      .cls-15,.cls-4,.cls-5,.cls-6,.cls-9{fill:none}.cls-5,.cls-6,.cls-9{stroke:#000}.cls-5,.cls-6{stroke-width:.43px}.cls-6{fill-rule:evenodd}.cls-7{filter:url(#luminosity-invert)}.cls-9{stroke-width:.3px}.cls-15{stroke:#171616;stroke-miterlimit:10}.cls-14{fill:#171616}.cls-15{stroke-width:10px}
    </style>
  </defs>
  <g mask="url(#mask)">
    <g mask="url(#mask-2)">
      <g id="Curvy_Rays" data-name="Curvy Rays">
        <g mask="url(#mask-3)">
          <g mask="url(#mask-4)" id="Background">
            <path id="Background_Fill" data-name="Background Fill" class="cls-14" d="M11.46-35.24H1059.7v1090.59H11.46z"/>
          </g>
        </g>
        <g id="Outlines">
          <use width="72.38" height="141.99" transform="rotate(161.48 298.31 542.52) scale(2.22)" xlink:href="#Curvy_Sun_Ray"/>
          <use width="72.38" height="141.99" transform="rotate(-17.5 305.69 -894.1) scale(2.22)" xlink:href="#Curvy_Sun_Ray"/>
          <use width="72.38" height="141.99" transform="matrix(-.99 1.99 -1.99 -.99 1006.58 662.56)" xlink:href="#Curvy_Sun_Ray"/>
          <use width="72.38" height="141.99" transform="rotate(-62.5 303.54 151.18) scale(2.22)" xlink:href="#Curvy_Sun_Ray"/>
          <use width="72.38" height="141.99" transform="rotate(71 293.6 809.81) scale(2.2)" xlink:href="#Curvy_Sun_Ray"/>
          <use width="72.38" height="141.99" transform="rotate(-107.5 302.94 348.63) scale(2.22)" xlink:href="#Curvy_Sun_Ray"/>
          <use width="72.38" height="141.99" transform="matrix(1.99 .99 -.99 1.99 673.56 18.81)" xlink:href="#Curvy_Sun_Ray"/>
          <use width="72.38" height="141.99" transform="rotate(-152.5 302.68 453.81) scale(2.22)" xlink:href="#Curvy_Sun_Ray"/>
        </g>
      </g>
    </g>
    <g id="Straight_Rays" data-name="Straight Rays">
      <g mask="url(#mask-5)">
        <g mask="url(#mask-6)" id="Background-2" data-name="Background">
          <path id="Background_Fill-2" data-name="Background Fill" class="cls-14" d="M-7.6 19.82h1049.29v997.41H-7.6z"/>
        </g>
      </g>
      <g id="Outlines-2" data-name="Outlines">
        <use width="72.52" height="150.62" transform="rotate(135 295.57 600.86) scale(2.22)" xlink:href="#Straight_Sun_Ray"/>
        <use width="72.52" height="150.62" transform="rotate(-45 292.1 -24.67) scale(2.22)" xlink:href="#Straight_Sun_Ray"/>
        <use width="72.52" height="150.62" transform="matrix(2.22 0 0 2.22 442.32 -2.46)" xlink:href="#Straight_Sun_Ray"/>
        <use width="72.52" height="150.62" transform="rotate(180 295.06 509.25) scale(2.22)" xlink:href="#Straight_Sun_Ray"/>
        <use width="72.52" height="150.62" transform="rotate(45 298.03 1043.18) scale(2.22)" xlink:href="#Straight_Sun_Ray"/>
        <use width="72.52" height="150.62" transform="rotate(-135 294.56 417.65) scale(2.22)" xlink:href="#Straight_Sun_Ray"/>
        <use width="72.52" height="150.62" transform="rotate(90 296.3 730.42) scale(2.22)" xlink:href="#Straight_Sun_Ray"/>
        <use width="72.52" height="150.62" transform="matrix(0 -2.22 2.22 0 5.75 581.93)" xlink:href="#Straight_Sun_Ray"/>
      </g>
    </g>
  </g>
  <circle id="Outer_Ring-2" data-name="Outer Ring" class="cls-15" cx="518.17" cy="508.02" r="226.77"/>
  <path class="cls-4" d="M27.35 24.05h981.53v981.53H27.35z"/>
  <circle id="Inner_Ring" data-name="Inner Ring" class="cls-15" cx="518.17" cy="508.02" r="206.18" transform="rotate(-45 518.17 508.03)"/>
  <g mask="url(#mask-7)">
    <path id="Inner_Ring_Fill-2" data-name="Inner Ring Fill" d="M446.64 314.6c73.71 39.65 119 117.31 116.47 200-2.35 78.14-46.94 149.49-116.47 186.81 10.11 3.86 98.38 35.82 182.47-16.69C723.24 626 724.4 516.13 724.35 508s-2.69-114.84-95.24-173.81c-83.84-53.4-171.99-23.36-182.47-19.59z" stroke-width="10" fill="#171616" stroke-miterlimit="10" stroke="#171616"/>
  </g>
</svg>
