<svg id="Sun" xmlns="http://www.w3.org/2000/svg" xmlns:xlink="http://www.w3.org/1999/xlink" width="1024" height="1024">
  <defs>
    <mask id="mask" x="0" y="0" width="1000.66" height="992.46" maskUnits="userSpaceOnUse">
      <circle id="Outer_Ring" data-name="Outer Ring" cx="512" cy="512" r="226.77" filter="url(#luminosity-noclip)"/>
    </mask>
    <mask id="mask-2" x="0" y="0" width="981.43" height="973.23" maskUnits="userSpaceOnUse">
      <g id="Straight_Rays_Mask" data-name="Straight Rays Mask" filter="url(#luminosity-noclip-2)">
        <use width="61.09" height="126.9" transform="matrix(2.22 0 0 2.22 454.91 40.21)" xlink:href="#Straight_Sun_Ray_Mask"/>
        <use width="61.09" height="126.9" transform="rotate(180 288.77 487.92) scale(2.22)" xlink:href="#Straight_Sun_Ray_Mask"/>
        <use width="61.09" height="126.9" transform="rotate(45 240.23 1037.04) scale(2.22)" xlink:href="#Straight_Sun_Ray_Mask"/>
        <use width="61.09" height="126.9" transform="rotate(-135 297.1 393.7) scale(2.22)" xlink:href="#Straight_Sun_Ray_Mask"/>
        <use width="61.09" height="126.9" transform="rotate(90 268.67 715.38) scale(2.22)" xlink:href="#Straight_Sun_Ray_Mask"/>
        <use width="61.09" height="126.9" transform="matrix(0 -2.22 2.22 0 48.42 569.34)" xlink:href="#Straight_Sun_Ray_Mask"/>
        <use width="61.09" height="126.9" transform="rotate(135 280.44 582.13) scale(2.22)" xlink:href="#Straight_Sun_Ray_Mask"/>
        <use width="61.09" height="126.9" transform="rotate(-45 337.32 -61.21) scale(2.22)" xlink:href="#Straight_Sun_Ray_Mask"/>
      </g>
    </mask>
    <mask id="mask-3" x="-.18" y="1.41" width="983.65" height="990.41" maskUnits="userSpaceOnUse">
      <path fill="url(#_431-K)" filter="url(#luminosity-noclip-3)" d="M26.29 34.64h957.18v957.18H26.29z"/>
    </mask>
    <mask id="mask-4" x="0" y="-35.24" width="1059.7" height="1090.59" maskUnits="userSpaceOnUse">
      <g id="Curvy_Rays_Fill" data-name="Curvy Rays Fill" class="cls-7">
        <use width="66.45" height="133.12" transform="rotate(161.48 294.85 535.26) scale(2.22)" xlink:href="#Curvy_Sun_Ray_Mask"/>
        <use width="66.45" height="133.12" transform="rotate(-17.5 352.98 -916.15) scale(2.22)" xlink:href="#Curvy_Sun_Ray_Mask"/>
        <use width="66.45" height="133.12" transform="matrix(-.99 1.99 -1.99 -.99 990.97 659.74)" xlink:href="#Curvy_Sun_Ray_Mask"/>
        <use width="66.45" height="133.12" transform="rotate(-62.5 313.87 139.9) scale(2.22)" xlink:href="#Curvy_Sun_Ray_Mask"/>
        <use width="66.45" height="133.12" transform="rotate(71 280.86 805.25) scale(2.2)" xlink:href="#Curvy_Sun_Ray_Mask"/>
        <use width="66.45" height="133.12" transform="rotate(-107.5 306.3 339.38) scale(2.22)" xlink:href="#Curvy_Sun_Ray_Mask"/>
        <use width="66.45" height="133.12" transform="matrix(1.99 .99 -.99 1.99 670.74 34.42)" xlink:href="#Curvy_Sun_Ray_Mask"/>
        <use width="66.45" height="133.12" transform="rotate(-152.5 302.33 445.65) scale(2.22)" xlink:href="#Curvy_Sun_Ray_Mask"/>
      </g>
    </mask>
    <mask id="mask-5" x="-137.83" y="-54.3" width="1283.29" height="1132.94" maskUnits="userSpaceOnUse">
      <path fill="url(#_705)" filter="url(#luminosity-invert)" d="M-137.83-54.3h1283.29v1132.94H-137.83z"/>
    </mask>
    <mask id="mask-6" x="-7.6" y="19.82" width="1049.29" height="997.41" maskUnits="userSpaceOnUse">
      <g id="Straight_Rays_Mask-2" data-name="Straight Rays Mask" class="cls-7">
        <use width="61.09" height="126.9" transform="matrix(2.22 0 0 2.22 454.91 40.21)" xlink:href="#Straight_Sun_Ray_Mask"/>
        <use width="61.09" height="126.9" transform="rotate(180 288.77 487.92) scale(2.22)" xlink:href="#Straight_Sun_Ray_Mask"/>
        <use width="61.09" height="126.9" transform="rotate(45 240.23 1037.04) scale(2.22)" xlink:href="#Straight_Sun_Ray_Mask"/>
        <use width="61.09" height="126.9" transform="rotate(-135 297.1 393.7) scale(2.22)" xlink:href="#Straight_Sun_Ray_Mask"/>
        <use width="61.09" height="126.9" transform="rotate(90 268.67 715.38) scale(2.22)" xlink:href="#Straight_Sun_Ray_Mask"/>
        <use width="61.09" height="126.9" transform="matrix(0 -2.22 2.22 0 48.42 569.34)" xlink:href="#Straight_Sun_Ray_Mask"/>
        <use width="61.09" height="126.9" transform="rotate(135 280.44 582.13) scale(2.22)" xlink:href="#Straight_Sun_Ray_Mask"/>
        <use width="61.09" height="126.9" transform="rotate(-45 337.32 -61.21) scale(2.22)" xlink:href="#Straight_Sun_Ray_Mask"/>
      </g>
    </mask>
    <mask id="mask-7" x="-.05" y="1.11" width="729.4" height="718.5" maskUnits="userSpaceOnUse">
      <path id="Inner_Ring_Fill" data-name="Inner Ring Fill" d="M445.64 314.6c73.71 39.65 119 117.31 116.47 200-2.35 78.14-46.94 149.49-116.47 186.81 10.11 3.86 98.38 35.82 182.47-16.69C722.24 626 723.4 516.13 723.35 508s-2.69-114.84-95.24-173.81c-83.84-53.4-171.99-23.36-182.47-19.59z" fill="url(#_656)" filter="url(#luminosity-invert)"/>
    </mask>
    <symbol id="Straight_Sun_Ray_Mask" data-name="Straight Sun Ray Mask" viewBox="0 0 61.09 126.9">
      <path d="M60.45 126.4H.63l29-124.26z" stroke-miterlimit="10" stroke="#000"/>
    </symbol>
    <symbol id="Curvy_Sun_Ray_Mask" data-name="Curvy Sun Ray Mask" viewBox="0 0 66.45 133.13">
      <path d="M62.52 131.12H2.7c-2-18.6.77-32.25 3.55-41.05 6.05-19.19 15.28-25.9 21.44-45.52a99.34 99.34 0 0 0 4-37.69C39 16.73 45.94 29.74 47.87 45.68c2.24 18.41-3.83 27.53-1.65 46 1.29 10.93 5.41 24.46 16.3 39.44z" stroke-width="4" stroke-miterlimit="10" stroke="#000"/>
    </symbol>
    <symbol id="Curvy_Sun_Ray" data-name="Curvy Sun Ray" viewBox="0 0 72.38 141.99">
      <path id="Outline" d="M64.52 138H4.7c-2-18.6.77-32.26 3.55-41.05C14.3 77.74 23.53 71 29.69 51.41a99.28 99.28 0 0 0 4.05-37.68C41 23.59 47.94 36.6 49.87 52.54 52.11 71 46 80.08 48.22 98.53c1.29 10.95 5.41 24.47 16.3 39.47z" stroke-width="8" stroke-miterlimit="10" stroke="#171616" fill="none"/>
    </symbol>
    <symbol id="Straight_Sun_Ray" data-name="Straight Sun Ray" viewBox="0 0 72.52 150.63">
      <path class="cls-14" d="m32.22 145.65-.44-62.13-.22-31.06c.39-10.36-1.95-20.7 3.78-31.1 5.88 10.32 3.69 20.69 4.22 31l.22 31.07.43 62.13z" id="Middle_Line" data-name="Middle Line"/>
      <path id="Outline-9" data-name="Outline" class="cls-15" d="M66.13 145.62H6.3l29-124.26q15.43 62.13 30.83 124.26z"/>
    </symbol>
    <filter id="luminosity-noclip" x="0" y="0" width="1000.66" height="992.46" filterUnits="userSpaceOnUse" color-interpolation-filters="sRGB">
      <feFlood flood-color="#fff" result="bg"/>
      <feBlend in="SourceGraphic" in2="bg"/>
    </filter>
    <filter id="luminosity-noclip-2" x="0" y="0" width="981.43" height="973.23" filterUnits="userSpaceOnUse" color-interpolation-filters="sRGB">
      <feFlood flood-color="#fff" result="bg"/>
      <feBlend in="SourceGraphic" in2="bg"/>
    </filter>
    <filter id="luminosity-noclip-3" x="-.18" y="1.41" width="983.65" height="990.41" filterUnits="userSpaceOnUse" color-interpolation-filters="sRGB">
      <feFlood flood-color="#fff" result="bg"/>
      <feBlend in="SourceGraphic" in2="bg"/>
    </filter>
    <filter id="luminosity-invert" filterUnits="userSpaceOnUse" color-interpolation-filters="sRGB">
      <feColorMatrix values="-1 0 0 0 1 0 -1 0 0 1 0 0 -1 0 1 0 0 0 1 0"/>
    </filter>
    <pattern id="_431-K" data-name="431-K" width="74.56" height="74.55" patternTransform="matrix(6.1 0 0 6.1 -803.47 -406.22)" patternUnits="userSpaceOnUse">
      <path class="cls-4" d="M0 0h74.56v74.55H0z"/>
      <path class="cls-5" d="M63.9 11.15C67.4 8 71.13 2.15 72.85 0M70.42 0c-.7 1.06-1.3 2.1-1.45 2.36M57.6 15.31c4.9-2.49 6.06-8.73 10.4-11.7M57.4 13.82a104.83 104.83 0 0 1 8.75-10.91"/>
      <path class="cls-6" d="M50.58 19.43c2.84-2 7.94-11.29 8.9-12.6a14.05 14.05 0 0 1 3.32-3.4"/>
      <path class="cls-5" d="M62.44 0a50.31 50.31 0 0 0-6.11 8.53c-1.36 2.71-4.86 3.8-6.22 6.91M50 13.07c2.71-3.16 3.5-8.93 7.34-12.24M53.56 2.92c-1 1.4-1.43 2.42-2.18 3.42M38.3 12.43c1.05-.66 2.06-2.24 3.37-4.47 1.18-2 4-5.92 5.41-8M68.1 18.31c1.57-1.84 3.15-6.5 4-8.07A33.62 33.62 0 0 1 74.56 7M74.56 1.3A5 5 0 0 1 74 2c-1 1.18-4.2 4.8-4.85 5.71M59.57 17.33c2.55-4.14 6.1-4.73 9.58-9.59M73.48 11.68a16.87 16.87 0 0 1 1.08-1.54M68.56 0a20.29 20.29 0 0 1-2.41 2.91M54.05 8.27C55.84 6.66 57.77 2.8 60 0M62.41 2.71A18.75 18.75 0 0 0 65.9 0M74.56 3.64c-.56.89-.94 1.63-1.48 2.36M72.56 19.69c-.92 1-4 4.65-5.08 6.21s-4.24 6.83-6 7.88M67.87 22.59a34.59 34.59 0 0 0-5.42 7.47c-1.57 3-4 4.72-5.31 5.9M63.11 25.79c2.3-4.26 6.74-6.19 10.94-13M69.76 12.34c-1.05 1.18-2.21 5.86-5.08 8.57M67.87 28.63c2.63-2.54 4.55-4.85 5-6.14a14.84 14.84 0 0 1 1.65-2.91M57.46 25a24.47 24.47 0 0 1-3.6 5.89c-1.38 1.58-1.51 2.63-2.17 4.07M57.86 23.1c.66-1.31 2-4.4 3.87-6a34 34 0 0 0 3.61-3.41M57.92 20.34c-1.83 1.91-6 5.84-7.21 8.08s-3.48 5.58-4.65 7.73M43.9 38.15c.59-1.57 1.27-4.53 2.58-6a31 31 0 0 0 2.37-3M43.73 34.15a22.07 22.07 0 0 1 1.86-3.77c1.24-1.5 3.41-3 4.72-5.05a42.77 42.77 0 0 1 3.55-4.46M48.8 15.7c-1 1.18-1.64 3.86-2.82 6.74s-4.4 5.91-5.77 7.16a16.87 16.87 0 0 0-1.61 2 10.38 10.38 0 0 0-1.12 2.66M60 28.79c.33-.46 1.25-2.67 1.77-3.46 1.14-1.71 2.69-6.5 3.48-8.53s4.59-6.43 5.84-8M53.07 14.44c-1.25 1.51-3.87 3.87-4.4 5.64a14.16 14.16 0 0 1-1.25 3.35M56.61 15a19.59 19.59 0 0 0-3.87 4.6c-.92 1.64-2.37 3.12-5 6.35M54.66 21.71c1.52-2 1.46-2.27 1.43-2.22a14.16 14.16 0 0 1 2.51-3M48.86 8a25.1 25.1 0 0 0-3.53 6.55c-1.12 2.89-3.77 6.48-4.6 9M50.71 7.28a31.64 31.64 0 0 1-2.89 6.44 30.35 30.35 0 0 0-3 7c-.39 1.45-3.87 6.41-5.9 8M37.29 1.29A10.65 10.65 0 0 0 38 0M70.9 19.16a25.27 25.27 0 0 1 3.66-2.76M74.56 24.2c-2.88 3-6.79 8.12-6.79 8.12M53.61 2.88A26.19 26.19 0 0 1 56 0M53.73 0c-.82 1.05-2.19 2.52-3.44 3.87l-.1.08C49 5.29 47.27 6.69 47 7.23c-.7 1.23-2.19 5-4.59 6.89M51.75 0a18.29 18.29 0 0 0-1.63 2.17M45 6.6a26.5 26.5 0 0 0 2.66-3.43A14.36 14.36 0 0 0 49.47 0M27.6 9.52c4.08-2.3 6.24-7.37 8-9.52M33.13 0c-.69 1.06-1.29 2.1-1.44 2.36M20.31 15.31c4.9-2.49 6.06-8.73 10.44-11.7M20.7 13.13C22.27 9 26 5.91 28.86 2.91"/>
      <path class="cls-6" d="M13.23 19.11c2.84-2 8-11 9-12.28a17.11 17.11 0 0 1 3.6-3.78"/>
      <path class="cls-5" d="M25.15 0A50.31 50.31 0 0 0 19 8.53a15.54 15.54 0 0 1-3.25 4.27M11.85 14.58c4-2.53 3.78-9.9 8.24-13.75M5 14.06c2.41-1.93 3.76-5.34 4.46-6.57a19.1 19.1 0 0 1 2.44-4.17M1 12.43c1-.66 2.05-2.24 3.37-4.47C5.57 6 8.41 2 9.8 0M31.92 16.05c1.43-2.63 2-4.24 2.89-5.81A33.62 33.62 0 0 1 37.27 7 33.39 33.39 0 0 0 42 0M22.28 17.33c2.56-4.14 6.1-4.73 9.58-9.59.66-.91 3.8-4.53 4.86-5.71a5 5 0 0 0 .55-.73M36.19 11.68c.37-.59 1.1-1.54 1.1-1.54 2.11-2.63 4-3.16 6.33-8.5M0 7a33.43 33.43 0 0 0 4.68-7M0 10.14C2.11 7.51 4 7 6.33 1.64M37.27 30.47C36 31.61 36 32.71 34.55 33.86a29.62 29.62 0 0 0-3 3l-.27.44M31.28 0a20.39 20.39 0 0 1-2.42 2.91M28.61 37.28c3-2.87 6-6.8 8.66-9.71a24.37 24.37 0 0 1 2.46-2.37M17.23 8.42c1.56-1.88 3.59-6 5.47-8.42M25.12 2.71A18.12 18.12 0 0 0 28.61 0M0 3.63A23.76 23.76 0 0 1 2.76 0M35.8 6c.54-.72.93-1.46 1.47-2.35A22.5 22.5 0 0 1 40.05 0M4 30.52a16.26 16.26 0 0 0-1.74 3.08c-.26.79-.46 1.31-.46 1.31-.39.65-.7 1.51-1.1 2.37M36.1 19.55c-.91 1.05-4.68 4.81-5.9 6.35s-4.2 6.83-5.95 7.88M31.23 22.36a36.37 36.37 0 0 0-6.06 7.7 16.22 16.22 0 0 1-4.4 5.33M25.82 25.79c2.3-4.26 6.71-5.86 10.91-12.68M31 15.11c-.73 1.57-1.2 3.49-2.81 5.44M31.34 27.38a25.05 25.05 0 0 0 3.83-3.77A28.92 28.92 0 0 0 37.23 21l.77-1.39c.79-1.14 2.35-3 2.75-3.46M2 17a32.07 32.07 0 0 0-2 2.6M20.45 25a25 25 0 0 1-3.88 5.82c-1.38 1.58-1.51 2.63-2.17 4.07M20.77 23.56c.66-1.31 2-4.4 3.87-6a33 33 0 0 0 3.61-3.41M20.64 20.34c-1.84 1.91-6 5.84-7.22 8.08s-3.65 6.15-5 8.73M6.56 37.65c.59-1.57 1.33-4 2.64-5.54a30.34 30.34 0 0 0 2.36-3M5.9 35.48c.65-1.29 1.63-4.16 2.4-5.1 1.25-1.5 3.68-2.8 5-4.84a46.38 46.38 0 0 1 3.35-4.33M11 16.6c-1.05 1.18-1.11 3-2.29 5.84S4.3 28.35 2.92 29.6a16.87 16.87 0 0 0-1.61 2A10.27 10.27 0 0 0 .2 34.26M22.67 28.79c.33-.46 1.25-2.67 1.78-3.46 1.14-1.71 2.69-6.5 3.47-8.53s4.6-6.43 5.84-8M15 14.45c-1.25 1.51-3.09 3.86-3.61 5.63a14.64 14.64 0 0 1-1.25 3.35M19.79 14.36a24.65 24.65 0 0 0-4.34 5.2c-.91 1.64-3 3.42-5.39 7.42M18 20.54a34.71 34.71 0 0 1 3.91-4.74M12.57 6.23A39 39 0 0 0 8 14.5c-1.12 2.89-3.28 6.57-5.32 8.21M13.9 7a37.67 37.67 0 0 1-3.37 6.74 30.8 30.8 0 0 0-3 7C7.12 22.12 5 24.94 3 26.51M0 1.29A9.42 9.42 0 0 0 .69 0M6.43 7.68c-.43.65-1.93 4.07-2.66 5.05A14.34 14.34 0 0 1 .3 16.21l-.3.19M33 20.48a49.93 49.93 0 0 1 4.23-4.08l.29-.19A14.22 14.22 0 0 0 41 12.73c.72-1 2.78-3.86 3.21-4.51M29.4 34.32a117.89 117.89 0 0 1 7.87-10.12c.47-.49.92-.93 1.32-1.27 1-.84 3.36-5.38 5-7.61M.33 30.19a3 3 0 0 0-.33.28M0 27.57a26.67 26.67 0 0 1 2.46-2.37M4.93 15.88c-1.59 2.23-2.64 6.21-3.61 7-.39.34-.84.78-1.32 1.27M18.69 0a26.19 26.19 0 0 0-2.37 2.88c-1 1.4-1.44 2.42-2.18 3.42M16.45 0c-.83 1.05-2.2 2.52-3.45 3.87l-.62.74M14.46 0a18.29 18.29 0 0 0-1.63 2.17M7.68 6.6a26.5 26.5 0 0 0 2.66-3.43A15.21 15.21 0 0 0 12.19 0M65.42 46.65c3.69-3.11 5.71-7.23 7.43-9.37a4 4 0 0 1 .63-.66M73.48 73.89a4.48 4.48 0 0 0-.63.66M69 39.64c.15-.26.75-1.3 1.45-2.36l.35-.53a13.78 13.78 0 0 1 1.92-2M57.6 52.59c4.9-2.5 6.77-8.59 10.4-11.71M58 50.4a68.37 68.37 0 0 1 8.16-10.21"/>
      <path class="cls-6" d="M50.58 56.7c2.84-2 7.94-11.29 8.9-12.6A13.75 13.75 0 0 1 63 41"/>
      <path class="cls-5" d="M49.93 53c2-3.06 5-4.52 6.4-7.23a49.91 49.91 0 0 1 6.11-8.53l1.9-2a52.85 52.85 0 0 0 3-4.38M63.28 71.66A9.41 9.41 0 0 0 60 74.55M49.85 50.5c3.58-3.53 3.49-8 7.26-11.64M38.06 51c1-1.66 3.19-3.93 4.5-6.16 1.18-2 5.32-9.19 5.92-10.17M69.27 53.83c1.58-1.84 2-4.74 2.83-6.32a33.85 33.85 0 0 1 2.46-3.19M74.56 38.57a5.75 5.75 0 0 1-.56.74c-1 1.17-4.2 4.79-4.85 5.71M59.57 54.6c2.55-4.13 6.1-4.72 9.58-9.58M73.48 49a15.59 15.59 0 0 1 1.08-1.54M70.42 74.55l.35-.52a13.73 13.73 0 0 1 1.92-2M74.56 67.74c-1.25 1.15-1.33 2.24-2.72 3.4a28.92 28.92 0 0 0-3 3l-.28.44M66.15 40.18a20.8 20.8 0 0 0 2.41-2.9l.28-.44a29.62 29.62 0 0 1 3-3c1.39-1.15 1.47-2.25 2.72-3.39M65.9 74.55c3-2.86 6-6.8 8.66-9.7M62.44 74.55l.49-.52a6.94 6.94 0 0 0 1.79-2 71.6 71.6 0 0 1 3.77-6.17M53.73 47c1.58-2.27 5.11-8.38 7.32-11.18M62.41 40a19.19 19.19 0 0 0 3.49-2.71c3-2.87 6-6.8 8.66-9.71M56 74.55l.67-.7M61.08 66.35c-1.71 2.69-5.45 6.17-6.17 6.89s-.68.61-.68.61c-.13.2-.31.44-.51.7M63.2 55.56a33 33 0 0 0-4.29 8.32c-.85 2.55-2.43 4-4 5.88a17.43 17.43 0 0 0-2.17 3.48 4.28 4.28 0 0 0-.48.7l-.53.61M47.08 74.55l.41-.61a13.59 13.59 0 0 1 1-2M46.7 62.15c-.32.78-2.82 3.61-3.41 4.72s-1 4.27-1.31 5.06a5.6 5.6 0 0 1-.93 1.56c-.37.37-.7.73-1 1.06M74.56 40.92c-.54.88-.94 1.62-1.48 2.35M42.17 74c-.06.17-.13.35-.21.52M41.32 67.79a16.28 16.28 0 0 0-1.77 3.09c-.26.78-.46 1.31-.46 1.31-.39.64-.71 1.5-1.11 2.36M72.56 57c-.92 1-4.29 4.51-5.08 6.22s-4.24 6.82-6 7.87M67.87 60a32.87 32.87 0 0 0-5.42 7.29c-1.57 3-4 4.73-5.31 5.91M63.11 63.07c2.3-4.27 6.74-6.19 10.94-13M69.76 49.61c-1.05 1.18-2.15 4.83-4.16 7.8M67.75 65.28c3-2.19 4.67-4.23 5.16-5.52a15.08 15.08 0 0 1 1.65-2.9M58.07 61.88a29.22 29.22 0 0 1-4.21 6.24c-1.38 1.57-1.51 2.62-2.17 4.07M57.86 60.38c.66-1.32 2-4.4 3.87-6A32 32 0 0 0 65.34 51M57.92 57.62c-1.83 1.9-6 5.84-7.21 8.07s-2.69 5-4.4 6.24M44.08 74a13.36 13.36 0 0 1 2.4-4.57 30.69 30.69 0 0 0 2.37-3M43.34 71.4a22 22 0 0 1 2.25-3.74c1.24-1.51 3.41-3 4.72-5a42.09 42.09 0 0 1 3.55-4.47M48.28 53.88c-1.05 1.18-1.12 2.95-2.3 5.84s-4.4 5.91-5.77 7.15a17.85 17.85 0 0 0-1.61 2 10.52 10.52 0 0 0-1.12 2.66M60 66.06c.33-.46 1.25-2.67 1.77-3.45 1.14-1.72 2.69-6.5 3.48-8.53s4.59-6.44 5.84-8M53.07 51.71c-1.25 1.51-3.87 3.87-4.4 5.65a14 14 0 0 1-1.25 3.34M56.61 52.24A26.74 26.74 0 0 0 52 57.59c-1 1.64-1.72 2.41-4.34 5.69M54.75 58.73a11.63 11.63 0 0 0 1.34-2A11.42 11.42 0 0 1 58.33 54M50.23 43.15a41.32 41.32 0 0 0-4.9 8.63c-1.12 2.89-2.92 5.28-4.15 8.08M51 45.16A30.69 30.69 0 0 1 47.82 51a30.4 30.4 0 0 0-3 7c-.39 1.44-4 6.27-6.07 7.85"/>
      <path class="cls-5" d="M39.08 72.19c-.39.64-.7 1.5-1.1 2.36M70.9 56.44a24.56 24.56 0 0 1 3.66-2.76M74.56 61.48c-2.88 3-6.79 8.12-6.79 8.12M56 62a48.6 48.6 0 0 0-5.32 7.81c-.46 1.28-.31 2.65-1.17 4.72M51.38 43.62c.75-1 1.21-2 2.18-3.42v-.05A26.23 26.23 0 0 1 56 37.28l.67-.7M42.72 51.84c1.79-2.91 4.11-6.3 4.81-7.52a29.66 29.66 0 0 1 2.66-3.1l.1-.08c1.25-1.35 2.62-2.82 3.44-3.86A10.46 10.46 0 0 1 54.91 36c.72-.72 4.46-4.2 6.17-6.89M50.12 39.44a18.26 18.26 0 0 1 1.63-2.16l.53-.62a4.28 4.28 0 0 1 .48-.7 17.43 17.43 0 0 1 2.17-3.48c1.57-1.83 3.15-3.32 4-5.88a32.93 32.93 0 0 1 4.29-8.31M45 43.87a25.93 25.93 0 0 0 2.66-3.42 14.83 14.83 0 0 0 1.85-3.17c.86-2.07.71-3.45 1.17-4.73.66-1.84 3.68-5.84 5.32-7.81M27.6 46.79c4.08-2.29 7.41-8.16 9.13-10.31M36.19 73.89a5.07 5.07 0 0 0-.63.66M31.69 39.64c.15-.26.53-.89 1.23-2 .11-.17 1.12-1.2 1.24-1.38L36 35.12M21.15 52.08c4.41-5.1 5.75-7.43 10.08-10.93"/>
      <path class="cls-6" d="M13.29 56.7c2.84-2 7.94-11.29 8.9-12.6a26.75 26.75 0 0 1 4.87-4.1"/>
      <path class="cls-5" d="M13.27 52.59c1.35-3.11 4.42-4.07 5.77-6.78a49.91 49.91 0 0 1 6.11-8.53l.5-.53a7 7 0 0 0 1.78-2 73.6 73.6 0 0 1 3.77-6.17M26 71.66a9.32 9.32 0 0 0-3.3 2.89M11.87 51.9c3.33-3.35 4.46-10.15 8.93-14M3.9 53.15A85.76 85.76 0 0 0 9.42 45c.31-.54 2.24-2.42 3.49-3.77M1 49.7c1-.66 2.05-2.23 3.37-4.46 1.18-2 4-5.92 5.41-8l.4-.62a14.88 14.88 0 0 1 1-2M32 53.83c1.57-1.84 2-4.74 2.81-6.32a33.85 33.85 0 0 1 2.46-3.19c1.62-2 4.71-5.21 5.77-7.67M22.28 54.6c2.56-4.13 6.1-4.72 9.58-9.58M36.19 49a15.59 15.59 0 0 1 1.08-1.54c2.11-2.64 4-3.17 6.33-8.5M0 44.32a34 34 0 0 0 4.68-7M0 47.42c2.11-2.64 4-3.17 6.33-8.5M33.13 74.55l.35-.52a13.73 13.73 0 0 1 1.92-2M37.27 67.74C36 68.89 36 70 34.55 71.14a28.92 28.92 0 0 0-3 3 4 4 0 0 1-.27.44M31.28 37.28a20.9 20.9 0 0 1-2.42 2.9c-2.87 3-6.59 6.05-8.16 10.21M28.61 74.55c3-2.86 6-6.8 8.66-9.7.84-.92 2.59-3.09 3.38-3.74M25.15 74.55c.18-.2.35-.38.5-.52a7 7 0 0 0 1.78-2c.56-1.11 4.55-6.47 5.11-7.13M17.3 45.51c1.66-2.21 3.19-5.44 5.4-8.23a9.23 9.23 0 0 1 3.3-2.89M25.12 40a18.53 18.53 0 0 0 3.49-2.71M18.67 74.55l.68-.7M23.79 66.35c-1.71 2.69-5.45 6.17-6.17 6.89s-.68.61-.68.61a8.47 8.47 0 0 1-.51.7M25.91 55.56a33.31 33.31 0 0 0-4.29 8.32c-.85 2.55-2.42 4-4 5.88a18 18 0 0 0-2.17 3.48 4.28 4.28 0 0 0-.48.7l-.53.61M9.8 74.55l.4-.61a14.88 14.88 0 0 1 1-2M9.42 62.15c-.33.78-2.82 3.61-3.42 4.72s-1 4.27-1.31 5.06a5.6 5.6 0 0 1-.93 1.56c-.37.37-.7.73-1 1.06M0 40.9a23.29 23.29 0 0 1 2.76-3.62l1-1.07a5.43 5.43 0 0 0 .93-1.56c.26-.79.72-3.94 1.31-5s3.09-3.94 3.42-4.73M35.8 43.27c.54-.73.93-1.47 1.47-2.35a22.07 22.07 0 0 1 2.76-3.62l1-1.07a5.43 5.43 0 0 0 .97-1.58c.26-.79.72-3.94 1.31-5s3.09-3.94 3.41-4.73M4.89 74l-.21.52M4 67.79a16.33 16.33 0 0 0-1.78 3.09c-.26.78-.46 1.31-.46 1.31-.39.64-.7 1.5-1.1 2.36M36.06 56.32c-.73.83-4.94 4.86-5.86 6.86-.79 1.7-4.25 6.82-5.95 7.87M31.92 58.36a49 49 0 0 0-6.75 9c-1.58 3-4 4.73-5.32 5.91M25.82 63.07c2.3-4.27 6.74-6.19 10.94-13M32 50.94c-1.05 1.18-1.71 4.11-4.15 7.29M30.46 65.28c1.95-1.44 4.48-4.88 5.21-5.61-1.38 1.38.7-.65 1.37-1.62l1.06-1.13c.8-1.14 1.56-3 2-3.44M2 54.25a32.66 32.66 0 0 0-2 2.61M20.05 61.62c-.85 2-2.1 4.92-3.48 6.5s-1.51 2.62-2.17 4.07M20.57 60.38c.66-1.32 2-4.4 3.88-6a31.72 31.72 0 0 0 3.6-3.38M20.64 57.62c-1.84 1.9-6 5.84-7.22 8.07s-2.69 5-4.4 6.24M6.79 74a13.39 13.39 0 0 1 2.41-4.61 30 30 0 0 0 2.36-3M6.05 71.4a22.7 22.7 0 0 1 2.25-3.74c1.25-1.51 3.41-3 4.73-5a43.74 43.74 0 0 1 3.54-4.47M11 53.88c-1.05 1.18-1.11 2.95-2.29 5.84s-4.4 5.91-5.78 7.15a17.85 17.85 0 0 0-1.61 2A10.41 10.41 0 0 0 .2 71.53M22.67 66.06c.33-.46 1.25-2.67 1.78-3.45 1.14-1.72 2.69-6.5 3.47-8.53s4.6-6.44 5.84-8M15.78 51.71c-1.24 1.51-3.87 3.87-4.39 5.65a14.49 14.49 0 0 1-1.25 3.34M19.33 52.24a19.13 19.13 0 0 0-3.88 4.59 17.42 17.42 0 0 1-5.7 6.43M16.77 59.87a29.92 29.92 0 0 0 2-3.1A22.6 22.6 0 0 1 22 52.91M12.23 44.32c-.91 1.43-3.53 6.22-4.91 9.16s-1.9 5.09-3.94 6.73M13.8 45.08A32.63 32.63 0 0 1 10.53 51a30.85 30.85 0 0 0-3 7C7.12 59.39 5 62.21 3 63.79M0 38.57a10.75 10.75 0 0 0 .69-1.29"/>
      <path class="cls-5" d="M1.8 72.19c-.39.64-.71 1.5-1.11 2.36M6.43 45c-.43.61-1.93 4-2.66 5A14.5 14.5 0 0 1 .3 53.48l-.3.2M33.61 56.44a25.64 25.64 0 0 1 3.66-2.76l.29-.2a14.38 14.38 0 0 0 3.5-3.48c.72-1 2.91-3.7 3.34-4.36M30.48 69.6s3.91-5.13 6.79-8.12c.47-.5.92-.93 1.32-1.28 1-.84 2-4.81 3.61-7M.33 67.46l-.33.28M0 64.85a24.27 24.27 0 0 1 2.46-2.37M5.05 53.74C3.45 56 2.29 59.36 1.32 60.2c-.39.35-.84.8-1.32 1.28M18.67 62C17 64 14 68 13.35 69.83c-.45 1.28-.3 2.65-1.17 4.72M19.56 36.32A35.81 35.81 0 0 0 16.77 40l-.7.88c-1 1.4-1.23 1.74-2 2.74M13 41.14c1.25-1.35 3.43-3.86 3.43-3.86.21-.27 5.65-5.52 7.36-8.21M12.83 39.44a18.26 18.26 0 0 1 1.63-2.16l.53-.62a4.28 4.28 0 0 1 .48-.7 18 18 0 0 1 2.17-3.48c1.58-1.83 3.15-3.32 4-5.88a33.26 33.26 0 0 1 4.29-8.31M7.68 43.87a25.93 25.93 0 0 0 2.66-3.42 15.74 15.74 0 0 0 1.85-3.17c.87-2.07.72-3.45 1.17-4.73.66-1.84 3.68-5.84 5.32-7.81M41.32 30.52a16.21 16.21 0 0 0-1.77 3.08s-.46 1.31-.79 2.38a11.83 11.83 0 0 1-1.49 2.59 5.68 5.68 0 0 1-.55.74c-1.06 1.17-4.2 4.79-4.86 5.71"/>
    </pattern>
    <pattern id="_705" data-name="705" width="53.5" height="53.5" patternTransform="matrix(5.96 0 0 5.96 -2591.99 -1104.54)" patternUnits="userSpaceOnUse">
      <path class="cls-4" d="M0 0h53.5v53.5H0z"/>
      <path class="cls-9" d="M0 7.42a115.7 115.7 0 0 0 5.58-5.94l.76-1M4.08 5.23C3.08 6.4 1.67 8.4.92 9.15c-.23.23-.56.58-.92 1M8.67 1.81c-1.75 2-4.17 4.34-4.84 6A25.36 25.36 0 0 1 0 13.38M9 10.48a37.22 37.22 0 0 0-4.67 5.58A20 20 0 0 1 0 20M12.83 14.31c-1 1.09-6.83 8.17-8.41 10A40.19 40.19 0 0 1 0 28.43M8.25 22.31a51.22 51.22 0 0 0-5 5.59A86.9 86.9 0 0 1 0 32.1M6.75 26a52.35 52.35 0 0 0-4.83 6.5A11.64 11.64 0 0 1 0 35.39M15.08 19.23c-2.08 2.92-5.5 5.92-7.33 8.58s-3.25 4.92-5 7.42c-1.28 1.82-2 3-2.75 3.89M12.83 28.31c-1.75 2.42-6.83 7.25-8.5 8.84-1.26 1.2-2.87 3.22-4.33 4.7M8.33 35c-.91.67-3.25 3.33-5.83 6.08-.93 1-1.75 1.85-2.5 2.6M15.83 27a62.58 62.58 0 0 0-6.16 8.08 58.64 58.64 0 0 1-6.5 8.84A25.45 25.45 0 0 1 0 46.16M25.17 21.15c-2.09 2.25-8.59 11.25-11.25 13.33s-6.75 7.08-8.42 9.25c-1.53 2-3.29 4.33-5.5 6.7M3.25 1.73C2.58 2.65 1.42 3.06.92 4A4.41 4.41 0 0 1 0 5.1M45.88 15c.74-.81 2.43-2.81 3.68-3.94s2.94-2.75 2.94-2.75c.29-.23.63-.54 1-.89M34.06 31.29a86.43 86.43 0 0 0 6.94-8 57 57 0 0 1 7.31-7.75 18 18 0 0 0 2.61-2.31c.75-1 1.77-2.19 2.58-3.09M36.83 36.23a28.54 28.54 0 0 0 4.42-5.08c.81-1.38 4.75-9.3 6.19-11.23a63.18 63.18 0 0 1 5-5.36c.34-.33.71-.74 1.08-1.17M52.5 20.73l1-.7M45.63 32.11a59 59 0 0 0 4.44-4.94l1.93-2.7a11.73 11.73 0 0 1 1.5-1.77M44.76 35.3A51.81 51.81 0 0 1 49 30.8a13.05 13.05 0 0 1 2-1.8c.9-.86 1.74-1.68 2.51-2.53M35.17 53l1.21-1.5c.56-.75 1.93-2.81 3.5-5.25s2.87-5.5 4.43-7.38 4.07-4.31 5.31-6.25a15.81 15.81 0 0 1 2.3-2.87l1.58-1.3M48.88 36a17.6 17.6 0 0 1 3.46-2.64c.33-.34.73-.79 1.16-1.29M51.92 37.06a33.9 33.9 0 0 0 1.58-1.67M42.19 51.42c2-2.5 5.75-6.38 6.69-7.32s3.71-4 3.71-4a8 8 0 0 0 .91-.93M45.15 53.5l.52-.56s1.21-1.59 2.33-3.46a13.22 13.22 0 0 1 2.17-2.83 27.89 27.89 0 0 0 3.33-3M47.76 53.5l.66-.73a16.36 16.36 0 0 0 1.08-2.1 12.7 12.7 0 0 1 1-1.94 18 18 0 0 1 3-2.57M50.55 53.5l.78-.73 1.59-1.71.58-.63M36.94 25.92c.62-1.07 3.44-5.32 4.62-7.19s7.19-9.25 8.25-10.38a31 31 0 0 1 2.94-2.54c.2-.23.47-.45.75-.71M9.92 23.15c.66-.75 2.66-3.09 4.41-5s4.42-6.42 5.67-8.42A95.41 95.41 0 0 1 27 .9M10.17 27.65c1.5-1.92 4.33-5.5 5.66-6.92s4.59-5.17 6.84-8 8.5-8.5 10.75-11M23.67 18.31C25.33 16.06 35.08 6 37.83 2.81M22.75 15c-2.5 3.17-8.42 9.83-10.25 12a63.54 63.54 0 0 1-6.33 6.33M36.5 6.73A34.52 34.52 0 0 1 33.33 10c-1.33 1.17-3.91 3.92-5.58 5.75s-5 5.5-6.75 7.75-6.58 7.75-9.08 10.42M33.67 12.31c-1.25 1.59-3.92 4.42-5.42 6.59s-5.25 7.16-6.67 9.16A29.51 29.51 0 0 1 18.33 32M25.83 24.48c2.34-2.33 7.67-7.75 9.92-9.58a43.39 43.39 0 0 0 6.08-6.5M52.78 53.5l.72-.5M49.46 2.82A13.31 13.31 0 0 0 48.38 4c-.57.75-2.07 3.06-3.26 4.44M16.56 37a57 57 0 0 0-5.37 5.56c-.75 1-2.07 3.75-3.25 5.07S4.88 50.6 4.38 51.1l-1 1.17-.9 1.23M29.75 31.42c-2.5 2.62-8.94 9.37-11.31 11.93S12.81 49.29 11.5 51c0 0 0 .44-1.33 1.61a4.1 4.1 0 0 0-.74.85M18.51 53.5l.91-1.23S20.38 50.6 22 48a74.29 74.29 0 0 1 8.69-10M23 53.5a13.37 13.37 0 0 1 2-3.19M12.31 53.5l.52-.73a21.79 21.79 0 0 1 2.86-3.85c1.62-1.69 4.69-4.82 6.12-6.57s8.69-9.5 10.38-12.12 4.43-6.25 5.43-8.06M39.19 30.35a106.27 106.27 0 0 1-6.94 8.13 125.36 125.36 0 0 0-8.13 9.87c-.93 1.44-3 4.5-3 4.5-.19.2-.38.42-.57.65M51.75 21.42c-.94.87-2.81 3.43-4.75 5.81a27.32 27.32 0 0 0-3.69 6.5 60 60 0 0 1-5.12 7.87 70.36 70.36 0 0 0-5.07 6.82 32.12 32.12 0 0 1-3.29 4.43l-.54.65M38.25 53.5c.45-.48.9-1 1.33-1.48a70.72 70.72 0 0 0 5.17-6.29c1.63-2.44 5.94-9.06 7.75-11.06M42.24 53.5a10.33 10.33 0 0 1 .76-.81s1.38-1.59 3.44-4.27a33.2 33.2 0 0 1 5.73-5.36 13.84 13.84 0 0 0 1.33-1.2M27.25 24.48c-.94 1-3.63 4-5.19 5.75a39.2 39.2 0 0 1-5.68 5.06 81.86 81.86 0 0 0-8.19 8M33.88 21.29c-1.44 1.13-8.82 11.81-10.57 13.94A32.49 32.49 0 0 1 17.38 41a64.13 64.13 0 0 0-6.63 5.81C9.38 48.17 7.69 51.92 6.69 53M37.88 15.29a72.36 72.36 0 0 1-6.32 6.06 44.87 44.87 0 0 0-6 6.94C24 30.6 20.31 34.79 19 35.67M27.25 32.42C28.38 31.23 37.44 19 38.88 17.17M40.12 17.92a120.47 120.47 0 0 1 8.57-10.63C50.38 5.54 51.25 4.6 53 3M48.69 16.54c-1.38 1.5-4.25 4.56-5.38 7.13a21.89 21.89 0 0 1-3 5.06M15.42 53.5l1.75-1.81S18 50.6 19 49.1a40.16 40.16 0 0 1 3.56-4.56 106.55 106.55 0 0 1 9.63-9.44 72.34 72.34 0 0 0 8.5-8.93M27 47.54a68 68 0 0 1 8.56-8.37l.42-.38M41.88 33.48c-1.63 2.94-5.32 6.81-7.32 9s-2.5 2.37-3.62 4.37-1.25 2.69-1.88 3.57a25.28 25.28 0 0 1-1.89 2.18c-.39.32-.73.62-1 .9M43.44 30.6a38.77 38.77 0 0 1 6.31-8.87 12.91 12.91 0 0 0 3.13-4.13M44 36.29c-1.88 2.81-5.62 8.19-6.69 10.06a32.66 32.66 0 0 1-3.25 4.32c-.81 1.06-1.23 1.68-1.23 1.68l-.91 1.15M46.62 38.35c-1.37 1.57-3.06 6.25-4.68 8.13s-1.38 1.75-2.56 3M29.75 46.1A50.81 50.81 0 0 1 25 52.6M11 49a53 53 0 0 1 5.38-5.5"/>
      <path class="cls-9" d="M21.19 35.29c-1.25 1.44-5.38 4.56-7.07 6.31M7.71 44.48a42.45 42.45 0 0 1-6 7.25A15.51 15.51 0 0 1 0 53M40.75 5.19c1.63-1.7 3-3.66 4.4-5.19M32.42 16.44c2.66-3.44 6.25-7.92 8.75-10.09A62.27 62.27 0 0 0 47.76 0M50.54 0A53.3 53.3 0 0 0 44 7.35c-1.58 2.34-2.92 5.75-3.83 6.84M50 2.14A9.8 9.8 0 0 1 52.78 0M2.43 0A13.25 13.25 0 0 1 .75 1.94M9.43 0a4.43 4.43 0 0 0-.54 1.14M18.5 0a74.53 74.53 0 0 1-6.33 7.52 28.36 28.36 0 0 0-3.5 4.75 64.2 64.2 0 0 1-5.42 7.25c-1 1.08-2.19 2.1-3.25 3.15M23 0c-.45.94-.75 1.69-.75 1.69a41.73 41.73 0 0 0-3.67 4.66 27 27 0 0 1-4.58 5.5c-2 1.84-6.25 5.5-7.25 6.42a24.92 24.92 0 0 0-4.58 5.33A19.93 19.93 0 0 1 0 26.42M5.67 8a63.5 63.5 0 0 1 4.5-5.33A22.75 22.75 0 0 0 12.3 0M7.92 15.69a108.82 108.82 0 0 0 8.75-10.17C18.5 3.06 19.49 1.26 20.51 0M17.25 16.85c1.75-2 6.92-9.16 8.5-11.5A61.12 61.12 0 0 1 29.28 0M17.58 24.6c1.17-1.33 3.17-4.5 5-7.25A143.35 143.35 0 0 1 32.67 5.44C34 4.13 36.13 2.25 38.25 0M35.58 9.6c1.85-2.21 4.61-7.16 6.66-9.6M15.42 0a215.04 215.04 0 0 1-3.92 4 91.74 91.74 0 0 0-6.25 7c-1.5 2-2.83 3.92-3.67 4.92M11.17 18.94a85.33 85.33 0 0 0 5.41-7.09c1.59-2.16 5.17-7.41 6.59-8.85 1.11-1.12 1.82-2 3-3M31.91 0c-2 2.53-5 6.49-6.24 7.77"/>
    </pattern>
    <pattern id="_656" data-name="656" width="54.13" height="54.13" patternTransform="matrix(4.77 0 0 4.77 -989.09 -892.09)" patternUnits="userSpaceOnUse">
      <path class="cls-4" d="M0 0h54.13v54.13H0z"/>
      <path class="cls-9" d="M1 4.23C2.21 4 4 2.9 7.12 3.31M17.71 3.31c3.58-.66 6 .92 7.5 1.09M37.21 4.06c1.17.25 5.17.34 7.33-.75M3 8.15a9.51 9.51 0 0 1-3 .77M38.21 14.06c1.25-.25 3-1.33 6.17-.91M23.38 43.23a8.86 8.86 0 0 0 6.83.25M41.54 43.9c1.5 0 2.58-.75 3.84-1.09a7.25 7.25 0 0 1 4.41.09M7 42.65a7.17 7.17 0 0 1 3.56.5c1.36.91 3.19.41 3.6.5M0 53.49a9 9 0 0 0 1-.34M20.62 52.56a7.32 7.32 0 0 0-4.41-.08c-1.25.33-2.33 1.08-3.83 1.08M38.62 53.48c-.41-.08-2.24.42-3.6-.5a7.28 7.28 0 0 0-3.56-.5M4.92 18.19a10.19 10.19 0 0 0-4.92.54M15.5 18.19c3.58-.67 6 .91 7.5 1.08M42.33 18.19c-2.16 1.08-6.16 1-7.33.75M9.17 33.23a10.44 10.44 0 0 0 7.41.17M27.33 33.9c1.5 0 2.59-.75 3.84-1.09a7.25 7.25 0 0 1 4.41.09M46.42 32.81a7.28 7.28 0 0 1 3.56.5c1.35.92 3.19.42 3.6.5M7.29 47.69c-3.17-.42-4.91.66-6.17.91M17.88 47.69c3.58-.67 6 .91 7.5 1.08M37.38 48.44c1.16.25 5.16.33 7.33-.75M19 8.19c-3.16-.42-4.92.66-6.16.91M29.62 8.19c3.59-.67 6 .91 7.5 1.08M.38 13.1c3.58-.66 6 .92 7.5 1.09M19.88 13.85c1.16.25 5.16.34 7.33-.75M15.79 23.6A8.82 8.82 0 0 1 9 23.35M35.38 23a7.27 7.27 0 0 0-4.38-.06c-1.25.33-2.34 1.08-3.84 1.08M53.38 23.94c-.42-.09-2.26.41-3.61-.5a7.17 7.17 0 0 0-3.56-.5M22.71 28.23a8.87 8.87 0 0 0 6.83.25M49.12 27.9a7.25 7.25 0 0 0-4.41-.09c-1.25.34-2.33 1.09-3.83 1.09M22 37.94c-3.17-.42-4.92.66-6.17.91M32.54 37.94c3.58-.67 6 .91 7.5 1.08M5.5 37.81a13.14 13.14 0 0 1-5.5.91M13.12 28.94c-.41-.09-2.24.41-3.6-.5a7.17 7.17 0 0 0-3.52-.5M49.75 8.9a16.48 16.48 0 0 0 4.37 0M48.33 52.9a9.35 9.35 0 0 0 5.79.59M52.88 19.1a10.14 10.14 0 0 0 1.24-.37M52.29 38.56a10.3 10.3 0 0 0 1.83.16"/>
      <path class="cls-11" d="M.46 1.88h0M2.46 1.56h0M4.28.94h0M6.2.81h0M8.15.94h0M10.09 1.38h0M11.94 1.75h0M13.96 1.88h0M16.02 1.56h0M17.84.94h0M19.76.81h0M21.71.94h0M23.65 1.38h0M25.38 1.75h0M27.39 1.82h0M29.45 1.5h0M31.26.88h0M33.19.76h0M35.14.88h0M37.08 1.32h0M38.98 1.69h0M40.96 1.82h0M43.01 1.5h0M44.83.88h0M46.76.76h0M48.71.88h0M50.65 1.32h0M52.38 1.69h0M.82 6.45h0M2.64 5.83h0M4.57 5.7h0M6.52 5.83h0M8.46 6.27h0M10.3 6.64h0M12.33 6.77h0M14.39 6.45h0M16.21 5.83h0M8.42 3.67h0M10.26 4.04h0M12.29 4.17h0M14.35 3.85h0M16.17 3.43h0M18.13 5.7h0M20.08 5.83h0M22.02 6.27h0M23.75 6.64h0M25.76 6.71h0M27.81 6.39h0M29.63 5.77h0M31.56 5.65h0M33.51 5.77h0M35.44 6.21h0M26.53 4.13h0M28.59 3.81h0M30.41 3.19h0M32.33 3.06h0M34.28 3.19h0M36.22 3.63h0M37.35 6.58h0M39.32 6.71h0M41.38 6.39h0M43.2 5.77h0M45.13 5.65h0M47.07 5.77h0M49.01 6.21h0M50.74 6.58h0M52.73 6.65h0M45.75 3.31h0M47.7 3.44h0M49.64 3.88h0M51.37 4.25h0M53.36 4.32h0M.48 10.83h0M2.4 10.7h0M4.35 10.83h0M6.29 11.27h0M8.13 11.64h0M10.16 11.77h0M4 8.23h0M5.95 8.35h0M7.89 8.8h0M9.73 9.17h0M11.76 9.29h0M12.22 11.45h0M14.04 10.83h0M15.96 10.7h0M17.91 10.83h0M19.85 11.27h0M21.58 11.64h0M23.59 11.71h0M25.65 11.39h0M27.46 10.77h0M20.47 8.56h0M22.2 8.93h0M24.21 9h0M26.27 8.68h0M28.17 8.31h0M29.39 10.65h0M31.34 10.77h0M33.28 11.21h0M35.18 11.58h0M37.16 11.71h0M39.21 11.39h0M41.03 10.77h0M42.96 10.65h0M44.91 10.77h0M46.84 11.21h0M38.65 9.22h0M40.7 8.9h0M42.52 8.29h0M44.45 8.16h0M46.4 8.29h0M48.33 8.73h0M48.58 11.58h0M50.57 11.65h0M52.62 11.33h0M.64 15.66h0M2.57 15.54h0M4.52 15.66h0M6.46 16.1h0M8.3 16.47h0M10.33 16.6h0M12.39 16.28h0M14.21 15.66h0M16.13 15.54h0M18.08 15.66h0M20.02 16.1h0M9.12 14.21h0M11.17 13.89h0M12.99 13.27h0M14.92 13.15h0M16.87 13.27h0M18.8 13.71h0M21.75 16.47h0M23.76 16.54h0M25.81 16.22h0M27.63 15.6h0M29.56 15.48h0M31.51 15.6h0M33.44 16.05h0M35.35 16.42h0M28.92 13.06h0M30.76 13.27h0M32.71 13.4h0M34.65 13.84h0M36.55 14.21h0M37.32 16.54h0M39.38 16.22h0M41.2 15.6h0M43.13 15.48h0M45.07 15.6h0M47.01 16.05h0M48.74 16.42h0M50.73 16.48h0M52.79 16.17h0M45.67 13.31h0M47.6 13.76h0M49.34 14.13h0M51.33 14.19h0M53.38 13.88h0M1.16 21.45h0M2.98 20.83h0M4.9 20.7h0M6.85 20.83h0M8.79 21.27h0M10.63 21.64h0M12.66 21.77h0M14.72 21.45h0M6.21 18.36h0M8.15 18.8h0M10 19.17h0M12.03 19.3h0M14.08 18.73h0M16.54 20.83h0M18.46 20.7h0M20.41 20.83h0M22.35 21.27h0M24.08 21.64h0M26.09 21.71h0M28.15 21.39h0M29.96 20.77h0M31.89 20.65h0M33.84 20.77h0M24 19.15h0M26.03 18.88h0M28.08 18.56h0M29.9 17.94h0M31.81 18.15h0M33.75 18.56h0M35.78 21.21h0M37.68 21.58h0M39.66 21.71h0M41.71 21.39h0M43.53 20.77h0M45.46 20.65h0M47.41 20.77h0M49.34 21.21h0M51.08 21.58h0M44.08 18.15h0M45.84 18.27h0M47.79 18.4h0M49.73 18.84h0M51.46 19.21h0M53.07 21.65h0M.99 26.11h0M2.81 25.49h0M4.74 25.37h0M6.68 25.49h0M1.22 23.69h0M3.21 22.95h0M5.19 22.77h0M7.25 22.9h0M8.62 25.94h0M10.47 26.31h0M12.5 26.43h0M14.55 26.11h0M16.37 25.49h0M18.3 25.37h0M20.25 25.49h0M22.18 25.94h0M14.29 28.74h0M16.1 28.12h0M18.03 27.99h0M19.98 28.12h0M21.5 28.06h0M23.92 26.31h0M25.92 26.38h0M17.58 23.15h0M19.51 23.02h0M21.46 23.15h0M23.4 23.59h0M25.13 23.96h0M27.98 26.06h0M29.8 25.44h0M31.72 25.31h0M33.67 25.44h0M35.61 25.88h0M37.51 26.25h0M39.49 26.38h0M41.55 26.06h0M43.37 25.44h0M45.29 25.31h0M36.65 23.39h0M38.55 23.76h0M40.53 23.88h0M42.58 23.56h0M44.4 22.94h0M47.24 25.44h0M49.18 25.88h0M51.42 26.25h0M53.18 26.32h0M.47 31.43h0M2.32 31.11h0M4.14 30.49h0M.83 29h0M2.68 28.68h0M4.5 28.06h0M6.07 30.37h0M8.02 30.49h0M1.67 33.68h0M3.54 33.06h0M5.47 32.94h0M7.42 33.06h0M9.96 30.94h0M11.8 31.31h0M13.83 31.43h0M15.89 31.11h0M17.71 30.49h0M19.63 30.37h0M21.58 30.49h0M23.52 30.94h0M25.25 31.31h0M27.26 31.38h0M29.31 31.06h0M31.13 30.44h0M33.06 30.31h0M35.01 30.44h0M36.94 30.88h0M38.85 31.25h0M31.25 28.15h0M33.18 28.02h0M35.13 28.15h0M37.06 28.59h0M38.96 28.96h0M40.82 31.38h0M42.88 31.06h0M44.7 30.44h0M46.63 30.31h0M48.75 30.52h0M50.68 30.9h0M52.61 31.27h0M51.15 28.51h0M52.88 28.88h0M1.32 36.43h0M3.32 36.11h0M5.14 35.49h0M7.07 35.37h0M9.02 35.49h0M10.96 35.94h0M12.8 36.31h0M14.83 36.43h0M16.89 36.11h0M18.71 35.49h0M20.63 35.37h0M22.58 35.49h0M24.52 35.94h0M26.25 36.31h0M18.57 33.03h0M20.49 32.9h0M22.44 33.03h0M24.38 33.47h0M26.11 33.84h0M28.26 36.38h0M30.31 36.06h0M32.13 35.44h0M34.06 35.31h0M36.01 35.44h0M37.94 35.88h0M39.85 36.25h0M41.82 36.38h0M43.88 36.06h0M45.7 35.44h0M37.16 33.26h0M39.06 33.63h0M41.04 33.75h0M43.1 33.43h0M45.08 33.06h0M47.63 35.31h0M49.57 35.44h0M51.51 35.88h0M53.24 36.25h0M1.16 41.27h0M3.16 40.95h0M4.98 40.33h0M6.9 40.2h0M8.85 40.33h0M10.79 40.77h0M12.63 41.14h0M6.67 37.81h0M8.59 37.69h0M10.54 37.81h0M12.48 38.26h0M14.25 38.81h0M14.66 41.27h0M16.72 40.95h0M18.54 40.33h0M20.46 40.2h0M22.41 40.33h0M24.35 40.77h0M26.08 41.14h0M28.09 41.21h0M30.15 40.89h0M31.96 40.27h0M23.47 38.31h0M25.2 38.68h0M27.21 38.75h0M29.27 38.43h0M31.25 38.15h0M33.89 40.15h0M35.84 40.27h0M37.78 40.71h0M39.68 41.08h0M41.66 41.21h0M43.71 40.89h0M45.53 40.27h0M47.46 40.15h0M49.41 40.27h0M51.34 40.71h0M41.48 38.72h0M43.54 38.4h0M45.35 37.79h0M47.28 37.66h0M49.23 37.79h0M51.17 38.23h0M53.08 41.08h0M1.88 45.99h0M3.69 45.37h0M5.62 45.24h0M1.17 43.72h0M2.99 43.1h0M4.92 42.98h0M7.57 45.37h0M9.51 45.81h0M11.35 46.18h0M13.38 46.31h0M15.44 45.99h0M8.65 48.14h0M10.5 48.51h0M12.53 48.63h0M14.58 48.31h0M16.25 47.98h0M17.26 45.37h0M19.18 45.24h0M21.13 45.37h0M23.07 45.81h0M15.64 43.6h0M17.46 42.98h0M19.38 42.85h0M21.33 42.98h0M24.8 46.18h0M26.81 46.25h0M28.86 45.93h0M30.68 45.31h0M32.61 45.19h0M34.56 45.31h0M36.49 45.76h0M26.65 48.72h0M28.7 48.4h0M30.52 47.79h0M32.45 47.66h0M34.4 47.79h0M36.33 48.23h0M38.4 46.13h0M32 42.98h0M33.93 42.85h0M35.88 42.98h0M37.81 43.42h0M39.71 43.79h0M40.38 46.25h0M42.43 45.93h0M44.25 45.31h0M46.18 45.19h0M48.13 45.31h0M50.1 45.65h0M52.04 46.02h0M53.78 46.19h0M46.13 47.63h0M48.08 47.75h0M50.23 48.15h0M52.04 48.46h0M53.74 48.63h0M51.33 43.31h0M53.32 43.38h0M.6 50.88h0M2.42 50.26h0M4.35 50.13h0M6.3 50.26h0M8.24 50.7h0M10.08 51.07h0M2.92 52.67h0M4.85 52.54h0M6.8 52.67h0M8.74 53.11h0M10.58 53.48h0M12.11 51.2h0M14.17 50.88h0M15.99 50.26h0M17.91 50.13h0M19.86 50.26h0M21.8 50.7h0M23.53 51.07h0M25.54 51.14h0M27.59 50.82h0M29.41 50.2h0M22.3 53.31h0M24.04 53.68h0M26.04 53.75h0M28.1 53.43h0M29.92 52.81h0M31.34 50.08h0M33.29 50.2h0M35.22 50.65h0M37.13 51.02h0M39.1 51.14h0M41.16 50.82h0M42.98 50.2h0M44.91 50.08h0M46.85 50.2h0M40.72 53.18h0M42.54 52.56h0M44.47 52.44h0M46.42 52.56h0M48.79 50.65h0M50.52 51.02h0M52.51 51.08h0"/>
    </pattern>
    <style>
      .cls-11,.cls-15,.cls-4,.cls-5,.cls-6,.cls-9{fill:none}.cls-11,.cls-5,.cls-6,.cls-9{stroke:#000}.cls-5,.cls-6{stroke-width:.43px}.cls-6{fill-rule:evenodd}.cls-7{filter:url(#luminosity-invert)}.cls-9{stroke-width:.3px}.cls-11{stroke-linecap:round;stroke-width:.7px}.cls-15{stroke:#171616;stroke-miterlimit:10}.cls-14{fill:#171616}.cls-15{stroke-width:10px}
    </style>
  </defs>
  <g mask="url(#mask)">
    <g mask="url(#mask-2)">
      <g id="Curvy_Rays" data-name="Curvy Rays">
        <g mask="url(#mask-3)">
          <g mask="url(#mask-4)" id="Background">
            <path id="Background_Fill" data-name="Background Fill" class="cls-14" d="M11.46-35.24H1059.7v1090.59H11.46z"/>
          </g>
        </g>
        <g id="Outlines">
          <use width="72.38" height="141.99" transform="rotate(161.48 298.31 542.52) scale(2.22)" xlink:href="#Curvy_Sun_Ray"/>
          <use width="72.38" height="141.99" transform="rotate(-17.5 305.69 -894.1) scale(2.22)" xlink:href="#Curvy_Sun_Ray"/>
          <use width="72.38" height="141.99" transform="matrix(-.99 1.99 -1.99 -.99 1006.58 662.56)" xlink:href="#Curvy_Sun_Ray"/>
          <use width="72.38" height="141.99" transform="rotate(-62.5 303.54 151.18) scale(2.22)" xlink:href="#Curvy_Sun_Ray"/>
          <use width="72.38" height="141.99" transform="rotate(71 293.6 809.81) scale(2.2)" xlink:href="#Curvy_Sun_Ray"/>
          <use width="72.38" height="141.99" transform="rotate(-107.5 302.94 348.63) scale(2.22)" xlink:href="#Curvy_Sun_Ray"/>
          <use width="72.38" height="141.99" transform="matrix(1.99 .99 -.99 1.99 673.56 18.81)" xlink:href="#Curvy_Sun_Ray"/>
          <use width="72.38" height="141.99" transform="rotate(-152.5 302.68 453.81) scale(2.22)" xlink:href="#Curvy_Sun_Ray"/>
        </g>
      </g>
    </g>
    <g id="Straight_Rays" data-name="Straight Rays">
      <g mask="url(#mask-5)">
        <g mask="url(#mask-6)" id="Background-2" data-name="Background">
          <path id="Background_Fill-2" data-name="Background Fill" class="cls-14" d="M-7.6 19.82h1049.29v997.41H-7.6z"/>
        </g>
      </g>
      <g id="Outlines-2" data-name="Outlines">
        <use width="72.52" height="150.62" transform="rotate(135 295.57 600.86) scale(2.22)" xlink:href="#Straight_Sun_Ray"/>
        <use width="72.52" height="150.62" transform="rotate(-45 292.1 -24.67) scale(2.22)" xlink:href="#Straight_Sun_Ray"/>
        <use width="72.52" height="150.62" transform="matrix(2.22 0 0 2.22 442.32 -2.46)" xlink:href="#Straight_Sun_Ray"/>
        <use width="72.52" height="150.62" transform="rotate(180 295.06 509.25) scale(2.22)" xlink:href="#Straight_Sun_Ray"/>
        <use width="72.52" height="150.62" transform="rotate(45 298.03 1043.18) scale(2.22)" xlink:href="#Straight_Sun_Ray"/>
        <use width="72.52" height="150.62" transform="rotate(-135 294.56 417.65) scale(2.22)" xlink:href="#Straight_Sun_Ray"/>
        <use width="72.52" height="150.62" transform="rotate(90 296.3 730.42) scale(2.22)" xlink:href="#Straight_Sun_Ray"/>
        <use width="72.52" height="150.62" transform="matrix(0 -2.22 2.22 0 5.75 581.93)" xlink:href="#Straight_Sun_Ray"/>
      </g>
    </g>
  </g>
  <circle id="Outer_Ring-2" data-name="Outer Ring" class="cls-15" cx="518.17" cy="508.02" r="226.77"/>
  <path class="cls-4" d="M27.35 24.05h981.53v981.53H27.35z"/>
  <circle id="Inner_Ring" data-name="Inner Ring" class="cls-15" cx="518.17" cy="508.02" r="206.18" transform="rotate(-45 518.17 508.03)"/>
  <g mask="url(#mask-7)">
    <path id="Inner_Ring_Fill-2" data-name="Inner Ring Fill" d="M446.64 314.6c73.71 39.65 119 117.31 116.47 200-2.35 78.14-46.94 149.49-116.47 186.81 10.11 3.86 98.38 35.82 182.47-16.69C723.24 626 724.4 516.13 724.35 508s-2.69-114.84-95.24-173.81c-83.84-53.4-171.99-23.36-182.47-19.59z" stroke-width="10" fill="#171616" stroke-miterlimit="10" stroke="#171616"/>
  </g>
</svg>
