<svg xmlns="http://www.w3.org/2000/svg" width="400" height="400">
  <g data-name="Squirrel Icon">
    <path data-name="Squirrel Filled" d="M362.49 259.31s-6.69 1-11.42-3.64a.16.16 0 0 0-.27.17 11.58 11.58 0 0 1-.54 9.19c-4.14 8.75-15 12-23.5 7.35l-9.78-5a.17.17 0 0 0-.18 0c-.54.42-3.6 2.74-8.25 5.68-12.86 7.61-25.78 13.93-40.91 15.61a.17.17 0 0 0-.14.21c5.72 23.73-11.67 41.29-14.19 43.69a.17.17 0 0 0 .12.29c25.93.66 26 16.27 25.89 18a.17.17 0 0 1-.17.16H129.33a.17.17 0 0 1-.17-.18l1-9a.17.17 0 0 0-.22-.18c-21.61 6.11-48.21.26-63.21-14.94-32-39.47-11.74-82.53-1.93-122.17 7.12-29 13.73-64.17 5.94-80.17-10.68-21.93-34.77-25-53.82-4.06a.16.16 0 0 1-.29-.12c10.94-126 178.17-66 155.65 32.86a.15.15 0 0 0 .16.2c9.79-.18 22.5 1.72 37.15 7.19 0 0 35.93 11.87 50.43-6.9.29-.8 7.68-21.4 19.18-26.24a.17.17 0 0 0 .1-.2c-.6-2.16-7.15-28.54 23.25-51.62a.17.17 0 0 1 .27.18c-.88 3.36-5.38 23.63 10.32 35.19.75.39 38.13 19.88 41.31 24.8s26.8 35.53 29 76.8a.15.15 0 0 1-.08.16c-9.86 6.32-19.64 11.59-31.77 13.65a.16.16 0 0 0-.09.28c2.81 2.59 27.83 26.09 11.1 32.68zM244.31 350.6" stroke="#fff" stroke-miterlimit="7.57" stroke-width="10"/>
  </g>
</svg>
