<svg xmlns="http://www.w3.org/2000/svg" xmlns:xlink="http://www.w3.org/1999/xlink" width="800" height="800">
  <defs>
    <clipPath id="a">
      <circle class="a" cx="400" cy="400" r="400"/>
    </clipPath>
    <clipPath id="b">
      <path class="a" d="M0 1200h1500v500H0z"/>
    </clipPath>
    <clipPath id="c">
      <circle class="a" cx="2300" cy="1600" r="400"/>
    </clipPath>
    <symbol id="d" data-name="Squirrel Background Thick" viewBox="0 0 1140.83 949.65">
      <path d="M1050.63 650.09c-.46 1-20.27 3-34.28-11.29a.32.32 0 0 0-.53.34c3.36 9.57 3.22 18.22-1.35 27.86-12.24 25.85-44.31 35.37-69.45 21.73L916 674a.32.32 0 0 0-.34 0c-1.28 1-10.43 8-24.47 16.85-38.05 22.51-76.29 41.21-121.08 46.16a.31.31 0 0 0-.27.39c17.31 71.33-36 123.83-42.21 129.6a.32.32 0 0 0 .22.55c78 1.82 77.17 49.22 76.94 53.43a.32.32 0 0 1-.32.29H361.38a.31.31 0 0 1-.31-.35l2.9-27a.32.32 0 0 0-.4-.34c-63.93 18.17-142.69.9-187.07-44.1-94.57-116.65-34.72-243.92-5.71-361.07 21-85.69 40.57-189.62 17.54-236.91-31.63-65-103-73.84-159.39-11.58a.32.32 0 0 1-.56-.25c31.93-373.22 526.84-195.59 460 96.82a.31.31 0 0 0 .31.39c29-.59 66.59 5 110 21.22 0 0 106.2 35.1 149-20.4a.41.41 0 0 0 .05-.09c.68-1.93 22.62-63.38 56.82-77.62a.3.3 0 0 0 .18-.37c-1.45-5.14-22-84.12 69.1-153a.32.32 0 0 1 .51.33c-2.21 8.19-16.9 69.69 30.37 104.51 1.77.92 112.66 58.73 122.1 73.31s79.23 105.05 85.65 227.07a.33.33 0 0 1-.15.29C1083.07 531 1054 546.61 1018 552.66a.32.32 0 0 0-.17.54c6.81 6.22 82.84 77.18 32.8 96.89zM701.39 919.87" stroke-miterlimit="7.57" fill="#161515" stroke="#161515" stroke-width="56.69"/>
    </symbol>
    <style>
      .a{fill:none}
    </style>
  </defs>
  <g clip-path="url(#a)">
    <path class="a" d="M0 0h800v800H0z"/>
    <use width="1140.83" height="949.65" transform="matrix(.66 0 0 .66 41.15 126.94)" xlink:href="#d"/>
    <path d="M731.61 554.17s-13 1.94-22.19-7.07a.32.32 0 0 0-.53.33 22.42 22.42 0 0 1-1 17.85c-8 17-29.12 23.24-45.64 14.28l-19-9.64a.32.32 0 0 0-.35 0c-1 .8-7 5.32-16 11-25 14.78-50.06 27-79.44 30.33a.33.33 0 0 0-.28.4c11.11 46.08-22.66 80.19-27.56 84.84a.33.33 0 0 0 .23.56c50.37 1.29 50.43 31.6 50.28 35a.32.32 0 0 1-.33.31h-291a.33.33 0 0 1-.33-.36l1.88-17.41a.33.33 0 0 0-.41-.35c-42 11.87-93.64.51-122.77-29C95 608.57 134.31 524.93 153.37 448c13.82-56.37 26.63-124.67 11.53-155.74-20.75-42.6-67.52-48.51-104.52-7.88a.33.33 0 0 1-.57-.25C81.07 39.38 405.83 156 362.09 348a.32.32 0 0 0 .32.4c19-.36 43.69 3.33 72.15 13.95 0 0 69.77 23.06 97.93-13.39a.41.41 0 0 0 0-.09c.55-1.55 14.91-41.56 37.24-51a.31.31 0 0 0 .19-.38c-1.16-4.19-13.88-55.43 45.16-100.25a.33.33 0 0 1 .53.34c-1.71 6.54-10.45 45.89 20 68.35 1.46.76 74 38.61 80.23 48.17s52 69 56.28 149.16a.33.33 0 0 1-.15.3C753 475.86 734 486.1 710.4 490.1a.31.31 0 0 0-.17.55c5.45 5 54 50.66 21.54 63.45zM502.09 731.46" stroke="#d9b776" stroke-width="9.13" stroke-miterlimit="7.57" fill="none"/>
  </g>
</svg>
