<svg xmlns="http://www.w3.org/2000/svg" xmlns:xlink="http://www.w3.org/1999/xlink" width="512" height="512" viewBox="0 0 512 512">
  <defs>
    <style>
      .cls-1, .cls-10, .cls-2 {
        fill: none;
      }

      .cls-10, .cls-2 {
        stroke: #d9b776;
      }

      .cls-2 {
        stroke-miterlimit: 11.34;
        stroke-width: 1.7px;
      }

      .cls-3 {
        clip-path: url(#clip-path);
      }

      .cls-4 {
        clip-path: url(#clip-path-2);
      }

      .cls-5 {
        clip-path: url(#clip-path-3);
      }

      .cls-6 {
        clip-path: url(#clip-path-4);
      }

      .cls-7 {
        clip-path: url(#clip-path-5);
      }

      .cls-8 {
        fill: #161515;
      }

      .cls-9 {
        opacity: 0.7;
        fill: url(#New_Pattern_Swatch_22);
      }

      .cls-10 {
        stroke-miterlimit: 10;
        stroke-width: 19.19px;
      }

      .cls-11 {
        fill: #d9b776;
      }
    </style>
    <clipPath id="clip-path">
      <circle class="cls-1" cx="400" cy="-2382" r="400"/>
    </clipPath>
    <clipPath id="clip-path-2">
      <rect id="Clipping_Mask" data-name="Clipping Mask" class="cls-1" y="-3332" width="1500" height="500"/>
    </clipPath>
    <clipPath id="clip-path-3">
      <circle class="cls-1" cx="400" cy="-4286" r="400"/>
    </clipPath>
    <clipPath id="clip-path-4">
      <rect id="Clipping_Mask-2" data-name="Clipping Mask" class="cls-1" y="-242" width="4000" height="192"/>
    </clipPath>
    <clipPath id="clip-path-5">
      <path class="cls-1" d="M4101.88,1018.52H-213.33v-1536H4101.88Z"/>
    </clipPath>
    <pattern id="New_Pattern_Swatch_22" data-name="New Pattern Swatch 22" width="184.94" height="184.93" patternTransform="matrix(0.92, -0.58, 1.11, 0.48, 109.64, 184.71)" patternUnits="userSpaceOnUse" viewBox="0 0 184.94 184.93">
      <rect class="cls-1" width="184.94" height="184.93"/>
      <path class="cls-2" d="M127.32,173c7.46.12,19.94,1,24,1.34,5.1.43,14-.42,21.26-.85M122.85,173c1-.09,2.59-.1,4.47-.07M134.46,7.4c3.84-.22,8.86-.33,14.12-.38m-24,1.69c1.47-.2,2.77-.41,3.81-.66a42.21,42.21,0,0,1,6.08-.65m-9.89,1.31c-8.74,1.15-23.53,1.47-26.8,1.47M148.58,7c5.43,0,11.12,0,16,0m5.67,0,5.53.08M164.59,7c2.06,0,4,0,5.67.06m14.67.16c-3,0-5.44,0-7.18,0l-2,0m-29.51,19c2.56-.05,5.58-.07,8.84,0m-8.84,0c-2.84.06-5.1.14-6.42.14m20.07.05c7.42.37,14,.74,15.11.8m-19.92-1c1.27,0,2.56.08,3.87.14l.94.05m15.11.8h.16c3,.08,6.26.21,9.73.35m-14.3,20.33c-3-.06-7-.06-11.21.16-8.08.42-20.41-.43-25.09,0m50.6-.49c-3.65.14-7,.31-9.74.49,0,0-1.79-.1-4.56-.16m14.3,15.19c-3.27-.07-7.3-.32-10.59-.57,0,0-24.7.85-37.88.42-4.42-.14-9.6-.29-14.73-.38m-23.54.38c3.39-.57,13.37-.57,23.54-.38M66.6,84.85c3-.42,17.33-.47,26.69-1.32s30.41.63,45.29,1c2,.06,4,.16,6.18.29m0,0,2.55.17m0,0c9.65.7,19.84,1.92,24.81,2.54m11.2.59c-2.07,0-4,0-5.53,0m-5.67-.55,2.26.3m3.41.25c-1,0-1.9-.07-2.59-.14l-.81-.11m10.54.27-1.61,0M113.07,99.89c3-.42,12.76-.42,17.43-.85s17.44.43,24.67.85,21.73.85,21.73.85a77.21,77.21,0,0,1,8,0m0,35.38c-3,0-5.44-.06-7.18-.06,0,0-15.35,0-25.13.86s-25.09,1.7-34.44,2.12-14.89-.42-17.44,0m75.48,17,5.52.18m0,0,3.19.14m-12.12-.55a84.23,84.23,0,0,0-11.27-.23c-4.67.43-20.83-1.27-23-.85m37.63,1.31-1,0s-.95-.09-2.39-.2m.83,17.21c3.17-.21,7-.39,11.29-.55m-30.19-52.6H162c3,0,12.38-1.28,12.38-1.28a105.41,105.41,0,0,1,10.58.23m-115-110L63,8.68M21.65,7.61c14.64.27,29.94.63,35.3.87,1.82.07,3.87.14,6,.2m15.86.42A85.61,85.61,0,0,1,88,9.75m-18.07-.9c3.09.07,6.16.15,8.93.25M12.3,7.43l9.35.17M0,7.26c3,0,6.46.08,10.21.14m2.12,0-2.13,0M126.68,25.48c-5.15,0-10.31.74-16.5-.19M20.55,28.36c-6.91-.21-14.07-.55-20.58-.83m103.41-2.88a33.27,33.27,0,0,1,5.44.41l1.36.23M20.55,28.36c10.53.31,20.47.31,26.62-.75,12.33-2.13,17-2.55,27.21-2.13,8.09.34,20.72-.93,29-.83M0,47.53c22-.87,56.55-1,64.2.06.68.1,1.39.19,2.14.27m48.89-.27c-2.55-.42-16.16-.42-20.84.43-4.32.79-18.82.84-28-.16m-36,14.86c-1.81.23-4,.46-6.74.61-8.08.42-15.95-.85-18.5-.43a33.07,33.07,0,0,1-5.1.15m84.19-.15c-17.86.85-31.89,1.27-41.25-.42-5.32-1-7.77-.37-12.6.24M50.44,87.3a115.13,115.13,0,0,1-13.68,1.13m-18.7-.34,2.26.09M15.58,88l2.48.08m34.06-1-1.68.26M36.76,88.43c-3,.08-6,.06-8.71,0m0,0c-2.78-.06-5.38-.16-7.73-.25M0,88.15C4.4,88.1,9.39,88,13.58,88l2,0M97.77,99.89c-9.54,0-27.34-.78-39.89-.89m0,0A89.6,89.6,0,0,0,45,99.47c-6.8,1.27-11.48,1.7-25.51,1.7-2.26,0-4.38,0-6.37-.06m-3-.07c-3.95-.1-7.31-.23-10.15-.33m13.19.4-3-.07M.84,136.1l4.11.06m58.81,1.37c9.25.24,20.19.38,24.23,1.05M7.28,136.19l-2.33,0m58.81,1.37-3.61-.1M7.28,136.19c17.36.26,42.48.81,49.67,1.12l3.2.12M44.62,156.8q1.37-.15,2.55-.36c9.25-1.59,14.2-2.23,20.41-2.27m-23,2.63C33.83,158,15.14,157,0,156.37m67.61-2.2c2.06,0,4.26,0,6.8.15,10.2.42,27.64-1.7,34.44-.43s12.33.43,17.86.43m-24.87,18.06c1.5,0,3-.06,4.46-.06m-4.46.06a68.58,68.58,0,0,0-9,.65c-4.68.85-21.26.85-30.19-.43-7.48-1.07-40.59-.94-62.65-.13m106.3-.15a68.71,68.71,0,0,1,7.37.28m-40.1-54.36,2.34,0m67.61-.21c-3.1-.58-5-.64-14.26.55-13.18,1.7-31,1.7-39.12.43a61.92,61.92,0,0,0-6.29-.53m-63.27,1.72c1.19,0,2.28.08,3.23.08A156.85,156.85,0,0,0,44.62,119c4.2-.53,17.47-.89,28.92-.79m75.25.79c-2.43-.39-4-.73-5.3-1M20.55,120.22C14.92,120,7,119.25,0,118.84m75.91-.58c1.7,0,3.35.07,4.89.12m0,0c1.07,0,2.09.07,3,.12m-76,66.43v-10.8m-4.68,10.8V174.35m7,10.58v-10.8m2.13,10.8v-11m2.77,11v-11m59.31,11V175.2m2.34,9.73v-9.31m2.13,9.31v-9.52m2.76,9.52v-9.52m-60,9.52v-11m5.18,11V173.71m6.94,11.22V173.71m87.6,11.22V175m8,10V174.77m2.84,10.16V174.28M117,184.93V174.77m-6.45,10.16V174.35M146,184.93V174.85m-6.18,10.08V174.64m-2.93,10.29v-10.5m-2.45,10.5V173.79m17.94,11.14v-9.65m5,9.65v-9.65m-8.86,9.65v-9.86m-78.66,9.86V175.2m30.4,9.73V174.35m2.33,10.58v-10.8m2.13,10.8v-10.8m2.77,10.8V174.35M56,139.21v14.9m1.87-14.47v14.68m2.42,0V139.21m-9.73.21v14.69m17-14.26v14.32m0,.15v-.15m-5.11-.63V139.07m24.45,45.86v-9.52m8.93,9.52V174.56m74.41,10.37v-9.52m5.53,9.52V175M5.29,156.44V138.83m5.17,17.4v-17.4M21.6,156V136.91m-1.87,17.62V137.76M17.4,156.23v-17.4m27.22,18v-.07m.8,0V137.72m-5.27,18.93V137.93m-6.23,17.94V139.11M26.48,155V138.26m-2.63,17.19V138.68m149.61-.84v17.41m2-17.94v17.52m-3.56-17v17.41m9.92-18v16.77m-2.19-15.92V154.9m-1.92-16.49v16.77M42.91,156.87V137.51m124,47.42v-9.1m-71-23V141.26m8,11.36V139.35M91.53,152.62V140.84m-6.45,11.35V141.47m35.43,12.21v-13m-2.26,12.76V140.78m-4.89,12.47V140.92m-3,12.12V140.71M108,152.62V140.28m18.92,13.83V138.75m5,15.36V138.82m-8.85,15.07V141.34M74.8,152.19V139m2.34,13V139.21M79.27,152V139.42M82,152.19V139M70.34,152.4V139.21m74.41-.67v14.71m5.53-14.63v14.21m-8.93-14.43v15.28m-2.27-15.2v15.41m21-15.35v14.71m5.52-14.63v14.21m-8.93-14.43v15.28m-2.26-15.2v15.41m10.2,31v-8.88M7.84,0V7.24M3.16,0V7.24m7,.16V0m0,7.43v0m2.13,0v.22M12.3,0V7.44M15.07,0V7.24M74.38,0V8.73M76.72,0v9m2.13.21V9.1m0-9.13V9.1M81.61,0V8.73m-60-1.07V7.6m0-7.63V7.6M26.83,0V7.66M41.21,0V7.66M54.53,0V7.88M46.32,0V8.09M52,0V7.88M33.77,0V7.66M61,0V8.51M121.37,0V8.73m8-8.76V6.81M132.21,0V6.32M117,0V8.3M110.59,0v9M146,0V6.39M139.84,0V6.46M136.91,0V6.6m-2.45,1.06V7.4m0-7.43V7.4M152.4,0V6.39m5-6.42V6.46M148.58,7h0m0-7V7M69.92,0V8.85m0,.09V8.85M100.32,0V9.58M102.65,0V9.79M104.78,0V10m2.77-10V9.58M86.92,0V9.36M95.85,0V9.79M170.26,0V7.08m0,0v.09m5.53,0v.07m0-7.27V7.16M57.71,0V7m-16.5,177.9V173.75m13.32,11.18V173.11m-8.21,11.82v-11.4M52,184.93V173.32m9,11.61V174.39m-3.28,10.54V172.47M166.86,0V7M164.59,0V7m0,.07V7M6.57,63.88V86.8m-4.67,0V64.09m7-.21V87M11,63.66V87.23M13.8,63.67V86.8m59.32-3.41V65.92m2.34,17.69V66.35m2.12,17.47V66.14m2.77,17.25V66.14m-58-2.47V86.25m5.18-22.8v22.8M41.91,64.43V86.25m11.78-22V85.91M47,64.22V86.67M50.72,64V85.48m-16.25-23V86.25M59.72,65.07V85.14m60.38-3.7V65.71m8-.21v17M130.94,65V82M115.78,81V65.5m-6.45,16.15V65.07M144.76,85v-.1m0,0V65.58m-5.33.64V83m-2.35-17.59V82.17M135,66V83.1M133.2,64.52V83.31M151.14,66V85m5-19V85m-8.86,0V65.79m0,19.82V85M68.65,83.6V65.92m30.4,16.36V65.07m2.34,17.43V64.86m2.13,17.85V64.86m2.76,17.42V65.07M54.75,28V45.81M57.26,28.4V46M59,28V46M49.31,30.15V44.83m17,3V48m0-20.34V47.86m-5.1-20v17.4M85.66,82.07V66.14M94.59,82.5V65.28M169,64.18V85.75m5.53-22v24M56.24,64.86V85.35M4,29.55V47.17M9.2,29.55V47m9.49-17.4V47m1.86-19.32v.73m0,18.38V28.36m-4.41,1.19V47m28-16.55V46.61m-5.27-16V46.4M32.65,29.83V46.6M26.06,29V45.75M23.87,29.83V46.6M175,47.72V27.18m0-.52v.52m-2.3,20.11V28.57m-2.11,19.36v-.07m0-19.29V47.86M180.55,28V46.73m-2.2.85V28.85M41.65,30.19V46.61m124,18v21m-71-58.52V47.47m8-21.32V46.28M90.27,26.66v20.6m-6.45-20V46.83m35.43-20.3V47.34M117,47.13V26.61m-2.48.06V47.13m-5.45-20.6V46.7m-2.34-.42V27.09m18.92,19.7V27.51m5,19.28V27.59m-8.86,20V27.17m-48.26-.38v20M75.88,27V46.62M78,27.21V46.62m2.76-19.83v20M69.08,27V46.07m74.41.85V27.31M149,46.49V27.39m-8.92,20V27.17m-2.27.07V47.55m21-.63V27.31m5.53.08v19.1m-8.93.85V27.17m-2.26,20.38V27.24M54.75,117.48V100.64m1.66,16.63V100.64M59,117.7V100.64m-9.73,17.83V100.85m17,16.85V101.27m-5.1,15.65V100.49M4,118.85V102.21m5.18,0v16.42m11.35,1.75v-.16m0-18v18m-2.29-1.59V102.84m-2.12,15.79V102.21m28,16.08V102.08m-5.27,16V102.29m-6.24,16V101.51m-6.59,17.88V101.64m-2.19,18.6V102.49M175,118.42V101.27m-2.51,15.67V102.12m-1.9,16.51V103.18m9.92-.56v14.81m-2.2.85V103.47M41.65,118.29V101.86m52.94,17.29V101.7m8,16.26V100.77M90.27,118.94V101.28m-6.45-.34V118.5m0,0h0m35.43-17.35V119M117,101.22v17.59m-4.89-.21V101.36m-3,17V101.15M106.71,118V101.7m18.92.43v14.38m5-14.31v14.31m-8.86-14.72v17.44m-48.26-.72v-.27m0-17.82v17.82m2.34,0V100.64m0,17.66v0M78,100.85V118.3m2.76.21v-.13m0,0v-18M69.08,117.74v-17.1m74.41,17.41V101.93m0,16.66v-.54m5.52.12V102m-8.92-.21v15.27m-2.27-15.2v15.41m21,2.31V101.93m5.53,17.22V102m-8.93,17V101.79m-2.26,17.44V101.86m10.2-37V85.68m19.91-21.5V85.75m-3.4-21.15v21m-2.27-20.79V85.68M18.52,64.3V86.88m68,85.57V154.62m2.27,17.9V154.47M91,172.66V155m2.77,17.62v-18M82,172.45V154.83m17,16.85V155.25M37.55,170.87V158.14m4.37,12.52V158.14m14.39,12.52V156.19M65,172.4V154.28M61.41,172.4V155.63M26.48,171.29V158.78m8.71,12.3V157.85m-3.61,13.23V159.21m17.29,11.45V156.19m27.21,17.06V155.08m-4.46,18V155.29m2.76,18V154.87m52.94,18.26V173m0-17.28V173m8,0V156.71M123,155.26v17.66m-6.45-.43V155.9m34.37,17.31V156.32m-1.73,16.47V156.25m-2.41,16.32V156.32m-2.07,17V156.11m-5.27,16.81V155.68m18.92,17.74V156.11m5,17.32V156.18m-9.84,17V156.75M2.1,171V157.76m16.65,13.35v-13M16.48,170.9V158.21M14,170.9V158.28m-2.41,13.39V159.33m-3,12.13V159.12M6.21,171V158.69M21.3,171.33V158.78m85-4.38v17.92m0,.17v-.17m2.34,0V155.6m2.13,16.68V155.81m2.76,16.68V155.38M101.81,172.7v-.32m0-17.76v17.76m74.4-16.33v-.14m0,16.67V156.05m5.53-.07v.25m0,15.92V156.23M172.81,173V155.82m0,0v0m-2.26,17.44V155.84M85.23,62.19V49.25m2.4,13V49.33M89.7,62.4V49.68M92.47,62.4V49.25m-11.7.22V62.19m17-.76V48.91M36.29,61.59V47.89m4.37,13.49V48.87M55.05,63.34V47.89m8.71,15.23V47.93m-3.61,15.2V49.3M25.21,47.55V63m8.72-1.19V47.59M30.31,48V62.72m0,.06v-.06m17.3-1.34V46.91m27.21,2.81V63M70.35,49.93V62.78m2.77-13.27V63m52.93-2.08V48.37m8,12.33V49.39M121.73,62.66v-.14m0-14.58V62.52m-6.45-.28V49.56m35,11.44V49.29m-2.35,11.28V48.93m-2.41,11.43V49m-2.07,12.12V48.79m-5.28,11.92V48.37m18.92,12.84V48.79m5,12.42V48.86M152.29,61V49.43M17.49,47.88V62.82M15.22,48V62.6M12.74,48V62.6M10.33,49.07V60.43m-3-12.55v14.3M5,47.46V61.75M20,48.52V63m85-.8V48.06m2.34,14V49.25M109.47,62V49.47m2.77,12.76V49m-11.7,13.41V48.28M175,60.36V48.59m5.53,14.29V48.66m-8.93,12.13V48.45M169.28,61V48.52m-81.21-24V10.58m2.4,14V10.65M92.53,24.7V11m2.77-.42V24.7m-11.69-.21V10.79m17,.42V23.72M39.13,26.83V8.23M43.5,26.62V8.23M57.88,25.64V9.21M66.6,24.45V10.23M63,8.68v0m0,16.77V8.68M28.05,27.25V8.87M36.76,27V7.94M33.15,27V9.3M50.44,26.62V9.21M77.65,25.29V11m-4.46,14V11.25m2.76,14V10.83m52.94,14.34V8.71m8,0V25.94M124.57,8.28v.43m0,16.25V8.71m-6.45,3.15V25.51M152.7,7.94V25.81M150.76,8.3V25.81M148.35,8.37V25.6M146.28,8.15v18m0,0v.17M141,7.73V25.94M159.93,8.15V26.38m0,.07v-.07m5-18.16V26.45m-9.84-.26v0m0-17.44v17.4M3.67,27V7.84m16.65.39V27.07M18.06,8.3V26.86M15.58,8.37V26.86M13.16,9.42V27.63m-3-.22V9.2M7.78,27V8.78M22.87,27.29V8.86m85,1.5V24.53m2.34.76h0m0-13.75V25.29m2.13-13.52V25.3m2.76-14V25.51M103.38,10.58V24.65m0,.1v-.1m74.41,1V8m5.53,17.22V8m-8.94-.21V26M172.12,7.88V26.23M85.23,136.81V120.93m2.06,16.16V121m2.41,16V121.36M92.47,137V120.93m-11.7,15.88V120.17m17,15.87V123.53M35.49,136.21V121.53M40.66,136V120.55M55.05,136V119.57m8.71,18V119.61m0,17.92v.21m-3.61,0v-.31m0-16.46v16.46m-34.94-2.75V122.17m8.72,13.27V121.23m-3.62,14.21V121.61M47.61,136V121.53m27.21,16.08V119.44m-4.47,18V119.65m2.77-.42v18.38m52.93-2.08V123m8,12.34V120.09m-12.33,17.19V122.56m-6.45,14.29V122.22m34.59,12.12v-12m-1.94,12.85V120.61M145.52,135v-14.3m-2.07,15.07V120.47m-5.28,14.85V120.05m18.92,15.78V121.45m5,14.38V121.52m-9.83,14.09V122.09m-134.8,12.4v-14m-2.27,13.74V120.61m-2.48,13.67v-13.6m-2.41,14.37V121.73m-3,15.06v-.6m0-15.65v15.65M5,136.37v-.21m0,0v-16M20,134.71V121.18m85,15.67V122.68m2.34,14V123.87m2.12,12.77V122.13m2.77,14.72V121.7m-11.7,15.37V122.89M175,135V120.27m5.53,14.28V120.34m-8.93,15.06V121.11m-2.27,14.51V121.18m-81.21-37V98.13m2.4-13.85V98.2m1.91-13.7V98.62m2.92-14.4V98.34M83.61,84.42V98.13m17-.77V84.85M39.13,98.51V88.72m4.37,9.57V88.72M57.88,99.27V99m0,0V86.76M66.6,98.08V84.85M63,86.21V99.06M28.05,88.43v12.46m0-12.51v.05m8.71,0V98.72m0-10.29h0m-3.61,12.25V88.81M50.44,87.3v11m0-11.52v.53m27.21-2.62V98.93m-4.46-14V98.72M76,84.46V98.93m52.94-.12V86.26m8,11.36V86.31M124.57,98.6V85.84m-6.45,13.31V85.49m35,13.19V87m-2.35,11.5V86.83m-2.2,10.92V86.39m-2.49,11.7V85.75M141,97.62V85.28m18.92,14.81V87.66m5,12.43V87.74m-9.84,11.15V87.32m-151.45,2v11.32M20.32,88.18v12.53m0-13v.45m-2.26-.37v.28m0,0V100.5m-2.48,0V88m0-.13V88m-2.42,13.1v.15m0-12.33v12.18m-3-.06h0m0-12.32V101M7.78,88.29v12.34m15.09.29V88.37m85,9.8V84m4.47,1.41V98.94m2.76.21V85m-11.69,13.4V84.21m74.41,15V88.13m0,0v-.67m5.53.08v.63m0,10.64V88.17m-8.94,11.49V87.88m0,0v-.56m-2.26.26v-.19m0,12.48V87.58M.83,135.47v-16"/>
    </pattern>
  </defs>
  <g id="reddit_banner">
    <g class="cls-6">
      <g id="Web_Scene_-_Layer_2" data-name="Web Scene - Layer 2">
        <g class="cls-7">
          <path id="Background-2" data-name="Background" class="cls-8" d="M4101.88-3.48v1022H-213.33V-62.6c54,14.69,136.56,31.1,234.21,24.53C94-43,120.92-73.36,217.86-79c53.27-3.11,60.86,3.34,123.12-1.9,89.41-7.53,95.16-22.63,143.85-18.53,64.38,5.41,69.19,33,142,40.78C646.09-56.6,654-55.2,738.7-65.57c59.24-7.25,121.6-10.58,182.24-16.11,148.56-13.53,162.44-13.93,176.56-14.09,31-.34,66.51.46,120-2.35,46.17-2.42,62.9-3.67,62.9-3.67,32.06-2.4,40.37-3.85,60.37-3.87,25.32,0,26.5,2.6,52.94,2.79,15.08.11,32.24-.39,73.85-4,42-3.65,68.73-6.88,68.73-6.88,109.55-13.28,164.32-19.92,222-21.2,48.29-1.07,88.25,1.43,158.25,5.8,60.77,3.8,87.2,7.33,135.6,5.27,35.19-1.5,67.82-5.36,92.22-8.24,52-6.14,78-9.21,90.3-12,9-2.05,19.94-4.89,35.57-4.92,5.17,0,14.19.28,41.05,5.13,20.41,3.69,25.23,5.34,34.84,7.06,24.72,4.45,45,3,71.71,3,13.66,0,41.19,2.09,96.25,6.26,76.51,5.8,85.52,7.68,164.47,14,55.41,4.41,99.21,7.33,109.85,8,81.06,5.34,80.37,4,122.09,7.53C2971-93,3024.55-85.85,3043-83.35c42.42,5.73,54,8.31,85.45,10.64,28.28,2.1,51.92,3.85,82.64,3.44,12.28-.16,19.23-.58,31.53.17,18.8,1.15,34.93,4.35,50.65,6,14.59,1.52,24,1.12,32,1.2,54.1.58,113,24.15,189.91,29.49,36.3,2.51,23.36-2.72,116.26-2.83,64.55-.07,92.33,2.43,109.47,4.39,38.28,4.36,53.11,9.36,88,15.73,4.71.86,10.26,1.85,16.91,2.92,41.13,6.56,108.32,10.4,131.9,11.55"/>
          <g id="Fill">
            <path id="Fill_Left" data-name="Fill Left" class="cls-9" d="M1184.08-98.31c9.78,0,25.76-.19,45.31-1,52.15-2.3,71.18-6.93,111.39-6.3,23.71.37,21.53,2,46.55,2.89,41.17,1.38,72.64-2.31,110.93-7,119.24-14.47,119.59-15.61,150.93-18.5,58.79-5.42,106-5.9,130.18-6.09,107.64-.85,192.8,7.21,206.4,8.65,3.94.42,12.31,1.38,24.48,2.2,28.62,1.91,37.95.29,40.8,1.86,5.82,3.2-20.77,18.75-116.39,46.91-145.87,43-195.72,39.71-266.35,71-59.33,26.27-90.13,57.76-80.93,60l.3.06c10.3,1.73,30.91-6.78,37.73-9.59,10-4.14,24.33-11.2,35.1-22.23,16.8-7.42,36.41-16,58.51-25.41,29.52-12.62,39.42-16.54,56.56-19.77,25.82-4.86,51.93-5.09,69.23-4.59,49.85-17.48,74.78-26.22,95.71-33.83,51.34-18.63,93.66-34.84,125.16-47.17,35.32-14.7,69.87-23.62,94-29.11,16.63-3.8,62.08-13.28,75-8.78,6.71,2.33,2.32,7.66-3,13.8-10.06,11.74-25.43,19.09-31.44,22.5-36.5,20.72,21.55,38.14-9.27,65.3-17.24,15.19-40.42,14.07-50.71,29.65s8.5,22.64,5.86,35.29c-2.12,10.13-18,24-117,48-139.89,33.92-273.71,46.38-272.06,48.35.73.87,27.65-.47,73.13-5.29,109.24-11.57,285-30.18,327.65-75.53a23.52,23.52,0,0,0,5.2-7.58,23.88,23.88,0,0,0,1.11-14.55c-1.44-5.89-2.55-14.59-1.92-28.08,54.5-32.49,58.18-50.28,50.46-60.61-1.68-2.25-9-11-4.39-22,3.69-8.75,14.52-17.81,21.21-17.48s3,9.42,10.61,21.07c4.14,6.33,12.24,14.43,62.78,38.77,47.46,22.85,50,20.08,65,29.57,18.53,11.73,48.54,30.7,35.9,49.57-13.53,20.2-74.4,32.72-196.14,57.75C2151,96,2130.8,98.21,2102.46,109.22c-39.93,15.52-34.6,24.7-70.21,44.47-43,23.9-98,36.71-135.87,45.53-19.4,4.52-35.17,7.54-49.24,9.76-59.27,9.35-100,14-125,16.71-62.89,6.91-121,22.33-237.16,53.18-48.8,13-73.67,19.61-96.45,28.24-55.29,20.92-64.83,35.44-100.79,56.88-7,4.19-17.48,9.46-38.31,20.06-66.18,33.65-79.63,36.33-92.4,34.59-8.71-1.2-17.38-4.49-22.34-1.42-5.85,3.63,2.06,10.77-2,18.36-5.26,9.75-24.2,8.79-54.83,18.35-23.5,7.34-19,10-45.69,19.06-26.93,9.15-30,6-57.87,14.82-31.58,10-28.87,14.54-56.86,21.88-22.46,5.89-26.86,3.69-47.72,10.59-21.71,7.18-22.8,11.5-37.57,14.12-21.12,3.75-26.15-3.79-51.33-3.62-16.46.1-36.14,6.42-74.83,19-18.38,6-33.31,11.28-43.4,14.93-40.66,12.65-69.59,26.42-88.34,36.53-30.4,16.41-40.72,26.81-69,34.06-32.81,8.4-42.58.5-74.63,4.94C389.2,646,359.81,667.74,301,711.18,253.9,746,250.9,755.4,222.93,763.11c-34.61,9.54-45.42-.62-86.55,9.56-36.19,9-37.56,19.22-85.55,37-43,15.95-44.29,8.61-75.64,21.18-54.57,21.88-54.6,45.73-105.6,67.77-16.86,7.28-43.56,16.21-82.92,19.76v-981c42.45,8.15,74.25,9.81,96.12,9.71,9,0,21-.41,31,5,17.89,9.69,15.7,30.61,15.12,38C-74.73,36.21-50.34-7.14-54.39,125-58.47,258.44-63,325.12-100.25,403.23c-36.35,76.17-84.34,126-79.91,127.64,4.21,1.58,58.85-39.22,83.24-99.53,19.45-48.08,27.17-127.09,47.06-146.41,1.56-1.52,8.4-7.72,9.56-16.65,1.13-8.58-3.58-15.25-4.94-17.37C-55.67,234.64-43.48,224.28-41,192c1-12.79-.71-11.69-1.43-36C-43.61,116.14-39,113.56-40,87.58c-1.16-29.5-7.8-60.28-14.22-84.71C-59-15.28-66.32-38.61-53-44.29c4.32-1.83,8.89-1,20.15.49C-15-41.41,3.24-40.92,20.88-38.07c34,5.5,78.3-7.81,103.63-19.15,3.62-1.62,10-4.66,18.67-4.61,18.1.1,31.44,13.45,36.09,18.11,43.44,43.5-2.18,188.58,77.17,232.24,23.25,12.79,50,12.88,57.87,30.35,11.36,25.1-30.77,53.73-29.44,54.35s46.22-27.48,37.57-54.35c-5.72-17.75-30-20.14-54-35.16-86.19-54-19.31-178.24-78.73-231.54C186.18-51,173.2-62,178.26-69.14c3.26-4.6,12.59-5.65,53.78-7.26,27.36-1.07,41.82-1.49,62.87-2.17,11.48-.37,25.82-1,46.07-2.34,98.67-6.44,106.86-13.71,150.26-12.4,82.36,2.5,79.49,29.48,162.14,37.06A275.14,275.14,0,0,0,694-55.09c21.31-1.14,27.29-4.58,29-3.32,4.56,3.32-13.64,35-53.44,52.56C645.9,4.63,632.84,2,622.22,13.64c-9.36,10.27-4.46,18.07-16.33,30.82-9.27,10-21.26,14.89-25.56,16.82C561.77,69.62,533,90.35,409.76,184.64,334,242.61,250.57,307,185.87,352.28,115,401.93,132.68,382.4,110,401.05c-18.73,15.43-39.43,35.86-60.22,33.11-10.6-1.4-18.22-8.42-25.39-6-7,2.36-6.87,11.42-7.07,13.5-2.61,27.77-150,96.4-150.81,95.56-.26-.27,15.34-8.3,34.14-14.23a213.37,213.37,0,0,1,36.42-8C-.3,506.07,163.4,376.72,210.24,342.05c31-22.94,37.33-24.05,57.36-42.09,9.69-8.74,11.79-11.71,15.79-11.48,19.67,1.16,47.73,78.06,34.61,147.76-1.66,8.86-4.21,18.77,3,29.37,21,31,101.23,32.26,113.14,32.44,13.14.2,18.14-.7,18.28-1.59.65-4.07-101.31-2.95-122.8-36-4.49-6.9-2.28-10.39-.82-28.07,2.48-30.06,3.43-108.71-21.68-140.51-2-2.47-7.71-9.3-5.16-16.82s11.34-10.49,23-16.44c6.91-3.54,41.4-21.21,63.05-44.71,4.37-4.74,7.9-9.38,15.16-10.58,12.13-2,24.77,7.21,31.52,12,55.35,39.26,73.81,36.22,74.12,48,.79,29.67-116.25,53.39-134.53,93.18-.93,2-4.34,9.44-1.52,10.59,4.07,1.65,17.35-11.91,41.63-30.36,31.23-23.74,52.33-34,67.52-40.23,18-7.36,27.08-11,33.5-9.18,31.46,9.12-4.22,110.77,1.52,111.53,2.64.35,13.29-20.58,17.77-45.88,4.3-24.28,10.45-60.75-14.72-93.18-33.65-43.36-102.73-54.59-95.52-71.37.86-2,2.28-1.56,11.32-8a167.27,167.27,0,0,0,26.83-23.72C472,147,487.78,135.66,519.41,113c86.82-62.22,99.93-57.34,122.86-85.41,2.75-3.38,5.7-7.29,9.11-7,21.6,1.53,16.78,168.34,20.33,168.34,1,0-1.8-12.75,5.91-15.44,15.32-5.36,70.25,29.53,71,65.73.23,11-4.58,20.38-3,20.65,2.15.39,17.65-16.88,14.47-35.47-3.93-23-35.44-42.17-52.32-52.45-10.88-6.63-21.45-11.68-26.65-22.22-4.93-10-2.05-18.85-1-22.74C691.53,84.84,653.65,19,668.43,7.65c.31-.24,4.15-3.16,8-6.05,0,0,5.88-4.45,11.21-8.46,9-6.79,25.9-19.18,31.82-23.45,30-21.61,44.63-32.93,58.66-37.29,24.8-7.7,31-2,91.47-9.79,34-4.41,44.56-7.86,52.48-3.2,16.09,9.45-3.32,46.1-6.92,52.77,0,0-2.08,3.85-136.8,264.34-9.17,17.72-26.46,52.22-63,92.47-13.81,15.23-16.42,15.9-34.88,35.08-44.8,46.5-82.85,98-78.83,99.74,4.9,2.12,82-66.14,144.17-151.06,52.39-71.59,78-132.95,94.39-173,0,0,90.24-220.45,123-222.81.65,0,9.66-.61,22.58-1.58,2.92-.22,10.14-.77,19.53-1.57,4.28-.36,20-1.7,41.22-3.86,3.65-.37,11-1.13,20.48-2.16,11.89-1.31,22.2-2.51,30.46-3.51"/>
          </g>
          <path id="Outline" class="cls-10" d="M-213.33-62.6S3.37-36.48,20.88-38.07,179.27-69.84,179.27-69.84l94.16-11.71a344.88,344.88,0,0,1,67.55.64,136.69,136.69,0,0,0,40.26-1.48l78.5-15.08a115.09,115.09,0,0,1,48.82,1.25A341.87,341.87,0,0,1,566.27-76.3a230.18,230.18,0,0,0,87.11,20c32.41,1.14,51.27-6.26,104.12-11.53,44.64-4.45,104.76-9.83,163.44-13.9,92.28-6.11,165.83-18.36,296.57-16.44,41.64.61,81.59-7.56,123.27-7.54,15.74,0,30.82,3.07,46.55,2.89,83.49-.94,162.61-13.88,243.88-20.87,44.55-3.83,88-10.25,133.61-11.54,41.91-1.19,83.93,2,125.74,3.56,54,2.06,107.32,8.8,161.57,7.73,22.34-.44,43.54-3.75,65.2-5.79,34.33-3.22,69.16-5.89,102.61-10.15,21.34-2.72,42.67-10.44,62.27-9.78,20.64.7,41.65,11.76,62.18,12.84s53,1.65,73.43,2.86q74.13,4.41,147.65,10.11c37.93,3,75,7.3,113.07,10.11,51.35,3.81,103.81,5.42,155.19,9.15,34.87,2.54,69.43,5.63,103.76,9,67.76,6.64,132.84,16.89,201.56,22.06,34,2.56,69.52,1.9,103.59,4.39,29,2.12,51,5,64.77,6.79,116,14.68,149.08,23.93,207.77,29.89,82.35,8.35,72.56-4.26,178.28,1.69C3787-25.46,3807.89-14.85,3900.51-7a1536.58,1536.58,0,0,0,201.37,3.53M2270.22-149.06c.46-.34-36.4,17.52-33.35,25.34,4.48,11.5-4.87,24,5.32,35.15,13.21,14.44,69.62,38,69.62,38,18.25,6.62,45.38,18.09,65.64,34.82,17.45,14.42,35,28,26.32,42.36-9.88,16.38-54.5,26.67-143.34,46.58-104.47,23.42-123.22,20.54-158,36-29.2,13-23.56,18.42-70.21,44.47-19.47,10.88-42.63,23.81-70.21,33.89-71.49,26.1-135,19.22-239.88,38.11-25.06,4.52-75.12,20.92-175.53,52.95-77,24.54-117,39.09-144,49.31-30.48,11.53-63,19.95-98.33,39.86-11.47,6.46-25.92,15.43-38.58,23.3-41.3,25.64-44.18,29.76-63,38.11-21.64,9.63-24.68,7.21-52.8,19.06-23.47,9.89-29.48,15-47.72,24-34.19,16.89-65.46,24.81-109.66,36-33.34,8.45-42.34,8.78-74.12,18.36-30.35,9.14-28.72,10.83-49.75,16.94-42.63,12.38-62.4,9.26-122.35,18.94-25.79,4.17-43.67,8.3-69,14-57.4,12.93-86.09,19.39-107.13,29.17-32.83,15.28-37.77,26.56-65,29.65-24.52,2.79-28.67-5.44-52.8-2.82-22.14,2.4-31.39,10.71-75.13,35.29-37,20.81-32.39,16-52.8,28.24-64.18,38.54-61.85,57.38-101.54,67.06-31.3,7.63-36.75-3.12-73.1,5.64-38.82,9.36-36.27,22.5-79.2,38.12-47.71,17.36-63.63,5.78-95.44,24-22.66,13-20.57,22.28-48.74,40.94-21.78,14.43-43.13,21.88-56.86,26.83a393.53,393.53,0,0,1-82.92,19.76"/>
        </g>
      </g>
    </g>
  </g>
  <g id="reddit_logo">
    <rect class="cls-8" y="-6.47" width="512" height="524.94"/>
    <path id="Squirrel_Filled" data-name="Squirrel Filled" class="cls-11" d="M418.49,315.31s-6.69,1-11.42-3.64a.16.16,0,0,0-.27.17,11.58,11.58,0,0,1-.54,9.19c-4.14,8.75-15,12-23.5,7.35l-9.78-5a.17.17,0,0,0-.18,0c-.54.42-3.6,2.74-8.25,5.68-12.86,7.61-25.78,13.93-40.91,15.61a.17.17,0,0,0-.14.21c5.72,23.73-11.67,41.29-14.19,43.69a.17.17,0,0,0,.12.29c25.93.66,26,16.27,25.89,18a.17.17,0,0,1-.17.16H185.33a.17.17,0,0,1-.17-.18l1-9a.17.17,0,0,0-.22-.18c-21.61,6.11-48.21.26-63.21-14.94l0,0c-32-39.47-11.74-82.53-1.93-122.17,7.12-29,13.73-64.17,5.94-80.17-10.68-21.93-34.77-25-53.82-4.06a.16.16,0,0,1-.29-.12c10.94-126,178.17-66,155.65,32.86a.15.15,0,0,0,.16.2c9.79-.18,22.5,1.72,37.15,7.19,0,0,35.93,11.87,50.43-6.9l0,0c.29-.8,7.68-21.4,19.18-26.24a.17.17,0,0,0,.1-.2c-.6-2.16-7.15-28.54,23.25-51.62a.17.17,0,0,1,.27.18c-.88,3.36-5.38,23.63,10.32,35.19,0,0,0,0,0,0,.75.39,38.13,19.88,41.31,24.8s26.8,35.53,29,76.8a.15.15,0,0,1-.08.16c-9.86,6.32-19.64,11.59-31.77,13.65a.16.16,0,0,0-.09.28c2.81,2.59,27.83,26.09,11.1,32.68ZM300.31,406.6"/>
  </g>
</svg>
