<svg xmlns="http://www.w3.org/2000/svg" xmlns:xlink="http://www.w3.org/1999/xlink" width="4000" height="192" viewBox="0 0 4000 192">
  <defs>
    <style>
      .cls-1 {
        fill: url(#_705);
        filter: url(#luminosity-invert);
      }

      .cls-16, .cls-19, .cls-2, .cls-3, .cls-4, .cls-5, .cls-6 {
        fill: none;
      }

      .cls-3 {
        stroke: #000;
        stroke-width: 0.3px;
      }

      .cls-16, .cls-19, .cls-4, .cls-5, .cls-6 {
        stroke: #d9b776;
      }

      .cls-4, .cls-5, .cls-6 {
        stroke-miterlimit: 11.34;
      }

      .cls-4 {
        stroke-width: 1.7px;
      }

      .cls-5 {
        stroke-linecap: round;
        stroke-width: 1.98px;
      }

      .cls-6 {
        stroke-width: 1.42px;
      }

      .cls-7 {
        clip-path: url(#clip-path);
      }

      .cls-8 {
        clip-path: url(#clip-path-2);
      }

      .cls-9 {
        clip-path: url(#clip-path-3);
      }

      .cls-10 {
        clip-path: url(#clip-path-4);
      }

      .cls-11 {
        fill: #161515;
      }

      .cls-12 {
        opacity: 0.43;
        fill: url(#New_Pattern_Swatch_31);
      }

      .cls-13 {
        clip-path: url(#clip-path-5);
      }

      .cls-14 {
        opacity: 0.5;
        fill: url(#New_Pattern_Swatch_4);
      }

      .cls-15 {
        opacity: 0.7;
        fill: url(#New_Pattern_Swatch_22);
      }

      .cls-16 {
        stroke-miterlimit: 10;
        stroke-width: 19.19px;
      }

      .cls-17 {
        mask: url(#mask);
      }

      .cls-18 {
        fill: #635c4e;
      }

      .cls-19 {
        stroke-miterlimit: 3;
        stroke-width: 2.28px;
      }
    </style>
    <pattern id="_705" data-name="705" width="53.5" height="53.5" patternTransform="translate(-337.59 -260.45) scale(1.86)" patternUnits="userSpaceOnUse" viewBox="0 0 53.5 53.5">
      <rect class="cls-2" width="53.5" height="53.5"/>
      <path class="cls-3" d="M0,7.42C1.85,5.66,4.47,2.73,5.58,1.48l.76-1"/>
      <path class="cls-3" d="M4.08,5.23C3.08,6.4,1.67,8.4.92,9.15c-.23.23-.56.58-.92,1"/>
      <path class="cls-3" d="M8.67,1.81c-1.75,2-4.17,4.34-4.84,6A25.36,25.36,0,0,1,0,13.38"/>
      <path class="cls-3" d="M9,10.48a37.22,37.22,0,0,0-4.67,5.58A20,20,0,0,1,0,20"/>
      <path class="cls-3" d="M12.83,14.31c-1,1.09-6.83,8.17-8.41,10A40.19,40.19,0,0,1,0,28.43"/>
      <path class="cls-3" d="M8.25,22.31a51.22,51.22,0,0,0-5,5.59c-.73,1-2.09,2.82-3.25,4.2"/>
      <path class="cls-3" d="M6.75,26a52.35,52.35,0,0,0-4.83,6.5A11.64,11.64,0,0,1,0,35.39"/>
      <path class="cls-3" d="M15.08,19.23c-2.08,2.92-5.5,5.92-7.33,8.58s-3.25,4.92-5,7.42c-1.28,1.82-2,3-2.75,3.89"/>
      <path class="cls-3" d="M12.83,28.31c-1.75,2.42-6.83,7.25-8.5,8.84-1.26,1.2-2.87,3.22-4.33,4.7"/>
      <path class="cls-3" d="M8.33,35c-.91.67-3.25,3.33-5.83,6.08-.93,1-1.75,1.85-2.5,2.6"/>
      <path class="cls-3" d="M15.83,27a62.58,62.58,0,0,0-6.16,8.08,58.64,58.64,0,0,1-6.5,8.84A25.45,25.45,0,0,1,0,46.16"/>
      <path class="cls-3" d="M25.17,21.15C23.08,23.4,16.58,32.4,13.92,34.48S7.17,41.56,5.5,43.73c-1.53,2-3.29,4.33-5.5,6.7"/>
      <path class="cls-3" d="M3.25,1.73C2.58,2.65,1.42,3.06.92,4A4.41,4.41,0,0,1,0,5.1"/>
      <path class="cls-3" d="M45.88,15c.74-.81,2.43-2.81,3.68-3.94S52.5,8.31,52.5,8.31c.29-.23.63-.54,1-.89"/>
      <path class="cls-3" d="M34.06,31.29a86.43,86.43,0,0,0,6.94-8,57,57,0,0,1,7.31-7.75,18,18,0,0,0,2.61-2.31c.75-1,1.77-2.19,2.58-3.09"/>
      <path class="cls-3" d="M36.83,36.23a28.54,28.54,0,0,0,4.42-5.08c.81-1.38,4.75-9.3,6.19-11.23a63.18,63.18,0,0,1,5-5.36c.34-.33.71-.74,1.08-1.17"/>
      <path class="cls-3" d="M52.5,20.73l1-.7"/>
      <path class="cls-3" d="M45.63,32.11a59,59,0,0,0,4.44-4.94C51,25.86,52,24.47,52,24.47A11.73,11.73,0,0,1,53.5,22.7"/>
      <path class="cls-3" d="M44.76,35.3A51.81,51.81,0,0,1,49,30.8,13.05,13.05,0,0,1,51,29c.9-.86,1.74-1.68,2.51-2.53"/>
      <path class="cls-3" d="M35.17,53l1.21-1.5c.56-.75,1.93-2.81,3.5-5.25s2.87-5.5,4.43-7.38,4.07-4.31,5.31-6.25a15.81,15.81,0,0,1,2.3-2.87l1.58-1.3"/>
      <path class="cls-3" d="M48.88,36a17.6,17.6,0,0,1,3.46-2.64c.33-.34.73-.79,1.16-1.29"/>
      <path class="cls-3" d="M51.92,37.06c.67-.67,1.17-1.2,1.58-1.67"/>
      <path class="cls-3" d="M42.19,51.42c2-2.5,5.75-6.38,6.69-7.32s3.71-4,3.71-4a8,8,0,0,0,.91-.93"/>
      <path class="cls-3" d="M45.15,53.5l.52-.56s1.21-1.59,2.33-3.46a13.22,13.22,0,0,1,2.17-2.83,27.89,27.89,0,0,0,3.33-3"/>
      <path class="cls-3" d="M47.76,53.5l.66-.73a16.36,16.36,0,0,0,1.08-2.1,12.7,12.7,0,0,1,1-1.94,18,18,0,0,1,3-2.57"/>
      <path class="cls-3" d="M50.55,53.5l.78-.73,1.59-1.71.58-.63"/>
      <path class="cls-3" d="M36.94,25.92c.62-1.07,3.44-5.32,4.62-7.19s7.19-9.25,8.25-10.38a31,31,0,0,1,2.94-2.54c.2-.23.47-.45.75-.71"/>
      <path class="cls-3" d="M9.92,23.15c.66-.75,2.66-3.09,4.41-5S18.75,11.73,20,9.73A95.41,95.41,0,0,1,27,.9"/>
      <path class="cls-3" d="M10.17,27.65c1.5-1.92,4.33-5.5,5.66-6.92s4.59-5.17,6.84-8,8.5-8.5,10.75-11"/>
      <path class="cls-3" d="M23.67,18.31C25.33,16.06,35.08,6,37.83,2.81"/>
      <path class="cls-3" d="M22.75,15c-2.5,3.17-8.42,9.83-10.25,12a63.54,63.54,0,0,1-6.33,6.33"/>
      <path class="cls-3" d="M36.5,6.73A34.52,34.52,0,0,1,33.33,10c-1.33,1.17-3.91,3.92-5.58,5.75s-5,5.5-6.75,7.75-6.58,7.75-9.08,10.42"/>
      <path class="cls-3" d="M33.67,12.31c-1.25,1.59-3.92,4.42-5.42,6.59S23,26.06,21.58,28.06A29.51,29.51,0,0,1,18.33,32"/>
      <path class="cls-3" d="M25.83,24.48c2.34-2.33,7.67-7.75,9.92-9.58a43.39,43.39,0,0,0,6.08-6.5"/>
      <path class="cls-3" d="M52.78,53.5,53.5,53"/>
      <path class="cls-3" d="M49.46,2.82A13.31,13.31,0,0,0,48.38,4c-.57.75-2.07,3.06-3.26,4.44"/>
      <path class="cls-3" d="M16.56,37a57,57,0,0,0-5.37,5.56c-.75,1-2.07,3.75-3.25,5.07S4.88,50.6,4.38,51.1l-1,1.17-.9,1.23"/>
      <path class="cls-3" d="M29.75,31.42c-2.5,2.62-8.94,9.37-11.31,11.93S12.81,49.29,11.5,51c0,0,0,.44-1.33,1.61a4.1,4.1,0,0,0-.74.85"/>
      <path class="cls-3" d="M18.51,53.5l.91-1.23S20.38,50.6,22,48a74.29,74.29,0,0,1,8.69-10"/>
      <path class="cls-3" d="M23,53.5a13.37,13.37,0,0,1,2-3.19"/>
      <path class="cls-3" d="M12.31,53.5l.52-.73a21.79,21.79,0,0,1,2.86-3.85c1.62-1.69,4.69-4.82,6.12-6.57s8.69-9.5,10.38-12.12,4.43-6.25,5.43-8.06"/>
      <path class="cls-3" d="M39.19,30.35a106.27,106.27,0,0,1-6.94,8.13,125.36,125.36,0,0,0-8.13,9.87c-.93,1.44-3,4.5-3,4.5-.19.2-.38.42-.57.65"/>
      <path class="cls-3" d="M51.75,21.42c-.94.87-2.81,3.43-4.75,5.81a27.32,27.32,0,0,0-3.69,6.5,60,60,0,0,1-5.12,7.87,70.36,70.36,0,0,0-5.07,6.82,32.12,32.12,0,0,1-3.29,4.43c-.2.23-.37.44-.54.65"/>
      <path class="cls-3" d="M38.25,53.5c.45-.48.9-1,1.33-1.48a70.72,70.72,0,0,0,5.17-6.29c1.63-2.44,5.94-9.06,7.75-11.06"/>
      <path class="cls-3" d="M42.24,53.5a10.33,10.33,0,0,1,.76-.81s1.38-1.59,3.44-4.27a33.2,33.2,0,0,1,5.73-5.36,13.84,13.84,0,0,0,1.33-1.2"/>
      <path class="cls-3" d="M27.25,24.48c-.94,1-3.63,4-5.19,5.75a39.2,39.2,0,0,1-5.68,5.06,81.86,81.86,0,0,0-8.19,8"/>
      <path class="cls-3" d="M33.88,21.29c-1.44,1.13-8.82,11.81-10.57,13.94A32.49,32.49,0,0,1,17.38,41a64.13,64.13,0,0,0-6.63,5.81C9.38,48.17,7.69,51.92,6.69,53"/>
      <path class="cls-3" d="M37.88,15.29a72.36,72.36,0,0,1-6.32,6.06,44.87,44.87,0,0,0-6,6.94C24,30.6,20.31,34.79,19,35.67"/>
      <path class="cls-3" d="M27.25,32.42C28.38,31.23,37.44,19,38.88,17.17"/>
      <path class="cls-3" d="M40.12,17.92A120.47,120.47,0,0,1,48.69,7.29C50.38,5.54,51.25,4.6,53,3"/>
      <path class="cls-3" d="M48.69,16.54c-1.38,1.5-4.25,4.56-5.38,7.13a21.89,21.89,0,0,1-3,5.06"/>
      <path class="cls-3" d="M15.42,53.5l1.75-1.81S18,50.6,19,49.1a40.16,40.16,0,0,1,3.56-4.56,106.55,106.55,0,0,1,9.63-9.44,72.34,72.34,0,0,0,8.5-8.93"/>
      <path class="cls-3" d="M27,47.54a68,68,0,0,1,8.56-8.37l.42-.38"/>
      <path class="cls-3" d="M41.88,33.48c-1.63,2.94-5.32,6.81-7.32,9s-2.5,2.37-3.62,4.37-1.25,2.69-1.88,3.57a25.28,25.28,0,0,1-1.89,2.18c-.39.32-.73.62-1,.9"/>
      <path class="cls-3" d="M43.44,30.6a38.77,38.77,0,0,1,6.31-8.87,12.91,12.91,0,0,0,3.13-4.13"/>
      <path class="cls-3" d="M44,36.29c-1.88,2.81-5.62,8.19-6.69,10.06a32.66,32.66,0,0,1-3.25,4.32c-.81,1.06-1.23,1.68-1.23,1.68l-.91,1.15"/>
      <path class="cls-3" d="M46.62,38.35c-1.37,1.57-3.06,6.25-4.68,8.13s-1.38,1.75-2.56,3"/>
      <path class="cls-3" d="M29.75,46.1A50.81,50.81,0,0,1,25,52.6"/>
      <path class="cls-3" d="M11,49a53,53,0,0,1,5.38-5.5"/>
      <path class="cls-3" d="M21.19,35.29c-1.25,1.44-5.38,4.56-7.07,6.31"/>
      <path class="cls-3" d="M7.71,44.48a42.45,42.45,0,0,1-6,7.25A15.51,15.51,0,0,1,0,53"/>
      <path class="cls-3" d="M40.75,5.19c1.63-1.7,3-3.66,4.4-5.19"/>
      <path class="cls-3" d="M32.42,16.44C35.08,13,38.67,8.52,41.17,6.35A62.27,62.27,0,0,0,47.76,0"/>
      <path class="cls-3" d="M50.54,0A53.3,53.3,0,0,0,44,7.35c-1.58,2.34-2.92,5.75-3.83,6.84"/>
      <path class="cls-3" d="M50,2.14A9.8,9.8,0,0,1,52.78,0"/>
      <path class="cls-3" d="M2.43,0A13.25,13.25,0,0,1,.75,1.94"/>
      <path class="cls-3" d="M9.43,0a4.43,4.43,0,0,0-.54,1.14"/>
      <path class="cls-3" d="M18.5,0a74.53,74.53,0,0,1-6.33,7.52,28.36,28.36,0,0,0-3.5,4.75,64.2,64.2,0,0,1-5.42,7.25c-1,1.08-2.19,2.1-3.25,3.15"/>
      <path class="cls-3" d="M23,0c-.45.94-.75,1.69-.75,1.69a41.73,41.73,0,0,0-3.67,4.66A27,27,0,0,1,14,11.85c-2,1.84-6.25,5.5-7.25,6.42A24.92,24.92,0,0,0,2.17,23.6,19.93,19.93,0,0,1,0,26.42"/>
      <path class="cls-3" d="M5.67,8a63.5,63.5,0,0,1,4.5-5.33A22.75,22.75,0,0,0,12.3,0"/>
      <path class="cls-3" d="M7.92,15.69A108.82,108.82,0,0,0,16.67,5.52C18.5,3.06,19.49,1.26,20.51,0"/>
      <path class="cls-3" d="M17.25,16.85c1.75-2,6.92-9.16,8.5-11.5A61.12,61.12,0,0,1,29.28,0"/>
      <path class="cls-3" d="M17.58,24.6c1.17-1.33,3.17-4.5,5-7.25A143.35,143.35,0,0,1,32.67,5.44C34,4.13,36.13,2.25,38.25,0"/>
      <path class="cls-3" d="M35.58,9.6c1.85-2.21,4.61-7.16,6.66-9.6"/>
      <path class="cls-3" d="M15.42,0c-1.53,1.59-2.95,3.05-3.92,4a91.74,91.74,0,0,0-6.25,7c-1.5,2-2.83,3.92-3.67,4.92"/>
      <path class="cls-3" d="M11.17,18.94a85.33,85.33,0,0,0,5.41-7.09C18.17,9.69,21.75,4.44,23.17,3c1.11-1.12,1.82-2,3-3"/>
      <path class="cls-3" d="M31.91,0c-2,2.53-5,6.49-6.24,7.77"/>
    </pattern>
    <clipPath id="clip-path">
      <circle class="cls-2" cx="400" cy="-2140" r="400"/>
    </clipPath>
    <clipPath id="clip-path-2">
      <rect id="Clipping_Mask" data-name="Clipping Mask" class="cls-2" y="-3090" width="1500" height="500"/>
    </clipPath>
    <clipPath id="clip-path-3">
      <circle class="cls-2" cx="400" cy="-4044" r="400"/>
    </clipPath>
    <clipPath id="clip-path-4">
      <rect id="Clipping_Mask-2" data-name="Clipping Mask" class="cls-2" width="4000" height="192"/>
    </clipPath>
    <pattern id="New_Pattern_Swatch_31" data-name="New Pattern Swatch 31" width="241.06" height="241.06" patternTransform="translate(-296.66 -331.49)" patternUnits="userSpaceOnUse" viewBox="0 0 241.06 241.06">
      <rect class="cls-2" width="241.06" height="241.06"/>
      <path class="cls-5" d="M5.07,7.42h0m9-1h0m9.62-1.59h0m8.51-1.42h0M4.6,13.68h0m8-.36h0m9-1.24h0m9-2.24h0m-26,9.68h0m7.44-.7h0m7.44-1.07h0M49.78,8h0M3.89,25.55h0m6.38-.71h0m6.26-.95h0m6.38-1.41h0m6.37-1.18h0m6.15-1.89h0m5.9-1.89h0m6.14-2.13h0m6.15-2.6h0m5.43-2.36h0m5.43-3.07h0m11.81-.89h0m-4.78,3h0m-5,2.48h0m-5,2.84h0m-5.14,2.13h0m-5.31,2.48h0m-5.32,1.94h0m-5.31,2.13h0m-5.32,1.59h0m-5.14,1.42h0m-5.67,1.6h0m-5.49.71h0m-5.67,1.06h0m-5.67.35h0m-5.49.18h0M5.6,33.93h0M1.94,37.77h0m19.84,8h0m-5.84.18h0m-6,.18h0m-6.37-.53h0m6.73,9h0m-8.15-.35h0m16.3.53h0m8-.35h0m7.09-.71h0m6.73-1.07h0m15.24,5.5h0m5.67-1.78h0M48.71,59.56h0M42.16,60.8h0m-7.44.89h0m-7.09.71h0m-15.24.35h0m7.27,0h0M4.78,62.58h0M5.84,72.5h0m16.48,8h0M4.78,81h0M14,80.82h0m35.79-3h0m-9,1.24h0m-9,.89h0m26.22-3.55h0M9.21,90.92h0m6.2-.35h0m5.67-.36h0M3,90.92H3m23.2-1.24h0M31.88,89h0m5.67-.71h0m29.06-6h0m6-1.42h0m5.49-1.77h0m5.32-1.59h0M96.67,80h0m9.56.7h0m8.51.18h0m7.62-.35h0m-17,8.5h0m-10.46-.71h0m-11-1.77h0M114.56,89h0m9.57-.71h0M131,87.26h0m7.08-.89h0m6.74-.88h0M65.72,75h0m8-2h0m7.09-2.13h0m6.73-2.3h0M40.56,70.72h0m-8.35.93h0m-9.39.53h0m-9,.35h0m34.05-2.69h0m7.08-1.24h0m6.56-1.42h0m6.2-1.59h0m6.38-2h0m6.38-2.31h0m13.46,4.79h0m11.63,3.25h0m5-2.9h0m4.79-3h0m-4.84,8.21h0M115.8,74h0m5.32,2h0m5.49,1.6h0m5.49,1.94h0m5.67,1.07h0m-37-17.07h0M10.39,36.41h0m5,2.66h0m5.14,2.3h0m5.31,2h0m5.32,1.77h0m5.66,1.78h0m5.5,1.41h0m5.49,1.24h0m5.49,1.42h0m5.32,1.42h0m5.49,1.06h0m5.31,1.24h0m5.67,1.06h0M86.57,58h0m6.14.71h0m6.14.47h0m6.38,0h0m7.56.24h0M80.9,57h0M66.43,49.29h0m12.22,2.3h0m10.63,1.06h0m11.17.71h0m10.63.36h0m8.51,6.08h0m6.49,0h0m5.31-.18h0M238.58,90.8h0m-3,3.19h0m.89,5.85h0m-.18,7.09h0m1.42,21.26h0m-8.5-.18h0m-8.33-.53h0m-8.5-1.07h0m-8.86-.88h0m-8-1.42h0m37.62,15.35h0m5,11h0m-6-.36h0m-6.2-.35h0m-5.32-.35h0m-6.08-.48h0m-5.67-.88h0m-37.2-8.33h0m5.9,1.89h0m5.91,1.89h0m-17.66-6.26h0m-5.14-2.3h0m-5-2.66h0m-5-2.83h0m9-8.51h0m-5.32,2h0m-5.67,1.95h0m-27.28,7.44h0m-5.32,1.24h0m-5.49,1.42h0M105,136.16h0M99.5,137h0m-5.14,1.42h0m-5.84,1.06h0m-5.5.89h0m-5.49.89h0m-5.49.88h0m-5.67.89h0m-5.67.71h0m-5.49.88h0m-5.49.71h0m-5.49.53h0m-5.67.89h0m-5.32.71h0m-6.49.82h0m-6,.53h0m-5.84.18h0m-5.67.71h0m-6.2.71H3m7.2,5.73h0M5.6,153.87h0M2.24,210.21h0m6,5.14h0M5.6,222.44h0M3.3,231.3h0m.35,8.32h0m8.51-.71h0m8.5-.88h0m8.15-1.42h0m8.33-1.77h0m7.44-1.77h0M12,231.12h0m8.51-.89h0m8.15-1.59h0m-15.06-11h0M18.71,220h0m5.5,2.12h0m5.31,1.6h0m5.32,1.95h0m5.31,1.77h0M45.64,229h0m5.5,1.42h0M57,231.65h0m5,1.06h0m5.49,1.07h0m6,1.24h0M79,236.08h0m5.49.88h0M90.11,238h0m5.67.71h0m22.15,1.41h0m6.37-.17h0m5.5,0h0m5.84-.36h0m5.5-.71h0m5.66-.88h0m5.67-.53h0m5.67-.89h0m5.14-.89h0m5.32-1.06h0m5.84-1.65h0m6.14-1.66h0m6.85-1.31h0m7.09-2h0m6.85-2.13h0m5.91-1.42h0m-19.55,15.65h0m-7.09-3h0M126,234.6h0M148.1,233h0m-11.16,1.24h0M166,230.71h0m-8.86,1.41h0M175,228.93h0m-59.7,5.32h0m-3.25-5.08h0m8.15.53h0m8.5,0h0m8.68-.35h0m8.15-1.07h0m8.69-.88h0m8.32-1.77h0m8.33-2.13h0m7.79-2.13h0m8.51-2.83h0m26.1-4h0M206.75,218h0m6.14,5.2h0m5.13-1.78h0m5.32-2.12h0m5.14-2.48h0m5.14-2.48h0M237,221h0m-15.59,6.55h0m8,2h0m8.86,1.6h0m-.71,8.68h0m-7.08-.41h0m-6.85-.71h0M215.64,237h0m-8.13-2.12h0m-7.32-3.07h0m-5.37-16.3h0M117,222.61h0m8.5.18h0m8.51.18h0m8.33-.89h0m8.68-.88h0m7.79-1.6h0m6.91-1.59h0m6.38-1.77h0m5.67-1.78h0m-69.27,6.91h0m3.54-7.61h0M135.64,215h0m-15.41-.36h0m8.15.53h0m14.7-.71h0m6.38-.7h0m5.49-.89h0m5.32-1.24h0m-20.38-5.31h0m-7.26.88h0m-8,.18h0m7.09-8.15h0m5.13,2.3h0m5.32,1.77h0m5.49,1.42h0m5.32,1.42h0m22.32,3h0m5.67.18h0m5.49.53h0m5.85,0h0m5.49,0h0m5.67,0h0m6,0h0m5.67.18h0m5.49,0h0m5.85.17h0m6-.35h0m5,.35h0M97,204.37h0m6.56,7.79h0m-8.15-1.95h0m-9.57-2.65h0m14.35,12.57h0m3.37,8h0m-8.33-1.24h0m9.45,6.85h0M92.06,218.36h0m-5.31,7.09h0m6.61,7h0m-14.76-8.8h0m5.31-7.09h0m-8.33-2.66h0m-8-2.65h0m12.82,19.43h0M46.35,213.22h0m21.85,15h0m-12.4-3h0m-11.87-3.54h0M34,218.13h0m-10.1-3.55h0m.65-5.61h0m5.67-.35h0m5.31-.71h0m5.85-.35h0m5.67-.71h0m5.67-.36h0m5.67-.88h0m5.31-.71h0m5.5-.71h0m5.67-.89h0m5.31-.88h0M86,201.35h0m5.67-.7h0m5.13-1.24h0m5.85-.89h0m5.49-1.42h0m5.67-.88h0m5.32-1.07h0m5.49-1.06h0M130,192.5h0m5.5-1.24h0m5.67-1.24h0m5.31-1.42h0m5.49-1.77h0m5.49-1.42h0m5.32-1.77h0m5.49-1.95h0m5.32-1.95h0m5-2.13h0m5.49-2.12h0M15.35,158.83h0M20.49,161h0M26,162.91h0m5.67,1.77h0M37,166.45h0m5,1.42h0m5.85,1.42h0m5.31,1.41h0m5.5,1.42h0m5.49,1.07h0m5.67.88h0m5.31.89h0m5.49.88h0m5.79.48h0m5.67.47h0m6.38.47h0m7.09,1h0m6.61.7h0m7.09.48h0m-23.33-9.28h0m-11.52-1.24h0M72.63,167.1h0m-12.75-2.48h0m-11.52-3h0m-10.81-3.54h0m-10.27-3.72h0m79.54,16.47h0M48.06,151.51h0M117.63,171h0m10.45-.18h0M58.93,154.35h0m15.95-7h0m8,1.77h0m8.5,2.13h0m8.33,1.59h0m8.33,1.24h0m8.5,1.06h0m8.15.54h0m8.68.53h0m8.15.35h0m32.24-3.72h0m6.38-2.48h0m5.67-2.48h0m-88.94-4.61h0m8.86,2.13h0m8,1.42h0m8.33,1.06h0m8.33.89h0m8.15,0h0m8,.53h0m6.91-.18h0m5.67-.71h0m5.31-.71h0m5.5-.88h0m5.31-1.42h0m-11.69-4.07h0m-5.85,1.41h0m-9-5.84h0m6.37-.36h0m-10.45,6.56h0m7.09,0h0m-10.81-6.91h0m-5.31,6.2h0m-2.13-7.27h0m-7.44,5.32h0m-8.68-2.3h0m-49.79,18.6h0m30.71,5.2h0m9.33.29h0m8.51.53h0m8.15,0h0m8.68-.17h0m9.57-.36h0m9.38-.53h0m8.51-1.06h0m7.79-1.07h0m8.51-1.59h0m8.32-1.6h0m7.8-1.59h0m7.44-1.59h0m7.8-1.78h0m-68.33,18.9h0m11.34-1.06h0m9.92-1.42h0m-35.32,11.81h0m6.74-.23h0m22.32-2.48h0m5.85-.54h0m5.49-1.06h0m5.67-1.06h0M177.1,173h0m-6.67-6.62h0m9-1.59h0m8.86-1.77h0m8.5-2.48h0m6.91-2h0m7.21-2.42h0m6.85-2.6h0m18,.29h0m-5,3h0m-5.14,1.94h0m-5.13,2.31h0m-5.5,2h0m-5.31,1.77h0m-5.49,1.59h0m-5.32,1.6h0m-5.67,1.59h0m-5.31,1.24h0m-5.85,1.42h0m-56.63-47.36h0m-10.63,2.65h0m-11.52,2.66h0m-10.81,2.48h0m-12.22,2.13h0m-11,1.77h0m-10.09,1.24h0M3.65,139.7h0m37.09-.06h0m9-.71h0m55.39-15.35h0m-7.2.83h0m-34.79,3.24h0m7.09-.7h0M54.68,128h0m-8.33.35h0m-8.5.18h0m-8.68,0h0m-8.33.18h0m-8.33-.36h0m-8.68-.17h0m58.82-6.74h0m-8.5-.17h0m-8.51,0h0M37,120.74h0m-8.32-.53h0M20.13,120h0m-8.5-.71h0m-8.15-.89h0m67.32,2.84h0m151.89,17.3h0m-11-1.24h0m-10.81-1.77h0m-11.34-2.48h0m-10.1-2.84h0m-10.27-3.9h0m40.33-13.58h0m18.78-8.15h0M231,96.47h0M225.82,99h0m-5.31,2.31h0m-5.32,1.94h0m-5.31,2h0m-10.22-9.62h0m4.72,11.4h0m-5.49,1.41h0m-5.67,1.24h0m-5.31,1.77h0m-5.32,1.24h0m-5.67.89h0m-5.67,1.06h0m-5.31,1.07h0m-5.67,1.06h0m-5.49.71h0m-5.85.88h0m-5.31.71h0m-5.5.36h0m-5.84.71h0m-6.2.35h0m-7.8,0h0m-5.85-.35h0m-5.67-.36h0m-5.49-.71h0m-5.49-.35h0m-5.85-.89h0m-5.49-.88h0M79,116h0m-5.67-.89h0m-5.31-.7h0m-5.14-1.24h0M57,112.06h0m-5.84-1.59h0m2.3,4.78h0m-8.51-.88h0m-8.32-.71h0m-8.51-1.24h0M19.78,111h0m-8.33-1.59h0M3.12,108h0m33.13,1.59h0m-8.5-1.24h0m-8-1.77h0m-8.33-2.66h0M3.3,101.43h0m20.73.71h0m-5-1.77h0m-5-2.13h0m-4.2-2.36h0M6,93.58H6m185.49,5.67h0m-8.86,3.9h0m-8.86,3h0m-10.27,3h0m-10.28,2.13h0m-43.76,3.18h0m10.45.36h0m10.81-.53h0m10.81-1.24h0M98.32,114h0m-10.63-1.24h0m-9.39-1.59h0M80.9,103h0m-9.57-2.48h0M68.73,109h0m-19.84-5.84h0m9.92,3h0M39.68,99.6h0M31,95.88h0m30.86,2h0M51,93.58h0m48.84,11.93h0m18.24-9.75h0M88.69,94.17h0m-9.56-1.6h0m-9.22-3h0M90.82,104.8h0M108.18,106h0m17-11h0m6.56-.54h0m-15.6,11.7h0M138,93.82h0m18.24,7.61h0m7.45-2h0m6.73-1.94h0m6.73-2.13h0M184,92.93h0m-36,10.45h0m14.18-14.17h0m-6.38,1.42h0M150,91.69h0m-6,1.24h0m-4.08,11.87h0m-7.44.71h0m-7.8.38h0M232.91,90.45h0m-5.67,0h0m-5.67-.18h0m-5.67-.35h0m-22.68-1.24h0m-5.49-.53h0m-6-.71h0m-5.5-.53h0m-5.67-.71h0m-5.31-.71h0m-5.49-1.06h0m-5.85-.89h0m-5.49-1.06h0m-5.32-1.07h0m-5.49-22.14h0m5.32-.71h0m5.67-.53h0m5.67-.89h0m5.66-.88h0m5.5-.71h0m5.67-1.07h0m5.67-1.24h0m5.49-1.06h0m5.31-1.24h0m5.32-1.24h0m27.28-8.15h0m5.14-2.3h0m5.14-2.3h0m5.31-2.49h0M158,49.82h0m11-1.77h0m-22.32,3.72h0M134.28,53h0m-11.16.53h0m57.23-8h0m9.74-2.84h0m9.21-2.83h0m8.86-3.37h0M35.07,40.43h0m-8.15-3.37h0m-7.5-3.66h0m14.71-1.77h0m7.26,4.25h0m8,2.84h0m8,2.83h0m8.5,1.6h0M74,44.56h0m8.33,1.07h0m8.68.88h0m9,.71h0m8.51.18h0m7.79-.36h0m8.15-.17h0M133,45.8h0m27.63-6.2h0m6.91-2.3h0m6.73-2.3h0M45.64,26.49h0m7.62,3.9h0m7.62,2.66h0m8,2h0m9.57,1.77h0m9,.88h0m9.75.54h0m10.27-.54h0m9.22-1.06h0m9-1.24h0m7.44-1.24h0m6.91-1.24h0m6.38-1.42h0M64.78,24.19h0m-7.09-2h0m15.24,3.9h0m17.89-6.2h0m-7.44-1.6h0M74.88,16h0m23.56,5.31h0m7.26.89h0m7.44.53h0M85.51,7.89h0m5.31,2.66h0m4.78,1.77h0m5.14,2.48h0m5.49,2.13h0m5.5,1.77h0M117,20.47h0m5.32,1.59h0M128,23.48h0m5.32,1.24h0M139,26h0m5.31.89h0m5.5,1.06h0m5.67.89h0m5.66.35h0m5.67.53h0m5.5.71h0m5.49.35h0m5.67.54h0m5.84.17h0m5.67.18h0m5.5-.18h0m5.66.18h0m6,0h0m6.2-.35h0m6,0h0m6.38-.71h0m6.38,0h0M102.69,29h0m7.09,0h0m6.91-.35h0m6.73-.71h0M163,23.42h0m-11.11-1.89h0M98,3.64h0m31.19-.3h0m6.61,2.6h0m7.09,2.84h0m6.37,1.89h0m6.85,1.89h0m82,7.55h0m-6.61-.23h0m-7.56.23h0m-7.56,0h0m-7.56-.47h0M201,19.41h0m-7.8-.71h0m-9-1.18h0m26.69,10.15h0m-7.8-.35h0m-9-.53h0M174.32,24.6h0M106.53,7.36h0m8.5,3.78h0m9,3.07h0m8.8,2.83h0m9.39,2.6h0m42.69,6.44h0M218,27.67h0m6.74-.17h0m6.55-.54h0m6.56-.53h0m-57.82-17h0m-8.68-2h0m-8.15-2.83h0m-8.33-3.54h0m33.49,9.92h0m8,1.06h0m8.33.71h0M204.86,4h0M196.17,2h0m42.05,5.38h0m0,6.42h0M230,13.9h0m-7.79-.18h0M213,13.37h0M18.6,164.62h0M3.54,162.85h0m7.44.89h0M39.68,174h0m8.86-.35h0m23.74,5h0m-8.51,1.06h0m-7.79.71h0m-8.86,1.06h0m-10.28.71h0m-11,.36h0m-11.34.35h0M4.07,192.79h0M2.12,203.42h0m10.63-.53h0m10.45-.71h0m11.52-1.06h0m9.56-1.24h0m9.22-1.24h0m9.39-1.42h0m8.32-1.42h0m8.15-1.59h0m8-1.42h0m8-1.95h0m7.79-1.77h0m7.09-1.77h0m6-1.59h0m5.85-1.78h0M11.51,192.44h0m8.5-.53h0m8.68-.54h0m9-.53h0m8.68-1.06h0m9.57-.89h0m31.53-4.6h0m6.2-1.07h0m6.56-1.06h0m-96,1.06h0m3.36-9.56h0m167.3,25.86h0M162.51,197h0m-11.34-3.3h0m36,7.73h0m12.05,1.07h0m10.8.7h0m10.81.36h0m12,0h0m-64.31-15.95h0m11.16,1.78h0m30.82,2.83h0m8.69.53h0m8.85,0h0m8.51,0h0M190,180h0m14.18,1.06h0m14.52,1.42h0m14.89.7h0M236.75,173h0m-.89-11.52h0M211.53,70.19h0M202,69.31h0m-10.27-1.42h0m-9.75-1.59h0m-11.16-2.13h0M158,61.33h0m76.19,19.49h0m-11.52-.35h0m-12.22-.71h0m-12.41-1.24h0m-14.35-2h0M145.09,69h0m-12.58-3.72h0M238.28,45h0m-9.39-1.6h0m-10.45,8h0M210.11,50h0m16.3,2.83h0m8.68.89h0m2.66,8.86h0m-7.8-.89h0M222.34,61h0m-8.15-.89h0M206.75,59h0m-16.84-3h0m8.86,1.77h0M56.33,5.54h0m6.2-3.9h0m11-.35h0M69.09,4.12h0m11.34-.35h0m3-2.84h0M68,238.85h0m-8.85,0h0m-13.47.36h0m5.85-3.37h0M39,1.45h0M38.79,8h0m6.73-3h0M53,1.63h0M45.7,239.21h0m5.85-3.37h0"/>
      <path class="cls-6" d="M27.07,16.19A116.84,116.84,0,0,0,43,11.59M96.77,29.48a116.16,116.16,0,0,1-16.49-1.83m31.83,68.8a92.7,92.7,0,0,1-14.71-.71m51.56,82a66.29,66.29,0,0,1-12.4,1.24M118.1,207.67a92.08,92.08,0,0,1-14.62-1.77m9.13,33.72c-4.36-.11-8,.28-11.84-.55M204.4,147.86a93.21,93.21,0,0,1-14.4-3.05M88.54,160.49A91.67,91.67,0,0,1,74,158.1M19.81,209.3c-4.34.47-8.49,1.21-12.41.89M202.6,191.6a52.26,52.26,0,0,1-11-.76m33.48-19.13a91.85,91.85,0,0,1-12.58-1.6m-13.11,51a115.86,115.86,0,0,1-15.47,5.38m-113.62-4.9a124.48,124.48,0,0,1-16.12-5.49M170,208.77c-4.25-.35-8-.89-11.87-1.59m32.07-83.63a116.08,116.08,0,0,1-15.77-5.17M60.23,83.75a119,119,0,0,1-16.15,3.81M30.2,139.48a117,117,0,0,1-16.6.16M92.14,124.2a117.67,117.67,0,0,1-16.47,2.1m-43.2,48.1a116.84,116.84,0,0,1-16.6-.27M45.14,109.2A117,117,0,0,1,29.37,104M177.53,16.6a117.48,117.48,0,0,1-16.35-2.84M155,41.17a118.22,118.22,0,0,1-16.25,3.42M230.58,7.21a117.75,117.75,0,0,1-16.5-1.77m0,38.11a117.79,117.79,0,0,1-15.91,4.72M172.8,75.19a116.12,116.12,0,0,1-16.25-3.37m77.19,46.25a119.05,119.05,0,0,1-16.25-3.37m20.15-42.34c-5.06-.18-11.44-.53-18.17-1.42m-6.92,18.75a103.61,103.61,0,0,1-15.4-.5M58.41,47.84A116.94,116.94,0,0,1,42.53,43m59.23,28.06a118.83,118.83,0,0,1-15.68,5.43m57.49,50.2a117.57,117.57,0,0,1-16.08,4.1M167.31,154a116.93,116.93,0,0,1-16.47,2M80.33,185.67a117.3,117.3,0,0,1-16.48,2"/>
    </pattern>
    <clipPath id="clip-path-5">
      <path class="cls-2" d="M4101.88,1260.52H-213.33v-1536H4101.88Z"/>
    </clipPath>
    <pattern id="New_Pattern_Swatch_4" data-name="New Pattern Swatch 4" width="166.82" height="166.82" patternTransform="matrix(0.75, -0.03, 0.03, 0.75, 23.13, 474.89)" patternUnits="userSpaceOnUse" viewBox="0 0 166.82 166.82">
      <rect class="cls-2" width="166.82" height="166.82"/>
      <path class="cls-6" d="M5.54,0a36.2,36.2,0,0,0,16.2,17.54C30.51,22,35.06,29.93,37.33,34.3c2.53,4.87,11.79,12.38,18.42,15.49S71,61.87,72.51,66.55,84.2,81,89.27,83.7s14.42,11.69,16.37,16,9,12.48,16.76,16.76,14.81,12.09,16.76,16.76,9.74,13.65,16.76,16.76c3.76,1.68,7.67,5,10.9,8.7M23.66,0a36.25,36.25,0,0,0,16.2,17.54C48.63,22,53.18,29.93,55.45,34.3,58,39.17,67.24,46.68,73.87,49.79s15.2,12.08,16.76,16.76S102.32,81,107.39,83.7s14.42,11.69,16.37,16,9,12.48,16.76,16.76,14.81,12.09,16.76,16.76c1.28,3.08,5.09,8,9.54,11.91m0-23.15a44.05,44.05,0,0,0-7.73-5.52c-7.79-4.28-14.81-12.47-16.75-16.76S131,86.43,126,83.7,110.76,71.23,109.2,66.55,99.07,52.91,92.44,49.79,76.56,39.17,74,34.3C71.75,29.93,67.21,22,58.44,17.54A36.15,36.15,0,0,1,42.24,0M60.81,0A36.2,36.2,0,0,0,77,17.54C85.78,22,90.33,29.93,92.6,34.3c2.54,4.87,11.79,12.38,18.42,15.49s15.2,12.08,16.76,16.76S139.47,81,144.54,83.7s14.42,11.69,16.37,16a33.67,33.67,0,0,0,5.91,8.09m0-21.58a29.27,29.27,0,0,0-3.7-2.49c-5.07-2.73-15.21-12.47-16.76-17.15s-10.14-13.64-16.77-16.76S113.71,39.17,111.18,34.3C108.9,29.93,104.36,22,95.59,17.54A36.15,36.15,0,0,1,79.39,0m87.43,69.92a14,14,0,0,1-1.89-3.37c-1.56-4.68-10.13-13.64-16.76-16.76S132.29,39.17,129.75,34.3c-2.27-4.37-6.82-12.28-15.59-16.76A36.25,36.25,0,0,1,98,0m68.86,49.83-.07,0c-6.63-3.11-15.88-10.62-18.42-15.49-2.27-4.37-6.82-12.28-15.59-16.76A36.2,36.2,0,0,1,116.54,0m50.28,34.13c-2.3-4.4-6.84-12.16-15.5-16.59A36.22,36.22,0,0,1,135.11,0m31.71,15.74A36.55,36.55,0,0,1,153.69,0M0,158.66a42.08,42.08,0,0,1,5.69,8.16M0,145.11A29.59,29.59,0,0,0,7.22,150c6.52,2.9,13.46,10.76,16.59,16.86m18.58,0c-3.14-6.1-10.08-14-16.59-16.86C18.78,146.84,11,137.88,9,133.2c-1.26-3-4.66-7.39-9-11.24m0-14.19a45.76,45.76,0,0,0,10.85,8.67c7.79,4.29,14.81,12.09,16.76,16.76S37.35,146.85,44.37,150c6.52,2.9,13.45,10.76,16.59,16.86m18.58,0c-3.14-6.1-10.08-14-16.59-16.86-7-3.11-14.82-12.08-16.77-16.76s-9-12.47-16.75-16.76S14.62,104,12.67,99.68C11.13,96.31,5,90,0,86.19M0,69.92c3.57,5,10.83,11.61,14.87,13.78,5.07,2.73,14.42,11.69,16.37,16s9,12.48,16.76,16.76,14.81,12.09,16.76,16.76S74.51,146.85,81.52,150c6.52,2.9,13.46,10.76,16.6,16.86M0,49.83C6.62,53,15.13,61.89,16.69,66.55S28.38,81,33.45,83.7s14.42,11.69,16.37,16,9,12.48,16.76,16.76,14.81,12.09,16.76,16.76S93.08,146.85,100.1,150c6.52,2.9,13.46,10.76,16.59,16.86M0,34.13l.09.17C2.62,39.17,11.88,46.68,18.5,49.79S33.7,61.87,35.26,66.55,47,81,52,83.7s14.42,11.69,16.37,16,9,12.48,16.76,16.76S100,128.53,101.91,133.2s9.75,13.65,16.76,16.76c6.52,2.9,13.46,10.76,16.6,16.86M0,15.74a32.42,32.42,0,0,0,3.07,1.8C11.84,22,16.39,29.93,18.66,34.3c2.53,4.87,11.79,12.38,18.42,15.49s15.2,12.09,16.76,16.76S65.53,81,70.6,83.7,85,95.4,87,99.68s9,12.48,16.76,16.76,14.81,12.09,16.76,16.76,9.74,13.64,16.76,16.76c6.52,2.9,13.46,10.76,16.59,16.86M35.59,20.26l-7.37-3.15M25.47,33.74l7.37,3.16m15.47-5.08L48,39.54M68.17,54.87l8.24,3.68M86.77,76.39,95.28,79m-26,8.76-6.82-2m49.42,17.42L114,95.13m23.83,27.38-7.18-5.67m17.42,18.72,6.78,2.58M33.72,1.26l2.42,6.51M52.28,24l6-3.12m6.8,18.76,8.66-.53M35.83,52.9l-6.7-.61M94,66.64l1-8.42m14.79,17.34,3.65,7.5m16.15,21.23,4.13-7M92.68,98.44,95.56,94m-39-82.6,4.55-3.51m47.28,47.84,7.6,4M64.94,71l8.6,5.27M84.47,38.88l1.06-7m40.54,47,8.77,1.06M149,102.64l6.88,1.27m-1.44,14,2.1,7M6,32.92l4.56-3.5M45.65,71.14l1.05-7M81.57,101l2.14,5.61m30.78,30.56-2.11-7M5.94,12.07,14.35,17m98,99.88,6.17,1.81M129.76,135l4.74,6.19m1.16,19.91,2.84-5.19m13.58-3.61,1.83,5.77M96.28,121.38l4.66-2.94M50.56,51.14l2.81,7.72M126.42,3.3l7.37,3.16m21.48,29.77.94-9.92m-28.8-2.5,9.48,1.38m10.24-13.75,8.66-.53M109,19.22l3.78,8m40.49,20.89,7,3.8M89,7.23l4.56-3.5m40.24,47,1.05-7m20.36,37.81,1.05,8.06m-70.57-71,8,1.89m37.09,43.23h6.08M60.4,142.55l8.07,2.11M20.23,149.1l-5.75.52m-11-47.87,8.42,2.1m48.79,2.09,4.3-3.09M12.78,124.51,14.89,134M64.8,164l7.49-3.66M46.35,157l-7-4.13M51.16,128.3l-4-6.94M29.07,86l3.31,6.15M22.71,71.38l3.58-4.91M7.39,51.35,8.3,45.6m14.82,61.74,2.7-6.38M48,90.09l-2.66-4.82M43.77,109l4.85-4.58m35,35.23L81,144.93M67.39,127.41l-2.31-6.69m-22,24.92,1.18-8.31m56.58,9.95,5.72-2.45M8.8,163.59l2.4-6.31M2.12,81.46l6.16,2.31m2-16.83L4.4,68.34m22.48,55.79,7.56,2.28m51,2.89,2.31-5.19M104.43,39.7l8.07,2.1m-12,119.69,2.31-5.2"/>
    </pattern>
    <pattern id="New_Pattern_Swatch_22" data-name="New Pattern Swatch 22" width="184.94" height="184.93" patternTransform="matrix(0.92, -0.58, 1.11, 0.48, 109.64, 184.71)" patternUnits="userSpaceOnUse" viewBox="0 0 184.94 184.93">
      <rect class="cls-2" width="184.94" height="184.93"/>
      <path class="cls-4" d="M127.32,173c7.46.12,19.94,1,24,1.34,5.1.43,14-.42,21.26-.85M122.85,173c1-.09,2.59-.1,4.47-.07M134.46,7.4c3.84-.22,8.86-.33,14.12-.38m-24,1.69c1.47-.2,2.77-.41,3.81-.66a42.21,42.21,0,0,1,6.08-.65m-9.89,1.31c-8.74,1.15-23.53,1.47-26.8,1.47M148.58,7c5.43,0,11.12,0,16,0m5.67,0,5.53.08M164.59,7c2.06,0,4,0,5.67.06m14.67.16c-3,0-5.44,0-7.18,0l-2,0m-29.51,19c2.56-.05,5.58-.07,8.84,0m-8.84,0c-2.84.06-5.1.14-6.42.14m20.07.05c7.42.37,14,.74,15.11.8m-19.92-1c1.27,0,2.56.08,3.87.14l.94.05m15.11.8h.16c3,.08,6.26.21,9.73.35m-14.3,20.33c-3-.06-7-.06-11.21.16-8.08.42-20.41-.43-25.09,0m50.6-.49c-3.65.14-7,.31-9.74.49,0,0-1.79-.1-4.56-.16m14.3,15.19c-3.27-.07-7.3-.32-10.59-.57,0,0-24.7.85-37.88.42-4.42-.14-9.6-.29-14.73-.38m-23.54.38c3.39-.57,13.37-.57,23.54-.38M66.6,84.85c3-.42,17.33-.47,26.69-1.32s30.41.63,45.29,1c2,.06,4,.16,6.18.29m0,0,2.55.17m0,0c9.65.7,19.84,1.92,24.81,2.54m11.2.59c-2.07,0-4,0-5.53,0m-5.67-.55,2.26.3m3.41.25c-1,0-1.9-.07-2.59-.14l-.81-.11m10.54.27-1.61,0M113.07,99.89c3-.42,12.76-.42,17.43-.85s17.44.43,24.67.85,21.73.85,21.73.85a77.21,77.21,0,0,1,8,0m0,35.38c-3,0-5.44-.06-7.18-.06,0,0-15.35,0-25.13.86s-25.09,1.7-34.44,2.12-14.89-.42-17.44,0m75.48,17,5.52.18m0,0,3.19.14m-12.12-.55a84.23,84.23,0,0,0-11.27-.23c-4.67.43-20.83-1.27-23-.85m37.63,1.31-1,0s-.95-.09-2.39-.2m.83,17.21c3.17-.21,7-.39,11.29-.55m-30.19-52.6H162c3,0,12.38-1.28,12.38-1.28a105.41,105.41,0,0,1,10.58.23m-115-110L63,8.68M21.65,7.61c14.64.27,29.94.63,35.3.87,1.82.07,3.87.14,6,.2m15.86.42A85.61,85.61,0,0,1,88,9.75m-18.07-.9c3.09.07,6.16.15,8.93.25M12.3,7.43l9.35.17M0,7.26c3,0,6.46.08,10.21.14m2.12,0-2.13,0M126.68,25.48c-5.15,0-10.31.74-16.5-.19M20.55,28.36c-6.91-.21-14.07-.55-20.58-.83m103.41-2.88a33.27,33.27,0,0,1,5.44.41l1.36.23M20.55,28.36c10.53.31,20.47.31,26.62-.75,12.33-2.13,17-2.55,27.21-2.13,8.09.34,20.72-.93,29-.83M0,47.53c22-.87,56.55-1,64.2.06.68.1,1.39.19,2.14.27m48.89-.27c-2.55-.42-16.16-.42-20.84.43-4.32.79-18.82.84-28-.16m-36,14.86c-1.81.23-4,.46-6.74.61-8.08.42-15.95-.85-18.5-.43a33.07,33.07,0,0,1-5.1.15m84.19-.15c-17.86.85-31.89,1.27-41.25-.42-5.32-1-7.77-.37-12.6.24M50.44,87.3a115.13,115.13,0,0,1-13.68,1.13m-18.7-.34,2.26.09M15.58,88l2.48.08m34.06-1-1.68.26M36.76,88.43c-3,.08-6,.06-8.71,0m0,0c-2.78-.06-5.38-.16-7.73-.25M0,88.15C4.4,88.1,9.39,88,13.58,88l2,0M97.77,99.89c-9.54,0-27.34-.78-39.89-.89m0,0A89.6,89.6,0,0,0,45,99.47c-6.8,1.27-11.48,1.7-25.51,1.7-2.26,0-4.38,0-6.37-.06m-3-.07c-3.95-.1-7.31-.23-10.15-.33m13.19.4-3-.07M.84,136.1l4.11.06m58.81,1.37c9.25.24,20.19.38,24.23,1.05M7.28,136.19l-2.33,0m58.81,1.37-3.61-.1M7.28,136.19c17.36.26,42.48.81,49.67,1.12l3.2.12M44.62,156.8q1.37-.15,2.55-.36c9.25-1.59,14.2-2.23,20.41-2.27m-23,2.63C33.83,158,15.14,157,0,156.37m67.61-2.2c2.06,0,4.26,0,6.8.15,10.2.42,27.64-1.7,34.44-.43s12.33.43,17.86.43m-24.87,18.06c1.5,0,3-.06,4.46-.06m-4.46.06a68.58,68.58,0,0,0-9,.65c-4.68.85-21.26.85-30.19-.43-7.48-1.07-40.59-.94-62.65-.13m106.3-.15a68.71,68.71,0,0,1,7.37.28m-40.1-54.36,2.34,0m67.61-.21c-3.1-.58-5-.64-14.26.55-13.18,1.7-31,1.7-39.12.43a61.92,61.92,0,0,0-6.29-.53m-63.27,1.72c1.19,0,2.28.08,3.23.08A156.85,156.85,0,0,0,44.62,119c4.2-.53,17.47-.89,28.92-.79m75.25.79c-2.43-.39-4-.73-5.3-1M20.55,120.22C14.92,120,7,119.25,0,118.84m75.91-.58c1.7,0,3.35.07,4.89.12m0,0c1.07,0,2.09.07,3,.12m-76,66.43v-10.8m-4.68,10.8V174.35m7,10.58v-10.8m2.13,10.8v-11m2.77,11v-11m59.31,11V175.2m2.34,9.73v-9.31m2.13,9.31v-9.52m2.76,9.52v-9.52m-60,9.52v-11m5.18,11V173.71m6.94,11.22V173.71m87.6,11.22V175m8,10V174.77m2.84,10.16V174.28M117,184.93V174.77m-6.45,10.16V174.35M146,184.93V174.85m-6.18,10.08V174.64m-2.93,10.29v-10.5m-2.45,10.5V173.79m17.94,11.14v-9.65m5,9.65v-9.65m-8.86,9.65v-9.86m-78.66,9.86V175.2m30.4,9.73V174.35m2.33,10.58v-10.8m2.13,10.8v-10.8m2.77,10.8V174.35M56,139.21v14.9m1.87-14.47v14.68m2.42,0V139.21m-9.73.21v14.69m17-14.26v14.32m0,.15v-.15m-5.11-.63V139.07m24.45,45.86v-9.52m8.93,9.52V174.56m74.41,10.37v-9.52m5.53,9.52V175M5.29,156.44V138.83m5.17,17.4v-17.4M21.6,156V136.91m-1.87,17.62V137.76M17.4,156.23v-17.4m27.22,18v-.07m.8,0V137.72m-5.27,18.93V137.93m-6.23,17.94V139.11M26.48,155V138.26m-2.63,17.19V138.68m149.61-.84v17.41m2-17.94v17.52m-3.56-17v17.41m9.92-18v16.77m-2.19-15.92V154.9m-1.92-16.49v16.77M42.91,156.87V137.51m124,47.42v-9.1m-71-23V141.26m8,11.36V139.35M91.53,152.62V140.84m-6.45,11.35V141.47m35.43,12.21v-13m-2.26,12.76V140.78m-4.89,12.47V140.92m-3,12.12V140.71M108,152.62V140.28m18.92,13.83V138.75m5,15.36V138.82m-8.85,15.07V141.34M74.8,152.19V139m2.34,13V139.21M79.27,152V139.42M82,152.19V139M70.34,152.4V139.21m74.41-.67v14.71m5.53-14.63v14.21m-8.93-14.43v15.28m-2.27-15.2v15.41m21-15.35v14.71m5.52-14.63v14.21m-8.93-14.43v15.28m-2.26-15.2v15.41m10.2,31v-8.88M7.84,0V7.24M3.16,0V7.24m7,.16V0m0,7.43v0m2.13,0v.22M12.3,0V7.44M15.07,0V7.24M74.38,0V8.73M76.72,0v9m2.13.21V9.1m0-9.13V9.1M81.61,0V8.73m-60-1.07V7.6m0-7.63V7.6M26.83,0V7.66M41.21,0V7.66M54.53,0V7.88M46.32,0V8.09M52,0V7.88M33.77,0V7.66M61,0V8.51M121.37,0V8.73m8-8.76V6.81M132.21,0V6.32M117,0V8.3M110.59,0v9M146,0V6.39M139.84,0V6.46M136.91,0V6.6m-2.45,1.06V7.4m0-7.43V7.4M152.4,0V6.39m5-6.42V6.46M148.58,7h0m0-7V7M69.92,0V8.85m0,.09V8.85M100.32,0V9.58M102.65,0V9.79M104.78,0V10m2.77-10V9.58M86.92,0V9.36M95.85,0V9.79M170.26,0V7.08m0,0v.09m5.53,0v.07m0-7.27V7.16M57.71,0V7m-16.5,177.9V173.75m13.32,11.18V173.11m-8.21,11.82v-11.4M52,184.93V173.32m9,11.61V174.39m-3.28,10.54V172.47M166.86,0V7M164.59,0V7m0,.07V7M6.57,63.88V86.8m-4.67,0V64.09m7-.21V87M11,63.66V87.23M13.8,63.67V86.8m59.32-3.41V65.92m2.34,17.69V66.35m2.12,17.47V66.14m2.77,17.25V66.14m-58-2.47V86.25m5.18-22.8v22.8M41.91,64.43V86.25m11.78-22V85.91M47,64.22V86.67M50.72,64V85.48m-16.25-23V86.25M59.72,65.07V85.14m60.38-3.7V65.71m8-.21v17M130.94,65V82M115.78,81V65.5m-6.45,16.15V65.07M144.76,85v-.1m0,0V65.58m-5.33.64V83m-2.35-17.59V82.17M135,66V83.1M133.2,64.52V83.31M151.14,66V85m5-19V85m-8.86,0V65.79m0,19.82V85M68.65,83.6V65.92m30.4,16.36V65.07m2.34,17.43V64.86m2.13,17.85V64.86m2.76,17.42V65.07M54.75,28V45.81M57.26,28.4V46M59,28V46M49.31,30.15V44.83m17,3V48m0-20.34V47.86m-5.1-20v17.4M85.66,82.07V66.14M94.59,82.5V65.28M169,64.18V85.75m5.53-22v24M56.24,64.86V85.35M4,29.55V47.17M9.2,29.55V47m9.49-17.4V47m1.86-19.32v.73m0,18.38V28.36m-4.41,1.19V47m28-16.55V46.61m-5.27-16V46.4M32.65,29.83V46.6M26.06,29V45.75M23.87,29.83V46.6M175,47.72V27.18m0-.52v.52m-2.3,20.11V28.57m-2.11,19.36v-.07m0-19.29V47.86M180.55,28V46.73m-2.2.85V28.85M41.65,30.19V46.61m124,18v21m-71-58.52V47.47m8-21.32V46.28M90.27,26.66v20.6m-6.45-20V46.83m35.43-20.3V47.34M117,47.13V26.61m-2.48.06V47.13m-5.45-20.6V46.7m-2.34-.42V27.09m18.92,19.7V27.51m5,19.28V27.59m-8.86,20V27.17m-48.26-.38v20M75.88,27V46.62M78,27.21V46.62m2.76-19.83v20M69.08,27V46.07m74.41.85V27.31M149,46.49V27.39m-8.92,20V27.17m-2.27.07V47.55m21-.63V27.31m5.53.08v19.1m-8.93.85V27.17m-2.26,20.38V27.24M54.75,117.48V100.64m1.66,16.63V100.64M59,117.7V100.64m-9.73,17.83V100.85m17,16.85V101.27m-5.1,15.65V100.49M4,118.85V102.21m5.18,0v16.42m11.35,1.75v-.16m0-18v18m-2.29-1.59V102.84m-2.12,15.79V102.21m28,16.08V102.08m-5.27,16V102.29m-6.24,16V101.51m-6.59,17.88V101.64m-2.19,18.6V102.49M175,118.42V101.27m-2.51,15.67V102.12m-1.9,16.51V103.18m9.92-.56v14.81m-2.2.85V103.47M41.65,118.29V101.86m52.94,17.29V101.7m8,16.26V100.77M90.27,118.94V101.28m-6.45-.34V118.5m0,0h0m35.43-17.35V119M117,101.22v17.59m-4.89-.21V101.36m-3,17V101.15M106.71,118V101.7m18.92.43v14.38m5-14.31v14.31m-8.86-14.72v17.44m-48.26-.72v-.27m0-17.82v17.82m2.34,0V100.64m0,17.66v0M78,100.85V118.3m2.76.21v-.13m0,0v-18M69.08,117.74v-17.1m74.41,17.41V101.93m0,16.66v-.54m5.52.12V102m-8.92-.21v15.27m-2.27-15.2v15.41m21,2.31V101.93m5.53,17.22V102m-8.93,17V101.79m-2.26,17.44V101.86m10.2-37V85.68m19.91-21.5V85.75m-3.4-21.15v21m-2.27-20.79V85.68M18.52,64.3V86.88m68,85.57V154.62m2.27,17.9V154.47M91,172.66V155m2.77,17.62v-18M82,172.45V154.83m17,16.85V155.25M37.55,170.87V158.14m4.37,12.52V158.14m14.39,12.52V156.19M65,172.4V154.28M61.41,172.4V155.63M26.48,171.29V158.78m8.71,12.3V157.85m-3.61,13.23V159.21m17.29,11.45V156.19m27.21,17.06V155.08m-4.46,18V155.29m2.76,18V154.87m52.94,18.26V173m0-17.28V173m8,0V156.71M123,155.26v17.66m-6.45-.43V155.9m34.37,17.31V156.32m-1.73,16.47V156.25m-2.41,16.32V156.32m-2.07,17V156.11m-5.27,16.81V155.68m18.92,17.74V156.11m5,17.32V156.18m-9.84,17V156.75M2.1,171V157.76m16.65,13.35v-13M16.48,170.9V158.21M14,170.9V158.28m-2.41,13.39V159.33m-3,12.13V159.12M6.21,171V158.69M21.3,171.33V158.78m85-4.38v17.92m0,.17v-.17m2.34,0V155.6m2.13,16.68V155.81m2.76,16.68V155.38M101.81,172.7v-.32m0-17.76v17.76m74.4-16.33v-.14m0,16.67V156.05m5.53-.07v.25m0,15.92V156.23M172.81,173V155.82m0,0v0m-2.26,17.44V155.84M85.23,62.19V49.25m2.4,13V49.33M89.7,62.4V49.68M92.47,62.4V49.25m-11.7.22V62.19m17-.76V48.91M36.29,61.59V47.89m4.37,13.49V48.87M55.05,63.34V47.89m8.71,15.23V47.93m-3.61,15.2V49.3M25.21,47.55V63m8.72-1.19V47.59M30.31,48V62.72m0,.06v-.06m17.3-1.34V46.91m27.21,2.81V63M70.35,49.93V62.78m2.77-13.27V63m52.93-2.08V48.37m8,12.33V49.39M121.73,62.66v-.14m0-14.58V62.52m-6.45-.28V49.56m35,11.44V49.29m-2.35,11.28V48.93m-2.41,11.43V49m-2.07,12.12V48.79m-5.28,11.92V48.37m18.92,12.84V48.79m5,12.42V48.86M152.29,61V49.43M17.49,47.88V62.82M15.22,48V62.6M12.74,48V62.6M10.33,49.07V60.43m-3-12.55v14.3M5,47.46V61.75M20,48.52V63m85-.8V48.06m2.34,14V49.25M109.47,62V49.47m2.77,12.76V49m-11.7,13.41V48.28M175,60.36V48.59m5.53,14.29V48.66m-8.93,12.13V48.45M169.28,61V48.52m-81.21-24V10.58m2.4,14V10.65M92.53,24.7V11m2.77-.42V24.7m-11.69-.21V10.79m17,.42V23.72M39.13,26.83V8.23M43.5,26.62V8.23M57.88,25.64V9.21M66.6,24.45V10.23M63,8.68v0m0,16.77V8.68M28.05,27.25V8.87M36.76,27V7.94M33.15,27V9.3M50.44,26.62V9.21M77.65,25.29V11m-4.46,14V11.25m2.76,14V10.83m52.94,14.34V8.71m8,0V25.94M124.57,8.28v.43m0,16.25V8.71m-6.45,3.15V25.51M152.7,7.94V25.81M150.76,8.3V25.81M148.35,8.37V25.6M146.28,8.15v18m0,0v.17M141,7.73V25.94M159.93,8.15V26.38m0,.07v-.07m5-18.16V26.45m-9.84-.26v0m0-17.44v17.4M3.67,27V7.84m16.65.39V27.07M18.06,8.3V26.86M15.58,8.37V26.86M13.16,9.42V27.63m-3-.22V9.2M7.78,27V8.78M22.87,27.29V8.86m85,1.5V24.53m2.34.76h0m0-13.75V25.29m2.13-13.52V25.3m2.76-14V25.51M103.38,10.58V24.65m0,.1v-.1m74.41,1V8m5.53,17.22V8m-8.94-.21V26M172.12,7.88V26.23M85.23,136.81V120.93m2.06,16.16V121m2.41,16V121.36M92.47,137V120.93m-11.7,15.88V120.17m17,15.87V123.53M35.49,136.21V121.53M40.66,136V120.55M55.05,136V119.57m8.71,18V119.61m0,17.92v.21m-3.61,0v-.31m0-16.46v16.46m-34.94-2.75V122.17m8.72,13.27V121.23m-3.62,14.21V121.61M47.61,136V121.53m27.21,16.08V119.44m-4.47,18V119.65m2.77-.42v18.38m52.93-2.08V123m8,12.34V120.09m-12.33,17.19V122.56m-6.45,14.29V122.22m34.59,12.12v-12m-1.94,12.85V120.61M145.52,135v-14.3m-2.07,15.07V120.47m-5.28,14.85V120.05m18.92,15.78V121.45m5,14.38V121.52m-9.83,14.09V122.09m-134.8,12.4v-14m-2.27,13.74V120.61m-2.48,13.67v-13.6m-2.41,14.37V121.73m-3,15.06v-.6m0-15.65v15.65M5,136.37v-.21m0,0v-16M20,134.71V121.18m85,15.67V122.68m2.34,14V123.87m2.12,12.77V122.13m2.77,14.72V121.7m-11.7,15.37V122.89M175,135V120.27m5.53,14.28V120.34m-8.93,15.06V121.11m-2.27,14.51V121.18m-81.21-37V98.13m2.4-13.85V98.2m1.91-13.7V98.62m2.92-14.4V98.34M83.61,84.42V98.13m17-.77V84.85M39.13,98.51V88.72m4.37,9.57V88.72M57.88,99.27V99m0,0V86.76M66.6,98.08V84.85M63,86.21V99.06M28.05,88.43v12.46m0-12.51v.05m8.71,0V98.72m0-10.29h0m-3.61,12.25V88.81M50.44,87.3v11m0-11.52v.53m27.21-2.62V98.93m-4.46-14V98.72M76,84.46V98.93m52.94-.12V86.26m8,11.36V86.31M124.57,98.6V85.84m-6.45,13.31V85.49m35,13.19V87m-2.35,11.5V86.83m-2.2,10.92V86.39m-2.49,11.7V85.75M141,97.62V85.28m18.92,14.81V87.66m5,12.43V87.74m-9.84,11.15V87.32m-151.45,2v11.32M20.32,88.18v12.53m0-13v.45m-2.26-.37v.28m0,0V100.5m-2.48,0V88m0-.13V88m-2.42,13.1v.15m0-12.33v12.18m-3-.06h0m0-12.32V101M7.78,88.29v12.34m15.09.29V88.37m85,9.8V84m4.47,1.41V98.94m2.76.21V85m-11.69,13.4V84.21m74.41,15V88.13m0,0v-.67m5.53.08v.63m0,10.64V88.17m-8.94,11.49V87.88m0,0v-.56m-2.26.26v-.19m0,12.48V87.58M.83,135.47v-16"/>
    </pattern>
    <filter id="luminosity-invert" filterUnits="userSpaceOnUse" color-interpolation-filters="sRGB">
      <feColorMatrix values="-1 0 0 0 1 0 -1 0 0 1 0 0 -1 0 1 0 0 0 1 0"/>
    </filter>
    <mask id="mask" x="-0.11" y="1.18" width="707.9" height="125.05" maskUnits="userSpaceOnUse">
      <rect class="cls-1" x="589.37" y="14.6" width="118.42" height="111.63"/>
    </mask>
  </defs>
  <g id="reddit_banner">
    <g class="cls-10">
      <g>
        <rect id="Background-2" data-name="Background" class="cls-11" width="4000" height="192"/>
        <rect id="Background-3" data-name="Background" class="cls-12" width="4000" height="192"/>
        <g id="Web_Scene_-_Layer_2" data-name="Web Scene - Layer 2">
          <g class="cls-13">
            <path id="Background-4" data-name="Background" class="cls-11" d="M4101.88,238.52v1022H-213.33V179.4c54,14.69,136.56,31.1,234.21,24.53,73.11-4.92,100-35.29,197-40.94,53.27-3.11,60.86,3.34,123.12-1.9,89.41-7.53,95.16-22.63,143.85-18.53,64.38,5.41,69.19,33,142,40.78,19.3,2.06,27.23,3.46,111.91-6.91,59.24-7.25,121.6-10.58,182.24-16.11,148.56-13.53,162.44-13.93,176.56-14.09,31-.34,66.51.46,120-2.35,46.17-2.42,62.9-3.67,62.9-3.67,32.06-2.4,40.37-3.85,60.37-3.87,25.32,0,26.5,2.6,52.94,2.79,15.08.11,32.24-.39,73.85-4,42-3.65,68.73-6.88,68.73-6.88,109.55-13.28,164.32-19.92,222-21.2,48.29-1.07,88.25,1.43,158.25,5.8,60.77,3.8,87.2,7.33,135.6,5.27,35.19-1.5,67.82-5.36,92.22-8.24,52-6.14,78-9.21,90.3-12,9-2,19.94-4.89,35.57-4.92,5.17,0,14.19.28,41.05,5.13,20.41,3.69,25.23,5.34,34.84,7.06,24.72,4.45,45,3,71.71,3,13.66,0,41.19,2.09,96.25,6.26,76.51,5.8,85.52,7.68,164.47,14,55.41,4.41,99.21,7.33,109.85,8,81.06,5.34,80.37,4,122.09,7.53C2971,149,3024.55,156.15,3043,158.65c42.42,5.73,54,8.31,85.45,10.64,28.28,2.1,51.92,3.85,82.64,3.44,12.28-.16,19.23-.58,31.53.17,18.8,1.15,34.93,4.35,50.65,6,14.59,1.52,24,1.12,32,1.2,54.1.58,113,24.15,189.91,29.49,36.3,2.51,23.36-2.72,116.26-2.83,64.55-.07,92.33,2.43,109.47,4.39,38.28,4.36,53.11,9.36,88,15.73,4.71.86,10.26,1.85,16.91,2.92,41.13,6.56,108.32,10.4,131.9,11.55"/>
            <g id="Fill">
              <path id="Fill_Right" data-name="Fill Right" class="cls-14" d="M965.66,1260.52c-65.06-26.19-87.76-48.81-95.95-65.18-3-5.9-10-23-28.94-27.53-12.82-3.07-20.51,2.2-29.26-1.38-15.1-6.19-13.34-30.56-5.77-47.32,14.42-31.93,55.62-48.87,57.87-49.77,26.92-10.72,49.47-10.12,51.79-19.06,2.17-8.37-22-14.43-19.8-25.41.83-4.08,5.09-8.35,9.14-9.53,25.71-7.5,72.49,101,198,148.24,74.18,27.9,153,25.77,153.82,23.29.73-2.23-60.86-6.5-131-31.76-119.39-43-197.72-123.21-175.14-151.42,5.3-6.63,13.41-7,21.32-18,15.77-21.86-3.44-37.16,10.36-47.35,15.28-11.28,50.15-.92,56.65-10.88,3.77-5.77-6.14-12-1.52-15.88,6.19-5.22,25.75,4.49,39.6-2.12,7.38-3.53,4.73-7.68,12.18-10.59,11.39-4.44,21.89,3.58,33.51,0,6.88-2.12,5.17-6.28,15.23-16.94,6.07-6.44,12.35-13.09,16.75-13.77,27-4.12,112.06,197,115.75,196.24,1.54-.31-3.58-37.38-29.7-81.62-10.5-17.79-22.47-33.47-16.19-37,5.2-2.92,16.25,6.22,44.37,14.49,14.94,4.4,51.4,15.13,87.93,7.48,15.31-3.21,15.83-6.54,22.1-5.36,14.18,2.66,19.06,21.07,36.94,100.85,1.48,6.62,3.45,15.43,4.57,15.36,1.92-.12,2.41-26.68-1.91-55.59-5.61-37.58-15-49.67-3.4-59,10.41-8.43,27.72-6.49,54.8-6.88,72.32-1.07,125.25-17.56,124.89-19.06-.9-3.75-344.49,41.62-377.54-12.52-5.76-9.43-22.58-55.45-33.67-66.89a69.19,69.19,0,0,1-12-16.24,29.24,29.24,0,0,1-2.51-5.43c-2.09-7.55,2.75-13.35,14.75-29.94,4.18-5.77,2.54-3.62,8.32-11.65,15.1-21,17.79-23.89,22.87-27.17,1.94-1.25,6.53-3.7,15.71-8.6,3-1.6,4-2.14,13.3-7,16.76-8.76,11.3-5.94,19.29-10.11,10.38-5.42,13.1-6.79,17.9-9.66,5.8-3.46,5.69-3.77,6.45-3.86,17-2.08,67.45,148.46,73.12,147.64,1.41-.21.45-9.75-4.06-28.24C1338.82,775.61,1305.07,724,1320,718c1.24-.5,5.18-.25,13.08.25a194.35,194.35,0,0,1,28.71,4.09c26.37,5.47,31.06,8.62,33.37,7.1,8-5.26-43.39-45.58-35-51.88,6.8-5.14,53.6,16.1,65,21.3,115.63,52.49-5.55-.84,62.06,26.39,12,4.82,16.17,6.35,17.58,10,5.4,14-41.64,28.12-36.55,45.53,1.08,3.7,4.57,7.77,8.38,7.94,6.66.31,9.54-11.49,23.6-26.47,8.69-9.25,19.15-20.38,35-22.23,14.53-1.7,26.74,5.22,27.42,4.23,1-1.41-7.36-6.08-42.34-20.8-76.19-32.06-92.34-33.34-112.5-50.84-4.09-3.55-34.89-30.29-21.83-45.89,11.1-13.25,48.42-11.89,57.87-11.64a133.41,133.41,0,0,1,41.12,7.41c17.6,6.38,17.75,12.33,47.22,27.53,10.48,5.4,12.33,5.65,14.47,8.47,9.58,12.62-13.66,25.9-6.1,37.59s41.21,13.46,43.41,10c2.3-3.57-29.89-12.75-27.19-22.1,1.49-5.17,13.1-8.56,22.48-8.95,21.68-.91,37.66,13.95,39,13,3.61-2.44-81.48-67.76-81.48-67.76-46.43-35.74-59.49-44.58-54.62-51.83,6.43-9.58,55.8-12.89,98.78-2.17,42.8,10.68,67.63,32.33,82.76,45.53,23.4,20.42,35.1,30.62,35,44.89-.37,34.16-66.67,56.86-55.16,73,2.4,3.36,9.22,7.93,12.08,7,2.43-.76,1-5.15,1-9.18,0-15.64,21.13-27.72,29.44-32.47,9.32-5.32,22.37-12.77,31.07-9.89s8,14.15,8.53,24c2.06,40.6,23.16,69,22.34,69.18s-20.32-29.61-22.34-69.18c-1.72-33.64,11-39.47,0-59.29-10.12-18.3-32.52-34.29-49.2-46.19-7.48-5.34-14.09-9.5-28.21-19.91-29.56-21.8-31.69-26.37-32.25-29.2-2.89-14.64,11.76-31.34,30.46-38.11,30.06-10.9,67.6,9.49,83.77,18,17.54,9.22,52.66,31.22,79.38,90.58,28.47,63.25,22,112.4,24.69,112.36s25.2-53.87-6.9-107.35c-21.78-36.29-45.74-76.2-65.19-96.65-1.88-2-8.16-8.45-7.5-16.8.75-9.47,10.41-21.2,18.83-21.56,32.83-1.38,108,167.89,127.78,240.24,2.25,8.23,7.87,30.11,26.39,33.88s44.8-11.93,42.65-15.53c-1.44-2.41-14.51,2.37-26.4.71-36.14-5.07-30-65.32-63-137.42-30.77-67.19-75.51-100.84-51.75-122.35,6.84-6.19,18.69-8.8,42.4-14,40.81-9,56.82-2.52,106.81-11.55,11.52-2.08,23.73-4.88,37.9-8.89,85.4-24.18,64.14-42.19,152.12-59.29,49.54-9.63,74.83-7.53,149.2-23.3,26.41-5.6,26.76-7.93,30.79-7,5,1.14,66.66,108.31,15.92,194.48-69.46,118-319.33,145-316.85,149.11,2,3.37,170.43-10.69,265.67-84.29,13.33-10.3,44.24-36.46,63.81-31.15,13.07,3.55,13.83,19.16,16.92,32.66,10.88,47.47,47.49,49.36,124.47,143.49,27.19,33.25,48.21,63.27,52.54,61.94,2.87-.88-3.41-15-6-20.72a198,198,0,0,0-33.61-51.28c-65.16-68.52-101.36-91.68-124.18-131.3-21.64-37.56-19.8-70.84-16.65-127.87,1.64-29.7,9.93-106.63-11.94-129.37-1.4-1.46-8.05-8-4.76-12.47,3.45-4.68,15.27-3.58,34.6-11.61.81-.33,1.44-.61,1.91-.81,28.61-12.35,28.1-18.5,41.81-26.87,6.44-3.93,10.85-5.32,14.72-7.29,24.29-12.32-5.4-25.07,6.94-48.18,6.29-11.77,16.18-12.54,16.09-22.23-.1-10.65-12.13-19.26-24.87-26.47-52.08-29.51-106.28-30.07-158-58.77-12.09-6.71-37-20.9-27.06-32.29,1.91-2.18,6.25-5.57,7.1-10.91,1.33-8.4-7.25-13.73-3.44-14.5,4.12-.84,13.19,5.57,36.57,11.38,12.69,3.16,13.5,2.13,38,6.88,26.38,5.11,41.94,9.49,45.34,8.21,1.68-.63-3.61-2.5-1.46-4,2.59-1.78,13.45-1.41,16.09-1.33,23.22.78,40.55,7,65.82,12.71,25.74,5.83,25,3.31,41.95,7.77,36.15,9.52,43.48,22,51.66,21.08,5.78-.67,7-7.49.73-12.7-2.88-2.39-7-4.15-15.48-6.83-8.06-2.55-44.33-14-74.47-15.67a163.89,163.89,0,0,1-19-2.38c-2-.37-11.64-2.19-11-3.45,1-1.87,24.61-1.7,30-1.66,68.05.49,117.14.76,150.14,11,48.34,15,24.75,39.64,78.07,80.14,6.22,4.73,15.46,11.17,34.63,14.85,28.43,5.45,49.76-.72,89.7.51,9.94.3,21.12,1.65,43.48,4.14,23.86,2.65,44,5.53,55.18,7.14,9.73,1.4,18.14,2.68,23,3.43,6.29,1,18.19,2.81,33.22,5.28,9.45,1.56,25.13,4.14,45.66,7.86,43.68,7.92,45.64,7.35,47.22,9,9.37,9.87-31.19,56.9-102.52,79.84-102.6,33-216-.87-226.82,20.22-2.57,5,2.47,9.5,8.52,17.2,21.3,27.08,20.21,49.36,23.36,99.52,8,127.86,24.13,127,9.13,160.24-24.43,54.14-79.06,82.73-74.63,85.41s63.19-24.4,87.32-69.88c12.31-23.19,7.27-51.11-3.31-106-11-56.9-7.14-115.28-24.82-171.36-.81-2.56-2.34-7.18,1.23-10.63,11.9-11.49,57.75,12,118.8,2.64,21.37-3.29,24.58-7.52,33.18-5.28,42,10.95,5.91,122.64,15.42,123.79s17.82-112.72,7.35-120.9c-.14-.12-8-6.26-8-6.26s30.81-9,62.74-20.81c10.77-4,17.43-6.46,26.4-10.59,13.64-6.28,22.74-10.47,31.48-17.65,5-4.11,10.44-11.21,21.32-25.41,10.7-14,12.47-17.37,18.48-19.08,10.46-3,20.85,4.35,33.3,7.08,44.43,9.74,97,25.38,112.1,29.91,16.42,4.94,28.32,8.75,40.15,12.54,59.38,19,102.31,34.9,115.88,40,45.92,17.12,69.41,25.07,70.66,27.62,16,32.62-121.44,69.71-242.07,179.56-54.12,49.27-84.26,94.44-83.52,94.76s33.4-30.87,90.37-87.35c29.89-29.63,35.47-35.53,44.5-35.26,48,1.39,68.52,172.87,73.53,172.38,4.11-.41-1.89-116.26-52-173.55a25.16,25.16,0,0,1-6.06-10.2c-7.67-28.36,57.35-42.68,163.92-106.37,12.36-7.39,30.38-18.49,52.24-16.85,12.69.95,15.53,6.38,51.66,22.55,11,4.93,28.22,12.73,49.17,22.59,12.56,5.92,29.34,13.83,51,24.65,38.09,19,57.32,28.33,58.19,30.16,15.45,32.47-168.22,66.16-226.74,168.9-32.65,57.32-11.47,110-9.14,110.12,3,.1-11.39-84.33,59.52-149.87,24.06-22.24,52.06-36.86,74.51-46.37,8.9-9,30-28.85,42.89-25.68,9.95,2.45,10.54,17.64,10.92,27.09,4.35,107.49,8.94,118.89,16.5,127.84,30.16,35.66,113.49,39.31,116.51,34.52,3.11-5-82.09-14.23-107.69-58.73-23.28-40.48,12.09-93.86-10.09-122.69-2-2.56-9.4-11.42-4.5-18.32,3.75-5.26,12.89-6.87,21.76-8.5,57.69-10.61,54.37-13,63.71-11.94,9.72,1.15,8.11,3.83,55.16,31.69,14.77,8.74,30.14,18.06,48.47,29.5,20.29,12.65,35.58,22.45,46.48,29.48,17.64,11.37,31,20.18,40.75,26.62,19.74,13,29.6,19.56,37.85,25.24,43.13,29.67,65.53,51.59,67,50.82,1.7-.88-24.88-31.07-62.44-63.53-24.67-21.31-63.37-49.08-168.58-111.72-61-36.32-117-65.66-163.44-88.39-48.82-23.93-140.72-66.88-265.15-111.36-62.29-22.26-167.8-60-271-80.29-8.18-1.61-40-7.55-103.57-19.41-52.68-9.84-74.06-13.76-104.58-18.36-54.1-8.15-81.15-12.22-93.29-10.64-10.93,1.42-48.52,7.16-81.91,2.11-6.43-1-25.26-4.39-49.52-31.3-20.44-22.67-40.61-45-16.88-51.37,4.7-1.25,23.25-5.11,78.1,7,183.27,9.19,248.75,12.09,255.18,12,6.68-.07,12.27-.22,22.13-.19,94.54.29,187.32,12.09,187.32,12.09,30.91,3.35,79.81,8.94,139.84,17.1,91.36,12.43,113.39,17.88,162.95,22,87.69,7.26,86.61-4.19,178.61,0,106.94,4.91,129.9,21.37,242,27a1246.53,1246.53,0,0,0,135.84-.53v1022Z"/>
              <path id="Fill_Left" data-name="Fill Left" class="cls-15" d="M1184.08,143.69c9.78,0,25.76-.19,45.31-1.05,52.15-2.3,71.18-6.93,111.39-6.3,23.71.37,21.53,2,46.55,2.89,41.17,1.38,72.64-2.31,110.93-6.95,119.24-14.47,119.59-15.61,150.93-18.5,58.79-5.42,106-5.9,130.18-6.09,107.64-.85,192.8,7.21,206.4,8.65,3.94.42,12.31,1.38,24.48,2.2,28.62,1.91,37.95.29,40.8,1.86,5.82,3.2-20.77,18.75-116.39,46.91-145.87,42.95-195.72,39.71-266.35,71-59.33,26.27-90.13,57.76-80.93,60l.3.06c10.3,1.73,30.91-6.78,37.73-9.59,10-4.14,24.33-11.2,35.1-22.23,16.8-7.42,36.41-16,58.51-25.41,29.52-12.62,39.42-16.54,56.56-19.77,25.82-4.86,51.93-5.09,69.23-4.59,49.85-17.48,74.78-26.22,95.71-33.83,51.34-18.63,93.66-34.84,125.16-47.17,35.32-14.7,69.87-23.62,94-29.11,16.63-3.8,62.08-13.28,75-8.78,6.71,2.33,2.32,7.66-3,13.8-10.06,11.74-25.43,19.09-31.44,22.5-36.5,20.72,21.55,38.14-9.27,65.3-17.24,15.19-40.42,14.07-50.71,29.65s8.5,22.64,5.86,35.29c-2.12,10.13-18,24-117,48-139.89,33.92-273.71,46.38-272.06,48.35.73.87,27.65-.47,73.13-5.29,109.24-11.57,285-30.18,327.65-75.53a23.52,23.52,0,0,0,5.2-7.58,23.88,23.88,0,0,0,1.11-14.55c-1.44-5.89-2.55-14.59-1.92-28.08,54.5-32.49,58.18-50.28,50.46-60.61-1.68-2.25-9-11-4.39-22,3.69-8.75,14.52-17.81,21.21-17.48s3,9.42,10.61,21.07c4.14,6.33,12.24,14.43,62.78,38.77,47.46,22.85,50,20.08,65,29.57,18.53,11.73,48.54,30.7,35.9,49.57-13.53,20.2-74.4,32.72-196.14,57.75C2151,338,2130.8,340.21,2102.46,351.22c-39.93,15.52-34.6,24.7-70.21,44.47-43,23.9-98,36.71-135.87,45.53-19.4,4.52-35.17,7.54-49.24,9.76-59.27,9.35-100,14-125,16.71-62.89,6.91-121,22.33-237.16,53.18-48.8,13-73.67,19.61-96.45,28.24-55.29,20.92-64.83,35.44-100.79,56.88-7,4.19-17.48,9.46-38.31,20.06-66.18,33.65-79.63,36.33-92.4,34.59-8.71-1.2-17.38-4.49-22.34-1.42-5.85,3.63,2.06,10.77-2,18.36-5.26,9.75-24.2,8.79-54.83,18.35-23.5,7.34-19,10-45.69,19.06-26.93,9.15-30,6-57.87,14.82-31.58,10-28.87,14.54-56.86,21.88-22.46,5.89-26.86,3.69-47.72,10.59-21.71,7.18-22.8,11.5-37.57,14.12-21.12,3.75-26.15-3.79-51.33-3.62-16.46.1-36.14,6.42-74.83,19-18.38,6-33.31,11.28-43.4,14.93-40.66,12.65-69.59,26.42-88.34,36.53-30.4,16.41-40.72,26.81-69,34.06-32.81,8.4-42.58.5-74.63,4.94C389.2,888,359.81,909.74,301,953.18,253.9,988,250.9,997.4,222.93,1005.11c-34.61,9.54-45.42-.62-86.55,9.56-36.19,9-37.56,19.22-85.55,37-43,16-44.29,8.61-75.64,21.18-54.57,21.88-54.6,45.73-105.6,67.77-16.86,7.28-43.56,16.21-82.92,19.76v-981c42.45,8.15,74.25,9.81,96.12,9.71,9-.05,21-.41,31,5,17.89,9.69,15.7,30.61,15.12,38-3.62,46.07,20.77,2.72,16.72,134.85C-58.47,500.44-63,567.12-100.25,645.23c-36.35,76.17-84.34,126-79.91,127.64,4.21,1.58,58.85-39.22,83.24-99.53,19.45-48.08,27.17-127.09,47.06-146.41,1.56-1.52,8.4-7.72,9.56-16.65,1.13-8.58-3.58-15.25-4.94-17.37C-55.67,476.64-43.48,466.28-41,434c1-12.79-.71-11.69-1.43-36-1.17-39.86,3.42-42.44,2.4-68.42-1.16-29.5-7.8-60.28-14.22-84.71C-59,226.72-66.32,203.39-53,197.71c4.32-1.83,8.89-1,20.15.49,17.78,2.39,36.05,2.88,53.69,5.73,34,5.5,78.3-7.81,103.63-19.15,3.62-1.62,10-4.66,18.67-4.61,18.1.1,31.44,13.45,36.09,18.11,43.44,43.5-2.18,188.58,77.17,232.24,23.25,12.79,50,12.88,57.87,30.35,11.36,25.1-30.77,53.73-29.44,54.35s46.22-27.48,37.57-54.35c-5.72-17.75-30-20.14-54-35.16-86.19-54-19.31-178.24-78.73-231.54C186.18,191,173.2,180,178.26,172.86c3.26-4.6,12.59-5.65,53.78-7.26,27.36-1.07,41.82-1.49,62.87-2.17,11.48-.37,25.82-1,46.07-2.34,98.67-6.44,106.86-13.71,150.26-12.4,82.36,2.5,79.49,29.48,162.14,37.06A275.14,275.14,0,0,0,694,186.91c21.31-1.14,27.29-4.58,29-3.32,4.56,3.32-13.64,35-53.44,52.56-23.72,10.48-36.78,7.81-47.4,19.49-9.36,10.27-4.46,18.07-16.33,30.82-9.27,10-21.26,14.89-25.56,16.82-18.56,8.34-47.38,29.07-170.57,123.36C334,484.61,250.57,549,185.87,594.28,115,643.93,132.68,624.4,110,643.05c-18.73,15.43-39.43,35.86-60.22,33.11-10.6-1.4-18.22-8.42-25.39-6-7,2.36-6.87,11.42-7.07,13.5-2.61,27.77-150,96.4-150.81,95.56-.26-.27,15.34-8.3,34.14-14.23a213.37,213.37,0,0,1,36.42-8C-.3,748.07,163.4,618.72,210.24,584.05c31-22.94,37.33-24,57.36-42.09,9.69-8.74,11.79-11.71,15.79-11.48,19.67,1.16,47.73,78.06,34.61,147.76-1.66,8.86-4.21,18.77,3,29.37,21,31,101.23,32.26,113.14,32.44,13.14.2,18.14-.7,18.28-1.59.65-4.07-101.31-3-122.8-36-4.49-6.9-2.28-10.39-.82-28.07,2.48-30.06,3.43-108.71-21.68-140.51-2-2.47-7.71-9.3-5.16-16.82s11.34-10.49,23-16.44c6.91-3.54,41.4-21.21,63.05-44.71,4.37-4.74,7.9-9.38,15.16-10.58,12.13-2,24.77,7.21,31.52,12,55.35,39.26,73.81,36.22,74.12,48,.79,29.67-116.25,53.39-134.53,93.18-.93,2-4.34,9.44-1.52,10.59,4.07,1.65,17.35-11.91,41.63-30.36,31.23-23.74,52.33-34,67.52-40.23,18-7.36,27.08-11,33.5-9.18,31.46,9.12-4.22,110.77,1.52,111.53,2.64.35,13.29-20.58,17.77-45.88,4.3-24.28,10.45-60.75-14.72-93.18-33.65-43.36-102.73-54.59-95.52-71.37.86-2,2.28-1.56,11.32-8a167.27,167.27,0,0,0,26.83-23.72C472,389,487.78,377.66,519.41,355c86.82-62.22,99.93-57.34,122.86-85.41,2.75-3.38,5.7-7.29,9.11-7.05,21.6,1.53,16.78,168.34,20.33,168.34,1,0-1.8-12.75,5.91-15.44,15.32-5.36,70.25,29.53,71,65.73.23,11-4.58,20.38-3,20.65,2.15.39,17.65-16.88,14.47-35.47-3.93-23-35.44-42.17-52.32-52.45-10.88-6.63-21.45-11.68-26.65-22.22-4.93-10-2.05-18.85-1-22.74,11.44-42.09-26.44-107.89-11.66-119.28.31-.24,4.15-3.16,8-6.05,0,0,5.88-4.45,11.21-8.46,9-6.79,25.9-19.18,31.82-23.45,30-21.61,44.63-32.93,58.66-37.29,24.8-7.7,31-2,91.47-9.79,34-4.41,44.56-7.86,52.48-3.2,16.09,9.45-3.32,46.1-6.92,52.77,0,0-2.08,3.85-136.8,264.34-9.17,17.72-26.46,52.22-63,92.47-13.81,15.23-16.42,15.9-34.88,35.08-44.8,46.5-82.85,98-78.83,99.74,4.9,2.12,82-66.14,144.17-151.06,52.39-71.59,78-132.95,94.39-173,0,0,90.24-220.45,123-222.81.65,0,9.66-.61,22.58-1.58,2.92-.22,10.14-.77,19.53-1.57,4.28-.36,20-1.7,41.22-3.86,3.65-.37,11-1.13,20.48-2.16,11.89-1.31,22.2-2.51,30.46-3.51"/>
            </g>
            <path id="Outline" class="cls-16" d="M-213.33,179.4S3.37,205.52,20.88,203.93s158.39-31.77,158.39-31.77l94.16-11.71a344.88,344.88,0,0,1,67.55.64,136.69,136.69,0,0,0,40.26-1.48l78.5-15.08a115.09,115.09,0,0,1,48.82,1.25,341.87,341.87,0,0,1,57.71,19.92,230.18,230.18,0,0,0,87.11,20.05c32.41,1.14,51.27-6.26,104.12-11.53,44.64-4.45,104.76-9.83,163.44-13.9,92.28-6.11,165.83-18.36,296.57-16.44,41.64.61,81.59-7.56,123.27-7.54,15.74,0,30.82,3.07,46.55,2.89,83.49-.94,162.61-13.88,243.88-20.87,44.55-3.83,88-10.25,133.61-11.54,41.91-1.19,83.93,2,125.74,3.56,54,2.06,107.32,8.8,161.57,7.73,22.34-.44,43.54-3.75,65.2-5.79,34.33-3.22,69.16-5.89,102.61-10.15,21.34-2.72,42.67-10.44,62.27-9.78,20.64.7,41.65,11.76,62.18,12.84s53,1.65,73.43,2.86q74.13,4.41,147.65,10.11c37.93,3,75,7.3,113.07,10.11,51.35,3.81,103.81,5.42,155.19,9.15,34.87,2.54,69.43,5.63,103.76,9,67.76,6.64,132.84,16.89,201.56,22.06,34,2.56,69.52,1.9,103.59,4.39,29,2.12,51,5,64.77,6.79,116,14.68,149.08,23.93,207.77,29.89,82.35,8.35,72.56-4.26,178.28,1.69,93.55,5.27,114.43,15.88,207.05,23.72a1536.58,1536.58,0,0,0,201.37,3.53M2270.22,92.94c.46-.34-36.4,17.52-33.35,25.34,4.48,11.5-4.87,24,5.32,35.15,13.21,14.44,69.62,38,69.62,38,18.25,6.62,45.38,18.09,65.64,34.82,17.45,14.42,35,28,26.32,42.36-9.88,16.38-54.5,26.67-143.34,46.58-104.47,23.42-123.22,20.54-158,36-29.2,13-23.56,18.42-70.21,44.47-19.47,10.88-42.63,23.81-70.21,33.89-71.49,26.1-135,19.22-239.88,38.11-25.06,4.52-75.12,20.92-175.53,52.95-77,24.54-117,39.09-144,49.31-30.48,11.53-63,19.95-98.33,39.86-11.47,6.46-25.92,15.43-38.58,23.3-41.3,25.64-44.18,29.76-63,38.11-21.64,9.63-24.68,7.21-52.8,19.06-23.47,9.89-29.48,15-47.72,24-34.19,16.89-65.46,24.81-109.66,36-33.34,8.45-42.34,8.78-74.12,18.36-30.35,9.14-28.72,10.83-49.75,16.94-42.63,12.38-62.4,9.26-122.35,18.94-25.79,4.17-43.67,8.3-69,14-57.4,12.93-86.09,19.39-107.13,29.17-32.83,15.28-37.77,26.56-65,29.65-24.52,2.79-28.67-5.44-52.8-2.82-22.14,2.4-31.39,10.71-75.13,35.29-37,20.81-32.39,16-52.8,28.24-64.18,38.54-61.85,57.38-101.54,67.06-31.3,7.63-36.75-3.12-73.1,5.64-38.82,9.36-36.27,22.5-79.2,38.12-47.71,17.36-63.63,5.78-95.44,24-22.66,13-20.57,22.28-48.74,40.94-21.78,14.43-43.13,21.88-56.86,26.83a393.53,393.53,0,0,1-82.92,19.76"/>
          </g>
        </g>
        <g id="Moon">
          <path id="Moon-2" data-name="Moon" class="cls-11" d="M630.53,26a49.19,49.19,0,1,0,66.6,45.78A32.35,32.35,0,1,1,656,28.71h0l10.9-2.09A49.16,49.16,0,0,0,630.53,26Z"/>
          <g class="cls-17">
            <path id="Moon-3" data-name="Moon" class="cls-18" d="M630.53,26a49.19,49.19,0,1,0,66.6,45.78A32.35,32.35,0,1,1,656,28.71h0l10.9-2.09A49.16,49.16,0,0,0,630.53,26Z"/>
          </g>
          <path id="Moon-4" data-name="Moon" class="cls-19" d="M630.53,26a49.19,49.19,0,1,0,66.6,45.78A32.35,32.35,0,1,1,656,28.71h0l10.9-2.09A49.16,49.16,0,0,0,630.53,26Z"/>
        </g>
      </g>
    </g>
  </g>
</svg>
