<svg xmlns="http://www.w3.org/2000/svg" xmlns:xlink="http://www.w3.org/1999/xlink" width="184" height="184" viewBox="0 0 184 184">
  <defs>
    <style>
      .cls-1, .cls-5, .cls-6 {
        fill: none;
      }

      .cls-2 {
        clip-path: url(#clip-path);
      }

      .cls-3 {
        clip-path: url(#clip-path-2);
      }

      .cls-4 {
        fill: #161515;
      }

      .cls-5, .cls-6 {
        stroke: #d9b776;
        stroke-miterlimit: 7.57;
      }

      .cls-5 {
        stroke-width: 1.89px;
      }

      .cls-6 {
        stroke-width: 3.78px;
      }

      .cls-7 {
        clip-path: url(#clip-path-3);
      }
    </style>
    <clipPath id="clip-path">
      <circle class="cls-1" cx="400" cy="1454" r="400"/>
    </clipPath>
    <clipPath id="clip-path-2">
      <rect id="Clipping_Mask" data-name="Clipping Mask" class="cls-1" y="504" width="1500" height="500"/>
    </clipPath>
    <clipPath id="clip-path-3">
      <circle class="cls-1" cx="400" cy="-450" r="400"/>
    </clipPath>
  </defs>
  <g id="Steam">
    <rect id="Background-2" data-name="Background" class="cls-4" x="0.34" y="-0.34" width="184" height="184"/>
    <g id="Lines">
      <path id="Lines_Inner" data-name="Lines Inner" class="cls-5" d="M80,71.27c4.7-22.59-40.23-57-66.11-15.31M62.23,76.39C71,53,39.78,14.23,13.9,56m108.26,74.33C117,66.9,53.93,78.36,48.31,95.36m13.08,62.33c25.59-8.88,35.3-5.16,50.2-33.28,8.81-23.76,30.77-17.64,32.18-16.46M83.48,149.73c-10.92-4.4-37.06-30.62-25.25-51.2,16.15-28.17,64.2.33,97.38-1.33,5.52-.7,12-4.3,15-4.5M127,60.18c3.28,12.7,22.63,1.85,28.66,10.22,6.41,8.89,11.26,29,11.26,29m-133.67-72C82,35,61.38,78.13,61.38,78.13M41.47,152c36.89-15.61,57.75-29.54,58.36-76.09m26.75-15.5s-3.72-12.11,10.24-22.58c0,0-3,10,4.42,15.47,0,0,16.53,8.61,17.93,10.77s11.64,15.43,12.57,33.35c0,0-8.25,5.8-17.25,5.71a19.08,19.08,0,0,1-6.17-1.32A93.16,93.16,0,0,1,129.6,90.89c-2.27-1.79-3.19-6.18-4.07-10.11C123.75,72.92,126.58,60.38,126.58,60.38ZM31.51,28c44.77,19.93-3.83,72.6-4.86,93-.58,10.8.89,18.85,7.7,25.92a23.92,23.92,0,0,0,13.43,7,29.43,29.43,0,0,0,4.41.43,36.63,36.63,0,0,0,4.84-.2,40.69,40.69,0,0,0,6.28-1.71c5.45-1.72,23.93-11.59,32.6-22.53,12.8-16.16,21.25-48.88,22.28-57.61M26.6,121c-.07-2,3.84-14.57,6.91-27.1s6-27.83,2.58-34.77c-4.66-9.57-15.21-10.85-23.49-1.6,4.57-55,77.41-28.86,68,14.11m77.19,31.7s12.59,11.26,4.9,14.29a6.24,6.24,0,0,1-5.34-2.16m-17.9-18.21s-8.67,7.62,12.08,13.49c0,0,8.67,3.41,5.85,9.36a7.38,7.38,0,0,1-10.19,3.19l-4.28-2.18s-22.23,17.35-31.31,3.26c-14-48.53-71-37.33-62.83,4.07m62.83,29a3.65,3.65,0,0,0-.34-.43c-.53-2.92-1.57-7.06-11.14-7.46A203.69,203.69,0,0,0,67.18,151m-5.74,2.52v4h65.14s.7-7.66-11.41-7.89c0,0,9-8,7.41-18.58m-55.4,20s-45.51-33.4-8.38-70.15c0,0,12.91-14.59,37.52-6,0,0,15.59,5.15,21.88-3,0,0,3.26-9.33,8.38-11.42"/>
      <path id="Lines_Outer" data-name="Lines Outer" class="cls-6" d="M162.66,117.25a6.33,6.33,0,0,1-4.95-1.58.07.07,0,0,0-.12.07,5,5,0,0,1-.24,4,7.38,7.38,0,0,1-10.19,3.19l-4.24-2.16a.08.08,0,0,0-.08,0c-.23.18-1.56,1.19-3.58,2.46-5.58,3.3-11.18,6-17.74,6.78a.07.07,0,0,0-.07.09c2.49,10.29-5.06,17.91-6.15,19a.07.07,0,0,0,0,.12c11.25.29,11.26,7.06,11.23,7.82a.08.08,0,0,1-.07.07h-65a.07.07,0,0,1-.07-.08l.42-3.89a.08.08,0,0,0-.1-.08c-9.37,2.65-20.91.11-27.42-6.48h0c-13.88-17.12-5.09-35.8-.83-53,3.08-12.58,6-27.84,2.57-34.78C31.44,49.23,21,47.91,12.73,57c-.05.05-.14,0-.13,0C17.35,2.25,89.89,28.3,80.12,71.18a.07.07,0,0,0,.07.09,44.62,44.62,0,0,1,16.12,3.12s15.58,5.15,21.87-3c0,0,0,0,0,0,.12-.35,3.33-9.29,8.31-11.39a.07.07,0,0,0,0-.08c-.26-.94-3.1-12.38,10.09-22.39a.07.07,0,0,1,.11.07c-.38,1.46-2.33,10.25,4.48,15.27h0c.32.17,16.54,8.62,17.92,10.76S170.79,79,171.74,97a.07.07,0,0,1,0,.06c-4.28,2.74-8.52,5-13.78,5.92a.08.08,0,0,0,0,.13c1.22,1.12,12.07,11.31,4.81,14.17Zm-51.27,39.6"/>
    </g>
  </g>
</svg>
