<svg xmlns="http://www.w3.org/2000/svg" width="184" height="184"><path style="fill:#161515" d="M0 0h184v184H0z"/><path d="M79.67 71.61c4.7-22.59-40.23-57-66.11-15.31m48.33 20.43c8.76-23.41-22.45-62.16-48.33-20.43m108.26 74.33C116.62 67.24 53.59 78.7 48 95.7M61.05 158c25.59-8.88 35.3-5.16 50.2-33.28 8.81-23.76 30.77-17.64 32.18-16.46m-60.29 41.81c-10.92-4.4-37.06-30.62-25.25-51.2 16.15-28.17 64.2.33 97.38-1.33 5.52-.7 12-4.3 15-4.5M126.7 60.52c3.28 12.7 22.63 1.85 28.66 10.22 6.41 8.89 11.26 29 11.26 29M33 27.81c48.61 7.5 28 50.66 28 50.66m-19.87 73.84C78 136.7 98.88 122.77 99.49 76.22m26.75-15.5s-3.72-12.11 10.24-22.58c0 0-3 10 4.42 15.47 0 0 16.53 8.61 17.93 10.77s11.64 15.43 12.57 33.35c0 0-8.25 5.8-17.25 5.71a19.08 19.08 0 0 1-6.17-1.32 93.16 93.16 0 0 1-18.72-10.89c-2.27-1.79-3.19-6.18-4.07-10.11-1.78-7.86 1.05-20.4 1.05-20.4zM31.17 28.3c44.77 19.93-3.83 72.6-4.86 93-.58 10.8.89 18.85 7.7 25.92a23.92 23.92 0 0 0 13.43 7 29.43 29.43 0 0 0 4.41.43 36.63 36.63 0 0 0 4.84-.2 40.69 40.69 0 0 0 6.31-1.64c5.45-1.72 23.93-11.59 32.6-22.53 12.8-16.16 21.25-48.88 22.28-57.61m-91.62 48.69c-.07-2 3.84-14.57 6.91-27.1s6-27.83 2.58-34.77c-4.66-9.57-15.21-10.85-23.49-1.6C16.83 2.9 89.67 29 80.23 72m77.19 31.7S170 115 162.32 118a6.24 6.24 0 0 1-5.34-2.16m-17.9-18.21s-8.67 7.62 12.08 13.49c0 0 8.67 3.41 5.85 9.36a7.38 7.38 0 0 1-10.19 3.19l-4.28-2.18s-22.23 17.35-31.32 3.26c-14-48.53-71-37.33-62.82 4.07m62.82 29a2.84 2.84 0 0 0-.33-.43c-.53-2.92-1.57-7.06-11.14-7.46a203.69 203.69 0 0 0-32.91 1.39m-5.74 2.52v4h65.14s.7-7.66-11.41-7.89c0 0 9-8 7.41-18.58m-55.4 20s-45.51-33.4-8.38-70.15c0 0 12.91-14.59 37.52-6 0 0 15.59 5.15 21.88-3 0 0 3.26-9.33 8.38-11.42" style="stroke-width:1.89px;fill:none;stroke:#d9b776;stroke-miterlimit:7.57"/><path d="M162.32 117.59a6.33 6.33 0 0 1-4.95-1.58.07.07 0 0 0-.12.07 5 5 0 0 1-.24 4 7.38 7.38 0 0 1-10.19 3.19l-4.24-2.16a.08.08 0 0 0-.08 0c-.23.18-1.56 1.19-3.58 2.46-5.58 3.3-11.18 6-17.74 6.78a.07.07 0 0 0-.07.09c2.49 10.29-5.06 17.91-6.15 18.95a.07.07 0 0 0 .05.12c11.25.29 11.26 7.06 11.23 7.82a.08.08 0 0 1-.07.07h-65a.07.07 0 0 1-.07-.08l.42-3.89a.08.08 0 0 0-.1-.08c-9.37 2.65-20.91.11-27.42-6.48-13.88-17.12-5.09-35.8-.83-53 3.08-12.58 6-27.84 2.57-34.78-4.63-9.51-15.08-10.83-23.34-1.76h-.13C17 2.59 89.55 28.64 79.78 71.52a.07.07 0 0 0 .07.09A44.62 44.62 0 0 1 96 74.73s15.58 5.15 21.87-3c.12-.35 3.33-9.29 8.31-11.39a.07.07 0 0 0 0-.08c-.26-.94-3.1-12.38 10.08-22.39a.07.07 0 0 1 .12.07c-.38 1.46-2.33 10.25 4.48 15.27.32.17 16.54 8.62 17.92 10.76s11.62 15.41 12.57 33.32a.07.07 0 0 1 0 .06c-4.28 2.74-8.52 5-13.78 5.92a.08.08 0 0 0 0 .13c1.22 1.12 12.07 11.31 4.81 14.17z" style="stroke-width:3.78px;fill:none;stroke:#d9b776;stroke-miterlimit:7.57"/></svg>