<svg xmlns="http://www.w3.org/2000/svg" width="150" height="150">
  <defs>
    <clipPath id="clip-path">
      <circle class="cls-1" cx="-800" cy="-800" r="400"/>
    </clipPath>
    <clipPath id="clip-path-2">
      <path id="Clipping_Mask" data-name="Clipping Mask" class="cls-1" d="M2484-1200h1500v500H2484z"/>
    </clipPath>
    <clipPath id="clip-path-3">
      <circle class="cls-1" cx="-800" cy="400" r="400"/>
    </clipPath>
    <style>
      .cls-1{fill:none}.cls-5{fill:#fff}
    </style>
  </defs>
  <g id="Youtube_Subscribe" data-name="Youtube Subscribe">
    <path class="cls-1" d="M0 0h150v150H0z"/>
    <g id="Element">
      <rect id="Background" x="2.5" y="118.63" width="145" height="27.22" rx="8.26" stroke="#fff" stroke-miterlimit="10" fill="#161515"/>
      <path id="Button" class="cls-5" d="M35 126a3.35 3.35 0 0 0-2.44-2.29c-2.15-.54-10.76-.54-10.76-.54s-8.61 0-10.76.54A3.35 3.35 0 0 0 8.55 126a34.39 34.39 0 0 0 0 12.47 3.37 3.37 0 0 0 2.45 2.3c2.15.54 10.76.54 10.76.54s8.61 0 10.76-.54a3.37 3.37 0 0 0 2.48-2.29 32.09 32.09 0 0 0 .57-6.24A32 32 0 0 0 35 126z"/>
      <path id="Squirrel_Filled" data-name="Squirrel Filled" d="M30.49 134.89a.75.75 0 0 1-.58-.18.57.57 0 0 1 0 .46.87.87 0 0 1-1.19.37l-.5-.25a3.69 3.69 0 0 1-.41.28 5.22 5.22 0 0 1-2.08.79 2.38 2.38 0 0 1-.72 2.19c1.31 0 1.31.82 1.31.9h-7.69l.05-.45a3.42 3.42 0 0 1-3.21-.75c-1.63-2-.6-4.14-.1-6.14.36-1.45.7-3.22.3-4-.54-1.1-1.76-1.26-2.73-.21.56-6.33 9.05-3.32 7.91 1.65a5.16 5.16 0 0 1 1.89.36s1.82.6 2.56-.35.39-1.07 1-1.32a2.47 2.47 0 0 1 1.18-2.59 1.69 1.69 0 0 0 .53 1.77 16 16 0 0 1 2.1 1.24 7.58 7.58 0 0 1 1.47 3.86 4.13 4.13 0 0 1-1.61.68s1.41 1.31.56 1.64zm-6 4.59" fill="#161515"/>
      <path class="cls-5" d="M43.27 136.94a5.75 5.75 0 0 1-1.86-.88l.82-1.83a5.56 5.56 0 0 0 1.6.79 6.14 6.14 0 0 0 1.87.3 3.06 3.06 0 0 0 1.53-.3.93.93 0 0 0 .49-.82.78.78 0 0 0-.29-.62 2.23 2.23 0 0 0-.75-.4c-.31-.1-.72-.21-1.24-.33a17 17 0 0 1-2-.57 3.2 3.2 0 0 1-1.32-.92 2.49 2.49 0 0 1-.54-1.68 2.88 2.88 0 0 1 .49-1.65 3.32 3.32 0 0 1 1.49-1.18 6.12 6.12 0 0 1 2.44-.44 8 8 0 0 1 2 .24 5.76 5.76 0 0 1 1.69.69l-.75 1.85a5.89 5.89 0 0 0-2.91-.83 2.7 2.7 0 0 0-1.51.33 1 1 0 0 0-.49.87.87.87 0 0 0 .56.81 9.46 9.46 0 0 0 1.72.51 17.23 17.23 0 0 1 2 .57 3.28 3.28 0 0 1 1.31.9 2.45 2.45 0 0 1 .54 1.67 2.81 2.81 0 0 1-.5 1.64 3.33 3.33 0 0 1-1.51 1.18 6.09 6.09 0 0 1-2.44.43 8.82 8.82 0 0 1-2.44-.33zm10.29-.94a4.82 4.82 0 0 1-1.25-3.56v-5.88h2.43v5.79q0 2.82 2.34 2.82a2.18 2.18 0 0 0 1.74-.68 3.18 3.18 0 0 0 .6-2.14v-5.79h2.4v5.88a4.82 4.82 0 0 1-1.25 3.56 4.78 4.78 0 0 1-3.51 1.24 4.75 4.75 0 0 1-3.5-1.24zm20.38-3.41a2.61 2.61 0 0 1 .51 1.64 2.43 2.43 0 0 1-1.07 2.12 5.46 5.46 0 0 1-3.13.74h-5.43v-10.5H70a5 5 0 0 1 3 .74 2.32 2.32 0 0 1 1 2 2.48 2.48 0 0 1-1.39 2.31 2.75 2.75 0 0 1 1.33.95zm-6.71-4.17v2.48h2.42a2.42 2.42 0 0 0 1.36-.32 1.05 1.05 0 0 0 .47-.93 1 1 0 0 0-.47-.92 2.51 2.51 0 0 0-1.36-.31zm4.29 6.58a1.09 1.09 0 0 0 .48-1c0-.87-.64-1.3-1.93-1.3h-2.84v2.59h2.84a2.72 2.72 0 0 0 1.45-.29zm6.42 1.94a5.71 5.71 0 0 1-1.87-.88l.83-1.83a5.43 5.43 0 0 0 1.6.79 6 6 0 0 0 1.86.3 3 3 0 0 0 1.53-.3.93.93 0 0 0 .49-.82.75.75 0 0 0-.29-.62 2.05 2.05 0 0 0-.75-.4c-.3-.1-.72-.21-1.24-.33a17 17 0 0 1-2-.57 3.16 3.16 0 0 1-1.31-.92 2.45 2.45 0 0 1-.55-1.68 2.88 2.88 0 0 1 .49-1.65 3.3 3.3 0 0 1 1.5-1.18 6.08 6.08 0 0 1 2.44-.44 8 8 0 0 1 2 .24 5.8 5.8 0 0 1 1.68.69l-.75 1.85a5.86 5.86 0 0 0-2.91-.83 2.75 2.75 0 0 0-1.51.33 1 1 0 0 0-.49.87.86.86 0 0 0 .57.81 9.31 9.31 0 0 0 1.71.51 17.23 17.23 0 0 1 2 .57 3.21 3.21 0 0 1 1.31.9 2.4 2.4 0 0 1 .52 1.65 2.88 2.88 0 0 1-.5 1.64 3.38 3.38 0 0 1-1.51 1.18 6.18 6.18 0 0 1-2.45.43 8.69 8.69 0 0 1-2.4-.31zm11.25-.36a5.15 5.15 0 0 1-2-1.94 5.58 5.58 0 0 1 0-5.59 5.15 5.15 0 0 1 2-1.94 6.49 6.49 0 0 1 5.38-.22 4.89 4.89 0 0 1 1.85 1.38l-1.56 1.44a3.35 3.35 0 0 0-2.64-1.23 3.56 3.56 0 0 0-1.74.43 3.09 3.09 0 0 0-1.19 1.19 3.74 3.74 0 0 0 0 3.48 3.12 3.12 0 0 0 1.19 1.2 3.56 3.56 0 0 0 1.74.42 3.33 3.33 0 0 0 2.64-1.2l1.56 1.44a4.85 4.85 0 0 1-1.86 1.39 6.15 6.15 0 0 1-2.47.48 6.06 6.06 0 0 1-2.9-.73zm16.16.51-2-2.92h-2.23v2.92h-2.46v-10.5h4.54a5.88 5.88 0 0 1 2.43.47 3.46 3.46 0 0 1 2.13 3.34 3.42 3.42 0 0 1-2.16 3.32l2.36 3.37zm-.62-8a2.51 2.51 0 0 0-1.66-.48h-2v3.66h2a2.51 2.51 0 0 0 1.66-.48 1.67 1.67 0 0 0 .57-1.35 1.64 1.64 0 0 0-.57-1.39zm5.55-2.5h2.43v10.5h-2.43zm14.64 6a2.61 2.61 0 0 1 .51 1.64 2.4 2.4 0 0 1-1.07 2.12 5.44 5.44 0 0 1-3.13.74h-5.43v-10.5h5.13a5 5 0 0 1 2.95.74 2.31 2.31 0 0 1 1 2 2.51 2.51 0 0 1-1.4 2.31 2.75 2.75 0 0 1 1.44.95zm-6.7-4.17v2.48h2.41a2.45 2.45 0 0 0 1.37-.32 1 1 0 0 0 .46-.93 1 1 0 0 0-.46-.92 2.55 2.55 0 0 0-1.37-.31zm4.28 6.58a1.08 1.08 0 0 0 .49-1c0-.87-.65-1.3-1.94-1.3h-2.83v2.59h2.83a2.69 2.69 0 0 0 1.45-.29zm13.5.14v2h-8.13v-10.5h7.93v1.95h-5.52v2.28h4.88v1.89h-4.88v2.43z"/>
    </g>
  </g>
</svg>
