<svg xmlns:xlink="http://www.w3.org/1999/xlink" viewBox="0 0 2632 1513"><defs><linearGradient id="a" x1="36" x2="2596" y1="756.82" y2="756.82" gradientUnits="userSpaceOnUse"><stop offset=".02" stop-color="#161515"/><stop offset=".3" stop-color="#161515" stop-opacity="0"/><stop offset=".7" stop-color="#161515" stop-opacity="0"/><stop offset=".98" stop-color="#161515"/></linearGradient><linearGradient id="c" x1="-2230.1" x2="-790.1" y1="-6130.37" y2="-6130.37" gradientTransform="translate(2790.1 6850.37)" xlink:href="#a"/><clipPath id="b" transform="translate(36 36.82)"><path fill="none" d="M0 0h2560v1440H0z"/></clipPath></defs><g clip-path="url(#b)"><path fill="#161515" d="M36 36.82h2560v1440H36z"/><path fill="url(#a)" d="M36 36.82h2560v1440H36z"/><path fill="url(#c)" d="M560-560h1440v2560H560z" transform="rotate(90 1279.59 756.41)"/><path fill="#d9b776" stroke="#161515" stroke-miterlimit="13.97" stroke-width="4.62" d="m711.26 541.95 11.14.31 9.54-5.76-.31 11.14 5.76 9.55-11.14-.31-9.55 5.76.31-11.14zM250.84 290.08l-6.46-5.9-1.48 8.64-5.9 6.44 8.61 1.48 6.46 5.89 1.48-8.61 5.9-6.46zm68 85.82 5.11-4.58-6.61-1.83-4.58-5.11-1.83 6.61-5.11 4.58 6.61 1.83 4.57 5.11zm346.78 209.44-2.16 8.21 8.08-2.62 8.21 2.16-2.62-8.08 2.16-8.21-8.08 2.62-8.21-2.15zm-260-88.35 2-6.59-6.6 1.9-6.59-2 1.9 6.61-2 6.59 6.6-1.9 6.59 2zm-82.55-7.17 9.38 4.42-1.34-10.28 4.42-9.38-10.28 1.34-9.37-4.42 1.33 10.32-4.41 9.38zm67.68 26.73-8-4.4.6 9.09-4.41 8 9.1-.59 8 4.4-.6-9.1 4.41-8zm-254.09-49.26 2.23 6.22 4-5.23 6.22-2.23-5.23-4-2.19-6.23-4 5.23-6.22 2.22zm442.1 160.59-1.61-8.41-6.21 5.9-8.41 1.61 5.9 6.21 1.61 8.41 6.21-5.89 8.41-1.62zM152.87 593.1l1.4-10.91-9.94 4.71-10.9-1.39 4.71 9.93-1.4 10.91 9.94-4.71 10.9 1.39zm104 62.76 3.12-6.66-7.29 1-6.66-3.12 1 7.29-3.12 6.66 7.3-1 6.66 3.12zm2.79 24.49 3.9-8.35-9.13 1.22-8.35-3.9 1.22 9.13-3.9 8.35 9.13-1.22 8.35 3.9zm-96.61 11.64-7.28-7.78-2.62 10.33-7.77 7.28 10.32 2.62 7.3 7.78 2.62-10.32 7.78-7.28zm1.56 65.94-2.81-8.49-5.63 6.94-8.49 2.81 6.94 5.63 2.8 8.49 5.64-6.94 8.49-2.81zm231.79-19.24-7.72-6.53-1.34 10-6.53 7.71 10 1.34 7.72 6.53 1.34-10 6.53-7.72zm-194.53 70.57-7-1.73 2.33 6.83-1.73 7 6.83-2.33 7 1.73-2.3-6.83 1.73-7zm710-136.06-4.71-8.13-4.3 8.35-8.13 4.7 8.35 4.31 4.71 8.12 4.3-8.34 8.12-4.71zM505.45 785.51l2.85-7.63-8 1.72-7.64-2.85 1.72 8-2.84 7.64 8-1.72 7.63 2.84zm-87.15 35.31-10.54-1.4 4.51 9.64-1.41 10.55 9.64-4.51 10.55 1.4-4.51-9.64 1.4-10.55zm-266 98.45-8.75-.58 4.23 7.68-.58 8.75 7.68-4.23 8.75.59-4.23-7.66.59-8.75zm628.93-184.88-1.17-7.16-5.39 4.85-7.15 1.17 4.84 5.39 1.18 7.16 5.39-4.85 7.15-1.17zm35.21-12.29 6.92 7 2.15-9.6 7-6.92-9.6-2.15-6.92-7-2.15 9.59-7 6.92zM465.37 869.27l-5.53-7.58-3.4 8.75-7.58 5.53 8.74 3.4 5.54 7.58 3.39-8.75 7.58-5.53zm-65.26 53.76 6.41 5.28 1-8.25 5.28-6.41-8.25-1-6.41-5.28-1 8.25-5.28 6.41zm121.28-55.72-4.79 8.33 9.59-.47 8.33 4.79-.46-9.59 4.79-8.33-9.6.46-8.32-4.79zm357-154.82 2.08-6.91-6.94 2-6.91-2.07 2 6.94-2.07 6.9 6.93-2 6.91 2.08zM444.61 960.54l8.92 6.73.86-11.14 6.74-8.92-11.13-.86-8.92-6.73-.86 11.14-6.73 8.92zm30.86-15.2 2 7.74 5.41-5.9 7.73-2-5.89-5.41-2.05-7.74-5.4 5.9-7.74 2zm122.76-64.19-2.11 7.48 7.44-2.26 7.48 2.11-2.26-7.44 2.11-7.48-7.44 2.26-7.45-2.11zm-149.4 130.23-.1 7.25 6.16-3.83 7.25.09-3.83-6.15.09-7.25-6.15 3.83-7.25-.09zm-169.61 188.64 7.29-4.26-7.51-3.84-4.26-7.28-3.84 7.51-7.29 4.25 7.52 3.84 4.25 7.29zm-57.17 67.65 2.58 7.65 5.05-6.3 7.65-2.58-6.3-5-2.58-7.64-5 6.29-7.64 2.58zm422.32-415.63 10.39.32-5.34-8.92.32-10.4-8.93 5.34-10.39-.31 5.34 8.92-.32 10.4zm-376.78 494.1-6.34-1.78 1.93 6.3-1.77 6.33 6.29-1.92 6.3 1.75-1.92-6.29 1.77-6.34zm428.57-514.39-6.13-9-4.28 10-9 6.12 10 4.29 6.12 9 4.29-10 9-6.13zm-299.71 419.66 2.29-10.91-10.42 4-10.91-2.29 4 10.42-2.29 10.91 10.42-4 10.91 2.29zM764 624.68l3-5.42-6.18.4-5.42-3 .4 6.18-3 5.41 6.2-.43 5.42 3zM635.18 857.57l-5.87 5 7.36 2.25 5 5.87 2.25-7.36 5.87-5-7.36-2.25-5-5.87zm-10.3 112.79-7.36-2.28 2.06 7.43-2.28 7.36 7.43-2.06 7.36 2.27-2.09-7.42 2.28-7.36zm-76.54 491.46-3.71 8.83 9.44-1.64 8.83 3.72-1.64-9.44 3.72-8.83-9.44 1.63-8.83-3.71zm46.26-272.14-3.19 5h6l5 3.18v-6l3.18-5h-5.95l-5-3.18zm26 12.7-6.07-1.92 1.66 6.15-1.92 6.07 6.15-1.66 6.07 1.92-1.66-6.15 1.92-6.07zm43.07-10.1-7.46-3.76.85 8.31-3.76 7.47 8.31-.86 7.46 3.77-.85-8.32 3.77-7.46zm-1.3-41.45-1.72 9.86 9.23-3.87 9.86 1.72-3.87-9.23 1.72-9.86-9.23 3.87-9.86-1.72zm57.89 175.74-3.33 6.34 7.13-.62 6.33 3.34-.61-7.13 3.33-6.34-7.11.66-6.33-3.34zm-62.9-355.65-10.15-.57 5 8.86-.58 10.15 8.86-5 10.15.58-5-8.86.58-10.15zm47.5 143.35 5.81 4.68.8-7.41 4.68-5.81-7.42-.81-5.81-4.67-.8 7.41-4.67 5.81zm4.74-106.05-1.27-10.81-8.41 6.91-10.81 1.27 6.9 8.42 1.28 10.8 8.41-6.9 10.81-1.28zm-41-278 6.73-5.14-8-2.9-5.15-6.73-2.9 8-6.73 5.15 8 2.9 5.14 6.73zm26 62-10.67.18 5.91 8.89.17 10.66 8.89-5.9 10.67-.18-5.9-8.88-.18-10.67zm110.18 483.6 10.34-.63-6.12-8.37-.63-10.34-8.37 6.11-10.34.63 6.11 8.36.63 10.35zm45.31 165.59-2.84-5.83-3.38 5.53-5.83 2.84 5.53 3.38 2.84 5.83 3.38-5.54 5.83-2.83zm9.25-23.83 8.43-1.12-5.49-6.49-1.12-8.42-6.49 5.49-8.43 1.11 5.49 6.5 1.12 8.42zm6.46-193.23 1.28 7.21 5.38-5 7.21-1.27-5-5.39-1.28-7.21-5.38 5-7.22 1.28zm12.27-626.88 5.76-8.66-10.4-.18-8.65-5.75-.18 10.39-5.76 8.66 10.4.17 8.65 5.76zm34.33 195.35-1.84-8.31-6 6-8.31 1.84 6 6 1.85 8.31 6-6 8.3-1.84zm28.86 178.22 7.24-6.92-9.73-2.36-6.93-7.25-2.36 9.74-7.25 6.92 9.74 2.37 6.92 7.24zm-3.63 282.58 5.06-7.08-8.69-.44-7.08-5.07-.45 8.7-5.06 7.08 8.7.44 7.08 5.06zm83.31-431.93 10.33-3.59-8.6-6.76-3.59-10.34-6.76 8.6-10.32 3.59 8.6 6.77 3.6 10.33zm-88.1 618.87 7.43 5.56.73-9.3 5.56-7.43-9.26-.67-7.43-5.56-.67 9.26-5.56 7.42zm257.56-952.08-3.62-5-2.25 5.74-5 3.63 5.75 2.24 3.63 5 2.24-5.74 5-3.63zm-210.33 919.09-8.23-1.32 3.34 7.64-1.32 8.23 7.64-3.33 8.23 1.32-3.33-7.64 1.31-8.23zm144.42-502.55 6.57-4.52-7.35-3.09-4.52-6.58-3.1 7.36-6.57 4.52 7.35 3.09 4.53 6.58zm142.37-285 1.6 7.17 5.17-5.21 7.18-1.6-5.22-5.17-1.59-7.18-5.18 5.22-7.17 1.59zm-140.2 783.52.53-9.35-8.19 4.63-9.35-.53 4.59 8.16-.53 9.35 8.17-4.6 9.35.53zm9 49.64-2.33-7.14-4.75 5.81m202.19-925.72-4.67 4.54 6.34 1.48 4.56 4.67 1.48-6.34 4.67-4.54-6.34-1.48-4.54-4.67zm-102.15 618.29-6.74-2.34 1.67 6.94-2.34 6.75 6.94-1.67 6.74 2.33-1.67-6.93 2.34-6.75zm40.62-120.55 4.89 5.1 1.65-6.87 5.1-4.88-6.86-1.66-4.89-5.1-1.65 6.87-5.1 4.88zm45.36-144.76 7.24 2.12-2.12-7.24 2.11-7.24-7.23 2.12-7.24-2.11 2.12 7.24-2.11 7.24zm-83 559.53-2-6.41-4.33 5.13-6.41 2 5.13 4.32 2 6.41 4.33-5.13 6.4-2zm67.13-304.57 4.26 4.51 1.5-6 4.51-4.26-6-1.5-4.26-4.52-1.5 6-4.51 4.25zm117.11-410.85 6.68-5.58-8.3-2.61-5.59-6.68-2.61 8.3-6.67 5.59 8.3 2.61 5.59 6.68zm-21.69 295.71 6.6-7.76-10.09-1.35-7.75-6.6-1.37 10.09-6.6 7.76 10.06 1.35 7.75 6.6zm68.63-335.21 7.43-2.77-6.34-4.76-2.77-7.43-4.76 6.34-7.43 2.78 6.34 4.76 2.77 7.43zm-39.72 283.35 1.65 6.76 4.8-5 6.75-1.65-5-4.8-1.65-6.75-4.8 5-6.75 1.65zM1489 714.82l11.14-.86-6.73-8.91-.85-11.13-8.92 6.72-11.13.86 6.72 8.91.86 11.14zm33.41-162.17-8.11 3.48 7.31 5 3.48 8.11 4.95-7.31 8.11-3.48-7.3-4.95-3.48-8.11zm.72 191.52 8.24 1.67-3-7.84 1.68-8.24-7.84 3-8.24-1.67 3 7.84-1.68 8.24zm-66.35 687.58-4.71-9.36-5.33 9-9.35 4.71 9 5.33 4.72 9.36 5.33-9 9.35-4.71zm105.25-558.84-6.2-1.58 2 6.07-1.58 6.2 6.07-2 6.2 1.58-2-6.07 1.58-6.2zm15.08 99 4.28-8.7-9.63 1.1-8.7-4.27 1.09 9.63-4.27 8.7 9.63-1.1 8.7 4.27zm21.55-71.89-2.29-9.47-6.74 7-9.43 2.27 7 6.74 2.29 9.47 6.74-7 9.47-2.28zm2.59-66.48 4.53 9.53 5.58-9 9.53-4.53-9-5.58-4.53-9.52-5.58 8.95-9.52 4.52zm-12.69 536.67-8.64 7 10.55 3.5 7 8.64 3.5-10.55 8.63-7-10.54-3.5-7-8.64zm61.78-353.5 10.65 3.06-3.17-10.61 3.07-10.64-10.62 3.16-10.64-3.07 3.16 10.62-3.02 10.59zm-5.34 355.3 6.24 8.47 3.76-9.81 8.47-6.24-9.81-3.77-6.24-8.47-3.77 9.82-8.47 6.23zm51.87-719.68 9.92 1-4.54-8.87 1-9.92-8.87 4.53-9.92-1 4.53 8.88-1 9.91zm10.89 418.94 5.3-4-6.23-2.3-4-5.3-2.31 6.23-5.29 4 6.22 2.31 4 5.29zm4.53 12-9.13 2.76 7.24 6.19 2.76 9.13 6.19-7.24 9.13-2.76-7.24-6.19-2.76-9.13zm27.1-111.05-6.16.29 3.56 5 .29 6.16 5-3.57 6.16-.28-3.57-5-.28-6.16zm37.53 106.3 6.35 8.57 3.79-10 8.58-6.36-10-3.79-6.35-8.57-3.79 10-8.58 6.36zm33.94 102.48-6.09 8.44 10.39.58 8.43 6.1.59-10.39 6.09-8.44-10.39-.58-8.43-6.1zm-24.33-237-3.69-6.87-3.79 6.82-6.87 3.69 6.81 3.79 3.7 6.87 3.79-6.81 6.87-3.69zm44.28 136.44 7.37-5.39-8.51-3.29-5.39-7.37-3.29 8.51-7.37 5.38 8.51 3.3 5.39 7.37zm34.56 107.2 6.66 1.57-2.28-6.46 1.57-6.66-6.46 2.28-6.66-1.57 2.28 6.45-1.57 6.67zm32-37.85-4.57-5.67-2.31 6.91-5.66 4.58 6.91 2.3 4.58 5.67 2.3-6.91 5.66-4.58zm63.88 80.78.31-10.6-9.09 5.45-10.59-.31 5.45 9.09-.33 10.62 9.09-5.45 10.6.31zm-124.32-433.04 7.07 8 3-10.3 8-7.06-10.3-3-7.06-8-3 10.29-8 7.07zm127.91 304.11 1.09 10 7.81-6.3 10-1.09-6.3-7.81-1.09-10-7.81 6.3-10 1.09zm62.31 75.1 5.53-2.43-5-3.35-2.42-5.53-3.35 5-5.54 2.43 5 3.35 2.42 5.53zm-34-168-2.28-9.66-6.9 7.13-9.66 2.28 7.13 6.9 2.29 9.66 6.9-7.13 9.65-2.28zm-116.72-290.6-10.43-3.27 2.84 10.6-3.31 10.45 10.59-2.85 10.45 3.32-2.84-10.57 3.31-10.46zm155.28 321.41-5.42-6.53-2.58 8.08-6.53 5.42 8.09 2.58 5.42 6.53 2.57-8.09 6.53-5.42zm120.86 167.16 11 .6-5.43-9.59.6-11-9.58 5.43-11-.6 5.42 9.58-.6 11zm105.89 133.15.14-7.06-6 3.69-7.06-.14 3.69 6-.15 7.06 6-3.69 7.06.14zm71.66 98.52-8.9-2.22 2.93 8.69-2.15 8.97 8.7-2.94 8.9 2.22-2.93-8.69 2.21-8.91zm-408.19-676.31 2.94-5.92-6.57.71-5.92-2.95.71 6.58-2.95 5.92 6.58-.72 5.92 3zm316.86 436.38-6.17.45 3.7 5 .45 6.17 4.95-3.7 6.17-.44-3.7-5-.45-6.17zm-156.21-256.36 4.1-9.74-10.41 1.8-9.74-4.1 1.8 10.41-4.1 9.74 10.41-1.8 9.74 4.1zm323.16 449.4-6.95 5.28 8.2 3 5.28 7 3-8.19 6.95-5.29-8.2-3-5.28-6.94zm-26.57-64.32-7.82 6.36 9.58 3.15 6.36 7.82 3.15-9.58 7.82-6.36-9.58-3.15-6.36-7.82zm-63.36-129.25 3.17-9.42-9.64 2.42-9.43-3.17 2.42 9.64-3.17 9.42 9.65-2.41 9.42 3.17zm-353.76-470.83-8.9.44 5.17 7.25.44 8.9 7.26-5.17 8.9-.44-5.17-7.25-.44-8.9zm121.56 127.65-5.81 3.4 6 3.06 3.4 5.81 3.06-6 5.81-3.4-6-3.06-3.4-5.82zM2002 723.82l-2.27-7.38-5 5.89-7.38 2.26 5.89 5 2.27 7.38 5-5.89 7.38-2.27zm205.57 241.51-.16 7.74 6.61-4 7.74.17-4-6.61.16-7.74-6.61 4-7.74-.17zm-224.15-291.59-2.47 9.53 9.36-3.06 9.53 2.48-3.06-9.36 2.47-9.53-9.36 3.06-9.52-2.47zm15.47-8.12-2 6.93 6.89-2.09 6.92 2-2.08-6.88 1.95-6.93-6.88 2.09-6.93-2zm235.26 256.91 1.74-7.78-7.49 2.74-7.79-1.74 2.74 7.49-1.73 7.79 7.49-2.74 7.78 1.73zm-182-196.38-8.76 5.38 9.26 4.46 5.38 8.76 4.47-9.26 8.75-5.38-9.25-4.47-5.39-8.75zm37.78 21.48 6.55 4.26.06-7.82 4.26-6.56-7.82-.06-6.56-4.26v7.82l-4.27 6.56zm399.69 355.19-6.73-4 .3 7.82-4 6.73 7.81-.3 6.73 4-.3-7.81 4-6.73zm-558.45-577-8.48-4 1.25 9.27-4 8.48 9.27-1.24 8.48 4-1.24-9.28 4-8.48zm431.5 355.28 2.52-10.7-10.36 3.65-10.7-2.52 3.65 10.36-2.52 10.7 10.36-3.65 10.7 2.52zM2187.3 719.74l4.69-8-9.27.37-8-4.69.37 9.27-4.69 8 9.27-.37 8 4.69zm101.64 12.57 7.61-2.39-6.12-5.12-2.39-7.62-5.12 6.13-7.62 2.39 6.13 5.12 2.39 7.62zm187.74 103.67 6.66-2.94-6.07-4-2.95-6.66-4 6.07-6.66 3 6.07 4 3 6.65zm-173.24-111.57 6 .23-3.07-5.21.23-6-5.2 3.06-6-.23 3.06 5.21-.23 6zm-213.09-150.76-2.27-5.8-3.66 5-5.8 2.27 5 3.66 2.27 5.81 3.66-5 5.81-2.27zm478.46 187.47-3.81 5.7 6.81.15 5.64 3.8.16-6.8 3.8-5.65-6.81-.15-5.64-3.8zM1892 496.39l.74-10-8.84 4.79-10-.74 4.79 8.84-.73 10 8.84-4.79 10 .74zm324 93.22 1.3 10.9 8.48-7 10.9-1.3-7-8.48-1.3-10.9-8.48 7-10.9 1.3zm-183.73-36.86 2.36-7.75-7.79 2.19-7.75-2.35 2.2 7.79-2.36 7.74 7.79-2.19 7.74 2.36zm-22.87-4.14 4.92-7.67h-9.11l-7.67-4.92v9.11l-4.94 7.69h9.11l7.67 4.91zm304.13-46.54-7.19-1.38 2.72 6.81-1.38 7.19 6.8-2.72 7.19 1.38-2.71-6.8 1.38-7.19zm-288.3 37 8.79 5.26-.31-10.24 5.25-8.79-10.23.32-8.79-5.26.32 10.23-5.26 8.79zm-72.76 22.27 6.5-4.35-7.17-3.12-4.35-6.51-3.13 7.18-6.5 4.35 7.17 3.13 4.36 6.5zm288-73.16-5.47-9.06-4.7 9.47-9.07 5.43 9.47 4.7 5.43 9.07 4.7-9.46 9.07-5.44zm-365.8 107.24-6.05 4.16 6.77 2.85 4.16 6 2.85-6.77 6-4.16-6.77-2.85-4.17-6zm619.72-341.7-6.08-3.59.26 7.06-3.59 6.08 7.06-.26 6.07 3.59-.25-7.06 3.59-6.07zm-418.33 484.59-2.14 5.84 6.08-1.33 5.84 2.15-1.35-6.08 2.14-5.84-6.07 1.35-5.85-2.15zm444.71-600.11-.16 6.38 5.46-3.31 6.37.15-3.31-5.45.16-6.38-5.45 3.31-6.38-.15zm-448 560.47-7-7.13-2.24 9.73-7.13 7 9.73 2.24 7 7.14 2.24-9.73 7.14-7zm124.79-1.14 9.49 4.62-1.24-10.49 4.62-9.49-10.48 1.24-9.49-4.62 1.23 10.48-4.69 9.55zm54-173 9.69 5-1-10.87 5-9.69-10.87 1-9.69-5 1 10.87-5 9.69zM2270 671.08l-5.92-6.59-2.36 8.54-6.58 5.92 8.54 2.35 5.92 6.59 2.35-8.54 6.59-5.92zm-52.86 163.52 6.95 2.73-1.45-7.32 2.73-6.94-7.32 1.44-6.94-2.73 1.44 7.32-2.73 6.94zm110.33-702.27-3 8.33 8.62-2 8.33 3-2-8.61 3-8.34-8.61 2-8.34-2.95zm-59 21.34-5-8.7-4.64 8.88-8.7 5 8.88 4.64 5 8.7 4.64-8.88 8.7-5zm-8.12 172.74-5.38-9.36-5 9.58-9.36 5.38 9.58 5 5.38 9.35 5-9.58 9.36-5.38zm-46.07-255.13 7.5-.29-4.29-6.17-.29-7.51-6.2 4.31-7.51.29 4.3 6.16.29 7.51zm13 365.88 8 .89-3.58-7.23.88-8-7.22 3.57-8-.88 3.58 7.22-.89 8zm-2.75 182.17-10.14 4 8.85 6.38 4 10.15 6.38-8.85 10.15-4-8.86-6.37-4-10.15zm47.17 258.58 4 5.49 2.44-6.36 5.49-4-6.36-2.45-4-5.49-2.44 6.37-5.49 4zM2151 175.18l6.95.46-3.36-6.1.46-6.94-6.1 3.36-6.95-.46 3.37 6.1-.46 6.94zm53.63 446.93-3.49-10.29-6.78 8.48-10.28 3.52 8.49 6.77 3.48 10.28 6.78-8.48 10.28-3.49zm-53.37-72.29-4.14 10.26 10.87-2 10.26 4.14-2-10.87 4.14-10.26-10.87 2-10.26-4.15zm-70.26-312 2.5 7.14 4.67-6 7.14-2.5-6-4.67-2.5-7.14-4.67 6-7.14 2.5zm50.69 347.77 3.38-6-6.89.4-6-3.38.4 6.89-3.38 6 6.89-.4 6 3.38zm-14.51 151.66-9 6.12 10 4.28 6.12 9 4.28-10 9-6.12-10-4.28-6.13-9zm-37.73-80.68 9.48-4.22-8.66-5.7-4.22-9.48-5.7 8.66-9.47 4.22 8.65 5.7 4.22 9.47zm-84.92-395.55-.69-7.73-6.14 4.75-7.74.69 4.75 6.14.69 7.74 6.14-4.76 7.74-.69zm28.12 345.39-8.73 5.43 9.28 4.42 5.43 8.73 4.42-9.28 8.73-5.43-9.28-4.42-5.43-8.73zM1921 162.32l-5.68 2.48 5.15 3.44 2.48 5.67 3.44-5.15 5.67-2.48-5.15-3.44-2.48-5.67zm3.08 171.74 9.65-5.65-10-5.08-5.65-9.66-5.08 10-9.66 5.64 10 5.09 5.64 9.65zm-60.34-281.47 7 2.28-1.84-7.1 2.29-7-7.11 1.84-7-2.29 1.84 7.1-2.29 7zm45.31 469.51 6.75-1.11-4.57-5.09-1.11-6.74-5.12 4.56-6.75 1.11 4.57 5.09 1.1 6.75zm-69.86-403 6.29 6.55 2.13-8.83 6.55-6.29-8.83-2.13-6.33-6.58-2.13 8.83-6.55 6.29zm44.9 399.79 1.92-10.13-9.57 3.85-10.13-1.91 3.86 9.56-1.92 10.13 9.57-3.85 10.13 1.91zm-.25 168.63 4.8-4-6-1.87-4-4.8-1.87 6-4.8 4 6 1.88 4 4.8zm-94.25 29.84 2.55-9.77-9.6 3.12-9.77-2.55 3.12 9.61-2.55 9.77 9.6-3.13 9.77 2.55zm-58.91-218.08 5-3.32-5.52-2.46-3.32-5-2.45 5.51-5 3.32 5.52 2.46 3.31 5zm-66.18-81.16-6.93-.22 3.56 5.95-.22 6.93 5.95-3.55 6.93.22-3.55-6 .22-6.93zm-27.42-298.83-5.77 4.53 6.9 2.44 4.48 5.77 2.44-6.89 5.77-4.49-6.9-2.48-4.49-5.77zm5.88 498.7 6.14 2-1.64-6.24 2-6.14-6.25 1.63-6.14-2 1.64 6.24-2 6.14zm-7 353.64 3.69 6.49 3.48-6.6 6.5-3.68-6.61-3.49-3.68-6.49-3.49 6.6-6.49 3.68zM1597 75.82l8.56-4.18-8.13-4.95-4.18-8.56-5 8.13-8.56 4.18 8.14 5L1592 84zm-21.53 310.72-5.18-9.43-5.14 9.45-9.43 5.17 9.44 5.15 5.18 9.43 5.14-9.45 9.43-5.17zm-28.65 212.18 3.79 9.36 5.84-8.24 9.36-3.79-8.24-5.84-3.79-9.37-5.84 8.24-9.37 3.79zm-23.32-135.48-.55-6.09-4.83 3.75-6.09.56 3.75 4.82.56 6.09 4.83-3.75 6.09-.56zm-11-178.09 6.6-5.23-8-2.74-5.23-6.59-2.73 8-6.6 5.23 8 2.73 5.23 6.6zm-23.63 30.45-6.26 1 4.24 4.72 1 6.26 4.72-4.24 6.26-1-4.24-4.72-1-6.26zM1482 162.82l7.66.23-3.94-6.57.28-7.66-6.57 3.94-7.65-.22 3.94 6.57-.23 7.65zm-49 280.4-3.87-8.62-5.17 7.92-8.61 3.87 7.91 5.17 3.88 8.61 5.16-7.91 8.62-3.88zm-69.91 440.33 7.82 1.49-3-7.38 1.49-7.82-7.38 3-7.82-1.49 3 7.38-1.49 7.82zm46-799.13-7.43 1.95 5.65 5.2 1.94 7.43 5.21-5.65 7.43-2-5.65-5.2-2-7.43zM1345 221.21l-.53-6.42-5.12 3.91-6.42.54 3.92 5.11.53 6.42 5.11-3.91 6.42-.54zm-43 161-9.9 2.32 7.29 7.09 2.32 9.9 7.08-7.29 9.91-2.32-7.29-7.09-2.32-9.9zM1234.59 821l6.78 4.15-.16-7.95 4.15-6.79-8 .16-6.79-4.15.16 8-4.15 6.78zm77.68-713 9.14-4.21-8.41-5.41-4.21-9.14-5.43 8.48-9.14 4.22 8.48 5.42 4.22 9.14zm-30.61 2.72-7 6.89 9.56 2.14 6.9 7 2.14-9.56 7-6.9-9.56-2.13-6.89-7zm-36.16 11.24-6 9.22 11 .05 9.23 6v-11l6-9.23h-11l-9.22-6zm-29.94 372.39 1.31-6.8-6.43 2.57-6.81-1.31 2.57 6.44-1.3 6.8 6.43-2.57 6.8 1.31zm-34.73 323.63 8.42 1.4-3.36-7.84 1.41-8.43-7.85 3.37-8.42-1.41 3.36 7.85-1.41 8.42zm28.85 16.84-8.2-6-.62 10.13-6 8.19 10.14.68 8.2 6 .62-10.13 6-8.2zm-19 83.87 9.36 4.45-1.31-10.28 4.45-9.36-10.28 1.3-9.36-4.44 1.3 10.28-4.45 9.36zM1176 931.82l-8.84-1 3.93 8-1 8.85 8-3.93 8.85 1-3.94-8 1-8.85zm36.33-83.78 5.67-6.22-8.27-1.47-6.17-5.7-1.47 8.27-5.7 6.17 8.27 1.47 6.17 5.7zm-27.38 26.18-5 9.9 11-1.13 9.9 5-1.13-11 5-9.91-11 1.13-9.91-5zm-76.55-571.57-1-9.16-7.17 5.78-9.16 1 5.77 7.17 1 9.16 7.16-5.78 9.16-1zm29.49 218.17 3-10.57-10.54 3.13-10.57-3.05 3.13 10.55-3 10.56 10.54-3.13 10.57 3.06zm-54.51-160.4 5.52-3.59-6-2.72-3.59-5.52-2.71 6-5.52 3.59 6 2.71 3.59 5.53zm89.14 540.22 3.09 10.62 7.27-8.33 10.62-3.11-8.33-7.28-3.09-10.62-7.28 8.34-10.62 3.09zm-1.31-115.63 2.21 9.95 7.18-7.23 9.94-2.2-7.22-7.18-2.2-9.95-7.19 7.22-9.93 2.2zm3.26 63.06 5.58 4.1.44-6.9 4.1-5.58-6.9-.44-5.58-4.1-.44 6.9-4.1 5.58zM1046.35 494.9l-4.37 5.17 6.71.89 5.17 4.37.89-6.71 4.37-5.17-6.71-.89-5.17-4.37zm-48.57-131.59-7.35-6.82-1.77 9.86-6.81 7.35 9.86 1.77 7.34 6.82 1.78-9.87 6.81-7.34zm113.82 371.51 5.89 1-2.29-5.52 1.06-5.88-5.53 2.28-5.88-1 2.29 5.52-1.06 5.88zm-219-501.47 3-6.09-6.75.77-6.09-3 .77 6.74-3 6.1 6.74-.77 6.09 3zm20.63 130.58-10.23-.86 4.79 9-.79 10.12 9-4.79 10.14.81-4.79-9 .81-10.14zm162.29 419.3-7.87-7.44-2 10.64-7.45 7.86 10.64 2 7.87 7.44 2-10.64 7.45-7.87zM890.55 400.57l7 .27-3.55-6.02.27-7-6.06 3.57-7-.27 3.57 6.06-.27 7zM1065 782.76l9.78 3.35-2.46-10 3.35-9.78-10 2.46-9.78-3.35 2.46 10-3.35 9.78zm81.9 191.55-4.08 5.47 6.8.48 5.47 4.09.49-6.81 4.08-5.47-6.8-.49-5.47-4.08zM935.42 578.95l2.36-6.48-6.73 1.51-6.48-2.36 1.51 6.73-2.35 6.47 6.72-1.51 6.48 2.36zM801.91 359.72l2.51-5.49-6 .85-5.42-2.52.85 6-2.52 5.49 6-.85 5.49 2.51zm163.83 368.64-10.69 2.06 7.49 7.89 2.06 10.7 7.89-7.5 10.7-2.05-7.5-7.9-2.05-10.69zM654.67 198.49l4-8-8.87 1-8-4 1 8.87-4 8 8.87-1 8 4zM883.18 619.9l7.32 4.32-.32-8.49 4.31-7.32-8.49.31-7.32-4.31.32 8.49-4.31 7.32zM753.64 458.39l9.48-3.51-8.07-6.06-3.51-9.47-6.09 8.06-9.45 3.5 8.07 6.08 3.51 9.47zm50.64 99.43-7.2 2.13 5.68 4.91 2.13 7.2 4.91-5.68 7.2-2.13-5.68-4.91-2.13-7.2zm-102.08-119-10.83 1.75 7.31 8.17 1.76 10.84 8.17-7.32 10.83-1.75-7.31-8.18-1.76-10.83zm204.12 309.81 6.28-1.52-4.67-4.46-1.51-6.27-4.42 4.66-6.28 1.52 4.66 4.46 1.52 6.27zm-194.27-246 8.63-4.72-8.68-4.72-4.72-8.64-4.72 8.64-8.56 4.73 8.64 4.72 4.73 8.63zM497.16 234.08l8.26.54-4-7.25.54-8.26-7.25 4-8.26-.54 4 7.25-.54 8.26zm222.37 323.86-8.89 1.88 6.38 6.47 1.87 8.88 6.47-6.37 8.89-1.88-6.37-6.47-1.88-8.88zM272.71 40.22 270.58 49l-6.53 6.24 8.78 2.13 6.24 6.53 2.13-8.77 6.53-6.24m87 146.54 3-7.12-7.61 1.33-7.13-3 1.34 7.61-3 7.12 7.6-1.33 7.13 3zm427.06 527.06-6.59 1.39 4.72 4.8 1.39 6.59 4.8-4.72 6.6-1.39-4.73-4.8-1.38-6.54zm-299.52-293 8.4-6.67-10.15-3.48-6.66-8.4-3.48 10.15-8.4 6.67 10.15 3.47 6.67 8.4zM318 311.66l4.38 4.12 1.11-5.91 4.11-4.38-5.91-1.1-4.38-4.11-1.1 5.9-4.11 4.38zm201.78 198.52-8-3.11 1.68 8.4-3.12 8 8.41-1.68 8 3.12-1.68-8.41 3.11-8zm265.93 247.09 8.35 6.33.83-10.44 6.34-8.35-10.45-.83-8.34-6.34-.83 10.45-6.34 8.34zm125.67 109-7 5.09 8 3.1 5.1 7 3.09-8 7-5.1-8-3.09-5.09-6.95zm-636.77-383.9 5-3.66-5.79-2.25-3.65-5-2.26 5.79-5 3.65 5.79 2.26 3.66 5zm551.59 153.3-11.14.56 6.49 9.08.56 11.14 9.08-6.49 11.14-.56-6.49-9.08-.56-11.14zM457.53 201.25l-6.53-1.43 2.34 6.22-1.39 6.5 6.22-2.34 6.5 1.39-2.34-6.22 1.39-6.5zM721.4 969.49l4.35 5.11 2-6.42 5.11-4.35-6.42-2-4.35-5.11-2 6.42-5.09 4.39zm-154.33-391.9-3.55 6.86 7.69-.71 6.86 3.55-.71-7.69 3.55-6.85-7.69.7-6.85-3.55zm79.84 115.39-3.34-8.24-5.13 7.26-8.24 3.33 7.26 5.14 3.34 8.23 5.13-7.25 8.23-3.34zM383.63 152.92l-5.3 8.61 10.11-.19 8.62 5.3-.19-10.11 5.29-8.61-10.11.19-8.61-5.3zm178.28 316.83 7-2.86-6.21-4.39-2.86-7-4.39 6.21-7 2.87 6.22 4.38 2.86 7zm-80.32-195.66-5.7-3.1.46 6.48-3.11 5.7 6.48-.46 5.7 3.11-.46-6.48 3.11-5.71zM492 251.54l6.65-5.52-8.24-2.62-5.52-6.65-2.62 8.23-6.66 5.53 8.24 2.62 5.52 6.65zm432.26 846.33-7.25-8.26-3 10.56-8.26 7.26 10.57 3 7.25 8.26 3-10.56 8.26-7.26zm-16.89-47.81 4.57 5.29 2-6.71 5.29-4.57-6.7-2-4.57-5.3-2 6.71-5.29 4.57zM537.84 154.5l-9.47-5.63.36 11-5.63 9.47 11-.37 9.47 5.63-.36-11 5.63-9.47zM730.9 564.82l-1.83-9.09-6.66 6.44-9.09 1.82 6.44 6.67 1.82 9.08 6.66-6.43 9.09-1.82zm-60.83-180.9 7.29-2.81-6.31-4.62-2.82-7.3-4.62 6.31-7.29 2.82 6.31 4.62 2.82 7.29zm-87.28-250-9.11 1.12 5.86 7.07 1.12 9.1 7.06-5.86 9.11-1.12-5.83-7.03-1.12-9.11zM763 513.24l-6-1.67 1.83 5.95-1.67 6 6-1.83 6 1.67-1.83-6 1.67-6zm52.37 108.67 6.11 6 1.72-8.36 6-6.11-8.36-1.72-6.1-6-1.73 8.36-6 6.11zm44 66.64-7.82.6 4.72 6.26.6 7.82 6.26-4.72 7.82-.6-4.72-6.26-.6-7.82zm76 172.36 5.94.95-2.41-5.52.95-5.95-5.6 2.43-5.94-.94 2.41 5.52-1 5.94zm-43.25-118.09 9.57 1.94-3.52-9.11 1.94-9.58-9.11 3.52-9.58-1.95 3.53 9.12-2 9.57zm113.18 327.84 5.61-9.11-10.7.19-9.11-5.61.19 10.7-5.61 9.11 10.7-.19 9.11 5.61zm-210-918.16-4.16-6.34-3.14 6.92-6.34 4.16 6.92 3.09 4.16 6.34 3.09-6.92 6.34-4.16zM876 394.67l1-7.48-6.83 3.2-7.48-1 3.19 6.84-1 7.48 6.83-3.2 7.48 1zm3-104.85 5.56 3.6v-6.62l3.6-5.55h-6.62l-5.55-3.6v6.62l-3.59 5.55zm57.36 229.63-6.59 1.65 4.94 4.65 1.65 6.59 4.66-4.94 6.59-1.65-4.94-4.66-1.67-6.59zm86.09 431.24 4.2 4.88 1.85-6.17 4.88-4.19-6.17-1.85-4.2-4.89-1.85 6.17-4.86 4.18zm-29.67-306-2.62-8.28-5.56 6.67-8.29 2.62 6.68 5.57 2.62 8.29 5.56-6.68 8.29-2.62zm-73.67-443.81-1.26 10.73 9.72-4.73 10.73 1.27-4.72-9.72 1.26-10.73-9.72 4.72-10.73-1.26zm90.7 591.47 4.89 5.76 2.21-7.22 5.77-4.89-7.23-2.18-4.89-5.77-2.21 7.23-5.77 4.89zm30.67 110.38 9.94-1.21-6.42-7.7-1.22-9.93-7.71 6.38-9.94 1.21 6.38 7.72 1.22 9.94zm-33-626.3 7.79 7.12 1.79-10.4 7.12-7.8-10.4-1.79-7.8-7.11-1.82 10.37-7.12 7.8zm31 175.32-3.91-4.59-1.76 5.77-4.62 3.89 5.77 1.76 3.92 4.59 1.76-5.78 4.59-3.91zm48 186.37 2-8.65-8.36 3-8.66-2 3 8.36-2 8.66 8.36-3 8.66 2zm2.71-64.89-3.86-7.18-4 7.12-7.18 3.85 7.12 4 3.86 7.18 4-7.12 7.18-3.86zm6.5 123.29-10.26-3.4 2.67 10.47-3.4 10.26 10.48-2.67 10.26 3.4-2.68-10.47 3.4-10.26zm9.18 33.72 3.32 6.15 3.39-6.11 6.15-3.32-6.12-3.39-3.32-6.15-3.38 6.11-6.16 3.32zm33.33-212.64 7.47-6.82-9.78-2.61-6.82-7.47-2.61 9.77-7.47 6.83 9.77 2.61 6.83 7.47zm12.36 384.29-3.35-5.93-3.19 6-5.92 3.35 6 3.18 3.34 5.93 3.19-6 5.92-3.35zm-71.77 237.48 5.91 8.49 4-9.55 8.49-5.91-9.55-4-5.91-8.49-4 9.56-8.49 5.9zm113.46-595.69-2.35 6.55 6.79-1.55 6.55 2.34-1.55-6.78 2.35-6.55-6.79 1.55-6.55-2.35zm-31.83 324.62 6.72 2.52-1.5-7 2.52-6.72-7 1.5-6.73-2.52 1.51 7-2.52 6.72zm139.3-622-1.76-6.75-4.74 5.12-6.75 1.76 5.13 4.73 1.76 6.75 4.73-5.12 6.75-1.76zm-163.6 835.29-3.71 5 6.24.41 5 3.72.41-6.24 3.71-5-6.24-.41-5-3.72zM1422 62.05l7.27 3-1.44-7.72 3-7.27-7.72 1.44-7.27-3 1.44 7.71-3 7.27zm-190.85 792.16-7.59-1.49 2.84 7.2-1.49 7.58 7.19-2.84 7.59 1.49-2.84-7.19 1.49-7.59zm28.26-34.39-4-6.94-3.69 7.1-7 4 7.11 3.69 4 6.95 3.7-7.1 6.94-4zm141.26-461.8-5.2 7.32 9 .42 7.32 5.19.42-9 5.19-7.32-9-.42-7.32-5.2zm-78.78 328.08 6.21-8.19-10.25-.81-8.19-6.21-.81 10.24-6.21 8.19 10.25.81 8.19 6.21zm205-598.23-.59 7.35 6.51-3.47 7.35.59-3.49-6.52.59-7.35-6.51 3.47-7.35-.6zm-314.47 1012.12-7.13-7.12-2.16 9.84-7.13 7.11 9.84 2.16 7.13 7.12 2.16-9.84 7.12-7.13zM1612.25 49.74l5.67-4.77-7.08-2.15-4.77-5.72-2.2 7.08-5.66 4.77 7.07 2.2 4.77 5.67zm-58.63 175.62 1.46 10.15 7.76-6.71 10.14-1.46-6.7-7.75-1.46-10.14-7.75 6.7-10.15 1.46zm-346 959.75 2.42 9 6.24-6.88 9-2.43-6.88-6.24-2.43-9-6.24 6.88-9 2.42zm95.72-202.43-.12 8.24 7-4.35 8.23.11-4.35-7 .12-8.23-7 4.34-8.23-.11zm162.84-357.86 8.71.64-4.16-7.68.64-8.71-7.68 4.16-8.7-.65 4.15 7.68-.64 8.71zm-90.54 289 7.8-1.58-5.54-5.71-1.57-7.8-5.72 5.53-7.8 1.58 5.53 5.71 1.58 7.8zM1284 1169.28l-7 2.3 5.73 4.68 2.3 7 4.68-5.73 7-2.3-5.73-4.69-2.3-7zm71.4-77.93-5.44-6.38-2.44 8-6.38 5.45 8 2.43 5.45 6.38 2.43-8 6.38-5.45zm316.91-894.68 5.29 8.88 4.63-9.24 8.87-5.29-9.24-4.63-5.28-8.88-4.63 9.25-8.88 5.28zm-195.66 645.87-9.85-5 1.08 11-5 9.85 11-1.08 9.85 5-1.08-11 5-9.85zm113.94-255.58-10.74-1.81 4.27 10-1.81 10.74 10-4.27 10.73 1.81-4.27-10 1.82-10.74zm32.66-205.89 8.71-1-5.55-6.78-1-8.71-6.78 5.55-8.71 1 5.56 6.78 1 8.71zM1572 1260.4l-8.28-7.45-1.81 11-7.46 8.28 11 1.81 8.28 7.46 1.81-11 7.45-8.28zm40.63-963.82 1.42 9.63 7.34-6.39 9.63-1.42-6.39-7.34-1.42-9.62-7.34 6.38-9.63 1.42zm76.56 606.92-7.83-.14 4.1 6.67-.14 7.83 6.67-4.11 7.83.14-4.11-6.67.14-7.82zM1593 248.35l-4 8.85 9.59-1.44 8.86 4-1.44-9.59 4-8.86-9.6 1.44-8.85-4zm220.7 668.3-8.11 7.67 10.83 2.69 7.67 8.11 2.69-10.83 8.11-7.67-10.89-2.69-7.67-8.11zm162.38 284.27 5.73-3-5.61-3.21-3-5.74-3.21 5.62-5.73 3 5.62 3.22 3 5.73zM1359.27 178.59l-9.44 2.19 6.93 6.76 2.18 9.44 6.77-6.93 9.44-2.18-6.93-6.77-2.18-9.43zm70.26 67.32 9.78-1.85-6.83-7.24-1.85-9.78-7.24 6.83-9.78 1.85 6.83 7.24 1.85 9.78zm120.61 185.66-5.32 9.12 10.55-.45 9.12 5.32-.44-10.55 5.31-9.12-10.55.45-9.12-5.32zm-163.74-72.06.66 6.16 4.83-3.88 6.15-.66-3.88-4.82-.66-6.15-4.82 3.87-6.15.66zm359 194.79-8.25 2.33 6.41 5.69 2.33 8.24 5.69-6.41 8.24-2.33-6.41-5.68-2.33-8.25zm243 81.9-.71-10.89-8.79 6.47-10.89.7 6.47 8.79.7 10.89 8.79-6.46 10.89-.71zm-14.91-16.53 4.37-5.42-6.92-.76-5.42-4.37-.75 6.92-4.37 5.42 6.92.76 5.42 4.37zm8.1-40.05 6.51 8.64 3.76-10.15 8.64-6.51-10.15-3.78-6.52-8.64-3.75 10.15-8.64 6.51zM1765 508.21l6.45 4-.09-7.6 4-6.45-7.6.09-6.45-4 .09 7.6-4 6.45zm-150.14-58.63-3.78 10.51 10.88-2.48 10.51 3.78-2.47-10.89 3.78-10.5-10.88 2.48-10.51-3.79zm474.87 61.84-8.44-2.77 2.22 8.6-2.77 8.43 8.6-2.22 8.43 2.77-2.22-8.59 2.77-8.44zm-923.35-127.06 10.64 1.55-4.43-9.79 1.55-10.64-9.8 4.43-10.64-1.55 4.43 9.8-1.55 10.66zm922 103-2.9 9.63 9.67-2.75 9.63 2.91-2.75-9.67 2.91-9.63-9.67 2.75-9.63-2.91zM2331 444.89l-.48-8.34-6.77 4.9-8.34.47 4.9 6.77.47 8.34 6.77-4.9 8.34-.47zm-862.22-44.37 6.52-6.15-8.7-2.17-6.15-6.52-2.17 8.7-6.51 6.15 8.69 2.17 6.15 6.51zm260.65-4.86 8.91 6.42.6-11 6.43-8.91-11-.6-8.9-6.42-.61 11-6.42 8.9zm-395.08-28.59-8.42-5.64-.2 10.13-5.64 8.43 10.14.2 8.42 5.63.2-10.13 5.64-8.42zm-147.84 12.67-.2-8.28-6.86 4.64-8.28.21 4.64 6.86.21 8.28 6.86-4.64 8.28-.21zM1882 333.35l-1.25-9.18-7.06 6-9.17 1.25 6 7.06 1.25 9.17 7-6 9.18-1.25zm316.55-25.08 7.69-3.6-7.18-4.54-3.6-7.69-4.53 7.19-7.69 3.6 7.18 4.53 3.6 7.69zm-510.09 3.24 4.08-10.36-10.92 2.15-10.37-4.07 2.16 10.92-4.08 10.36 10.93-2.15 10.36 4.07zm333-54.2-8.44 6 9.59 3.88 6 8.43 3.88-9.58 8.44-6-9.59-3.87-6-8.44zm-97.1.83 5.64-4.32-6.66-2.39-4.34-5.61-2.39 6.66-5.61 4.34 6.66 2.4 4.31 5.61zm-567.16 43.75 5.6-8.91-10.52.09-8.91-5.61.09 10.53-5.61 8.91 10.53-.09 8.9 5.6zm325-64.24-10.08 4.56 9.28 6 4.56 10.08 6-9.28 10.08-4.56-9.28-6-4.56-10.08zm488.39-66.51-7.72 3.76 7.33 4.47 3.76 7.72 4.47-7.33 7.72-3.77-7.33-4.47-3.82-7.7z"/><path fill="#161515" stroke="#161515" stroke-miterlimit="7.57" stroke-width="17.7" d="M1466 811.55c-.14.33-6.33.94-10.7-3.53a.11.11 0 0 0-.17.11 10.72 10.72 0 0 1-.42 8.7 15.7 15.7 0 0 1-21.69 6.78l-9-4.6a.14.14 0 0 0-.11 0c-.39.31-3.25 2.49-7.64 5.26-11.88 7-23.82 12.87-37.81 14.42a.1.1 0 0 0-.08.12c5.41 22.27-11.26 38.67-13.18 40.47a.1.1 0 0 0 .07.17c24.37.57 24.1 15.37 24 16.68a.09.09 0 0 1-.1.1h-138.44a.1.1 0 0 1-.1-.11l.91-8.42a.1.1 0 0 0-.13-.1c-20 5.67-44.55.28-58.41-13.78-29.53-36.42-10.84-76.16-1.79-112.74 6.57-26.76 12.67-59.21 5.48-74-9.88-20.28-32.18-23.06-49.77-3.62a.1.1 0 0 1-.18-.07c10-116.54 164.52-61.08 143.63 30.23a.1.1 0 0 0 .1.12c9-.18 20.79 1.57 34.35 6.63 0 0 33.16 11 46.54-6.37.22-.6 7.07-19.79 17.75-24.24a.09.09 0 0 0 .05-.11c-.45-1.61-6.88-26.27 21.58-47.78a.1.1 0 0 1 .16.1c-.69 2.56-5.28 21.76 9.48 32.63.55.29 35.17 18.34 38.12 22.9s24.74 32.8 26.75 70.9a.11.11 0 0 1 0 .09c-9.14 5.86-18.2 10.75-29.46 12.63a.1.1 0 0 0 0 .17c2.12 1.95 25.87 24.1 10.24 30.26z"/><path fill="none" stroke="#d9b776" stroke-miterlimit="7.57" stroke-width="2.3" d="M1289.15 713.75c10-48-85.59-121.35-140.65-32.56m102.82 43.44c18.68-49.81-47.76-132.23-102.82-43.44m230.3 158.11c-11-134.84-145.14-110.47-157.1-74.3m27.84 132.59c54.42-18.89 75.08-11 106.78-70.8 18.75-50.55 65.46-37.53 68.46-35m-128.25 88.89c-23.24-9.36-78.84-65.13-53.73-108.93 34.36-59.91 136.58.72 207.17-2.81 11.74-1.5 25.43-9.15 32-9.59m-92.76-69.18c7 27 48.14 3.94 61 21.75 13.64 18.92 23.94 61.78 23.94 61.78m-284.37-153.1c103.53 15.94 59.77 107.76 59.77 107.76m-42.39 157.06c78.47-33.19 122.85-62.84 124.14-161.86m56.91-33s-7.92-25.75 21.79-48c0 0-6.44 21.26 9.41 32.92 0 0 35.16 18.31 38.13 22.9s24.76 32.83 26.75 71c0 0-17.56 12.34-36.7 12.13a39.9 39.9 0 0 1-13.12-2.81 195.87 195.87 0 0 1-39.83-23.16c-4.83-3.8-6.79-13.13-8.67-21.5-3.77-16.79 2.24-43.46 2.24-43.46zm-202.25-69c95.25 42.39-8.15 154.45-10.34 197.94-1.23 23 1.89 40.1 16.39 55.14a50.91 50.91 0 0 0 28.57 15 63.2 63.2 0 0 0 9.37.91 79.41 79.41 0 0 0 10.3-.44c3.59-.38 9.54-2.43 13.37-3.63 11.58-3.66 50.91-24.66 69.38-47.92 27.24-34.38 45.21-104 47.4-122.55m-194.88 103.57c-.16-4.25 8.16-31 14.7-57.64s12.67-59.21 5.48-74c-9.92-20.35-32.35-23.08-50-3.39 9.73-117 164.69-61.4 144.6 30M1454.51 782s26.78 23.94 10.43 30.38a13.26 13.26 0 0 1-11.34-4.56m-38.07-38.74s-18.45 16.22 25.7 28.7c0 0 18.44 7.26 12.45 19.91-3.82 8.07-13.84 11-21.69 6.79l-9.11-4.63s-47.28 36.91-66.61 6.93c-29.86-103.24-151.13-79.43-133.64 8.65m133.64 61.67a8.38 8.38 0 0 0-.71-.9c-1.14-6.22-3.36-15-23.71-15.88s-47.58-.06-70 3m-12.2 5.35v8.47h138.58s1.48-16.29-24.27-16.78c0 0 19.15-17.07 15.77-39.51m-117.88 42.47S1165 812.22 1244 734.04c0 0 27.47-31 79.82-12.79 0 0 33.18 11 46.55-6.38 0 0 6.93-19.84 17.83-24.29"/><path fill="none" stroke="#d9b776" stroke-miterlimit="7.57" stroke-width="4.34" d="M1466 811.55s-6.17.92-10.54-3.36a.15.15 0 0 0-.25.16 10.66 10.66 0 0 1-.5 8.48 15.7 15.7 0 0 1-21.69 6.78l-9-4.58a.15.15 0 0 0-.17 0c-.49.38-3.32 2.52-7.61 5.23-11.86 7-23.78 12.86-37.74 14.41a.16.16 0 0 0-.14.19c5.28 21.9-10.76 38.11-13.09 40.32a.15.15 0 0 0 .11.26c23.93.62 24 15 23.89 16.63a.17.17 0 0 1-.16.15h-138.32a.16.16 0 0 1-.16-.18l.9-8.27a.15.15 0 0 0-.2-.16c-19.95 5.63-44.49.24-58.33-13.79-29.53-36.42-10.84-76.16-1.79-112.74 6.57-26.76 12.67-59.21 5.48-74-9.86-20.24-32.08-23-49.66-3.74a.16.16 0 0 1-.27-.12c10.1-116.29 164.41-60.89 143.63 30.33a.15.15 0 0 0 .15.19c9-.17 20.76 1.58 34.28 6.63 0 0 33.15 11 46.53-6.37.26-.73 7.08-19.74 17.69-24.21a.16.16 0 0 0 .09-.18c-.55-2-6.6-26.34 21.46-47.63a.16.16 0 0 1 .25.16c-.81 3.1-5 21.8 9.52 32.47.69.36 35.18 18.34 38.12 22.89s24.73 32.78 26.74 70.87a.14.14 0 0 1-.07.14c-9.1 5.83-18.12 10.7-29.32 12.59a.16.16 0 0 0-.08.27c2.59 2.38 25.68 24.07 10.24 30.15z"/></g></svg>