<svg xmlns="http://www.w3.org/2000/svg" xmlns:xlink="http://www.w3.org/1999/xlink" width="2560" height="1440">
  <defs>
    <clipPath id="a">
      <circle class="a" cx="400" cy="-2000" r="400"/>
    </clipPath>
    <clipPath id="b">
      <path class="a" d="M0-1200h1500v500H0z"/>
    </clipPath>
    <clipPath id="c">
      <path class="a" d="M0 0h2560v1440H0z"/>
    </clipPath>
    <clipPath id="f">
      <circle class="a" cx="2300" cy="-800" r="400"/>
    </clipPath>
    <linearGradient id="d" y1="720" x2="2560" y2="720" gradientUnits="userSpaceOnUse">
      <stop offset=".02" stop-color="#161515"/>
      <stop offset=".3" stop-color="#161515" stop-opacity="0"/>
      <stop offset=".7" stop-color="#161515" stop-opacity="0"/>
      <stop offset=".98" stop-color="#161515"/>
    </linearGradient>
    <linearGradient id="e" x1="-2378.1" y1="-6142.37" x2="-938.1" y2="-6142.37" gradientTransform="translate(2938.1 6862.37)" xlink:href="#d"/>
    <style>
      .a{fill:none}.i{fill:#d9b776;stroke-miterlimit:13.97;stroke-width:4.62px;stroke:#161515}
    </style>
  </defs>
  <g clip-path="url(#c)">
    <path fill="#161515" d="M0 0h2560v1440H0z"/>
    <image width="2632" height="1513" transform="translate(-36 -36.82)" xlink:href="youtube_header1.png" opacity=".4"/>
    <path fill="url(#d)" d="M0 0h2560v1440H0z"/>
    <path transform="rotate(90 1280 720)" fill="url(#e)" d="M560-560h1440v2560H560z"/>
    <path class="i" d="m675.26 505.13 11.13.31 9.55-5.76-.31 11.14 5.76 9.55-11.14-.31-9.54 5.76.3-11.14-5.75-9.55zM214.84 253.26l-6.46-5.89-1.48 8.61-5.89 6.46 8.61 1.48 6.46 5.89 1.48-8.61 5.9-6.46-8.62-1.48zM282.8 339.08l5.11-4.58-6.61-1.83-4.58-5.11-1.83 6.61-5.11 4.58 6.61 1.83 4.57 5.11 1.84-6.61zM629.62 548.52l-2.15 8.21 8.07-2.61 8.21 2.15-2.62-8.08 2.16-8.21-8.08 2.62-8.21-2.15 2.62 8.07zM369.65 460.17l1.97-6.59-6.6 1.9-6.59-1.98 1.9 6.61-1.97 6.58 6.6-1.89 6.59 1.97-1.9-6.6zM287.07 453.01l9.38 4.42-1.34-10.28 4.42-9.38-10.28 1.34-9.37-4.42 1.33 10.28-4.41 9.38 10.27-1.34zM354.75 479.74l-7.98-4.4.6 9.09-4.41 7.98 9.1-.59 7.98 4.4-.6-9.09 4.41-7.99-9.1.6zM100.66 430.47l2.23 6.22 4.03-5.23 6.22-2.22-5.23-4.04-2.22-6.22-4.04 5.23-6.22 2.22 5.23 4.04zM542.76 591.06l-1.61-8.41-6.21 5.9-8.41 1.61 5.9 6.21 1.61 8.41 6.21-5.89 8.41-1.62-5.9-6.21zM116.87 556.28l1.4-10.91-9.94 4.71-10.9-1.39 4.71 9.93-1.4 10.91 9.94-4.71 10.9 1.39-4.71-9.93zM220.88 619.04l3.12-6.66-7.29.97-6.66-3.12.96 7.29-3.12 6.66 7.3-.96 6.66 3.12-.97-7.3zM223.67 643.53l3.9-8.35-9.13 1.22-8.35-3.9 1.22 9.13-3.9 8.35 9.13-1.22 8.35 3.9-1.22-9.13zM127.06 655.17l-7.28-7.78-2.62 10.33-7.78 7.28 10.32 2.62 7.28 7.78 2.62-10.32 7.78-7.28-10.32-2.63zM128.62 721.11l-2.81-8.49-5.63 6.94-8.49 2.81 6.94 5.63 2.8 8.49 5.64-6.94 8.49-2.8-6.94-5.64zM360.4 701.87l-7.72-6.53-1.34 10.03-6.53 7.71 10.02 1.34 7.72 6.53 1.34-10.02 6.53-7.72-10.02-1.34zM165.87 772.44l-7-1.73 2.33 6.83-1.73 7 6.83-2.32 7 1.72-2.33-6.82 1.73-7.01-6.83 2.33zM875.91 636.38l-4.71-8.13-4.3 8.35-8.13 4.7 8.35 4.31 4.71 8.12 4.3-8.34 8.12-4.71-8.34-4.3zM469.45 748.69l2.85-7.63-7.96 1.72-7.64-2.85 1.73 7.96-2.85 7.63 7.96-1.72 7.63 2.85-1.72-7.96zM382.31 784.03l-10.55-1.4 4.51 9.64-1.41 10.55 9.64-4.51 10.55 1.4-4.51-9.64 1.4-10.55-9.63 4.51zM116.3 882.48l-8.75-.59 4.23 7.69-.58 8.75 7.68-4.23 8.76.59-4.24-7.69.59-8.75-7.69 4.23zM745.23 697.57l-1.17-7.16-5.39 4.85-7.15 1.17 4.84 5.39 1.18 7.16 5.39-4.85 7.15-1.17-4.85-5.39zM780.44 685.28l6.92 6.99 2.15-9.59 6.99-6.92-9.59-2.15-6.92-6.99-2.15 9.59-6.99 6.92 9.59 2.15zM429.37 832.45l-5.53-7.58-3.4 8.75-7.58 5.53 8.74 3.4 5.54 7.58 3.39-8.75 7.59-5.53-8.75-3.4zM364.11 886.21l6.41 5.28.99-8.25 5.28-6.41-8.25-.99-6.41-5.28-.99 8.24-5.28 6.42 8.25.99zM485.39 830.49l-4.79 8.33 9.59-.47 8.33 4.79-.46-9.59 4.79-8.33-9.6.46-8.32-4.79.46 9.6zM842.34 675.67l2.08-6.91-6.94 1.98-6.91-2.07 1.98 6.94-2.07 6.9 6.93-1.98 6.91 2.08-1.98-6.94zM408.61 923.72l8.92 6.74.86-11.15 6.74-8.92-11.15-.86-8.92-6.73-.86 11.14-6.73 8.92 11.14.86zM439.47 908.52l2.04 7.74 5.41-5.9 7.73-2.04-5.89-5.41-2.05-7.74-5.4 5.9-7.74 2.05 5.9 5.4zM562.23 844.33l-2.11 7.48 7.44-2.26 7.48 2.11-2.26-7.44 2.11-7.48-7.44 2.26-7.48-2.11 2.26 7.44zM412.83 974.56l-.1 7.25 6.16-3.83 7.25.1-3.83-6.16.09-7.25-6.15 3.83-7.25-.09 3.83 6.15zM243.22 1163.2l7.29-4.26-7.51-3.84-4.26-7.28-3.84 7.51-7.29 4.25 7.52 3.84 4.25 7.29 3.84-7.51zM186.05 1230.85l2.58 7.65 5.05-6.3 7.65-2.58-6.3-5.05-2.58-7.64-5.04 6.29-7.65 2.58 6.29 5.05zM608.37 815.22l10.39.32-5.34-8.92.32-10.4-8.93 5.34-10.4-.31 5.35 8.92-.32 10.4 8.93-5.35zM231.59 1309.32l-6.34-1.78 1.93 6.3-1.77 6.33 6.29-1.92 6.33 1.77-1.92-6.29 1.77-6.34-6.29 1.93zM660.16 794.93l-6.13-9.02-4.28 10.03-9.02 6.12 10.02 4.29 6.12 9.02 4.29-10.02 9.02-6.13-10.02-4.29zM360.45 1214.59l2.29-10.91-10.43 3.96-10.9-2.29 3.96 10.42-2.29 10.91 10.42-3.96 10.91 2.29-3.96-10.42zM727.98 587.86l3-5.42-6.18.4-5.42-2.99.4 6.18-3 5.41 6.18-.4 5.42 3-.4-6.18z"/>
    <path class="i" d="m599.18 820.75-5.88 4.99 7.37 2.25 4.99 5.88 2.25-7.37 5.87-4.99-7.37-2.25-4.98-5.87-2.25 7.36zM588.88 933.54l-7.36-2.28 2.06 7.43-2.28 7.36 7.43-2.06 7.36 2.27-2.06-7.42 2.28-7.36-7.43 2.06zM512.34 1425.02l-3.71 8.83 9.44-1.64 8.83 3.72-1.64-9.44 3.72-8.83-9.44 1.63-8.83-3.71 1.63 9.44zM558.6 1152.88l-3.19 5.04 5.96-.04 5.03 3.18-.04-5.95 3.18-5.03-5.95.03-5.03-3.18.04 5.95zM584.62 1165.58l-6.07-1.92 1.66 6.15-1.92 6.07 6.15-1.66 6.07 1.92-1.66-6.15 1.92-6.07-6.15 1.66zM627.69 1155.48l-7.46-3.76.85 8.31-3.76 7.47 8.31-.86 7.47 3.77-.86-8.32 3.77-7.46-8.32.85zM626.39 1114.03l-1.72 9.86 9.23-3.87 9.86 1.72-3.87-9.23 1.73-9.86-9.24 3.87-9.86-1.72 3.87 9.23zM684.28 1289.77l-3.33 6.34 7.13-.62 6.33 3.34-.61-7.13 3.33-6.34-7.13.61-6.33-3.33.61 7.13zM621.38 934.12l-10.15-.58 4.99 8.86-.58 10.16 8.86-4.99 10.15.58-4.99-8.86.58-10.16-8.86 4.99zM668.88 1077.47l5.81 4.68.8-7.42 4.68-5.81-7.42-.8-5.81-4.67-.8 7.41-4.67 5.81 7.41.8zM673.6 971.4l-1.27-10.81-8.41 6.91-10.81 1.27 6.9 8.41 1.28 10.81 8.41-6.9 10.81-1.28-6.91-8.41zM632.59 693.4l6.74-5.15-7.97-2.89-5.15-6.73-2.9 7.97-6.73 5.14 7.97 2.9 5.15 6.73 2.89-7.97zM658.64 755.44l-10.67.18 5.91 8.89.17 10.66 8.89-5.9 10.67-.17-5.9-8.89-.18-10.67-8.89 5.9zM768.78 1239.04l10.34-.63-6.11-8.37-.63-10.34-8.37 6.11-10.34.63 6.11 8.36.63 10.34 8.37-6.1zM814.09 1404.63l-2.84-5.83-3.38 5.53-5.83 2.84 5.53 3.38 2.84 5.83 3.38-5.54 5.83-2.83-5.53-3.38zM823.34 1380.8l8.43-1.12-5.49-6.49-1.12-8.42-6.49 5.49-8.43 1.11 5.49 6.5 1.12 8.42 6.49-5.49zM829.8 1187.57l1.28 7.21 5.38-4.96 7.21-1.28-4.96-5.39-1.28-7.21-5.39 4.97-7.2 1.28 4.96 5.38zM842.07 560.69l5.76-8.66-10.4-.18-8.65-5.75-.18 10.39-5.76 8.66 10.4.17 8.65 5.76.18-10.39zM876.4 756l-1.84-8.3-6 6.03-8.31 1.84 6.03 6 1.85 8.31 6-6.04 8.3-1.84-6.03-6zM905.26 934.22l7.24-6.92-9.73-2.37-6.93-7.24-2.36 9.74-7.25 6.92 9.74 2.37 6.92 7.24 2.37-9.74zM901.63 1216.8l5.06-7.08-8.69-.44-7.08-5.07-.44 8.7-5.07 7.08 8.7.44 7.08 5.06.44-8.69zM984.94 784.87l10.33-3.59-8.6-6.76-3.59-10.34-6.76 8.6-10.34 3.6 8.6 6.76 3.6 10.33 6.76-8.6zM896.84 1403.74l7.43 5.56.68-9.26 5.56-7.43-9.26-.67-7.43-5.56-.67 9.25-5.56 7.44 9.25.67zM1154.4 451.65l-3.62-4.98-2.25 5.74-4.99 3.63 5.75 2.24 3.63 4.99 2.24-5.74 4.99-3.63-5.75-2.25zM944.07 1370.75l-8.22-1.32 3.33 7.64-1.32 8.23 7.64-3.33 8.23 1.32-3.33-7.64 1.31-8.23-7.64 3.33zM1088.49 868.2l6.57-4.52-7.35-3.09-4.52-6.58-3.1 7.36-6.57 4.52 7.35 3.09 4.52 6.58 3.1-7.36zM1230.86 583.23l1.6 7.17 5.17-5.21 7.18-1.6-5.22-5.17-1.59-7.18-5.18 5.22-7.17 1.59 5.21 5.18zM1090.66 1366.75l.53-9.35-8.16 4.6-9.36-.53 4.61 8.16-.54 9.35 8.17-4.6 9.35.53-4.6-8.16zM1099.63 1416.39l-2.33-7.14-4.75 5.81M1294.73 489.34l-4.66 4.54 6.34 1.48 4.54 4.67 1.48-6.34 4.67-4.54-6.34-1.48-4.54-4.67-1.49 6.34zM1192.59 1107.63l-6.74-2.34 1.67 6.94-2.34 6.75 6.94-1.67 6.74 2.33-1.67-6.93 2.34-6.75-6.94 1.67zM1233.21 987.08l4.89 5.09 1.65-6.86 5.1-4.89-6.86-1.65-4.89-5.1-1.65 6.87-5.1 4.88 6.86 1.66zM1278.57 842.32l7.24 2.11-2.12-7.23 2.11-7.24-7.23 2.12-7.24-2.11 2.12 7.24-2.11 7.24 7.23-2.13zM1195.57 1401.85l-1.98-6.41-4.33 5.13-6.41 1.98 5.13 4.32 1.98 6.41 4.33-5.13 6.4-1.98-5.12-4.32zM1262.7 1097.28l4.26 4.51 1.5-6.02 4.51-4.26-6.02-1.5-4.26-4.52-1.5 6.03-4.51 4.25 6.02 1.51zM1379.84 686.4l6.68-5.58-8.3-2.61-5.59-6.68-2.61 8.31-6.67 5.58 8.3 2.61 5.59 6.68 2.6-8.31zM1358.15 982.11l6.6-7.76-10.09-1.37-7.75-6.6-1.37 10.09-6.6 7.76 10.09 1.37 7.75 6.6 1.37-10.09zM1426.78 646.9l7.43-2.77-6.34-4.76-2.77-7.43-4.76 6.34-7.43 2.78 6.34 4.76 2.77 7.43 4.76-6.35zM1387.06 930.25l1.65 6.76 4.8-5.03 6.75-1.65-5.03-4.8-1.65-6.75-4.8 5.03-6.75 1.65 5.03 4.79zM1453.04 677.98l11.14-.86-6.73-8.91-.85-11.13-8.92 6.72-11.13.86 6.72 8.91.86 11.14 8.91-6.73zM1486.45 515.81l-8.11 3.48 7.31 4.95 3.48 8.11 4.95-7.31 8.11-3.48-7.3-4.95-3.49-8.11-4.95 7.31zM1487.17 707.33l8.24 1.67-3.03-7.84 1.68-8.24-7.85 3.03-8.24-1.68 3.04 7.85-1.68 8.24 7.84-3.03zM1420.82 1394.9l-4.71-9.35-5.33 9.02-9.36 4.72 9.02 5.33 4.72 9.35 5.33-9.02 9.35-4.72-9.02-5.33zM1526.07 836.07l-6.19-1.58 2.01 6.07-1.58 6.2 6.07-2.01 6.2 1.58-2.02-6.07 1.58-6.2-6.07 2.01zM1541.15 935.03l4.28-8.69-9.63 1.09-8.7-4.27 1.09 9.63-4.27 8.7 9.63-1.1 8.7 4.27-1.1-9.63zM1562.69 863.14l-2.28-9.47-6.74 7.03-9.47 2.29 7.03 6.74 2.29 9.47 6.74-7.04 9.47-2.28-7.04-6.74zM1565.3 796.66l4.52 9.53 5.58-8.95 9.52-4.53-8.94-5.58-4.53-9.52-5.58 8.95-9.52 4.52 8.95 5.58zM1552.6 1333.33l-8.64 6.99 10.55 3.5 6.99 8.64 3.5-10.55 8.63-6.99-10.54-3.5-6.99-8.63-3.5 10.54zM1614.38 979.83l10.65 3.06-3.17-10.61 3.07-10.64-10.61 3.16-10.65-3.06 3.17 10.61-3.07 10.64 10.61-3.16zM1609.04 1335.19l6.24 8.47 3.76-9.81 8.48-6.24-9.82-3.77-6.24-8.47-3.77 9.82-8.47 6.23 9.82 3.77zM1660.91 615.51l9.92.97-4.54-8.87.97-9.92-8.87 4.53-9.92-.97 4.53 8.88-.97 9.91 8.88-4.53zM1671.8 1034.45l5.3-4-6.23-2.3-3.99-5.3-2.31 6.23-5.29 4 6.22 2.3 4 5.29 2.3-6.22zM1676.33 1046.43l-9.13 2.76 7.24 6.19 2.75 9.13 6.2-7.24 9.13-2.75-7.24-6.2-2.76-9.13-6.19 7.24zM1703.43 935.38l-6.16.29 3.56 5.04.29 6.16 5.04-3.57 6.16-.28-3.57-5.04-.28-6.16-5.04 3.56zM1740.96 1041.68l6.35 8.57 3.79-9.97 8.58-6.36-9.98-3.79-6.35-8.57-3.79 9.97-8.58 6.36 9.98 3.79zM1774.9 1144.16l-6.09 8.44 10.39.58 8.43 6.1.59-10.39 6.09-8.44-10.39-.58-8.43-6.1-.59 10.39zM1750.57 907.21l-3.69-6.87-3.79 6.82-6.87 3.69 6.82 3.79 3.69 6.87 3.79-6.81 6.87-3.7-6.82-3.79zM1794.85 1043.65l7.37-5.39-8.51-3.29-5.38-7.37-3.3 8.51-7.37 5.38 8.51 3.3 5.39 7.36 3.29-8.5zM1829.41 1150.85l6.66 1.57-2.28-6.46 1.57-6.66-6.46 2.28-6.66-1.57 2.28 6.45-1.57 6.67 6.46-2.28zM1861.4 1113l-4.57-5.67-2.31 6.91-5.66 4.58 6.91 2.3 4.58 5.67 2.3-6.91 5.66-4.58-6.91-2.3zM1925.28 1193.78l.31-10.6-9.09 5.45-10.59-.31 5.45 9.09-.31 10.59 9.08-5.45 10.59.31-5.44-9.08zM1800.93 760.71l7.07 8.05 2.97-10.3 8.05-7.06-10.3-2.97-7.06-8.05-2.97 10.29-8.05 7.07 10.29 2.97zM1928.84 1064.82l1.09 9.97 7.81-6.3 9.97-1.09-6.3-7.81-1.09-9.97-7.81 6.3-9.97 1.1 6.3 7.8zM1991.14 1139.92l5.54-2.43-5.03-3.35-2.42-5.53-3.35 5.02-5.54 2.43 5.03 3.35 2.42 5.53 3.35-5.02zM1957.17 971.97l-2.28-9.66-6.9 7.13-9.66 2.29 7.13 6.89 2.29 9.66 6.9-7.13 9.65-2.28-7.13-6.9zM1840.45 681.37l-10.45-3.32 2.84 10.6-3.31 10.45 10.59-2.85 10.46 3.32-2.85-10.59 3.31-10.46-10.59 2.85zM1995.72 1002.78l-5.41-6.53-2.58 8.09-6.53 5.41 8.09 2.58 5.41 6.53 2.58-8.09 6.53-5.41-8.09-2.58zM2116.59 1169.94l11 .6-5.43-9.59.6-11-9.58 5.43-11-.6 5.43 9.59-.61 11 9.59-5.43zM2222.48 1303.09l.14-7.06-6.02 3.69-7.07-.14 3.7 6.02-.14 7.06 6.02-3.69 7.06.14-3.69-6.02zM2294.14 1401.61l-8.9-2.22 2.93 8.69-2.22 8.91 8.7-2.94 8.9 2.22-2.93-8.69 2.21-8.91-8.69 2.94zM1885.93 725.25l2.94-5.92-6.57.71-5.92-2.95.71 6.57-2.95 5.93 6.58-.71 5.92 2.94-.71-6.57zM2202.79 1161.63l-6.17.45 3.7 4.95.45 6.17 4.95-3.7 6.17-.44-3.7-4.96-.45-6.17-4.95 3.7zM2046.58 905.27l4.1-9.74-10.41 1.8-9.74-4.1 1.8 10.41-4.1 9.74 10.41-1.8 9.74 4.1-1.8-10.41zM2369.74 1354.67l-6.94 5.28 8.19 3 5.28 6.95 3-8.2 6.95-5.28-8.2-3-5.28-6.94-3 8.19zM2343.17 1290.35l-7.83 6.36 9.59 3.15 6.36 7.82 3.15-9.58 7.82-6.36-9.58-3.15-6.36-7.82-3.15 9.58zM2279.81 1161.1l3.17-9.42-9.64 2.42-9.43-3.17 2.42 9.64-3.17 9.42 9.64-2.41 9.43 3.17-2.42-9.65zM1926.05 690.27l-8.9.44 5.17 7.25.44 8.9 7.26-5.17 8.9-.44-5.18-7.25-.43-8.9-7.26 5.17zM2047.61 817.91l-5.81 3.41 6 3.06 3.4 5.81 3.06-6 5.81-3.4-6-3.06-3.4-5.82-3.06 6zM1966.04 686.95l-2.26-7.38-5 5.89-7.38 2.27 5.89 4.99 2.27 7.38 4.99-5.89 7.38-2.27-5.89-4.99zM2171.61 928.46l-.16 7.74 6.61-4.04 7.74.17-4.04-6.61.16-7.74-6.61 4.04-7.74-.16 4.04 6.6zM1947.42 636.92l-2.47 9.53 9.36-3.06 9.53 2.48-3.06-9.36 2.47-9.53-9.36 3.06-9.52-2.47 3.05 9.35z"/>
    <path class="i" d="m1962.89 628.8-1.96 6.93 6.89-2.09 6.92 1.96-2.09-6.89 1.96-6.93-6.88 2.09-6.93-1.96 2.09 6.89zM2198.15 885.71l1.74-7.78-7.49 2.74-7.79-1.74 2.74 7.49-1.73 7.79 7.49-2.74 7.78 1.73-2.74-7.49zM2016.16 689.33l-8.76 5.38 9.26 4.46 5.38 8.76 4.47-9.26 8.75-5.38-9.25-4.46-5.39-8.76-4.46 9.26zM2053.93 710.81l6.56 4.26.06-7.82 4.26-6.56-7.82-.06-6.56-4.26-.05 7.82-4.27 6.56 7.82.06zM2453.63 1066.01l-6.74-3.96.3 7.81-3.96 6.73 7.81-.3 6.73 3.96-.3-7.81 3.96-6.73-7.8.3zM1895.17 489.02l-8.48-3.96 1.25 9.27-3.96 8.48 9.27-1.24 8.48 3.96-1.24-9.28 3.95-8.48-9.27 1.25zM2326.67 844.3l2.53-10.7-10.37 3.65-10.7-2.52 3.65 10.36-2.52 10.7 10.36-3.65 10.7 2.52-3.65-10.36zM2151.3 682.92l4.69-8.01-9.27.37-8.01-4.69.37 9.27-4.69 8.01 9.27-.37 8.01 4.69-.37-9.27zM2252.94 695.49l7.61-2.39-6.12-5.12-2.39-7.62-5.12 6.13-7.62 2.39 6.13 5.12 2.39 7.62 5.12-6.13zM2440.68 799.16l6.66-2.94-6.07-4.01-2.95-6.66-4.01 6.07-6.65 2.95 6.06 4.01 2.95 6.65 4.01-6.07zM2267.44 687.59l6.04.23-3.07-5.21.23-6.03-5.2 3.06-6.04-.23 3.06 5.21-.23 6.03 5.21-3.06zM2054.35 536.83l-2.27-5.8-3.66 5.04-5.8 2.27 5.04 3.66 2.27 5.81 3.66-5.05 5.81-2.26-5.05-3.67zM2532.81 724.3l-3.8 5.65 6.81.15 5.64 3.8.16-6.8 3.8-5.65-6.81-.15-5.64-3.8-.16 6.8zM1856.01 459.57l.74-10.02-8.84 4.79-10.03-.74 4.79 8.84-.73 10.02 8.84-4.79 10.02.74-4.79-8.84zM2179.98 552.79l1.3 10.9 8.48-6.98 10.9-1.3-6.98-8.48-1.3-10.9-8.48 6.98-10.9 1.3 6.98 8.48zM1996.25 515.93l2.36-7.75-7.79 2.19-7.75-2.35 2.2 7.79-2.36 7.74 7.79-2.19 7.74 2.36-2.19-7.79zM1973.38 511.79l4.92-7.67h-9.11l-7.67-4.92v9.11l-4.92 7.67 9.11.01 7.67 4.91v-9.11zM2277.51 465.25l-7.19-1.38 2.72 6.81-1.38 7.19 6.8-2.72 7.19 1.38-2.71-6.8 1.38-7.19-6.81 2.71zM1989.21 502.26l8.79 5.25-.32-10.23 5.26-8.79-10.23.32-8.79-5.26.31 10.23-5.25 8.79 10.23-.31zM1916.45 524.53l6.5-4.35-7.17-3.13-4.35-6.49-3.13 7.17-6.5 4.35 7.17 3.13 4.36 6.5 3.12-7.18zM2204.45 451.37l-5.43-9.06-4.7 9.46-9.07 5.43 9.47 4.7 5.43 9.07 4.7-9.47 9.07-5.43-9.47-4.7zM1838.65 558.61l-6.05 4.16 6.77 2.85 4.16 6.05 2.85-6.77 6.05-4.16-6.77-2.85-4.17-6.05-2.84 6.77zM2458.39 216.9l-6.07-3.59.25 7.06-3.59 6.08 7.06-.26 6.07 3.59-.25-7.06 3.59-6.07-7.06.25z"/>
    <path class="i" d="m2040.06 701.49-2.14 5.84 6.08-1.35 5.84 2.15-1.35-6.08 2.14-5.84-6.07 1.35-5.85-2.15 1.35 6.08zM2484.77 101.38l-.16 6.38 5.46-3.31 6.37.15-3.31-5.45.16-6.38-5.45 3.31-6.38-.15 3.31 5.45zM2036.72 661.85l-6.99-7.13-2.24 9.73-7.13 6.98 9.73 2.24 6.98 7.13 2.24-9.72 7.14-6.99-9.73-2.24zM2161.51 660.71l9.49 4.62-1.24-10.49 4.62-9.49-10.48 1.24-9.49-4.62 1.23 10.48-4.61 9.5 10.48-1.24zM2215.54 487.74l9.69 5.02-1-10.87 5.02-9.69-10.87 1-9.69-5.02 1 10.87-5.02 9.69 10.87-1zM2233.97 634.26l-5.92-6.59-2.36 8.54-6.58 5.92 8.54 2.35 5.92 6.59 2.35-8.54 6.59-5.92-8.54-2.35zM2181.11 797.78l6.95 2.73-1.45-7.32 2.73-6.94-7.32 1.44-6.94-2.73 1.45 7.32-2.74 6.94 7.32-1.44zM2291.47 95.51l-2.96 8.33 8.62-2 8.33 2.95-2.01-8.61 2.96-8.34-8.61 2.01-8.34-2.95 2.01 8.61zM2232.45 116.85l-4.97-8.7-4.64 8.88-8.7 4.97 8.88 4.64 4.97 8.7 4.65-8.88 8.7-4.97-8.89-4.64zM2224.34 289.59l-5.38-9.36-4.98 9.58-9.36 5.38 9.58 4.98 5.38 9.35 4.98-9.58 9.35-5.38-9.57-4.97zM2178.28 34.46l7.5-.29-4.29-6.16-.29-7.51-6.17 4.3-7.5.29 4.29 6.16.3 7.51 6.16-4.3zM2191.26 400.34l8.01.89-3.57-7.22.89-8.01-7.23 3.57-8.01-.88 3.58 7.22-.89 8.01 7.22-3.58zM2188.51 582.51l-10.14 4.01 8.85 6.38 4.01 10.15 6.38-8.85 10.15-4.02-8.85-6.37-4.02-10.15-6.38 8.85zM2235.68 841.09l4.04 5.49 2.44-6.36 5.49-4.04-6.36-2.45-4.04-5.49-2.45 6.37-5.48 4.04 6.36 2.44zM2115 138.36l6.95.46-3.36-6.1.46-6.94-6.1 3.36-6.94-.46 3.36 6.1-.46 6.94 6.09-3.36zM2168.63 585.29l-3.49-10.28-6.78 8.48-10.28 3.49 8.49 6.77 3.48 10.28 6.78-8.48 10.28-3.49-8.48-6.77zM2115.26 513l-4.14 10.25 10.87-2.04 10.26 4.14-2.04-10.87 4.14-10.26-10.87 2.05-10.26-4.15 2.04 10.88zM2044.99 201.01l2.5 7.14 4.67-5.95 7.14-2.5-5.95-4.67-2.5-7.14-4.67 5.95-7.14 2.5 5.95 4.67zM2095.68 548.77l3.38-6.01-6.89.4-6.01-3.38.4 6.89-3.38 6.01 6.89-.4 6.01 3.38-.4-6.89zM2081.17 700.44l-9.01 6.12 10.02 4.28 6.12 9 4.28-10.01 9-6.12-10.01-4.28-6.13-9-4.27 10.01zM2043.44 619.76l9.48-4.22-8.66-5.7-4.22-9.48-5.7 8.66-9.47 4.22 8.65 5.7 4.22 9.47 5.7-8.65zM1958.52 224.21l-.69-7.73-6.14 4.75-7.74.69 4.75 6.14.69 7.74 6.14-4.76 7.74-.69-4.75-6.14zM1986.64 569.6l-8.73 5.43 9.28 4.42 5.43 8.73 4.42-9.28 8.73-5.43-9.28-4.42-5.43-8.73-4.42 9.28zM1884.99 125.5l-5.67 2.48 5.15 3.44 2.48 5.67 3.44-5.15 5.67-2.48-5.15-3.44-2.48-5.67-3.44 5.15zM1888.08 297.24l9.65-5.65-9.96-5.08-5.65-9.66-5.08 9.97-9.66 5.64 9.97 5.09 5.64 9.65 5.09-9.96zM1827.74 15.77l6.97 2.28-1.84-7.1 2.29-6.97-7.11 1.84-6.97-2.29 1.84 7.1-2.29 6.98 7.11-1.84zM1873.05 485.28l6.75-1.11-4.57-5.09-1.1-6.75-5.09 4.57-6.75 1.11 4.57 5.09 1.1 6.75 5.09-4.57zM1803.19 82.28l6.29 6.55 2.13-8.83 6.55-6.29-8.83-2.13-6.29-6.55-2.13 8.83-6.55 6.29 8.83 2.13zM1848.09 482.07l1.92-10.13-9.57 3.85-10.13-1.91 3.86 9.56-1.92 10.13 9.57-3.85 10.13 1.91-3.86-9.56zM1847.84 650.7l4.8-4.04-5.99-1.87-4.03-4.8-1.87 5.98-4.8 4.03 5.98 1.88 4.03 4.8 1.88-5.98zM1753.59 680.54l2.55-9.77-9.6 3.12-9.77-2.55 3.12 9.61-2.55 9.77 9.6-3.13 9.77 2.55-3.12-9.6zM1694.68 462.46l5.04-3.32-5.51-2.46-3.32-5.04-2.45 5.51-5.05 3.32 5.52 2.46 3.31 5.04 2.46-5.51zM1628.5 381.3l-6.92-.22 3.55 5.95-.22 6.93 5.95-3.55 6.93.22-3.55-5.96.22-6.93-5.96 3.56zM1601.09 82.47l-5.78 4.49 6.89 2.44 4.49 5.77 2.44-6.89 5.77-4.49-6.89-2.44-4.49-5.77-2.43 6.89zM1606.96 581.17l6.14 1.99-1.64-6.24 1.99-6.14-6.25 1.63-6.14-1.98 1.64 6.24-1.99 6.14 6.25-1.64zM1599.91 934.81l3.69 6.49 3.48-6.6 6.5-3.68-6.61-3.49-3.68-6.49-3.48 6.6-6.5 3.68 6.6 3.49zM1560.95 39.04l8.56-4.18-8.13-4.95-4.18-8.56-4.95 8.13-8.56 4.18 8.14 4.95 4.17 8.56 4.95-8.13zM1539.42 349.76l-5.18-9.43-5.14 9.45-9.43 5.17 9.44 5.15 5.18 9.43 5.14-9.45 9.43-5.17-9.44-5.15zM1510.77 561.94l3.79 9.36 5.84-8.24 9.37-3.79-8.25-5.85-3.79-9.36-5.84 8.24-9.37 3.8 8.25 5.84zM1487.45 426.46l-.55-6.09-4.83 3.75-6.09.56 3.75 4.82.56 6.1 4.83-3.76 6.09-.55-3.76-4.83zM1476.42 248.37l6.6-5.23-7.97-2.74-5.22-6.59-2.74 7.96-6.6 5.23 7.96 2.73 5.23 6.6 2.74-7.96zM1452.79 278.81l-6.26 1.03 4.24 4.72 1.02 6.26 4.72-4.24 6.26-1.02-4.24-4.72-1.02-6.27-4.72 4.24zM1446.02 125.99l7.66.23-3.94-6.57.22-7.66-6.57 3.94-7.65-.22 3.94 6.57-.23 7.65 6.57-3.94zM1396.99 406.39l-3.87-8.62-5.17 7.92-8.61 3.87 7.91 5.17 3.88 8.62 5.16-7.92 8.62-3.87-7.92-5.17zM1327.08 846.72l7.82 1.49-2.97-7.38 1.49-7.82-7.38 2.97-7.82-1.49 2.97 7.38-1.49 7.82 7.38-2.97zM1373.1 47.59l-7.43 1.94 5.65 5.21 1.95 7.43 5.2-5.65 7.43-1.95-5.65-5.2-1.95-7.43-5.2 5.65zM1308.98 184.39l-.53-6.42-5.12 3.91-6.42.54 3.92 5.11.53 6.42 5.11-3.91 6.42-.54-3.91-5.11zM1266.03 345.37l-9.9 2.32 7.29 7.09 2.31 9.9 7.09-7.29 9.9-2.32-7.29-7.08-2.31-9.91-7.09 7.29zM1198.62 784.16l6.78 4.15-.16-7.95 4.15-6.79-7.95.16-6.79-4.15.16 7.96-4.15 6.78 7.96-.16zM1276.3 71.2l9.14-4.21-8.48-5.43-4.21-9.14-5.43 8.48-9.14 4.22 8.48 5.42 4.22 9.14 5.42-8.48zM1245.69 73.92l-6.96 6.89 9.56 2.14 6.9 6.96 2.14-9.56 6.95-6.9-9.56-2.14-6.89-6.95-2.14 9.56zM1209.53 85.16l-5.96 9.22 10.98.05 9.23 5.96.04-10.98 5.97-9.23-10.99-.04-9.22-5.96-.05 10.98zM1179.59 457.55l1.31-6.8-6.43 2.57-6.81-1.31 2.57 6.44-1.3 6.8 6.43-2.57 6.8 1.31-2.57-6.44zM1144.86 781.18l8.42 1.4-3.36-7.84 1.41-8.42-7.85 3.36-8.42-1.41 3.36 7.85-1.41 8.42 7.85-3.36zM1173.67 798.04l-8.19-5.98-.62 10.12-5.98 8.2 10.12.62 8.2 5.99.62-10.13 5.98-8.2-10.13-.62zM1154.72 881.91l9.36 4.45-1.31-10.28 4.45-9.36-10.28 1.3-9.36-4.44 1.3 10.28-4.45 9.36 10.29-1.31zM1139.95 894.99l-8.84-1 3.93 7.99-1 8.85 7.99-3.94 8.85 1.01-3.94-8 1-8.84-7.99 3.93z"/>
    <path class="i" d="m1176.28 811.21 5.7-6.17-8.27-1.47-6.17-5.7-1.47 8.27-5.7 6.17 8.27 1.47 6.17 5.7 1.47-8.27zM1148.9 837.39l-5 9.9 11.04-1.13 9.9 5.01-1.13-11.04 5.01-9.91-11.04 1.13-9.9-5 1.12 11.04zM1072.35 265.82l-.99-9.16-7.17 5.78-9.16.99 5.78 7.17.99 9.16 7.17-5.77 9.16-.99-5.78-7.18zM1101.89 484.02l3.05-10.57-10.54 3.13-10.57-3.05 3.13 10.55-3.05 10.56 10.54-3.13 10.57 3.06-3.13-10.55zM1047.38 323.62l5.52-3.59-6-2.72-3.59-5.52-2.71 6-5.52 3.59 6 2.72 3.59 5.52 2.71-6z"/>
    <path class="i" d="m1136.52 863.84 3.09 10.62 7.27-8.33 10.62-3.09-8.33-7.28-3.09-10.62-7.28 8.34-10.62 3.09 8.34 7.27zM1135.21 748.21l2.21 9.94 7.18-7.22 9.94-2.2-7.22-7.18-2.2-9.95-7.19 7.22-9.94 2.21 7.22 7.18zM1138.47 811.27l5.58 4.1.44-6.9 4.1-5.58-6.9-.44-5.58-4.1-.44 6.9-4.1 5.58 6.9.44zM1010.35 458.08l-4.37 5.17 6.71.89 5.17 4.37.89-6.71 4.37-5.17-6.71-.89-5.17-4.37-.89 6.71zM961.78 326.49l-7.35-6.82-1.77 9.86-6.81 7.35 9.86 1.77 7.34 6.82 1.78-9.86 6.81-7.35-9.86-1.77zM1075.61 697.95l5.88 1.05-2.29-5.52 1.06-5.88-5.53 2.28-5.88-1.05 2.29 5.52-1.06 5.88 5.53-2.28zM856.55 196.48l2.99-6.09-6.75.77-6.09-2.99.77 6.74-2.98 6.1 6.74-.77 6.09 2.98-.77-6.74zM877.18 327.06l-10.14-.81 4.79 8.97-.81 10.15 8.98-4.79 10.14.81-4.79-8.98.81-10.14-8.98 4.79zM1039.47 746.36l-7.87-7.44-2.02 10.63-7.45 7.87 10.64 2.03 7.87 7.44 2.02-10.64 7.45-7.87-10.64-2.02zM854.55 363.75l7.03.27-3.57-6.06.27-7.03-6.06 3.57-7.03-.27 3.57 6.06-.27 7.03 6.06-3.57z"/>
    <path class="i" d="m1028.99 745.94 9.78 3.34-2.45-10.03 3.34-9.78-10.03 2.46-9.78-3.35 2.45 10.03-3.34 9.78 10.03-2.45zM1110.89 937.49l-4.08 5.47 6.81.48 5.46 4.09.49-6.81 4.08-5.47-6.8-.49-5.47-4.08-.49 6.81zM899.42 542.13l2.36-6.48-6.73 1.51-6.47-2.36 1.5 6.73-2.35 6.48 6.72-1.51 6.48 2.36-1.51-6.73zM765.91 322.9l2.51-5.49-5.97.85-5.49-2.52.85 5.98-2.52 5.49 5.98-.85 5.49 2.51-.85-5.97zM929.74 691.54l-10.69 2.06 7.49 7.89 2.06 10.7 7.89-7.5 10.7-2.05-7.5-7.9-2.05-10.69-7.9 7.49zM618.67 161.67l3.97-7.99-8.87.97-7.99-3.98.97 8.87-3.98 7.99 8.87-.96 7.99 3.97-.96-8.87zM847.18 583.08l7.32 4.32-.32-8.49 4.31-7.32-8.49.31-7.32-4.31.32 8.49-4.31 7.32 8.49-.32zM717.64 421.57l9.48-3.51-8.07-6.08-3.51-9.48-6.08 8.07-9.48 3.51 8.07 6.09 3.51 9.47 6.08-8.07zM768.28 521.03l-7.2 2.13 5.68 4.91 2.13 7.2 4.91-5.68 7.2-2.13-5.67-4.91-2.14-7.2-4.91 5.68zM666.2 402.03l-10.83 1.75 7.31 8.17 1.75 10.84 8.18-7.32 10.83-1.75-7.31-8.18-1.75-10.83-8.18 7.32zM870.32 711.81l6.28-1.52-4.67-4.46-1.51-6.27-4.46 4.66-6.28 1.52 4.66 4.46 1.52 6.27 4.46-4.66zM676.05 465.81l8.63-4.72-8.64-4.72-4.72-8.64-4.72 8.64-8.64 4.73 8.64 4.72 4.73 8.63 4.72-8.64zM461.16 197.25l8.27.54-4.01-7.24.54-8.26-7.25 4-8.26-.54 4.01 7.25-.54 8.26 7.24-4.01zM683.53 521.12l-8.89 1.88 6.38 6.47 1.87 8.88 6.47-6.37 8.89-1.88-6.37-6.47-1.88-8.88-6.47 6.37zM236.71 3.4l-2.13 8.78-6.53 6.24 8.78 2.13 6.24 6.53 2.13-8.77 6.53-6.25M338.7 158.62l2.99-7.13-7.61 1.33-7.13-2.98 1.34 7.61-2.98 7.12 7.6-1.33 7.13 2.98-1.34-7.6zM765.79 685.67l-6.59 1.39 4.72 4.8 1.39 6.6 4.8-4.73 6.6-1.39-4.73-4.8-1.38-6.59-4.81 4.72zM466.27 392.66l8.4-6.67-10.15-3.48-6.66-8.4-3.48 10.15-8.4 6.67 10.15 3.47 6.67 8.4 3.47-10.14zM282 274.84l4.38 4.12 1.11-5.91 4.11-4.38-5.91-1.1-4.38-4.12-1.1 5.91-4.11 4.38 5.9 1.1zM483.78 473.37l-7.99-3.12 1.68 8.4-3.11 7.99 8.4-1.68 7.99 3.11-1.68-8.4 3.11-7.99-8.4 1.69zM749.71 720.45l8.35 6.33.83-10.44 6.34-8.34-10.45-.84-8.34-6.34-.83 10.45-6.34 8.34 10.44.84zM875.38 829.49l-6.95 5.09 8.04 3.1 5.1 6.95 3.09-8.04 6.95-5.1-8.04-3.09-5.09-6.95-3.1 8.04zM238.61 445.55l5.02-3.66-5.79-2.25-3.65-5.02-2.26 5.78-5.02 3.66 5.79 2.25 3.66 5.02 2.25-5.78zM790.2 598.85l-11.14.56 6.49 9.08.56 11.14 9.08-6.49 11.14-.56-6.49-9.08-.56-11.14-9.08 6.49zM421.53 164.43l-6.49-1.39 2.33 6.22-1.38 6.5 6.21-2.34 6.5 1.39-2.33-6.22 1.38-6.5-6.22 2.34zM685.4 932.67l4.35 5.11 1.96-6.42 5.11-4.35-6.42-1.96-4.35-5.11-1.96 6.42-5.11 4.35 6.42 1.96zM531.07 540.77l-3.55 6.86 7.69-.71 6.86 3.56-.71-7.7 3.55-6.86-7.69.71-6.85-3.55.7 7.69zM610.91 656.16l-3.34-8.24-5.13 7.25-8.24 3.34 7.26 5.14 3.34 8.23 5.13-7.25 8.23-3.34-7.25-5.13zM347.63 116.1l-5.3 8.61 10.11-.19 8.62 5.3-.19-10.11 5.29-8.62-10.11.19-8.61-5.29.19 10.11zM525.91 432.93l7.04-2.87-6.21-4.38-2.86-7.04-4.38 6.21-7.05 2.87 6.21 4.38 2.87 7.04 4.38-6.21zM445.59 237.28l-5.71-3.11.47 6.48-3.11 5.7 6.48-.46 5.7 3.11-.46-6.48 3.11-5.71-6.48.47zM455.99 214.72l6.65-5.52-8.24-2.62-5.52-6.65-2.62 8.23-6.66 5.53 8.24 2.62 5.53 6.65 2.62-8.24zM888.25 1061.05l-7.25-8.26-3.05 10.56-8.26 7.26 10.57 3.04 7.25 8.26 3.04-10.56 8.27-7.26-10.57-3.04zM871.36 1013.24l4.57 5.29 1.99-6.7 5.29-4.58-6.7-1.99-4.57-5.29-1.99 6.71-5.29 4.57 6.7 1.99zM501.83 117.68l-9.46-5.63.36 11.01-5.63 9.47 11.01-.37 9.47 5.63-.37-11.01 5.64-9.47-11.02.37z"/>
    <path class="i" d="m694.89 528.01-1.82-9.09-6.66 6.44-9.09 1.82 6.44 6.67 1.82 9.08 6.66-6.43 9.09-1.82-6.44-6.67zM634.07 347.12l7.29-2.82-6.31-4.62-2.82-7.3-4.62 6.31-7.29 2.82 6.31 4.62 2.82 7.29 4.62-6.3zM546.79 97.13l-9.11 1.12 5.86 7.06 1.12 9.11 7.06-5.86 9.11-1.12-5.86-7.06-1.12-9.11-7.06 5.86zM726.95 476.42l-6-1.67 1.83 5.95-1.67 6 5.96-1.83 6 1.67-1.84-5.95 1.67-6-5.95 1.83zM779.32 585.09l6.11 5.96 1.72-8.36 5.96-6.11-8.36-1.72-6.11-5.96-1.72 8.36-5.96 6.11 8.36 1.72zM823.29 651.73l-7.82.6 4.72 6.26.6 7.82 6.26-4.72 7.82-.6-4.72-6.26-.6-7.82-6.26 4.72zM899.29 824.09l5.94.94-2.41-5.51.95-5.95-5.52 2.42-5.94-.95 2.41 5.51-.95 5.95 5.52-2.41zM856.12 705.99l9.57 1.94-3.53-9.11 1.95-9.58-9.11 3.53-9.58-1.95 3.53 9.11-1.95 9.58 9.12-3.52zM969.3 1033.84l5.61-9.11-10.7.19-9.11-5.61.19 10.7-5.61 9.11 10.7-.19 9.11 5.61-.19-10.7zM759.25 115.68l-4.16-6.34-3.09 6.92-6.34 4.16 6.92 3.09 4.16 6.34 3.09-6.92 6.34-4.16-6.92-3.09zM840 357.85l.99-7.48-6.83 3.2-7.48-1 3.19 6.84-.99 7.48 6.83-3.2 7.48 1-3.19-6.84zM843.02 253l5.56 3.6.03-6.62 3.6-5.55-6.61-.04-5.56-3.6-.04 6.62-3.6 5.55 6.62.04zM900.38 482.63l-6.59 1.65 4.95 4.65 1.64 6.59 4.66-4.94 6.59-1.65-4.94-4.66-1.65-6.59-4.66 4.95zM986.47 913.87l4.2 4.88 1.84-6.17 4.89-4.2-6.17-1.84-4.2-4.89-1.85 6.17-4.88 4.2 6.17 1.85zM956.8 607.91l-2.62-8.28-5.56 6.67-8.29 2.62 6.68 5.57 2.62 8.29 5.56-6.68 8.29-2.62-6.68-5.57zM883.11 164.06l-1.26 10.73 9.72-4.73 10.73 1.27-4.72-9.72 1.26-10.73-9.72 4.72-10.73-1.26 4.72 9.72zM973.81 755.53l4.89 5.76 2.21-7.22 5.77-4.89-7.23-2.22-4.89-5.77-2.21 7.23-5.77 4.89 7.23 2.22zM1004.48 865.91l9.94-1.21-6.38-7.71-1.22-9.95-7.71 6.39-9.94 1.21 6.38 7.72 1.22 9.94 7.71-6.39zM971.45 239.61l7.79 7.12 1.79-10.4 7.12-7.8-10.4-1.79-7.8-7.11-1.79 10.4-7.12 7.8 10.41 1.78zM1002.45 414.93l-3.91-4.59-1.76 5.77-4.59 3.92 5.77 1.76 3.92 4.59 1.76-5.78 4.59-3.91-5.78-1.76zM1050.43 601.3l2-8.65-8.36 2.99-8.66-1.99 2.99 8.36-1.99 8.66 8.37-3 8.65 1.99-3-8.36zM1053.15 536.41l-3.86-7.18-3.96 7.12-7.18 3.86 7.12 3.96 3.86 7.18 3.96-7.12 7.18-3.86-7.12-3.96zM1059.65 659.7l-10.26-3.4 2.67 10.47-3.4 10.26 10.48-2.67 10.26 3.4-2.68-10.47 3.4-10.26-10.47 2.67zM1068.83 693.42l3.32 6.15 3.39-6.11 6.15-3.32-6.12-3.39-3.32-6.15-3.38 6.11-6.16 3.32 6.12 3.39zM1102.15 480.78l7.48-6.82-9.78-2.61-6.82-7.47-2.61 9.77-7.47 6.83 9.77 2.61 6.83 7.47 2.6-9.78zM1114.52 865.07l-3.35-5.93-3.19 6.02-5.92 3.35 6.02 3.18 3.34 5.93 3.19-6.02 5.92-3.35-6.01-3.18zM1042.75 1102.55l5.91 8.49 3.96-9.55 8.49-5.91-9.55-3.96-5.91-8.49-3.96 9.55-8.49 5.91 9.55 3.96zM1156.21 506.86l-2.35 6.55 6.79-1.55 6.55 2.35-1.56-6.79 2.35-6.55-6.78 1.55-6.56-2.35 1.56 6.79zM1124.38 831.48l6.72 2.52-1.5-7.02 2.52-6.72-7.02 1.5-6.73-2.52 1.51 7.02-2.52 6.73 7.02-1.51zM1263.68 209.49l-1.76-6.75-4.74 5.12-6.75 1.76 5.13 4.73 1.76 6.75 4.73-5.12 6.75-1.76-5.12-4.73zM1100.08 1044.78l-3.71 5.03 6.24.41 5.04 3.72.41-6.24 3.71-5.04-6.24-.41-5.04-3.71-.41 6.24zM1386.03 25.23l7.27 2.96-1.44-7.72 2.96-7.27-7.72 1.44-7.27-2.95 1.44 7.71-2.95 7.27 7.71-1.44zM1195.15 817.39l-7.59-1.49 2.84 7.2-1.49 7.58 7.19-2.84 7.59 1.49-2.84-7.19 1.49-7.59-7.19 2.84zM1223.41 783.02l-3.99-6.94-3.69 7.1-6.95 3.99 7.11 3.69 3.98 6.95 3.7-7.1 6.94-3.99-7.1-3.7zM1364.67 321.2l-5.2 7.32 8.97.42 7.32 5.19.42-8.96 5.19-7.32-8.96-.42-7.32-5.2-.42 8.97zM1285.89 649.28l6.21-8.19-10.25-.81-8.19-6.21-.81 10.24-6.21 8.19 10.25.81 8.19 6.21.81-10.24zM1490.87 51.05l-.59 7.35 6.51-3.47 7.35.59-3.47-6.51.6-7.35-6.52 3.47-7.35-.6 3.47 6.52zM1176.41 1063.17l-7.12-7.12-2.16 9.84-7.12 7.13 9.84 2.16 7.13 7.12 2.16-9.85 7.12-7.12-9.85-2.16zM1576.25 12.92l5.67-4.77-7.07-2.2-4.78-5.67-2.19 7.08-5.67 4.77 7.07 2.2 4.77 5.67 2.2-7.08zM1517.62 188.54l1.47 10.15 7.75-6.71 10.14-1.46-6.7-7.75-1.46-10.14-7.75 6.7-10.15 1.46 6.7 7.75zM1171.63 1148.29l2.42 8.97 6.24-6.88 8.97-2.43-6.88-6.24-2.43-8.96-6.24 6.88-8.96 2.43 6.88 6.23zM1267.35 945.86l-.12 8.24 7-4.35 8.23.11-4.35-6.99.12-8.23-7 4.34-8.23-.11 4.35 6.99zM1430.18 587.95l8.71.64-4.16-7.68.65-8.71-7.69 4.16-8.7-.65 4.15 7.68-.64 8.71 7.68-4.15zM1339.64 876.94l7.8-1.57-5.54-5.72-1.57-7.8-5.72 5.53-7.8 1.58 5.53 5.71 1.58 7.8 5.72-5.53zM1247.96 1132.46l-7.03 2.3 5.73 4.68 2.3 7.04 4.68-5.73 7.04-2.3-5.73-4.69-2.3-7.03-4.69 5.73zM1319.36 1054.53l-5.45-6.38-2.43 8.03-6.38 5.45 8.03 2.43 5.45 6.38 2.44-8.03 6.37-5.45-8.03-2.43zM1636.27 159.85l5.29 8.88 4.62-9.24 8.89-5.29-9.25-4.63-5.28-8.88-4.63 9.25-8.88 5.28 9.24 4.63zM1440.65 805.72l-9.85-5.02 1.08 11-5.02 9.85 11-1.08 9.85 5.02-1.08-11 5.02-9.85-11 1.08zM1554.59 550.14l-10.74-1.81 4.27 10.01-1.81 10.74 10.02-4.27 10.73 1.81-4.27-10.01 1.82-10.74-10.02 4.27zM1587.25 344.25l8.71-1.02-5.55-6.78-1.02-8.71-6.78 5.55-8.71 1.02 5.55 6.78 1.02 8.71 6.78-5.55zM1535.97 1223.58l-8.28-7.45-1.81 10.99-7.46 8.28 11 1.81 8.28 7.46 1.81-11 7.45-8.28-10.99-1.81zM1576.6 259.76l1.42 9.63 7.34-6.39 9.63-1.42-6.39-7.34-1.42-9.62-7.34 6.38-9.63 1.42 6.39 7.34zM1653.15 866.68l-7.82-.14 4.1 6.67-.14 7.83 6.67-4.11 7.83.14-4.11-6.67.14-7.82-6.67 4.1zM1556.98 211.53l-3.96 8.85 9.59-1.44 8.86 3.96-1.44-9.59 3.96-8.86-9.6 1.44-8.85-3.96 1.44 9.6zM1777.68 879.83l-8.11 7.67 10.83 2.69 7.67 8.11 2.69-10.83 8.11-7.67-10.83-2.69-7.67-8.11-2.69 10.83zM1940.06 1164.1l5.73-2.99-5.61-3.21-3-5.74-3.21 5.62-5.73 2.99 5.62 3.21 2.99 5.74 3.21-5.62zM1323.27 141.77l-9.44 2.19 6.93 6.76 2.18 9.44 6.77-6.93 9.44-2.18-6.93-6.77-2.18-9.44-6.77 6.93zM1393.53 209.09l9.78-1.85-6.84-7.24-1.84-9.78-7.24 6.84-9.78 1.84 6.83 7.24 1.85 9.78 7.24-6.83zM1514.14 394.75l-5.32 9.12 10.55-.45 9.12 5.32-.44-10.55 5.31-9.12-10.54.44-9.13-5.31.45 10.55z"/>
    <path class="i" d="m1350.4 322.69.66 6.16 4.83-3.88 6.15-.66-3.88-4.82-.66-6.16-4.82 3.88-6.15.66 3.87 4.82zM1709.42 517.48l-8.24 2.33 6.41 5.69 2.33 8.24 5.69-6.41 8.24-2.33-6.41-5.68-2.33-8.25-5.69 6.41zM1952.38 599.38l-.7-10.89-8.79 6.47-10.89.7 6.47 8.79.7 10.89 8.79-6.46 10.89-.71-6.47-8.79zM1937.48 582.85l4.37-5.42-6.92-.76-5.41-4.37-.76 6.92-4.37 5.42 6.92.76 5.42 4.37.75-6.92zM1945.58 542.8l6.52 8.64 3.75-10.15 8.64-6.51-10.14-3.76-6.51-8.64-3.76 10.15-8.64 6.51 10.14 3.76zM1728.99 471.39l6.45 4.03-.09-7.6 4.03-6.45-7.6.09-6.45-4.02.09 7.6-4.03 6.44 7.6-.09zM1578.85 412.76l-3.78 10.51 10.88-2.48 10.51 3.78-2.48-10.89 3.78-10.5-10.88 2.48-10.51-3.79 2.48 10.89zM2053.72 474.6l-8.44-2.77 2.22 8.6-2.77 8.43 8.6-2.22 8.43 2.77-2.22-8.59 2.77-8.44-8.59 2.22zM1130.38 347.54l10.64 1.55-4.43-9.79 1.55-10.64-9.8 4.43-10.64-1.55 4.43 9.8-1.55 10.64 9.8-4.44zM2052.34 450.53l-2.9 9.63 9.67-2.74 9.63 2.9-2.75-9.67 2.91-9.63-9.68 2.75-9.62-2.91 2.74 9.67zM2295.01 408.07l-.47-8.34-6.76 4.9-8.35.47 4.9 6.77.47 8.34 6.77-4.9 8.34-.47-4.9-6.77zM1432.78 363.7l6.52-6.15-8.7-2.17-6.15-6.52-2.17 8.7-6.51 6.15 8.69 2.17 6.15 6.51 2.17-8.69zM1693.43 358.84l8.91 6.42.6-10.96 6.43-8.91-10.97-.6-8.9-6.42-.61 10.96-6.42 8.9 10.96.61zM1298.35 330.25l-8.42-5.64-.2 10.13-5.64 8.43 10.14.2 8.42 5.63.2-10.13 5.64-8.42-10.14-.2z"/>
    <path class="i" d="m1150.51 342.92-.2-8.28-6.86 4.64-8.28.21 4.64 6.86.21 8.28 6.86-4.64 8.28-.21-4.65-6.86zM1845.98 296.53l-1.25-9.18-7.06 6-9.18 1.25 6.01 7.06 1.25 9.17 7.05-6 9.18-1.25-6-7.05zM2162.53 271.45l7.69-3.6-7.18-4.54-3.6-7.69-4.53 7.19-7.69 3.6 7.18 4.53 3.6 7.69 4.53-7.18zM1652.44 274.69l4.08-10.36-10.92 2.16-10.37-4.08 2.16 10.92-4.07 10.36 10.92-2.15 10.36 4.07-2.16-10.92zM1985.44 220.49l-8.43 5.98 9.58 3.88 5.97 8.43 3.88-9.58 8.44-5.98-9.59-3.88-5.97-8.43-3.88 9.58zM1888.34 221.32l5.61-4.32-6.66-2.39-4.32-5.61-2.39 6.66-5.61 4.31 6.66 2.4 4.31 5.61 2.4-6.66zM1321.18 265.07l5.6-8.91-10.52.09-8.91-5.61.09 10.53-5.61 8.9 10.53-.08 8.9 5.6-.08-10.52zM1646.18 200.83l-10.08 4.56 9.28 6.02 4.56 10.08 6.03-9.28 10.08-4.56-9.28-6.02-4.56-10.08-6.03 9.28zM2134.57 134.32l-7.72 3.76 7.33 4.47 3.76 7.72 4.47-7.33 7.72-3.77-7.33-4.47-3.76-7.72-4.47 7.34z"/>
    <image width="492" height="432" transform="translate(1034 504.18)" xlink:href="youtube_header2.png"/>
    <path d="M1430 774.73c-.14.33-6.33.94-10.7-3.53a.11.11 0 0 0-.17.11 10.72 10.72 0 0 1-.42 8.7 15.7 15.7 0 0 1-21.69 6.78l-9-4.6a.14.14 0 0 0-.11 0c-.39.31-3.25 2.49-7.64 5.26-11.88 7-23.82 12.87-37.81 14.42a.1.1 0 0 0-.08.12c5.41 22.27-11.26 38.67-13.18 40.47a.1.1 0 0 0 .07.17c24.37.57 24.1 15.37 24 16.68a.09.09 0 0 1-.1.1h-138.44a.1.1 0 0 1-.1-.11l.91-8.42a.1.1 0 0 0-.13-.1c-20 5.67-44.55.28-58.41-13.78-29.53-36.42-10.84-76.16-1.79-112.74 6.57-26.76 12.67-59.21 5.48-74-9.88-20.28-32.18-23.06-49.77-3.62a.1.1 0 0 1-.18-.07c10-116.54 164.52-61.08 143.63 30.23a.1.1 0 0 0 .1.12c9-.18 20.79 1.57 34.35 6.63 0 0 33.16 11 46.54-6.37.22-.6 7.07-19.79 17.75-24.24a.09.09 0 0 0 .05-.11c-.45-1.61-6.88-26.27 21.58-47.78a.1.1 0 0 1 .16.1c-.69 2.56-5.28 21.76 9.48 32.63.55.29 35.17 18.34 38.12 22.9s24.74 32.8 26.75 70.9a.11.11 0 0 1 0 .09c-9.14 5.86-18.2 10.75-29.46 12.63a.1.1 0 0 0 0 .17c2.12 1.95 25.87 24.1 10.24 30.26zM1320.9 859" stroke-width="17.7" stroke-miterlimit="7.57" stroke="#161515" fill="#161515"/>
    <path d="M1253.15 676.93c10-48-85.59-121.35-140.65-32.56m102.82 43.44c18.68-49.81-47.76-132.23-102.82-43.44m230.3 158.11c-11-134.84-145.14-110.47-157.1-74.3m27.84 132.59c54.42-18.89 75.08-11 106.78-70.8 18.75-50.55 65.46-37.53 68.46-35m-128.25 88.89c-23.24-9.36-78.84-65.13-53.73-108.93 34.36-59.91 136.58.72 207.17-2.81 11.74-1.5 25.43-9.15 32-9.59m-92.76-69.18c7 27 48.14 3.94 61 21.75 13.64 18.92 23.94 61.78 23.94 61.78m-284.37-153.1c103.53 15.94 59.77 107.76 59.77 107.76m-42.39 157.06c78.47-33.19 122.85-62.84 124.14-161.86m56.91-33s-7.92-25.75 21.79-48c0 0-6.44 21.26 9.41 32.92 0 0 35.16 18.31 38.13 22.9s24.76 32.83 26.75 71c0 0-17.56 12.34-36.7 12.13a39.9 39.9 0 0 1-13.12-2.81 195.87 195.87 0 0 1-39.83-23.16c-4.83-3.8-6.79-13.13-8.67-21.5-3.77-16.79 2.24-43.46 2.24-43.46zm-202.25-69c95.25 42.39-8.15 154.45-10.34 197.94-1.23 23 1.89 40.1 16.39 55.14a50.91 50.91 0 0 0 28.57 15 63.2 63.2 0 0 0 9.37.91 79.41 79.41 0 0 0 10.3-.44c3.59-.38 9.54-2.43 13.37-3.63 11.58-3.66 50.91-24.66 69.38-47.92 27.24-34.38 45.21-104 47.4-122.55m-194.88 103.57c-.16-4.25 8.16-31 14.7-57.64s12.67-59.21 5.48-74c-9.92-20.35-32.35-23.08-50-3.39 9.73-117 164.69-61.4 144.6 30m164.21 67.45s26.78 23.94 10.43 30.38a13.26 13.26 0 0 1-11.34-4.56m-38.07-38.74s-18.45 16.22 25.7 28.7c0 0 18.44 7.26 12.45 19.91-3.82 8.07-13.84 11-21.69 6.79l-9.11-4.63s-47.28 36.91-66.61 6.93c-29.86-103.24-151.13-79.43-133.64 8.65m133.64 61.67a8.38 8.38 0 0 0-.71-.9c-1.14-6.22-3.36-15-23.71-15.88s-47.58-.06-70 3m-12.2 5.35v8.47h138.58s1.48-16.29-24.27-16.78c0 0 19.15-17.07 15.77-39.51m-117.88 42.47S1129 775.4 1208 697.22c0 0 27.47-31 79.82-12.79 0 0 33.18 11 46.55-6.38 0 0 6.93-19.84 17.83-24.29" stroke-width="2.3" stroke="#d9b776" stroke-miterlimit="7.57" fill="none"/>
    <path d="M1430 774.73s-6.17.92-10.54-3.36a.15.15 0 0 0-.25.16 10.66 10.66 0 0 1-.5 8.48 15.7 15.7 0 0 1-21.69 6.78l-9-4.58a.15.15 0 0 0-.17 0c-.49.38-3.32 2.52-7.61 5.23-11.86 7-23.78 12.86-37.74 14.41a.16.16 0 0 0-.14.19c5.28 21.9-10.76 38.11-13.09 40.32a.15.15 0 0 0 .11.26c23.93.62 24 15 23.89 16.63a.17.17 0 0 1-.16.15h-138.32a.16.16 0 0 1-.16-.18l.9-8.27a.15.15 0 0 0-.2-.16c-19.95 5.63-44.49.24-58.33-13.79-29.53-36.42-10.84-76.16-1.79-112.74 6.57-26.76 12.67-59.21 5.48-74-9.86-20.24-32.08-23-49.66-3.74a.16.16 0 0 1-.27-.12c10.1-116.29 164.41-60.89 143.63 30.33a.15.15 0 0 0 .15.19c9-.17 20.76 1.58 34.28 6.63 0 0 33.15 11 46.53-6.37.26-.73 7.08-19.74 17.69-24.21a.16.16 0 0 0 .09-.18c-.55-2-6.6-26.34 21.46-47.63a.16.16 0 0 1 .25.16c-.81 3.1-5 21.8 9.52 32.47.69.36 35.18 18.34 38.12 22.89s24.73 32.78 26.74 70.87a.14.14 0 0 1-.07.14c-9.1 5.83-18.12 10.7-29.32 12.59a.16.16 0 0 0-.08.27c2.59 2.38 25.68 24.07 10.24 30.15zM1320.9 859" stroke-width="4.34" stroke="#d9b776" stroke-miterlimit="7.57" fill="none"/>
  </g>
</svg>
