<svg xmlns="http://www.w3.org/2000/svg" xmlns:xlink="http://www.w3.org/1999/xlink" width="800" height="800" viewBox="0 0 800 800">
  <defs>
    <style>
      .cls-1, .cls-11, .cls-2, .cls-3, .cls-5, .cls-6 {
        fill: none;
      }

      .cls-11, .cls-14, .cls-15, .cls-16, .cls-17, .cls-18, .cls-19, .cls-2, .cls-20, .cls-21, .cls-22, .cls-23, .cls-24, .cls-25, .cls-26, .cls-27, .cls-28, .cls-29, .cls-3, .cls-30, .cls-31, .cls-32, .cls-33, .cls-34, .cls-35, .cls-36, .cls-37, .cls-38, .cls-39, .cls-40, .cls-41, .cls-42, .cls-43, .cls-44, .cls-5, .cls-6 {
        stroke: #d9b776;
      }

      .cls-2, .cls-3 {
        stroke-miterlimit: 11.34;
      }

      .cls-2 {
        stroke-width: 1.7px;
      }

      .cls-3 {
        stroke-width: 1.42px;
      }

      .cls-14, .cls-15, .cls-16, .cls-17, .cls-18, .cls-19, .cls-20, .cls-21, .cls-22, .cls-23, .cls-24, .cls-25, .cls-26, .cls-27, .cls-28, .cls-29, .cls-30, .cls-31, .cls-32, .cls-33, .cls-34, .cls-35, .cls-36, .cls-37, .cls-38, .cls-39, .cls-4, .cls-40, .cls-41, .cls-42, .cls-43, .cls-44, .cls-7 {
        fill: #161515;
      }

      .cls-4 {
        stroke: #161515;
        stroke-width: 56.69px;
      }

      .cls-4, .cls-5, .cls-6 {
        stroke-miterlimit: 7.57;
      }

      .cls-5 {
        stroke-width: 7.37px;
      }

      .cls-6 {
        stroke-width: 13.89px;
      }

      .cls-8 {
        clip-path: url(#clip-path);
      }

      .cls-9 {
        clip-path: url(#clip-path-2);
      }

      .cls-10 {
        clip-path: url(#clip-path-3);
      }

      .cls-11 {
        stroke-miterlimit: 8.09;
        stroke-width: 13.75px;
      }

      .cls-12 {
        fill-opacity: 0.8;
        opacity: 0.8;
        fill: url(#New_Pattern_Swatch_22);
      }

      .cls-13 {
        fill: url(#New_Pattern_Swatch_33);
      }

      .cls-14 {
        stroke-width: 0.94px;
      }

      .cls-15 {
        stroke-width: 0.94px;
      }

      .cls-16 {
        stroke-width: 0.94px;
      }

      .cls-17 {
        stroke-width: 0.94px;
      }

      .cls-18 {
        stroke-width: 0.94px;
      }

      .cls-19 {
        stroke-width: 0.94px;
      }

      .cls-20 {
        stroke-width: 0.92px;
      }

      .cls-21 {
        stroke-width: 0.91px;
      }

      .cls-22 {
        stroke-width: 0.91px;
      }

      .cls-23 {
        stroke-width: 0.9px;
      }

      .cls-24 {
        stroke-width: 0.9px;
      }

      .cls-25 {
        stroke-width: 0.88px;
      }

      .cls-26 {
        stroke-width: 0.88px;
      }

      .cls-27 {
        stroke-width: 0.87px;
      }

      .cls-28 {
        stroke-width: 0.86px;
      }

      .cls-29 {
        stroke-width: 0.86px;
      }

      .cls-30 {
        stroke-width: 0.85px;
      }

      .cls-31 {
        stroke-width: 0.85px;
      }

      .cls-32 {
        stroke-width: 0.84px;
      }

      .cls-33 {
        stroke-width: 0.83px;
      }

      .cls-34 {
        stroke-width: 0.82px;
      }

      .cls-35 {
        stroke-width: 0.74px;
      }

      .cls-36 {
        stroke-width: 0.95px;
      }

      .cls-37 {
        stroke-width: 0.94px;
      }

      .cls-38 {
        stroke-width: 0.86px;
      }

      .cls-39 {
        stroke-width: 0.85px;
      }

      .cls-40 {
        stroke-width: 0.83px;
      }

      .cls-41 {
        stroke-width: 0.8px;
      }

      .cls-42 {
        stroke-width: 0.79px;
      }

      .cls-43 {
        stroke-width: 0.75px;
      }

      .cls-44 {
        stroke-width: 0.99px;
      }

      .cls-45 {
        clip-path: url(#clip-path-4);
      }
    </style>
    <clipPath id="clip-path">
      <circle class="cls-1" cx="400" cy="400" r="400"/>
    </clipPath>
    <clipPath id="clip-path-2">
      <rect id="Clipping_Mask" data-name="Clipping Mask" class="cls-1" y="-550" width="1500" height="500"/>
    </clipPath>
    <clipPath id="clip-path-3">
      <path class="cls-1" d="M1500-550H0V-50H1500"/>
    </clipPath>
    <pattern id="New_Pattern_Swatch_22" data-name="New Pattern Swatch 22" width="184.94" height="184.93" patternTransform="matrix(0.92, -0.58, 1.11, 0.48, 123.96, 147.65)" patternUnits="userSpaceOnUse" viewBox="0 0 184.94 184.93">
      <rect class="cls-1" width="184.94" height="184.93"/>
      <path class="cls-2" d="M127.32,173c7.46.12,19.94,1,24,1.34,5.1.43,14-.42,21.26-.85M122.85,173c1-.09,2.59-.1,4.47-.07M134.46,7.4c3.84-.22,8.86-.33,14.12-.38m-24,1.69c1.47-.2,2.77-.41,3.81-.66a42.21,42.21,0,0,1,6.08-.65m-9.89,1.31c-8.74,1.15-23.53,1.47-26.8,1.47M148.58,7c5.43,0,11.12,0,16,0m5.67,0,5.53.08M164.59,7c2.06,0,4,0,5.67.06m14.67.16c-3,0-5.44,0-7.18,0l-2,0m-29.51,19c2.56-.05,5.58-.07,8.84,0m-8.84,0c-2.84.06-5.1.14-6.42.14m20.07.05c7.42.37,14,.74,15.11.8m-19.92-1c1.27,0,2.56.08,3.87.14l.94.05m15.11.8h.16c3,.08,6.26.21,9.73.35m-14.3,20.33c-3-.06-7-.06-11.21.16-8.08.42-20.41-.43-25.09,0m50.6-.49c-3.65.14-7,.31-9.74.49,0,0-1.79-.1-4.56-.16m14.3,15.19c-3.27-.07-7.3-.32-10.59-.57,0,0-24.7.85-37.88.42-4.42-.14-9.6-.29-14.73-.38m-23.54.38c3.39-.57,13.37-.57,23.54-.38M66.6,84.85c3-.42,17.33-.47,26.69-1.32s30.41.63,45.29,1c2,.06,4,.16,6.18.29m0,0,2.55.17m0,0c9.65.7,19.84,1.92,24.81,2.54m11.2.59c-2.07,0-4,0-5.53,0m-5.67-.55,2.26.3m3.41.25c-1,0-1.9-.07-2.59-.14l-.81-.11m10.54.27-1.61,0M113.07,99.89c3-.42,12.76-.42,17.43-.85s17.44.43,24.67.85,21.73.85,21.73.85a77.21,77.21,0,0,1,8,0m0,35.38c-3,0-5.44-.06-7.18-.06,0,0-15.35,0-25.13.86s-25.09,1.7-34.44,2.12-14.89-.42-17.44,0m75.48,17,5.52.18m0,0,3.19.14m-12.12-.55a84.23,84.23,0,0,0-11.27-.23c-4.67.43-20.83-1.27-23-.85m37.63,1.31-1,0s-.95-.09-2.39-.2m.83,17.21c3.17-.21,7-.39,11.29-.55m-30.19-52.6H162c3,0,12.38-1.28,12.38-1.28a105.41,105.41,0,0,1,10.58.23m-115-110L63,8.68M21.65,7.61c14.64.27,29.94.63,35.3.87,1.82.07,3.87.14,6,.2m15.86.42A85.61,85.61,0,0,1,88,9.75m-18.07-.9c3.09.07,6.16.15,8.93.25M12.3,7.43l9.35.17M0,7.26c3,0,6.46.08,10.21.14m2.12,0-2.13,0M126.68,25.48c-5.15,0-10.31.74-16.5-.19M20.55,28.36c-6.91-.21-14.07-.55-20.58-.83m103.41-2.88a33.27,33.27,0,0,1,5.44.41l1.36.23M20.55,28.36c10.53.31,20.47.31,26.62-.75,12.33-2.13,17-2.55,27.21-2.13,8.09.34,20.72-.93,29-.83M0,47.53c22-.87,56.55-1,64.2.06.68.1,1.39.19,2.14.27m48.89-.27c-2.55-.42-16.16-.42-20.84.43-4.32.79-18.82.84-28-.16m-36,14.86c-1.81.23-4,.46-6.74.61-8.08.42-15.95-.85-18.5-.43a33.07,33.07,0,0,1-5.1.15m84.19-.15c-17.86.85-31.89,1.27-41.25-.42-5.32-1-7.77-.37-12.6.24M50.44,87.3a115.13,115.13,0,0,1-13.68,1.13m-18.7-.34,2.26.09M15.58,88l2.48.08m34.06-1-1.68.26M36.76,88.43c-3,.08-6,.06-8.71,0m0,0c-2.78-.06-5.38-.16-7.73-.25M0,88.15C4.4,88.1,9.39,88,13.58,88l2,0M97.77,99.89c-9.54,0-27.34-.78-39.89-.89m0,0A89.6,89.6,0,0,0,45,99.47c-6.8,1.27-11.48,1.7-25.51,1.7-2.26,0-4.38,0-6.37-.06m-3-.07c-3.95-.1-7.31-.23-10.15-.33m13.19.4-3-.07M.84,136.1l4.11.06m58.81,1.37c9.25.24,20.19.38,24.23,1.05M7.28,136.19l-2.33,0m58.81,1.37-3.61-.1M7.28,136.19c17.36.26,42.48.81,49.67,1.12l3.2.12M44.62,156.8q1.37-.15,2.55-.36c9.25-1.59,14.2-2.23,20.41-2.27m-23,2.63C33.83,158,15.14,157,0,156.37m67.61-2.2c2.06,0,4.26,0,6.8.15,10.2.42,27.64-1.7,34.44-.43s12.33.43,17.86.43m-24.87,18.06c1.5,0,3-.06,4.46-.06m-4.46.06a68.58,68.58,0,0,0-9,.65c-4.68.85-21.26.85-30.19-.43-7.48-1.07-40.59-.94-62.65-.13m106.3-.15a68.71,68.71,0,0,1,7.37.28m-40.1-54.36,2.34,0m67.61-.21c-3.1-.58-5-.64-14.26.55-13.18,1.7-31,1.7-39.12.43a61.92,61.92,0,0,0-6.29-.53m-63.27,1.72c1.19,0,2.28.08,3.23.08A156.85,156.85,0,0,0,44.62,119c4.2-.53,17.47-.89,28.92-.79m75.25.79c-2.43-.39-4-.73-5.3-1M20.55,120.22C14.92,120,7,119.25,0,118.84m75.91-.58c1.7,0,3.35.07,4.89.12m0,0c1.07,0,2.09.07,3,.12m-76,66.43v-10.8m-4.68,10.8V174.35m7,10.58v-10.8m2.13,10.8v-11m2.77,11v-11m59.31,11V175.2m2.34,9.73v-9.31m2.13,9.31v-9.52m2.76,9.52v-9.52m-60,9.52v-11m5.18,11V173.71m6.94,11.22V173.71m87.6,11.22V175m8,10V174.77m2.84,10.16V174.28M117,184.93V174.77m-6.45,10.16V174.35M146,184.93V174.85m-6.18,10.08V174.64m-2.93,10.29v-10.5m-2.45,10.5V173.79m17.94,11.14v-9.65m5,9.65v-9.65m-8.86,9.65v-9.86m-78.66,9.86V175.2m30.4,9.73V174.35m2.33,10.58v-10.8m2.13,10.8v-10.8m2.77,10.8V174.35M56,139.21v14.9m1.87-14.47v14.68m2.42,0V139.21m-9.73.21v14.69m17-14.26v14.32m0,.15v-.15m-5.11-.63V139.07m24.45,45.86v-9.52m8.93,9.52V174.56m74.41,10.37v-9.52m5.53,9.52V175M5.29,156.44V138.83m5.17,17.4v-17.4M21.6,156V136.91m-1.87,17.62V137.76M17.4,156.23v-17.4m27.22,18v-.07m.8,0V137.72m-5.27,18.93V137.93m-6.23,17.94V139.11M26.48,155V138.26m-2.63,17.19V138.68m149.61-.84v17.41m2-17.94v17.52m-3.56-17v17.41m9.92-18v16.77m-2.19-15.92V154.9m-1.92-16.49v16.77M42.91,156.87V137.51m124,47.42v-9.1m-71-23V141.26m8,11.36V139.35M91.53,152.62V140.84m-6.45,11.35V141.47m35.43,12.21v-13m-2.26,12.76V140.78m-4.89,12.47V140.92m-3,12.12V140.71M108,152.62V140.28m18.92,13.83V138.75m5,15.36V138.82m-8.85,15.07V141.34M74.8,152.19V139m2.34,13V139.21M79.27,152V139.42M82,152.19V139M70.34,152.4V139.21m74.41-.67v14.71m5.53-14.63v14.21m-8.93-14.43v15.28m-2.27-15.2v15.41m21-15.35v14.71m5.52-14.63v14.21m-8.93-14.43v15.28m-2.26-15.2v15.41m10.2,31v-8.88M7.84,0V7.24M3.16,0V7.24m7,.16V0m0,7.43v0m2.13,0v.22M12.3,0V7.44M15.07,0V7.24M74.38,0V8.73M76.72,0v9m2.13.21V9.1m0-9.13V9.1M81.61,0V8.73m-60-1.07V7.6m0-7.63V7.6M26.83,0V7.66M41.21,0V7.66M54.53,0V7.88M46.32,0V8.09M52,0V7.88M33.77,0V7.66M61,0V8.51M121.37,0V8.73m8-8.76V6.81M132.21,0V6.32M117,0V8.3M110.59,0v9M146,0V6.39M139.84,0V6.46M136.91,0V6.6m-2.45,1.06V7.4m0-7.43V7.4M152.4,0V6.39m5-6.42V6.46M148.58,7h0m0-7V7M69.92,0V8.85m0,.09V8.85M100.32,0V9.58M102.65,0V9.79M104.78,0V10m2.77-10V9.58M86.92,0V9.36M95.85,0V9.79M170.26,0V7.08m0,0v.09m5.53,0v.07m0-7.27V7.16M57.71,0V7m-16.5,177.9V173.75m13.32,11.18V173.11m-8.21,11.82v-11.4M52,184.93V173.32m9,11.61V174.39m-3.28,10.54V172.47M166.86,0V7M164.59,0V7m0,.07V7M6.57,63.88V86.8m-4.67,0V64.09m7-.21V87M11,63.66V87.23M13.8,63.67V86.8m59.32-3.41V65.92m2.34,17.69V66.35m2.12,17.47V66.14m2.77,17.25V66.14m-58-2.47V86.25m5.18-22.8v22.8M41.91,64.43V86.25m11.78-22V85.91M47,64.22V86.67M50.72,64V85.48m-16.25-23V86.25M59.72,65.07V85.14m60.38-3.7V65.71m8-.21v17M130.94,65V82M115.78,81V65.5m-6.45,16.15V65.07M144.76,85v-.1m0,0V65.58m-5.33.64V83m-2.35-17.59V82.17M135,66V83.1M133.2,64.52V83.31M151.14,66V85m5-19V85m-8.86,0V65.79m0,19.82V85M68.65,83.6V65.92m30.4,16.36V65.07m2.34,17.43V64.86m2.13,17.85V64.86m2.76,17.42V65.07M54.75,28V45.81M57.26,28.4V46M59,28V46M49.31,30.15V44.83m17,3V48m0-20.34V47.86m-5.1-20v17.4M85.66,82.07V66.14M94.59,82.5V65.28M169,64.18V85.75m5.53-22v24M56.24,64.86V85.35M4,29.55V47.17M9.2,29.55V47m9.49-17.4V47m1.86-19.32v.73m0,18.38V28.36m-4.41,1.19V47m28-16.55V46.61m-5.27-16V46.4M32.65,29.83V46.6M26.06,29V45.75M23.87,29.83V46.6M175,47.72V27.18m0-.52v.52m-2.3,20.11V28.57m-2.11,19.36v-.07m0-19.29V47.86M180.55,28V46.73m-2.2.85V28.85M41.65,30.19V46.61m124,18v21m-71-58.52V47.47m8-21.32V46.28M90.27,26.66v20.6m-6.45-20V46.83m35.43-20.3V47.34M117,47.13V26.61m-2.48.06V47.13m-5.45-20.6V46.7m-2.34-.42V27.09m18.92,19.7V27.51m5,19.28V27.59m-8.86,20V27.17m-48.26-.38v20M75.88,27V46.62M78,27.21V46.62m2.76-19.83v20M69.08,27V46.07m74.41.85V27.31M149,46.49V27.39m-8.92,20V27.17m-2.27.07V47.55m21-.63V27.31m5.53.08v19.1m-8.93.85V27.17m-2.26,20.38V27.24M54.75,117.48V100.64m1.66,16.63V100.64M59,117.7V100.64m-9.73,17.83V100.85m17,16.85V101.27m-5.1,15.65V100.49M4,118.85V102.21m5.18,0v16.42m11.35,1.75v-.16m0-18v18m-2.29-1.59V102.84m-2.12,15.79V102.21m28,16.08V102.08m-5.27,16V102.29m-6.24,16V101.51m-6.59,17.88V101.64m-2.19,18.6V102.49M175,118.42V101.27m-2.51,15.67V102.12m-1.9,16.51V103.18m9.92-.56v14.81m-2.2.85V103.47M41.65,118.29V101.86m52.94,17.29V101.7m8,16.26V100.77M90.27,118.94V101.28m-6.45-.34V118.5m0,0h0m35.43-17.35V119M117,101.22v17.59m-4.89-.21V101.36m-3,17V101.15M106.71,118V101.7m18.92.43v14.38m5-14.31v14.31m-8.86-14.72v17.44m-48.26-.72v-.27m0-17.82v17.82m2.34,0V100.64m0,17.66v0M78,100.85V118.3m2.76.21v-.13m0,0v-18M69.08,117.74v-17.1m74.41,17.41V101.93m0,16.66v-.54m5.52.12V102m-8.92-.21v15.27m-2.27-15.2v15.41m21,2.31V101.93m5.53,17.22V102m-8.93,17V101.79m-2.26,17.44V101.86m10.2-37V85.68m19.91-21.5V85.75m-3.4-21.15v21m-2.27-20.79V85.68M18.52,64.3V86.88m68,85.57V154.62m2.27,17.9V154.47M91,172.66V155m2.77,17.62v-18M82,172.45V154.83m17,16.85V155.25M37.55,170.87V158.14m4.37,12.52V158.14m14.39,12.52V156.19M65,172.4V154.28M61.41,172.4V155.63M26.48,171.29V158.78m8.71,12.3V157.85m-3.61,13.23V159.21m17.29,11.45V156.19m27.21,17.06V155.08m-4.46,18V155.29m2.76,18V154.87m52.94,18.26V173m0-17.28V173m8,0V156.71M123,155.26v17.66m-6.45-.43V155.9m34.37,17.31V156.32m-1.73,16.47V156.25m-2.41,16.32V156.32m-2.07,17V156.11m-5.27,16.81V155.68m18.92,17.74V156.11m5,17.32V156.18m-9.84,17V156.75M2.1,171V157.76m16.65,13.35v-13M16.48,170.9V158.21M14,170.9V158.28m-2.41,13.39V159.33m-3,12.13V159.12M6.21,171V158.69M21.3,171.33V158.78m85-4.38v17.92m0,.17v-.17m2.34,0V155.6m2.13,16.68V155.81m2.76,16.68V155.38M101.81,172.7v-.32m0-17.76v17.76m74.4-16.33v-.14m0,16.67V156.05m5.53-.07v.25m0,15.92V156.23M172.81,173V155.82m0,0v0m-2.26,17.44V155.84M85.23,62.19V49.25m2.4,13V49.33M89.7,62.4V49.68M92.47,62.4V49.25m-11.7.22V62.19m17-.76V48.91M36.29,61.59V47.89m4.37,13.49V48.87M55.05,63.34V47.89m8.71,15.23V47.93m-3.61,15.2V49.3M25.21,47.55V63m8.72-1.19V47.59M30.31,48V62.72m0,.06v-.06m17.3-1.34V46.91m27.21,2.81V63M70.35,49.93V62.78m2.77-13.27V63m52.93-2.08V48.37m8,12.33V49.39M121.73,62.66v-.14m0-14.58V62.52m-6.45-.28V49.56m35,11.44V49.29m-2.35,11.28V48.93m-2.41,11.43V49m-2.07,12.12V48.79m-5.28,11.92V48.37m18.92,12.84V48.79m5,12.42V48.86M152.29,61V49.43M17.49,47.88V62.82M15.22,48V62.6M12.74,48V62.6M10.33,49.07V60.43m-3-12.55v14.3M5,47.46V61.75M20,48.52V63m85-.8V48.06m2.34,14V49.25M109.47,62V49.47m2.77,12.76V49m-11.7,13.41V48.28M175,60.36V48.59m5.53,14.29V48.66m-8.93,12.13V48.45M169.28,61V48.52m-81.21-24V10.58m2.4,14V10.65M92.53,24.7V11m2.77-.42V24.7m-11.69-.21V10.79m17,.42V23.72M39.13,26.83V8.23M43.5,26.62V8.23M57.88,25.64V9.21M66.6,24.45V10.23M63,8.68v0m0,16.77V8.68M28.05,27.25V8.87M36.76,27V7.94M33.15,27V9.3M50.44,26.62V9.21M77.65,25.29V11m-4.46,14V11.25m2.76,14V10.83m52.94,14.34V8.71m8,0V25.94M124.57,8.28v.43m0,16.25V8.71m-6.45,3.15V25.51M152.7,7.94V25.81M150.76,8.3V25.81M148.35,8.37V25.6M146.28,8.15v18m0,0v.17M141,7.73V25.94M159.93,8.15V26.38m0,.07v-.07m5-18.16V26.45m-9.84-.26v0m0-17.44v17.4M3.67,27V7.84m16.65.39V27.07M18.06,8.3V26.86M15.58,8.37V26.86M13.16,9.42V27.63m-3-.22V9.2M7.78,27V8.78M22.87,27.29V8.86m85,1.5V24.53m2.34.76h0m0-13.75V25.29m2.13-13.52V25.3m2.76-14V25.51M103.38,10.58V24.65m0,.1v-.1m74.41,1V8m5.53,17.22V8m-8.94-.21V26M172.12,7.88V26.23M85.23,136.81V120.93m2.06,16.16V121m2.41,16V121.36M92.47,137V120.93m-11.7,15.88V120.17m17,15.87V123.53M35.49,136.21V121.53M40.66,136V120.55M55.05,136V119.57m8.71,18V119.61m0,17.92v.21m-3.61,0v-.31m0-16.46v16.46m-34.94-2.75V122.17m8.72,13.27V121.23m-3.62,14.21V121.61M47.61,136V121.53m27.21,16.08V119.44m-4.47,18V119.65m2.77-.42v18.38m52.93-2.08V123m8,12.34V120.09m-12.33,17.19V122.56m-6.45,14.29V122.22m34.59,12.12v-12m-1.94,12.85V120.61M145.52,135v-14.3m-2.07,15.07V120.47m-5.28,14.85V120.05m18.92,15.78V121.45m5,14.38V121.52m-9.83,14.09V122.09m-134.8,12.4v-14m-2.27,13.74V120.61m-2.48,13.67v-13.6m-2.41,14.37V121.73m-3,15.06v-.6m0-15.65v15.65M5,136.37v-.21m0,0v-16M20,134.71V121.18m85,15.67V122.68m2.34,14V123.87m2.12,12.77V122.13m2.77,14.72V121.7m-11.7,15.37V122.89M175,135V120.27m5.53,14.28V120.34m-8.93,15.06V121.11m-2.27,14.51V121.18m-81.21-37V98.13m2.4-13.85V98.2m1.91-13.7V98.62m2.92-14.4V98.34M83.61,84.42V98.13m17-.77V84.85M39.13,98.51V88.72m4.37,9.57V88.72M57.88,99.27V99m0,0V86.76M66.6,98.08V84.85M63,86.21V99.06M28.05,88.43v12.46m0-12.51v.05m8.71,0V98.72m0-10.29h0m-3.61,12.25V88.81M50.44,87.3v11m0-11.52v.53m27.21-2.62V98.93m-4.46-14V98.72M76,84.46V98.93m52.94-.12V86.26m8,11.36V86.31M124.57,98.6V85.84m-6.45,13.31V85.49m35,13.19V87m-2.35,11.5V86.83m-2.2,10.92V86.39m-2.49,11.7V85.75M141,97.62V85.28m18.92,14.81V87.66m5,12.43V87.74m-9.84,11.15V87.32m-151.45,2v11.32M20.32,88.18v12.53m0-13v.45m-2.26-.37v.28m0,0V100.5m-2.48,0V88m0-.13V88m-2.42,13.1v.15m0-12.33v12.18m-3-.06h0m0-12.32V101M7.78,88.29v12.34m15.09.29V88.37m85,9.8V84m4.47,1.41V98.94m2.76.21V85m-11.69,13.4V84.21m74.41,15V88.13m0,0v-.67m5.53.08v.63m0,10.64V88.17m-8.94,11.49V87.88m0,0v-.56m-2.26.26v-.19m0,12.48V87.58M.83,135.47v-16"/>
    </pattern>
    <pattern id="New_Pattern_Swatch_33" data-name="New Pattern Swatch 33" width="153.43" height="153.43" patternTransform="matrix(1.65, -0.51, 0.98, 0.86, -876.7, 386.18)" patternUnits="userSpaceOnUse" viewBox="0 0 153.43 153.43">
      <rect class="cls-1" width="153.43" height="153.43"/>
      <path class="cls-3" d="M150.55,54.59a43.82,43.82,0,0,0-.31-13.09m1.11,36.78c-.93-2.5-1.25-11.23-.31-15.91M143.56,73.1c-1.24-4.06-1.24-6.56,0-12.17a29.79,29.79,0,0,0,.63-12.78m-8-8c1.25,4.36.66,9.4-.59,15.33m3.77,27.47c-2.18-3.75-5.17-11.73-4.86-15.32s.78-2.33.93-5.61m-8.27,11c-2.65-4.21-3.11-6.81-1.55-12.89s1.87-9.82.63-14.81M115.79,40.8a34.89,34.89,0,0,1,2.34,12.79m.9,29.34c-4.68-5.15-2.15-17.5-1.21-23.89m-4.4-31a47.6,47.6,0,0,1,.94,7.36m-2.23,49.15c-1.72-3.12-4.45-14.25-3.51-18.31a50.18,50.18,0,0,0,.93-13.76m-8-10.4a55.44,55.44,0,0,1,0,19m-.78,19c-1.4-2.19-1.4-9.51-.46-13.25m-7.8,13.87C91,77.12,91.31,70.58,93,65.43a30.6,30.6,0,0,0,1.56-14.5m-8.73-9.38c.78,4.52,1.4,12.81,0,18.43m-2.3,27.77c-1.4-2.28-.94-11.32,1.16-21.12M78.53,48.44c.47,6.86.78,9.35-.63,15s-1.55,9.82-1.09,12.47M72.34,39.24c1.25,4.84-.2,12.94-.83,16.37m-.78,25C69,77.28,69.33,70.73,70,67.15a42.21,42.21,0,0,0,.78-5.3m-7,18.24c-1.09-2.5-1.09-8.73-.47-14a89.6,89.6,0,0,0-.15-19.39m-8.08-4.16c1.71,5.31,2.49,8.89,2.34,12.94m-.63,25c-2.65-4.36-2-12.79-1.09-17.15M47.05,41.37C48.76,49,50.43,55.14,49.33,60.6s-1.24,5-1.24,6.55m1.17,5c.85,3.17,1.19,9.67,1.42,12.28m-8-4.51c-2-5-2.18-11.69-.93-17.31s.93-9.5-.32-15.9m-9.17-6.45C33.66,45,35.18,50.62,35,53.74M35.64,83c-3.59-5.77-3.12-14.11-1.71-19.57M26.62,44.7c.93,6.39,1.4,9.51.31,14.18S26,63.41,26,65.12M98.18,6.81c2.67,3.43,3.39,27.46,3.39,27.46M18.31,80.4c-2.34-3.9-.94-10.6,0-14s2-12.59,2.74-17.57m-7.91-6.9c.78,5.14,1.56,8.42.62,12.93A36.44,36.44,0,0,0,13,61.54m.85,22.67A49.38,49.38,0,0,1,11,78.37c-.78-2.18-.47-5.61.31-8.57m-6.1-21c1.24,4.37,2.18,12,.77,17S3.6,77.28,5.63,81.34m25.15,6.54c-1.4-2-5.72-12.47-5.88-15.59M4,91c1.24,6.24,1.71,8.11.15,13.56S2,113.92,3.38,118.13M9.77,86.32C11,89.6,12.27,93.81,12,96.93s-1.09,4.83-.94,5.3m1.21,20.16c-1.71-3.43-3.39-12.21-2.15-16m6.71,8.89c-1.09-3.12-1.4-7.64.47-13.41s1.09-7.79.31-11.69m6-5.33c.94,3.9,1.72,8.27.94,12.16m.63,23c-1.09-3.12-1.47-12.38-.07-16.27m5.52,18c-1.72-3.28-.22-12.24,1-17.38s1.09-5.62.93-8.89M40.17,117c-3-5.46-1.71-10-.15-15s.78-8.57-.15-12.94m6.3-4.26c1.09,4.52,3.2,7.69,2.27,11.12s-1.72,5-2,6.7m1,13.9c-1.09-2.18-1-6.24-1-9.52m7.1-18.41c1.41,5.93,3,8.58.94,13.57s-1.73,15-1.11,18.54m6.1-35.07c1.71,3.74,2.65,9.67,2.34,12m-1.2,22.45c-.78-2.18-1-11.84.1-15.59m4.53-15.9c1.71,5.77,2.65,8,1.4,13.1s-2.49,10.6-1.71,13.56M73.5,84.53c.62,3.12-.74,8.81-.74,10.68m1,32.38c-.79-2.18-3.49-16.94-2.71-19.91a22.18,22.18,0,0,0,.94-5.77m6.49-11.84c1.71,7.17,3,10.75,1.87,14.81s-1.4,8.73-.94,10.91m5.93-25a23,23,0,0,0,.93,7.49,15.52,15.52,0,0,1,0,9.35c-1.24,4.52.28,8.19.6,10.06m7.25-21.13a64.74,64.74,0,0,1-1.09-10.29m.66,35.16c-.47-1.56-.66-8.5,0-12.39a46.43,46.43,0,0,0,.78-7.8m11-18.14c1.41,4.84,2.88,9.26,2.41,13.93m-1.44,26a44.07,44.07,0,0,0-.43-8.21c-.62-3,.31-7.33.93-12.17m7.61,15c-1.55-3.59-2-12.52-.73-17.2s1.09-4.83.62-11.22m10.75-11.14c2.82,4.6,3.9,17.53,2.65,23.61a25.93,25.93,0,0,0,.94,15m3.48-35.44c.93,3.89,3.29,14.3,3,18m.87,21.86c-.78-2.66-2.19-11.64-1.56-15.53m6.71-16.53c1.4,6.08,2.19,8.11,1.4,13.41s-1.09,9.82-.62,12M147.49,83c2.41,3.79,2.22,8.33,2.22,11m.36,27.05c-3-6.08-.83-15.67-.2-19.41M5.13,3.39c1.25,3.27.17,6.91-.14,10s-1.09,4.83-.94,5.3M5.62,41.42C3.9,38,1.87,28.5,3.12,24.76M10.6,6.14c.78,3.9,1.56,8.34-.31,14.1S8.73,30.53,9.82,33.65M16.36,3.27c.94,3.9,1.72,6.7.94,10.6m1.1,28.2c-1.09-3.11-1.87-17.26-.47-21.16m8,18.41c-1.72-3.27-2.5-11.44-1.25-16.58s1.09-5.62.94-8.89m7.64,21.51c-3-5.45-1.72-10-.16-15s.78-11.47-.16-15.83M39,1.67c1.1,4.52,1.72,6,.78,9.45s-1.71,5-2,6.71m4.53,22.83c-1.09-2.18-3.61-15-3.61-18.27m8-18.3c1.41,5.92,3,9.18.94,14.16S44.28,27,44.9,30.57M54.64,8.93c1.72,3.74,1,10.38.66,12.72m-4.63,17.6c-.78-2.18,0-9.66,1.09-13.4M58.31,1.67C60,7.44,61,13.11,59.71,18.26s-1.77,17-1,19.92M66,5.17c1.53,7.62.11,15.51.11,13.5m-.48,23.54a21.17,21.17,0,0,1-.32-10c.79-3,1.84-5.52,2.15-8.8M71.56,1.76c1.71,7.17,3,15.09,1.87,19.14S72,29.63,72.5,31.82m5.92-21.4c-.16,3.12.31,3.58.94,6.24a15.68,15.68,0,0,1,0,9.35c-1.25,4.52-.64,12.15-.33,14m5.28-26.92c-.47-2,1.11-7.48,1.11-10.29m0,33.63a22.5,22.5,0,0,1-.31-9,45.16,45.16,0,0,0,.77-7.79M91.44.93c1.72,5.77.39,20.87-.23,26.17M94.8,44.7a32.57,32.57,0,0,1-1.1-4.2c-.62-3,2.1-9.09,2.73-13.93m8.86,2.13c-1.56-3.59-.78-7.48.47-12.16s1.09-8.61.62-15m8,9.06c.47,3.43.94,3.82.31,7.09s-1.4,5.15-1.56,6.4m8.36,13.38c-1.56-4-1-13.69.27-19.77s.78-9.2-.31-14m7.82-2.6c.94,3.9.67,12.15.36,15.89m-.53,25.2c-.78-2.65-2.13-14.28-1.5-18.18M135,9.3c1.41,6.08,2.19,6.27,1.41,11.56s-1.09,9.83-.63,12m7-31.43a58.61,58.61,0,0,1,.78,10.85m0,26.32c-3-6.08-.44-14.94.18-18.68m5.94,13.72c-1.71-4.21-1.09-9.2-.46-13.56s.93-12.24,0-17.38M6.51,123.9c1.1,4.83,1.41,7.95.94,11.07m-4.2,17.48c-1.09-2.65,1-9.38,2.3-13.27m6.23,12.58c-1.1-3.12-.63-9.16.15-13s1.87-6.7,1.25-11.23m7.29-8.87c.62,3.27-1.32,23.69-2.88,28.52m5.92,6.22a71.47,71.47,0,0,1,1.7-16.08c.82-3.74,1.24-2.81,1.09-7.18m14.79-2.61c.3,5.46.93,6.71-.94,11.54s-2.34,5.44-1.56,8.71m7.87-26.31c.93,2.8,3.13,8.71,2.82,11.36M43.86,151.3c-.32-4.52,1.57-11.34,2.66-14.15M53.66,127c1.4,5.77,1.76,8.2,0,12.32-1.45,3.37-1.22,10-1.25,14.06m14.09-31.2c1.41,5.76,2,12.15.58,15.74S64.84,148.61,65.62,152m5.79-4.39c-.62-2,2.26-12.21,2.57-14.86m5.08-12.37a27.36,27.36,0,0,1-.2,14.89c-1.2,3.48-1.62,12.56-1.63,18m13.66-27c1.41,4.52,1.41,7.17.16,11.85s-2,5.88-1.09,9m9.2-24.86c.63,3-.72,7.36-.87,9.38M95.82,150c-.46-2.18,2-11.21,3.06-14.33m4.75-9c1.25,6.71,1.4,9.51-.47,13.57s-2.49,9.2-1.4,12.31m16.72-27.08c2.18,5.77,1.28,8.3-1.6,13.52-1.77,3.21-2.36,9.72-2.33,14.33m7.64-34.53c2,2,3.29,11.47,3,13m-2,5.84c0,3.89-2.06,11.21-3,14.33m10.39-27.26c.46,3-1,2.1.22,6.78s.31,6.7-.94,10-.37,6.08-.21,8M25.07,6.69c-1-1.17-1.44-3.05-1.56-6.65m28.9,0a10.34,10.34,0,0,1-.28,3.16M77.42,5.63A43.79,43.79,0,0,1,77.23.05m37.84,6.28c-.3-.49-.51-3.75-.52-6.28m22.53,4.59C137,4.23,137,1.38,137,.05m.65,126.65c.78,3.12,1.71,7.49.78,11.07-.72,2.77-1.37,11.08-1.43,15.58m13.6-2.59c-1.09-3.58-.17-13,.77-16.73s.77-4.67.47-8.26M99.6,89.16c.48,5.67,1.89,6.61,1,13.7s-1.89,10.39-1,13.23m9.92-70.63c-.78-2-1.56-8.44-1.4-12.65M111,122.75c.78,3.9,1.56,5.93-.31,11.69-1.43,4.39-3.34,10-1.8,14.4m11.56-35.66c-1.09-3.12-1.41-7.64.47-13.41s1.08-7.8.31-11.69M86,123.09c.78,3.89.83,7.67-1,13.43S82.34,147.87,83.43,151m-24-25.68c.78,3.9,2,6.31.11,12.08s-2,8.61-.93,11.72m-26.44,3.08c-1.09-3.11-1.2-10.07.67-15.84s3.74-13.15,3-17m108.5,2.29c.78,3.9,2.92,9.33,1.05,15.09s-1.56,8.85-.47,12"/>
    </pattern>
    <clipPath id="clip-path-4">
      <circle class="cls-1" cx="400" cy="-1504" r="400"/>
    </clipPath>
    <symbol id="Squirrel_Background_Thick" data-name="Squirrel Background Thick" viewBox="0 0 1140.83 949.65">
      <path id="Background_Thick" data-name="Background Thick" class="cls-4" d="M1050.63,650.09c-.46,1-20.27,3-34.28-11.29a.32.32,0,0,0-.53.34c3.36,9.57,3.22,18.22-1.35,27.86-12.24,25.85-44.31,35.37-69.45,21.73L916,674a.32.32,0,0,0-.34,0c-1.28,1-10.43,8-24.47,16.85-38.05,22.51-76.29,41.21-121.08,46.16a.31.31,0,0,0-.27.39c17.31,71.33-36,123.83-42.21,129.6a.32.32,0,0,0,.22.55c78,1.82,77.17,49.22,76.94,53.43a.32.32,0,0,1-.32.29H361.38a.31.31,0,0,1-.31-.35l2.9-27a.32.32,0,0,0-.4-.34c-63.93,18.17-142.69.9-187.07-44.1l0,0c-94.57-116.65-34.72-243.92-5.71-361.07,21-85.69,40.57-189.62,17.54-236.91-31.63-65-103-73.84-159.39-11.58a.32.32,0,0,1-.56-.25c31.93-373.22,526.84-195.59,460,96.82a.31.31,0,0,0,.31.39c29-.59,66.59,5,110,21.22,0,0,106.2,35.1,149-20.4a.41.41,0,0,0,.05-.09c.68-1.93,22.62-63.38,56.82-77.62a.3.3,0,0,0,.18-.37c-1.45-5.14-22-84.12,69.1-153a.32.32,0,0,1,.51.33c-2.21,8.19-16.9,69.69,30.37,104.51l0,0c1.77.92,112.66,58.73,122.1,73.31s79.23,105.05,85.65,227.07a.33.33,0,0,1-.15.29C1083.07,531,1054,546.61,1018,552.66a.32.32,0,0,0-.17.54c6.81,6.22,82.84,77.18,32.8,96.89ZM701.39,919.87"/>
    </symbol>
    <symbol id="Squirrel_Outline" data-name="Squirrel Outline" viewBox="0 0 1098.89 907.72">
      <g id="Lines">
        <path id="Lines_Inner" data-name="Lines Inner" class="cls-5" d="M463.88,315.51c32-153.91-274.1-388.62-450.42-104.3M342.75,350.34c59.68-159.45-153-423.45-329.29-139.13M751,717.58c-35.37-431.84-464.81-353.8-503.09-238M337,904.24c174.3-60.51,240.47-35.16,342-226.74,60.06-161.88,209.63-120.18,219.26-112.14M487.52,850c-74.41-30-252.48-208.59-172-348.85,110-191.87,437.37,2.3,663.45-9,37.6-4.79,81.45-29.3,102.42-30.71M784.26,239.92c22.32,86.52,154.17,12.6,195.29,69.64,43.67,60.58,76.67,197.85,76.67,197.85M145.55,17.11C477.08,68.15,337,362.2,337,362.2M201.32,865.26C452.63,759,594.75,664,598.89,346.92M781.12,241.3s-25.37-82.48,69.79-153.86c0,0-20.62,68.08,30.12,105.44,0,0,112.61,58.63,122.13,73.32s79.3,105.14,85.65,227.26c0,0-56.24,39.51-117.52,38.85,0,0-18,.11-42-9C881.6,502,839.17,477.87,801.73,449.15,786.24,437,780,407.08,774,380.29,761.88,326.71,781.12,241.3,781.12,241.3ZM133.42,20.42C438.47,156.18,107.34,515,100.31,654.32c-3.93,73.55,6,128.41,52.49,176.59C176,855,206.27,872.2,244.31,878.81a206.44,206.44,0,0,0,30,2.91,251.34,251.34,0,0,0,33-1.4c11.51-1.23,30.55-7.77,42.81-11.63,37.09-11.69,163-79,222.08-153.49,87.21-110.12,144.76-333,151.78-392.47M100,654.42c-.51-13.61,26.14-99.25,47.07-184.59,21-85.7,40.58-189.63,17.55-236.92C132.86,167.72,61,159,4.58,222,35.77-152.61,532,25.4,467.66,318.15m525.89,216s85.75,76.7,33.4,97.31c0,0-21.33,3.18-36.41-14.71M868.62,492.67s-59.08,51.94,82.32,91.93c0,0,59,23.25,39.85,63.76-12.24,25.85-44.32,35.37-69.45,21.73l-29.18-14.82s-151.4,118.21-213.32,22.2c-95.64-330.62-484-254.36-428,27.7m428,197.49a29.18,29.18,0,0,0-2.26-2.87c-3.66-19.91-10.76-48.16-75.93-50.87s-152.38-.19-224.24,9.5m-39.07,17.12v27.12H781.12s4.76-52.15-77.72-53.74c0,0,61.34-54.65,50.5-126.54m-377.49,136s-310-227.57-57.07-478c0,0,88-99.38,255.61-40.95,0,0,106.25,35.12,149.07-20.45,0,0,22.2-63.5,57.1-77.77"/>
        <path id="Lines_Outer" data-name="Lines Outer" class="cls-6" d="M1030.09,628.69s-19.77,2.95-33.75-10.76a.49.49,0,0,0-.81.51c3.1,9.29,2.86,17.76-1.6,27.16-12.23,25.85-44.31,35.36-69.45,21.73l-28.89-14.68a.49.49,0,0,0-.53.05c-1.59,1.22-10.64,8.1-24.38,16.78-38,22.48-76.17,41.15-120.88,46.14a.49.49,0,0,0-.42.61c16.9,70.13-34.49,122-41.94,129.1a.5.5,0,0,0,.34.86c76.65,2,76.74,48.08,76.51,53.24a.49.49,0,0,1-.5.47H341.05a.5.5,0,0,1-.5-.55l2.86-26.49a.5.5,0,0,0-.63-.53c-63.88,18-142.48.77-186.81-44.17l0,0c-94.57-116.65-34.72-243.91-5.71-361.06,21-85.69,40.58-189.63,17.54-236.91-31.57-64.81-102.74-73.81-159-12a.5.5,0,0,1-.87-.38c32.34-372.43,526.51-195,460,97.12a.49.49,0,0,0,.49.61c28.93-.55,66.48,5.07,109.78,21.23,0,0,106.17,35.09,149-20.38a.39.39,0,0,0,.08-.14c.83-2.35,22.68-63.23,56.67-77.53a.49.49,0,0,0,.28-.59c-1.77-6.37-21.12-84.33,68.72-152.54a.51.51,0,0,1,.8.52c-2.6,10-15.9,69.82,30.49,104l.06,0c2.23,1.16,112.67,58.76,122.09,73.31s79.19,105,85.64,227a.52.52,0,0,1-.23.46c-29.14,18.67-58,34.25-93.89,40.33a.5.5,0,0,0-.26.85c8.3,7.64,82.23,77.08,32.78,96.55ZM680.85,898.46"/>
      </g>
    </symbol>
    <symbol id="Squirrel_Background" data-name="Squirrel Background" viewBox="0 0 1140.83 949.65">
      <g id="Background-3" data-name="Background">
        <use width="1140.83" height="949.65" xlink:href="#Squirrel_Background_Thick"/>
      </g>
      <use width="1098.89" height="907.72" transform="translate(20.54 21.4)" xlink:href="#Squirrel_Outline"/>
    </symbol>
  </defs>
  <g id="Youtube">
    <rect id="Background" class="cls-7" width="800" height="800"/>
    <g id="Foreground">
      <g class="cls-8">
        <rect id="Background-2" data-name="Background" class="cls-7" width="800" height="800"/>
        <g id="Squirrel_Outline_Logo_copy" data-name="Squirrel Outline Logo copy">
          <use width="1140.83" height="949.65" transform="translate(79.92 122.82) scale(0.59)" xlink:href="#Squirrel_Background"/>
        </g>
      </g>
    </g>
  </g>
  <g id="Twitter_Header" data-name="Twitter Header">
    <g class="cls-9">
      <g class="cls-10">
        <path id="Center_Ridge" data-name="Center Ridge" class="cls-11" d="M1238.09-311.66s-102.3,55.85-108.46,56.49-210.77,44.94-210.77,44.94l-135.34,59c-43.59,13.81-68.12,29-81.22,38.65-16.45,12.16-30.52,27.26-35.24,32.47-12.93,14.31-11.21,15.93-19,22.59-17.47,15-41.42,19.81-73.19,29.65C523.42-11.91,534.27-8.48,485.45,7.44"/>
        <path id="Left_Fill" data-name="Left Fill" class="cls-12" d="M485.45,7.44c10-5.41,29.91-17.88,65.8-29.57,34.51-11.25,49.11-10.49,71.15-19.59C654-54.78,652.32-68.06,674.24-90.43c23.48-24,61.39-40.5,137.22-73.58,61.22-26.72,78-27.69,97-42.29,5.06-3.88,19.72-16,47.63-23.71,7.67-2.13,6.18-1.11,20.33-4.59,34.87-8.58,51-16.51,56.58-19.41,7-3.62,17.55-9.86,15.59-11.12s-16.36,4.33-40.66,9c-14.59,2.8-23.8,3.51-36.25,4.94-36.82,4.22-65.53,10.55-94.54,16.94-26.13,5.76-44.35,10.59-59.87,15.11-44.22,12.88-66.36,19.5-68.2,28.3-2,9.58,15.83,17.43,13.55,18.35S738.49-179,736.24-188c-3.92-15.64,52.1-31.1,86.4-40.59,48.87-13.52,91.63-20.42,194.66-39.18,18.35-3.34,43-5.14,65.38-15.51,30.16-14,38-32.2,40.84-31.61,2.64.55-2.13,16.91-22.87,32.3-7.38,5.47-10.76,6.36-34.56,18.53-27.49,14-57.21,29.24-53.87,31.5,1.79,1.21,12.44-1.82,24.9-5,54.24-14,60.16-8.54,87.42-18.53,36.23-13.29,51.17-26.35,81.82-37.59,4-1.47,18.54-6.67,36.32-15.17,3.54-1.69,6.16-3,8.24-4.07,26.73-13.55,38.18-20.6,49.13-25.94,34.27-16.72,70.45-20.09,68.44-23.47-1-1.7-10.67-1.6-16.93-1.41-40,1.21-67,11.38-88.68,14.93-21.45,3.52-44.48,6.61-90.23,13.36-31.11,4.59-66.41,9.28-97.73,19-12.92,4-24.58,8.64-24.58,8.64-13.17,5.37-22.22,10.44-32.87,15.76C952-259.43,899-282.74,835.18-251.9c-28,13.51-38,27.75-82.67,39.71-19.62,5.26-39.88,8.45-40.66,7.59-.94-1.05,27.4-7.13,58.95-20.12,28-11.52,53-26.21,49.81-28.24-2.78-1.77-30.35,7.44-85.38,26-65.56,22-70.54,25.3-98.6,31.94-32,7.56-31.81,4.8-73.19,14.47-28.51,6.66-42.31,11.17-68.1,13.41-26,2.26-50.5,1-50.82-.53-.26-1.24,18.28-2.67,51.16-7.59,11.41-1.7,18.28-2.89,48-8.15,47.91-8.46,75.53-13.33,83.43-14.79,88.73-16.34,107.5-46.18,204.63-63.66,61.6-11.09,123.58-11.6,174.86-34.46,5.16-2.3,25.17-11.22,22-14s-25.66,2.09-48.44,5.55c-61.2,9.31-66.53.29-115.09,7.43-66.54,9.8-80.85,30.33-123.44,27.87-6.5-.38-23-1.83-33.89,3.17-9,4.15-9.57,10.65-10.16,13.41-4.44,20.92-54.37,38.55-71.15,44.47C568.56-188,497.59-190.9,497-192.25c-.13-.33,8-1.17,32.53-4.94,52-8,78-12,94.87-17.3,51.38-16,70.7-48.86,67.09-50.11-2.15-.74-11.54,10-34.56,20.11-61.67,27.22-158.47,22.66-189.81,21.56-61.82-2.19-81-10.33-100.9-2-18.92,8-12.36,19.94-24.64,50.54-.63,1.58-11.49,27.38-34.32,54.29-25,29.5-33.87,43.94-44.12,42.15-2.59-.45-5.66-1.9-11.33-1.93a37.74,37.74,0,0,0-18.36,4.94c-17.26,9.28-37.58,8.12-89.64,30.35-32.66,14-49,20.92-61.41,32.47"/>
        <path id="Right_Fill" data-name="Right Fill" class="cls-13" d="M485.45,7.44C508,.77,522.9-3.67,541.08-11.54c20.25-8.78,18-10.27,33.82-16.31,30.74-11.71,45.71-8.52,63.76-18.28,8.54-4.62,6-5.78,21.69-24.71,12.17-14.71,22.93-27.71,41.95-41.72a199.27,199.27,0,0,1,39.37-23.22c18.75-8.42,22.3-7.05,41.85-15.43,32.06-13.74,37.91-24,51.38-23.27,11.88.68,24.09,9,25.35,17.28,2.08,13.75-27.14,18.83-61.17,46.45-13.48,10.94-26.45,24.39-21.16,26.68,5.79,2.5,31.62-9.16,34.56-7.41,2.61,1.55-19.54,9.82-16.26,18,2.56,6.41,20.34,11.68,30.49,9.52a13.41,13.41,0,0,0,5.6-2.49c6.12-4.79,7.51-10.29,8.63-10.21"/>
        <g id="Trees">
          <g>
            <polygon id="Tree" class="cls-14" points="405.77 -19.32 398.81 0.42 412.73 0.42 405.77 -19.32"/>
            <polygon id="Tree-2" data-name="Tree" class="cls-15" points="395.98 -18.45 388.99 1.37 402.97 1.37 395.98 -18.45"/>
            <polygon id="Tree-3" data-name="Tree" class="cls-15" points="387.11 -11.62 380.12 8.2 394.1 8.2 387.11 -11.62"/>
            <polygon id="Tree-4" data-name="Tree" class="cls-16" points="381.45 -11.4 374.47 8.41 388.44 8.41 381.45 -11.4"/>
            <polygon id="Tree-5" data-name="Tree" class="cls-17" points="376.58 -11.27 369.6 8.53 383.56 8.53 376.58 -11.27"/>
            <polygon id="Tree-6" data-name="Tree" class="cls-18" points="361.02 -18.56 354.06 1.16 367.98 1.16 361.02 -18.56"/>
            <polygon id="Tree-7" data-name="Tree" class="cls-19" points="357.36 -14.18 350.42 5.5 364.29 5.5 357.36 -14.18"/>
            <polygon id="Tree-8" data-name="Tree" class="cls-20" points="344.31 -7.67 337.5 11.66 351.13 11.66 344.31 -7.67"/>
            <polygon id="Tree-9" data-name="Tree" class="cls-21" points="340.26 -4.86 333.48 14.36 347.04 14.36 340.26 -4.86"/>
            <polygon id="Tree-10" data-name="Tree" class="cls-22" points="337.53 2.51 330.79 21.62 344.26 21.62 337.53 2.51"/>
            <polygon id="Tree-11" data-name="Tree" class="cls-23" points="330.61 -5.08 323.91 13.91 337.3 13.91 330.61 -5.08"/>
            <polygon id="Tree-12" data-name="Tree" class="cls-24" points="326.7 -2.11 320.04 16.77 333.36 16.77 326.7 -2.11"/>
            <polygon id="Tree-13" data-name="Tree" class="cls-25" points="313.98 -14 307.42 4.61 320.54 4.61 313.98 -14"/>
            <polygon id="Tree-14" data-name="Tree" class="cls-26" points="313.44 1.85 306.93 20.32 319.95 20.32 313.44 1.85"/>
            <polygon id="Tree-15" data-name="Tree" class="cls-27" points="309.51 6.99 303.05 25.32 315.98 25.32 309.51 6.99"/>
            <polygon id="Tree-16" data-name="Tree" class="cls-28" points="301.85 -10.68 295.43 7.51 308.26 7.51 301.85 -10.68"/>
            <polygon id="Tree-17" data-name="Tree" class="cls-29" points="300.52 6.08 294.15 24.15 306.89 24.15 300.52 6.08"/>
            <polygon id="Tree-18" data-name="Tree" class="cls-30" points="295.56 2.75 289.24 20.68 301.88 20.68 295.56 2.75"/>
            <polygon id="Tree-19" data-name="Tree" class="cls-31" points="289.35 -7.61 283.07 10.19 295.63 10.19 289.35 -7.61"/>
            <polygon id="Tree-20" data-name="Tree" class="cls-32" points="288.41 10.59 282.18 28.26 294.64 28.26 288.41 10.59"/>
            <polygon id="Tree-21" data-name="Tree" class="cls-33" points="280.91 -7.25 274.72 10.29 287.09 10.29 280.91 -7.25"/>
            <polygon id="Tree-22" data-name="Tree" class="cls-34" points="280.97 15.88 274.88 33.16 287.07 33.16 280.97 15.88"/>
            <polygon id="Tree-23" data-name="Tree" class="cls-35" points="273.43 -4.68 267.92 10.93 278.93 10.93 273.43 -4.68"/>
          </g>
          <g>
            <polygon id="Tree-24" data-name="Tree" class="cls-36" points="256.61 -19.71 249.53 0.36 263.68 0.36 256.61 -19.71"/>
            <polygon id="Tree-25" data-name="Tree" class="cls-37" points="246.79 -19.9 239.8 -0.05 253.79 -0.05 246.79 -19.9"/>
          </g>
          <g>
            <polygon id="Tree-26" data-name="Tree" class="cls-38" points="143.66 -16.57 137.25 1.61 150.07 1.61 143.66 -16.57"/>
            <polygon id="Tree-27" data-name="Tree" class="cls-39" points="130.48 -14.93 124.19 2.9 136.77 2.9 130.48 -14.93"/>
            <polygon id="Tree-28" data-name="Tree" class="cls-40" points="121.44 -9.9 115.29 7.54 127.59 7.54 121.44 -9.9"/>
            <polygon id="Tree-29" data-name="Tree" class="cls-41" points="107.81 -16.84 101.85 0.04 113.76 0.04 107.81 -16.84"/>
            <polygon id="Tree-30" data-name="Tree" class="cls-42" points="104.01 -15.83 98.12 0.86 109.9 0.86 104.01 -15.83"/>
            <polygon id="Tree-31" data-name="Tree" class="cls-43" points="99.08 -1.32 93.54 14.4 104.63 14.4 99.08 -1.32"/>
          </g>
          <polygon id="Tree-32" data-name="Tree" class="cls-44" points="26.11 -18.84 18.74 2.04 33.47 2.04 26.11 -18.84"/>
        </g>
      </g>
    </g>
  </g>
</svg>
