<svg xmlns="http://www.w3.org/2000/svg" width="963.66" height="213.11" viewBox="0 0 963.66 213.11">
  <defs>
    <style>
      .cls-1 {
        fill: #161515;
      }

      .cls-2 {
        fill: red;
      }
    </style>
  </defs>
  <g id="Layer_2" data-name="Layer 2">
    <g id="Company_Name" data-name="Company Name">
      <g>
        <path class="cls-1" d="M74.7,91.34H24.36L13.94,115H0L42.9,20.3H56.29l43,94.73H85.12ZM70,80.52,49.53,34.1,29.09,80.52Z" transform="translate(0 -19.21)"/>
        <path class="cls-1" d="M184.72,29.09q10.56,8.81,10.55,24.23T184.72,77.54q-10.56,8.8-29,8.8H132.35V115H118.81V20.3h36.95Q174.17,20.3,184.72,29.09Zm-9.74,40q6.77-5.47,6.76-15.76T175,37.55q-6.78-5.47-19.63-5.48h-23V74.56h23Q168.21,74.56,175,69.08Z" transform="translate(0 -19.21)"/>
        <path class="cls-1" d="M286.49,29.09Q297,37.9,297,53.32T286.49,77.54q-10.56,8.8-29,8.8H234.11V115H220.58V20.3h36.94Q275.93,20.3,286.49,29.09Zm-9.75,40q6.76-5.47,6.77-15.76t-6.77-15.77q-6.76-5.47-19.62-5.48h-23V74.56h23Q270,74.56,276.74,69.08Z" transform="translate(0 -19.21)"/>
        <path class="cls-1" d="M378,91.34H327.62L317.2,115H303.26l42.9-94.73h13.4l43,94.73H388.38Zm-4.73-10.82L352.79,34.1,332.36,80.52Z" transform="translate(0 -19.21)"/>
        <path class="cls-1" d="M422.08,20.3h13.53v83H486.9V115H422.08Z" transform="translate(0 -19.21)"/>
        <path class="cls-1" d="M568.64,91.34H518.3L507.88,115H493.94l42.9-94.73h13.39l43,94.73H579.06ZM563.9,80.52,543.47,34.1,523,80.52Z" transform="translate(0 -19.21)"/>
        <path class="cls-1" d="M629.47,109.82a46.25,46.25,0,0,1-17.93-17.33A48,48,0,0,1,605,67.66a48,48,0,0,1,6.5-24.83,46.12,46.12,0,0,1,18-17.32,52.65,52.65,0,0,1,25.72-6.3,53.65,53.65,0,0,1,20.29,3.73,41.41,41.41,0,0,1,15.7,11l-8.79,8.52q-10.69-11.24-26.66-11.23A38.57,38.57,0,0,0,636.71,36a34.27,34.27,0,0,0-13.33,13,36.51,36.51,0,0,0-4.81,18.61,36.48,36.48,0,0,0,4.81,18.61,34.3,34.3,0,0,0,13.33,13.06,38.57,38.57,0,0,0,19.08,4.74A35.38,35.38,0,0,0,682.45,92.7l8.79,8.52a41.92,41.92,0,0,1-15.76,11.1,53.27,53.27,0,0,1-20.37,3.79A52.33,52.33,0,0,1,629.47,109.82Z" transform="translate(0 -19.21)"/>
        <path class="cls-1" d="M797.47,20.3V115H783.94V72.8h-54.4V115H716V20.3h13.53V61h54.4V20.3Z" transform="translate(0 -19.21)"/>
        <path class="cls-1" d="M831.31,20.3h13.53V115H831.31Z" transform="translate(0 -19.21)"/>
        <path class="cls-1" d="M939,91.34H888.68L878.26,115H864.33L907.22,20.3h13.4l43,94.73H949.45Zm-4.74-10.82L913.86,34.1,893.42,80.52Z" transform="translate(0 -19.21)"/>
        <path class="cls-2" d="M10,231.8v-75h5.38v75Z" transform="translate(0 -19.21)"/>
        <path class="cls-2" d="M68.85,166.88V231.8H63.47v-75H67.9l52.25,66v-66h5.38v75h-5.27Z" transform="translate(0 -19.21)"/>
        <path class="cls-2" d="M225.92,161.71H198.47V231.8h-5.38V161.71H165.64v-4.86h60.28Z" transform="translate(0 -19.21)"/>
        <path class="cls-2" d="M316,226.94v4.86H266v-75h49v4.86H271.41v29.45h38.1v4.64h-38.1v31.14Z" transform="translate(0 -19.21)"/>
        <path class="cls-2" d="M359.12,231.8v-75h31.14a19.2,19.2,0,0,1,8.82,2,22.58,22.58,0,0,1,6.86,5.33,25.82,25.82,0,0,1,4.54,7.44,22.71,22.71,0,0,1,1.63,8.45,24.83,24.83,0,0,1-2.21,10.45,22.55,22.55,0,0,1-6.18,8.12,18.15,18.15,0,0,1-9.23,4l18.68,29.14h-6.23l-18.15-28.29H364.51V231.8Zm5.39-33.25h26.28a13.89,13.89,0,0,0,8.45-2.64,17.56,17.56,0,0,0,5.54-6.86,21.17,21.17,0,0,0,2-9,18.62,18.62,0,0,0-2.27-9,19.27,19.27,0,0,0-6-6.76,14.43,14.43,0,0,0-8.39-2.58H364.51Z" transform="translate(0 -19.21)"/>
        <path class="cls-2" d="M479,156.85h4.64l31.67,75h-5.7l-10.22-24.7H463.22L453,231.8h-5.8Zm18.56,45.81L481.36,163.4l-16.3,39.26Z" transform="translate(0 -19.21)"/>
        <path class="cls-2" d="M547.33,193.69a40,40,0,0,1,9.29-25.38,33.89,33.89,0,0,1,11.13-8.71,33.47,33.47,0,0,1,15-3.27q10,0,17.1,4.59a28.92,28.92,0,0,1,10.55,11.77L606,175.22a24,24,0,0,0-14.78-12.61,30.91,30.91,0,0,0-8.87-1.32,27.2,27.2,0,0,0-12.61,2.85,28.47,28.47,0,0,0-9.34,7.6,34.16,34.16,0,0,0-5.75,10.55,36.35,36.35,0,0,0-2,11.72A34.39,34.39,0,0,0,555,206.62a35.36,35.36,0,0,0,6.38,10.61,31.22,31.22,0,0,0,9.5,7.39,25.73,25.73,0,0,0,11.77,2.74,29.76,29.76,0,0,0,9.24-1.53,28.52,28.52,0,0,0,8.81-4.75,23.53,23.53,0,0,0,6.65-8.39l4.65,2.22a24.59,24.59,0,0,1-7.29,9.5A35.12,35.12,0,0,1,594,230.32a36.29,36.29,0,0,1-11.72,2,30.09,30.09,0,0,1-14-3.33,36.3,36.3,0,0,1-11.14-8.87,40.79,40.79,0,0,1-7.23-12.45A40.35,40.35,0,0,1,547.33,193.69Z" transform="translate(0 -19.21)"/>
        <path class="cls-2" d="M705.77,161.71H678.32V231.8h-5.38V161.71H645.5v-4.86h60.27Z" transform="translate(0 -19.21)"/>
        <path class="cls-2" d="M745.88,231.8v-75h5.38v75Z" transform="translate(0 -19.21)"/>
        <path class="cls-2" d="M796.86,156.85,825.36,225l28.5-68.19h5.7L828,231.8h-5.17l-31.67-75Z" transform="translate(0 -19.21)"/>
        <path class="cls-2" d="M949.49,226.94v4.86H899.56v-75h49v4.86H905v29.45h38.1v4.64H905v31.14Z" transform="translate(0 -19.21)"/>
      </g>
    </g>
  </g>
</svg>
