<svg xmlns="http://www.w3.org/2000/svg" width="1000" height="827.4" viewBox="0 0 1000 827.4">
  <defs>
    <style>
      .cls-1 {
        fill: #161515;
        stroke-width: 20px;
      }

      .cls-1, .cls-2 {
        stroke: #fff;
        stroke-miterlimit: 7.57;
      }

      .cls-2 {
        fill: none;
        stroke-width: 10px;
      }
    </style>
  </defs>
  <g id="Squirrel_Strong_Outline" data-name="Squirrel Strong Outline">
    <g>
      <path id="Lines_Outer" data-name="Lines Outer" class="cls-1" d="M919.68,564.47s-17.22,2.57-29.4-9.37a.43.43,0,0,0-.71.44,29.73,29.73,0,0,1-1.39,23.65c-10.66,22.52-38.6,30.81-60.49,18.93l-25.17-12.78a.43.43,0,0,0-.46,0c-1.38,1.06-9.27,7-21.23,14.61-33.1,19.59-66.35,35.85-105.29,40.19a.43.43,0,0,0-.37.53c14.73,61.09-30,106.29-36.53,112.46a.43.43,0,0,0,.3.74c66.76,1.71,66.84,41.88,66.64,46.38a.43.43,0,0,1-.43.41H319.51a.44.44,0,0,1-.43-.49l2.49-23.07a.43.43,0,0,0-.55-.46c-55.64,15.72-124.1.67-162.71-38.47a.08.08,0,0,1,0,0c-82.36-101.6-30.23-212.45-5-314.48,18.31-74.64,35.34-165.17,15.28-206.35-27.5-56.45-89.49-64.29-138.52-10.44a.44.44,0,0,1-.76-.33c28.17-324.38,458.6-169.86,400.63,84.6a.42.42,0,0,0,.43.52c25.19-.48,57.9,4.42,95.62,18.49,0,0,92.47,30.57,129.8-17.75a.41.41,0,0,0,.07-.11c.72-2.05,19.75-55.08,49.35-67.54a.42.42,0,0,0,.25-.51c-1.54-5.55-18.4-73.45,59.86-132.86a.44.44,0,0,1,.69.45c-2.26,8.66-13.84,60.81,26.56,90.58l.06,0c1.94,1,98.13,51.18,106.33,63.85s69,91.45,74.6,197.69a.46.46,0,0,1-.2.4c-25.38,16.26-50.56,29.83-81.78,35.13a.43.43,0,0,0-.23.74c7.23,6.65,71.63,67.13,28.55,84.09Zm-304.19,235"/>
      <path id="Lines_Inner" data-name="Lines Inner" class="cls-2" d="M426.5,291.68c27.85-134-238.74-338.49-392.32-90.84M321,322C373,183.14,187.76-46.81,34.18,200.84M676.57,641.89c-30.8-376.13-404.84-308.16-438.19-207.27M316,804.47C467.83,751.77,525.47,773.85,613.87,607c52.31-141,182.59-104.68,191-97.68m-357.76,248C382.28,731.14,227.18,575.57,297.23,453.4c95.83-167.12,381,2,577.88-7.85,32.74-4.17,70.94-25.51,89.2-26.74m-258.76-193c19.45,75.35,134.29,11,170.1,60.65,38,52.77,66.78,172.33,66.78,172.33m-793.2-427C438,76.23,316,332.35,316,332.35M197.81,770.53C416.7,677.94,540.49,595.23,544.09,319m158.73-92S680.73,155.2,763.6,93c0,0-18,59.31,26.25,91.84,0,0,98.08,51.07,106.36,63.87s69.08,91.58,74.61,197.94c0,0-49,34.42-102.36,33.84,0,0-15.72.09-36.6-7.83-41.52-18.54-78.48-39.59-111.09-64.61-13.49-10.61-18.94-36.64-24.19-60C686.06,301.44,702.82,227,702.82,227ZM138.67,34.66C404.37,152.91,116,465.48,109.83,586.79c-3.42,64.07,5.27,111.85,45.72,153.81,20.22,21,46.57,36,79.7,41.72a178.74,178.74,0,0,0,26.13,2.54,216.82,216.82,0,0,0,28.73-1.22c10-1.07,26.61-6.77,37.28-10.13,32.31-10.18,142-68.77,193.44-133.69C596.79,543.91,646.92,349.74,653,298M109.56,586.88c-.45-11.85,22.77-86.45,41-160.78,18.31-74.64,35.34-165.17,15.28-206.36C138.18,163,75.62,155.37,26.45,210.27,53.61-116,485.84,39,429.79,294M887.85,482.12s74.69,66.8,29.09,84.75c0,0-18.58,2.77-31.72-12.81M779,446s-51.45,45.24,71.7,80.07c0,0,51.43,20.24,34.71,55.53-10.66,22.52-38.6,30.81-60.49,18.93l-25.41-12.91S667.67,690.58,613.73,607C530.43,319,192.17,385.41,241,631.09m372.78,172a24.13,24.13,0,0,0-2-2.5c-3.18-17.35-9.36-42-66.13-44.31s-132.73-.17-195.31,8.28m-34,14.91V803.1H702.82s4.15-45.42-67.69-46.81c0,0,53.42-47.6,44-110.21M350.32,764.57s-270-198.22-49.72-416.31c0,0,76.63-86.56,222.64-35.67,0,0,92.55,30.59,129.84-17.81,0,0,19.34-55.31,49.74-67.74"/>
    </g>
  </g>
</svg>
