<svg xmlns="http://www.w3.org/2000/svg" width="1017.74" height="844.93" viewBox="0 0 1017.74 844.93">
  <defs>
    <style>
      .cls-1, .cls-2 {
        fill: none;
        stroke-miterlimit: 7.57;
      }

      .cls-1 {
        stroke: #d9b776;
        stroke-width: 17px;
      }

      .cls-2 {
        stroke: #000;
        stroke-width: 35px;
      }
    </style>
  </defs>
  <g id="Layer_2" data-name="Layer 2">
    <g id="Squirrel_Outline_Logo" data-name="Squirrel Outline Logo">
      <g>
        <path id="Lines_Inner" data-name="Lines Inner" class="cls-1" d="M430.89,297.68c29-139.52-248.47-352.29-408.3-94.55M321.08,329.25C375.19,184.71,182.42-54.61,22.59,203.13m668.57,459C659.1,270.7,269.81,341.44,235.1,446.44m80.8,384.93c158-54.85,218-31.87,310-205.54,54.44-146.75,190-109,198.76-101.66M452.32,782.23c-67.45-27.18-228.88-189.09-156-316.24,99.74-173.93,396.49,2.08,601.43-8.17,34.08-4.34,73.83-26.56,92.84-27.84M729.91,229.27c-.46,5.52-.48,15.16,4.61,24.38,22.75,41.14,106.3-1.22,163.83,38.63,0,0,22.74,15.76,69.5,179.36h0M142.32,27.18C442.85,73.45,315.84,340,315.84,340m-123,456c227.81-96.35,356.64-182.44,360.4-469.88M718.47,230.4a131.85,131.85,0,0,1-.71-45.47c9.27-57.26,56.25-98.62,64-94,3.84,2.3-4.73,14.32-3.59,35.09,1.39,25.35,16.26,45.81,30.91,60.49,0,0,102.07,53.15,110.7,66.47s71.89,95.31,77.65,206A97.82,97.82,0,0,1,965,476.83c-23.88,7.54-32.07-.76-57.88,8.32-11.4,4-16.17,7.87-27.11,8.08-13,.24-22.59-5.12-27.19-7.17-43.22-19.29-81.68-41.2-115.63-67.24-21.3-16.34-20.66-42.35-25.18-62.42C699.75,302.11,710.34,255.85,718.47,230.4ZM131.33,30.18c276.53,123.06-23.65,448.38-30,574.63-3.56,66.68,5.49,116.41,47.58,160.08,21.05,21.83,48.48,37.43,83,43.42A187.15,187.15,0,0,0,259,811,228.19,228.19,0,0,0,289,809.68c10.42-1.11,27.68-7,38.8-10.54,33.62-10.59,147.8-71.57,201.32-139.14,79.06-99.82,131.22-301.9,137.58-355.78M101,604.91c-.46-12.34,23.7-90,42.67-167.34,19.06-77.68,36.79-171.9,15.91-214.77-4.64-9.51-22.19-40.16-52.35-46.49-45.34-9.53-82,44.46-92.72,36.64C-.9,201.73,32.43,60.32,135,19.62S367.39,55.85,415.26,156.56c27.37,57.58,23.58,113.62,19.06,143.52M911,495.87s77.73,69.53,30.28,88.21c0,0-19.34,2.89-33-13.33M797.79,458.28s-53.55,47.08,74.62,83.33c0,0,53.53,21.08,36.13,57.8-11.1,23.44-40.17,32.06-63,19.7l-26.45-13.43S681.89,712.83,625.75,625.8c-86.69-299.71-438.74-230.58-388,25.11m388,179a25.05,25.05,0,0,0-2-2.61c-3.32-18.05-9.76-43.65-68.84-46.11s-138.13-.17-203.27,8.61m-35.42,15.52v24.59H718.47a42.15,42.15,0,0,0-3.6-17.49c-6.66-14.83-20.48-21.26-25.9-23.68-22.32-10-37-.75-41-7.55-5.64-9.67,24.11-28.12,38.3-65a120.45,120.45,0,0,0,7.48-49.73M351.6,789.83s-281-206.3-51.74-433.28c0,0,79.76-90.08,231.71-37.11,0,0,96.32,31.83,135.14-18.54,0,0,20.13-57.57,51.76-70.5"/>
        <path id="Lines_Outer" data-name="Lines Outer" class="cls-2" d="M944.17,581.58s-17.92,2.67-30.6-9.76a.45.45,0,0,0-.74.47,30.91,30.91,0,0,1-1.44,24.62c-11.09,23.43-40.17,32.06-63,19.69l-26.19-13.3a.46.46,0,0,0-.48,0c-1.44,1.11-9.65,7.35-22.1,15.21-34.44,20.38-69,37.31-109.58,41.83a.44.44,0,0,0-.38.55c15.32,63.58-31.26,110.62-38,117a.45.45,0,0,0,.31.77c69.48,1.78,69.57,43.59,69.36,48.27a.44.44,0,0,1-.46.42H319.54a.45.45,0,0,1-.45-.5l2.59-24a.45.45,0,0,0-.57-.48c-57.91,16.36-129.16.7-169.34-40l0,0c-85.72-105.74-31.47-221.1-5.17-327.3,19.06-77.68,36.78-171.9,15.9-214.76-28.62-58.75-93.14-66.91-144.17-10.86a.45.45,0,0,1-.79-.34c29.32-337.61,477.29-176.79,417,88a.45.45,0,0,0,.44.55c26.23-.5,60.27,4.59,99.53,19.24,0,0,96.24,31.81,135.08-18.47a.24.24,0,0,0,.07-.13c.76-2.13,20.56-57.31,51.37-70.28a.44.44,0,0,0,.26-.53c-1.6-5.78-19.15-76.45,62.3-138.28a.46.46,0,0,1,.72.47c-2.36,9-14.41,63.29,27.64,94.28l.06,0c2,1.06,102.13,53.27,110.67,66.46s71.79,95.17,77.64,205.74a.47.47,0,0,1-.22.41c-26.41,16.93-52.62,31.06-85.1,36.57a.45.45,0,0,0-.24.77c7.52,6.92,74.54,69.87,29.71,87.52Z"/>
      </g>
    </g>
  </g>
</svg>
