<svg xmlns="http://www.w3.org/2000/svg" width="1000" height="780.63" viewBox="0 0 1000 780.63">
  <defs>
    <style>
      .cls-1, .cls-2 {
        fill: none;
        stroke: #000;
        stroke-miterlimit: 7.57;
      }

      .cls-1 {
        stroke-width: 4.87px;
      }

      .cls-2 {
        stroke-width: 9.73px;
      }
    </style>
  </defs>
  <g id="Squirrel_Block_Logo" data-name="Squirrel Block Logo">
    <g>
      <g>
        <path id="Lines_Inner" data-name="Lines Inner" class="cls-1" d="M458,164.54c15.62-75.18-133.89-189.83-220-50.95m160.84,68C428,103.67,324.13-25.29,238,113.59M598.27,360.94C581,150,371.22,188.12,352.52,244.7m43.54,207.42c85.14-29.56,117.46-17.18,167-110.76,29.34-79.07,102.4-58.7,107.1-54.78M469.57,425.64c-36.34-14.65-123.33-101.89-84-170.41,53.74-93.72,213.64,1.13,324.08-4.4,18.36-2.34,39.78-14.31,50-15M614.52,127.62c10.9,42.26,75.31,6.15,95.39,34,21.34,29.6,37.45,96.65,37.45,96.65M302.53,18.78C464.47,43.71,396,187.35,396,187.35M329.77,433.08C452.53,381.16,522,334.77,524,179.88m89-51.59S600.6,88,647.07,53.13c0,0-10.07,33.26,14.72,51.51,0,0,55,28.64,59.65,35.82s38.74,51.35,41.84,111c0,0-27.47,19.3-57.4,19,0,0-8.82.05-20.52-4.39-23.29-10.4-44-22.2-62.31-36.23-7.56-5.95-10.62-20.55-13.57-33.64C603.59,170,613,128.29,613,128.29ZM296.6,20.4C445.61,86.71,283.86,262,280.43,330c-1.92,35.93,3,62.72,25.64,86.26a79.62,79.62,0,0,0,44.7,23.39,100.06,100.06,0,0,0,14.65,1.43,122.56,122.56,0,0,0,16.12-.69c5.61-.6,14.92-3.79,20.9-5.68,18.12-5.71,79.65-38.56,108.49-75,42.6-53.79,70.71-162.68,74.13-191.71m-304.78,162c-.25-6.65,12.77-48.48,23-90.17,10.27-41.86,19.82-92.63,8.57-115.73-15.51-31.84-50.6-36.1-78.17-5.31,15.23-183,257.63-96,226.2,47M716.75,271.34s41.89,37.46,16.32,47.53a20.74,20.74,0,0,1-17.79-7.19m-59.55-60.6s-28.86,25.37,40.21,44.9c0,0,28.84,11.36,19.46,31.15-6,12.63-21.64,17.27-33.92,10.61l-14.25-7.24s-74,57.74-104.21,10.85C516.31,179.85,326.61,217.1,354,354.88M563,451.35a13.54,13.54,0,0,0-1.1-1.41c-1.79-9.72-5.25-23.52-37.09-24.84s-74.43-.1-109.53,4.64m-19.09,8.36v13.25H613s2.33-25.48-38-26.25c0,0,30-26.7,24.67-61.81M415.3,429.74S263.85,318.57,387.42,196.26c0,0,43-48.54,124.86-20,0,0,51.9,17.16,72.81-10,0,0,10.85-31,27.89-38"/>
        <path id="Lines_Outer" data-name="Lines Outer" class="cls-2" d="M734.6,317.52S725,319,718.11,312.26a.24.24,0,0,0-.39.25,16.73,16.73,0,0,1-.78,13.27c-6,12.63-21.65,17.27-33.92,10.61l-14.12-7.17a.25.25,0,0,0-.26,0c-.77.59-5.2,3.95-11.91,8.19-18.56,11-37.2,20.11-59,22.54a.25.25,0,0,0-.21.3c8.26,34.26-16.84,59.6-20.48,63.06a.24.24,0,0,0,.16.42c37.44,1,37.49,23.49,37.38,26a.25.25,0,0,1-.25.23H398a.24.24,0,0,1-.24-.27l1.4-12.94a.25.25,0,0,0-.31-.26c-31.2,8.82-69.6.38-91.25-21.57l0,0c-46.19-57-17-119.15-2.79-176.37,10.27-41.86,19.82-92.63,8.57-115.73-15.42-31.65-50.19-36-77.69-5.85a.24.24,0,0,1-.42-.18C251.07-65.11,492.46,21.55,460,164.25a.23.23,0,0,0,.24.29c14.13-.26,32.47,2.48,53.62,10.37,0,0,51.86,17.15,72.8-9.95l0-.07c.41-1.15,11.08-30.88,27.68-37.87a.23.23,0,0,0,.14-.29c-.86-3.11-10.32-41.19,33.57-74.51a.25.25,0,0,1,.39.26c-1.27,4.85-7.77,34.1,14.89,50.8l0,0c1.08.56,55,28.7,59.63,35.81S761.66,190.39,764.81,250a.22.22,0,0,1-.11.22c-14.23,9.12-28.35,16.74-45.86,19.71a.24.24,0,0,0-.13.41c4.06,3.73,40.17,37.65,16,47.16ZM564,449.3"/>
      </g>
      <g>
        <path d="M87.32,607.88H37.46L27.14,631.33H13.33l42.49-93.82H69.09l42.62,93.82H97.64Zm-4.7-10.72-20.23-46-20.24,46Z"/>
        <path d="M196.28,546.22q10.46,8.71,10.45,24t-10.45,24q-10.46,8.71-28.68,8.71H144.41v28.41H131V537.51H167.6Q185.83,537.51,196.28,546.22Zm-9.65,39.61q6.7-5.43,6.7-15.61t-6.7-15.62q-6.7-5.43-19.43-5.43H144.41v42.09H167.2Q179.92,591.26,186.63,585.83Z"/>
        <path d="M297.07,546.22q10.46,8.71,10.45,24t-10.45,24q-10.45,8.71-28.68,8.71H245.2v28.41H231.8V537.51h36.59Q286.62,537.51,297.07,546.22Zm-9.65,39.61q6.7-5.43,6.7-15.61t-6.7-15.62q-6.71-5.43-19.44-5.43H245.2v42.09H268Q280.72,591.26,287.42,585.83Z"/>
        <path d="M387.67,607.88H337.81l-10.32,23.45h-13.8l42.48-93.82h13.27l42.62,93.82H398ZM383,597.16l-20.24-46-20.24,46Z"/>
        <path d="M431.36,537.51h13.4v82.16h50.8v11.66h-64.2Z"/>
        <path d="M576.51,607.88H526.65l-10.32,23.45h-13.8L545,537.51h13.27l42.62,93.82H586.83Zm-4.69-10.72-20.24-46-20.24,46Z"/>
        <path d="M636.76,626.17A45.84,45.84,0,0,1,619,609a50.25,50.25,0,0,1,0-49.19,45.82,45.82,0,0,1,17.82-17.16,52.27,52.27,0,0,1,25.47-6.23,53,53,0,0,1,20.1,3.69,41,41,0,0,1,15.55,10.92l-8.71,8.44q-10.59-11.12-26.4-11.12a38.23,38.23,0,0,0-18.9,4.69A34,34,0,0,0,630.73,566a38.06,38.06,0,0,0,0,36.86,33.9,33.9,0,0,0,13.2,12.93,38.23,38.23,0,0,0,18.9,4.7,35,35,0,0,0,26.4-11.26l8.71,8.44a41.61,41.61,0,0,1-15.61,11,52.87,52.87,0,0,1-20.17,3.75A51.72,51.72,0,0,1,636.76,626.17Z"/>
        <path d="M803.15,537.51v93.82h-13.4V589.52H735.87v41.81h-13.4V537.51h13.4v40.34h53.88V537.51Z"/>
        <path d="M836.66,537.51h13.4v93.82h-13.4Z"/>
        <path d="M943.35,607.88H893.49l-10.32,23.45H869.36l42.49-93.82h13.27l42.62,93.82H953.67Zm-4.7-10.72-20.23-46-20.24,46Z"/>
        <path d="M22.77,747V672.76h7.32V747Z"/>
        <path d="M84.24,686.24V747H76.92V672.76H83l48.71,61.89V672.86H139V747h-6.8Z"/>
        <path d="M238.54,679.24H212.09V747h-7.31V679.24H178.33v-6.48h60.21Z"/>
        <path d="M327.72,740.5V747H277.85V672.76h48.93v6.48H285.17V706h36.27v6.17H285.17V740.5Z"/>
        <path d="M369.74,747V672.76H401.1a19.37,19.37,0,0,1,8.78,2,22.73,22.73,0,0,1,7,5.39,25.5,25.5,0,0,1,4.6,7.52,22.9,22.9,0,0,1,1.62,8.42,25,25,0,0,1-2,10,22.1,22.1,0,0,1-5.75,7.94,19,19,0,0,1-8.73,4.29L424.73,747h-8.26L399,719.59H377.06V747Zm7.32-33.87h24.25a12.46,12.46,0,0,0,7.63-2.4,15.92,15.92,0,0,0,5-6.33,19.79,19.79,0,0,0,1.78-8.31,17.58,17.58,0,0,0-7.48-14.48,13,13,0,0,0-7.57-2.35H377.06Z"/>
        <path d="M488.92,672.76h6.17L525.93,747h-7.74l-9.27-23.21H475L465.71,747h-7.84ZM506.62,718,492,681.33,477.29,718Z"/>
        <path d="M557.19,709.24a39.5,39.5,0,0,1,9.2-25.25,33,33,0,0,1,11.08-8.57,33.94,33.94,0,0,1,14.95-3.19q9.93,0,17,4.55a27.84,27.84,0,0,1,10.4,11.66L614.06,692A22.14,22.14,0,0,0,608,684.2a23.91,23.91,0,0,0-7.78-4.13,28.37,28.37,0,0,0-8.21-1.25,25.17,25.17,0,0,0-11.81,2.67,26.24,26.24,0,0,0-8.63,7.1,32,32,0,0,0-5.28,9.94,36.08,36.08,0,0,0-1.78,11.13,33.58,33.58,0,0,0,2.1,11.81,31.92,31.92,0,0,0,5.85,10,28.84,28.84,0,0,0,8.83,6.9,24.09,24.09,0,0,0,11,2.56,27,27,0,0,0,8.58-1.47,26.6,26.6,0,0,0,8.2-4.49,22,22,0,0,0,6.12-7.84l6.06,3.14a23.35,23.35,0,0,1-7.11,9.4,34.4,34.4,0,0,1-10.71,5.86,36.25,36.25,0,0,1-11.56,2,30,30,0,0,1-14-3.29,35.73,35.73,0,0,1-11-8.78,41.11,41.11,0,0,1-9.67-26.19Z"/>
        <path d="M714.52,679.24H688.07V747h-7.32V679.24H654.31v-6.48h60.21Z"/>
        <path d="M753.83,747V672.76h7.32V747Z"/>
        <path d="M807.67,672.76l26.55,65.13,26.45-65.13h7.63L837.56,747h-6.69L800,672.76Z"/>
        <path d="M957.05,740.5V747H907.19V672.76h48.92v6.48h-41.6V706h36.27v6.17H914.51V740.5Z"/>
      </g>
    </g>
  </g>
</svg>
