<svg xmlns="http://www.w3.org/2000/svg" width="1000" height="828.37" viewBox="0 0 1000 828.37">
  <defs>
    <style>
      .cls-1 {
        fill: #fff;
        stroke: #161515;
        stroke-miterlimit: 7.57;
        stroke-width: 26.45px;
      }
    </style>
  </defs>
  <g id="Squirrel_Icon" data-name="Squirrel Icon">
    <path id="Squirrel_Filled" data-name="Squirrel Filled" class="cls-1" d="M929.81,571.06s-17.7,2.64-30.22-9.63a.44.44,0,0,0-.73.45,30.53,30.53,0,0,1-1.42,24.31c-11,23.14-39.66,31.66-62.16,19.45l-25.87-13.13a.45.45,0,0,0-.47,0c-1.42,1.09-9.53,7.25-21.82,15-34,20.12-68.18,36.83-108.19,41.3a.43.43,0,0,0-.38.54C693.68,712.18,647.68,758.63,641,765a.44.44,0,0,0,.31.76c68.6,1.76,68.68,43,68.48,47.66a.44.44,0,0,1-.45.42H313.06a.44.44,0,0,1-.44-.49l2.56-23.71a.45.45,0,0,0-.57-.47c-57.17,16.15-127.53.68-167.21-39.54l0,0c-84.64-104.4-31.07-218.31-5.11-323.17,18.82-76.7,36.32-169.73,15.7-212-28.25-58-92-66.06-142.34-10.72a.45.45,0,0,1-.78-.34c29-333.35,471.26-174.55,411.69,86.93a.44.44,0,0,0,.44.54c25.89-.49,59.51,4.54,98.27,19,0,0,95,31.41,133.38-18.24a.47.47,0,0,0,.07-.12c.74-2.11,20.3-56.6,50.72-69.4a.43.43,0,0,0,.25-.52c-1.58-5.71-18.9-75.49,61.51-136.54a.46.46,0,0,1,.72.47c-2.33,8.9-14.23,62.49,27.28,93.08l.06,0c2,1,100.85,52.6,109.28,65.62s70.88,94,76.65,203.15a.46.46,0,0,1-.2.4c-26.08,16.71-52,30.66-84,36.1a.45.45,0,0,0-.23.77c7.43,6.83,73.6,69,29.33,86.41ZM617.21,812.52"/>
  </g>
</svg>
