<svg xmlns="http://www.w3.org/2000/svg" width="1015.33" height="844.25" viewBox="0 0 1015.33 844.25">
  <defs>
    <style>
      .cls-1 {
        fill: #fff;
        stroke: #161515;
        stroke-miterlimit: 7.57;
        stroke-width: 45px;
      }
    </style>
  </defs>
  <g id="Layer_2" data-name="Layer 2">
    <g id="Squirrel_Icon" data-name="Squirrel Icon">
      <path id="Squirrel_Filled" data-name="Squirrel Filled" class="cls-1" d="M937.47,579s-17.69,2.64-30.21-9.63a.44.44,0,0,0-.73.45,30.53,30.53,0,0,1-1.43,24.31c-11,23.15-39.66,31.66-62.16,19.45l-25.86-13.13a.46.46,0,0,0-.48,0c-1.41,1.09-9.52,7.25-21.81,15-34,20.12-68.18,36.83-108.2,41.3a.44.44,0,0,0-.38.54c15.13,62.77-30.86,109.22-37.54,115.56a.45.45,0,0,0,.31.77c68.6,1.75,68.69,43,68.48,47.65a.44.44,0,0,1-.45.42H320.73a.45.45,0,0,1-.45-.49l2.56-23.71a.44.44,0,0,0-.56-.47c-57.18,16.15-127.53.68-167.21-39.54l0,0C70.4,653.1,124,539.19,149.93,434.34c18.81-76.71,36.31-169.73,15.7-212.06-28.26-58-92-66.06-142.35-10.72a.45.45,0,0,1-.78-.34c29-333.34,471.27-174.55,411.7,86.93a.43.43,0,0,0,.43.54c25.9-.49,59.51,4.54,98.27,19,0,0,95,31.41,133.38-18.24a.24.24,0,0,0,.07-.12c.75-2.1,20.3-56.59,50.72-69.39a.44.44,0,0,0,.26-.53c-1.58-5.71-18.91-75.49,61.51-136.53a.45.45,0,0,1,.71.46c-2.33,8.9-14.23,62.49,27.29,93.09l.06,0c2,1,100.85,52.6,109.28,65.62s70.88,94,76.65,203.15a.43.43,0,0,1-.21.4c-26.08,16.71-52,30.66-84,36.11a.44.44,0,0,0-.24.76c7.43,6.83,73.6,69,29.34,86.41Z"/>
    </g>
  </g>
</svg>
