<svg id="Squirrel_Narrow_Logo" data-name="Squirrel Narrow Logo" xmlns="http://www.w3.org/2000/svg" xmlns:xlink="http://www.w3.org/1999/xlink" width="1000.98" height="211.12" viewBox="0 0 1000.98 211.12">
  <defs>
    <style>
      .cls-1, .cls-2 {
        fill: none;
        stroke: #000;
        stroke-miterlimit: 7.57;
      }

      .cls-1 {
        stroke-width: 2.49px;
      }

      .cls-2 {
        stroke-width: 4.98px;
      }
    </style>
    <symbol id="Appalachia_Interactive_2" data-name="Appalachia Interactive 2" viewBox="0 0 363.14 94.34">
      <g>
        <path d="M27.6,33.75H9L5.15,42.5H0l15.85-35h5l15.9,35H31.45Zm-1.75-4L18.3,12.6,10.75,29.75Z"/>
        <path d="M68.25,10.75a11,11,0,0,1,3.9,9,11,11,0,0,1-3.9,9q-3.9,3.26-10.7,3.25H48.9V42.5h-5V7.5H57.55Q64.35,7.5,68.25,10.75Zm-3.6,14.77a7,7,0,0,0,2.5-5.82,7.07,7.07,0,0,0-2.5-5.83c-1.67-1.35-4.08-2-7.25-2H48.9v15.7h8.5C60.57,27.55,63,26.87,64.65,25.52Z"/>
        <path d="M105.85,10.75a11,11,0,0,1,3.9,9,11,11,0,0,1-3.9,9q-3.9,3.26-10.7,3.25H86.5V42.5h-5V7.5H95.15Q101.95,7.5,105.85,10.75Zm-3.6,14.77a7,7,0,0,0,2.5-5.82,7.07,7.07,0,0,0-2.5-5.83c-1.67-1.35-4.08-2-7.25-2H86.5v15.7H95C98.17,27.55,100.58,26.87,102.25,25.52Z"/>
        <path d="M139.65,33.75h-18.6L117.2,42.5h-5.15l15.85-35h4.95l15.9,35H143.5Zm-1.75-4L130.35,12.6,122.8,29.75Z"/>
        <path d="M156,7.5h5V38.15h19V42.5H156Z"/>
        <path d="M210.1,33.75H191.5l-3.85,8.75H182.5l15.85-35h5l15.9,35H214Zm-1.75-4L200.8,12.6l-7.55,17.15Z"/>
        <path d="M232.57,40.57a17,17,0,0,1-6.62-6.4,17.7,17.7,0,0,1-2.4-9.17,17.76,17.76,0,0,1,2.4-9.18,17.06,17.06,0,0,1,6.65-6.4,19.45,19.45,0,0,1,9.5-2.32,20,20,0,0,1,7.5,1.37,15.45,15.45,0,0,1,5.8,4.08l-3.25,3.15a13,13,0,0,0-9.85-4.15,14.23,14.23,0,0,0-7.05,1.75,12.69,12.69,0,0,0-4.93,4.82A13.56,13.56,0,0,0,228.55,25a13.52,13.52,0,0,0,1.77,6.87,12.72,12.72,0,0,0,4.93,4.83,14.23,14.23,0,0,0,7.05,1.75,13.07,13.07,0,0,0,9.85-4.2l3.25,3.15a15.56,15.56,0,0,1-5.83,4.1,19.74,19.74,0,0,1-7.52,1.4A19.35,19.35,0,0,1,232.57,40.57Z"/>
        <path d="M294.65,7.5v35h-5V26.9h-20.1V42.5h-5V7.5h5V22.55h20.1V7.5Z"/>
        <path d="M307.15,7.5h5v35h-5Z"/>
        <path d="M347,33.75h-18.6L324.5,42.5h-5.15l15.85-35h4.95l15.9,35H350.8Zm-1.75-4L337.65,12.6,330.1,29.75Z"/>
        <path d="M3.68,85.64V58h2V85.64Z"/>
        <path d="M25.44,61.66v24h-2V58h1.64l19.3,24.38V58h2V85.64h-2Z"/>
        <path d="M83.47,59.75H73.33V85.64h-2V59.75H61.2V58H83.47Z"/>
        <path d="M116.74,83.85v1.79H98.29V58h18.1v1.8H100.28V70.63h14.08v1.71H100.28V83.85Z"/>
        <path d="M132.69,85.64V58h11.5a7.17,7.17,0,0,1,3.26.74,8.39,8.39,0,0,1,2.53,2,9.37,9.37,0,0,1,1.68,2.75,8.49,8.49,0,0,1,.61,3.12,9.25,9.25,0,0,1-.82,3.86,8.44,8.44,0,0,1-2.28,3,6.78,6.78,0,0,1-3.42,1.48l6.91,10.76h-2.31l-6.7-10.45h-9V85.64Zm2-12.28h9.71a5.15,5.15,0,0,0,3.12-1,6.55,6.55,0,0,0,2.05-2.53,7.84,7.84,0,0,0,.72-3.32,6.86,6.86,0,0,0-.84-3.33,7.15,7.15,0,0,0-2.22-2.5,5.4,5.4,0,0,0-3.1-1h-9.44Z"/>
        <path d="M177,58h1.72l11.7,27.69H188.3l-3.77-9.12H171.15l-3.79,9.12h-2.15Zm6.86,16.93-6-14.51-6,14.51Z"/>
        <path d="M202.22,71.56a14.61,14.61,0,0,1,.88-4.93,14.78,14.78,0,0,1,2.56-4.45A12.53,12.53,0,0,1,209.77,59a12.32,12.32,0,0,1,5.56-1.21,11.38,11.38,0,0,1,6.32,1.69,10.84,10.84,0,0,1,3.9,4.35l-1.64.94a9.06,9.06,0,0,0-2.4-3,8.88,8.88,0,0,0-3.06-1.62,11.29,11.29,0,0,0-3.28-.49,10.09,10.09,0,0,0-4.66,1,10.73,10.73,0,0,0-3.45,2.81,12.53,12.53,0,0,0-2.12,3.9,13.3,13.3,0,0,0-.73,4.33,12.77,12.77,0,0,0,.86,4.66,13.06,13.06,0,0,0,2.36,3.92A11.33,11.33,0,0,0,210.94,83a9.48,9.48,0,0,0,4.35,1,10.88,10.88,0,0,0,3.41-.57A10.57,10.57,0,0,0,222,81.68a8.77,8.77,0,0,0,2.46-3.1l1.71.82a9,9,0,0,1-2.69,3.51,12.91,12.91,0,0,1-4,2.19,13.5,13.5,0,0,1-4.33.74A11.09,11.09,0,0,1,210,84.61a13.37,13.37,0,0,1-4.12-3.28,15.35,15.35,0,0,1-3.61-9.77Z"/>
        <path d="M260.76,59.75H250.62V85.64h-2V59.75H238.49V58h22.27Z"/>
        <path d="M275.58,85.64V58h2V85.64Z"/>
        <path d="M294.42,58,305,83.15,315.48,58h2.11L305.92,85.64H304L292.31,58Z"/>
        <path d="M350.81,83.85v1.79H332.37V58h18.09v1.8h-16.1V70.63h14.07v1.71H334.36V83.85Z"/>
      </g>
    </symbol>
  </defs>
  <g>
    <g id="Lines">
      <path id="Lines_Inner" data-name="Lines Inner" class="cls-1" d="M100.53,67.46c6.79-32.7-58.25-82.58-95.72-22.16m70,29.57c12.68-33.89-32.51-90-70-29.57M161.54,152.91C154,61.14,62.77,77.72,54.63,102.34m18.94,90.24c37-12.86,51.11-7.47,72.68-48.19,12.76-34.4,44.54-25.54,46.59-23.83m-87.29,60.5C89.74,174.69,51.9,136.73,69,106.92c23.38-40.77,93,.49,141-1.91,8-1,17.31-6.23,21.77-6.53M168.61,51.4c4.75,18.39,32.77,2.68,41.51,14.8,9.28,12.87,16.29,42,16.29,42M32.88,4.05C103.33,14.9,73.56,77.39,73.56,77.39M44.73,184.29c53.41-22.58,83.61-42.77,84.49-110.15M168,51.69S162.56,34.16,182.78,19c0,0-4.38,14.46,6.4,22.4,0,0,23.93,12.46,25.95,15.59S232,79.33,233.34,105.28c0,0-12,8.4-25,8.26a27.46,27.46,0,0,1-8.93-1.91,133.47,133.47,0,0,1-27.1-15.77c-3.29-2.59-4.62-8.94-5.91-14.63C163.86,69.84,168,51.69,168,51.69ZM30.3,4.75c64.83,28.85-5.54,105.12-7,134.72-.83,15.63,1.29,27.29,11.16,37.52a34.59,34.59,0,0,0,19.45,10.18,42.85,42.85,0,0,0,6.37.62,52.84,52.84,0,0,0,7-.3c2.45-.26,6.49-1.65,9.1-2.47,7.88-2.48,34.65-16.78,47.19-32.62C142.08,129,154.31,81.63,155.8,69M23.2,139.49c-.11-2.89,5.55-21.1,10-39.23S41.83,60,36.93,49.91c-6.75-13.85-22-15.71-34-2.31C9.55-32,115,5.81,101.33,68m111.76,45.9s18.22,16.3,7.1,20.68a9,9,0,0,1-7.74-3.13m-25.91-26.37s-12.55,11,17.5,19.54c0,0,12.54,4.94,8.46,13.55a10.68,10.68,0,0,1-14.75,4.62l-6.2-3.15s-32.18,25.12-45.34,4.72c-20.32-70.26-102.86-54.06-91,5.88m91,42a5.8,5.8,0,0,0-.48-.61c-.78-4.23-2.29-10.23-16.14-10.81a295.62,295.62,0,0,0-47.65,2m-8.3,3.64v5.76H168s1-11.08-16.52-11.42c0,0,13-11.61,10.73-26.89M81.94,182.84S16.05,134.48,69.81,81.27c0,0,18.7-21.12,54.32-8.71,0,0,22.58,7.47,31.68-4.34,0,0,4.72-13.5,12.14-16.53"/>
      <path id="Lines_Outer" data-name="Lines Outer" class="cls-2" d="M220.86,134a9.16,9.16,0,0,1-7.18-2.29c-.07-.08-.2,0-.17.11a7.24,7.24,0,0,1-.34,5.77,10.68,10.68,0,0,1-14.76,4.62l-6.14-3.12a.11.11,0,0,0-.11,0c-.34.26-2.26,1.72-5.18,3.57-8.07,4.77-16.19,8.74-25.69,9.8a.11.11,0,0,0-.09.13c3.59,14.91-7.33,25.93-8.91,27.44a.1.1,0,0,0,.07.18c16.29.42,16.31,10.22,16.26,11.32a.11.11,0,0,1-.1.1H74.42a.11.11,0,0,1-.1-.12l.61-5.63a.11.11,0,0,0-.14-.11c-13.57,3.83-30.28.16-39.7-9.39h0C15,151.61,27.71,124.57,33.87,99.67c4.47-18.21,8.62-40.3,3.73-50.35C30.89,35.55,15.77,33.64,3.8,46.78a.1.1,0,0,1-.18-.08c6.87-79.15,111.89-41.45,97.75,20.64a.1.1,0,0,0,.1.13c6.15-.12,14.13,1.07,23.33,4.51,0,0,22.56,7.45,31.67-4.33l0,0c.17-.5,4.82-13.44,12-16.48a.1.1,0,0,0,.06-.12c-.38-1.36-4.49-17.93,14.6-32.42a.11.11,0,0,1,.17.11c-.55,2.11-3.38,14.84,6.48,22.1h0c.47.25,23.94,12.49,25.94,15.58s16.83,22.31,18.2,48.23a.1.1,0,0,1-.05.1c-6.19,4-12.33,7.28-19.95,8.57a.11.11,0,0,0-.06.18c1.77,1.62,17.48,16.38,7,20.52Zm-74.22,57.33"/>
    </g>
    <use width="363.14" height="94.34" transform="translate(274.87 22.58) scale(1.99)" xlink:href="#Appalachia_Interactive_2"/>
  </g>
</svg>
