<svg xmlns="http://www.w3.org/2000/svg" width="996.15" height="822.85" viewBox="0 0 996.15 822.85">
  <defs>
    <style>
      .cls-1, .cls-2 {
        fill: none;
        stroke: #000;
        stroke-miterlimit: 7.57;
      }

      .cls-1 {
        stroke-width: 10px;
      }

      .cls-2 {
        stroke-width: 20px;
      }
    </style>
  </defs>
  <g id="Squirrel_Outline_Logo" data-name="Squirrel Outline Logo">
    <g>
      <path id="Lines_Inner" data-name="Lines Inner" class="cls-1" d="M420.51,286C449.5,146.49,172-66.28,12.2,191.46M310.7,317.59C364.81,173,172-66.28,12.2,191.46m668.58,459C648.72,259,259.43,329.77,224.72,434.77m80.8,384.93c158-54.85,218-31.87,310-205.54C670,467.41,805.55,505.22,814.28,512.5M441.94,770.56c-67.45-27.18-228.88-189.09-156-316.24,99.74-173.93,396.49,2.09,601.43-8.17,34.08-4.34,73.83-26.56,92.84-27.84M710.94,217.49c20.23,78.43,139.75,11.42,177,63.13C927.56,335.54,957.47,460,957.47,460M131.94,15.51C432.47,61.78,305.46,328.34,305.46,328.34m-123,456C410.31,688,539.14,601.93,542.9,314.48m165.19-95.74S685.1,144,771.35,79.26c0,0-18.69,61.72,27.31,95.59,0,0,102.08,53.14,110.71,66.47s71.89,95.3,77.65,206c0,0-51,35.81-106.53,35.21,0,0-16.37.1-38.1-8.15-43.21-19.29-81.67-41.2-115.62-67.24-14-11-19.7-38.13-25.18-62.41C690.65,296.17,708.09,218.74,708.09,218.74ZM121,18.51c276.53,123.07-23.65,448.38-30,574.63-3.56,66.68,5.49,116.41,47.58,160.08,21.05,21.84,48.48,37.43,83,43.43a188.59,188.59,0,0,0,27.19,2.64,226.25,226.25,0,0,0,29.9-1.28c10.43-1.11,27.69-7,38.8-10.54C351,776.88,465.17,715.9,518.69,648.33c79.06-99.82,131.22-301.89,137.58-355.78M90.65,593.24c-.46-12.34,23.7-90,42.67-167.34,19.06-77.68,36.79-171.9,15.91-214.76-28.79-59.1-93.9-67-145.07-9.86C32.42-138.34,482.27,23,423.94,288.41m476.72,195.8s77.73,69.52,30.28,88.21c0,0-19.34,2.88-33-13.34M787.41,446.61S733.86,493.7,862,530c0,0,53.53,21.07,36.13,57.79-11.1,23.44-40.17,32.06-63,19.7L808.75,594S671.51,701.16,615.37,614.13c-86.69-299.7-438.74-230.58-388,25.11m388,179a25.84,25.84,0,0,0-2-2.6c-3.32-18.06-9.76-43.66-68.84-46.12s-138.13-.17-203.27,8.62M305.8,793.69v24.58H708.09s4.32-47.28-70.45-48.72c0,0,55.6-49.54,45.78-114.7M341.22,778.17s-281-206.3-51.74-433.28c0,0,79.76-90.09,231.71-37.12,0,0,96.32,31.84,135.14-18.54,0,0,20.13-57.57,51.76-70.49"/>
      <path id="Lines_Outer" data-name="Lines Outer" class="cls-2" d="M933.79,569.91s-17.92,2.67-30.6-9.75a.45.45,0,0,0-.74.46A31,31,0,0,1,901,585.24c-11.09,23.44-40.17,32.06-63,19.7l-26.19-13.31a.44.44,0,0,0-.48,0c-1.44,1.1-9.65,7.34-22.1,15.21-34.44,20.37-69,37.3-109.58,41.82a.44.44,0,0,0-.38.56c15.32,63.57-31.26,110.61-38,117a.45.45,0,0,0,.31.77c69.48,1.79,69.57,43.59,69.36,48.27a.45.45,0,0,1-.46.43H309.16a.46.46,0,0,1-.45-.51l2.59-24a.44.44,0,0,0-.57-.48c-57.91,16.36-129.16.69-169.35-40l0,0C55.63,645,109.88,529.59,136.18,423.4c19-77.69,36.78-171.9,15.9-214.77-28.62-58.75-93.14-66.9-144.17-10.86a.45.45,0,0,1-.79-.34c29.32-337.61,477.29-176.78,417,88a.45.45,0,0,0,.44.55c26.23-.5,60.27,4.59,99.53,19.24,0,0,96.24,31.82,135.08-18.47a.37.37,0,0,0,.07-.12c.76-2.14,20.56-57.32,51.37-70.29a.44.44,0,0,0,.26-.53c-1.6-5.78-19.15-76.45,62.3-138.28a.46.46,0,0,1,.72.47c-2.36,9-14.41,63.29,27.64,94.28l.06,0c2,1,102.13,53.26,110.67,66.45S984,334,989.86,444.56a.49.49,0,0,1-.22.41c-26.41,16.92-52.62,31-85.1,36.56a.44.44,0,0,0-.24.77c7.52,6.92,74.54,69.87,29.71,87.52ZM617.2,814.46"/>
    </g>
  </g>
</svg>
