<svg xmlns="http://www.w3.org/2000/svg" xmlns:xlink="http://www.w3.org/1999/xlink" width="978.64" height="1000" viewBox="0 0 978.64 1000">
  <defs>
    <style>
      .cls-1 {
        filter: url(#luminosity-noclip);
      }

      .cls-2 {
        filter: url(#luminosity-noclip-2);
      }

      .cls-15, .cls-3, .cls-4 {
        fill: #fff;
      }

      .cls-10, .cls-11, .cls-12, .cls-13, .cls-14, .cls-15, .cls-3, .cls-9 {
        stroke: #161515;
      }

      .cls-10, .cls-11, .cls-12, .cls-13, .cls-14, .cls-15, .cls-3, .cls-6, .cls-9 {
        stroke-miterlimit: 10;
      }

      .cls-3 {
        stroke-width: 10px;
      }

      .cls-10, .cls-11, .cls-12, .cls-13, .cls-14, .cls-5, .cls-9 {
        fill: #161515;
      }

      .cls-6 {
        stroke: #000;
      }

      .cls-7 {
        mask: url(#mask);
      }

      .cls-8 {
        mask: url(#mask-2);
      }

      .cls-9 {
        stroke-width: 16.63px;
      }

      .cls-10 {
        stroke-width: 16.63px;
      }

      .cls-11 {
        stroke-width: 16.63px;
      }

      .cls-12 {
        stroke-width: 16.63px;
      }

      .cls-13 {
        stroke-width: 16.63px;
      }

      .cls-14, .cls-15 {
        stroke-width: 9.37px;
      }
    </style>
    <filter id="luminosity-noclip" x="0" y="0" width="967.51" height="978.19" filterUnits="userSpaceOnUse" color-interpolation-filters="sRGB">
      <feFlood flood-color="#fff" result="bg"/>
      <feBlend in="SourceGraphic" in2="bg"/>
    </filter>
    <mask id="mask" x="0" y="0" width="967.51" height="978.19" maskUnits="userSpaceOnUse">
      <circle id="Outer_Ring" data-name="Outer Ring" class="cls-1" cx="487.23" cy="502.79" r="212.42"/>
    </mask>
    <filter id="luminosity-noclip-2" x="0" y="0" width="936.27" height="944.32" filterUnits="userSpaceOnUse" color-interpolation-filters="sRGB">
      <feFlood flood-color="#fff" result="bg"/>
      <feBlend in="SourceGraphic" in2="bg"/>
    </filter>
    <symbol id="Straight_Sun_Ray_Mask" data-name="Straight Sun Ray Mask" viewBox="0 0 61.09 126.9">
      <path class="cls-6" d="M60.45,126.4H.63l29-124.26Z"/>
    </symbol>
    <mask id="mask-2" x="0" y="0" width="936.27" height="944.32" maskUnits="userSpaceOnUse">
      <g id="Straight_Rays_Mask" data-name="Straight Rays Mask" class="cls-2">
        <use width="61.09" height="126.9" transform="translate(431.88 61.78) scale(2.08)" xlink:href="#Straight_Sun_Ray_Mask"/>
        <use width="61.09" height="126.9" transform="translate(546.76 938.22) rotate(180) scale(2.08)" xlink:href="#Straight_Sun_Ray_Mask"/>
        <use width="61.09" height="126.9" transform="translate(758.57 149.52) rotate(45) scale(2.08)" xlink:href="#Straight_Sun_Ray_Mask"/>
        <use width="61.09" height="126.9" transform="translate(220.07 850.48) rotate(-135) scale(2.08)" xlink:href="#Straight_Sun_Ray_Mask"/>
        <use width="61.09" height="126.9" transform="translate(927.54 442.56) rotate(90) scale(2.08)" xlink:href="#Straight_Sun_Ray_Mask"/>
        <use width="61.09" height="126.9" transform="translate(51.1 557.44) rotate(-90) scale(2.08)" xlink:href="#Straight_Sun_Ray_Mask"/>
        <use width="61.09" height="126.9" transform="translate(839.8 769.25) rotate(135) scale(2.08)" xlink:href="#Straight_Sun_Ray_Mask"/>
        <use width="61.09" height="126.9" transform="translate(138.84 230.75) rotate(-45) scale(2.08)" xlink:href="#Straight_Sun_Ray_Mask"/>
      </g>
    </mask>
    <symbol id="Straight_Sun_Ray" data-name="Straight Sun Ray" viewBox="0 0 72.52 150.63">
      <path id="Outline-9" data-name="Outline" class="cls-3" d="M66.13,145.62H6.3l29-124.26Q50.73,83.49,66.13,145.62Z"/>
      <g id="Middle_Line" data-name="Middle Line">
        <path class="cls-4" d="M36.22,145.62q-.45-62.13-.88-124.26"/>
        <path class="cls-5" d="M32.22,145.65l-.44-62.13-.22-31.06c.39-10.36-1.95-20.7,3.78-31.1,5.88,10.32,3.69,20.69,4.22,31l.22,31.07.44,62.13Z"/>
      </g>
    </symbol>
  </defs>
  <g id="Sun_Simple" data-name="Sun Simple">
    <g id="Sun">
      <g class="cls-7">
        <g id="Rays">
          <g class="cls-8">
            <g id="Curvy_Rays" data-name="Curvy Rays">
              <g id="Outlines">
                <path id="Outline" class="cls-9" d="M493.29,696l59-19.75,59-19.75c16.3,35.32,19.77,64.1,20.11,83.26.74,41.83-13,61.15-12.2,103.9A206.15,206.15,0,0,0,636,920.64c-20.78-14.67-43.09-35.71-57.43-65.86C562,820,568,798,551.48,763.05,541.7,742.32,524.66,718.37,493.29,696Z"/>
                <path id="Outline-2" data-name="Outline" class="cls-10" d="M485,304.7l-59.3,18.7-59.31,18.69c-15.67-35.6-18.63-64.43-18.63-83.6,0-41.84,14.1-60.91,14.05-103.67a206.13,206.13,0,0,0-15.52-77.23c20.52,15,42.45,36.47,56.25,66.86,15.94,35.1,9.61,57,25.46,92.21C437.45,257.56,454.07,281.8,485,304.7Z"/>
                <path id="Outline-3" data-name="Outline" class="cls-11" d="M632.1,636.91l27.72-55.66,27.73-55.65c36.5,13.44,59.3,31.34,73.09,44.65,30.11,29.06,34,52.44,64.84,82.09a206.18,206.18,0,0,0,66.36,42.47c-25.07,4.32-55.73,5.22-87.18-5.95-36.32-12.91-47.68-32.67-84-45.71C699.06,635.4,670.07,630.53,632.1,636.91Z"/>
                <path id="Outline-4" data-name="Outline" class="cls-12" d="M349.55,366l-28.71,55.15-28.71,55.16c-36.26-14.09-58.74-32.39-72.29-45.94-29.59-29.6-33.1-53-63.37-83.24a206.21,206.21,0,0,0-65.59-43.64c25.14-3.88,55.81-4.23,87.06,7.5,36.08,13.55,47.09,33.51,83.19,47.2C282.57,366.34,311.46,371.74,349.55,366Z"/>
                <path id="Outline-5" data-name="Outline" class="cls-9" d="M688,497.1q-9.87-29.48-19.75-59t-19.75-59c35.32-16.31,64.1-19.77,83.26-20.11,41.84-.74,61.15,13,103.9,12.2a206.35,206.35,0,0,0,77-16.89c-14.67,20.78-35.71,43.09-65.86,57.43-34.8,16.56-56.8,10.62-91.73,27.1C734.26,448.69,710.31,465.73,688,497.1Z"/>
                <path id="Outline-6" data-name="Outline" class="cls-10" d="M296.64,505.35q9.35,29.65,18.7,59.3T334,624c-35.6,15.67-64.44,18.63-83.61,18.62-41.84,0-60.91-14.1-103.66-14a206.15,206.15,0,0,0-77.24,15.52c15-20.52,36.47-42.46,66.87-56.26,35.09-15.93,57-9.6,92.2-25.45C249.5,552.94,273.75,536.32,296.64,505.35Z"/>
                <path id="Outline-7" data-name="Outline" class="cls-13" d="M628.85,358.29,573.2,330.57l-55.66-27.73c13.44-36.5,31.34-59.3,44.65-73.09,29.06-30.11,52.44-34,82.1-64.84a206.3,206.3,0,0,0,42.46-66.36c4.33,25.06,5.22,55.72-6,87.18-12.91,36.32-32.67,47.68-45.71,84C627.35,291.33,622.47,320.31,628.85,358.29Z"/>
                <path id="Outline-8" data-name="Outline" class="cls-12" d="M358,640.84l55.16,28.71,55.15,28.71c-14.09,36.26-32.39,58.74-45.94,72.29-29.59,29.58-53,33.1-83.24,63.37a206.28,206.28,0,0,0-43.64,65.59c-3.88-25.14-4.23-55.81,7.5-87.06,13.55-36.08,33.51-47.09,47.2-83.2C358.29,707.82,363.68,678.92,358,640.84Z"/>
              </g>
            </g>
          </g>
          <g id="Straight_Rays" data-name="Straight Rays">
            <g id="Outlines-2" data-name="Outlines">
              <use width="72.52" height="150.62" transform="translate(876.4 789.18) rotate(135) scale(2.08)" xlink:href="#Straight_Sun_Ray"/>
              <use width="72.52" height="150.62" transform="translate(102.24 210.82) rotate(-45) scale(2.08)" xlink:href="#Straight_Sun_Ray"/>
              <use width="72.52" height="150.62" transform="translate(420.09 21.81) scale(2.08)" xlink:href="#Straight_Sun_Ray"/>
              <use width="72.52" height="150.62" transform="translate(558.55 978.19) rotate(180) scale(2.08)" xlink:href="#Straight_Sun_Ray"/>
              <use width="72.52" height="150.62" transform="translate(778.5 112.92) rotate(45) scale(2.08)" xlink:href="#Straight_Sun_Ray"/>
              <use width="72.52" height="150.62" transform="translate(200.14 887.08) rotate(-135) scale(2.08)" xlink:href="#Straight_Sun_Ray"/>
              <use width="72.52" height="150.62" transform="translate(967.51 430.77) rotate(90) scale(2.08)" xlink:href="#Straight_Sun_Ray"/>
              <use width="72.52" height="150.62" transform="translate(11.13 569.23) rotate(-90) scale(2.08)" xlink:href="#Straight_Sun_Ray"/>
            </g>
          </g>
        </g>
      </g>
      <g id="Body">
        <circle id="Outer_Ring-2" data-name="Outer Ring" class="cls-14" cx="491.14" cy="500" r="212.42"/>
        <circle id="Inner_Ring" data-name="Inner Ring" class="cls-15" cx="491.14" cy="500" r="193.13" transform="translate(-209.7 493.74) rotate(-45)"/>
        <path id="Inner_Ring_Fill" data-name="Inner Ring Fill" class="cls-5" d="M429.55,329.8C496,362.85,536.33,432.27,531.69,505.21c-4.37,68.68-47.94,129.51-112.13,156.67,9.7,4,85.6,33.72,159.65-8.35,63.65-36.16,99.17-110.15,88-182.56-14.15-92.26-96.35-132.2-101.68-134.68C502,306.75,442.78,325.29,429.55,329.8Z"/>
      </g>
    </g>
  </g>
</svg>
