<svg xmlns="http://www.w3.org/2000/svg" width="962.94" height="197.39" viewBox="0 0 962.94 197.39">
  <defs>
    <style>
      .cls-1 {
        fill: #b40000;
      }

      .cls-2 {
        fill: #987fff;
      }

      .cls-3 {
        fill: #15ff36;
      }

      .cls-4 {
        fill: #004a32;
      }
    </style>
  </defs>
  <g id="Layer_2" data-name="Layer 2">
    <g id="Layer_12_copy" data-name="Layer 12 copy">
      <g id="moose_outline">
        <g>
          <path class="cls-1" d="M348.37,5.51c-23.25,16.91-39,51.5-39,85.51,0,28.43,6.53,45.34,21.52,55.33,6.53,4.42,9.8,5.38,16.72,5,7.49-.58,9.41-1.54,13.06-6.92,8.07-12.1,7.88-27.86-.57-74.36-3.46-19.6-2.89-36.7,2.3-54.95,2.88-10,2.88-11.91.58-13.45C358.74-1,356.63-.44,348.37,5.51Z"/>
          <path class="cls-1" d="M379.49,1.86c-.77,1.15.2,8.46,1.92,16.33,4,17.87,3.27,31.32-3.65,74.17-5.95,36.7-5.38,44,4.81,52.46,7.88,6.72,13.83,7.87,22.09,4.8,9.8-3.84,17.3-15.37,21.91-33.24,10.95-43-2.88-88.77-33.43-111.06C385.26-.44,381.41-1.41,379.49,1.86Z"/>
          <path class="cls-1" d="M337.76,156.56c-6.11,2.93-5.6,25.6.69,33.87,4,5.39,12,8.45,16.39,6.23,6.94-3.51,6.58-11.56-.71-25.31C347.43,159.08,342.13,154.34,337.76,156.56Z"/>
          <path class="cls-1" d="M383.36,173.62c-4,8.46-6.84,15.87-6.51,16.84,1.71,5,9.83,8,16.18,5.86,8.47-2.89,13-11.54,12.19-23.49C403.65,150.58,393.68,151,383.36,173.62Z"/>
        </g>
      </g>
      <g id="turkey_outline">
        <g>
          <path class="cls-2" d="M629.64,1.86c-1.07.8-1.87,3.75-1.87,6.43,0,2.42-1.34,5.1-3.22,5.63-1.88.81-3.49,8.32-3.75,19.84-.27,10.19-1.88,35.67-3.49,56.85-1.34,20.91-2.14,40-1.07,42.09,1.34,4.29,13.4,5.37,18.5,1.88,5.63-3.48,6.43-12.87,6.7-66.49.27-37-.53-53.36-2.68-54.17-1.61-.53-3-4-3-7.5C635.81.25,633.13-1.9,629.64,1.86Z"/>
          <path class="cls-2" d="M575,146.92a235.46,235.46,0,0,0-25.48-10.19c-5.36-1.61-11.26-4.83-12.87-7-3.16-3.41-11.83-4.82-15.82-2.64-.85-1.88-3.53-3.83-7.1-6.41-2-1.43-3.69-2.49-9-2.28-.14.3-.14,1,3.21,4.09a55.58,55.58,0,0,0,7.91,6,18.07,18.07,0,0,0,2.73,1.62c-1.25,4.28-.49,12,1.7,12,1.34,0,6.43,3.22,11,7.24,4.83,4,12.07,9.12,16.36,11.26,4.29,2.41,13.4,7.78,20.11,12.07,13.13,8,17.69,7.77,23.32-1.61C596.4,162.73,591,154.42,575,146.92Z"/>
          <path class="cls-2" d="M740.11,130.83c-2.14,3.48-5.36,4.56-11.53,3.75-5.36-.54-12.87,1.07-19.3,4.56-17.43,8.85-20.65,10.46-32.44,13.41-6.71,1.87-12.61,5.63-14.48,8.58-3.49,6.7-1.08,18.5,3.75,18.5,5.63,0,61.4-23.87,66.76-28.69,2.69-2.42,4.83-5.63,4.83-7.24,0-1.88,2.41-5.1,5.36-7.78,3-2.41,5.37-5.63,5.37-7.24C748.43,124.39,743.33,125.73,740.11,130.83Z"/>
          <path class="cls-2" d="M620.26,170.51a32.55,32.55,0,0,0-8.85,9.39c-5.9,11,12.87,21.71,27.35,15.81,11.8-5.09,12.07-11,1.34-20.64C629.11,164.88,628.3,164.88,620.26,170.51Z"/>
        </g>
      </g>
      <g id="woodchuck_outline">
        <g>
          <path class="cls-3" d="M923.47,2.12A173.59,173.59,0,0,0,921.39,20c-.83,11.45-.41,15,1.46,14.15a64.48,64.48,0,0,1,6.25-2.49c2.7-1.05,3.53-3.54,3.33-11-.21-5.2-.84-11.86-1.67-14.57C929.3.25,924.72-2,923.47,2.12Z"/>
          <path class="cls-3" d="M871.85,12.12c-.83,12.9-.21,14.57,4.79,14.57,5.62,0,6.45-3.75,3.33-14.36C876.22-.58,872.89-.79,871.85,12.12Z"/>
          <path class="cls-3" d="M867.27,37.31c-4.58,5.2-5.41,8.53-5.41,18.73,0,6.87,1,14.37,2.08,16.66,2.91,5.41,11,5,17.69-.84,7.29-6,9.79-27.48,4.37-35.8C881.22,28.77,873.93,29.4,867.27,37.31Z"/>
          <path class="cls-3" d="M915.56,41.26C907.65,47.3,905,56,906.4,68.74c1.67,13.74,3.13,15.82,10.83,17.49,5.62,1,6.87.2,12.49-7.91,5-7.29,6-11,6-21,0-10.41-.84-12.91-5-16.24C924.72,36.06,922,36.06,915.56,41.26Z"/>
          <path class="cls-3" d="M803.57,63.74c0,8.12.83,10.83,2.91,10.83,4.79,0,5.62-3.12,3.12-10.62C805.65,52.29,803.57,52.29,803.57,63.74Z"/>
          <path class="cls-3" d="M956,73.94c-1.87,6.67-2.08,10.2-.42,11.87,4.17,4.16,7.5-4,6.66-17.07C961.57,61.25,958.66,63.54,956,73.94Z"/>
          <path class="cls-3" d="M808.15,81.23c-4.79,5.83-5,21-.63,31.23,2.29,5.62,5,10,6,10,4.79,0,15.4-7.29,17.07-11.66,2.5-6.45-.62-22.69-5.2-27.89C821.26,78.32,811.48,77.48,808.15,81.23Z"/>
          <path class="cls-3" d="M936.17,98.93c-6.45,9.57-9.36,24.14-5.62,28.72,4.79,5.83,15.2,3.75,23.53-4.37,9.78-10,10.82-13.32,6.24-23.11-3.12-6.66-4.79-7.91-11.24-8.53S941,91.85,936.17,98.93Z"/>
          <path class="cls-3" d="M877.68,117.66c-7.5,1.87-20,11-20,14.36,0,1.67-2.7,6-6.24,9.58-3.33,3.33-6.25,6.87-6.25,7.7s-2.7,4.17-6,7.29c-8.74,8.33-11.86,16.65-8.74,23.31,3.75,8.54,17.9,13.33,45.8,15.62L901,197.39l10-5.83c13.54-7.91,18.32-16,15.2-25.6-1.46-4-6-10.62-10.41-15s-8.53-10.41-9.37-13.53c-2.08-10.41-5-15-10.2-17.07C888.29,117.45,882.05,116.41,877.68,117.66Z"/>
        </g>
      </g>
      <g id="cougar_front_outline">
        <g>
          <path class="cls-4" d="M70.57.76a16.47,16.47,0,0,0-4,2.15c-4.64,3.7-10.26,13.21-11.2,18.88-1.34,8.35-.94,22.68.8,26.56,1.21,2.72,6.25,7.86,9.29,9.47a27.49,27.49,0,0,0,13.7,2.72c3.57-.14,4.56-.36,7.1-1.61,6.21-3.08,10-8.57,11.12-16.07,1.11-7.68-1.12-21-4.78-28.21-2.28-4.47-7-10.36-9.73-12C78.2-.13,74.72-.66,70.57.76Z"/>
          <path class="cls-4" d="M139.9,5.68c-6.83,1.78-12.37,9.46-14.38,19.91-.8,4.28-.89,19.32-.13,22.72.94,4.06,4.6,11,7.19,13.52,3.93,4,5.22,4.38,13.34,4.33,7.37,0,10.14-.62,14.07-2.94,2.09-1.21,4.86-5.4,6.07-9.24,1.47-4.51,1.65-13.22.44-19-1.34-6.61-3.34-13.21-4.77-15.94-2-3.66-8.71-10.18-12.28-11.92C146.28,5.54,142.44,5,139.9,5.68Z"/>
          <path class="cls-4" d="M205.21,66.88c-7.23,2.19-12.59,9.6-17.64,24.42-2.5,7.41-2.72,10.58-1.07,16.56s6.52,12.5,10.63,14.19c5.22,2.19,13.61,2.5,17.85.67s7.77-6.56,9.78-13c1-3.26,1.16-4.82,1.38-12,.41-12.77-.62-17.5-5.08-24.24a15.16,15.16,0,0,0-7.77-6.34A17.13,17.13,0,0,0,205.21,66.88Z"/>
          <path class="cls-4" d="M14.46,68.84a13.08,13.08,0,0,0-6.25,3.8c-5.85,6-8.57,15-8.17,26.6.22,5.09.4,6.25,1.61,9.56,1.69,4.5,3.48,7.41,6.16,9.86,3.17,2.9,5.4,3.71,10.89,3.93,7.32.27,12.45-1.25,15.85-4.6,2.18-2.23,3.17-4.37,4.06-9a57.24,57.24,0,0,0-.45-18.48C36.73,84.2,30.93,74.15,27,71.12A14.64,14.64,0,0,0,14.46,68.84Z"/>
          <path class="cls-4" d="M97.44,91.34A23.21,23.21,0,0,0,87.94,97c-4.42,4.19-7.77,10.13-13.71,24.59-1.83,4.42-3.93,9-4.69,10.27A78.71,78.71,0,0,1,59,145.27c-4.55,4.46-5.8,6.92-6.52,12.94-.71,6.21,0,11.25,2.28,16,2,4.16,9.42,13.44,13,16.3,6.88,5.4,14.24,6.25,21.79,2.45,3.12-1.56,5.53-3.66,10.27-9,1.83-2.1,3.16-3.22,3.79-3.22a21.65,21.65,0,0,1,5,2.64,36.67,36.67,0,0,0,7.59,3.88c3.3,1.07,4,1.16,8.93.94,5.49-.27,6.78-.54,14-3.08l4.2-1.48.67,1.12a38.7,38.7,0,0,0,3.84,4.24c4.28,4.24,10.8,7.63,16,8.21a23.26,23.26,0,0,0,13.4-2.09c3.21-1.52,4.24-2.33,8.48-6.74,5.45-5.67,7.86-9.07,9.19-13.08,1.84-5.41,2.28-14.65.94-19.2-.67-2.23-4.15-7.5-8.35-12.45-1.92-2.33-4-4.92-4.59-5.76s-2.06-2.64-3.26-4c-3.66-4.1-9.11-13.21-14.87-25-2.1-4.29-4.51-8.84-5.35-10.13-5.81-8.75-15.58-10.54-27.55-5-7.14,3.3-8.26,3.57-11.38,2.76a30.59,30.59,0,0,1-5.67-2.36C109.05,90.89,102.44,89.87,97.44,91.34Z"/>
        </g>
      </g>
    </g>
  </g>
</svg>
