<svg xmlns="http://www.w3.org/2000/svg" width="974.52" height="128.07" viewBox="0 0 974.52 128.07">
  <defs>
    <style>
      .cls-1, .cls-2 {
        fill: #f400b9;
      }

      .cls-2 {
        stroke: #f400b9;
        stroke-miterlimit: 10;
        stroke-width: 8.18px;
      }

      .cls-3 {
        fill: #0ae0ff;
      }

      .cls-4 {
        fill: #f6ff7f;
      }

      .cls-5 {
        fill: #000d74;
      }

      .cls-6 {
        fill: #987fff;
      }

      .cls-7 {
        fill: #15ff36;
      }

      .cls-8 {
        fill: #b40000;
      }
    </style>
  </defs>
  <g id="Layer_2" data-name="Layer 2">
    <g id="Layer_12" data-name="Layer 12">
      <g id="squirrel-gray_outline">
        <g>
          <path class="cls-1" d="M474.15,3.59c0,2.35,1,4.11,2,4.11,1.18,0,2-1.17,2-2.74s-.78-3.53-2-4.12C475.13.25,474.15,1.43,474.15,3.59Z"/>
          <path class="cls-1" d="M499.84,3.92c-.59,2.55,0,3.92,1.77,3.92,1.57,0,2.74-1.76,2.74-3.92S503.57,0,502.59,0,500.43,1.76,499.84,3.92Z"/>
          <path class="cls-1" d="M472.32,12.55c-3.13,3.92-3.4,7.84-1.17,15,1.57,5.62,5.75,10.2,7.45,8.24C480,34.25,484,22.35,484,19.35c0-4.19-3.79-10.2-6.54-10.2C476.11,9.15,473.76,10.72,472.32,12.55Z"/>
          <path class="cls-1" d="M497.81,11.63c-3.4,3.66-3.92,9.81-1.44,17.13,3.53,10.71,8.11,9.93,11.25-1.83,1.83-6.93-.27-14.25-4.58-16.21C500.43,9.54,499.51,9.8,497.81,11.63Z"/>
          <path class="cls-1" d="M534.34,38.27c-2.15,2-1.57,12.35.59,12.35,1.18,0,2-3.14,2-6.86C536.89,36.7,536.5,35.92,534.34,38.27Z"/>
          <path class="cls-1" d="M440.23,48c.19,2.55,1.76,4.91,3.13,5.49,3.34,1,2.94-4.5-.78-7.64C439.83,43.7,439.64,43.9,440.23,48Z"/>
          <path class="cls-1" d="M523.43,53.59c-2.22,2.09-2.87,4.18-2.87,9.28,0,5.62.39,6.67,3.26,8s3.93,1,6.93-1.18a19.49,19.49,0,0,0,5.36-7.32c1.57-4.18,1.57-5.23-.39-8.1C533.1,50.19,527.48,49.93,523.43,53.59Z"/>
          <path class="cls-1" d="M443.17,56.21C439,59.6,439,68.62,443.31,72c6.4,5.23,13.2,1.57,13.2-6.93S449.06,51.5,443.17,56.21Z"/>
          <path class="cls-2" d="M495.72,75.42a51.49,51.49,0,0,0-5.62,3.27c-3.53,2.48-3.53,2.48-6.93-.13-4.57-3.53-9.8-3.53-13.2.13-1.44,1.7-4.18,8.1-6.14,14.25-2.49,7.71-5,12.81-8.11,16.33-8.36,9.42-9,15.43-1.57,14.65,3.93-.4,4.45-1,7.59-9.29,2.48-6.92,4.44-9.8,8.36-12.81,4.18-3.13,5.49-3.39,7.84-2.22,1.44.79,7.59,2,13.6,2.49,12.55,1.17,15.94,3.26,18.43,11.63s10.59,10.59,16.47,4.57c4.18-4.05,4.18-8.49-.13-12.54-6-5.62-14.64-18-15.56-22.36a17.48,17.48,0,0,0-3-6.66C505.79,74.51,499.77,73.85,495.72,75.42Z"/>
        </g>
      </g>
      <g id="bear-black_front_outline">
        <g>
          <path class="cls-3" d="M330.6,5.76C326.41,13,326.78,15,332.05,15c2.19,0,3.28-2,4-6.92C337.15-1.53,335.33-2.25,330.6,5.76Z"/>
          <path class="cls-3" d="M363.18,5c-3.09,6.91-2.73,10,1.46,10,3.09,0,3.64-1.28,3.64-7.28C368.28-.62,366.27-1.71,363.18,5Z"/>
          <path class="cls-3" d="M297.65,10.67c-4.55,9.28-4.37,10.74,1.28,8.92,2.73-.73,3.82-2.73,3.82-6.37a30.18,30.18,0,0,1,1.09-8c.55-1.64.37-2.91-.55-2.91S299.84,6.12,297.65,10.67Z"/>
          <path class="cls-3" d="M387.21,20.68c-2.37,4.73-2.55,6-.37,7.28,4,2.55,6,.73,6.55-6.19C394.12,13.58,391.21,13,387.21,20.68Z"/>
          <path class="cls-3" d="M321.5,19.59c-8.19,5.82-9.1,22.75-1.46,25.66C332.05,50,343,29.78,333.69,20.5,329.32,16.13,326.78,16,321.5,19.59Z"/>
          <path class="cls-3" d="M350.07,24.5c-4,6.74-4.36,10-1.82,16.75,2.19,5.82,10.56,6.55,15.29,1.27,4-4.37,5.65-15.1,3.1-20C363.18,16.31,354.44,17.4,350.07,24.5Z"/>
          <path class="cls-3" d="M285.64,29.78c-7.1,8.37-6,22.39,1.82,24.21,6.92,1.82,13.29-.73,16.2-6.37C312.58,30.51,297.47,15.58,285.64,29.78Z"/>
          <path class="cls-3" d="M376.47,36c-7.65,7.46-4.92,22.75,3.82,22.75,1.46,0,4.73-2,7.1-4.55,7.64-7.46,4.91-22.75-3.82-22.75C382.11,31.42,378.83,33.42,376.47,36Z"/>
          <path class="cls-3" d="M407.41,42.34c-1.64,3.1-2.37,6.37-1.82,7.28,2,3.28,6,2,7.1-2.36C415.6,36.33,412.14,33.24,407.41,42.34Z"/>
          <path class="cls-3" d="M302.38,57.81c-23.84,9.83-31.48,18.57-31.3,35.5.18,16.74,10.37,30.94,22,30.94,1.82,0,9.83-3.82,17.66-8.55,14.2-8.38,14.56-8.56,28.21-7.83,26.76,1.45,43,.91,48.78-1.46,18.75-8,6.37-32.94-23.11-46.59-10.56-4.92-14-5.47-31.86-6C315.13,53.44,311.49,54,302.38,57.81Z"/>
          <path class="cls-3" d="M396.49,59.45A18.54,18.54,0,0,0,394.12,70c.37,4.91,1.46,6.19,5.28,6.55,6.55.73,12.92-7.28,12.2-14.92-.55-4.92-1.28-5.65-6.37-6.19C400.68,55.08,398.86,55.81,396.49,59.45Z"/>
        </g>
      </g>
      <g id="beaver_outline">
        <path class="cls-4" d="M775.35,3.31c-.85,2.26-1.56,10.59-1.56,18.78,0,19.63-2.12,19.63-9.74-.14-4-10.27-6-14.89-7.33-14.72-1.51.21-2,5.21-2.27,7.8-.13,1.23-.53,5.88,1,13.84.2,1-1,.8,2.12,9.46,2.83,7.91,1.84,11.16-2.26,7.48a28.34,28.34,0,0,1-5.36-7.48c-3-6.35-4.95-6.21-5.51.28-.42,4.24,1.13,8.62,6.64,19.91,5.5,10.88,7.48,16.81,8.47,24.43,1.41,10.88,1.84,11.87,10.87,26,9.75,15,17.23,18.64,25.14,12.42,6.07-4.8,9.46-13.13,10.31-25.13a116.44,116.44,0,0,1,3.39-19.77,77.61,77.61,0,0,0,2.68-17.65A56.8,56.8,0,0,1,814.74,42c3.39-9.46,3.82-21,.85-19.91a9.36,9.36,0,0,0-3.53,3.81c-4.94,9.32-8.19,13.7-10.17,13.7s-1.41-8.61,1.27-16.38,2-13.27-1.69-13.27c-2.68,0-3.53,1.41-7.91,12.56-2,4.95-4.23,9.32-5.08,9.61s-2-2.26-2.4-5.93c-1.27-8.9-4.8-20.9-7.35-24.15C776.9-.5,776.76-.5,775.35,3.31Z"/>
      </g>
      <g id="dog_outline">
        <g>
          <path class="cls-5" d="M920.6,1.25a13.34,13.34,0,0,0-3,3.86c-1.38,2.77-1.24,3,2.49,3.6s4.14.27,4.14-4C924.19.14,923.36-.69,920.6,1.25Z"/>
          <path class="cls-5" d="M933.44,1.8c-1.24,3.73.56,6.21,4,5.52,4-.69,4.14-1.79.83-4.83C935.24-.27,934.27-.41,933.44,1.8Z"/>
          <path class="cls-5" d="M910.1,14.64c-11.88,6.5-12.57,27.63-1.1,32.46,9.25,3.87,16.57-3.72,16.57-17.26,0-9.81-1.24-13-5.66-15.2C915.21,12.16,914.8,12.16,910.1,14.64Z"/>
          <path class="cls-5" d="M941,15.06c-5.25.83-9,10.08-8.29,21.13C933.58,50.28,938,54,948.64,48.9c5.52-2.62,10.08-9.12,10.08-14.36,0-4.15-7.6-16-11.74-18.51A9.68,9.68,0,0,0,941,15.06Z"/>
          <path class="cls-5" d="M889.93,33.57c-2.76,2.76-2.07,6.49,1,5.66s4.84-4,3.45-6.08C893.39,31.5,891.87,31.63,889.93,33.57Z"/>
          <path class="cls-5" d="M965.77,44.2c-1.25,2.21-1,3.32,1.52,5.67,3.86,3.59,6.07,1.66,4.28-3.59C969.91,41.44,967.56,40.61,965.77,44.2Z"/>
          <path class="cls-5" d="M884,48.35c-5.38,5.52-5.66,15.74-.55,24.45,6.08,10.49,13,11.74,20.72,3.86,7.6-7.59,8.29-10.77,4.15-17.81C902,47.8,898.22,44.34,892.83,44.34,889.38,44.34,886.9,45.45,884,48.35Z"/>
          <path class="cls-5" d="M953.61,56.08c-5,4-10.08,11.61-10.08,15.2,0,4.14,10.91,15.88,14.78,15.88,10.5,0,19.47-16.16,15.05-26.93C969.91,51.94,961.21,50.14,953.61,56.08Z"/>
          <path class="cls-5" d="M917.7,70.86a97.51,97.51,0,0,0-5.94,10.5c-2.49,4.7-6.63,10.5-9.12,12.57-7.73,6.91-9.25,12.57-5.52,21.55,3.31,7.87,7.73,9.11,29.56,8.7,18.78-.28,18.92-.28,22.65-4.28,4.83-5.11,6.21-11.74,3.31-17.27-1.24-2.35-2.62-4.42-3.17-4.69-2.21-.83-9-11-11.74-17.41-4.15-9.53-6.22-11.32-12.85-11.32C921.57,69.21,918.39,70,917.7,70.86Z"/>
        </g>
      </g>
      <g id="turkey_outline">
        <g>
          <path class="cls-6" d="M636.73,1.43c-.67.51-1.18,2.36-1.18,4.05,0,1.51-.84,3.2-2,3.53-1.18.51-2.19,5.22-2.36,12.46C631,27.87,630,43.87,629,57.18c-.84,13.14-1.34,25.09-.67,26.44.84,2.69,8.42,3.37,11.62,1.18,3.54-2.19,4-8.09,4.21-41.77.17-23.24-.33-33.51-1.68-34-1-.33-1.85-2.52-1.85-4.71C640.61.42,638.92-.92,636.73,1.43Z"/>
          <path class="cls-6" d="M602.38,92.55a149,149,0,0,0-16-6.4c-3.37-1-7.08-3-8.09-4.38-2-2.14-7.43-3-9.93-1.66-.54-1.18-2.22-2.4-4.47-4-1.23-.89-2.32-1.56-5.64-1.42-.09.18-.09.6,2,2.56a34.32,34.32,0,0,0,5,3.77A11.57,11.57,0,0,0,567,82c-.78,2.69-.3,7.5,1.07,7.5.84,0,4,2,6.9,4.55a66.13,66.13,0,0,0,10.28,7.08c2.69,1.51,8.42,4.88,12.63,7.57,8.25,5.06,11.11,4.89,14.65-1C615.85,102.48,612.48,97.26,602.38,92.55Z"/>
          <path class="cls-6" d="M706.12,82.44c-1.35,2.19-3.37,2.86-7.24,2.36a22.74,22.74,0,0,0-12.13,2.86c-11,5.56-13,6.57-20.38,8.42-4.21,1.18-7.91,3.54-9.09,5.39-2.19,4.21-.68,11.62,2.36,11.62,3.53,0,38.56-15,41.93-18,1.69-1.51,3-3.53,3-4.55s1.52-3.19,3.37-4.88c1.85-1.51,3.37-3.54,3.37-4.55C711.34,78.4,708.14,79.24,706.12,82.44Z"/>
          <path class="cls-6" d="M630.84,107.37a20.35,20.35,0,0,0-5.56,5.89c-3.71,6.91,8.08,13.64,17.18,9.94,7.41-3.2,7.58-6.91.84-13C636.39,103.83,635.89,103.83,630.84,107.37Z"/>
        </g>
      </g>
      <g id="woodchuck_outline">
        <g>
          <path class="cls-7" d="M75.32,1.6A103.69,103.69,0,0,0,74,12.85c-.53,7.19-.26,9.41.91,8.89a41.12,41.12,0,0,1,3.93-1.57c1.7-.66,2.22-2.22,2.09-6.93a49.27,49.27,0,0,0-1-9.15C79,.42,76.1-1,75.32,1.6Z"/>
          <path class="cls-7" d="M42.89,7.88c-.53,8.1-.13,9.15,3,9.15C49.43,17,50,14.68,48,8,45.63-.1,43.54-.23,42.89,7.88Z"/>
          <path class="cls-7" d="M40,23.7c-2.88,3.27-3.4,5.36-3.4,11.77,0,4.31.66,9,1.31,10.46,1.83,3.4,6.93,3.14,11.11-.53,4.58-3.79,6.15-17.26,2.75-22.49C48.77,18.34,44.2,18.73,40,23.7Z"/>
          <path class="cls-7" d="M70.35,26.18c-5,3.8-6.67,9.29-5.76,17.26,1,8.63,2,9.94,6.8,11,3.53.65,4.32.13,7.85-5C82.38,44.88,83,42.53,83,36.25c0-6.54-.52-8.11-3.14-10.2C76.1,22.91,74.4,22.91,70.35,26.18Z"/>
          <path class="cls-7" d="M0,40.31C0,45.4.52,47.1,1.83,47.1c3,0,3.53-2,2-6.66C1.31,33.11,0,33.11,0,40.31Z"/>
          <path class="cls-7" d="M95.71,46.71c-1.17,4.19-1.3,6.41-.26,7.46,2.62,2.61,4.71-2.49,4.19-10.73C99.24,38.74,97.41,40.17,95.71,46.71Z"/>
          <path class="cls-7" d="M2.88,51.29c-3,3.66-3.14,13.2-.4,19.61,1.44,3.53,3.14,6.28,3.8,6.28,3,0,9.67-4.58,10.72-7.32,1.57-4.06-.39-14.26-3.27-17.53C11.11,49.46,5,48.93,2.88,51.29Z"/>
          <path class="cls-7" d="M83.29,62.4c-4.05,6-5.88,15.17-3.53,18.05,3,3.66,9.55,2.35,14.78-2.75,6.14-6.28,6.8-8.37,3.92-14.51-2-4.19-3-5-7.06-5.36S86.3,58,83.29,62.4Z"/>
          <path class="cls-7" d="M46.55,74.17C41.84,75.35,34,81.1,34,83.19c0,1-1.7,3.79-3.93,6s-3.92,4.31-3.92,4.84-1.7,2.61-3.79,4.57c-5.49,5.23-7.45,10.46-5.49,14.65,2.35,5.36,11.24,8.37,28.76,9.8l15.56,1.18,6.28-3.66c8.5-5,11.51-10.07,9.55-16.08a32.59,32.59,0,0,0-6.54-9.42c-2.75-2.74-5.36-6.54-5.89-8.5-1.3-6.54-3.13-9.41-6.4-10.72C53.22,74,49.29,73.39,46.55,74.17Z"/>
        </g>
      </g>
      <g id="moose_outline">
        <g>
          <path class="cls-8" d="M182.75,3.73c-14.6,10.62-24.49,32.34-24.49,53.7,0,17.87,4.1,28.49,13.51,34.76,4.11,2.78,6.16,3.38,10.5,3.14,4.71-.36,5.92-1,8.21-4.34,5.07-7.61,5-17.5-.36-46.71-2.18-12.31-1.81-23,1.45-34.52,1.81-6.27,1.81-7.48.36-8.45C189.27-.37,187.94,0,182.75,3.73Z"/>
          <path class="cls-8" d="M202.31,1.44c-.49.72.12,5.31,1.2,10.25,2.54,11.23,2.05,19.68-2.29,46.59-3.74,23-3.38,27.64,3,33,4.95,4.22,8.69,5,13.88,3,6.15-2.41,10.86-9.65,13.75-20.87,6.88-27-1.81-55.76-21-69.76C205.93,0,203.51-.62,202.31,1.44Z"/>
          <path class="cls-8" d="M176.09,98.6c-3.83,1.84-3.52,16.08.44,21.28,2.52,3.39,7.55,5.3,10.29,3.91,4.36-2.2,4.13-7.26-.44-15.89C182.17,100.19,178.84,97.21,176.09,98.6Z"/>
          <path class="cls-8" d="M204.73,109.32c-2.51,5.31-4.29,10-4.08,10.57,1.07,3.15,6.17,5,10.16,3.69,5.32-1.82,8.19-7.25,7.65-14.76C217.48,94.85,211.22,95.1,204.73,109.32Z"/>
        </g>
      </g>
    </g>
  </g>
</svg>
