<svg xmlns="http://www.w3.org/2000/svg" width="949.3" height="203.9" viewBox="0 0 949.3 203.9">
  <defs>
    <style>
      .cls-1, .cls-2 {
        fill: #f400b9;
      }

      .cls-2 {
        stroke: #f400b9;
        stroke-miterlimit: 10;
        stroke-width: 13.02px;
      }

      .cls-3 {
        fill: #f6ff7f;
      }

      .cls-4 {
        fill: #000d74;
      }

      .cls-5 {
        fill: #0ae0ff;
      }
    </style>
  </defs>
  <g id="Layer_2" data-name="Layer 2">
    <g id="Layer_12" data-name="Layer 12">
      <g id="squirrel-gray_outline">
        <g>
          <path class="cls-1" d="M597.45,5.71c0,3.75,1.56,6.56,3.12,6.56,1.88,0,3.12-1.88,3.12-4.37s-1.24-5.62-3.12-6.56C599,.4,597.45,2.28,597.45,5.71Z"/>
          <path class="cls-1" d="M638.35,6.24c-.94,4.06,0,6.25,2.81,6.25,2.5,0,4.37-2.81,4.37-6.25S644.28,0,642.72,0,639.29,2.81,638.35,6.24Z"/>
          <path class="cls-1" d="M594.54,20c-5,6.24-5.41,12.48-1.88,23.93,2.5,9,9.16,16.23,11.87,13.11,2.29-2.5,8.53-21.43,8.53-26.22,0-6.66-6-16.23-10.41-16.23C600.57,14.57,596.83,17.06,594.54,20Z"/>
          <path class="cls-1" d="M635.12,18.52c-5.41,5.83-6.25,15.61-2.29,27.26,5.62,17.07,12.9,15.82,17.9-2.91,2.91-11-.42-22.68-7.29-25.81C639.28,15.19,637.82,15.61,635.12,18.52Z"/>
          <path class="cls-1" d="M693.28,60.93c-3.44,3.12-2.5,19.66.93,19.66,1.88,0,3.13-5,3.13-10.92C697.34,58.43,696.71,57.18,693.28,60.93Z"/>
          <path class="cls-1" d="M543.44,76.44c.31,4.06,2.81,7.81,5,8.74,5.31,1.56,4.68-7.18-1.25-12.17C542.81,69.58,542.5,69.89,543.44,76.44Z"/>
          <path class="cls-1" d="M675.91,85.32c-3.54,3.33-4.58,6.66-4.58,14.78,0,9,.62,10.61,5.2,12.69s6.24,1.67,11-1.87c3.12-2.29,6.87-7.49,8.53-11.66,2.5-6.65,2.5-8.32-.62-12.9C691.31,79.91,682.36,79.5,675.91,85.32Z"/>
          <path class="cls-1" d="M548.13,89.48c-6.66,5.41-6.66,19.77.21,25.18,10.2,8.33,21,2.5,21-11C569.36,89.9,557.5,82,548.13,89.48Z"/>
          <path class="cls-2" d="M631.79,120.08c-1.67.62-5.62,3.12-8.95,5.2-5.62,3.95-5.62,3.95-11-.21-7.28-5.62-15.61-5.62-21,.21-2.29,2.7-6.66,12.9-9.78,22.68-4,12.28-7.91,20.4-12.9,26-13.32,15-14.36,24.56-2.5,23.31,6.24-.62,7.08-1.66,12.07-14.77,4-11,7.08-15.61,13.32-20.4,6.66-5,8.74-5.41,12.49-3.54,2.29,1.25,12.07,3.13,21.64,4,20,1.87,25.39,5.2,29.34,18.52s16.86,16.86,26.22,7.28c6.66-6.45,6.66-13.52-.21-20-9.57-9-23.3-28.72-24.76-35.59-.83-3.75-2.91-8.53-4.79-10.61C647.81,118.62,638.24,117.58,631.79,120.08Z"/>
        </g>
      </g>
      <g id="beaver_outline">
        <path class="cls-3" d="M358.07,4.84c-1.35,3.6-2.47,16.87-2.47,29.91,0,31.25-3.37,31.25-15.52-.23-6.35-16.35-9.57-23.71-11.67-23.43-2.4.33-3.2,8.29-3.61,12.41-.2,2-.84,9.36,1.57,22,.32,1.66-1.55,1.27,3.37,15.06,4.5,12.59,2.93,17.76-3.59,11.92A45.34,45.34,0,0,1,317.6,60.6c-4.72-10.12-7.87-9.89-8.77.45-.67,6.74,1.8,13.71,10.57,31.7,8.77,17.31,11.92,26.75,13.49,38.89,2.25,17.31,2.92,18.89,17.31,41.37,15.51,23.83,27.43,29.68,40,19.78,9.67-7.64,15.06-20.9,16.41-40A187.57,187.57,0,0,1,412,121.3c2.25-7.87,4.27-20.46,4.27-28.1a90.12,90.12,0,0,1,4.5-26.75c5.39-15.07,6.07-33.5,1.34-31.7-1.57.67-4.27,3.37-5.62,6.07-7.86,14.83-13,21.8-16.18,21.8-3.38,0-2.25-13.71,2-26.08s3.15-21.13-2.7-21.13c-4.27,0-5.62,2.25-12.59,20-3.15,7.87-6.74,14.84-8.09,15.29-1.57.45-3.15-3.6-3.82-9.45-2-14.16-7.65-33.27-11.69-38.44C360.54-1.23,360.32-1.23,358.07,4.84Z"/>
      </g>
      <g id="dog_outline">
        <g>
          <path class="cls-4" d="M863.46,1.56c-1.32.88-3.52,3.74-4.84,6.16-2.2,4.4-2,4.84,4,5.72,6.16.87,6.6.43,6.6-6.38C869.18-.2,867.86-1.52,863.46,1.56Z"/>
          <path class="cls-4" d="M883.91,2.44c-2,5.94.88,9.9,6.38,8.8,6.38-1.1,6.6-2.86,1.32-7.7C886.77-.86,885.23-1.08,883.91,2.44Z"/>
          <path class="cls-4" d="M846.75,22.89c-18.92,10.34-20,44-1.76,51.68,14.73,6.16,26.39-5.94,26.39-27.49,0-15.61-2-20.67-9-24.19C854.88,18.93,854.22,18.93,846.75,22.89Z"/>
          <path class="cls-4" d="M896,23.55c-8.36,1.32-14.3,16.05-13.2,33.65,1.32,22.43,8.36,28.37,25.29,20.23,8.8-4.18,16-14.52,16-22.87,0-6.6-12.09-25.51-18.69-29.47A15.48,15.48,0,0,0,896,23.55Z"/>
          <path class="cls-4" d="M814.64,53c-4.4,4.4-3.3,10.33,1.54,9,4.62-1.1,7.7-6.38,5.5-9.68C820.14,49.72,817.72,49.94,814.64,53Z"/>
          <path class="cls-4" d="M935.37,70c-2,3.52-1.54,5.28,2.42,9,6.16,5.72,9.67,2.64,6.82-5.72C942,65.55,938.23,64.23,935.37,70Z"/>
          <path class="cls-4" d="M805.18,76.55c-8.57,8.8-9,25.07-.88,38.92,9.68,16.72,20.68,18.7,33,6.16,12.09-12.09,13.19-17.15,6.6-28.37-10.12-17.59-16.06-23.09-24.63-23.09C813.76,70.17,809.8,71.93,805.18,76.55Z"/>
          <path class="cls-4" d="M916,88.86C908.1,95.24,900,107.34,900,113.05c0,6.6,17.38,25.29,23.53,25.29,16.72,0,31-25.73,24-42.88C942,82.27,928.11,79.41,916,88.86Z"/>
          <path class="cls-4" d="M858.84,112.39c-1.32,1.54-5.5,9-9.46,16.72-4,7.47-10.55,16.71-14.51,20-12.31,11-14.73,20-8.8,34.3,5.28,12.54,12.32,14.52,47.07,13.86,29.9-.44,30.12-.44,36.06-6.82,7.7-8.13,9.9-18.69,5.28-27.49-2-3.74-4.18-7-5.06-7.47-3.52-1.32-14.29-17.6-18.69-27.71-6.6-15.18-9.9-18-20.45-18C865,109.76,859.94,111.07,858.84,112.39Z"/>
        </g>
      </g>
      <g id="bear-black_front_outline">
        <g>
          <path class="cls-5" d="M94.77,8.74c-6.67,11.59-6.09,14.78,2.31,14.78,3.48,0,5.22-3.19,6.38-11C105.2-2.85,102.3-4,94.77,8.74Z"/>
          <path class="cls-5" d="M146.64,7.58c-4.93,11-4.35,15.94,2.32,15.94,4.92,0,5.79-2,5.79-11.59C154.75-1.4,151.56-3.14,146.64,7.58Z"/>
          <path class="cls-5" d="M42.31,16.56c-7.24,14.78-7,17.1,2,14.2,4.35-1.16,6.09-4.34,6.09-10.14A48.19,48.19,0,0,1,52.17,7.87c.87-2.61.58-4.64-.87-4.64S45.79,9.32,42.31,16.56Z"/>
          <path class="cls-5" d="M184.89,32.5c-3.77,7.54-4.06,9.56-.58,11.59,6.38,4.06,9.56,1.16,10.43-9.85C195.9,21.2,191.27,20.33,184.89,32.5Z"/>
          <path class="cls-5" d="M80.28,30.76C67.24,40,65.79,67,78,71.62,97.08,79.16,114.47,47,99.69,32.21,92.74,25.26,88.68,25,80.28,30.76Z"/>
          <path class="cls-5" d="M125.77,38.59c-6.37,10.72-7,15.93-2.89,26.66,3.47,9.27,16.8,10.43,24.34,2,6.37-7,9-24.06,4.92-31.88C146.64,25.55,132.73,27.28,125.77,38.59Z"/>
          <path class="cls-5" d="M23.19,47c-11.3,13.33-9.56,35.64,2.9,38.54,11,2.9,21.15-1.16,25.79-10.14C66.08,48.15,42,24.39,23.19,47Z"/>
          <path class="cls-5" d="M167.79,56.84c-12.17,11.88-7.82,36.23,6.09,36.23,2.32,0,7.53-3.19,11.3-7.25C197.35,73.94,193,49.6,179.09,49.6,176.78,49.6,171.56,52.79,167.79,56.84Z"/>
          <path class="cls-5" d="M217.06,67c-2.61,4.92-3.77,10.14-2.9,11.59,3.19,5.21,9.56,3.19,11.3-3.77C230.1,57.42,224.59,52.5,217.06,67Z"/>
          <path class="cls-5" d="M49.85,91.62C11.89,107.27-.28,121.18,0,148.13c.28,26.66,16.51,49.26,35.06,49.26,2.9,0,15.65-6.08,28.11-13.62,22.6-13.33,23.18-13.62,44.92-12.46,42.59,2.32,68.39,1.45,77.66-2.32,29.85-12.75,10.14-52.45-36.8-74.18-16.81-7.83-22.32-8.7-50.72-9.57C70.13,84.66,64.34,85.53,49.85,91.62Z"/>
          <path class="cls-5" d="M199.67,94.23c-2.61,4-4.35,11.3-3.77,16.8.58,7.83,2.32,9.86,8.41,10.44,10.43,1.16,20.57-11.6,19.41-23.77-.87-7.82-2-9-10.14-9.85C206.33,87.27,203.44,88.43,199.67,94.23Z"/>
        </g>
      </g>
    </g>
  </g>
</svg>
