<svg xmlns="http://www.w3.org/2000/svg" width="474.559" height="72.345" viewBox="0 0 474.559 72.345">
  <defs>
    <style>
      .cls-1 {
        fill: #231f20;
      }
    </style>
  </defs>
  <g id="Layer_2" data-name="Layer 2">
    <g id="Layer_1-2" data-name="Layer 1">
      <g>
        <path class="cls-1" d="M72.1,64.15a.912.912,0,0,1,.476-.2.293.293,0,0,1,.272.272c0,.2-.272.544-.748.816l-6.731,4.148A35.055,35.055,0,0,1,48.025,74.35a17.622,17.622,0,0,1-7.955-1.7c-3.807-1.9-6.527-5.507-6.527-11.762C33.543,40.9,63.256,20.5,82.906,20.5c8.771,0,11.627,3.127,11.627,7.139,0,12.171-24.478,26.313-36.58,26.313-2.788,0-4.964-.612-4.964-2.311a2.365,2.365,0,0,1,1.972-2.176c.068,0,.2,0,.2.2,0,1.5,2.516,1.7,3.6,1.7,12.374,0,32.772-14.279,32.772-24.206,0-4.351-3.332-5.779-9.247-5.779-20.058,0-46.44,21.621-46.44,38.756,0,4.827,2.041,8.431,5.44,10.471a15.609,15.609,0,0,0,8.023,1.972c4.964,0,10.675-1.7,16.047-4.488Z" transform="translate(-33.543 -19.887)"/>
        <path class="cls-1" d="M69.786,68.978c-.068.068-.136.136-.136.2s.068.136.2.136c.544-.068,15.3-10.4,17.066-10.4a.465.465,0,0,1,.476.476c0,1.9-7.275,7.615-7.275,10.267,0,.68.544.952,1.224.952,1.7,0,4.555-1.428,5.575-2.04a78.5,78.5,0,0,0,7.955-4.624.915.915,0,0,1,.477-.2.293.293,0,0,1,.272.273c0,.2-.272.544-.749.815,0,0-3.331,2.244-7.275,4.352-1.36.884-5.915,3.06-8.363,3.06-1.02,0-1.632-.409-1.632-1.292,0-2.856,7.479-9.655,7.479-10,0-.136-.067-.2-.272-.2-.543,0-14.686,9.315-15.5,9.927l-2.788,1.7a.9.9,0,0,1-.543.2c-.137,0-.2-.068-.272-.2a.406.406,0,0,1-.068-.272,1.259,1.259,0,0,1,.34-.679c.339-.476,4.759-5.576,4.895-5.78,12.918-15.842,32.637-38.96,37.736-38.96.544,0,.952.2.952.816,0,4.964-23.458,25.158-32.7,32.977Zm37.124-40.66c-2.787.068-22.506,22.913-27.129,28.625,7.207-5.915,27.2-23.933,27.265-28.217A.57.57,0,0,0,106.91,28.318Z" transform="translate(-33.543 -19.887)"/>
        <path class="cls-1" d="M106.437,51.708a.248.248,0,0,1-.069.2,12.741,12.741,0,0,0-1.495,2.243,1.708,1.708,0,0,0-.137.68c0,.544.681,1.836,2.788,1.9,1.836.068,3.06-.136,3.06,1.02-.136,2.584-6.051,7-6.051,10.879,0,.476.272.884,1.155.884a7.962,7.962,0,0,0,3.128-.952,78.5,78.5,0,0,0,7.955-4.624.915.915,0,0,1,.476-.2.294.294,0,0,1,.273.273c0,.2-.273.544-.749.815,0,0-3.332,2.244-7.275,4.352-1.7.884-4.147,2.175-5.779,2.175-.952,0-1.632-.475-1.632-1.835,0-4.692,6.459-9.179,6.459-10.4a.765.765,0,0,0-.815-.68c-2.312,0-3.537-.408-4.148-2.38-.34.2.34,2.448-7.479,7.887a18.506,18.506,0,0,1-3.332,2.108.293.293,0,0,1-.272-.272c0-.2.272-.544.748-.816l2.379-1.632c6.12-4.079,6.324-5.439,7.548-8.839.612-1.291,1.767-3.127,2.855-3.127C106.3,51.368,106.437,51.5,106.437,51.708Z" transform="translate(-33.543 -19.887)"/>
        <path class="cls-1" d="M112.966,70.406c0-3.536,8.975-11.627,8.975-11.627a.831.831,0,0,1,.612-.272.609.609,0,0,1,.612.612.974.974,0,0,1-.272.68c-1.7,1.836-7.547,7.207-7.547,9.927,0,.68.476.952,1.224.952,1.7,0,4.759-1.5,5.779-2.108a78.615,78.615,0,0,0,7.955-4.624.915.915,0,0,1,.476-.2.293.293,0,0,1,.272.273c0,.2-.272.544-.748.815,0,0-3.331,2.244-7.275,4.352-1.292.816-5.508,3.06-8.023,3.06C113.782,72.242,112.966,71.766,112.966,70.406ZM130.3,50.824c0-.544-.408-.816-.951-.816a3.149,3.149,0,0,0-2.584,2.311.889.889,0,0,0,.952.885A2.5,2.5,0,0,0,130.3,50.824Z" transform="translate(-33.543 -19.887)"/>
        <path class="cls-1" d="M128.129,66.054a.293.293,0,0,1-.272-.272c0-.2.272-.544.748-.816l2.38-1.632c.476-.339,2.856-2.039,5.576-4.079a4.426,4.426,0,0,1-.069-.952c0-4.216,6.867-9.383,10.063-9.383a.9.9,0,0,1,1.02.884c0,1.836-4.895,5.847-9.315,9.179.68,3.671,2.924,6.187,2.924,10.131,0,2.719-2.584,4.011-5.508,4.011a9.144,9.144,0,0,1-6.255-2.312,1.129,1.129,0,0,1-.272-.747c0-.2.068-.272.2-.272a1.187,1.187,0,0,1,.68.34,8.2,8.2,0,0,0,5.031,1.971c2.448,0,4.08-1.563,4.08-3.6,0-2.244-1.836-5.372-2.448-8.363-2.584,1.9-4.827,3.467-5.235,3.807A18.472,18.472,0,0,1,128.129,66.054Zm16.591-15.3c-2.244,0-6.6,3.536-6.6,6.187v1.088c3.6-2.788,7.208-5.847,7.208-6.731C145.332,51.028,145.2,50.756,144.72,50.756Z" transform="translate(-33.543 -19.887)"/>
        <path class="cls-1" d="M164.915,44.364c5.235-5.235,9.655-9.111,10.606-9.111a.575.575,0,0,1,.477.136.617.617,0,0,1,.2.476c0,1.428-2.448,4.692-5.916,8.568,7.615.135,15.163.271,15.5.271a.392.392,0,0,1,.408.408c0,.612,0,1.02-1.768,1.156-2.108,0-8.975-.068-15.706-.136-6.868,7.344-16.455,16.182-19.786,18.7a9.428,9.428,0,0,0-1.36,4.148c0,.884.679,1.156,1.564,1.156,2.039,0,5.371-1.5,5.167-1.36,2.04-1.088,7.139-3.944,7.955-4.624a.912.912,0,0,1,.476-.2.293.293,0,0,1,.272.272c0,.2-.272.544-.748.816,0,0-2.584,1.768-5.915,3.6-3.672,2.04-6.732,3.263-8.636,3.263-1.427,0-2.243-.679-2.243-2.107,0-4.08,9.451-15.231,17.814-23.8-5.168-.136-9.247-.136-9.383-.136-.612,0-.816-.476-.816-.952.068-.475.544-.748,1.156-.816C154.24,44.092,159.067,44.229,164.915,44.364ZM150.024,63c3.264-2.448,11.627-10.607,17.27-16.931h-2.855C159.407,51.164,153.356,57.759,150.024,63Zm16.115-18.631c.883,0,1.7,0,2.652.069,2.379-2.788,4.079-5.032,4.079-5.848,0-.136-.068-.2-.136-.2C172.394,38.381,169.674,40.829,166.139,44.364Z" transform="translate(-33.543 -19.887)"/>
        <path class="cls-1" d="M162.264,68.57c0,1.972.816,2.72,2.108,2.72,3.807,0,7.818-3.264,10.674-6.6a4.335,4.335,0,0,1-.272-1.632c0-3.4,2.72-7.75,4.012-7.75.68,0,1.02.475,1.02,1.291,0,1.632-1.224,4.488-3.332,7.343a2.843,2.843,0,0,0,2.992,1.972,9.958,9.958,0,0,0,4.895-1.972.912.912,0,0,1,.476-.2.292.292,0,0,1,.272.273c0,.2-.272.544-.748.815-2.311,1.5-4.011,2.108-5.3,2.108-1.9,0-3.06-.612-3.672-1.564-3.127,3.876-7.615,7.344-12.374,7.344a3,3,0,0,1-3.06-3.2c0-4.624,10.471-14.551,15.842-14.551a.844.844,0,0,1,.884.816c0,.544-.476,1.088-1.5,1.088C169.879,56.875,162.264,63.878,162.264,68.57ZM176.338,63c1.428-1.973,2.312-3.808,2.312-4.76,0-.476-.2-.748-.612-.748A13.319,13.319,0,0,0,176.338,63Z" transform="translate(-33.543 -19.887)"/>
        <path class="cls-1" d="M171.648,80.4a.146.146,0,0,0,.136.136.621.621,0,0,0,.34-.2c.408-.408,21.894-18.494,29.237-24.75a1.6,1.6,0,0,1,1.02-.476.976.976,0,0,1,.68.272c.2.2.339.34.339.612a1.59,1.59,0,0,1-.475.884c-1.7,1.836-7.411,7.343-7.411,10.2a1.958,1.958,0,0,0,2.243,2.176,13.094,13.094,0,0,0,4.692-1.292,61.7,61.7,0,0,0,7-4.012.912.912,0,0,1,.476-.2.293.293,0,0,1,.272.273c0,.2-.272.544-.748.815,0,0-2.38,1.632-6.323,3.74a17.711,17.711,0,0,1-7.344,2.38c-1.428,0-2.447-.544-2.447-2.04,0-3.06,2.039-4.76,5.643-9.451.2-.2.272-.34.272-.408s-.068-.136-.2-.136c-.612.476-12.579,10.131-20.262,16.658-7.683,6.6-8.7,7.344-11.967,10.811-2.447,2.516-4.623,5.236-4.895,5.508a.938.938,0,0,1-.612.339c-.272,0-.476-.067-.476-.339a3.15,3.15,0,0,1,.544-1.428c.476-.68,7.547-8.839,8.159-9.723.68-.816,7.48-8.84,7.955-9.315.408-.476,10.2-11.763,10.675-12.239.476-.544,9.315-10.743,10.131-11.627,3.264-3.808,8.771-9.519,11.559-9.519.612,0,1.02.34,1.02,1.156,0,4.827-13.463,14.414-25.838,25.5-6.187,7.139-13.054,15.163-13.19,15.435C171.716,80.265,171.648,80.333,171.648,80.4Zm37.26-40.8c-1.7,0-4.283,3.332-6.255,5.3-1.632,1.7-7.48,8.092-7.956,8.635l-6.459,7.479c8.227-6.935,21.078-18.018,21.078-21.077A.358.358,0,0,0,208.908,39.6Z" transform="translate(-33.543 -19.887)"/>
        <path class="cls-1" d="M206.871,68.978c-.068.068-.137.136-.137.2s.069.136.2.136c.544-.068,15.3-10.4,17.067-10.4a.463.463,0,0,1,.475.476c0,1.9-7.274,7.615-7.274,10.267,0,.68.544.952,1.223.952,1.7,0,4.556-1.428,5.576-2.04a78.727,78.727,0,0,0,7.955-4.624.912.912,0,0,1,.476-.2.293.293,0,0,1,.272.273c0,.2-.272.544-.748.815,0,0-3.332,2.244-7.275,4.352-1.36.884-5.915,3.06-8.364,3.06-1.019,0-1.632-.409-1.632-1.292,0-2.856,7.48-9.655,7.48-10,0-.136-.068-.2-.272-.2-.544,0-14.687,9.315-15.5,9.927l-2.788,1.7a.9.9,0,0,1-.544.2c-.136,0-.2-.068-.272-.2a.406.406,0,0,1-.068-.272,1.266,1.266,0,0,1,.34-.679c.34-.476,4.759-5.576,4.9-5.78,12.919-15.842,32.637-38.96,37.736-38.96.544,0,.952.2.952.816,0,4.964-23.457,25.158-32.7,32.977ZM244,28.318c-2.788.068-22.506,22.913-27.13,28.625,7.208-5.915,27.2-23.933,27.266-28.217A.579.579,0,0,0,244,28.318Z" transform="translate(-33.543 -19.887)"/>
        <path class="cls-1" d="M250.32,55.039c0,2.72-9.247,9.044-17.815,10.267a5.876,5.876,0,0,0-.611,2.38c0,.476.067,3.4,3.943,3.4,1.836,0,4.488-.612,8.432-2.516a78.84,78.84,0,0,0,7.955-4.624.91.91,0,0,1,.475-.2.293.293,0,0,1,.273.273c0,.2-.273.544-.748.815,0,0-3.332,2.244-7.276,4.352-2.311,1.224-7.547,3.4-11.287,3.4-2.379,0-4.215-.884-4.215-3.468,0-5.168,10.879-15.3,18.494-15.3C249.64,53.815,250.32,54.292,250.32,55.039Zm-17.406,9.587c6.527-1.155,15.162-6.8,15.162-8.907,0-.476-.476-.816-1.632-.816C241.957,54.9,235.429,60.275,232.914,64.626Z" transform="translate(-33.543 -19.887)"/>
        <path class="cls-1" d="M263.783,51.708a.253.253,0,0,1-.067.2,12.806,12.806,0,0,0-1.5,2.243,1.693,1.693,0,0,0-.136.68c0,.544.68,1.836,2.787,1.9,1.836.068,3.061-.136,3.061,1.02-.137,2.584-6.052,7-6.052,10.879,0,.476.271.884,1.155.884a7.957,7.957,0,0,0,3.128-.952,78.5,78.5,0,0,0,7.955-4.624.915.915,0,0,1,.477-.2.293.293,0,0,1,.271.273c0,.2-.271.544-.748.815,0,0-3.331,2.244-7.274,4.352-1.7.884-4.149,2.175-5.781,2.175-.951,0-1.631-.475-1.631-1.835,0-4.692,6.46-9.179,6.46-10.4a.766.766,0,0,0-.817-.68c-2.311,0-3.535-.408-4.147-2.38-.34.2.34,2.448-7.48,7.887a18.434,18.434,0,0,1-3.331,2.108.293.293,0,0,1-.272-.272c0-.2.272-.544.748-.816l2.38-1.632c6.119-4.079,6.323-5.439,7.547-8.839.612-1.291,1.768-3.127,2.856-3.127C263.647,51.368,263.783,51.5,263.783,51.708Z" transform="translate(-33.543 -19.887)"/>
        <path class="cls-1" d="M338.647,37.429c0-.476,2.108-2.991,3.06-2.991.611,0,.34.815.611.815,2.244,0,17.543-5.1,17.543-10.471,0-3.807-5.916-4.011-7.615-4.011-22.438,0-45.895,12.646-45.895,23.933,0,7.412,14.549,12.715,19.989,19.311a65.358,65.358,0,0,1,10.267-.953h.476c1.021,0,1.36.205,1.36.68-.068.408-.136.748-.816.748-1.02-.068-1.768-.068-2.516-.068a49.432,49.432,0,0,0-7.886.748,6.772,6.772,0,0,1,1.223,3.672c0,9.451-23.321,19.514-35.56,19.514-3.876,0-6.459-1.088-6.459-3.671,0-8.364,19.853-16.659,36.58-20.059C316.89,58.711,303.9,52.592,303.9,46.948c.069-14.142,26.246-27.061,48.411-27.061,7.82,0,10.064,2.04,10.064,5.439,0,7-18.834,13.327-22.166,13.327A1.514,1.514,0,0,1,338.647,37.429ZM324.028,65.714c-15.57,3.2-35.219,11.491-35.219,19.106,0,1.7,1.971,2.448,4.962,2.448,10.2,0,32.366-8.431,32.366-17.2A7.032,7.032,0,0,0,324.028,65.714Z" transform="translate(-33.543 -19.887)"/>
        <path class="cls-1" d="M346.471,71.086c1.836,0,4.488-.612,8.431-2.516a78.615,78.615,0,0,0,7.955-4.624.915.915,0,0,1,.476-.2.293.293,0,0,1,.272.273c0,.2-.272.544-.748.815,0,0-3.332,2.244-7.275,4.352-2.311,1.224-7.547,3.4-11.287,3.4-2.38,0-4.215-.884-4.215-3.468,0-5.168,11.015-14.279,18.63-14.279,1.292,0,2.243.68,2.243,1.7,0,1.36-1.9,3.944-5.915,5.779a1.343,1.343,0,0,1-.612.137c-.34,0-.951-.2-.951-.68a1.178,1.178,0,0,1,.679-.952c.612-.34,4.42-2.856,4.42-4.216,0-.408-.408-.68-1.36-.68-5.575,0-14.687,7.479-14.687,11.763C342.527,68.162,342.6,71.086,346.471,71.086Z" transform="translate(-33.543 -19.887)"/>
        <path class="cls-1" d="M360.275,68.978c-.068.068-.135.136-.135.2s.067.136.2.136c.543-.068,15.3-10.4,17.065-10.4a.465.465,0,0,1,.477.476c0,1.9-7.276,7.615-7.276,10.267,0,.68.544.952,1.224.952,1.7,0,4.556-1.428,5.575-2.04a78.533,78.533,0,0,0,7.956-4.624.909.909,0,0,1,.476-.2.292.292,0,0,1,.271.273c0,.2-.271.544-.747.815,0,0-3.332,2.244-7.275,4.352-1.361.884-5.916,3.06-8.363,3.06-1.021,0-1.632-.409-1.632-1.292,0-2.856,7.479-9.655,7.479-10,0-.136-.068-.2-.272-.2-.544,0-14.687,9.315-15.5,9.927l-2.787,1.7a.9.9,0,0,1-.544.2c-.136,0-.2-.068-.273-.2a.411.411,0,0,1-.067-.272,1.266,1.266,0,0,1,.34-.679c.34-.476,4.76-5.576,4.895-5.78C374.282,49.8,394,26.686,399.1,26.686c.544,0,.951.2.951.816,0,4.964-23.457,25.158-32.7,32.977ZM397.4,28.318c-2.788.068-22.5,22.913-27.128,28.625,7.207-5.915,27.2-23.933,27.264-28.217A.57.57,0,0,0,397.4,28.318Z" transform="translate(-33.543 -19.887)"/>
        <path class="cls-1" d="M396.926,70.134a6.894,6.894,0,0,0,2.855-.884,105.637,105.637,0,0,0,9.18-5.3.909.909,0,0,1,.476-.2.293.293,0,0,1,.271.273c0,.2-.271.544-.747.815,0,0-4.556,2.924-8.5,5.032-1.768.884-4.079,2.176-5.779,2.176-.952,0-1.632-.476-1.632-1.836a8.4,8.4,0,0,1,1.292-3.808c-3.672,2.584-7.343,4.556-9.655,4.556-1.224,0-2.176-.408-2.176-1.5,0-3.876,8.363-11.423,10.063-13.123a1.316,1.316,0,0,1,.816-.408.465.465,0,0,1,.476.476.409.409,0,0,1-.068.272c-1.836,2.108-8.3,8.091-8.3,10.947,0,1.088.408,1.836,1.768,1.836s4.624-2.04,7.887-4.42c2.991-4.555,8.295-9.655,10.2-9.655.341,0,.613.136.613.476,0,.952-4.42,5.167-9.383,8.975a6.535,6.535,0,0,0-1.292,3.2C395.294,69.318,395.77,70.134,396.926,70.134Zm6.867-12.647c-.952,0-3.876,2.72-6.052,5.575,3.332-2.583,6.188-5.1,6.188-5.507C403.929,57.487,403.861,57.487,403.793,57.487Z" transform="translate(-33.543 -19.887)"/>
        <path class="cls-1" d="M410.526,64.559a13.621,13.621,0,0,0-1.7,5.711c0,1.224.476,2.04,1.632,2.04,5.3,0,9.247-8.839,9.315-9.18a8.877,8.877,0,0,0,.272-1.9c.068-.884.476-1.02.884-1.02.68.068.816.815.816,1.5,0,.339-.068.68-.136,1.631,0,1.9.952,2.584,2.176,2.584a9.962,9.962,0,0,0,4.895-1.972.915.915,0,0,1,.476-.2.293.293,0,0,1,.272.273c0,.2-.272.544-.748.815a9.2,9.2,0,0,1-5.3,2.108,4.909,4.909,0,0,1-3.6-1.768c-.068,0-.136.068-.272.34-.544,1.02-5.1,8.159-10,8.5-2.516,0-3.06-1.427-3.06-2.652,0-12.374,34.2-45.215,40.388-45.215a1.523,1.523,0,0,1,1.5,1.564C448.33,34.3,419.3,58.575,410.526,64.559Zm.544-1.157c9.179-6.527,34.676-28.9,34.676-34.744a.86.86,0,0,0-.951-.816C441.531,27.842,418.481,49.668,411.07,63.4Z" transform="translate(-33.543 -19.887)"/>
        <path class="cls-1" d="M446.972,55.039c0,2.72-9.247,9.044-17.814,10.267a5.863,5.863,0,0,0-.612,2.38c0,.476.068,3.4,3.943,3.4,1.836,0,4.488-.612,8.432-2.516a78.727,78.727,0,0,0,7.955-4.624.912.912,0,0,1,.476-.2.293.293,0,0,1,.272.273c0,.2-.272.544-.748.815,0,0-3.332,2.244-7.275,4.352-2.312,1.224-7.547,3.4-11.288,3.4-2.379,0-4.215-.884-4.215-3.468,0-5.168,10.879-15.3,18.494-15.3C446.292,53.815,446.972,54.292,446.972,55.039Zm-17.407,9.587c6.528-1.155,15.164-6.8,15.164-8.907,0-.476-.477-.816-1.632-.816C438.609,54.9,432.082,60.275,429.565,64.626Z" transform="translate(-33.543 -19.887)"/>
        <path class="cls-1" d="M460.437,51.708a.248.248,0,0,1-.069.2,12.741,12.741,0,0,0-1.5,2.243,1.708,1.708,0,0,0-.137.68c0,.544.68,1.836,2.788,1.9,1.836.068,3.06-.136,3.06,1.02-.136,2.584-6.052,7-6.052,10.879,0,.476.273.884,1.156.884a7.957,7.957,0,0,0,3.128-.952,78.615,78.615,0,0,0,7.955-4.624.915.915,0,0,1,.476-.2.294.294,0,0,1,.273.273c0,.2-.273.544-.749.815,0,0-3.332,2.244-7.275,4.352-1.7.884-4.147,2.175-5.779,2.175-.952,0-1.632-.475-1.632-1.835,0-4.692,6.459-9.179,6.459-10.4a.765.765,0,0,0-.815-.68c-2.313,0-3.537-.408-4.148-2.38-.341.2.34,2.448-7.479,7.887a18.506,18.506,0,0,1-3.332,2.108.293.293,0,0,1-.272-.272c0-.2.272-.544.748-.816l2.379-1.632c6.12-4.079,6.324-5.439,7.548-8.839.612-1.291,1.767-3.127,2.855-3.127C460.3,51.368,460.437,51.5,460.437,51.708Z" transform="translate(-33.543 -19.887)"/>
        <path class="cls-1" d="M486.82,44.364c5.236-5.235,9.655-9.111,10.607-9.111a.574.574,0,0,1,.476.136.617.617,0,0,1,.2.476c0,1.428-2.448,4.692-5.916,8.568,7.616.135,15.163.271,15.5.271a.392.392,0,0,1,.408.408c0,.612,0,1.02-1.768,1.156-2.107,0-8.975-.068-15.706-.136-6.867,7.344-16.454,16.182-19.786,18.7a9.432,9.432,0,0,0-1.361,4.148c0,.884.681,1.156,1.565,1.156,2.04,0,5.371-1.5,5.167-1.36,2.04-1.088,7.14-3.944,7.955-4.624a.912.912,0,0,1,.477-.2.293.293,0,0,1,.271.272c0,.2-.271.544-.748.816,0,0-2.583,1.768-5.915,3.6-3.672,2.04-6.732,3.263-8.635,3.263-1.429,0-2.244-.679-2.244-2.107,0-4.08,9.451-15.231,17.814-23.8-5.167-.136-9.247-.136-9.383-.136-.612,0-.816-.476-.816-.952.069-.475.544-.748,1.157-.816C476.146,44.092,480.973,44.229,486.82,44.364ZM471.93,63c3.263-2.448,11.627-10.607,17.27-16.931h-2.856C481.312,51.164,475.262,57.759,471.93,63Zm16.114-18.631c.884,0,1.7,0,2.651.069,2.38-2.788,4.08-5.032,4.08-5.848,0-.136-.068-.2-.135-.2C494.3,38.381,491.58,40.829,488.044,44.364Z" transform="translate(-33.543 -19.887)"/>
      </g>
    </g>
  </g>
</svg>
