<svg xmlns="http://www.w3.org/2000/svg" width="358.195" height="67.902" viewBox="0 0 358.195 67.902">
  <defs>
    <style>
      .cls-1 {
        fill: #231f20;
      }
    </style>
  </defs>
  <g id="Layer_2" data-name="Layer 2">
    <g id="Layer_1-2" data-name="Layer 1">
      <g>
        <path class="cls-1" d="M115.21,62.939c0,2.736-.144,17.93-10.873,17.93-11.593,0-18.217-12.818-26.5-15.122-.792,0-1.08.72-1.08,1.441,0,.288-.361.5-.864.5a1.022,1.022,0,0,1-1.008-1.152c.216-2.16,1.152-5.256,4.032-5.256,5.833,0,18.145,15.841,27.65,15.841,2.952,0,5.617-1.872,5.833-8.353.5-13.1.216-39.531.432-41.979V26.72a1.491,1.491,0,0,1,1.368-1.584h.072c.864,0,.936.936.936,1.368Zm28.227-47.452c0,1.44-10.225,3.24-28.443,8.784-5.473,1.657-33.051,10.946-33.7,10.946-.792,0-1.08-.937-1.08-1.8a2.952,2.952,0,0,1,1.3-2.089c2.447-2.448,50.332-18.361,58.757-18.361C141.78,12.967,143.437,14.335,143.437,15.487Z" transform="translate(-74.887 -12.967)"/>
        <path class="cls-1" d="M140.77,52.57c2.015,0,4.32.936,4.32,3.1,0,5.76-12.6,12.312-16.346,13.608a.523.523,0,0,0-.432.433c0,.359.577.792,1.369.792a1.8,1.8,0,0,0,.576-.072,18.879,18.879,0,0,0,9.721-6.121c.863-1.08,1.511-1.44,2.015-1.44,1.08,0,1.225,2.016,1.225,2.232.071.576.935,5.977,4.824,5.977,4.32,0,10.873-7.777,13.1-11.3a.826.826,0,0,1,.792-.648,1.4,1.4,0,0,1,.936.36.872.872,0,0,1,.433.648,4.679,4.679,0,0,1-.649,1.224c-7.488,9.792-11.665,12.889-16.922,12.889-3.456,0-5.328-3.672-5.328-6.624v-.432a.329.329,0,0,0-.288-.361c-.072,0-.143.072-.216.216-.5.864-6.768,6.481-11.593,6.481-5.329,0-5.329-3.528-5.329-5.185C122.983,62.579,131.912,52.57,140.77,52.57Zm.864,4.465c0-1.3-.5-2.089-3.1-2.089-3.96,0-11.737,6.481-11.737,11.953,0,.577.216.792.432.792C128.1,67.691,141.562,61.355,141.634,57.035Z" transform="translate(-74.887 -12.967)"/>
        <path class="cls-1" d="M166.688,61.139c0-1.3,0-2.664-.864-2.664-1.224,0-3.816,4.1-6.409,7.056-.216.216-.359.36-.5.36s-.36-.216-.36-.576c0-.792.648-2.448,2.3-5.04.936-1.441,3.384-6.337,5.761-6.337,2.592.072,2.664,4.465,2.664,7.921,0,1.584.216,4.68.216,5.184,0,.577.072.792.144.792.216,0,.432-.432.648-.864.36-.72,3.385-7.056,3.816-7.848s1.945-4.825,3.025-5.977a1.251,1.251,0,0,1,.792-.432c1.152,0,2.088,4.9,3.24,8.425,1.584,4.824,5.4,10.513,11.665,10.513a11.525,11.525,0,0,0,5.832-1.728c.505,0,.721.287.721.576a1.465,1.465,0,0,1-.649,1.152,14.828,14.828,0,0,1-8.856,2.736c-10.441,0-12.6-12.889-12.6-15.265,0-.577-.215-.864-.359-.864s-.288.216-.505.648c-.431.936-6.192,12.817-6.7,13.681-.5.792-.864,1.08-1.3,1.08-.792,0-1.44-1.224-1.584-2.088-.144-.792-.216-4.1-.216-6.769Z" transform="translate(-74.887 -12.967)"/>
        <path class="cls-1" d="M199.447,44.29c0-.936.792-2.881,2.3-2.881A2.483,2.483,0,0,1,203.911,44c0,1.873-1.512,3.241-2.231,3.241C199.447,47.242,199.447,44.865,199.447,44.29ZM203.7,54.442c0,1.369-.36,14.545-.792,16.346a1.754,1.754,0,0,1-1.8,1.728c-.792,0-.721-1.08-.792-1.728.071-.936.143-2.017.143-3.168,0-4.249-.576-9.578-.576-12.17a3,3,0,0,1,.144-1.224,2.243,2.243,0,0,1,2.016-1.728C203.335,52.5,203.7,53.146,203.7,54.442Z" transform="translate(-74.887 -12.967)"/>
        <path class="cls-1" d="M220.11,60.635a4.36,4.36,0,0,1-1.728-.288.917.917,0,0,1-.36-.792c0-1.44,2.376-3.817,2.88-3.817,1.08,0,.649,1.8,2.376,1.8.937,0,1.585-1.225,1.585-2.377a2.357,2.357,0,0,0-2.448-2.52c-4.177,0-8.065,4.824-8.065,10.441,0,3.384,1.008,7.993,7.632,7.993,4.681,0,12.242-8.929,14.545-12.313a.828.828,0,0,1,.793-.648,1.4,1.4,0,0,1,.936.36.869.869,0,0,1,.432.648,4.681,4.681,0,0,1-.648,1.224c-7.488,9.793-13.033,14.041-18.649,14.041-5.977,0-8.5-4.969-8.5-10.009,0-10.009,10.153-14.113,13.033-14.113,3.024,0,4.177,1.872,4.177,3.24C228.1,57.754,223.639,60.635,220.11,60.635Z" transform="translate(-74.887 -12.967)"/>
        <path class="cls-1" d="M245.093,71.076c6.841,0,12.1-7.777,14.329-11.3a.825.825,0,0,1,.792-.648,1.4,1.4,0,0,1,.936.36.871.871,0,0,1,.432.648,4.681,4.681,0,0,1-.648,1.224c-7.489,9.792-11.665,12.889-16.921,12.889-7.993,0-9.074-5.473-9.074-10.369,0-4.464,4.465-11.809,9.29-11.809,2.448,0,4.1,1.584,4.1,3.384,0,5.257-8.713,13.321-8.713,13.321S240.124,71.076,245.093,71.076Zm-6.841-4.321s6.192-5.04,6.192-10.369A1.531,1.531,0,0,0,242.86,54.8c-3.672,0-4.9,7.777-4.968,9.145A6.283,6.283,0,0,0,238.252,66.755Z" transform="translate(-74.887 -12.967)"/>
        <path class="cls-1" d="M311.119,69.348a4.332,4.332,0,0,1-1.656,2.808,26.491,26.491,0,0,1-15.482,4.752c-18.5,0-30.89-13.969-30.89-30.026,0-14.042,10.081-28.083,22.466-28.083,11.592,0,20.305,8.641,20.305,16.778,0,2.16-1.008,2.952-2.376,2.952-2.952,0-7.848-3.744-9-5.977-.36-.719-.648-.864-.864-.864-.5,0-.5,1.081-1.44,1.081-.576,0-.792-.361-.792-.936,0-1.369,1.008-3.961,1.008-6.265,0-2.665-1.3-4.969-6.625-4.969-9.36,0-19.082,9.361-19.082,23.835,0,13.753,11.594,29.738,29.379,29.738,10.081,0,13.034-5.472,14.257-5.472A.753.753,0,0,1,311.119,69.348ZM294.7,23.768c-.143,0-.143.072-.143.215,0,.433,4.391,10.946,8.28,10.946.36,0,.576-.073.576-.505C303.414,31.833,296.5,23.768,294.7,23.768Z" transform="translate(-74.887 -12.967)"/>
        <path class="cls-1" d="M316.948,60.131c-.792,3.528-2.736,10.8-3.1,12.241a1.594,1.594,0,0,1-1.584,1.368.989.989,0,0,1-1.08-.936.913.913,0,0,1,.072-.432,46.272,46.272,0,0,0,3.24-13.321,3.94,3.94,0,0,1-.576-2.089c0-2.52,1.944-5.76,4.68-6.048,1.081.144,1.44.5,1.44,1.008,0,.792-2.376,3.168-2.376,3.745,0,.288.288.359.648.359,2.737,0,4.393-1.728,5.544-1.728a1.707,1.707,0,0,1,1.729,1.584c0,.5-1.512,3.817-1.944,5.473a18.823,18.823,0,0,0-.5,4.176c0,3.313.648,5.977,2.952,5.977,4.32,0,11.737-8.209,13.969-11.737a.826.826,0,0,1,.792-.648,1.4,1.4,0,0,1,.936.36.872.872,0,0,1,.433.648,4.679,4.679,0,0,1-.649,1.224c-7.488,9.792-11.3,12.529-16.849,12.529-2.521,0-4.464-1.656-4.464-5.328,0-4.177,1.943-8.857,1.943-9,0-.216-.143-.288-.432-.288a19.846,19.846,0,0,0-3.24.648A6.9,6.9,0,0,1,316.948,60.131Z" transform="translate(-74.887 -12.967)"/>
        <path class="cls-1" d="M352.516,48.538c7.921,0,7.993,10.008,7.993,10.008a13.97,13.97,0,0,1-2.593,7.561,9.656,9.656,0,0,0,1.44.072c5.544,0,11.809-2.88,13.538-6.264.143-.432.36-.792.719-.792.433,0,1.368.432,1.368,1.008l-.647,1.224c-3.385,5.112-9.289,6.84-14.689,6.84a21.49,21.49,0,0,1-3.1-.216c-4.032,4.681-7.345,4.681-9,4.681-5.761,0-7.7-5.4-7.921-9.5,0-4.1,3.24-7.344,3.96-7.273.72,0,.936-.432,1.08-.936C344.667,54.946,346.4,48.538,352.516,48.538Zm-9.937,12.745c0,1.44.36,8.28,6.984,8.28a5.962,5.962,0,0,0,4.681-1.872c0-.432-3.385,0-6.409-2.808-.432-.432-3.168-3.528-3.6-6.7,0-.216-.072-.433-.215-.433C344.02,57.754,342.579,58.546,342.579,61.283ZM358.061,59.2c0-4.249-1.945-8.065-6.193-8.065a4.456,4.456,0,0,0-4.68,4.681,12.232,12.232,0,0,0,.5,3.24c2.449,6.192,7.345,6.7,7.849,6.7C356.188,65.747,358.061,62.723,358.061,59.2Z" transform="translate(-74.887 -12.967)"/>
        <path class="cls-1" d="M376.346,52.21c.5,0,1.08.648,1.224,1.3,0,.936-1.368,3.6-1.368,9,0,4.681,1.368,7.2,4.176,7.2,4.537,0,8.209-8.5,8.569-9.577.216-.72.36-3.384,1.8-3.384.792.144.937.359.937.792,0,.288-.073.576-.073,1.007,0,2.449,1.08,11.809,4.536,11.809,1.657,0,3.529-1.655,3.529-6.048,0-4.032-1.3-9.073-1.3-11.089,0-2.52,1.727-2.952,2.592-2.952,1.584.072,2.3,3.024,2.3,4.824,0,1.3-.576,1.44-1.584,1.44-.216,0-.5.144-.5,1.08,0,.432.5,4.969.5,7.417,0,8.281-4.176,9.433-6.913,9.433-6.192,0-5.4-8.713-6.264-8.713-.144,0-.72.432-.72.72-3.673,5.473-7.057,6.769-9.217,6.769-3.961,0-6.337-4.536-6.337-9C372.241,61.571,374.4,52.21,376.346,52.21Z" transform="translate(-74.887 -12.967)"/>
        <path class="cls-1" d="M416.593,71.076c6.841,0,12.1-7.777,14.329-11.3a.825.825,0,0,1,.792-.648,1.4,1.4,0,0,1,.936.36.871.871,0,0,1,.432.648,4.681,4.681,0,0,1-.648,1.224c-7.489,9.792-11.665,12.889-16.921,12.889-7.993,0-9.074-5.473-9.074-10.369,0-4.464,4.465-11.809,9.29-11.809,2.448,0,4.1,1.584,4.1,3.384,0,5.257-8.713,13.321-8.713,13.321S411.624,71.076,416.593,71.076Zm-6.841-4.321s6.192-5.04,6.192-10.369A1.531,1.531,0,0,0,414.36,54.8c-3.672,0-4.9,7.777-4.968,9.145A6.283,6.283,0,0,0,409.752,66.755Z" transform="translate(-74.887 -12.967)"/>
      </g>
    </g>
  </g>
</svg>
