<svg xmlns="http://www.w3.org/2000/svg" xmlns:xlink="http://www.w3.org/1999/xlink" width="386.25" height="96.34"><defs><symbol id="a" viewBox="0 0 386.25 96.34"><path class="a" d="M28.65 36H12.4l-3.1 7.5H1l15.6-35h8l15.65 35h-8.5zm-2.55-6.15-5.55-13.4L15 29.85zM70.12 10.05a11.93 11.93 0 0 1 5.28 4.4 12.15 12.15 0 0 1 1.85 6.75 12.14 12.14 0 0 1-1.85 6.72 11.68 11.68 0 0 1-5.28 4.4 19.63 19.63 0 0 1-8.07 1.53H55v9.65h-8.1v-35h15.15a19.46 19.46 0 0 1 8.07 1.55zm-3 15.62a5.47 5.47 0 0 0 1.9-4.47 5.54 5.54 0 0 0-1.9-4.53 8.52 8.52 0 0 0-5.52-1.57H55v12.15h6.6a8.52 8.52 0 0 0 5.55-1.58zM109.22 10.05a11.93 11.93 0 0 1 5.28 4.4 12.15 12.15 0 0 1 1.85 6.75 12.14 12.14 0 0 1-1.85 6.72 11.68 11.68 0 0 1-5.28 4.4 19.63 19.63 0 0 1-8.07 1.53H94.1v9.65H86v-35h15.15a19.46 19.46 0 0 1 8.07 1.55zm-3 15.62a5.47 5.47 0 0 0 1.9-4.47 5.54 5.54 0 0 0-1.9-4.53 8.52 8.52 0 0 0-5.55-1.57H94.1v12.15h6.6a8.52 8.52 0 0 0 5.55-1.58zM146.4 36h-16.25l-3.1 7.5h-8.3l15.6-35h8l15.65 35h-8.5zm-2.55-6.15-5.55-13.4-5.55 13.4zM164.65 8.5h8.1v28.4h17.55v6.6h-25.65zM221.2 36H205l-3.1 7.5h-8.3l15.6-35h8l15.65 35h-8.5zm-2.55-6.15-5.55-13.4-5.55 13.4zM246.52 41.77a17.37 17.37 0 0 1-6.8-6.45 17.74 17.74 0 0 1-2.47-9.32 17.78 17.78 0 0 1 2.47-9.33 17.37 17.37 0 0 1 6.8-6.45 21.72 21.72 0 0 1 18-.72 16.55 16.55 0 0 1 6.18 4.6l-5.2 4.8a11.2 11.2 0 0 0-8.8-4.1 11.67 11.67 0 0 0-5.8 1.42 10.16 10.16 0 0 0-4 4 11.67 11.67 0 0 0-1.42 5.8 11.67 11.67 0 0 0 1.42 5.8 10.13 10.13 0 0 0 4 4 11.68 11.68 0 0 0 5.8 1.43 11.12 11.12 0 0 0 8.8-4.15l5.2 4.8a16.35 16.35 0 0 1-6.2 4.65 20.54 20.54 0 0 1-8.25 1.6 20.11 20.11 0 0 1-9.73-2.38zM311.2 8.5v35h-8.1V29.15h-15.9V43.5h-8.1v-35h8.1v13.8h15.9V8.5zM322.5 8.5h8.1v35h-8.1zM365 36h-16.3l-3.1 7.5h-8.3l15.6-35h8l15.65 35h-8.5zm-2.55-6.15-5.55-13.4-5.55 13.4zM4.57 86.64V59H9v27.64zM31.71 67.07v19.57h-4.4V59h3.58l15.68 20V59h4.37v27.64h-3.78zM89.67 62.81h-9.21v23.83h-4.4V62.81h-9.25V59h22.86zM124.49 82.78v3.86h-19V59h18.64v3.86h-14.22v7.92h12.36v3.59h-12.36v8.46zM141.15 86.64V59h12a7.55 7.55 0 0 1 3.43.78 9 9 0 0 1 2.71 2.07 9.49 9.49 0 0 1 1.79 2.91 8.68 8.68 0 0 1 .65 3.25 9.24 9.24 0 0 1-.67 3.53 8.25 8.25 0 0 1-1.89 2.87 7.36 7.36 0 0 1-2.86 1.75l6.51 10.53H158L152 77h-6.4v9.63zm4.4-13.49h7.61a3.41 3.41 0 0 0 2.14-.72 5 5 0 0 0 1.49-1.89 6.08 6.08 0 0 0 .54-2.58 5.43 5.43 0 0 0-2.26-4.46 3.65 3.65 0 0 0-2.15-.69h-7.37zM187.05 59h4.13L202 86.64h-4.6l-2.71-7.52h-11.12l-2.72 7.52h-4.6zm6.43 16.93-4.36-12.13-4.38 12.13zM214.7 72.56a14.26 14.26 0 0 1 .9-5 14 14 0 0 1 2.63-4.44 12.61 12.61 0 0 1 9.85-4.39 12 12 0 0 1 6.49 1.69 10.92 10.92 0 0 1 4 4.35l-3.44 2.3a6.84 6.84 0 0 0-4.52-4 10.22 10.22 0 0 0-2.73-.39 7.93 7.93 0 0 0-3.78.87 8.49 8.49 0 0 0-2.75 2.33 10 10 0 0 0-1.66 3.23 12.41 12.41 0 0 0-.54 3.59 11.54 11.54 0 0 0 .64 3.86 10.53 10.53 0 0 0 1.83 3.26 8.81 8.81 0 0 0 2.81 2.24 7.75 7.75 0 0 0 3.57.82 9.19 9.19 0 0 0 2.81-.47 8 8 0 0 0 2.71-1.41 7 7 0 0 0 1.93-2.57l3.63 2a8.39 8.39 0 0 1-2.64 3.51 13 13 0 0 1-4.07 2.19 14.51 14.51 0 0 1-4.49.74 11.41 11.41 0 0 1-5.26-1.23 13.69 13.69 0 0 1-4.2-3.28 15.33 15.33 0 0 1-2.75-4.6 14.35 14.35 0 0 1-.97-5.2zM275.58 62.81h-9.21v23.83H262V62.81h-9.25V59h22.86zM291.41 86.64V59h4.41v27.64zM315.9 59l8.39 22.35L332.6 59h4.6l-10.88 27.64h-4.14L311.26 59zM371.71 82.78v3.86h-19V59h18.64v3.86h-14.22v7.92h12.36v3.59h-12.36v8.46z"/></symbol><style>.a{fill:#fff;stroke:#161515;stroke-miterlimit:3;stroke-width:2px}</style></defs><use width="386.25" height="96.34" xlink:href="#a"/></svg>