<svg xmlns="http://www.w3.org/2000/svg" width="378.63" height="80.94"><defs><style>.a{fill:none;stroke:#d9b776;stroke-miterlimit:3;stroke-width:2px}</style></defs><path class="a" d="M29.19 29.1H12.94l-3.1 7.5h-8.3l15.6-35h8l15.65 35h-8.5zm-2.55-6.15-5.55-13.4-5.55 13.4zM70.66 3.15a11.93 11.93 0 0 1 5.28 4.4 12.15 12.15 0 0 1 1.85 6.75 12.14 12.14 0 0 1-1.85 6.72 11.76 11.76 0 0 1-5.28 4.41 19.8 19.8 0 0 1-8.07 1.52h-7.05v9.65h-8.1v-35h15.15a19.46 19.46 0 0 1 8.07 1.55zm-3 15.62a5.47 5.47 0 0 0 1.9-4.47 5.54 5.54 0 0 0-1.9-4.53 8.52 8.52 0 0 0-5.52-1.57h-6.6v12.15h6.6a8.52 8.52 0 0 0 5.55-1.58zM109.76 3.15a11.93 11.93 0 0 1 5.28 4.4 12.15 12.15 0 0 1 1.85 6.75 12.14 12.14 0 0 1-1.85 6.72 11.76 11.76 0 0 1-5.28 4.41 19.8 19.8 0 0 1-8.07 1.52h-7.05v9.65h-8.1v-35h15.15a19.46 19.46 0 0 1 8.07 1.55zm-3 15.62a5.47 5.47 0 0 0 1.9-4.47 5.54 5.54 0 0 0-1.9-4.53 8.52 8.52 0 0 0-5.55-1.57h-6.57v12.15h6.6a8.52 8.52 0 0 0 5.55-1.58zM146.94 29.1h-16.25l-3.1 7.5h-8.3l15.6-35h8l15.65 35h-8.5zm-2.55-6.15-5.55-13.4-5.55 13.4zM165.19 1.6h8.1V30h17.55v6.6h-25.65zM221.74 29.1h-16.2l-3.1 7.5h-8.3l15.6-35h8l15.65 35h-8.5zm-2.55-6.15-5.55-13.4-5.55 13.4zM247.06 34.87a17.35 17.35 0 0 1-6.8-6.44 17.78 17.78 0 0 1-2.47-9.33 17.78 17.78 0 0 1 2.47-9.33 17.37 17.37 0 0 1 6.8-6.45 21.72 21.72 0 0 1 18-.72 16.55 16.55 0 0 1 6.18 4.6l-5.2 4.8a11.2 11.2 0 0 0-8.8-4.1 11.67 11.67 0 0 0-5.8 1.42 10.16 10.16 0 0 0-4 4 11.67 11.67 0 0 0-1.42 5.8 11.67 11.67 0 0 0 1.42 5.8 10.07 10.07 0 0 0 4 4 11.68 11.68 0 0 0 5.8 1.43 11.12 11.12 0 0 0 8.8-4.15l5.2 4.8a16.35 16.35 0 0 1-6.2 4.65 20.54 20.54 0 0 1-8.25 1.6 20 20 0 0 1-9.73-2.38zM311.74 1.6v35h-8.1V22.25h-15.9V36.6h-8.1v-35h8.1v13.8h15.9V1.6zM323.04 1.6h8.1v35h-8.1zM365.54 29.1h-16.3l-3.1 7.5h-8.31l15.61-35h8l15.64 35h-8.54zm-2.55-6.15-5.55-13.4-5.56 13.4zM5.11 79.74V52.1h4.43v27.64zM32.25 60.17v19.57h-4.4V52.1h3.58l15.68 20v-20h4.37v27.64H47.7zM90.21 55.91H81v23.83h-4.4V55.91h-9.25V52.1h22.86zM125.03 75.88v3.86h-19V52.1h18.64v3.86h-14.22v7.92h12.36v3.59h-12.36v8.46zM141.69 79.74V52.1h12a7.55 7.55 0 0 1 3.43.78 9 9 0 0 1 2.71 2.07 9.49 9.49 0 0 1 1.79 2.91 8.72 8.72 0 0 1 .65 3.25 9.24 9.24 0 0 1-.67 3.53 8.25 8.25 0 0 1-1.89 2.87 7.24 7.24 0 0 1-2.86 1.75l6.51 10.53h-4.82l-6-9.69h-6.4v9.63zm4.4-13.49h7.61a3.41 3.41 0 0 0 2.14-.72 5 5 0 0 0 1.49-1.89 6.08 6.08 0 0 0 .54-2.58 5.43 5.43 0 0 0-2.26-4.46 3.63 3.63 0 0 0-2.15-.69h-7.37zM187.59 52.1h4.13l10.82 27.64h-4.6l-2.71-7.52h-11.12l-2.72 7.52h-4.6zm6.43 16.93-4.36-12.13-4.38 12.13zM215.24 65.66a14.43 14.43 0 0 1 3.53-9.41 12.61 12.61 0 0 1 9.85-4.39 11.91 11.91 0 0 1 6.49 1.7 10.83 10.83 0 0 1 4 4.34l-3.44 2.3a6.84 6.84 0 0 0-4.52-4 10.22 10.22 0 0 0-2.73-.39 7.82 7.82 0 0 0-3.78.88 8.34 8.34 0 0 0-2.75 2.32 10 10 0 0 0-1.66 3.23 12.41 12.41 0 0 0-.54 3.59 11.54 11.54 0 0 0 .64 3.86 10.53 10.53 0 0 0 1.83 3.26 8.81 8.81 0 0 0 2.81 2.24 7.75 7.75 0 0 0 3.57.82 9.19 9.19 0 0 0 2.81-.47 8 8 0 0 0 2.71-1.44 7 7 0 0 0 1.93-2.57l3.63 2a8.39 8.39 0 0 1-2.64 3.51 12.91 12.91 0 0 1-4.07 2.19 14.51 14.51 0 0 1-4.49.74 11.41 11.41 0 0 1-5.26-1.23 13.69 13.69 0 0 1-4.2-3.28 15.33 15.33 0 0 1-2.75-4.6 14.57 14.57 0 0 1-.97-5.2zM276.12 55.91h-9.2v23.83h-4.38V55.91h-9.25V52.1h22.86zM291.95 79.74V52.1h4.41v27.64zM316.44 52.1l8.39 22.35 8.31-22.35h4.6l-10.88 27.64h-4.14L311.8 52.1zM372.25 75.88v3.86h-19V52.1h18.64v3.86h-14.22v7.92h12.36v3.59h-12.36v8.46z"/></svg>