<svg xmlns="http://www.w3.org/2000/svg" xmlns:xlink="http://www.w3.org/1999/xlink" width="363.14" height="94.34"><defs><symbol id="New_Symbol" data-name="New Symbol" viewBox="0 0 363.14 94.34"><g id="Appalachia_Interactive_White" data-name="Appalachia Interactive White"><path class="cls-1" d="M27.6 33.75H9L5.15 42.5H0l15.85-35h5l15.9 35h-5.3zm-1.75-4L18.3 12.6l-7.55 17.15zM68.25 10.75a11 11 0 0 1 3.9 9 11 11 0 0 1-3.9 9q-3.9 3.26-10.7 3.25H48.9v10.5h-5v-35h13.65q6.8 0 10.7 3.25zm-3.6 14.77a7 7 0 0 0 2.5-5.82 7.07 7.07 0 0 0-2.5-5.83c-1.67-1.35-4.08-2-7.25-2h-8.5v15.7h8.5c3.17-.02 5.6-.7 7.25-2.05zM105.85 10.75a11 11 0 0 1 3.9 9 11 11 0 0 1-3.9 9q-3.9 3.26-10.7 3.25H86.5v10.5h-5v-35h13.65q6.8 0 10.7 3.25zm-3.6 14.77a7 7 0 0 0 2.5-5.82 7.07 7.07 0 0 0-2.5-5.83c-1.67-1.35-4.08-2-7.25-2h-8.5v15.7H95c3.17-.02 5.58-.7 7.25-2.05zM139.65 33.75h-18.6l-3.85 8.75h-5.15l15.85-35h4.95l15.9 35h-5.25zm-1.75-4-7.55-17.15-7.55 17.15zM156 7.5h5v30.65h19v4.35h-24zM210.1 33.75h-18.6l-3.85 8.75h-5.15l15.85-35h5l15.9 35H214zm-1.75-4L200.8 12.6l-7.55 17.15zM232.57 40.57a17 17 0 0 1-6.62-6.4 17.7 17.7 0 0 1-2.4-9.17 17.76 17.76 0 0 1 2.4-9.18 17.06 17.06 0 0 1 6.65-6.4 19.45 19.45 0 0 1 9.5-2.32 20 20 0 0 1 7.5 1.37 15.45 15.45 0 0 1 5.8 4.08l-3.25 3.15a13 13 0 0 0-9.85-4.15 14.23 14.23 0 0 0-7.05 1.75 12.69 12.69 0 0 0-4.93 4.82 13.56 13.56 0 0 0-1.77 6.88 13.52 13.52 0 0 0 1.77 6.87 12.72 12.72 0 0 0 4.93 4.83 14.23 14.23 0 0 0 7.05 1.75 13.07 13.07 0 0 0 9.85-4.2l3.25 3.15a15.56 15.56 0 0 1-5.83 4.1 19.74 19.74 0 0 1-7.52 1.4 19.35 19.35 0 0 1-9.48-2.33zM294.65 7.5v35h-5V26.9h-20.1v15.6h-5v-35h5v15.05h20.1V7.5zM307.15 7.5h5v35h-5zM347 33.75h-18.6l-3.9 8.75h-5.15l15.85-35h4.95l15.9 35h-5.25zm-1.75-4-7.6-17.15-7.55 17.15zM3.68 85.64V58h2v27.64zM25.44 61.66v24h-2V58h1.64l19.3 24.38V58h2v27.64h-2zM83.47 59.75H73.33v25.89h-2V59.75H61.2V58h22.27zM116.74 83.85v1.79H98.29V58h18.1v1.8h-16.11v10.83h14.08v1.71h-14.08v11.51zM132.69 85.64V58h11.5a7.17 7.17 0 0 1 3.26.74 8.39 8.39 0 0 1 2.53 2 9.37 9.37 0 0 1 1.68 2.75 8.49 8.49 0 0 1 .61 3.12 9.25 9.25 0 0 1-.82 3.86 8.44 8.44 0 0 1-2.28 3 6.78 6.78 0 0 1-3.42 1.48l6.91 10.76h-2.31l-6.7-10.45h-9v10.38zm2-12.28h9.71a5.15 5.15 0 0 0 3.12-1 6.55 6.55 0 0 0 2.05-2.53 7.84 7.84 0 0 0 .72-3.32 6.86 6.86 0 0 0-.84-3.33 7.15 7.15 0 0 0-2.22-2.5 5.4 5.4 0 0 0-3.1-1h-9.44zM177 58h1.72l11.7 27.69h-2.12l-3.77-9.12h-13.38l-3.79 9.12h-2.15zm6.86 16.93-6-14.51-6 14.51zM202.22 71.56a14.61 14.61 0 0 1 .88-4.93 14.78 14.78 0 0 1 2.56-4.45 12.53 12.53 0 0 1 4.11-3.18 12.32 12.32 0 0 1 5.56-1.21 11.38 11.38 0 0 1 6.32 1.69 10.84 10.84 0 0 1 3.9 4.35l-1.64.94a9.06 9.06 0 0 0-2.4-3 8.88 8.88 0 0 0-3.06-1.62 11.29 11.29 0 0 0-3.28-.49 10.09 10.09 0 0 0-4.66 1 10.73 10.73 0 0 0-3.45 2.81 12.53 12.53 0 0 0-2.12 3.9 13.3 13.3 0 0 0-.73 4.33 12.77 12.77 0 0 0 .86 4.66 13.06 13.06 0 0 0 2.36 3.92 11.33 11.33 0 0 0 3.51 2.72 9.48 9.48 0 0 0 4.35 1 10.88 10.88 0 0 0 3.41-.57 10.57 10.57 0 0 0 3.3-1.75 8.77 8.77 0 0 0 2.46-3.1l1.71.82a9 9 0 0 1-2.69 3.51 12.91 12.91 0 0 1-4 2.19 13.5 13.5 0 0 1-4.33.74 11.09 11.09 0 0 1-5.15-1.23 13.37 13.37 0 0 1-4.12-3.28 15.35 15.35 0 0 1-3.61-9.77zM260.76 59.75h-10.14v25.89h-2V59.75h-10.13V58h22.27zM275.58 85.64V58h2v27.64zM294.42 58 305 83.15 315.48 58h2.11l-11.67 27.64H304L292.31 58zM350.81 83.85v1.79h-18.44V58h18.09v1.8h-16.1v10.83h14.07v1.71h-14.07v11.51z"/></g></symbol><style>.cls-1{fill:#fff}</style></defs><g id="Layer_2" data-name="Layer 2"><g id="Logos"><g id="Text"><use id="appalachia_interactive_white-2" data-name="appalachia_interactive_white" width="363.14" height="94.34" xlink:href="#New_Symbol"/></g></g></g></svg>