<svg xmlns="http://www.w3.org/2000/svg" width="377.09" height="79.94"><path d="M28.42 28.6H12.17l-3.1 7.5H.77l15.6-35h8l15.65 35h-8.5zm-2.55-6.15L20.32 9.1l-5.55 13.35zm44.02-19.8a11.93 11.93 0 0 1 5.28 4.45 12.15 12.15 0 0 1 1.85 6.75 12.14 12.14 0 0 1-1.85 6.72 11.68 11.68 0 0 1-5.28 4.4 19.63 19.63 0 0 1-8.07 1.53h-7v9.6h-8.15v-35h15.15a19.46 19.46 0 0 1 8.07 1.55zm-3 15.62a5.47 5.47 0 0 0 1.9-4.47 5.54 5.54 0 0 0-1.9-4.53 8.52 8.52 0 0 0-5.52-1.57h-6.6v12.15h6.6a8.52 8.52 0 0 0 5.55-1.58zm42.1-15.62a11.93 11.93 0 0 1 5.28 4.45 12.15 12.15 0 0 1 1.85 6.75 12.14 12.14 0 0 1-1.85 6.67 11.68 11.68 0 0 1-5.28 4.4 19.63 19.63 0 0 1-8.07 1.53h-7.05v9.65h-8.1v-35h15.15a19.46 19.46 0 0 1 8.07 1.55zm-3 15.62a5.47 5.47 0 0 0 1.9-4.47 5.54 5.54 0 0 0-1.9-4.53 8.52 8.52 0 0 0-5.55-1.57h-6.57v12.15h6.6a8.52 8.52 0 0 0 5.55-1.58zm40.18 10.33h-16.25l-3.1 7.5h-8.3l15.6-35h8l15.65 35h-8.5zm-2.55-6.15L138.07 9.1l-5.55 13.4zm20.8-21.35h8.1v28.4h17.55v6.6h-25.65zm56.55 27.5h-16.25l-3.1 7.5h-8.3l15.6-35h8l15.65 35h-8.5zm-2.55-6.15L212.87 9.1l-5.55 13.4zm27.85 11.92a17.37 17.37 0 0 1-6.8-6.45A17.74 17.74 0 0 1 237 18.6a17.78 17.78 0 0 1 2.47-9.33 17.37 17.37 0 0 1 6.8-6.45 21.72 21.72 0 0 1 18-.72 16.55 16.55 0 0 1 6.18 4.6l-5.18 4.8a11.2 11.2 0 0 0-8.8-4.1 11.67 11.67 0 0 0-5.8 1.42 10.16 10.16 0 0 0-4 4 11.67 11.67 0 0 0-1.4 5.78 11.67 11.67 0 0 0 1.42 5.8 10.13 10.13 0 0 0 4 4 11.68 11.68 0 0 0 5.8 1.43 11.12 11.12 0 0 0 8.8-4.15l5.2 4.8a16.35 16.35 0 0 1-6.22 4.62 20.54 20.54 0 0 1-8.25 1.6 20.11 20.11 0 0 1-9.75-2.33zm64.7-33.27v35h-8.1V21.75h-15.9V36.1h-8.1v-35h8.1v13.8h15.9V1.1zm11.3 0h8.1v35h-8.1zm42.45 27.5h-16.25l-3.1 7.5h-8.3l15.6-35h8l15.65 35h-8.5zm-2.55-6.15L356.62 9.1l-5.55 13.4zM4.34 79.24V51.55h4.41v27.69zm27.14-19.57v19.57h-4.4V51.55h3.58l15.68 20v-20h4.37v27.69h-3.78zm57.96-4.26h-9.17v23.83h-4.4V55.41h-9.29v-3.86h22.86zm34.83 19.97v3.86h-19V51.55h18.64v3.86h-14.23v7.92h12.36v3.59h-12.36v8.46zm16.65 3.86V51.55h12a7.55 7.55 0 0 1 3.43.78 9 9 0 0 1 2.71 2.07 9.49 9.49 0 0 1 1.79 2.91 8.68 8.68 0 0 1 .65 3.25 9.24 9.24 0 0 1-.67 3.53 8.25 8.25 0 0 1-1.89 2.87 7.36 7.36 0 0 1-2.86 1.75l6.51 10.53h-4.91l-6-9.63h-6.4v9.63zm4.4-13.49h7.61a3.41 3.41 0 0 0 2.14-.72 5 5 0 0 0 1.49-1.93 6.08 6.08 0 0 0 .54-2.58 5.43 5.43 0 0 0-2.26-4.42 3.65 3.65 0 0 0-2.15-.69h-7.37zm41.5-14.2h4.13l10.77 27.69h-4.6l-2.71-7.52h-11.07l-2.72 7.52h-4.6zm6.45 16.93-4.36-12.13-4.39 12.13zm21.2-3.32a14.26 14.26 0 0 1 .9-5 14 14 0 0 1 2.63-4.44 12.61 12.61 0 0 1 9.85-4.39 12 12 0 0 1 6.49 1.77 10.92 10.92 0 0 1 4 4.35l-3.44 2.3a6.84 6.84 0 0 0-4.52-4 10.11 10.11 0 0 0-2.73-.39 7.93 7.93 0 0 0-3.78.87 8.49 8.49 0 0 0-2.75 2.33 10 10 0 0 0-1.66 3.23 12.41 12.41 0 0 0-.54 3.59 11.54 11.54 0 0 0 .64 3.86 10.53 10.53 0 0 0 1.83 3.26 8.81 8.81 0 0 0 2.88 2.18 7.75 7.75 0 0 0 3.57.82 9.19 9.19 0 0 0 2.81-.47 8 8 0 0 0 2.62-1.48 7 7 0 0 0 2-2.57l3.62 2a8.28 8.28 0 0 1-2.63 3.51 13 13 0 0 1-4.07 2.19 14.51 14.51 0 0 1-4.49.74 11.41 11.41 0 0 1-5.26-1.23 13.69 13.69 0 0 1-4.2-3.28 15.33 15.33 0 0 1-2.75-4.6 14.35 14.35 0 0 1-1.02-5.15zm60.88-9.75h-9.21v23.83h-4.4V55.41h-9.24v-3.86h22.85zm15.83 23.83V51.55h4.41v27.69zm24.49-27.69 8.39 22.35 8.31-22.35h4.6l-10.88 27.69h-4.14l-10.92-27.69zm55.81 23.83v3.86h-19V51.55h18.64v3.86H356.9v7.92h12.37v3.59H356.9v8.46z" style="fill:#fff;stroke:#161515;stroke-miterlimit:3"/></svg>