<svg xmlns="http://www.w3.org/2000/svg" viewBox="0 0 377.09 79.94"><defs><style>.a{fill:#d9b776;stroke:#161515;stroke-miterlimit:3;}</style></defs><path class="a" d="M28.15,35.5H11.9L8.8,43H.5L16.1,8h8L39.75,43h-8.5ZM25.6,29.35,20.05,16,14.5,29.35Z" transform="translate(0.27 -6.9)"/><path class="a" d="M69.62,9.55A11.93,11.93,0,0,1,74.9,14a12.15,12.15,0,0,1,1.85,6.75,12.14,12.14,0,0,1-1.85,6.72,11.68,11.68,0,0,1-5.28,4.4,19.63,19.63,0,0,1-8.07,1.53h-7V43H46.4V8H61.55A19.46,19.46,0,0,1,69.62,9.55Zm-3,15.62a5.47,5.47,0,0,0,1.9-4.47,5.54,5.54,0,0,0-1.9-4.53A8.52,8.52,0,0,0,61.1,14.6H54.5V26.75h6.6A8.52,8.52,0,0,0,66.65,25.17Z" transform="translate(0.27 -6.9)"/><path class="a" d="M108.72,9.55A11.93,11.93,0,0,1,114,14a12.15,12.15,0,0,1,1.85,6.75A12.14,12.14,0,0,1,114,27.42a11.68,11.68,0,0,1-5.28,4.4,19.63,19.63,0,0,1-8.07,1.53H93.6V43H85.5V8h15.15A19.46,19.46,0,0,1,108.72,9.55Zm-3,15.62a5.47,5.47,0,0,0,1.9-4.47,5.54,5.54,0,0,0-1.9-4.53,8.52,8.52,0,0,0-5.55-1.57H93.6V26.75h6.6A8.52,8.52,0,0,0,105.75,25.17Z" transform="translate(0.27 -6.9)"/><path class="a" d="M145.9,35.5H129.65l-3.1,7.5h-8.3l15.6-35h8L157.5,43H149Zm-2.55-6.15L137.8,16l-5.55,13.4Z" transform="translate(0.27 -6.9)"/><path class="a" d="M164.15,8h8.1V36.4H189.8V43H164.15Z" transform="translate(0.27 -6.9)"/><path class="a" d="M220.7,35.5H204.45l-3.1,7.5h-8.3l15.6-35h8L232.3,43h-8.5Zm-2.55-6.15L212.6,16l-5.55,13.4Z" transform="translate(0.27 -6.9)"/><path class="a" d="M246,41.27a17.37,17.37,0,0,1-6.8-6.45,17.74,17.74,0,0,1-2.47-9.32,17.78,17.78,0,0,1,2.47-9.33A17.37,17.37,0,0,1,246,9.72,21.72,21.72,0,0,1,264,9a16.55,16.55,0,0,1,6.18,4.6L265,18.4a11.2,11.2,0,0,0-8.8-4.1,11.67,11.67,0,0,0-5.8,1.42,10.16,10.16,0,0,0-4,4A11.67,11.67,0,0,0,245,25.5a11.67,11.67,0,0,0,1.42,5.8,10.13,10.13,0,0,0,4,4,11.68,11.68,0,0,0,5.8,1.43,11.12,11.12,0,0,0,8.8-4.15l5.2,4.8A16.35,16.35,0,0,1,264,42a20.54,20.54,0,0,1-8.25,1.6A20.11,20.11,0,0,1,246,41.27Z" transform="translate(0.27 -6.9)"/><path class="a" d="M310.7,8V43h-8.1V28.65H286.7V43h-8.1V8h8.1V21.8h15.9V8Z" transform="translate(0.27 -6.9)"/><path class="a" d="M322,8h8.1V43H322Z" transform="translate(0.27 -6.9)"/><path class="a" d="M364.45,35.5H348.2L345.1,43h-8.3L352.4,8h8l15.65,35h-8.5Zm-2.55-6.15L356.35,16l-5.55,13.4Z" transform="translate(0.27 -6.9)"/><path class="a" d="M4.07,86.14V58.45H8.48V86.14Z" transform="translate(0.27 -6.9)"/><path class="a" d="M31.21,66.57V86.14h-4.4V58.45h3.58l15.68,20v-20h4.37V86.14H46.66Z" transform="translate(0.27 -6.9)"/><path class="a" d="M89.17,62.31H80V86.14h-4.4V62.31H66.31V58.45H89.17Z" transform="translate(0.27 -6.9)"/><path class="a" d="M124,82.28v3.86H105V58.45h18.64v3.86H109.41v7.92h12.36v3.59H109.41v8.46Z" transform="translate(0.27 -6.9)"/><path class="a" d="M140.65,86.14V58.45h12a7.55,7.55,0,0,1,3.43.78,9,9,0,0,1,2.71,2.07,9.49,9.49,0,0,1,1.79,2.91,8.68,8.68,0,0,1,.65,3.25,9.24,9.24,0,0,1-.67,3.53,8.25,8.25,0,0,1-1.89,2.87,7.36,7.36,0,0,1-2.86,1.75l6.51,10.53h-4.91l-6-9.63h-6.4v9.63Zm4.4-13.49h7.61a3.41,3.41,0,0,0,2.14-.72A5,5,0,0,0,156.29,70a6.08,6.08,0,0,0,.54-2.58A5.43,5.43,0,0,0,154.57,63a3.65,3.65,0,0,0-2.15-.69h-7.37Z" transform="translate(0.27 -6.9)"/><path class="a" d="M186.55,58.45h4.13l10.77,27.69h-4.6l-2.71-7.52H183.07l-2.72,7.52h-4.6ZM193,75.38l-4.36-12.13-4.39,12.13Z" transform="translate(0.27 -6.9)"/><path class="a" d="M214.2,72.06a14.26,14.26,0,0,1,.9-5,14,14,0,0,1,2.63-4.44,12.61,12.61,0,0,1,9.85-4.39A12,12,0,0,1,234.07,60a10.92,10.92,0,0,1,4,4.35l-3.44,2.3a6.84,6.84,0,0,0-4.52-4,10.11,10.11,0,0,0-2.73-.39,7.93,7.93,0,0,0-3.78.87,8.49,8.49,0,0,0-2.75,2.33,10,10,0,0,0-1.66,3.23,12.41,12.41,0,0,0-.54,3.59,11.54,11.54,0,0,0,.64,3.86,10.53,10.53,0,0,0,1.83,3.26A8.81,8.81,0,0,0,224,81.58a7.75,7.75,0,0,0,3.57.82,9.19,9.19,0,0,0,2.81-.47A8,8,0,0,0,233,80.45,7,7,0,0,0,235,77.88l3.62,2a8.28,8.28,0,0,1-2.63,3.51,13,13,0,0,1-4.07,2.19,14.51,14.51,0,0,1-4.49.74,11.41,11.41,0,0,1-5.26-1.23,13.69,13.69,0,0,1-4.2-3.28,15.33,15.33,0,0,1-2.75-4.6A14.35,14.35,0,0,1,214.2,72.06Z" transform="translate(0.27 -6.9)"/><path class="a" d="M275.08,62.31h-9.21V86.14h-4.4V62.31h-9.24V58.45h22.85Z" transform="translate(0.27 -6.9)"/><path class="a" d="M290.91,86.14V58.45h4.41V86.14Z" transform="translate(0.27 -6.9)"/><path class="a" d="M315.4,58.45l8.39,22.35,8.31-22.35h4.6L325.82,86.14h-4.14L310.76,58.45Z" transform="translate(0.27 -6.9)"/><path class="a" d="M371.21,82.28v3.86h-19V58.45h18.64v3.86H356.63v7.92H369v3.59H356.63v8.46Z" transform="translate(0.27 -6.9)"/></svg>