<svg xmlns="http://www.w3.org/2000/svg" viewBox="0 0 378.63 80.94"><defs><style>.cls-1{fill:none;stroke:#d9b776;stroke-miterlimit:3;stroke-width:2px;}</style></defs><g id="Layer_2" data-name="Layer 2"><g id="Logos"><g id="appalachia_interactive_hollow_gold"><path class="cls-1" d="M28.65,36H12.4L9.3,43.5H1l15.6-35h8l15.65,35h-8.5ZM26.1,29.85l-5.55-13.4L15,29.85Z" transform="translate(0.54 -6.9)"/><path class="cls-1" d="M70.12,10.05a11.93,11.93,0,0,1,5.28,4.4,12.15,12.15,0,0,1,1.85,6.75,12.14,12.14,0,0,1-1.85,6.72,11.68,11.68,0,0,1-5.28,4.4,19.63,19.63,0,0,1-8.07,1.53H55V43.5H46.9V8.5H62.05A19.46,19.46,0,0,1,70.12,10.05Zm-3,15.62a5.47,5.47,0,0,0,1.9-4.47,5.54,5.54,0,0,0-1.9-4.53A8.52,8.52,0,0,0,61.6,15.1H55V27.25h6.6A8.52,8.52,0,0,0,67.15,25.67Z" transform="translate(0.54 -6.9)"/><path class="cls-1" d="M109.22,10.05a12,12,0,0,1,5.28,4.4,12.15,12.15,0,0,1,1.85,6.75,12.14,12.14,0,0,1-1.85,6.72,11.73,11.73,0,0,1-5.28,4.4,19.63,19.63,0,0,1-8.07,1.53H94.1V43.5H86V8.5h15.15A19.46,19.46,0,0,1,109.22,10.05Zm-3,15.62a5.5,5.5,0,0,0,1.9-4.47,5.57,5.57,0,0,0-1.9-4.53,8.52,8.52,0,0,0-5.55-1.57H94.1V27.25h6.6A8.52,8.52,0,0,0,106.25,25.67Z" transform="translate(0.54 -6.9)"/><path class="cls-1" d="M146.4,36H130.15l-3.1,7.5h-8.3l15.6-35h8L158,43.5h-8.5Zm-2.55-6.15-5.55-13.4-5.55,13.4Z" transform="translate(0.54 -6.9)"/><path class="cls-1" d="M164.65,8.5h8.1V36.9H190.3v6.6H164.65Z" transform="translate(0.54 -6.9)"/><path class="cls-1" d="M221.2,36H205l-3.1,7.5h-8.3l15.6-35h8l15.65,35h-8.5Zm-2.55-6.15-5.55-13.4-5.55,13.4Z" transform="translate(0.54 -6.9)"/><path class="cls-1" d="M246.52,41.77a17.37,17.37,0,0,1-6.8-6.45A17.74,17.74,0,0,1,237.25,26a17.78,17.78,0,0,1,2.47-9.33,17.37,17.37,0,0,1,6.8-6.45,21.72,21.72,0,0,1,18-.72,16.55,16.55,0,0,1,6.18,4.6l-5.2,4.8a11.2,11.2,0,0,0-8.8-4.1,11.67,11.67,0,0,0-5.8,1.42,10.16,10.16,0,0,0-4,4,11.67,11.67,0,0,0-1.42,5.8,11.67,11.67,0,0,0,1.42,5.8,10.13,10.13,0,0,0,4,4,11.68,11.68,0,0,0,5.8,1.43,11.12,11.12,0,0,0,8.8-4.15l5.2,4.8a16.35,16.35,0,0,1-6.2,4.65,20.54,20.54,0,0,1-8.25,1.6A20.14,20.14,0,0,1,246.52,41.77Z" transform="translate(0.54 -6.9)"/><path class="cls-1" d="M311.2,8.5v35h-8.1V29.15H287.2V43.5h-8.1V8.5h8.1V22.3h15.9V8.5Z" transform="translate(0.54 -6.9)"/><path class="cls-1" d="M322.5,8.5h8.1v35h-8.1Z" transform="translate(0.54 -6.9)"/><path class="cls-1" d="M365,36H348.7l-3.1,7.5h-8.3l15.6-35h8l15.65,35h-8.5Zm-2.55-6.15-5.55-13.4-5.55,13.4Z" transform="translate(0.54 -6.9)"/><path class="cls-1" d="M4.57,86.64V59H9V86.64Z" transform="translate(0.54 -6.9)"/><path class="cls-1" d="M31.71,67.07V86.64h-4.4V59h3.58L46.57,79V59h4.37V86.64H47.16Z" transform="translate(0.54 -6.9)"/><path class="cls-1" d="M89.67,62.81H80.46V86.64h-4.4V62.81H66.81V59H89.67Z" transform="translate(0.54 -6.9)"/><path class="cls-1" d="M124.49,82.78v3.86h-19V59h18.64v3.86H109.91v7.92h12.36v3.59H109.91v8.46Z" transform="translate(0.54 -6.9)"/><path class="cls-1" d="M141.15,86.64V59h12a7.55,7.55,0,0,1,3.43.78,9,9,0,0,1,2.71,2.07,9.49,9.49,0,0,1,1.79,2.91,8.68,8.68,0,0,1,.65,3.25,9.24,9.24,0,0,1-.67,3.53,8.25,8.25,0,0,1-1.89,2.87,7.36,7.36,0,0,1-2.86,1.75l6.51,10.53H158L152,77h-6.4v9.63Zm4.4-13.49h7.61a3.41,3.41,0,0,0,2.14-.72,5,5,0,0,0,1.49-1.89,6.08,6.08,0,0,0,.54-2.58,5.43,5.43,0,0,0-2.26-4.46,3.65,3.65,0,0,0-2.15-.69h-7.37Z" transform="translate(0.54 -6.9)"/><path class="cls-1" d="M187.05,59h4.13L202,86.64h-4.61l-2.7-7.52H183.57l-2.72,7.52h-4.6Zm6.43,16.93-4.36-12.13-4.38,12.13Z" transform="translate(0.54 -6.9)"/><path class="cls-1" d="M214.7,72.56a14.26,14.26,0,0,1,.9-5,14,14,0,0,1,2.63-4.44,12.61,12.61,0,0,1,9.85-4.39,12,12,0,0,1,6.49,1.69,10.92,10.92,0,0,1,4,4.35l-3.44,2.3a6.78,6.78,0,0,0-4.52-4,10.22,10.22,0,0,0-2.73-.39,7.93,7.93,0,0,0-3.78.87,8.49,8.49,0,0,0-2.75,2.33,10,10,0,0,0-1.66,3.23,12.42,12.42,0,0,0-.55,3.59,11.54,11.54,0,0,0,.65,3.86,10.53,10.53,0,0,0,1.83,3.26,8.81,8.81,0,0,0,2.81,2.24,7.75,7.75,0,0,0,3.57.82,9.19,9.19,0,0,0,2.81-.47A8,8,0,0,0,233.52,81a7,7,0,0,0,1.93-2.57l3.63,2a8.39,8.39,0,0,1-2.64,3.51,13,13,0,0,1-4.07,2.19,14.51,14.51,0,0,1-4.49.74,11.41,11.41,0,0,1-5.26-1.23,13.69,13.69,0,0,1-4.2-3.28,15.54,15.54,0,0,1-2.75-4.6A14.35,14.35,0,0,1,214.7,72.56Z" transform="translate(0.54 -6.9)"/><path class="cls-1" d="M275.58,62.81h-9.21V86.64H262V62.81h-9.25V59h22.86Z" transform="translate(0.54 -6.9)"/><path class="cls-1" d="M291.41,86.64V59h4.41V86.64Z" transform="translate(0.54 -6.9)"/><path class="cls-1" d="M315.9,59l8.39,22.35L332.6,59h4.6L326.32,86.64h-4.14L311.26,59Z" transform="translate(0.54 -6.9)"/><path class="cls-1" d="M371.71,82.78v3.86h-19V59h18.64v3.86H357.13v7.92h12.36v3.59H357.13v8.46Z" transform="translate(0.54 -6.9)"/></g></g></g></svg>