<svg xmlns="http://www.w3.org/2000/svg" xmlns:xlink="http://www.w3.org/1999/xlink" width="640" height="440">
  <defs>
    <symbol id="a" data-name="New Symbol" viewBox="0 0 363.14 94.34">
      <path d="M27.6 33.75H9L5.15 42.5H0l15.85-35h5l15.9 35h-5.3zm-1.75-4L18.3 12.6l-7.55 17.15zm42.4-19a11 11 0 0 1 3.9 9 11 11 0 0 1-3.9 9q-3.9 3.26-10.7 3.25H48.9v10.5h-5v-35h13.65q6.8 0 10.7 3.25zm-3.6 14.77a7 7 0 0 0 2.5-5.82 7.07 7.07 0 0 0-2.5-5.83c-1.67-1.35-4.08-2-7.25-2h-8.5v15.7h8.5c3.17-.02 5.6-.7 7.25-2.05zm41.2-14.77a11 11 0 0 1 3.9 9 11 11 0 0 1-3.9 9q-3.9 3.26-10.7 3.25H86.5v10.5h-5v-35h13.65q6.8 0 10.7 3.25zm-3.6 14.77a7 7 0 0 0 2.5-5.82 7.07 7.07 0 0 0-2.5-5.83c-1.67-1.35-4.08-2-7.25-2h-8.5v15.7H95c3.17-.02 5.58-.7 7.25-2.05zm37.4 8.23h-18.6l-3.85 8.75h-5.15l15.85-35h4.95l15.9 35h-5.25zm-1.75-4-7.55-17.15-7.55 17.15zM156 7.5h5v30.65h19v4.35h-24zm54.1 26.25h-18.6l-3.85 8.75h-5.15l15.85-35h5l15.9 35H214zm-1.75-4L200.8 12.6l-7.55 17.15zm24.22 10.82a17 17 0 0 1-6.62-6.4 17.7 17.7 0 0 1-2.4-9.17 17.76 17.76 0 0 1 2.4-9.18 17.06 17.06 0 0 1 6.65-6.4 19.45 19.45 0 0 1 9.5-2.32 20 20 0 0 1 7.5 1.37 15.45 15.45 0 0 1 5.8 4.08l-3.25 3.15a13 13 0 0 0-9.85-4.15 14.23 14.23 0 0 0-7.05 1.75 12.69 12.69 0 0 0-4.93 4.82 13.56 13.56 0 0 0-1.77 6.88 13.52 13.52 0 0 0 1.77 6.87 12.72 12.72 0 0 0 4.93 4.83 14.23 14.23 0 0 0 7.05 1.75 13.07 13.07 0 0 0 9.85-4.2l3.25 3.15a15.56 15.56 0 0 1-5.83 4.1 19.74 19.74 0 0 1-7.52 1.4 19.35 19.35 0 0 1-9.48-2.33zM294.65 7.5v35h-5V26.9h-20.1v15.6h-5v-35h5v15.05h20.1V7.5zm12.5 0h5v35h-5zM347 33.75h-18.6l-3.9 8.75h-5.15l15.85-35h4.95l15.9 35h-5.25zm-1.75-4-7.6-17.15-7.55 17.15zM3.68 85.64V58h2v27.64zm21.76-23.98v24h-2V58h1.64l19.3 24.38V58h2v27.64h-2zm58.03-1.91H73.33v25.89h-2V59.75H61.2V58h22.27zm33.27 24.1v1.79H98.29V58h18.1v1.8h-16.11v10.83h14.08v1.71h-14.08v11.51zm15.95 1.79V58h11.5a7.17 7.17 0 0 1 3.26.74 8.39 8.39 0 0 1 2.53 2 9.37 9.37 0 0 1 1.68 2.75 8.49 8.49 0 0 1 .61 3.12 9.25 9.25 0 0 1-.82 3.86 8.44 8.44 0 0 1-2.28 3 6.78 6.78 0 0 1-3.42 1.48l6.91 10.76h-2.31l-6.7-10.45h-9v10.38zm2-12.28h9.71a5.15 5.15 0 0 0 3.12-1 6.55 6.55 0 0 0 2.05-2.53 7.84 7.84 0 0 0 .72-3.32 6.86 6.86 0 0 0-.84-3.33 7.15 7.15 0 0 0-2.22-2.5 5.4 5.4 0 0 0-3.1-1h-9.44zM177 58h1.72l11.7 27.69h-2.12l-3.77-9.12h-13.38l-3.79 9.12h-2.15zm6.86 16.93-6-14.51-6 14.51zm18.36-3.37a14.61 14.61 0 0 1 .88-4.93 14.78 14.78 0 0 1 2.56-4.45 12.53 12.53 0 0 1 4.11-3.18 12.32 12.32 0 0 1 5.56-1.21 11.38 11.38 0 0 1 6.32 1.69 10.84 10.84 0 0 1 3.9 4.35l-1.64.94a9.06 9.06 0 0 0-2.4-3 8.88 8.88 0 0 0-3.06-1.62 11.29 11.29 0 0 0-3.28-.49 10.09 10.09 0 0 0-4.66 1 10.73 10.73 0 0 0-3.45 2.81 12.53 12.53 0 0 0-2.12 3.9 13.3 13.3 0 0 0-.73 4.33 12.77 12.77 0 0 0 .86 4.66 13.06 13.06 0 0 0 2.36 3.92 11.33 11.33 0 0 0 3.51 2.72 9.48 9.48 0 0 0 4.35 1 10.88 10.88 0 0 0 3.41-.57 10.57 10.57 0 0 0 3.3-1.75 8.77 8.77 0 0 0 2.46-3.1l1.71.82a9 9 0 0 1-2.69 3.51 12.91 12.91 0 0 1-4 2.19 13.5 13.5 0 0 1-4.33.74 11.09 11.09 0 0 1-5.15-1.23 13.37 13.37 0 0 1-4.12-3.28 15.35 15.35 0 0 1-3.61-9.77zm58.54-11.81h-10.14v25.89h-2V59.75h-10.13V58h22.27zm14.82 25.89V58h2v27.64zM294.42 58 305 83.15 315.48 58h2.11l-11.67 27.64H304L292.31 58zm56.39 25.85v1.79h-18.44V58h18.09v1.8h-16.1v10.83h14.07v1.71h-14.07v11.51z" fill="#fff"/>
    </symbol>
  </defs>
  <path fill="none" d="M0 0h640v440H0z"/>
  <g stroke="#fff" stroke-miterlimit="7.57" fill="none">
    <path d="M304.41 138.66c5.82-28-50-70.82-82.08-19m60 25.35c10.88-29-27.87-77.16-60-25.35m134.4 92.27c-6.45-78.69-84.7-64.47-91.68-43.36m16.24 77.38c31.77-11 43.82-6.41 62.32-41.32 10.94-29.5 38.2-21.9 39.95-20.44m-74.84 51.88c-13.56-5.46-46-38-31.36-63.57 20.05-35 79.7.42 120.9-1.64 6.85-.88 14.84-5.34 18.66-5.6m-54.13-40.37c4.07 15.77 28.09 2.3 35.59 12.69 8 11 14 36.05 14 36.05m-166-89.34c60.41 9.3 34.88 62.88 34.88 62.88m-24.72 91.68c45.8-19.37 71.7-36.68 72.45-94.46m33.21-19.25s-4.62-15 12.71-28c0 0-3.75 12.4 5.49 19.21 0 0 20.52 10.68 22.26 13.36s14.45 19.16 15.61 41.41c0 0-10.25 7.2-21.42 7.08a23.35 23.35 0 0 1-7.65-1.64A114.53 114.53 0 0 1 366 163c-2.82-2.22-4-7.67-5.06-12.55-2.23-9.75 1.28-25.32 1.28-25.32zm-118-40.25c55.59 24.74-4.75 90.14-6 115.52-.72 13.4 1.1 23.4 9.56 32.17a29.7 29.7 0 0 0 16.68 8.73 36.36 36.36 0 0 0 5.46.53 45.94 45.94 0 0 0 6-.25 50.81 50.81 0 0 0 7.8-2.12c6.76-2.13 29.72-14.39 40.47-28C340 191.42 350.52 150.8 351.8 140m-113.7 60.41c-.09-2.48 4.76-18.08 8.58-33.63s7.39-34.56 3.19-43.18c-5.78-11.88-18.87-13.46-29.16-2 5.68-68.27 96.11-35.83 84.39 17.52m95.83 39.36s15.62 14 6.08 17.73a7.72 7.72 0 0 1-6.63-2.68m-22.22-22.61s-10.76 9.46 15 16.75c0 0 10.76 4.24 7.26 11.62a9.16 9.16 0 0 1-12.65 4l-5.32-2.7s-27.59 21.54-38.87 4c-17.43-60.24-88.2-46.35-78 5m78 36a4.71 4.71 0 0 0-.41-.52c-.67-3.63-2-8.78-13.84-9.27a251.77 251.77 0 0 0-40.86 1.73m-7.12 3.12v4.94h80.87s.87-9.5-14.16-9.79c0 0 11.17-10 9.2-23.06m-68.79 24.79s-56.5-41.47-10.4-87.1c0 0 16-18.11 46.58-7.46 0 0 19.36 6.4 27.16-3.73 0 0 4.05-11.57 10.41-14.17" stroke-width=".24"/>
    <path d="M407.59 195.73a7.87 7.87 0 0 1-6.15-2 .09.09 0 0 0-.15.1 6.25 6.25 0 0 1-.29 4.95 9.17 9.17 0 0 1-12.66 4l-5.26-2.68a.12.12 0 0 0-.1 0c-.29.22-1.94 1.48-4.44 3.06-6.93 4.09-13.88 7.5-22 8.41a.09.09 0 0 0-.08.11c3.08 12.78-6.28 22.23-7.64 23.52a.09.09 0 0 0 .06.16c14 .36 14 8.76 13.95 9.7a.11.11 0 0 1-.1.09H282a.1.1 0 0 1-.09-.1l.52-4.83a.09.09 0 0 0-.11-.1c-11.64 3.29-26 .14-34-8.05-17.23-21.26-6.33-44.45-1-65.8 3.83-15.61 7.39-34.55 3.2-43.17-5.76-11.81-18.72-13.45-29-2.18a.09.09 0 0 1-.16-.07c5.89-67.87 95.94-35.54 83.82 17.7a.09.09 0 0 0 .08.11 55.15 55.15 0 0 1 20 3.87s19.35 6.39 27.16-3.72c.15-.43 4.13-11.52 10.33-14.13a.09.09 0 0 0 0-.11c-.32-1.16-3.85-15.37 12.52-27.8a.1.1 0 0 1 .15.1c-.48 1.81-2.9 12.72 5.55 19 .41.21 20.54 10.71 22.25 13.36s14.43 19.13 15.61 41.36a.12.12 0 0 1 0 .08c-5.31 3.4-10.58 6.24-17.11 7.35a.08.08 0 0 0 0 .15c1.51 1.39 15 14 6 17.6zM344 244.89" stroke-width=".46"/>
  </g>
  <use width="363.14" height="94.34" transform="translate(138.51 270.3)" xlink:href="#a"/>
</svg>
