<svg xmlns="http://www.w3.org/2000/svg" xmlns:xlink="http://www.w3.org/1999/xlink" width="1536" height="128"><defs><symbol id="a" viewBox="0 0 376.85 312.17"><path d="M350.92 215.39s-6.69 1-11.43-3.64a.16.16 0 0 0-.27.17 11.54 11.54 0 0 1-.54 9.19c-4.14 8.75-15 12-23.5 7.36l-9.78-5a.17.17 0 0 0-.18 0c-.54.41-3.6 2.74-8.25 5.67-12.86 7.61-25.77 13.93-40.9 15.62a.17.17 0 0 0-.15.2c5.72 23.73-11.66 41.3-14.19 43.69a.17.17 0 0 0 .12.29c25.93.67 26 16.27 25.89 18a.17.17 0 0 1-.17.16H117.75a.17.17 0 0 1-.17-.19l1-9a.17.17 0 0 0-.21-.18c-21.62 6.11-48.22.26-63.22-14.95-32-39.47-11.75-82.54-1.93-122.18 7.11-29 13.73-64.17 5.93-80.17-10.68-21.93-34.77-25-53.81-4a.17.17 0 0 1-.3-.13c11-126 178.17-66 155.65 32.86a.16.16 0 0 0 .16.21c9.79-.19 22.5 1.71 37.15 7.18 0 0 35.93 11.88 50.43-6.89.28-.8 7.67-21.4 19.17-26.24a.17.17 0 0 0 .1-.2c-.6-2.15-7.15-28.53 23.25-51.61a.17.17 0 0 1 .27.17c-.88 3.37-5.38 23.63 10.32 35.19.76.39 38.13 19.88 41.31 24.81s26.8 35.52 29 76.8a.15.15 0 0 1-.07.15c-9.86 6.32-19.65 11.59-31.77 13.65a.17.17 0 0 0-.09.29c2.81 2.58 27.82 26.08 11.09 32.67zm-118.18 91.29" style="stroke:#161515;stroke-miterlimit:7.57;stroke-width:10px;fill:#d9b776"/></symbol><style>.c{fill:#d9b776}</style></defs><path style="fill:#161515" d="M0 0h1536v128H0z"/><use width="376.84" height="312.17" transform="matrix(.31 0 0 .31 13.61 15.25)" xlink:href="#a"/><path class="c" d="M194.81 80.54h-34.23l-7.08 16.1H144l29.17-64.4h9.11l29.25 64.4h-9.66zm-3.22-7.36L177.7 41.63l-13.9 31.55zM267.76 38.22q7.19 6 7.18 16.47t-7.18 16.47q-7.17 6-19.69 6h-15.91v19.5H223V32.24h25.11q12.49 0 19.65 5.98zm-6.62 27.19q4.61-3.73 4.6-10.72T261.14 44q-4.61-3.72-13.34-3.72h-15.64v28.85h15.64q8.74 0 13.34-3.72zM335.11 38.22q7.17 6 7.17 16.47t-7.17 16.47q-7.19 6-19.69 6H299.5v19.5h-9.2V32.24h25.12q12.51 0 19.69 5.98zm-6.63 27.19q4.61-3.73 4.6-10.72T328.48 44q-4.61-3.72-13.34-3.72H299.5v28.85h15.64q8.75 0 13.34-3.72zM395.46 80.54h-34.23l-7.08 16.1h-9.48l29.17-64.4h9.1l29.26 64.4h-9.66zm-3.22-7.36-13.89-31.55-13.9 31.55zM423.61 32.24h9.2v56.4h34.87v8h-44.07zM521.4 80.54h-34.22l-7.08 16.1h-9.48l29.16-64.4h9.11l29.26 64.4h-9.66zm-3.22-7.36-13.89-31.55-13.89 31.55zM560.92 93.1a31.39 31.39 0 0 1-12.19-11.78 32.54 32.54 0 0 1-4.42-16.88 32.59 32.59 0 0 1 4.42-16.88A31.43 31.43 0 0 1 561 35.78a35.82 35.82 0 0 1 17.48-4.27A36.41 36.41 0 0 1 592.24 34a28.14 28.14 0 0 1 10.67 7.49l-6 5.8a24 24 0 0 0-18.12-7.64 26.32 26.32 0 0 0-13 3.22 23.3 23.3 0 0 0-9.06 8.88 24.82 24.82 0 0 0-3.27 12.65 24.82 24.82 0 0 0 3.27 12.65 23.3 23.3 0 0 0 9.11 8.95 26.21 26.21 0 0 0 13 3.22 24 24 0 0 0 18.12-7.73l6 5.8a28.5 28.5 0 0 1-10.76 7.51 36.26 36.26 0 0 1-13.85 2.58 35.55 35.55 0 0 1-17.43-4.28zM673.29 32.24v64.4h-9.2v-28.7h-37v28.7h-9.2v-64.4h9.2v27.69h37V32.24zM694.45 32.24h9.2v64.4h-9.2zM765.85 80.54h-34.23l-7.08 16.1h-9.48l29.16-64.4h9.11l29.26 64.4h-9.66zm-3.22-7.36-13.9-31.55-13.89 31.55zM821.41 32.24h6.81v64.4h-6.81zM906.69 32.24v64.4h-5.61l-41.4-52.25v52.25h-6.81v-64.4h5.62L900 84.5V32.24zM943.86 38.13h-22.63v-5.89h52.07v5.89h-22.63v58.51h-6.81zM1033.38 90.75v5.89h-45.54v-64.4H1032v5.89h-37.36V61H1028v5.79h-33.36v23.96zM1097 96.64l-14.72-20.7a45.21 45.21 0 0 1-5.15.28h-17.3v20.42h-6.81v-64.4h24.11q12.33 0 19.32 5.89t7 16.19a20.89 20.89 0 0 1-3.82 12.74 21.09 21.09 0 0 1-10.9 7.5l15.73 22.08zm-5.43-30.45q5.06-4.23 5.06-11.87 0-7.82-5.06-12T1077 38.13h-17.11v32.29H1077q9.55 0 14.61-4.23zM1163.65 79.44h-35.88l-7.77 17.2h-7l29.44-64.4h6.71l29.44 64.4h-7.17zm-2.49-5.52-15.45-34.59-15.46 34.59zM1202.7 93a31 31 0 0 1-12-11.73 32.75 32.75 0 0 1-4.37-16.79 32.77 32.77 0 0 1 4.37-16.79 30.89 30.89 0 0 1 12.1-11.73 35.39 35.39 0 0 1 17.2-4.27 35.92 35.92 0 0 1 13.25 2.39 27.67 27.67 0 0 1 10.31 7l-4.33 4.33q-7.55-7.63-19-7.64a28 28 0 0 0-13.89 3.5 25.46 25.46 0 0 0-9.8 9.57 26.49 26.49 0 0 0-3.54 13.6 26.55 26.55 0 0 0 3.54 13.62 25.46 25.46 0 0 0 9.8 9.57 28 28 0 0 0 13.89 3.49q11.6 0 19-7.73l4.33 4.33a28 28 0 0 1-10.35 7 35.71 35.71 0 0 1-13.3 2.43A35.15 35.15 0 0 1 1202.7 93zM1273.5 38.13h-22.64v-5.89h52.08v5.89h-22.64v58.51h-6.8zM1317.47 32.24h6.81v64.4h-6.81zM1401.74 32.24l-28.52 64.4h-6.71L1338 32.24h7.36L1370 88.18l24.84-55.94zM1460.25 90.75v5.89h-45.54v-64.4h44.16v5.89h-37.35V61h33.31v5.79h-33.31v23.96z"/></svg>