<svg xmlns="http://www.w3.org/2000/svg" xmlns:xlink="http://www.w3.org/1999/xlink" width="842.86" height="701.61"><defs><pattern id="New_Pattern_Swatch_30" data-name="New Pattern Swatch 30" width="153.43" height="153.43" patternTransform="translate(532.58 316.81)" patternUnits="userSpaceOnUse"><path class="cls-1" d="M0 0h153.43v153.43H0z"/><path class="cls-2" d="M80.36 10.63h6.87m0 0h31.87m8.88 0h-8.88m-38.74 0H49.14m78.84 0h25.45m-104.29 0H13m-13 0h13m9.59 11.84h76m0 0h54.84M0 22.47h22.59m13.46 11.87H78m38.1 0H78m74.41 0h-36.28m37.3 0h-1M0 34.34h36.06m40.76 83.94h-41.1m116.45 0h-35.66m36.91 0h-1.25M0 118.28h35.72m80.79 0H76.82M29.16 129H15.49m36.85 0H29.16m41.1 0H92m-21.76 0h-17.9m101.09 0h-8.22M0 129h15.49m117.91 0h11.81M110 129h23.4m-23.4 0H92M0 45.73h18.77m36 0h-36m134.66 0h-19.5m-79.2 0h37.74m0 0h41.46M37 55h42.48m39.16 0H79.48m74 0h-.61m-34.18 0h34.18M0 55h37m116.46 9.71h-6.84M0 64.74h21.22m119.23 0H98.11m-38.81 0h38.81m42.34 0h6.13m-87.27 0H21.22m14.19 11.48h42.52m0 0h37.91M0 76.22h35.41m118 0h-.19m-37.39 0h37.39M0 87h153.43M0 98.89h153.43M0 108h146.89m6.54 0h-6.54M0 151.05h25.55m127.87 0h-10.58m-76.71 0H25.55m79.37 0h-38.8m76.72 0h-37.92M0 141.49h153.43M15.59 128.8l-.1.18m-7.35 12.43L15.49 129m36.85 0L45 141.41m7.45-12.61-.1.18m39.79-.18-.14.2m-7.35 12.43L92 129m34 12.41 7.4-12.41m15.24 12.58-5.8 9.49m-.05.07.05-.07m-32.11-9.49-5.81 9.49m0 .07v-.07m-38.84.07v-.07m5.81-9.49-5.81 9.49m-40.61.07v-.07m5.81-9.49-5.81 9.49m126.66-32.83v.06m-7.07 10.87.11-.17m7-10.7-7 10.7m-5.07-20.91-6 10.1m.18-31L127 98.68M152.7 98.9l-5.81 9.1m6.34-31.82-6.36 10.59m-6.38-22.1v.07m-6.87 11.44 6.87-11.44M152.86 55v.06m0 0-6.24 9.71m-.06.1.06-.1m-18.31-9.82 5.66-9.19m18.52-11.39-6.86 11.37m6.95-11.52-.09.15m-14-11.79-7.52 11.64m14.43-11.9 7.4-11.64M134.46 0 128 10.63m-11.49 107.65.06-.11M110 129l6.56-10.7M110 129l-.11.17m-32.95-11-.07.11M70.27 129l-.11.17m6.66-10.87L70.27 129m-34.55-10.7.07-.11m-.07.11L29.16 129m0 0-.1.17m62.89-11 6-10.1m-44.82 10.1 6-10.1m-37.56 0-6 10.1M118.88 99l-5.49 8.85M78.49 99 73 107.89M35.79 99l-5.49 8.85m63.42-20.69-7.26 11.52M55.1 87.16l-7.27 11.52M18.25 87.16 11 98.68m98.51-11.87 6.35-10.59M71.58 86.81l6.35-10.59M29.06 86.81l6.35-10.59m62.74-11.55v.07m-6.91 11.44 6.87-11.44m-38.8 0-6.87 11.44m6.87-11.44v-.07m-45 11.51 6.87-11.44m0-.07v.07M118.64 55l.06-.11m-.06.11L113 64.67M79.48 55l-5.6 9.64m5.67-9.75-.07.11m-48.12 9.67L37 55m.07-.11L37 55M86.86 54.87l5.66-9.19m-37.74 0-5.66 9.19M13.11 54.92l5.66-9.19m97.45-11.54-.09.15m0 0-6.82 11.37M78.13 34.19l-.09.15m-6.82 11.37L78 34.34M29.23 45.71l6.83-11.37m.08-.15-.08.15m62.62-12-.09.15m-7.17 11.7 7.17-11.72m-38.71 0L52.8 34.19M22.68 22.32l-.09.15m-7.18 11.72 7.18-11.72m89.41-.15 7.13-11.69m.07-.12-.07.12m-38.74 0-7.22 11.69m7.19-11.69.07-.12M31 22.32l7.14-11.57M93.71 0l-6.48 10.63M55.62 0l-6.48 10.63M19.48 0 13 10.63m121.43 142.8 1.28-2.13m-42 2.13L95 151.3m-39.37 2.13 1.28-2.13m-37.42 2.13 1.28-2.13"/></pattern><pattern id="New_Pattern_Swatch_23" data-name="New Pattern Swatch 23" width="153.01" height="153.01" patternTransform="matrix(2.5 0 0 2.5 346.26 -148.49)" patternUnits="userSpaceOnUse"><path class="cls-1" d="M0 0h153.01v153.01H0z"/><path class="cls-3" d="M44.63 5.84h0m0 8.5h0M43 21.78h0m-12.22.53h0M51 44.1h0M29 57.46h0m22-.61h0m12.22 0h0m-1.06-18.6h0m6.28 4.21h0m3.81-11.12h0m-4.78-6.9h0m1.06-10.1h0m-3.87-8.73h0m7.59-3.48h0m15.94 12.21h0m8.5-.53h0m4.82 27.7h0m-21.73 1h0m36.57-19.62h0m3.72-21.78h0m23.37 2.13h0m0 15.57h0m-4.1 4.8h0m-.65 9.38h0m-3 6.37h0M14.88 110.51h0m2.12 6.65h0m-12.22-1.87h0m15.94 20.19h0m2.66 14.87h0m15.93-11.69h0m-4.78-6.9h0m-8.5-.54h0m10.06-13.53h0m4.82-9.84h0m-6 2.17h0m-.37-10.14h0m34.38 10.61h0m-15.59 7.56h0m14.67-.11h0m-12.75 17h0M76.5 119h0m10.22-9.9h0m6.73-16.65h0m13.34 16.45h0m-.55-9.29h0m10.64-.27h0m0 15.41h0m-8 4.25h0m-7 9.55h0m21.92 1.6h0M82.88 52.06h0m18.06 5.32h0m19.47 3h0m-11.5-7.28h0m1.6 9h0m22.31 12.75h0m-12.22 7.5h0m-22.9-5.48h0M102 93.5h0m23.37 4.25h0m20.19-5.31h0m-14.33-10.09h0m-62.16 17h0m-15.3-21.07h0m9.45-3.37h0M23.09 61.35h0m-17.78 13h0m21.8 16.8h0m2.64-19.46h0m26.41-10.81h0m23.62 11.34h0M13.16 41.51h0m7.56-2.2h0m5.1 12.3h0m-21.07.22h0m131.79 10.33h0m11.15.53h0M3.19 18.59h0m34.53-4.78h0m-29.28.77h0m30.87 25.8h0m5.85 37.72h0M1.59 93.5h0m146.1 45.69h0m-25.5 6.91h0M10 128h0m46.71-1h0M111 80.22h0m26.6 16.47h0m-33.25 42.14h0M85 79.69h0M42 55.78h0M25 3.19h0m77 142.91h0M40.66 31.87h0m-13.32 1.61h0m-14.59-9h0m2.13-19.17h0m12.93 8.8h0m26.91.23h0m23.91 1.07h0M92.44 2.66h0m16.47 15.93h0M76 22.84h0m7.44 8.5h0m-29.17 2.14h0m-38.86 25h0m6.9 12.22h0m-11 10.06h0M6.91 43h0m30.28 31.91h0M34 82.35h0m-6.91 15.94h0m-2.16 18.87h0m-12.18 17.25h0m-8-3.19h0m23.91 15.94h0m17.53 2.66h0m23.17-11.46h0M47.68 128h0m8.1-27.09h0m-1.06-9h0m18.06-35.06h0M93 52.6h0m-1.59-9h0m4.93-9.14h0m11 3.3h0m19.12-1.59h0m0-13.82h0m-1.59-6.9h0m18.59-3.19h0m-8.5 6.91h0m-9.33 33.25h0m-8.51.47h0m.84-13.54h0m21.37 12.6h0M111 71.75h0m-10-.56h0m-7 11.69h0m-23.2 7.77h0m14.86 4.64h0m11.56 15.22h0m1.6 9.56h0M89.65 127h0M85 132.82h0m-6.64 3.65h0m-.79-24.9h0m-13.29 20.19h0m15.41 16.47h0m54.19-27.63h0M127 110.49h0m-11.34-1.42h0m1.89-17.95h0m15.25-1.87h0m14.87 25.51h0m-12.75 15.93h0m2.66 8h0m-4.78 10.1h0m-20.72-1.07h0m-21.57-8.32h0m-30 11.51h0M4.25 61.63h0m145 11.15h0M6.38 107.85h0m140.25-52.07h0m-3.19 74.91h0M5.84 150.88h0M2.66 35.06h0m59.5-14.34h0m23.38.53h0m12.75 0h0m18.06-7.44h0m19.65-.53h0m-2.66-9.56h0m14.34 34h0M17 99.35h0m-6.37 20.72h0m-3.72 19.12h0m30.81 8.5h0m6.91-14.34h0m0-37.72h0m12.94 14.86h0M78 128h0m10.76-11.68h0m22.71 11.15h0m-6.24 6.38h0m11.69 4.25h0M53.66 51.53h0m36.66 8h0m20.19 31.35h0m31.87 18.59h0M97.2 99.62h0M78.63 94h0m-42.5-34h0M23.91 77.57h0m116.34-6.77h0M15.41 32.94h0m-8-28.16h0m133.91 73.85h0M93.5 133.35h0m-38.78 14.88h0m-17-57.58h0m50.47-17.87h0m25-41.44h0m-32.44 5.85h0M27.63 42h0m97.75 1.59h0m18.06 77.57h0M11.16 147.69h0m25-142.38h0M3 9.05h0m5.68 0h0m5.67 0h0m5.67 0h0m5.67 0h0m5.65 0h0m5.67 0h0m5.67 0h0m5.69 0h0m5.67 0h0m5.67 0h0m5.67 0h0m5.68 0h0m5.67 0h0m5.67 0h0m5.67 0h0m5.65 0h0m5.67 0h0m5.67 0h0m5.69 0h0m5.67 0h0m5.67 0h0m5.68 0h0m5.69 0h0m5.67 0h0m5.67 0h0m5.62 0h0M2.85 28.18h0m5.68 0h0m5.67 0h0m5.67 0h0m5.67 0h0m5.65 0h0m5.67 0h0m5.67 0h0m5.69 0h0m5.67 0h0m5.67 0h0m5.67 0h0m5.68 0h0m5.67 0h0m5.67 0h0m5.67 0h0m5.65 0h0m5.67 0h0m5.67 0h0m5.69 0h0m5.67 0h0m5.66 0h0m5.69 0h0m5.69 0h0m5.67 0h0m5.66 0h0m5.62 0h0M2.85 47.46h0m5.68 0h0m5.67 0h0m5.67 0h0m5.67 0h0m5.65 0h0m5.67 0h0m5.67 0h0m5.69 0h0m5.67 0h0m5.67 0h0m5.67 0h0m5.68 0h0m5.67 0h0m5.67 0h0m5.67 0h0m5.65 0h0m5.67 0h0m5.67 0h0m5.69 0h0m5.67 0h0m5.66 0h0m5.69 0h0m5.69 0h0m5.67 0h0m5.66 0h0m5.62 0h0M2.69 66.47h0m5.68 0h0m5.67 0h0m5.67 0h0m5.67 0h0m5.65 0h0m5.67 0h0m5.67 0h0m5.69 0h0m5.67 0h0m5.67 0h0m5.66 0h0m5.69 0h0m5.67 0h0m5.67 0h0m5.67 0h0m5.65 0h0m5.67 0h0m5.67 0h0m5.69 0h0m5.66 0h0m5.67 0h0m5.69 0h0m5.69 0h0m5.66 0h0m5.67 0h0m5.62 0h0M2.53 85.6h0m5.68 0h0m5.67 0h0m5.67 0h0m5.67 0h0m5.65 0h0m5.67 0h0m5.67 0h0m5.69 0h0m5.67 0h0m5.66 0h0m5.67 0h0m5.69 0h0m5.67 0h0m5.67 0h0m5.67 0h0m5.65 0h0m5.67 0h0m5.67 0h0m5.68 0h0m5.67 0h0m5.67 0h0m5.69 0h0m5.68 0h0m5.67 0h0m5.67 0h0m5.62 0h0M2.36 104.73h0m5.69 0h0m5.67 0h0m5.67 0h0m5.67 0h0m5.65 0h0m5.67 0h0m5.67 0h0m5.69 0h0m5.66 0h0m5.67 0h0m5.67 0h0m5.69 0h0m5.67 0h0m5.67 0h0m5.67 0h0m5.65 0h0m5.67 0h0m5.67 0h0m5.68 0h0m5.67 0h0m5.67 0h0m5.69 0h0m5.68 0h0m5.67 0h0m5.67 0h0m5.62 0h0M2.2 123.85h0m5.69 0h0m5.67 0h0m5.67 0h0m5.67 0h0m5.65 0h0m5.67 0h0m5.67 0h0m5.68 0h0m5.67 0h0m5.67 0h0m5.67 0h0m5.69 0h0m5.67 0h0m5.67 0h0m5.67 0h0m5.65 0h0m5.67 0h0m5.67 0h0m5.68 0h0m5.67 0h0m5.67 0h0m5.69 0h0m5.68 0h0m5.67 0h0m5.67 0h0m5.62 0h0M2.2 143h0m5.69 0h0m5.67 0h0m5.67 0h0m5.67 0h0m5.65 0h0m5.67 0h0m5.67 0h0m5.68 0h0m5.67 0h0m5.67 0h0m5.67 0h0m5.69 0h0m5.67 0h0m5.67 0h0m5.67 0h0m5.65 0h0m5.67 0h0m5.67 0h0m5.68 0h0m5.67 0h0m5.67 0h0m5.69 0h0m5.68 0h0m5.67 0h0m5.67 0h0m5.62 0h0M15.94 52.6h0m-9 47.28h0m14.71 27.62h0m7 11.69h0m18.06-26.56h0m25.5-40.91h0m-17 0h0M79.16 60h0m51-3.18h0m-5.31 63.75h0m0-30.81h0m-6.38-14.88h0m28.69 74.38h0m-18.06-10.1h0m-34.53 11.72h0M52.07 1.59h0m21.78 77h0m51.53-8h0m-110 20.19h0m6.37-71.72h0m29.75 2.65h0m-37.16-4.18h0m-.53 54.19h0m32.94-1.06h0M63.22 93.5h0m71.19 20.19h0M105.72 2.13h0m45.69 131.22h0m-.29-24.28h0m-1.3-86.23h0m1.06 57.91h0M84.47 3.19h0M44.63 5.84h0m22.84 18.6h0m75.14 18h0M88.47 100.7h0m28.41 14.06h0M48.6 38.2h0m24.18 18.65h0m34.54-19.13h0m-3.95 42.69h0m-76.89 29.41h0m2.21 29.37h0m65.88 11.69h0m30.81-80.22h0m26 62.69h0"/></pattern><pattern id="New_Pattern_Swatch_25" data-name="New Pattern Swatch 25" width="153.43" height="153.43" patternTransform="translate(532.58 316.81)" patternUnits="userSpaceOnUse"><path class="cls-1" d="M0 0h153.43v153.43H0z"/><path class="cls-2" d="M153.43 10.63H0m153.43 11.83H0m153.43 11.87H0m153.6 84H0M153.43 129H0m153.43-83.27H0M153.43 55H0m153.43 9.71H0m153.43 11.51H0M153.43 87H0m153.6 11.9H0m153.43 9.1H0m153.43 43H0M16.8 10.63V0m36.14 10.63V0M91.2 10.63V0M132 10.63V0M16.8 153.43V151m36.14 2.41V151m38.26 2.41V151m40.8 2.43V151M35.72 22.43v-12m42.16 12v-12m38.62 12v-12m36.36 12v-12M20 34.3V22.82M57.51 34.3V22.82M96 34.3V22.82m42.3 11.48V22.82m-24.45 22.82V34.3M75.93 45.64V34.3M33.77 45.64V34.3m117.64 11.34V34.3M132 55v-9.36M90.5 55v-9.36M52.94 55v-9.36M16.8 55v-9.36M35.36 64.7V55m42.52 9.7V55m39 9.71V55M153 64.7V55M18.89 76.18V64.7m38.26 11.48V64.7m38.63 11.48V64.7m42.16 11.48V64.7M113.49 87V76.36M75.72 87V76.36M33.2 87V76.36M151 87V76.36M15.66 98.86V87.13m36.85 11.73V87.13m38.62 11.73V87.13m40.4 11.73V87.13M119.62 108v-9m-40.11 9v-9m-42.87 9v-9m-35.2 9v-9m18.07 19.24v-10.1m37.56 10.1v-10.1m38.62 10.1v-10.1m42.17 10.1v-10.1m-23.67 20.9v-10.62m-39.33 10.66v-10.66m-41.25 10.66v-10.66m118.7 10.66v-10.66m1.12 23.07H0m29.18 9.74v-9.82m40.93 9.82v-9.82m38.62 9.82v-9.82m37.92 9.82v-9.82m-133.65 0v-12.33m36.85 12.33v-12.33m39.68 12.33v-12.33m41.28 12.33v-12.33M26 30.93l5.32-4.6m6.2-.18 3.19 5m6.2-.18 6.73-4.25m49.43 4.25 5.32-4.6m6.2-.18 3.18 5m14.36-4.43-6.74 4.25M124.37 38l-5.31 4.61m11.51-4.79 3.19 5m6.2-.17 6.73-4.26M41.46 42.27l5.31-4.6m6.2-.18 3.19 5M69.09 38l-6.73 4.25m-4.25 10.3 5.32-4.61m6.2-.18 3.18 5m12.94-4.46L79 52.55m-61.11 85.21 5.32-4.6m9.39 4.78-3.19-5m16.12.53-6.73 4.25m-2.66 11.17 5.32-4.61m9.39 4.78-3.19-5m9.39 4.79 6.73-4.26m54.92-.88-5.31 4.6m11.51-4.78 3.19 5m6.2-.18 6.73-4.25m-44.29-6 5.32-4.61m6.2-.18 3.19 5m12.93-4.43-6.73 4.25M81.5 126.07l5.31-4.61m6.2-.17 3.19 5m6.2-.18 6.73-4.25m-106.3 3.9 5.32-4.61m4.78-.18 3.19 5m6.2-.17 6.74-4.26M25 116l5.32-4.6m6.2-.18 3.19 5m12.93-4.43L45.89 116m56.69-.53 5.31-4.61m6.2-.17 3.19 5m6.2-.18 6.74-4.25m-5.5-5.49 5.32-4.61m5.21-.18 3.19 5m4.5-.17 6.73-4.25m-99.36 0L45 106.05m11.52-4.78 3.18 5m6.21-.18 6.73-4.25m-14.18-6.42 5.32-4.6m6.2-.18 3.19 5m12.93-4.47-6.73 4.25m1.77-11.69 5.32-4.61m6.2-.17 3.19 5m6.2-.18 6.73-4.25M1.42 84.08l5.31-4.6m6.2-.18 3.19 5m6.2-.18 6.74-4.25m-18.43-6.52 4.25-4.86m-4.6 22.33-6.74 4.25m39-32.6 5.31-4.61m6.15-.17 3.18 5m6.21-.18 6.73-4.25M62 72.74l5.31-4.6m6.2-.18 3.19 5m12.94-4.43-6.74 4.25m37.92-10.63 5.31-4.6m6.2-.18 3.19 5m6.2-.18 6.73-4.25M10.28 48.65 3.54 52.9m44.65-38.62-5.32 4.61m11.52-4.79 3.19 5m6.2-.17 6.73-4.26m50.32 4.61 5.31-4.61m6.2-.17 3.19 5m6.2-.18 6.73-4.32M64.31 2.46 59 7.07m11.51-4.79 3.19 5m6.2-.17 6.73-4.26m50.67 4.39 5.32-4.6M152 7.42l-3.19-5M5.14 7.07l6.73-4.26m130.57 23.87 5.32 4.61M.89 31.46l3.19-5m4.07.18 6.74 4.25m47.3-4.25 5.31 4.61m7.44.35 3.19-5m6 .18 6.74 4.25M2.79 37.84l5.31 4.61m4.79.18 3.19-5m6.2.17L29 42.09m52.31-4.25 5.31 4.61m6.2.18 3.19-5m6.2.17 6.79 4.29M97.09 48.3l5.31 4.6m6.2.18 3.19-5m6.2.18 6.73 4.25M84 57.86l5.31 4.61m9.39-4.78-3.19 5m9.39-4.79 6.73 4.25m-85.39-9-5.31-4.61m11.51 4.79 3.19-5m6.2.17 6.73 4.25m-44 5 5.31 4.6m7.55-4.78-3.19 5m16.13-.53-6.74-4.25m.18 11.16 5.32 4.6m9.38-4.78-3.18 5m16.12-.53-6.73-4.25M40 79.3l5.31 4.61m6.21.17 3.18-5m12.94 4.43-6.7-4.21m-41.1 11.34 5.32 4.6m6.2.18 3.19-5m6.2.18 6.73 4.25m-35.57 11-5.32-4.6m11.14 4.78 3.19-5m4.59.18 6.73 4.25M97.44 91l5.32 4.61m6.2.18 3.19-5m6.2.17 6.73 4.25m-7.27-15.59 5.32 4.61m6.2.18 3.19-5m6.2.17 6.73 4.26m-41.81-14.99 5.32 4.6m6.2.18 3.19-5m12.93 4.43-6.73-4.25m-38.62 32.6 5.31 4.6m6.2.18 3.19-5m6.2.18 6.73 4.25M62 111.37l5.31 4.6m6.2.18 3.19-5m6.2.18 6.74 4.25m-90.36.18 3.19-5m6.2.18 6.73 4.25m24.1 6.38 5.31 4.61m9.39-4.79-3.19 5m16.13-.54-6.74-4.25m59.18 0 5.31 4.61m9.39-4.79-3.19 5m9.39-4.79 6.73 4.25m-91.94 7.44 5.31 4.61m9.42-4.77-3.19 5m9.39-4.79 6.73 4.26m-7.44 6.91 5.32 4.6m6.2.18 3.19-5m6.2.18 6.73 4.25M-1.7 144.32l5.31 4.61m6.2.17 3.19-5m5.5.18 6.73 4.25M.89 133.16l6.73 4.25M97.44 3.17l5.32 4.6M109 8l3.19-5m6.2.18 6.73 4.25m-104-5 5.28 4.64m6.2.17 3.19-5m12.93 4.47L42 2.46M4.22 14.81l5.31 4.61m7.83-4.79-3.19 5m16.13-.53-6.74-4.25m59.18-.18 5.31 4.61m9.39-4.78-3.19 5m16.12-.53-6.73-4.26m40.93 58.39 5.31-4.61M2 68.32l3.19 5m130.87 21.75 5.32-4.61m6.2-.18 3.19 5M136.06 52.9l5.32-4.6m6.2-.18 3.19 5M141.2 111l5.32 4.61m9.39-4.79-3.19 5m-1 28.52 5.32 4.61m-23.63-15.77 5.31 4.6m9.39-4.78-3.19 5" style="clip-path:url(#clip-path)"/></pattern><pattern id="New_Pattern_Swatch_18" data-name="New Pattern Swatch 18" width="152.74" height="152.86" patternTransform="matrix(2.25 0 0 2.25 108.95 221.66)" patternUnits="userSpaceOnUse"><path class="cls-1" d="M0 0h152.74v152.86H0z"/><path class="cls-2" d="M.54 21.63C5.8 16.64 13.21 8.34 16.37 4.8l2.14-2.75m-6.39 13.37c-2.84 3.31-6.85 9-9 11.11-.66.65-1.57 1.64-2.6 2.79m0 9.22c4.44-5.13 9.34-12 10.87-15.79 1.89-4.73 8.74-11.34 13.7-17m.94 24.57c-6.14 5.67-10.39 12-13.23 15.82C10.37 49.4 6.32 53.2.54 57.38m36.38-16.21c-2.84 3.07-19.37 23.15-23.86 28.35A112.62 112.62 0 0 1 .54 81.19m0 10.41c3.3-3.91 7.14-9 9.21-11.92a145 145 0 0 1 14.18-15.83M.54 100.92A33.11 33.11 0 0 0 6 92.67c2.12-4.25 9.21-13 13.7-18.43M.54 111.51c2.19-2.6 4.18-5.87 7.8-11.05 5-7.08 9-13.46 14.17-21S37.39 63.38 43.3 55.11m-6.38 25.75c-5 6.85-19.37 20.55-24.09 25-3.6 3.45-8.14 9.14-12.29 13.38m0 5.14c2.12-2.14 4.46-4.59 7.09-7.38 7.32-7.8 13.93-15.35 16.53-17.25m21.26-22.67C40.7 82.27 32 93.14 27.94 100s-13.7 20.55-18.42 25c-2.71 2.58-5.6 4.09-9 6.41m71.34-70.9C66 66.92 47.55 92.43 40 98.34s-19.13 20.08-23.86 26.22c-4.33 5.63-9.33 12.27-15.59 19m0-128.48a12.16 12.16 0 0 0 2.6-3.18c1.41-2.62 4.71-3.8 6.6-6.4m120.83 37.56c2.13-2.3 6.91-8 10.45-11.16s8.34-7.74 8.34-7.74c.82-.66 1.78-1.53 2.82-2.52M97.1 89.3c5-4.43 12.93-14.35 19.66-22.68s15.42-17.89 20.73-22a51.18 51.18 0 0 0 7.39-6.56c2.12-2.77 5-6.2 7.32-8.77M105 103.3c2.13-1.6 9.86-9.92 12.52-14.41C119.77 85 130.94 62.55 135 57.06s14.12-15.18 14.12-15.18c1-1 2-2.11 3.07-3.33m0 18.84c-.9.64-1.83 1.3-2.82 2m2.82 5.57a33.88 33.88 0 0 0-4.27 5s-3 4-5.45 7.68-9 10.1-12.58 14m-2.48 9c2.31-3.36 8-8.5 12.05-12.75s5.62-5.2 5.62-5.2c2.55-2.44 4.93-4.76 7.11-7.17m-52 75.24 3.42-4.25c1.6-2.13 5.49-8 9.92-14.89s8.15-15.59 12.58-20.9 11.56-12.21 15.1-17.72a43.12 43.12 0 0 1 6.51-8.15c1.37-1.12 2.89-2.36 4.47-3.67m0 10.41c-1.2 1.43-2.34 2.71-3.29 3.66a50 50 0 0 0-9.82 7.5m13.12-1.84c-1.16 1.32-2.58 2.83-4.48 4.73m-27.59 40.69c5.67-7.09 16.3-18.07 19-20.73s10.52-11.46 10.52-11.46a23.91 23.91 0 0 0 2.59-2.64m-23.66 40.74c.49-.55 1-1.09 1.45-1.6 0 0 3.42-4.49 6.61-9.8a38.42 38.42 0 0 1 6.16-8 77.64 77.64 0 0 0 9.43-8.44m-16.25 27.87c.61-.68 1.2-1.33 1.84-2.07a44.39 44.39 0 0 0 3.08-6 35.29 35.29 0 0 1 2.84-5.49 50.35 50.35 0 0 1 8.5-7.28m0 12.11c-.55.59-1.06 1.19-1.64 1.78l-4.5 4.85c-.71.64-1.47 1.35-2.23 2.07m-38.62-78.17C107 71.05 115 59 118.36 53.69s20.37-26.22 23.38-29.41a83.71 83.71 0 0 1 8.34-7.2 20.92 20.92 0 0 1 2.12-2M77.08 3.14c-4 4.25-16.3 19.37-19.85 25S46.13 46.61 41.17 52 30.54 64.09 28.65 66.21M29.36 79c4.25-5.44 12.28-15.59 16.06-19.61s13-14.64 19.37-22.68S88.89 12.59 95.27 5.5m-27.64 47c4.72-6.38 32.36-35 40.16-43.94M65 43.06c-7.09 9-23.86 27.87-29.06 34A181.62 181.62 0 0 1 18 95m16.3 1.65c7.09-7.56 20.79-23.15 25.75-29.52s14.41-16.78 19.13-22 12-13 15.83-16.3a102.62 102.62 0 0 0 9-9.21m-51.5 71.63a84.46 84.46 0 0 0 9.21-11.1c4-5.67 14.65-19.84 18.9-26S92.43 40 96 35.5m23.15-11.1c-3.54 4.72-10.86 13.23-17.24 18.43S80.38 63.38 73.77 70m78.43 80.94c-.7.47-1.38.91-2 1.33M128.46 24.64c3.36-3.9 7.61-10.45 9.21-12.58a37.74 37.74 0 0 1 3.08-3.47M7.43 152.25c.66-.89 1.48-2 2.56-3.48l2.95-3.31c1.42-1.41 6.73-6 10.1-9.74s7.09-11.52 9.21-14.35 12-13.29 15.24-15.77m-20.22 46.65a11.74 11.74 0 0 1 2.09-2.42c3.78-3.3 3.78-4.54 3.78-4.54 3.72-5 12.93-14.53 19.66-21.79s25-26.4 32.07-33.84M53 152.26l2.58-3.49s2.72-4.72 7.32-12 19.85-24.27 24.63-28.34m-21.78 43.83c1.51-3.13 3.61-7 5.66-9m35.78-79.78c-2.83 5.13-10.63 15.41-15.41 22.85s-25.33 29.37-29.41 34.33-12.75 13.82-17.37 18.6a62.72 62.72 0 0 0-8.09 10.93l-1.5 2.07m23.27 0a22.62 22.62 0 0 1 1.62-1.84s6-8.68 8.62-12.75 14.7-19 23-28 17-19.14 19.66-23m35.61-25.33c-2.65 2.48-8 9.75-13.46 16.48s-8.15 13.46-10.45 18.42-10.81 17.72-14.53 22.33-9.74 11.86-14.35 19.31a92.76 92.76 0 0 1-9.33 12.58c-.57.63-1.07 1.23-1.55 1.82m65.8-53.38c-5.14 5.67-17.36 24.45-22 31.36s-14.64 17.83-14.64 17.83c-1.24 1.45-2.52 2.84-3.79 4.2m11.32 0a25 25 0 0 1 2.15-2.31s3.9-4.49 9.75-12.1 16.25-15.18 16.25-15.18a37.38 37.38 0 0 0 3.76-3.42M77.79 70c-2.66 2.84-10.28 11.34-14.71 16.3A110.1 110.1 0 0 1 47 100.64c-5 3.55-19.84 18.6-23.21 22.68M96.56 61c-4.07 3.18-25 33.48-29.94 39.5s-10.8 12.05-16.83 16.3S34.91 129.34 31 133.24s-8.68 14.53-11.51 17.54M54.4 101.7c3.72-2.48 14.17-14.35 18.6-20.9s13.29-16.66 17-19.67S104.89 47.67 107.9 44m2.84 5.31C106.66 54.58 81 89.12 77.79 92.49m36.49-41.1c5.49-8.15 19.49-25.16 24.27-30.12s7.27-7.62 12.23-12.27m-36 73a62.32 62.32 0 0 0 8.51-14.35c3.19-7.26 11.34-15.95 15.23-20.2M44.25 152.26l5-5.14s2.37-3.07 5.2-7.33a114.07 114.07 0 0 1 10.1-12.93c4.25-4.78 19.13-20.37 27.28-26.75s20.38-20.73 24.1-25.33m-38.8 60.58c8-9.56 14.35-15.06 24.27-23.74.39-.33.77-.69 1.17-1.06m16.67-15.06c-4.6 8.33-15.06 19.32-20.73 25.51s-7.08 6.74-10.27 12.41-3.55 7.62-5.32 10.1a72.51 72.51 0 0 1-5.37 6.2c-1.11.9-2.06 1.73-2.93 2.54m49.05-64.91c3.72-7.79 13.29-21.08 17.9-25.15s5.67-6.21 8.85-11.7m-25.15 53c-5.32 8-16 23.21-19 28.52s-6.91 9.21-9.22 12.22-3.44 4.76-3.44 4.76c-.75.92-1.64 2-2.6 3.24m41.7-42.93c-3.9 4.43-8.69 17.72-13.29 23s-3.9 5-7.26 8.51m-27.29-9.57c-5.31 8.86-9.57 13.46-13.46 18.43m-39.69-10.24A152.53 152.53 0 0 1 47 123.85m13.6-23.21c-3.54 4.08-15.24 12.94-20 17.9m-18.19 8.14c-4.72 6.85-10.86 15.12-17 20.55a45.09 45.09 0 0 1-4.84 3.7M128.54.6c-3.83 4.33-7.88 9.88-12.49 14.7M92.43 47.19c7.56-9.68 17.72-22.44 24.8-28.58a177.6 177.6 0 0 0 18.7-18m-21.53 40.2c2.6-3.07 6.38-12.75 10.87-19.37 4-5.92 12-14.66 18.55-20.84m-1.43 6.08c2.1-2.68 4.71-4.17 7.76-6.08M7.43.6a36.28 36.28 0 0 1-4.76 5.49m23.08-2.26A12.48 12.48 0 0 1 27.28.6M53 .6a209.93 209.93 0 0 1-18 21.32c-5 5-9.92 13.46-9.92 13.46A177.22 177.22 0 0 1 9.75 55.93C7 59 3.54 61.88.54 64.87M65.75.6c-1.29 2.66-2.14 4.78-2.14 4.78a118.58 118.58 0 0 0-10.39 13.23 77.14 77.14 0 0 1-13 15.59c-5.67 5.2-17.72 15.59-20.56 18.19a71.16 71.16 0 0 0-13 15.11 55.1 55.1 0 0 1-6.14 8M35.42.6a64.21 64.21 0 0 1-6.06 7.62A184.84 184.84 0 0 0 16.6 23.33M58.68.6C55.8 4.16 53 9.27 47.78 16.25 41.64 24.51 27.94 40.58 23 45.07M83.55.6c-4.4 5.36-6 9.22-10 15.17-4.5 6.62-19.15 26.93-24.11 32.6m.94 22c3.31-3.78 9-12.75 14.18-20.55S88.65 20.5 93.14 16C96.84 12.31 103 7 109 .6m-7.54 27.22c5.22-6.27 13-20.31 18.87-27.22M5 45.77c2.36-2.83 6.14-8.26 10.39-13.93S29.36 15.77 33.14 12C35.89 9.24 39.9 5.11 44.25.6M32.19 54.28c5.44-5.91 10.87-13.94 15.36-20.08s14.64-21 18.66-25c3.16-3.2 5.17-5.64 8.4-8.6M91 .6C85.33 7.77 76.73 19 73.3 22.63"/></pattern><pattern id="New_Pattern_Swatch_24" data-name="New Pattern Swatch 24" width="153.07" height="153.07" patternTransform="translate(530.45 315.39)" patternUnits="userSpaceOnUse"><path class="cls-1" d="M0 0h153.07v153.07H0z"/><path class="cls-3" d="M24.42 42.47h0m5.41 2.22h0m0 0h0M19 40.26h0m-5.73-2h0m11.14 4.23h0m10.65 4.1h0m5.39 1.68h0m5.31 1.59h0m5.42 1.87h0m5.44 1.6h0m5.19 1.59h0m5.75 1.72h0m5.24 1.47h0M84 61.2h0m-5.71-1.57h0m11.08 3h0m5.54 1.49h0m5.45 1.26h0m5.64 1.56h0m5.36 1h0m5.45 1.26h0m5.22.9h0m11.69 2h0m-5.84-.88h0m11.16 1.59h0m5.67.56h0m5.5.35h0M1.76 35.61h0m5.84-.35h0m0 0h0m-5.84.35h0m11.31-1.22h0m5.66-.52h0M24.2 33h0m5.8-.53h0m5.46-1h0m5.64-1.06h0m5.65-.7h0m5.64-1.23h0m11.11-1.75h0m-5.81 1.06h0M69 25.64h0m5.64-1.06h0m5.45-1.22h0m5.82-1.06h0m5.28-1.4h0m5.46-1.23h0m5.64-1.05h0m11.08-2.81h0M107.73 17h0m11.09-2.81h0m5.45-1.41h0m5.45-1.58h0m5.44-1.75h0m10.71-3.34h0m-5.45 1.58h0M151.3 4h0M3.08 21.78h0m5.68-.13h0m5.52-.49h0m5.85-.16h0m5.52-.67h0m5.7-.66h0m5.65-.28h0m5.71-.84h0m11.21-1h0m-5.88.66h0m11.4-1.33h0m5.7-.66h0m5.53-.85h0m5.87-.65h0m5.36-1h0m5.53-.84h0m5.7-.67h0m11.25-2h0m-5.7.84h0M110 9h0m5.53-1h0m5.55-1.2h0m5.55-1.38h0m10.91-2.59h0M132 4h0m11.18-2.72h0m-141 10h0M7.74 11h0m5.73-.29h0m5.7.06h0m5.75-.47h0m11.24-.3h0m-5.9.27h0m11.46-.57h0m5.73-.3h0M53 8.92h0m5.91-.28h0M64.34 8h0m5.58-.49h0m5.73-.29h0M87 5.87h0m-5.74.47h0M92.61 5h0m5.6-.66h0m5.61-.84h0m5.48-1.4h0m5.32-1.1h0M149 35.57h0M144.91 22h0m5.85.29h0m0 0h0m-11.69-.59h0m3.73 14h0m-19.69-3h0m21.8-10.7h0M144 11.15h0m5.53-.13h0m-29.6 141.14h0m4.79-1.77h0m-122.43-.18h0m5.14.36h0m5.67.35h0m5.85.18h0m6.2 0h0m11.62.3h0m-5.91-.1h0m11.48.15h0m5.74.08h0m5.59-.08h0m5.85-.18h0m5-.35h0m5.77-.35h0m5.67-.18h0m11.51-.89h0m-6 .53h0M93.18 149h0m5.32-.71h0m5.31-.53h0m5-.53h0M2.12 112.27h0m5.88-.35h0m0 0h0m-5.84.35h0m11.69-.86h0m5.27-.89h0m5.47-.87h0m5.83-.53h0m5.47-1.05h0m5.64-1h0m5.65-.7h0m5.63-1.23h0m11.12-1.75h0m-5.82 1.06h0m11.28-2.11h0m5.61-1.11h0m5.45-1.23h0m5.82-1h0m5.27-1.4h0M97 96.33h0m5.64-1.06h0m11.08-2.81h0m-5.63 1.23h0m11.08-2.81h0m5.45-1.4h0m5.45-1.58h0m5.44-1.76h0m10.72-3.33h0m-5.45 1.58h0m9.81-3.25h0M2.83 78.84h0M3 99.9h0m5.85 0h0m5.85-.36h0m6-.35h0m5.49-.53h0m5.69-.66h0m6-.53h0m5.31-.89h0m11.34-1.77h0m-5.67 1.06h0m11-1.95h0m5.66-1h0m5.54-.92h0m5.88-.65h0m5.36-1h0m5.53-.85h0m5.7-.66h0m11.25-2h0m-5.71.84h0m11.25-2h0m5.54-1h0m5.54-1.2h0M127 82h0m10.92-2.58h0m-5.55 1.2h0m11.18-2.73h0m-141 10h0m5.56-.31h0m5.73-.29h0m5.69.06h0m5.75-.47h0m11.25-.25h0m-5.91.28h0m11.46-.59h0m5.73-.29h0m5.58-.49h0m5.9-.27h0m5.42-.69h0m5.57-.48h0m5.73-.3h0m11.36-1.3h0m-5.76.5h0M93 81.69h0m5.56-.69h0m5.61-.84h0m5.63-1h0m10.85-2.52h0m-5.4 1.48h0m11.06-2.84h0M2.91 73.94h0m5.56 0h0m5.74.07h0m5.68.43h0m5.76-.1h0m11.24.48h0M31 74.76h0m11.48.16h0m5.73.07h0m5.6-.12h0m5.91.1h0m5.45-.33h0m5.59-.13h0m5.74.08h0M87.9 74h0m-5.77.09h0m11.42-.57h0m5.62-.3h0m5.65-.48h0m5.68-.65h0M144.91 22h0m5.85.29h0m-11.69-.59h0m-5.69-.74h0m-7-1.18h0m16.42 15.85h0m-5.72-.55h0m-7.08-.94h0m-6.9-1.47h0m0 0h0M98 23.46h0m19.55 7.86h0m-6.87-1.92h0M104 27h0m39.7 60.63h0m5.54-.14h0M87.89 52h0m5.6 1.69h0m0 0h0m-11.21-3.41h0M87.89 52h0m11 2.75h0m5.49 1.46h0m5.44 1.07h0m5.65 1.51h0m5.49.9h0m5.66 1h0m5.55 1.3h0m-92.65-27h0m5.35 2.37h0m0 0h0m-5.35-2.37h0M50.16 39h0m5.26 2.13h0m5.26 1.73h0m5.43 2.21h0m5.34 1.57h0m5.49 1.65h0m5.34 2h0m55.65 12.24h0M149 64.38h0m-5.86-.84h0m-30.68-15.3h0m5.65 1.51h0m0 0h0m-11.3-3h0m5.65 1.51h0m11.12 2.4h0m5.53 1.29h0m5.46.9h0m5.7 1.34h0m5.52.72h0m5.36.86h0m-87.53-23h0m5.42 2.2h0m0 0h0m-5.42-2.2h0m10.73 3.77h0m5.33 2h0M85 40h0m5.49 2h0m5.38 1.41h0m5.55 1.48h0m5.4 1.8h0m11-6h0m5.57 1.8h0m0 0h0m-11.13-3.6h0m5.56 1.8h0m11 3h0m5.46 1.58h0m5.41 1.18h0m5.62 1.63h0m5.47 1h0M80.4 27h0m5.22 2.24h0m5.22 1.85h0m5.38 2.32h0m5.3 1.69h0m5.48 1.75h0m5.3 2.09h0M87.89 128.5h0m5.6 1.68h0m0 0h0m-11.21-3.36h0m5.61 1.68h0m11 2.75h0m5.49 1.46h0m5.44 1.06h0m5.65 1.52h0m5.49.9h0m5.66.95h0m5.55 1.29h0m-92.65-27h0m5.35 2.36h0m0 0h0m-5.35-2.36h0m10.61 4.1h0m5.26 2.12h0m5.26 1.74h0m5.43 2.2h0m5.34 1.58h0m5.49 1.65h0m5.34 2h0m55.65 12.23h0m11.1 1.87h0m-5.86-.84h0m-30.68-15.31h0m5.65 1.51h0m0 0h0m-11.3-3h0m5.65 1.5h0m11.12 2.41h0m5.53 1.29h0m5.46.89h0m5.7 1.34h0m5.52.73h0m5.36.85h0m-87.53-23h0m5.42 2.2h0m0 0h0m-5.42-2.2h0M74.38 113h0m5.33 2h0m5.29 1.54h0m5.49 2h0m5.38 1.4h0m5.55 1.48h0m5.4 1.81h0m11-6h0m5.57 1.8h0m0 0h0m-11.13-3.6h0m5.56 1.8h0m11 3h0m5.46 1.57h0m5.41 1.18h0m5.62 1.64h0m5.47 1h0M80.4 103.53h0m5.22 2.24h0m5.22 1.84h0m5.38 2.33h0m5.3 1.68h0m5.46 1.77h0m5.3 2.08h0M4 133.32h0m5.75.45h0M20.54 135h0m-5.49-.54h0m-11.71-7.7h0m5.51.79h0M32.24 136h0m-5.67-.53h0m11.51 1.06h0m5.67.18h0m6.2.35h0m7.62.36h0m7.09.35h0m7.08.18h0m-32.94-6.32h0m6.37.69h0m11.51.35h0m-5.49-.18h0m-18.78-1.41h0m-17.89-2.48h0m11.69 1.59h0m-5.84-.71h0M1.65 117.4h0m5.43 2.16h0m5.49 1.6h0m5.14 1.41h0M23 124h0m11.43 2.4h0m-5.93-1.16h0m-26 16h0m6.19.33h0m5.68.38h0m5.85.18h0m5.3.68h0m5.67.35h0m5.5.36h0m11.33.35h0m-5.84-.17h0m11.51.53h0m5.8 0h0m5.67.23h0m5.71.06h0m11.35-.27h0m-5.8.28h0m11.29-.64h0m5.67-.53h0M4 56.79h0m5.75.44h0m11.15 1.52h0m-5.9-.66h0M3.34 50.2h0m5.52 1.41h0m23.5 8.15h0m-5.67-.23h0m11.58.53h0m6.2.35h0m6.38.18h0m6.91-.35h0m6-.36h0m-25-4.78h0m6 .18h0m6.56.17h0m-19.31-.17h0m-17.43-2.93h0m11.29 2h0m-6.07-.9h0M2.48 64.67h0m6 .17h0m5.85.53h0m5.85.18h0m6 .18h0m5.49.18h0m5.07.25h0m11.45.84h0m-5.74-.62h0m11.4.85h0m5.62.4h0m5.67.23h0m5.71.06h0m11.22.24h0m-5.67-.23h0m11.49 0h0m5.65-.33h0M6.72 42.67h0m5.67 1.95h0m5.67 1.24h0m5.67 1.24h0m5.67.9h0M1.31 40.19h0m141.83 71.93h0m6 .18h0m-5.5-12.76h0m6.2.36h0M138 98.83h0m-6-1.06h0m-6-1.24h0m-6.38-1.59h0m17.18 16.65h0m-7.08-.89h0m-6.2-1.24h0m-26-8.86h0m19.31 6.91h0m-6.83-1.77h0m-6.38-2.48h0m46.29 46.42h0m-15.06-1.77h0m5.14.71h0m5.31.53h0M30.69 119.21h0m5.49 2.3h0m5.31 2.3h0m5 2h0m5 1.77h0m5.67 2.13h0m5.84 2h0m5.49 1.77h0m5.14 1.6h0m11.16 3.18h0m-5.49-1.59h0m11 2.83h0m5.13 1.24h0m5 1.39h0m5.79 1.09h0m5.31 1.07h0m5.67.88h0m6 1.24h0m5.84.89h0M25.2 116.9h0m-5.67-2.65h0"/></pattern><pattern id="New_Pattern_Swatch_28" data-name="New Pattern Swatch 28" width="241.06" height="241.06" patternTransform="rotate(140.9 211.64 367.588) scale(1.25)" patternUnits="userSpaceOnUse"><path class="cls-1" d="M0 0h241.06v241.06H0z"/><path class="cls-2" d="m10.2 0 .66 6.34M36.6 0l.3 1.74M24.32 11.62l-1.59-7M54.8 4.4 53.18 0M8.38 14.49l1.77 15.24m28.53-6.38L35 9.89m33.66.35-4.79-8.5m154.49 6 .87-7.74m-36.45 0-4.85 12.19m48.19-3.9v8.12m-194 88.78C18.87 101 7.37 96 0 90.32m116.59 29.61c-6-.18-13.37-.75-21.42-1.7m0 0c-7.87-.92-16.43-2.2-25.15-3.81m0 0a322.33 322.33 0 0 1-37.93-9.23M120.53 120c-1.24 0-2.56 0-3.94-.07m32.41-2.08a239.58 239.58 0 0 1-28.47 2.15m51.11-5.7c-7.79 1.46-15.47 2.65-22.65 3.55m47.4-9c-8.08 2.12-16.48 4-24.75 5.5m69.42-24a65 65 0 0 1-10.38 6.35m0 0c-9.37 4.69-21.41 8.77-34.29 12.14M82.74 176.35c-10.53-1.6-21.71-3.72-32.5-6.34m70.29 9.78c-9.37 0-22.94-1.19-37.79-3.44M-.12 150l.12.09M50.24 170C29.72 165 10.6 158.3 0 150.12m137.54 28.78c-6.49.59-12.29.89-17 .89m104.55-20.73c-4.68 2-9.85 3.92-15.32 5.67m31.3-14.61a75.91 75.91 0 0 1-16 8.94M202.38 167c-6.63 1.89-13.58 3.6-20.57 5.09m59.37-22-.12.09m-31.3 14.61q-3.62 1.16-7.38 2.24m-20.57 5.09a383.69 383.69 0 0 1-44.27 6.84M.22 30.43 0 30.27m18 9.78A80.89 80.89 0 0 1 .22 30.44m42.64 17.83A207.1 207.1 0 0 1 18 40.05m51.21 14.16c-8.82-1.65-17.79-3.64-26.35-5.93m43.89 8.8c-5.67-.8-11.58-1.76-17.54-2.87m51.32 5.73a259.41 259.41 0 0 1-33.79-2.86m154.32-26.82-.23.18m-82.75 26.09c-14.76 2.23-28.23 3.41-37.55 3.41m120.3-29.5c-16.32 12.42-52.28 21.49-82.75 26.09m60.43 92.34c-18.42-1.82-38.67-6-55.33-13.47m77.88 14.6c-6.88 0-14.54-.36-22.55-1.16m-72.28-23.41-.19-.15m17.14 10.09a84.45 84.45 0 0 1-17-10m95 24.58h-.12m-114.18 47.7a37.39 37.39 0 0 1-3.16-2.18M176 209.33c-5.42-.38-10.78-.91-15.93-1.63m0 0c-13.12-1.84-24.92-4.93-33.21-10m114.18 12.16c-15.34 0-40.9 1.21-65-.49M117.42 75.4a115.17 115.17 0 0 1-11.6-4.4M86.74 57.08l-.23-.33M241.06 90c-4.68 0-11.37-.08-19.37-.34m-22.24-1.08c-5.9-.39-12.07-.87-18.37-1.48m-78.21-17.52c-7.1-3.53-12.69-7.66-16.12-12.5m135 32.55c-6.64-.22-14.19-.56-22.25-1.08M105.82 71c-1-.45-2-.91-2.95-1.39m78.21 17.49c-21.87-2.1-45.22-5.66-63.66-11.67m27.23 163.06c-6.91.79-13.26 1.31-18.7 1.53m115-29.64a58.2 58.2 0 0 1-7.72 5m-112.97 24.73h.14m5.6-.11c-2 .08-3.84.12-5.55.12m90.48-15.5q-3.52 1.15-7.21 2.23m-24.51 6a391.484 391.484 0 0 1-34.51 5.57m59-11.62c-7.85 2.3-16.17 4.32-24.51 6m54-17.56a135 135 0 0 1-22.31 9.28m-144.79 9.27c-3.83-.75-7.68-1.56-11.5-2.43m-35.88-10.83a97.79 97.79 0 0 1-14.08-6.92m0 0A52.6 52.6 0 0 1 0 210.45m120.53 29.66h-.13m-65.81-8.75c-2.81-.64-5.6-1.32-8.35-2m74.16 10.77c-2.11 0-4.42-.06-6.91-.18m-67.25-10.61q-5.46-1.4-10.68-3m-13-4.34c-1.32-.49-2.62-1-3.88-1.51M92.06 238l-3.15-.41m24.58 2.37c-6.21-.3-13.52-1-21.43-2M78.66 236c-4.13-.66-8.34-1.42-12.57-2.24m-30.53-7.41c-4.52-1.36-8.87-2.8-13-4.34m66.32 15.52c-3.34-.45-6.77-1-10.25-1.53M77.48 4.66l.48.26m50.79 19a216.17 216.17 0 0 1-33.53-10.79m145.84 17.31h-.23m-86.49-1.79A255.72 255.72 0 0 1 128.75 24m112.08 6.49c-17.32 0-49.68 3.12-86.49-1.79M95.22 13.13C89.43 10.71 83.66 8 78 4.92M108.23 135c-8.2 1.72-16.67 3.34-25.13 4.83m88.54-25.54c-5 3.83-14 7.59-25.41 11.16M23.57 148.32c-10 1-18.16 1.64-23.57 1.7m171.64-35.72.09-.06m-25.5 11.21c-3.51 1.1-7.24 2.17-11.15 3.22m-52 11.17c-21.53 3.79-43 6.75-59.53 8.48m111.51-19.65c-8.29 2.23-17.39 4.35-26.86 6.34M97 201l-4.91.88M202.38 167c-6.72 4.53-15.48 8.81-25.6 12.77m0 0c-3.91 1.53-8 3-12.29 4.45m-86.13 19.89C46.3 209.06 16.71 211.25 0 209.9m92.12-8.06c-4.61.81-9.21 1.57-13.76 2.27m32.64-5.87q-7 1.44-14 2.76m53.62-12.45c-12.53 3.65-26 6.91-39.68 9.73m53.51-14.05c-4.44 1.5-9.07 2.94-13.83 4.32m52.78-22.27-1.06.73m-99.47-97.43q-5 3.23-9.76 5.86m0 0A141.2 141.2 0 0 1 79.66 82M103 69.5l-.12.08M79.66 82C47.31 95.64 23.17 90.12 0 90M78 5a162.99 162.99 0 0 1-13.08 7.57m-36.35 14a134.61 134.61 0 0 1-15 3m-13.31 1H0m13.53-1a102.49 102.49 0 0 1-13.31 1m50.36-11.3a166.7 166.7 0 0 1-22 7.35M85.12 0C82.83 1.68 80.43 3.33 78 4.92m-13.12 7.57c-4.63 2.41-9.42 4.64-14.3 6.64M67.85 0C50.31 6.85 25.55 13 0 15.28m97.67 51.57C76.93 80.47 45.11 83.72 12.29 82.07m0 0q-6.14-.3-12.29-.83m91.83-18.65a127.67 127.67 0 0 1-14.67 5.19m0 0a192.3 192.3 0 0 1-38.3 6.69m0 0a254.3 254.3 0 0 1-34.38.32m0 0c-1.5-.08-3-.18-4.49-.29M18.22 40h-.26m0 0a83.26 83.26 0 0 1-11.32 1.14m0 0A39.72 39.72 0 0 1 0 40.68m34.08 11.06A93.35 93.35 0 0 1 0 56.07m42.86-7.79a85.46 85.46 0 0 1-8.78 3.46m8.78-3.46h.07m26.57 5.81-.29.12M21.32 65.92A130.63 130.63 0 0 1 0 65.84m69.21-11.63q-7.45 3-14.72 5.27m0 0a151 151 0 0 1-33.17 6.44m33.3 165.42-2.07.86a195.1 195.1 0 0 1-42.37 8.44m0 0c-3.46.26-6.85.39-10.15.37m35.72-14.71-.19.08m0 0-2.2 1A89.79 89.79 0 0 1 0 231.21m203.62-4.47v.1m16 11.34c-6.67-2.1-12-5.43-15.44-10.29l-.54-1M241.06 241a73.6 73.6 0 0 1-21.41-2.85m21.41-7a85.45 85.45 0 0 1-13.18-2m0 0c-6.47-1.5-11-3.47-12.77-4.82l-1.39-.71m12.4-207.32c-5.85.16-11.82.12-17.78-.17m32.72-.69H241c-4.8.42-9.77.71-14.84.85m-17.78-.16c-14.4-.69-28.75-2.78-41.14-6.82m0 0A75 75 0 0 1 147.49 0m-129 47.88A57.82 57.82 0 0 1 0 48.54m30.44-3.75a92.38 92.38 0 0 1-12 3.09M211.4 77.66c-6.38-1-12.61-2-18.64-3.18m-22.69-4.7c-16.95-3.85-30.61-7.7-38.38-10.11m61.07 14.81c-8-1.5-15.63-3.1-22.69-4.7m71 11.44h-.17c-9.95-.85-19.87-2.09-29.49-3.55m29.66-3.18h-.16c-3.58-.28-7.29-.6-11.07-1m-71.75-17-.08-.05m71.83 17C204.59 71 176 66 159.63 57.37m0 0c-.53-.27-1-.55-1.55-.84m83-15.88h-.16c-3.74-.62-8.34-.72-13.28-2.47M201.4 48.71c-.57-.24-1.14-.48-1.68-.73m41.34 8.07c-13.72-.74-29.14-3-39.66-7.34m-17.73 4.49c-.6-.32-1.19-.64-1.75-1m33.25 10.36c-11.57-2-23-4.92-31.5-9.39m57.39 12.62h-.17q-2.83-.24-5.85-.56m0 0c-6.28-.64-13.1-1.49-19.87-2.65m25.89-14.08h-.18C231 47 220 45.36 216.73 42.66m-68.19-29.49a127.63 127.63 0 0 1-21.9-13m109.22 30c-40.51-3.14-65.74-7-87.32-17m-24.81-4.29C120 5.62 116.79 2.52 114.27 0m47.18 29.11c-16-3.73-28.67-12.43-37.72-20.23m5.83 15.45-.81-.38m0 0C119.51 19.6 104.63 8.63 94.76 0m146.3.07C240 .06 239 0 238 0M108.1 62.84c-1.68-1.23-3.32-2.5-4.93-3.79m53.68 25c-21.95-4.67-36.52-12.21-48.75-21.19m123.33 27c-38.26-1.06-95-19.22-111.44-29.85M95.22 13.13h.33m-.33 0a143.27 143.27 0 0 1-14.57-2.3m0 0a47.84 47.84 0 0 1-8.22-2.45m-8 4 .42.12m45.28 6.26c-20 4.21-27.52-1-45.28-6.26m53.88 16a159 159 0 0 1-40.07-.92m54.86-2.18a71.14 71.14 0 0 1-14.79 3.1m-40.07-.92c-11-1.66-21.11-4.47-28.11-8.44m-.18-.14.21.12m-2.7 8.33a33.91 33.91 0 0 1-6.81-4.73m113.27 5.92.2-.07m-.2.07c-46.2 17.18-88 8.92-106.46-1.19m-19.35-1-.22-.29M65.39 43c-15.3-3-27.87-7.64-34.54-14m0 0a19.79 19.79 0 0 1-2.32-2.59m137.08 13.21c-14.13 4.38-32.26 6.75-50.75 7.17m0 0A238.78 238.78 0 0 1 65.39 43m118.39-11.8c-4.66 3.33-10.88 6.13-18.17 8.38m23.68 3.31a261.72 261.72 0 0 1-53.16 9.43m81.13-21.12c-7.42 4.46-17 8.41-28 11.69M15.08 30.5c-.52-.35-1-.7-1.55-1.06M84.73 52c-26.56-2.72-51.49-9.49-69.65-21.5m-1.55-1.06-.1-.06m122.7 23a291.26 291.26 0 0 1-51.4-.38m32.69 23.4c-4.38 1.07-16.2 3.31-24.31 0m24.49-.09-.18.05m-24.31 0-.22-.09M80.48 82.2l-.82-.2m-.06 0h.06m60.8-.55c-24.36 6.29-39.94 5.35-60 .74M122 94.31C96.43 97 74.08 94.14 65.25 87m98.86-1.86A195.21 195.21 0 0 1 122 94.31m45.53 1.52c-10.36 5-22.38 7.75-34.9 8.94M132.59 104.8c-15.9 1.5-32.59.44-47.66-1.88m96.16-15.82a62 62 0 0 1-13.6 8.75m-82.56 7.07C66.34 100 50.23 95.27 41.07 91m175.13-1.56a137.06 137.06 0 0 1-25.33 12.44m-143.14.26C34.28 98.24 24.42 94.06 20.07 91m170.8 10.85A168.76 168.76 0 0 1 160 110m-71.58.56a277.24 277.24 0 0 1-40.73-8.43M160 110c-24.49 4.13-49.5 3.45-71.58.55m46.42 17.93.2.17m10.07 5.21a22.57 22.57 0 0 1-10.07-5.21m28.5 6.74h-.4m0 0c-8.47-.27-13.87-.55-18-1.52m26.93 5.25q-3.45.74-6.51 1.32m-57.8-5.57.46.13m14.57 4.34c-4.18-1.2-8.88-2.66-14.57-4.34m57.34 5.44c-20.45 3.92-28.71 2.91-42.76-1.1m14.73 9c-16-.63-32.44-3.84-54.44-8.51m100.68 3c-17.59 4.52-31.73 6.08-46.25 5.5m-54.42-8.49-.84-.18m82.05 14.57a210.55 210.55 0 0 1-52.29.23m0 0c-17-2.09-32.93-6.15-49.43-11.08m138.73 3.72a299.8 299.8 0 0 1-37 7.13M115 162.45a191.28 191.28 0 0 1-37.25-5.18m76.78 3.19a238.76 238.76 0 0 1-39.53 2m-37.25-5.18A252.08 252.08 0 0 1 42.93 146m175.58 2.83c-24.1 4.9-44.67 9.16-63.95 11.59m64.82-11.76-.87.17m-195.25-.7.31.15m193.26 6.88a270 270 0 0 1-36 10.82m0 0c-57.33 12.9-112.78 5-157.23-17.7m205.38 2q-6.06 2.63-12.12 4.91M111 198.24l-.29-.11m27.38 4.78c-10-.28-14.08-.42-17.37-1.14m0 0c-2.78-.6-5-1.63-9.72-3.53m22.68 11.44c-14.22-.06-21.88-2.66-29.44-5.76m55.87 3.78-2.11.3M96.69 200.8l.31.2m0 0c2.51 1 4.84 2 7.18 3m53.76 4a191.47 191.47 0 0 1-24.28 1.71m42.36-.35h.31m-.31 0q-4.41.6-8.49 1.12m-89.17-6.34L78 204m34.19 9.54c-11.87-1.21-21.14-4.37-33.84-9.4m61.65 9.25c-11.44.88-20.18.91-27.83.12m55.33-3.06c-10.75 1.37-19.75 2.35-27.5 2.94m46.42-.78C165.22 219.54 147 222.52 131 223m0 0a149.18 149.18 0 0 1-19.32-.72m81.41-11.88c-2.24.79-4.45 1.55-6.63 2.26m-74.77 9.62c-16.46-1.7-30.61-6-43.78-10.7m0 0c-4-1.43-7.85-2.9-11.68-4.36m26.21 17.65c-8.86-2.06-17.2-4.59-25-7.24m136-1.59a195 195 0 0 1-27.51 8.94m0 0a175.35 175.35 0 0 1-28.93 4.47m0 0a182.25 182.25 0 0 1-54.58-4.64m-25-7.24c-8.08-2.75-15.58-5.63-22.48-8.28m171.14 1.06q-6.42 3.1-12.67 5.63m-87.79 19.33a210 210 0 0 1-22.5-2.24m142.09-22.45c-4.82 2.23-10.52 4.69-17 7.16m0 0c-21.47 8.21-51.3 16.58-85.06 17.65m-8.69.11c-2.93 0-5.88-.09-8.86-.23m17.55.12q-4.31.13-8.69.11m-51-6.49a198.42 198.42 0 0 1-19.84-6.21m39.5 10.23c-6.49-1-13-2.32-19.66-4m-19.84-6.21a202.69 202.69 0 0 1-27.29-12.49m-2.26-48.51A62 62 0 0 1 0 163.06m18.48-2.14c-1.54.35-3 .66-4.39.92m-7.46 8.93c7.9-1.36 16.83-3 27.26-4.53m-27.26 4.53c-2.3.39-4.5.76-6.63 1.1M50.24 170h.13m-7.59 2.67C31.65 176 16 178.86 0 180.05m50.24-10c-2.15.89-4.66 1.78-7.46 2.62M19.19 184c-6.31.89-12.75 1.62-19.19 2.13m58.37-10c-7.92 2.14-17.18 4.21-27.09 6m0 0c-3.94.69-8 1.34-12.09 1.91m47.66-10.34c-2.61.83-5.45 1.66-8.48 2.48m24.37.19c-8.51 2.5-16.81 4.88-24.91 7.06m25-7.08h-.05m-24.91 7.06c-7.48 2-14.8 3.87-22 5.5m0 0A300.68 300.68 0 0 1 0 195.06m105.91-15.8c-12 3.67-28.12 7.76-46.16 11.32m0 0c-8 1.57-16.31 3-24.83 4.32m0 0a475.08 475.08 0 0 1-26.45 3.25m0 0c-2.83.27-5.65.5-8.47.71M140.9 182c-3.13-.38-7.08-1.06-12.93-2.17m44.11 1.59c-20 .4-22.35 1.66-31.18.58m5.14 7.66c-36.68 2.13-33.84 1.86-72.64-1.86m-33.31 6.38c7.46 1.33 13.57 2.46 18.78 3.4m33.49 4.31h-.23m0 0c-10.88-.4-18.52-1.64-33.25-4.3m6.38 8c-8 0-14.58-.12-20.55-.49m-36.24-6.95h-.09m36.32 7c-12.26-.78-22-2.66-36.23-6.93M0 208c4 .49 8.38 1.08 13.17 1.83m227.89-46.76a38.3 38.3 0 0 1-9.54-1.64m-6.59-2.43.15.06m6.44 2.36c-2.19-.66-4.28-1.48-6.44-2.36m16 12.8c-10.72 1.71-19.5 2.62-27.76 1.65m0 0a50.08 50.08 0 0 1-14.67-4m0 8.48a52.53 52.53 0 0 1-9.77-3.27m52.21 5.36c-5.26.39-10.55.6-15.71.59m0 0a119.18 119.18 0 0 1-26.76-2.67m-21.84 1.78-.23-.1m32.5 7a109.4 109.4 0 0 1-25.05-4.19m57.06 3.66a226.91 226.91 0 0 1-32 .5M184 182.49a58.87 58.87 0 0 1-7.22-2.75m64.28 15.32a183.16 183.16 0 0 1-26.76.91m-5.48-.34a129.32 129.32 0 0 1-44.33-11.44m-.15-.06.15.06M214.3 196c-1.83-.08-3.66-.2-5.48-.34m-58.16-7.12-.17-.07m90.57 10.41c-24.75 1.81-49.26 1.3-69.54-3.31m0 0a98.44 98.44 0 0 1-20.86-7m90.4 19.43c-7.85-1-14.41-1.59-20.43-2.44m0 0a86.14 86.14 0 0 1-23.83-6.36M88.94 237.51v.05m0 0-.68 1.16c-1 .79-2 1.57-3.1 2.33m-6.29-5.13-.18.11m0 0-1.73 1.08c-2.77 1.33-5.84 2.64-9.16 3.94m-1.68-7.27-2.24 1.14c-6.16 2.19-13 4.27-20.24 6.13m22.83-7.44-.35.17m112.88-1.2.17.31m8.34 8.17a26 26 0 0 1-7.77-7.12l-.57-1.05M241.06 7.55c-21.54 1.72-41.66 0-53.74-7.55M44.05 0C37.21 1.77 30 3.33 22.74 4.61m0 0C15.18 5.94 7.5 7 0 7.55m147.71 233.48c-.7-.49-1.39-1-2.06-1.51l-1-1.09m-18.81 1.39.11.14m.8 1.07L126 240m-11.45 1.07-.17-.18-.84-.95m0 0-.23-.26M95 241.06c-.48-.42-1-.83-1.4-1.24L92.06 238m-.06-.1.06.07m-73.35-17.44h.13m-.13 0A105.06 105.06 0 0 1 0 217.66m241.06 0h-.13c-1.77-.47-5.18-1.51-7.74-2.29m-.34-.11.34.11M50.9 110.43A147.85 147.85 0 0 1 17.71 106m0 0A177.57 177.57 0 0 1 0 100.65m28.11 11.71c-9.56-1.34-19.38-3.07-28.11-5m70 7.06a61.38 61.38 0 0 1-13.09.64m0 0a278.84 278.84 0 0 1-28.82-2.7m15.12 8.56c-5-.16-10-.38-15.12-.69m-12-.85c-5.45-.44-10.84-1-16.07-1.58m95.55.34-.38.09m0 0c-10.07 2.57-29.93 3.38-51.94 2.69m-15.12-.69c-4-.24-8-.52-12-.85m99.73.86c-13.06 4.9-47 7.89-82.49 8.27m0 0c-11.16.12-22.47 0-33.32-.43m117.07-8.35-.48.2m0 0c-.25.11-.51.21-.78.31m33.14-2.39c-3 2.72-20.1 8.2-44.92 13m45.16-13.21a2.77 2.77 0 0 1-.24.25m-73.77 17.53c-9 1.16-18.55 2.15-28.42 2.85m57.26-7.46c-8.74 1.67-18.45 3.26-28.84 4.61m-57.74 4c-5.79 0-11.63 0-17.49-.27m46.81-.88c-9.52.68-19.35 1.09-29.32 1.15m220.27-39.86c-2.6-1-5-2-7.08-2.89m-.09 0h.09m10.38 4.11c-1.14-.41-2.24-.81-3.3-1.22m3.3 7.88a164.21 164.21 0 0 1-19.23-5.25m0 0c-.71-.25-1.39-.51-2-.76m21.26 16.42c-14.82-1.7-28.35-4-38.17-6.86m0 0c-2.4-.69-4.58-1.42-6.5-2.18m-.33-.13.33.13M187 122.28c-8.09-1.9-13.87-4.26-16.33-7.11m70.44 12.92c-21.26-.81-40.8-2.69-54.11-5.81m54.11 16.89q-8.09-.3-16.18-1m0 0c-10-.82-20-2.08-29.78-3.87m0 0a218.83 218.83 0 0 1-40.8-11.3M10.15 241.07v-.4m25.69-3.91.77 4.31m16.58 0-.87-2.36m167 2.36.34-2.88m-35.79.34-1 2.54m45-11.8-2.12 10.23m-205.5-9.07 1.75 8.71M46.12 229l.12.3m0 0 1.65 4.13M9.8 231.17l-.89-11.52m-4.25-6.2v.16m-.85 4.8.85-4.8m54.07-8.13.17-7.94m-25.51 6.34 1.56-9m0-.23v.23m9.78 9.87v.31m0 3.23v-3.23m-24.8 4.65.71-8.15m2 20.46 2.8-7m-2.84 7.08v-.09m20.16 6.12.89-5.32m-5-12.05-3.19 8.68m28 9.58-.71 3.89M55 226.48l2.46-9m25.7 15.5-.16 3.5m.18-3.54v.13m22.33 6.07.17-3.83m0-.07v.07M123.4 239.68l-.17-4.24m30.29 1.76-.71-4.43m30.65-.88-1.06-5.5m25.86-8.68v.08m2.63 6.83-2.63-6.83m24.6-7.7 2.13 4.08M193.43 216l-.09-.23m2.48 6.38-2.39-6.15m-27.51 8.94v-.13m1.24 5-1.2-4.83M137 229.39v.06m.35 4.91-.35-4.91m-22.51 6.09-.35-6m.35 6v.06M81 232.58l1.41-7.77M67.9 211.52l-2.83 8.31M97.86 227.61l1.06-7.27m32.6 9.21L131 223m0 0v-.11m29.76-3.37 1.42 6m26.22-8-1.93-4.91m0-.05v.05m-19-2.35.05.19m1.9 6.9-1.9-6.9m-26.62 11.86-.87-8.92m0 0v-.12m-28.35 9 .53-8.72m-.53 8.8v-.08m.52-8.78v.06m-29.76 2.78 3.56-9.26m18.24-3.15-1.59 7.94M133.69 209.62l.33 3.95m-.35-4.25v.3M158 208v-.19m.71 3.72L158 208m-37.25-6.2-1.24 6.72M146.81 205.32l.18 3.72m-20.73-6.73.68-4.63m0-.15v.15m-51.35-9.37-3 11.52m33.3-9.21 1.24-11.34m34 10.63-.23-7.91m-83.07 1.49 1.93 7.17m-1.95-7.25v.08M84.91 184.85l-3-8.15m-46.07 12.13v.08m0 0 1.22 5.41m-21.43 3-.54-4.25m137.25 13L158 191.9m24.33 17.71 1.18-11.81m24.57 5.43.47 6.85m12-4.53.7-5.62M173.07 187.93l-1.63 7.66m0 .14v-.14m21.71 3.21.23-5.2m20.92 2.4-.05-.29m.05.29.66 3.72m19.6-3.78.24 3.07m-25.75-12.33-.23 9m.23-9.17v.19m-.23 9v-.05M184 182.49l-2.35 8m17-12.52-1.14 7.09m1.18-7.33v.24m26.73 9v-6.3m0-.08v.08m-12-7.17-.47 6.58m18.66-18.9v.23m0 0 1.39 11.34m-23.38 0 .23-8m27.17-2.36 1.18-9.92M6.26 185.63 7.32 194m23.92-12v.19m1.55 7.42-1.55-7.42m27.09-6v-.09m1.95 6.55-1.92-6.46m-14 3.1-1.57-6.63m0 0v-.1M19.19 184l-.71-6M7.5 179.08l-.87-8.31m0-.19v.19m24.78 4.59L29.64 167m-13.46 2-2.09-7.14m0 0v-.12m11.52 1.06 5.27-10.8m33 12.05-2 8.33m37.91-1.42-.18 7.44m37-6.38.89 6.91m44.27-6.84-1-6m1 6.15v-.11m-1.05-6.27v.23m36-10.82-.09-.21m.1.21 2.73 6m-24.8-7.44 2.48 7.79m-41.14 8.6-1.39-9.76m0 0v-.16M115 162.45v-.2m0 9.57v-9.37m-37.25-5.18-2.08 9.59m2.12-9.75v.16m-14.49-4.05 3.19-8.69m45.16 17.72.35-7.79m53.15 4.43-.86-4.66m0-.13v.13m-26.77 1.64v-7.52m0-.27v.27m-43.06-6.12-2.12 8.86m90.18-7.8 2.48 7.44m-18.08-4.6-1.37-5.68m0-.17v.17m-42.76-1.1-1.4 7.31m1.4-7.31v-.13m22.32-5.34v8.88m0-9v.15m6.91.73.71-4.6m-148-27.88 1.66-7.56M32.12 105v.22m0 0-.44 3.56m-13.94-2.84v.06m0 0-.47 4.41m30.24 4-.24-4m-19.13 9.83v-7.87m0 8v-.09m0-7.94v.07m28.82 2.29v.41m0 5.74v-5.74m22 1 .71 4.25M7.79 109.22l-.23 9.21m9 9.69-.46-8.74m0 0v-.24m27.17 1.78v-.13m0 .13v7.2M72.05 121l.7 5.67m27.4-7.8 1.19 4.49m-95.2 5L6.38 139m27.87 0-.93-10.47m0-.16v.16m26.91 8.58-1.18-9.21m31.42 5.2-1.18-7.56m29.76 1.89-3.24-7.17m-.06-.16.06.16M18 148.67l-.46-9.25m0 0v-.2M48 144.89l-1.14-6.62m0 0v-.23m29.64 2.6-1.18-5.22m0 0-.06-.28m28.88-4.42v.09m0 0 1 4.69m26.58-6-1.77-4.43m26.39-8 2.31 3.72m8.15 16 2.48-8.51m24.27 16.66 1.58-10.55m0-.08v.08m29.78 3.87-.71 10.93m.71-10.93v-.05m-9.22-1.07.54-10.27M187 122.21v.07m0 0-1.76 9.85m17.72-21.26v.12m-2.28 13.53 2.21-13.52m27.66 5.55-.89 10.81m-7.83-25.16L219 114.42m2.87-12.42v.18m15.92-2.63-1.79 6.54m1.77-6.73-.05.2m-16.07-10 4.43 9m-35.25 3.23 2.12 7.4M161.06 116l-1.06-6m-35.44 9.72-.35-6.73m-36.32 4.07.53-6.5m-32.6-6.08-1.41 6.38M23.09 102l3-7.62M50.2 94.68l-2.46 7.39m48.52 9.27.54-6.92m35.79.28.7 7.87m-.71-8v.1m34.9-9 4.43 11.51m27.46-18.97.08.18m0 0 3.81 7.8m-53.5-6.91 2.66 11.72m-29.59 4.25L122 94.31m0 0v-.09m-35.79 0-1.24 8.67M80.48 82.2l-3.36 10.07m35.43-6.35-.18 8.86m38.26-11.52 2 5.14m-35.61-3-1.81-9.4M95 84.65l1.59-8.15m9.21.36V71m0-.14V71M12.29 82.08v-.26m.18 8.5-.17-8.25m44.46 6.84-1.77-8m22.17-13.13v-.14m2.31 7.44-2.27-7.3M39.74 82l-.87-7.52m0 0v-.09m-34.36.41v-.06m.18 6.73-.17-6.67m17.18.12-.35-9m33.17-6.39-.05-.16m3.19 12.4-3.17-12.29M37.07 63.7l-3-12M6.25 56.31l.89 9.56m12.58-11-1.23-7m0-.08v.08M6.64 41.14v-.25m.89 7.8-.86-7.55m-3.93-.25v-8.68m78-21.44v.06m0 0L79.25 17m16.3 3.37L95.37 29M67 13.43l-3.87 10.63m15.59 3.37v.14m-1.42 9.07 1.39-9.07m-30.8-.14-3.71 9.18m48.19 1.77v7.8m-28 2.66 1-5.83m0 0v-.2M30.85 29.07v-.05m-4.43 7.8 4.4-7.75M46.3 44.61l-.89 3.9m-30.33-18-3.69 6.32m3.73-6.38v.06m69.27 26.15.34-4.66m0-.07V52m35.44-15-1.41-8.5m20 16.3-2.13-10.63M115 53.12l-.18-6.32M136.08 52.18v.13m.52 6.43-.52-6.43m31.52-4.56-2-8.18m-.08-.32.08.32m23.66 3.22v.09m1.74 6.87-1.75-6.82m41.26-6.82L226.47 31m6 15.89 1.18-7.09m-14.17 4.49L216.85 53M235.47 55.87l-.47 9.37m-33.6-16.53.09-.2M197 58.2l4.4-9.49m13.77 13.88-1.63 8.83m1.63-8.83v-.14M183.78 53l-.11.2m-5.8 10.9 5.8-10.9m9.08 21.3 1.41-6.13m35.67 5v.18m0 0-.46 6.2m-18-2.12v.09m-1.17 9.83 1.17-9.83M167.69 78.32l2.36-8.49m-10.42-12.46-3.25 8.86m3.25-8.86.05-.12m-24.33 20.08 3.31-8.5m37.56 12L175 86.3m-66.81-23.62-.09.16m0 0L104.41 70m-3.07-64L98 14m25.75-5.19v.05m-6.09 8.21 6.09-8.21m24.85 4.2v.09m-4.68 9.36 4.68-9.36m38.78 11.48-.47 6.14M167.2 9.43 164.64 19m2.6-9.68v.13m41.14 6.82-.71 11m.71-11.1v.09M0 150.12V150M0 30.27v.17M0 90v.36m241.06-59.92v-.18m0 60.06V90"/></pattern><pattern id="New_Pattern_Swatch_27" data-name="New Pattern Swatch 27" width="153.7" height="153.43" patternTransform="matrix(.94 0 0 1.41 467.16 78.76)" patternUnits="userSpaceOnUse"><path class="cls-1" d="M0 0h153.7v153.43H0z"/><path class="cls-2" d="M15.51 15.38V6.23m0-.19v.19m26.57-.1v.16m0 8.86V6.29m24.8.16v8.7m25.87-9v.18m0 8.52V6.28M118.62 6v.34m0 8.84V6.31m26.57 8.87v-8.7m-13.46-2.72v.15m0-3.91v3.76M106.57 0v3.55M80.7 0v3.2M54.13 0v3.55M29.32 0v3.2M2.39 0v3.91M131 18.34v8.47M105.86 26.82V18M80 17.63v.49m0 0v8.34M53.42 18v8.7m0 .12v-.12m-24.8.12v-8.88m0-.31v.31M1.69 27v-8.66m0 8.67v.16M144.13 37.8V30M119 29.68v8.21m0 .26v-.26M93.1 37.44v-8.11m-26.57.35v8m0 .1v-.1m-24.8-8.37v8.11m-26.93.71V38m0-8.79V38M4.17 49.84v-.2m0-9v9m128.26-9v8.82m-25.86 0v-9.15M80 49.13v-8.47m-24.8-.35v9m0 0v.13m-26.93-9.6v.32m0 0v9.28m118 2.48v.27m0 0v7.88M121.1 52v8.12m0-8.38V52m0 8.43v-.31m-25.87-.4V52m0-.59V52m-26.58 8v-7.86m0 8V60m0-8.21v.36m-24.8-.72V52m0 8.09V52m-26.93 8.1V52m0-.3v.3m116.93 18.3v-7.6m0 7.6v.1m-25.16-7.77v-.13m0 7.41v-7.28M82.83 70.4v-.28m0-7.49v.11m0 0v7.38M56.25 63v7.22m0 .18v-.18m-24.8-7.58v7.66m0 0v.1M4.52 62.7v.1m0 7.63V62.8M145.9 81v-7.74m-25.16 8.12v-.3m0-8.17v8.17m-25.86-.29v-8m0-.21v.21m0 8V81m-26.58-.11v-8m0 8.12v-.14M43.5 72.8V81m0-8.47v.25M16.57 72.46v.27m0 8.65v-.18m0 0v-8.47M134.21 91.3v-7.72m-25.16-.07v-.33m0 8.12v-7.79m-25.87.11v7.61m0 .42v-.42m0-8.08v.47m-26.57 8v-.32m0-7.78v7.78m0-7.78v-.37m-24.81-.32v.63m0 8.19v-.2m0 0v-8M4.88 91.66v-7.91m0-.21v.21M148 102.64v-8.12M122.87 103v-.21m0-8.61v8.61M97 93.92v8.63m0-8.74v.11m0 8.72v-.09m-26.57-8.38v8.47m-24.81 0V94m0 0v-.14m-26.93 8.87v-8.81m114.45 19v-7.38m-25.14-.39v7.78m0 .34v-.34m-25.87-.27v-7.41m0 7.67v-.26m0-7.86v.45m-26.58 7.51v-7.61m0 7.77v-.16m-24.8-8v.28m0 7.81v-7.81m-26.94 8.23v-.22m0-7.54v7.54M147 115.59v-.16m0 .16v8.31m-25.16-8.47v-.36m0 .36V124m0 .24V124m-25.86-8.63v8.39m0-8.39v-.66m0 9.18v-.13m-26.58-8.2v-.46m0 .46v8.33m-24.8 0v-8.49m0 0v-.69m-26.97 9.19v-8.47m115.16 19.81v-8.6m-25.16 9v-9.18m0-.13v.13m-25.86 8.83v-8.72m0-.11v.11m-26.58.25v8.69m0 .13v-.13m-24.8-.22v-8.83m-26.93 9.3v.24m0-9.38v-.09m0 .09v9.19m142.08 2.35v.23m0 7.17v-7.17m-25.15-.2v7.43m0 .3v-.3m0-7.82v.39m-25.87 0v-.55m0 7.6v-7M68 145.87v-.46m0-7.17v7.17m0-7.17v-.17m-24.81 0v.07m0 7.4v-7.4m-26.93 7.76v-.21m0-7.55v7.55M131.72 3.76A12.85 12.85 0 0 1 137.67 5m0 0 .08.06-.36-.16.28.1m-5.94-1.19A14.43 14.43 0 0 0 125 5.16a12.65 12.65 0 0 1-6.37 1.15M.12 4.09A20.47 20.47 0 0 1 9.48 5a18.5 18.5 0 0 0 6 1.22m0 0a15.35 15.35 0 0 0 7-1.38c3.31-1.53 10.63-1.37 12.76 0a17.46 17.46 0 0 0 6.85 1.44m50.67 0a17.89 17.89 0 0 0 6.73-1.12C105.15 3 109.88 3.78 112.24 5a17 17 0 0 0 6.38 1.3m-76.54 0A12.15 12.15 0 0 0 48 5c4.26-2.3 9.69-1.38 13 .3C63.65 6.68 70 7 73.73 5a15.3 15.3 0 0 1 12.76-.16 14.48 14.48 0 0 0 6.26 1.43m60.8-2.19a11.52 11.52 0 0 0-3.4.92c-3.73 1.22-5.15 2.72-12.48 0m-31.81 13a17.83 17.83 0 0 0 6.61-1.12c5.67-2.14 10.4-1.38 12.76-.15s9.21 2.14 12.75.15 10.24-1.69 12.68-.21m-122 1.28a15.46 15.46 0 0 0 6.85-1.38c3.3-1.53 10.63-1.38 12.75 0 2.6 1.22 8.51 2.45 12.76.15s9.68-1.37 13 .31a14.22 14.22 0 0 0 6 1.1m73.56-.49c-.85-.24-1.81-.56-2.89-1m0 0 .08.06-.35-.16.27.1M80 18.12a15 15 0 0 0 6.74-1.41 15.27 15.27 0 0 1 12.75-.15 14.71 14.71 0 0 0 6.37 1.44M.12 17.63c4.91 1.36 6.42.12 9.6-.92 2.83-1.37 8.74-1.53 12.75 0a18.45 18.45 0 0 0 6.15 1.23m24.8 8.75a12.12 12.12 0 0 0-5.2 1.36c-4.25 2.3-10.16 1.07-12.75-.15-2.13-1.38-9.45-1.53-12.76 0a16.74 16.74 0 0 1-13 .15 20.1 20.1 0 0 0-8-1m151.86.16a11.14 11.14 0 0 0-3.16.88c-3.74 1.21-5.17 2.72-12.49-.05m-84.5-1.35a16.32 16.32 0 0 1 7.79 1.67c2.68 1.36 9 1.68 12.76-.31a15.3 15.3 0 0 1 12.76-.15 14.69 14.69 0 0 0 6.37 1.43M137.9 28l.08.05-.35-.15.27.1M.12 27.17c.5-.07 1-.13 1.57-.16m91.41 2.32a17.85 17.85 0 0 0 6.62-1.12c5.67-2.15 10.39-1.38 12.75-.16s9.22 2.15 12.76.16 10.23-1.69 12.67-.21m13.47 11 .08.06-.36-.16.28.1m0 0c-2.44-1.49-9.18-1.77-12.68.2s-10.39 1.06-12.75-.2a13.43 13.43 0 0 0-7-1.15m34.58 1.85c-.67-.21-1.39-.45-2.18-.76M14.8 38a12.78 12.78 0 0 0-4.37 1c-3.34 1.07-4.83 2.39-10.31.7m66.41-2a11.7 11.7 0 0 0-4.84 1.3c-4.25 2.29-10.16 1.07-12.76-.16-2.12-1.37-9.45-1.53-12.75 0a15.65 15.65 0 0 1-7.92 1.33m38.27-2.47a16.24 16.24 0 0 1 8.15 1.64c2.68 1.37 9 1.69 12.75-.3a15.27 15.27 0 0 1 12.76-.16 14.56 14.56 0 0 0 6.38 1.43M119 37.89a20.23 20.23 0 0 0-5.79 1.3 17.63 17.63 0 0 1-6.61 1.12M14.8 38a20.1 20.1 0 0 1 8.38 1 18.5 18.5 0 0 0 5.08 1.16M.12 50.12a18.36 18.36 0 0 1 4.05-.48m149.38.48a9.64 9.64 0 0 0-1.75.61c-2.09.68-3.46 1.45-5.55 1.51m-6.93-1.56h.08l-.35-.15.27.1m6.93 1.56a18.58 18.58 0 0 1-6.93-1.56m-84.13-1.27a12.08 12.08 0 0 0-5.55 1.37A12.09 12.09 0 0 1 43.85 52m11.34-2.66A16.43 16.43 0 0 1 62.63 51a14.36 14.36 0 0 0 6 1.11m0 0a15 15 0 0 0 6.74-1.41 15.28 15.28 0 0 1 12.75-.16A15 15 0 0 0 95.23 52m-78.31 0a15.47 15.47 0 0 0 7.21-1.38c3.3-1.53 10.63-1.37 12.75 0a17.66 17.66 0 0 0 7 1.45M4.17 49.64a19.62 19.62 0 0 1 7 1.09A18.81 18.81 0 0 0 16.92 52m78.31 0a17.64 17.64 0 0 0 5.9-1.13c5.67-2.14 10.4-1.38 12.76-.15A17.75 17.75 0 0 0 121.1 52m0 0a11.77 11.77 0 0 0 5.55-1.16c3.5-2 10.23-1.69 12.67-.2M68.65 60a12.29 12.29 0 0 0-5.9 1.37c-4.25 2.3-10.16 1.07-12.76-.15-1.09-.71-3.55-1.1-6.14-1.1M4.52 62.8a20.28 20.28 0 0 1-4.4-1.09m82.71 1a14.14 14.14 0 0 0 5.67-1.38 15.24 15.24 0 0 1 12.75-.15 15.38 15.38 0 0 0 7.44 1.42m37.56-2.51a14.05 14.05 0 0 0-6.49 1.39c-3.55 2-10.4 1.08-12.76-.15a12.93 12.93 0 0 0-5.9-1.2M4.52 62.8c3 .34 4.44-.62 7-1.44 2.83-1.38 8.74-1.53 12.75 0a16.85 16.85 0 0 0 13-.15 17.15 17.15 0 0 1 6.61-1.1m109.7 1.61-1.12-.41m0 0h.08l-.35-.15.27.1m-6.18-1.19a12.88 12.88 0 0 1 6.18 1.19m-69.6 1.43a15.55 15.55 0 0 1-7.09-1.07A16.22 16.22 0 0 0 68.65 60m40 2.63a17.26 17.26 0 0 0 5.55-1.11 20.26 20.26 0 0 1 6.86-1.35m-26.18 12.6a17.65 17.65 0 0 0 5.55-1.11c5.66-2.14 10.39-1.38 12.75-.15s9.21 2.14 12.76.15a15.37 15.37 0 0 1 7.91-1.36m-39 2.47a15.31 15.31 0 0 1-7.45-1.42 13 13 0 0 0-4.6-1.23m-66.23 2.61a15.29 15.29 0 0 0 6.85-1.38 19 19 0 0 1 8-1m-31.3.39a20.55 20.55 0 0 1 4.4-.31m149 .31a10.19 10.19 0 0 0-2.46.77c-3.73 1.21-5.16 2.72-12.48-.05M43.5 72.8a17.72 17.72 0 0 1-7.32-1.45 11.06 11.06 0 0 0-4.73-1m-26.93.13a18.74 18.74 0 0 1 5.91 1.08 18.38 18.38 0 0 0 6.14 1.22m26.93.07a12.05 12.05 0 0 0 5.43-1.29 12.75 12.75 0 0 1 7.32-1.3m77.6.09a11.22 11.22 0 0 1 4.76 1.16m-70.31 1.4a14.6 14.6 0 0 1-6.38-1.1 16.2 16.2 0 0 0-5.67-1.6m12 2.7a14.8 14.8 0 0 0 6.38-1.4 14.48 14.48 0 0 1 8.15-1.39m55.78 1.34.08.05-.35-.16.27.11m-4.4 12.12a11.89 11.89 0 0 0 5.55-1.16c3.5-2 10.23-1.69 12.67-.21m0 0 .08.06-.35-.16.27.1M68.3 80.89a12.21 12.21 0 0 0-5.55 1.37 12.35 12.35 0 0 1-6.14 1.29m-24.81-.09a15.07 15.07 0 0 0 5.44-1.35A16.68 16.68 0 0 1 43.5 81m0 0c2.71 0 5.35.35 6.49 1.09a17.7 17.7 0 0 0 6.62 1.44m26.57.07a15.73 15.73 0 0 1-7.44-1.05 16.3 16.3 0 0 0-7.44-1.68m85.25 1.73c-.36-.12-.73-.26-1.12-.41m-18.22 1.37a17.92 17.92 0 0 1-7.21-1.29 13 13 0 0 0-6.26-1.19M4.88 83.75a20 20 0 0 1-4.76-1.13m16.45-1.42a13.47 13.47 0 0 0-5.08 1.07c-2.43.78-3.88 1.7-6.61 1.48m11.69-2.55a19.7 19.7 0 0 1 7.67 1.07 18.21 18.21 0 0 0 7.56 1.19m51.38.16a13.69 13.69 0 0 0 5.32-1.36 13.74 13.74 0 0 1 6.38-1.47m14.17 2.72a17.54 17.54 0 0 0 5.19-1.09 20.05 20.05 0 0 1 6.5-1.34m-11.69 2.43a15.39 15.39 0 0 1-7.8-1.4 14.29 14.29 0 0 0-6.37-1.32M97 93.92a15.59 15.59 0 0 1-8.15-1.38 13.78 13.78 0 0 0-5.67-1.31m-78.3.38a19.4 19.4 0 0 1 7 1.08 18.2 18.2 0 0 0 6.85 1.23m78.31 0a17.78 17.78 0 0 0 4.84-1.07c5.67-2.15 10.4-1.38 12.76-.16s9.21 2.15 12.75.16 10.26-1.69 12.69-.2M45.62 94a11.45 11.45 0 0 0 4.73-1.26 12.39 12.39 0 0 1 6.26-1.36m-37.92 2.54a15.2 15.2 0 0 0 6.15-1.38 17.77 17.77 0 0 1 7-1.09m121.75.84a7.79 7.79 0 0 0-1 .4c-3.73 1.21-5.16 2.72-12.47 0M45.62 94a17.79 17.79 0 0 1-8-1.41c-1-.67-3.33-1.06-5.79-1.09m-31.71.79a16.74 16.74 0 0 1 4.76-.68m135.16 1h.07l-.35-.15.28.11m-56.86-1.34a14 14 0 0 0-7.08 1.46c-3.78 2-10.08 1.67-12.76.31a16.35 16.35 0 0 0-6.73-1.67m-25.87 13.75a15 15 0 0 0 6.14-1.38c3.31-1.53 10.63-1.37 12.76 0 2.6 1.23 8.5 2.45 12.76.16a13.08 13.08 0 0 1 8-1.22m52.44.13a19 19 0 0 0-9 1.24c-5.67 2.14-11.1.76-13-.31a12.09 12.09 0 0 0-3.9-1.15m-14.88 2.7a14.41 14.41 0 0 0 6-1.4 14.82 14.82 0 0 1 8.86-1.3m56.55 1.78c-.46-.15-1-.33-1.47-.52m-152 .52c6.07 2 7.54.65 11-.48 2.84-1.37 8.75-1.53 12.76 0a18.2 18.2 0 0 0 6.85 1.23m121.34-1.27c-2.42-1.49-9.17-1.77-12.68.2s-10.39 1.07-12.75-.15a11.37 11.37 0 0 0-3.78-1.08m-40.75 2.47a14.94 14.94 0 0 1-6.73-1.09 16 16 0 0 0-5-1.52m81.65 1.17h.08l-.36-.16.28.11m1.47 9.71a9.64 9.64 0 0 0-1.75.61 24 24 0 0 1-4.84 1.46m0 0c-1.75.2-3.94-.11-7.63-1.5m-94.77 1.32a18 18 0 0 1-7.51-1.36c-1.09-.71-3.55-1.1-6.14-1.09m13.82 2.52a11.65 11.65 0 0 0 5.08-1.28 12.27 12.27 0 0 1 5.9-1.37m-24.8.13a17.16 17.16 0 0 0-6.61 1.09 16.81 16.81 0 0 1-13 .15 19.61 19.61 0 0 0-7.32-1.08m65.55 2.48a15.22 15.22 0 0 1-6.73-1.09 16.22 16.22 0 0 0-7.09-1.68m66.26 2.66a11 11 0 0 0 4.85-1.14 14.05 14.05 0 0 1 6.49-1.39m6.19 1.2h.07l-.35-.15.28.11m-17.53 1.34a18.52 18.52 0 0 1-7.91-1.3 13 13 0 0 0-5.9-1.2m-107.87.61a17.86 17.86 0 0 1 3.69-.47m129.33-.16a12.77 12.77 0 0 1 6.19 1.2m-70 1.44a14.61 14.61 0 0 0 6-1.4 13.86 13.86 0 0 1 6.73-1.47m13.82 2.72a15.5 15.5 0 0 1-7.8-1.4 14.15 14.15 0 0 0-6-1.32m13.82 2.72a17.57 17.57 0 0 0 5.19-1.1 20.26 20.26 0 0 1 6.86-1.35m45.56 12.87c-.64-.19-1.32-.43-2.07-.71m-69.71 1.43a15.12 15.12 0 0 1-7-1.08 16.47 16.47 0 0 0-5.44-1.58m38.27 2.55a17.75 17.75 0 0 0 5.67-1.12 19.13 19.13 0 0 1 8.5-1.28m-14.17 2.4a15.16 15.16 0 0 1-7.32-1.43 12.82 12.82 0 0 0-4.37-1.21m-14.17 2.75a14.29 14.29 0 0 0 5.78-1.38 14.71 14.71 0 0 1 8.39-1.37m55.54 1.32c-2.44-1.49-9.17-1.77-12.67.2s-10.39 1.07-12.75-.15a11.69 11.69 0 0 0-4.19-1.14M3.46 126.57c3 .37 4.52-.6 7.08-1.43 2.84-1.38 8.74-1.53 12.76 0a16.78 16.78 0 0 0 13-.16c3.31-1.53 10.63-1.37 12.76 0 2.6 1.23 8.5 2.46 12.75.16a12.89 12.89 0 0 1 7.56-1.28m82.12 1.23h.09l-.36-.16.27.11m-148 1.48a18.46 18.46 0 0 1-3.34-.76m153.43 10.36a9.18 9.18 0 0 0-2 .66c-2.25.73-3.66 1.57-6 1.51M68 138.24a15.47 15.47 0 0 0 7.2-1.41 15.3 15.3 0 0 1 12.76-.15 14.71 14.71 0 0 0 6.61 1.43m-91.11-2.35a19.87 19.87 0 0 1 7.44 1.07 16.78 16.78 0 0 0 13-.15c3.31-1.53 10.63-1.38 12.76 0a17.66 17.66 0 0 0 6.49 1.43m51.38 0a17.84 17.84 0 0 0 6.37-1.11c5.67-2.15 10.39-1.39 12.75-.16a17.46 17.46 0 0 0 6.74 1.31m-120.27-2a17.74 17.74 0 0 1 3.34-.41m116.93 2.38a12.43 12.43 0 0 0 6-1.15c3.5-2 10.24-1.69 12.67-.21m-83.89-1.32a12.19 12.19 0 0 0-5.79 1.37 12.34 12.34 0 0 1-6.26 1.28m102.4.23a19.92 19.92 0 0 1-6.46-1.56m0 0 .09.05-.36-.15.27.1m-83.89-1.32a16.35 16.35 0 0 1 7.21 1.68 13.84 13.84 0 0 0 5.55 1.1M29.32 148a18.22 18.22 0 0 1-6.73-1.23 19.41 19.41 0 0 0-6.38-1.09m115.51 2.4a12.78 12.78 0 0 0 6.38-1.15c3.51-2 10.24-1.69 12.67-.21m-134.56-1a15.21 15.21 0 0 0-6.37 1.1c-3.21 1-4.71 2.29-9.72.87m131.61.42a16.81 16.81 0 0 1-6.38-1.3 12.4 12.4 0 0 0-5-1.18m30.38 1.13.09.05-.36-.15c.1 0 .19.06.27.1m2.78.93c-.83-.23-1.74-.54-2.78-.93M68 145.41a12.67 12.67 0 0 0-6.86 1.34 12.72 12.72 0 0 1-7 1.25m-24.81 0a15.18 15.18 0 0 0 6.26-1.38c3.31-1.53 10.63-1.38 12.76 0a17.43 17.43 0 0 0 5.79 1.4m66.26-2.42a19.6 19.6 0 0 0-7.8 1.32c-5.67 2.15-11.1.77-13-.3a15.3 15.3 0 0 0-12.76.15c-3.78 2-10.08 1.67-12.75.31a16.43 16.43 0 0 0-6.09-1.67m63.73 2.59v.06m0 5.38v-5.38m-25.16 5.37v-5.3m-25.87 5.3v-5.17m-26.57 5.17V148m0 0v-.2m-24.81 5.63V148m-26.93 5.42v-5.27" style="clip-path:url(#clip-path-2)"/></pattern><pattern id="New_Pattern_Swatch_19" data-name="New Pattern Swatch 19" width="151.65" height="151.65" patternTransform="matrix(1.17 0 0 1.17 574.23 96.03)" patternUnits="userSpaceOnUse"><path class="cls-1" d="M0 0h151.65v151.65H0z"/><path class="cls-2" d="M12.84 0c-4.06 1.55-7.1 3.29-7.53 6.73-.57 4.63 0 6.19-5.31 8.72m0 19.64c4.74-5 3.54-7 3.54-10.29 0-3.54.71-5 5.32-6s5-8.86 6.38-12.4c.94-2.4 5.31-4.26 9.5-6.4M9.92 21.26c3.19-1.42 4.25-5.67 6.38-11s5.31-5 9.57-6.38C29.33 2.74 29.5 2.53 30.21 0M3.9 33.31c-.26 4.07-1.43 5.58-3.9 7.29m0 49.14c2.53-1.45 4.72-.73 7.8-.45 3.89.36 4.6-.71 6.37-2.48a20.42 20.42 0 0 1 5-3.9c2.84-1.77 2.48-2.83-.35-5s-3.9-3.89-11-5.67-1.44-4.56 2.1-5.24 6.73-1.42 9.92-4.25 11.34-5 14.88-7.44.71-6.38-3.18-6-2.48-3.25-7.45-4.31-12 7.09-18.42 8.15S2.83 43.94 5 40.39s1.77-3.54 1.42-7.08 3.54-8.51 6.73-11 2.83-2.83 3.54-6.73 6.7-7.78 10.59-8.85C29.91 6 32.37 3.38 34.56 0M0 73.87c1.75 1.92 3.48 3.52 5 3.73 2.48.35 4.25 1.06 2.48 3.19s-2.13 1.77-5 1.77A16.14 16.14 0 0 0 0 82.6m0-25.27a18.76 18.76 0 0 0 10.63-1.7c4.61-2.48 11-4.61 8.5-1.77s-4.25 4.61-7.79 5.31A36.15 36.15 0 0 0 0 63.45M17.36 50c3.9-2.48 7.09-3.19 7.09-.71s-1.06 1.42 2.12 2.13 3.9 2.12.71 3.19-6.73 2.12-8.5 4.25A13.67 13.67 0 0 1 11 63.43c-2.83.35-6.37.7-7.79 3.18m2.12 7.45c4.61 1.06 10.28 1.77 9.57 5s-.35 2.83-2.83 4.6-3.57 2.09-6.4 1.73c-2.19-.27-3.54-.75-5.67.35M43.82 0C38.07 6.4 35 11.05 31.18 11.34c-4.61.35-8.5 7.09-12.4 11.34S8.5 33.31 9.21 36.14s.71 4.25-.35 6-1.42 4.6 6.73 1.41 10.63-3.19 13.47-1.77 4.6 1.06 6.73 1.06 5 .36 5 3.19.71 3.55 2.48 5.32 1.77 4.6 0 7.44-1.77 3.54-5 3.54-5.27 1.1-8.15 2.51S26.22 67 23 67.68s-9.18 3.54-2.8 5.32 12.4 7.8 8.5 8.86-3.9 2.47-5.7 5.31-7.09 8.14-10.63 7.08A19.35 19.35 0 0 0 0 95.44m19.13.56c-3.54 3.19-6 5-10.27 4.26A13.49 13.49 0 0 0 0 101.89M55.42 0a17.57 17.57 0 0 1-6.52 4.25c-3.9 1.42-5 2.84-7.8 6s-4.6 4.6-7.08 5.31-8.15 5.32-9.22 7.8.36 3.89-3.19 5.66-5.31 3.19-5.67 5.32.36 4.25 4.61 2.48 8.15-2.48 9.92-1.06a9.66 9.66 0 0 0 6 2.12c2.12 0 7.08-1.06 8.5 1.42s0 3.9 3.9 6.38 4.6 2.12 3.9 5.67-.36 4.25.7 6.38 1.42 6.37-4.6 7.08-10.63 1.07-13.47 3.55-6.73 3.89-3.54 6.73 8.5 5.67 4.25 9.21-11 7.8-12.4 11.69-6.38 9.92-11 9.92c-4 0-8-1.34-12.76.9m34.42-14.33c-2.13 2.48-.71 2.48-3.19 5s-4.25 2.84-6 6.38-5 6.38-11.7 7.09c-5.74.6-9.93.17-13.46 2.23M67.42 0C64.29 3.83 61 5.91 57.4 6.73c-4.6 1.07-5.31 1.07-7.09 3.9s-1.77 2.48-5.31 3.9-8.86 5.31-8.86 8.5 1.06 6.73 6.73 7.44 10.28 1.77 12.41 5a23.53 23.53 0 0 0 7.08 7.44c3.19 2.13 8.15 6.38 6 10.63s-3.52 3.86-2.1 7.46 2.83 7.79-1.77 9.21-12.4 3.19-14.53 5-2.83 2.12-3.9 4.6 0 2.49-2.48 3.9c0 0-.59-.71-2 .71a8.8 8.8 0 0 0-3.08 5.44c-.47 2.83.24 4.48-1.41 6.13a8.49 8.49 0 0 0-2.6 4.26 21 21 0 0 0-.12 3.66c-1.06 3.54-1.06 4.61-6 6.38s-2.48-.36-5.67 2.48-6.74 3.54-12.4 3.9c-4.94.3-4.24.88-10.28 3.83M61.3 36.85a48.2 48.2 0 0 1-6-8.15c-1.42-2.48-6-1.42-8.86-2.48s-1.77-5 0-6.73 2.48-1.06 3.19-3.19 3.89-2.84 7.08-3.9 2.84-1.42 5-3.19A24.38 24.38 0 0 1 69.09 5c2.91-1.18 4.57-1.41 6.43-5m19.53 0C93.92 5.3 92 9.67 88.94 11.69c-4.25 2.84-13.82 7.8-14.53 10.31s1.42 2.83 2.84 5.67 1.06 7.08 5.66 9.21 11.7 4.61 13.47 7.09 3.19 2.48 5.31 3.19 4.61.7 1.07 3.18c0 0 1.41-.7-1.24.71s-6.38 3-6.2 6-.18 6 1.59 7.79A6.7 6.7 0 0 1 99 70.16c0 1.94.17 6.2 4.25 6.38s5.85-.36 8.15 1.59 6.91 2.3 9.56 1.77 7.27-2 8.69-1.42 3.19 1.6 1.06 3.37-6.73 5.32-11.16 5.67-7.62.18-9.75.88-3.54.36-6.55.18-14.18-.88-17.37.36-7.57 3.89-10.05 4.06-10.46 3.19-11.16 6.2.7 5 2 6.91 3.54 4.25 1.06 8.33-6 10.27-8.51 11.34-14 3.54-15.76 6.2-3.72 7.79-4.61 10.45-1.24 3.9-1.24 3.9a55.09 55.09 0 0 1-3 5.31m69.26-79c-3.19-2.13-1.06-14.18-.71-17s3.19-2.83 6.73-4.25 2.48-2.48 1.42-4.61-1.77-1.77-3.9-2.12-3.9 0-8.15-2.48-3.9-3.9-9.92-4.61-6.78-4.57-6.78-7.45.35-1.77-1.77-4.61-1.42-2.83.35-4.25a44.14 44.14 0 0 1 8.51-6c4.94-2.93 7.5-8.47 8.65-15.26m9.77 59.88c.71-2.48 6.38-6 12.05-8.86s-.36-5.31-2.13-7.79S110.55 40 107.72 40s-6.38-.71-7.09-3.19-3.54-2.81-6.73-3.15-5.67-3.19-4.61-5.66 1.06-1.77 0-3.9 2.84-5.31 10.63-9.21C106.46 11.61 106 7.35 105.5 0m4.5 0c.57 6.44 2.2 13.57-2.65 16.3-5.67 3.19-11.34 6.38-11 8.86s2.83 3.9 5.31 6 4.26 3.19 6 3.19 3.54 1.77 5 2.83 1.06-.35 5.67.71 7.44 4.61 7.44 7.8 1.42 7.79-2.48 9.92S113 57.92 112.32 62c-.17 1.06.18 1.59-.53 2.48s-2.48 4.43-.17 4.07 2.83-.17 3.18.53 1.24 2.66 4.08 1.24a12.06 12.06 0 0 1 9.21-.71c2.66 1.07 2.66 1.6 5.14.89s8.32-.89 11 .53 5.49 4.25 4.43 6.73-2.3 5.14-5 6.74a17.86 17.86 0 0 0-5.31 4.6 10 10 0 0 1-5.32 4.43A27.51 27.51 0 0 1 121.89 96c-3.9 0-5.31-.35-7.62.89a22 22 0 0 1-12.4 2.48c-5.67-.53-8.33-1.24-12.76.53s-6.37 3-4.78 5.67 5.14 3.19 3.37 8.5c-.68 2-5.85 5.85-6.74 9.57a21.93 21.93 0 0 0 .89 12.76c1.77 5.13 1.06 5.31 1.24 7.26s.18 3 .18 3a31.11 31.11 0 0 1-.8 5m60.33-84.34c-.89-.88-1.78-2.3-3.55-1.59s-3.37-.36-5.14-1.42-3.36.18-6.73.35-3.36-2.12-2.48-3.72 4.43-4.43 7.62-7.79-.35-7.8-.35-7.8c-1.07-1.06-1.07-3.89-2.48-6.73s-2.49-3.19-6.74-3.9-4.6-1.06-9.92-2.48-5.31-5.67-5.67-8.85 2.84-3.19 7.09-6c3.7-2.47 4.45-7.63 3.17-17.36m16.67 56.69a8 8 0 0 0 2-6.2 4.27 4.27 0 0 1 1.06-3.19c2.13-2.12 1.24-9.39-.17-12.58s-7.44-3.89-13.11-5-5.32-3.54-5.67-6.37 5.31-6.38 8.85-10.28c2.91-3.2.81-7.83-1.61-13.11m18.8 65c-.53-1.42 2.48-1.42 3.9-3.19s-4.08-1.42-7.44-1.77-3-5.49-2.48-8.15a5.51 5.51 0 0 1 2.58-3.69c1.77-2.48 4.26-3.55 2.48-6.38s-.35-2.48-.71-5-1.41-3.54-3.89-6.38-5-3.54-12.05-4.61-1.77-5 3.9-11C135.62 9.7 132.9 7.14 130 0M38.27 98.5c-.48 1.89-.71 2.84 0 6.62s-.48 5.43-2.36 7.79-6.15 1.89-6.15 1.89c-4.6.36-3.54 1.42-8.15 3.55s-5.31 1.77-11 3.19c-4.42 1.1-6.9 3.71-10.63 7M14.61 125c-1.95 1.77 1.42 5 1.77 7.44s-1.85 4.33-1.85 4.33c-5.23 4.94-9.75 4.64-14.53 7.5m0-10.79c2.06-1 3.33-2.38 7.09-4.15 0 0 2.2-1 3.09.27a4.21 4.21 0 0 1-1.6 5.67M82.47 0c-.61 2-1.78 3-4.87 5-5 3.19-12 6.73-14.53 9.21s-7.44 3.55-6.38 8.15 3.9 6.38 6 8.51 1.77-.71 2.48 4.25 1.41 6 6.37 8.86S78 47.48 76.89 51c-1 3.27-5.28 3.75-4.84 7.09A28.84 28.84 0 0 0 73 65.2c1 3.07.71 4.72-.94 6.85s-6.38 2.6-11.34 3.78S48.9 81.73 46.3 85s-5.2 10.2-4.49 12.8a29.23 29.23 0 0 1 1.18 5 27.76 27.76 0 0 0 2.84 8.74c1.89 3.78-5.2 6.14-8.27 6.37s-6.61.95-9 2.37-5.67 2.12-7.79 4 1.53 3 1.53 3c2.48 2.83 1.77 5.66-2.83 11s-6 5.67-13.82 6.73c-3.64.5-4.81.92-5.67 1.91M86.74 0c-1.92 6.27-4.25 8.49-9.85 11-6.38 2.84-9.57 4.26-11.69 6.74s-5 3.89-1.07 7.44 3.9 3.19 4.26 6.38S68 35.79 72.28 39s8.51 5 9.93 8.15 1.41 5.31-1.07 7.79c0 0-3.42 2.95-3.66 5.55s-.71 4.23 1.42 7.51.47 7.56-4 9-14.41 2.83-17.95 5.67-10.18 10.87-10.42 13.94.71 11.11 3.79 13.23 5.9 5.2 4.48 7.32a6.85 6.85 0 0 1-5.19 3.55c-2.6.47-9-.47-13.71 3.54s-6.37 4.73-6.84 9.21.23 6.85-1.66 9.22-2.83 3.78-4 4.25l-1.77 1.53c-3.07 1.26-6.14 2.19-8.78 3.19M91.3 0a15.77 15.77 0 0 1-7.68 11c-5.67 3.19-7.44 5-11.34 6.38S65.2 21.26 68 23.74s6 4.25 6.38 7.44S75.83 38.27 79 39s7.08 2.12 8.15 5.31.7 4.61-1.07 8.15-5.65 8.84-3.17 12.74l2.84 3.19c2.12 1.94 2.12 5.31-.18 8.85S74.76 81.5 71 81.5s-12.22 2.83-17.89 9.92 0 13.64 4.07 17.89 1.77 9-.53 12.4-11.65 4.43-16.08 6.38-6.73 10.63-6.73 14.35-3.37 5.67-3.37 5.67a30.58 30.58 0 0 1-5.73 3.54m19.08 0c1.21-1.35 2.53-2.77 4-4.25 0 0 2-.88 2.31-5.49s.88-7.79 3.72-8.68 10.27-4.43 12.58-7.8 8.86-12 5.84-17.36-4.77-10.27-.16-11.69 10.63-1.6 13.11-3.19m22.85-33.84a15 15 0 0 1-.35 2.3c-.36 1.78-.71 3.9-1.42 7.27s1.42 3.54 2.83 3.36 2 .18 3.55 1.6 2.66 2 5.31.89 5.14-.71 8 .17 5.13.18 8-1.06 8.15-.36 10.27 1.42.54 3.72-1.94 5.66a78.44 78.44 0 0 0-8.15 7.27c-2.13 2.3-8.33 3.36-12.23 3.9s-9.39 1.41-11.51 2.48-9.22 0-14.18 0-8.15.35-11 2.3-4.08.89-8.33 1.24-3.54 4.25-1.6 7.09 3.73 7.08 2.31 11.51-8.86 11.34-10.81 14.53-.88 6.38-2 9.57-5 6.2-5 6.2c-1.78 1.91-3.2 3.4-4.46 4.6m16.15-19.31c-.53 2.48.36 4.79.71 9.39s-2.12 6-2.12 6a36.13 36.13 0 0 1-2.74 3.89m11.42-49.78c-2.66 1.77 3.72 6.38 4.25 10.63S79 120.12 79 120.12a22.41 22.41 0 0 0-3 9.39c-.53 4.6 1.24 8.15 2 11.16s-1.06 7.8-1.06 7.8a28.88 28.88 0 0 1-1.37 3.18m12-2.83c-.26 1-.52 2-.78 2.83m4.56 0a24.68 24.68 0 0 0 .47-3.54c.35-5.67 0-2.13 0-4.61a22.18 22.18 0 0 1 3-10.8c2.48-4.43 1.6-5.14.53-8.51s-.71-4.6.54-5.67 1.06-2.48 1.59-5.31 5.67-2.84 10.45-3 7.44.71 10.1-.54 3.54-1.59 5.14-1.59a73.85 73.85 0 0 0 12.4-1.6 23.79 23.79 0 0 0 9-6 15.08 15.08 0 0 1 4.56-3.33 11.26 11.26 0 0 1 2.52-1.67m-56.6 56.2a55.59 55.59 0 0 0 1-6.73 15.49 15.49 0 0 1 .62-5.57 27.12 27.12 0 0 1 2.22-4.88c2-3.72 1.06-6.2-.18-8.68s-.35-3.72.71-5 .53-2.66.35-4.61a11.93 11.93 0 0 1 8.83-3.21c5.14.53 7.8.71 9.57-.18a18 18 0 0 1 8.5-1.77c4.26 0 8.51-.35 11.7-2.3s3.19-3.19 6.73-3.54 3.33-1 3.33-1a17.38 17.38 0 0 1 3.22-2.31M98.3 151.65c.25-1.48.43-3 .56-4.6 0 0 .43-3.27 1.14-4.33s4-4.89 4-4.89c2.83-3.18-.36-7.44-1.24-10.63s-.36-4.43.53-5.84-.71-1.77 1.24-4.08 5.14-1.77 7.62-.88 4.6.88 6.2-.53 5.67-1.6 11.16-.89 7.62-1.24 9.39-3.37 6.2-4.07 8.33-3.72 2.26.22 2.26.22a15.3 15.3 0 0 1 2.16-1.25m-46.15 44.79c-.1-1.41-.21-2.94-.26-4.6 0 0-.45-3.45.43-4.87a44.82 44.82 0 0 0 2.22-4.52c.89-3.9-.53-8.33-1.59-11s-.35-3.9 1.42-5.49c0 0 5-.35 8.68-.53s2.48-.18 3.89-2 4.61-1.06 8.15.18 4.61.71 7.62-.36 4.61-2 9-2.3 4.75-1.73 4.75-1.73a10.43 10.43 0 0 1 1.8-1.33M112 130.57c1.42 3 .53 8-.71 11a24.24 24.24 0 0 0-1.42 6.91c0 1 .07 2.09.17 3.18m15.58 0c-.52-1.15-1.07-2.33-1.58-3.54-2.83-6.73-.88-4.25-.88-6.91a77.33 77.33 0 0 0-1.24-9.74c-.36-2.13.18-4.08 4.43-2.66 0 0 5.49-1.42 8.15-2s6.2 1.59 9 3.9 4.57.74 4.57.74c1.35-1 2.52-2 3.58-3m-15.23 19.58c.73 1.29 1.38 2.47 1.94 3.54m-4.25-9c-.7-2.13 2.31-2 4.26-2.31s3.54 1.42 6.37 4.26 3.69 2.16 3.69 2.16a18.69 18.69 0 0 1 3.22-2.45M130 151.65c-.47-1.16-1-2.45-1.4-3.89 0 0-1.42-3.9-.71-5.14s1.77-4.43 1.24-6 1.24-2.65 4.43-2.83 5.14 0 7.27.89-1.28 1.45 5.45.39a17.52 17.52 0 0 0 5.35-1.55M33.07 21.26c-2.36 2.36-5.67 4.73-5 7.8s.94 4 3.78 4 1.18-.47 3.78.47 2.6.48 4.72.24S50.08 36.14 52.2 39s1.66 3.54 5.2 5.67 5.2 4 4.25 5.9-1.89 3.78-.94 6.14 2.6 8.51-.24 9.22S49.84 68.5 47 69.68s-7.09 2.6-6.14 6.15 1.89 4.72.94 5.9m49.25-38c3 2.48 5.14 3.37 3.72 5.14s-6.38 4.78-5.84 8.15 1.41 5.67 1.77 7.62-.18 2 1.06 3.54 1.43 1.62 1.24 3.4.18 5.49 5 7.08 6.38 2.13 5.32 3.72-2.13.18-6.56.36-9.39.7-12.22 2S78 86.28 74.41 87s-6.56 1.06-9.75 2.48-6.55 3.19-6.9 5.49-.89 3.9 1.06 6.91 1.42 3.54 1.42 4.61c0 0 3.89 2.3 3.19 6.2s-1.42 6.73-3.9 9.21m76.36-45.53c4.25-.36 1.06 3.9-4.26 8.68s-13.11 5.49-16.3 5.49-10.63 1.24-17.89.71-2.84-.88-6.38.35m-60.85 60.05c.16-.57.35-1.27.62-2.12 0 0 2.83-2.48 4.25-3.9s1.42-4.61 2.83-9.92 3.19-5.67 6-7.09m107.74-93.53c-.43.45-.91.94-1.45 1.44l-2.09.5-2.48-2c-2.3-3.19 0-6-.71-9.92s-6.38-2.48-10.63-3.55 1.77-6.37 5-9.92c2.69-3 2.11-6-.89-11.69m13.29 89.75a10.17 10.17 0 0 0-2.16 1.71s-1.73 1.73-3.68 4-5.49 5.67-8.68 6.56-7.8 1.06-10.1 1.59M151.65 74c-1.2-1.33-2.42-2.81-3.58-4.11-2.83-3.19 0-2.83 0-2.83a10.31 10.31 0 0 1 3.58-3.55m0-6.09h-.17a39.08 39.08 0 0 1-5.53-1s-.5-.22-1.74-.93-.88-2.12.89-3.54c2.05-1.65 1.77-1.95.88-4.07s2.09-4.93 2.09-4.93c1.42-.91 2.6-1.62 3.58-2.3m-2.87 43.76c1.58-1.19 2.17-1.6 2.87-1.74m-64.31 65.62a52.15 52.15 0 0 0-.53-9.39c-.71-3.19-2-6.74-1.77-13.29s2.66-5.49 4.43-7.62 1.77-5 1.24-8.68.53-3 3-4.25 3-1.06 7.09-.71 6 .35 8.33-1.24 2.65-.89 5.84-.71 8.86 0 11.16-1.42a16.88 16.88 0 0 1 8-2.12c2.31 0 6.21-1.07 8-4.26a14.47 14.47 0 0 1 5.67-5.49 4.28 4.28 0 0 0 1.73-1.91 13.18 13.18 0 0 1 2.16-1.44m-34 65.89c-.18-1.43-.42-3-.69-4.6V143c.18-1.06-.36-4.43.18-7.62s-3.37-6.73-4.79-9 4.79-1.42 6.38-1.95 3.9-1.24 5.67-.89 3.37 1.07 6-.71 9.92 1.25 13.65.89 4.39-1.73 4.39-1.73c1.26-.56 2.32-1.06 3.22-1.5m0 26.4c-.82.92-1.34 2.35-3.39 4.82m3.39-136.18c-1.21.58-2.73 1.2-4.64 1.93 0 0-7 2.62-1.56-6.06 1.58-2.49-.18-4.78-.88-6.56s2.09-3 2.09-3c.62-.66 1.15-1.26 1.6-1.81"/></pattern><pattern id="New_Pattern_Swatch_26" data-name="New Pattern Swatch 26" width="153.43" height="153.43" patternTransform="scale(2.34) rotate(33 360.558 371.327)" patternUnits="userSpaceOnUse"><path class="cls-1" d="M0 0h153.43v153.43H0z"/><path class="cls-2" d="M52.94 10.63H35.72m55.48 0h25.31m15.44 0h20.91m-20.91 0h-15.44m-99.72 0h18.93m117.7 0h-.56m-61.66 0H77.88m-24.94 0h24.94m-61.08 0H0m0 11.83h153.43m-2 11.87h-37.58M0 34.33h33.77m42.16 0h37.92m-80.08 0h42.16m75.48 0h2m-15.57 83.94H95.69m-38.62 0H19.51m76.18 0H57.07m96.35 0h-15.56m15.74 0h-.17M0 118.27h19.51M153.43 129h-1.11m-38.13 0H74.86m0 0H33.61m118.7 0h-38.12M0 129h33.61m119.81-83.27H132m-115.16 0h36.1m0 0H90.5m41.45 0H90.5m-90.5 0h16.79M77.88 55H35.36m42.52 0h39m36.56 0H153M0 55h35.36M153 55h-36.14m36.57 9.7h-15.49m-119 0h38.22m0 0h38.62m0 0h42.16M0 64.73h18.89m134.54 11.49H0M153.43 87H0m153.6 11.9h-.17M0 98.89h153.43m0 9.14H0m16.8 43H0m91.2 0h17.53m23.22 0h-23.22m-17.53 0H70.11m61.84 0h14.7m-93.71 0H29.19m-12.4 0h12.4m23.75 0h17.17m83.32 0h-6.78M16.79 10.63V0m36.15 10.63V0M91.2 10.63V0M132 10.63V0M16.79 151.05v2.38m36.15-2.38v2.38m38.26-2.38v2.38m40.8-2.38v2.38m-96.23-143v.18m0 11.8V10.63m42.16 11.8v-11.8m0-.18v.18m38.63 11.8v-11.8m0-.18v.18m36.35-.18v.18m0 11.8v-11.8M20 22.82V34.3m37.51-11.48V34.3M96 22.82V34.3m42.3-11.48V34.3m-24.45 11.34V34.33M75.93 45.64V34.33M33.77 45.64V34.33m117.64 0v11.31m-19.46 0v.09M132 55v-9.27m-41.5-.09v.09m0 9.26v-9.26m-37.56-.09v.09m0 9.26v-9.26m-36.15-.09v.09m0 9.26v-9.26M35.36 64.67V55m42.52 9.7V55m39 9.67V55M153 64.67V55M18.89 76.22V64.73m38.27 11.48V64.73m38.62 11.45V64.73m42.16 11.48V64.73M113.49 87V76.36M75.72 87V76.36M33.2 87V76.36m117.79 0V87M15.66 98.86V87.13m36.85 11.73V87.13m38.62 11.73V87.13m40.4 11.73V87.13M119.62 108v-9m-40.11 9v-9m-42.87 9v-9m-35.2 9v-9m18.07 9.13v10.1m37.56-10.1v10.1m38.62-10.1v10.1m42.17-10.1v10.1m-23.67 10.81V129m0-10.56V129m-39.33-10.58V129m0 .1v-.1m-41.25-10.58V129m0 .1v-.1m118.71.1v-.1m0-10.56V129M29.19 141.48H0m153.43 0h-6.78m0 0h-37.92m-38.62 0h38.62m-38.62 0H29.19m0-.07v.07m0 9.57v-9.57m0 9.75v-.18m40.92 0v-9.57m0-.07v.07m0 9.75v-.18m38.62-9.57v9.57m0 .18v-.18m0-9.64v.07m37.92 9.75v-.18m0-9.64v.07m0 9.57v-9.57M13 141.41v-12.33m36.85 12.33v-12.33m39.68 12.33v-12.33m41.28 12.33v-12.33m-55.21 4c-2.56 7-10.21 7.65-13.4.64 5.7 2.19 7.61 2.19 13.36-.72zm51-10.94c5.74 2.23 7.66 2.23 13.39-.64-2.61 6.98-10.27 7.62-13.46.6zm-16.89-10.86c5.74 2.23 7.66 2.23 13.4-.64-2.63 6.97-10.28 7.61-13.47.6zm-1.31-10.56c-2.55 7-10.2 7.65-13.39.63 5.67 2.2 7.58 2.2 13.32-.67zM78.21 90.28c-2.55 7-10.2 7.66-13.39.64 5.74 2.23 7.65 2.23 13.39-.64zM61.38 79.11c-2.55 7-10.2 7.65-13.39.64 5.74 2.25 7.65 2.25 13.39-.64zM43.79 67.72c-2.56 7-10.21 7.66-13.4.64 5.74 2.23 7.61 2.23 13.4-.64zm-33.24-10C16.29 60 18.2 60 23.94 57.09c-2.55 7.02-10.21 7.66-13.39.64zM0 49.62a22.15 22.15 0 0 0 5.16-2A8.1 8.1 0 0 1 0 52.94m138.51 25.77c-2.55 7-10.21 7.65-13.4.64 5.74 2.23 7.66 2.23 13.4-.64zM123 68.14c-2.56 7-10.21 7.65-13.4.63 5.78 2.23 7.69 2.23 13.4-.63zm-32-9.88c5.74 2.23 7.66 2.23 13.4-.63-2.58 7.01-10.23 7.65-13.4.63zM79.28 47.69c-2.56 7-10.21 7.66-13.4.64 5.74 2.23 7.65 2.23 13.4-.64zm-29.4-9.92c5.74 2.23 7.65 2.23 13.39-.64-2.55 7.02-10.2 7.66-13.39.64zM30.15 27c5.75 2.24 7.66 2.24 13.4-.63C41 33.34 33.34 34 30.15 27zm-5.76-13.1c-2.55 7-10.2 7.66-13.39.64 5.74 2.19 7.65 2.19 13.39-.68zm102.5 24.21c5.74 2.23 7.65 2.23 13.39-.64-2.55 6.97-10.21 7.61-13.39.6zm-16.25-11.4c5.75 2.23 7.66 2.23 13.4-.64-2.55 6.98-10.21 7.61-13.4.6zm-7.56-12.33c-2.56 7-10.21 7.65-13.4.64 5.74 2.19 7.66 2.19 13.4-.68zM0 3.86a24.25 24.25 0 0 0 4.75-1.94A8.32 8.32 0 0 1 0 7.15M65.64 2.8C71.39 5 73.3 5 79 2.16c-2.51 7.02-10.17 7.65-13.36.64zM0 134.17c.54-.25 1.12-.52 1.75-.84A10.14 10.14 0 0 1 0 136.41m60.56-15.53c-2.56 7-10.21 7.66-13.4.64 5.74 2.24 7.66 2.24 13.4-.64zm-29.34-9.82c5.74 2.23 7.65 2.23 13.39-.64-2.55 7.02-10.21 7.65-13.39.64zm-4.92-10.48c-2.55 7-10.2 7.66-13.39.64 5.74 2.23 7.65 2.23 13.39-.64zM0 91.76a26.33 26.33 0 0 0 4.36-1.83A8.47 8.47 0 0 1 0 95m83.27 49.43c5.74 2.24 7.65 2.24 13.39-.63-2.55 7-10.2 7.64-13.39.62zm-78 0c5.74 2.24 7.66 2.24 13.4-.63-2.58 7-10.24 7.64-13.43.62zm115.68 4.12c3.19-7 10.85-6.37 13.4.64-5.77-2.88-7.69-2.88-13.43-.65zM0 26.3c3.29-1 7 .86 8.59 5.32-3.8-1.9-5.93-2.54-8.59-2.11M8.84 42c3.18-7 10.84-6.38 13.39.64-5.74-2.85-7.65-2.85-13.39-.64zM40.3 53c-5.74-2.88-7.66-2.88-13.39-.64C30.1 45.34 37.75 46 40.3 53zm9.7 9.46c3.18-7 10.84-6.38 13.39.63-5.74-2.87-7.65-2.87-13.39-.63zm33.17 10.79c-5.74-2.87-7.65-2.87-13.39-.64 3.22-7.01 10.84-6.38 13.39.64zm17.49 11.4c-5.75-2.87-7.66-2.87-13.4-.65 3.19-7 10.84-6.37 13.4.65zm16.65 11.28c-5.74-2.87-7.66-2.87-13.4-.64 3.19-7.02 10.85-6.38 13.4.64zm26.76 10.32c-5.74-2.87-7.65-2.87-13.39-.64 3.19-7.01 10.84-6.38 13.39.64zm-80.68-86.8c-5.74-2.87-7.65-2.87-13.39-.64 3.19-7.01 10.84-6.38 13.39.64zm-34.48-12c3.19-7 10.85-6.38 13.4.64-5.74-2.88-7.65-2.88-13.4-.65zm75.48-.33c3.18-7 10.84-6.38 13.39.64-5.78-2.88-7.65-2.88-13.39-.65zm-33.9 23.5c3.19-7 10.84-6.37 13.39.64-5.74-2.87-7.65-2.87-13.39-.64zm16.76 11.7c3.19-7 10.84-6.38 13.39.63-5.74-2.86-7.64-2.86-13.39-.63zm16.19 10.51c3.19-7 10.84-6.38 13.4.64-5.75-2.87-7.66-2.87-13.4-.64zm23.39 9.39c3.19-7 10.84-6.38 13.39.64-5.74-2.86-7.65-2.86-13.39-.64zm13.87-43.3c-5.75-2.87-7.66-2.87-13.4-.64 3.19-7.01 10.84-6.38 13.4.64zm-98 129.58c3.19-7 10.85-6.38 13.4.64-5.71-2.87-7.63-2.87-13.37-.64zM37.67 138c-5.74-2.87-7.66-2.87-13.4-.64 3.19-7.04 10.84-6.36 13.4.64zm79.93-.36c-5.74-2.87-7.65-2.87-13.39-.64 3.19-7 10.84-6.4 13.39.62zm-18.07-11.36c-5.74-2.87-7.65-2.87-13.39-.64 3.19-7.01 10.86-6.37 13.39.64zm-30.22-10.91c3.19-7 10.84-6.38 13.39.64-5.7-2.87-7.65-2.87-13.39-.64zm-5.5-9c-5.75-2.87-7.66-2.87-13.4-.63 3.19-7.06 10.84-6.42 13.4.59zM40.6 96c-5.75-2.87-7.66-2.87-13.4-.64C30.39 88.33 38 89 40.6 96zM23.13 84.23c-5.74-2.86-7.66-2.86-13.4-.63 3.19-7.02 10.85-6.38 13.4.63zM0 68.22c3.43-1.48 7.49.35 9.21 5.09-4.09-2-6.23-2.63-9.21-2m22.76 55c-5.74-2.87-7.66-2.87-13.39-.64 3.19-7.04 10.84-6.4 13.39.61zM0 111c3.5-1.74 7.75 0 9.53 4.94C5.3 113.77 3.14 113.22 0 114m153.43-61c-3 .78-6.28-.72-8.12-4.76 3.57 1.39 5.66 1.92 8.12 1.43m0-42.46c-3.07 1-6.61-.41-8.53-4.63 3.77 1.47 5.89 2 8.53 1.33m0 132.66c-3.36 3.77-8.93 3.15-11.53-2.58 5.07 2 7.15 2.2 11.53.25m0-39.18c-3.16 1.31-6.92-.07-8.92-4.48 4 1.54 6.09 2 8.92 1.23m0-62.26a25 25 0 0 0-4.69 1.45 8.2 8.2 0 0 1 4.69-4.65m0 45a30.48 30.48 0 0 0-4.07 1.33 8.5 8.5 0 0 1 4.07-4.4m0 45.73a30.32 30.32 0 0 0-3.75 1.25 8.62 8.62 0 0 1 3.75-4.24M138 149l3.55-4.61m-121.14 4.28 5.31-4.6m89.79 5-3.19-5m8.39-6.38 6.2-3.72m15.53-7.44 5.32-4.61m-43.06 4.79 3.73-5M99 138.58l-3.19-5m-20 10.63 3.19 5m.53-11.34 3-5.49m-27.46.53 3.19 5m2.28 11.34 3.36-5.14m35.28 4.6 5.32-4.6m-69.63-.18 3.19 5m25.54-22.4 5.32-4.61M40.78 138l5.32-4.6m-40.61 5.35 5.32-4.6M39.68 121l2 5.49m-24.69 6.55 3.19 5m115.58-3.89 3.19 5m13.82 9.56-3.19-5m-26.75-17-5.14-4.61m-25.56-10.81-5.32 4.61m-21.2 0-3.19-5M110 106l5.32-4.61m-9.69 9.75-5.31 4.6M86 101l4.6 4.43m-9.6-9.9 5.32-4.61m-29.94-.71 2.83 6m8.86 5 3.19 5M43.47 95.88l5.31-4.61m-7.5 14.36 5.49-3.73m-18.25 9.39-5.31 4.61M2.8 126.18l4.29-4.43m15.59-25.87-3.19-5m9.57 9.92 4.25 4.25m-18.07 10.67-3.19-5m12.87 10.57 4.61 4.61m48.78-4 3.19 5m-29.94-11-3.19-5m-1-38.09 5.32-4.61m-14.77 16 5.32-4.61M6.73 96.23l5.32-4.6m-6.74 13.82 4.26-3.72M2.8 83.66l5.32-4.61m14.56-11.16 3.19 5m1 6 3.19 5M86.93 73.2l5.32-4.6M79.37 84.36l5.32-4.6M60.94 68.24l5 5.32m37.91 5.67 3.19 5M96 91.8l3.19 5M65.55 78.87l3.19 5M31.18 62.22l-4.61-4.72M12.72 69l3.19 5m57.26-16-5.32 4.6m-26.1-4.43 3.19 5m62.06-.42 5.31-4.61M100.1 73.2l5.31-4.6m11 15.59 5.31-4.61m-.17 16.3 5.31-4.61m-2.76 14.53 3.36-4.78m14.11 14.88 5.31-4.61M83.8 57.79l3.19 5m57.42-.24 5.32-4.6m-7.93 14.72 5.32-4.61M141.2 48.4l-5.31 4.6m-15.59 4.6 3.18 5m4.08 5.32 3.19 5m13.82 11.34-3.19-5m-.89 16.65-3.19-5m9.75 10.1 3.19 5m-19.49 9.92-3.19-5m-6-63.07 3.18 5m19-33.54 5.26-4.64m-3.37 12.1-3.9 4.79M124 18.28l-3.9-4.07m12.4 17.18-3.19-5m14.88 11.16 3.19 5M140 6.77l-3.19-5m-54 4.79L88.05 2m34.55 4.23 5.31-4.6M107.36 19l5.32-4.61m-5.32 11.7-6.2 5.49m22.15 5.85-6.74 3.89M62.31 7.58 58.23 2m38.86 5.23L95 2m-9.13 18.05-3.19-5M92.13 27l-5.32 4.61M67 30.33l-5.7-4.25m9.16 12-4.08 5.32m-22.27-.71-3.18-5M103.76 42l6.73-4.25M100.63 48l-5.32 4.61m-12.4-9.21-1.77-6m4.43 15.76-3.19-5m-31-21.43-5.32 4.6M31 38.12l-5.31 4.61m18.6 10.45 5.32-4.6m-42.24 9-4.18 4.64m54.63-9.39 5.31-4.61m-50.37.18L7.44 53m19.67-21.08-2.31-6.2M2.13 38l3.18 5m15.24 5 3.19 5m-8.86-21.43-3.19-5M4.57 14.92l3.19 5M67.68 19l6-3.72m-52.09-9 5.32-4.6M7.76 6.41l5.31-4.61M27 19.52l5.31-4.6m9.12 0 3.19 5m3.6-12.3L46.06 1.8"/></pattern><symbol id="Squirrel_Background_Thick" data-name="Squirrel Background Thick" viewBox="0 0 1140.83 949.65"><path id="Background_Thick" data-name="Background Thick" d="M1050.63 650.09c-.46 1-20.27 3-34.28-11.29a.32.32 0 0 0-.53.34c3.36 9.57 3.22 18.22-1.35 27.86-12.24 25.85-44.31 35.37-69.45 21.73L916 674a.32.32 0 0 0-.34 0c-1.28 1-10.43 8-24.47 16.85-38.05 22.51-76.29 41.21-121.08 46.16a.31.31 0 0 0-.27.39c17.31 71.33-36 123.83-42.21 129.6a.32.32 0 0 0 .22.55c78 1.82 77.17 49.22 76.94 53.43a.32.32 0 0 1-.32.29H361.38a.31.31 0 0 1-.31-.35l2.9-27a.32.32 0 0 0-.4-.34c-63.93 18.17-142.69.9-187.07-44.1-94.57-116.65-34.72-243.92-5.71-361.07 21-85.69 40.57-189.62 17.54-236.91-31.63-65-103-73.84-159.39-11.58a.32.32 0 0 1-.56-.25c31.93-373.22 526.84-195.59 460 96.82a.31.31 0 0 0 .31.39c29-.59 66.59 5 110 21.22 0 0 106.2 35.1 149-20.4a.41.41 0 0 0 .05-.09c.68-1.93 22.62-63.38 56.82-77.62a.3.3 0 0 0 .18-.37c-1.45-5.14-22-84.12 69.1-153a.32.32 0 0 1 .51.33c-2.21 8.19-16.9 69.69 30.37 104.51 1.77.92 112.66 58.73 122.1 73.31s79.23 105.05 85.65 227.07a.33.33 0 0 1-.15.29C1083.07 531 1054 546.61 1018 552.66a.32.32 0 0 0-.17.54c6.81 6.22 82.84 77.18 32.8 96.89zM701.39 919.87" style="stroke-miterlimit:7.57;fill:#161515;stroke:#161515;stroke-width:56.69px"/></symbol><symbol id="Squirrel_Outline" data-name="Squirrel Outline" viewBox="0 0 1098.89 907.72"><g id="Lines"><path id="Lines_Inner" data-name="Lines Inner" d="M463.88 315.51c32-153.91-274.1-388.62-450.42-104.3m329.29 139.13c59.68-159.45-153-423.45-329.29-139.13M751 717.58c-35.37-431.84-464.81-353.8-503.09-238M337 904.24c174.3-60.51 240.47-35.16 342-226.74 60.06-161.88 209.63-120.18 219.26-112.14M487.52 850c-74.41-30-252.48-208.59-172-348.85 110-191.87 437.37 2.3 663.45-9 37.6-4.79 81.45-29.3 102.42-30.71M784.26 239.92c22.32 86.52 154.17 12.6 195.29 69.64 43.67 60.58 76.67 197.85 76.67 197.85M145.55 17.11C477.08 68.15 337 362.2 337 362.2M201.32 865.26C452.63 759 594.75 664 598.89 346.92M781.12 241.3s-25.37-82.48 69.79-153.86c0 0-20.62 68.08 30.12 105.44 0 0 112.61 58.63 122.13 73.32s79.3 105.14 85.65 227.26c0 0-56.24 39.51-117.52 38.85 0 0-18 .11-42-9-47.69-21.31-90.12-45.44-127.56-74.16C786.24 437 780 407.08 774 380.29c-12.12-53.58 7.12-138.99 7.12-138.99zM133.42 20.42c305.05 135.76-26.08 494.58-33.11 633.9-3.93 73.55 6 128.41 52.49 176.59 23.2 24.09 53.47 41.29 91.51 47.9a206.44 206.44 0 0 0 30 2.91 251.34 251.34 0 0 0 33-1.4c11.51-1.23 30.55-7.77 42.81-11.63 37.09-11.69 163-79 222.08-153.49 87.21-110.12 144.76-333 151.78-392.47M100 654.42c-.51-13.61 26.14-99.25 47.07-184.59 21-85.7 40.58-189.63 17.55-236.92C132.86 167.72 61 159 4.58 222 35.77-152.61 532 25.4 467.66 318.15m525.89 216s85.75 76.7 33.4 97.31c0 0-21.33 3.18-36.41-14.71M868.62 492.67s-59.08 51.94 82.32 91.93c0 0 59 23.25 39.85 63.76-12.24 25.85-44.32 35.37-69.45 21.73l-29.18-14.82s-151.4 118.21-213.32 22.2c-95.64-330.62-484-254.36-428 27.7m428 197.49a29.18 29.18 0 0 0-2.26-2.87c-3.66-19.91-10.76-48.16-75.93-50.87s-152.38-.19-224.24 9.5m-39.07 17.12v27.12h443.78s4.76-52.15-77.72-53.74c0 0 61.34-54.65 50.5-126.54m-377.49 136s-310-227.57-57.07-478c0 0 88-99.38 255.61-40.95 0 0 106.25 35.12 149.07-20.45 0 0 22.2-63.5 57.1-77.77" style="stroke-width:7.37px;stroke-miterlimit:7.57;stroke:#d9b776;fill:none"/><path id="Lines_Outer" data-name="Lines Outer" d="M1030.09 628.69s-19.77 2.95-33.75-10.76a.49.49 0 0 0-.81.51c3.1 9.29 2.86 17.76-1.6 27.16-12.23 25.85-44.31 35.36-69.45 21.73l-28.89-14.68a.49.49 0 0 0-.53.05c-1.59 1.22-10.64 8.1-24.38 16.78-38 22.48-76.17 41.15-120.88 46.14a.49.49 0 0 0-.42.61c16.9 70.13-34.49 122-41.94 129.1a.5.5 0 0 0 .34.86c76.65 2 76.74 48.08 76.51 53.24a.49.49 0 0 1-.5.47H341.05a.5.5 0 0 1-.5-.55l2.86-26.49a.5.5 0 0 0-.63-.53c-63.88 18-142.48.77-186.81-44.17-94.57-116.65-34.72-243.91-5.71-361.06 21-85.69 40.58-189.63 17.54-236.91-31.57-64.81-102.74-73.81-159-12a.5.5 0 0 1-.87-.38c32.34-372.43 526.51-195 460 97.12a.49.49 0 0 0 .49.61c28.93-.55 66.48 5.07 109.78 21.23 0 0 106.17 35.09 149-20.38a.39.39 0 0 0 .08-.14c.83-2.35 22.68-63.23 56.67-77.53a.49.49 0 0 0 .28-.59c-1.77-6.37-21.12-84.33 68.72-152.54a.51.51 0 0 1 .8.52c-2.6 10-15.9 69.82 30.49 104h.06c2.23 1.16 112.67 58.76 122.09 73.31s79.19 105 85.64 227a.52.52 0 0 1-.23.46c-29.14 18.67-58 34.25-93.89 40.33a.5.5 0 0 0-.26.85c8.3 7.64 82.23 77.08 32.78 96.55zM680.85 898.46" style="stroke-width:13.89px;stroke-miterlimit:7.57;stroke:#d9b776;fill:none"/></g></symbol><symbol id="Squirrel_Background" data-name="Squirrel Background" viewBox="0 0 1140.83 949.65"><use width="1140.83" height="949.65" xlink:href="#Squirrel_Background_Thick" id="Background"/><use width="1098.89" height="907.72" transform="translate(20.54 21.4)" xlink:href="#Squirrel_Outline"/></symbol><symbol id="Squirrel_Filled_Transparent" data-name="Squirrel Filled Transparent" viewBox="0 0 1098.89 907.72"><use width="1098.89" height="907.72" xlink:href="#Squirrel_Outline"/><g id="Fill"><path id="forehead" d="m842.83 93.18-23.51 24.13c-28.49 30.06-38.38 65.15-36.53 101.56 1.5 29.47 13 50.69 35.16 57.91 10.18 3.31 20.44 3.64 71.92 4.68 59 1.19 63.29 8.66 79.18 16.81 18.53 9.51 29.08 31.37 50.77 84.94 8.44 20.82 25.62 79.64 25.62 83.64 0 1.22.43 2.21.94 2.21.91 0 37.14-13.48 37.78-13.94.18-.12.31-13.54-1.39-21.35-11.28-51.79-30.73-97.15-63.7-147.6-8-12.23-23.13-29.1-27.46-32.31-10.16-7.53-35.81-21.11-65.91-37.55l-36.61-20c-25.92-14.15-27.36-47.27-39.26-79.84z" style="fill:url(#New_Pattern_Swatch_30)"/><path id="face" d="M777.54 250a.12.12 0 0 0-.1 0c-1.78 1.87-5.73 65.93-5.73 84.76 0 31.6 8.86 77.17 19.64 99.29 4.72 9.68 7.1 12.49 16.2 19.16 12 8.79 32.71 24.12 37.72 26.76 3.64 1.92 50.36 4.8 73.9 6.88 25.56 2.26 60.47 2 72.34-.54 10.55-2.26 46.23-13.32 50.93-16 2-1.13 2.11-11.88-7-39.34-17.5-52.95-33.32-92.07-48.92-115.2-9.06-13.41-17.49-19.2-31.85-24-9.24-3.09-18-8.91-64.83-9.19-55.35-.34-66-1.57-81.74-9.41-4.68-2.34-20.87-15.12-24.12-18.24-3-2.93-5.84-5.08-6.47-5z" style="fill:url(#New_Pattern_Swatch_23)"/><path id="nose" d="M1084.19 458.33c-3.56-1.68-5.82 2.43-16.81 6.07s-15.82 1.86-18.24 5.49c-1.63 2.46-2.19 7.43 4.87 18.74l4.5 18.79 18.06-8.71c4.87-2.81 8.21-6 10.13-9.87a21.91 21.91 0 0 0 2-7.77c.3-2.85 2.06-19.65-4.51-22.74z" style="fill:url(#New_Pattern_Swatch_25)"/><g id="Right_Arm_Highlight" data-name="Right Arm Highlight"><path id="right_foot" class="cls-10" d="m519.09 849.82-26.83 7.5a315.75 315.75 0 0 1-58.06 20.47c-10.55 2.54-21 5.53-31.58 7.94-17.42 3.95-30.91 6.32-30.89 9.7 0 1.24 1.82 2.14 2.47 2.47 11.57 5.82 130.65 3 160.89 2.24l140.79-2.71c-.2-1.52-.41-3-.62-4.55a47.57 47.57 0 0 0-8.29-18c-5.75-7.66-12.3-11.43-16.77-14-16.08-9-32.63-9.84-41.91-9.53a488.91 488.91 0 0 0-55.94-2.91c-11.65.12-22.76.56-33.26 1.38z"/><path id="right_side" class="cls-10" d="M498.7 418.08c-23-.62-38.41-.27-54.52 1.06-30.19 2.49-41.15 6.64-44.89 8.14C385 433 375.66 440.07 365 448.26c-19.53 15-37.71 34.3-35.56 37 1.55 2 12.13-6.64 33.33-14.67 15.6-5.91 28.06-8.12 38.14-9.89 28.31-5 53-4.41 67.74-2.2 0 0 37.95 5.7 67.44 24 5.62 3.49 9.69 7.06 20.08 13 4.66 2.67 8.25 4.48 12.64 8.56 5.12 4.77 5.54 7.27 7.29 7.16 4.41-.26 7-16.42 11-45.44 1.9-13.61 3.47-25.34 4.68-34.59l-6.09-5.55-19.63-3.58c-27.06-2.47-49.98-3.51-67.36-3.98z"/><path id="right_hand" class="cls-10" d="M876.7 557.63a123.67 123.67 0 0 0-13.32-2.48c-8.28-1.3-12.89-2-19.06-2.29a110.69 110.69 0 0 0-16.41.53 178.79 178.79 0 0 0-32.47 7.24s-26.76 8.64-51 26.29c-2 1.46-4.12 3.23-8.08 6.57-3.66 3.08-4.67 4.09-5.17 5a4.5 4.5 0 0 0-.22.44c-1.21 2.75.39 5.8.75 6.57 4.24 8.84 4.82 19 7.59 28.41 3.17 10.77 1.47 8.36 7.37 32.91a122.32 122.32 0 0 1 2.7 13.18c.65 4.67 1.06 10 1.55 16.28.62 8.08.8 12.21 4 14.91a10.77 10.77 0 0 0 3.77 1.91c18.63 5.07 58-18.81 58-18.81 19.87-8.42 47.34-18.07 64.14-31.89L894 653l20.91 10.63c20.62 10.47 26.64 6.46 39.13 6.47 7.84 0 13.57-.85 18.59-3.14a35 35 0 0 0 11.78-8.96c11.1-13.41 5.81-33.26 5.54-34.2-6.24-22.13-31.63-32.94-49.69-40.63-19.74-8.4-30.69-7.66-44.87-16.81a64.65 64.65 0 0 0-18.69-8.73z"/><path id="right_arm" class="cls-10" d="M677.47 508.08c-2.14.42-3.32 2.88-3.89 4.12-4.4 9.52-6.6 14.28-7.24 18.62-1.11 7.55-4 19-11 37.6l-11.5 19.42 11.45 20.65c2.2 5.07 4.1 9.51 5.65 13.15.64 1.51 3.15 7.39 6.44 15.29 1.7 4.08 3.15 7.57 4.27 10.28l6.78 21.22 18.66-33.16a141.58 141.58 0 0 1 25.43-33.86l2.81-3.54-4-18.58c-11-22.27-19.91-39.09-24.41-47-5.68-10-5.56-7.84-8-13.16a24.93 24.93 0 0 0-5.86-8.41c-3.34-2.98-5.14-2.72-5.59-2.64z"/><path id="hip_bottom" class="cls-10" d="M445.64 823.71 428 833.37c-16.65 7.41-35.26 16.38-34.24 19.45.48 1.42 4.84.58 15.36 0 7.9-.45 41.45-2 56.63-2.54 3-.11 7.5-.27 8.13-2.23.88-2.74-6.34-7.53-12.88-11.29z"/><path id="hip_mid" class="cls-10" d="M300 517.4c-.84 1.3-26.91 28.29-32 38.39-15.34 30.41-19.1 55.79-21.91 94.57-1.9 26.31 0 41.55 5.6 56.25 2.52 6.6 5.55 11.72 11.62 22 19 32.12 39.15 51.51 47.72 64.29 1.17 1.74 2.93 3.83 6.47 8 3.18 3.77 4.43 5 6.3 5.58 3.36 1.06 6.67-.59 8.33-1.46 14.34-7.4 21.5-11.1 29.06-16 16.65-10.72 24.68-13.22 24.35-18.58-.07-1.2-.54-2.09-3.78-6.14-5.47-6.84-8.21-10.26-12.75-14.53a276.108 276.108 0 0 1-17.75-20.23C310.4 678.22 298.1 616 298.1 616a218.59 218.59 0 0 1-1-61.94 39.66 39.66 0 0 0 2.47-9.4c.82-6-.47-7.07.44-12.08.39-2.12.58-1.7 4.5-12.53 1.45-4 2.77-7.75 1.77-8.39s-4.19 1.24-3.19.8z"/></g><g id="Inner_Limbs" data-name="Inner Limbs"><path id="left_foot" data-name="left foot" class="cls-11" d="M679.23 682.48q-7.58 11.38-15.17 22.76A468.92 468.92 0 0 1 571.94 820l-39.35 25.4 57.62 2.72c22.54-1.87 39.32 2.33 48.81 5.52 11.51 3.88 18.08 8.22 22.83 12.4 3.64 3.2 10.61 9.49 13.5 19.79a35.75 35.75 0 0 1 .93 4.36 4.86 4.86 0 0 0 .79 4.17A4.71 4.71 0 0 0 680 896l51 2.77 52.43-2.36c-.36-3.48-.72-7-1.07-10.45-8.36-20-32.06-37.39-69.24-37.45-9.36 0-8.7-4.75-8.7-5.44s3.56-.15 9.6-5.56c21.37-19.13 29.27-42.08 36.39-67.74 3.77-13.61-1.16-43.22-2.72-51.53-.93-5 .57-3.84-3.26-3.84-4.6 0-18.57-2.5-31.43-7.65a184.68 184.68 0 0 1-21.11-10.06z"/><path id="left_hand" class="cls-11" d="M865.13 493.67c-.06 0-1.19 1-1.22 1-1.17.45-5.53 10.57-6.48 14.09-5.79 21.5 20.94 51.86 75 69.83 25.12 8.36 44.7 19.31 53.91 30.79 11 13.74 29.9 19 36 21.18 9.32 3.3 17.79-11.77 23.24-16.36 3.62-3 4.87-5.44 4.87-9.3 0-12.8-19.13-41.65-41.54-60.72l-9-10.94-14-3c-17.92 1.44-39.47 2.68-80.29-17.7-12.62-6.22-35.69-19.54-37.44-19.43z"/></g><g id="Side_Stripe" data-name="Side Stripe"><path id="tail_top" class="cls-12" d="m161.82 17.18 48.05 12.45c18.47 7.41 31.68 12.62 40.81 16.19 8.5 3.32 14.34 5.57 21.88 10.23 5.47 3.38 10.06 7.08 19.23 14.47 4.58 3.69 9.91 8 16.66 14.08 9.81 8.85 9.92 10 15.81 14.69 5.39 4.28 7.92 6.22 18.89 12a239.9 239.9 0 0 1 26.38 16.41 177.9 177.9 0 0 1 27 21.88c1.27 1.28 7.49 8.15 19.94 21.88 8.12 9 8.47 8.77 10.94 11.7a109.16 109.16 0 0 1 17 28.05c3.72 8.13 9 20.11 14.77 35 5.33 13.75 7.88 21.69 9.05 21.4 1.71-.41-1-17.95-4.27-40-1.05-6.89-1.93-12.72-2.18-13.77C445 143.25 394.52 73.93 322.81 38.11c-34.7-17.33-77-27-109.85-28.28z"/><path id="tail_top_mid" class="cls-12" d="M223.1 79.79a31.76 31.76 0 0 0 6.9 12.84 33.59 33.59 0 0 0 15.87 9.37c22.25 6.63 52.83 41.91 56.25 45.88 21.57 25.17 31.3 50.62 38.11 68.48a276.09 276.09 0 0 1 8.7 26.73l7.15 46.33a206.63 206.63 0 0 0 8.6-64.68c-.93-13.87-4-40.85-12-65.21a177.38 177.38 0 0 0-7.92-20.13c-1.6-3.41-6.54-16.35-13.66-28a31.1 31.1 0 0 0-6.35-7.69 31.53 31.53 0 0 0-9.93-5.69c-18.29-6.9-25-8.73-25-8.73-17.64-4.83-26.47-7.24-30.58-7.94a174.74 174.74 0 0 0-27.66-2.52z"/><path id="tail_start" class="cls-12" d="m325.72 810.45-22 10.55c-12.12 5.81-46.44 17-60.55 25.55l-24.65 15 15 6.79c5.56 2.53 14 6 19.7 6.73 32.57 4.17 92.95-1.75 114.07-15.08l7.58-3.4-11.14-10.15c-4.54-4.14-19.32-18.12-25.92-24.46z"/><path id="right_thigh_mid" class="cls-12" d="M580.06 521.05c-1.1.65-1.92 2.93-3 6a38.13 38.13 0 0 0-2.38 12.31c-.37 18-25.28 62.73-25.28 62.73-21.77 39.14-32.66 58.7-49 78.35a331.11 331.11 0 0 1-85 72.54L389 770.89l9.2 10.1c5.06 4.79 14.38 16.93 20.7 22.37s20.62 18.93 21.58 18.93c10.6 0 23.69-1.64 73.38-49.64 33.62-32.47 50.42-48.7 66-70.72 14.74-20.84 27.5-43.87 39.53-65.55 6.09-11 10.95-20.21 14.3-26.65a51.61 51.61 0 0 0 6-18.66q-4.54-9.3-9.07-18.6c-35.17-44.99-46.97-53.57-50.56-51.42z"/><path id="neck_bottom" class="cls-12" d="M652.91 466.59 676.28 493l6.09-17.93c1.82-5.39 4.54-12.57 5.09-14.82l2.72-8.61-30-7.43c-12.4-2.76-44.7-8.57-45.27-8.56 0-.01 24.94 23.9 38 30.94z"/><path id="tail_mid" class="cls-12" d="M186.32 85.53c-10.19-.09-25.43 1.9-30.89 3.3-30.55 7.83-72.8 41-100.91 73.34-6.36 7.32-24.77 28.55-24.61 28.7s22.91-6.86 29.19-9c40.73-13.68 74.31 1.65 99.75 40.38 14.6 22.23 21.36 43 19.69 84.07-1.82 45.07-17 108.7-35.15 180.62-2.56 10.18-6.09 50.58-6 51.72.16 2.29 43.68-81.21 63.83-124.27 23.3-49.8 35.77-88.4 44.7-123.67 17.69-69.84 23.57-125.37-1.76-169.41-5.31-9.22-12.57-28.55-19.83-30.88-6.82-2.18-24.9-4.83-38-4.94z"/></g><g id="Side_Stripe_2" data-name="Side Stripe 2"><path id="neck_mid" class="cls-13" d="m719.29 331.08-3.76 4.29c-20.49 10-78.95 16.77-108 13.45-10.27-1.18-6.1 2.83-6.79 3.95-.55.9-.1 20.81-.68 35.79s-2.84 32.87-3.33 34.69c-.84 3.1.46 3.59 20.2 7.57 11.61 2.34 43.87 11.86 54.76 14.37 23 5.29 21.09 4.19 22.35 2.14S719.3 344.61 720.7 336z"/><path id="right_shoulder" class="cls-13" d="M592.68 437.76c-.17 0 .62 13.88-.86 18.81-2.63 8.75-5.38 24.66-7.51 34.65L579.24 515l21.68 18c9.8 8.14 20.7 23 26.29 30.68l13.73 21.84 9.09-9.17c5.73-13.49 24.66-73.76 24.66-75.87 0-3.52-31.41-36.5-44.78-47.71-14.28-12-31-22.85-33.39-23.12z"/><path id="tail_base" class="cls-13" d="M237.13 100.81c-.24.24 6.88 10.74 9.53 17.57 7.55 19.44 15.15 44.67 16.2 70.16 2.31 56.13-10.16 111.19-48.56 198.64-4.78 10.89-25.54 51.82-44.49 90.58-47.72 97.57-51 117.78-58.31 148.88-6.64 28.28-5.25 77 1.39 109 9.35 45 38.11 93.76 75.18 118.56 7.71 5.15 14.64 9.37 15.4 9.37 2.24 0 42.33-16.81 60.26-27.28l54.73-27.93-4.83-8.36c-42.42-49.68-72.87-99.25-84.32-152.62-4.35-20.25-12.11-49.2-8.81-86.6 0 0 6.14-69.61 53.82-130.77 4.11-5.27 16.47-20.14 27.07-32.56 8.18-9.58 12.32-14.42 14.52-16.24C322.81 375.47 332 370 336 362c.25-.52 1.25-2.61 2.4-5.19.71-1.58 2.55-5.69 4.25-10.07a138.79 138.79 0 0 0 5-15.53c5.66-21.87 4.9-47 4.9-47-1-27-8.22-47.6-13.54-62.37-9.62-26.69-25.73-71.43-68.71-103.46a166.51 166.51 0 0 0-25.48-15.63z"/><path id="tail_top_center" class="cls-13" d="M141.62 22.65c-.34 0 17 10.66 16.94 10.72-.35.36 17.54 11.94 24.88 16.59 12.22 7.75 35 23.76 22.82 16.65L212 75.2l28.23.45c9.24.34 57.11 14.14 64.36 15.69 19.07 4.07 4.69-6-1.06-10.67-6.72-5.49-57-36-73.68-42.44C216.28 33 156 20 151 19.83z"/><path id="hip_lower" class="cls-13" d="m383.27 773.17-9.55 8.13c-4.1 2.61-20.87 12.93-30.18 18.09l-17.82 11.06 21.93 20c6.25 6.09 10.4 11.67 16.23 15.17l11.78 9.89 9.75-.83c2.86-1 16.51-9.1 27-15.8l25.21-15.27-11.75-11.08c-3.32-3.14-16.68-16.38-25.07-23.83z"/></g><g id="Hips"><path id="back" class="cls-14" d="M462.88 321.29c-8.16 1.31-14.85 2.31-20.11 3.1-13.25 2-15.27 2.29-18.43 2.7-12.79 1.66-22 5.27-37.12 11.18-11.2 4.39-23.47 9.19-37.33 18-16 10.15-25.56 20.22-39.6 35.17-20 21.35-38.74 46-36.56 48 .69.65 8.78-4.85 24.92-15.87 3.76-2.56 6-4.11 6.89-4.73 13.45-9.18 30-14.18 41.18-17 65.85-16.76 103.19-16 103.19-16C508.27 387 551 405 571.59 413.93c9.14 4 16.61 7.67 21.88 10.41-.29-2.52-.59-5-.88-7.58.31-.86.69-2 1.06-3.36a44.57 44.57 0 0 0 1.14-5.91c.35-2.69.35-4.27.44-6 .32-5.63 1.34-6.08 1.77-10.85.46-5.11-.77-5.06-.53-11.91.12-3.61.41-4.05.88-9.74.68-8.28.14-7.68.71-13.38.71-7.17 1.58-8.45.39-10.72-1.36-2.63-4-3.71-7.94-5.3-5.29-2.11-6.68-1.34-13.76-3.17-6.8-1.76-6.92-2.83-12.47-3.83-5.2-.93-6.47.21-10.77-.79-5.39-1.24-9.15-3.69-16.44-6.29-6-2.14-11.26-3.48-22.1-5.28-9.61-1.59-20.46-3.4-34.09-1.94-3.37.36-1.31.32-18 3z"/><path id="neck_upper" class="cls-14" d="M779.7 248.26c.11.3-15.66 10-18.49 11.85-22.5 14.54-32.9 52.3-36.73 66.21-3.39 12.3-1.23 9-10.37 52.54-3.29 15.68-5 23.61-6.35 28.06-3.27 10.58-3.76 22.2-8.76 32.08-.59 1.16-2.54 4.83-1.06 7.28 1 1.73 3.36 2.1 4.07 2.22 20.16 3.35 40 8.56 60 12.78 7.32 1.54 67.2 14.84 70.44 15.2h.16c.54-.75-15.16-11.38-27.93-24.6a118.59 118.59 0 0 1-17.34-22.37c-2.63-4.5-8.9-16.07-13.23-41.56-4.39-25.77-3.42-45.93-2.42-66.9.56-11.49 1.73-23.09 4.09-46.3.32-3.14.92-8.88 2.12-16.32.67-4.36 1.34-7.87 1.8-10.17z"/><path id="right_elbow" class="cls-14" d="M727.56 605.13c-1.28-.24-2.45.85-3.44 1.72-5 4.36-6.85 4.22-10 6.94-5 4.37-9 12.37-17.87 29.55-4.52 8.8-6.57 18.95-12.31 27-.73 1-3 4.17-2.31 7.55.48 2.23 2.05 3.47 3.51 4.89 4.56 4.42 5.55 8 7.72 11.11 3.21 4.57 11.16 7.79 27 14 0 0 8.6 3.41 30.32 6.46.91.12 3.3.14 3.6-.72s-1.23-1.9-1.45-2.08c-7.32-6-9.79-44.55-9.79-44.55s-.55-8.53-11.36-55.79c-.42-1.6-1.39-5.67-3.62-6.08z"/><path id="right_thigh" class="cls-14" d="m643.75 592.56-21.5 43.65c-30 60.88-52.84 86.32-93.1 120.93-39.59 34-58.47 52.1-68.77 56.17-3.34 1.33-11.09 4.17-11.53 9-.63 7 14.6 14.1 27.35 19l11.88 6.85 13.46-1a65.94 65.94 0 0 0 17.37-2.19c9.2-2.44 17.88-7.74 19.45-8.72 25-15.54 37.57-23.31 52.55-37.56 9.13-8.69 14.65-15.33 24.35-27 37.71-45.36 47-73.4 58.24-87.88a17.24 17.24 0 0 0 3.24-6.33c1.42-5.42-.47-10-2.62-15.55-2.93-7.54-5.34-15.27-8.36-22.78-1.64-4.06-4.12-10.29-7.15-18.06a128.12 128.12 0 0 0-7-15.52 129.53 129.53 0 0 0-7.86-13.01z"/><path id="right_thigh_upper" class="cls-14" d="M439 458.47a212.45 212.45 0 0 0-41.54 3.8 190.41 190.41 0 0 0-25.72 7C353.4 475.64 332.26 483 318 500c-11.09 13.16-13.53 26.73-17.12 46.64a207 207 0 0 0 3 85.61s10.93 44.49 39.26 82.15c7.14 9.49 22.87 28.19 30.4 38.29 3.56 4.77 8.82 8.39 11.38 13.76.32.67 1.11 2.42 2.74 2.91 2.48.76 5.31-1.88 6.44-2.91 4.91-4.45 11.38-6.95 16.32-11.38 10.29-9.22 22.77-15.8 30-20.83A326.49 326.49 0 0 0 474.7 705c4.93-5.77 36-42.46 57.05-77.95a408.89 408.89 0 0 0 21.18-40.64c3.52-8 7.07-17 7.07-17 3.18-8.09 5.2-14.18 7-18.86 3.15-8.38 4.36-17.42 7.68-25.73 1.06-2.64 2.1-5.3 1.32-8.38-1.62-6.41-9.78-9.3-13.76-10.94-15.47-6.36-11-11.47-32.05-23.95-21.45-12.74-42.47-17.1-50.94-18.93-2.62-.57-4.63-.91-6.16-1.19a183.65 183.65 0 0 0-34.09-2.96z"/></g><g id="Accents"><path id="chin" class="cls-15" d="m1048 470.67-12.84 4.74c-27 13.63-48.29 16.59-62.88 16.7-7.79.06-21.92-.62-44.83-1.74-8.32-.4-16.64-.71-24.95-1.18-26.45-1.5-35.25-2.79-35.75-.87s7.29 4.6 23.77 12.77c24.76 12.27 23.55 14.11 36.76 19.17a154.82 154.82 0 0 0 37.72 8.86 144.71 144.71 0 0 0 28.89.35c8.43-.83 14.31-2.24 22.72-4.29 25.08-6.12 35.24-10.8 41-16.64.59-.6-4.56-19-6.36-25.72z"/><path id="right_heel" class="cls-15" d="M472.74 852.78c-9.17.42-13.75.66-18.85.67-15.06 0-21.1-1.35-42.21.89-28.82 3-36.74 5-54.24 12.61A20.83 20.83 0 0 0 345 890.46v5l14.64-2c16.24-3.06 39-7.9 65.92-15.46 36.43-10.24 72.68-23.3 71.93-26.11-.24-.76-3.33-.09-24.75.89z"/><path id="right_upper_shoulder" class="cls-15" d="M703.3 449.74a1.22 1.22 0 0 0-.27 0c-.11.16-5 .08-6.82 1.36a3.7 3.7 0 0 0-1.28 2.2c-2 6.59-5.45 12.73-6.88 19.46a255.7 255.7 0 0 1-7.77 27.42l14.29 23.16c6.6 10.33 11.78 19.58 15.75 27.15 4.08 7.77 2.22 4.92 10.11 20.91 3.54 7.19 4.47 8.9 5.11 12.36.93 5 .27 8.45 2.3 9.53 1.5.79 3.59-.1 7.23-2.39a82 82 0 0 0 13-10c4.28-4.08 8.69-6.45 17.47-11.21 11-5.94 20.06-8.51 29-11a182.8 182.8 0 0 1 31.23-6c5.83-.55 26.74-2.55 34.81.58 2.85 1.1 4.72 1.26 8.47 1.59 3.06.26 4.12 0 4.5-.62.79-1.32-1.48-4-2.2-4.88-.95-1.15-11.13-13.51-14.52-22.3-3.08-8-2.61-18.4 1.68-26 2.61-4.64 4.84-5.05 4.85-7.46 0-6.76-17.52-12.38-43.28-18.8-30.24-7.53-55-11.71-74-15.74-18.41-4.06-33.32-7.25-42.78-9.32z"/><path id="hip_upper" class="cls-15" d="M464.91 391c-14-.94-32.36-2.18-55.74.37a264.07 264.07 0 0 0-72 18.47c-32.69 11.48-55.72 27.12-66.06 38.06a176.1 176.1 0 0 0-16.77 21.37c-1 1.54-3.75 5.79-7.06 11.91A232.46 232.46 0 0 0 232.23 517c-5.67 18-17.26 68.76-2.92 130.37 4.79 20.58 12.19 41.16 14.75 40.63 2-.41-.44-13.66-.06-37.38.27-16.29.67-33.82 6.59-55.09a189.45 189.45 0 0 1 12.26-31.94 126.1 126.1 0 0 1 11.3-19.76c6.12-8.6 7.1-7.39 16.05-19.24a75.88 75.88 0 0 1 10.46-12c2.88-2.61 3.21-2.45 6.35-5.3a77.5 77.5 0 0 0 10.9-12.15c3.26-4.55 3-5.31 7.15-11.3 1.43-2.09 3.15-4.38 5.73-7.56a163.57 163.57 0 0 1 28.27-27.8 151.23 151.23 0 0 1 13.82-9.33c21.31-12.7 40.7-17.08 52.32-19.61 6.3-1.37 11.61-2.21 15.36-2.74 3.48-.72 9-1.77 15.88-2.55 12.27-1.41 15.44-.45 44.37-.11 13 .15 19.91 0 31 1.36 1.62.19 2.28.29 11.13 1.58 21.8 3.2 32.71 4.73 32.95 4 .68-2.15-23.59-13.66-52.11-21.19-24.62-6.49-44.59-7.89-58.87-8.89z"/><path id="tail_front" class="cls-15" d="M350.73 117.71c-6.05-3.42-13.35-7-15.13-5-2 2.28 5 9.61 12.58 24.09a157.55 157.55 0 0 1 13.69 37.92c2.4 10 3.2 17.36 4.33 28.08 1.09 10.32 2.77 26.25 2 44.34-1.34 31.65-9.67 57.43-13.88 70.2-6.23 18.86-14.39 37.2-11.44 38.77.95.51 2.41-1.12 7.55-4.37 3.44-2.18 6.92-3.88 13.89-7.28 32.34-15.77 59.43-19.85 59.43-19.85 18.35-4.39 26.35-5.26 30-5a17.64 17.64 0 0 0 7.65-1.08 13.06 13.06 0 0 0 4.79-2.89c2.29-2.4 2.33-5.56 1.59-17.3-.41-6.49-.61-9.74-.88-12.17-.22-2-1-8.91-2.47-16.06-1.3-6.28-2.48-9.57-11.47-34.06-3.33-9.06-5-13.64-6.35-16.41a110.77 110.77 0 0 0-12.71-20.12c-22.07-28.79-39.71-46.81-39.71-46.81-14.53-14.88-26.96-25.71-43.46-35z"/><path id="tail_tip" class="cls-15" d="m132.46 22.65-16.08 8.13c-38.76 19.6-72 56.82-89.28 100.93-6.43 16.41-16.83 61.39-16.83 67.7a1 1 0 0 0 .17.52c1 2.13 5.6 2 6.76 1.89 5-.49 6.73-6.54 14.65-17.74 3.48-4.91 6.48-8.47 10.72-13.5 0 0 4.66-5.52 10.33-11.51 30.87-32.66 51.81-47 51.81-47a221.22 221.22 0 0 1 45.51-24 210.89 210.89 0 0 1 37.9-10.41l21.57-1.3q-3.24-6.5-6.47-13-12.4-7.84-25.12-16.36-8.85-6-17.34-11.91a48.14 48.14 0 0 0-28.3-12.4z"/></g></g></symbol><symbol id="Squirrel_Filled" data-name="Squirrel Filled" viewBox="0 0 1140.83 949.65"><use width="1140.83" height="949.65" xlink:href="#Squirrel_Background"/><use width="1098.89" height="907.72" transform="translate(20.84 20.79)" xlink:href="#Squirrel_Filled_Transparent"/></symbol><clipPath id="clip-path"><path class="cls-1" d="M0 0h153.43v153.43H0z"/></clipPath><clipPath id="clip-path-2"><path class="cls-1" d="M0 0h153.7v153.43H0z"/></clipPath><style>.cls-1,.cls-2,.cls-3{fill:none}.cls-2,.cls-3{stroke:#d9b776;stroke-miterlimit:11.34}.cls-2{stroke-width:1.42px}.cls-3{stroke-linecap:round;stroke-width:1.98px}.cls-10{fill:url(#New_Pattern_Swatch_18)}.cls-11{fill:url(#New_Pattern_Swatch_24)}.cls-12{fill:url(#New_Pattern_Swatch_28)}.cls-13{fill:url(#New_Pattern_Swatch_27)}.cls-14{fill:url(#New_Pattern_Swatch_19)}.cls-15{fill:url(#New_Pattern_Swatch_26)}</style></defs><g id="Layer_2" data-name="Layer 2"><g id="Logos"><g id="Main_Colors" data-name="Main Colors"><use width="1140.83" height="949.65" transform="scale(.74)" xlink:href="#Squirrel_Filled" id="Squirrel_Logo" data-name="Squirrel Logo"/></g></g></g></svg>