<svg xmlns="http://www.w3.org/2000/svg" xmlns:xlink="http://www.w3.org/1999/xlink" width="1450.1" height="102.92"><defs><symbol id="a" viewBox="0 0 376.85 312.17"><path d="M350.92 215.39s-6.69 1-11.43-3.64a.16.16 0 0 0-.27.17 11.54 11.54 0 0 1-.54 9.19c-4.14 8.75-15 12-23.5 7.36l-9.78-5a.17.17 0 0 0-.18 0c-.54.41-3.6 2.74-8.25 5.67-12.86 7.61-25.77 13.93-40.9 15.62a.17.17 0 0 0-.15.2c5.72 23.73-11.66 41.3-14.19 43.69a.17.17 0 0 0 .12.29c25.93.67 26 16.27 25.89 18a.17.17 0 0 1-.17.16H117.75a.17.17 0 0 1-.17-.19l1-9a.17.17 0 0 0-.21-.18c-21.62 6.11-48.22.26-63.22-14.95-32-39.47-11.75-82.54-1.93-122.18 7.11-29 13.73-64.17 5.93-80.17-10.68-21.93-34.77-25-53.81-4a.17.17 0 0 1-.3-.13c11-126 178.17-66 155.65 32.86a.16.16 0 0 0 .16.21c9.79-.19 22.5 1.71 37.15 7.18 0 0 35.93 11.88 50.43-6.89.28-.8 7.67-21.4 19.17-26.24a.17.17 0 0 0 .1-.2c-.6-2.15-7.15-28.53 23.25-51.61a.17.17 0 0 1 .27.17c-.88 3.37-5.38 23.63 10.32 35.19.76.39 38.13 19.88 41.31 24.81s26.8 35.52 29 76.8a.15.15 0 0 1-.07.15c-9.86 6.32-19.65 11.59-31.77 13.65a.17.17 0 0 0-.09.29c2.81 2.58 27.82 26.08 11.09 32.67zm-118.18 91.29" style="stroke:#161515;stroke-miterlimit:7.57;stroke-width:10px;fill:#d9b776"/></symbol><style>.b{fill:#d9b776}</style></defs><use width="376.84" height="312.17" transform="matrix(.31 0 0 .31 3.46 3.46)" xlink:href="#a"/><path class="b" d="M184.66 68.75h-34.23l-7.08 16.1h-9.48L163 20.45h9.1l29.26 64.4h-9.66zm-3.22-7.36-13.9-31.55-13.89 31.55zM257.61 26.43q7.18 6 7.18 16.47t-7.18 16.47q-7.17 6-19.69 6H222v19.5h-9.2V20.45h25.11q12.52 0 19.7 5.98zM251 53.62q4.59-3.72 4.6-10.72T251 32.18q-4.61-3.72-13.34-3.72H222v28.89h15.64q8.74 0 13.36-3.73zM325 26.43q7.19 6 7.18 16.47T325 59.37q-7.17 6-19.68 6h-15.97v19.5h-9.2V20.45h25.12q12.51 0 19.73 5.98zm-6.62 27.19q4.6-3.72 4.6-10.72t-4.6-10.72q-4.6-3.72-13.34-3.72h-15.69v28.89H305q8.74 0 13.33-3.73zM385.3 68.75h-34.22L344 84.85h-9.48l29.16-64.4h9.11l29.26 64.4h-9.66zm-3.21-7.36-13.9-31.55-13.89 31.55zM413.46 20.45h9.2v56.4h34.86v8h-44.06zM511.25 68.75H477l-7.09 16.1h-9.47l29.16-64.4h9.11L528 84.85h-9.66zM508 61.39l-13.86-31.55-13.89 31.55zM550.76 81.31a31.5 31.5 0 0 1-12.19-11.77 32.69 32.69 0 0 1-4.41-16.89 32.68 32.68 0 0 1 4.41-16.88A31.43 31.43 0 0 1 550.81 24a35.72 35.72 0 0 1 17.48-4.28 36.41 36.41 0 0 1 13.8 2.53 28.16 28.16 0 0 1 10.67 7.5l-6 5.79a24 24 0 0 0-18.12-7.63 26.18 26.18 0 0 0-13 3.22 23.3 23.3 0 0 0-9.02 8.87 24.94 24.94 0 0 0-3.26 12.65 24.88 24.88 0 0 0 3.26 12.65 23.25 23.25 0 0 0 9.07 8.88 26.18 26.18 0 0 0 13 3.22 24 24 0 0 0 18.12-7.73l6 5.8A28.46 28.46 0 0 1 582 83a36.17 36.17 0 0 1-13.84 2.58 35.62 35.62 0 0 1-17.4-4.27zM663.14 20.45v64.4h-9.2v-28.7H617v28.7h-9.2v-64.4h9.2v27.7h37v-27.7zM684.3 20.45h9.2v64.4h-9.2zM755.69 68.75h-34.22l-7.08 16.1h-9.48l29.16-64.4h9.11l29.26 64.4h-9.66zm-3.22-7.36-13.89-31.55-13.89 31.55zM811.26 20.45h6.81v64.4h-6.81zM896.54 20.45v64.4h-5.61l-41.4-52.25v52.25h-6.81v-64.4h5.62l41.49 52.26V20.45zM933.71 26.34h-22.63v-5.89h52.07v5.89h-22.63v58.51h-6.81zM1023.23 79v5.88h-45.54V20.45h44.16v5.89h-37.36v22.91h33.31v5.8h-33.31V79zM1086.89 84.85l-14.72-20.7a45.21 45.21 0 0 1-5.15.28h-17.3v20.42h-6.81v-64.4H1067q12.32 0 19.32 5.89t7 16.19a21 21 0 0 1-3.82 12.75 21.13 21.13 0 0 1-10.9 7.49l15.73 22.08zm-5.43-30.45q5.05-4.23 5.06-11.87 0-7.81-5.06-12t-14.63-4.19h-17.11v32.29h17.11q9.57 0 14.63-4.23zM1153.5 67.65h-35.88l-7.73 17.2h-7.09l29.44-64.4h6.76l29.44 64.4h-7.18zm-2.5-5.52-15.45-34.59-15.45 34.59zM1192.55 81.17a31 31 0 0 1-12-11.73 32.63 32.63 0 0 1-4.37-16.79 32.68 32.68 0 0 1 4.37-16.79 31 31 0 0 1 12.1-11.73 35.39 35.39 0 0 1 17.29-4.23 35.92 35.92 0 0 1 13.25 2.39 27.46 27.46 0 0 1 10.3 7l-4.32 4.32q-7.55-7.63-19-7.64a28 28 0 0 0-13.9 3.5 25.51 25.51 0 0 0-9.79 9.57 26.45 26.45 0 0 0-3.55 13.61 26.46 26.46 0 0 0 3.55 13.62 25.51 25.51 0 0 0 9.79 9.57 28 28 0 0 0 13.9 3.49q11.58 0 19-7.72l4.32 4.32a27.85 27.85 0 0 1-10.35 7 35.69 35.69 0 0 1-13.29 2.44 35.05 35.05 0 0 1-17.3-4.2zM1263.35 26.34h-22.64v-5.89h52.07v5.89h-22.63v58.51h-6.8zM1307.32 20.45h6.81v64.4h-6.81zM1391.59 20.45l-28.52 64.4h-6.72l-28.51-64.4h7.36l24.65 55.94 24.84-55.94zM1450.1 79v5.88h-45.54V20.45h44.16v5.89h-37.35v22.91h33.31v5.8h-33.31V79z"/></svg>