<svg xmlns="http://www.w3.org/2000/svg" width="1000" height="1000"><path style="fill:none" d="M0 0h1000v1000H0z"/><path d="M431.36 398.89c23.37-112.49-200.32-284-329.18-76.23m240.65 101.68C386.46 307.81 231 114.86 102.18 322.66m539 370.08C615.35 377.13 301.5 434.17 273.51 518.82m65.15 310.34c127.39-44.22 175.74-25.69 249.92-165.71 43.9-118.31 153.21-87.83 160.25-82m-300.19 208c-54.38-21.91-184.53-152.45-125.74-255 80.4-140.22 319.65 1.68 484.88-6.58 27.48-3.5 59.53-21.42 74.85-22.45M665.51 343.64c16.32 63.23 112.68 9.21 142.73 50.9 31.92 44.28 56 144.6 56 144.6M198.71 180.8C441 218.11 338.61 433 338.61 433m-99.14 367.67C423.14 723 527 653.58 530 421.84m133.18-77.19s-18.54-60.28 51-112.45c0 0-15.07 49.76 22 77.06 0 0 82.3 42.85 89.25 53.59s58 76.84 62.6 166.09c0 0-41.1 28.88-85.88 28.4 0 0-13.2.07-30.71-6.58-34.84-15.55-65.85-33.21-93.22-54.21-11.32-8.9-15.89-30.74-20.3-50.32-8.77-39.16 5.3-101.58 5.3-101.58zM189.85 183.22c222.94 99.22-19.06 361.49-24.2 463.28-2.87 53.76 4.42 93.86 38.36 129.06 17 17.61 39.08 30.18 66.88 35a150.68 150.68 0 0 0 21.93 2.13 183.38 183.38 0 0 0 24.1-1c8.41-.9 22.33-5.68 31.29-8.51 27.11-8.53 119.16-57.69 162.31-112.17 63.74-80.48 105.79-243.4 110.92-286.84m-456 242.42c-.37-10 19.11-72.54 34.41-134.91 15.36-62.63 29.65-138.59 12.82-173.15-23.21-47.64-75.71-54-117-7.95 22.79-273.8 385.47-143.71 338.44 70.25m384.36 157.85s62.67 56.05 24.41 71.11c0 0-15.59 2.33-26.61-10.75m-89.1-90.67s-43.18 38 60.16 67.18c0 0 43.15 17 29.12 46.6-8.94 18.9-32.38 25.85-50.75 15.85l-21.33-10.8s-110.65 86.39-155.91 16.22c-69.89-241.62-353.72-185.89-312.79 20.25M588.46 828a20.41 20.41 0 0 0-1.64-2.1c-2.68-14.56-7.87-35.2-55.5-37.18s-111.37-.14-163.88 6.94m-28.55 12.52V828h324.33s3.48-38.12-56.8-39.28c0 0 44.83-39.94 36.91-92.48m-275.89 99.43s-226.59-166.32-41.71-349.32c0 0 64.3-72.62 186.81-29.92 0 0 77.65 25.67 109-14.94 0 0 16.22-46.42 41.73-56.84" style="stroke-width:3.94px;stroke:#fff;stroke-miterlimit:7.57;fill:none"/><path d="M845.18 627.77s-14.45 2.16-24.67-7.86a.36.36 0 0 0-.59.37 25 25 0 0 1-1.17 19.85C809.81 659 786.37 666 768 656l-21.12-10.72a.37.37 0 0 0-.39 0c-1.16.89-7.78 5.92-17.81 12.26-27.77 16.46-55.68 30.12-88.35 33.77a.35.35 0 0 0-.31.44c12.36 51.25-25.2 89.18-30.65 94.36a.36.36 0 0 0 .25.62c56 1.44 56.09 35.14 55.92 38.91a.37.37 0 0 1-.37.35H341.59a.37.37 0 0 1-.36-.41l2.09-19.35a.36.36 0 0 0-.46-.39c-46.69 13.19-104.14.56-136.53-32.28-69.11-85.25-25.37-178.27-4.17-263.88C217.49 447 231.78 371.06 215 336.5c-23.07-47.36-75.09-53.94-116.23-8.75a.37.37 0 0 1-.64-.28c23.64-272.19 384.8-142.53 336.16 71a.36.36 0 0 0 .36.44c21.14-.4 48.59 3.71 80.24 15.52 0 0 77.59 25.65 108.91-14.89v-.1c.61-1.72 16.58-46.22 41.42-56.67a.36.36 0 0 0 .21-.43c-1.29-4.66-15.44-61.63 50.22-111.48a.37.37 0 0 1 .58.38c-1.9 7.27-11.61 51 22.29 76a.1.1 0 0 0 .05 0c1.62.84 82.34 42.94 89.22 53.57s57.88 76.74 62.59 165.88a.37.37 0 0 1-.17.33c-21.29 13.65-42.42 25-68.61 29.48a.36.36 0 0 0-.2.62c6.07 5.58 60.1 56.33 24 70.56zM589.94 824.94" style="stroke-width:7.42px;stroke:#fff;stroke-miterlimit:7.57;fill:none"/></svg>