<svg xmlns="http://www.w3.org/2000/svg" width="367.32" height="367.32"><g data-name="Layer 2"><path style="fill:#161515" d="M0 0h367.32v367.32H0z"/><path data-name="Lines Inner" d="M159.05 143c9.37-45.1-80.31-113.87-132-30.56m96.49 40.77c17.49-46.72-44.82-124.08-96.49-40.77m216.13 148.34C232.82 134.24 107 157.11 95.77 191.05m26.11 124.42c51.12-17.73 70.47-10.3 100.21-66.47 17.59-47.43 61.42-35.21 64.24-32.86M166 299.59c-21.8-8.79-74-61.12-50.42-102.22 32.24-56.23 128.16.67 194.41-2.64 11-1.41 23.87-8.59 30-9m-87.05-64.92c6.54 25.35 45.18 3.69 57.22 20.41 12.8 17.75 22.47 58 22.47 58M65.77 55.52c97.15 15 56.09 101.12 56.09 101.12M82.12 304.05c73.63-31.15 115.28-59 116.49-151.89M252 121.22s-7.43-24.17 20.45-45.09c0 0-6 20 8.83 30.9 0 0 33 17.18 35.78 21.48s23.24 30.81 25.1 66.6c0 0-16.48 11.57-34.43 11.38a37.72 37.72 0 0 1-12.32-2.64 183.66 183.66 0 0 1-37.37-21.73c-4.54-3.57-6.37-12.33-8.14-20.18-3.53-15.7 2.1-40.72 2.1-40.72zM62.22 56.49c89.39 39.78-7.64 144.94-9.7 185.75-1.15 21.55 1.77 37.63 15.38 51.76a47.79 47.79 0 0 0 26.81 14 61.21 61.21 0 0 0 8.79.85 73.11 73.11 0 0 0 9.67-.41c3.37-.36 9-2.28 12.54-3.41 10.87-3.42 47.78-23.13 65.08-45 25.55-32.27 42.41-97.59 44.47-115M52.43 242.27c-.15-4 7.66-29.08 13.79-54.09s11.89-55.57 5.14-69.42c-9.3-19.1-30.36-21.66-46.89-3.19C33.61 5.79 179 58 160.16 143.74M314.26 207s25.12 22.47 9.78 28.51a12.44 12.44 0 0 1-10.67-4.31m-35.72-36.36s-17.31 15.22 24.12 26.94c0 0 17.3 6.81 11.68 18.68a14.73 14.73 0 0 1-20.35 6.37l-8.55-4.34S240.18 277.16 222 249c-28-96.87-141.82-74.53-125.41 8.12M222 315a8.42 8.42 0 0 0-.66-.84c-1.07-5.84-3.15-14.11-22.25-14.91a407.32 407.32 0 0 0-65.71 2.79m-11.45 5V315H252s1.4-15.28-22.77-15.75c0 0 18-16 14.79-37.08m-110.6 39.88S42.58 235.36 116.7 162c0 0 25.78-29.12 74.9-12 0 0 31.13 10.3 43.68-6 0 0 6.5-18.61 16.73-22.78" style="stroke-width:3.77px;fill:none;stroke:#d9b776;stroke-miterlimit:7.57"/><path data-name="Lines Outer" d="M324 234.74s-5.79.86-9.89-3.16a.15.15 0 0 0-.24.15 10 10 0 0 1-.46 8 14.74 14.74 0 0 1-20.36 6.37l-8.46-4.3a.15.15 0 0 0-.16 0c-.46.36-3.12 2.38-7.14 4.92-11.14 6.59-22.32 12.06-35.43 13.52a.15.15 0 0 0-.12.18c4.95 20.55-10.11 35.76-12.29 37.84a.14.14 0 0 0 .1.25c22.46.57 22.49 14.09 22.42 15.6a.15.15 0 0 1-.15.14H122.11a.15.15 0 0 1-.14-.17l.84-7.76a.15.15 0 0 0-.19-.15c-18.72 5.29-41.75.22-54.75-12.95C40.15 259 57.69 221.7 66.19 187.37c6.16-25.11 11.89-55.57 5.14-69.43-9.25-19-30.11-21.63-46.6-3.51a.15.15 0 0 1-.26-.11C34 5.18 178.77 57.17 159.27 142.78a.14.14 0 0 0 .14.18c8.48-.16 19.48 1.48 32.17 6.22 0 0 31.12 10.28 43.67-6 .24-.69 6.64-18.53 16.6-22.72a.15.15 0 0 0 .09-.18c-.52-1.86-6.19-24.71 20.14-44.7a.15.15 0 0 1 .23.15c-.76 2.92-4.66 20.47 8.93 30.48.66.34 33 17.22 35.78 21.49s23.21 30.77 25.1 66.51a.14.14 0 0 1-.07.13c-8.54 5.48-17 10-27.51 11.82a.15.15 0 0 0-.08.25c2.43 2.24 24.1 22.59 9.61 28.3z" style="stroke-width:7.55px;fill:none;stroke:#d9b776;stroke-miterlimit:7.57"/></g></svg>