<svg xmlns="http://www.w3.org/2000/svg" xmlns:xlink="http://www.w3.org/1999/xlink" width="1473.19" height="96"><defs><symbol id="Squirrel_Filled_-_Gold" data-name="Squirrel Filled - Gold" viewBox="0 0 376.85 312.17"><path id="Squirrel_Filled" data-name="Squirrel Filled" d="M350.92 215.39s-6.69 1-11.43-3.64a.16.16 0 0 0-.27.17 11.54 11.54 0 0 1-.54 9.19c-4.14 8.75-15 12-23.5 7.36l-9.78-5a.17.17 0 0 0-.18 0c-.54.41-3.6 2.74-8.25 5.67-12.86 7.61-25.77 13.93-40.9 15.62a.17.17 0 0 0-.15.2c5.72 23.73-11.66 41.3-14.19 43.69a.17.17 0 0 0 .12.29c25.93.67 26 16.27 25.89 18a.17.17 0 0 1-.17.16H117.75a.17.17 0 0 1-.17-.19l1-9a.17.17 0 0 0-.21-.18c-21.62 6.11-48.22.26-63.22-14.95-32-39.47-11.75-82.54-1.93-122.18 7.11-29 13.73-64.17 5.93-80.17-10.68-21.93-34.77-25-53.81-4a.17.17 0 0 1-.3-.13c11-126 178.17-66 155.65 32.86a.16.16 0 0 0 .16.21c9.79-.19 22.5 1.71 37.15 7.18 0 0 35.93 11.88 50.43-6.89.28-.8 7.67-21.4 19.17-26.24a.17.17 0 0 0 .1-.2c-.6-2.15-7.15-28.53 23.25-51.61a.17.17 0 0 1 .27.17c-.88 3.37-5.38 23.63 10.32 35.19.76.39 38.13 19.88 41.31 24.81s26.8 35.52 29 76.8a.15.15 0 0 1-.07.15c-9.86 6.32-19.65 11.59-31.77 13.65a.17.17 0 0 0-.09.29c2.81 2.58 27.82 26.08 11.09 32.67zm-118.18 91.29" style="stroke:#161515;stroke-miterlimit:7.57;stroke-width:10px;fill:#d9b776"/></symbol><style>.cls-2{fill:#d9b776}</style></defs><g id="Layer_2" data-name="Layer 2"><g id="Logos"><g id="Main_Colors" data-name="Main Colors"><g id="Squirrel_Stripe_Logo" data-name="Squirrel Stripe Logo"><use width="376.84" height="312.17" transform="scale(.31)" xlink:href="#Squirrel_Filled_-_Gold"/><path class="cls-2" d="M207.74 65.29h-34.22l-7.09 16.1H157L186.12 17h9.11l29.25 64.4h-9.66zm-3.22-7.36-13.89-31.55-13.89 31.55zM280.7 23q7.17 6 7.17 16.47t-7.17 16.44q-7.18 6-19.69 6h-15.92v19.5h-9.2V17H261q12.52 0 19.7 6zm-6.63 27.19q4.6-3.73 4.6-10.72t-4.6-10.72Q269.47 25 260.73 25h-15.64v28.88h15.64q8.75 0 13.34-3.72zM348 23q7.17 6 7.17 16.47T348 55.91q-7.19 6-19.69 6h-15.88v19.5h-9.2V17h25.12q12.51 0 19.65 6zm-6.63 27.19q4.6-3.73 4.6-10.72t-4.6-10.72Q336.82 25 328.07 25h-15.64v28.88h15.64q8.74 0 13.34-3.72zM408.39 65.29h-34.22l-7.09 16.1h-9.47L386.77 17h9.11l29.25 64.4h-9.66zm-3.22-7.36-13.89-31.55-13.89 31.55zM436.54 17h9.2v56.4h34.87v8h-44.07zM534.34 65.29h-34.23L493 81.39h-9.48L512.72 17h9.1l29.26 64.4h-9.66zm-3.22-7.36-13.9-31.55-13.89 31.55zM573.85 77.85a31.45 31.45 0 0 1-12.19-11.78 32.64 32.64 0 0 1-4.42-16.88 32.69 32.69 0 0 1 4.42-16.88 31.39 31.39 0 0 1 12.24-11.78 35.81 35.81 0 0 1 17.47-4.27 36.5 36.5 0 0 1 13.81 2.53 28.22 28.22 0 0 1 10.67 7.49l-6 5.8a24 24 0 0 0-18.13-7.64 26.35 26.35 0 0 0-13 3.22 23.43 23.43 0 0 0-9.06 8.88 24.82 24.82 0 0 0-3.27 12.65 24.82 24.82 0 0 0 3.27 12.65 23.43 23.43 0 0 0 9.06 8.88 26.24 26.24 0 0 0 13 3.22 24.06 24.06 0 0 0 18.13-7.73l6 5.8a28.61 28.61 0 0 1-10.72 7.54 36.22 36.22 0 0 1-13.85 2.58 35.55 35.55 0 0 1-17.43-4.28zM686.23 17v64.4H677V52.69h-37v28.7h-9.2V17h9.2v27.68h37V17zM707.39 17h9.2v64.4h-9.2zM778.78 65.29h-34.23l-7.08 16.1H728L757.16 17h9.11l29.25 64.4h-9.66zm-3.22-7.36-13.89-31.55-13.9 31.55zM834.35 17h6.8v64.4h-6.8zM919.63 17v64.4H914l-41.4-52.25v52.24h-6.81V17h5.61l41.49 52.26V17zM956.79 22.88h-22.63V17h52.07v5.89H963.6v58.5h-6.81zM1046.31 75.5v5.89h-45.54V17h44.16v5.89h-37.35v22.9h33.3v5.79h-33.3V75.5zM1110 81.39l-14.72-20.7a45.08 45.08 0 0 1-5.15.28h-17.29v20.42H1066V17h24.1q12.33 0 19.32 5.89t7 16.19a21 21 0 0 1-3.81 12.74 21.12 21.12 0 0 1-10.91 7.5l15.74 22.08zm-5.42-30.45q5.06-4.23 5-11.87 0-7.82-5-12t-14.63-4.19h-17.11v32.29h17.11q9.54 0 14.6-4.23zM1176.58 64.19h-35.88l-7.7 17.2h-7.08L1155.33 17h6.67l29.44 64.4h-7.17zm-2.48-5.52-15.46-34.59-15.46 34.59zM1215.63 77.71A31 31 0 0 1 1203.58 66a32.75 32.75 0 0 1-4.37-16.79 32.77 32.77 0 0 1 4.37-16.79 30.89 30.89 0 0 1 12.1-11.73 35.43 35.43 0 0 1 17.3-4.23 35.87 35.87 0 0 1 13.24 2.39 27.59 27.59 0 0 1 10.31 7l-4.33 4.33q-7.54-7.63-19-7.64a28 28 0 0 0-13.89 3.5 25.53 25.53 0 0 0-9.8 9.57 26.49 26.49 0 0 0-3.54 13.61 26.55 26.55 0 0 0 3.54 13.62 25.53 25.53 0 0 0 9.8 9.57 28 28 0 0 0 13.89 3.49q11.6 0 19-7.73l4.33 4.33a27.85 27.85 0 0 1-10.35 7 35.71 35.71 0 0 1-13.3 2.43 35.15 35.15 0 0 1-17.25-4.22zM1286.43 22.88h-22.63V17h52.07v5.89h-22.63v58.5h-6.81zM1330.4 17h6.81v64.4h-6.81zM1414.68 17l-28.52 64.4h-6.72L1350.92 17h7.36l24.66 55.94L1407.77 17zM1473.19 75.5v5.89h-45.54V17h44.16v5.89h-37.35v22.9h33.3v5.79h-33.3V75.5z"/></g></g></g></g></svg>