<svg xmlns="http://www.w3.org/2000/svg" xmlns:xlink="http://www.w3.org/1999/xlink" width="640" height="440" viewBox="0 0 640 440"><defs><style>.a{fill:#d9b776;}.b,.c{fill:none;stroke:#d9b776;stroke-miterlimit:7.57;}.b{stroke-width:7.37px;}.c{stroke-width:13.89px;}.d{fill:#161515;}</style><symbol id="b" viewBox="0 0 1098.89 907.72"><path class="b" d="M463.88,315.51c32-153.91-274.1-388.62-450.42-104.3M342.75,350.34c59.68-159.45-153-423.45-329.29-139.13M751,717.58c-35.37-431.84-464.81-353.8-503.09-238M337,904.24c174.3-60.51,240.47-35.16,342-226.74,60.06-161.88,209.63-120.18,219.26-112.14M487.52,850c-74.41-30-252.48-208.59-172-348.85,110-191.87,437.37,2.3,663.45-9,37.6-4.79,81.45-29.3,102.42-30.71M784.26,239.92c22.32,86.52,154.17,12.6,195.29,69.64,43.67,60.58,76.67,197.85,76.67,197.85M145.55,17.11C477.08,68.15,337,362.2,337,362.2M201.32,865.26C452.63,759,594.75,664,598.89,346.92M781.12,241.3s-25.37-82.48,69.79-153.86c0,0-20.62,68.08,30.12,105.44,0,0,112.61,58.63,122.13,73.32s79.3,105.14,85.65,227.26c0,0-56.24,39.51-117.52,38.85,0,0-18,.11-42-9C881.6,502,839.17,477.87,801.73,449.15,786.24,437,780,407.08,774,380.29,761.88,326.71,781.12,241.3,781.12,241.3ZM133.42,20.42C438.47,156.18,107.34,515,100.31,654.32c-3.93,73.55,6,128.41,52.49,176.59C176,855,206.27,872.2,244.31,878.81a206.44,206.44,0,0,0,30,2.91,251.34,251.34,0,0,0,33-1.4c11.51-1.23,30.55-7.77,42.81-11.63,37.09-11.69,163-79,222.08-153.49,87.21-110.12,144.76-333,151.78-392.47M100,654.42c-.51-13.61,26.14-99.25,47.07-184.59,21-85.7,40.58-189.63,17.55-236.92C132.86,167.72,61,159,4.58,222,35.77-152.61,532,25.4,467.66,318.15m525.89,216s85.75,76.7,33.4,97.31c0,0-21.33,3.18-36.41-14.71M868.62,492.67s-59.08,51.94,82.32,91.93c0,0,59,23.25,39.85,63.76-12.24,25.85-44.32,35.37-69.45,21.73l-29.18-14.82s-151.4,118.21-213.32,22.2c-95.64-330.62-484-254.36-428,27.7m428,197.49a29.18,29.18,0,0,0-2.26-2.87c-3.66-19.91-10.76-48.16-75.93-50.87s-152.38-.19-224.24,9.5m-39.07,17.12v27.12H781.12s4.76-52.15-77.72-53.74c0,0,61.34-54.65,50.5-126.54m-377.49,136s-310-227.57-57.07-478c0,0,88-99.38,255.61-40.95,0,0,106.25,35.12,149.07-20.45,0,0,22.2-63.5,57.1-77.77"/><path class="c" d="M1030.09,628.69s-19.77,2.95-33.75-10.76a.49.49,0,0,0-.81.51c3.1,9.29,2.86,17.76-1.6,27.16-12.23,25.85-44.31,35.36-69.45,21.73l-28.89-14.68a.49.49,0,0,0-.53.05c-1.59,1.22-10.64,8.1-24.38,16.78-38,22.48-76.17,41.15-120.88,46.14a.49.49,0,0,0-.42.61c16.9,70.13-34.49,122-41.94,129.1a.5.5,0,0,0,.34.86c76.65,2,76.74,48.08,76.51,53.24a.49.49,0,0,1-.5.47H341.05a.5.5,0,0,1-.5-.55l2.86-26.49a.5.5,0,0,0-.63-.53c-63.88,18-142.48.77-186.81-44.17l0,0c-94.57-116.65-34.72-243.91-5.71-361.06,21-85.69,40.58-189.63,17.54-236.91-31.57-64.81-102.74-73.81-159-12a.5.5,0,0,1-.87-.38c32.34-372.43,526.51-195,460,97.12a.49.49,0,0,0,.49.61c28.93-.55,66.48,5.07,109.78,21.23,0,0,106.17,35.09,149-20.38a.39.39,0,0,0,.08-.14c.83-2.35,22.68-63.23,56.67-77.53a.49.49,0,0,0,.28-.59c-1.77-6.37-21.12-84.33,68.72-152.54a.51.51,0,0,1,.8.52c-2.6,10-15.9,69.82,30.49,104l.06,0c2.23,1.16,112.67,58.76,122.09,73.31s79.19,105,85.64,227a.52.52,0,0,1-.23.46c-29.14,18.67-58,34.25-93.89,40.33a.5.5,0,0,0-.26.85c8.3,7.64,82.23,77.08,32.78,96.55ZM680.85,898.46"/></symbol><symbol id="c" viewBox="0 0 363.14 94.34"><path class="a" d="M27.6,33.75H9L5.15,42.5H0l15.85-35h5l15.9,35H31.45Zm-1.75-4L18.3,12.6,10.75,29.75Z"/><path class="a" d="M68.25,10.75a11,11,0,0,1,3.9,9,11,11,0,0,1-3.9,9q-3.9,3.26-10.7,3.25H48.9V42.5h-5V7.5H57.55Q64.35,7.5,68.25,10.75Zm-3.6,14.77a7,7,0,0,0,2.5-5.82,7.07,7.07,0,0,0-2.5-5.83c-1.67-1.35-4.08-2-7.25-2H48.9v15.7h8.5C60.57,27.55,63,26.87,64.65,25.52Z"/><path class="a" d="M105.85,10.75a11,11,0,0,1,3.9,9,11,11,0,0,1-3.9,9q-3.9,3.26-10.7,3.25H86.5V42.5h-5V7.5H95.15Q101.95,7.5,105.85,10.75Zm-3.6,14.77a7,7,0,0,0,2.5-5.82,7.07,7.07,0,0,0-2.5-5.83c-1.67-1.35-4.08-2-7.25-2H86.5v15.7H95C98.17,27.55,100.58,26.87,102.25,25.52Z"/><path class="a" d="M139.65,33.75h-18.6L117.2,42.5h-5.15l15.85-35h4.95l15.9,35H143.5Zm-1.75-4L130.35,12.6,122.8,29.75Z"/><path class="a" d="M156,7.5h5V38.15h19V42.5H156Z"/><path class="a" d="M210.1,33.75H191.5l-3.85,8.75H182.5l15.85-35h5l15.9,35H214Zm-1.75-4L200.8,12.6l-7.55,17.15Z"/><path class="a" d="M232.57,40.57a17,17,0,0,1-6.62-6.4,17.7,17.7,0,0,1-2.4-9.17,17.76,17.76,0,0,1,2.4-9.18,17.06,17.06,0,0,1,6.65-6.4,19.45,19.45,0,0,1,9.5-2.32,20,20,0,0,1,7.5,1.37,15.45,15.45,0,0,1,5.8,4.08l-3.25,3.15a13,13,0,0,0-9.85-4.15,14.23,14.23,0,0,0-7.05,1.75,12.69,12.69,0,0,0-4.93,4.82A13.56,13.56,0,0,0,228.55,25a13.52,13.52,0,0,0,1.77,6.87,12.72,12.72,0,0,0,4.93,4.83,14.23,14.23,0,0,0,7.05,1.75,13.07,13.07,0,0,0,9.85-4.2l3.25,3.15a15.56,15.56,0,0,1-5.83,4.1,19.74,19.74,0,0,1-7.52,1.4A19.35,19.35,0,0,1,232.57,40.57Z"/><path class="a" d="M294.65,7.5v35h-5V26.9h-20.1V42.5h-5V7.5h5V22.55h20.1V7.5Z"/><path class="a" d="M307.15,7.5h5v35h-5Z"/><path class="a" d="M347,33.75h-18.6L324.5,42.5h-5.15l15.85-35h4.95l15.9,35H350.8Zm-1.75-4L337.65,12.6,330.1,29.75Z"/><path class="a" d="M3.68,85.64V58h2V85.64Z"/><path class="a" d="M25.44,61.66v24h-2V58h1.64l19.3,24.38V58h2V85.64h-2Z"/><path class="a" d="M83.47,59.75H73.33V85.64h-2V59.75H61.2V58H83.47Z"/><path class="a" d="M116.74,83.85v1.79H98.29V58h18.1v1.8H100.28V70.63h14.08v1.71H100.28V83.85Z"/><path class="a" d="M132.69,85.64V58h11.5a7.17,7.17,0,0,1,3.26.74,8.39,8.39,0,0,1,2.53,2,9.37,9.37,0,0,1,1.68,2.75,8.49,8.49,0,0,1,.61,3.12,9.25,9.25,0,0,1-.82,3.86,8.44,8.44,0,0,1-2.28,3,6.78,6.78,0,0,1-3.42,1.48l6.91,10.76h-2.31l-6.7-10.45h-9V85.64Zm2-12.28h9.71a5.15,5.15,0,0,0,3.12-1,6.55,6.55,0,0,0,2.05-2.53,7.84,7.84,0,0,0,.72-3.32,6.86,6.86,0,0,0-.84-3.33,7.15,7.15,0,0,0-2.22-2.5,5.4,5.4,0,0,0-3.1-1h-9.44Z"/><path class="a" d="M177,58h1.72l11.7,27.69H188.3l-3.77-9.12H171.15l-3.79,9.12h-2.15Zm6.86,16.93-6-14.51-6,14.51Z"/><path class="a" d="M202.22,71.56a14.61,14.61,0,0,1,.88-4.93,14.78,14.78,0,0,1,2.56-4.45A12.53,12.53,0,0,1,209.77,59a12.32,12.32,0,0,1,5.56-1.21,11.38,11.38,0,0,1,6.32,1.69,10.84,10.84,0,0,1,3.9,4.35l-1.64.94a9.06,9.06,0,0,0-2.4-3,8.88,8.88,0,0,0-3.06-1.62,11.29,11.29,0,0,0-3.28-.49,10.09,10.09,0,0,0-4.66,1,10.73,10.73,0,0,0-3.45,2.81,12.53,12.53,0,0,0-2.12,3.9,13.3,13.3,0,0,0-.73,4.33,12.77,12.77,0,0,0,.86,4.66,13.06,13.06,0,0,0,2.36,3.92A11.33,11.33,0,0,0,210.94,83a9.48,9.48,0,0,0,4.35,1,10.88,10.88,0,0,0,3.41-.57A10.57,10.57,0,0,0,222,81.68a8.77,8.77,0,0,0,2.46-3.1l1.71.82a9,9,0,0,1-2.69,3.51,12.91,12.91,0,0,1-4,2.19,13.5,13.5,0,0,1-4.33.74A11.09,11.09,0,0,1,210,84.61a13.37,13.37,0,0,1-4.12-3.28,15.35,15.35,0,0,1-3.61-9.77Z"/><path class="a" d="M260.76,59.75H250.62V85.64h-2V59.75H238.49V58h22.27Z"/><path class="a" d="M275.58,85.64V58h2V85.64Z"/><path class="a" d="M294.42,58,305,83.15,315.48,58h2.11L305.92,85.64H304L292.31,58Z"/><path class="a" d="M350.81,83.85v1.79H332.37V58h18.09v1.8h-16.1V70.63h14.07v1.71H334.36V83.85Z"/></symbol><symbol id="a" viewBox="0 0 363.14 289.15"><use width="1098.89" height="907.72" transform="translate(81.44 5.68) scale(0.18)" xlink:href="#b"/><use width="363.14" height="94.34" transform="translate(0 194.81)" xlink:href="#c"/></symbol></defs><rect class="d" width="640" height="440"/><use width="363.14" height="289.15" transform="translate(138.43 75.48)" xlink:href="#a"/></svg>