<svg xmlns="http://www.w3.org/2000/svg" xmlns:xlink="http://www.w3.org/1999/xlink" width="1536" height="128"><defs><symbol id="Squirrel_Filled_-_Gold" data-name="Squirrel Filled - Gold" viewBox="0 0 376.85 312.17"><path id="Squirrel_Filled" data-name="Squirrel Filled" d="M350.92 215.39s-6.69 1-11.43-3.64a.16.16 0 0 0-.27.17 11.54 11.54 0 0 1-.54 9.19c-4.14 8.75-15 12-23.5 7.36l-9.78-5a.17.17 0 0 0-.18 0c-.54.41-3.6 2.74-8.25 5.67-12.86 7.61-25.77 13.93-40.9 15.62a.17.17 0 0 0-.15.2c5.72 23.73-11.66 41.3-14.19 43.69a.17.17 0 0 0 .12.29c25.93.67 26 16.27 25.89 18a.17.17 0 0 1-.17.16H117.75a.17.17 0 0 1-.17-.19l1-9a.17.17 0 0 0-.21-.18c-21.62 6.11-48.22.26-63.22-14.95-32-39.47-11.75-82.54-1.93-122.18 7.11-29 13.73-64.17 5.93-80.17-10.68-21.93-34.77-25-53.81-4a.17.17 0 0 1-.3-.13c11-126 178.17-66 155.65 32.86a.16.16 0 0 0 .16.21c9.79-.19 22.5 1.71 37.15 7.18 0 0 35.93 11.88 50.43-6.89.28-.8 7.67-21.4 19.17-26.24a.17.17 0 0 0 .1-.2c-.6-2.15-7.15-28.53 23.25-51.61a.17.17 0 0 1 .27.17c-.88 3.37-5.38 23.63 10.32 35.19.76.39 38.13 19.88 41.31 24.81s26.8 35.52 29 76.8a.15.15 0 0 1-.07.15c-9.86 6.32-19.65 11.59-31.77 13.65a.17.17 0 0 0-.09.29c2.81 2.58 27.82 26.08 11.09 32.67zm-118.18 91.29" style="stroke:#161515;stroke-miterlimit:7.57;stroke-width:10px;fill:#d9b776"/></symbol><style>.cls-3{fill:#d9b776}</style></defs><g id="Layer_2" data-name="Layer 2"><g id="Logos"><g id="Main_Colors" data-name="Main Colors"><g id="Squirrel_Stripe_Logo" data-name="Squirrel Stripe Logo"><path id="Background" style="fill:#161515" d="M0 0h1536v128H0z"/><use width="376.84" height="312.17" transform="matrix(.31 0 0 .31 13.61 12.25)" xlink:href="#Squirrel_Filled_-_Gold"/><path class="cls-3" d="M221.35 77.54h-34.22l-7.08 16.1h-9.48l29.16-64.4h9.11l29.26 64.4h-9.66zm-3.22-7.36-13.89-31.55-13.89 31.55zM294.31 35.22q7.17 6 7.18 16.47t-7.18 16.47q-7.17 6-19.69 6h-15.91v19.5h-9.2V29.24h25.11q12.51 0 19.69 5.98zm-6.62 27.19q4.59-3.73 4.6-10.72T287.69 41q-4.6-3.72-13.34-3.72h-15.64v28.85h15.64q8.73 0 13.34-3.72zM361.65 35.22q7.19 6 7.18 16.47t-7.18 16.47q-7.17 6-19.69 6h-15.91v19.5h-9.2V29.24H342q12.47 0 19.65 5.98zM355 62.41q4.59-3.73 4.6-10.72T355 41q-4.61-3.72-13.34-3.72h-15.61v28.85h15.64q8.73 0 13.31-3.72zM422 77.54h-34.22l-7.08 16.1h-9.48l29.16-64.4h9.11l29.26 64.4h-9.66zm-3.22-7.36-13.89-31.55L391 70.18zM450.16 29.24h9.19v56.4h34.87v8h-44.06zM548 77.54h-34.27l-7.09 16.1h-9.47l29.16-64.4h9.11l29.25 64.4H555zm-3.22-7.36-13.94-31.55L517 70.18zM587.46 90.1a31.52 31.52 0 0 1-12.19-11.78 32.63 32.63 0 0 1-4.41-16.88 32.68 32.68 0 0 1 4.41-16.88 31.45 31.45 0 0 1 12.24-11.78A35.82 35.82 0 0 1 605 28.51 36.41 36.41 0 0 1 618.79 31a28.14 28.14 0 0 1 10.67 7.49l-6 5.8a24 24 0 0 0-18.12-7.64 26.36 26.36 0 0 0-13 3.22 23.43 23.43 0 0 0-9.06 8.88 24.81 24.81 0 0 0-3.26 12.65 24.81 24.81 0 0 0 3.26 12.65 23.43 23.43 0 0 0 9.1 8.95 26.25 26.25 0 0 0 13 3.22 24.06 24.06 0 0 0 18.12-7.73l6 5.8a28.54 28.54 0 0 1-10.72 7.54 36.2 36.2 0 0 1-13.84 2.58 35.59 35.59 0 0 1-17.48-4.31zM699.84 29.24v64.4h-9.2v-28.7h-37v28.7h-9.2v-64.4h9.2v27.69h37V29.24zM721 29.24h9.2v64.4H721zM792.39 77.54h-34.22l-7.09 16.1h-9.47l29.16-64.4h9.11l29.26 64.4h-9.66zm-3.22-7.36-13.89-31.55-13.89 31.55zM848 29.24h6.81v64.4H848zM933.24 29.24v64.4h-5.61l-41.4-52.25v52.25h-6.81v-64.4H885l41.5 52.26V29.24zM970.41 35.13h-22.63v-5.89h52.07v5.89h-22.63v58.51h-6.81zM1059.92 87.75v5.89h-45.54v-64.4h44.16v5.89h-37.35V58h33.31v5.79h-33.31v23.96zM1123.59 93.64l-14.72-20.7a45.39 45.39 0 0 1-5.16.28h-17.29v20.42h-6.81v-64.4h24.1q12.33 0 19.33 5.89t7 16.19a21 21 0 0 1-3.82 12.74 21.13 21.13 0 0 1-10.9 7.5L1131 93.64zm-5.43-30.45q5.05-4.23 5.06-11.87 0-7.82-5.06-12t-14.63-4.19h-17.11v32.29h17.11q9.57 0 14.63-4.23zM1190.19 76.44h-35.88l-7.72 17.2h-7.09l29.44-64.4h6.72l29.44 64.4h-7.18zm-2.48-5.52-15.46-34.59-15.45 34.59zM1229.25 90a31 31 0 0 1-12-11.73 32.65 32.65 0 0 1-4.37-16.79 32.68 32.68 0 0 1 4.37-16.79 30.86 30.86 0 0 1 12.09-11.73 35.46 35.46 0 0 1 17.3-4.23 36 36 0 0 1 13.25 2.39 27.55 27.55 0 0 1 10.3 7l-4.32 4.33q-7.54-7.63-19-7.64a28 28 0 0 0-13.89 3.5 25.53 25.53 0 0 0-9.8 9.57 26.49 26.49 0 0 0-3.54 13.61 26.55 26.55 0 0 0 3.54 13.62 25.53 25.53 0 0 0 9.8 9.57 28 28 0 0 0 13.89 3.49q11.6 0 19-7.73l4.32 4.33a27.85 27.85 0 0 1-10.35 7 35.69 35.69 0 0 1-13.29 2.43 35.15 35.15 0 0 1-17.3-4.2zM1300 35.13h-22.63v-5.89h52.07v5.89h-22.63v58.51H1300zM1344 29.24h6.81v64.4H1344zM1428.29 29.24l-28.52 64.4h-6.72l-28.52-64.4h7.36l24.66 55.94 24.84-55.94zM1486.8 87.75v5.89h-45.54v-64.4h44.16v5.89h-37.35V58h33.3v5.79h-33.3v23.96z"/></g></g></g></g></svg>