<svg xmlns="http://www.w3.org/2000/svg" xmlns:xlink="http://www.w3.org/1999/xlink" width="1476.65" height="102.92"><defs><symbol id="a" viewBox="0 0 376.85 312.17"><path d="M350.92 215.39s-6.69 1-11.43-3.64a.16.16 0 0 0-.27.17 11.54 11.54 0 0 1-.54 9.19c-4.14 8.75-15 12-23.5 7.36l-9.78-5a.17.17 0 0 0-.18 0c-.54.41-3.6 2.74-8.25 5.67-12.86 7.61-25.77 13.93-40.9 15.62a.17.17 0 0 0-.15.2c5.72 23.73-11.66 41.3-14.19 43.69a.17.17 0 0 0 .12.29c25.93.67 26 16.27 25.89 18a.17.17 0 0 1-.17.16H117.75a.17.17 0 0 1-.17-.19l1-9a.17.17 0 0 0-.21-.18c-21.62 6.11-48.22.26-63.22-14.95-32-39.47-11.75-82.54-1.93-122.18 7.11-29 13.73-64.17 5.93-80.17-10.68-21.93-34.77-25-53.81-4a.17.17 0 0 1-.3-.13c11-126 178.17-66 155.65 32.86a.16.16 0 0 0 .16.21c9.79-.19 22.5 1.71 37.15 7.18 0 0 35.93 11.88 50.43-6.89.28-.8 7.67-21.4 19.17-26.24a.17.17 0 0 0 .1-.2c-.6-2.15-7.15-28.53 23.25-51.61a.17.17 0 0 1 .27.17c-.88 3.37-5.38 23.63 10.32 35.19.76.39 38.13 19.88 41.31 24.81s26.8 35.52 29 76.8a.15.15 0 0 1-.07.15c-9.86 6.32-19.65 11.59-31.77 13.65a.17.17 0 0 0-.09.29c2.81 2.58 27.82 26.08 11.09 32.67zm-118.18 91.29" style="stroke:#161515;stroke-miterlimit:7.57;stroke-width:10px;fill:#d9b776"/></symbol><style>.b{fill:#d9b776}</style></defs><use width="376.84" height="312.17" transform="matrix(.31 0 0 .31 3.46 3.46)" xlink:href="#a"/><path class="b" d="M211.2 68.75H177l-7.09 16.1h-9.47l29.16-64.4h9.11L228 84.85h-9.66zm-3.2-7.36-13.91-31.55-13.89 31.55zM284.16 26.43q7.17 6 7.17 16.47t-7.17 16.47q-7.19 6-19.69 6h-15.92v19.5h-9.2V20.45h25.12q12.53 0 19.69 5.98zm-6.63 27.19q4.61-3.72 4.6-10.72t-4.6-10.72q-4.59-3.72-13.34-3.72h-15.64v28.89h15.64q8.74 0 13.34-3.73zM351.5 26.43q7.19 6 7.18 16.47t-7.18 16.47q-7.17 6-19.69 6H315.9v19.5h-9.2V20.45h25.11q12.51 0 19.69 5.98zm-6.62 27.19q4.59-3.72 4.6-10.72t-4.6-10.72q-4.61-3.72-13.34-3.72H315.9v28.89h15.64q8.73 0 13.34-3.73zM411.85 68.75h-34.22l-7.09 16.1h-9.47l29.16-64.4h9.11l29.26 64.4h-9.66zm-3.22-7.36-13.89-31.55-13.89 31.55zM440 20.45h9.2v56.4h34.87v8H440zM537.8 68.75h-34.23l-7.08 16.1H487l29.17-64.4h9.11l29.25 64.4h-9.66zm-3.22-7.36-13.89-31.55-13.9 31.55zM577.31 81.31a31.43 31.43 0 0 1-12.19-11.77 32.69 32.69 0 0 1-4.41-16.89 32.68 32.68 0 0 1 4.41-16.88A31.29 31.29 0 0 1 577.36 24a35.72 35.72 0 0 1 17.48-4.28 36.41 36.41 0 0 1 13.8 2.53 28.16 28.16 0 0 1 10.67 7.5l-6 5.79a24 24 0 0 0-18.12-7.63 26.25 26.25 0 0 0-13 3.22 23.34 23.34 0 0 0-9.02 8.87 24.84 24.84 0 0 0-3.26 12.65 24.78 24.78 0 0 0 3.26 12.65 23.3 23.3 0 0 0 9.06 8.88 26.25 26.25 0 0 0 13 3.22 24 24 0 0 0 18.12-7.73l6 5.8A28.54 28.54 0 0 1 608.59 83a36.2 36.2 0 0 1-13.84 2.58 35.56 35.56 0 0 1-17.44-4.27zM689.69 20.45v64.4h-9.2v-28.7h-37v28.7h-9.2v-64.4h9.2v27.7h37v-27.7zM710.85 20.45h9.2v64.4h-9.2zM782.24 68.75H748l-7.09 16.1h-9.47l29.16-64.4h9.11L799 84.85h-9.66zM779 61.39l-13.87-31.55-13.89 31.55zM837.81 20.45h6.81v64.4h-6.81zM923.09 20.45v64.4h-5.61l-41.4-52.25v52.25h-6.81v-64.4h5.61l41.49 52.26V20.45zM960.26 26.34h-22.63v-5.89h52.07v5.89h-22.64v58.51h-6.8zM1049.77 79v5.88h-45.54V20.45h44.16v5.89H1011v22.91h33.3v5.8H1011V79zM1113.44 84.85l-14.72-20.7a45.39 45.39 0 0 1-5.16.28h-17.29v20.42h-6.81v-64.4h24.1q12.33 0 19.32 5.89t7 16.19a21 21 0 0 1-3.82 12.75 21.18 21.18 0 0 1-10.9 7.49l15.73 22.08zM1108 54.4q5.06-4.23 5.06-11.87 0-7.81-5.06-12t-14.63-4.19h-17.11v32.29h17.11q9.58 0 14.63-4.23zM1180 67.65h-35.88l-7.73 17.2h-7.08l29.44-64.4h6.72l29.53 64.4h-7.18zm-2.48-5.52-15.42-34.59-15.45 34.59zM1219.1 81.17a30.89 30.89 0 0 1-12-11.73 32.63 32.63 0 0 1-4.37-16.79 32.68 32.68 0 0 1 4.37-16.79 31 31 0 0 1 12.09-11.73 35.46 35.46 0 0 1 17.3-4.23 36 36 0 0 1 13.25 2.39 27.54 27.54 0 0 1 10.3 7l-4.32 4.32q-7.59-7.61-19.1-7.61a28 28 0 0 0-13.89 3.5 25.53 25.53 0 0 0-9.8 9.57 26.54 26.54 0 0 0-3.54 13.61 26.55 26.55 0 0 0 3.54 13.62 25.53 25.53 0 0 0 9.8 9.57 28 28 0 0 0 13.89 3.49q11.6 0 19.05-7.72l4.32 4.32a27.85 27.85 0 0 1-10.35 7 35.69 35.69 0 0 1-13.29 2.44 35.05 35.05 0 0 1-17.25-4.23zM1289.89 26.34h-22.63v-5.89h52.07v5.89h-22.63v58.51h-6.81zM1333.87 20.45h6.8v64.4h-6.8zM1418.14 20.45l-28.52 64.4h-6.72l-28.52-64.4h7.36l24.66 55.94 24.84-55.94zM1476.65 79v5.88h-45.54V20.45h44.16v5.89h-37.35v22.91h33.3v5.8h-33.3V79z"/></svg>