<svg xmlns="http://www.w3.org/2000/svg" xmlns:xlink="http://www.w3.org/1999/xlink" width="1506.57" height="102.92"><defs><symbol id="a" viewBox="0 0 376.85 312.17"><path d="M350.92 215.39s-6.69 1-11.43-3.64a.16.16 0 0 0-.27.17 11.54 11.54 0 0 1-.54 9.19c-4.14 8.75-15 12-23.5 7.36l-9.78-5a.17.17 0 0 0-.18 0c-.54.41-3.6 2.74-8.25 5.67-12.86 7.61-25.77 13.93-40.9 15.62a.17.17 0 0 0-.15.2c5.72 23.73-11.66 41.3-14.19 43.69a.17.17 0 0 0 .12.29c25.93.67 26 16.27 25.89 18a.17.17 0 0 1-.17.16H117.75a.17.17 0 0 1-.17-.19l1-9a.17.17 0 0 0-.21-.18c-21.62 6.11-48.22.26-63.22-14.95-32-39.47-11.75-82.54-1.93-122.18 7.11-29 13.73-64.17 5.93-80.17-10.68-21.93-34.77-25-53.81-4a.17.17 0 0 1-.3-.13c11-126 178.17-66 155.65 32.86a.16.16 0 0 0 .16.21c9.79-.19 22.5 1.71 37.15 7.18 0 0 35.93 11.88 50.43-6.89.28-.8 7.67-21.4 19.17-26.24a.17.17 0 0 0 .1-.2c-.6-2.15-7.15-28.53 23.25-51.61a.17.17 0 0 1 .27.17c-.88 3.37-5.38 23.63 10.32 35.19.76.39 38.13 19.88 41.31 24.81s26.8 35.52 29 76.8a.15.15 0 0 1-.07.15c-9.86 6.32-19.65 11.59-31.77 13.65a.17.17 0 0 0-.09.29c2.81 2.58 27.82 26.08 11.09 32.67zm-118.18 91.29" style="stroke:#161515;stroke-miterlimit:7.57;stroke-width:10px;fill:#d9b776"/></symbol><style>.b{fill:#d9b776}</style></defs><use width="376.84" height="312.17" transform="matrix(.31 0 0 .31 3.46 3.46)" xlink:href="#a"/><path class="b" d="M184.66 68.76h-34.23l-7.08 16.1h-9.48L163 20.46h9.1l29.3 64.4h-9.66zm-3.22-7.36-13.9-31.54-13.89 31.54zM257.61 26.44q7.18 6 7.18 16.47t-7.18 16.47q-7.17 6-19.69 6H222v19.48h-9.2v-64.4h25.11q12.52 0 19.7 5.98zM251 53.63q4.59-3.74 4.6-10.72T251 32.19q-4.61-3.73-13.34-3.73H222v28.89h15.64q8.74 0 13.36-3.72zM325 26.44q7.19 6 7.18 16.47T325 59.38q-7.17 6-19.68 6h-15.97v19.48h-9.2v-64.4h25.12q12.51 0 19.73 5.98zm-6.62 27.19q4.6-3.74 4.6-10.72t-4.6-10.72q-4.65-3.73-13.38-3.73h-15.65v28.89H305q8.74 0 13.33-3.72zM385.3 68.76h-34.22L344 84.86h-9.48l29.16-64.4h9.11l29.26 64.4h-9.66zm-3.21-7.36-13.9-31.54L354.3 61.4zM413.46 20.46h9.2v56.4h34.86v8h-44.06zM511.25 68.76H477l-7.06 16.1h-9.47l29.16-64.4h9.11L528 84.86h-9.66zM508 61.4l-13.86-31.54-13.89 31.54zM550.76 81.32a31.59 31.59 0 0 1-12.19-11.78 32.68 32.68 0 0 1-4.41-16.88 32.66 32.66 0 0 1 4.41-16.88A31.45 31.45 0 0 1 550.81 24a35.83 35.83 0 0 1 17.48-4.28 36.61 36.61 0 0 1 13.8 2.53 28.27 28.27 0 0 1 10.67 7.5l-6 5.8a24 24 0 0 0-18.12-7.64 26.18 26.18 0 0 0-13 3.22 23.39 23.39 0 0 0-9.07 8.88 24.91 24.91 0 0 0-3.26 12.65 24.91 24.91 0 0 0 3.26 12.65 23.39 23.39 0 0 0 9.07 8.88 26.29 26.29 0 0 0 13 3.22 24 24 0 0 0 18.12-7.73l6 5.79A28.48 28.48 0 0 1 582 83.02a36.17 36.17 0 0 1-13.84 2.58 35.62 35.62 0 0 1-17.4-4.28zM663.14 20.46v64.4h-9.2V56.15H617v28.71h-9.2v-64.4h9.2v27.69h37V20.46zM684.3 20.46h9.2v64.4h-9.2zM755.69 68.76h-34.22l-7.08 16.1h-9.48l29.16-64.4h9.11l29.26 64.4h-9.66zm-3.22-7.36-13.89-31.54-13.89 31.54zM812.17 14.86h7.4v70h-7.4zM904.87 14.86v70h-6.1l-45-56.8v56.8h-7.4v-70h6.1l45.1 56.8v-56.8zM945.27 21.26h-24.6v-6.4h56.6v6.4h-24.6v63.6h-7.4zM1042.57 78.46v6.4h-49.5v-70h48v6.4h-40.6v24.9h36.2v6.3h-36.2v26zM1111.77 84.86l-16-22.5a50.75 50.75 0 0 1-5.6.3h-18.8v22.2H1064v-70h26.2q13.39 0 21 6.4t7.6 17.6a22.8 22.8 0 0 1-4.15 13.85 23 23 0 0 1-11.88 8.15l17.1 24zm-5.9-33.1q5.49-4.6 5.5-12.9 0-8.51-5.5-13t-15.87-4.6h-18.6v35.1h18.6q10.37 0 15.87-4.6zM1184.17 66.16h-39l-8.4 18.7h-7.7l32-70h7.3l32 70h-7.8zm-2.7-6-16.8-37.6-16.8 37.6zM1226.62 80.86a33.66 33.66 0 0 1-13.1-12.75 35.54 35.54 0 0 1-4.75-18.25 35.54 35.54 0 0 1 4.75-18.25 33.6 33.6 0 0 1 13.15-12.75 38.43 38.43 0 0 1 18.8-4.6 39 39 0 0 1 14.4 2.6 29.87 29.87 0 0 1 11.2 7.6l-4.7 4.7q-8.2-8.3-20.7-8.3a30.43 30.43 0 0 0-15.1 3.8 27.65 27.65 0 0 0-10.65 10.4 28.79 28.79 0 0 0-3.85 14.8 28.79 28.79 0 0 0 3.85 14.8 27.65 27.65 0 0 0 10.65 10.4 30.43 30.43 0 0 0 15.1 3.8q12.6 0 20.7-8.4l4.7 4.7a30.41 30.41 0 0 1-11.25 7.7 38.64 38.64 0 0 1-14.45 2.65 38.13 38.13 0 0 1-18.75-4.65zM1303.57 21.26H1279v-6.4h56.6v6.4H1311v63.6h-7.4zM1351.37 14.86h7.4v70h-7.4zM1443 14.86l-31 70h-7.3l-31-70h8l26.8 60.8 27-60.8zM1506.57 78.46v6.4h-49.5v-70h48v6.4h-40.6v24.9h36.2v6.3h-36.2v26z"/></svg>