<svg xmlns="http://www.w3.org/2000/svg" xmlns:xlink="http://www.w3.org/1999/xlink" viewBox="0 0 363.14 283.47"><defs><style>.cls-1{fill:#fff;}.cls-2,.cls-3{fill:none;stroke:#fff;stroke-miterlimit:7.57;}.cls-2{stroke-width:0.24px;}.cls-3{stroke-width:0.46px;}</style><symbol id="New_Symbol" data-name="New Symbol" viewBox="0 0 363.14 94.34"><g id="Appalachia_Interactive_White" data-name="Appalachia Interactive White"><path class="cls-1" d="M27.6,33.75H9L5.15,42.5H0l15.85-35h5l15.9,35H31.45Zm-1.75-4L18.3,12.6,10.75,29.75Z"/><path class="cls-1" d="M68.25,10.75a11,11,0,0,1,3.9,9,11,11,0,0,1-3.9,9q-3.9,3.26-10.7,3.25H48.9V42.5h-5V7.5H57.55Q64.35,7.5,68.25,10.75Zm-3.6,14.77a7,7,0,0,0,2.5-5.82,7.07,7.07,0,0,0-2.5-5.83c-1.67-1.35-4.08-2-7.25-2H48.9v15.7h8.5C60.57,27.55,63,26.87,64.65,25.52Z"/><path class="cls-1" d="M105.85,10.75a11,11,0,0,1,3.9,9,11,11,0,0,1-3.9,9q-3.9,3.26-10.7,3.25H86.5V42.5h-5V7.5H95.15Q101.95,7.5,105.85,10.75Zm-3.6,14.77a7,7,0,0,0,2.5-5.82,7.07,7.07,0,0,0-2.5-5.83c-1.67-1.35-4.08-2-7.25-2H86.5v15.7H95C98.17,27.55,100.58,26.87,102.25,25.52Z"/><path class="cls-1" d="M139.65,33.75h-18.6L117.2,42.5h-5.15l15.85-35h4.95l15.9,35H143.5Zm-1.75-4L130.35,12.6,122.8,29.75Z"/><path class="cls-1" d="M156,7.5h5V38.15h19V42.5H156Z"/><path class="cls-1" d="M210.1,33.75H191.5l-3.85,8.75H182.5l15.85-35h5l15.9,35H214Zm-1.75-4L200.8,12.6l-7.55,17.15Z"/><path class="cls-1" d="M232.57,40.57a17,17,0,0,1-6.62-6.4,17.7,17.7,0,0,1-2.4-9.17,17.76,17.76,0,0,1,2.4-9.18,17.06,17.06,0,0,1,6.65-6.4,19.45,19.45,0,0,1,9.5-2.32,20,20,0,0,1,7.5,1.37,15.45,15.45,0,0,1,5.8,4.08l-3.25,3.15a13,13,0,0,0-9.85-4.15,14.23,14.23,0,0,0-7.05,1.75,12.69,12.69,0,0,0-4.93,4.82A13.56,13.56,0,0,0,228.55,25a13.52,13.52,0,0,0,1.77,6.87,12.72,12.72,0,0,0,4.93,4.83,14.23,14.23,0,0,0,7.05,1.75,13.07,13.07,0,0,0,9.85-4.2l3.25,3.15a15.56,15.56,0,0,1-5.83,4.1,19.74,19.74,0,0,1-7.52,1.4A19.35,19.35,0,0,1,232.57,40.57Z"/><path class="cls-1" d="M294.65,7.5v35h-5V26.9h-20.1V42.5h-5V7.5h5V22.55h20.1V7.5Z"/><path class="cls-1" d="M307.15,7.5h5v35h-5Z"/><path class="cls-1" d="M347,33.75h-18.6L324.5,42.5h-5.15l15.85-35h4.95l15.9,35H350.8Zm-1.75-4L337.65,12.6,330.1,29.75Z"/><path class="cls-1" d="M3.68,85.64V58h2V85.64Z"/><path class="cls-1" d="M25.44,61.66v24h-2V58h1.64l19.3,24.38V58h2V85.64h-2Z"/><path class="cls-1" d="M83.47,59.75H73.33V85.64h-2V59.75H61.2V58H83.47Z"/><path class="cls-1" d="M116.74,83.85v1.79H98.29V58h18.1v1.8H100.28V70.63h14.08v1.71H100.28V83.85Z"/><path class="cls-1" d="M132.69,85.64V58h11.5a7.17,7.17,0,0,1,3.26.74,8.39,8.39,0,0,1,2.53,2,9.37,9.37,0,0,1,1.68,2.75,8.49,8.49,0,0,1,.61,3.12,9.25,9.25,0,0,1-.82,3.86,8.44,8.44,0,0,1-2.28,3,6.78,6.78,0,0,1-3.42,1.48l6.91,10.76h-2.31l-6.7-10.45h-9V85.64Zm2-12.28h9.71a5.15,5.15,0,0,0,3.12-1,6.55,6.55,0,0,0,2.05-2.53,7.84,7.84,0,0,0,.72-3.32,6.86,6.86,0,0,0-.84-3.33,7.15,7.15,0,0,0-2.22-2.5,5.4,5.4,0,0,0-3.1-1h-9.44Z"/><path class="cls-1" d="M177,58h1.72l11.7,27.69H188.3l-3.77-9.12H171.15l-3.79,9.12h-2.15Zm6.86,16.93-6-14.51-6,14.51Z"/><path class="cls-1" d="M202.22,71.56a14.61,14.61,0,0,1,.88-4.93,14.78,14.78,0,0,1,2.56-4.45A12.53,12.53,0,0,1,209.77,59a12.32,12.32,0,0,1,5.56-1.21,11.38,11.38,0,0,1,6.32,1.69,10.84,10.84,0,0,1,3.9,4.35l-1.64.94a9.06,9.06,0,0,0-2.4-3,8.88,8.88,0,0,0-3.06-1.62,11.29,11.29,0,0,0-3.28-.49,10.09,10.09,0,0,0-4.66,1,10.73,10.73,0,0,0-3.45,2.81,12.53,12.53,0,0,0-2.12,3.9,13.3,13.3,0,0,0-.73,4.33,12.77,12.77,0,0,0,.86,4.66,13.06,13.06,0,0,0,2.36,3.92A11.33,11.33,0,0,0,210.94,83a9.48,9.48,0,0,0,4.35,1,10.88,10.88,0,0,0,3.41-.57A10.57,10.57,0,0,0,222,81.68a8.77,8.77,0,0,0,2.46-3.1l1.71.82a9,9,0,0,1-2.69,3.51,12.91,12.91,0,0,1-4,2.19,13.5,13.5,0,0,1-4.33.74A11.09,11.09,0,0,1,210,84.61a13.37,13.37,0,0,1-4.12-3.28,15.35,15.35,0,0,1-3.61-9.77Z"/><path class="cls-1" d="M260.76,59.75H250.62V85.64h-2V59.75H238.49V58h22.27Z"/><path class="cls-1" d="M275.58,85.64V58h2V85.64Z"/><path class="cls-1" d="M294.42,58,305,83.15,315.48,58h2.11L305.92,85.64H304L292.31,58Z"/><path class="cls-1" d="M350.81,83.85v1.79H332.37V58h18.09v1.8h-16.1V70.63h14.07v1.71H334.36V83.85Z"/></g></symbol></defs><g id="Layer_2" data-name="Layer 2"><g id="Logos"><g id="White_On_Black" data-name="White On Black"><g id="Squirrel_Block_Logo" data-name="Squirrel Block Logo"><g id="Squirrel_Block" data-name="Squirrel Block"><g id="Lines"><path id="Lines_Inner" data-name="Lines Inner" class="cls-2" d="M165.89,57.49c5.83-28-49.94-70.81-82.07-19m60,25.35c10.88-29.05-27.87-77.16-60-25.35m134.39,92.27c-6.44-78.69-84.7-64.47-91.67-43.36m16.24,77.38c31.76-11,43.82-6.41,62.31-41.32,10.95-29.5,38.2-21.9,40-20.44M170.2,154.9c-13.56-5.47-46-38-31.35-63.57,20.05-35,79.7.42,120.9-1.64,6.85-.88,14.84-5.34,18.66-5.6M224.28,43.72c4.06,15.77,28.09,2.3,35.58,12.69,8,11,14,36.05,14,36.05M107.89,3.12C168.3,12.42,142.77,66,142.77,66m-24.72,91.67C163.84,138.3,189.74,121,190.5,63.22M223.7,44s-4.62-15,12.72-28c0,0-3.76,12.41,5.49,19.22,0,0,20.52,10.68,22.25,13.36s14.46,19.16,15.61,41.41c0,0-10.25,7.2-21.41,7.08a23.42,23.42,0,0,1-7.66-1.64,114.64,114.64,0,0,1-23.24-13.51c-2.82-2.22-4-7.67-5.06-12.55C220.2,59.54,223.7,44,223.7,44Zm-118-40.25c55.58,24.74-4.76,90.13-6,115.51-.71,13.41,1.1,23.4,9.57,32.18a29.67,29.67,0,0,0,16.67,8.73,38,38,0,0,0,5.47.53,46.08,46.08,0,0,0,6-.25,52,52,0,0,0,7.8-2.12c6.76-2.13,29.71-14.39,40.47-28,15.89-20.07,26.38-60.69,27.66-71.52M99.58,119.25c-.09-2.48,4.77-18.08,8.58-33.64s7.4-34.55,3.2-43.17c-5.79-11.88-18.88-13.47-29.16-2C87.88-27.81,178.31,4.63,166.58,58m95.83,39.36s15.63,14,6.09,17.73a7.74,7.74,0,0,1-6.64-2.68M239.65,89.78s-10.77,9.46,15,16.75c0,0,10.76,4.24,7.26,11.62a9.17,9.17,0,0,1-12.66,4l-5.31-2.7s-27.59,21.54-38.88,4c-17.42-60.24-88.19-46.35-78,5m78,36a4.71,4.71,0,0,0-.41-.52c-.66-3.63-2-8.78-13.83-9.27A251.93,251.93,0,0,0,150,156.43m-7.11,3.12v4.94H223.7s.87-9.5-14.16-9.79c0,0,11.18-10,9.2-23.06M150,156.43S93.46,115,139.55,69.33c0,0,16-18.11,46.58-7.46,0,0,19.37,6.4,27.17-3.73,0,0,4-11.57,10.4-14.17"/><path id="Lines_Outer" data-name="Lines Outer" class="cls-3" d="M269.07,114.56a7.85,7.85,0,0,1-6.15-2,.09.09,0,0,0-.15.1,6.15,6.15,0,0,1-.29,4.94,9.15,9.15,0,0,1-12.65,4l-5.27-2.67a.07.07,0,0,0-.09,0c-.29.22-1.94,1.47-4.45,3.06-6.92,4.09-13.88,7.5-22,8.4a.1.1,0,0,0-.08.12c3.08,12.78-6.28,22.23-7.64,23.52a.09.09,0,0,0,.06.16c14,.36,14,8.76,13.94,9.7a.09.09,0,0,1-.09.09H143.51a.1.1,0,0,1-.09-.11l.52-4.82a.09.09,0,0,0-.11-.1c-11.64,3.29-26,.14-34.05-8.05h0c-17.24-21.26-6.33-44.45-1-65.8,3.83-15.61,7.39-34.55,3.19-43.17-5.75-11.81-18.72-13.45-29-2.18a.1.1,0,0,1-.16-.07c5.9-67.87,96-35.54,83.82,17.7a.09.09,0,0,0,.09.11,55.36,55.36,0,0,1,20,3.86s19.34,6.4,27.15-3.71l0,0C214,57.2,218,46.1,224.2,43.5a.09.09,0,0,0,.05-.11c-.32-1.16-3.85-15.37,12.53-27.8a.09.09,0,0,1,.14.1c-.47,1.81-2.9,12.72,5.56,19h0c.41.21,20.53,10.7,22.25,13.36s14.43,19.13,15.6,41.35a.08.08,0,0,1,0,.09c-5.31,3.4-10.58,6.24-17.11,7.35a.09.09,0,0,0-.05.15c1.52,1.39,15,14,6,17.6Zm-63.64,49.16"/></g><use width="363.14" height="94.34" transform="translate(0 189.13)" xlink:href="#New_Symbol"/></g></g></g></g></g></svg>