<svg xmlns="http://www.w3.org/2000/svg" xmlns:xlink="http://www.w3.org/1999/xlink" width="500" height="105.46" viewBox="0 0 500 105.46"><defs><style>.a{fill:#161515;}.b,.c{fill:none;stroke:#161515;stroke-miterlimit:7.57;}.b{stroke-width:0.79px;}.c{stroke-width:1.48px;}</style><symbol id="a" viewBox="0 0 363.14 94.34"><path class="a" d="M27.6,33.75H9L5.15,42.5H0l15.85-35h5l15.9,35H31.45Zm-1.75-4L18.3,12.6,10.75,29.75Z"/><path class="a" d="M68.25,10.75a11,11,0,0,1,3.9,9,11,11,0,0,1-3.9,9q-3.9,3.26-10.7,3.25H48.9V42.5h-5V7.5H57.55Q64.35,7.5,68.25,10.75Zm-3.6,14.77a7,7,0,0,0,2.5-5.82,7.07,7.07,0,0,0-2.5-5.83c-1.67-1.35-4.08-2-7.25-2H48.9v15.7h8.5C60.57,27.55,63,26.87,64.65,25.52Z"/><path class="a" d="M105.85,10.75a11,11,0,0,1,3.9,9,11,11,0,0,1-3.9,9q-3.9,3.26-10.7,3.25H86.5V42.5h-5V7.5H95.15Q101.95,7.5,105.85,10.75Zm-3.6,14.77a7,7,0,0,0,2.5-5.82,7.07,7.07,0,0,0-2.5-5.83c-1.67-1.35-4.08-2-7.25-2H86.5v15.7H95C98.17,27.55,100.58,26.87,102.25,25.52Z"/><path class="a" d="M139.65,33.75h-18.6L117.2,42.5h-5.15l15.85-35h4.95l15.9,35H143.5Zm-1.75-4L130.35,12.6,122.8,29.75Z"/><path class="a" d="M156,7.5h5V38.15h19V42.5H156Z"/><path class="a" d="M210.1,33.75H191.5l-3.85,8.75H182.5l15.85-35h5l15.9,35H214Zm-1.75-4L200.8,12.6l-7.55,17.15Z"/><path class="a" d="M232.57,40.57a17,17,0,0,1-6.62-6.4,17.7,17.7,0,0,1-2.4-9.17,17.76,17.76,0,0,1,2.4-9.18,17.06,17.06,0,0,1,6.65-6.4,19.45,19.45,0,0,1,9.5-2.32,20,20,0,0,1,7.5,1.37,15.45,15.45,0,0,1,5.8,4.08l-3.25,3.15a13,13,0,0,0-9.85-4.15,14.23,14.23,0,0,0-7.05,1.75,12.69,12.69,0,0,0-4.93,4.82A13.56,13.56,0,0,0,228.55,25a13.52,13.52,0,0,0,1.77,6.87,12.72,12.72,0,0,0,4.93,4.83,14.23,14.23,0,0,0,7.05,1.75,13.07,13.07,0,0,0,9.85-4.2l3.25,3.15a15.56,15.56,0,0,1-5.83,4.1,19.74,19.74,0,0,1-7.52,1.4A19.35,19.35,0,0,1,232.57,40.57Z"/><path class="a" d="M294.65,7.5v35h-5V26.9h-20.1V42.5h-5V7.5h5V22.55h20.1V7.5Z"/><path class="a" d="M307.15,7.5h5v35h-5Z"/><path class="a" d="M347,33.75h-18.6L324.5,42.5h-5.15l15.85-35h4.95l15.9,35H350.8Zm-1.75-4L337.65,12.6,330.1,29.75Z"/><path class="a" d="M3.68,85.64V58h2V85.64Z"/><path class="a" d="M25.44,61.66v24h-2V58h1.64l19.3,24.38V58h2V85.64h-2Z"/><path class="a" d="M83.47,59.75H73.33V85.64h-2V59.75H61.2V58H83.47Z"/><path class="a" d="M116.74,83.85v1.79H98.29V58h18.1v1.8H100.28V70.63h14.08v1.71H100.28V83.85Z"/><path class="a" d="M132.69,85.64V58h11.5a7.17,7.17,0,0,1,3.26.74,8.39,8.39,0,0,1,2.53,2,9.37,9.37,0,0,1,1.68,2.75,8.49,8.49,0,0,1,.61,3.12,9.25,9.25,0,0,1-.82,3.86,8.44,8.44,0,0,1-2.28,3,6.78,6.78,0,0,1-3.42,1.48l6.91,10.76h-2.31l-6.7-10.45h-9V85.64Zm2-12.28h9.71a5.15,5.15,0,0,0,3.12-1,6.55,6.55,0,0,0,2.05-2.53,7.84,7.84,0,0,0,.72-3.32,6.86,6.86,0,0,0-.84-3.33,7.15,7.15,0,0,0-2.22-2.5,5.4,5.4,0,0,0-3.1-1h-9.44Z"/><path class="a" d="M177,58h1.72l11.7,27.69H188.3l-3.77-9.12H171.15l-3.79,9.12h-2.15Zm6.86,16.93-6-14.51-6,14.51Z"/><path class="a" d="M202.22,71.56a14.61,14.61,0,0,1,.88-4.93,14.78,14.78,0,0,1,2.56-4.45A12.53,12.53,0,0,1,209.77,59a12.32,12.32,0,0,1,5.56-1.21,11.38,11.38,0,0,1,6.32,1.69,10.84,10.84,0,0,1,3.9,4.35l-1.64.94a9.06,9.06,0,0,0-2.4-3,8.88,8.88,0,0,0-3.06-1.62,11.29,11.29,0,0,0-3.28-.49,10.09,10.09,0,0,0-4.66,1,10.73,10.73,0,0,0-3.45,2.81,12.53,12.53,0,0,0-2.12,3.9,13.3,13.3,0,0,0-.73,4.33,12.77,12.77,0,0,0,.86,4.66,13.06,13.06,0,0,0,2.36,3.92A11.33,11.33,0,0,0,210.94,83a9.48,9.48,0,0,0,4.35,1,10.88,10.88,0,0,0,3.41-.57A10.57,10.57,0,0,0,222,81.68a8.77,8.77,0,0,0,2.46-3.1l1.71.82a9,9,0,0,1-2.69,3.51,12.91,12.91,0,0,1-4,2.19,13.5,13.5,0,0,1-4.33.74A11.09,11.09,0,0,1,210,84.61a13.37,13.37,0,0,1-4.12-3.28,15.35,15.35,0,0,1-3.61-9.77Z"/><path class="a" d="M260.76,59.75H250.62V85.64h-2V59.75H238.49V58h22.27Z"/><path class="a" d="M275.58,85.64V58h2V85.64Z"/><path class="a" d="M294.42,58,305,83.15,315.48,58h2.11L305.92,85.64H304L292.31,58Z"/><path class="a" d="M350.81,83.85v1.79H332.37V58h18.09v1.8h-16.1V70.63h14.07v1.71H334.36V83.85Z"/></symbol></defs><path class="b" d="M49.43,33.62c3.41-16.4-29.21-41.41-48-11.11m35.1,14.83c6.36-17-16.31-45.13-35.1-14.83m78.6,54c-3.77-46-49.53-37.7-53.61-25.36m9.5,45.25c18.57-6.45,25.62-3.74,36.44-24.16,6.4-17.25,22.34-12.81,23.36-12M52,90.59C44,87.39,25.05,68.36,33.62,53.41c11.72-20.45,46.61.24,70.7-1,4-.51,8.68-3.12,10.92-3.27M83.58,25.57C86,34.79,100,26.91,104.39,33c4.65,6.46,8.17,21.08,8.17,21.08m-97-52.25C50.84,7.26,35.91,38.6,35.91,38.6M21.45,92.21C48.24,80.88,63.38,70.76,63.82,37M83.24,25.71s-2.7-8.79,7.44-16.39c0,0-2.2,7.25,3.21,11.23,0,0,12,6.25,13,7.82s8.45,11.2,9.13,24.22c0,0-6,4.21-12.52,4.14a13.72,13.72,0,0,1-4.48-1,66.67,66.67,0,0,1-13.59-7.91c-1.65-1.29-2.32-4.48-3-7.33C81.19,34.82,83.24,25.71,83.24,25.71Zm-69-23.53c32.51,14.46-2.78,52.71-3.53,67.55-.42,7.84.64,13.68,5.59,18.82A17.41,17.41,0,0,0,26,93.65a21.43,21.43,0,0,0,3.19.31,26.68,26.68,0,0,0,3.52-.15,29.08,29.08,0,0,0,4.56-1.24C41.26,91.33,54.68,84.16,61,76.22,70.27,64.48,76.4,40.73,77.15,34.39M10.66,69.74c-.06-1.45,2.78-10.58,5-19.67S20,29.86,17.54,24.82c-3.38-6.95-11-7.88-17-1.16C3.81-16.26,56.7,2.71,49.84,33.9m56,23s9.14,8.18,3.56,10.37a4.52,4.52,0,0,1-3.88-1.57m-13-13.22s-6.3,5.54,8.77,9.8c0,0,6.29,2.48,4.25,6.79a5.37,5.37,0,0,1-7.41,2.32l-3.1-1.58S78.94,82.43,72.34,72.2C62.15,37,20.76,45.09,26.73,75.15m45.61,21a2.64,2.64,0,0,0-.24-.3C71.71,93.77,71,90.76,64,90.47a148.15,148.15,0,0,0-23.9,1M36,93.3v2.89H83.24s.51-5.55-8.28-5.72c0,0,6.54-5.83,5.38-13.49M40.11,91.48S7.07,67.23,34,40.54c0,0,9.38-10.59,27.24-4.36,0,0,11.32,3.74,15.89-2.18,0,0,2.36-6.77,6.08-8.29"/><path class="c" d="M109.77,67a4.59,4.59,0,0,1-3.59-1.15.06.06,0,0,0-.09.06,3.61,3.61,0,0,1-.17,2.89,5.36,5.36,0,0,1-7.4,2.32l-3.08-1.57a0,0,0,0,0-.06,0c-.16.13-1.13.86-2.59,1.78-4.05,2.4-8.12,4.39-12.89,4.92a.06.06,0,0,0,0,.07c1.8,7.47-3.68,13-4.47,13.76,0,0,0,.08,0,.09,8.16.21,8.17,5.12,8.15,5.67a0,0,0,0,1,0,.05H36.34a.06.06,0,0,1-.05-.06L36.6,93a.06.06,0,0,0-.07-.06c-6.81,1.93-15.19.08-19.91-4.7h0c-10.08-12.43-3.7-26-.61-38.48,2.24-9.13,4.32-20.2,1.87-25.24C14.51,17.62,6.93,16.66.93,23.25a.05.05,0,0,1-.09,0C4.28-16.48,57,2.43,49.85,33.56a.06.06,0,0,0,.06.06,32.4,32.4,0,0,1,11.7,2.27s11.31,3.74,15.88-2.18h0c.09-.25,2.42-6.74,6-8.26a0,0,0,0,0,0-.06c-.18-.68-2.25-9,7.33-16.26,0,0,.1,0,.08.05-.27,1.06-1.69,7.45,3.25,11.09h0c.24.13,12,6.26,13,7.81s8.44,11.19,9.13,24.19a.05.05,0,0,1,0,.05,26.41,26.41,0,0,1-10,4.3.05.05,0,0,0,0,.09c.88.81,8.76,8.21,3.49,10.29ZM72.56,95.75"/><use width="363.14" height="94.34" transform="translate(136.86 11.12)" xlink:href="#a"/></svg>