<svg xmlns="http://www.w3.org/2000/svg" xmlns:xlink="http://www.w3.org/1999/xlink" viewBox="0 0 1000 1000"><defs><style>.a,.d{fill:#161515;}.a{stroke:#161515;stroke-width:56.69px;}.a,.b,.c{stroke-miterlimit:7.57;}.b,.c{fill:none;stroke:#d9b776;}.b{stroke-width:7.37px;}.c{stroke-width:13.89px;}</style><symbol id="b" viewBox="0 0 1140.83 949.65"><path class="a" d="M1050.63,650.09c-.46,1-20.27,3-34.28-11.29a.32.32,0,0,0-.53.34c3.36,9.57,3.22,18.22-1.35,27.86-12.24,25.85-44.31,35.37-69.45,21.73L916,674a.32.32,0,0,0-.34,0c-1.28,1-10.43,8-24.47,16.85-38.05,22.51-76.29,41.21-121.08,46.16a.31.31,0,0,0-.27.39c17.31,71.33-36,123.83-42.21,129.6a.32.32,0,0,0,.22.55c78,1.82,77.17,49.22,76.94,53.43a.32.32,0,0,1-.32.29H361.38a.31.31,0,0,1-.31-.35l2.9-27a.32.32,0,0,0-.4-.34c-63.93,18.17-142.69.9-187.07-44.1l0,0c-94.57-116.65-34.72-243.92-5.71-361.07,21-85.69,40.57-189.62,17.54-236.91-31.63-65-103-73.84-159.39-11.58a.32.32,0,0,1-.56-.25c31.93-373.22,526.84-195.59,460,96.82a.31.31,0,0,0,.31.39c29-.59,66.59,5,110,21.22,0,0,106.2,35.1,149-20.4a.41.41,0,0,0,.05-.09c.68-1.93,22.62-63.38,56.82-77.62a.3.3,0,0,0,.18-.37c-1.45-5.14-22-84.12,69.1-153a.32.32,0,0,1,.51.33c-2.21,8.19-16.9,69.69,30.37,104.51l0,0c1.77.92,112.66,58.73,122.1,73.31s79.23,105.05,85.65,227.07a.33.33,0,0,1-.15.29C1083.07,531,1054,546.61,1018,552.66a.32.32,0,0,0-.17.54c6.81,6.22,82.84,77.18,32.8,96.89ZM701.39,919.87"/></symbol><symbol id="c" viewBox="0 0 1098.89 907.72"><path class="b" d="M463.88,315.51c32-153.91-274.1-388.62-450.42-104.3M342.75,350.34c59.68-159.45-153-423.45-329.29-139.13M751,717.58c-35.37-431.84-464.81-353.8-503.09-238M337,904.24c174.3-60.51,240.47-35.16,342-226.74,60.06-161.88,209.63-120.18,219.26-112.14M487.52,850c-74.41-30-252.48-208.59-172-348.85,110-191.87,437.37,2.3,663.45-9,37.6-4.79,81.45-29.3,102.42-30.71M784.26,239.92c22.32,86.52,154.17,12.6,195.29,69.64,43.67,60.58,76.67,197.85,76.67,197.85M145.55,17.11C477.08,68.15,337,362.2,337,362.2M201.32,865.26C452.63,759,594.75,664,598.89,346.92M781.12,241.3s-25.37-82.48,69.79-153.86c0,0-20.62,68.08,30.12,105.44,0,0,112.61,58.63,122.13,73.32s79.3,105.14,85.65,227.26c0,0-56.24,39.51-117.52,38.85,0,0-18,.11-42-9C881.6,502,839.17,477.87,801.73,449.15,786.24,437,780,407.08,774,380.29,761.88,326.71,781.12,241.3,781.12,241.3ZM133.42,20.42C438.47,156.18,107.34,515,100.31,654.32c-3.93,73.55,6,128.41,52.49,176.59C176,855,206.27,872.2,244.31,878.81a206.44,206.44,0,0,0,30,2.91,251.34,251.34,0,0,0,33-1.4c11.51-1.23,30.55-7.77,42.81-11.63,37.09-11.69,163-79,222.08-153.49,87.21-110.12,144.76-333,151.78-392.47M100,654.42c-.51-13.61,26.14-99.25,47.07-184.59,21-85.7,40.58-189.63,17.55-236.92C132.86,167.72,61,159,4.58,222,35.77-152.61,532,25.4,467.66,318.15m525.89,216s85.75,76.7,33.4,97.31c0,0-21.33,3.18-36.41-14.71M868.62,492.67s-59.08,51.94,82.32,91.93c0,0,59,23.25,39.85,63.76-12.24,25.85-44.32,35.37-69.45,21.73l-29.18-14.82s-151.4,118.21-213.32,22.2c-95.64-330.62-484-254.36-428,27.7m428,197.49a29.18,29.18,0,0,0-2.26-2.87c-3.66-19.91-10.76-48.16-75.93-50.87s-152.38-.19-224.24,9.5m-39.07,17.12v27.12H781.12s4.76-52.15-77.72-53.74c0,0,61.34-54.65,50.5-126.54m-377.49,136s-310-227.57-57.07-478c0,0,88-99.38,255.61-40.95,0,0,106.25,35.12,149.07-20.45,0,0,22.2-63.5,57.1-77.77"/><path class="c" d="M1030.09,628.69s-19.77,2.95-33.75-10.76a.49.49,0,0,0-.81.51c3.1,9.29,2.86,17.76-1.6,27.16-12.23,25.85-44.31,35.36-69.45,21.73l-28.89-14.68a.49.49,0,0,0-.53.05c-1.59,1.22-10.64,8.1-24.38,16.78-38,22.48-76.17,41.15-120.88,46.14a.49.49,0,0,0-.42.61c16.9,70.13-34.49,122-41.94,129.1a.5.5,0,0,0,.34.86c76.65,2,76.74,48.08,76.51,53.24a.49.49,0,0,1-.5.47H341.05a.5.5,0,0,1-.5-.55l2.86-26.49a.5.5,0,0,0-.63-.53c-63.88,18-142.48.77-186.81-44.17l0,0c-94.57-116.65-34.72-243.91-5.71-361.06,21-85.69,40.58-189.63,17.54-236.91-31.57-64.81-102.74-73.81-159-12a.5.5,0,0,1-.87-.38c32.34-372.43,526.51-195,460,97.12a.49.49,0,0,0,.49.61c28.93-.55,66.48,5.07,109.78,21.23,0,0,106.17,35.09,149-20.38a.39.39,0,0,0,.08-.14c.83-2.35,22.68-63.23,56.67-77.53a.49.49,0,0,0,.28-.59c-1.77-6.37-21.12-84.33,68.72-152.54a.51.51,0,0,1,.8.52c-2.6,10-15.9,69.82,30.49,104l.06,0c2.23,1.16,112.67,58.76,122.09,73.31s79.19,105,85.64,227a.52.52,0,0,1-.23.46c-29.14,18.67-58,34.25-93.89,40.33a.5.5,0,0,0-.26.85c8.3,7.64,82.23,77.08,32.78,96.55ZM680.85,898.46"/></symbol><symbol id="a" viewBox="0 0 1140.83 949.65"><use width="1140.83" height="949.65" xlink:href="#b"/><use width="1098.89" height="907.72" transform="translate(20.54 21.4)" xlink:href="#c"/></symbol></defs><rect class="d" width="1000" height="1000"/><use width="1140.83" height="949.65" transform="translate(77.01 152.98) scale(0.73)" xlink:href="#a"/></svg>