<svg xmlns="http://www.w3.org/2000/svg" xmlns:xlink="http://www.w3.org/1999/xlink" viewBox="0 0 1506.61 111.1"><defs><style>.cls-1,.cls-2{fill:#d9b776;}.cls-1{stroke:#161515;stroke-miterlimit:7.57;stroke-width:10px;}.cls-2{font-size:92px;font-family:Montserrat-Medium, Montserrat;font-weight:500;letter-spacing:0.02em;}.cls-3{letter-spacing:0.01em;}.cls-4{letter-spacing:-0.02em;}.cls-5{letter-spacing:0.02em;}.cls-6{letter-spacing:0.02em;}.cls-10,.cls-11,.cls-12,.cls-7,.cls-8,.cls-9{font-size:100px;font-family:Montserrat-Light, Montserrat;font-weight:300;}.cls-7{letter-spacing:0.04em;}.cls-8{letter-spacing:0.03em;}.cls-9{letter-spacing:0.03em;}.cls-10{letter-spacing:0.04em;}.cls-11{letter-spacing:0.03em;}.cls-12{letter-spacing:0.03em;}</style><symbol id="Squirrel_Filled_-_Gold" data-name="Squirrel Filled - Gold" viewBox="0 0 376.85 312.17"><path id="Squirrel_Filled" data-name="Squirrel Filled" class="cls-1" d="M350.92,215.39s-6.69,1-11.43-3.64a.16.16,0,0,0-.27.17,11.54,11.54,0,0,1-.54,9.19c-4.14,8.75-15,12-23.5,7.36l-9.78-5a.17.17,0,0,0-.18,0c-.54.41-3.6,2.74-8.25,5.67-12.86,7.61-25.77,13.93-40.9,15.62a.17.17,0,0,0-.15.2c5.72,23.73-11.66,41.3-14.19,43.69a.17.17,0,0,0,.12.29c25.93.67,26,16.27,25.89,18a.17.17,0,0,1-.17.16H117.75a.17.17,0,0,1-.17-.19l1-9a.17.17,0,0,0-.21-.18c-21.62,6.11-48.22.26-63.22-14.95h0c-32-39.47-11.75-82.54-1.93-122.18,7.11-29,13.73-64.17,5.93-80.17-10.68-21.93-34.77-25-53.81-4a.17.17,0,0,1-.3-.13c11-126,178.17-66,155.65,32.86a.16.16,0,0,0,.16.21c9.79-.19,22.5,1.71,37.15,7.18,0,0,35.93,11.88,50.43-6.89l0,0c.28-.8,7.67-21.4,19.17-26.24a.17.17,0,0,0,.1-.2c-.6-2.15-7.15-28.53,23.25-51.61a.17.17,0,0,1,.27.17c-.88,3.37-5.38,23.63,10.32,35.19l0,0c.76.39,38.13,19.88,41.31,24.81s26.8,35.52,29,76.8a.15.15,0,0,1-.07.15c-9.86,6.32-19.65,11.59-31.77,13.65a.17.17,0,0,0-.09.29c2.81,2.58,27.82,26.08,11.09,32.67ZM232.74,306.68"/></symbol></defs><g id="Layer_2" data-name="Layer 2"><g id="Logos"><g id="Main_Colors" data-name="Main Colors"><g id="Squirrel_Stripe_Logo" data-name="Squirrel Stripe Logo"><use width="376.84" height="312.17" transform="translate(0 3.61) scale(0.31)" xlink:href="#Squirrel_Filled_-_Gold"/><text class="cls-2" transform="translate(130.5 85)">A<tspan class="cls-3" x="69.18" y="0">P</tspan><tspan class="cls-4" x="136.53" y="0">P</tspan><tspan x="200.65" y="0">A</tspan><tspan class="cls-5" x="269.83" y="0">L</tspan><tspan class="cls-6" x="326.6" y="0">ACHIA </tspan><tspan class="cls-7" x="666.81" y="0">INTER</tspan><tspan class="cls-8" x="992.9" y="0">A</tspan><tspan class="cls-9" x="1066.4" y="0">C</tspan><tspan class="cls-10" x="1141.1" y="0">T</tspan><tspan class="cls-11" x="1201.4" y="0">I</tspan><tspan class="cls-12" x="1234" y="0">V</tspan><tspan class="cls-7" x="1305.2" y="0">E</tspan></text></g></g></g></g></svg>