<svg xmlns="http://www.w3.org/2000/svg" xmlns:xlink="http://www.w3.org/1999/xlink" viewBox="0 0 1536 128"><defs><style>.a,.c{fill:#d9b776;}.a{stroke:#161515;stroke-miterlimit:7.57;stroke-width:10px;}.b{fill:#161515;}.c{font-size:92px;font-family:Montserrat-Medium, Montserrat;font-weight:500;letter-spacing:0.02em;}.d{letter-spacing:0.01em;}.e{letter-spacing:-0.02em;}.f{letter-spacing:0.02em;}.g{letter-spacing:0.02em;}.h,.i,.j,.k,.l,.m{font-size:100px;font-family:Montserrat-Regular, Montserrat;font-weight:400;}.h{letter-spacing:0.04em;}.i{letter-spacing:0.03em;}.j{letter-spacing:0.03em;}.k{letter-spacing:0.03em;}.l{letter-spacing:0.03em;}.m{letter-spacing:0.04em;}</style><symbol id="a" viewBox="0 0 376.85 312.17"><path class="a" d="M350.92,215.39s-6.69,1-11.43-3.64a.16.16,0,0,0-.27.17,11.54,11.54,0,0,1-.54,9.19c-4.14,8.75-15,12-23.5,7.36l-9.78-5a.17.17,0,0,0-.18,0c-.54.41-3.6,2.74-8.25,5.67-12.86,7.61-25.77,13.93-40.9,15.62a.17.17,0,0,0-.15.2c5.72,23.73-11.66,41.3-14.19,43.69a.17.17,0,0,0,.12.29c25.93.67,26,16.27,25.89,18a.17.17,0,0,1-.17.16H117.75a.17.17,0,0,1-.17-.19l1-9a.17.17,0,0,0-.21-.18c-21.62,6.11-48.22.26-63.22-14.95h0c-32-39.47-11.75-82.54-1.93-122.18,7.11-29,13.73-64.17,5.93-80.17-10.68-21.93-34.77-25-53.81-4a.17.17,0,0,1-.3-.13c11-126,178.17-66,155.65,32.86a.16.16,0,0,0,.16.21c9.79-.19,22.5,1.71,37.15,7.18,0,0,35.93,11.88,50.43-6.89l0,0c.28-.8,7.67-21.4,19.17-26.24a.17.17,0,0,0,.1-.2c-.6-2.15-7.15-28.53,23.25-51.61a.17.17,0,0,1,.27.17c-.88,3.37-5.38,23.63,10.32,35.19l0,0c.76.39,38.13,19.88,41.31,24.81s26.8,35.52,29,76.8a.15.15,0,0,1-.07.15c-9.86,6.32-19.65,11.59-31.77,13.65a.17.17,0,0,0-.09.29c2.81,2.58,27.82,26.08,11.09,32.67ZM232.74,306.68"/></symbol></defs><rect class="b" width="1536" height="128"/><use width="376.84" height="312.17" transform="translate(13.61 15.25) scale(0.31)" xlink:href="#a"/><text class="c" transform="translate(144.12 96.64)">A<tspan class="d" x="69.18" y="0">P</tspan><tspan class="e" x="136.53" y="0">P</tspan><tspan x="200.65" y="0">A</tspan><tspan class="f" x="269.83" y="0">L</tspan><tspan class="g" x="326.6" y="0">ACHIA </tspan><tspan class="h" x="666.81" y="0">INTER</tspan><tspan class="i" x="994.9" y="0">A</tspan><tspan class="j" x="1069.6" y="0">C</tspan><tspan class="h" x="1144.6" y="0">T</tspan><tspan class="k" x="1206" y="0">I</tspan><tspan class="l" x="1239.4" y="0">V</tspan><tspan class="m" x="1311.7" y="0">E</tspan></text></svg>