<svg xmlns="http://www.w3.org/2000/svg" xmlns:xlink="http://www.w3.org/1999/xlink" width="1536" height="128" viewBox="0 0 1536 128"><defs><style>.a,.c{fill:#d9b776;}.a{stroke:#161515;stroke-miterlimit:7.57;stroke-width:10px;}.b{fill:#161515;}</style><symbol id="a" viewBox="0 0 376.85 312.17"><path class="a" d="M350.92,215.39s-6.69,1-11.43-3.64a.16.16,0,0,0-.27.17,11.54,11.54,0,0,1-.54,9.19c-4.14,8.75-15,12-23.5,7.36l-9.78-5a.17.17,0,0,0-.18,0c-.54.41-3.6,2.74-8.25,5.67-12.86,7.61-25.77,13.93-40.9,15.62a.17.17,0,0,0-.15.2c5.72,23.73-11.66,41.3-14.19,43.69a.17.17,0,0,0,.12.29c25.93.67,26,16.27,25.89,18a.17.17,0,0,1-.17.16H117.75a.17.17,0,0,1-.17-.19l1-9a.17.17,0,0,0-.21-.18c-21.62,6.11-48.22.26-63.22-14.95h0c-32-39.47-11.75-82.54-1.93-122.18,7.11-29,13.73-64.17,5.93-80.17-10.68-21.93-34.77-25-53.81-4a.17.17,0,0,1-.3-.13c11-126,178.17-66,155.65,32.86a.16.16,0,0,0,.16.21c9.79-.19,22.5,1.71,37.15,7.18,0,0,35.93,11.88,50.43-6.89l0,0c.28-.8,7.67-21.4,19.17-26.24a.17.17,0,0,0,.1-.2c-.6-2.15-7.15-28.53,23.25-51.61a.17.17,0,0,1,.27.17c-.88,3.37-5.38,23.63,10.32,35.19l0,0c.76.39,38.13,19.88,41.31,24.81s26.8,35.52,29,76.8a.15.15,0,0,1-.07.15c-9.86,6.32-19.65,11.59-31.77,13.65a.17.17,0,0,0-.09.29c2.81,2.58,27.82,26.08,11.09,32.67ZM232.74,306.68"/></symbol></defs><rect class="b" width="1536" height="128"/><use width="376.84" height="312.17" transform="translate(13.61 15.25) scale(0.31)" xlink:href="#a"/><path class="c" d="M194.81,80.54H160.58l-7.08,16.1H144l29.17-64.4h9.11l29.25,64.4h-9.66Zm-3.22-7.36L177.7,41.63,163.8,73.18Z"/><path class="c" d="M267.76,38.22q7.19,6,7.18,16.47t-7.18,16.47q-7.17,6-19.69,6H232.16v19.5H223V32.24h25.11Q260.6,32.24,267.76,38.22Zm-6.62,27.19q4.61-3.73,4.6-10.72T261.14,44q-4.61-3.72-13.34-3.72H232.16V69.13H247.8Q256.54,69.13,261.14,65.41Z"/><path class="c" d="M335.11,38.22q7.17,6,7.17,16.47t-7.17,16.47q-7.19,6-19.69,6H299.5v19.5h-9.2V32.24h25.12Q327.93,32.24,335.11,38.22Zm-6.63,27.19q4.61-3.73,4.6-10.72T328.48,44q-4.61-3.72-13.34-3.72H299.5V69.13h15.64Q323.89,69.13,328.48,65.41Z"/><path class="c" d="M395.46,80.54H361.23l-7.08,16.1h-9.48l29.17-64.4h9.1l29.26,64.4h-9.66Zm-3.22-7.36L378.35,41.63l-13.9,31.55Z"/><path class="c" d="M423.61,32.24h9.2v56.4h34.87v8H423.61Z"/><path class="c" d="M521.4,80.54H487.18l-7.08,16.1h-9.48l29.16-64.4h9.11l29.26,64.4h-9.66Zm-3.22-7.36L504.29,41.63,490.4,73.18Z"/><path class="c" d="M560.92,93.1a31.39,31.39,0,0,1-12.19-11.78,32.54,32.54,0,0,1-4.42-16.88,32.59,32.59,0,0,1,4.42-16.88A31.43,31.43,0,0,1,561,35.78a35.82,35.82,0,0,1,17.48-4.27A36.41,36.41,0,0,1,592.24,34a28.14,28.14,0,0,1,10.67,7.49l-6,5.8a24,24,0,0,0-18.12-7.64,26.32,26.32,0,0,0-13,3.22,23.3,23.3,0,0,0-9.06,8.88,24.82,24.82,0,0,0-3.27,12.65,24.82,24.82,0,0,0,3.27,12.65A23.3,23.3,0,0,0,565.84,86a26.21,26.21,0,0,0,13,3.22,24,24,0,0,0,18.12-7.73l6,5.8A28.5,28.5,0,0,1,592.2,94.8a36.26,36.26,0,0,1-13.85,2.58A35.55,35.55,0,0,1,560.92,93.1Z"/><path class="c" d="M673.29,32.24v64.4h-9.2V67.94h-37v28.7h-9.2V32.24h9.2V59.93h37V32.24Z"/><path class="c" d="M694.45,32.24h9.2v64.4h-9.2Z"/><path class="c" d="M765.85,80.54H731.62l-7.08,16.1h-9.48l29.16-64.4h9.11l29.26,64.4h-9.66Zm-3.22-7.36-13.9-31.55L734.84,73.18Z"/><path class="c" d="M822.32,26.64h7.4v70h-7.4Z"/><path class="c" d="M915,26.64v70h-6.1l-45-56.8v56.8h-7.4v-70h6.1l45.1,56.8V26.64Z"/><path class="c" d="M955.42,33h-24.6v-6.4h56.6V33h-24.6v63.6h-7.4Z"/><path class="c" d="M1052.72,90.24v6.4h-49.5v-70h48V33h-40.6v24.9h36.2v6.3h-36.2v26Z"/><path class="c" d="M1121.92,96.64l-16-22.5a50.75,50.75,0,0,1-5.6.3h-18.8v22.2h-7.4v-70h26.2q13.4,0,21,6.4t7.6,17.6a22.71,22.71,0,0,1-4.15,13.85,23,23,0,0,1-11.85,8.15l17.1,24Zm-5.9-33.1q5.51-4.59,5.5-12.9,0-8.49-5.5-13T1100.12,33h-18.6v35.1h18.6Q1110.51,68.14,1116,63.54Z"/><path class="c" d="M1194.32,77.94h-39l-8.4,18.7h-7.7l32-70h7.3l32,70h-7.8Zm-2.7-6-16.8-37.6L1158,71.94Z"/><path class="c" d="M1236.77,92.64a33.53,33.53,0,0,1-13.1-12.75,35.51,35.51,0,0,1-4.75-18.25,35.57,35.57,0,0,1,4.75-18.25,33.6,33.6,0,0,1,13.15-12.75,38.54,38.54,0,0,1,18.8-4.6,39,39,0,0,1,14.4,2.6,30,30,0,0,1,11.2,7.6l-4.7,4.7q-8.2-8.3-20.7-8.3a30.43,30.43,0,0,0-15.1,3.8,27.72,27.72,0,0,0-10.65,10.4,28.81,28.81,0,0,0-3.85,14.8,28.79,28.79,0,0,0,3.85,14.8,27.65,27.65,0,0,0,10.65,10.4,30.32,30.32,0,0,0,15.1,3.8q12.6,0,20.7-8.4l4.7,4.7A30.17,30.17,0,0,1,1270,94.59a38.64,38.64,0,0,1-14.45,2.65A38.13,38.13,0,0,1,1236.77,92.64Z"/><path class="c" d="M1313.72,33h-24.6v-6.4h56.6V33h-24.6v63.6h-7.4Z"/><path class="c" d="M1361.52,26.64h7.4v70h-7.4Z"/><path class="c" d="M1453.12,26.64l-31,70h-7.3l-31-70h8l26.8,60.8,27-60.8Z"/><path class="c" d="M1516.72,90.24v6.4h-49.5v-70h48V33h-40.6v24.9h36.2v6.3h-36.2v26Z"/></svg>