<svg xmlns="http://www.w3.org/2000/svg" xmlns:xlink="http://www.w3.org/1999/xlink" width="1506.57" height="102.92" viewBox="0 0 1506.57 102.92"><defs><style>.a,.b{fill:#d9b776;}.a{stroke:#161515;stroke-miterlimit:7.57;stroke-width:10px;}</style><symbol id="a" viewBox="0 0 376.85 312.17"><path class="a" d="M350.92,215.39s-6.69,1-11.43-3.64a.16.16,0,0,0-.27.17,11.54,11.54,0,0,1-.54,9.19c-4.14,8.75-15,12-23.5,7.36l-9.78-5a.17.17,0,0,0-.18,0c-.54.41-3.6,2.74-8.25,5.67-12.86,7.61-25.77,13.93-40.9,15.62a.17.17,0,0,0-.15.2c5.72,23.73-11.66,41.3-14.19,43.69a.17.17,0,0,0,.12.29c25.93.67,26,16.27,25.89,18a.17.17,0,0,1-.17.16H117.75a.17.17,0,0,1-.17-.19l1-9a.17.17,0,0,0-.21-.18c-21.62,6.11-48.22.26-63.22-14.95h0c-32-39.47-11.75-82.54-1.93-122.18,7.11-29,13.73-64.17,5.93-80.17-10.68-21.93-34.77-25-53.81-4a.17.17,0,0,1-.3-.13c11-126,178.17-66,155.65,32.86a.16.16,0,0,0,.16.21c9.79-.19,22.5,1.71,37.15,7.18,0,0,35.93,11.88,50.43-6.89l0,0c.28-.8,7.67-21.4,19.17-26.24a.17.17,0,0,0,.1-.2c-.6-2.15-7.15-28.53,23.25-51.61a.17.17,0,0,1,.27.17c-.88,3.37-5.38,23.63,10.32,35.19l0,0c.76.39,38.13,19.88,41.31,24.81s26.8,35.52,29,76.8a.15.15,0,0,1-.07.15c-9.86,6.32-19.65,11.59-31.77,13.65a.17.17,0,0,0-.09.29c2.81,2.58,27.82,26.08,11.09,32.67ZM232.74,306.68"/></symbol></defs><use width="376.84" height="312.17" transform="translate(3.46 3.46) scale(0.31)" xlink:href="#a"/><path class="b" d="M184.66,68.9H150.43L143.35,85h-9.48L163,20.6h9.1L201.4,85h-9.66Zm-3.22-7.36L167.54,30,153.65,61.54Z" transform="translate(0 -0.14)"/><path class="b" d="M257.61,26.58q7.18,6,7.18,16.47t-7.18,16.47q-7.17,6-19.69,6H222V85h-9.2V20.6h25.11Q250.43,20.6,257.61,26.58ZM251,53.77q4.59-3.74,4.6-10.72T251,32.33q-4.61-3.73-13.34-3.73H222V57.49h15.64Q246.38,57.49,251,53.77Z" transform="translate(0 -0.14)"/><path class="b" d="M325,26.58q7.19,6,7.18,16.47T325,59.52q-7.17,6-19.68,6H289.35V85h-9.2V20.6h25.12Q317.78,20.6,325,26.58Zm-6.62,27.19q4.6-3.74,4.6-10.72t-4.6-10.72Q313.73,28.6,305,28.6H289.35V57.49H305Q313.74,57.49,318.33,53.77Z" transform="translate(0 -0.14)"/><path class="b" d="M385.3,68.9H351.08L344,85h-9.48l29.16-64.4h9.11L402.05,85h-9.66Zm-3.21-7.36L368.19,30,354.3,61.54Z" transform="translate(0 -0.14)"/><path class="b" d="M413.46,20.6h9.2V77h34.86v8H413.46Z" transform="translate(0 -0.14)"/><path class="b" d="M511.25,68.9H477L469.94,85h-9.47l29.16-64.4h9.11L528,85h-9.66ZM508,61.54,494.14,30,480.25,61.54Z" transform="translate(0 -0.14)"/><path class="b" d="M550.76,81.46a31.59,31.59,0,0,1-12.19-11.78,32.68,32.68,0,0,1-4.41-16.88,32.66,32.66,0,0,1,4.41-16.88,31.45,31.45,0,0,1,12.24-11.78,35.83,35.83,0,0,1,17.48-4.28,36.61,36.61,0,0,1,13.8,2.53,28.27,28.27,0,0,1,10.67,7.5l-6,5.8a24,24,0,0,0-18.12-7.64,26.18,26.18,0,0,0-13,3.22,23.39,23.39,0,0,0-9.07,8.88,24.91,24.91,0,0,0-3.26,12.65,24.91,24.91,0,0,0,3.26,12.65,23.39,23.39,0,0,0,9.07,8.88,26.29,26.29,0,0,0,13,3.22,24,24,0,0,0,18.12-7.73l6,5.79A28.48,28.48,0,0,1,582,83.16a36.17,36.17,0,0,1-13.84,2.58A35.62,35.62,0,0,1,550.76,81.46Z" transform="translate(0 -0.14)"/><path class="b" d="M663.14,20.6V85h-9.2V56.29H617V85h-9.2V20.6H617V48.29h37V20.6Z" transform="translate(0 -0.14)"/><path class="b" d="M684.3,20.6h9.2V85h-9.2Z" transform="translate(0 -0.14)"/><path class="b" d="M755.69,68.9H721.47L714.39,85h-9.48l29.16-64.4h9.11L772.44,85h-9.66Zm-3.22-7.36L738.58,30,724.69,61.54Z" transform="translate(0 -0.14)"/><path class="b" d="M812.17,15h7.4V85h-7.4Z" transform="translate(0 -0.14)"/><path class="b" d="M904.87,15V85h-6.1l-45-56.8V85h-7.4V15h6.1l45.1,56.8V15Z" transform="translate(0 -0.14)"/><path class="b" d="M945.27,21.4h-24.6V15h56.6v6.4h-24.6V85h-7.4Z" transform="translate(0 -0.14)"/><path class="b" d="M1042.57,78.6V85h-49.5V15h48v6.4h-40.6V46.3h36.2v6.3h-36.2v26Z" transform="translate(0 -0.14)"/><path class="b" d="M1111.77,85l-16-22.5a50.75,50.75,0,0,1-5.6.3h-18.8V85H1064V15h26.2q13.39,0,21,6.4t7.6,17.6a22.8,22.8,0,0,1-4.15,13.85A23,23,0,0,1,1102.77,61l17.1,24Zm-5.9-33.1q5.49-4.6,5.5-12.9,0-8.51-5.5-13T1090,21.4h-18.6V56.5H1090Q1100.37,56.5,1105.87,51.9Z" transform="translate(0 -0.14)"/><path class="b" d="M1184.17,66.3h-39l-8.4,18.7h-7.7l32-70h7.3l32,70h-7.8Zm-2.7-6-16.8-37.6-16.8,37.6Z" transform="translate(0 -0.14)"/><path class="b" d="M1226.62,81a33.66,33.66,0,0,1-13.1-12.75A35.54,35.54,0,0,1,1208.77,50a35.54,35.54,0,0,1,4.75-18.25A33.6,33.6,0,0,1,1226.67,19a38.43,38.43,0,0,1,18.8-4.6,39,39,0,0,1,14.4,2.6,29.87,29.87,0,0,1,11.2,7.6l-4.7,4.7q-8.2-8.3-20.7-8.3a30.43,30.43,0,0,0-15.1,3.8,27.65,27.65,0,0,0-10.65,10.4,28.79,28.79,0,0,0-3.85,14.8,28.79,28.79,0,0,0,3.85,14.8,27.65,27.65,0,0,0,10.65,10.4,30.43,30.43,0,0,0,15.1,3.8q12.6,0,20.7-8.4l4.7,4.7A30.41,30.41,0,0,1,1259.82,83a38.64,38.64,0,0,1-14.45,2.65A38.13,38.13,0,0,1,1226.62,81Z" transform="translate(0 -0.14)"/><path class="b" d="M1303.57,21.4H1279V15h56.6v6.4H1311V85h-7.4Z" transform="translate(0 -0.14)"/><path class="b" d="M1351.37,15h7.4V85h-7.4Z" transform="translate(0 -0.14)"/><path class="b" d="M1443,15l-31,70h-7.3l-31-70h8l26.8,60.8,27-60.8Z" transform="translate(0 -0.14)"/><path class="b" d="M1506.57,78.6V85h-49.5V15h48v6.4h-40.6V46.3h36.2v6.3h-36.2v26Z" transform="translate(0 -0.14)"/></svg>