<svg xmlns="http://www.w3.org/2000/svg" xmlns:xlink="http://www.w3.org/1999/xlink" viewBox="0 0 640 320"><defs><style>.a{fill:#fff;}.b,.c,.d{fill:none;}.c,.d{stroke:#fff;stroke-miterlimit:7.57;}.c{stroke-width:0.79px;}.d{stroke-width:1.48px;}</style><symbol id="a" viewBox="0 0 363.14 94.34"><path class="a" d="M27.6,33.75H9L5.15,42.5H0l15.85-35h5l15.9,35H31.45Zm-1.75-4L18.3,12.6,10.75,29.75Z"/><path class="a" d="M68.25,10.75a11,11,0,0,1,3.9,9,11,11,0,0,1-3.9,9q-3.9,3.26-10.7,3.25H48.9V42.5h-5V7.5H57.55Q64.35,7.5,68.25,10.75Zm-3.6,14.77a7,7,0,0,0,2.5-5.82,7.07,7.07,0,0,0-2.5-5.83c-1.67-1.35-4.08-2-7.25-2H48.9v15.7h8.5C60.57,27.55,63,26.87,64.65,25.52Z"/><path class="a" d="M105.85,10.75a11,11,0,0,1,3.9,9,11,11,0,0,1-3.9,9q-3.9,3.26-10.7,3.25H86.5V42.5h-5V7.5H95.15Q101.95,7.5,105.85,10.75Zm-3.6,14.77a7,7,0,0,0,2.5-5.82,7.07,7.07,0,0,0-2.5-5.83c-1.67-1.35-4.08-2-7.25-2H86.5v15.7H95C98.17,27.55,100.58,26.87,102.25,25.52Z"/><path class="a" d="M139.65,33.75h-18.6L117.2,42.5h-5.15l15.85-35h4.95l15.9,35H143.5Zm-1.75-4L130.35,12.6,122.8,29.75Z"/><path class="a" d="M156,7.5h5V38.15h19V42.5H156Z"/><path class="a" d="M210.1,33.75H191.5l-3.85,8.75H182.5l15.85-35h5l15.9,35H214Zm-1.75-4L200.8,12.6l-7.55,17.15Z"/><path class="a" d="M232.57,40.57a17,17,0,0,1-6.62-6.4,17.7,17.7,0,0,1-2.4-9.17,17.76,17.76,0,0,1,2.4-9.18,17.06,17.06,0,0,1,6.65-6.4,19.45,19.45,0,0,1,9.5-2.32,20,20,0,0,1,7.5,1.37,15.45,15.45,0,0,1,5.8,4.08l-3.25,3.15a13,13,0,0,0-9.85-4.15,14.23,14.23,0,0,0-7.05,1.75,12.69,12.69,0,0,0-4.93,4.82A13.56,13.56,0,0,0,228.55,25a13.52,13.52,0,0,0,1.77,6.87,12.72,12.72,0,0,0,4.93,4.83,14.23,14.23,0,0,0,7.05,1.75,13.07,13.07,0,0,0,9.85-4.2l3.25,3.15a15.56,15.56,0,0,1-5.83,4.1,19.74,19.74,0,0,1-7.52,1.4A19.35,19.35,0,0,1,232.57,40.57Z"/><path class="a" d="M294.65,7.5v35h-5V26.9h-20.1V42.5h-5V7.5h5V22.55h20.1V7.5Z"/><path class="a" d="M307.15,7.5h5v35h-5Z"/><path class="a" d="M347,33.75h-18.6L324.5,42.5h-5.15l15.85-35h4.95l15.9,35H350.8Zm-1.75-4L337.65,12.6,330.1,29.75Z"/><path class="a" d="M3.68,85.64V58h2V85.64Z"/><path class="a" d="M25.44,61.66v24h-2V58h1.64l19.3,24.38V58h2V85.64h-2Z"/><path class="a" d="M83.47,59.75H73.33V85.64h-2V59.75H61.2V58H83.47Z"/><path class="a" d="M116.74,83.85v1.79H98.29V58h18.1v1.8H100.28V70.63h14.08v1.71H100.28V83.85Z"/><path class="a" d="M132.69,85.64V58h11.5a7.17,7.17,0,0,1,3.26.74,8.39,8.39,0,0,1,2.53,2,9.37,9.37,0,0,1,1.68,2.75,8.49,8.49,0,0,1,.61,3.12,9.25,9.25,0,0,1-.82,3.86,8.44,8.44,0,0,1-2.28,3,6.78,6.78,0,0,1-3.42,1.48l6.91,10.76h-2.31l-6.7-10.45h-9V85.64Zm2-12.28h9.71a5.15,5.15,0,0,0,3.12-1,6.55,6.55,0,0,0,2.05-2.53,7.84,7.84,0,0,0,.72-3.32,6.86,6.86,0,0,0-.84-3.33,7.15,7.15,0,0,0-2.22-2.5,5.4,5.4,0,0,0-3.1-1h-9.44Z"/><path class="a" d="M177,58h1.72l11.7,27.69H188.3l-3.77-9.12H171.15l-3.79,9.12h-2.15Zm6.86,16.93-6-14.51-6,14.51Z"/><path class="a" d="M202.22,71.56a14.61,14.61,0,0,1,.88-4.93,14.78,14.78,0,0,1,2.56-4.45A12.53,12.53,0,0,1,209.77,59a12.32,12.32,0,0,1,5.56-1.21,11.38,11.38,0,0,1,6.32,1.69,10.84,10.84,0,0,1,3.9,4.35l-1.64.94a9.06,9.06,0,0,0-2.4-3,8.88,8.88,0,0,0-3.06-1.62,11.29,11.29,0,0,0-3.28-.49,10.09,10.09,0,0,0-4.66,1,10.73,10.73,0,0,0-3.45,2.81,12.53,12.53,0,0,0-2.12,3.9,13.3,13.3,0,0,0-.73,4.33,12.77,12.77,0,0,0,.86,4.66,13.06,13.06,0,0,0,2.36,3.92A11.33,11.33,0,0,0,210.94,83a9.48,9.48,0,0,0,4.35,1,10.88,10.88,0,0,0,3.41-.57A10.57,10.57,0,0,0,222,81.68a8.77,8.77,0,0,0,2.46-3.1l1.71.82a9,9,0,0,1-2.69,3.51,12.91,12.91,0,0,1-4,2.19,13.5,13.5,0,0,1-4.33.74A11.09,11.09,0,0,1,210,84.61a13.37,13.37,0,0,1-4.12-3.28,15.35,15.35,0,0,1-3.61-9.77Z"/><path class="a" d="M260.76,59.75H250.62V85.64h-2V59.75H238.49V58h22.27Z"/><path class="a" d="M275.58,85.64V58h2V85.64Z"/><path class="a" d="M294.42,58,305,83.15,315.48,58h2.11L305.92,85.64H304L292.31,58Z"/><path class="a" d="M350.81,83.85v1.79H332.37V58h18.09v1.8h-16.1V70.63h14.07v1.71H334.36V83.85Z"/></symbol></defs><rect class="b" width="640" height="320"/><path class="c" d="M129.58,136.09c3.41-16.4-29.21-41.42-48-11.12m35.09,14.83c6.36-17-16.3-45.13-35.09-14.83m78.6,54c-3.77-46-49.54-37.71-53.62-25.36m9.5,45.25c18.58-6.45,25.63-3.75,36.44-24.17,6.4-17.25,22.34-12.8,23.37-11.95M132.1,193.05c-7.93-3.19-26.91-22.23-18.34-37.18,11.73-20.44,46.61.25,70.71-1,4-.51,8.68-3.12,10.91-3.27M163.72,128c2.38,9.22,16.43,1.35,20.81,7.42,4.66,6.46,8.17,21.09,8.17,21.09m-97-52.25c35.33,5.44,20.39,36.77,20.39,36.77M101.6,194.67c26.78-11.32,41.93-21.44,42.37-55.24m19.42-11.25s-2.71-8.79,7.43-16.4c0,0-2.19,7.26,3.21,11.24,0,0,12,6.25,13,7.81s8.45,11.21,9.13,24.22c0,0-6,4.21-12.53,4.14a13.69,13.69,0,0,1-4.47-1,66.46,66.46,0,0,1-13.6-7.9c-1.65-1.3-2.31-4.48-3-7.34C161.34,137.28,163.39,128.18,163.39,128.18Zm-69-23.54c32.51,14.47-2.78,52.71-3.53,67.55-.41,7.84.65,13.69,5.6,18.82a17.39,17.39,0,0,0,9.75,5.11,23,23,0,0,0,3.2.31,26.46,26.46,0,0,0,3.51-.15,29.59,29.59,0,0,0,4.56-1.24c4-1.25,17.38-8.41,23.67-16.36,9.29-11.73,15.43-35.49,16.17-41.82M90.8,172.2c0-1.45,2.79-10.57,5-19.67s4.32-20.21,1.87-25.24c-3.39-7-11-7.88-17.06-1.16,3.33-39.93,56.21-21,49.35,10.24m56,23s9.14,8.17,3.56,10.37a4.52,4.52,0,0,1-3.88-1.57m-13-13.22s-6.29,5.53,8.77,9.79c0,0,6.3,2.48,4.25,6.8a5.35,5.35,0,0,1-7.4,2.31l-3.11-1.57s-16.13,12.59-22.73,2.36c-10.19-35.23-51.58-27.11-45.61,3m45.61,21-.24-.31c-.39-2.12-1.15-5.13-8.1-5.42a148.08,148.08,0,0,0-23.89,1m-4.17,1.83v2.89h47.3s.5-5.56-8.29-5.73c0,0,6.54-5.82,5.39-13.48m-40.23,14.49s-33-24.25-6.08-50.93c0,0,9.37-10.59,27.24-4.36,0,0,11.32,3.74,15.88-2.18,0,0,2.37-6.77,6.09-8.29"/><path class="d" d="M189.92,169.46a4.59,4.59,0,0,1-3.6-1.14,0,0,0,0,0-.08.05,3.65,3.65,0,0,1-.17,2.89,5.37,5.37,0,0,1-7.41,2.32L175.59,172a.06.06,0,0,0-.06,0c-.17.13-1.14.86-2.6,1.79-4.05,2.39-8.12,4.39-12.88,4.92a.06.06,0,0,0-.05.06c1.81,7.47-3.67,13-4.47,13.76a.05.05,0,0,0,0,.09c8.17.21,8.18,5.12,8.15,5.67a0,0,0,0,1-.05.05H116.49s-.06,0,0-.05l.3-2.83a.05.05,0,0,0-.07,0c-6.8,1.92-15.18.08-19.9-4.71h0c-10.08-12.44-3.7-26-.61-38.48C98.39,143.11,100.48,132,98,127c-3.36-6.91-11-7.86-17-1.28,0,0-.09,0-.09,0C84.43,86,137.09,104.89,130,136a.05.05,0,0,0,.05.07,32.32,32.32,0,0,1,11.7,2.26s11.31,3.74,15.88-2.17v0c.09-.25,2.42-6.73,6-8.26a0,0,0,0,0,0-.06c-.19-.68-2.25-9,7.32-16.26a.06.06,0,0,1,.09.06c-.28,1.06-1.7,7.44,3.25,11.08h0c.24.12,12,6.26,13,7.81s8.44,11.19,9.13,24.19a.05.05,0,0,1,0,0,26.46,26.46,0,0,1-10,4.3.05.05,0,0,0,0,.09c.89.82,8.77,8.22,3.5,10.29ZM152.7,198.21"/><use width="363.14" height="94.34" transform="translate(217 113.58)" xlink:href="#a"/></svg>