<svg xmlns="http://www.w3.org/2000/svg" width="150" height="150"><path style="fill:none" d="M0 0h150v150H0z"/><rect x="2.5" y="118.63" width="145" height="27.22" rx="8.26" style="stroke:#fff;stroke-miterlimit:10;fill:#161515"/><path d="M35 126a3.35 3.35 0 0 0-2.44-2.29c-2.15-.54-10.76-.54-10.76-.54s-8.61 0-10.76.54A3.35 3.35 0 0 0 8.55 126a34.39 34.39 0 0 0 0 12.47 3.37 3.37 0 0 0 2.45 2.3c2.15.54 10.76.54 10.76.54s8.61 0 10.76-.54a3.37 3.37 0 0 0 2.48-2.29 32.09 32.09 0 0 0 .57-6.24A32 32 0 0 0 35 126z" style="fill:#fff"/><path d="M30.49 134.89a.75.75 0 0 1-.58-.18.57.57 0 0 1 0 .46.87.87 0 0 1-1.19.37l-.5-.25a3.69 3.69 0 0 1-.41.28 5.22 5.22 0 0 1-2.08.79 2.38 2.38 0 0 1-.72 2.19c1.31 0 1.31.82 1.31.9h-7.69l.05-.45a3.42 3.42 0 0 1-3.21-.75c-1.63-2-.6-4.14-.1-6.14.36-1.45.7-3.22.3-4-.54-1.1-1.76-1.26-2.73-.21.56-6.33 9.05-3.32 7.91 1.65a5.16 5.16 0 0 1 1.89.36s1.82.6 2.56-.35.39-1.07 1-1.32a2.47 2.47 0 0 1 1.18-2.59 1.69 1.69 0 0 0 .53 1.77 16 16 0 0 1 2.1 1.24 7.58 7.58 0 0 1 1.47 3.86 4.13 4.13 0 0 1-1.61.68s1.41 1.31.56 1.64z" style="fill:#161515"/><text transform="translate(40.99 137.09)" style="font-size:15px;font-family:Montserrat-Bold,Montserrat;font-weight:700;letter-spacing:.04em;fill:#fff">SUBSCRIBE</text></svg>